<?xml version="1.0" encoding="UTF-8"?>
<svg width="16px" height="16px" viewBox="0 0 16 16" version="1.1" xmlns="http://www.w3.org/2000/svg" xmlns:xlink="http://www.w3.org/1999/xlink">
    <!-- Generator: Sketch 41.2 (35397) - http://www.bohemiancoding.com/sketch -->
    <title>instagram-icon-white</title>
    <desc>Created with Sketch.</desc>
    <defs></defs>
    <g id="AppStarter" stroke="none" stroke-width="1" fill="none" fill-rule="evenodd">
        <g id="Webflow-Assets" transform="translate(-305.000000, -404.000000)" fill="#FFFFFF">
            <g id="Icons" transform="translate(235.000000, 363.000000)">
                <g id="Social" transform="translate(10.000000, 11.000000)">
                    <path d="M60,34.6138391 C60,32.0656861 62.058965,30 64.6278629,30 L71.3721371,30 C73.9280352,30 76,32.0690288 76,34.6138391 L76,41.337676 C76,43.885829 73.941035,45.9515152 71.3721371,45.9515152 L64.6278629,45.9515152 C62.0719648,45.9515152 60,43.8824863 60,41.337676 L60,34.6138391 Z M61.4482759,34.7573085 C61.4482759,32.9273564 62.9259366,31.4438871 64.7548291,31.4438871 L71.2451709,31.4438871 C73.0713298,31.4438871 74.5517241,32.9170701 74.5517241,34.7573085 L74.5517241,41.1942066 C74.5517241,43.0241587 73.0740634,44.507628 71.2451709,44.507628 L64.7548291,44.507628 C62.9286702,44.507628 61.4482759,43.0344451 61.4482759,41.1942066 L61.4482759,34.7573085 Z M68,42.0323929 C70.2472276,42.0323929 72.0689655,40.2161754 72.0689655,37.9757576 C72.0689655,35.7353398 70.2472276,33.9191223 68,33.9191223 C65.7527724,33.9191223 63.9310345,35.7353398 63.9310345,37.9757576 C63.9310345,40.2161754 65.7527724,42.0323929 68,42.0323929 Z M68,40.5885057 C69.4473669,40.5885057 70.6206897,39.4187385 70.6206897,37.9757576 C70.6206897,36.5327766 69.4473669,35.3630094 68,35.3630094 C66.5526331,35.3630094 65.3793103,36.5327766 65.3793103,37.9757576 C65.3793103,39.4187385 66.5526331,40.5885057 68,40.5885057 Z M72.2068966,34.6754441 C72.740137,34.6754441 73.1724138,34.2444772 73.1724138,33.7128527 C73.1724138,33.1812281 72.740137,32.7502612 72.2068966,32.7502612 C71.6736561,32.7502612 71.2413793,33.1812281 71.2413793,33.7128527 C71.2413793,34.2444772 71.6736561,34.6754441 72.2068966,34.6754441 Z" id="instagram-icon-white"></path>
                </g>
            </g>
        </g>
    </g>
</svg>