<?xml version="1.0" encoding="UTF-8"?>
<svg width="16px" height="16px" viewBox="0 0 16 16" version="1.1" xmlns="http://www.w3.org/2000/svg" xmlns:xlink="http://www.w3.org/1999/xlink">
    <!-- Generator: Sketch 41.2 (35397) - http://www.bohemiancoding.com/sketch -->
    <title>twitter-icon-white</title>
    <desc>Created with Sketch.</desc>
    <defs></defs>
    <g id="AppStarter" stroke="none" stroke-width="1" fill="none" fill-rule="evenodd">
        <g id="Webflow-Assets" transform="translate(-245.000000, -404.000000)" fill="#FFFFFF">
            <g id="Icons" transform="translate(235.000000, 363.000000)">
                <g id="Social" transform="translate(10.000000, 11.000000)">
                    <path d="M14.3709819,35.6465873 C14.3709819,39.9732664 11.0695852,44.9606061 5.03181155,44.9606061 C3.24242034,44.9596647 1.49272756,44.448405 0,43.4903124 C0.259846582,43.518555 0.521027325,43.5336884 0.782489056,43.5356519 C2.2674723,43.5356782 3.70720254,43.0393654 4.85970398,42.1301289 C3.4403253,42.0961897 2.20333729,41.1823424 1.79111945,39.8631563 C1.99499685,39.902289 2.20235045,39.9218146 2.41017302,39.9214499 C2.70345657,39.9224597 2.99541463,39.883209 3.2773817,39.8048627 C1.72727965,39.4778581 0.626796602,38.1388308 0.642401501,36.5987158 C1.09833714,36.8080848 1.60834863,36.9479208 2.130665,36.9679085 C0.683351793,35.9818095 0.243704201,34.0898732 1.11469669,32.5958899 C2.75676568,34.6294313 5.22280157,35.8759755 7.88025849,36.01578 C7.82369552,35.771305 7.79528136,35.5214852 7.79553888,35.2709176 C7.77180644,33.4875244 9.24151188,32.0231023 11.0782572,32 C11.9903026,32.0004152 12.8598576,32.3743516 13.4730873,33.0298533 C14.2111204,32.8884758 14.9174175,32.6209182 15.5590577,32.2396514 C15.3188954,32.9921349 14.8054286,33.6343138 14.1141547,34.0467524 C14.7660492,33.9709704 15.4020835,33.7983947 16,33.5350643 C15.5616715,34.1881997 15.0073959,34.7605866 14.3629769,35.2255781 C14.3689806,35.3680735 14.3709819,35.510569 14.3709819,35.6465873 Z" id="twitter-icon-white"></path>
                </g>
            </g>
        </g>
    </g>
</svg>