<svg xmlns="http://www.w3.org/2000/svg" width="1568" height="448" viewBox="0 0 1568 448">
  <defs>
    <linearGradient id="a" x1="100%" x2="0%" y1="50%" y2="50%">
      <stop stop-color="#00AEFF" offset="0%"/>
      <stop stop-color="#3369E6" offset="100%"/>
    </linearGradient>
    <linearGradient id="b" x1="100%" x2="0%" y1="0%" y2="0%">
      <stop stop-color="#00AEFF" offset="0%"/>
      <stop stop-color="#3369E6" offset="100%"/>
    </linearGradient>
    <linearGradient id="c" x1="100%" x2="0%" y1="0%" y2="0%">
      <stop stop-color="#8E43E6" offset="0%"/>
      <stop stop-color="#3369E6" offset="100%"/>
    </linearGradient>
    <linearGradient id="d" x1="100%" x2="0%" y1="4.571%" y2="2.447%">
      <stop stop-color="#00AEFF" offset="0%"/>
      <stop stop-color="#3369E6" offset="34.64%"/>
      <stop stop-color="#913FE6" offset="100%"/>
    </linearGradient>
    <linearGradient id="e" x1="100%" x2="0%" y1="2.447%" y2="2.447%">
      <stop stop-color="#00AEFF" offset="0%"/>
      <stop stop-color="#3369E6" offset="34.64%"/>
      <stop stop-color="#913FE6" offset="100%"/>
    </linearGradient>
    <linearGradient id="f" x1="100%" x2="1.906%" y1="2.447%" y2="2.447%">
      <stop stop-color="#00AEFF" offset="0%"/>
      <stop stop-color="#3369E6" offset="34.64%"/>
      <stop stop-color="#913FE6" offset="100%"/>
    </linearGradient>
    <linearGradient id="g" x1="100%" x2="2.167%" y1="2.447%" y2="2.447%">
      <stop stop-color="#00AEFF" offset="0%"/>
      <stop stop-color="#3369E6" offset="34.64%"/>
      <stop stop-color="#913FE6" offset="100%"/>
    </linearGradient>
    <linearGradient id="h" x1="0%" y1="50%" y2="50%">
      <stop stop-color="#FFFFFF" stop-opacity="0" offset="0%"/>
      <stop stop-color="#FFFFFF" offset="100%"/>
    </linearGradient>
    <linearGradient id="i" x1="14.764%" x2="94.5%" y1="50%" y2="50%">
      <stop stop-color="#FFFFFF" stop-opacity="0" offset="0%"/>
      <stop stop-color="#FFFFFF" offset="100%"/>
    </linearGradient>
    <linearGradient id="j" x1="100%" x2="0%" y1="51.511%" y2="50%">
      <stop stop-color="#00AEFF" offset="0%"/>
      <stop stop-color="#3369E6" offset="34.64%"/>
      <stop stop-color="#913FE6" offset="100%"/>
    </linearGradient>
  </defs>
  <g fill="none" fill-rule="evenodd">
    <path fill="url(#a)" d="M0,320 L183.992272,320 C192.833096,320 200,327.161501 200,336 C200,344.836556 192.837689,352 183.992272,352 L0,352 L0,320 Z"/>
    <path fill="url(#b)" d="M0,384 L306.00446,384 C314.838553,384 322,391.161501 322,400 C322,408.836556 314.842188,416 306.00446,416 L0,416 L0,384 Z" opacity=".4"/>
    <path fill="url(#b)" d="M0,416 L104.002901,416 C112.837855,416 120,423.161501 120,432 C120,440.836556 112.830587,448 104.002901,448 L0,448 L0,416 Z" opacity=".2"/>
    <path fill="url(#a)" d="M0,64 L310.000275,64 C318.836679,64 326,71.1615011 326,80 C326,88.836556 318.830316,96 310.000275,96 L0,96 L0,64 Z" opacity=".9"/>
    <path fill="url(#b)" d="M0,32 L209.99553,32 C218.834555,32 226,39.1615011 226,48 C226,56.836556 218.831483,64 209.99553,64 L0,64 L0,32 Z" opacity=".4"/>
    <path fill="url(#b)" d="M0,0 L84.0025891,0 C92.8377152,0 100,7.16150109 100,16 C100,24.836556 92.8283243,32 84.0025891,32 L0,32 L0,0 Z" opacity=".2"/>
    <path fill="url(#c)" d="M0,224 L1422.99339,224 C1431.8336,224 1439,231.161501 1439,240 C1439,248.836556 1431.83216,256 1422.99339,256 L0,256 L0,224 Z"/>
    <path fill="url(#d)" d="M0,192 L1504.00561,192 C1512.83907,192 1520,199.161501 1520,208 C1520,216.836556 1512.84202,224 1504.00561,224 L0,224 L0,192 Z" opacity=".9"/>
    <path fill="url(#b)" d="M0,192 L918.992556,192 C927.833223,192 935,199.161501 935,208 C935,216.836556 927.845539,224 918.992556,224 L0,224 L0,192 Z" opacity=".9"/>
    <path fill="url(#e)" d="M0,160 L1341.99734,160 C1350.83537,160 1358,167.161501 1358,176 C1358,184.836556 1350.83606,192 1341.99734,192 L0,192 L0,160 Z" opacity=".9"/>
    <path fill="url(#f)" d="M0,160 L1552.00236,160 C1560.83761,160 1568,167.161501 1568,176 C1568,184.836556 1560.83572,192 1552.00236,192 L0,192 L0,160 Z" opacity=".4"/>
    <path fill="url(#g)" d="M0,128 L1422.99339,128 C1431.8336,128 1439,135.161501 1439,144 C1439,152.836556 1431.83216,160 1422.99339,160 L0,160 L0,128 Z" opacity=".2"/>
    <path fill="url(#e)" d="M0,96 L933.000663,96 C941.836853,96 949,103.161501 949,112 C949,120.836556 941.839726,128 933.000663,128 L0,128 L0,96 Z" opacity=".4"/>
    <path fill="url(#h)" d="M0,160 L1175.99524,160 C1184.83443,160 1192,167.161501 1192,176 C1192,184.836556 1184.8303,192 1175.99524,192 L0,192 L0,160 Z" opacity=".2" style="mix-blend-mode:overlay"/>
    <path fill="url(#d)" d="M0,160 L464.996269,160 C473.834886,160 481,167.161501 481,176 C481,184.836556 473.827245,192 464.996269,192 L0,192 L0,160 Z" opacity=".75"/>
    <path fill="url(#e)" d="M0,96 L537.009193,96 C545.840672,96 553,103.161501 553,112 C553,120.836556 545.831214,128 537.009193,128 L0,128 L0,96 Z" opacity=".9"/>
    <path fill="url(#d)" d="M0 128L803.007392 128C811.839866 128 819 135.161501 819 144 819 152.836556 811.841968 160 803.007392 160L0 160 0 128zM0 256L703.994956 256C712.834298 256 720 263.161501 720 272 720 280.836556 712.84479 288 703.994956 288L0 288 0 256z" opacity=".9"/>
    <path fill="url(#h)" d="M0,128 L277.997581,128 C286.835473,128 294,135.161501 294,144 C294,152.836556 286.841928,160 277.997581,160 L0,160 L0,128 Z" opacity=".2" style="mix-blend-mode:overlay"/>
    <path fill="url(#i)" d="M0,256 L223.997121,256 C232.835267,256 240,263.161501 240,272 C240,280.836556 232.833581,288 223.997121,288 L0,288 L0,256 Z" opacity=".3" style="mix-blend-mode:overlay"/>
    <path fill="url(#e)" d="M0,288 L383.995194,288 C392.834404,288 400,295.161501 400,304 C400,312.836556 392.844743,320 383.995194,320 L0,320 L0,288 Z" opacity=".9"/>
    <path fill="url(#e)" d="M0,288 L628.000568,288 C636.83681,288 644,295.161501 644,304 C644,312.836556 636.836514,320 628.000568,320 L0,320 L0,288 Z" opacity=".4"/>
    <path fill="url(#j)" d="M0,288 L783.997151,288 C792.83528,288 800,295.161501 800,304 C800,312.836556 792.839588,320 783.997151,320 L0,320 L0,288 Z" opacity=".4"/>
  </g>
</svg>
