<?xml version="1.0" encoding="utf-8"?>
<!-- Generator: Adobe Illustrator 15.1.0, SVG Export Plug-In . SVG Version: 6.00 Build 0)  -->
<!DOCTYPE svg PUBLIC "-//W3C//DTD SVG 1.1//EN" "http://www.w3.org/Graphics/SVG/1.1/DTD/svg11.dtd">
<svg version="1.1" id="Layer_1" xmlns="http://www.w3.org/2000/svg" xmlns:xlink="http://www.w3.org/1999/xlink" x="0px" y="0px"
	 width="1920px" height="574px" viewBox="0 0 1920 574" enable-background="new 0 0 1920 574" xml:space="preserve">
<path fill="#EBEBEB" stroke="#494949" stroke-width="1.2" stroke-linecap="round" stroke-linejoin="round" stroke-miterlimit="10" d="
	M666.388,501.212c16.607,0.003,30.078-15.006,30.081-31.613c0.003-16.608-13.462-30.079-30.07-30.082c-0.468,0-0.936,0-1.371,0.033
	c-5.344-13.701-18.674-23.427-34.248-23.431c-16.441-0.003-30.344,10.79-35.058,25.624c-5.249,6.351-8.391,14.501-8.393,23.39
	c-0.004,20.285,16.434,36.763,36.751,36.766L666.388,501.212z"/>
<circle fill="#EBEBEB" stroke="#494949" stroke-width="1.2" stroke-linecap="round" stroke-linejoin="round" stroke-miterlimit="10" cx="1346.096" cy="478.468" r="31.967"/>
<path fill="#EBEBEB" d="M1583.58,393.54l-4.59,11.51l-4-2.18c0,0,0-13.54,0-28.12s-14.45-20.05-26.05-22.01
	c1.92-48.09-7.101-63.1-16.641-80.77c5.19,1.08,10.351,3.96,15.32,8.61c5.09,5.45,10.34,12.17,14.57,20.02
	c0.399,0.74,0.79,1.5,1.18,2.28C1575.1,326.52,1580.71,366.32,1583.58,393.54z"/>
<rect x="949.333" y="441.001" fill="#EBEBEB" width="7" height="11"/>
<rect x="949.667" y="453.334" fill="#EBEBEB" width="3.333" height="15.667"/>
<polygon fill="#EBEBEB" points="953.209,565.834 949.542,562.167 949.667,515.334 953.333,515.334 "/>
<rect x="67.666" y="306.082" fill="#EBEBEB" width="34" height="32.667"/>
<rect x="67.666" y="366.665" fill="#EBEBEB" width="34" height="32.667"/>
<rect x="128.916" y="306.082" fill="#EBEBEB" width="34" height="32.667"/>
<rect x="128.916" y="366.665" fill="#EBEBEB" width="34" height="32.667"/>
<rect x="67.666" y="428.082" fill="#EBEBEB" width="34" height="32.666"/>
<rect x="67.666" y="488.499" fill="#EBEBEB" width="34" height="32.666"/>
<polygon fill="#EBEBEB" points="242,307.333 226.667,311.333 226.667,279.667 242,279.667 "/>
<rect x="211.042" y="226.947" fill="#EBEBEB" width="9" height="16"/>
<rect x="217.045" y="211.948" fill="#EBEBEB" width="8" height="15"/>
<polygon fill="#EBEBEB" points="240.037,264.951 254.041,242.954 238.041,242.951 225.037,264.949 "/>
<rect x="233.993" y="416.975" fill="#EBEBEB" width="8" height="52.667"/>
<rect x="406.66" y="418.004" fill="#EBEBEB" width="8" height="52.667"/>
<rect x="233.983" y="482.643" fill="#EBEBEB" width="8" height="35.328"/>
<rect x="406.649" y="483.343" fill="#EBEBEB" width="8" height="34.328"/>
<polygon fill="#EBEBEB" points="494.999,571.006 156.667,570.962 156.668,564.962 497,565.007 "/>
<polygon fill="#EBEBEB" points="398,399 398,402 397.98,535.01 397.98,543 369.98,543 369.98,542.97 392.98,542.97 392.98,529 
	387.15,529 387.15,528.97 384.67,407 384.67,406.97 393,406.97 393,399 "/>
<polygon fill="#EBEBEB" points="280.17,406.97 278.99,464.05 279,406.97 "/>
<polygon fill="#EBEBEB" points="310,398.99 310,401.99 309.98,534.99 309.98,542.49 303.98,542.49 303.98,528.97 298.15,528.97 
	295.67,406.97 304,406.97 304,398.99 "/>
<polygon fill="#EBEBEB" points="230,398.97 230,401.97 229.98,534.97 229.98,542.97 221.98,542.97 221.98,534.97 222.48,534.97 
	222.48,528.97 216.65,528.97 214.17,406.97 222.5,406.97 222.5,401.97 222,401.97 222,398.97 "/>
<polygon fill="#EBEBEB" points="273,398.98 273,401.98 230,401.97 222,401.97 222,398.97 230,398.97 "/>
<polygon fill="#EBEBEB" points="361,399 361,402 307,401.99 301,401.98 301,398.99 279,398.98 301,398.98 307,398.99 "/>
<polygon fill="#EBEBEB" points="444,398.01 444,401.01 394,401 389,401 389,398 394,398 "/>
<polygon fill="#EBEBEB" points="445.665,535.01 445.665,544.01 221.98,543.97 221.98,534.97 229.98,534.97 275.98,534.98 
	275.98,542.97 304.98,542.97 304.98,534.99 306.98,534.99 361.98,535 361.98,542.97 392.98,542.97 392.98,535.01 "/>
<rect x="183.974" y="549.985" fill="#EBEBEB" width="299.026" height="5"/>
<rect x="315.304" y="444.991" fill="#EBEBEB" width="36.361" height="99.001"/>
<rect x="197.012" y="337.99" fill="#EBEBEB" width="273" height="9"/>
<rect x="408.339" y="359.006" fill="#EBEBEB" width="10" height="41.5"/>
<polygon fill="#EBEBEB" points="415.016,324.007 249.016,323.977 333.769,308.742 "/>
<rect x="221.98" y="534.97" fill="#FFFFFF" width="0.5" height="8"/>
<rect x="222" y="398.97" fill="#FFFFFF" width="0.5" height="3"/>
<polygon fill="#FFFFFF" points="301,398.97 301,398.99 279,398.98 273,398.98 273,398.97 "/>
<rect x="360.98" y="528.97" fill="#FFFFFF" width="4.67" height="0.03"/>
<rect x="383.15" y="528.97" fill="#FFFFFF" width="5.83" height="0.03"/>
<rect x="361" y="398.97" fill="#FFFFFF" width="28" height="0.03"/>
<rect x="360.98" y="542.97" fill="#FFFFFF" width="28" height="0.03"/>
<rect x="361" y="406.97" fill="#FFFFFF" width="7.17" height="0.03"/>
<rect x="380.67" y="406.97" fill="#FFFFFF" width="8.33" height="0.03"/>
<path fill="#EBEBEB" d="M1450.869,399.666v171h19.334h5.333c0,0-10.667-81.666-6-159.666
	C1462.869,406.333,1450.869,399.666,1450.869,399.666z"/>
<path fill="#EBEBEB" d="M1747.071,571.221c-10.106-185.038,21.768-270.56,21.768-270.56s-27.987,164.046,3.889,270.56
	C1764.953,571.221,1747.071,571.221,1747.071,571.221z"/>
<polygon fill="#EBEBEB" points="1862.918,334.092 1862.918,571.221 1870.692,571.221 1870.692,321.652 "/>
<polygon fill="#EBEBEB" points="1854.365,240.795 1854.365,341.867 1863.695,329.427 1863.695,240.407 "/>
<path fill="#EBEBEB" d="M1718.306,241.575c0,0,102.626,0,128.281-57.534C1820.154,177.044,1737.741,203.479,1718.306,241.575z"/>
<path fill="#EBEBEB" d="M1844.194,351.556v-44.179c0,0-87.936,107.209-61.88,264.623c10.855,0,30.396,0,30.396,0
	s-21.712-119.959,32.92-215.123"/>
<path fill="#EBEBEB" d="M1514.206,278.665"/>
<line fill="none" stroke="#494949" stroke-width="1.2" stroke-linecap="round" stroke-linejoin="round" stroke-miterlimit="10" x1="1346.096" y1="478.468" x2="1346.077" y2="571.997"/>
<path fill="none" stroke="#494949" stroke-width="1.2" stroke-linecap="round" stroke-linejoin="round" stroke-miterlimit="10" d="
	M1327.811,465.974c-2.623,3.617-4.172,8.068-4.173,12.881c-0.002,7.39,3.645,13.928,9.239,17.911"/>
<line fill="none" stroke="#494949" stroke-width="1.2" stroke-linecap="round" stroke-linejoin="round" stroke-miterlimit="10" x1="8" y1="572.018" x2="670.996" y2="572.037"/>
<line fill="none" stroke="#494949" stroke-width="1.2" stroke-linecap="round" stroke-linejoin="round" stroke-miterlimit="10" x1="693.97" y1="572.055" x2="712.97" y2="572.059"/>
<line fill="none" stroke="#494949" stroke-width="1.2" stroke-linecap="round" stroke-linejoin="round" stroke-miterlimit="10" x1="1544.1" y1="187.935" x2="1536.601" y2="187.935"/>
<path fill="#FFFFFF" stroke="#494949" stroke-width="2.5" stroke-linecap="round" stroke-linejoin="round" stroke-miterlimit="10" d="
	M915.667,473.334h112c5.5,0,13.464,2.872,17.698,6.382l9.936,8.236c4.234,3.51,4.234,9.254,0,12.764l-9.936,8.236
	c-4.234,3.51-12.198,6.382-17.698,6.382h-166c-5.5,0-10-4.5-10-10v-22c0-5.5,4.5-10,10-10H884"/>
<line fill="#FFFFFF" stroke="#494949" stroke-width="2.5" stroke-linecap="round" stroke-linejoin="round" stroke-miterlimit="10" x1="903" y1="473.334" x2="907.667" y2="473.334"/>
<line fill="#FFFFFF" stroke="#494949" stroke-width="1.5" stroke-linecap="round" stroke-linejoin="round" stroke-miterlimit="10" x1="945.5" y1="455.5" x2="945.5" y2="468"/>
<line fill="#FFFFFF" stroke="#494949" stroke-width="1.5" stroke-linecap="round" stroke-linejoin="round" stroke-miterlimit="10" x1="953.5" y1="455.5" x2="953.5" y2="468.5"/>
<line fill="#FFFFFF" stroke="#494949" stroke-width="1.5" stroke-linecap="round" stroke-linejoin="round" stroke-miterlimit="10" x1="945.5" y1="518.5" x2="945.375" y2="552.5"/>
<line fill="#FFFFFF" stroke="#494949" stroke-width="1.5" stroke-linecap="round" stroke-linejoin="round" stroke-miterlimit="10" x1="953.375" y1="539" x2="953.375" y2="565.5"/>
<line fill="#FFFFFF" stroke="#494949" stroke-width="1.5" stroke-linecap="round" stroke-linejoin="round" stroke-miterlimit="10" x1="953.5" y1="518.5" x2="953.375" y2="529.5"/>
<rect x="941.5" y="440.5" fill="#FFFFFF" stroke="#494949" stroke-width="1.5" stroke-linecap="round" stroke-linejoin="round" stroke-miterlimit="10" width="16" height="12"/>
<line fill="none" stroke="#494949" stroke-width="2" stroke-linecap="round" stroke-linejoin="round" stroke-miterlimit="10" x1="930.333" y1="486.333" x2="943.333" y2="486.333"/>
<polyline fill="none" stroke="#494949" stroke-width="2" stroke-linecap="round" stroke-linejoin="round" stroke-miterlimit="10" points="
	889.333,504 889.333,486.333 897,486.333 "/>
<line fill="none" stroke="#494949" stroke-width="2" stroke-linecap="round" stroke-linejoin="round" stroke-miterlimit="10" x1="895.167" y1="495" x2="890.167" y2="495"/>
<path fill="none" stroke="#494949" stroke-width="2" stroke-linecap="round" stroke-linejoin="round" stroke-miterlimit="10" d="
	M921.167,487v11.166c0,3.037-2.462,5.5-5.5,5.5l0,0c-3.038,0-5.5-2.463-5.5-5.5V487"/>
<path fill="none" stroke="#494949" stroke-width="2" stroke-linecap="round" stroke-linejoin="round" stroke-miterlimit="10" d="
	M968,487v11.166c0,3.037-2.463,5.5-5.5,5.5l0,0c-3.038,0-5.5-2.463-5.5-5.5V487"/>
<path fill="none" stroke="#494949" stroke-width="2" stroke-linecap="round" stroke-linejoin="round" stroke-miterlimit="10" d="
	M938.833,487.333c0,0.5,0,16.5,0,16.5"/>
<polyline fill="none" stroke="#494949" stroke-width="2" stroke-linecap="round" stroke-linejoin="round" stroke-miterlimit="10" points="
	1013.334,503.5 1004.667,503.5 1004.667,486.833 1012.667,486.833 "/>
<line fill="none" stroke="#494949" stroke-width="2" stroke-linecap="round" stroke-linejoin="round" stroke-miterlimit="10" x1="1005.334" y1="495.333" x2="1011.167" y2="495.333"/>
<path fill="none" stroke="#494949" stroke-width="2" stroke-linecap="round" stroke-linejoin="round" stroke-miterlimit="10" d="
	M982.584,495.166h4.833c2.348,0,4.25-1.902,4.25-4.25l0,0c0-2.348-1.902-4.25-4.25-4.25h-4.833v17.167"/>
<line fill="none" stroke="#494949" stroke-width="2" stroke-linecap="round" stroke-linejoin="round" stroke-miterlimit="10" x1="987.334" y1="495.333" x2="991.667" y2="503.666"/>
<path fill="none" stroke="#494949" stroke-width="1.2" stroke-linecap="round" stroke-linejoin="round" stroke-miterlimit="10" d="
	M723.375,572h204.5c0,0,0-17-6-28c11,12.5,15,25,15,25c-0.5-7.5,1.5-12,1.5-12l9,14c0,0,8.5-3.5,15.5-4c2,1,0.5,5.5,0.5,5.5h48"/>
<path fill="none" stroke="#494949" stroke-width="1.2" stroke-linecap="round" stroke-linejoin="round" stroke-miterlimit="10" d="
	M2210.25,673"/>
<line fill="none" stroke="#494949" stroke-width="1.2" stroke-linecap="round" stroke-linejoin="round" stroke-miterlimit="10" x1="1296" y1="572" x2="1282" y2="572"/>
<line fill="none" stroke="#494949" stroke-width="1.2" stroke-linecap="round" stroke-linejoin="round" stroke-miterlimit="10" x1="242.012" y1="308" x2="242.034" y2="279.952"/>
<polyline fill="none" stroke="#494949" stroke-width="1.2" stroke-linecap="round" stroke-linejoin="round" stroke-miterlimit="10" points="
	174.667,278.949 246.034,278.952 246.037,264.952 42.667,264.948 "/>
<polyline fill="none" stroke="#494949" stroke-width="1.2" stroke-linecap="round" stroke-linejoin="round" stroke-miterlimit="10" points="
	210.333,242.945 254.041,242.954 242.371,261.285 "/>
<polyline fill="none" stroke="#494949" stroke-width="1.2" stroke-linecap="round" stroke-linejoin="round" stroke-miterlimit="10" points="
	186,242.945 29.041,242.954 40.71,261.285 "/>
<line fill="none" stroke="#494949" stroke-width="1.2" stroke-linecap="round" stroke-linejoin="round" stroke-miterlimit="10" x1="205.041" y1="241.945" x2="205.043" y2="228.945"/>
<line fill="none" stroke="#494949" stroke-width="1.2" stroke-linecap="round" stroke-linejoin="round" stroke-miterlimit="10" x1="220.041" y1="241.948" x2="220.043" y2="228.948"/>
<polyline fill="none" stroke="#494949" stroke-width="1.2" stroke-linecap="round" stroke-linejoin="round" stroke-miterlimit="10" points="
	200.043,226.944 225.043,226.949 225.046,211.949 200.046,211.944 200.045,220.944 "/>
<line fill="none" stroke="#494949" stroke-width="1.2" stroke-linecap="round" stroke-linejoin="round" stroke-miterlimit="10" x1="46" y1="508" x2="46" y2="572"/>
<line fill="none" stroke="#494949" stroke-width="1.2" stroke-linecap="round" stroke-linejoin="round" stroke-miterlimit="10" x1="46" y1="468.667" x2="46" y2="495.333"/>
<line fill="none" stroke="#494949" stroke-width="1.2" stroke-linecap="round" stroke-linejoin="round" stroke-miterlimit="10" x1="46" y1="274" x2="46" y2="458.667"/>
<line fill="none" stroke="#494949" stroke-width="1.2" stroke-linecap="round" stroke-linejoin="round" stroke-miterlimit="10" x1="189.25" y1="242.938" x2="192.25" y2="242.938"/>
<g>
	<g>
		
			<polyline fill="none" stroke="#494949" stroke-width="1.2" stroke-linecap="round" stroke-linejoin="round" stroke-miterlimit="10" points="
			392.147,542.981 392.145,528.981 387.475,528.981 384.952,406.982 392.122,406.981 392.121,398.981 		"/>
		
			<polyline fill="none" stroke="#494949" stroke-width="1.2" stroke-linecap="round" stroke-linejoin="round" stroke-miterlimit="10" points="
			363.121,398.986 363.122,406.986 371.452,406.984 368.975,528.985 363.145,528.986 363.147,542.986 		"/>
		
			<line fill="none" stroke="#494949" stroke-width="1.2" stroke-linecap="round" stroke-linejoin="round" stroke-miterlimit="10" x1="333.453" y1="555.99" x2="504.931" y2="555.96"/>
		
			<polyline fill="none" stroke="#494949" stroke-width="1.2" stroke-linecap="round" stroke-linejoin="round" stroke-miterlimit="10" points="
			483.152,554.96 483.143,543.96 333.453,543.99 		"/>
		
			<polyline fill="none" stroke="#494949" stroke-width="1.2" stroke-linecap="round" stroke-linejoin="round" stroke-miterlimit="10" points="
			473.147,542.967 473.145,528.967 468.475,528.968 465.952,406.968 473.122,406.967 473.121,398.967 		"/>
		
			<polyline fill="none" stroke="#494949" stroke-width="1.2" stroke-linecap="round" stroke-linejoin="round" stroke-miterlimit="10" points="
			445.121,398.972 445.122,406.972 453.452,406.97 450.975,528.971 445.145,528.972 445.147,542.972 		"/>
		
			<polyline fill="none" stroke="#494949" stroke-width="1.2" stroke-linecap="round" stroke-linejoin="round" stroke-miterlimit="10" points="
			412.456,397.978 479.121,397.966 479.113,358.965 414.123,358.974 		"/>
		
			<polyline fill="none" stroke="#494949" stroke-width="1.2" stroke-linecap="round" stroke-linejoin="round" stroke-miterlimit="10" points="
			333.453,399 363.123,398.99 392.123,398.98 409.123,398.98 409.113,353.98 333.453,354 		"/>
		
			<rect x="407.139" y="482.976" fill="none" stroke="#494949" stroke-width="1.2" stroke-linecap="round" stroke-linejoin="round" stroke-miterlimit="10" width="27" height="34"/>
		
			<polyline fill="none" stroke="#494949" stroke-width="1.2" stroke-linecap="round" stroke-linejoin="round" stroke-miterlimit="10" points="
			353.143,540.99 353.132,444.99 333.453,444.99 		"/>
		
			<path fill="none" stroke="#494949" stroke-width="1.2" stroke-linecap="round" stroke-linejoin="round" stroke-miterlimit="10" d="
			M353.063,432.75c0,0-1.04-16.65-19.61-17.12"/>
		
			<line fill="none" stroke="#494949" stroke-width="1.2" stroke-linecap="round" stroke-linejoin="round" stroke-miterlimit="10" x1="333.453" y1="436" x2="353.132" y2="436"/>
		
			<line fill="none" stroke="#494949" stroke-width="1.2" stroke-linecap="round" stroke-linejoin="round" stroke-miterlimit="10" x1="470.113" y1="358.967" x2="470.11" y2="338.333"/>
		
			<polyline fill="none" stroke="#494949" stroke-width="1.2" stroke-linecap="round" stroke-linejoin="round" stroke-miterlimit="10" points="
			333.453,337.99 478.113,337.97 478.103,322.97 333.623,294 333.453,294.04 		"/>
		
			<path fill="none" stroke="#494949" stroke-width="1.2" stroke-linecap="round" stroke-linejoin="round" stroke-miterlimit="10" d="
			M434.132,453.97v16l-13,0.011 M434.132,453.97l-0.01-38l-27,0.011l0.01,54h14"/>
		<g>
			
				<line fill="none" stroke="#494949" stroke-width="1.2" stroke-linecap="round" stroke-linejoin="round" stroke-miterlimit="10" x1="411.8" y1="501.643" x2="422.798" y2="512.978"/>
		</g>
	</g>
	<g>
		
			<polyline fill="none" stroke="#494949" stroke-width="1.2" stroke-linecap="round" stroke-linejoin="round" stroke-miterlimit="10" points="
			274.976,542.981 274.978,528.981 279.648,528.981 282.17,406.982 275,406.981 275.002,398.981 		"/>
		
			<polyline fill="none" stroke="#494949" stroke-width="1.2" stroke-linecap="round" stroke-linejoin="round" stroke-miterlimit="10" points="
			304.002,398.986 304,406.986 295.67,406.984 298.148,528.985 303.978,528.986 303.976,542.986 		"/>
		
			<line fill="none" stroke="#494949" stroke-width="1.2" stroke-linecap="round" stroke-linejoin="round" stroke-miterlimit="10" x1="333.67" y1="555.99" x2="152.67" y2="555.96"/>
		
			<polyline fill="none" stroke="#494949" stroke-width="1.2" stroke-linecap="round" stroke-linejoin="round" stroke-miterlimit="10" points="
			183.97,554.96 183.98,543.96 333.67,543.99 		"/>
		
			<polyline fill="none" stroke="#494949" stroke-width="1.2" stroke-linecap="round" stroke-linejoin="round" stroke-miterlimit="10" points="
			193.976,542.967 193.978,528.967 198.648,528.968 201.17,406.968 194,406.967 194.002,398.967 		"/>
		
			<polyline fill="none" stroke="#494949" stroke-width="1.2" stroke-linecap="round" stroke-linejoin="round" stroke-miterlimit="10" points="
			222.002,398.972 222,406.972 213.67,406.97 216.148,528.971 221.978,528.972 221.976,542.972 		"/>
		
			<polyline fill="none" stroke="#494949" stroke-width="1.2" stroke-linecap="round" stroke-linejoin="round" stroke-miterlimit="10" points="
			254.667,397.978 188.002,397.966 188.009,358.965 253,358.974 		"/>
		
			<polyline fill="none" stroke="#494949" stroke-width="1.2" stroke-linecap="round" stroke-linejoin="round" stroke-miterlimit="10" points="
			333.67,399 304,398.99 275,398.98 258,398.98 258.01,353.98 333.67,354 		"/>
		
			<rect x="232.983" y="482.976" fill="none" stroke="#494949" stroke-width="1.2" stroke-linecap="round" stroke-linejoin="round" stroke-miterlimit="10" width="27" height="34"/>
		
			<polyline fill="none" stroke="#494949" stroke-width="1.2" stroke-linecap="round" stroke-linejoin="round" stroke-miterlimit="10" points="
			313.98,540.99 313.99,444.99 333.67,444.99 		"/>
		
			<path fill="none" stroke="#494949" stroke-width="1.2" stroke-linecap="round" stroke-linejoin="round" stroke-miterlimit="10" d="
			M314.06,432.75c0,0,1.04-16.65,19.61-17.12"/>
		
			<line fill="none" stroke="#494949" stroke-width="1.2" stroke-linecap="round" stroke-linejoin="round" stroke-miterlimit="10" x1="333.67" y1="436" x2="313.99" y2="436"/>
		
			<line fill="none" stroke="#494949" stroke-width="1.2" stroke-linecap="round" stroke-linejoin="round" stroke-miterlimit="10" x1="197.009" y1="358.967" x2="197.012" y2="338.333"/>
		
			<polyline fill="none" stroke="#494949" stroke-width="1.2" stroke-linecap="round" stroke-linejoin="round" stroke-miterlimit="10" points="
			333.67,337.99 189.01,337.97 189.02,322.97 333.5,294 333.67,294.04 		"/>
		
			<path fill="none" stroke="#494949" stroke-width="1.2" stroke-linecap="round" stroke-linejoin="round" stroke-miterlimit="10" d="
			M232.99,453.97v16l13,0.011 M232.99,453.97l0.01-38l27,0.011l-0.01,54h-14"/>
		
			<line fill="none" stroke="#494949" stroke-width="1.2" stroke-linecap="round" stroke-linejoin="round" stroke-miterlimit="10" x1="238.325" y1="454.643" x2="249.323" y2="465.978"/>
		
			<line fill="none" stroke="#494949" stroke-width="1.2" stroke-linecap="round" stroke-linejoin="round" stroke-miterlimit="10" x1="238.324" y1="460.643" x2="243.088" y2="465.553"/>
	</g>
</g>
<line fill="none" stroke="#494949" stroke-width="1.2" stroke-linecap="round" stroke-linejoin="round" stroke-miterlimit="10" x1="641.899" y1="476.247" x2="641.88" y2="569.838"/>
<g>
	
		<line fill="none" stroke="#494949" stroke-width="1.2" stroke-linecap="round" stroke-linejoin="round" stroke-miterlimit="10" x1="289.335" y1="170.1" x2="335.833" y2="170.1"/>
	
		<line fill="none" stroke="#494949" stroke-width="1.2" stroke-linecap="round" stroke-linejoin="round" stroke-miterlimit="10" x1="349.333" y1="170.1" x2="364.332" y2="170.1"/>
</g>
<line fill="none" stroke="#494949" stroke-width="1.2" stroke-linecap="round" stroke-linejoin="round" stroke-miterlimit="10" x1="443.703" y1="112.432" x2="463.202" y2="112.432"/>
<line fill="none" stroke="#494949" stroke-width="1.2" stroke-linecap="round" stroke-linejoin="round" stroke-miterlimit="10" x1="522.464" y1="245.626" x2="501.466" y2="245.626"/>
<line fill="none" stroke="#494949" stroke-width="1.2" stroke-linecap="round" stroke-linejoin="round" stroke-miterlimit="10" x1="74.273" y1="84.746" x2="140.768" y2="84.746"/>
<g>
	
		<polyline fill="none" stroke="#494949" stroke-width="1.2" stroke-linecap="round" stroke-linejoin="round" stroke-miterlimit="10" points="
		1907.578,568.743 1907.578,469.631 1879.352,456.936 	"/>
	
		<polyline fill="none" stroke="#494949" stroke-width="1.2" stroke-linecap="round" stroke-linejoin="round" stroke-miterlimit="10" points="
		1894.551,462.922 1894.551,376.59 1879.352,370.076 	"/>
	
		<polyline fill="none" stroke="#494949" stroke-width="1.2" stroke-linecap="round" stroke-linejoin="round" stroke-miterlimit="10" points="
		1885.866,368.991 1885.866,294.549 1869.582,287.57 	"/>
</g>
<path fill="none" stroke="#494949" stroke-width="1.2" stroke-linecap="round" stroke-linejoin="round" stroke-miterlimit="10" d="
	M1812.711,572c0,0-24.968-161.755,58.624-249.69v248.911"/>
<path fill="none" stroke="#494949" stroke-width="1.2" stroke-linecap="round" stroke-linejoin="round" stroke-miterlimit="10" d="
	M1863.734,329.908v-89.019h-27.14v15.198l-65.137,41.253c-14.112,52.109-24.969,174.783,1.086,273.574"/>
<path fill="none" stroke="#494949" stroke-width="1.2" stroke-linecap="round" stroke-linejoin="round" stroke-miterlimit="10" d="
	M1835.509,270.472c-44.51,57.266-78.163,179.94-53.194,301.528"/>
<line fill="none" stroke="#494949" stroke-width="1.2" stroke-linecap="round" stroke-linejoin="round" stroke-miterlimit="10" x1="1871.335" y1="403.73" x2="1840.277" y2="403.73"/>
<line fill="none" stroke="#494949" stroke-width="1.2" stroke-linecap="round" stroke-linejoin="round" stroke-miterlimit="10" x1="1871.335" y1="419.741" x2="1840.277" y2="419.741"/>
<line fill="none" stroke="#494949" stroke-width="1.2" stroke-linecap="round" stroke-linejoin="round" stroke-miterlimit="10" x1="1871.335" y1="435.756" x2="1840.277" y2="435.756"/>
<line fill="none" stroke="#494949" stroke-width="1.2" stroke-linecap="round" stroke-linejoin="round" stroke-miterlimit="10" x1="1861.158" y1="467.78" x2="1830.103" y2="467.78"/>
<line fill="none" stroke="#494949" stroke-width="1.2" stroke-linecap="round" stroke-linejoin="round" stroke-miterlimit="10" x1="1863.734" y1="483.792" x2="1840.277" y2="483.792"/>
<path fill="none" stroke="#494949" stroke-width="1.2" stroke-linecap="round" stroke-linejoin="round" stroke-miterlimit="10" d="
	M1846.066,228.222v-44.438c-84.486-1.261-128.025,56.169-128.025,56.169v330.881"/>
<path fill="none" stroke="#494949" stroke-width="1.2" stroke-linecap="round" stroke-linejoin="round" stroke-miterlimit="10" d="
	M1718.041,239.953c22.477,0,110.485-4.798,128.025-56.169"/>
<path fill="none" stroke="#494949" stroke-width="1.2" stroke-linecap="round" stroke-linejoin="round" stroke-miterlimit="10" d="
	M1528.163,313.483c-12.083,29.945-31.422,60.228-53.458,94.017"/>
<path fill="none" stroke="#494949" stroke-width="1.2" stroke-linecap="round" stroke-linejoin="round" stroke-miterlimit="10" d="
	M1528.163,313.483"/>
<path fill="none" stroke="#494949" stroke-width="1.2" stroke-linecap="round" stroke-linejoin="round" stroke-miterlimit="10" d="
	M1479.205,360.271c0,0,22.118-22.005,37.445-48.304"/>
<path fill="none" stroke="#494949" stroke-width="1.2" stroke-linecap="round" stroke-linejoin="round" stroke-miterlimit="10" d="
	M1581.3,373.85c-1.58-27.45-9.069-49.41-9.069-49.41c-2.73-8.12-5.7-15.31-8.86-21.56c-0.39-0.78-0.78-1.54-1.18-2.28
	c-4.551-8.56-9.46-15.23-14.57-20.02c-4.97-4.65-10.13-7.53-15.32-8.61c-40.22-8.43-82.52,90.49-56.09,299.03"/>
<path fill="none" stroke="#494949" stroke-width="1.2" stroke-linecap="round" stroke-linejoin="round" stroke-miterlimit="10" d="
	M1556.45,309.243c1.932,0.659,3.853,1.408,5.755,2.257"/>
<path fill="none" stroke="#494949" stroke-width="1.2" stroke-linecap="round" stroke-linejoin="round" stroke-miterlimit="10" d="
	M1491.705,311.5c0,0,18.003-6.87,39.824-6.424"/>
<polyline fill="none" stroke="#494949" stroke-width="1.2" stroke-linecap="round" stroke-linejoin="round" stroke-miterlimit="10" points="
	1400.539,534.998 1400.539,502.123 1434.209,476.665 "/>
<polyline fill="none" stroke="#494949" stroke-width="1.2" stroke-linecap="round" stroke-linejoin="round" stroke-miterlimit="10" points="
	1416.039,485.998 1416.039,380.498 1463.542,407.332 "/>
<line fill="none" stroke="#494949" stroke-width="1.2" stroke-linecap="round" stroke-linejoin="round" stroke-miterlimit="10" x1="1359.841" y1="571.94" x2="1445.536" y2="506"/>
<line fill="none" stroke="#494949" stroke-width="1.2" stroke-linecap="round" stroke-linejoin="round" stroke-miterlimit="10" x1="1912" y1="573" x2="1308" y2="572"/>
<path fill="none" stroke="#494949" stroke-width="1.2" stroke-linecap="round" stroke-linejoin="round" stroke-miterlimit="10" d="
	M1859.665,235.333"/>
<path fill="none" stroke="#494949" stroke-width="1.2" stroke-linecap="round" stroke-linejoin="round" stroke-miterlimit="10" d="
	M1586.872,350.333"/>
<path fill="none" stroke="#494949" stroke-width="1.2" stroke-linecap="round" stroke-linejoin="round" stroke-miterlimit="10" d="
	M1443.872,329c0,0-6-9-14.5-9s-26.5,0-26.5,0l8.5,8.5h22.5"/>
<polyline fill="none" stroke="#494949" stroke-width="1.2" stroke-linecap="round" stroke-linejoin="round" stroke-miterlimit="10" points="
	1425.872,333.5 1422.372,336.5 1403.372,336.5 1391.122,324.25 "/>
<path fill="none" stroke="#494949" stroke-width="1.2" stroke-linecap="round" stroke-linejoin="round" stroke-miterlimit="10" d="
	M1389.372,318h-9c0,0-3.5,5.5,1,9.5h8"/>
<path fill="none" stroke="#494949" stroke-width="1.2" stroke-linecap="round" stroke-linejoin="round" stroke-miterlimit="10" d="
	M1423.372,324L1423.372,324L1423.372,324z"/>
<path fill="none" stroke="#494949" stroke-width="1.2" stroke-linecap="round" stroke-linejoin="round" stroke-miterlimit="10" d="
	M1419.622,324L1419.622,324L1419.622,324z"/>
<path fill="none" stroke="#494949" stroke-width="1.2" stroke-linecap="round" stroke-linejoin="round" stroke-miterlimit="10" d="
	M1415.372,324L1415.372,324L1415.372,324z"/>
<path fill="none" stroke="#494949" stroke-width="1.2" stroke-linecap="round" stroke-linejoin="round" stroke-miterlimit="10" d="
	M1425.872,324"/>
<line fill="none" stroke="#494949" stroke-width="1.2" stroke-linecap="round" stroke-linejoin="round" stroke-miterlimit="10" x1="1365.872" y1="322.833" x2="1328.539" y2="322.833"/>
<line fill="none" stroke="#494949" stroke-width="1.2" stroke-linecap="round" stroke-linejoin="round" stroke-miterlimit="10" x1="1373.872" y1="327.5" x2="1357.872" y2="327.5"/>
<path fill="none" stroke="#494949" stroke-width="1.2" stroke-linecap="round" stroke-linejoin="round" stroke-miterlimit="10" d="
	M1522.407,255.157c0,0,23.093-1.976,41.099,17.803"/>
<path fill="none" stroke="#494949" stroke-width="1.2" stroke-linecap="round" stroke-linejoin="round" stroke-miterlimit="10" d="
	M1516.582,234.42c0,0,36.365-3.111,64.718,28.035"/>
<path fill="none" stroke="#494949" stroke-width="1.2" stroke-linecap="round" stroke-linejoin="round" stroke-miterlimit="10" d="
	M1572.624,225.873c7.974,4.968,16.016,11.41,23.611,19.753"/>
<path fill="none" stroke="#494949" stroke-width="1.2" stroke-linecap="round" stroke-linejoin="round" stroke-miterlimit="10" d="
	M1512.636,209.412c0,0,24.757-2.119,52.335,12.113"/>
<g>
	<path fill="none" stroke="#494949" stroke-width="1.2" stroke-linecap="round" stroke-linejoin="round" stroke-miterlimit="10" d="
		M1694.372,106.406c-7.732-3.035-16.152-4.701-24.961-4.701c-27.576,0-51.338,16.33-62.145,39.847"/>
	<path fill="none" stroke="#494949" stroke-width="1.2" stroke-linecap="round" stroke-linejoin="round" stroke-miterlimit="10" d="
		M1618.152,170.016c1.749-12.25-6.763-23.6-19.014-25.35c-8.625-1.232-16.804,2.624-21.5,9.289"/>
	<path fill="none" stroke="#494949" stroke-width="1.2" stroke-linecap="round" stroke-linejoin="round" stroke-miterlimit="10" d="
		M1700.35,48.446c-20.314,10.785-33.172,30.114-36.494,51.209"/>
	<path fill="none" stroke="#494949" stroke-width="1.2" stroke-linecap="round" stroke-linejoin="round" stroke-miterlimit="10" d="
		M1576.137,84.746c0,0-0.772,7.34,6.567,13.134c7.34,5.795,11.976,9.271,11.976,9.271l0.387-8.885l-6.182-5.022"/>
	<path fill="none" stroke="#494949" stroke-width="1.2" stroke-linecap="round" stroke-linejoin="round" stroke-miterlimit="10" d="
		M1573.819,85.905c0,0-28.974-15.452-27.042-47.129c27.042-1.545,41.722,12.748,63.741,48.289
		c0.386,3.863-5.022,12.748-13.135,15.066"/>
	<path fill="none" stroke="#494949" stroke-width="1.2" stroke-linecap="round" stroke-linejoin="round" stroke-miterlimit="10" d="
		M1554.195,66.019c2.244-0.979,6.62-3.526,11.897-9.859"/>
	<path fill="none" stroke="#494949" stroke-width="1.2" stroke-linecap="round" stroke-linejoin="round" stroke-miterlimit="10" d="
		M1576.17,77.975c-1.368,1.495-3.69,1.598-5.185,0.23l-8.835-8.085c-1.496-1.368-1.598-3.69-0.229-5.185l0,0
		c1.368-1.495,3.689-1.598,5.186-0.23l8.834,8.085C1577.435,74.158,1577.539,76.479,1576.17,77.975L1576.17,77.975z"/>
	<path fill="none" stroke="#494949" stroke-width="1.2" stroke-linecap="round" stroke-linejoin="round" stroke-miterlimit="10" d="
		M1616.224,95.267c4.267,0,7.726-3.459,7.726-7.727s-3.459-7.726-7.726-7.726"/>
	<path fill="none" stroke="#494949" stroke-width="1.2" stroke-linecap="round" stroke-linejoin="round" stroke-miterlimit="10" d="
		M1589.529,113.114c0,3.414,2.768,6.181,6.182,6.181c3.413,0,6.181-2.767,6.181-6.181"/>
	<path fill="none" stroke="#494949" stroke-width="1.2" stroke-linecap="round" stroke-linejoin="round" stroke-miterlimit="10" d="
		M1619.881,102.597c3.574,0.948,7.24-1.181,8.189-4.755c0.947-3.574-1.182-7.241-4.756-8.189"/>
	<path fill="none" stroke="#494949" stroke-width="1.2" stroke-linecap="round" stroke-linejoin="round" stroke-miterlimit="10" d="
		M1600.346,103.933c0,0,7.728,9.787,20.604,16.998"/>
</g>
<line fill="none" stroke="#494949" stroke-width="1.2" stroke-linecap="round" stroke-linejoin="round" stroke-miterlimit="10" x1="1360.446" y1="416.838" x2="1367.946" y2="416.838"/>
<line fill="none" stroke="#494949" stroke-width="1.2" stroke-linecap="round" stroke-linejoin="round" stroke-miterlimit="10" x1="1342.447" y1="416.838" x2="1327.448" y2="416.838"/>
<line fill="none" stroke="#494949" stroke-width="1.2" stroke-linecap="round" stroke-linejoin="round" stroke-miterlimit="10" x1="1449.206" y1="63.743" x2="1473.205" y2="63.743"/>
<g>
	
		<circle fill="none" stroke="#FF0083" stroke-width="4" stroke-linecap="round" stroke-linejoin="round" stroke-miterlimit="10" cx="1464.57" cy="246.45" r="20.355"/>
	
		<ellipse transform="matrix(0.97 0.2431 -0.2431 0.97 103.8612 -348.6753)" fill="none" stroke="#FF0083" stroke-width="4" stroke-linecap="round" stroke-linejoin="round" stroke-miterlimit="10" cx="1464.569" cy="246.45" rx="10.177" ry="20.356"/>
	
		<line fill="none" stroke="#FF0083" stroke-width="4" stroke-linecap="round" stroke-linejoin="round" stroke-miterlimit="10" x1="1449.527" y1="233.353" x2="1484.49" y2="242.118"/>
	
		<line fill="none" stroke="#FF0083" stroke-width="4" stroke-linecap="round" stroke-linejoin="round" stroke-miterlimit="10" x1="1445.367" y1="251.255" x2="1479.406" y2="259.788"/>
	
		<line fill="none" stroke="#FF0083" stroke-width="4" stroke-linecap="round" stroke-linejoin="round" stroke-miterlimit="10" x1="1469.406" y1="227.15" x2="1459.688" y2="265.921"/>
</g>
<g>
	<path fill="#EBEBEB" d="M209.894,184.331"/>
	<circle fill="#EBEBEB" cx="237.388" cy="166.034" r="4"/>
	<path fill="#EBEBEB" d="M223.583,203.583c0,2.35-0.8,4.52-2.13,6.25h-16.24c-1.33-1.73-2.13-3.9-2.13-6.25
		c0-5.66,4.59-10.25,10.25-10.25S223.583,197.923,223.583,203.583z"/>
	<path fill="#EBEBEB" d="M243.083,190.083c0,5.25-4.25,9.5-9.5,9.5c-2,0-3.85-0.61-5.37-1.66c-0.95,0.99-2.08,1.81-3.32,2.43
		c-1.41-5.06-6.05-8.77-11.56-8.77c-1.91,0-3.71,0.44-5.31,1.23c-0.29-1.02-0.44-2.11-0.44-3.23c0-6.63,5.37-12,12-12
		c3.7,0,7,1.67,9.2,4.29c1.41-0.82,3.05-1.29,4.8-1.29C238.833,180.583,243.083,184.833,243.083,190.083z"/>
</g>
<g>
	
		<line fill="none" stroke="#494949" stroke-width="1.2" stroke-linecap="round" stroke-linejoin="round" stroke-miterlimit="10" x1="1326.498" y1="129.688" x2="1280" y2="129.688"/>
	
		<line fill="none" stroke="#494949" stroke-width="1.2" stroke-linecap="round" stroke-linejoin="round" stroke-miterlimit="10" x1="1266.501" y1="129.688" x2="1251.502" y2="129.688"/>
</g>
<g>
	
		<path fill="#FFFFFF" stroke="#494949" stroke-width="2.3" stroke-linecap="round" stroke-linejoin="round" stroke-miterlimit="10" d="
		M206.684,555.33L188.354,532l-29-5.83l-4.34,31.83l-32.66,9h3.75c2.511,0,4.91,1.916,4.91,5.17h-21.16v-1.46
		c0-4.61,2.55-8.81,6.62-10.94c0.191-0.114,17.68-8.672,17.88-8.77l-0.01-0.08l-6.66-36.09l-2.33-33.16
		c2.13-20.12,18.675-25.625,40.83-31.84l13.17,10.84l6.83,31.83c1.974,6.579-5.903,12.166-11.62,5.93
		c-0.13-0.14-3.38-3.93-3.38-3.93l2.17,10.33l29,14.17l17.966,52.006L204.014,558L206.684,555.33L206.684,555.33z"/>
	<path fill="#EBEBEB" d="M140.186,476.275l-2.144-5.213l-10.075,4.047c-0.091,0.266-0.189,0.539-0.27,0.792l-0.061,0.178
		c-0.03,0.087-0.059,0.171-0.085,0.26c-0.006,0.028-0.013,0.057-0.021,0.083c-0.126,0.414-0.236,0.809-0.339,1.19l1.372,3.335
		L140.186,476.275z"/>
	<g>
		
			<path fill="#FFFFFF" stroke="#494949" stroke-width="2.3" stroke-linecap="round" stroke-linejoin="round" stroke-miterlimit="10" d="
			M192.888,440.364c-0.16,1.362-0.545,2.729-1.166,4.042l-2.656,5.608l-2.739,5.794c-7.159,15.554-34.891,3.676-24.827-17.648
			l3.102-6.572c0.011-0.029,0.031-0.059,0.042-0.088c3.139-6.51,10.948-9.288,17.49-6.187l3.305,1.562
			C190.707,429.355,193.565,434.887,192.888,440.364z"/>
		
			<path fill="#FFFFFF" stroke="#494949" stroke-width="2.3" stroke-linecap="round" stroke-linejoin="round" stroke-miterlimit="10" d="
			M194.176,436.994c2.353-2.566-1.355-12.153-10.435-16.132s-18.244,2.688-17.692,7.122
			C166.698,433.189,190.811,440.665,194.176,436.994z"/>
		<path fill="#494949" d="M184.092,421.11c-0.355,1.441-2.339,2.199-4.43,1.692c-2.09-0.507-3.496-2.086-3.141-3.529
			c0.356-1.443,2.34-2.2,4.431-1.692C183.042,418.089,184.449,419.668,184.092,421.11z"/>
		<g>
			<path fill="#FF0083" d="M186.157,449.309c-5.245,0.001-8.97-0.465-10.774-1.346c-2.444-1.187-8.684-6.26-13.708-10.612
				c-0.344-0.374-0.243-1.554,0.304-2.813c0.668-1.539,1.613-2.391,2.01-2.391c0.054,0.012,0.109,0.018,0.164,0.018
				c0.015,0,0.03-0.001,0.045-0.002l0.034,0.024c0.051,0.013,0.097,0.023,0.14,0.034c4.058,2.686,11.052,7.178,13.473,7.87
				c3.267,0.947,8.393,1.078,13.445,1.078l1.665-0.002c0.177,0.216,0.299,0.867,0.035,2.079c-0.652,2.987-2.772,6.023-3.82,6.023
				c-0.025-0.003-0.122-0.005-0.126-0.005C188.137,449.292,187.161,449.309,186.157,449.309z"/>
			<g>
				<path fill="#494949" d="M164.04,432.911l0.01,0.003c0.006,0.001,0.012,0.003,0.018,0.004c4.935,3.265,11.192,7.214,13.566,7.893
					c3.358,0.974,8.548,1.108,13.656,1.108l1.022-0.001h0.083c0.022,0.659-0.234,2.073-1.104,3.832
					c-0.929,1.877-1.84,2.672-2.142,2.767c-0.028-0.001-0.056-0.002-0.084-0.002c-0.015,0-0.03,0-0.044,0.001
					c-0.983,0.028-1.947,0.043-2.865,0.043c-5.058,0-8.767-0.45-10.448-1.271c-2.358-1.145-8.46-6.105-13.428-10.404
					c-0.067-0.175-0.09-0.765,0.235-1.667C162.964,433.973,163.703,433.105,164.04,432.911 M163.989,431.396
					c-1.788,0-4.271,4.954-2.805,6.521c3.333,2.888,10.917,9.286,13.871,10.72c2.313,1.129,6.95,1.422,11.103,1.422
					c1.012,0,1.996-0.017,2.909-0.044c0.035,0.003,0.069,0.005,0.104,0.005c2.612,0,6.279-8.563,4.013-9.603
					c-0.58,0-1.216,0.002-1.894,0.002c-4.162,0-9.858-0.068-13.239-1.049c-2.539-0.727-10.611-6.016-13.408-7.87
					c-0.001,0.003-0.006,0.004-0.014,0.004c-0.068,0-0.364-0.091-0.432-0.091c-0.008,0-0.013,0.001-0.014,0.004
					C164.12,431.403,164.055,431.396,163.989,431.396L163.989,431.396z"/>
			</g>
		</g>
		<g>
			<path fill="#FFFFFF" d="M187.981,447.187c-1.541-0.058-2.843-0.699-3.364-1.612l-0.203-0.004
				c-0.611,0.704-1.85,1.144-3.298,1.144c-0.207,0-0.417-0.009-0.632-0.027c-1.493-0.115-2.836-0.674-3.5-1.457
				c-0.339-0.4-0.498-0.849-0.459-1.299c0.094-1.238,1.635-2.108,3.748-2.108c0.195,0,0.396,0.008,0.598,0.023
				c1.581,0.135,2.925,0.727,3.564,1.543l0.492,0.013c0.624-0.669,1.741-1.073,3.017-1.073l0.212,0.004
				c2.074,0.079,3.658,1.204,3.608,2.562c-0.049,1.31-1.58,2.297-3.561,2.297L187.981,447.187z"/>
			<path fill="#494949" d="M180.272,442.423c0.18,0,0.364,0.007,0.551,0.021c1.573,0.134,2.88,0.771,3.284,1.537l1.1,0.026
				c0.43-0.645,1.491-1.079,2.736-1.079c0.063,0,0.127,0.001,0.191,0.003c1.709,0.065,3.067,0.928,3.03,1.939
				c-0.037,0.974-1.351,1.72-2.961,1.72c-0.066,0-0.132-0.001-0.199-0.004c-1.523-0.057-2.753-0.742-2.99-1.605l-0.903-0.018
				c-0.373,0.686-1.564,1.15-2.994,1.15c-0.19,0-0.384-0.009-0.581-0.025c-1.965-0.152-3.5-1.103-3.413-2.106
				C177.192,443.067,178.557,442.423,180.272,442.423 M180.272,441.223c-2.479,0-4.226,1.072-4.347,2.669
				c-0.052,0.601,0.155,1.201,0.601,1.726c0.775,0.915,2.24,1.538,3.917,1.668c0.222,0.02,0.45,0.029,0.673,0.029
				c1.365,0,2.549-0.352,3.329-0.955c0.738,0.831,2.016,1.371,3.514,1.427c0.081,0.003,0.163,0.005,0.244,0.005
				c2.311,0,4.099-1.236,4.161-2.875c0.063-1.722-1.735-3.09-4.183-3.184c-0.082-0.003-0.159-0.004-0.237-0.004
				c-1.307,0-2.481,0.393-3.24,1.056c-0.793-0.829-2.164-1.398-3.779-1.535C180.699,441.23,180.483,441.223,180.272,441.223
				L180.272,441.223z"/>
		</g>
		
			<path fill="none" stroke="#494949" stroke-width="1.3" stroke-linecap="round" stroke-linejoin="round" stroke-miterlimit="10" d="
			M173.755,455.161c0,0,1.587,2.166,5.595,2.424"/>
	</g>
	<polygon fill="#EBEBEB" points="168.686,489.669 168.545,486.676 158.436,487.642 157.317,489.043 156.896,488.415 
		153.738,493.579 166.597,492.479 168.809,492.289 	"/>
	
		<path fill="#FFFFFF" stroke="#494949" stroke-width="2.3" stroke-linecap="round" stroke-linejoin="round" stroke-miterlimit="10" d="
		M155.35,463.168c0.167-6.667-6.666-8.834-14.833-4.001s-13.834,14.165-15.167,22.499s-1.333,14.667-7.833,14.667
		s-22.667-6.666-22.667-26.5c0-11.589-1.106-17.074,6.167-26.166c3.466-4.334,13.5-12.334,26.833-12.334s27.667,5.334,31.667,19.834
		c1.167,3.666,1.167,11,0.167,14.834c-0.526-0.526-1,5.666-3.667,4.333C151.466,468.059,155.35,463.168,155.35,463.168z"/>
	<polygon fill="#EBEBEB" points="170.743,479.417 182.226,478.792 181.02,473.194 170.381,473.785 	"/>
	<polygon fill="#EBEBEB" points="169.118,469.917 180.129,469.308 180.105,468.936 178.985,463.717 168.756,464.285 	"/>
	<polygon fill="#EBEBEB" points="152.184,463.25 138.528,463.24 138.589,468.887 147.934,468.75 	"/>
	<polygon fill="#EBEBEB" points="156.309,475.5 150.934,473.783 139.35,473.5 140.707,478.66 141.056,479.51 152.301,479.448 
		155.184,477.375 	"/>
	
		<line fill="none" stroke="#494949" stroke-width="1.3" stroke-linecap="round" stroke-linejoin="round" stroke-miterlimit="10" x1="170.684" y1="473.375" x2="171.309" y2="489.25"/>
	<polyline fill="#FFFFFF" points="177.184,483.333 162.684,470.5 157.017,476.167 171.184,494.5 	"/>
	<path fill="none" d="M138.589,468.887l-0.061-5.646l11.028-0.013l0.062,5.643L138.589,468.887z"/>
	<polygon fill="#EBEBEB" points="117.504,560.366 125.616,565.064 133.227,562.967 123.581,557.39 	"/>
	<polygon fill="#EBEBEB" points="126.45,555.984 136.818,561.977 144.431,559.879 132.537,553.004 	"/>
	<path fill="#EBEBEB" d="M135.327,550.738c0.004,0.021,0.017,0.12,0.019,0.141c0.012,0.098,0.006,0.193-0.01,0.287l18.96,4.691
		l0.765-5.607l-20.774-5.137L135.327,550.738z"/>
	<polygon fill="#EBEBEB" points="133.669,541.762 155.976,543.541 156.737,537.961 132.61,536.033 	"/>
	<path fill="#EBEBEB" d="M183.574,510.94l-16.2,15.819l-6.68-1.34l5.98-5.84l-29.45,6l20.97,1.7l-0.76,5.58l-25.79-2.051l-0.04-0.21
		c0-0.02,0-0.04-0.01-0.06l-0.68-3.68l-0.37-1.99c0-0.021,0-0.04-0.01-0.061l-0.64-3.489l44.21-8.99l4.11-4.01L183.574,510.94z"/>
	<polygon fill="#EBEBEB" points="188.924,513.551 174.026,528.1 180.702,529.441 194.285,516.171 	"/>
	<path fill="#EBEBEB" d="M201.542,519.717l-3.475-1.698l-12.668,12.367l3.152,0.634c0.234,0.047,0.443,0.176,0.59,0.363l1.424,1.813
		l11.69-11.417L201.542,519.717z"/>
	<polygon fill="#EBEBEB" points="204.776,529.068 191.556,534.457 195.172,539.059 206.615,534.389 	"/>
	<polygon fill="#EBEBEB" points="208.036,538.508 197.967,542.617 201.58,547.216 209.874,543.83 	"/>
	<path fill="#EBEBEB" d="M211.353,548.109l-6.87,2.8l2.988,3.804c0.229,0.292,0.267,0.674,0.133,0.998l5.585-2.283L211.353,548.109z
		"/>
	<path fill="#EBEBEB" d="M176.996,507.703l-48.152,7.896l-0.17-0.89l-0.33-4.74l38.38-6.16l-38.64,2.45l-0.39-5.609l6.15-0.391
		c0.58,1.66,1.94,2.94,3.65,3.42c1.82,0.511,3.76,0.051,5.16-1.21l3.29-2.979l24.93-1.58l1.5,7.13c0.07,0.3,0.26,0.55,0.54,0.69
		L176.996,507.703z"/>
	<polygon fill="#EBEBEB" points="140.417,479.188 128.793,483.856 130.938,489.072 142.561,484.4 140.806,480.135 140.457,479.285 	
		"/>
	<polygon fill="#EBEBEB" points="141.06,488.682 136.916,492.518 143.403,499.65 144.329,500.668 145.58,499.51 148.469,496.834 	
		"/>
	<polygon fill="#EBEBEB" points="154.969,491.584 147.56,483.432 143.416,487.268 150.829,495.418 	"/>
	<polygon fill="#EBEBEB" points="160.092,487.642 162.719,485.209 156.044,477.865 155.31,477.057 152.051,480.073 151.166,480.893 
		158.008,488.415 158.579,489.043 	"/>
	
		<rect x="169.706" y="487.805" transform="matrix(0.7451 -0.667 0.667 0.7451 -282.3101 241.7388)" fill="#EBEBEB" width="10.75" height="4.75"/>
	
		<rect x="164.206" y="481.305" transform="matrix(0.7451 -0.667 0.667 0.7451 -279.3768 236.4134)" fill="#EBEBEB" width="10.75" height="4.75"/>
	
		<rect x="159.094" y="474.555" transform="matrix(0.7451 -0.6669 0.6669 0.7451 -276.4505 230.4928)" fill="#EBEBEB" width="8.475" height="4.75"/>
	<path fill="none" stroke="#494949" stroke-width="1.3" stroke-linecap="round" stroke-linejoin="round" stroke-miterlimit="10" d="
		M126.851,476.333l6.889,23.619c0.527,1.807,1.948,3.216,3.759,3.728s3.759,0.055,5.154-1.209l20.198-18.304"/>
	
		<polyline fill="none" stroke="#494949" stroke-width="1.3" stroke-linecap="round" stroke-linejoin="round" stroke-miterlimit="10" points="
		157.351,476 143.684,486.5 140.684,479.5 	"/>
	
		<polyline fill="none" stroke="#494949" stroke-width="1.3" stroke-linecap="round" stroke-linejoin="round" stroke-miterlimit="10" points="
		177.184,483.333 162.684,470.5 157.017,476.167 173.934,497.75 	"/>
	
		<path fill="#FFFFFF" stroke="#494949" stroke-width="1.3" stroke-linecap="round" stroke-linejoin="round" stroke-miterlimit="10" d="
		M155.851,475c-4.167-0.5-7.667-1.001-7.5-5.667s2.667-5.499,4.667-5.666s7.5,1.833,7.833,6.166"/>
</g>
<g>
	<polygon fill="#EDEDED" points="530.351,538.665 535.017,538.665 532.684,561.331 525.351,561.331 	"/>
	<polygon fill="#EDEDED" points="497.351,513.998 492.351,513.998 506.684,561.665 511.684,561.665 	"/>
	
		<polyline fill="#FFFFFF" stroke="#494949" stroke-width="2.5" stroke-linecap="round" stroke-linejoin="round" stroke-miterlimit="10" points="
		544.184,440.498 579.351,505.498 574.851,510.498 559.684,501.331 	"/>
	
		<path fill="#FFFFFF" stroke="#494949" stroke-width="2.5" stroke-linecap="round" stroke-linejoin="round" stroke-miterlimit="10" d="
		M506.184,434.164c-12.667,13.667-28.166,34-16.833,79.5h71l-1.833-24.833"/>
	
		<path fill="#FFFFFF" stroke="#494949" stroke-width="2.5" stroke-linecap="round" stroke-linejoin="round" stroke-miterlimit="10" d="
		M548.726,427.333c1.658,6.827-2.534,13.706-9.361,15.364l-16.828,4.084c-6.828,1.658-13.706-2.533-15.364-9.361l-5.835-24.038
		c-1.658-6.827,2.534-13.706,9.361-15.364l16.827-4.084c6.829-1.657,13.707,2.533,15.364,9.361L548.726,427.333z"/>
	<g>
		
			<polygon fill="#FFFFFF" stroke="#494949" stroke-width="1.5" stroke-linecap="round" stroke-linejoin="round" stroke-miterlimit="10" points="
			521.347,524.349 504.939,514.823 525.694,479.087 542.102,488.611 		"/>
		
			<polygon fill="#FFFFFF" stroke="#494949" stroke-width="1.5" stroke-linecap="round" stroke-linejoin="round" stroke-miterlimit="10" points="
			538.264,489.448 517.514,525.178 501.104,515.658 502.804,512.729 516.514,520.678 535.563,487.878 		"/>
		
			<polygon fill="#EBEBEB" stroke="#494949" stroke-width="1.5" stroke-linecap="round" stroke-linejoin="round" stroke-miterlimit="10" points="
			516.513,520.683 500.106,511.157 520.86,475.421 537.268,484.945 		"/>
		
			<path fill="#FFFFFF" stroke="#494949" stroke-width="1.5" stroke-linecap="round" stroke-linejoin="round" stroke-miterlimit="10" d="
			M489.434,475.248l2.392,19.572c0.222,1.812,1.393,3.368,3.072,4.082l19.036,8.096l3-5.25l-7.25-11.5l0.25-11.25"/>
		
			<path fill="#FFFFFF" stroke="#494949" stroke-width="1.5" stroke-linecap="round" stroke-linejoin="round" stroke-miterlimit="10" d="
			M513.934,506.998l12.478,9.075c0.317,0.229,0.719,0.31,1.099,0.217c0.381-0.093,0.701-0.349,0.876-0.699l4.062-8.123
			c0.18-0.359,0.188-0.78,0.022-1.146s-0.488-0.638-0.876-0.739l-14.661-3.834L513.934,506.998z"/>
		<g>
			
				<polygon fill="#FF0083" stroke="#494949" stroke-width="2" stroke-linecap="round" stroke-linejoin="round" stroke-miterlimit="10" points="
				531.054,458.157 519.359,462.684 518.872,453.56 530.972,456.616 			"/>
			
				<polygon fill="#FF0083" stroke="#494949" stroke-width="2" stroke-linecap="round" stroke-linejoin="round" stroke-miterlimit="10" points="
				534.362,458.028 546.109,459.692 544.493,450.699 534.089,456.508 			"/>
			
				<path fill="#FF0083" stroke="#494949" stroke-width="2" stroke-linecap="round" stroke-linejoin="round" stroke-miterlimit="10" d="
				M535.595,457.121c-0.255-2.041-2.119-3.495-4.163-3.247c-2.044,0.246-3.495,2.102-3.24,4.141
				c0.255,2.042,2.118,3.494,4.163,3.249C534.399,461.016,535.85,459.163,535.595,457.121z"/>
		</g>
		
			<path fill="#EBEBEB" stroke="#494949" stroke-width="1.5" stroke-linecap="round" stroke-linejoin="round" stroke-miterlimit="10" d="
			M519.017,433.831c4.667-0.5,4.083-10.249,16.167-5.083c9.417-8.667,11.333-1.917,16.833-2c-4,5.166-8.583,7.666-12.583,5.416
			s-5.944,0.715-7.333,2.25C530.517,436.164,524.601,437.748,519.017,433.831z"/>
		
			<polygon fill="#FFFFFF" stroke="#494949" stroke-width="2.5" stroke-linecap="round" stroke-linejoin="round" stroke-miterlimit="10" points="
			558.21,395.518 483.511,413.165 499.04,403.328 539.924,393.67 		"/>
		<polygon fill="#F9F9F9" points="511.965,400.086 499.338,403.141 491.314,369.405 503.942,366.351 		"/>
		
			<polygon fill="none" stroke="#494949" stroke-width="2.5" stroke-linecap="round" stroke-linejoin="round" stroke-miterlimit="10" points="
			539.895,393.447 499.337,403.137 491.314,369.405 531.874,359.716 		"/>
		
			<polygon fill="#FF0083" stroke="#494949" stroke-width="2" stroke-linecap="round" stroke-linejoin="round" stroke-miterlimit="10" points="
			539.902,393.476 499.337,403.137 496.496,391.19 537.062,381.529 		"/>
	</g>
	
		<line fill="none" stroke="#494949" stroke-width="2.5" stroke-linecap="round" stroke-linejoin="round" stroke-miterlimit="10" x1="491.184" y1="513.998" x2="506.184" y2="561.164"/>
	
		<line fill="none" stroke="#494949" stroke-width="2.5" stroke-linecap="round" stroke-linejoin="round" stroke-miterlimit="10" x1="557.517" y1="514.331" x2="546.517" y2="560.831"/>
	
		<line fill="#FFFFFF" stroke="#494949" stroke-width="1.5" stroke-linecap="round" stroke-linejoin="round" stroke-miterlimit="10" x1="530.184" y1="536.831" x2="525.684" y2="560.498"/>
	<path fill="none" stroke="#494949" stroke-width="2.5" stroke-linecap="round" stroke-linejoin="round" stroke-miterlimit="10" d="
		M555.851,571.665c0-5.522-4.404-10-9.837-10h-40.66c-5.433,0-9.837,4.478-9.837,10H555.851z"/>
	
		<line fill="none" stroke="#494949" stroke-width="2.5" stroke-linecap="round" stroke-linejoin="round" stroke-miterlimit="10" x1="525.184" y1="561.831" x2="525.184" y2="571.665"/>
	
		<polyline fill="#FFFFFF" stroke="#494949" stroke-width="1.5" stroke-linecap="round" stroke-linejoin="round" stroke-miterlimit="10" points="
		577.684,513.998 561.35,571.998 565.35,571.998 585.184,517.831 	"/>
	
		<path fill="#FFFFFF" stroke="#494949" stroke-width="1.5" stroke-linecap="round" stroke-linejoin="round" stroke-miterlimit="10" d="
		M579.017,506.331c6.167,1,13.171,5.431,13.333,8.5c0.167,3.167-2.5,6.333-5.167,6s-2-6.333-6.333-5.667
		c-6.113,0.939-5.833-4-5.833-4L579.017,506.331z"/>
	<path fill="none" stroke="#494949" stroke-width="1.5" stroke-linecap="round" stroke-linejoin="round" stroke-miterlimit="10" d="
		M507.851,438.831c3.333,0,8-2.166,6.833-19.833"/>
	
		<circle fill="#EBEBEB" stroke="#494949" stroke-width="1.5" stroke-linecap="round" stroke-linejoin="round" stroke-miterlimit="10" cx="521.309" cy="415.623" r="7.042"/>
	<path fill="none" stroke="#494949" stroke-width="1.5" stroke-linecap="round" stroke-linejoin="round" stroke-miterlimit="10" d="
		M525.416,416.091c-0.365-1.967-2.258-3.26-4.227-2.889c-1.968,0.372-3.268,2.269-2.902,4.236"/>
	<path fill="none" stroke="#494949" stroke-width="1.5" stroke-linecap="round" stroke-linejoin="round" stroke-miterlimit="10" d="
		M539.916,413.424c-0.365-1.967-2.258-3.26-4.227-2.889c-1.968,0.372-3.268,2.269-2.902,4.236"/>
</g>
<g>
	<g>
		
			<polygon fill="#FF0083" stroke="#494949" stroke-width="1.2" stroke-linecap="round" stroke-linejoin="round" stroke-miterlimit="10" points="
			1577.744,404.457 1590.244,379.457 1580.744,407.624 		"/>
		
			<circle fill="#FF0083" stroke="#494949" stroke-width="1.2" stroke-linecap="round" stroke-linejoin="round" stroke-miterlimit="10" cx="1590.078" cy="380.29" r="3.166"/>
	</g>
	<g>
		
			<polygon fill="#FF0083" stroke="#494949" stroke-width="1.2" stroke-linecap="round" stroke-linejoin="round" stroke-miterlimit="10" points="
			1522.077,403.457 1509.577,379.457 1518.077,406.624 		"/>
		
			<circle fill="#FF0083" stroke="#494949" stroke-width="1.2" stroke-linecap="round" stroke-linejoin="round" stroke-miterlimit="10" cx="1509.743" cy="380.29" r="3.166"/>
	</g>
	<path fill="none" stroke="#494949" stroke-width="2.5" stroke-linecap="round" stroke-linejoin="round" stroke-miterlimit="10" d="
		M1553.244,510.624l10.333,50h20l-7-85h9.333v-56.667c0-9.389-7.611-17-17-17h-38.666c-9.389,0-17,7.611-17,17v56.667h11l-3,84.333
		h19.333l15.333-61.667"/>
	
		<rect x="1524.577" y="465.29" fill="#EBEBEB" stroke="#494949" stroke-width="1.5" stroke-linecap="round" stroke-linejoin="round" stroke-miterlimit="10" width="51.667" height="9.667"/>
	
		<line fill="none" stroke="#494949" stroke-width="1.5" stroke-linecap="round" stroke-linejoin="round" stroke-miterlimit="10" x1="1524.577" y1="474.957" x2="1524.577" y2="430.957"/>
	
		<line fill="none" stroke="#494949" stroke-width="1.5" stroke-linecap="round" stroke-linejoin="round" stroke-miterlimit="10" x1="1576.244" y1="474.957" x2="1576.244" y2="430.957"/>
	<path fill="none" stroke="#494949" stroke-width="2.5" stroke-linecap="round" stroke-linejoin="round" stroke-miterlimit="10" d="
		M1523.577,494.957h-0.833c-4.694,0-8.5-3.806-8.5-8.5v-10.833h9.333V494.957z"/>
	<path fill="none" stroke="#494949" stroke-width="2.5" stroke-linecap="round" stroke-linejoin="round" stroke-miterlimit="10" d="
		M1585.573,475.623v10.83c0,4.33-3.23,7.9-7.41,8.43l-1.59-19.26H1585.573z"/>
	
		<path fill="#EBEBEB" stroke="#494949" stroke-width="1.5" stroke-linecap="round" stroke-linejoin="round" stroke-miterlimit="10" d="
		M1572.244,446.623c0,1.289-1.045,2.334-2.334,2.334h-12.332c-1.289,0-2.334-1.045-2.334-2.334v-21c0-1.288,1.045-2.333,2.334-2.333
		h12.332c1.289,0,2.334,1.045,2.334,2.333V446.623z"/>
	
		<rect x="1559.91" y="428.29" fill="#FFFFFF" stroke="#494949" stroke-width="1.5" stroke-linecap="round" stroke-linejoin="round" stroke-miterlimit="10" width="7.667" height="11"/>
	
		<path fill="#EBEBEB" stroke="#494949" stroke-width="1.5" stroke-linecap="round" stroke-linejoin="round" stroke-miterlimit="10" d="
		M1537.91,482.29c0,1.104-0.896,2-2,2h-2.333c-1.104,0-2-0.896-2-2v-21c0-1.104,0.896-2,2-2h2.333c1.104,0,2,0.896,2,2V482.29z"/>
	
		<path fill="#EBEBEB" stroke="#494949" stroke-width="1.5" stroke-linecap="round" stroke-linejoin="round" stroke-miterlimit="10" d="
		M1567.244,482.29c0,1.104-0.896,2-2,2h-2.333c-1.104,0-2-0.896-2-2v-21c0-1.104,0.896-2,2-2h2.333c1.104,0,2,0.896,2,2V482.29z"/>
	
		<path fill="#EBEBEB" stroke="#494949" stroke-width="1.5" stroke-linecap="round" stroke-linejoin="round" stroke-miterlimit="10" d="
		M1516.744,454.29c0,1.104-0.896,2-2,2h-0.334c-2.669,0-4.833-2.164-4.833-4.833v-6c0-2.669,2.164-4.833,4.833-4.833h0.334
		c1.104,0,2,0.896,2,2V454.29z"/>
	
		<path fill="#EBEBEB" stroke="#494949" stroke-width="1.5" stroke-linecap="round" stroke-linejoin="round" stroke-miterlimit="10" d="
		M1583.409,454.29c0,1.104,0.896,2,2,2h0.334c2.669,0,4.833-2.164,4.833-4.833v-6c0-2.669-2.164-4.833-4.833-4.833h-0.334
		c-1.104,0-2,0.896-2,2V454.29z"/>
	
		<path fill="#EBEBEB" stroke="#494949" stroke-width="1.5" stroke-linecap="round" stroke-linejoin="round" stroke-miterlimit="10" d="
		M1540.998,530.657c-0.149,3.352-2.987,5.947-6.339,5.799l-10.641-0.473c-1.219-0.054-2.366-0.591-3.19-1.49
		c-0.824-0.9-1.256-2.092-1.202-3.311l0.591-13.284c0.054-1.219,0.59-2.367,1.49-3.19c0.9-0.824,2.092-1.256,3.311-1.202
		l5.673,0.252c2.927,0.131,5.683,1.418,7.66,3.58c1.979,2.162,3.017,5.021,2.886,7.948L1540.998,530.657z"/>
	
		<path fill="#EBEBEB" stroke="#494949" stroke-width="1.5" stroke-linecap="round" stroke-linejoin="round" stroke-miterlimit="10" d="
		M1562.203,530.657c0.149,3.352,2.987,5.947,6.339,5.799l10.641-0.473c1.219-0.054,2.366-0.591,3.19-1.49
		c0.824-0.9,1.256-2.092,1.202-3.311l-0.591-13.284c-0.054-1.219-0.59-2.367-1.49-3.19s-2.092-1.256-3.311-1.202l-5.673,0.252
		c-2.927,0.131-5.683,1.418-7.66,3.58c-1.979,2.162-3.017,5.021-2.886,7.948L1562.203,530.657z"/>
	
		<path fill="#FFFFFF" stroke="#494949" stroke-width="2.5" stroke-linecap="round" stroke-linejoin="round" stroke-miterlimit="10" d="
		M1541.076,559.957h-21c-5.247,0-9.5,4.253-9.5,9.5v1.166h30.5V559.957z"/>
	
		<path fill="#FFFFFF" stroke="#494949" stroke-width="2.5" stroke-linecap="round" stroke-linejoin="round" stroke-miterlimit="10" d="
		M1563.743,559.957h21c5.247,0,9.5,4.253,9.5,9.5v1.166h-30.5V559.957z"/>
	<path fill="none" stroke="#494949" stroke-width="2.5" stroke-linecap="round" stroke-linejoin="round" stroke-miterlimit="10" d="
		M1574.993,374.748c0-11.667-9.458-21.125-21.125-21.125h-8.5c-11.667,0-21.125,9.458-21.125,21.125v28.125
		c7.75,14.75,44.5,13.25,50.75,0V374.748z"/>
	
		<path fill="#FFFFFF" stroke="#494949" stroke-width="2.5" stroke-linecap="round" stroke-linejoin="round" stroke-miterlimit="10" d="
		M1565.744,396.79c0,6.075-4.925,11-11,11h-8c-6.075,0-11-4.925-11-11v-17.834c0-6.075,4.925-11,11-11h8c6.075,0,11,4.925,11,11
		V396.79z"/>
	
		<path fill="#EBEBEB" stroke="#494949" stroke-width="2.5" stroke-linecap="round" stroke-linejoin="round" stroke-miterlimit="10" d="
		M1568.243,371.123v7.83c0,2.66-0.93,5.1-2.5,7v-4c0-8.862-6.39-11.719-10.15-8.2c-2.64,2.46-6.739,2.49-9.409,0.05
		c-4.078-3.731-10.44-0.185-10.44,8.15v2.84c-1.06-1.689-1.67-3.689-1.67-5.84v-7.83c0-6.08,4.91-12,10.95-12h12.27
		C1563.343,359.123,1568.243,365.043,1568.243,371.123z"/>
	<path fill="none" stroke="#494949" stroke-width="1.5" stroke-linecap="round" stroke-linejoin="round" stroke-miterlimit="10" d="
		M1549.159,389.207c0-1.979-1.604-3.583-3.583-3.583s-3.583,1.604-3.583,3.583"/>
	<path fill="none" stroke="#494949" stroke-width="1.5" stroke-linecap="round" stroke-linejoin="round" stroke-miterlimit="10" d="
		M1561.659,389.207c0-1.979-1.604-3.583-3.583-3.583s-3.583,1.604-3.583,3.583"/>
	<path fill="none" stroke="#494949" stroke-width="1.5" stroke-linecap="round" stroke-linejoin="round" stroke-miterlimit="10" d="
		M1547.326,398.79c0,0,8.418,3.334,13.584-2.583"/>
</g>
<g>
	
		<path fill="#EBEBEB" stroke="#494949" stroke-width="2.5" stroke-linecap="round" stroke-linejoin="round" stroke-miterlimit="10" d="
		M1747.638,460.373c0,6.075-4.925,11-11,11h-1.75c-6.075,0-11-4.925-11-11v-49.75c0-6.075,4.925-11,11-11h1.75
		c6.075,0,11,4.925,11,11V460.373z"/>
	
		<polygon fill="#EBEBEB" stroke="#494949" stroke-width="2.5" stroke-linecap="round" stroke-linejoin="round" stroke-miterlimit="10" points="
		1746.887,480.872 1724.637,480.872 1727.637,466.622 1743.887,466.622 	"/>
	
		<path fill="#FFFFFF" stroke="#494949" stroke-width="2.5" stroke-linecap="round" stroke-linejoin="round" stroke-miterlimit="10" d="
		M1702.472,401.956h12.75c8.698,0,15.75,7.052,15.75,15.75v29.152c0,1.923-0.487,3.813-1.416,5.496l-1.251,2.269v19.382
		c0,0.408-0.081,0.813-0.238,1.189l-0.595,1.429v84.333h-45.667v-85.667h-11.666v-57.583c0-8.698,7.052-15.75,15.75-15.75H1702.472z
		"/>
	<path fill="none" stroke="#494949" stroke-width="2.5" stroke-linecap="round" stroke-linejoin="round" stroke-miterlimit="10" d="
		M1681.805,494.789h-1.5c-4.418,0-8-3.582-8-8v-11.5h9.5V494.789z"/>
	
		<polyline fill="none" stroke="#494949" stroke-width="1.5" stroke-linecap="round" stroke-linejoin="round" stroke-miterlimit="10" points="
		1679.639,424.956 1679.639,474.779 1728.305,474.779 	"/>
	
		<line fill="none" stroke="#494949" stroke-width="1.5" stroke-linecap="round" stroke-linejoin="round" stroke-miterlimit="10" x1="1702.138" y1="487.623" x2="1702.138" y2="560.956"/>
	
		<path fill="#FF0083" stroke="#494949" stroke-width="1.2" stroke-linecap="round" stroke-linejoin="round" stroke-miterlimit="10" d="
		M1698.273,453.027c0.076,1.103-0.755,2.058-1.856,2.134l-9.582,0.669c-1.102,0.076-2.057-0.756-2.133-1.858l-1.468-21.198
		c-0.075-1.103,0.755-2.058,1.856-2.135l9.582-0.667c1.102-0.076,2.057,0.755,2.135,1.856L1698.273,453.027z"/>
	<path fill="none" stroke="#494949" stroke-width="1.5" stroke-linecap="round" stroke-linejoin="round" stroke-miterlimit="10" d="
		M1715.513,430.748v10.75c0,2.555-2.07,4.625-4.625,4.625h-7.75v12.125h19c3.125,0,6.167-3.274,6.167-5"/>
	
		<path fill="#FFFFFF" stroke="#494949" stroke-width="1.5" stroke-linecap="round" stroke-linejoin="round" stroke-miterlimit="10" d="
		M1703.138,448.123l-9.387-4.959c-0.951-0.502-2.077-0.554-3.069-0.139c-0.993,0.414-1.748,1.25-2.061,2.279l-1.626,5.374
		c-0.308,1.014-0.152,2.11,0.423,2.999c0.574,0.89,1.512,1.48,2.562,1.616l13.158,1.704"/>
	<path fill="none" stroke="#494949" stroke-width="2.5" stroke-linecap="round" stroke-linejoin="round" stroke-miterlimit="10" d="
		M1724.518,401.123v0.12h-0.01C1724.518,401.203,1724.518,401.163,1724.518,401.123z"/>
	<path fill="none" stroke="#494949" stroke-width="2.5" stroke-linecap="round" stroke-linejoin="round" stroke-miterlimit="10" d="
		M1724.518,372.743v28.38c0,0.04,0,0.08-0.01,0.12c-0.12,6.979-11.69,12.63-25.93,12.63c-14.25,0-25.811-5.65-25.931-12.63h-0.01
		v-28.5c0-11.04,8.95-20,20-20h11.88C1715.558,352.743,1724.518,361.703,1724.518,372.743z"/>
	
		<path fill="#FFFFFF" stroke="#494949" stroke-width="2.5" stroke-linecap="round" stroke-linejoin="round" stroke-miterlimit="10" d="
		M1714.577,396.79c0,6.075-4.925,11-11,11h-8c-6.075,0-11-4.925-11-11v-17.834c0-6.075,4.925-11,11-11h8c6.075,0,11,4.925,11,11
		V396.79z"/>
	
		<path fill="#FFFFFF" stroke="#494949" stroke-width="2.5" stroke-linecap="round" stroke-linejoin="round" stroke-miterlimit="10" d="
		M1683.229,362.79c-2.092,4.167-1.463,17.084,1.348,22.834c0-13.407,5.017-10.32,9.311-10.75c2.985-0.299,8.749-3.916,13.333-1.25
		s5.417,13.166,7.356,13.166c3.728,0,4.394-33.38-19.439-24.333C1690.912,364.061,1687.971,366.54,1683.229,362.79z"/>
	
		<path fill="#FFFFFF" stroke="#494949" stroke-width="1.5" stroke-linecap="round" stroke-linejoin="round" stroke-miterlimit="10" d="
		M1692.555,397.291c4.083,2.5,7.168,2.667,11.417,0"/>
	
		<path fill="#FFFFFF" stroke="#494949" stroke-width="1.5" stroke-linecap="round" stroke-linejoin="round" stroke-miterlimit="10" d="
		M1695.555,389.374c0-2.025-1.642-3.667-3.667-3.667s-3.667,1.642-3.667,3.667"/>
	
		<path fill="#FFFFFF" stroke="#494949" stroke-width="1.5" stroke-linecap="round" stroke-linejoin="round" stroke-miterlimit="10" d="
		M1707.639,389.374c0-2.025-1.642-3.667-3.667-3.667s-3.667,1.642-3.667,3.667"/>
	
		<path fill="#FFFFFF" stroke="#494949" stroke-width="2.5" stroke-linecap="round" stroke-linejoin="round" stroke-miterlimit="10" d="
		M1702.138,560.956h-23.249c-3.637,0-6.584,2.947-6.584,6.583v3.084h29.833V560.956z"/>
	
		<path fill="#FFFFFF" stroke="#494949" stroke-width="2.5" stroke-linecap="round" stroke-linejoin="round" stroke-miterlimit="10" d="
		M1727.805,560.956h-23.25c-3.636,0-6.583,2.947-6.583,6.583v3.084h29.833V560.956z"/>
</g>
<text transform="matrix(1 0 0 1 455.3345 -452.3936)" display="none" font-family="'Tahoma'" font-size="38.9145">434</text>
<g>
	<path fill="#FF0083" d="M250.337,132.582l-0.368-0.591c-0.283-0.455-0.175-1.09,0.28-1.374l1.773-1.104
		c-0.544-0.671-1.015-1.325-1.496-2.098c-0.198-0.318-0.396-0.637-0.55-0.983l-1.682,1.048c-0.455,0.283-1.073,0.101-1.357-0.354
		l-0.367-0.591c-0.283-0.455-0.175-1.091,0.279-1.374l1.956-1.218c-3.172-8.438-0.044-18.212,7.915-23.168
		c4.593-2.86,8.818-3.473,13.639-2.624c0.635,0.108,0.976,0.654,0.838,1.245l-0.973,4.519c-0.092,0.562-0.637,0.902-1.228,0.765
		c-2.986-0.539-6.054,0.109-8.601,1.695c-4.729,2.945-6.477,8.451-5.042,13.49l10.596-6.599c0.501-0.312,1.119-0.129,1.402,0.326
		l0.425,0.682c0.283,0.455,0.146,1.045-0.354,1.356l-11.05,6.882c0.17,0.273,0.312,0.5,0.48,0.773
		c0.482,0.773,1.008,1.518,1.672,2.178l9.005-5.607c0.5-0.312,1.118-0.129,1.401,0.326l0.396,0.637
		c0.283,0.455,0.146,1.045-0.354,1.356l-8.187,5.098c3.744,2.465,8.655,2.751,12.794,0.174c2.729-1.699,4.397-4.189,5.344-6.925
		c0.166-0.545,0.694-0.811,1.137-0.708l4.633,1.155c0.563,0.092,0.839,0.739,0.719,1.256c-1.223,4.928-4.256,8.773-8.303,11.293
		c-7.504,4.673-16.912,3.652-23.145-1.997l-2.273,1.416C251.238,133.219,250.619,133.036,250.337,132.582z"/>
</g>
<g>
	<path fill="#FF0083" d="M446.18,240.333c1.006-1.668,2.269-4.838,3.778-3.725c0.215,0.159,3.447,2.494,6.667,3.274
		c-0.025-3.482,0.004-6.804-0.021-10.286c-4.997-1.947-10.696-4.745-10.747-11.817c-0.037-5.089,3.307-9.614,10.642-10.256
		l-0.012-1.714c-0.004-0.589,0.475-1.021,1.011-1.025l0.696-0.005c0.536-0.004,1.021,0.421,1.025,1.01l0.013,1.768
		c4.77,0.341,8.377,2.726,9.346,3.416c0.538,0.317,0.705,1.173,0.334,1.766c-1.06,1.615-2.592,4.573-3.831,3.724
		c-0.376-0.158-3.176-2.067-5.806-2.852c0.023,3.214,0.046,6.429,0.069,9.643c4.674,1.895,11.073,5.063,11.123,12.081
		c0.042,5.839-3.892,10.154-11.067,10.634l0.041,5.571c0.004,0.589-0.475,0.968-1.064,0.972c-0.643,0.005-1.661-0.042-1.667-0.952
		l-0.041-5.571c-5.789-0.387-9.238-3.148-10.208-4.052C445.974,241.459,445.65,241.14,446.18,240.333z M456.381,213.472
		c-2.677,0.341-4.005,1.904-3.993,3.512c0.015,2.143,1.312,3.687,4.055,5.113L456.381,213.472z M463.455,236.137
		c-0.015-2.089-1.367-3.794-4.056-5.328l0.067,9.375C461.767,239.792,463.47,238.226,463.455,236.137z"/>
</g>
<g>
	<path fill="#FF0083" d="M635.054,219.21l-0.365-0.592c-0.281-0.456-0.17-1.091,0.286-1.373l5.062-3.122l-1.94-3.146l-5.062,3.122
		c-0.456,0.281-1.074,0.096-1.355-0.36l-0.365-0.593c-0.281-0.457-0.17-1.091,0.286-1.373l5.062-3.122l-1.294-2.097l-19.79-8.817
		c-0.73-0.368-0.815-1.322-0.086-1.772l4.696-2.896c0.319-0.197,0.734-0.138,0.983-0.04l13.764,5.988l0.827-14.988
		c0.024-0.267,0.066-0.607,0.477-0.86l4.65-2.869c0.73-0.45,1.545,0.055,1.546,0.873l-1.168,21.681l1.321,2.143l4.971-3.065
		c0.502-0.309,1.119-0.124,1.4,0.333l0.395,0.638c0.281,0.456,0.141,1.045-0.36,1.354l-4.971,3.065l1.94,3.146l4.971-3.065
		c0.502-0.309,1.119-0.124,1.4,0.333l0.395,0.638c0.281,0.456,0.141,1.046-0.36,1.355l-4.971,3.065l2.841,4.605
		c0.281,0.457,0.124,1.12-0.332,1.401l-4.194,2.587c-0.502,0.31-1.119,0.124-1.401-0.333l-2.84-4.605l-5.062,3.122
		C635.953,219.852,635.335,219.666,635.054,219.21z"/>
</g>
<path fill="#FF0083" d="M1272.341,209.036c-1.214-4.774-5.922-6.569-8.892-6.759c2.146-1.757,4.634-5.702,3.617-9.702
	c-1.337-5.284-6.842-8.21-12.801-6.961l-1.059-4.201c-0.122-0.479-0.633-0.723-1.146-0.591l-0.675,0.176
	c-0.522,0.129-0.9,0.597-0.778,1.076l1.056,4.179l-2.643,0.668l-1.008-3.997c-0.121-0.479-0.632-0.723-1.145-0.591l-0.675,0.176
	c-0.522,0.129-0.9,0.597-0.778,1.076l1.008,3.997l-4.637,1.173c-0.569,0.145-0.872,0.711-0.733,1.237l8.694,34.382
	c0.142,0.516,0.667,0.88,1.246,0.738l4.636-1.173l1.011,3.987c0.104,0.432,0.662,0.659,1.176,0.527l0.626-0.16
	c0.523-0.128,0.901-0.597,0.796-1.028l-1.011-3.987l2.643-0.668l0.963,3.804c0.105,0.432,0.662,0.659,1.176,0.526l0.626-0.159
	c0.524-0.128,0.901-0.597,0.796-1.028l-0.963-3.804l0.092-0.023C1269.892,220.321,1273.813,214.856,1272.341,209.036z
	 M1251.363,202.575l-2.3-9.088c5.362-1.368,5.903-1.571,6.806-1.57c4.752-0.082,6.145,6.612,2.224,8.792
	C1257.242,201.17,1256.975,201.144,1251.363,202.575z M1261.436,215.943c-4.836,1.229-2.675,0.666-6.285,1.587l-2.336-9.237
	c5.389-1.374,5.923-1.569,6.795-1.605C1266.151,206.315,1266.893,214.437,1261.436,215.943z"/>
<g>
	<path fill="#FF0083" d="M1686.322,178.708c0.929,0,1.688-0.76,1.688-1.688s-0.76-1.688-1.688-1.688h-4.8v-2.351h4.8
		c0.929,0,1.688-0.76,1.688-1.688c0-0.929-0.76-1.688-1.688-1.688h-4.8v-4.128c0-0.929-0.759-1.689-1.688-1.689h-4.21v-4.872
		c0-0.929-0.759-1.688-1.688-1.688c-0.929,0-1.688,0.759-1.688,1.688v4.888h-2.358v-4.888c0-0.929-0.761-1.688-1.689-1.688
		s-1.688,0.759-1.688,1.688v4.888h-2.335v-4.888c0-0.929-0.759-1.688-1.688-1.688c-0.929,0-1.688,0.759-1.688,1.688v4.888h-3.958
		c-0.931,0-1.689,0.76-1.689,1.688v4.128h-5.041c-0.93,0-1.688,0.759-1.688,1.688s0.759,1.688,1.688,1.688h5.058v2.359h-5.058
		c-0.93,0-1.688,0.759-1.688,1.688s0.759,1.689,1.688,1.689h5.058v2.246h-5.058c-0.93,0-1.688,0.759-1.688,1.688
		c0,0.929,0.759,1.688,1.688,1.688h5.058v4.128c0,0.929,0.759,1.688,1.688,1.688h3.958v4.969c0,0.929,0.76,1.688,1.688,1.688
		s1.688-0.759,1.688-1.688v-4.969h2.358v4.969c0,0.929,0.761,1.688,1.688,1.688c0.93,0,1.689-0.759,1.689-1.688v-4.969h2.326v4.969
		c0,0.929,0.759,1.688,1.688,1.688c0.84,0,1.6-0.759,1.689-1.688v-4.969h4.208c0.929,0,1.688-0.67,1.688-1.688v-4.128h4.799
		c0.929,0,1.688-0.76,1.688-1.688c0-0.929-0.759-1.688-1.688-1.688h-4.799v-2.271H1686.322z M1675.357,184.079h-14.119v-14.12
		h14.119V184.079z M1678.154,186.875"/>
</g>
</svg>
