<?xml version="1.0" encoding="iso-8859-1"?>
<!-- Generator: Adobe Illustrator 16.0.0, SVG Export Plug-In . SVG Version: 6.00 Build 0)  -->
<!DOCTYPE svg PUBLIC "-//W3C//DTD SVG 1.1//EN" "http://www.w3.org/Graphics/SVG/1.1/DTD/svg11.dtd">
<svg xmlns="http://www.w3.org/2000/svg" xmlns:xlink="http://www.w3.org/1999/xlink" version="1.1" id="Capa_1" x="0px" y="0px" width="512px" height="512px" viewBox="0 0 533.333 533.333" style="enable-background:new 0 0 533.333 533.333;" xml:space="preserve">
<g>
	<path d="M444.432,0H88.901C40.005,0,0,39.992,0,88.884v355.55c0,48.894,40.005,88.898,88.901,88.898h355.532   c48.926,0,88.9-40.005,88.9-88.898V88.884C533.333,39.992,493.359,0,444.432,0z M133.333,133.333H400   c4.76,0,9.377,1.021,13.617,2.949l-146.95,171.441l-146.95-171.442C123.956,134.356,128.574,133.333,133.333,133.333z M100,366.667   v-200c0-0.698,0.029-1.392,0.073-2.083l97.742,114.032l-96.666,96.666C100.396,372.502,100,369.611,100,366.667z M400,400H133.333   c-2.945,0-5.834-0.396-8.614-1.149l94.853-94.854l47.095,54.946l47.096-54.944l94.852,94.854C405.833,399.604,402.945,400,400,400z    M433.333,366.667c0,2.944-0.397,5.833-1.148,8.614l-96.668-96.666l97.743-114.032c0.043,0.691,0.073,1.385,0.073,2.083V366.667z" fill="#ff0083"/>
</g>
<g>
</g>
<g>
</g>
<g>
</g>
<g>
</g>
<g>
</g>
<g>
</g>
<g>
</g>
<g>
</g>
<g>
</g>
<g>
</g>
<g>
</g>
<g>
</g>
<g>
</g>
<g>
</g>
<g>
</g>
</svg>
