<svg id="work" xmlns="http://www.w3.org/2000/svg" viewBox="0 0 1422 870"><defs><style>.cls-1,.cls-9{fill:#ff0083;}.cls-11,.cls-13,.cls-2,.cls-20{fill:#fff;}.cls-10,.cls-18,.cls-19,.cls-3,.cls-4,.cls-5,.cls-6,.cls-7{fill:none;}.cls-10,.cls-11,.cls-12,.cls-13,.cls-15,.cls-17,.cls-19,.cls-20,.cls-3,.cls-4,.cls-5,.cls-7,.cls-9{stroke:#4a4a4a;}.cls-16,.cls-17,.cls-19,.cls-3,.cls-5{stroke-miterlimit:10;}.cls-11,.cls-3,.cls-4,.cls-6,.cls-9{stroke-width:3px;}.cls-10,.cls-11,.cls-12,.cls-13,.cls-15,.cls-18,.cls-20,.cls-4,.cls-6,.cls-7,.cls-9{stroke-linecap:round;stroke-linejoin:round;}.cls-6{stroke:#ff339c;}.cls-15,.cls-7{stroke-width:2.5px;}.cls-12,.cls-8{fill:#ebebeb;}.cls-10,.cls-12,.cls-13,.cls-17,.cls-18,.cls-19{stroke-width:4px;}.cls-14,.cls-15,.cls-16,.cls-17{fill:#ebeaea;}.cls-16{stroke:#4a5999;}.cls-18{stroke:#494949;}.cls-20{stroke-width:1.5px;}</style></defs><title>8,2</title><path class="cls-1" d="M397.37,234l-6.45,1.14q-.68-3.74-1.33-7.5l-4.1.72c.44,2.53.88,5,1.32,7.51L380.36,237,379,229.41l-13.64,2.41c-.38-2.16-.75-4.25-1.12-6.38l.56-.1c.84-.17,1.69-.31,2.53-.5a2.13,2.13,0,0,0,1.83-2.68c-.09-.66-.17-1.31-.28-2l-4.14-23.45c-.19-1.06-.4-2.11-.62-3.16a2.16,2.16,0,0,0-2.64-1.92c-.87.1-1.73.27-2.6.4l-.52.07-1.13-6.39,13.63-2.41c-.45-2.56-.89-5-1.33-7.53l6.45-1.14q.67,3.75,1.33,7.51l4.1-.72c-.44-2.54-.88-5-1.32-7.51l6.45-1.14.12.58c.39,2.2.79,4.39,1.15,6.6.08.5.23.72.78.65a9.08,9.08,0,0,1,1.28,0,13.94,13.94,0,0,1,6.68,1.61,10.07,10.07,0,0,1,5.17,6.74,9.93,9.93,0,0,1-.5,6.16,12.38,12.38,0,0,1-5.44,6l-.51.32a1.25,1.25,0,0,0,.56.18,16.55,16.55,0,0,1,5.19,1.15,10.14,10.14,0,0,1,5.54,5.54c2,4.81,1,9.16-2.42,13a16.83,16.83,0,0,1-7.65,4.57c-.45.15-.54.33-.45.77C396.52,229.05,396.94,231.52,397.37,234Zm-18.83-25.71c0,.15,0,.25,0,.35.57,3.24,1.13,6.48,1.72,9.72a20.75,20.75,0,0,0,.49,2.07,1,1,0,0,0,1.1.78c1.57-.2,3.15-.41,4.7-.71a38.7,38.7,0,0,0,4-1A6.6,6.6,0,0,0,394,217.1a6.75,6.75,0,0,0,1.24-5.15,5.7,5.7,0,0,0-4.64-5,13.06,13.06,0,0,0-4.54,0c-2.38.36-4.76.8-7.14,1.21Zm-1.19-6.82a2.61,2.61,0,0,0,.42,0c1.58-.28,3.16-.54,4.73-.84a21,21,0,0,0,5.23-1.48,5.61,5.61,0,0,0,3-2.87c1.31-3.06-.39-7.32-4.56-7.41a18.36,18.36,0,0,0-3.06.17c-2.44.36-4.86.8-7.29,1.21a4.1,4.1,0,0,0-.4.11C376,194,376.69,197.69,377.35,201.44Z"/><path class="cls-2" d="M271.63,168.7A36.52,36.52,0,0,0,312,201l46.89-5.21a26.51,26.51,0,1,0-5.85-52.7,26.23,26.23,0,0,0-12.62,4.88,36.52,36.52,0,0,0-68.74,20.77Z"/><path class="cls-3" d="M271.63,168.7A36.52,36.52,0,0,0,312,201l46.89-5.21a26.51,26.51,0,1,0-5.85-52.7,26.23,26.23,0,0,0-12.62,4.88,36.52,36.52,0,0,0-68.74,20.77Z"/><path class="cls-4" d="M340.91,180.31a36.51,36.51,0,0,1-48.63,17.35"/><path class="cls-4" d="M339.51,183a36.5,36.5,0,0,1-49.88,13.3"/><path class="cls-2" d="M773.35,106a43.44,43.44,0,0,0,43.44,43.44h94.83a23.43,23.43,0,1,0-10-44.62,31.52,31.52,0,0,0-44.25-14.36,43.45,43.45,0,0,0-84,15.54Z"/><path class="cls-1" d="M923.38,97.55a38.53,38.53,0,0,1-.77,7.73,23.44,23.44,0,0,0-21-.49,31.52,31.52,0,0,0-28.71-18.47,31.17,31.17,0,0,0-15.55,4.11,43.26,43.26,0,0,0-7-12,39,39,0,0,1,25.63-19c.65-1.28,3.27-2.36,6.46-2.53s6.09.66,6.77,1.93A39,39,0,0,1,923.38,97.55Z"/><path class="cls-4" d="M923.38,97.56a38.5,38.5,0,0,1-.77,7.72,23.44,23.44,0,0,0-21-.49,31.52,31.52,0,0,0-28.71-18.47,31.17,31.17,0,0,0-15.55,4.11,43.26,43.26,0,0,0-7-12,39,39,0,0,1,25.63-19l0,.09a.36.36,0,0,0,0,.09,1.36,1.36,0,0,0-.08.49c.09,1.57,3.19,2.67,6.92,2.47s6.69-1.64,6.61-3.2a1.45,1.45,0,0,0-.15-.54A39,39,0,0,1,923.38,97.56Z"/><path class="cls-4" d="M889.4,59.39c-.09-1.56-3.18-2.67-6.92-2.46s-6.69,1.63-6.6,3.2,3.18,2.67,6.91,2.47S889.48,61,889.4,59.39Z"/><path class="cls-4" d="M882.8,79.25c-.76-2.65-4.23-4-7.76-3s-5.76,4-5,6.63,4.23,4,7.76,3S883.56,81.9,882.8,79.25Z"/><path class="cls-4" d="M913,92.36c2-.85,2.37-4.18,1-7.44s-4.15-5.22-6.1-4.37-2.37,4.18-.94,7.44S911.06,93.21,913,92.36Z"/><path class="cls-5" d="M889.4,59.39c-.09-1.56-3.18-2.67-6.92-2.46s-6.69,1.63-6.6,3.2,3.18,2.67,6.91,2.47S889.48,61,889.4,59.39Z"/><path class="cls-4" d="M773.35,106a43.44,43.44,0,0,0,43.44,43.44h94.83a23.43,23.43,0,1,0-10-44.62,31.52,31.52,0,0,0-44.25-14.36,43.45,43.45,0,0,0-84,15.54Z"/><path class="cls-4" d="M852,131.38a43.44,43.44,0,0,1-60.64,9.82"/><path class="cls-4" d="M892.66,142.5a31.47,31.47,0,0,1-19.61,6.93"/><path class="cls-1" d="M733.78,332.66l-6.41-1.38c.54-2.49,1.07-5,1.61-7.45l-4.07-.88c-.54,2.51-1.08,5-1.61,7.45L716.9,329c.53-2.49,1.07-5,1.62-7.51L705,318.59c.46-2.14.91-4.21,1.37-6.34l.56.12c.84.17,1.68.36,2.53.5a2.13,2.13,0,0,0,2.71-1.79c.16-.64.33-1.28.47-1.93q2.52-11.62,5-23.27c.22-1.05.43-2.11.62-3.16a2.15,2.15,0,0,0-1.72-2.77c-.84-.24-1.71-.41-2.56-.61l-.5-.14c.46-2.13.9-4.2,1.36-6.34l13.54,2.92c.54-2.54,1.07-5,1.61-7.48l6.4,1.38c-.54,2.48-1.07,5-1.61,7.45l4.08.88,1.6-7.45,6.4,1.38c0,.19-.06.39-.11.58-.46,2.19-.92,4.37-1.42,6.54-.11.5-.05.77.48.9a8.67,8.67,0,0,1,1.2.45,14,14,0,0,1,5.57,4,10,10,0,0,1,2.25,8.19,9.85,9.85,0,0,1-2.79,5.52,12.38,12.38,0,0,1-7.29,3.48l-.59.1a1.27,1.27,0,0,0,.45.38,16.29,16.29,0,0,1,4.37,3,10.09,10.09,0,0,1,3,7.21c0,5.2-2.52,8.87-7.14,11.12a16.84,16.84,0,0,1-8.81,1.35c-.48,0-.62.09-.71.54C734.85,327.78,734.31,330.22,733.78,332.66Zm-7.73-30.92c0,.15-.07.24-.09.34-.69,3.21-1.39,6.43-2.07,9.65-.15.69-.25,1.4-.33,2.1a.94.94,0,0,0,.73,1.14c1.53.4,3.06.81,4.62,1.12a37.11,37.11,0,0,0,4.06.59,6.55,6.55,0,0,0,4.09-.91,6.73,6.73,0,0,0,3.09-4.3,5.69,5.69,0,0,0-2.41-6.4,12.68,12.68,0,0,0-4.2-1.7c-2.34-.57-4.71-1.06-7.07-1.58Zm1.47-6.77.4.13,4.71,1a20.9,20.9,0,0,0,5.4.59,5.62,5.62,0,0,0,3.82-1.53c2.36-2.34,2.4-6.93-1.43-8.59a18.75,18.75,0,0,0-2.9-1c-2.39-.59-4.8-1.09-7.21-1.62a3.8,3.8,0,0,0-.4-.06C729.11,287.59,728.32,291.25,727.52,295Z"/><path class="cls-1" d="M1103.72,237l-6.17-2.21q1.29-3.59,2.57-7.17l-3.92-1.41c-.87,2.42-1.72,4.8-2.57,7.18l-6.17-2.22,2.6-7.23-13-4.67c.74-2.06,1.46-4.05,2.19-6.1l.54.19c.81.28,1.62.58,2.44.83a2.12,2.12,0,0,0,2.92-1.42c.25-.61.5-1.23.73-1.85q4-11.21,8-22.41c.36-1,.7-2,1-3.05a2.17,2.17,0,0,0-1.34-3c-.81-.34-1.64-.62-2.46-.94l-.48-.2c.73-2,1.45-4,2.19-6.1l13,4.66c.87-2.44,1.73-4.82,2.58-7.2l6.16,2.21q-1.27,3.59-2.57,7.18l3.92,1.41c.87-2.42,1.72-4.8,2.58-7.18l6.16,2.21-.18.56c-.76,2.1-1.49,4.21-2.27,6.3-.18.48-.16.75.35.95a10.28,10.28,0,0,1,1.13.61,13.78,13.78,0,0,1,5,4.71,10,10,0,0,1,1.15,8.41,9.9,9.9,0,0,1-3.49,5.11,12.4,12.4,0,0,1-7.68,2.48l-.6,0a1.18,1.18,0,0,0,.39.43,16.38,16.38,0,0,1,3.94,3.58,10.06,10.06,0,0,1,2.06,7.55c-.67,5.15-3.66,8.46-8.53,10.08a16.78,16.78,0,0,1-8.92.18c-.46-.09-.62,0-.77.44C1105.42,232.35,1104.56,234.69,1103.72,237Zm-3.6-31.67c-.06.15-.1.24-.13.33-1.11,3.1-2.23,6.19-3.33,9.29-.23.67-.42,1.36-.6,2a1,1,0,0,0,.57,1.22c1.47.61,2.94,1.2,4.44,1.72a38.62,38.62,0,0,0,4,1.12,6.51,6.51,0,0,0,4.17-.37,6.71,6.71,0,0,0,3.63-3.85,5.72,5.72,0,0,0-1.54-6.67,12.87,12.87,0,0,0-4-2.23c-2.25-.88-4.53-1.67-6.8-2.49C1100.41,205.44,1100.28,205.42,1100.12,205.37Zm2.35-6.51.38.18c1.51.54,3,1.09,4.53,1.62a20.93,20.93,0,0,0,5.28,1.3,5.67,5.67,0,0,0,4-1c2.65-2,3.28-6.56-.29-8.7a18.44,18.44,0,0,0-2.74-1.37c-2.3-.9-4.62-1.72-6.93-2.56a3.26,3.26,0,0,0-.4-.11Z"/><path class="cls-6" d="M504.44,66l3.5,16.7m-10.1-6.6,16.7-3.5"/><path class="cls-6" d="M169.88,251.48l9,14.48m-11.75-2.73,14.48-9"/><path class="cls-6" d="M1226.49,154.8l-7.08,15.52M1215.19,159l15.52,7.09"/><path class="cls-6" d="M815.89,196.43l-2.12,16.93m-7.41-9.53L823.29,206"/><path class="cls-6" d="M424.67,391.33l6.57,15.74m-11.16-4.59,15.75-6.56"/><path class="cls-7" d="M294.14,594.4l-6,23.67a20.7,20.7,0,0,0,4,18.26l6.21,7.66a19.69,19.69,0,0,1,3.76,17.64l-2,7.56a29.51,29.51,0,0,0,0,15.55l3.9,14.11a57.25,57.25,0,0,1-5.36,43L276.57,782.1"/><path class="cls-7" d="M218.72,652.55l3.21,34.64a38.8,38.8,0,0,1-4.43,21.92l-8.92,16.63a38,38,0,0,0-4.51,18v3.11a20.78,20.78,0,0,1-9.54,17.48l-28.85,18.53"/><path class="cls-7" d="M594.21,577.85c.62,3.84.53,9.11,3.11,12.08,8.18,9.39,21.6,5.85,33.66,6,10.16.15,26.77-3.37,32.2,8.13,5.14,10.89-.19,24.47.12,35.56s7.61,24.05,12.56,33.79c6.32,12.44,14.62,13,26.19,16.9,15.83,5.31,32.46,5.42,48.48,10.55,4.65,1.49,10.91,3,14.13,7.42,2.24,3,3.8,12.17,2,16.26-4.22,9.8-23.05,5.55-31,5-9.25-.62-17.17-.53-26.13-2.69-9.79-2.36-22-11.43-29.4-3.62-4.71,4.93,1.07,14.38.81,21.63s-3,15.06-1.19,21.87c2.16,8.27,7.23,16,9.07,24.82,1.75,8.38,1.36,17.61,1.72,26.24"/><path class="cls-7" d="M808.88,702.82c-1-10.25-2.08-22.14-.15-32,1.89-9.6,12.63-23.72,18.17-8,3.75,10.64,2.06,21.33,3.17,32.69.86,8.84,6.45,15.78,4,25.36C833.48,723.34,814.87,762.76,808.88,702.82Z"/><path class="cls-7" d="M450.42,761.88c3.9-4.55,5.44-17.24,12.87-16.9,6.32.28,13.7,10.41,18.87,13.69"/><path class="cls-7" d="M875.34,624.78c.57-5.57,9.49-8.27,13.58-6.81,3.25,1.16,10,9.46,9.16,13.51C895.33,644.66,874.6,631.9,875.34,624.78Z"/><path class="cls-7" d="M917.89,614.64c1.49-5.45,8.69-10.85,14-12C968.07,595.07,907.4,652.82,917.89,614.64Z"/><path class="cls-7" d="M1132,634.63c6.18,18.43,13.47,37.58,24.78,47.52,13.8,12.12,54.21,8.79,70.66,20.15,9.94,6.85,16.92,17.76,25.48,25.7,9.29,8.61,26.18,18.1,28.35,31.48,2.42,14.89-13.2,27.81-15.16,40"/><path class="cls-7" d="M930.07,803.48c-3.75-9.53-10.25-18.31-17.47-25.33-9-8.78-14.13-15.43-1.71-23.17,10-6.26,19.15-10.84,30.36-14.31,10.14-3.14,15.34-9.19,14.83-20.52-.52-11.72-5.54-21.11-1.33-32.63a185.52,185.52,0,0,1,13.32-28c6.11-10.88-1.47-22.89,8.5-30.83,11.78-9.39,24.63-13.55,38.65-18.71,7.32-2.69,25.15-8.54,43.82-13.33"/><path class="cls-7" d="M118.57,759,116,762.43m1208.83-1.79q-14.08-18.17-29.21-35.44m-24.38-26.56c-139-144.42-334.2-234.28-550.43-234.28-242.22,0-458.11,112.76-598,288.65"/><path class="cls-2" d="M180.25,576.22l61,88.54c-.16,5.17,2.37,14.17,5,13.94s11.93-4.82,11.93-4.82L289,659.8c-2.8-5.28-5.86-8.69-16.47-11-8.59-29.6-34.07-110.12-34.07-110.12l3-6.84-22.14-22.45c9.07.85,15.64,1.63,19.71-2.73s16-26.76,16-26.76a39.84,39.84,0,0,0-1.46-9.58c.27-6.05,2.19-23.77-12.2-27.64,1.69-11.13,2.9-22.35,2.9-22.35l-3.85-3.19-14.75-2-2.85,2.12-6.76,36.88,3.07,4.57,14.43,2.38,5.33,6.9-14.07,12.69L190.21,445.4,182,440.69l-8.17-1.42-6.42.36-35.22,17.15s-12.57,9.51-4.75,26.41l15.85,43.38s3.06,10.54,17.43,13.38c2.28,9.64,8.93,35.42,8.93,35.42Z"/><polygon class="cls-8" points="190.88 569.65 251.09 664.53 241.74 665.46 178.32 572.53 190.88 569.65"/><path class="cls-9" d="M239.21,457.09a4.78,4.78,0,0,1-5.44,4l-12.92-2a4.78,4.78,0,0,1-4-5.44l5.25-34.51a4.78,4.78,0,0,1,5.44-4l12.92,2a4.79,4.79,0,0,1,4,5.45Z"/><path class="cls-10" d="M180.25,576.22l61.49,89.24s3.62,1.89,9.35-.93c0,0,20.51-8.65,21.43-15.73-.27-5-34.07-110.12-34.07-110.12"/><path class="cls-11" d="M238.64,466.83c-4-3.93-7.48-7.33-5.38-11.65,2.23-3.31,5.22-1,5.9-3.69s2.74-12.71,9.22-5.18,5.65,15.55,5.23,24"/><line class="cls-4" x1="211.21" y1="576.77" x2="253.9" y2="663.26"/><path class="cls-10" d="M149.91,448.05l11.72-5.78c11.62-5.74,23.42-3.08,32.12,6.51l31.11,31.88,14.95-12.94c8.79-6.15,17.25,5.37,15.26,12.18-.58,2-6.11,12.09-11.29,21.33-5.9,10.53-19,11.71-25.5,7.45"/><path class="cls-10" d="M216.67,506.7l24.8,25.14c-12.77,29.44-54,43.54-71.79,43.53L156.5,528l-29-44.78a20.59,20.59,0,0,1,2.21-24.34"/><path class="cls-4" d="M159.89,541.56l-7.37-4.13a22,22,0,0,1-9.91-11.64L126.14,480.6"/><path class="cls-10" d="M272,651a11.34,11.34,0,0,1,15.18,5.14l1.8,3.65L259.4,674.41l-5.5-11.15"/><path class="cls-10" d="M258.22,673.88s-10.59,7.25-13.45,4.07-5-10.81-3.48-13.19"/><line class="cls-4" x1="215.56" y1="506.55" x2="191.02" y2="487.39"/><path class="cls-12" d="M156.35,450.06c-11.22,17.08-20.64,10.9-21.44,7.4-9,10.22,0,37.21,4.47,44.1L156.5,528l13,47.07c29-2.73,55.53-13.25,71.95-43.2L217.39,508l-19.48-14.33c-14.17,7-48.58-27.06-27.23-53.88"/><path class="cls-13" d="M149.4,453.49l5.13-2.53c11.15-5.5,18.05-14.28,12.55-25.42l-11.31-22.93a22.5,22.5,0,0,0-30.14-10.22l-5.14,2.53a22.51,22.51,0,0,0-10.22,30.14L121.59,448C127.09,459.14,138.26,459,149.4,453.49Z"/><path class="cls-12" d="M136.06,425.3s.9-13.45,6-19.33a9.42,9.42,0,0,1,.69-.72l0,8.66s21.46-9.75,14.18-19.8-15.73-18.25-26.59-13.92S98.47,390,99.78,403.79s12.09,40,26.38,52.28c4.69,4,6.14,3.67,7.3,3.39,1.51-.38,1.66-7.26-.27-19.1,0,0-7.89-4.72-6.76-10.05C128.12,422.27,136.06,425.3,136.06,425.3Z"/><path class="cls-12" d="M100.19,390.2c10.21-1.68,20.11,6.82,13.93,22-2.94,7.23,7,4.78,7.87,17.49,1.11,16.44-2.8,17.61-7.51,21a9.51,9.51,0,0,0-7.73-9.56c-8.16-1.91-2.13-9-6.55-13.26s-15.35-8.9-12.78-24.34A15.77,15.77,0,0,1,100.19,390.2Z"/><path class="cls-7" d="M162.26,427a6.2,6.2,0,0,0,4.82-1.5"/><path class="cls-7" d="M160.85,414.48a3.49,3.49,0,0,0-5.4-1.24,5.32,5.32,0,0,0-1.64,6.4"/><path class="cls-6" d="M396.52,496.9q-12.07,5.13-24,10.64m454.24-69q-7.37-1-14.76-1.8m164.65,35.93c-2.72-.89-5.43-1.77-8.16-2.64m281.52,155.48c-2.15-1.81-4.31-3.62-6.48-5.41m69.36,64.31q-22.25-23.13-46.25-44.49"/><path class="cls-2" d="M545.28,564l-1-8.08a9.66,9.66,0,0,1,6.8-10.48l2.28-.69L523.7,388.82a13.33,13.33,0,0,1-18.09-10.12l-9.52-55.26a19.65,19.65,0,0,1,16.11-22.73l66.65-11.24a20.87,20.87,0,0,1,24.06,17.25l13.83,86.21-1.65,2,1.21,13A9.33,9.33,0,0,1,608.62,418L602.5,419l12.59,115.45,1.36-.06a14,14,0,0,1,14.59,14v2Z"/><polygon class="cls-8" points="577.57 440.98 571.15 443.26 584.21 540.02 592.64 538.72 577.57 440.98"/><polygon class="cls-8" points="543.25 417.83 565.79 542.85 553.32 544.77 529.58 419.76 543.25 417.83"/><path class="cls-14" d="M541.32,366.53l14.7-8.08a6.6,6.6,0,0,1,9.55,3.57l3.36,9.74a6.61,6.61,0,0,1-5.16,8.66L543,384.11"/><path class="cls-7" d="M543.2,365.64,556,358.45a6.6,6.6,0,0,1,9.55,3.57l3.36,9.74a6.61,6.61,0,0,1-5.16,8.66l-18.45,3.1"/><path class="cls-7" d="M561.39,380.89l2.87-.48a6.61,6.61,0,0,0,5.16-8.67L566.06,362a6.6,6.6,0,0,0-9.55-3.57l-7.16,4.13-6.1,3.52"/><path class="cls-1" d="M574.58,338.67l-1.22,39a3.67,3.67,0,0,1-3.79,3.55l-8.67-.28,2.87-.48a6.62,6.62,0,0,0,5.16-8.67L565.58,362a6.6,6.6,0,0,0-9.56-3.56l-7.16,4.13.77-24.71a3.68,3.68,0,0,1,3.79-3.55l17.61.56A3.67,3.67,0,0,1,574.58,338.67Z"/><path class="cls-7" d="M574.58,338.67l-1.22,39a3.67,3.67,0,0,1-3.79,3.55l-8.67-.28,2.87-.48a6.62,6.62,0,0,0,5.16-8.67L565.58,362a6.6,6.6,0,0,0-9.56-3.56l-7.16,4.13.77-24.71a3.68,3.68,0,0,1,3.79-3.55l17.61.56A3.67,3.67,0,0,1,574.58,338.67Z"/><path class="cls-10" d="M503.73,376a16.44,16.44,0,0,0,6.57,10.91c3.57,2.61,13.4,1.94,13.4,1.94l29.62,156c-7.08,1.75-11.58,10.5-8,19.25L631,550.46c0-9.53-7.38-16.25-15.95-15.2L600.2,397.8,615,395.29a2.09,2.09,0,0,0,1.72-2.36l-12.6-84.08a22.76,22.76,0,0,0-26.07-19.13l-62.48,9.82a22.75,22.75,0,0,0-15,8.93,20.4,20.4,0,0,0-4.28,15.91Z"/><path class="cls-7" d="M523.57,342.74l1.64,14.42a8.41,8.41,0,0,0,8.48,7.46l9.38-.13,2.25,20.5-21.75,3.2"/><line class="cls-7" x1="590.45" y1="333.49" x2="599.58" y2="397.8"/><line class="cls-7" x1="529.58" y1="419.76" x2="602" y2="409.57"/><path class="cls-15" d="M603.88,419l-3.68-21.43,15.52-2.67C617.55,405.6,620.2,416.86,603.88,419Z"/><line class="cls-10" x1="553.32" y1="544.77" x2="615.09" y2="535.26"/><line class="cls-7" x1="570.82" y1="440.98" x2="587.54" y2="557.51"/><path class="cls-16" d="M567.26,267.41c-.89-1.57-1.72-8.36-2.34-12.36s-1.81-4.57-3.4-6.76-4.91-4.19-8-3.58-7.54,4.41-8.47,6-2.81,1.61-8.49.66S531.24,249,526,249.76s-7,2.77-9.19,6.9,1.55,22.82,1.55,22.82l1.35,10.43c1.3,10.12,11.37,17.65,21.49,16.35l12.3-1.59c10.12-1.31,16.59-11,15.29-21.1l-1.51-11.64.58-.09S568.15,269,567.26,267.41Z"/><path class="cls-10" d="M566.24,264.42l2.47,19.16c1.31,10.11-5.14,19.36-15.25,20.67l-12.31,1.59C531,307.14,521,300,519.68,289.92l-2.87-22.22"/><path class="cls-17" d="M540.89,224.86l-10.22,1.32c-13.2,1.7-20.73,12.49-19,25.7l.7,5.36c.66,5.15,1.35,10.45,4.93,14l-.93-7.16c-.65-5,.32-9.4,3.57-12.65s9.35-4.12,13.14-1.5a11.22,11.22,0,0,0,7.25,1.58,10.06,10.06,0,0,0,6.44-3.17c2.93-3.54,6.38-4.53,10.69-2.92,4.09,1.53,7.12,5.88,7.86,11.62l1.27,9.83.7.5c2.5-5,2.54-11.56,1.83-17.12l-.7-5.36C566.68,231.67,554.15,223.14,540.89,224.86Z"/><path class="cls-7" d="M531.38,274.9a5.15,5.15,0,1,1,10.22-1.32"/><path class="cls-7" d="M551.3,272.33A5.15,5.15,0,0,1,561.52,271"/><path class="cls-7" d="M559,289c-6.28,2.63-18.1,3.64-22.21-1"/><path class="cls-8" d="M972.16,352.18a19.64,19.64,0,0,0-12.22-8.83l-65.78-15.57A20.84,20.84,0,0,0,869,343.43l-19.42,85.12,1.51,2.12-.17,1.07,14.74,2.53L863.07,445l71.57,16.71,8.08-31.22a13.33,13.33,0,0,0,18.71-8.92l13.1-54.52A19.67,19.67,0,0,0,972.16,352.18Z"/><path class="cls-2" d="M865.69,434.27,851,431.74l-1.88,11.8a9.34,9.34,0,0,0,7,10.53l6,1.47L842,569.92l-1.34-.15a14,14,0,0,0-15.48,13l-.13,2,84.69,19.13,1.56-8a9.66,9.66,0,0,0-6.1-10.91l-2.23-.83,31.65-122.47L863.07,445Z"/><polygon class="cls-8" points="863.58 446.19 872.45 447.63 850.61 571.58 840.68 569.77 863.58 446.19"/><polyline class="cls-8" points="870.99 577.85 877.55 578.99 898.22 485.02 892.03 479.55"/><path class="cls-2" d="M924.73,406.27l-12.3-8.06a6.62,6.62,0,0,0-9.77,2.91l-4,9.5a6.6,6.6,0,0,0,4.55,9L921.39,424"/><path class="cls-7" d="M924.73,406.27l-12.3-8.06a6.62,6.62,0,0,0-9.77,2.91l-4,9.5a6.6,6.6,0,0,0,4.55,9L921.39,424"/><path class="cls-7" d="M905.55,420.24l-2.84-.68a6.6,6.6,0,0,1-4.55-9l4-9.49a6.6,6.6,0,0,1,9.78-2.9l6.86,4.61,5.84,3.93"/><path class="cls-1" d="M895.26,377.21l-1.43,39a3.67,3.67,0,0,0,3.53,3.8l8.67.31-2.83-.67a6.63,6.63,0,0,1-4.56-9l4-9.49a6.69,6.69,0,0,1,4.21-3.76,6.62,6.62,0,0,1,5.57.86l6.87,4.61.91-24.7a3.67,3.67,0,0,0-3.53-3.8l-17.62-.64A3.66,3.66,0,0,0,895.26,377.21Z"/><path class="cls-7" d="M895.26,377.21l-1.43,39a3.67,3.67,0,0,0,3.53,3.8l8.67.31-2.83-.67a6.63,6.63,0,0,1-4.56-9l4-9.49a6.69,6.69,0,0,1,4.21-3.76,6.62,6.62,0,0,1,5.57.86l6.87,4.61.91-24.7a3.67,3.67,0,0,0-3.53-3.8l-17.62-.64A3.66,3.66,0,0,0,895.26,377.21Z"/><path class="cls-10" d="M963.41,419.27a16.48,16.48,0,0,1-7.31,10.44c-3.74,2.35-13.5,1-13.5,1L902.4,584.29c7,2.23,10.84,11.27,6.71,19.75l-84.63-19.38c.65-9.51,8.46-15.7,16.94-14.08l24.25-136.12L851.05,431a2.1,2.1,0,0,1-1.55-2.48l18.31-83a22.8,22.8,0,0,1,27.32-17.31l61.66,14.07a22.77,22.77,0,0,1,14.34,9.93c3.27,5.08,4.46,10.26,3.18,16.17Z"/><path class="cls-7" d="M945.88,384.76,943.26,399a8.41,8.41,0,0,1-9,6.86l-9.35-.77-3.65,20.29,21.48,4.69"/><line class="cls-7" x1="879.79" y1="370.96" x2="866.29" y2="434.5"/><line class="cls-7" x1="934.63" y1="461.19" x2="863.07" y2="446.08"/><path class="cls-7" d="M860.54,455.4l5.15-21.13-15.31-3.72C847.82,441.06,844.42,452.11,860.54,455.4Z"/><line class="cls-10" x1="902.4" y1="584.29" x2="841.42" y2="570.58"/><line class="cls-7" x1="892.03" y1="479.55" x2="867.39" y2="594.66"/><path class="cls-2" d="M952.47,331.67c-2,9.89-12.44,16.62-22.34,14.59l-12-2.48c-9.9-2-15.63-12.09-13.59-22l5.38-26.16A14.47,14.47,0,0,1,927,284.38l19.62,4a14.47,14.47,0,0,1,11.25,17.09Z"/><path class="cls-10" d="M956.24,313.36l-3.77,18.31c-2,9.89-12.44,16.62-22.34,14.59l-12-2.48c-9.9-2-15.63-12.09-13.59-22l4.38-21.31"/><path class="cls-18" d="M952.47,331.67c-2,9.89-12.44,16.62-22.34,14.59l-12-2.48c-9.9-2-15.63-12.09-13.59-22l5.38-26.16A14.47,14.47,0,0,1,927,284.38l19.62,4a14.47,14.47,0,0,1,11.25,17.09Z"/><path class="cls-18" d="M956.24,313.36l-3.77,18.31c-2,9.89-12.44,16.62-22.34,14.59l-12-2.48c-9.9-2-15.63-12.09-13.59-22l4.38-21.31"/><path class="cls-7" d="M913.87,309.63a5.1,5.1,0,0,1,10,2.06"/><path class="cls-7" d="M932.82,313.53a5.1,5.1,0,0,1,10,2.05"/><path class="cls-7" d="M916.77,325.29c8.21,11.6,18.86,3.88,18.86,3.88"/><path class="cls-8" d="M947.15,269.38c-8.23-3-14.29-2.18-22.81.77-6.6,2.29-10.59-5.28-10.59-5.28-6.66,10.86-7.69,34.18-5.49,38.7l1.44-7c1-4.93,5.51-11.76,9.7-10,14.17,6,18.32-4.12,31.52,5.78,3.46,2.59,3.14,9.56,2.94,15.28-.08,2.57,1.44,7.62,1.44,7.62l-.13.55c4-3.87,7.85-17.36,8-24.79C963.29,283.23,959.6,273.91,947.15,269.38Z"/><path class="cls-10" d="M947.15,269.38c-8.23-3-14.29-2.18-22.81.77-6.6,2.29-10.59-5.28-10.59-5.28-6.66,10.86-7.69,34.18-5.49,38.7l1.44-7c1-4.93,5.51-11.76,9.7-10,14.17,6,18.32-4.12,31.52,5.78,3.46,2.59,3.14,9.56,2.94,15.28-.08,2.57,1.44,7.62,1.44,7.62l-.13.55c4-3.87,7.85-17.36,8-24.79C963.29,283.23,959.6,273.91,947.15,269.38Z"/><path class="cls-18" d="M947.15,269.38c-8.23-3-14.29-2.18-22.81.77-6.6,2.29-10.59-5.28-10.59-5.28-6.66,10.86-7.69,34.18-5.49,38.7l1.44-7c1-4.93,5.51-11.76,9.7-10,14.17,6,18.32-4.12,31.52,5.78,3.46,2.59,3.14,9.56,2.94,15.28-.08,2.57,1.44,7.62,1.44,7.62l-.13.55c4-3.87,7.85-17.36,8-24.79C963.29,283.23,959.6,273.91,947.15,269.38Z"/><path class="cls-18" d="M947.15,269.38c-8.23-3-14.29-2.18-22.81.77-6.6,2.29-10.59-5.28-10.59-5.28-6.66,10.86-7.69,34.18-5.49,38.7l1.44-7c1-4.93,5.51-11.76,9.7-10,14.17,6,18.32-4.12,31.52,5.78,3.46,2.59,3.14,9.56,2.94,15.28-.08,2.57,1.44,7.62,1.44,7.62l-.13.55c4-3.87,7.85-17.36,8-24.79C963.29,283.23,959.6,273.91,947.15,269.38Z"/><path class="cls-8" d="M1200.43,490.15a2.28,2.28,0,0,0,.65,3.53l25.81,13.51a2,2,0,0,0,2.93-1.36l4-19.5-20.47-10.71Z"/><path class="cls-19" d="M1200.43,490.15a2.28,2.28,0,0,0,.65,3.53l25.81,13.51a2,2,0,0,0,2.93-1.36l4-19.5-20.47-10.71Z"/><path class="cls-8" d="M1216.78,483.49l8.66,4.54c9.06,4.74,16.27-.84,21-9.9l32.11-61.34a18.51,18.51,0,0,0-7.82-25h0a18.5,18.5,0,0,0-25,7.82L1213.66,461C1208.92,470,1207.72,478.75,1216.78,483.49Z"/><path class="cls-19" d="M1216.78,483.49l8.66,4.54c9.06,4.74,16.27-.84,21-9.9l32.11-61.34a18.51,18.51,0,0,0-7.82-25h0a18.5,18.5,0,0,0-25,7.82L1213.66,461C1208.92,470,1207.72,478.75,1216.78,483.49Z"/><path class="cls-2" d="M1137.57,492.06l-48.3,92.27-4.54-2.37a10.35,10.35,0,0,0-14,4.38l-2.26,4.3,77.4,40.51,7.06-13.48h0l61.55-117.61,1.87-1.56a4.8,4.8,0,0,0,1.21-1.48l14.14-27,3.4-2.25a17.92,17.92,0,0,0,6-6.63l21.28-40.66A24.79,24.79,0,0,0,1251.93,387L1211,365.58a24.8,24.8,0,0,0-33.47,10.47l-42,80.3,3,1.58-8.4,16a12.59,12.59,0,0,0,5.32,17Z"/><polygon class="cls-8" points="1152.46 463.39 1160.42 467.61 1098.22 588.87 1089.38 583.94 1152.46 463.39"/><polyline class="cls-8" points="1118.46 599.74 1124.42 602.74 1172.46 510.44 1168.15 503.03"/><path class="cls-10" d="M1234.15,377.68l17.78,9.31a24.79,24.79,0,0,1,10.47,33.46l-21.28,40.66a17.93,17.93,0,0,1-6,6.63l-3.4,2.25-14.14,27a4.92,4.92,0,0,1-1.2,1.48l-1.88,1.56L1153,617.67l-63.69-33.34,62.53-119.46-16.27-8.52,42-80.3A24.78,24.78,0,0,1,1211,365.58Z"/><path class="cls-7" d="M1137.57,492.06l-2.1-1.1a12.58,12.58,0,0,1-5.31-17l8.39-16,13.25,6.94Z"/><polyline class="cls-7" points="1185.52 393.09 1149.15 462.57 1217.02 498.1"/><line class="cls-7" x1="1171.15" y1="496.91" x2="1117.63" y2="599.18"/><path class="cls-7" d="M1231.69,427.55l-7.84,15a7.28,7.28,0,0,1-9.83,3.07L1203.21,440l-8.85,16.91,26.5,13.87c3.52,1.84,8.52.66,11-1.12"/><path class="cls-7" d="M1201.75,442.75,1192.28,429a5.66,5.66,0,0,0-8.71-.76l-6.2,6.31a5.68,5.68,0,0,0,.8,8.61l17.11,12"/><path class="cls-20" d="M1223.73,363.94c3.86,6.46,8,8.95,15.92,8.33"/><path class="cls-20" d="M1233.69,355.09a5.77,5.77,0,1,0-10.23-5.36"/><path class="cls-20" d="M1250.54,363.91a5.77,5.77,0,0,0-10.23-5.36"/><path class="cls-10" d="M1070.75,586.34l-2.26,4.3,35.8,18.73,2.25-4.3a10.36,10.36,0,0,1,10.28-5.5l.33-.64-32.42-17A10.35,10.35,0,0,0,1070.75,586.34Z"/><path class="cls-10" d="M1153,617.67l-32.42-17a10.36,10.36,0,0,0-14,4.37l-2.25,4.3,41.6,21.78Z"/><path class="cls-7" d="M1179.85,444.38l-2-1.43a5.67,5.67,0,0,1-.8-8.62l6.19-6.31a5.67,5.67,0,0,1,8.72.77l4,5.84,5.45,7.92"/><path class="cls-1" d="M1185.2,406.81l-13.43,30.64a3.14,3.14,0,0,0,1.62,4.14l6.83,3-2-1.44a5.68,5.68,0,0,1-.8-8.61l6.19-6.31a5.66,5.66,0,0,1,8.72.76l4,5.85,8.52-19.43a3.14,3.14,0,0,0-1.62-4.14l-13.85-6.07A3.15,3.15,0,0,0,1185.2,406.81Z"/><path class="cls-7" d="M1185.2,406.81l-13.43,30.64a3.14,3.14,0,0,0,1.62,4.14l6.83,3-2-1.44a5.68,5.68,0,0,1-.8-8.61l6.19-6.31a5.66,5.66,0,0,1,8.72.76l4,5.85,8.52-19.43a3.14,3.14,0,0,0-1.62-4.14l-13.85-6.07A3.15,3.15,0,0,0,1185.2,406.81Z"/><path class="cls-10" d="M1286.12,356.56c9-17.25,3.15-35.79-14.1-44.83l-6.47-3.38c-17.25-9-39.35-5.13-48.38,12.12L1200,353.25h0c-5.34,10.2,5.72,27.3,24.76,37.27s38.85,9,44.19-1.18c.06-.11,0,.1,0,0Z"/><path class="cls-2" d="M1257.21,378.82c-4.25,8.13-15,11.4-23.15,7.15l-9.89-5.17c-8.12-4.26-10.61-14.47-6.36-22.6l11.25-21.48a13.14,13.14,0,0,1,17.73-5.55l16.12,8.44a13.14,13.14,0,0,1,5.55,17.73Z"/><path class="cls-10" d="M1265.08,363.78l-7.87,15c-4.25,8.13-15,11.4-23.15,7.15l-9.89-5.17c-8.12-4.26-10.61-14.47-6.36-22.6l9.16-17.5"/><path class="cls-18" d="M1257.21,378.82c-4.25,8.13-15,11.4-23.15,7.15l-9.89-5.17c-8.12-4.26-10.61-14.47-6.36-22.6l11.25-21.48a13.14,13.14,0,0,1,17.73-5.55l16.12,8.44a13.14,13.14,0,0,1,5.55,17.73Z"/><path class="cls-18" d="M1265.08,363.78l-7.87,15c-4.25,8.13-15,11.4-23.15,7.15l-9.89-5.17c-8.12-4.26-10.61-14.47-6.36-22.6l9.16-17.5"/><path class="cls-7" d="M1229,349.93a4.63,4.63,0,1,1,8.2,4.29"/><path class="cls-7" d="M1244.59,358.07a4.63,4.63,0,0,1,8.21,4.3"/><path class="cls-7" d="M1227.64,364.32c4.27,12.19,15.5,8.11,15.5,8.11"/><path class="cls-8" d="M1268.16,323.12c-6.44-4.67-11.93-5.47-20.11-5-6.33.34-7.92-7.27-7.92-7.27-8.53,7.82-15.27,27.91-14.48,32.41l3-5.76c2.12-4.05,7.75-8.89,11-6.28,10.87,8.82,17,1,26.07,12.93,2.38,3.14.35,9.13-1.25,14.08-.72,2.22-.65,7-.65,7l-.26.45c4.42-2.39,11.2-13.19,13.18-19.64C1278.78,339.26,1277.89,330.19,1268.16,323.12Z"/><path class="cls-10" d="M1268.16,323.12c-6.44-4.67-11.93-5.47-20.11-5-6.33.34-7.92-7.27-7.92-7.27-8.53,7.82-15.27,27.91-14.48,32.41l3-5.76c2.12-4.05,7.75-8.89,11-6.28,10.87,8.82,17,1,26.07,12.93,2.38,3.14.35,9.13-1.25,14.08-.72,2.22-.65,7-.65,7l-.26.45c4.42-2.39,11.2-13.19,13.18-19.64C1278.78,339.26,1277.89,330.19,1268.16,323.12Z"/><path class="cls-18" d="M1268.16,323.12c-6.44-4.67-11.93-5.47-20.11-5-6.33.34-7.92-7.27-7.92-7.27-8.53,7.82-15.27,27.91-14.48,32.41l3-5.76c2.12-4.05,7.75-8.89,11-6.28,10.87,8.82,17,1,26.07,12.93,2.38,3.14.35,9.13-1.25,14.08-.72,2.22-.65,7-.65,7l-.26.45c4.42-2.39,11.2-13.19,13.18-19.64C1278.78,339.26,1277.89,330.19,1268.16,323.12Z"/><path class="cls-18" d="M1268.16,323.12c-6.44-4.67-11.93-5.47-20.11-5-6.33.34-7.92-7.27-7.92-7.27-8.53,7.82-15.27,27.91-14.48,32.41l3-5.76c2.12-4.05,7.75-8.89,11-6.28,10.87,8.82,17,1,26.07,12.93,2.38,3.14.35,9.13-1.25,14.08-.72,2.22-.65,7-.65,7l-.26.45c4.42-2.39,11.2-13.19,13.18-19.64C1278.78,339.26,1277.89,330.19,1268.16,323.12Z"/><path class="cls-6" d="M475.06,460.49a820.93,820.93,0,0,0-151.29,64.84"/></svg>