<svg id="work" xmlns="http://www.w3.org/2000/svg" viewBox="0 0 1422 870"><defs><style>.cls-1,.cls-12,.cls-13,.cls-17,.cls-7{fill:#ebebeb;}.cls-10,.cls-14,.cls-16,.cls-2,.cls-3,.cls-4{fill:#fff;}.cls-3{opacity:0.8;}.cls-10,.cls-11,.cls-12,.cls-13,.cls-14,.cls-15,.cls-16,.cls-17,.cls-18,.cls-4,.cls-5,.cls-6,.cls-7,.cls-8,.cls-9{stroke:#4a4a4a;}.cls-12,.cls-15,.cls-16,.cls-20,.cls-4,.cls-5,.cls-6,.cls-7,.cls-8{stroke-linecap:round;}.cls-11,.cls-12,.cls-16,.cls-20,.cls-4,.cls-5,.cls-6,.cls-7,.cls-8{stroke-linejoin:round;}.cls-13,.cls-14,.cls-4,.cls-5,.cls-8,.cls-9{stroke-width:2.5px;}.cls-11,.cls-15,.cls-18,.cls-20,.cls-5,.cls-6{fill:none;}.cls-10,.cls-12,.cls-18,.cls-6{stroke-width:4px;}.cls-11,.cls-15,.cls-16,.cls-17,.cls-7{stroke-width:3px;}.cls-21,.cls-8,.cls-9{fill:#ff0083;}.cls-10,.cls-13,.cls-14,.cls-15,.cls-17,.cls-18,.cls-9{stroke-miterlimit:10;}.cls-11{stroke-linecap:square;}.cls-19{fill:#4a4a4a;}.cls-20{stroke:#ff0083;stroke-width:7px;}</style></defs><title>17,2</title><path class="cls-1" d="M1190,552.14c0-50.11-84.88-95.88-212.72-119.48-22.81-4.21-46.09-9.52-71.48-12-45.63-4.52-95.89-4.48-146.8-4.48-238,0-431,60.89-431,136s193,136,431,136S1190,627.25,1190,552.14Z"/><path class="cls-2" d="M1148.25,459.14l-.5-92.75s0-47.15-50.75-72.25c-23.25-11.5-97.75-5.75-112.5-2.25s-37,30.75-39.75,48.25-.75,69.5-3.25,76.5a50.13,50.13,0,0,1-7.75,13.25l-.5,1.75L912,423.14h0c3,18.25,2.75,40,1.25,50.75s-.75,18.5-1.25,19.25c14.75,7,41,14.25,41,14.25l29.75-24-18-44.5s1.75-3.75,2.5-3.5S980,436.64,980,436.64s1.75-8,1.5-7,78,20,105,31.5c0,2-53,26-53,26s15,17.25,12.5,29c19.75-2.5,95.25-11,95.25-11Z"/><path class="cls-2" d="M762,671.14c-14,7.5-35.75,17.5-51.75-5.25s-18-28-16.5-36.75,4.75-17.5,19.75-11.5,19.25,11,20.5,9.25c21.75-45.5,32-66.25,40.5-75.25s14.75-14,24.5-16.25c29.75,24.75,27.5,25,54.25,23.75s47-2,52-31c15.75.25,33.08,18.32,36.25,59.5,1.25,19.25,1.75,53.25,1.75,53.25,12.25,21.25-22.75,89.25-62.75,114s-79.5,47-96.25,31.25-20.75-26-21.75-47S762,671.14,762,671.14Z"/><path class="cls-2" d="M375.5,510.89c25,9,34.5,26.75,46,67.5s16,58,16,58l23-22c15-1.5,25.75.75,28,29.25-6.25,11.5-20.75,38.25-29.5,48-10,9.5-34.25,17.5-51.5-4.25-4.75-7-9-14-9-14v40.75s-1.75,31-43,35.5c.5-31.75,6.75-82.75-13-119S278,546.14,224,562.89c-.5-42.25,2-53.5,7.25-59.75,12.25-14.5,34.75-24.5,59.5.75,20.75-10.5,40.5-13.5,58.25,17.75A66.06,66.06,0,0,0,375.5,510.89Z"/><path class="cls-2" d="M563.75,460.89s-56.5-47.25-56.5-70,0-80.5,3-92.5S521,259.14,543,253.64c.5-22.75-5.25-69,.5-93.75s19.75-69.25,37.25-77.75,62.59-.18,90,37.75c24.75,34.25,21,83.25,14.25,102.25a201.88,201.88,0,0,1-6.75,20.25c32.5,13.75,42.16,28.5,43.75,81.25,1,33.25,5.75,45.75,3.75,63.75,11.5-4.25,58.5-20.75,58.5-20.75l-15.75,66-97,34.75L637,439.14l-16.5-13.75c-4.75-2-24.5.75-40,3l7.75,14.75s-15,1-19.75,9-2,10.75-2,10.75Z"/><polygon class="cls-3" points="687.83 618.81 660.83 580.48 765.83 563.14 733.17 628.14 692.67 630.31 690.17 627.81 687.83 618.81"/><polygon class="cls-1" points="681.83 588.31 702.33 615.81 734.17 627.14 759.67 574.98 681.83 588.31"/><path class="cls-4" d="M692.69,634.8c-6-14.33-11.67-35,4-46.33,5.06-3.08,16.81,5.92,14.56,27.17"/><path class="cls-5" d="M985,431.53c30.13,6.21,60,14.87,97,26.94"/><path class="cls-5" d="M912,421.13c9.79.86,19.12,1.84,28.16,3"/><polyline class="cls-4" points="900.54 491.21 942.35 457.13 1045.02 491.13 994.35 534.8 905.98 501.44"/><path class="cls-4" d="M994.54,535l-103.08-37.9-9.79-72.9,96.67,35.54a11.33,11.33,0,0,1,7.33,9.13Z"/><path class="cls-5" d="M643.35,419.1s20.66-1,36-1.54"/><path class="cls-5" d="M788.33,415.81c-10.61-.25-18.31-.37-29.11-.37q-19.83,0-39.22.55"/><path class="cls-6" d="M679.35,242.47l.52.2c18.88,7.23,37.06,23.51,39,43.64l6.64,68.63a125.57,125.57,0,0,1-8.68,59.93L705.68,442.8c2.68-7.94-6.89-15.23-15.61-16.36"/><path class="cls-5" d="M655.6,575.3V517.64c0-8,8.7-14.33,15-15.19l93-12.14a9.13,9.13,0,0,1,10.31,9l.09,42.28"/><polyline class="cls-5" points="685.26 615.66 660.23 580.55 760.89 563.67"/><path class="cls-4" d="M762.66,563.63,659.35,579.8V519.55a12.72,12.72,0,0,1,11-12.6l96-13.07a9.12,9.12,0,0,1,10.36,9l.09,42.22"/><path class="cls-4" d="M419.54,575.21l41.81-34.08,102.67,34L518.46,614.4a11.36,11.36,0,0,1-11.42,2l-82.06-31"/><path class="cls-4" d="M672.48,407.6l-44.31,14.67a4.56,4.56,0,0,0-1.54,7.78l44.58,38.42,88.37-33.36"/><path class="cls-4" d="M465.42,474.22a3.51,3.51,0,0,1,4.5-3.15l94.33,28.36a8.63,8.63,0,0,1,6.1,9.07L564,575.13l-102.67-34Z"/><path class="cls-1" d="M672.33,457.81l-34.66-29.67,32.08-11c-4,10-6.42,20,5.25,28.34C674.33,448.48,672.33,457.81,672.33,457.81Z"/><polygon class="cls-1" points="502.35 564.23 488.15 558.97 478.11 566.94 492.31 572.21 502.35 564.23"/><polygon class="cls-1" points="468.62 591.04 477.65 583.87 463.45 578.6 454.42 585.78 468.62 591.04"/><polygon class="cls-1" points="466.26 576.36 480.46 581.63 489.5 574.45 475.3 569.18 466.26 576.36"/><polygon class="cls-1" points="521.39 583 534.46 587.85 544.49 579.87 531.42 575.02 521.39 583"/><polygon class="cls-1" points="511.14 582.48 496.94 577.21 487.9 584.39 502.1 589.66 511.14 582.48"/><polygon class="cls-1" points="444.17 568.17 458.82 573.6 467.86 566.42 453.21 560.98 444.17 568.17"/><polygon class="cls-1" points="531.64 590.08 518.57 585.24 509.54 592.42 522.61 597.27 531.64 590.08"/><polygon class="cls-1" points="506.73 594.65 497.69 601.83 510.77 606.68 519.8 599.5 506.73 594.65"/><polygon class="cls-1" points="456.01 575.84 441.36 570.4 432.33 577.58 446.98 583.02 456.01 575.84"/><polygon class="cls-1" points="509.78 566.99 499.75 574.97 513.95 580.24 523.98 572.26 509.78 566.99"/><polygon class="cls-1" points="470.67 564.18 480.71 556.21 466.06 550.77 456.02 558.75 470.67 564.18"/><polygon class="cls-1" points="499.29 591.89 485.09 586.62 476.06 593.8 490.26 599.07 499.29 591.89"/><path class="cls-1" d="M663.45,141.7c14.73,2.93,22.23,6.18,26.48,26.68,4,25.25-4.5,59-12.75,74.25-1.25,1.75-42.75,38.25-42.75,38.25l-69.25-27.25.25-24.75c7.5,8.75,28,31.75,63.75,21.5,19.5-6,30.43-15.17,34.84-56.71,1.91-2.29,4.16-13.54,3.91-34.79a24.47,24.47,0,0,0-3.47-11.18Z"/><path class="cls-4" d="M670,468.47l13.21-60a11.61,11.61,0,0,1,7.4-8.42l87.49-31.61a3.28,3.28,0,0,1,4.31,3.78l-13.31,60.41-93.73,33.86"/><path class="cls-7" d="M1171.17,500.62a24.34,24.34,0,0,1-1.56,9.13,107.06,107.06,0,0,0-23.34-20.55,31.25,31.25,0,0,0,2.27-11.73V372a84,84,0,0,0-70.73-83,101.19,101.19,0,0,1,23.79-2.86c61.65-.15,67.85,68.59,68.45,94.86Z"/><polygon class="cls-8" points="1159.41 270.26 1128.34 319.95 1136.68 327.13 1162.32 272.02 1159.41 270.26"/><path class="cls-9" d="M1156,261.64a10,10,0,1,0,11-8.87A10,10,0,0,0,1156,261.64Z"/><polygon class="cls-8" points="948.07 246.25 969.35 302.47 958.88 310.04 944.86 247.36 948.07 246.25"/><path class="cls-9" d="M953.21,238.55a10,10,0,1,1-8.87-11A10,10,0,0,1,953.21,238.55Z"/><path class="cls-6" d="M1148.54,467.8V372a84,84,0,0,0-84-84h-55.91a65.36,65.36,0,0,0-65.37,65.37v19.8s2.42,49-8.08,55"/><path class="cls-10" d="M992.32,234.53V282c0,22,16.69,41,38.73,41h26.81c22,0,41.33-19,41.33-41v-40.8l-6.36-58.31-44.54-10.32-49,6.88-12,10.33,5,44.74"/><path class="cls-11" d="M1046.76,349.12h0c-44.18,0-80-22.17-80-48.17V185.89c0-37.06,31.15-67.09,69.58-67.09h20.82c38.43,0,69.58,30,69.58,67.09V311.66C1126.75,323.89,1090.94,349.12,1046.76,349.12Z"/><path class="cls-12" d="M1060.43,151.22c-18.92-2.79-31.51,1.63-48.42,11.68-13.1,7.79-25-6.64-25-6.64-9.46,26.16-1.4,76.44,5.27,85.13V200.11c4.93-18,12.58,3.06,26.72,2.29,19.71-1.06,22.41-7.75,34.41-2.29,21,9.55,12.61,37.83,25,39.8,23.32,3.73,20.79,24.42,20.79,24.42h0c6.75-10,8-57.95,5-73.9C1101,173.73,1089,155.42,1060.43,151.22Z"/><path class="cls-5" d="M999.49,245.77c.27-4.94,3.83-8.76,7.94-8.53s7.21,4.42,6.93,9.36"/><path class="cls-5" d="M1033.68,247.89c.28-4.93,3.87-8.75,8-8.52s7.3,4.43,7,9.37"/><path class="cls-13" d="M1073.26,448.16l-33.71-5a2.64,2.64,0,0,1-2.25-2.61v-62a2.63,2.63,0,0,1,3-2.61l33.71,5a2.63,2.63,0,0,1,2.25,2.61v62A2.64,2.64,0,0,1,1073.26,448.16Z"/><path class="cls-14" d="M1059.54,422.55l-14.37-2.15a1.13,1.13,0,0,1-1-1.11V392.83a1.13,1.13,0,0,1,1.29-1.12l14.38,2.15a1.14,1.14,0,0,1,1,1.12v26.46A1.14,1.14,0,0,1,1059.54,422.55Z"/><line class="cls-15" x1="982.25" y1="383.14" x2="982.25" y2="414.13"/><path class="cls-6" d="M1049,281.15c-1,1.53-7.7,11-19.9,12.53s-20.49-5.95-21.81-7.19"/><path class="cls-4" d="M1029.46,490.32c7.93-1.06,14.75-1.89,14.75-1.89l8.09,23.05s-15.19,5.67-20.45,6.87c-13.63,3.1-25.34-1.16-27.36-5.64l-2.7-6c-2.42-5.37.48-12,6.26-13.15,4.47-.91,13.49-2.19,21.41-3.25"/><path class="cls-16" d="M1087.76,410.67v36.46a23,23,0,0,1-13.18,20.79l-42.73,20.23s3.77,2,10.7,12.24c6.31,9.36,2.87,16.24,2.87,16.24l76.82-8.15a31.43,31.43,0,0,0,26.3-31V410.67"/><path class="cls-17" d="M1134.84,478.47a15.32,15.32,0,0,1-12.9,16.72l-7.7,1.19a13,13,0,0,0-11,12c0,3.18,3,4.91,6.18,4.59,0,0,18.68-2.59,24.93-4.32,13-3.61,15.42-11.43,16-19.07.53-6.94,1.6-27.77,1.6-27.77a3.59,3.59,0,0,0-4.5-3.47l-2.76.9a14.92,14.92,0,0,0-10.24,15.74Z"/><path class="cls-2" d="M322.49,523H335.1c27.39,0,49.59-10.61,49.59-38V428.68a49.59,49.59,0,0,0-49.59-49.6H322.49a49.6,49.6,0,0,0-49.6,49.6V485C272.89,512.41,295.1,523,322.49,523Z"/><path class="cls-6" d="M322.49,523H335.1c27.39,0,49.59-10.61,49.59-38V428.68a49.59,49.59,0,0,0-49.59-49.6H322.49a49.6,49.6,0,0,0-49.6,49.6V485C272.89,512.41,295.1,523,322.49,523Z"/><path class="cls-1" d="M348,438.35l8.38-17.15a21.94,21.94,0,0,0-2.09.76c-15.81,6.63-30.72,32.33-30.72,32.33s-12.72-13.73-23.91.5c-7.44,9.44,3.57,26.46,3.57,26.46l-12.1,32.21s-2.55,26.14-17.12-8a121.36,121.36,0,0,1-7.15-24.09c-3.36,1-6.82,1.33-10.62,1.95,0,0,8.3-14.72-5.95-26.45s4.57-19.88,0-32.6-21.67-32.55-1.54-60.57C264.12,342.38,287,350,287,350a32.92,32.92,0,0,1,13.17,7.57c18.26-3,41,.88,56.27,2.11,25.67,2,34.39,26.45,39,53.43S348,438.35,348,438.35Z"/><path class="cls-6" d="M348,438.35l8.38-17.15a21.94,21.94,0,0,0-2.09.76c-15.81,6.63-30.72,32.33-30.72,32.33s-12.72-13.73-23.91.5c-7.44,9.44,3.57,26.46,3.57,26.46l-12.1,32.21s-2.55,26.14-17.12-8a121.36,121.36,0,0,1-7.15-24.09c7.78-2.39,15-8.74,24.66-32.15,10.69-26-11.34-30.83,1.51-42.25,20.71-18.34,18.89-38.19,7.08-49.43,18.26-3,41,.88,56.27,2.11,25.67,2,34.39,26.45,39,53.43S348,438.35,348,438.35Z"/><path class="cls-6" d="M287,349.94c21.82,6.64,33.08,33.09,6.11,57-12.87,11.41,9.16,16.29-1.53,42.24-13.82,33.57-22.69,32.07-35.27,34.11,0,0,8.3-14.73-6-26.45s4.59-19.87,0-32.59-21.67-32.55-1.52-60.58C264.12,342.38,287,349.94,287,349.94Z"/><path class="cls-6" d="M230.65,413.65c0-48.93,30.64-83.35,73.86-83.35H320.7a82.69,82.69,0,0,1,82.67,83.35v93h0c0,28.92-39.33,39.79-87,39.79s-85.69-10.87-85.69-39.79h0Z"/><path class="cls-1" d="M292.15,728a4.37,4.37,0,0,1-4.24,5.42H232a3.85,3.85,0,0,1-3.76-4.91l10.57-36.66h44.29Z"/><path class="cls-1" d="M270.3,691.86H251.54c-19.59,0-26.89-15.89-26.89-35.49V523.6a35.48,35.48,0,0,1,35.49-35.48h0a35.48,35.48,0,0,1,35.48,35.48V656.37C295.62,676,289.89,691.86,270.3,691.86Z"/><path class="cls-18" d="M292.15,728a4.37,4.37,0,0,1-4.24,5.42H232a3.85,3.85,0,0,1-3.76-4.91l10.57-36.66h44.29Z"/><path class="cls-18" d="M270.3,691.86H251.54c-19.59,0-26.89-15.89-26.89-35.49V523.6a35.48,35.48,0,0,1,35.49-35.48h0a35.48,35.48,0,0,1,35.48,35.48V656.37C295.62,676,289.89,691.86,270.3,691.86Z"/><path class="cls-1" d="M345.67,736a4.37,4.37,0,0,1-4.24,5.42H285.57a3.85,3.85,0,0,1-3.77-4.91l10.57-36.66h44.3Z"/><path class="cls-1" d="M323.82,699.86H305.06c-19.59,0-26.88-15.89-26.88-35.49V531.6a35.47,35.47,0,0,1,35.48-35.48h0a35.48,35.48,0,0,1,35.48,35.48V664.37C349.14,684,343.41,699.86,323.82,699.86Z"/><path class="cls-18" d="M345.67,736a4.37,4.37,0,0,1-4.24,5.42H285.57a3.85,3.85,0,0,1-3.77-4.91l10.57-36.66h44.3Z"/><path class="cls-18" d="M323.82,699.86H305.06c-19.59,0-26.88-15.89-26.88-35.49V531.6a35.47,35.47,0,0,1,35.48-35.48h0a35.48,35.48,0,0,1,35.48,35.48V664.37C349.14,684,343.41,699.86,323.82,699.86Z"/><path class="cls-12" d="M251.89,773.22c-33.85-8-65.77-19.53-65.77-54.26V662.48c0-29.84,4.78-106.24,58.73-103.3C314.59,563,356,637.15,356,681.53v60.79C356,796.93,288.64,781.89,251.89,773.22Z"/><path class="cls-12" d="M895.35,819.16c34.74-7.46,69.51-18.73,68.73-53.12l-1.2-52.82c-.64-28.18-7.1-96.49-70.62-91.05-61.55,5.27-102.48,58.45-101.53,100.36l1.56,68.77C793.19,830.69,845.17,830,895.35,819.16Z"/><path class="cls-6" d="M564.59,462.56c-41.28-40.1-57.9-51-57.6-84l.69-63.46c0-28.53,16.5-56,35-60.66"/><path class="cls-5" d="M561.09,378.44A51.63,51.63,0,0,0,568.65,408l21.57,38.27c-9.77-7.54-29.58,6.41-22.56,19.3-1-1-2.06-2-3.07-3"/><path class="cls-5" d="M682.35,348.13v33.5l-13,36.17S661,437.14,675,444.47l7-30.33"/><path class="cls-6" d="M563.61,226.44c.09,11.89.78,21.83,1.07,28l70,27.34,43.5-39.17c10.27-22.59,17.79-68.21,7.25-91.25"/><path class="cls-6" d="M547,266.47c-8-34-16-121.4,22.66-174.34,16-22.26,62.14-17.56,97.45,22.76,14.22,16.24,18.22,36.91,18.22,36.91"/><line class="cls-6" x1="604.02" y1="317.63" x2="604.02" y2="270.87"/><line class="cls-6" x1="652.35" y1="298.13" x2="652.35" y2="266.47"/><path class="cls-4" d="M610.56,454.2a8.12,8.12,0,0,1,4.18,11.41l-9.38,17.33a7.76,7.76,0,0,1-11.5,2.48l-26.2-19.88-.57-1.21c-4.59-11,9.43-22.27,19.32-19.89l3.82,1.8Z"/><path class="cls-5" d="M664.63,149.23a46,46,0,0,0-1.18-7.53"/><path class="cls-5" d="M563.6,224.53h0c0,.92,0,1.82,0,2.71,11.57,15.38,34.43,29.45,55.07,25.88,26-4.5,41-13.5,45.55-60.53"/><path class="cls-8" d="M667.68,173.1c-.59,8.43.3,16.45-2.84,19.75-.26.27-.53.55-.82.82-4.28,4.14-11.53,8.59-23.74,12.62-28.65,9.46-54.85-2.37-68.82-11.7a86.65,86.65,0,0,1,20.72-28.3,62.89,62.89,0,0,0,9.79,3c20.38,4.4,65.43-1.74,62.49-21.54l0,0C669.69,150.91,668.42,162.34,667.68,173.1Z"/><path class="cls-19" d="M658.72,207.77a1.28,1.28,0,1,0-1.47-1.05A1.28,1.28,0,0,0,658.72,207.77Z"/><path class="cls-19" d="M659.79,214.06a1.27,1.27,0,0,0,1-1.47,1.27,1.27,0,1,0-2.51.43A1.27,1.27,0,0,0,659.79,214.06Z"/><path class="cls-19" d="M658.72,207.77a1.28,1.28,0,1,0-1.47-1.05A1.28,1.28,0,0,0,658.72,207.77Z"/><path class="cls-19" d="M652.43,208.83a1.28,1.28,0,1,0-1.47-1.05A1.28,1.28,0,0,0,652.43,208.83Z"/><path class="cls-19" d="M656.11,211.45a1.28,1.28,0,0,0,1-1.48,1.27,1.27,0,0,0-1.47-1,1.28,1.28,0,1,0,.43,2.52Z"/><path class="cls-19" d="M654.55,221.42A1.27,1.27,0,0,0,655.6,220a1.28,1.28,0,1,0-1.05,1.47Z"/><path class="cls-19" d="M658.72,207.77a1.28,1.28,0,1,0-1.47-1.05A1.28,1.28,0,0,0,658.72,207.77Z"/><path class="cls-19" d="M652.43,208.83a1.28,1.28,0,1,0-1.47-1.05A1.28,1.28,0,0,0,652.43,208.83Z"/><path class="cls-19" d="M646.13,209.89a1.27,1.27,0,0,0,1-1.47,1.28,1.28,0,1,0-2.52.43A1.28,1.28,0,0,0,646.13,209.89Z"/><path class="cls-19" d="M655,205.15a1.28,1.28,0,1,0-1.47-1.05A1.28,1.28,0,0,0,655,205.15Z"/><path class="cls-19" d="M654.55,221.42a1.28,1.28,0,1,0-1.47-1A1.27,1.27,0,0,0,654.55,221.42Z"/><path class="cls-19" d="M648.26,222.49a1.28,1.28,0,0,0,1-1.48,1.27,1.27,0,0,0-2.51.43A1.28,1.28,0,0,0,648.26,222.49Z"/><path class="cls-19" d="M659.79,214.06a1.27,1.27,0,0,0,1-1.47,1.27,1.27,0,1,0-2.51.43A1.27,1.27,0,0,0,659.79,214.06Z"/><path class="cls-19" d="M653.49,215.13a1.28,1.28,0,1,0-1.47-1A1.28,1.28,0,0,0,653.49,215.13Z"/><path class="cls-19" d="M647.2,216.19a1.28,1.28,0,1,0-1.48-1.05A1.28,1.28,0,0,0,647.2,216.19Z"/><path class="cls-19" d="M658.72,207.77a1.28,1.28,0,1,0-1.47-1.05A1.28,1.28,0,0,0,658.72,207.77Z"/><path class="cls-19" d="M652.43,208.83a1.28,1.28,0,1,0-1.47-1.05A1.28,1.28,0,0,0,652.43,208.83Z"/><path class="cls-19" d="M646.13,209.89a1.27,1.27,0,0,0,1-1.47,1.28,1.28,0,1,0-2.52.43A1.28,1.28,0,0,0,646.13,209.89Z"/><path class="cls-19" d="M639.84,211a1.28,1.28,0,0,0,1-1.48,1.28,1.28,0,0,0-2.52.43A1.3,1.3,0,0,0,639.84,211Z"/><path class="cls-19" d="M650.88,218.81a1.28,1.28,0,1,0-1.48-1.05A1.3,1.3,0,0,0,650.88,218.81Z"/><path class="cls-19" d="M657.17,217.74a1.27,1.27,0,0,0,1.05-1.47,1.28,1.28,0,1,0-2.52.43A1.27,1.27,0,0,0,657.17,217.74Z"/><path class="cls-19" d="M649.81,212.51a1.28,1.28,0,1,0-1.47-1A1.28,1.28,0,0,0,649.81,212.51Z"/><path class="cls-19" d="M656.11,211.45a1.28,1.28,0,0,0,1-1.48,1.27,1.27,0,0,0-1.47-1,1.28,1.28,0,1,0,.43,2.52Z"/><path class="cls-19" d="M643.52,213.57a1.28,1.28,0,0,0-.43-2.52,1.3,1.3,0,0,0-1.05,1.48A1.28,1.28,0,0,0,643.52,213.57Z"/><path class="cls-19" d="M650.38,235.08a1.28,1.28,0,1,0-1.47-1.05A1.28,1.28,0,0,0,650.38,235.08Z"/><path class="cls-19" d="M655.62,227.72a1.28,1.28,0,1,0-1.47-1.05A1.28,1.28,0,0,0,655.62,227.72Z"/><path class="cls-19" d="M649.32,228.78a1.28,1.28,0,1,0-1.47-1A1.27,1.27,0,0,0,649.32,228.78Z"/><path class="cls-19" d="M654.55,221.42A1.27,1.27,0,0,0,655.6,220a1.28,1.28,0,1,0-1.05,1.47Z"/><path class="cls-19" d="M648.26,222.49a1.28,1.28,0,0,0,1-1.48,1.27,1.27,0,0,0-2.51.43A1.28,1.28,0,0,0,648.26,222.49Z"/><path class="cls-19" d="M642,223.55a1.28,1.28,0,1,0-1.47-1.05A1.28,1.28,0,0,0,642,223.55Z"/><path class="cls-19" d="M653,231.4a1.28,1.28,0,1,0-1.47-1.05A1.28,1.28,0,0,0,653,231.4Z"/><path class="cls-19" d="M651.94,225.1a1.28,1.28,0,1,0-1.47-1A1.27,1.27,0,0,0,651.94,225.1Z"/><path class="cls-19" d="M645.64,226.16a1.27,1.27,0,1,0-1.47-1A1.27,1.27,0,0,0,645.64,226.16Z"/><path class="cls-19" d="M650.38,235.08a1.28,1.28,0,1,0-1.47-1.05A1.28,1.28,0,0,0,650.38,235.08Z"/><path class="cls-19" d="M644.09,236.14a1.28,1.28,0,1,0-1.47-1A1.28,1.28,0,0,0,644.09,236.14Z"/><path class="cls-19" d="M646.13,209.89a1.27,1.27,0,0,0,1-1.47,1.28,1.28,0,1,0-2.52.43A1.28,1.28,0,0,0,646.13,209.89Z"/><path class="cls-19" d="M639.84,211a1.28,1.28,0,0,0,1-1.48,1.28,1.28,0,0,0-2.52.43A1.3,1.3,0,0,0,639.84,211Z"/><path class="cls-19" d="M648.26,222.49a1.28,1.28,0,0,0,1-1.48,1.27,1.27,0,0,0-2.51.43A1.28,1.28,0,0,0,648.26,222.49Z"/><path class="cls-19" d="M642,223.55a1.28,1.28,0,1,0-1.47-1.05A1.28,1.28,0,0,0,642,223.55Z"/><path class="cls-19" d="M635.67,224.61a1.28,1.28,0,1,0-1.48-1.05A1.28,1.28,0,0,0,635.67,224.61Z"/><path class="cls-19" d="M647.2,216.19a1.28,1.28,0,1,0-1.48-1.05A1.28,1.28,0,0,0,647.2,216.19Z"/><path class="cls-19" d="M640.9,217.25a1.28,1.28,0,1,0-1.47-1A1.27,1.27,0,0,0,640.9,217.25Z"/><path class="cls-19" d="M634.6,218.32a1.28,1.28,0,1,0-.42-2.52,1.27,1.27,0,0,0-1,1.47A1.29,1.29,0,0,0,634.6,218.32Z"/><path class="cls-19" d="M646.13,209.89a1.27,1.27,0,0,0,1-1.47,1.28,1.28,0,1,0-2.52.43A1.28,1.28,0,0,0,646.13,209.89Z"/><path class="cls-19" d="M639.84,211a1.28,1.28,0,0,0,1-1.48,1.28,1.28,0,0,0-2.52.43A1.3,1.3,0,0,0,639.84,211Z"/><path class="cls-19" d="M638.28,220.93a1.28,1.28,0,1,0-1.47-1.05A1.28,1.28,0,0,0,638.28,220.93Z"/><path class="cls-19" d="M644.58,219.87a1.28,1.28,0,1,0-.43-2.52,1.28,1.28,0,0,0,.43,2.52Z"/><path class="cls-19" d="M637.22,214.64a1.3,1.3,0,0,0,1-1.48,1.28,1.28,0,0,0-1.48-1,1.27,1.27,0,0,0-1,1.47A1.29,1.29,0,0,0,637.22,214.64Z"/><path class="cls-19" d="M643.52,213.57a1.28,1.28,0,0,0-.43-2.52,1.3,1.3,0,0,0-1.05,1.48A1.28,1.28,0,0,0,643.52,213.57Z"/><path class="cls-19" d="M630.92,215.7a1.28,1.28,0,1,0-1.47-1A1.28,1.28,0,0,0,630.92,215.7Z"/><path class="cls-19" d="M650.38,235.08a1.28,1.28,0,1,0-1.47-1.05A1.28,1.28,0,0,0,650.38,235.08Z"/><path class="cls-19" d="M644.09,236.14a1.28,1.28,0,1,0-1.47-1A1.28,1.28,0,0,0,644.09,236.14Z"/><path class="cls-19" d="M637.79,237.2a1.27,1.27,0,1,0-1.47-1A1.27,1.27,0,0,0,637.79,237.2Z"/><path class="cls-19" d="M649.32,228.78a1.28,1.28,0,1,0-1.47-1A1.27,1.27,0,0,0,649.32,228.78Z"/><path class="cls-19" d="M643,229.84a1.27,1.27,0,1,0-1.48-1A1.28,1.28,0,0,0,643,229.84Z"/><path class="cls-19" d="M636.73,230.91a1.28,1.28,0,1,0-.43-2.52,1.28,1.28,0,0,0,.43,2.52Z"/><path class="cls-19" d="M648.26,222.49a1.28,1.28,0,0,0,1-1.48,1.27,1.27,0,0,0-2.51.43A1.28,1.28,0,0,0,648.26,222.49Z"/><path class="cls-19" d="M642,223.55a1.28,1.28,0,1,0-1.47-1.05A1.28,1.28,0,0,0,642,223.55Z"/><path class="cls-19" d="M635.67,224.61a1.28,1.28,0,1,0-1.48-1A1.28,1.28,0,0,0,635.67,224.61Z"/><path class="cls-19" d="M629.37,225.67a1.27,1.27,0,1,0-1.47-1A1.27,1.27,0,0,0,629.37,225.67Z"/><path class="cls-19" d="M640.41,233.52A1.27,1.27,0,1,0,640,231a1.27,1.27,0,1,0,.43,2.51Z"/><path class="cls-19" d="M646.71,232.46a1.28,1.28,0,1,0-1.48-1.05A1.27,1.27,0,0,0,646.71,232.46Z"/><path class="cls-19" d="M639.35,227.23a1.28,1.28,0,1,0-1.48-1A1.28,1.28,0,0,0,639.35,227.23Z"/><path class="cls-19" d="M645.64,226.16a1.27,1.27,0,1,0-1.47-1A1.27,1.27,0,0,0,645.64,226.16Z"/><path class="cls-19" d="M633.05,228.29a1.28,1.28,0,1,0-.43-2.52,1.28,1.28,0,0,0,.43,2.52Z"/><path class="cls-19" d="M638.85,243.5a1.28,1.28,0,1,0-1.47-1.05A1.28,1.28,0,0,0,638.85,243.5Z"/><path class="cls-19" d="M650.38,235.08a1.28,1.28,0,1,0-1.47-1.05A1.28,1.28,0,0,0,650.38,235.08Z"/><path class="cls-19" d="M644.09,236.14a1.28,1.28,0,1,0-1.47-1A1.28,1.28,0,0,0,644.09,236.14Z"/><path class="cls-19" d="M637.79,237.2a1.27,1.27,0,1,0-1.47-1A1.27,1.27,0,0,0,637.79,237.2Z"/><path class="cls-19" d="M631.5,238.27a1.28,1.28,0,1,0-1.48-1.05A1.28,1.28,0,0,0,631.5,238.27Z"/><path class="cls-19" d="M641.47,239.82a1.28,1.28,0,1,0-1.47-1A1.28,1.28,0,0,0,641.47,239.82Z"/><path class="cls-19" d="M635.17,240.88a1.27,1.27,0,1,0-1.47-1A1.27,1.27,0,0,0,635.17,240.88Z"/><path class="cls-19" d="M635.67,224.61a1.28,1.28,0,1,0-1.48-1.05A1.28,1.28,0,0,0,635.67,224.61Z"/><path class="cls-19" d="M629.37,225.67a1.27,1.27,0,1,0-1.47-1A1.27,1.27,0,0,0,629.37,225.67Z"/><path class="cls-19" d="M623.07,226.74a1.28,1.28,0,1,0-1.47-1.05A1.28,1.28,0,0,0,623.07,226.74Z"/><path class="cls-19" d="M634.6,218.32a1.28,1.28,0,1,0-.42-2.52,1.27,1.27,0,0,0-1,1.47A1.29,1.29,0,0,0,634.6,218.32Z"/><path class="cls-19" d="M628.31,219.38a1.28,1.28,0,0,0-.43-2.52,1.28,1.28,0,1,0,.43,2.52Z"/><path class="cls-19" d="M622,220.44a1.28,1.28,0,1,0-1.47-1.05A1.28,1.28,0,0,0,622,220.44Z"/><path class="cls-19" d="M614.65,215.21a1.28,1.28,0,1,0-1.47-1.05A1.28,1.28,0,0,0,614.65,215.21Z"/><path class="cls-19" d="M625.69,223.06a1.29,1.29,0,0,0,1-1.47,1.28,1.28,0,1,0-1,1.47Z"/><path class="cls-19" d="M632,222a1.27,1.27,0,1,0-1.47-1A1.27,1.27,0,0,0,632,222Z"/><path class="cls-19" d="M624.63,216.76a1.28,1.28,0,0,0-.43-2.52,1.28,1.28,0,1,0,.43,2.52Z"/><path class="cls-19" d="M630.92,215.7a1.28,1.28,0,1,0-1.47-1A1.28,1.28,0,0,0,630.92,215.7Z"/><path class="cls-19" d="M618.33,217.82a1.27,1.27,0,1,0-1.47-1A1.27,1.27,0,0,0,618.33,217.82Z"/><path class="cls-19" d="M637.79,237.2a1.27,1.27,0,1,0-1.47-1A1.27,1.27,0,0,0,637.79,237.2Z"/><path class="cls-19" d="M631.5,238.27a1.28,1.28,0,1,0-1.48-1.05A1.28,1.28,0,0,0,631.5,238.27Z"/><path class="cls-19" d="M625.2,239.33a1.29,1.29,0,0,0,1-1.47,1.28,1.28,0,1,0-1,1.47Z"/><path class="cls-19" d="M636.73,230.91a1.28,1.28,0,1,0-.43-2.52,1.28,1.28,0,0,0,.43,2.52Z"/><path class="cls-19" d="M630.43,232a1.28,1.28,0,1,0-1.47-1.05A1.28,1.28,0,0,0,630.43,232Z"/><path class="cls-19" d="M624.14,233a1.27,1.27,0,1,0-.43-2.51,1.27,1.27,0,1,0,.43,2.51Z"/><path class="cls-19" d="M635.67,224.61a1.28,1.28,0,1,0-1.48-1A1.28,1.28,0,0,0,635.67,224.61Z"/><path class="cls-19" d="M629.37,225.67a1.27,1.27,0,1,0-1.47-1A1.27,1.27,0,0,0,629.37,225.67Z"/><path class="cls-19" d="M623.07,226.74a1.28,1.28,0,1,0-1.47-1.05A1.28,1.28,0,0,0,623.07,226.74Z"/><path class="cls-19" d="M616.78,227.8a1.28,1.28,0,0,0-.43-2.52,1.28,1.28,0,1,0,.43,2.52Z"/><path class="cls-19" d="M627.82,235.65a1.28,1.28,0,0,0-.43-2.52,1.28,1.28,0,1,0,.43,2.52Z"/><path class="cls-19" d="M634.11,234.59a1.28,1.28,0,1,0-1.47-1.05A1.28,1.28,0,0,0,634.11,234.59Z"/><path class="cls-19" d="M626.75,229.35a1.27,1.27,0,1,0-1.47-1A1.27,1.27,0,0,0,626.75,229.35Z"/><path class="cls-19" d="M633.05,228.29a1.28,1.28,0,1,0-.43-2.52,1.28,1.28,0,0,0,.43,2.52Z"/><path class="cls-19" d="M620.46,230.42a1.28,1.28,0,0,0,1-1.48,1.27,1.27,0,0,0-1.47-1,1.28,1.28,0,1,0,.43,2.52Z"/><path class="cls-19" d="M638.85,243.5a1.28,1.28,0,1,0-1.47-1.05A1.28,1.28,0,0,0,638.85,243.5Z"/><path class="cls-19" d="M632.56,244.56a1.28,1.28,0,0,0,1.05-1.47,1.3,1.3,0,0,0-1.48-1.05,1.28,1.28,0,0,0-1,1.48A1.27,1.27,0,0,0,632.56,244.56Z"/><path class="cls-19" d="M626.26,245.63a1.28,1.28,0,1,0-1.47-1A1.28,1.28,0,0,0,626.26,245.63Z"/><path class="cls-19" d="M637.79,237.2a1.27,1.27,0,1,0-1.47-1A1.27,1.27,0,0,0,637.79,237.2Z"/><path class="cls-19" d="M631.5,238.27a1.28,1.28,0,1,0-1.48-1.05A1.28,1.28,0,0,0,631.5,238.27Z"/><path class="cls-19" d="M625.2,239.33a1.29,1.29,0,0,0,1-1.47,1.28,1.28,0,1,0-1,1.47Z"/><path class="cls-19" d="M618.9,240.39a1.27,1.27,0,0,0,1.05-1.47,1.28,1.28,0,1,0-2.52.43A1.28,1.28,0,0,0,618.9,240.39Z"/><path class="cls-19" d="M629.94,248.24a1.27,1.27,0,0,0,1-1.47,1.28,1.28,0,1,0-2.52.43A1.28,1.28,0,0,0,629.94,248.24Z"/><path class="cls-19" d="M628.88,242a1.3,1.3,0,0,0,1-1.48,1.28,1.28,0,1,0-1,1.48Z"/><path class="cls-19" d="M635.17,240.88a1.27,1.27,0,1,0-1.47-1A1.27,1.27,0,0,0,635.17,240.88Z"/><path class="cls-19" d="M622.58,243a1.28,1.28,0,1,0-1.47-1A1.28,1.28,0,0,0,622.58,243Z"/><path class="cls-19" d="M614.65,215.21a1.28,1.28,0,1,0-1.47-1.05A1.27,1.27,0,0,0,614.65,215.21Z"/><path class="cls-19" d="M608.35,216.27a1.28,1.28,0,1,0-1.47-1.05A1.28,1.28,0,0,0,608.35,216.27Z"/><path class="cls-19" d="M623.07,226.74a1.28,1.28,0,1,0-1.47-1.05A1.28,1.28,0,0,0,623.07,226.74Z"/><path class="cls-19" d="M616.78,227.8a1.28,1.28,0,1,0-1.48-1.05A1.28,1.28,0,0,0,616.78,227.8Z"/><path class="cls-19" d="M610.48,228.86a1.28,1.28,0,0,0,1-1.47,1.3,1.3,0,0,0-1.48-1,1.28,1.28,0,0,0,.43,2.52Z"/><path class="cls-19" d="M622,220.44a1.28,1.28,0,1,0-1.47-1.05A1.28,1.28,0,0,0,622,220.44Z"/><path class="cls-19" d="M615.71,221.5a1.27,1.27,0,1,0-1.47-1A1.27,1.27,0,0,0,615.71,221.5Z"/><path class="cls-19" d="M609.42,222.57a1.28,1.28,0,1,0-1.47-1A1.28,1.28,0,0,0,609.42,222.57Z"/><path class="cls-19" d="M614.65,215.21a1.28,1.28,0,1,0-1.47-1.05A1.27,1.27,0,0,0,614.65,215.21Z"/><path class="cls-19" d="M608.35,216.27a1.28,1.28,0,1,0-1.47-1.05A1.28,1.28,0,0,0,608.35,216.27Z"/><path class="cls-19" d="M602.06,217.33a1.27,1.27,0,1,0-.43-2.51,1.27,1.27,0,1,0,.43,2.51Z"/><path class="cls-19" d="M613.1,225.18a1.27,1.27,0,0,0,1-1.47,1.27,1.27,0,1,0-2.51.43A1.27,1.27,0,0,0,613.1,225.18Z"/><path class="cls-19" d="M619.39,224.12a1.28,1.28,0,1,0-1.47-1.05A1.28,1.28,0,0,0,619.39,224.12Z"/><path class="cls-19" d="M612,218.89a1.28,1.28,0,1,0-1.47-1A1.28,1.28,0,0,0,612,218.89Z"/><path class="cls-19" d="M618.33,217.82a1.27,1.27,0,1,0-1.47-1A1.27,1.27,0,0,0,618.33,217.82Z"/><path class="cls-19" d="M605.74,220a1.28,1.28,0,1,0-1.47-1A1.28,1.28,0,0,0,605.74,220Z"/><path class="cls-19" d="M625.2,239.33a1.28,1.28,0,0,0-.43-2.52,1.28,1.28,0,1,0,.43,2.52Z"/><path class="cls-19" d="M618.9,240.39a1.27,1.27,0,0,0,1.05-1.47,1.28,1.28,0,1,0-2.52.43A1.28,1.28,0,0,0,618.9,240.39Z"/><path class="cls-19" d="M612.61,241.46a1.28,1.28,0,0,0,1-1.48,1.27,1.27,0,0,0-1.47-1,1.28,1.28,0,1,0,.43,2.52Z"/><path class="cls-19" d="M624.13,233a1.27,1.27,0,1,0-1.47-1A1.27,1.27,0,0,0,624.13,233Z"/><path class="cls-19" d="M617.84,234.1a1.28,1.28,0,1,0-1.47-1A1.28,1.28,0,0,0,617.84,234.1Z"/><path class="cls-19" d="M611.54,235.16a1.28,1.28,0,1,0-1.47-1A1.28,1.28,0,0,0,611.54,235.16Z"/><path class="cls-19" d="M623.07,226.74a1.28,1.28,0,1,0-1.47-1.05A1.28,1.28,0,0,0,623.07,226.74Z"/><path class="cls-19" d="M616.78,227.8a1.28,1.28,0,1,0-1.48-1.05A1.28,1.28,0,0,0,616.78,227.8Z"/><path class="cls-19" d="M610.48,228.86a1.28,1.28,0,0,0,1-1.47,1.3,1.3,0,0,0-1.48-1,1.28,1.28,0,0,0,.43,2.52Z"/><path class="cls-19" d="M604.18,229.93a1.28,1.28,0,1,0-1.47-1.05A1.28,1.28,0,0,0,604.18,229.93Z"/><path class="cls-19" d="M615.22,237.78a1.28,1.28,0,1,0-1.47-1.05A1.28,1.28,0,0,0,615.22,237.78Z"/><path class="cls-19" d="M621.52,236.71a1.28,1.28,0,0,0,1.05-1.47,1.3,1.3,0,0,0-1.48-1.05,1.28,1.28,0,0,0-1,1.48A1.27,1.27,0,0,0,621.52,236.71Z"/><path class="cls-19" d="M614.16,231.48a1.28,1.28,0,1,0-.43-2.52,1.28,1.28,0,0,0,.43,2.52Z"/><path class="cls-19" d="M620.46,230.42a1.28,1.28,0,1,0-1.48-1A1.28,1.28,0,0,0,620.46,230.42Z"/><path class="cls-19" d="M607.86,232.54a1.27,1.27,0,0,0,1-1.47,1.28,1.28,0,1,0-2.52.43A1.28,1.28,0,0,0,607.86,232.54Z"/><path class="cls-19" d="M626.26,245.63a1.28,1.28,0,1,0-1.47-1A1.28,1.28,0,0,0,626.26,245.63Z"/><path class="cls-19" d="M620,246.69a1.28,1.28,0,1,0-1.47-1.05A1.28,1.28,0,0,0,620,246.69Z"/><path class="cls-19" d="M613.67,247.75a1.28,1.28,0,1,0-1.47-1A1.28,1.28,0,0,0,613.67,247.75Z"/><path class="cls-19" d="M625.2,239.33a1.28,1.28,0,0,0-.43-2.52,1.28,1.28,0,1,0,.43,2.52Z"/><path class="cls-19" d="M618.9,240.39a1.27,1.27,0,0,0,1.05-1.47,1.28,1.28,0,1,0-2.52.43A1.28,1.28,0,0,0,618.9,240.39Z"/><path class="cls-19" d="M612.61,241.46a1.28,1.28,0,0,0,1-1.48,1.27,1.27,0,0,0-1.47-1,1.28,1.28,0,0,0-1,1.47A1.3,1.3,0,0,0,612.61,241.46Z"/><path class="cls-19" d="M606.31,242.52a1.28,1.28,0,1,0-.43-2.52,1.28,1.28,0,0,0,.43,2.52Z"/><path class="cls-19" d="M617.35,250.37a1.28,1.28,0,1,0-.43-2.52,1.28,1.28,0,0,0,.43,2.52Z"/><path class="cls-19" d="M623.64,249.31a1.28,1.28,0,1,0-.42-2.52,1.27,1.27,0,0,0-1.05,1.47A1.29,1.29,0,0,0,623.64,249.31Z"/><path class="cls-19" d="M616.29,244.07a1.27,1.27,0,0,0,1-1.47,1.28,1.28,0,1,0-1,1.47Z"/><path class="cls-19" d="M622.58,243a1.28,1.28,0,1,0-1.47-1A1.28,1.28,0,0,0,622.58,243Z"/><path class="cls-19" d="M610,245.14a1.3,1.3,0,0,0,1-1.48,1.28,1.28,0,1,0-1,1.48Z"/><path class="cls-19" d="M608.35,216.27a1.28,1.28,0,1,0-1.47-1.05A1.28,1.28,0,0,0,608.35,216.27Z"/><path class="cls-19" d="M602.06,217.33a1.27,1.27,0,1,0-.43-2.51,1.27,1.27,0,1,0,.43,2.51Z"/><path class="cls-19" d="M595.76,218.4a1.28,1.28,0,1,0-1.47-1.05A1.28,1.28,0,0,0,595.76,218.4Z"/><path class="cls-19" d="M610.48,228.86a1.28,1.28,0,0,0,1-1.47,1.3,1.3,0,0,0-1.48-1,1.28,1.28,0,0,0,.43,2.52Z"/><path class="cls-19" d="M604.18,229.93a1.28,1.28,0,1,0-1.47-1.05A1.28,1.28,0,0,0,604.18,229.93Z"/><path class="cls-19" d="M597.89,231a1.28,1.28,0,1,0-1.47-1.05A1.28,1.28,0,0,0,597.89,231Z"/><path class="cls-19" d="M609.42,222.57a1.28,1.28,0,1,0-1.47-1A1.28,1.28,0,0,0,609.42,222.57Z"/><path class="cls-19" d="M603.12,223.63a1.28,1.28,0,1,0-1.47-1A1.28,1.28,0,0,0,603.12,223.63Z"/><path class="cls-19" d="M596.82,224.69a1.27,1.27,0,0,0,1-1.47,1.28,1.28,0,1,0-1,1.47Z"/><path class="cls-19" d="M608.35,216.27a1.28,1.28,0,1,0-1.47-1.05A1.28,1.28,0,0,0,608.35,216.27Z"/><path class="cls-19" d="M602.06,217.33a1.27,1.27,0,1,0-.43-2.51,1.27,1.27,0,1,0,.43,2.51Z"/><path class="cls-19" d="M595.76,218.4a1.28,1.28,0,1,0-1.47-1.05A1.28,1.28,0,0,0,595.76,218.4Z"/><path class="cls-19" d="M600.5,227.31a1.28,1.28,0,1,0-1.47-1.05A1.28,1.28,0,0,0,600.5,227.31Z"/><path class="cls-19" d="M606.8,226.25a1.3,1.3,0,0,0,1.05-1.48,1.28,1.28,0,1,0-1.05,1.48Z"/><path class="cls-19" d="M599.44,221a1.27,1.27,0,0,0,1-1.47A1.28,1.28,0,1,0,598,220,1.27,1.27,0,0,0,599.44,221Z"/><path class="cls-19" d="M605.74,220a1.28,1.28,0,1,0-1.47-1A1.28,1.28,0,0,0,605.74,220Z"/><path class="cls-19" d="M593.15,222.08a1.28,1.28,0,1,0-1.48-1.05A1.3,1.3,0,0,0,593.15,222.08Z"/><path class="cls-19" d="M612.61,241.46a1.28,1.28,0,0,0,1-1.48,1.27,1.27,0,0,0-1.47-1,1.28,1.28,0,1,0,.43,2.52Z"/><path class="cls-19" d="M606.31,242.52a1.28,1.28,0,1,0-.43-2.52,1.28,1.28,0,0,0,.43,2.52Z"/><path class="cls-19" d="M600,243.58a1.27,1.27,0,0,0,1-1.47,1.28,1.28,0,1,0-1,1.47Z"/><path class="cls-19" d="M611.54,235.16a1.28,1.28,0,1,0-1.47-1A1.28,1.28,0,0,0,611.54,235.16Z"/><path class="cls-19" d="M605.25,236.22a1.27,1.27,0,0,0,1-1.47,1.27,1.27,0,1,0-2.51.43A1.27,1.27,0,0,0,605.25,236.22Z"/><path class="cls-19" d="M599,237.29a1.28,1.28,0,1,0-.42-2.52,1.27,1.27,0,0,0-1,1.47A1.29,1.29,0,0,0,599,237.29Z"/><path class="cls-19" d="M610.48,228.86a1.28,1.28,0,0,0,1-1.47,1.3,1.3,0,0,0-1.48-1,1.28,1.28,0,0,0,.43,2.52Z"/><path class="cls-19" d="M604.18,229.93a1.28,1.28,0,1,0-1.47-1.05A1.28,1.28,0,0,0,604.18,229.93Z"/><path class="cls-19" d="M597.89,231a1.28,1.28,0,1,0-1.47-1.05A1.28,1.28,0,0,0,597.89,231Z"/><path class="cls-19" d="M591.59,232.05a1.28,1.28,0,1,0-1.47-1A1.27,1.27,0,0,0,591.59,232.05Z"/><path class="cls-19" d="M602.63,239.9a1.27,1.27,0,0,0,1-1.47,1.28,1.28,0,1,0-2.52.43A1.27,1.27,0,0,0,602.63,239.9Z"/><path class="cls-19" d="M608.93,238.84a1.28,1.28,0,1,0-1.47-1.05A1.28,1.28,0,0,0,608.93,238.84Z"/><path class="cls-19" d="M601.57,233.61a1.3,1.3,0,0,0,1-1.48,1.28,1.28,0,1,0-1,1.48Z"/><path class="cls-19" d="M607.86,232.54a1.27,1.27,0,0,0,1-1.47,1.28,1.28,0,1,0-2.52.43A1.28,1.28,0,0,0,607.86,232.54Z"/><path class="cls-19" d="M595.27,234.67a1.28,1.28,0,1,0-1.47-1A1.28,1.28,0,0,0,595.27,234.67Z"/><path class="cls-19" d="M613.67,247.75a1.28,1.28,0,1,0-1.47-1A1.28,1.28,0,0,0,613.67,247.75Z"/><path class="cls-19" d="M607.37,248.82a1.28,1.28,0,1,0-.42-2.52,1.27,1.27,0,0,0-1.05,1.47A1.29,1.29,0,0,0,607.37,248.82Z"/><path class="cls-19" d="M612.61,241.46a1.28,1.28,0,0,0,1-1.48,1.27,1.27,0,0,0-1.47-1,1.28,1.28,0,0,0-1,1.47A1.3,1.3,0,0,0,612.61,241.46Z"/><path class="cls-19" d="M606.31,242.52a1.28,1.28,0,1,0-.43-2.52,1.28,1.28,0,0,0,.43,2.52Z"/><path class="cls-19" d="M600,243.58a1.27,1.27,0,0,0,1-1.47,1.28,1.28,0,1,0-1,1.47Z"/><path class="cls-19" d="M603.69,246.2a1.28,1.28,0,1,0-1.47-1A1.28,1.28,0,0,0,603.69,246.2Z"/><path class="cls-19" d="M610,245.14a1.3,1.3,0,0,0,1-1.48,1.28,1.28,0,1,0-1,1.48Z"/><path class="cls-19" d="M595.76,218.4a1.28,1.28,0,1,0-1.47-1.05A1.28,1.28,0,0,0,595.76,218.4Z"/><path class="cls-19" d="M597.89,231a1.28,1.28,0,1,0-1.47-1.05A1.28,1.28,0,0,0,597.89,231Z"/><path class="cls-19" d="M591.59,232.05a1.28,1.28,0,1,0-1.47-1A1.28,1.28,0,0,0,591.59,232.05Z"/><path class="cls-19" d="M596.82,224.69a1.27,1.27,0,0,0,1-1.47,1.28,1.28,0,1,0-1,1.47Z"/><path class="cls-19" d="M590.53,225.76a1.3,1.3,0,0,0,1.05-1.48,1.28,1.28,0,0,0-1.48-1,1.27,1.27,0,0,0-1,1.47A1.28,1.28,0,0,0,590.53,225.76Z"/><path class="cls-19" d="M595.76,218.4a1.28,1.28,0,1,0-1.47-1.05A1.28,1.28,0,0,0,595.76,218.4Z"/><path class="cls-19" d="M594.21,228.37a1.27,1.27,0,0,0,1-1.47,1.27,1.27,0,1,0-2.51.43A1.27,1.27,0,0,0,594.21,228.37Z"/><path class="cls-19" d="M593.15,222.08a1.28,1.28,0,1,0-1.48-1.05A1.3,1.3,0,0,0,593.15,222.08Z"/><path class="cls-19" d="M600,243.58a1.27,1.27,0,0,0,1-1.47,1.28,1.28,0,1,0-1,1.47Z"/><path class="cls-19" d="M599,237.29a1.28,1.28,0,1,0-.42-2.52,1.27,1.27,0,0,0-1,1.47A1.29,1.29,0,0,0,599,237.29Z"/><path class="cls-19" d="M592.65,238.35a1.28,1.28,0,1,0-1.47-1A1.28,1.28,0,0,0,592.65,238.35Z"/><path class="cls-19" d="M597.89,231a1.28,1.28,0,1,0-1.47-1.05A1.28,1.28,0,0,0,597.89,231Z"/><path class="cls-19" d="M591.59,232.05a1.28,1.28,0,1,0-1.47-1A1.27,1.27,0,0,0,591.59,232.05Z"/><path class="cls-19" d="M596.33,241a1.28,1.28,0,1,0-.42-2.52,1.27,1.27,0,0,0-1,1.47A1.29,1.29,0,0,0,596.33,241Z"/><path class="cls-19" d="M595.27,234.67a1.28,1.28,0,1,0-1.47-1A1.28,1.28,0,0,0,595.27,234.67Z"/><path class="cls-19" d="M600,243.58a1.27,1.27,0,0,0,1-1.47,1.28,1.28,0,1,0-1,1.47Z"/><path class="cls-6" d="M652,217c-5.67,13.2-22.48,11.53-33.07,12.75"/><path class="cls-4" d="M664.16,171c1.55,19.55-23.16,30.6-22.25,10.64Z"/><path class="cls-4" d="M634.46,182.14c-4,23.37-37.51,22.43-33.84-.75Z"/><path class="cls-19" d="M624,192.07c.09-3.45-2.15-5.77-5-5.16s-5.23,3.88-5.31,7.34,2.16,5.74,5,5.14S623.93,195.52,624,192.07Z"/><path class="cls-19" d="M655.53,185.79c.46-3.22-1.29-5.51-3.9-5.12s-5.12,3.31-5.57,6.52,1.3,5.5,3.91,5.11S655.07,189,655.53,185.79Z"/><path class="cls-6" d="M375.31,510.36a72.15,72.15,0,0,1,39.78,46.21l25.09,89.06"/><path class="cls-6" d="M356.18,749.13c15,1.5,42.5-13.5,42.5-39.5v-37.5"/><path class="cls-4" d="M982.35,417.48c0,23-6.35,33.16-23.72,35l-36.75-13.75c8.87-5.75,11.37-6,15.12-11.88"/><path class="cls-4" d="M462.39,613.94c.07-41.64,59.11-53.8,26.29,23.53"/><path class="cls-6" d="M438.68,634.63l19.5-18.5c9.5-7.5,36.5,3,29,28.5L463.6,686.38a32.57,32.57,0,0,1-27.92,15.74c-11.43,0-23-7-28.87-16.82-16.2-26.94-34.48-54.72-34.63-55.17"/><path class="cls-6" d="M731.35,631.13l32.5-65a64.23,64.23,0,0,1,35.7-31.72"/><path class="cls-6" d="M733,626.8s-12.33-6-23.67-10.67-22.86,11.79-11.33,31c3.62,6,8.21,13,12.58,19.51A30,30,0,0,0,748.24,677l14.06-6.64v73.13s-1.61,27.33,27.72,46"/><path class="cls-6" d="M911.07,528.16c12.56,4.82,20.64,16.29,24.12,29.76,10.83,41.88,7.7,81.82,8.16,83.21"/><line class="cls-5" x1="797.35" y1="650.47" x2="761.3" y2="670.34"/><path class="cls-5" d="M532.69,435.84c-60.89,12-111.66,28.62-147.32,48.36"/><path class="cls-5" d="M580.5,428.64c15-2.83,41.33-3.16,41.33-3.16"/><path class="cls-6" d="M960.06,672.69c136.58-22.88,229.66-68.38,229.66-120.76,0-14.12-6.76-27.73-19.3-40.54"/><path class="cls-6" d="M483,656.63c74.76,19.84,171.09,31.79,276.22,31.79H762"/><path class="cls-5" d="M564.68,254.46a121.26,121.26,0,0,1-1.08-29.92h0a92.52,92.52,0,0,1,7.86-29.94,86.65,86.65,0,0,1,20.72-28.3c21.73-19.81,51.05-27.41,71.27-24.59,10.62,1.47,18.73,5.81,21.9,12.76"/><line class="cls-5" x1="463" y1="604.89" x2="424.25" y2="590.14"/><path class="cls-5" d="M468.17,470.73h0a13.25,13.25,0,0,1,9.39-.74l91.34,26.72a8.37,8.37,0,0,1,6,8.78l-6.63,72.41L520.64,618.7a14.28,14.28,0,0,1-14.72,2.37l-10.17-4.18"/><line class="cls-5" x1="465.25" y1="528.14" x2="562" y2="558.89"/><path class="cls-5" d="M623.75,425.64l.16,2.54a13.13,13.13,0,0,0,4.46,9.07l35.47,31a14.21,14.21,0,0,0,14.38,2.61l85.21-32.12a9.39,9.39,0,0,0,5.67-6l0-.06"/><path class="cls-5" d="M673.67,467l11.79-54.47a13.16,13.16,0,0,1,8.39-9.59l79.86-28.87a16.47,16.47,0,0,1,6.14-1l1.9.06"/><rect class="cls-2" x="793.43" y="394.05" width="118.49" height="164.84" rx="48.99" ry="48.99"/><rect class="cls-6" x="793.43" y="394.05" width="118.49" height="164.84" rx="48.99" ry="48.99"/><path class="cls-1" d="M793.43,407.63c25.3-33.94,82.61-30.17,103.72-13.58s17.47,47,14.77,115.85-59.25,39.71-59.25,39.71-21.88.37-24.14-18.4,7.54-69.79-2.26-78.21-31.67-3.9-36.19-12.19S785.76,417.92,793.43,407.63Z"/><path class="cls-6" d="M793.43,407.63c25.3-33.94,82.61-30.17,103.72-13.58s17.47,47,14.77,115.85c-3,76.6-81.46,37.32-83.39,21.31-2.26-18.77,7.54-69.79-2.26-78.21s-31.67-3.9-36.19-12.19S785.76,417.92,793.43,407.63Z"/><path class="cls-6" d="M936.5,447.42c0-48.32-30.26-82.33-73-82.33h-16a81.69,81.69,0,0,0-81.65,82.33v91.82c0,49.79,170.59,56.12,170.59,0h0Z"/><path class="cls-5" d="M913.33,440.48l60,21.59a13.29,13.29,0,0,1,8.68,10.77l7.94,60.3"/><polyline class="cls-5" points="994.54 534.96 999.67 534.81 1017 520.14"/><line class="cls-5" x1="658.17" y1="583.14" x2="689" y2="627.81"/><line class="cls-5" x1="663" y1="565.14" x2="763.67" y2="550.31"/><line class="cls-20" x1="720.95" y1="300.07" x2="660.68" y2="385.13"/><path class="cls-21" d="M645.65,374.48a18.42,18.42,0,1,0,25.68-4.38A18.43,18.43,0,0,0,645.65,374.48Z"/><polyline class="cls-20" points="494.68 487.13 719.98 290.8 717.14 300.2"/><path class="cls-21" d="M506.79,501a18.42,18.42,0,1,1,1.78-26A18.43,18.43,0,0,1,506.79,501Z"/><line class="cls-20" x1="724.68" y1="497.13" x2="719.98" y2="290.8"/><path class="cls-21" d="M743.1,496.71a18.42,18.42,0,1,1-18.84-18A18.42,18.42,0,0,1,743.1,496.71Z"/><line class="cls-20" x1="722.98" y1="290.8" x2="934.68" y2="365.13"/><path class="cls-21" d="M928.58,382.52A18.43,18.43,0,1,0,917.3,359,18.43,18.43,0,0,0,928.58,382.52Z"/><path class="cls-21" d="M739,296.3a18,18,0,1,0-18,18A18,18,0,0,0,739,296.3Z"/></svg>