<svg id="work" xmlns="http://www.w3.org/2000/svg" viewBox="0 0 1422 870"><defs><style>.cls-1,.cls-16,.cls-18,.cls-9{fill:#fff;}.cls-11,.cls-2,.cls-3,.cls-4,.cls-5,.cls-7,.cls-8{fill:none;}.cls-12,.cls-14,.cls-16,.cls-17,.cls-18,.cls-19,.cls-2,.cls-3,.cls-5,.cls-7,.cls-8,.cls-9{stroke:#4a4a4a;}.cls-15,.cls-2,.cls-7{stroke-miterlimit:10;}.cls-2,.cls-3,.cls-4{stroke-width:3px;}.cls-11,.cls-12,.cls-16,.cls-17,.cls-18,.cls-19,.cls-3,.cls-4,.cls-5,.cls-8,.cls-9{stroke-linecap:round;}.cls-11,.cls-12,.cls-14,.cls-16,.cls-17,.cls-18,.cls-19,.cls-3,.cls-4,.cls-5,.cls-8,.cls-9{stroke-linejoin:round;}.cls-4{stroke:#ff339c;}.cls-12,.cls-16,.cls-5{stroke-width:2.5px;}.cls-12,.cls-17,.cls-6{fill:#ebebeb;}.cls-11,.cls-14,.cls-17,.cls-18,.cls-19,.cls-7,.cls-8{stroke-width:4px;}.cls-9{stroke-width:1.5px;}.cls-10,.cls-19{fill:#ff0083;}.cls-11{stroke:#494949;}.cls-13,.cls-14,.cls-15{fill:#ebeaea;}.cls-15{stroke:#4a5999;}</style></defs><title>10,3</title><path class="cls-1" d="M275.09,185.44a36.51,36.51,0,0,0,48.23,18.42l43.07-19.27a26.51,26.51,0,1,0-32.18-39.91,36.52,36.52,0,0,0-59.12,40.76Z"/><path class="cls-2" d="M275.09,185.44a36.51,36.51,0,0,0,48.23,18.42l43.07-19.27a26.51,26.51,0,1,0-32.18-39.91,36.52,36.52,0,0,0-59.12,40.76Z"/><path class="cls-3" d="M344.6,175.36a36.5,36.5,0,0,1-41,31.36"/><path class="cls-3" d="M344.09,178.31a36.51,36.51,0,0,1-43.45,27.89"/><path class="cls-1" d="M995.06,139.92a43.44,43.44,0,0,0,27.2,55.09l89.81,30.44a23.43,23.43,0,1,0,15-44.38,23.08,23.08,0,0,0-10.19-1.08,31.54,31.54,0,0,0-37.3-27.82,43.45,43.45,0,0,0-84.57-12.25Z"/><path class="cls-3" d="M995.06,139.92a43.44,43.44,0,0,0,27.2,55.09l89.81,30.44a23.43,23.43,0,1,0,15-44.38,23.08,23.08,0,0,0-10.19-1.08,31.54,31.54,0,0,0-37.3-27.82,43.45,43.45,0,0,0-84.57-12.25Z"/><path class="cls-3" d="M1061.41,189.24a43.43,43.43,0,0,1-60.58-10.17"/><path class="cls-3" d="M1096.34,212.83a31.49,31.49,0,0,1-20.81.25"/><path class="cls-4" d="M504.44,66l3.5,16.7m-10.1-6.59,16.7-3.51"/><path class="cls-4" d="M169.88,251.48l9,14.48m-11.75-2.73,14.48-9"/><path class="cls-4" d="M1226.49,154.8l-7.08,15.52M1215.19,159l15.52,7.09"/><path class="cls-4" d="M815.89,196.43l-2.12,16.93m-7.41-9.53L823.29,206"/><path class="cls-4" d="M434.68,240.83l6.56,15.74M430.09,252l15.74-6.56"/><path class="cls-5" d="M294.14,594.4l-6,23.67a20.7,20.7,0,0,0,4,18.26l6.21,7.66a19.69,19.69,0,0,1,3.76,17.64l-2,7.56a29.51,29.51,0,0,0,0,15.55l3.9,14.11a57.25,57.25,0,0,1-5.36,43L276.57,782.1"/><path class="cls-5" d="M218.72,652.55l3.21,34.64a38.8,38.8,0,0,1-4.43,21.92l-8.92,16.63a38,38,0,0,0-4.51,18v3.11a20.78,20.78,0,0,1-9.54,17.48l-28.85,18.53"/><path class="cls-5" d="M594.21,577.85c.62,3.84.53,9.11,3.11,12.08,8.19,9.39,21.6,5.85,33.66,6,10.16.15,26.77-3.37,32.2,8.13,5.14,10.89-.19,24.47.12,35.56s7.61,24.05,12.56,33.79c6.32,12.44,14.62,13,26.19,16.9,15.83,5.31,32.46,5.42,48.48,10.55,4.65,1.49,10.91,3,14.13,7.42,2.24,3,3.8,12.17,2,16.26-4.22,9.8-23.05,5.55-31,5-9.25-.62-17.17-.53-26.13-2.69-9.79-2.36-22-11.43-29.41-3.62-4.7,4.93,1.08,14.38.82,21.63s-3,15.06-1.19,21.87c2.16,8.27,7.23,16,9.07,24.82,1.75,8.38,1.37,17.61,1.72,26.24"/><path class="cls-5" d="M808.88,702.82c-1-10.25-2.08-22.14-.14-32,1.88-9.6,12.62-23.72,18.16-8,3.76,10.64,2.06,21.33,3.17,32.69.86,8.84,6.45,15.78,4,25.36C833.48,723.34,814.87,762.76,808.88,702.82Z"/><path class="cls-5" d="M450.42,761.88c3.91-4.55,5.44-17.24,12.87-16.9,6.32.28,13.7,10.41,18.87,13.69"/><path class="cls-5" d="M875.34,624.79c.57-5.58,9.49-8.28,13.58-6.82,3.25,1.16,10,9.46,9.16,13.51C895.33,644.66,874.6,631.9,875.34,624.79Z"/><path class="cls-5" d="M917.89,614.64c1.49-5.45,8.69-10.85,14-12C968.07,595.07,907.4,652.82,917.89,614.64Z"/><path class="cls-5" d="M1132,634.63c6.18,18.43,13.47,37.58,24.78,47.52,13.8,12.12,54.21,8.79,70.66,20.15,9.94,6.85,16.92,17.76,25.49,25.7,9.28,8.61,26.17,18.1,28.34,31.48,2.42,14.89-13.2,27.81-15.16,40"/><path class="cls-5" d="M930.07,803.48c-3.75-9.53-10.24-18.31-17.47-25.33-9-8.78-14.13-15.43-1.71-23.17,10-6.26,19.15-10.84,30.36-14.31,10.14-3.14,15.34-9.19,14.83-20.52-.52-11.72-5.54-21.11-1.33-32.63a185.52,185.52,0,0,1,13.32-28c6.11-10.88-1.47-22.89,8.5-30.83,11.78-9.39,24.63-13.55,38.65-18.71,7.32-2.69,25.15-8.54,43.82-13.33"/><path class="cls-5" d="M118.57,759,116,762.43m1208.83-1.79q-14.08-18.17-29.21-35.44m-24.38-26.56c-139-144.42-334.2-234.28-550.43-234.28-242.22,0-458.11,112.76-598,288.65"/><path class="cls-4" d="M396.52,496.9q-12.07,5.13-24,10.64m454.24-69q-7.37-1-14.76-1.8m164.65,35.93q-4.07-1.34-8.16-2.64m281.52,155.48c-2.15-1.81-4.31-3.62-6.48-5.41m69.36,64.31q-22.25-23.13-46.25-44.49"/><path class="cls-6" d="M176.24,555.9a2.28,2.28,0,0,1-.52,3.55l-25.3,14.45a2,2,0,0,1-3-1.25l-4.7-19.34,20.06-11.45Z"/><path class="cls-7" d="M176.24,555.9a2.28,2.28,0,0,1-.52,3.55l-25.3,14.45a2,2,0,0,1-3-1.25l-4.7-19.34,20.06-11.45Z"/><path class="cls-6" d="M159.66,549.85l-8.49,4.85c-8.88,5.07-16.29-.24-21.36-9.12L95.48,485.46a18.51,18.51,0,0,1,6.89-25.25h0a18.5,18.5,0,0,1,25.24,6.89L162,527.23C167,536.11,168.54,544.78,159.66,549.85Z"/><path class="cls-7" d="M159.66,549.85l-8.49,4.85c-8.88,5.07-16.29-.24-21.36-9.12L95.48,485.46a18.51,18.51,0,0,1,6.89-25.25h0a18.5,18.5,0,0,1,25.24,6.89L162,527.23C167,536.11,168.54,544.78,159.66,549.85Z"/><path class="cls-1" d="M239.13,555.51,290.78,646l4.44-2.54a10.38,10.38,0,0,1,14.15,3.86l2.4,4.22-75.85,43.32-7.55-13.22h0L162.53,566.32l-1.93-1.48a4.82,4.82,0,0,1-1.25-1.45L144.22,536.9l-3.48-2.12a18,18,0,0,1-6.23-6.41l-22.75-39.85A24.79,24.79,0,0,1,121,454.7l40.1-22.89A24.78,24.78,0,0,1,194.91,441l45,78.71-3,1.69,9,15.71a12.61,12.61,0,0,1-4.69,17.18Z"/><polygon class="cls-6" points="223.19 527.4 215.4 531.91 282 650.81 290.65 645.56 223.19 527.4"/><polyline class="cls-6" points="262.17 662.41 256.33 665.63 204.94 575.16 208.97 567.59"/><path class="cls-8" d="M138.42,444.75,121,454.7a24.79,24.79,0,0,0-9.23,33.82l22.75,39.85a18,18,0,0,0,6.23,6.41l3.48,2.12,15.13,26.49a4.8,4.8,0,0,0,1.25,1.44l1.93,1.49L228.36,681.6,290.78,646l-66.87-117.1,16-9.1-45-78.71a24.79,24.79,0,0,0-33.82-9.24Z"/><path class="cls-5" d="M239.13,555.51l2.05-1.17a12.6,12.6,0,0,0,4.7-17.18l-9-15.72-13,7.41Z"/><polyline class="cls-5" points="187.58 458.36 226.47 526.47 159.95 564.45"/><line class="cls-5" x1="205.75" y1="561.58" x2="262.99" y2="661.82"/><path class="cls-9" d="M148.33,430.63c-3.62,6.6-7.71,9.24-15.6,8.91"/><path class="cls-9" d="M138.05,422.15a5.78,5.78,0,0,1,10-5.73"/><path class="cls-9" d="M121.54,431.58a5.77,5.77,0,1,1,10-5.72"/><path class="cls-8" d="M309.37,647.27l2.4,4.22-35.08,20-2.4-4.22a10.37,10.37,0,0,0-10.48-5.11l-.36-.64,31.77-18.14A10.38,10.38,0,0,1,309.37,647.27Z"/><path class="cls-8" d="M228.37,681.59l31.77-18.15a10.37,10.37,0,0,1,14.14,3.86l2.41,4.22-40.78,23.29Z"/><path class="cls-5" d="M142.7,494.49l8.39,14.7A7.3,7.3,0,0,0,161,511.9l10.59-6,9.47,16.57-26,14.83c-3.44,2-8.48,1-11-.72"/><path class="cls-5" d="M173.18,508.58l9-14.11a5.67,5.67,0,0,1,8.68-1.07l6.42,6.07a5.68,5.68,0,0,1-.47,8.64l-16.66,12.6"/><path class="cls-5" d="M195.13,509.41l2-1.51a5.67,5.67,0,0,0,.48-8.64l-6.42-6.07a5.66,5.66,0,0,0-8.68,1.08l-3.81,6-5.16,8.11"/><path class="cls-10" d="M188.4,472.06,203,502.19a3.14,3.14,0,0,1-1.47,4.2l-6.71,3.23,2-1.51a5.72,5.72,0,0,0,2.24-4.2,5.65,5.65,0,0,0-1.77-4.44l-6.42-6.08a5.67,5.67,0,0,0-8.68,1.09l-3.8,6-9.23-19.1a3.17,3.17,0,0,1,1.47-4.21l13.62-6.56A3.14,3.14,0,0,1,188.4,472.06Z"/><path class="cls-5" d="M188.4,472.06,203,502.19a3.14,3.14,0,0,1-1.47,4.2l-6.71,3.23,2-1.51a5.72,5.72,0,0,0,2.24-4.2,5.65,5.65,0,0,0-1.77-4.44l-6.42-6.08a5.67,5.67,0,0,0-8.68,1.09l-3.8,6-9.23-19.1a3.17,3.17,0,0,1,1.47-4.21l13.62-6.56A3.14,3.14,0,0,1,188.4,472.06Z"/><path class="cls-8" d="M85.71,425.55c-9.65-16.92-4.46-35.66,12.45-45.32l6.34-3.62C121.41,367,143.63,370,153.29,387l18.35,32.13c.05.1-.06-.1,0,0,5.71,10-4.71,27.49-23.37,38.15s-38.5,10.44-44.21.44h0Z"/><path class="cls-1" d="M115.42,446.73c4.55,8,15.43,10.85,23.4,6.3l9.69-5.54c8-4.54,10.07-14.84,5.52-22.81l-12-21.06a13.14,13.14,0,0,0-17.93-4.89l-15.79,9a13.14,13.14,0,0,0-4.9,17.92Z"/><path class="cls-8" d="M107,432l8.42,14.74c4.55,8,15.43,10.85,23.4,6.3l9.69-5.54c8-4.54,10.07-14.84,5.52-22.81l-9.79-17.15"/><path class="cls-11" d="M115.42,446.73c4.55,8,15.43,10.85,23.4,6.3l9.69-5.54c8-4.54,10.07-14.84,5.52-22.81l-12-21.06a13.14,13.14,0,0,0-17.93-4.89l-15.79,9a13.14,13.14,0,0,0-4.9,17.92Z"/><path class="cls-11" d="M107,432l8.42,14.74c4.55,8,15.43,10.85,23.4,6.3l9.69-5.54c8-4.54,10.07-14.84,5.52-22.81l-9.79-17.15"/><path class="cls-5" d="M142.51,416.82a4.63,4.63,0,0,0-8,4.6"/><path class="cls-5" d="M127.26,425.53a4.63,4.63,0,0,0-8,4.6"/><path class="cls-5" d="M144.43,431.16c-3.81,12.33-15.18,8.67-15.18,8.67"/><path class="cls-6" d="M102.43,391.47c6.27-4.91,11.73-5.91,19.91-5.76,6.34.1,7.65-7.56,7.65-7.56,8.82,7.5,16.28,27.34,15.66,31.86l-3.22-5.65c-2.27-4-8.07-8.59-11.19-5.87-10.53,9.21-17,1.61-25.57,13.88-2.26,3.22,0,9.13,1.77,14,.8,2.2.91,7,.91,7l.27.44c-4.51-2.22-11.68-12.77-13.89-19.15C92.41,408,93,398.89,102.43,391.47Z"/><path class="cls-8" d="M102.43,391.47c6.27-4.91,11.73-5.91,19.91-5.76,6.34.1,7.65-7.56,7.65-7.56,8.82,7.5,16.28,27.34,15.66,31.86l-3.22-5.65c-2.27-4-8.07-8.59-11.19-5.87-10.53,9.21-17,1.61-25.57,13.88-2.26,3.22,0,9.13,1.77,14,.8,2.2.91,7,.91,7l.27.44c-4.51-2.22-11.68-12.77-13.89-19.15C92.41,408,93,398.89,102.43,391.47Z"/><path class="cls-11" d="M102.43,391.47c6.27-4.91,11.73-5.91,19.91-5.76,6.34.1,7.65-7.56,7.65-7.56,8.82,7.5,16.28,27.34,15.66,31.86l-3.22-5.65c-2.27-4-8.07-8.59-11.19-5.87-10.53,9.21-17,1.61-25.57,13.88-2.26,3.22,0,9.13,1.77,14,.8,2.2.91,7,.91,7l.27.44c-4.51-2.22-11.68-12.77-13.89-19.15C92.41,408,93,398.89,102.43,391.47Z"/><path class="cls-11" d="M102.43,391.47c6.27-4.91,11.73-5.91,19.91-5.76,6.34.1,7.65-7.56,7.65-7.56,8.82,7.5,16.28,27.34,15.66,31.86l-3.22-5.65c-2.27-4-8.07-8.59-11.19-5.87-10.53,9.21-17,1.61-25.57,13.88-2.26,3.22,0,9.13,1.77,14,.8,2.2.91,7,.91,7l.27.44c-4.51-2.22-11.68-12.77-13.89-19.15C92.41,408,93,398.89,102.43,391.47Z"/><path class="cls-6" d="M1178.54,547.21a2.28,2.28,0,0,0,.1,3.59l23.46,17.28a2,2,0,0,0,3.1-.9l6.9-18.66-18.6-13.71Z"/><path class="cls-7" d="M1178.54,547.21a2.28,2.28,0,0,0,.1,3.59l23.46,17.28a2,2,0,0,0,3.1-.9l6.9-18.66-18.6-13.71Z"/><path class="cls-6" d="M1195.71,543.12l7.87,5.8c8.23,6.06,16.2,1.64,22.27-6.58l41.06-55.75a18.52,18.52,0,0,0-3.92-25.88h0a18.5,18.5,0,0,0-25.87,3.93l-41.07,55.75C1190,528.62,1187.48,537.06,1195.71,543.12Z"/><path class="cls-7" d="M1195.71,543.12l7.87,5.8c8.23,6.06,16.2,1.64,22.27-6.58l41.06-55.75a18.52,18.52,0,0,0-3.92-25.88h0a18.5,18.5,0,0,0-25.87,3.93l-41.07,55.75C1190,528.62,1187.48,537.06,1195.71,543.12Z"/><path class="cls-1" d="M1116.11,539.54l-61.76,83.85-4.13-3a10.36,10.36,0,0,0-14.49,2.2l-2.88,3.91,70.33,51.8,9-12.25h0L1191,559.15l2.08-1.26a4.71,4.71,0,0,0,1.42-1.28l18.09-24.56,3.71-1.71a17.93,17.93,0,0,0,6.92-5.65l27.21-36.94a24.78,24.78,0,0,0-5.25-34.66L1208,425.7a24.79,24.79,0,0,0-34.66,5.26l-53.76,73,2.74,2-10.73,14.57a12.59,12.59,0,0,0,2.67,17.6Z"/><path class="cls-12" d="M1116.11,539.54l-1.9-1.4a12.6,12.6,0,0,1-2.67-17.61L1122.28,506l12,8.87Z"/><polygon class="cls-6" points="1135.2 513.47 1142.42 518.85 1062.5 629.24 1054.51 623.02 1135.2 513.47"/><polyline class="cls-6" points="1080.85 643.06 1086.29 646.93 1147.81 563.02 1144.67 555.03"/><path class="cls-8" d="M1229,441.18l16.16,11.9a24.79,24.79,0,0,1,5.25,34.67l-27.21,36.94a18,18,0,0,1-6.92,5.65l-3.71,1.7-18.09,24.57a4.79,4.79,0,0,1-1.41,1.28l-2.09,1.26L1112.22,666l-57.88-42.64,80-108.56-14.79-10.9,53.76-73A24.78,24.78,0,0,1,1208,425.7Z"/><polyline class="cls-5" points="1178.56 449.01 1132.05 512.16 1193.72 557.59"/><line class="cls-5" x1="1148.57" y1="549.44" x2="1080.11" y2="642.38"/><path class="cls-13" d="M1187.05,500.56l-7.26-15.05a5.67,5.67,0,0,0-8.5-2.07l-7.08,5.29a5.69,5.69,0,0,0-.53,8.64l15.09,14.44"/><path class="cls-5" d="M1219,490.09l-10,13.63a7.28,7.28,0,0,1-10.18,1.54l-9.82-7.23-11.32,15.36,24.08,17.74c3.2,2.36,8.32,2,11,.56"/><path class="cls-5" d="M1187.05,500.56l-7.26-15.05a5.67,5.67,0,0,0-8.5-2.07l-7.08,5.29a5.69,5.69,0,0,0-.53,8.64l15.09,14.44"/><path class="cls-9" d="M1220.76,426c2.84,7,6.59,10.07,14.47,10.66"/><path class="cls-9" d="M1232,418.78a5.78,5.78,0,0,0-9.3-6.85"/><path class="cls-9" d="M1247.26,430.06a5.77,5.77,0,0,0-9.29-6.85"/><path class="cls-8" d="M1035.73,622.56l-2.88,3.91,32.53,23.95,2.87-3.91a10.39,10.39,0,0,1,11-3.87l.43-.58-29.46-21.7A10.36,10.36,0,0,0,1035.73,622.56Z"/><path class="cls-8" d="M1112.21,666l-29.46-21.7a10.36,10.36,0,0,0-14.49,2.19l-2.88,3.91,37.81,27.86Z"/><path class="cls-5" d="M1165.15,498.84l-1.81-1.72a5.69,5.69,0,0,1,.53-8.64l7.08-5.29a5.66,5.66,0,0,1,8.5,2.08l3.08,6.38,4.19,8.66"/><path class="cls-10" d="M1176.16,462.53l-17.93,28.23a3.14,3.14,0,0,0,1,4.35l6.29,4-1.81-1.72a5.67,5.67,0,0,1,.53-8.64l7.08-5.3a5.67,5.67,0,0,1,8.5,2.09l3.08,6.38,11.37-17.9a3.14,3.14,0,0,0-1-4.34l-12.77-8.1A3.14,3.14,0,0,0,1176.16,462.53Z"/><path class="cls-5" d="M1176.16,462.53l-17.93,28.23a3.14,3.14,0,0,0,1,4.35l6.29,4-1.81-1.72a5.67,5.67,0,0,1,.53-8.64l7.08-5.3a5.67,5.67,0,0,1,8.5,2.09l3.08,6.38,11.37-17.9a3.14,3.14,0,0,0-1-4.34l-12.77-8.1A3.14,3.14,0,0,0,1176.16,462.53Z"/><path class="cls-8" d="M1283.54,428.21c11.55-15.68,8.57-34.9-7.11-46.45l-5.88-4.33c-15.68-11.55-38.11-11.05-49.66,4.63l-22,29.78c-.06.1.08-.09,0,0-6.82,9.27,1.5,27.86,18.8,40.6s37,14.83,43.86,5.56h0Z"/><path class="cls-13" d="M1251.59,445.82c-5.44,7.38-16.59,9-24,3.54l-9-6.62c-7.38-5.44-8.29-15.91-2.85-23.3l14.39-19.52a13.14,13.14,0,0,1,18.37-2.79l14.64,10.79a13.14,13.14,0,0,1,2.79,18.37Z"/><path class="cls-8" d="M1261.65,432.15l-10.06,13.67c-5.44,7.38-16.59,9-24,3.54l-9-6.62c-7.38-5.44-8.29-15.91-2.85-23.3l11.72-15.9"/><path class="cls-11" d="M1251.59,445.82c-5.44,7.38-16.59,9-24,3.54l-9-6.62c-7.38-5.44-8.29-15.91-2.85-23.3l14.39-19.52a13.14,13.14,0,0,1,18.37-2.79l14.64,10.79a13.14,13.14,0,0,1,2.79,18.37Z"/><path class="cls-11" d="M1261.65,432.15l-10.06,13.67c-5.44,7.38-16.59,9-24,3.54l-9-6.62c-7.38-5.44-8.29-15.91-2.85-23.3l11.72-15.9"/><path class="cls-5" d="M1228.14,413a4.63,4.63,0,1,1,7.45,5.5"/><path class="cls-5" d="M1242.27,423.39a4.63,4.63,0,0,1,7.46,5.49"/><path class="cls-5" d="M1224.57,427c2.36,12.69,14.08,10.37,14.08,10.37"/><path class="cls-6" d="M1270.88,392.43c-5.65-5.6-11-7.23-19.11-8-6.31-.63-6.72-8.39-6.72-8.39-9.63,6.43-19.34,25.26-19.24,29.83l3.85-5.23c2.71-3.68,9-7.61,11.79-4.54,9.4,10.37,16.68,3.56,23.8,16.74,1.87,3.46-1,9.08-3.38,13.73-1,2.08-1.71,6.82-1.71,6.82l-.32.41c4.73-1.69,13.07-11.33,16-17.41C1278.92,410,1279.42,400.9,1270.88,392.43Z"/><path class="cls-8" d="M1270.88,392.43c-5.65-5.6-11-7.23-19.11-8-6.31-.63-6.72-8.39-6.72-8.39-9.63,6.43-19.34,25.26-19.24,29.83l3.85-5.23c2.71-3.68,9-7.61,11.79-4.54,9.4,10.37,16.68,3.56,23.8,16.74,1.87,3.46-1,9.08-3.38,13.73-1,2.08-1.71,6.82-1.71,6.82l-.32.41c4.73-1.69,13.07-11.33,16-17.41C1278.92,410,1279.42,400.9,1270.88,392.43Z"/><path class="cls-11" d="M1270.88,392.43c-5.65-5.6-11-7.23-19.11-8-6.31-.63-6.72-8.39-6.72-8.39-9.63,6.43-19.34,25.26-19.24,29.83l3.85-5.23c2.71-3.68,9-7.61,11.79-4.54,9.4,10.37,16.68,3.56,23.8,16.74,1.87,3.46-1,9.08-3.38,13.73-1,2.08-1.71,6.82-1.71,6.82l-.32.41c4.73-1.69,13.07-11.33,16-17.41C1278.92,410,1279.42,400.9,1270.88,392.43Z"/><path class="cls-11" d="M1270.88,392.43c-5.65-5.6-11-7.23-19.11-8-6.31-.63-6.72-8.39-6.72-8.39-9.63,6.43-19.34,25.26-19.24,29.83l3.85-5.23c2.71-3.68,9-7.61,11.79-4.54,9.4,10.37,16.68,3.56,23.8,16.74,1.87,3.46-1,9.08-3.38,13.73-1,2.08-1.71,6.82-1.71,6.82l-.32.41c4.73-1.69,13.07-11.33,16-17.41C1278.92,410,1279.42,400.9,1270.88,392.43Z"/><path class="cls-14" d="M778.47,368.23l20.14-1.11,6.74,19.3a2.06,2.06,0,0,1-1.87,2.74l-30.31,1.68a29.67,29.67,0,0,0,5.3-22.61"/><path class="cls-15" d="M765.45,269.59c2.47-6.95,10.31-9.06,12.56-9.18l2.13-.12a18.49,18.49,0,0,1,19.54,17.81l4.07,73.78a18.31,18.31,0,0,1-17.47,19.64l-2.13.12a21.07,21.07,0,0,1-5.36-.35"/><path class="cls-8" d="M765.43,269.22c2.47-7,10.29-9.43,12.54-9.56l2.13-.11c10.47-.58,19.74,8,20.32,18.51l4.07,73.78a19.57,19.57,0,0,1-18.16,20.42l-2.14.12a15.58,15.58,0,0,1-4.53-.45"/><path class="cls-1" d="M709.27,537l37.78-2.3s1.37-.79,1.83-.2-.24-16.12-.24-16.12l-6.27-101.09s7.15,100.12,6.73,100.55l.64,17.22,39.44-2.17s1.2-15.73-16.85-15.77c-4.7-49.4,5.07-108.43,5.07-108.43-4.09-9.39-3.33-20-3.33-26.66,4.75,1.43,3.32-14.15,3.5-32.67,0-3.56,3.65-2.42,3.66-6.17.12-26.61-3.77-60.5-4.62-62.41-1.59-3.59-5.78-11.58-13.18-13.63s-55.5.68-60.2,1-23.71,3.85-22.6,30,5.53,89,5.53,89l18.59-.59s20,134.51,19.7,134.05S705,521.33,709.27,537Z"/><path class="cls-16" d="M705.49,385.87l-15.57.86,1.11,20c.32,5.87,4.7,10.25,12,10.51l6.26-.59"/><polygon class="cls-13" points="770.53 518.77 763.56 519.43 765.1 382.99 772.07 382.33 770.53 518.77"/><path class="cls-8" d="M788.69,533.44l-38.84,1.84-1-16.31,26.94-1.15A12,12,0,0,1,788.43,529Z"/><path class="cls-8" d="M708.43,537.34,749.3,535,749,518.62l-29,2.14a12,12,0,0,0-11.67,12.15Z"/><line class="cls-5" x1="704.01" y1="385.95" x2="777.9" y2="382.15"/><line class="cls-5" x1="701.04" y1="386.12" x2="696.58" y2="305.29"/><path class="cls-8" d="M764.12,221.79c-1.14-20.79-16.69-34.6-37.47-33.45l-7.79.43c-20.78,1.14-38.94,16.82-37.79,37.6l2.18,39.49c0,.12,0-.13,0,0,.68,12.28,20.18,21.94,43.12,20.68s40.61-13,39.93-25.27c0-.12,0,.12,0,0Z"/><path class="cls-8" d="M703.48,268.55h0c-13.21.73-23.89,12-23.16,25.18l5.06,91.61c.07,1.21,1.53,1.56,2.75,1.49l16.62-.92,19.87,134.63,23.76-1.8-6.32-105.51,6.81,105.12,23.37-.06,1.33-135.8c2.07-.12,5.66-2.47,5.45-6.18l-2-29.45c5.5-2.25,5.5-10.62,5-20.62s-2.4-39-2.4-39c-.69-12.46-12-22.07-24.47-21.38l-6.45.11"/><path class="cls-5" d="M757.86,305.68l.68,16.91a7.28,7.28,0,0,1-7,7.56l-12.19.5.77,19.07,32.09-1.82c4-.16,7.72-3.67,9-6.45"/><path class="cls-5" d="M739.5,333.79l-15.08-7.2a5.66,5.66,0,0,0-7.93,3.69l-2.22,8.56a5.66,5.66,0,0,0,5,7.07l20.8,1.84"/><path class="cls-5" d="M721.33,346.14l-2.49-.21a5.68,5.68,0,0,1-5-7.07l2.21-8.56a5.67,5.67,0,0,1,7.94-3.69l6.4,3.06,8.68,4.14"/><path class="cls-10" d="M707.22,310.91l3.65,33.25a3.15,3.15,0,0,0,3.47,2.79l7.41-.82-2.49-.22a5.66,5.66,0,0,1-5-7.07l2.21-8.56a5.67,5.67,0,0,1,7.94-3.69l6.4,3.06-2.31-21.08a3.16,3.16,0,0,0-3.48-2.79l-15,1.66A3.14,3.14,0,0,0,707.22,310.91Z"/><path class="cls-5" d="M707.22,310.91l3.65,33.25a3.15,3.15,0,0,0,3.47,2.79l7.41-.82-2.49-.22a5.66,5.66,0,0,1-5-7.07l2.21-8.56a5.67,5.67,0,0,1,7.94-3.69l6.4,3.06-2.31-21.08a3.16,3.16,0,0,0-3.48-2.79l-15,1.66A3.14,3.14,0,0,0,707.22,310.91Z"/><path class="cls-17" d="M704.5,218.33c-.58-9.92-.92-13.7,4.55-18.83,7.71-7.24,27.28-6.66,35.85,3,4.49,5.09,6.75,13.76,6.53,21-.17,5.77,0,10.89,2.16,12.45,2.66,1.9,8.23-2.19,8.23-2.19,3.47,2.09,2.95,14-3.73,20.78-7.4,7.47-19.15,5.26-22.47,4.64a34,34,0,0,1-23-16.65C709.44,236.81,705.2,230.41,704.5,218.33Z"/><path class="cls-18" d="M721.94,279.64l6.46-.51A20.64,20.64,0,0,0,747.28,257l-2.35-29.66a16.81,16.81,0,0,0-18-15.39l-14,1.11a16.81,16.81,0,0,0-15.39,18l2.35,29.66A20.64,20.64,0,0,0,721.94,279.64Z"/><path class="cls-19" d="M709.37,212.07c.29,3.59,4.85,6.16,10.2,5.74s9.45-3.68,9.17-7.28-4.85-6.16-10.2-5.74S709.09,208.47,709.37,212.07Z"/><path class="cls-17" d="M699,250.67c1.22-10,.51-12.63,3.64-17.58l5.69,3.95c10.67,6.75,24.83,9.25,37.46,9.11,4.9-.05,8.61,0,8.61,0-4.89-2.31-5.68-8-5.95-11.53L748,229.4a22.93,22.93,0,0,0-24.59-21l-8.35.67a22.92,22.92,0,0,0-21,24.58l.41,5.17A22.68,22.68,0,0,0,699,250.67"/><path class="cls-5" d="M736.63,253a4.16,4.16,0,0,0-8.29.79"/><path class="cls-5" d="M716.9,255.72a4.16,4.16,0,0,0-8.29.79"/><path class="cls-8" d="M712.56,267.06a13.44,13.44,0,0,0,19.67,2.31"/><path class="cls-4" d="M293.73,475s57.5-35,134-60.5c0-1,5-20.5,5-20.5,48.5-15,102-27.5,126.5-31"/><path class="cls-4" d="M449.23,407c58.5-18,134.5-33,184-37-1-1.5,5.5-17.5,5.5-17.5l34-3"/><path class="cls-4" d="M343.23,430s31.84-13.69,54.36-22.78"/><path class="cls-4" d="M441.46,370.52c20.82-6.84,40.82-12.7,56.27-16"/><path class="cls-4" d="M226.23,469s34.5-20.5,45.5-26l23.5,10.5s29.5-15.5,32-17c1.5-9,3-22,3-22,6.68-4.39,28.07-13.64,54.43-23.74"/><line class="cls-4" x1="524.23" y1="347.99" x2="538.23" y2="344.99"/><line class="cls-4" x1="547.73" y1="343.99" x2="555.23" y2="342.49"/><path class="cls-4" d="M560.73,342l5-1,13,19,39.5-5c3-11.5,6-22,6-22l48.5-3.5"/><polyline class="cls-4" points="296.23 460.99 290.73 476.49 305.73 477.49"/><polyline class="cls-4" points="664.73 320.99 676.23 329.99 665.23 337.99"/><path class="cls-4" d="M434.29,351.32c39-12.71,84.63-25.14,124.94-29.83"/><path class="cls-4" d="M341.23,386s14.35-6.22,37-14.85"/><path class="cls-4" d="M951.71,379.05c-8-2.13-14.88-3.82-20.34-4.95"/><path class="cls-4" d="M1099.9,451.63c-12.62-6.06-26.2-12.14-40.5-17.93.06-1-3.71-20.77-3.71-20.77-16.84-6.38-34.32-12.49-51-17.94"/><path class="cls-4" d="M1038.41,424.88c-57.26-21.62-132.18-41.33-181.33-48.41,1.09-1.43-4.4-17.81-4.4-17.81l-33.75-5.11"/><path class="cls-4" d="M1127.57,446.81c-15.85-7.92-40-19.88-51.89-25.11"/><path class="cls-4" d="M1057.65,392.69c-15.08-6.18-30.05-11.94-43.46-16.58"/><path class="cls-4" d="M931.18,353.05l-4.93-1.31-14.16,18.15L873,362.44c-2.27-11.67-4.61-22.33-4.61-22.33l-48.19-6.52"/><polyline class="cls-4" points="828.69 325.6 816.65 333.87 827.13 342.54"/><path class="cls-4" d="M950.71,336.09c-5.66-1.27-11.25-2.42-16.75-3.41"/><path class="cls-4" d="M1147.73,434c-18.5-11.5-68.5-33-68.5-33l1.31-21c-17.51-7.39-37.31-15.27-57.95-22.57"/><path class="cls-4" d="M1147.51,410.65s-8.06-4.1-21.62-10.47"/><path class="cls-10" d="M426.15,392.79l-6,2.54q-1.47-3.51-3-7l-3.84,1.62c1,2.36,2,4.69,3,7l-6,2.54-3-7.08-12.75,5.38c-.85-2-1.68-4-2.52-6l.53-.22c.78-.35,1.58-.68,2.35-1.05a2.12,2.12,0,0,0,1.19-3c-.23-.62-.46-1.24-.71-1.85q-4.62-11-9.25-21.94c-.42-1-.86-2-1.31-2.95a2.16,2.16,0,0,0-3-1.28c-.82.29-1.63.65-2.44,1l-.49.18-2.52-6,12.75-5.38c-1-2.39-2-4.71-3-7l6-2.55q1.47,3.51,3,7l3.84-1.62-3-7,6-2.54.25.54c.87,2.06,1.75,4.11,2.59,6.18.19.47.39.65.9.46a8.81,8.81,0,0,1,1.25-.32,13.85,13.85,0,0,1,6.86.08,10.08,10.08,0,0,1,6.54,5.42,10,10,0,0,1,.89,6.12,12.39,12.39,0,0,1-4,7l-.43.43a1.11,1.11,0,0,0,.59,0,16.66,16.66,0,0,1,5.32,0,10.1,10.1,0,0,1,6.62,4.16c3,4.25,3,8.71.54,13.2a16.89,16.89,0,0,1-6.44,6.17c-.41.24-.46.43-.28.84C424.23,388.18,425.18,390.48,426.15,392.79ZM402.08,371.9c.05.15.08.24.12.33,1.28,3,2.55,6.07,3.84,9.09a21.14,21.14,0,0,0,.94,1.91.94.94,0,0,0,1.25.52c1.48-.55,3-1.1,4.42-1.74a39.29,39.29,0,0,0,3.67-1.84,6.59,6.59,0,0,0,2.83-3.09,6.77,6.77,0,0,0,.06-5.3,5.72,5.72,0,0,0-5.64-3.87,12.86,12.86,0,0,0-4.42,1c-2.25.87-4.47,1.84-6.7,2.77A2.62,2.62,0,0,0,402.08,371.9Zm-2.68-6.39c.16-.05.28-.07.4-.12,1.48-.63,3-1.24,4.43-1.88A20.67,20.67,0,0,0,409,360.9a5.66,5.66,0,0,0,2.25-3.45c.59-3.27-2-7.05-6.1-6.21a18.75,18.75,0,0,0-2.95.84c-2.29.9-4.56,1.87-6.83,2.81-.12.05-.23.12-.37.19C396.47,358.55,397.92,362,399.4,365.51Z"/><path class="cls-10" d="M985.13,398.76,979,396.55q1.28-3.58,2.57-7.17L977.61,388c-.86,2.42-1.71,4.8-2.57,7.18l-6.16-2.22c.86-2.39,1.71-4.78,2.59-7.23l-13-4.67c.74-2.06,1.45-4,2.18-6.1l.54.19c.82.28,1.62.58,2.45.83a2.13,2.13,0,0,0,2.92-1.42c.24-.62.5-1.23.72-1.85q4-11.21,8-22.41c.36-1,.7-2,1-3a2.16,2.16,0,0,0-1.34-3c-.8-.34-1.63-.62-2.45-.94l-.49-.2c.74-2.05,1.45-4,2.19-6.1l13,4.66c.88-2.44,1.73-4.82,2.58-7.2l6.17,2.21q-1.29,3.58-2.57,7.18l3.92,1.41c.86-2.42,1.72-4.8,2.57-7.18l6.17,2.21c-.07.19-.12.38-.19.56-.75,2.1-1.49,4.21-2.27,6.3-.18.48-.16.75.35,1a9.58,9.58,0,0,1,1.14.61,13.75,13.75,0,0,1,5,4.71,10.21,10.21,0,0,1-2.33,13.52,12.45,12.45,0,0,1-7.69,2.48l-.6,0a1.2,1.2,0,0,0,.4.43,16.77,16.77,0,0,1,3.94,3.58,10.1,10.1,0,0,1,2.06,7.55c-.68,5.15-3.66,8.46-8.54,10.08a16.74,16.74,0,0,1-8.91.18c-.47-.1-.63,0-.78.44C986.83,394.07,986,396.41,985.13,398.76Zm-3.6-31.67c-.06.15-.09.24-.13.33q-1.67,4.65-3.32,9.29a20.9,20.9,0,0,0-.6,2.05.94.94,0,0,0,.57,1.22c1.46.61,2.93,1.2,4.43,1.72a38.62,38.62,0,0,0,3.95,1.12,6.51,6.51,0,0,0,4.17-.37,6.76,6.76,0,0,0,3.64-3.85,5.72,5.72,0,0,0-1.55-6.67,12.94,12.94,0,0,0-3.94-2.23c-2.25-.88-4.54-1.67-6.8-2.49C981.83,367.16,981.7,367.14,981.53,367.09Zm2.35-6.51.39.18c1.5.54,3,1.09,4.52,1.62a20.93,20.93,0,0,0,5.28,1.3,5.65,5.65,0,0,0,4-1c2.65-2,3.29-6.56-.29-8.7a18,18,0,0,0-2.74-1.37c-2.29-.9-4.62-1.72-6.93-2.56a3.26,3.26,0,0,0-.4-.11C986.43,353.47,985.17,357,983.88,360.58Z"/><path class="cls-4" d="M475.06,460.49a820.93,820.93,0,0,0-151.29,64.84"/><polyline class="cls-4" points="1148.23 423.49 1150.73 435.99 1139.23 436.99"/></svg>