<svg id="work" xmlns="http://www.w3.org/2000/svg" viewBox="0 0 1422 870"><defs><style>.Graphic-Style-5,.cls-4{fill:none;}.Graphic-Style-5{stroke:#ff0083;}.Graphic-Style-5,.cls-1,.cls-4,.cls-5{stroke-linecap:round;stroke-linejoin:round;stroke-width:2.5px;}.cls-1,.cls-3{fill:#ebebeb;}.cls-1,.cls-4,.cls-5{stroke:#4a4a4a;}.cls-2,.cls-5{fill:#fff;}.cls-6{fill:#ff0083;}</style></defs><title>21,2_1</title><polyline class="Graphic-Style-5" points="498.81 242.98 542.72 242.98 552.68 252.94 589.68 252.94"/><line class="Graphic-Style-5" x1="504.35" y1="257.49" x2="521.02" y2="257.49"/><polyline class="Graphic-Style-5" points="504.35 296.89 552.35 296.89 581.48 326.02"/><polyline class="Graphic-Style-5" points="498.81 308.77 544.24 308.77 573.55 338.08 828.35 338.08 847.69 318.74 869.02 318.74"/><line class="Graphic-Style-5" x1="789.02" y1="233.03" x2="869.02" y2="233.03"/><polyline class="Graphic-Style-5" points="783.68 221.02 821.02 221.02 833.61 208.43 875.02 208.43"/><line class="Graphic-Style-5" x1="837.53" y1="221.37" x2="866.35" y2="221.37"/><line class="Graphic-Style-5" x1="629.88" y1="296.89" x2="629.88" y2="322.63"/><line class="Graphic-Style-5" x1="623.94" y1="347.28" x2="604.48" y2="366.75"/><line class="Graphic-Style-5" x1="581.48" y1="388.62" x2="515.75" y2="454.35"/><polyline class="Graphic-Style-5" points="475.38 490.87 428.55 537.71 428.55 549.9 404.73 549.9 376.86 577.77 365.02 577.77"/><polyline class="Graphic-Style-5" points="578.35 360.62 613.65 395.92 636.35 395.92 808.65 568.22"/><line class="Graphic-Style-5" x1="683.91" y1="300.65" x2="683.91" y2="324.48"/><line class="Graphic-Style-5" x1="683.91" y1="347.28" x2="683.91" y2="430.54"/><polyline class="Graphic-Style-5" points="683.91 454.35 683.91 464.42 790.01 570.51"/><polyline class="Graphic-Style-5" points="700.35 301.25 700.35 439.28 790.55 529.48 925.02 529.48 954.53 558.99 1013.02 558.99"/><line class="Graphic-Style-5" x1="644.35" y1="558.99" x2="699.28" y2="504.07"/><polyline class="Graphic-Style-5" points="743.02 459.95 768.98 433.99 866.35 433.99 918.57 381.77 918.57 360.62"/><polyline class="Graphic-Style-5" points="934.35 360.62 934.35 392.62 879.23 447.74 879.23 514.43"/><line class="Graphic-Style-5" x1="879.23" y1="538.7" x2="879.23" y2="565.57"/><polyline class="Graphic-Style-5" points="950.35 360.62 950.35 430.54 971.39 451.58"/><polyline class="Graphic-Style-5" points="964.73 360.62 964.73 421.48 991.44 448.19 991.44 470.97 1010 489.52"/><polyline class="Graphic-Style-5" points="644.35 296.89 644.35 350.13 617.24 377.24"/><line class="Graphic-Style-5" x1="595.02" y1="402.62" x2="514.23" y2="483.41"/><polyline class="Graphic-Style-5" points="444.35 357.01 444.35 430.12 488.73 474.5 488.73 500.6 507.39 519.27 507.39 552.13"/><polyline class="Graphic-Style-5" points="424.35 357.01 424.35 425.95 402.49 447.81"/><polyline class="Graphic-Style-5" points="404.73 354.62 404.73 412.62 382.02 435.33 382.02 475.28 354.4 502.9"/><line class="Graphic-Style-5" x1="934.35" y1="650.94" x2="1010" y2="650.94"/><polyline class="Graphic-Style-5" points="929.02 668.29 972.18 668.29 989.15 685.27 1018.35 685.27"/><polyline class="Graphic-Style-5" points="734.35 669.72 683.91 669.72 662.92 690.71 636.35 690.71"/><line class="Graphic-Style-5" x1="636.35" y1="658.5" x2="661.69" y2="658.5"/><line class="Graphic-Style-5" x1="685.35" y1="687.06" x2="734.35" y2="687.06"/><polyline class="Graphic-Style-5" points="347.68 662.39 387.68 662.39 395.93 670.64 438.68 670.64"/><line class="Graphic-Style-5" x1="350.68" y1="648.39" x2="438.68" y2="648.39"/><line class="Graphic-Style-5" x1="358.68" y1="675.39" x2="381.18" y2="675.39"/><rect class="cls-1" x="313.51" y="92.28" width="162.44" height="241.38" rx="7.87" ry="7.87"/><polygon class="cls-2" points="454.13 148.28 469.43 135.98 469.43 286.77 454.13 275.53 454.13 148.28"/><polygon class="cls-3" points="469.32 146.35 460.89 153.81 460.89 192.41 469.63 183.68 469.63 193.84 460.89 201.42 460.89 235.23 468.97 227.07 469.32 234.48 460.48 244.35 460.48 279.61 454.13 275.64 454.54 149.75 469.32 134.81 469.32 146.35"/><polyline class="cls-4" points="475.95 130.87 454.82 148.84 454.82 275.64 475.39 291.25"/><polyline class="cls-4" points="469.32 136.82 469.32 182.41 455.02 197.12"/><polyline class="cls-4" points="469.32 182.68 469.32 225.36 455.02 240.07"/><line class="cls-4" x1="469.32" y1="225.36" x2="469.32" y2="285.79"/><path class="cls-5" d="M331.88,113.2a5.94,5.94,0,1,0-5.94,5.94A5.94,5.94,0,0,0,331.88,113.2Z"/><path class="cls-5" d="M331.88,134.81a5.94,5.94,0,1,0-5.94,5.94A5.94,5.94,0,0,0,331.88,134.81Z"/><path class="cls-5" d="M331.88,156.51a5.94,5.94,0,1,0-5.94,5.94A5.94,5.94,0,0,0,331.88,156.51Z"/><path class="cls-5" d="M331.88,178.17a5.94,5.94,0,1,0-5.94,5.94A5.94,5.94,0,0,0,331.88,178.17Z"/><path class="cls-5" d="M331.88,199.78a5.94,5.94,0,1,0-5.94,5.94A5.94,5.94,0,0,0,331.88,199.78Z"/><path class="cls-5" d="M331.88,221.48a5.94,5.94,0,1,0-5.94,5.94A5.94,5.94,0,0,0,331.88,221.48Z"/><path class="cls-5" d="M331.88,243a5.94,5.94,0,1,0-5.94,5.94A5.94,5.94,0,0,0,331.88,243Z"/><path class="cls-5" d="M331.88,264.65a5.94,5.94,0,1,0-5.94,5.94A5.94,5.94,0,0,0,331.88,264.65Z"/><path class="cls-5" d="M331.88,286.36a5.94,5.94,0,1,0-5.94,5.93A5.94,5.94,0,0,0,331.88,286.36Z"/><path class="cls-5" d="M331.88,308a5.94,5.94,0,1,0-5.94,5.94A5.94,5.94,0,0,0,331.88,308Z"/><line class="cls-4" x1="310.06" y1="111.54" x2="327.19" y2="111.54"/><line class="cls-4" x1="310.06" y1="115.14" x2="327.19" y2="115.14"/><line class="cls-4" x1="310.06" y1="133.12" x2="327.19" y2="133.12"/><line class="cls-4" x1="310.06" y1="136.71" x2="327.19" y2="136.71"/><line class="cls-4" x1="310.06" y1="154.7" x2="327.19" y2="154.7"/><line class="cls-4" x1="310.06" y1="158.29" x2="327.19" y2="158.29"/><line class="cls-4" x1="310.06" y1="176.28" x2="327.19" y2="176.28"/><line class="cls-4" x1="310.06" y1="179.87" x2="327.19" y2="179.87"/><line class="cls-4" x1="310.06" y1="197.86" x2="327.19" y2="197.86"/><line class="cls-4" x1="310.06" y1="201.45" x2="327.19" y2="201.45"/><line class="cls-4" x1="310.06" y1="219.44" x2="327.19" y2="219.44"/><line class="cls-4" x1="310.06" y1="223.03" x2="327.19" y2="223.03"/><line class="cls-4" x1="310.06" y1="241.02" x2="327.19" y2="241.02"/><line class="cls-4" x1="310.06" y1="244.61" x2="327.19" y2="244.61"/><line class="cls-4" x1="310.06" y1="262.6" x2="327.19" y2="262.6"/><line class="cls-4" x1="310.06" y1="266.19" x2="327.19" y2="266.19"/><line class="cls-4" x1="310.06" y1="284.18" x2="327.19" y2="284.18"/><line class="cls-4" x1="310.06" y1="287.77" x2="327.19" y2="287.77"/><line class="cls-4" x1="310.06" y1="305.75" x2="327.19" y2="305.75"/><line class="cls-4" x1="310.06" y1="309.35" x2="327.19" y2="309.35"/><rect class="cls-1" x="609.86" y="36.83" width="162.44" height="241.38" rx="7.87" ry="7.87"/><polygon class="cls-2" points="750.48 92.84 765.77 80.53 765.77 231.32 750.48 220.09 750.48 92.84"/><polygon class="cls-3" points="765.67 90.91 757.24 98.37 757.24 136.97 765.98 128.23 765.98 138.39 757.24 145.97 757.24 179.79 765.32 171.63 765.67 179.03 756.83 188.9 756.83 224.16 750.48 220.2 750.89 94.3 765.67 79.37 765.67 90.91"/><polyline class="cls-4" points="772.3 75.43 751.17 93.39 751.17 220.2 771.74 235.8"/><polyline class="cls-4" points="765.67 81.38 765.67 126.96 751.37 141.67"/><polyline class="cls-4" points="765.67 127.24 765.67 169.92 751.37 184.63"/><line class="cls-4" x1="765.67" y1="169.92" x2="765.67" y2="230.35"/><path class="cls-5" d="M628.23,57.76a5.94,5.94,0,1,0-5.94,5.94A5.94,5.94,0,0,0,628.23,57.76Z"/><path class="cls-5" d="M628.23,79.37a5.94,5.94,0,1,0-5.94,5.94A5.94,5.94,0,0,0,628.23,79.37Z"/><path class="cls-5" d="M628.23,101.07a5.94,5.94,0,1,0-5.94,5.94A5.94,5.94,0,0,0,628.23,101.07Z"/><path class="cls-5" d="M628.23,122.72a5.94,5.94,0,1,0-5.94,5.94A5.94,5.94,0,0,0,628.23,122.72Z"/><path class="cls-5" d="M628.23,144.33a5.94,5.94,0,1,0-5.94,5.94A5.94,5.94,0,0,0,628.23,144.33Z"/><path class="cls-5" d="M628.23,166a5.94,5.94,0,1,0-5.94,5.94A5.93,5.93,0,0,0,628.23,166Z"/><path class="cls-5" d="M628.23,187.6a5.94,5.94,0,1,0-5.94,5.94A5.94,5.94,0,0,0,628.23,187.6Z"/><path class="cls-5" d="M628.23,209.21a5.94,5.94,0,1,0-5.94,5.94A5.94,5.94,0,0,0,628.23,209.21Z"/><path class="cls-5" d="M628.23,230.91a5.94,5.94,0,1,0-5.94,5.94A5.94,5.94,0,0,0,628.23,230.91Z"/><path class="cls-5" d="M628.23,252.56a5.94,5.94,0,1,0-5.94,5.94A5.94,5.94,0,0,0,628.23,252.56Z"/><line class="cls-4" x1="606.4" y1="56.1" x2="623.53" y2="56.1"/><line class="cls-4" x1="606.4" y1="59.69" x2="623.53" y2="59.69"/><line class="cls-4" x1="606.4" y1="77.68" x2="623.53" y2="77.68"/><line class="cls-4" x1="606.4" y1="81.27" x2="623.53" y2="81.27"/><line class="cls-4" x1="606.4" y1="99.26" x2="623.53" y2="99.26"/><line class="cls-4" x1="606.4" y1="102.85" x2="623.53" y2="102.85"/><line class="cls-4" x1="606.4" y1="120.84" x2="623.53" y2="120.84"/><line class="cls-4" x1="606.4" y1="124.43" x2="623.53" y2="124.43"/><line class="cls-4" x1="606.4" y1="142.42" x2="623.53" y2="142.42"/><line class="cls-4" x1="606.4" y1="146.01" x2="623.53" y2="146.01"/><line class="cls-4" x1="606.4" y1="163.99" x2="623.53" y2="163.99"/><line class="cls-4" x1="606.4" y1="167.59" x2="623.53" y2="167.59"/><line class="cls-4" x1="606.4" y1="185.57" x2="623.53" y2="185.57"/><line class="cls-4" x1="606.4" y1="189.16" x2="623.53" y2="189.16"/><line class="cls-4" x1="606.4" y1="207.15" x2="623.53" y2="207.15"/><line class="cls-4" x1="606.4" y1="210.74" x2="623.53" y2="210.74"/><line class="cls-4" x1="606.4" y1="228.73" x2="623.53" y2="228.73"/><line class="cls-4" x1="606.4" y1="232.32" x2="623.53" y2="232.32"/><line class="cls-4" x1="606.4" y1="250.31" x2="623.53" y2="250.31"/><line class="cls-4" x1="606.4" y1="253.9" x2="623.53" y2="253.9"/><rect class="cls-1" x="892.19" y="102.59" width="162.44" height="241.38" rx="7.87" ry="7.87"/><polygon class="cls-2" points="1032.81 158.59 1048.11 146.29 1048.11 297.08 1032.81 285.84 1032.81 158.59"/><polygon class="cls-3" points="1048 156.66 1039.58 164.12 1039.58 202.72 1048.31 193.99 1048.31 204.15 1039.58 211.73 1039.58 245.54 1047.65 237.38 1048 244.79 1039.16 254.66 1039.16 289.92 1032.81 285.95 1033.22 160.06 1048 145.12 1048 156.66"/><polyline class="cls-4" points="1054.63 141.19 1033.5 159.15 1033.5 285.95 1054.07 301.56"/><polyline class="cls-4" points="1048 147.13 1048 192.72 1033.71 207.43"/><polyline class="cls-4" points="1048 192.99 1048 235.68 1033.71 250.39"/><line class="cls-4" x1="1048" y1="235.67" x2="1048" y2="296.11"/><path class="cls-5" d="M910.56,123.51a5.94,5.94,0,1,0-5.93,5.94A5.94,5.94,0,0,0,910.56,123.51Z"/><path class="cls-5" d="M910.56,145.12a5.94,5.94,0,1,0-5.93,5.94A5.94,5.94,0,0,0,910.56,145.12Z"/><path class="cls-5" d="M910.56,166.83a5.94,5.94,0,1,0-5.93,5.93A5.93,5.93,0,0,0,910.56,166.83Z"/><path class="cls-5" d="M910.56,188.48a5.94,5.94,0,1,0-5.93,5.94A5.94,5.94,0,0,0,910.56,188.48Z"/><path class="cls-5" d="M910.56,210.09a5.94,5.94,0,1,0-5.93,5.94A5.94,5.94,0,0,0,910.56,210.09Z"/><path class="cls-5" d="M910.56,231.79a5.94,5.94,0,1,0-5.93,5.94A5.94,5.94,0,0,0,910.56,231.79Z"/><path class="cls-5" d="M910.56,253.36a5.94,5.94,0,1,0-5.93,5.93A5.94,5.94,0,0,0,910.56,253.36Z"/><path class="cls-5" d="M910.56,275a5.94,5.94,0,1,0-5.93,5.93A5.93,5.93,0,0,0,910.56,275Z"/><path class="cls-5" d="M910.56,296.67a5.94,5.94,0,1,0-5.93,5.94A5.94,5.94,0,0,0,910.56,296.67Z"/><path class="cls-5" d="M910.56,318.32a5.94,5.94,0,1,0-5.93,5.94A5.94,5.94,0,0,0,910.56,318.32Z"/><line class="cls-4" x1="888.74" y1="121.86" x2="905.87" y2="121.86"/><line class="cls-4" x1="888.74" y1="125.45" x2="905.87" y2="125.45"/><line class="cls-4" x1="888.74" y1="143.43" x2="905.87" y2="143.43"/><line class="cls-4" x1="888.74" y1="147.03" x2="905.87" y2="147.03"/><line class="cls-4" x1="888.74" y1="165.01" x2="905.87" y2="165.01"/><line class="cls-4" x1="888.74" y1="168.6" x2="905.87" y2="168.6"/><line class="cls-4" x1="888.74" y1="186.59" x2="905.87" y2="186.59"/><line class="cls-4" x1="888.74" y1="190.18" x2="905.87" y2="190.18"/><line class="cls-4" x1="888.74" y1="208.17" x2="905.87" y2="208.17"/><line class="cls-4" x1="888.74" y1="211.76" x2="905.87" y2="211.76"/><line class="cls-4" x1="888.74" y1="229.75" x2="905.87" y2="229.75"/><line class="cls-4" x1="888.74" y1="233.34" x2="905.87" y2="233.34"/><line class="cls-4" x1="888.74" y1="251.33" x2="905.87" y2="251.33"/><line class="cls-4" x1="888.74" y1="254.92" x2="905.87" y2="254.92"/><line class="cls-4" x1="888.74" y1="272.91" x2="905.87" y2="272.91"/><line class="cls-4" x1="888.74" y1="276.5" x2="905.87" y2="276.5"/><line class="cls-4" x1="888.74" y1="294.49" x2="905.87" y2="294.49"/><line class="cls-4" x1="888.74" y1="298.08" x2="905.87" y2="298.08"/><line class="cls-4" x1="888.74" y1="316.07" x2="905.87" y2="316.07"/><line class="cls-4" x1="888.74" y1="319.66" x2="905.87" y2="319.66"/><rect class="cls-1" x="1034.27" y="467.53" width="162.44" height="241.38" rx="7.87" ry="7.87"/><polygon class="cls-2" points="1174.88 523.53 1190.18 511.23 1190.18 662.02 1174.88 650.78 1174.88 523.53"/><polygon class="cls-3" points="1190.08 521.61 1181.65 529.07 1181.65 567.66 1190.39 558.93 1190.39 569.09 1181.65 576.67 1181.65 610.49 1189.73 602.32 1190.08 609.73 1181.24 619.6 1181.24 654.86 1174.88 650.9 1175.3 525 1190.08 510.06 1190.08 521.61"/><polyline class="cls-4" points="1196.71 506.13 1175.58 524.09 1175.58 650.9 1196.15 666.5"/><polyline class="cls-4" points="1190.08 512.08 1190.08 557.66 1175.78 572.37"/><polyline class="cls-4" points="1190.08 557.93 1190.08 600.62 1175.78 615.33"/><line class="cls-4" x1="1190.08" y1="600.62" x2="1190.08" y2="661.05"/><path class="cls-5" d="M1052.64,488.46a5.94,5.94,0,1,0-5.94,5.93A5.93,5.93,0,0,0,1052.64,488.46Z"/><path class="cls-5" d="M1052.64,510.07a5.94,5.94,0,1,0-5.94,5.93A5.93,5.93,0,0,0,1052.64,510.07Z"/><path class="cls-5" d="M1052.64,531.77a5.94,5.94,0,1,0-5.94,5.94A5.94,5.94,0,0,0,1052.64,531.77Z"/><path class="cls-5" d="M1052.64,553.42a5.94,5.94,0,1,0-5.94,5.94A5.94,5.94,0,0,0,1052.64,553.42Z"/><path class="cls-5" d="M1052.64,575a5.94,5.94,0,1,0-5.94,5.94A5.94,5.94,0,0,0,1052.64,575Z"/><path class="cls-5" d="M1052.64,596.73a5.94,5.94,0,1,0-5.94,5.94A5.94,5.94,0,0,0,1052.64,596.73Z"/><path class="cls-5" d="M1052.64,618.3a5.94,5.94,0,1,0-5.94,5.94A5.94,5.94,0,0,0,1052.64,618.3Z"/><path class="cls-5" d="M1052.64,639.91a5.94,5.94,0,1,0-5.94,5.94A5.94,5.94,0,0,0,1052.64,639.91Z"/><path class="cls-5" d="M1052.64,661.61a5.94,5.94,0,1,0-5.94,5.94A5.94,5.94,0,0,0,1052.64,661.61Z"/><path class="cls-5" d="M1052.64,683.26a5.94,5.94,0,1,0-5.94,5.94A5.94,5.94,0,0,0,1052.64,683.26Z"/><line class="cls-4" x1="1030.81" y1="486.8" x2="1047.94" y2="486.8"/><line class="cls-4" x1="1030.81" y1="490.39" x2="1047.94" y2="490.39"/><line class="cls-4" x1="1030.81" y1="508.38" x2="1047.94" y2="508.38"/><line class="cls-4" x1="1030.81" y1="511.97" x2="1047.94" y2="511.97"/><line class="cls-4" x1="1030.81" y1="529.96" x2="1047.94" y2="529.96"/><line class="cls-4" x1="1030.81" y1="533.55" x2="1047.94" y2="533.55"/><line class="cls-4" x1="1030.81" y1="551.53" x2="1047.94" y2="551.53"/><line class="cls-4" x1="1030.81" y1="555.13" x2="1047.94" y2="555.13"/><line class="cls-4" x1="1030.81" y1="573.11" x2="1047.94" y2="573.11"/><line class="cls-4" x1="1030.81" y1="576.7" x2="1047.94" y2="576.7"/><line class="cls-4" x1="1030.81" y1="594.69" x2="1047.94" y2="594.69"/><line class="cls-4" x1="1030.81" y1="598.28" x2="1047.94" y2="598.28"/><line class="cls-4" x1="1030.81" y1="616.27" x2="1047.94" y2="616.27"/><line class="cls-4" x1="1030.81" y1="619.86" x2="1047.94" y2="619.86"/><line class="cls-4" x1="1030.81" y1="637.85" x2="1047.94" y2="637.85"/><line class="cls-4" x1="1030.81" y1="641.44" x2="1047.94" y2="641.44"/><line class="cls-4" x1="1030.81" y1="659.43" x2="1047.94" y2="659.43"/><line class="cls-4" x1="1030.81" y1="663.02" x2="1047.94" y2="663.02"/><line class="cls-4" x1="1030.81" y1="681.01" x2="1047.94" y2="681.01"/><line class="cls-4" x1="1030.81" y1="684.6" x2="1047.94" y2="684.6"/><rect class="cls-1" x="758.03" y="580.89" width="162.44" height="241.38" rx="7.87" ry="7.87"/><polygon class="cls-2" points="898.65 636.89 913.95 624.59 913.95 775.38 898.65 764.14 898.65 636.89"/><polygon class="cls-3" points="913.84 634.97 905.42 642.42 905.42 681.02 914.15 672.29 914.15 682.45 905.42 690.03 905.42 723.85 913.5 715.68 913.84 723.09 905 732.96 905 768.22 898.65 764.25 899.06 638.36 913.84 623.42 913.84 634.97"/><polyline class="cls-4" points="920.48 619.49 899.34 637.45 899.34 764.25 919.92 779.86"/><polyline class="cls-4" points="913.84 625.43 913.84 671.02 899.55 685.73"/><polyline class="cls-4" points="913.84 671.29 913.84 713.98 899.55 728.69"/><line class="cls-4" x1="913.84" y1="713.98" x2="913.84" y2="774.41"/><path class="cls-5" d="M776.41,601.81a5.94,5.94,0,1,0-5.94,5.94A5.93,5.93,0,0,0,776.41,601.81Z"/><path class="cls-5" d="M776.41,623.42a5.94,5.94,0,1,0-5.94,5.94A5.93,5.93,0,0,0,776.41,623.42Z"/><path class="cls-5" d="M776.41,645.13a5.94,5.94,0,1,0-5.94,5.94A5.94,5.94,0,0,0,776.41,645.13Z"/><path class="cls-5" d="M776.41,666.78a5.94,5.94,0,1,0-5.94,5.94A5.94,5.94,0,0,0,776.41,666.78Z"/><path class="cls-5" d="M776.41,688.39a5.94,5.94,0,1,0-5.94,5.94A5.94,5.94,0,0,0,776.41,688.39Z"/><path class="cls-5" d="M776.41,710.09a5.94,5.94,0,1,0-5.94,5.94A5.94,5.94,0,0,0,776.41,710.09Z"/><path class="cls-5" d="M776.41,731.66a5.94,5.94,0,1,0-5.94,5.94A5.94,5.94,0,0,0,776.41,731.66Z"/><path class="cls-5" d="M776.41,753.27a5.94,5.94,0,1,0-5.94,5.94A5.94,5.94,0,0,0,776.41,753.27Z"/><path class="cls-5" d="M776.41,775a5.94,5.94,0,1,0-5.94,5.94A5.94,5.94,0,0,0,776.41,775Z"/><path class="cls-5" d="M776.41,796.62a5.94,5.94,0,1,0-5.94,5.94A5.94,5.94,0,0,0,776.41,796.62Z"/><line class="cls-4" x1="754.58" y1="600.16" x2="771.71" y2="600.16"/><line class="cls-4" x1="754.58" y1="603.75" x2="771.71" y2="603.75"/><line class="cls-4" x1="754.58" y1="621.74" x2="771.71" y2="621.74"/><line class="cls-4" x1="754.58" y1="625.33" x2="771.71" y2="625.33"/><line class="cls-4" x1="754.58" y1="643.31" x2="771.71" y2="643.31"/><line class="cls-4" x1="754.58" y1="646.91" x2="771.71" y2="646.91"/><line class="cls-4" x1="754.58" y1="664.89" x2="771.71" y2="664.89"/><line class="cls-4" x1="754.58" y1="668.48" x2="771.71" y2="668.48"/><line class="cls-4" x1="754.58" y1="686.47" x2="771.71" y2="686.47"/><line class="cls-4" x1="754.58" y1="690.06" x2="771.71" y2="690.06"/><line class="cls-4" x1="754.58" y1="708.05" x2="771.71" y2="708.05"/><line class="cls-4" x1="754.58" y1="711.64" x2="771.71" y2="711.64"/><line class="cls-4" x1="754.58" y1="729.63" x2="771.71" y2="729.63"/><line class="cls-4" x1="754.58" y1="733.22" x2="771.71" y2="733.22"/><line class="cls-4" x1="754.58" y1="751.21" x2="771.71" y2="751.21"/><line class="cls-4" x1="754.58" y1="754.8" x2="771.71" y2="754.8"/><line class="cls-4" x1="754.58" y1="772.79" x2="771.71" y2="772.79"/><line class="cls-4" x1="754.58" y1="776.38" x2="771.71" y2="776.38"/><line class="cls-4" x1="754.58" y1="794.37" x2="771.71" y2="794.37"/><line class="cls-4" x1="754.58" y1="797.96" x2="771.71" y2="797.96"/><rect class="cls-1" x="458.23" y="571.91" width="162.44" height="241.38" rx="7.87" ry="7.87"/><polygon class="cls-2" points="598.85 627.92 614.15 615.62 614.15 766.4 598.85 755.17 598.85 627.92"/><polygon class="cls-3" points="614.04 625.99 605.61 633.45 605.61 672.05 614.35 663.32 614.35 673.48 605.61 681.06 605.61 714.87 613.69 706.71 614.04 714.12 605.2 723.99 605.2 759.25 598.85 755.28 599.26 629.38 614.04 614.45 614.04 625.99"/><polyline class="cls-4" points="620.67 610.51 599.54 628.48 599.54 755.28 620.11 770.88"/><polyline class="cls-4" points="614.04 616.46 614.04 662.04 599.74 676.75"/><polyline class="cls-4" points="614.04 662.32 614.04 705 599.74 719.71"/><line class="cls-4" x1="614.04" y1="705" x2="614.04" y2="765.43"/><path class="cls-5" d="M476.6,592.84a5.94,5.94,0,1,0-5.94,5.94A5.94,5.94,0,0,0,476.6,592.84Z"/><path class="cls-5" d="M476.6,614.45a5.94,5.94,0,1,0-5.94,5.94A5.94,5.94,0,0,0,476.6,614.45Z"/><path class="cls-5" d="M476.6,636.15a5.94,5.94,0,1,0-5.94,5.94A5.94,5.94,0,0,0,476.6,636.15Z"/><path class="cls-5" d="M476.6,657.81a5.94,5.94,0,1,0-5.94,5.94A5.94,5.94,0,0,0,476.6,657.81Z"/><path class="cls-5" d="M476.6,679.42a5.94,5.94,0,1,0-5.94,5.94A5.94,5.94,0,0,0,476.6,679.42Z"/><path class="cls-5" d="M476.6,701.12a5.94,5.94,0,1,0-5.94,5.94A5.94,5.94,0,0,0,476.6,701.12Z"/><path class="cls-5" d="M476.6,722.68a5.94,5.94,0,1,0-5.94,5.94A5.94,5.94,0,0,0,476.6,722.68Z"/><path class="cls-5" d="M476.6,744.29a5.94,5.94,0,1,0-5.94,5.94A5.94,5.94,0,0,0,476.6,744.29Z"/><path class="cls-5" d="M476.6,766a5.94,5.94,0,1,0-5.94,5.94A5.94,5.94,0,0,0,476.6,766Z"/><path class="cls-5" d="M476.6,787.65a5.94,5.94,0,1,0-5.94,5.94A5.94,5.94,0,0,0,476.6,787.65Z"/><line class="cls-4" x1="454.78" y1="591.18" x2="471.9" y2="591.18"/><line class="cls-4" x1="454.78" y1="594.77" x2="471.9" y2="594.77"/><line class="cls-4" x1="454.78" y1="612.76" x2="471.9" y2="612.76"/><line class="cls-4" x1="454.78" y1="616.35" x2="471.9" y2="616.35"/><line class="cls-4" x1="454.78" y1="634.34" x2="471.9" y2="634.34"/><line class="cls-4" x1="454.78" y1="637.93" x2="471.9" y2="637.93"/><line class="cls-4" x1="454.78" y1="655.92" x2="471.9" y2="655.92"/><line class="cls-4" x1="454.78" y1="659.51" x2="471.9" y2="659.51"/><line class="cls-4" x1="454.78" y1="677.5" x2="471.9" y2="677.5"/><line class="cls-4" x1="454.78" y1="681.09" x2="471.9" y2="681.09"/><line class="cls-4" x1="454.78" y1="699.08" x2="471.9" y2="699.08"/><line class="cls-4" x1="454.78" y1="702.67" x2="471.9" y2="702.67"/><line class="cls-4" x1="454.78" y1="720.66" x2="471.9" y2="720.66"/><line class="cls-4" x1="454.78" y1="724.25" x2="471.9" y2="724.25"/><line class="cls-4" x1="454.78" y1="742.24" x2="471.9" y2="742.24"/><line class="cls-4" x1="454.78" y1="745.83" x2="471.9" y2="745.83"/><line class="cls-4" x1="454.78" y1="763.82" x2="471.9" y2="763.81"/><line class="cls-4" x1="454.78" y1="767.41" x2="471.9" y2="767.41"/><line class="cls-4" x1="454.78" y1="785.39" x2="471.9" y2="785.39"/><line class="cls-4" x1="454.78" y1="788.99" x2="471.9" y2="788.99"/><rect class="cls-1" x="176.96" y="462.2" width="162.44" height="241.38" rx="7.87" ry="7.87"/><polygon class="cls-2" points="317.57 518.2 332.87 505.9 332.87 656.69 317.57 645.45 317.57 518.2"/><polygon class="cls-3" points="332.77 516.27 324.34 523.73 324.34 562.33 333.07 553.6 333.07 563.76 324.34 571.34 324.34 605.15 332.42 596.99 332.77 604.4 323.93 614.27 323.93 649.53 317.57 645.56 317.99 519.67 332.77 504.73 332.77 516.27"/><polyline class="cls-4" points="339.4 500.79 318.26 518.76 318.26 645.56 338.84 661.17"/><polyline class="cls-4" points="332.77 506.74 332.77 552.33 318.47 567.04"/><polyline class="cls-4" points="332.77 552.6 332.77 595.28 318.47 610"/><line class="cls-4" x1="332.77" y1="595.28" x2="332.77" y2="655.72"/><path class="cls-5" d="M195.33,483.12a5.94,5.94,0,1,0-5.94,5.94A5.94,5.94,0,0,0,195.33,483.12Z"/><path class="cls-5" d="M195.33,504.73a5.94,5.94,0,1,0-5.94,5.94A5.94,5.94,0,0,0,195.33,504.73Z"/><path class="cls-5" d="M195.33,526.43a5.94,5.94,0,1,0-5.94,5.94A5.93,5.93,0,0,0,195.33,526.43Z"/><path class="cls-5" d="M195.33,548.09a5.94,5.94,0,1,0-5.94,5.94A5.94,5.94,0,0,0,195.33,548.09Z"/><path class="cls-5" d="M195.33,569.7a5.94,5.94,0,1,0-5.94,5.94A5.94,5.94,0,0,0,195.33,569.7Z"/><path class="cls-5" d="M195.33,591.4a5.94,5.94,0,1,0-5.94,5.94A5.94,5.94,0,0,0,195.33,591.4Z"/><path class="cls-5" d="M195.33,613a5.94,5.94,0,1,0-5.94,5.94A5.94,5.94,0,0,0,195.33,613Z"/><path class="cls-5" d="M195.33,634.58a5.94,5.94,0,1,0-5.94,5.93A5.93,5.93,0,0,0,195.33,634.58Z"/><path class="cls-5" d="M195.33,656.28a5.94,5.94,0,1,0-5.94,5.94A5.94,5.94,0,0,0,195.33,656.28Z"/><path class="cls-5" d="M195.33,677.93a5.94,5.94,0,1,0-5.94,5.94A5.94,5.94,0,0,0,195.33,677.93Z"/><line class="cls-4" x1="173.5" y1="481.46" x2="190.63" y2="481.46"/><line class="cls-4" x1="173.5" y1="485.06" x2="190.63" y2="485.06"/><line class="cls-4" x1="173.5" y1="503.04" x2="190.63" y2="503.04"/><line class="cls-4" x1="173.5" y1="506.63" x2="190.63" y2="506.63"/><line class="cls-4" x1="173.5" y1="524.62" x2="190.63" y2="524.62"/><line class="cls-4" x1="173.5" y1="528.21" x2="190.63" y2="528.21"/><line class="cls-4" x1="173.5" y1="546.2" x2="190.63" y2="546.2"/><line class="cls-4" x1="173.5" y1="549.79" x2="190.63" y2="549.79"/><line class="cls-4" x1="173.5" y1="567.78" x2="190.63" y2="567.78"/><line class="cls-4" x1="173.5" y1="571.37" x2="190.63" y2="571.37"/><line class="cls-4" x1="173.5" y1="589.36" x2="190.63" y2="589.36"/><line class="cls-4" x1="173.5" y1="592.95" x2="190.63" y2="592.95"/><line class="cls-4" x1="173.5" y1="610.94" x2="190.63" y2="610.94"/><line class="cls-4" x1="173.5" y1="614.53" x2="190.63" y2="614.53"/><line class="cls-4" x1="173.5" y1="632.52" x2="190.63" y2="632.52"/><line class="cls-4" x1="173.5" y1="636.11" x2="190.63" y2="636.11"/><line class="cls-4" x1="173.5" y1="654.1" x2="190.63" y2="654.1"/><line class="cls-4" x1="173.5" y1="657.69" x2="190.63" y2="657.69"/><line class="cls-4" x1="173.5" y1="675.68" x2="190.63" y2="675.68"/><line class="cls-4" x1="173.5" y1="679.27" x2="190.63" y2="679.27"/><path class="cls-6" d="M417.07,269.77H372.63a22.53,22.53,0,0,1-22.5-22.5v-33a22.53,22.53,0,0,1,22.5-22.5h44.44a22.53,22.53,0,0,1,22.5,22.5v33A22.52,22.52,0,0,1,417.07,269.77Zm-44.44-71a15.53,15.53,0,0,0-15.5,15.5v33a15.52,15.52,0,0,0,15.5,15.5h44.44a15.51,15.51,0,0,0,15.5-15.5v-33a15.52,15.52,0,0,0-15.5-15.5Z"/><path class="cls-6" d="M419,197.9a3.5,3.5,0,0,1-3.5-3.5V177.61a21.5,21.5,0,0,0-43,0V194.4a3.5,3.5,0,0,1-7,0V177.61a28.5,28.5,0,0,1,57,0V194.4A3.5,3.5,0,0,1,419,197.9Z"/><path class="cls-6" d="M402.13,227.32a8.17,8.17,0,0,1-5,7.53v7.55a3.17,3.17,0,1,1-6.33,0v-7.55a8.16,8.16,0,1,1,11.33-7.53Z"/><path class="cls-6" d="M713.42,214.32H669a22.52,22.52,0,0,1-22.5-22.5v-33a22.52,22.52,0,0,1,22.5-22.5h44.44a22.52,22.52,0,0,1,22.5,22.5v33A22.52,22.52,0,0,1,713.42,214.32Zm-44.44-71a15.51,15.51,0,0,0-15.5,15.5v33a15.51,15.51,0,0,0,15.5,15.5h44.44a15.51,15.51,0,0,0,15.5-15.5v-33a15.51,15.51,0,0,0-15.5-15.5Z"/><path class="cls-6" d="M715.31,142.45a3.5,3.5,0,0,1-3.5-3.5V122.16a21.5,21.5,0,1,0-43,0V139a3.5,3.5,0,1,1-7,0V122.16a28.5,28.5,0,1,1,57,0V139A3.49,3.49,0,0,1,715.31,142.45Z"/><path class="cls-6" d="M698.48,171.88a8.17,8.17,0,0,1-5,7.53V187a3.17,3.17,0,1,1-6.33,0v-7.55a8.16,8.16,0,1,1,11.33-7.53Z"/><path class="cls-6" d="M995.76,280.08H951.31a22.53,22.53,0,0,1-22.5-22.5v-33a22.53,22.53,0,0,1,22.5-22.5h44.45a22.53,22.53,0,0,1,22.5,22.5v33A22.53,22.53,0,0,1,995.76,280.08Zm-44.45-71a15.53,15.53,0,0,0-15.5,15.5v33a15.52,15.52,0,0,0,15.5,15.5h44.45a15.52,15.52,0,0,0,15.5-15.5v-33a15.53,15.53,0,0,0-15.5-15.5Z"/><path class="cls-6" d="M997.65,208.21a3.5,3.5,0,0,1-3.5-3.5V187.92a21.5,21.5,0,1,0-43,0v16.79a3.5,3.5,0,0,1-7,0V187.92a28.5,28.5,0,1,1,57,0v16.79A3.5,3.5,0,0,1,997.65,208.21Z"/><path class="cls-6" d="M980.81,237.63a8.17,8.17,0,0,1-5,7.53v7.55a3.17,3.17,0,1,1-6.33,0v-7.55a8.16,8.16,0,1,1,11.33-7.53Z"/><path class="cls-6" d="M1137.83,645h-44.44a22.52,22.52,0,0,1-22.5-22.5v-33a22.52,22.52,0,0,1,22.5-22.5h44.44a22.52,22.52,0,0,1,22.5,22.5v33A22.52,22.52,0,0,1,1137.83,645Zm-44.44-71a15.51,15.51,0,0,0-15.5,15.5v33a15.51,15.51,0,0,0,15.5,15.5h44.44a15.51,15.51,0,0,0,15.5-15.5v-33a15.51,15.51,0,0,0-15.5-15.5Z"/><path class="cls-6" d="M1139.72,573.15a3.5,3.5,0,0,1-3.5-3.5V552.86a21.5,21.5,0,1,0-43,0v16.79a3.5,3.5,0,0,1-7,0V552.86a28.5,28.5,0,1,1,57,0v16.79A3.5,3.5,0,0,1,1139.72,573.15Z"/><path class="cls-6" d="M1122.89,602.57a8.17,8.17,0,0,1-5,7.53v7.55a3.17,3.17,0,1,1-6.33,0V610.1a8.16,8.16,0,1,1,11.33-7.53Z"/><path class="cls-6" d="M861.6,758.38H817.16a22.52,22.52,0,0,1-22.5-22.5v-33a22.52,22.52,0,0,1,22.5-22.5H861.6a22.52,22.52,0,0,1,22.5,22.5v33A22.52,22.52,0,0,1,861.6,758.38Zm-44.44-71a15.51,15.51,0,0,0-15.5,15.5v33a15.51,15.51,0,0,0,15.5,15.5H861.6a15.51,15.51,0,0,0,15.5-15.5v-33a15.51,15.51,0,0,0-15.5-15.5Z"/><path class="cls-6" d="M863.49,686.51A3.5,3.5,0,0,1,860,683V666.22a21.5,21.5,0,0,0-43,0V683a3.5,3.5,0,0,1-7,0V666.22a28.5,28.5,0,0,1,57,0V683A3.5,3.5,0,0,1,863.49,686.51Z"/><path class="cls-6" d="M846.66,715.93a8.17,8.17,0,0,1-5,7.53V731a3.17,3.17,0,1,1-6.33,0v-7.55a8.16,8.16,0,1,1,11.33-7.53Z"/><path class="cls-6" d="M561.79,749.41H517.35a22.53,22.53,0,0,1-22.5-22.5v-33a22.53,22.53,0,0,1,22.5-22.5h44.44a22.53,22.53,0,0,1,22.5,22.5v33A22.53,22.53,0,0,1,561.79,749.41Zm-44.44-71a15.52,15.52,0,0,0-15.5,15.5v33a15.51,15.51,0,0,0,15.5,15.5h44.44a15.51,15.51,0,0,0,15.5-15.5v-33a15.52,15.52,0,0,0-15.5-15.5Z"/><path class="cls-6" d="M563.68,677.54a3.5,3.5,0,0,1-3.5-3.5V657.25a21.5,21.5,0,0,0-43,0V674a3.5,3.5,0,0,1-7,0V657.25a28.5,28.5,0,0,1,57,0V674A3.5,3.5,0,0,1,563.68,677.54Z"/><path class="cls-6" d="M546.85,707a8.17,8.17,0,0,1-5,7.53V722a3.17,3.17,0,1,1-6.33,0v-7.55A8.16,8.16,0,1,1,546.85,707Z"/><path class="cls-6" d="M280.52,639.69H236.08a22.52,22.52,0,0,1-22.5-22.5v-33a22.53,22.53,0,0,1,22.5-22.5h44.44a22.53,22.53,0,0,1,22.5,22.5v33A22.52,22.52,0,0,1,280.52,639.69Zm-44.44-71a15.52,15.52,0,0,0-15.5,15.5v33a15.51,15.51,0,0,0,15.5,15.5h44.44a15.51,15.51,0,0,0,15.5-15.5v-33a15.52,15.52,0,0,0-15.5-15.5Z"/><path class="cls-6" d="M282.41,567.82a3.5,3.5,0,0,1-3.5-3.5V547.53a21.5,21.5,0,1,0-43,0v16.79a3.5,3.5,0,0,1-7,0V547.53a28.5,28.5,0,1,1,57,0v16.79A3.5,3.5,0,0,1,282.41,567.82Z"/><path class="cls-6" d="M265.58,597.24a8.17,8.17,0,0,1-5,7.53v7.55a3.17,3.17,0,1,1-6.33,0v-7.55a8.16,8.16,0,1,1,11.33-7.53Z"/></svg>