<svg id="work" xmlns="http://www.w3.org/2000/svg" viewBox="0 0 1422 870"><defs><style>.cls-1,.cls-10,.cls-12,.cls-17,.cls-3,.cls-5{fill:#ebebeb;}.cls-13,.cls-15,.cls-16,.cls-2,.cls-20,.cls-8{fill:#fff;}.cls-3{stroke:#ebebeb;}.cls-12,.cls-13,.cls-14,.cls-17,.cls-18,.cls-3,.cls-7,.cls-8{stroke-miterlimit:10;}.cls-11,.cls-14,.cls-18,.cls-21,.cls-4,.cls-9{fill:none;}.cls-10,.cls-11,.cls-12,.cls-13,.cls-14,.cls-15,.cls-16,.cls-17,.cls-18,.cls-20,.cls-4,.cls-5,.cls-6,.cls-7,.cls-8,.cls-9{stroke:#4a4a4a;}.cls-10,.cls-11,.cls-14,.cls-15,.cls-16,.cls-20,.cls-21,.cls-4,.cls-5,.cls-6{stroke-linecap:round;}.cls-10,.cls-11,.cls-15,.cls-16,.cls-20,.cls-21,.cls-4,.cls-5,.cls-6,.cls-9{stroke-linejoin:round;}.cls-10,.cls-15,.cls-18,.cls-4,.cls-8{stroke-width:4px;}.cls-14,.cls-16,.cls-17,.cls-5,.cls-9{stroke-width:3px;}.cls-22,.cls-6,.cls-7{fill:#ff0083;}.cls-11,.cls-12,.cls-13,.cls-20,.cls-6,.cls-7{stroke-width:2.5px;}.cls-9{stroke-linecap:square;}.cls-19{fill:#4a4a4a;}.cls-21{stroke:#ff0083;stroke-width:7px;}</style></defs><title>17,1</title><ellipse class="cls-1" cx="757.71" cy="550.78" rx="432.01" ry="137.64"/><path class="cls-2" d="M750.74,504.2,681.1,524.76l15.59,63.71c-16.5,14.17-12,27.67-4,47.17,8,22,14.32,27.5,17.91,31s17.59,25.5,53.09,2a24.19,24.19,0,0,0-1.5,15s-2,77.5,6.5,86.5c0,0,14,15.5,23,21,0-53.5-1.5-77.5-1.5-77.5,3-52,59-82.5,86.5-89s49-2.5,64.5,17c3-41,.5-110-32.5-113-50-6.5-94-5.5-118,11.5s-26.5,26-26.5,26Z"/><path class="cls-2" d="M473.19,615.14l42.5-109-74.5-10.5-27,55c-14-24-25-33-38.5-38.5s-26.5,8.5-26.5,8.5a40.29,40.29,0,0,0-.5,14c1,8.5-.5,107-.5,107,9.5,24.5,8.5,47,8.5,53s-1.5,54.5-1.5,54.5c25,0,45-23,45-46.5,0-22.77-1.88-27.7-2-28,19.49,25.49,30,34,46,26s28-28.5,28-28.5l17-31S485.69,617.64,473.19,615.14Zm-11.5-3-24.5,24-10-38.5,35.5,6Z"/><path class="cls-2" d="M1148,455.48V359.81s-6-26-13.34-33.33-8.33-11.34-8.33-11.34c-5.67-4.33-23-19.66-30.33-20.66s-85-9.34-103-4-39.34,20-46.67,43-4,35.33-4,35.33l.67,24.67-9.34,3L918,388.14s6.33,14,9,20,10,25.33,10,37a86.23,86.23,0,0,1-2.34,20.34l8.66,25.07L984,509.14s1.33,12.33,9,15.67,27,1.67,37.33-2.67l1,1.67,109.33-20.67Z"/><path class="cls-2" d="M571.69,462.64,528.44,428a57.43,57.43,0,0,1-21.56-45.25l.56-81.5c10.25-43.65,37.75-48.15,37.75-48.15s-18-108,27.5-166c18-21,58.5-2.5,74,8,0,0,27,19.5,39,56,6.5,21,7.5,61.5-8,91.5,27.5,14.5,34,10.5,41,47l8,75.5s2,33-11.5,51a165.69,165.69,0,0,0-8,23.5l-28,29-1,6-71.5,13-3-5.5Z"/><path class="cls-3" d="M663.45,141.7c14.73,2.93,22.23,6.18,26.48,26.68,4,25.25-4.5,59-12.75,74.25-1.25,1.75-42.75,38.25-42.75,38.25l-69.25-27.25.25-24.75c7.5,8.75,28,31.75,63.75,21.5,19.5-6,30.43-15.17,34.84-56.71,1.91-2.29,4.16-13.54,3.91-34.79a24.47,24.47,0,0,0-3.47-11.18Z"/><rect class="cls-2" x="793.43" y="394.05" width="118.49" height="164.84" rx="48.99" ry="48.99"/><rect class="cls-4" x="793.43" y="394.05" width="118.49" height="164.84" rx="48.99" ry="48.99"/><path class="cls-1" d="M793.43,407.63c25.3-33.94,82.61-30.17,103.72-13.58s17.47,47,14.77,115.85-59.25,39.71-59.25,39.71-21.87.37-24.14-18.4,7.54-69.79-2.26-78.21-31.67-3.9-36.19-12.2S785.76,417.91,793.43,407.63Z"/><path class="cls-4" d="M793.43,407.63c25.3-33.94,82.61-30.17,103.72-13.58s17.47,47,14.77,115.85c-3,76.6-81.46,37.32-83.39,21.31-2.26-18.77,7.54-69.79-2.26-78.21s-31.67-3.9-36.19-12.2S785.76,417.91,793.43,407.63Z"/><path class="cls-4" d="M936.5,447.42c0-48.32-30.26-82.33-73-82.33h-16a81.69,81.69,0,0,0-81.65,82.33v91.82c0,49.79,170.59,56.12,170.59,0h0Z"/><path class="cls-5" d="M1171.17,500.62a24.34,24.34,0,0,1-1.56,9.13,107.06,107.06,0,0,0-23.34-20.55,31.25,31.25,0,0,0,2.27-11.73V372a84,84,0,0,0-70.73-83,101.19,101.19,0,0,1,23.79-2.86c61.65-.15,67.85,68.59,68.45,94.86Z"/><polygon class="cls-6" points="1159.41 270.26 1128.34 319.95 1136.68 327.13 1162.32 272.02 1159.41 270.26"/><path class="cls-7" d="M1156,261.64a10,10,0,1,0,11-8.87A10,10,0,0,0,1156,261.64Z"/><polygon class="cls-6" points="948.07 246.25 969.35 302.47 958.88 310.04 944.85 247.36 948.07 246.25"/><path class="cls-7" d="M953.21,238.55a10,10,0,1,1-8.87-11A10,10,0,0,1,953.21,238.55Z"/><path class="cls-4" d="M943.26,373.13v-19.8A65.36,65.36,0,0,1,1008.63,288h55.91a84,84,0,0,1,84,84V467.8"/><path class="cls-8" d="M992.32,234.53V282c0,22,16.69,41,38.73,41h26.81c22,0,41.33-19,41.33-41v-40.8l-6.36-58.31-44.54-10.32-49,6.88-12,10.33,5,44.74"/><path class="cls-9" d="M1046.76,349.12h0c-44.18,0-80-22.17-80-48.17V185.89c0-37.06,31.15-67.09,69.58-67.09h20.82c38.43,0,69.58,30,69.58,67.09V311.66C1126.75,323.89,1090.94,349.12,1046.76,349.12Z"/><path class="cls-10" d="M1060.43,151.21c-18.92-2.78-31.51,1.64-48.42,11.69-13.1,7.79-25-6.64-25-6.64-9.46,26.16-1.4,76.44,5.27,85.13V200.11c4.93-18,12.58,3.06,26.72,2.29,19.71-1.06,22.41-7.75,34.41-2.29,21,9.55,12.61,37.83,25,39.8,23.32,3.73,20.79,24.42,20.79,24.42h0c6.75-10,8-57.95,5-73.9C1101,173.73,1089,155.42,1060.43,151.21Z"/><path class="cls-11" d="M999.49,245.77c.27-4.94,3.83-8.76,7.94-8.53s7.21,4.42,6.93,9.36"/><path class="cls-11" d="M1033.68,247.89c.28-4.93,3.87-8.75,8-8.52s7.3,4.43,7,9.37"/><path class="cls-12" d="M1073.26,448.16l-33.71-5a2.64,2.64,0,0,1-2.25-2.61v-62a2.63,2.63,0,0,1,3-2.61l33.71,5a2.63,2.63,0,0,1,2.25,2.61v62A2.64,2.64,0,0,1,1073.26,448.16Z"/><path class="cls-13" d="M1059.54,422.55l-14.37-2.15a1.13,1.13,0,0,1-1-1.11V392.83a1.13,1.13,0,0,1,1.29-1.12l14.38,2.15a1.14,1.14,0,0,1,1,1.12v26.46A1.14,1.14,0,0,1,1059.54,422.55Z"/><line class="cls-14" x1="982.25" y1="383.14" x2="982.25" y2="414.13"/><path class="cls-4" d="M1049,281.15c-1,1.53-7.7,11-19.9,12.53s-20.49-5.95-21.81-7.19"/><path class="cls-15" d="M1014.46,497.32c7.93-1.06,14.75-1.89,14.75-1.89l8.09,23.05s-15.19,5.67-20.45,6.87c-13.63,3.1-25.34-1.16-27.36-5.64l-2.7-6c-2.42-5.37.48-12,6.26-13.16,4.47-.9,13.49-2.18,21.41-3.24"/><path class="cls-16" d="M1087.76,410.67v36.46a23,23,0,0,1-13.18,20.79l-57.73,27.23s3.77,2,10.7,12.24c6.31,9.36,2.87,16.24,2.87,16.24l91.82-15.15a31.43,31.43,0,0,0,26.3-31v-66.8"/><path class="cls-17" d="M1134.84,478.47a15.32,15.32,0,0,1-12.9,16.72l-7.7,1.19a13,13,0,0,0-11,12c0,3.18,3,4.91,6.18,4.59,0,0,18.68-2.59,24.93-4.32,13-3.61,15.42-11.43,16-19.07.53-6.94,1.6-27.77,1.6-27.77a3.59,3.59,0,0,0-4.5-3.47l-2.76.9a14.92,14.92,0,0,0-10.24,15.74Z"/><path class="cls-4" d="M974.31,433.88c2.28,10.15,13.6,11.45,19.62,6.63,6.2-5,5.89-15.61-3.25-18.63"/><path class="cls-4" d="M976.81,445.51c2.28,10.14,13.6,11.44,19.62,6.62,6.2-4.95,5.89-15.6-3.25-18.62"/><path class="cls-4" d="M980.56,456.76c2.28,10.14,13.6,11.44,19.62,6.62,6.2-4.95,5.89-15.6-3.25-18.62"/><path class="cls-4" d="M983.81,469.13c2.28,10.15,13.6,11.45,19.62,6.63,6.2-5,5.89-15.61-3.25-18.63"/><path class="cls-4" d="M987.31,481.76c2.28,10.14,13.6,11.44,19.62,6.62,6.2-4.95,5.89-15.6-3.25-18.62"/><path class="cls-4" d="M1014.08,496.09a10.26,10.26,0,0,0-7.15-12.46"/><path class="cls-4" d="M990.56,495.63a12.41,12.41,0,0,0,2.14,4.79"/><line class="cls-4" x1="738.7" y1="615.08" x2="721.92" y2="620.78"/><polyline class="cls-4" points="694.82 586.74 681.1 524.76 750.74 504.2 764.61 566.77"/><path class="cls-4" d="M689.82,542.17a7.91,7.91,0,0,1-11.36,4.94,11.43,11.43,0,0,1-5.67-13.27"/><path class="cls-4" d="M692.09,553.11A7.91,7.91,0,0,1,680.73,558a11.42,11.42,0,0,1-5.67-13.26"/><path class="cls-4" d="M694.93,563.21a7.91,7.91,0,0,1-11.36,4.94,11.43,11.43,0,0,1-5.67-13.27"/><path class="cls-4" d="M697.09,573.38a7.91,7.91,0,0,1-11.36,4.94,11.43,11.43,0,0,1-5.67-13.27"/><path class="cls-4" d="M699.36,584.32A7.91,7.91,0,0,1,688,589.26,11.43,11.43,0,0,1,682.33,576"/><path class="cls-4" d="M688.3,596.5a11.49,11.49,0,0,1-1.87-10.07"/><line class="cls-4" x1="675.7" y1="524.98" x2="676.78" y2="533.76"/><polygon class="cls-4" points="679.08 475.44 605.55 486.23 612.43 398.49 690.65 388.32 679.08 475.44"/><path class="cls-4" d="M617.42,411.35A7.1,7.1,0,1,1,606,403"/><path class="cls-4" d="M616.44,421.08A7.11,7.11,0,1,1,605,412.71"/><path class="cls-4" d="M616.23,430.19a7.11,7.11,0,1,1-11.46-8.37"/><path class="cls-4" d="M615.36,439.25a7.11,7.11,0,1,1-11.46-8.38"/><path class="cls-4" d="M614.37,449a7.11,7.11,0,1,1-11.46-8.37"/><path class="cls-4" d="M614.16,458.08a7.1,7.1,0,1,1-11.45-8.37"/><path class="cls-4" d="M613.52,467.28a7.1,7.1,0,1,1-11.45-8.37"/><path class="cls-4" d="M613.32,476.39A7.11,7.11,0,1,1,601.86,468"/><polyline class="cls-4" points="687.16 381.48 608.03 392.45 606.9 402.01"/><path class="cls-4" d="M596.68,443.46a9.78,9.78,0,0,0-3.94-1.49c-10-1.61-23.15,10.71-17.72,21.33a11.39,11.39,0,0,0,.66,1.16"/><path class="cls-2" d="M322.49,523H335.1c27.39,0,49.59-10.61,49.59-38V428.68a49.59,49.59,0,0,0-49.59-49.6H322.49a49.6,49.6,0,0,0-49.6,49.6V485C272.89,512.41,295.1,523,322.49,523Z"/><path class="cls-4" d="M322.49,523H335.1c27.39,0,49.59-10.61,49.59-38V428.68a49.59,49.59,0,0,0-49.59-49.6H322.49a49.6,49.6,0,0,0-49.6,49.6V485C272.89,512.41,295.1,523,322.49,523Z"/><path class="cls-1" d="M348,438.35l8.38-17.15a21.94,21.94,0,0,0-2.09.76c-15.81,6.63-30.72,32.33-30.72,32.33s-12.72-13.73-23.91.5c-7.44,9.44,3.57,26.46,3.57,26.46l-12.1,32.21s-2.55,26.14-17.12-8a121.36,121.36,0,0,1-7.15-24.09c-3.36,1-6.82,1.33-10.62,1.95,0,0,8.3-14.72-5.95-26.45s4.57-19.88,0-32.6-21.67-32.55-1.54-60.57C264.12,342.38,287,350,287,350a32.92,32.92,0,0,1,13.17,7.57c18.26-3,41,.88,56.27,2.11,25.67,2,34.39,26.45,39,53.43S348,438.35,348,438.35Z"/><path class="cls-4" d="M348,438.35l8.38-17.15a21.94,21.94,0,0,0-2.09.76c-15.81,6.63-30.72,32.33-30.72,32.33s-12.72-13.73-23.91.5c-7.44,9.44,3.57,26.46,3.57,26.46l-12.1,32.21s-2.55,26.14-17.12-8a121.36,121.36,0,0,1-7.15-24.09c7.78-2.39,15-8.74,24.66-32.15,10.69-26-11.34-30.83,1.51-42.25,20.71-18.34,18.89-38.19,7.08-49.43,18.26-3,41,.88,56.27,2.11,25.67,2,34.39,26.45,39,53.43S348,438.35,348,438.35Z"/><path class="cls-4" d="M287,349.94c21.82,6.64,33.08,33.09,6.11,57-12.87,11.41,9.16,16.29-1.53,42.24-13.82,33.57-22.69,32.07-35.27,34.11,0,0,8.3-14.73-6-26.45s4.59-19.87,0-32.6-21.67-32.54-1.52-60.57C264.12,342.38,287,349.94,287,349.94Z"/><path class="cls-4" d="M230.65,413.65c0-48.93,30.64-83.35,73.86-83.35H320.7a82.69,82.69,0,0,1,82.67,83.35v93h0c0,28.92-39.33,39.79-87,39.79s-85.69-10.87-85.69-39.79h0Z"/><path class="cls-1" d="M292.14,728a4.36,4.36,0,0,1-4.23,5.42H232a3.85,3.85,0,0,1-3.76-4.91l10.57-36.66h44.29Z"/><path class="cls-1" d="M270.3,691.86H251.54c-19.59,0-26.89-15.89-26.89-35.49V523.6a35.48,35.48,0,0,1,35.49-35.48h0a35.48,35.48,0,0,1,35.48,35.48V656.37C295.62,676,289.89,691.86,270.3,691.86Z"/><path class="cls-18" d="M292.14,728a4.36,4.36,0,0,1-4.23,5.42H232a3.85,3.85,0,0,1-3.76-4.91l10.57-36.66h44.29Z"/><path class="cls-18" d="M270.3,691.86H251.54c-19.59,0-26.89-15.89-26.89-35.49V523.6a35.48,35.48,0,0,1,35.49-35.48h0a35.48,35.48,0,0,1,35.48,35.48V656.37C295.62,676,289.89,691.86,270.3,691.86Z"/><path class="cls-1" d="M345.67,736a4.37,4.37,0,0,1-4.24,5.42H285.57a3.85,3.85,0,0,1-3.77-4.91l10.57-36.66h44.3Z"/><path class="cls-1" d="M323.82,699.86H305.06c-19.59,0-26.88-15.89-26.88-35.49V531.6a35.47,35.47,0,0,1,35.48-35.48h0a35.48,35.48,0,0,1,35.48,35.48V664.37C349.14,684,343.41,699.86,323.82,699.86Z"/><path class="cls-18" d="M345.67,736a4.37,4.37,0,0,1-4.24,5.42H285.57a3.85,3.85,0,0,1-3.77-4.91l10.57-36.66h44.3Z"/><path class="cls-18" d="M323.82,699.86H305.06c-19.59,0-26.88-15.89-26.88-35.49V531.6a35.47,35.47,0,0,1,35.48-35.48h0a35.48,35.48,0,0,1,35.48,35.48V664.37C349.14,684,343.41,699.86,323.82,699.86Z"/><path class="cls-10" d="M251.89,773.22c-33.85-8-65.77-19.53-65.77-54.26V662.48c0-29.84,4.78-106.24,58.73-103.3C314.59,563,356,637.15,356,681.53v60.79C356,796.93,288.64,781.89,251.89,773.22Z"/><path class="cls-10" d="M895.35,819.16c34.74-7.47,69.51-18.73,68.73-53.12l-1.2-52.82c-.64-28.18-7.1-96.49-70.62-91.05-61.55,5.27-102.48,58.45-101.53,100.36l1.56,68.77C793.19,830.69,845.16,830,895.35,819.16Z"/><path class="cls-4" d="M560.36,378.14A51.61,51.61,0,0,0,570.2,407l26.48,36.48c-10.33-6.76-29,8.69-21,21l-41.93-32.09c-17-13-26.95-32.33-26.76-53.79l.69-63.46c0-28.53,16.5-56,35-60.66"/><path class="cls-4" d="M679.35,242.47l.52.2c18.88,7.23,37.06,23.51,39,43.64l6.64,68.63a125.59,125.59,0,0,1-8.68,59.93L705.68,442.8c3.18-9.42-10.91-17.94-20.33-16.31"/><line class="cls-4" x1="682.35" y1="348.13" x2="682.35" y2="381.63"/><path class="cls-4" d="M563.61,226.44c.09,11.89.78,21.83,1.07,28l70,27.34,43.5-39.17c10.27-22.59,17.79-68.21,7.25-91.25"/><path class="cls-4" d="M547,266.47c-8-34-16-121.4,22.66-174.34,16-22.26,62.14-17.56,97.45,22.76,14.22,16.24,18.22,36.91,18.22,36.91"/><line class="cls-4" x1="604.02" y1="317.63" x2="604.02" y2="270.87"/><line class="cls-4" x1="652.35" y1="298.13" x2="652.35" y2="266.47"/><path class="cls-15" d="M617.58,449.82a8.13,8.13,0,0,1,5,11.06l-8,18a7.76,7.76,0,0,1-11.27,3.37l-27.67-17.79L575,463.3c-5.43-10.62,7.67-22.94,17.72-21.33l3.94,1.49Z"/><path class="cls-15" d="M664.48,441.63a6.19,6.19,0,0,0-1.68,5.62,9.55,9.55,0,0,0,3.38,5.72l11.57,14.16a7.44,7.44,0,0,0,4.84,1.73,5.48,5.48,0,0,0,4.18-2l17.61-22.35.26-1.3C705.75,436,698.69,413.54,664.48,441.63Z"/><path class="cls-11" d="M664.63,149.23a46,46,0,0,0-1.18-7.53"/><path class="cls-11" d="M563.6,224.53h0c0,.92,0,1.82,0,2.71,11.57,15.38,34.43,29.45,55.07,25.88,26-4.5,41-13.5,45.55-60.53"/><path class="cls-6" d="M667.68,173.1c-.59,8.43.3,16.45-2.84,19.75-.26.27-.53.55-.82.82-4.28,4.14-11.53,8.59-23.74,12.62-28.65,9.46-54.85-2.37-68.82-11.7a86.65,86.65,0,0,1,20.72-28.3,62.89,62.89,0,0,0,9.79,3c20.38,4.4,65.43-1.74,62.49-21.54l0,0C669.69,150.91,668.42,162.34,667.68,173.1Z"/><path class="cls-19" d="M658.72,207.77a1.28,1.28,0,1,0-1.47-1.05A1.28,1.28,0,0,0,658.72,207.77Z"/><path class="cls-19" d="M659.79,214.06a1.27,1.27,0,0,0,1-1.47,1.28,1.28,0,0,0-1.47-1.05,1.3,1.3,0,0,0-1.05,1.48A1.28,1.28,0,0,0,659.79,214.06Z"/><path class="cls-19" d="M658.72,207.77a1.28,1.28,0,1,0-1.47-1.05A1.28,1.28,0,0,0,658.72,207.77Z"/><path class="cls-19" d="M652.43,208.83a1.28,1.28,0,1,0-1.47-1.05A1.28,1.28,0,0,0,652.43,208.83Z"/><path class="cls-19" d="M656.11,211.45a1.28,1.28,0,0,0,1-1.48,1.27,1.27,0,0,0-1.47-1,1.28,1.28,0,0,0-1,1.47A1.3,1.3,0,0,0,656.11,211.45Z"/><path class="cls-19" d="M654.55,221.42a1.28,1.28,0,1,0-1.47-1A1.27,1.27,0,0,0,654.55,221.42Z"/><path class="cls-19" d="M658.72,207.77a1.28,1.28,0,1,0-1.47-1.05A1.28,1.28,0,0,0,658.72,207.77Z"/><path class="cls-19" d="M652.43,208.83a1.28,1.28,0,1,0-1.47-1.05A1.28,1.28,0,0,0,652.43,208.83Z"/><path class="cls-19" d="M646.13,209.89a1.28,1.28,0,1,0-1.47-1A1.27,1.27,0,0,0,646.13,209.89Z"/><path class="cls-19" d="M655.05,205.15a1.28,1.28,0,1,0-1.48-1.05A1.28,1.28,0,0,0,655.05,205.15Z"/><path class="cls-19" d="M654.55,221.42a1.28,1.28,0,1,0-1.47-1A1.27,1.27,0,0,0,654.55,221.42Z"/><path class="cls-19" d="M648.26,222.48a1.27,1.27,0,1,0-1.47-1A1.27,1.27,0,0,0,648.26,222.48Z"/><path class="cls-19" d="M659.79,214.06a1.27,1.27,0,0,0,1-1.47,1.28,1.28,0,0,0-1.47-1.05,1.3,1.3,0,0,0-1.05,1.48A1.28,1.28,0,0,0,659.79,214.06Z"/><path class="cls-19" d="M653.49,215.13a1.28,1.28,0,1,0-.42-2.52,1.27,1.27,0,0,0-1.05,1.47A1.29,1.29,0,0,0,653.49,215.13Z"/><path class="cls-19" d="M647.2,216.19a1.28,1.28,0,1,0-1.48-1.05A1.28,1.28,0,0,0,647.2,216.19Z"/><path class="cls-19" d="M658.72,207.77a1.28,1.28,0,1,0-1.47-1.05A1.28,1.28,0,0,0,658.72,207.77Z"/><path class="cls-19" d="M652.43,208.83a1.28,1.28,0,1,0-1.47-1.05A1.28,1.28,0,0,0,652.43,208.83Z"/><path class="cls-19" d="M646.13,209.89a1.28,1.28,0,1,0-1.47-1A1.27,1.27,0,0,0,646.13,209.89Z"/><path class="cls-19" d="M639.84,211a1.28,1.28,0,0,0,1-1.48,1.28,1.28,0,0,0-2.52.43A1.3,1.3,0,0,0,639.84,211Z"/><path class="cls-19" d="M650.88,218.81a1.28,1.28,0,1,0-1.48-1.05A1.3,1.3,0,0,0,650.88,218.81Z"/><path class="cls-19" d="M657.17,217.74a1.27,1.27,0,0,0,1.05-1.47,1.28,1.28,0,1,0-2.52.43A1.27,1.27,0,0,0,657.17,217.74Z"/><path class="cls-19" d="M649.81,212.51a1.28,1.28,0,1,0-1.47-1A1.28,1.28,0,0,0,649.81,212.51Z"/><path class="cls-19" d="M656.11,211.45a1.28,1.28,0,0,0,1-1.48,1.27,1.27,0,0,0-1.47-1,1.28,1.28,0,0,0-1,1.47A1.3,1.3,0,0,0,656.11,211.45Z"/><path class="cls-19" d="M643.52,213.57a1.28,1.28,0,1,0-1.48-1A1.28,1.28,0,0,0,643.52,213.57Z"/><path class="cls-19" d="M650.38,235.08a1.28,1.28,0,1,0-1.47-1.05A1.28,1.28,0,0,0,650.38,235.08Z"/><path class="cls-19" d="M655.62,227.72a1.28,1.28,0,1,0-1.47-1.05A1.28,1.28,0,0,0,655.62,227.72Z"/><path class="cls-19" d="M649.32,228.78a1.28,1.28,0,1,0-1.47-1A1.28,1.28,0,0,0,649.32,228.78Z"/><path class="cls-19" d="M654.55,221.42a1.28,1.28,0,1,0-1.47-1A1.27,1.27,0,0,0,654.55,221.42Z"/><path class="cls-19" d="M648.26,222.49a1.28,1.28,0,0,0,1-1.48,1.27,1.27,0,0,0-2.51.43A1.28,1.28,0,0,0,648.26,222.49Z"/><path class="cls-19" d="M642,223.55a1.28,1.28,0,1,0-1.47-1.05A1.28,1.28,0,0,0,642,223.55Z"/><path class="cls-19" d="M653,231.4a1.28,1.28,0,1,0-.43-2.52,1.28,1.28,0,0,0,.43,2.52Z"/><path class="cls-19" d="M651.94,225.1a1.28,1.28,0,1,0-1.47-1A1.28,1.28,0,0,0,651.94,225.1Z"/><path class="cls-19" d="M645.64,226.16a1.27,1.27,0,1,0-1.47-1A1.27,1.27,0,0,0,645.64,226.16Z"/><path class="cls-19" d="M650.38,235.08a1.28,1.28,0,1,0-1.47-1.05A1.28,1.28,0,0,0,650.38,235.08Z"/><path class="cls-19" d="M644.09,236.14a1.28,1.28,0,1,0-1.47-1A1.28,1.28,0,0,0,644.09,236.14Z"/><path class="cls-19" d="M646.13,209.89a1.28,1.28,0,1,0-1.47-1A1.27,1.27,0,0,0,646.13,209.89Z"/><path class="cls-19" d="M639.84,211a1.28,1.28,0,0,0,1-1.48,1.28,1.28,0,0,0-2.52.43A1.3,1.3,0,0,0,639.84,211Z"/><path class="cls-19" d="M648.26,222.48a1.27,1.27,0,1,0-1.47-1A1.27,1.27,0,0,0,648.26,222.48Z"/><path class="cls-19" d="M642,223.55a1.28,1.28,0,1,0-1.47-1.05A1.28,1.28,0,0,0,642,223.55Z"/><path class="cls-19" d="M635.66,224.61a1.28,1.28,0,0,0-.42-2.52,1.29,1.29,0,0,0-1,1.47A1.28,1.28,0,0,0,635.66,224.61Z"/><path class="cls-19" d="M647.2,216.19a1.28,1.28,0,1,0-1.48-1.05A1.28,1.28,0,0,0,647.2,216.19Z"/><path class="cls-19" d="M640.9,217.25a1.28,1.28,0,1,0-1.47-1A1.27,1.27,0,0,0,640.9,217.25Z"/><path class="cls-19" d="M634.6,218.31a1.27,1.27,0,1,0-1.47-1A1.27,1.27,0,0,0,634.6,218.31Z"/><path class="cls-19" d="M646.13,209.89a1.28,1.28,0,1,0-1.47-1A1.27,1.27,0,0,0,646.13,209.89Z"/><path class="cls-19" d="M639.84,211a1.28,1.28,0,0,0,1-1.48,1.28,1.28,0,0,0-2.52.43A1.3,1.3,0,0,0,639.84,211Z"/><path class="cls-19" d="M638.28,220.93a1.28,1.28,0,1,0-1.47-1.05A1.28,1.28,0,0,0,638.28,220.93Z"/><path class="cls-19" d="M644.58,219.87a1.28,1.28,0,1,0-.43-2.52,1.28,1.28,0,0,0,.43,2.52Z"/><path class="cls-19" d="M637.22,214.63a1.27,1.27,0,1,0-.43-2.51,1.27,1.27,0,1,0,.43,2.51Z"/><path class="cls-19" d="M643.52,213.57a1.28,1.28,0,1,0-1.48-1A1.28,1.28,0,0,0,643.52,213.57Z"/><path class="cls-19" d="M630.92,215.7a1.28,1.28,0,1,0-1.47-1A1.28,1.28,0,0,0,630.92,215.7Z"/><path class="cls-19" d="M650.38,235.08a1.28,1.28,0,1,0-1.47-1.05A1.28,1.28,0,0,0,650.38,235.08Z"/><path class="cls-19" d="M644.09,236.14a1.28,1.28,0,1,0-1.47-1A1.28,1.28,0,0,0,644.09,236.14Z"/><path class="cls-19" d="M637.79,237.2a1.27,1.27,0,1,0-1.47-1A1.27,1.27,0,0,0,637.79,237.2Z"/><path class="cls-19" d="M649.32,228.78a1.28,1.28,0,1,0-1.47-1A1.28,1.28,0,0,0,649.32,228.78Z"/><path class="cls-19" d="M643,229.84a1.27,1.27,0,1,0-1.48-1A1.28,1.28,0,0,0,643,229.84Z"/><path class="cls-19" d="M636.73,230.91a1.28,1.28,0,1,0-.43-2.52,1.28,1.28,0,0,0,.43,2.52Z"/><path class="cls-19" d="M648.26,222.49a1.28,1.28,0,0,0,1-1.48,1.27,1.27,0,0,0-2.51.43A1.28,1.28,0,0,0,648.26,222.49Z"/><path class="cls-19" d="M642,223.55a1.28,1.28,0,1,0-1.47-1.05A1.28,1.28,0,0,0,642,223.55Z"/><path class="cls-19" d="M635.66,224.61a1.28,1.28,0,0,0-.42-2.52,1.29,1.29,0,0,0-1,1.47A1.28,1.28,0,0,0,635.66,224.61Z"/><path class="cls-19" d="M629.37,225.67a1.27,1.27,0,1,0-.43-2.51,1.27,1.27,0,1,0,.43,2.51Z"/><path class="cls-19" d="M640.41,233.52A1.27,1.27,0,1,0,640,231a1.27,1.27,0,1,0,.43,2.51Z"/><path class="cls-19" d="M646.71,232.46a1.28,1.28,0,1,0-1.48-1.05A1.28,1.28,0,0,0,646.71,232.46Z"/><path class="cls-19" d="M639.35,227.23a1.28,1.28,0,1,0-1.48-1A1.28,1.28,0,0,0,639.35,227.23Z"/><path class="cls-19" d="M645.64,226.16a1.27,1.27,0,1,0-1.47-1A1.27,1.27,0,0,0,645.64,226.16Z"/><path class="cls-19" d="M633.05,228.29a1.28,1.28,0,1,0-.43-2.52,1.28,1.28,0,0,0,.43,2.52Z"/><path class="cls-19" d="M638.85,243.5a1.28,1.28,0,1,0-1.47-1.05A1.28,1.28,0,0,0,638.85,243.5Z"/><path class="cls-19" d="M650.38,235.08a1.28,1.28,0,1,0-1.47-1.05A1.28,1.28,0,0,0,650.38,235.08Z"/><path class="cls-19" d="M644.09,236.14a1.28,1.28,0,1,0-1.47-1A1.28,1.28,0,0,0,644.09,236.14Z"/><path class="cls-19" d="M637.79,237.2a1.27,1.27,0,1,0-1.47-1A1.27,1.27,0,0,0,637.79,237.2Z"/><path class="cls-19" d="M631.5,238.27a1.28,1.28,0,1,0-1.48-1.05A1.28,1.28,0,0,0,631.5,238.27Z"/><path class="cls-19" d="M641.47,239.82a1.28,1.28,0,1,0-1.47-1A1.28,1.28,0,0,0,641.47,239.82Z"/><path class="cls-19" d="M635.17,240.88a1.27,1.27,0,1,0-1.47-1A1.27,1.27,0,0,0,635.17,240.88Z"/><path class="cls-19" d="M635.66,224.61a1.28,1.28,0,0,0-.42-2.52,1.29,1.29,0,0,0-1,1.47A1.28,1.28,0,0,0,635.66,224.61Z"/><path class="cls-19" d="M629.37,225.67a1.27,1.27,0,1,0-.43-2.51,1.27,1.27,0,1,0,.43,2.51Z"/><path class="cls-19" d="M623.07,226.74a1.28,1.28,0,1,0-1.47-1.05A1.28,1.28,0,0,0,623.07,226.74Z"/><path class="cls-19" d="M634.6,218.31a1.27,1.27,0,1,0-1.47-1A1.27,1.27,0,0,0,634.6,218.31Z"/><path class="cls-19" d="M628.31,219.38a1.28,1.28,0,0,0-.43-2.52,1.28,1.28,0,1,0,.43,2.52Z"/><path class="cls-19" d="M622,220.44a1.28,1.28,0,1,0-1.47-1.05A1.28,1.28,0,0,0,622,220.44Z"/><path class="cls-19" d="M614.65,215.21a1.28,1.28,0,1,0-1.47-1.05A1.28,1.28,0,0,0,614.65,215.21Z"/><path class="cls-19" d="M625.69,223.06a1.29,1.29,0,0,0,1-1.47,1.28,1.28,0,1,0-1,1.47Z"/><path class="cls-19" d="M632,222a1.27,1.27,0,1,0-1.47-1A1.27,1.27,0,0,0,632,222Z"/><path class="cls-19" d="M624.63,216.76a1.28,1.28,0,0,0-.43-2.52,1.28,1.28,0,1,0,.43,2.52Z"/><path class="cls-19" d="M630.92,215.7a1.28,1.28,0,1,0-1.47-1A1.28,1.28,0,0,0,630.92,215.7Z"/><path class="cls-19" d="M618.33,217.82a1.27,1.27,0,1,0-1.47-1A1.27,1.27,0,0,0,618.33,217.82Z"/><path class="cls-19" d="M637.79,237.2a1.27,1.27,0,1,0-1.47-1A1.27,1.27,0,0,0,637.79,237.2Z"/><path class="cls-19" d="M631.5,238.27a1.28,1.28,0,1,0-1.48-1.05A1.28,1.28,0,0,0,631.5,238.27Z"/><path class="cls-19" d="M625.2,239.33a1.29,1.29,0,0,0,1-1.47,1.28,1.28,0,1,0-1,1.47Z"/><path class="cls-19" d="M636.73,230.91a1.28,1.28,0,1,0-.43-2.52,1.28,1.28,0,0,0,.43,2.52Z"/><path class="cls-19" d="M630.43,232a1.28,1.28,0,1,0-1.47-1.05A1.28,1.28,0,0,0,630.43,232Z"/><path class="cls-19" d="M624.14,233a1.27,1.27,0,0,0,1-1.47,1.28,1.28,0,0,0-1.47-1.05,1.3,1.3,0,0,0-1.05,1.48A1.28,1.28,0,0,0,624.14,233Z"/><path class="cls-19" d="M635.66,224.61a1.28,1.28,0,0,0-.42-2.52,1.29,1.29,0,0,0-1,1.47A1.28,1.28,0,0,0,635.66,224.61Z"/><path class="cls-19" d="M629.37,225.67a1.27,1.27,0,1,0-.43-2.51,1.27,1.27,0,1,0,.43,2.51Z"/><path class="cls-19" d="M623.07,226.74a1.28,1.28,0,1,0-1.47-1.05A1.28,1.28,0,0,0,623.07,226.74Z"/><path class="cls-19" d="M616.78,227.8a1.28,1.28,0,0,0-.43-2.52,1.28,1.28,0,1,0,.43,2.52Z"/><path class="cls-19" d="M627.82,235.65a1.28,1.28,0,1,0-1.48-1.05A1.28,1.28,0,0,0,627.82,235.65Z"/><path class="cls-19" d="M634.11,234.59a1.28,1.28,0,1,0-1.47-1.05A1.28,1.28,0,0,0,634.11,234.59Z"/><path class="cls-19" d="M626.75,229.35a1.27,1.27,0,1,0-1.47-1A1.27,1.27,0,0,0,626.75,229.35Z"/><path class="cls-19" d="M633.05,228.29a1.28,1.28,0,1,0-.43-2.52,1.28,1.28,0,0,0,.43,2.52Z"/><path class="cls-19" d="M620.46,230.42a1.28,1.28,0,0,0,1-1.48,1.27,1.27,0,0,0-1.47-1,1.28,1.28,0,1,0,.43,2.52Z"/><path class="cls-19" d="M638.85,243.5a1.28,1.28,0,1,0-1.47-1.05A1.28,1.28,0,0,0,638.85,243.5Z"/><path class="cls-19" d="M632.56,244.56a1.28,1.28,0,0,0,1.05-1.47,1.3,1.3,0,0,0-1.48-1.05,1.28,1.28,0,0,0-1,1.48A1.27,1.27,0,0,0,632.56,244.56Z"/><path class="cls-19" d="M626.26,245.63a1.28,1.28,0,1,0-.42-2.52,1.27,1.27,0,0,0-1.05,1.47A1.29,1.29,0,0,0,626.26,245.63Z"/><path class="cls-19" d="M637.79,237.2a1.27,1.27,0,1,0-1.47-1A1.27,1.27,0,0,0,637.79,237.2Z"/><path class="cls-19" d="M631.5,238.27a1.28,1.28,0,1,0-1.48-1.05A1.28,1.28,0,0,0,631.5,238.27Z"/><path class="cls-19" d="M625.2,239.33a1.29,1.29,0,0,0,1-1.47,1.28,1.28,0,1,0-1,1.47Z"/><path class="cls-19" d="M618.9,240.39a1.27,1.27,0,0,0,1.05-1.47,1.28,1.28,0,1,0-2.52.43A1.28,1.28,0,0,0,618.9,240.39Z"/><path class="cls-19" d="M629.94,248.24a1.27,1.27,0,0,0,1-1.47,1.28,1.28,0,1,0-2.52.43A1.28,1.28,0,0,0,629.94,248.24Z"/><path class="cls-19" d="M628.88,242a1.3,1.3,0,0,0,1-1.48,1.28,1.28,0,1,0-1,1.48Z"/><path class="cls-19" d="M635.17,240.88a1.27,1.27,0,1,0-1.47-1A1.27,1.27,0,0,0,635.17,240.88Z"/><path class="cls-19" d="M622.58,243a1.28,1.28,0,1,0-1.47-1A1.28,1.28,0,0,0,622.58,243Z"/><path class="cls-19" d="M614.65,215.21a1.28,1.28,0,1,0-1.47-1.05A1.28,1.28,0,0,0,614.65,215.21Z"/><path class="cls-19" d="M608.35,216.27a1.28,1.28,0,1,0-1.47-1.05A1.28,1.28,0,0,0,608.35,216.27Z"/><path class="cls-19" d="M623.07,226.74a1.28,1.28,0,1,0-1.47-1.05A1.28,1.28,0,0,0,623.07,226.74Z"/><path class="cls-19" d="M616.78,227.8a1.28,1.28,0,1,0-1.48-1.05A1.28,1.28,0,0,0,616.78,227.8Z"/><path class="cls-19" d="M610.48,228.86a1.28,1.28,0,0,0,1-1.47,1.3,1.3,0,0,0-1.48-1,1.28,1.28,0,0,0,.43,2.52Z"/><path class="cls-19" d="M622,220.44a1.28,1.28,0,1,0-1.47-1.05A1.27,1.27,0,0,0,622,220.44Z"/><path class="cls-19" d="M615.71,221.5a1.27,1.27,0,1,0-1.47-1A1.27,1.27,0,0,0,615.71,221.5Z"/><path class="cls-19" d="M609.42,222.57a1.28,1.28,0,0,0,1-1.48,1.27,1.27,0,1,0-1,1.48Z"/><path class="cls-19" d="M614.65,215.21a1.28,1.28,0,1,0-1.47-1.05A1.28,1.28,0,0,0,614.65,215.21Z"/><path class="cls-19" d="M608.35,216.27a1.28,1.28,0,1,0-1.47-1.05A1.28,1.28,0,0,0,608.35,216.27Z"/><path class="cls-19" d="M602.06,217.33a1.28,1.28,0,0,0,1.05-1.47,1.3,1.3,0,0,0-1.48-1.05,1.28,1.28,0,0,0-1,1.48A1.27,1.27,0,0,0,602.06,217.33Z"/><path class="cls-19" d="M613.1,225.18a1.27,1.27,0,0,0,1-1.47,1.27,1.27,0,1,0-2.51.43A1.27,1.27,0,0,0,613.1,225.18Z"/><path class="cls-19" d="M619.39,224.12a1.28,1.28,0,1,0-1.47-1.05A1.28,1.28,0,0,0,619.39,224.12Z"/><path class="cls-19" d="M612,218.89a1.28,1.28,0,1,0-1.47-1A1.28,1.28,0,0,0,612,218.89Z"/><path class="cls-19" d="M618.33,217.82a1.27,1.27,0,1,0-1.47-1A1.27,1.27,0,0,0,618.33,217.82Z"/><path class="cls-19" d="M605.74,220a1.28,1.28,0,1,0-1.47-1A1.28,1.28,0,0,0,605.74,220Z"/><path class="cls-19" d="M625.2,239.33a1.28,1.28,0,0,0-.43-2.52,1.28,1.28,0,1,0,.43,2.52Z"/><path class="cls-19" d="M618.9,240.39a1.27,1.27,0,0,0,1.05-1.47,1.28,1.28,0,1,0-2.52.43A1.28,1.28,0,0,0,618.9,240.39Z"/><path class="cls-19" d="M612.61,241.46a1.28,1.28,0,0,0,1-1.48,1.27,1.27,0,0,0-1.47-1,1.28,1.28,0,0,0-1,1.47A1.3,1.3,0,0,0,612.61,241.46Z"/><path class="cls-19" d="M624.13,233a1.27,1.27,0,1,0-.42-2.51,1.27,1.27,0,1,0,.42,2.51Z"/><path class="cls-19" d="M617.84,234.1a1.28,1.28,0,1,0-1.47-1A1.28,1.28,0,0,0,617.84,234.1Z"/><path class="cls-19" d="M611.54,235.16a1.28,1.28,0,1,0-1.47-1A1.28,1.28,0,0,0,611.54,235.16Z"/><path class="cls-19" d="M623.07,226.74a1.28,1.28,0,1,0-1.47-1.05A1.28,1.28,0,0,0,623.07,226.74Z"/><path class="cls-19" d="M616.78,227.8a1.28,1.28,0,1,0-1.48-1.05A1.28,1.28,0,0,0,616.78,227.8Z"/><path class="cls-19" d="M610.48,228.86a1.28,1.28,0,0,0,1-1.47,1.3,1.3,0,0,0-1.48-1,1.28,1.28,0,0,0,.43,2.52Z"/><path class="cls-19" d="M604.18,229.93a1.28,1.28,0,1,0-1.47-1.05A1.28,1.28,0,0,0,604.18,229.93Z"/><path class="cls-19" d="M615.22,237.78a1.28,1.28,0,1,0-1.47-1.05A1.28,1.28,0,0,0,615.22,237.78Z"/><path class="cls-19" d="M621.52,236.71a1.28,1.28,0,0,0,1.05-1.47,1.3,1.3,0,0,0-1.48-1.05,1.28,1.28,0,0,0-1,1.48A1.27,1.27,0,0,0,621.52,236.71Z"/><path class="cls-19" d="M614.16,231.48a1.28,1.28,0,1,0-.43-2.52,1.28,1.28,0,0,0,.43,2.52Z"/><path class="cls-19" d="M620.46,230.42a1.28,1.28,0,1,0-1.48-1A1.28,1.28,0,0,0,620.46,230.42Z"/><path class="cls-19" d="M607.86,232.54a1.27,1.27,0,0,0,1-1.47,1.28,1.28,0,1,0-2.52.43A1.28,1.28,0,0,0,607.86,232.54Z"/><path class="cls-19" d="M626.26,245.63a1.28,1.28,0,1,0-1.47-1A1.28,1.28,0,0,0,626.26,245.63Z"/><path class="cls-19" d="M620,246.69a1.28,1.28,0,1,0-1.48-1.05A1.28,1.28,0,0,0,620,246.69Z"/><path class="cls-19" d="M613.67,247.75a1.28,1.28,0,1,0-1.47-1A1.27,1.27,0,0,0,613.67,247.75Z"/><path class="cls-19" d="M625.2,239.33a1.28,1.28,0,0,0-.43-2.52,1.28,1.28,0,1,0,.43,2.52Z"/><path class="cls-19" d="M618.9,240.39a1.27,1.27,0,0,0,1.05-1.47,1.28,1.28,0,1,0-2.52.43A1.28,1.28,0,0,0,618.9,240.39Z"/><path class="cls-19" d="M612.61,241.46a1.28,1.28,0,0,0,1-1.48,1.27,1.27,0,0,0-1.47-1,1.28,1.28,0,0,0-1,1.47A1.3,1.3,0,0,0,612.61,241.46Z"/><path class="cls-19" d="M606.31,242.52a1.28,1.28,0,1,0-.43-2.52,1.28,1.28,0,0,0,.43,2.52Z"/><path class="cls-19" d="M617.35,250.37a1.28,1.28,0,1,0-1.47-1.05A1.28,1.28,0,0,0,617.35,250.37Z"/><path class="cls-19" d="M623.64,249.31a1.28,1.28,0,1,0-.42-2.52,1.27,1.27,0,0,0-1.05,1.47A1.29,1.29,0,0,0,623.64,249.31Z"/><path class="cls-19" d="M616.29,244.07a1.27,1.27,0,0,0,1-1.47,1.28,1.28,0,1,0-1,1.47Z"/><path class="cls-19" d="M622.58,243a1.28,1.28,0,1,0-1.47-1A1.28,1.28,0,0,0,622.58,243Z"/><path class="cls-19" d="M610,245.14a1.3,1.3,0,0,0,1-1.48,1.28,1.28,0,0,0-1.48-1,1.27,1.27,0,0,0-1,1.47A1.28,1.28,0,0,0,610,245.14Z"/><path class="cls-19" d="M608.35,216.27a1.28,1.28,0,1,0-1.47-1.05A1.28,1.28,0,0,0,608.35,216.27Z"/><path class="cls-19" d="M602.06,217.33a1.27,1.27,0,1,0-.43-2.51,1.27,1.27,0,1,0,.43,2.51Z"/><path class="cls-19" d="M595.76,218.4a1.28,1.28,0,1,0-1.47-1.05A1.28,1.28,0,0,0,595.76,218.4Z"/><path class="cls-19" d="M610.48,228.86a1.28,1.28,0,0,0,1-1.47,1.3,1.3,0,0,0-1.48-1,1.28,1.28,0,0,0,.43,2.52Z"/><path class="cls-19" d="M604.18,229.93a1.28,1.28,0,1,0-1.47-1.05A1.28,1.28,0,0,0,604.18,229.93Z"/><path class="cls-19" d="M597.89,231a1.28,1.28,0,0,0-.43-2.52,1.28,1.28,0,1,0,.43,2.52Z"/><path class="cls-19" d="M609.42,222.57a1.28,1.28,0,0,0,1-1.48,1.27,1.27,0,1,0-1,1.48Z"/><path class="cls-19" d="M603.12,223.63a1.28,1.28,0,1,0-1.47-1A1.28,1.28,0,0,0,603.12,223.63Z"/><path class="cls-19" d="M596.82,224.69a1.27,1.27,0,0,0,1-1.47,1.28,1.28,0,1,0-1,1.47Z"/><path class="cls-19" d="M608.35,216.27a1.28,1.28,0,1,0-1.47-1.05A1.28,1.28,0,0,0,608.35,216.27Z"/><path class="cls-19" d="M602.06,217.33a1.28,1.28,0,0,0,1.05-1.47,1.3,1.3,0,0,0-1.48-1.05,1.28,1.28,0,0,0-1,1.48A1.27,1.27,0,0,0,602.06,217.33Z"/><path class="cls-19" d="M595.76,218.4a1.28,1.28,0,1,0-1.47-1.05A1.28,1.28,0,0,0,595.76,218.4Z"/><path class="cls-19" d="M600.5,227.31a1.28,1.28,0,1,0-1.47-1.05A1.28,1.28,0,0,0,600.5,227.31Z"/><path class="cls-19" d="M606.8,226.25a1.3,1.3,0,0,0,1.05-1.48,1.28,1.28,0,1,0-1.05,1.48Z"/><path class="cls-19" d="M599.44,221a1.27,1.27,0,0,0,1-1.47A1.28,1.28,0,1,0,598,220,1.27,1.27,0,0,0,599.44,221Z"/><path class="cls-19" d="M605.74,220a1.28,1.28,0,1,0-1.47-1A1.28,1.28,0,0,0,605.74,220Z"/><path class="cls-19" d="M593.14,222.08a1.28,1.28,0,1,0-.42-2.52,1.27,1.27,0,0,0-1.05,1.47A1.29,1.29,0,0,0,593.14,222.08Z"/><path class="cls-19" d="M612.61,241.46a1.28,1.28,0,0,0,1-1.48,1.27,1.27,0,0,0-1.47-1,1.28,1.28,0,0,0-1,1.47A1.3,1.3,0,0,0,612.61,241.46Z"/><path class="cls-19" d="M606.31,242.52a1.28,1.28,0,1,0-.43-2.52,1.28,1.28,0,0,0,.43,2.52Z"/><path class="cls-19" d="M600,243.58a1.28,1.28,0,1,0-1.47-1A1.27,1.27,0,0,0,600,243.58Z"/><path class="cls-19" d="M611.54,235.16a1.28,1.28,0,1,0-1.47-1A1.28,1.28,0,0,0,611.54,235.16Z"/><path class="cls-19" d="M605.25,236.22a1.28,1.28,0,0,0-.43-2.52,1.28,1.28,0,0,0-1,1.48A1.27,1.27,0,0,0,605.25,236.22Z"/><path class="cls-19" d="M599,237.29a1.28,1.28,0,1,0-.42-2.52,1.27,1.27,0,0,0-1,1.47A1.29,1.29,0,0,0,599,237.29Z"/><path class="cls-19" d="M610.48,228.86a1.28,1.28,0,0,0,1-1.47,1.3,1.3,0,0,0-1.48-1,1.28,1.28,0,0,0,.43,2.52Z"/><path class="cls-19" d="M604.18,229.93a1.28,1.28,0,1,0-1.47-1.05A1.28,1.28,0,0,0,604.18,229.93Z"/><path class="cls-19" d="M597.89,231a1.28,1.28,0,0,0-.43-2.52,1.28,1.28,0,1,0,.43,2.52Z"/><path class="cls-19" d="M591.59,232.05a1.28,1.28,0,1,0-1.47-1A1.27,1.27,0,0,0,591.59,232.05Z"/><path class="cls-19" d="M602.63,239.9a1.28,1.28,0,1,0-1.47-1A1.27,1.27,0,0,0,602.63,239.9Z"/><path class="cls-19" d="M608.93,238.84a1.28,1.28,0,1,0-1.47-1.05A1.28,1.28,0,0,0,608.93,238.84Z"/><path class="cls-19" d="M601.57,233.61a1.3,1.3,0,0,0,1-1.48,1.28,1.28,0,1,0-1,1.48Z"/><path class="cls-19" d="M607.86,232.54a1.27,1.27,0,0,0,1-1.47,1.28,1.28,0,1,0-2.52.43A1.28,1.28,0,0,0,607.86,232.54Z"/><path class="cls-19" d="M595.27,234.67a1.28,1.28,0,1,0-1.47-1A1.28,1.28,0,0,0,595.27,234.67Z"/><path class="cls-19" d="M613.67,247.75a1.28,1.28,0,1,0-1.47-1A1.27,1.27,0,0,0,613.67,247.75Z"/><path class="cls-19" d="M607.37,248.82a1.28,1.28,0,1,0-.42-2.52,1.27,1.27,0,0,0-1.05,1.47A1.29,1.29,0,0,0,607.37,248.82Z"/><path class="cls-19" d="M612.61,241.46a1.28,1.28,0,0,0,1-1.48,1.27,1.27,0,0,0-1.47-1,1.28,1.28,0,0,0-1,1.47A1.3,1.3,0,0,0,612.61,241.46Z"/><path class="cls-19" d="M606.31,242.52a1.28,1.28,0,1,0-.43-2.52,1.28,1.28,0,0,0,.43,2.52Z"/><path class="cls-19" d="M600,243.58a1.28,1.28,0,1,0-1.47-1A1.27,1.27,0,0,0,600,243.58Z"/><path class="cls-19" d="M603.69,246.2a1.28,1.28,0,1,0-1.47-1A1.28,1.28,0,0,0,603.69,246.2Z"/><path class="cls-19" d="M610,245.14a1.3,1.3,0,0,0,1-1.48,1.28,1.28,0,0,0-1.48-1,1.27,1.27,0,0,0-1,1.47A1.28,1.28,0,0,0,610,245.14Z"/><path class="cls-19" d="M595.76,218.4a1.28,1.28,0,1,0-1.47-1.05A1.28,1.28,0,0,0,595.76,218.4Z"/><path class="cls-19" d="M597.89,231a1.28,1.28,0,0,0-.43-2.52,1.28,1.28,0,1,0,.43,2.52Z"/><path class="cls-19" d="M591.59,232.05a1.28,1.28,0,1,0-1.47-1.05A1.28,1.28,0,0,0,591.59,232.05Z"/><path class="cls-19" d="M596.82,224.69a1.27,1.27,0,0,0,1-1.47,1.28,1.28,0,1,0-1,1.47Z"/><path class="cls-19" d="M590.53,225.76a1.3,1.3,0,0,0,1.05-1.48,1.28,1.28,0,0,0-1.48-1,1.27,1.27,0,0,0-1,1.47A1.28,1.28,0,0,0,590.53,225.76Z"/><path class="cls-19" d="M595.76,218.4a1.28,1.28,0,1,0-1.47-1.05A1.28,1.28,0,0,0,595.76,218.4Z"/><path class="cls-19" d="M594.21,228.37a1.28,1.28,0,1,0-1.47-1A1.27,1.27,0,0,0,594.21,228.37Z"/><path class="cls-19" d="M593.14,222.08a1.28,1.28,0,1,0-.42-2.52,1.27,1.27,0,0,0-1.05,1.47A1.29,1.29,0,0,0,593.14,222.08Z"/><path class="cls-19" d="M600,243.58a1.28,1.28,0,1,0-1.47-1A1.27,1.27,0,0,0,600,243.58Z"/><path class="cls-19" d="M599,237.29a1.28,1.28,0,1,0-.42-2.52,1.27,1.27,0,0,0-1,1.47A1.29,1.29,0,0,0,599,237.29Z"/><path class="cls-19" d="M592.65,238.35a1.28,1.28,0,1,0-1.47-1A1.28,1.28,0,0,0,592.65,238.35Z"/><path class="cls-19" d="M597.89,231a1.28,1.28,0,0,0-.43-2.52,1.28,1.28,0,1,0,.43,2.52Z"/><path class="cls-19" d="M591.59,232.05a1.28,1.28,0,1,0-1.47-1A1.27,1.27,0,0,0,591.59,232.05Z"/><path class="cls-19" d="M596.33,241a1.28,1.28,0,1,0-.42-2.52,1.27,1.27,0,0,0-1,1.47A1.29,1.29,0,0,0,596.33,241Z"/><path class="cls-19" d="M595.27,234.67a1.28,1.28,0,1,0-1.47-1A1.28,1.28,0,0,0,595.27,234.67Z"/><path class="cls-19" d="M600,243.58a1.28,1.28,0,1,0-1.47-1A1.27,1.27,0,0,0,600,243.58Z"/><path class="cls-4" d="M652,217c-5.67,13.2-22.48,11.53-33.07,12.75"/><path class="cls-20" d="M664.16,171c1.55,19.55-23.16,30.6-22.25,10.64Z"/><path class="cls-20" d="M634.46,182.14c-4,23.36-37.52,22.43-33.84-.75Z"/><path class="cls-19" d="M624,192.07c.09-3.45-2.15-5.77-5-5.16s-5.23,3.88-5.31,7.34,2.16,5.74,5,5.14S623.93,195.51,624,192.07Z"/><path class="cls-19" d="M655.53,185.79c.46-3.22-1.29-5.51-3.9-5.12s-5.12,3.31-5.57,6.52,1.3,5.5,3.91,5.11S655.07,189,655.53,185.79Z"/><path class="cls-4" d="M375.31,510.36a72.15,72.15,0,0,1,39.78,46.21l25.09,89.06"/><path class="cls-4" d="M356.18,749.13c15,1.5,42.5-13.5,42.5-39.5v-37.5"/><polyline class="cls-4" points="414.53 548.82 441.35 493.67 515.93 505.64 476.35 599.37 426.53 590.54"/><path class="cls-4" d="M419.62,549.22c-1.94-3.7-5.84-5.09-9.1-3.42"/><path class="cls-4" d="M424.54,539.89c-2.11-4-6.57-5.29-10-2.83s-4.5,7.75-2.39,11.81"/><path class="cls-4" d="M429.82,530c-2.11-4-6.54-5.24-9.92-2.82s-4.47,7.65-2.38,11.67"/><path class="cls-4" d="M434.05,520.54c-2.09-3.93-6.5-5.19-9.85-2.8s-4.44,7.56-2.36,11.54"/><path class="cls-4" d="M438.67,511.29c-2.08-3.9-6.46-5.15-9.8-2.79s-4.42,7.46-2.34,11.4"/><path class="cls-4" d="M442.82,502c-2.07-3.86-6.43-5.1-9.76-2.78s-4.38,7.38-2.32,11.28"/><polyline class="cls-4" points="430.28 599.54 478.46 607.91 517.27 516.57"/><path class="cls-15" d="M462.39,613.94c0-8.27-.25-23.3,13.63-32.47l17.64-12.05a4,4,0,0,1,6.1,2.06l2.12,6.24c6.05,17.75-.94,28.87-13.2,59.75"/><path class="cls-4" d="M438.68,634.63l19.5-18.5c9.5-7.5,36.5,3,29,28.5L463.6,686.38a32.57,32.57,0,0,1-27.92,15.74c-11.43,0-23-7-28.87-16.82-16.2-26.95-34.48-54.72-34.63-55.17"/><path class="cls-4" d="M731.35,631.13l32.5-65a64.23,64.23,0,0,1,35.7-31.72"/><path class="cls-4" d="M790,789.47c-29.33-18.67-27.72-46-27.72-46V670.34L748.24,677a29.93,29.93,0,0,1-37.64-10.34c-4.37-6.47-9-13.47-12.58-19.51-11.53-19.21,0-36.66,11.33-32A247.26,247.26,0,0,1,733,626.8"/><path class="cls-4" d="M911.07,528.16c12.56,4.82,20.64,16.29,24.12,29.76,10.83,41.88,7.7,81.82,8.16,83.21"/><line class="cls-11" x1="797.35" y1="650.47" x2="761.3" y2="670.34"/><path class="cls-4" d="M692.69,634.8c-6-14.33-11.67-35,4-46.33l11.33,27"/><polyline class="cls-4" points="936.14 467.65 943.35 490.55 985.18 509.13"/><polyline class="cls-4" points="999.06 498.1 978.35 423.55 922.9 398.66"/><polyline class="cls-4" points="1009.29 497.42 987.1 417.55 920.77 390.22"/><path class="cls-4" d="M532.69,435.84c-60.89,12-111.66,28.62-147.32,48.36"/><path class="cls-4" d="M788.33,415.81c-10.61-.25-18.31-.37-29.11-.37q-19.83,0-39.22.55"/><path class="cls-4" d="M960.06,672.69c136.58-22.88,229.66-68.38,229.66-120.76,0-14.12-6.76-27.73-19.3-40.54"/><path class="cls-4" d="M483,656.63c74.76,19.84,171.09,31.79,276.22,31.79H762"/><path class="cls-11" d="M564.68,254.46a121.26,121.26,0,0,1-1.08-29.92h0a92.52,92.52,0,0,1,7.86-29.94,86.65,86.65,0,0,1,20.72-28.3c21.73-19.81,51.05-27.41,71.27-24.59,10.62,1.47,18.73,5.81,21.9,12.76"/><line class="cls-21" x1="699.95" y1="282.07" x2="651.2" y2="383.39"/><path class="cls-22" d="M634.6,375.4a18.42,18.42,0,1,0,24.59-8.61A18.42,18.42,0,0,0,634.6,375.4Z"/><polyline class="cls-21" points="476.71 493.38 698.98 272.8 696.14 282.2"/><path class="cls-22" d="M489.69,506.46a18.42,18.42,0,1,1,.1-26A18.43,18.43,0,0,1,489.69,506.46Z"/><line class="cls-21" x1="713.2" y1="507.88" x2="698.98" y2="272.8"/><path class="cls-22" d="M731.58,506.77a18.42,18.42,0,1,1-19.5-17.28A18.42,18.42,0,0,1,731.58,506.77Z"/><line class="cls-21" x1="701.98" y1="272.8" x2="947.69" y2="392.89"/><path class="cls-22" d="M939.6,409.44a18.42,18.42,0,1,0-8.47-24.64A18.42,18.42,0,0,0,939.6,409.44Z"/><circle class="cls-22" cx="699.97" cy="278.3" r="18" transform="translate(-45.21 168.27) rotate(-13.28)"/></svg>