<?xml version="1.0" encoding="utf-8"?>
<!-- Generator: Adobe Illustrator 15.1.0, SVG Export Plug-In . SVG Version: 6.00 Build 0)  -->
<!DOCTYPE svg PUBLIC "-//W3C//DTD SVG 1.1//EN" "http://www.w3.org/Graphics/SVG/1.1/DTD/svg11.dtd">
<svg version="1.1" xmlns="http://www.w3.org/2000/svg" xmlns:xlink="http://www.w3.org/1999/xlink" x="0px" y="0px" width="1422px"
	 height="870px" viewBox="0 0 1422 870" enable-background="new 0 0 1422 870" xml:space="preserve">
<g id="ground">
	<g>
		
			<line fill="none" stroke="#4A4A4A" stroke-width="3" stroke-linecap="round" stroke-linejoin="round" stroke-miterlimit="10" x1="311.141" y1="758.641" x2="1303.141" y2="758.641"/>
		
			<line fill="none" stroke="#4A4A4A" stroke-width="3" stroke-linecap="round" stroke-linejoin="round" stroke-miterlimit="10" x1="1323.141" y1="758.641" x2="1384.141" y2="758.641"/>
		
			<line fill="none" stroke="#4A4A4A" stroke-width="3" stroke-linecap="round" stroke-linejoin="round" stroke-miterlimit="10" x1="145" y1="758.5" x2="285" y2="758.5"/>
	</g>
</g>
<g id="money">
	<g>
		<g>
			<path fill="#FFFFFF" d="M85.487,583.604c-48.05-42.208,44.293-136.763,115.495-52.265L166.88,660.776
				c-26.028,17.037-84.214,10.173-114.975-0.71C51.906,613.119,67.651,594.163,85.487,583.604z"/>
			<path fill="#EBEAEA" d="M127.333,670c-2.667-37.333,1-114.666,40.333-165.333c8.333,4.333,15,10,15,10
				c-18.333,30-34,75.666-34.667,154C138,670.667,127.333,670,127.333,670z"/>
			
				<path fill="none" stroke="#4B4A4B" stroke-width="2.5" stroke-linecap="round" stroke-linejoin="round" stroke-miterlimit="10" d="
				M166.88,660.776c-26.028,17.037-84.214,10.173-114.975-0.71c0-64.835,33.128-76.194,33.128-76.194"/>
			
				<path fill="none" stroke="#4B4A4B" stroke-width="2.5" stroke-linecap="round" stroke-linejoin="round" stroke-miterlimit="10" d="
				M112.484,597.122c-99.98-27.413,7.829-161.518,88.499-65.783"/>
			<g>
				<path fill="#EBEAEA" d="M101.863,459.434c3.065,3.938-1.033,15.727-11.713,24.685c-10.681,8.952-23.896,11.683-26.96,7.747
					c-3.066-3.94,3.103-14.392,13.784-23.349C87.654,459.563,98.797,455.496,101.863,459.434z"/>
				<path fill="#FFFFFF" d="M115.8,517.14c-6.63,5.2-15.62,4.261-16.57,0.471c-0.33-1.87-0.77-3.601-1.32-5.2
					c-4.99-14.55-18.68-18.13-32.75-19.41c22.24-0.95,36.44-16.09,37.86-31.7c0,15.82,6.29,30.21,11.32,37.61
					c1.44,2.12,2.77,3.66,3.82,4.5C122.89,507.2,122.42,511.94,115.8,517.14z"/>
				
					<path fill="none" stroke="#4B4A4B" stroke-width="2.5" stroke-linecap="round" stroke-linejoin="round" stroke-miterlimit="10" d="
					M103.078,462.064c-3.907-18.281-56.26,27.506-36.738,30.703"/>
				
					<path fill="none" stroke="#4B4A4B" stroke-width="2.5" stroke-linecap="round" stroke-linejoin="round" stroke-miterlimit="10" d="
					M115.8,517.14c-6.63,5.2-15.62,4.261-16.57,0.471c-0.33-1.87-0.77-3.601-1.32-5.2c-4.99-14.55-18.68-18.13-32.75-19.41
					c22.24-0.95,36.44-16.09,37.86-31.7c0,15.82,6.29,30.21,11.32,37.61c1.44,2.12,2.77,3.66,3.82,4.5
					C122.89,507.2,122.42,511.94,115.8,517.14z"/>
			</g>
			
				<path fill="none" stroke="#4B4A4B" stroke-width="2.5" stroke-linecap="round" stroke-linejoin="round" stroke-miterlimit="10" d="
				M112.095,495.266c0,0,4.604,9.018-13.894,18.034"/>
			
				<path fill="none" stroke="#4B4A4B" stroke-width="2.5" stroke-linecap="round" stroke-linejoin="round" stroke-miterlimit="10" d="
				M132.006,529.329c0,0,20.232,30.522,14.908,101.512"/>
			
				<path fill="none" stroke="#4B4A4B" stroke-width="2.5" stroke-linecap="round" stroke-linejoin="round" stroke-miterlimit="10" d="
				M156.143,549.914c-4.052-3.079-11.357-5.346-18.442-4.905c-20.008,1.244-30.187,33.3,6.728,38.269
				c31.489,4.239,23.3,38.844,4.614,41.884c-10.661,1.737-24.519-4.486-25.202-13.131"/>
		</g>
		<g>
			<path fill="#FFFFFF" d="M180.185,522.705c-7.061-21.127,8.219-26.842,19.003-26.842c1.17,43.352,58.652,59.406,85.369,58.919
				l-0.713,120.684c-67.794,16.329-132.544,1.532-143.525-7.879c-3.261-2.284-3.715-58.916,16.642-107.05
				C166.737,537.42,179.169,523.208,180.185,522.705z"/>
			<path fill="#EBEAEA" d="M254.333,681.333c0,0,24-56.666,5.333-113.666c8.333-2.334,6.667-12.334,4-14.667
				c15,3.333,25.667,1.667,25.667,1.667l0.667,119C278.333,678.667,254.333,681.333,254.333,681.333z"/>
			<path fill="#EC1E81" d="M285,532.33v21.87c-11.99,1.31-53.45-2.04-76.45-30.67c-3.92-14.12-14.37-38.82-14.37-38.82
				c12.02-5.229,24.31-10.92,24.31-10.92c1.31,2.09,3.66,5.27,3.66,5.27c3.92-1.31,14.64-3.13,14.64-3.13
				c-1.56-3.38-1.57-3.39-1.57-3.39c7.58-3.66,16.73-8.62,16.73-8.62c6.02,5.75,10.55,13.83,12.82,25.36
				c7.06,1.83,10.06-0.521,10.06-0.521c1.04,8.63,1.17,18.82,1.17,18.82v2.36l-11.11,7.579L264.7,531.9L285,532.33z"/>
			
				<path fill="none" stroke="#4B4A4B" stroke-width="2.5" stroke-linecap="round" stroke-linejoin="round" stroke-miterlimit="10" d="
				M179.917,522.838c-43.342,49.048-43.79,141.813-39.598,144.749c10.981,9.411,75.731,24.208,143.525,7.879"/>
			
				<path fill="none" stroke="#4B4A4B" stroke-width="2.5" stroke-linecap="round" stroke-linejoin="round" stroke-miterlimit="10" d="
				M284.557,567.205c-24.423,6.106-88.07-8.711-102.032-38.688c-12.068-25.911,4.949-32.653,16.663-32.653
				c1.17,43.352,58.652,59.406,85.369,58.919"/>
			
				<path fill="none" stroke="#4B4A4B" stroke-width="2.5" stroke-linecap="round" stroke-linejoin="round" stroke-miterlimit="10" d="
				M208.681,522.838c0,0-8.764-29.463-14.443-37.625c9.94-4.259,24.493-12.069,24.493-12.069
				c7.454,12.779,14.395,33.231,16.327,48.94"/>
			
				<path fill="none" stroke="#4B4A4B" stroke-width="2.5" stroke-linecap="round" stroke-linejoin="round" stroke-miterlimit="10" d="
				M225.118,526.742l22.718-10.648c8.519,8.518,14.909,22.362,20.232,34.429"/>
			
				<path fill="none" stroke="#4B4A4B" stroke-width="2.5" stroke-linecap="round" stroke-linejoin="round" stroke-miterlimit="10" d="
				M222.151,479.056l20.359-4.848c3.196,11.715,6.021,28.244,2.115,43.156"/>
			
				<path fill="none" stroke="#4B4A4B" stroke-width="2.5" stroke-linecap="round" stroke-linejoin="round" stroke-miterlimit="10" d="
				M246.593,491.375c7.157,5.25,11.268,22.939,8.782,32.875"/>
			
				<path fill="none" stroke="#4B4A4B" stroke-width="2.5" stroke-linecap="round" stroke-linejoin="round" stroke-miterlimit="10" d="
				M253.16,489.825l22.361-0.707c2.229,8.872,0.479,20.82,0.479,20.82"/>
			
				<path fill="none" stroke="#4B4A4B" stroke-width="2.5" stroke-linecap="round" stroke-linejoin="round" stroke-miterlimit="10" d="
				M264.518,489.118c-1.81-8.93-4.518-15.975-12.423-25.201l-17.038,8.513l1.406,2.57"/>
			
				<path fill="none" stroke="#4B4A4B" stroke-width="2.5" stroke-linecap="round" stroke-linejoin="round" stroke-miterlimit="10" d="
				M237.075,585.47c-25.627-29.83-62.736,8.42-24.087,26.284c7.366,3.406,12.726,10.03,14.091,17.85
				c4.003,22.918-36.131,32.532-43.598,2.419"/>
			
				<path fill="none" stroke="#4B4A4B" stroke-width="2.5" stroke-linecap="round" stroke-linejoin="round" stroke-miterlimit="10" d="
				M225.829,567.915c-8.519,12.781-23.072,52.533-24.846,93.353"/>
		</g>
		<ellipse fill="#EC1E81" cx="213.05" cy="696.763" rx="14.553" ry="4.97"/>
		<ellipse fill="#EC1E81" cx="160.163" cy="714.155" rx="14.553" ry="4.97"/>
		<ellipse fill="#EC1E81" cx="176.136" cy="693.922" rx="14.553" ry="4.97"/>
		<ellipse fill="#EC1E81" cx="105.5" cy="687.766" rx="14.552" ry="4.97"/>
	</g>
</g>
<g id="table">
	<g>
		
			<rect x="604.697" y="525.992" fill="#EBEAEA" stroke="#4A4A4A" stroke-width="2.5" stroke-linecap="round" stroke-linejoin="round" stroke-miterlimit="10" width="200.002" height="174.119"/>
		<g>
			
				<polygon fill="#EBEAEA" stroke="#4A4A4A" stroke-width="2.5" stroke-linecap="round" stroke-linejoin="round" stroke-miterlimit="10" points="
				295.672,700.111 370.969,621.679 370.969,479.717 295.672,525.992 			"/>
			
				<rect x="285.477" y="525.992" fill="#EBEAEA" stroke="#4A4A4A" stroke-width="2.5" stroke-linecap="round" stroke-linejoin="round" stroke-miterlimit="10" width="10.195" height="174.119"/>
		</g>
		<g>
			
				<polygon fill="#EBEAEA" stroke="#4A4A4A" stroke-width="2.5" stroke-linecap="round" stroke-linejoin="round" stroke-miterlimit="10" points="
				825.091,517.364 791.365,462.463 362.341,462.463 265.085,517.364 			"/>
			
				<rect x="265.085" y="517.364" fill="#EBEAEA" stroke="#4A4A4A" stroke-width="2.5" stroke-linecap="round" stroke-linejoin="round" stroke-miterlimit="10" width="560.006" height="14.903"/>
		</g>
		
			<line fill="#EBEAEA" stroke="#4A4A4A" stroke-width="2.5" stroke-linecap="round" stroke-miterlimit="10" x1="606.265" y1="588.737" x2="803.13" y2="588.737"/>
		
			<line fill="#EBEAEA" stroke="#4A4A4A" stroke-width="2.5" stroke-linecap="round" stroke-miterlimit="10" x1="606.265" y1="643.64" x2="803.13" y2="643.64"/>
		
			<line fill="#EBEAEA" stroke="#4A4A4A" stroke-width="2.5" stroke-linecap="round" stroke-miterlimit="10" x1="699.599" y1="565.991" x2="719.992" y2="565.991"/>
		
			<line fill="#EBEAEA" stroke="#4A4A4A" stroke-width="2.5" stroke-linecap="round" stroke-miterlimit="10" x1="699.599" y1="619.326" x2="719.992" y2="619.326"/>
		
			<line fill="#EBEAEA" stroke="#4A4A4A" stroke-width="2.5" stroke-linecap="round" stroke-miterlimit="10" x1="699.599" y1="678.15" x2="719.992" y2="678.15"/>
	</g>
</g>
<g id="graphic">
	<g>
		<defs>
			<rect id="SVGID_1_" x="337" y="10" width="651" height="411"/>
		</defs>
		<clipPath id="SVGID_2_">
			<use xlink:href="#SVGID_1_"  overflow="visible"/>
		</clipPath>
	</g>
	<g>
		
			<rect x="550.335" y="107.81" fill="#EBEAEA" stroke="#4A4A4A" stroke-width="2.5" stroke-miterlimit="10" width="282.712" height="166.977"/>
		
			<polyline fill="none" stroke="#FF0083" stroke-width="4" stroke-linecap="round" stroke-linejoin="round" stroke-miterlimit="10" points="
			568.006,172.303 598.927,137.848 636.033,180.255 663.42,233.262 698.76,204.992 734.099,209.41 759.719,174.07 787.106,184.672 
			800.359,201.458 817.146,202.341 		"/>
		<g>
			<g>
				
					<line fill="none" stroke="#4A4A4A" stroke-width="2.5" stroke-linecap="round" stroke-miterlimit="10" x1="567.123" y1="227.962" x2="572.751" y2="225.883"/>
				
					<line fill="none" stroke="#4A4A4A" stroke-width="2.5" stroke-linecap="round" stroke-miterlimit="10" stroke-dasharray="12.3516,12.3516" x1="584.337" y1="221.603" x2="694.407" y2="180.94"/>
				<polyline fill="none" stroke="#4A4A4A" stroke-width="2.5" stroke-linecap="round" stroke-miterlimit="10" points="700.2,178.8 
					705.828,176.721 710.513,180.47 				"/>
				<polyline fill="none" stroke="#4A4A4A" stroke-width="2.5" stroke-linecap="round" stroke-miterlimit="10" points="
					723.229,190.642 727.913,194.391 733.675,192.718 				"/>
				<polyline fill="none" stroke="#4A4A4A" stroke-width="2.5" stroke-linecap="round" stroke-miterlimit="10" points="
					749.539,188.111 755.301,186.438 759.322,190.891 				"/>
				
					<polyline fill="none" stroke="#4A4A4A" stroke-width="2.5" stroke-linecap="round" stroke-miterlimit="10" stroke-dasharray="15.3943,15.3943" points="
					769.642,202.315 780.04,213.827 787.593,214.456 				"/>
				<polyline fill="none" stroke="#4A4A4A" stroke-width="2.5" stroke-linecap="round" stroke-miterlimit="10" points="
					795.263,215.095 801.242,215.593 804.2,220.813 				"/>
				
					<line fill="none" stroke="#4A4A4A" stroke-width="2.5" stroke-linecap="round" stroke-miterlimit="10" stroke-dasharray="6.1544,6.1544" x1="807.234" y1="226.168" x2="811.785" y2="234.2"/>
				
					<line fill="none" stroke="#4A4A4A" stroke-width="2.5" stroke-linecap="round" stroke-miterlimit="10" x1="813.302" y1="236.877" x2="816.26" y2="242.098"/>
			</g>
		</g>
	</g>
</g>
<g id="banker">
	<g>
		<path fill="#FFFFFF" d="M628.227,422.46l15.687-37.646l-72.943-16.472l-33.379,70.371c-14.339-18.197-32.081-30.73-51.17-38.433
			c1.083-2.588,1.678-5.426,1.678-8.408v-41.835h42.872l-41.836-16.738h-1.036V231.87h-97.256v99.938
			c-0.155,0.486-0.296,0.988-0.423,1.491h-0.627l-40.786,16.738h40.786v41.835c0,1.961,0.25,3.843,0.737,5.647
			c-12.674,4.078-24.394,9.835-34.494,16.973l-13.304-69.68l-78.432-6.274l5.113,40.189c-16.8,8.157-11.308,41.427-0.408,47.655
			l0.581-0.408c-0.863,3.216-0.894,6.809,0.204,10.604l40,61.962l26.15,6.01l0.798-1.584c-5.033,26.526-7.104,58.351-1.064,92.832
			c0,0.799,2.775,6.227,8.124,13.082l-0.548-0.017l39.499,116.613H369.4c-12.126,0-21.961,9.82-21.961,21.961v10.981h168.896
			v-10.981c0-12.141-9.834-21.961-21.96-21.961h-17.02l39.593-110.166l-1.287-0.046c4.784-5.115,9.428-11.281,13.741-18.685
			c0-21.961-2.353-65.883-10.98-81.569l-8.206-4.643c0.049-0.125,0.081-0.251,0.126-0.376l46.511,24.626l61.961-50.196
			c2.354-6.367,1.977-12.17-0.346-16.909c1.477,1.756,2.936,3.514,4.269,5.144C642.344,445.99,636.853,429.521,628.227,422.46z
			 M538.044,439.293c0.643,0.831,1.317,1.787,2.007,2.839L538.044,439.293z"/>
		<path fill="#EBEAEA" d="M536.2,440.502l36.079-72.681l71.635,17.777l-15.687,38.693l-12.549,12.027
			c-9.936-5.23-12.026,7.842-10.457,16.731c-8.89,3.136-47.06,21.438-47.06,21.438S545.088,443.639,536.2,440.502z"/>
		<path fill="#EBEAEA" d="M270.05,380.892l-5.227-42.354c19.345,2.093,77.909,5.75,77.909,5.75l13.595,69.546l-29.281,31.373
			l-35.034-33.987c0,0,4.708-13.595-2.09-14.118c-4.185,0-8.365,4.182-8.365,4.182C274.235,390.304,270.05,380.892,270.05,380.892z"
			/>
		<path fill="none" stroke="#4A4A4A" stroke-width="4" stroke-linecap="round" stroke-linejoin="round" stroke-miterlimit="10" d="
			M488.098,338.538v53.334c0,2.981-0.595,5.82-1.678,8.408c-31.264-12.626-66.166-12.33-95.891-2.76
			c-0.487-1.804-0.737-3.687-0.737-5.647v-53.334c0-12.141,9.833-21.961,21.96-21.961h54.385
			C478.264,316.577,488.098,326.397,488.098,338.538z"/>
		
			<polygon fill="#FFFFFF" stroke="#4A4A4A" stroke-width="4" stroke-linecap="round" stroke-linejoin="round" stroke-miterlimit="10" points="
			349.01,350.035 530.973,350.035 489.142,333.302 389.795,333.302 		"/>
		
			<rect x="390.84" y="231.864" fill="#FFFFFF" stroke="#4A4A4A" stroke-width="4" stroke-linecap="round" stroke-linejoin="round" stroke-miterlimit="10" width="97.256" height="101.438"/>
		<rect x="392.667" y="301.938" fill="#EC1E81" width="93.604" height="29.563"/>
		<path fill="none" stroke="#4B4A4B" stroke-width="4" stroke-linecap="round" stroke-linejoin="round" stroke-miterlimit="10" d="
			M335.934,504.556l-26.144-6.016l-40-61.962c-5.491-18.824,17.254-32.941,29.02-19.608c4.784,5.423,29.804,27.453,29.804,27.453
			c36.516-67.19,181.8-86.01,229.022,29.019c0,0-2.964,2.351,43.138-18.038c14.118,2.353,23.53,14.117,18.039,29.019l-61.961,50.196
			l-47.377-25.082c-6.385-3.379-11.253-8.981-13.759-15.757"/>
		
			<path fill="none" stroke="#4A4A4A" stroke-width="2.5" stroke-linecap="round" stroke-linejoin="round" stroke-miterlimit="10" d="
			M605.48,454.266c0,0-3.921-20.041,7.843-18.472c3.138,0.784,3.138,0.784,3.138,0.784c6.275-8.626,11.765-14.118,11.765-14.118
			c8.626,7.061,14.117,23.53-5.49,50.196C615.677,464.029,605.48,454.266,605.48,454.266z"/>
		
			<path fill="none" stroke="#4A4A4A" stroke-width="2.5" stroke-linecap="round" stroke-linejoin="round" stroke-miterlimit="10" d="
			M269.005,426.382c-10.979-6.275-16.471-40,0.785-47.843c7.843,17.254,11.766,21.96,11.766,21.96
			c6.272-4.706,13.332-6.274,12.548,7.844"/>
		<path fill="#EBEAEA" d="M317.625,498.375c8.375-23.5,24.5-57.5,44.125-71c-16.333,32.666-21.583,53.292-24.917,75.959
			L317.625,498.375z"/>
		
			<polyline fill="none" stroke="#4A4A4A" stroke-width="2.5" stroke-linecap="round" stroke-linejoin="round" stroke-miterlimit="10" points="
			356.067,414.617 342.732,344.813 264.3,338.538 269.791,379.676 		"/>
		
			<polyline fill="none" stroke="#4A4A4A" stroke-width="2.5" stroke-linecap="round" stroke-linejoin="round" stroke-miterlimit="10" points="
			628.227,422.46 643.914,384.814 570.97,368.342 537.245,439.455 		"/>
		<g>
			
				<line fill="none" stroke="#4A4A4A" stroke-width="2.5" stroke-linecap="round" stroke-linejoin="round" stroke-miterlimit="10" x1="296.458" y1="366.25" x2="298.55" y2="382.2"/>
			
				<path fill="none" stroke="#4A4A4A" stroke-width="2.5" stroke-linecap="round" stroke-linejoin="round" stroke-miterlimit="10" d="
				M313.811,374.617c-0.649-4.043-3.285-7.319-5.882-7.319c-2.598,0-4.18,3.276-3.53,7.319c0.649,4.043,3.285,7.319,5.882,7.319
				C312.879,381.937,314.459,378.66,313.811,374.617z"/>
			
				<path fill="none" stroke="#4A4A4A" stroke-width="2.5" stroke-linecap="round" stroke-linejoin="round" stroke-miterlimit="10" d="
				M328.483,375.664c-0.65-4.043-3.283-7.322-5.882-7.322c-2.599,0-4.179,3.279-3.531,7.322c0.65,4.042,3.286,7.32,5.883,7.32
				C327.553,382.984,329.133,379.706,328.483,375.664z"/>
			
				<path fill="none" stroke="#4A4A4A" stroke-width="2.5" stroke-linecap="round" stroke-linejoin="round" stroke-miterlimit="10" d="
				M343.124,376.709c-0.648-4.044-3.284-7.32-5.882-7.32c-2.597,0-4.179,3.276-3.529,7.32c0.648,4.042,3.284,7.319,5.882,7.319
				C342.192,384.029,343.774,380.751,343.124,376.709z"/>
		</g>
		<path fill="#EBEAEA" d="M344.667,611.334l17.333,16l39.333,109c0,0-16.436-4.103-19.385-11.385S344.667,611.334,344.667,611.334z"
			/>
		<g>
			
				<line fill="none" stroke="#4A4A4A" stroke-width="2.5" stroke-linecap="round" stroke-linejoin="round" stroke-miterlimit="10" x1="570.994" y1="390.726" x2="565.48" y2="401.807"/>
			
				<path fill="none" stroke="#4A4A4A" stroke-width="2.5" stroke-linecap="round" stroke-linejoin="round" stroke-miterlimit="10" d="
				M597.236,404.046c1.353-3.179,0.504-6.063-1.896-6.445c-2.4-0.38-5.444,1.891-6.795,5.07c-1.354,3.179-0.506,6.064,1.894,6.445
				C592.839,409.495,595.882,407.227,597.236,404.046z"/>
			
				<path fill="none" stroke="#4A4A4A" stroke-width="2.5" stroke-linecap="round" stroke-linejoin="round" stroke-miterlimit="10" d="
				M584.368,400.355c1.353-3.178,0.503-6.063-1.896-6.444c-2.4-0.378-5.444,1.889-6.795,5.07c-1.354,3.178-0.506,6.063,1.893,6.444
				C579.971,405.804,583.014,403.536,584.368,400.355z"/>
			
				<path fill="none" stroke="#4A4A4A" stroke-width="2.5" stroke-linecap="round" stroke-linejoin="round" stroke-miterlimit="10" d="
				M610.02,407.52c1.353-3.181,0.505-6.065-1.896-6.446c-2.4-0.379-5.443,1.89-6.797,5.07c-1.354,3.179-0.506,6.063,1.897,6.443
				C605.622,412.967,608.667,410.699,610.02,407.52z"/>
			
				<path fill="none" stroke="#4A4A4A" stroke-width="2.5" stroke-linecap="round" stroke-linejoin="round" stroke-miterlimit="10" d="
				M623.036,410.458c1.354-3.179,0.505-6.065-1.894-6.445c-2.401-0.379-5.444,1.888-6.797,5.068
				c-1.355,3.18-0.505,6.064,1.895,6.445C618.64,415.906,621.685,413.637,623.036,410.458z"/>
		</g>
		<path fill="none" stroke="#4A4A4A" stroke-width="4" stroke-linecap="round" stroke-linejoin="round" stroke-miterlimit="10" d="
			M516.334,747.438v10.981H347.438v-10.981c0-12.141,9.835-21.961,21.961-21.961h13.349c2.573,2.887,12.438,14.729,46.981,15.138
			c0.219,0.017,0.44,0,0.658,0c0.424,0,0.833,0,1.24-0.017c33.537-0.688,43.186-12.267,45.726-15.121h17.02
			C506.5,725.477,516.334,735.297,516.334,747.438z"/>
		<path fill="none" stroke="#4B4A4B" stroke-width="4" stroke-linecap="round" stroke-linejoin="round" stroke-miterlimit="10" d="
			M517.376,614.099c0,0-38.693,112.418-39.217,110.851c-0.523-1.568-6.798,15.688-49.674,15.688"/>
		
			<line fill="none" stroke="#4B4A4B" stroke-width="4" stroke-linecap="round" stroke-linejoin="round" stroke-miterlimit="10" x1="432.145" y1="757.89" x2="432.145" y2="726.517"/>
		<path fill="none" stroke="#4B4A4B" stroke-width="4" stroke-linecap="round" stroke-linejoin="round" stroke-miterlimit="10" d="
			M431.628,740.598v0.033c-0.423,0-0.83,0-1.24-0.017c-0.218,0-0.439,0.017-0.658,0c-34.542-0.409-44.408-12.251-46.981-15.138"/>
		<path fill="none" stroke="#4B4A4B" stroke-width="4" stroke-linecap="round" stroke-linejoin="round" stroke-miterlimit="10" d="
			M428.49,740.631c0.423,0,0.832,0,1.24-0.017c0.219,0.017,0.44,0,0.658,0c0.424,0,0.833,0,1.24-0.017
			c33.537-0.688,43.186-12.267,45.726-15.121"/>
		
			<path fill="#F5EB43" stroke="#4B4A4B" stroke-width="4" stroke-linecap="round" stroke-linejoin="round" stroke-miterlimit="10" d="
			M382.749,725.477c-0.486-0.565-0.723-0.785-0.8-0.533C381.446,726.432,382.749,725.477,382.749,725.477z"/>
		
			<path fill="#F5EB43" stroke="#4B4A4B" stroke-width="4" stroke-linecap="round" stroke-linejoin="round" stroke-miterlimit="10" d="
			M540.052,442.132l-2.007-2.839C538.688,440.124,539.361,441.08,540.052,442.132z"/>
		
			<path fill="none" stroke="#4A5999" stroke-width="2.5" stroke-linecap="round" stroke-linejoin="round" stroke-miterlimit="10" d="
			M538.044,439.293"/>
		<path fill="#EBEAEA" stroke="#4A5999" stroke-miterlimit="10" d="M428.481,633.443"/>
		
			<line fill="none" stroke="#4A4A4A" stroke-width="3" stroke-linecap="round" stroke-linejoin="round" stroke-miterlimit="10" x1="391" y1="301.5" x2="486" y2="301.5"/>
		<polygon fill="#EBEAEA" points="432,633.5 444,645 445.5,738 431.5,739 		"/>
		<path fill="none" stroke="#4A4A4A" stroke-width="4" stroke-linecap="round" stroke-linejoin="round" stroke-miterlimit="10" d="
			M343.256,608.868c0,0,38.168,117.648,38.692,116.081c0.524-1.568,6.798,15.688,49.675,15.688V633.968"/>
		<path fill="none" stroke="#4B4A4B" stroke-width="4" stroke-linecap="round" stroke-linejoin="round" stroke-miterlimit="10" d="
			M363.125,427.167c0,0-43.923,74.51-27.451,168.63c0,2.351,24.313,45.488,68.235,45.488c2.353,0,24.314-47.06,24.314-47.06
			l23.53,44.709c0,0,47.059,10.194,77.647-42.355c0-21.961-2.353-65.883-10.98-81.569"/>
	</g>
	<path fill="none" stroke="#4A4A4A" stroke-width="2.5" stroke-linecap="round" stroke-linejoin="round" stroke-miterlimit="10" d="
		M321.667,501"/>
</g>
<g id="vet">
	<g>
		<g>
			<path fill="#FFFFFF" stroke="#4A4A4A" stroke-miterlimit="10" d="M1076.298,471.25v-26.54c0,0,0.317,0,0.158,0
				c0.169,0-0.158,0.349-0.158,0.336v-0.482c2.49-0.075,0.448-0.103,0.632-0.197c2.531-1.31,4.352-3.789,4.352-6.864v-46.285
				c2.492-2.354,4.983-5.071,4.983-11.209v-21.72c0-3.538-4.983-8.725-4.983-7.725l-0.781-59.328
				c0-22.355-15.381-34.532-26.105-40.305c-5.35-2.879-11.25-4.341-17.325-4.32l-115.992,0.399
				c-24.243,0-40.666,29.861-40.666,44.225c0,0,0.32,58.296,0.247,58.327c-2.533,1.063-6.233,5.716-6.233,9.876v20.569
				c0,4.16,1.138,7.617,4.986,10.953v46.541c0,3.075,3.217,5.555,5.749,6.864c1.059,0.548,2.003,0.724,3.268,0.724
				c-1.265,0-1.541-0.02-4.034-0.564v30.271c0,11.991,9.703,20.649,22.228,22.063l0.203,0.104v0.053l-0.307-0.156
				c0.777,0.089,1.392,0.153,2.188,0.183h7.651l4.246,175.543c0,0-27.228-4.71-25.474,27.72h148.601l-3.396-26.322l4.245-178.323
				C1060.25,499,1076.298,490.415,1076.298,471.25z M890.053,345.415 M908.049,490.705"/>
		</g>
		<g>
			<g>
				<g>
					<g>
						<polygon fill="#EC1E81" points="1083.82,194.865 1056.5,251.983 1064.974,257.832 1086.705,196.211 						"/>
					</g>
					<g>
						<circle fill="#EC1E81" cx="1088.151" cy="189.189" r="7.771"/>
					</g>
				</g>
			</g>
			<g>
				
					<path fill="none" stroke="#4A4A4A" stroke-width="4" stroke-linecap="round" stroke-linejoin="round" stroke-miterlimit="10" d="
					M1075.152,443.463l-0.002,33.634c-0.004,23.02-43.311,27.771-43.306-0.969c0-12.736,0.002-32.663,0.002-32.663
					c16.892,0,27.28,0,44.099,0c2.677,0,4.087-1.224,4.087-3.898V392.5"/>
				
					<path fill="none" stroke="#4A4A4A" stroke-width="4" stroke-linecap="round" stroke-linejoin="round" stroke-miterlimit="10" d="
					M1014.466,246.586h20.54c25.181,0,45.026,20.602,45.026,45.783v57.64"/>
				<path fill="#EBEAEA" stroke="#4A4A4A" stroke-width="2.5" stroke-miterlimit="10" d="M1076.287,392.792h-0.556
					c6.126,0,10.533-4.964,10.533-11.085V359.85c0-6.124-4.52-11.086-10.64-11.086h0.439c-2.868,0-4.753,2.325-4.753,5.193V387.6
					C1071.312,390.466,1073.419,392.792,1076.287,392.792z"/>
			</g>
			<g>
				
					<path fill="none" stroke="#4A4A4A" stroke-width="4" stroke-linecap="round" stroke-linejoin="round" stroke-miterlimit="10" d="
					M910.112,443.465h-24.472v33.632c0,10.677,8.1,18.854,22.119,18.854H914"/>
				
					<path fill="none" stroke="#4A4A4A" stroke-width="4" stroke-linecap="round" stroke-linejoin="round" stroke-miterlimit="10" d="
					M880.658,350.009v-57.64c0-25.181,20.734-45.783,45.915-45.783h19.223"/>
				<path fill="#EBEAEA" stroke="#4A4A4A" stroke-width="2.5" stroke-miterlimit="10" d="M886.68,392.792h-1.168
					c-6.122,0-11.087-4.964-11.087-11.085v-21.861c0-6.119,4.964-11.082,11.084-11.082h0.585c3.179,0,5.778,2.6,5.778,5.777V387.6
					C891.872,390.466,889.547,392.792,886.68,392.792z"/>
				
					<path fill="none" stroke="#4A4A4A" stroke-width="4" stroke-linecap="round" stroke-linejoin="round" stroke-miterlimit="10" d="
					M910.713,443.465h-25.081c-2.674,0-4.974-1.224-4.974-3.898v-47.129"/>
			</g>
			<g>
				
					<path fill="#EBEAEA" stroke="#4A4A4A" stroke-width="4" stroke-linecap="round" stroke-linejoin="round" stroke-miterlimit="10" d="
					M895.954,700.155h85.641l-1.894-27.413h-65.242c-11.218,0-19.762,9.181-18.99,20.399L895.954,700.155z"/>
				
					<polyline fill="none" stroke="#4A4A4A" stroke-width="4" stroke-linecap="round" stroke-linejoin="round" stroke-miterlimit="10" points="
					912.5,443.465 921.213,672.742 979.024,672.742 				"/>
				<path fill="#EBEAEA" stroke="#4A4A4A" stroke-width="2.5" stroke-miterlimit="10" d="M948.731,606.528l-27.369-0.345
					c-6.955-0.088-12.753-5.933-12.945-13.053l-0.923-33.864c-0.195-7.118,5.288-12.819,12.242-12.734l17.354,0.219
					c15.365,0.194,28.168,13.1,28.597,28.831l0.353,12.945C966.313,598.592,958.563,606.652,948.731,606.528z"/>
			</g>
			<g>
				
					<path fill="#EBEAEA" stroke="#4A4A4A" stroke-width="4" stroke-linecap="round" stroke-linejoin="round" stroke-miterlimit="10" d="
					M960.489,700.155h83.239l-1.895-27.413h-62.839c-11.218,0-19.764,9.181-18.989,20.399L960.489,700.155z"/>
				
					<polyline fill="none" stroke="#4A4A4A" stroke-width="4" stroke-linecap="round" stroke-linejoin="round" stroke-miterlimit="10" points="
					1044.579,497.36 1041.858,672.742 981.742,672.742 974.948,515.19 				"/>
				<path fill="#EBEAEA" stroke="#4A4A4A" stroke-width="2.5" stroke-miterlimit="10" d="M1013.267,606.528l-27.368-0.345
					c-6.955-0.088-12.752-5.933-12.946-13.053l-0.925-33.864c-0.192-7.118,5.291-12.819,12.246-12.734l17.353,0.219
					c15.366,0.194,28.169,13.1,28.598,28.831l0.353,12.945C1030.849,598.592,1023.102,606.652,1013.267,606.528z"/>
			</g>
			<g>
				<rect x="911" y="418" fill="#EBEAEA" width="120" height="22"/>
				
					<line fill="none" stroke="#4A4A4A" stroke-width="2.5" stroke-linecap="round" stroke-miterlimit="10" x1="911.81" y1="441.315" x2="911.81" y2="327.582"/>
				
					<line fill="none" stroke="#4A4A4A" stroke-width="2.5" stroke-linecap="round" stroke-miterlimit="10" x1="1031.845" y1="327.582" x2="1031.845" y2="443.465"/>
				
					<line fill="none" stroke="#4A4A4A" stroke-width="2.5" stroke-miterlimit="10" x1="911.81" y1="417.298" x2="931.746" y2="417.298"/>
				
					<line fill="none" stroke="#4A4A4A" stroke-width="2.5" stroke-miterlimit="10" x1="931.746" y1="439.724" x2="911.81" y2="439.724"/>
				
					<line fill="none" stroke="#4A4A4A" stroke-width="2.5" stroke-miterlimit="10" x1="1000.425" y1="439.724" x2="943.53" y2="439.724"/>
				
					<line fill="none" stroke="#4A4A4A" stroke-width="2.5" stroke-miterlimit="10" x1="1031.845" y1="439.724" x2="1000.425" y2="439.724"/>
				
					<line fill="none" stroke="#4A4A4A" stroke-width="2.5" stroke-miterlimit="10" x1="1000.425" y1="417.298" x2="1031.845" y2="417.298"/>
				
					<line fill="none" stroke="#4A4A4A" stroke-width="2.5" stroke-miterlimit="10" x1="943.53" y1="417.298" x2="1000.425" y2="417.298"/>
				<g>
					<path fill="#FFFFFF" stroke="#4A4A4A" stroke-width="2.5" stroke-miterlimit="10" d="M1003.34,364.797h-34.061
						c-3.672,0-6.645-2.976-6.645-6.646v-56.489c0-3.67,2.973-6.646,6.645-6.646h34.061c3.671,0,6.646,2.975,6.646,6.646v56.489
						C1009.985,361.821,1007.011,364.797,1003.34,364.797z"/>
					
						<rect x="975.097" y="309.97" fill="#FFFFFF" stroke="#4A4A4A" stroke-width="2.5" stroke-miterlimit="10" width="19.937" height="27.414"/>
				</g>
				<path fill="#FFFFFF" stroke="#4A5999" stroke-width="3.6686" stroke-miterlimit="10" d="M1011.649,439.724"/>
				<g>
					<path fill="#EBEAEA" stroke="#4A4A4A" stroke-width="2.5" stroke-miterlimit="10" d="M937.415,467.141h-7.479
						c-2.75,0-4.983-2.231-4.983-4.986v-57.319c0-2.751,2.233-4.983,4.983-4.983h7.479c2.75,0,4.982,2.232,4.982,4.983v57.319
						C942.397,464.909,940.165,467.141,937.415,467.141z"/>
					<path fill="#EBEAEA" stroke="#4A4A4A" stroke-width="2.5" stroke-miterlimit="10" d="M994.239,467.141h-7.476
						c-2.754,0-4.985-2.231-4.985-4.986v-57.319c0-2.751,2.231-4.983,4.985-4.983h7.476c2.753,0,4.984,2.232,4.984,4.983v57.319
						C999.224,464.909,996.992,467.141,994.239,467.141z"/>
				</g>
			</g>
			<g>
				<g>
					
						<path fill="none" stroke="#4A4A4A" stroke-width="4" stroke-linecap="round" stroke-linejoin="round" stroke-miterlimit="10" d="
						M1050.126,174.002c0-34.927-24.753-59.5-59.679-59.5h-13.085c-34.928,0-66.799,24.574-66.799,59.5v66.353c0,0.204,0-0.217,0,0
						c0,20.646,31.788,38.628,70.325,38.628c38.541,0,69.237-17.982,69.237-38.628c0-0.217,0,0.204,0,0V174.002z"/>
				</g>
				
					<path fill="none" stroke="#4A5999" stroke-width="2.5" stroke-linecap="round" stroke-linejoin="round" stroke-miterlimit="10" d="
					M961.392,210.034c0-4.588,3.719-8.306,8.307-8.306s8.309,3.717,8.309,8.306"/>
				
					<path fill="none" stroke="#4A5999" stroke-width="2.5" stroke-linecap="round" stroke-linejoin="round" stroke-miterlimit="10" d="
					M993.79,210.034c0-4.588,3.72-8.306,8.307-8.306c4.588,0,8.309,3.717,8.309,8.306"/>
				
					<path fill="none" stroke="#4A5999" stroke-width="2.5" stroke-linecap="round" stroke-linejoin="round" stroke-miterlimit="10" d="
					M974.059,238.277c10.593,2.91,29.698,2.078,35.308-6.229"/>
				<g>
					<path fill="#FFFFFF" stroke="#4A5999" stroke-miterlimit="10" d="M937.646,205.466c1.094-2.695,1.017-13.723,1.191-20.256
						c0.174-6.532,1.939-7.682,4.042-11.506c2.101-3.826,6.975-7.717,11.981-7.376c5.008,0.342,12.983,5.494,14.803,7.865
						c1.815,2.374,4.817,1.984,13.706-0.7c8.893-2.684,8.1-4.87,16.615-4.787c8.516,0.083,11.796,2.972,16.122,9.139
						c4.326,6.165,2.245,36.825,2.245,36.825v16.963c0,16.448-14.548,30.59-30.996,30.59h-20.012
						c-16.449,0-28.813-14.142-28.813-30.59v-18.92l-0.95-0.022C937.581,212.69,936.55,208.159,937.646,205.466z"/>
					
						<path fill="none" stroke="#4A4A4A" stroke-width="4" stroke-linecap="round" stroke-linejoin="round" stroke-miterlimit="10" d="
						M938.662,200.481v31.152c0,16.448,12.232,29.906,28.682,29.906h20.012c16.448,0,31.058-13.458,31.058-29.906v-36.137"/>
					<path fill="#EBEAEA" stroke="#4A4A4A" stroke-width="4" stroke-miterlimit="10" d="M971.031,131.947h16.615
						c21.474,0,35.751,15.701,35.751,37.174v8.725c0,8.369,0,16.99-4.984,23.476v-11.649c0-8.195-2.452-14.964-8.327-19.496
						c-5.884-4.537-15.806-4.655-21.325,0.315c-2.723,2.451-7.313,4.03-11.269,4.03c-4.047,0-8.217-1.179-10.959-3.738
						c-5.413-5.056-11.148-5.928-17.699-2.465c-6.23,3.295-10.172,10.893-10.172,20.221v15.991l-1.017,0.936
						c-5.035-7.476-6.46-17.959-6.46-26.999v-8.722C931.186,148.181,949.468,131.947,971.031,131.947z"/>
					
						<path fill="none" stroke="#4A4A4A" stroke-width="2.5" stroke-linecap="round" stroke-linejoin="round" stroke-miterlimit="10" d="
						M996.588,210.034c0-4.588-3.719-8.306-8.309-8.306c-4.586,0-8.306,3.717-8.306,8.306"/>
					
						<path fill="none" stroke="#4A4A4A" stroke-width="2.5" stroke-linecap="round" stroke-linejoin="round" stroke-miterlimit="10" d="
						M964.19,210.034c0-4.588-3.72-8.306-8.309-8.306c-4.587,0-8.307,3.717-8.307,8.306"/>
					
						<path fill="none" stroke="#4A4A4A" stroke-width="2.5" stroke-linecap="round" stroke-linejoin="round" stroke-miterlimit="10" d="
						M955.405,238.277c10.591,2.91,29.698,2.078,35.307-6.229"/>
				</g>
			</g>
		</g>
	</g>
</g>
<g id="kadet">
	<g>
		<path fill="#FFFFFF" d="M1284.302,308.817 M1261.591,304.568h-84.095l-24.682,5.824l-5.232,4.112
			c-0.112,0.11-0.282,0.216-0.387,0.329c-7.332,7.781-12.552,18.313-12.552,29.919v153.948c0,3.751,7.345,3.299,7.345,3.299v33.083
			c0,12.767,9.795,18.784,24.487,19.382v176.26c-15.234,0-24.487,7.076-24.487,18.38v9.28h147.375V516.648h46.479
			c5.072,0,7.321-3.104,6.268-6.846c-9.646-33.703-8.706-30.586-9.031-31.259c5.971-6.314,12.16-15.136,12.16-24.583V329.978
			c0-19.283-14.042-34.131-32.99-34.131h-3.514c-3.535,0-17.533,5.395-23.673,17.154 M1251.688,304.566l2.698-9.378l-0.495-28.567
			c-0.002-0.112,0.282-0.224,0.373-0.359c0.172-0.269,0.34-0.597,0.507-0.896c4.872-8.823,6.169-30.692,3.703-42.625
			c-1.64-7.939-8.282-26.625-34.343-29.497c-14.463-1.586-24.062,2.456-35.704,9.954c-6.794,4.378-13.759-3.258-14.044-3.58
			c-0.671-0.759-1.697-1.085-2.686-0.858c-0.994,0.224-1.81,0.969-2.144,1.956c-6.353,18.621-1.73,52.958,3.456,61.852
			c0.2,0.344,0.169,0.665,0.371,0.929c0.02,0.026-0.005,0.039-0.005,0.065l0.214,27.102c0.027,3.42,3.097,10.958,4.1,14.057"/>
		<path fill="#EBEAEA" stroke="#4A4A4A" stroke-width="4" stroke-miterlimit="10" d="M1298.867,479.019h33.852l9.507,32.961
			c0.646,2.251-1.046,4.421-3.386,4.421h-50.926C1302.375,498.774,1298.867,479.019,1298.867,479.019"/>
		<path fill="#EBEAEA" stroke="#4A5999" stroke-miterlimit="10" d="M1286.197,312.568c4.777-11.423,18.094-14.229,21.884-14.229
			h3.582c17.593,0,31.08,14.045,31.08,31.64v123.983c0,17.592-13.487,31.288-31.08,31.288h-3.582c-3.111,0-6.117-0.342-8.959-1.08"
			/>
		<path fill="#FFFFFF" stroke="#4A5999" stroke-width="4" stroke-miterlimit="10" d="M1299.128,481.791v-53.238V342.65
			c0-20.946-18.077-38.082-39.022-38.082h-9.574"/>
		<path fill="none" stroke="#4A4A4A" stroke-width="4" stroke-linecap="round" stroke-linejoin="round" stroke-miterlimit="10" d="
			M1286.197,311.945c4.777-11.421,18.094-14.853,21.884-14.853h3.582c17.593,0,32.326,15.292,32.326,32.887v123.983
			c0,17.592-14.733,32.531-32.326,32.531h-3.582c-2.604,0-5.134-0.438-7.558-1.169"/>
		<path fill="none" stroke="#4A4A4A" stroke-width="4" stroke-linecap="round" stroke-linejoin="round" stroke-miterlimit="10" d="
			M1164.237,553.934c-14.019,0-22.117-8.179-22.117-18.851v-33.635h26.166"/>
		<path fill="none" stroke="#4A4A4A" stroke-width="4" stroke-linecap="round" stroke-linejoin="round" stroke-miterlimit="10" d="
			M1223.115,730.725h-61.012c-10.839,0-19.983,7.541-19.983,18.38v9.035h66.044"/>
		<rect x="1210" y="535" fill="#EBEAEA" width="13" height="195"/>
		<rect x="1276" y="535" fill="#EBEAEA" width="13" height="195"/>
		<path fill="none" stroke="#4A4A4A" stroke-width="4" stroke-linecap="round" stroke-linejoin="round" stroke-miterlimit="10" d="
			M1206.917,758.14h82.241v-27.415h-62.255c-10.994,0-19.986,8.992-19.986,19.986V758.14z"/>
		<path fill="none" stroke="#4A4A4A" stroke-width="4" stroke-linecap="round" stroke-linejoin="round" stroke-miterlimit="10" d="
			M1289.158,502.696v228.028h-122.117V501.448h-27.934c-2.037,0-4.464-0.71-4.464-2.747V344.753
			c0-22.192,18.925-40.032,41.119-40.032l0,0"/>
		
			<line fill="none" stroke="#4A4A4A" stroke-width="2.5" stroke-linecap="round" stroke-linejoin="round" stroke-miterlimit="10" x1="1165.794" y1="501.448" x2="1257.824" y2="501.448"/>
		<path fill="none" stroke="#4A4A4A" stroke-width="4" stroke-linecap="round" stroke-linejoin="round" stroke-miterlimit="10" d="
			M1223.115,730.725h66.043c0,0,0-228.333,0-228.34c3.482,0,9.709-3.61,9.709-9.838l0.261-149.897
			c0-20.946-18.077-38.082-39.022-38.082h-8.418"/>
		
			<line fill="none" stroke="#4A4A4A" stroke-width="2.5" stroke-linecap="round" stroke-linejoin="round" stroke-miterlimit="10" x1="1223.115" y1="535.092" x2="1223.115" y2="729.479"/>
		
			<line fill="none" stroke="#4A4A4A" stroke-width="2.5" stroke-linecap="round" stroke-linejoin="round" stroke-miterlimit="10" x1="1160.81" y1="501.448" x2="1160.81" y2="365.626"/>
		
			<line fill="none" stroke="#4A4A4A" stroke-width="2.5" stroke-linecap="round" stroke-linejoin="round" stroke-miterlimit="10" x1="1257.615" y1="502.696" x2="1257.615" y2="365.626"/>
		
			<path fill="#FFFFFF" stroke="#4A4A4A" stroke-width="4" stroke-linecap="round" stroke-linejoin="round" stroke-miterlimit="10" d="
			M1261.002,502.736v32.347c0,10.672,9.274,18.32,18.053,18.32c7.642,0,17.266-6.508,17.266-17.832
			c0-14.437,0.285-36.797,0.285-36.797"/>
		<path fill="none" stroke="#4A4A4A" stroke-width="4" stroke-linecap="round" stroke-linejoin="round" stroke-miterlimit="10" d="
			M1259.239,502.385h29.919c4.047,0,9.991-2.758,9.991-15.781"/>
		<g>
			<g>
				
					<path fill="none" stroke="#4A4A4A" stroke-width="4" stroke-linecap="round" stroke-linejoin="round" stroke-miterlimit="10" d="
					M1254.269,260.956v30.447c0,16.448-14.394,30.612-30.844,30.612h-20.01c-16.45,0-28.897-14.164-28.897-30.612v-35.431"/>
				
					<path fill="#EBEAEA" stroke="#4A4A4A" stroke-width="4" stroke-linecap="round" stroke-linejoin="round" stroke-miterlimit="10" d="
					M1225.344,193.794c-14.122-2.077-23.52,1.22-36.136,8.722c-9.776,5.812-18.626-4.958-18.626-4.958
					c-7.062,19.521-1.049,57.045,3.936,63.532v-11.65c0-8.196,4.926-20.57,12.199-19.097c24.595,4.985,27.873-12.585,52.172-1.135
					c6.376,3.004,8.147,14.218,9.716,23.415c0.706,4.13,4.792,11.677,4.792,11.677l-0.029,0.935c5.035-7.477,6.83-30.276,4.6-42.18
					C1255.634,210.595,1246.677,196.931,1225.344,193.794z"/>
				<g>
					
						<path fill="none" stroke="#4A4A4A" stroke-width="2.5" stroke-linecap="round" stroke-linejoin="round" stroke-miterlimit="10" d="
						M1185.47,268.018c0-4.587,3.719-8.307,8.307-8.307s8.307,3.72,8.307,8.307"/>
					
						<path fill="none" stroke="#4A4A4A" stroke-width="2.5" stroke-linecap="round" stroke-linejoin="round" stroke-miterlimit="10" d="
						M1217.869,268.018c0-4.587,3.718-8.307,8.307-8.307c4.586,0,8.308,3.72,8.308,8.307"/>
				</g>
				
					<path fill="none" stroke="#4A4A4A" stroke-width="2.5" stroke-linecap="round" stroke-linejoin="round" stroke-miterlimit="10" d="
					M1195.231,290.231c16.907,15.816,31.359,0,31.359,0"/>
			</g>
			<path fill="none" stroke="#4A4A4A" stroke-width="4" stroke-linecap="round" stroke-linejoin="round" stroke-miterlimit="10" d="
				M1281.683,231.986c0-34.925-24.755-59.5-59.68-59.5h-13.085c-34.926,0-66.798,24.575-66.798,59.5v66.353c0,0.203,0-0.215,0,0
				c0,20.645,31.786,38.629,70.326,38.629s69.236-17.985,69.236-38.629c0-0.216,0,0.203,0,0V231.986z"/>
		</g>
	</g>
</g>
</svg>
