<svg id="work" xmlns="http://www.w3.org/2000/svg" viewBox="0 0 1422 870"><defs><style>.cls-1,.cls-12{fill:#ff0083;}.cls-14,.cls-2,.cls-5{fill:none;}.cls-10,.cls-12,.cls-2,.cls-5,.cls-7,.cls-8,.cls-9{stroke:#4a4a4a;}.cls-10,.cls-12,.cls-14,.cls-2,.cls-5,.cls-7,.cls-8,.cls-9{stroke-linecap:round;stroke-linejoin:round;}.cls-10,.cls-12,.cls-2,.cls-9{stroke-width:2.5px;}.cls-10,.cls-3,.cls-8{fill:#fff;}.cls-4,.cls-9{fill:#ebebeb;}.cls-5,.cls-7,.cls-8{stroke-width:4px;}.cls-6,.cls-7{fill:#ebeaea;}.cls-11{fill:#ededed;}.cls-13{fill:#f9f9f9;}.cls-14{stroke:#ff339c;stroke-width:3px;}</style></defs><title>11,2</title><path class="cls-1" d="M1153.8,275a4.86,4.86,0,0,1-1.63,6.67l-27.31,16.6a4.86,4.86,0,0,1-6.67-1.63l-35.09-57.74a4.86,4.86,0,0,1,1.63-6.67l27.31-16.6a4.86,4.86,0,0,1,6.67,1.63Z"/><path class="cls-2" d="M1153.8,275a4.86,4.86,0,0,1-1.63,6.67l-27.31,16.6a4.86,4.86,0,0,1-6.67-1.63l-35.09-57.74a4.86,4.86,0,0,1,1.63-6.67l27.31-16.6a4.86,4.86,0,0,1,6.67,1.63Z"/><path class="cls-2" d="M1155.42,277.47a4.86,4.86,0,0,1-1.63,6.67l-27.31,16.59a4.85,4.85,0,0,1-6.67-1.62"/><line class="cls-2" x1="1118.6" y1="285.96" x2="1143.69" y2="270.99"/><path class="cls-3" d="M1126.66,263l-2.8,1.73-2-3.26-1.78,1.1,2,3.27-2.8,1.73-2-3.29-5.93,3.66-1.72-2.77.25-.15c.36-.24.73-.46,1.09-.71a1.06,1.06,0,0,0,.36-1.59c-.17-.29-.33-.58-.5-.86l-6.3-10.19c-.29-.46-.58-.92-.88-1.37a1.09,1.09,0,0,0-1.59-.4c-.39.21-.76.44-1.14.67a1.71,1.71,0,0,0-.23.13l-1.72-2.78,5.93-3.66-2-3.28c.94-.57,1.87-1.15,2.8-1.73l2,3.26,1.79-1.1-2-3.26,2.8-1.74.16.25c.6,1,1.19,1.91,1.77,2.87.14.22.25.3.49.16a5.22,5.22,0,0,1,.59-.25,6.92,6.92,0,0,1,3.42-.49,5.06,5.06,0,0,1,3.68,2.18,5,5,0,0,1,.91,3,6.22,6.22,0,0,1-1.43,3.8l-.18.25a.72.72,0,0,0,.3,0,8.16,8.16,0,0,1,2.64-.43,5.08,5.08,0,0,1,3.62,1.56,5.86,5.86,0,0,1,1.29,6.52,8.47,8.47,0,0,1-2.73,3.56c-.18.16-.19.25-.07.45C1125.35,260.88,1126,262,1126.66,263Zm-13.59-8.52c0,.07.06.12.09.16.87,1.41,1.73,2.82,2.61,4.22.19.3.4.59.62.88a.48.48,0,0,0,.66.16c.7-.39,1.39-.78,2.07-1.21a19.73,19.73,0,0,0,1.68-1.2,3.37,3.37,0,0,0,.78-4.4,2.87,2.87,0,0,0-3.11-1.48,6.68,6.68,0,0,0-2.11.85c-1,.61-2.08,1.26-3.12,1.9Zm-1.83-3,.19-.1c.69-.42,1.38-.84,2.06-1.27a10.37,10.37,0,0,0,2.17-1.67,2.88,2.88,0,0,0,.85-1.89A2.62,2.62,0,0,0,1113,244a8.13,8.13,0,0,0-1.41.64c-1.07.62-2.12,1.28-3.18,1.93l-.16.12Z"/><path class="cls-4" d="M1002.8,552.39h45.84a3.46,3.46,0,0,0,3-4.39l-8.24-30s8.78-13,8.78-22.31V384.12c0-15.83-12.22-29.73-28-29.73H1021c-3.42,0-15.4,3.17-19.69,13.44l-1.69,5.1Z"/><path class="cls-5" d="M1043,518.26c6.53-5.43,11.24-13.6,11.24-22.55V384.12c0-15.83-14.22-29.73-30-29.73H1021c-3.42,0-15.4,3.16-19.69,13.43l-1.45,4.42"/><path class="cls-5" d="M1002.81,551.9h45.83a3.11,3.11,0,0,0,3-4l-8.56-29.67h-35.84"/><path class="cls-3" d="M1010.22,367.71m3.19,65.52,57.45-61.5L1111.32,305l-1.21-4.45,6.47-8.9-7.69-29.94-11.73.81L1089.88,288l-26.71,44.91-51.78,30.34-22.86.38-80.32-.11L884.62,369l-5,3.92c-.11.1-.27.2-.37.31-7,7.42-12,17.47-12,28.56L867,548.88c0,3.58,7,3.16,7,3.16l0,31.6c0,12.2,9.33,18,23.37,18.55l-.24,168.36c-14.55,0-23.4,6.72-23.41,17.52l0,8.86,140.78.2.32-230.9ZM979.07,363.6l2.59-9-.44-27.29c0-.11.28-.21.36-.34s.33-.57.49-.86c4.66-8.42,5.93-29.31,3.59-40.71-1.55-7.58-7.87-25.44-32.76-28.22-13.81-1.53-23,2.32-34.12,9.46-6.49,4.18-13.14-3.12-13.41-3.43a2.61,2.61,0,0,0-2.56-.83,2.84,2.84,0,0,0-2,1.87c-6.1,17.77-1.73,50.58,3.21,59.08.2.33.16.64.36.89,0,0,0,0,0,.06l.17,25.89c0,3.27,3,10.47,3.9,13.43"/><path class="cls-2" d="M895.21,601.67c-13.39,0-21.12-7.84-21.1-18l0-32.13,25,0"/><path class="cls-5" d="M951.21,770.62l-58.27-.08c-10.36,0-19.1,7.18-19.12,17.53v8.63l63.09.09"/><rect class="cls-6" x="852.43" y="670.18" width="185.9" height="12.82" transform="translate(267.27 1620.89) rotate(-89.91)"/><polygon class="cls-6" points="1014.16 769.64 1002.94 769.63 1003.2 446.17 1014.42 433.24 1014.16 769.64"/><path class="cls-5" d="M935.7,796.79l78.56.11,0-26.19-59.47-.08a19.15,19.15,0,0,0-19.12,19.06Z"/><path class="cls-5" d="M1014.6,552.9l-.3,217.81-116.65-.16.31-219-26.68,0c-1.95,0-4.27-.68-4.26-2.63l.2-147c0-21.2,18.13-38.21,39.33-38.18h0"/><line class="cls-2" x1="895.01" y1="551.54" x2="1014.76" y2="551.67"/><path class="cls-5" d="M979.07,363.6h33.13l50.57-29.5,25.08-43.7c4.45-5.26,28.73,5.67,23.47,15.38s-39.24,64.32-39.24,64.32L1015,432l-.43,120.59-.3,218.11-63.09-.09"/><line class="cls-2" x1="951.47" y1="583.76" x2="951.21" y2="769.43"/><line class="cls-2" x1="892" y1="551.54" x2="892.18" y2="421.8"/><path class="cls-5" d="M981.59,322l0,29.08c0,15.71-13.78,29.22-29.5,29.2l-19.11,0c-15.72,0-27.58-13.57-27.56-29.28l0-33.84"/><path class="cls-7" d="M954.06,257.76c-13.49-2-22.47,1.13-34.53,8.28-9.35,5.54-17.78-4.76-17.78-4.76-6.78,18.64-1.09,54.49,3.67,60.69V310.84c0-7.83,4.74-19.64,11.68-18.22,23.49,4.79,26.64-12,49.84-1,6.08,2.88,7.76,13.6,9.24,22.38.68,3.95,4.57,11.16,4.57,11.16l0,.9c4.82-7.14,6.56-28.92,4.45-40.29C983,273.85,974.43,260.79,954.06,257.76Z"/><path class="cls-2" d="M915.87,328.6a7.94,7.94,0,0,1,15.87,0"/><path class="cls-2" d="M946.82,328.65a7.94,7.94,0,1,1,15.87,0"/><path class="cls-2" d="M925.16,349.83c16.14,15.13,30,.05,30,.05"/><path class="cls-5" d="M1007.82,294.31c0-33.35-23.57-56.86-56.93-56.91l-12.5,0c-33.36,0-63.83,23.39-63.88,56.75l-.09,63.38h0c0,19.71,30.31,36.94,67.13,37s66.16-17.09,66.18-36.81h0Z"/><path class="cls-2" d="M1090.55,288.93l6.08-24.79a3.64,3.64,0,0,1,3.46-2.78l5.26-.1a6.47,6.47,0,0,1,6.53,5.53l3.62,24.49a2.73,2.73,0,0,1-.28,1.68l-3.63,7S1103.23,287.58,1090.55,288.93Z"/><line class="cls-5" x1="1243.38" y1="797.39" x2="1261.38" y2="797.39"/><line class="cls-5" x1="257.38" y1="797.39" x2="1225.38" y2="797.39"/><line class="cls-5" x1="206.23" y1="797.39" x2="241.38" y2="797.39"/><path class="cls-3" d="M419.67,771.42,385,650.42s-20.33-58-17-86.67c-5,8.33-18,37.67-18,37.67l4.67,40.33c.33,5-.67,4.67-4.33,4.67S322,640.75,322,640.75s-4.33-2.67-2.33-6,10.67-35.33,10.67-35.33c-1.67-47,13.33-108.67,64.33-155.34,15.67-2,103,.34,103,.34,13.33,22.33,46,72.33,57,113.66,5,27,5,62.67,4,70.67-2.67-1.33-2,2.67-2,2.67L524,770.08Z"/><path class="cls-8" d="M502.18,411.47a32.77,32.77,0,0,1-19.1,42.2l-41.72,15.71a32.75,32.75,0,0,1-42.2-19.1l-22.45-59.6a32.76,32.76,0,0,1,19.11-42.19l41.72-15.72a32.75,32.75,0,0,1,42.19,19.11Z"/><path class="cls-9" d="M465.83,336.44c-2.46-3.44,1.8-17.65,19.17,6.52,2.56,3.57-1.39,9.87-5.89,8.68"/><path class="cls-10" d="M481.87,420.69c2.46,7.74-.48,15.58-6.55,17.52s-13-2.78-15.46-10.52.47-15.58,6.55-17.51S479.41,413,481.87,420.69Z"/><polygon class="cls-11" points="482.79 712.4 492.79 725.82 483.02 770.76 469.92 770.76 482.79 712.4"/><polygon class="cls-11" points="397.84 648.9 384.96 648.9 421.86 771.62 434.73 771.62 397.84 648.9"/><path class="cls-2" d="M333.16,598c8.37-1.77,18,2.9,18.17,4.75,1,9,3.05,36.73,3.05,36.73s.47,6.88-3.76,7.11"/><path class="cls-5" d="M395.61,442.27c-23.79,33-71.51,72.56-64,156.11"/><polygon class="cls-12" points="472.96 492.98 445.54 510.02 439.94 487.18 472.01 489.12 472.96 492.98"/><polygon class="cls-12" points="481.26 491.07 511.77 489.65 503.38 467.68 479.84 487.35 481.26 491.07"/><path class="cls-12" d="M484,488.18A9.65,9.65,0,0,0,471.86,482,9.59,9.59,0,1,0,484,488.18Z"/><path class="cls-9" d="M425.53,426.1c11.77-2.74,7.22-27.46,39.72-18.06,21.34-25.09,28.36-8.45,42.39-10.39-8.6,14.46-19.53,22.29-30.46,17.79s-15,3.69-18,8.05C455.65,428.46,441,434.36,425.53,426.1Z"/><rect class="cls-3" x="232.84" y="282.38" width="99.74" height="82.93" transform="translate(-109.34 500.19) rotate(-73.1)"/><polygon class="cls-3" points="363.46 253.08 310.11 428.74 308.45 384.81 337.65 288.66 363.46 253.08"/><polygon class="cls-13" points="317.43 353.43 308.39 383.16 229.13 358.71 238.17 328.99 317.43 353.43"/><polygon class="cls-5" points="363.27 252.92 309.46 428.44 307.92 384.5 337.37 288.44 363.27 252.92"/><rect class="cls-5" x="232.84" y="282.38" width="99.74" height="82.93" transform="translate(-109.34 500.19) rotate(-73.1)"/><rect class="cls-12" x="258.49" y="316.98" width="99.74" height="29.37" transform="translate(-98.76 530.01) rotate(-73.06)"/><line class="cls-5" x1="385.23" y1="652.14" x2="420.57" y2="770.33"/><line class="cls-5" x1="557.23" y1="629.14" x2="524.41" y2="769.47"/><line class="cls-2" x1="482.36" y1="707.68" x2="470.77" y2="768.61"/><path class="cls-8" d="M548.44,797.36a25.53,25.53,0,0,0-25.33-25.74H418.44a25.53,25.53,0,0,0-25.33,25.74Z"/><line class="cls-2" x1="469.49" y1="772.04" x2="469.49" y2="797.36"/><path class="cls-2" d="M401.34,453.67c8.51-1,19.76-8,11.24-52.82"/><path class="cls-9" d="M446.44,387.94a18.13,18.13,0,1,0-15.78,20.2A18.13,18.13,0,0,0,446.44,387.94Z"/><path class="cls-10" d="M666.73,610.81a14.55,14.55,0,1,0-11.72-11"/><path class="cls-10" d="M655.82,600.72c4.07-3.23,13.08,4.25,9.35,9.85l-109,118-4.69-2.33Z"/><polyline class="cls-2" points="351.33 602.71 368.27 559.83 417.51 527.67"/><path class="cls-2" d="M350.62,646.55,324.38,642a5.5,5.5,0,0,1-3.78-2.53,5.43,5.43,0,0,1-.5-4.46l11.43-36.64"/><path class="cls-2" d="M474.71,371.44c1.63,4.42-.24,9.17-4.16,10.61s-8.41-1-10-5.4.24-9.16,4.16-10.6S473.1,367,474.71,371.44Z"/><path class="cls-2" d="M438.65,384.65c1.67,4.4-.14,9.16-4,10.65s-8.42-.89-10.09-5.29.14-9.16,4-10.64S437,380.25,438.65,384.65Z"/><path class="cls-3" d="M494,379.69l-34.6-14a7.06,7.06,0,0,0-6.13.48,7.23,7.23,0,0,0-3.52,5L446.83,388a6.58,6.58,0,0,0,1.31,5.18A6.77,6.77,0,0,0,453,395.8l34.66,2.74"/><path class="cls-2" d="M494,379.69l-34.6-14a7.06,7.06,0,0,0-6.13.48,7.23,7.23,0,0,0-3.52,5L446.83,388a6.58,6.58,0,0,0,1.31,5.18A6.77,6.77,0,0,0,453,395.8l34.66,2.74"/><path class="cls-3" d="M495.23,446.14l18.09-16.69a8.63,8.63,0,0,0-1-13.43L487.9,399.14l4.33-20.67,57.55,17.13A23.08,23.08,0,0,1,565,425.27l-28.78,83.2"/><path class="cls-5" d="M495.23,446.14l18.09-16.69a8.63,8.63,0,0,0-1-13.43L487.9,399.14l4.33-20.67,57.55,17.13A23.08,23.08,0,0,1,565,425.27l-28.78,83.2"/><path class="cls-5" d="M519.57,479.14s10.66,16.67,16.66,29.33l1.6,3.63C546,530,562.08,561.14,559,628.43L384.23,650.14c-9-27-18.93-51.62-16-88.31"/><path class="cls-9" d="M368.38,374.56a7.51,7.51,0,0,1,4.55-8.56l15.95-6.38a5.37,5.37,0,0,1,6.45,8l-16.28,24.19a4,4,0,0,1-7.25-1.39Z"/><path class="cls-12" d="M298.73,648.64s54.5-5.5,80.5,45.5c-.5,0-26.5,33-26.5,33-14.5-47.5-67-42-67-42Z"/><path class="cls-2" d="M367.23,683.81s-6,10.33.34,16.33"/><path class="cls-2" d="M299.23,667.81s6,2.66,4.67,12.66"/><path class="cls-9" d="M169.57,671.14c26,40,80.66,26,80.66,26l-30.66,25c-50.67,3.33-69.34-13.67-83.34-29.67C137.57,692.47,169.57,671.14,169.57,671.14Z"/><path class="cls-4" d="M194.23,784.81s21.34-49.67,76-48.34c0,.67,6,30,6,30-24,0-51.33,26-58.66,43.34C216.9,809.81,194.23,784.81,194.23,784.81Z"/><path class="cls-9" d="M194.23,784.81s21.34-49.67,76-48.34c0,.67,6,30,6,30-24,0-51.33,26-58.66,43.34C216.9,809.81,194.23,784.81,194.23,784.81Z"/><path class="cls-2" d="M254.57,741.47s3,9.34,13.66,6.67"/><path class="cls-2" d="M210.23,795.14s5-6.66,12.34-2"/><path class="cls-9" d="M194.23,784.81c-21,1.66-41.5-14.17-41.5-14.17l-30,4.5c16,14,56.79,32.5,84.65,24"/><path class="cls-2" d="M184.23,662.64c55-33.5,135.5-56,135.5-56"/><path class="cls-2" d="M204.73,677.14s25.5-15,54.5-24"/><path class="cls-14" d="M419.32,112.43q-6,19.68-10.31,39.61"/><path class="cls-14" d="M1210,214a99.06,99.06,0,0,0-137.27-49.21"/><path class="cls-14" d="M1120.73,392a139.64,139.64,0,0,0,126.78-85.87"/><path class="cls-14" d="M1124.26,94.47a158.23,158.23,0,0,0-150.38,94.68"/><path class="cls-14" d="M1287.56,331.55a185.93,185.93,0,0,0,3.75-149.63"/><path class="cls-14" d="M932.62,110.21q-6.9,10.74-12.79,22"/><path class="cls-14" d="M749.69,608.26a484.72,484.72,0,0,0,73.64,81.67q6.39,5.64,12.92,11"/><line class="cls-14" x1="1187.78" y1="628.37" x2="1198.77" y2="712.05"/><line class="cls-14" x1="1184.27" y1="601.64" x2="1185.87" y2="613.82"/><line class="cls-14" x1="1181.52" y1="580.76" x2="1183.1" y2="592.76"/><line class="cls-14" x1="1169.72" y1="490.95" x2="1180.51" y2="573.04"/><line class="cls-14" x1="685.33" y1="314.54" x2="769.68" y2="311.56"/><line class="cls-14" x1="658.38" y1="315.49" x2="670.67" y2="315.06"/><line class="cls-14" x1="637.34" y1="316.24" x2="649.44" y2="315.81"/><line class="cls-14" x1="546.82" y1="319.44" x2="629.56" y2="316.51"/><line class="cls-14" x1="1214.23" y1="415.39" x2="1240.23" y2="471.39"/><polyline class="cls-14" points="1105.73 370.46 1094.23 420.39 1113.23 438.39 1085.23 596.39"/><line class="cls-14" x1="1264.09" y1="91.82" x2="1294.23" y2="59.39"/><line class="cls-14" x1="1253.99" y1="102.69" x2="1264.09" y2="91.82"/><line class="cls-14" x1="1238.8" y1="119.03" x2="1245.25" y2="112.1"/><line class="cls-14" x1="1215.23" y1="144.39" x2="1230.85" y2="127.59"/><polyline class="cls-14" points="1001.23 117.39 980.23 92.39 987.23 78.39 971.23 58.39"/><polyline class="cls-14" points="1251.43 588.4 1238.22 558.54 1248.84 547.04 1239.03 523.38"/><polyline class="cls-14" points="666.25 431.52 697.36 421.63 707.64 433.44 732.22 426.27"/><line class="cls-14" x1="825.23" y1="479.39" x2="797.23" y2="495.39"/><polyline class="cls-14" points="799.23 479.39 784.23 489.39 777.23 522.39 704.23 566.39"/><line class="cls-14" x1="709.89" y1="737.18" x2="741.58" y2="704.6"/></svg>