<svg id="work" xmlns="http://www.w3.org/2000/svg" viewBox="0 0 1422 870"><defs><style>.cls-1{fill:#fff;}.cls-2,.cls-7{fill:#ebebeb;}.Graphic-Style-7,.cls-3,.cls-5,.cls-6{fill:none;}.cls-3{stroke:#ff339c;stroke-width:3px;}.Graphic-Style-7,.cls-3,.cls-5,.cls-6,.cls-7,.cls-8{stroke-linecap:round;stroke-linejoin:round;}.cls-4{fill:#ff0083;}.cls-5,.cls-6,.cls-7,.cls-8{stroke:#4a4a4a;}.cls-5,.cls-8{stroke-width:4px;}.Graphic-Style-7,.cls-6,.cls-7{stroke-width:2.5px;}.cls-8{fill:#ededed;}.Graphic-Style-7{stroke:#494949;}</style></defs><title>9,2</title><path class="cls-1" d="M1285.5,629c-2-111.5-33.5-245.5-112-290-2.5,16.5-6,77.5-10.5,87.5-18-23-20.5-72,5.5-89-16,8-72,49-77,56,4.5-51.5,40-68,80-58-26.5-37.5-85-29-94-25.5,27.5-40,90-29.5,96,22.5,1-53,53.5-56.5,75-20-34-11-56.5,1.5-72,20,29.5-27.5,80-12.5,67.5,40-22.5-37-48-35.5-58.5-36,67,57.5,98,119.5,118,221C1305,571,1285.5,629,1285.5,629Z"/><path class="cls-1" d="M867.75,561c9.5-17.5,28-24,34.5-27,7.5,4.25,27.25,9.75,44-6.5,15.25,7.75,77.25,1.5,77.5-16,42.5,2.75,77.75,13,93.75,27.25-.5,11.25-7,30.25-7,30.25S963.75,602,926,595.5,867.75,561,867.75,561Z"/><path class="cls-1" d="M101.33,569l3.34-35.67c1.66,2.34,9-30.66,9-30.66,2.33,1.33,14-40,14-40l1.66,3,18.34-50.34,1.33,2.34,26.08-45.07,1.25-.93,31.36-41.44c2.64.44,35-31.35,35-31.35C245.67,299.67,276,280,276,280l-2.33-4.67L239,295l-7.67-14.33,1.34,15.66s-15.34,3.67-26,14.34c-3-.67-19.34,11.33-29.67,26a28.8,28.8,0,0,1-4.33-1c-16,13.66-30.67,29.66-37.34,42.66C129.67,344.67,159.67,237.67,280.67,241,272,233.67,260,228.67,260,228.67,264,216,261.33,211,261.33,211c-3.66,9.67-6.66,12-6.66,12-15.34-11.33-18.34-12.67-18.34-12.67l-1-5c-16.33-4.66-30.66-7.33-36-8.66a5.38,5.38,0,0,1,.67-3.34c-15.33.34-40,5.67-49,9,1.67-16.33,20.67-45.33,60.33-46.66s85,46.66,94.34,61.66c7.66-44.66,23-99,87.33-91.66-10.33,18.33-9.67,31-9.67,31-11.66,4.66-17,11.66-16,19.33a7.14,7.14,0,0,1,4.34,2c-7.34,5-15,18.33-15.67,22.33-7-7.33-13.33-3-13.33-3a41.65,41.65,0,0,1,9.33,6,25.92,25.92,0,0,0-7,9.34c18-11,23.67-11.34,23.67-11.34,10,6,15.66,7.34,15.66,7.34-5-7-5-9-5-9C396.67,195.67,414,202,414,202c4.33,5.33,7.67,10.33,7.67,10.33l1-7c15.33,2.67,37,15.34,57.66,45C569.67,229.67,631.67,221.67,720,258a304.17,304.17,0,0,1,73.67,45.33c-38-18.33-70,12-73,37-63-35.66-108.67-12.66-151,27.67C573,404.33,590,553.33,590,553.33L588,557l-5,15.67-2.33,7.66L560.33,368C485,323.67,454,339.33,411.67,374.67,388.67,339,364.33,336,332,353.33c-4.33,3.34-13,11.34-13.33,12.34C311,381,304.33,388.67,293.33,394c7-57.67-6-84.67-18.33-93.67C260,308.67,256,312,256,312c-.33,1-35.33,32.33-35.33,32.33L190,381.67l.33,2.66L163.57,426c2.1-.32-18.9,44.34-18.9,44.34L148,469s-11.58,41.9-10.67,41.67c2.67-.67-4,29.66-4,29.66,2,1-2.66,33-2.66,33l-18.34,17S101.67,567.67,101.33,569Z"/><path class="cls-1" d="M1286,662a15,15,0,0,0-15,15h0a15,15,0,0,0,15,15h16a15,15,0,0,1,15,15v3a15,15,0,0,0,15,15h50a15,15,0,0,1,15,15v6a15,15,0,0,1-15,15h-81a15,15,0,0,0-15,15v3a15,15,0,0,1-15,15h-38a15,15,0,0,0-15,15v4a15,15,0,0,1-15,15h-33a15,15,0,0,0-15,15v5a15,15,0,0,1-15,15H353a15,15,0,0,1-15-15v-5a15,15,0,0,0-15-15H286a15,15,0,0,1-15-15v-4a15,15,0,0,0-15-15H192a15,15,0,0,1-15-15v-3a15,15,0,0,0-15-15h-27a15,15,0,0,1-15-15v-6a15,15,0,0,1,15-15H323a14.51,14.51,0,1,0,0-29H111.05a15,15,0,0,1-15-15v-4a15,15,0,0,0-15-15h0a15,15,0,0,1-15-15v-6c0-8.25-4.63-15-10.28-15s-10.28-6.75-10.28-15v-6a15,15,0,0,1,15-15H65a15,15,0,0,0,15-15v-5a15,15,0,0,1,15-15l228,0h817c8.25,0,15,0,15,0s5,0,11,.05,11,0,11-.05,6.75,0,15,0h179a15,15,0,0,1,15,15v6a15,15,0,0,1-15,15h-13a15,15,0,0,0-15,15v5a15,15,0,0,0,15,15h24a15,15,0,0,1,15,15v6a15,15,0,0,1-15,15Z"/><path class="cls-2" d="M245.5,299.87l-2.78-1-35,34c.26-.23,0-2.61,0-2.61-9.08,12.44-32.61,42.37-32.61,42.37S158.4,403.91,163.57,426c27.9-48.6,55.83-83.6,89.31-111,35.64-29.2,52.19-30.76,71.27-33.59C292.57,270.89,278.24,276.72,245.5,299.87Z"/><path class="cls-2" d="M936.62,717.37c3,0,5.54,5.4,5.54,12s-9.45,12-21,12H610.55c-11.55,0-21,5-21,11s-9.45,11-21,11H549c-11.55,0-21,4-21,9s9.45,8.94,21,8.94h62.17c11.55,0,21-4.71,21-10.47s9.45-10.48,21-10.48h86c11.55,0,21,5.39,21,12s-9.45,12-21,12H701.69c-11.55,0-21,4.72-21,10.48s-9.45,10.47-21,10.47h-34c-11.55,0-21,5-21,11.17s-9.45,11.17-21,11.17H380.17c-11.55,0-21-5.39-21-12s9.45-12,21-12h33.95c11.55,0,21-3.93,21-8.74s-9.45-8.74-21-8.74H303.47c-11.55,0-21-5.39-21-12s9.45-12,21-12h92.36c11.55,0,21-5.12,21-11.37s9.45-11.38,21-11.38h52.26c11.55,0,21-4.59,21-10.21s-9.45-10.21-21-10.21H396.92c-11.55,0-21-5.39-21-12s9.45-12,21-12H600.49c11.55,0,21,5,21,11.15s9.45,11.15,21,11.15h22c11.55,0,21-5.27,21-11.72s9.45-11.72,21-11.72h48.65c11.55,0,21-4.53,21-10.06s9.45-10.06,21-10.06h86c11.55,0,21,4.53,21,10.06s6.06,10.06,13.47,10.06,13.47,5.27,13.47,11.72S933.57,717.37,936.62,717.37Zm-143.18,55c0,6.59,9.45,12,21,12h8.37c11.55,0,21-5.39,21-12s-9.45-12-21-12h-8.37C802.89,760.35,793.44,765.74,793.44,772.33Z"/><path class="cls-1" d="M778.41,733.78S796,746.14,812,727.48c14.29-16.7,33-39.09,33-39.09s4.89-6.31-9.68-18.15-33.23,4.29-39.9,7.56c1.67-4.74,8.67-20.74-16-25.74-21-32.67-27-60.34-79-43,0-2,20-63,20-65.67s-1.33-5.66-15.33-8-96.67-13-99-13.33-6.67,3.33-9.67,10.33-22.33,64-22.33,64l-26.67-1.33s-31-55.67-89-58.67c-43.66,1.34-63.33-.66-63.33-.66l253,154.33,71-27.33,46,67A21.86,21.86,0,0,0,778.41,733.78Z"/><path class="cls-2" d="M1149.2,372.93s14.43,1.27,23.65-34.89C1158.2,343.39,1155.34,356.48,1149.2,372.93Z"/><path class="cls-2" d="M1173.32,337.14c30.5,22.25,42.68,35.18,71.09,86.84,5.41,4.91,9.21,8,16.06,5.09-17.15-35.43-43.65-73.84-78.65-96.51A58.33,58.33,0,0,0,1173.32,337.14Z"/><path class="cls-2" d="M1168.25,338.08c16.82-18.19,63.94-16.92,77.63,31.2a14,14,0,0,0,0,5.17c-14.81-26.56-28.76-40.26-73-36.41C1173,338.08,1168.25,338.08,1168.25,338.08Z"/><path class="cls-2" d="M1162.14,304.62s-12.21-4.2-27.26,7c17.83,8.09,25.69,12.73,36.94,24.48C1173.77,319.19,1168.21,312.85,1162.14,304.62Z"/><path class="cls-2" d="M1190.18,294.29s17.89-2.79,36.14,13.66c-22.5,1.94-33.14,6.94-52.25,28.19h-2.25C1173.32,310.14,1177,306.69,1190.18,294.29Z"/><path class="cls-3" d="M947.22,86.28c-67.31,41-109.89,94.87-99.7,131.71,9.88,35.73,78.05,37.88,152.25,4.8,59.36-26.46,101.07-71.09,93.17-99.67-6.33-22.86-50-24.24-97.44-3.07-38,16.94-64.69,45.5-59.63,63.79,4,14.63,32,15.51,62.36,2,24.32-10.84,41.4-29.11,38.16-40.82-2.59-9.37-20.46-9.93-39.91-1.26-10.6,4.73-19.06,11.67-22.72,18"/><path class="cls-3" d="M804.84,192.39s3.23-14.5,17.73-29.5"/><path class="cls-3" d="M1143.4,160.89a70,70,0,0,1-18.83,31.5"/><path class="cls-4" d="M1176.49,706.31c-10.92-30.42-35.35-39.53-51.13-41.48-35,13.31-46.1,47.33-44.72,61.85,30.18-18.29,84.69-8.61,92.44-8.07C1172.32,709.89,1176.49,706.31,1176.49,706.31Z"/><path class="cls-4" d="M1188.17,704.05c5.9-13.41,3.51-24.66,3.51-24.66,14.14,8,19.27,33.33,22,45.29-10.07-10.29-17.39-4.54-17.39-4.54C1198.32,708.14,1188.17,704.05,1188.17,704.05Z"/><path class="cls-4" d="M1178.31,731c-5.74,14.88-37.13,41.38-55.56,47.26,24.07,6.12,61.15.49,68.93-4.53,4.64-19.1,2.77-35.23-2.29-39.29C1184.64,734.38,1179.3,735.37,1178.31,731Z"/><path class="cls-5" d="M1199.47,768.71a66.49,66.49,0,1,0-103.89,1"/><path class="cls-5" d="M1196,716.93c-1.28-8.7-7.42-15-13.7-14.08s-10.34,8.73-9,17.44,7.42,15,13.7,14.07S1197.3,725.63,1196,716.93Z"/><path class="cls-5" d="M1122.75,665.79s33.09-3.34,53.74,40.52"/><path class="cls-5" d="M1080.64,726.68c23-14.5,64.88-11.9,92.44-8.07"/><path class="cls-5" d="M1178.31,731c-5.93,15-33.34,37-53,47.1"/><path class="cls-5" d="M1189.39,734.45c6,7.6,4.49,18.29,2.08,38.21"/><path class="cls-5" d="M1197.39,718.61s10.41-1.43,16.25,6.07"/><path class="cls-5" d="M1191.49,678.13c.65,8.55-.28,22.28-3.32,25.92"/><path class="cls-6" d="M1085.13,765.66c3.84-.41,7.1.17,9.34,2.62,16.35,15.12,89.83,16.47,105,.43,5.81-6,11.33-6.52,16-5.17"/><path class="cls-6" d="M288.39,281.29l-13.93-12.81-.08,7.71s-29.91,14.16-35.88,19.1L231,279.51l1.3,16.17A50.44,50.44,0,0,0,206.69,311a81.68,81.68,0,0,0-12.84-9.17"/><path class="cls-6" d="M204.94,310.25c-11,6.69-22.28,17.67-28.24,27.18-2.93-1.25-11.3-7.28-11.3-7.28"/><path class="cls-6" d="M172.88,335.67c-11.48,7.86-26.95,24.81-37.77,43.18-8.84-45.08,36.6-151.79,160.89-135.12"/><path class="cls-6" d="M319.26,283.79l17.62-8.68-3,7.84s12.36,13.28,19.67,22.44"/><path class="cls-6" d="M385.31,263.08c-14.87-9.64-34.14-17.13-58.75-21.25"/><path class="cls-6" d="M282.79,242.28s-15.07-12.74-22.51-13.12a79.52,79.52,0,0,0,1.63-19.22,32.69,32.69,0,0,1-6.88,13c-6.47-7.58-19.4-13.61-19.4-13.61.17-6.28-3.85-15.73-3.85-15.73"/><path class="cls-6" d="M234.87,206.23c-15-7-35.65-8.86-35.65-8.86.74-6.33-1.09-8.21-1.09-8.21"/><path class="cls-6" d="M198.7,193.69s-32.84-.49-48.72,9.93c2.6-13,13.33-28.23,20.43-33.24,3.07,3.51,5.31,2.8,5.31,2.8"/><path class="cls-6" d="M170.41,170.38S224,115.92,306.05,217.7c5-47.52,23.13-98.74,86.83-92.93a82.34,82.34,0,0,0-9.57,31.42l-8.66-8.44"/><path class="cls-6" d="M383.31,156.19s-18.66,9.31-14.58,19.75c-6.53-1.73-14.39-4.23-14.39-4.23"/><path class="cls-6" d="M363.91,174.1l8.79,3.73s-15.95,11.7-16.18,21.56c-4.37-1.44-12.2-3.51-12.2-3.51l8.18,7.61s-13.12,9-15.69,29.24"/><path class="cls-6" d="M346.25,212.87S359,203.94,369,201.16c3.17,2.8,15.94,8.41,15.94,8.41l-6.19-9.88c15.26-2.25,25.71.51,34.84,2.93A38.72,38.72,0,0,1,422,212.79l-.09-8.13c14.25,2.62,26.59,9,35.32,17.37"/><path class="cls-6" d="M360.48,248.35s21.06-12,35.68-10.82c-2.91-5.38-5.87-11.61-5.87-11.61"/><path class="cls-6" d="M393.82,234.25c8.68-.55,19.57,2.71,27.24,6.37"/><path class="cls-6" d="M320.13,364.57c-6.93,10.65-15.74,21.3-26.73,29.88,7.54-34.2,1-69.94-9.94-85.2"/><path class="cls-6" d="M94.74,619.88s.19-30.81,5.13-54.23c2.83,10.94,25.66,13.35,33.8,6.84-.37,27.84,7.49,64.14,9.22,71.3-6.8,14.13-24.41,13.1-24.41,13.1"/><path class="cls-6" d="M126.69,543.54a23.67,23.67,0,0,0,8.82-2.83c-3.1,11.75-5.11,34.13-5.11,34.13"/><path class="cls-6" d="M102.21,568.92s1.71-27.06,2.85-36.12a23.36,23.36,0,0,0,5.14,6"/><path class="cls-6" d="M132.33,512.79a13,13,0,0,0,7.72-5.1c-5.58,23.25-6.55,35.07-6.55,35.07"/><path class="cls-6" d="M106.55,536.13s4.33-26.38,7.26-34.05a14.58,14.58,0,0,0,5.9,7.94"/><path class="cls-6" d="M143.61,472.13a14.58,14.58,0,0,0,4.83-4.34c-9.43,26.7-11.82,43.11-11.82,43.11"/><path class="cls-6" d="M115.72,505.17s8.68-35.21,11.62-42.89a17.63,17.63,0,0,0,2.68,5.66"/><path class="cls-6" d="M162.32,427.14a10.13,10.13,0,0,0,3.92-2.62c-9.39,17.28-21.64,46.73-21.64,46.73"/><path class="cls-6" d="M151.45,424.3a13.24,13.24,0,0,0,2.18,1.69"/><path class="cls-6" d="M129,466.2s8-20.15,18.75-50.77a9.22,9.22,0,0,0,.37,3.58"/><path class="cls-6" d="M183.88,384.82a9.44,9.44,0,0,0,7.59-2.05c-11.85,15.7-29.14,43.91-29.14,43.91"/><path class="cls-6" d="M148.45,418.46s10.92-18.73,26.08-47.42a10.11,10.11,0,0,0,.55,6.22"/><path class="cls-6" d="M215.28,345.2a9.47,9.47,0,0,0,7.53-1.08C209,358.08,188,384.5,188,384.5"/><path class="cls-6" d="M174.44,373.35s14.37-16.74,33.25-43.12a9.87,9.87,0,0,0-.49,5.34"/><path class="cls-6" d="M207.14,333.32s16-14,37.56-36.5c-3.93,6.91,3.49,18.46,13.53,14.32C243,322.65,219.38,345,219.38,345"/><path class="cls-6" d="M298.65,285.37c-16.5,8.65-42.47,25.8-42.47,25.8"/><path class="cls-6" d="M244.4,300.55s12.87-7.86,31.53-21.09"/><path class="cls-6" d="M1310.73,590.78c-14.33-87.51-53.43-206.56-125-254.27"/><path class="cls-6" d="M1172.88,336.75c116.83,76.69,113.22,292.58,113.22,292.58.42,5.49,7.86,6,15.1,4.16"/><path class="cls-6" d="M1172.47,337.41c-33.4,16.67-25.87,78.55-8.3,88.94C1169.74,388.08,1172.47,337.41,1172.47,337.41Z"/><path class="cls-6" d="M1171.47,336.51c-29.4-11.79-77.14,1.55-79.27,56.88C1105.53,379.63,1136.08,353.44,1171.47,336.51Z"/><path class="cls-6" d="M1173,337.16c2.4-15.2-8.27-37.44-29.46-46.34-20.18-9.41-50.87-5.48-65.36,19.9C1096.22,302.66,1145.66,303.64,1173,337.16Z"/><path class="cls-6" d="M1248.84,312.29c-6.4-14-25-27.22-43.54-24-18.12,2.32-36.1,21.14-32.26,49.76C1180.61,322.18,1213.42,298,1248.84,312.29Z"/><path class="cls-6" d="M1244.62,373.51c5.37-14.39,1.6-36.95-13.76-47.76-14.43-11.2-40.46-10.64-58,12.29C1189.45,332.18,1229.74,338.33,1244.62,373.51Z"/><line class="cls-6" x1="699.07" y1="556.8" x2="836.82" y2="556.8"/><line class="cls-6" x1="147.67" y1="556.8" x2="284.02" y2="556.8"/><line class="cls-6" x1="1148.04" y1="556.8" x2="1280.7" y2="556.8"/><line class="cls-6" x1="1305.15" y1="556.8" x2="1348.07" y2="556.8"/><path class="cls-2" d="M1033,518.66c-.53-6.07-20.21-9.3-44-7.23s-42.58,8.69-42,14.76,20.22,9.31,44,7.23S1033.54,524.73,1033,518.66Z"/><path class="cls-6" d="M948.93,518.08a254.37,254.37,0,0,1,40.4-6.67c54.7-4.39,111.43,12,128.34,27,1.19,13.53-54,29.4-123.16,35.46s-126.27,0-127.45-13.53c4.39-8.1,17.79-17.78,36.35-26.44"/><path class="cls-6" d="M1033,518.66c-.53-6.07-20.21-9.3-44-7.23s-42.58,8.69-42,14.76,20.22,9.31,44,7.23S1033.54,524.73,1033,518.66Z"/><path class="cls-7" d="M919.66,549.2c-1.28,4.38-5.73,8.39-10,9s-6.9-2.29-5.8-6.69,5.71-8.76,10.17-9.41S921,544.71,919.66,549.2Z"/><path class="cls-7" d="M1052.77,537.55c2,4.09,7.1,7.27,11.41,7.18s6.4-3.46,4.55-7.6-7.14-7.64-11.65-7.5S1050.7,533.36,1052.77,537.55Z"/><path class="cls-7" d="M984.05,546.58a8.31,8.31,0,0,0-.2,12.1,9.24,9.24,0,0,0,12.65-.21,8.31,8.31,0,0,0,.2-12.1A9.22,9.22,0,0,0,984.05,546.58Z"/><path class="cls-6" d="M947.28,525.68a0,0,0,0,1,0,0,2.7,2.7,0,0,1-.27.5,1.13,1.13,0,0,1-.1.13c-3.61,4.81-22.27-1.85-41.89-15s-32.69-27.67-29.86-33l0,0a1.93,1.93,0,0,1,.13-.21,2.2,2.2,0,0,1,.3-.37h0c4.11-4.31,22.43,2.34,41.69,15.26S949.56,520.19,947.28,525.68Z"/><path class="cls-6" d="M947.28,525.68a0,0,0,0,1,0,0c-.11.22-.24.42-.37.63s-.28.46-.44.68c-9.46,14.11-33.19,14.78-53,1.5S865.29,493,874.75,478.91l.4-.57,0,0c.14-.2.29-.39.43-.58h0c4.11-4.31,22.43,2.34,41.69,15.26S949.56,520.19,947.28,525.68Z"/><path class="cls-6" d="M952.69,527.09a4.79,4.79,0,0,0-9.46-1.57"/><path class="cls-2" d="M1097.93,574.5c13.32-10,21-22.09,19.74-36.1,1.19,13.53-54,29.4-123.16,35.46s-126.27,0-127.45-13.53c2.62,30,40.9,43.13,56.63,28.42,6.36,12.63,30.87,23.86,54.35,17.65,9.39-5.24,25.26-14.09,26.8-26,7,20.63,73.29,21,90.16-9.23C1096.43,574.41,1097.93,574.5,1097.93,574.5Z"/><path class="cls-6" d="M1097.93,574.5c13.32-10,21-22.09,19.74-36.1,1.19,13.53-54,29.4-123.16,35.46s-126.27,0-127.45-13.53c2.62,30,40.9,43.13,56.63,28.42,6.36,12.63,30.87,23.86,54.35,17.65"/><path class="cls-6" d="M819,593c23.94,3.69,45.78-16,48.53-25.06"/><path class="cls-6" d="M938.91,614.09c29.09,4.48,63-21.46,66.32-32.48,16,25.28,81.53,13.45,90-10.45,4.12,8.38,14.18,12.3,24.64,14"/><path class="cls-6" d="M775.8,642.52c33.33,8.16,66.58-16.93,71.58-29.38,21,32.54,42.75,31,42.75,31"/><path class="cls-6" d="M178.41,587.23c19.5,4.77,39-9.9,41.87-17.19,12.29,19,25,18.12,25,18.12"/><path class="cls-6" d="M1221.56,616.71c15.48-20,58.51-15.32,58.51-15.32-16.83,0-61.09-4.84-100.1,12.67-115.14,51.68-183.12,12.65-232.68,59.31"/><path class="cls-6" d="M142.48,607.33c50.59-7.94,127.26,35.06,207.43,32.06"/><polyline class="cls-2" points="558.66 368.12 565.07 374.45 569.22 367.55 575.69 427.85 568.47 446.19 558.66 369.14"/><path class="cls-2" d="M542.52,237.13c8.05,18.44,23.46,59.35,22,135.8,32-34,86.82-75.54,156.43-32C665.31,236.09,556.67,232.57,542.52,237.13Z"/><path class="cls-4" d="M547.28,236.09c-95.88,16.63-155.54,45.47-215,117,24.5-18.42,63.17-15.62,78.83,21.31C438.74,293.39,484.49,252.8,547.28,236.09Z"/><line class="cls-6" x1="586.13" y1="524.26" x2="569.22" y2="368.12"/><line class="cls-6" x1="580.26" y1="555.01" x2="560.24" y2="370.17"/><path class="cls-6" d="M721,340.89c8.09-39.47,45.48-50.42,72.44-37.69-141.33-118.73-363.73-76.55-461.16,49.94,23.61-18.2,62.48-15.51,78.83,21.31,73.7-75.27,153.46-1.52,153.46-1.52S634.26,284.06,721,340.89Z"/><path class="cls-6" d="M563.23,239.15s93.6-2.59,151,89.86"/><path class="cls-6" d="M555.47,271.62c6.77,30.88,11.33,74.9,10.88,89.13"/><path class="cls-6" d="M555.47,271.62c-2.69-12.28-6-25.21-9.22-30.63-63.82,6.91-109.76,61.83-129.95,120.29"/><path class="cls-4" d="M577.75,588l19.59-57.43a10.74,10.74,0,0,1,11.48-7.18l96.27,12a8.59,8.59,0,0,1,7.15,11.11l-18.6,59.16Z"/><polyline class="cls-6" points="617.33 650.35 688 627.35 652.66 622.02"/><path class="cls-6" d="M715.33,536.68a8.49,8.49,0,0,1,4,9.9l-25.68,83.77-5.65-3,24.66-81.77a7.91,7.91,0,0,0-6.53-10.12L608.3,522.41A9.76,9.76,0,0,0,597.77,529l-21.44,64"/><line class="cls-6" x1="693.64" y1="630.35" x2="617.33" y2="656.12"/><line class="cls-6" x1="580.33" y1="588.02" x2="693.64" y2="605.68"/><path class="cls-2" d="M700.26,689.46l29.13-11.66,16.24,26.59s-27.72,15.49-38.64-3.92C703.75,695.85,700.26,689.46,700.26,689.46Z"/><path class="cls-2" d="M473.25,539.76c-10.18,9.13-20.77,19.14-8.23,25.89s129.19,76.61,129.19,76.61l52.67,32.11A13.66,13.66,0,0,0,659,675.43l57-22.29a10.56,10.56,0,0,1,12.52,3.8l51.1,73.48L764,727l-45.21-64.34-70.37,27.51L420.79,550.86s24.63,4.5,37.7-14.73A100.24,100.24,0,0,0,473.25,539.76Z"/><path class="cls-2" d="M621.37,623l-47,13.23,10,9,31.77-11.3A33.48,33.48,0,0,0,621.37,623Z"/><path class="cls-2" d="M646.63,620.28c-3.56-2.89-19-2-25.26,2.67-3.72,8.63-5.21,10.93-5.21,10.93,6.66-7,22.09-9.72,27.75-9.73A7.55,7.55,0,0,0,646.63,620.28Z"/><path class="cls-6" d="M756,716.67a16.85,16.85,0,0,1-16.67,3l-14-5.1"/><path class="cls-6" d="M779.55,651.11a27.24,27.24,0,0,1,14.09,7.21l.29.28a13.24,13.24,0,0,1,2.58,15.61"/><path class="cls-5" d="M394.53,534.68s1.13-7,39.13-1,67.72,7,90.36,33.75,34.64,42.75,34.64,42.75"/><path class="cls-5" d="M353.73,516.23l.94-45.18c1.2-39.54,30.6-62.91,65.23-63.51l11-.13c34.63-.59,65.39,21.62,64.19,61.16l-2.28,75.1c0,.23,0-.25,0,0-.48,15.59-14.78,23.92-35.61,28.6"/><path class="cls-1" d="M465,516.14c0,19-15.28,35.12-34.14,36l-13,.63A32.36,32.36,0,0,1,383.74,520V481.7c0-19,15.29-35.12,34.14-36l13-.63A32.36,32.36,0,0,1,465,477.79Z"/><path class="cls-2" d="M432.07,519.43c1.74,11,1.29,23.79,24.4,19.88-1.15,9.37-64.64,36.72-72.4-17.67C393.57,519.39,432.07,519.43,432.07,519.43Z"/><path class="cls-5" d="M383.74,520V481.7c0-19,15.29-35.12,34.14-36l13-.63A32.36,32.36,0,0,1,465,477.79v38.35c0,19-15.28,35.12-34.14,36l-6.59.32"/><path class="cls-8" d="M392.11,533.87c20.17,2.06,48.92,1.87,52.43-15.82,1.77-8.91,2.9-17.58,3.59-24a17.23,17.23,0,0,1,9.63-13.57c15.4-7.42,20.41-21.55,14.39-30.34-7-10.28-67-38.64-93.38,11.56-10.95,20.81-6,53.23,1.66,66Z"/><path class="cls-5" d="M391.43,533.8c20.18,2.17,49.6,1.94,53.11-15.75,1.77-8.91,2.9-17.58,3.59-24a17.23,17.23,0,0,1,9.63-13.57c15.4-7.42,20.41-21.55,14.39-30.34-7-10.28-67-38.64-93.38,11.56-11,20.89-5.95,53.48,1.75,66.17"/><path class="cls-5" d="M586.16,645.18s19.5-7,30-11.3c10.5-7.7,4.4-35.51-8.5-35.51l-60.38-2.73"/><path class="cls-6" d="M612.32,599.68c17-.47,34.7-.12,34.31,20.6,0,2.68-1.55,3.91-4.22,4.15-11,1-16,2-22.87,5.31"/><path class="cls-5" d="M701.57,607.76l11.06-3.29a42.11,42.11,0,0,1,47,16.9l49.07,73.11c15.9,19.87-29.25,54-47.33,29.54L729.66,680.4"/><path class="cls-5" d="M745.63,702.39c-11.66,8.77-28.43,11.94-37.86-.8l-7.51-10.73"/><path class="cls-6" d="M801.41,673.6l7.77-4a27.32,27.32,0,0,1,31.45,4.63l.29.28a13.24,13.24,0,0,1,.88,18.14l-34.3,40.07A16.82,16.82,0,0,1,789,737.61l-14-5.1"/><path class="cls-2" d="M756.91,757.35c-4.91,1.66-12.33,3.33-13.38,11.33l-96-58.61-33.67,13.85c2.87,2,6.73,4.64,10.28,6.67-6.4-1.59-13.09.92-14.42,8l-12.62-7.74c-61.83,25.45-158.55,65.28-158.61,65.46-6.33-1.82-22.61-4.8-33.7-3.76-.53,0-1.05.11-1.55.18l-11-1.68,179.66-70.33c-20.52,2.85-47.07-7.46-67.24-14L357.91,764.35c-13.16-2.33-23.58-3.17-36.9.39a95.64,95.64,0,0,0-10.84-2.06s168.21-65.13,168.91-66.2c-77.75-38.45-115-102.8-124.83-125.06L287.77,523.8l9.81-11.12L361.9,514,649.3,690.17,734.08,657l8,1.09v15l-74,29.53Z"/><polygon class="cls-5" points="349.29 526.18 286.85 523.81 296.66 512.68 360.98 514.02 349.29 526.18"/><line class="cls-6" x1="286.85" y1="523.81" x2="353.33" y2="572.68"/><path class="cls-5" d="M346,557c6.33,11,10.66,23.66,24.33,45.33S460,715.68,571,720.68"/><path class="cls-6" d="M628.94,699,391.33,791a33,33,0,0,1,9.33,1.66c.34,1,232.17-91.26,232.17-91.26"/><path class="cls-6" d="M400.66,792.68s20.69-.74,36.35,3.6c26.34-10.34,210.37-85.93,210.37-85.93"/><path class="cls-6" d="M480.22,696.48l-171,66.2a32.81,32.81,0,0,1,9.34,1.67c.21.65,98.28-38.13,166.87-65.34"/><path class="cls-6" d="M318.59,764.35c-4.37,1.38,11.09-1.23,23.42-1.67a50.11,50.11,0,0,1,15,1.67l146.75-56.8"/><path class="cls-6" d="M596.5,731.59l12.33,7s.89-5,2-6.17c4.33-4.61,12.42-1.79,12.42-1.79L613.47,725"/><polyline class="cls-6" points="648.38 690.17 733.16 657.03 740.91 658.12"/><polyline class="cls-6" points="667.21 702.69 741.16 673.08 741.16 658.12 653.38 693.26"/><polyline class="cls-6" points="312.66 532.68 347.29 534.68 397.36 564.68"/><path class="cls-5" d="M361,514,756,757.35s-10.76,1.33-13.38,11.33C740,768,349.29,526.18,349.29,526.18Z"/><path class="cls-1" d="M647.31,583l-4.79-.64,1.55-4.88-3.05-.41c-.52,1.65-1,3.26-1.56,4.87l-4.79-.64,1.57-4.91L626.1,575c.44-1.39.88-2.75,1.32-4.14l.42.06c.63.07,1.26.16,1.9.22a1.84,1.84,0,0,0,2.14-1.26c.15-.42.31-.84.44-1.26q2.45-7.6,4.87-15.22c.22-.69.42-1.37.61-2.07.27-.93-.12-1.51-1.18-1.72-.63-.12-1.28-.19-1.91-.29l-.38-.07c.45-1.39.88-2.75,1.33-4.15l10.13,1.37,1.57-4.89,4.79.64-1.56,4.88,3.06.41c.52-1.65,1-3.26,1.56-4.88l4.79.65c0,.12-.07.25-.11.38-.45,1.43-.9,2.85-1.37,4.28-.11.32-.08.49.31.56a6.61,6.61,0,0,1,.9.24,9.19,9.19,0,0,1,4,2.38,5.3,5.3,0,0,1,1.33,5.2,7.08,7.08,0,0,1-2.37,3.67,11.42,11.42,0,0,1-5.69,2.52l-.45.1a.8.8,0,0,0,.32.22,10.92,10.92,0,0,1,3.19,1.79,5.34,5.34,0,0,1,2,4.54c-.23,3.35-2.31,5.82-5.92,7.45a15.6,15.6,0,0,1-6.75,1.21c-.36,0-.47.08-.57.37C648.35,579.83,647.83,581.43,647.31,583Zm-4.46-19.66a2.11,2.11,0,0,0-.08.22c-.67,2.1-1.35,4.2-2,6.31a13.1,13.1,0,0,0-.35,1.37.55.55,0,0,0,.5.71c1.15.2,2.29.4,3.46.54,1,.12,2,.2,3.06.23a6,6,0,0,0,3.14-.75,5.24,5.24,0,0,0,2.54-2.89,3.09,3.09,0,0,0-1.53-4,9.76,9.76,0,0,0-3.12-.94c-1.75-.28-3.52-.5-5.29-.74Zm1.43-4.43.29.07,3.53.47a18.35,18.35,0,0,0,4.07.18,5.29,5.29,0,0,0,3-1.14c1.9-1.61,2.14-4.57-.7-5.49a13.8,13.8,0,0,0-2.15-.54c-1.79-.28-3.59-.52-5.39-.77h-.31C645.82,554.1,645.05,556.5,644.28,558.93Z"/><path class="cls-3" d="M1284.18,190.33l0,17.06m-8.52-8.54,17.06,0"/><path class="cls-3" d="M896,352.22l0,17.06m-8.52-8.54,17.06,0"/><path class="cls-3" d="M571,58.28l0,17.06m-8.52-8.54,17.07,0"/><path class="cls-3" d="M683.66,190.33l0,17.06m-8.51-8.54,17.06,0"/><path class="cls-3" d="M102.22,217.39l0,17.06m-8.52-8.54,17.06,0"/><line class="cls-6" x1="235.49" y1="680.4" x2="267.97" y2="680.4"/><line class="cls-6" x1="298.65" y1="702.76" x2="309.25" y2="702.76"/><line class="cls-6" x1="759.24" y1="812.89" x2="769.23" y2="812.89"/><line class="cls-6" x1="966.54" y1="733.29" x2="975.02" y2="733.29"/><line class="cls-6" x1="1019.96" y1="686.03" x2="1034.7" y2="686.03"/><line class="cls-6" x1="1131.73" y1="801.72" x2="1148.76" y2="801.72"/><line class="cls-6" x1="1280.7" y1="702.76" x2="1296.07" y2="702.76"/><path class="cls-1" d="M794.71,663.5c-3.52,10.73-15,53.17-.54,71.17,3.13,3.89,9.5,10.83,13.16,12.66,3.5,7.5,3,14.67-.16,19.5-12.5,1.84-27.34,9.17,7.5,15.84,15.83-2.17,31.66-8,8.66-15.17-2,.67-2.66-1.17-3-2-1.5-6.5-2.16-15.17,2.34-19.5,16.66-8.67,22.83-26.67,19.33-49.67s-5.33-30.66-5.33-30.66c-.5-4.67-17.17-9.17-28-7.5-2.17-6.17-1.67-14.5-8-15.84s-14.17,3.17-14.17,3.17l-23.17,7.67s5.84,2.66,1.84,6.83c4.16-1.17,34.5-13,34.5-13l.83,2.5.83,2.67,1.5,6.66C796.5,659.67,795.58,660.83,794.71,663.5Z"/><path class="cls-1" d="M839.17,728.17C832,739.83,827,748.17,815.33,748s-32.33-18.67-29-44.67S789.67,681,789.67,681c.89-2.11,7.36-5.58,17.24-6.71l1.92,9,5.67.67-2.35-10.07a63.52,63.52,0,0,1,12,.9c15.66,2.67,15.66,6.84,15.66,6.84C841.67,692.83,846.33,716.5,839.17,728.17Z"/><path class="Graphic-Style-7" d="M804.38,771.62c4.37-4,8-18.12,3.12-24.25-16.12-10.12-20.87-26.11-20.87-38.87.87-16.13,7.75-46,7.75-46"/><path class="Graphic-Style-7" d="M824,772c-4.27-4.11-7.53-18.32-2.49-24.32,16.38-9.7,21.54-25.57,21.87-38.32-.37-13.17-4.51-35.61-6-43.41"/><path class="Graphic-Style-7" d="M806,746.37c5,3.63,15.5,1.88,20-1.75"/><path class="Graphic-Style-7" d="M821.39,767.4c7.78,1.43,13.23,4.47,13.1,7.78-.16,4.29-9.6,7.39-21.1,6.93s-20.68-4.31-20.52-8.6c.13-3.37,6-6,14.12-6.76"/><path class="Graphic-Style-7" d="M837,665c-.15,3.44-9.86,5.82-21.69,5.3s-21.3-3.73-21.14-7.18,9.86-5.83,21.69-5.31S837.19,661.59,837,665Z"/><path class="Graphic-Style-7" d="M809.75,684.25l-8.12-33.88c-.75-1.75-2.63-3-5.63-2.25s-30.87,12.25-30.87,12.25c2.75-.87,1.62-7.87-2.75-6.37,4.5-1.5,33.75-11.75,33.75-11.75,4.12-1.13,8-.38,9.87,7.12s7.75,33.75,7.75,33.75"/><line class="Graphic-Style-7" x1="796.25" y1="643" x2="796.25" y2="647.25"/><line class="Graphic-Style-7" x1="801.88" y1="643" x2="799.38" y2="647.25"/><line class="Graphic-Style-7" x1="805" y1="648.75" x2="802.13" y2="649.62"/><path class="Graphic-Style-7" d="M803.89,733.74c.52.51,1.05,1,1.61,1.51"/><path class="Graphic-Style-7" d="M794.5,707.5c-.37,11.25,2.42,18,7.43,24.07"/><path class="Graphic-Style-7" d="M792.13,680.12c1.37-1,4.25-1.87,6.12,2.25s5.63,4.25,8.88,2.63a12.3,12.3,0,0,1,11.75.37c4.25,2.38,12.37,2.5,15-.25s6.87-3.75,1.87-6.87-13-4.38-15.25-3.63"/><path class="Graphic-Style-7" d="M828.21,693.8a1,1,0,0,1-.7,1.22l-13.1,3.58a1,1,0,0,1-1.24-.69l-3-10.63a1,1,0,0,1,.7-1.22l13.1-3.58a1,1,0,0,1,1.24.69Z"/><path class="Graphic-Style-7" d="M804.49,703.7a1,1,0,0,1-1.37.34l-11.67-7a1,1,0,0,1-.36-1.37l5.65-9.44a1,1,0,0,1,1.37-.34l11.67,7a1,1,0,0,1,.36,1.37Z"/></svg>