<svg id="work" xmlns="http://www.w3.org/2000/svg" viewBox="0 0 1422 870"><defs><style>.cls-1{fill:#fff;}.cls-2{fill:#ebebeb;}.cls-3,.cls-5,.cls-6{fill:none;stroke-linecap:round;stroke-linejoin:round;}.cls-3{stroke:#ff0083;}.cls-3,.cls-5{stroke-width:2.5px;}.cls-4{fill:#ff0083;}.cls-5,.cls-6{stroke:#4a4a4a;}.cls-6{stroke-width:4px;}</style></defs><title>23,1</title><path class="cls-1" d="M884,422.37a20.36,20.36,0,0,0-20.23-20.5H477a20.35,20.35,0,0,0-20.22,20.5v262.5L373.67,785.63a3.63,3.63,0,0,0,.9,5.42l6.66,4.08a56.06,56.06,0,0,0,23.36,8l19.91,2.12a85.22,85.22,0,0,0,9,.48l478.15-.76a55.93,55.93,0,0,0,6.6-.39L943,801.58a40.46,40.46,0,0,0,11.46-3.13l13.89-6.12a4.55,4.55,0,0,0,1.62-7.12L884,684.87Z"/><rect class="cls-1" x="1000.4" y="374.61" width="225" height="350.5" rx="14" ry="14"/><rect class="cls-1" x="220.73" y="450.58" width="123.33" height="248" rx="11" ry="11"/><path class="cls-2" d="M344.06,655.58v30a11,11,0,0,1-11,11H231.73a11,11,0,0,1-11-11v-30Z"/><path class="cls-2" d="M1225.06,684.08v30a11,11,0,0,1-11,11H1012.72a11,11,0,0,1-11-11v-30Z"/><path class="cls-2" d="M887.4,421.58v-8a11,11,0,0,0-11-11h-408a11,11,0,0,0-11,11v8Z"/><rect class="cls-2" x="456.23" y="668.08" width="428.66" height="18.5"/><line class="cls-3" x1="703.82" y1="252.9" x2="703.82" y2="379.71"/><path class="cls-4" d="M693.76,366.89a1,1,0,0,1,1.84-.54l8.22,12.9,8.22-12.9a1,1,0,1,1,1.69,1.07l-9.06,14.23a1,1,0,0,1-.85.47,1,1,0,0,1-.84-.47l-9.06-14.23a.94.94,0,0,1-.16-.53Z"/><line class="cls-3" x1="636.1" y1="317.5" x2="636.1" y2="173.04"/><polyline class="cls-3" points="658.68 362.58 658.68 252.9 680.29 231.28 680.29 68.69"/><line class="cls-3" x1="681.25" y1="314.95" x2="681.25" y2="262.58"/><line class="cls-3" x1="590.96" y1="317.5" x2="590.96" y2="68.69"/><polyline class="cls-3" points="726.4 324.27 726.4 188.58 703.61 165.79 703.61 68.69"/><polyline class="cls-3" points="613.53 377.16 613.53 165.58 636.1 149.58 636.1 68.69"/><path class="cls-4" d="M623.59,364.34a1,1,0,0,0-1.84-.54l-8.22,12.9-8.22-12.9a1,1,0,1,0-1.68,1.07l9.06,14.23a1,1,0,0,0,.84.47,1,1,0,0,0,.85-.47l9.06-14.23a1,1,0,0,0,.15-.53Z"/><line class="cls-3" x1="726.4" y1="161.58" x2="726.4" y2="68.69"/><line class="cls-3" x1="658.68" y1="221.07" x2="658.68" y2="68.69"/><line class="cls-3" x1="613.53" y1="68.69" x2="613.53" y2="143.04"/><line class="cls-3" x1="234.78" y1="72.58" x2="234.78" y2="257.86"/><path class="cls-4" d="M224.72,245a1,1,0,0,1,1.84-.53l8.22,12.9L243,244.5a1,1,0,0,1,1.38-.31,1,1,0,0,1,.31,1.38l-9.07,14.23a1,1,0,0,1-1.68,0l-9.07-14.23a1,1,0,0,1-.15-.54Z"/><polyline class="cls-3" points="328.39 420.94 328.39 305.51 306.13 285.25 306.13 131.04 286.63 109.54 286.63 72.58"/><path class="cls-4" d="M338.45,408.11a1,1,0,0,0-.46-.84,1,1,0,0,0-1.38.3l-8.22,12.91-8.22-12.91a1,1,0,0,0-1.69,1.08l9.06,14.23a1,1,0,0,0,.85.46,1,1,0,0,0,.84-.46l9.06-14.23a1,1,0,0,0,.16-.54Z"/><line class="cls-3" x1="258.18" y1="387.59" x2="258.18" y2="322.58"/><line class="cls-3" x1="281.32" y1="423.34" x2="281.32" y2="210.14"/><line class="cls-3" x1="304.99" y1="423.34" x2="304.99" y2="319.61"/><polyline class="cls-3" points="234.78 420.94 234.78 305.51 258.18 295.74 258.18 72.58"/><path class="cls-4" d="M244.84,408.11a1,1,0,0,0-.46-.84,1,1,0,0,0-1.38.3l-8.22,12.91-8.22-12.91a1,1,0,0,0-1.69,1.08l9.07,14.23a1,1,0,0,0,1.68,0l9.07-14.23a1.08,1.08,0,0,0,.15-.54Z"/><line class="cls-3" x1="281.32" y1="194.2" x2="281.32" y2="127.92"/><line class="cls-3" x1="326.06" y1="72.58" x2="326.06" y2="276.92"/><polyline class="cls-3" points="1149.4 345.06 1149.4 224.9 1149.4 193.43 1128.22 175.25 1128.22 68.69"/><path class="cls-4" d="M1159.46,332.24a1,1,0,0,0-.46-.85,1,1,0,0,0-1.39.31l-8.21,12.9-8.22-12.9a1,1,0,1,0-1.69,1.07l9.06,14.23a1,1,0,0,0,.85.46,1,1,0,0,0,.84-.46l9.06-14.23a.94.94,0,0,0,.16-.53Z"/><line class="cls-3" x1="1063.39" y1="68.69" x2="1063.39" y2="345.06"/><path class="cls-4" d="M1053.33,332.24a1,1,0,0,1,1.84-.54l8.22,12.9,8.22-12.9a1,1,0,0,1,1.38-.31,1,1,0,0,1,.31,1.38L1064.23,347a1,1,0,0,1-1.68,0l-9.07-14.23a1,1,0,0,1-.15-.53Z"/><line class="cls-3" x1="1127.89" y1="294.95" x2="1127.89" y2="218.58"/><polyline class="cls-3" points="1106.39 276.71 1106.39 218.58 1084.39 196.58 1084.39 68.69"/><line class="cls-3" x1="1084.89" y1="347.46" x2="1084.89" y2="224.9"/><line class="cls-3" x1="1106.39" y1="185.27" x2="1106.39" y2="68.69"/><line class="cls-5" x1="220.73" y1="655.25" x2="344.06" y2="655.25"/><circle class="cls-4" cx="282.06" cy="677.54" r="12.29"/><rect class="cls-6" x="220.73" y="450.58" width="123.33" height="248" rx="11" ry="11"/><path class="cls-3" d="M318.4,569.71v13.62a6,6,0,0,1-6,6H252.48a6,6,0,0,1-6-6v-46.5a6,6,0,0,1,6-6H312.4a6,6,0,0,1,6,6v12.5"/><path class="cls-3" d="M318.4,550.58h-7.75a9,9,0,0,0-9,9h0a9,9,0,0,0,9,9h11.74v-18h-4"/><circle class="cls-3" cx="311.02" cy="559.58" r="3.13"/><path class="cls-3" d="M246.48,536c0-5,2.32-7.43,5.18-8.26l49.74-14c2.86-.83,5.93,1.07,6.86,4.25l3.14,12.92"/><path class="cls-3" d="M246.75,535.94c-1.26-4.8.16-7.52,2.47-8.81l40.17-21.95c2.31-1.29,5.49,0,7.11,2.91l2.23,5.37"/><path class="cls-4" d="M287.8,580.09h-4.3c0-1.67,0-3.33,0-5h-2.74v5h-4.29v-5h-9.07v-4.25h.37c.57,0,1.13,0,1.69,0a1.39,1.39,0,0,0,1.49-1.52c0-.43,0-.87,0-1.3q0-7.8,0-15.61c0-.7,0-1.41,0-2.11a1.42,1.42,0,0,0-1.48-1.54c-.57,0-1.15,0-1.73,0h-.34v-4.26h9.08v-5h4.3c0,1.66,0,3.33,0,5h2.73c0-1.69,0-3.34,0-5h4.29c0,.13,0,.26,0,.39,0,1.47,0,2.93,0,4.39,0,.34.07.5.43.51a4.63,4.63,0,0,1,.83.13,9,9,0,0,1,4.13,1.8,6.62,6.62,0,0,1,2.57,4.94,6.54,6.54,0,0,1-1,3.92,8.14,8.14,0,0,1-4.2,3.23l-.36.15a.75.75,0,0,0,.34.18,10.83,10.83,0,0,1,3.22,1.34,6.59,6.59,0,0,1,2.94,4.2,7.63,7.63,0,0,1-3,8.11,11.06,11.06,0,0,1-5.47,2.08c-.31,0-.38.14-.38.44C287.81,576.82,287.8,578.45,287.8,580.09Zm-9.21-18.75a2,2,0,0,0,0,.23c0,2.16,0,4.31,0,6.47a13,13,0,0,0,.08,1.39.61.61,0,0,0,.62.63c1,.05,2.08.1,3.11.08a24.14,24.14,0,0,0,2.69-.18,4.34,4.34,0,0,0,2.5-1.14,4.4,4.4,0,0,0,1.38-3.18,3.74,3.74,0,0,0-2.42-3.78,8.37,8.37,0,0,0-2.93-.51c-1.58,0-3.16,0-4.75,0Zm0-4.54.27,0H282a13.64,13.64,0,0,0,3.55-.36,3.72,3.72,0,0,0,2.24-1.51,3.42,3.42,0,0,0-2.1-5.3,12.29,12.29,0,0,0-2-.25c-1.61,0-3.23,0-4.84,0l-.27,0Z"/><path class="cls-6" d="M972.58,789.58c-8.58,8.48-27.94,15-43.67,15h-515c-15.74,0-35.09-6.52-43.67-15"/><path class="cls-6" d="M961.09,791.58H381.71c-8.64,0-13.43-2.56-10.75-5.67l85.77-99.33v-273a11,11,0,0,1,11-11H875.07a11,11,0,0,1,11,11v273l85.77,99.33C974.52,789,969.73,791.58,961.09,791.58Z"/><line class="cls-5" x1="456.73" y1="686.58" x2="886.07" y2="686.58"/><line class="cls-5" x1="477.4" y1="708.58" x2="861.4" y2="708.58"/><line class="cls-5" x1="861.4" y1="708.58" x2="908.4" y2="770.58"/><line class="cls-5" x1="459.4" y1="668.08" x2="881.9" y2="668.08"/><line class="cls-5" x1="459.4" y1="421.08" x2="881.9" y2="421.08"/><line class="cls-5" x1="671.4" y1="412.58" x2="672.9" y2="412.58"/><line class="cls-5" x1="886.07" y1="770.58" x2="425.4" y2="770.58"/><line class="cls-5" x1="425.4" y1="770.58" x2="467.4" y2="717.92"/><line class="cls-5" x1="488.4" y1="727.08" x2="842.9" y2="727.08"/><line class="cls-5" x1="809.9" y1="739.58" x2="815.4" y2="753.08"/><line class="cls-5" x1="590.4" y1="770.58" x2="596.9" y2="746.33"/><path class="cls-3" d="M722.6,565.83v21.28a9.38,9.38,0,0,1-9.37,9.37H619.65a9.38,9.38,0,0,1-9.37-9.37V514.48a9.38,9.38,0,0,1,9.37-9.37h93.58a9.38,9.38,0,0,1,9.37,9.37V534"/><path class="cls-3" d="M722.6,536H710.49a14,14,0,0,0-14,14h0a14.05,14.05,0,0,0,14,14.06h18.34V536H722.6"/><path class="cls-3" d="M716,550a4.88,4.88,0,1,0-4.88,4.89A4.89,4.89,0,0,0,716,550Z"/><path class="cls-3" d="M610.28,513.12c0-7.81,3.62-11.61,8.09-12.91l77.68-21.92c4.46-1.3,9.27,1.67,10.72,6.64l4.89,20.18"/><path class="cls-3" d="M610.69,513.09c-2-7.49.26-11.75,3.86-13.76l62.75-34.28c3.6-2,8.57,0,11.1,4.54l3.48,8.39"/><path class="cls-4" d="M672.08,570.38h-4.29v-5h-2.73v5h-4.3c0-1.67,0-3.33,0-5h-9.08v-4.25h.38c.56,0,1.13,0,1.69,0a1.4,1.4,0,0,0,1.49-1.52c0-.44,0-.87,0-1.3V542.62c0-.7,0-1.41,0-2.11a1.43,1.43,0,0,0-1.49-1.54c-.57,0-1.15,0-1.72,0h-.34v-4.26h9.07c0-1.7,0-3.36,0-5h4.29v5h2.73v-5h4.29c0,.13,0,.26,0,.39,0,1.46,0,2.93,0,4.39,0,.33.07.5.43.51a6.07,6.07,0,0,1,.84.12,9.07,9.07,0,0,1,4.12,1.81,6.69,6.69,0,0,1,1.54,8.86,8.15,8.15,0,0,1-4.19,3.23c-.13,0-.25.1-.37.15a.83.83,0,0,0,.34.17,11.1,11.1,0,0,1,3.22,1.34,6.6,6.6,0,0,1,2.94,4.21,7.61,7.61,0,0,1-3,8.11,11,11,0,0,1-5.46,2.08c-.31,0-.39.14-.38.44C672.1,567.1,672.09,568.74,672.08,570.38Zm-9.21-18.75a2,2,0,0,0,0,.23c0,2.15,0,4.31,0,6.47a13,13,0,0,0,.08,1.39.63.63,0,0,0,.62.63c1,0,2.08.1,3.12.08a24.3,24.3,0,0,0,2.69-.18,4.23,4.23,0,0,0,2.49-1.15,4.43,4.43,0,0,0,1.39-3.18,3.74,3.74,0,0,0-2.43-3.77,8.37,8.37,0,0,0-2.93-.51c-1.58,0-3.16,0-4.74,0Zm0-4.54.28,0h3.15a13.61,13.61,0,0,0,3.54-.36,3.69,3.69,0,0,0,2.24-1.51,3.43,3.43,0,0,0-2.1-5.31,13.35,13.35,0,0,0-2-.24c-1.62-.05-3.23,0-4.85-.05l-.27,0Z"/><path class="cls-4" d="M1124.3,705.58A12.29,12.29,0,1,0,1112,717.87,12.29,12.29,0,0,0,1124.3,705.58Z"/><rect class="cls-6" x="1000.4" y="374.61" width="225" height="350.5" rx="14" ry="14"/><line class="cls-5" x1="1000.4" y1="684.83" x2="1223.63" y2="684.83"/><path class="cls-3" d="M1151,543v13.63a6,6,0,0,1-6,6H1085a6,6,0,0,1-6-6v-46.5a6,6,0,0,1,6-6H1145a6,6,0,0,1,6,6v12.5"/><path class="cls-3" d="M1151,523.89h-7.75a9,9,0,0,0-9,9h0a9,9,0,0,0,9,9H1155v-18h-4"/><circle class="cls-3" cx="1143.58" cy="532.89" r="3.13"/><path class="cls-3" d="M1079,509.26c0-5,2.32-7.43,5.18-8.26L1134,487c2.86-.83,5.93,1.07,6.86,4.25l3.14,12.93"/><path class="cls-3" d="M1079.3,509.25c-1.26-4.8.17-7.53,2.48-8.81L1122,478.49c2.31-1.29,5.49,0,7.11,2.9l2.23,5.38"/><path class="cls-4" d="M1120.54,554.75h-4.3c0-1.67,0-3.33,0-5h-2.74v5h-4.29v-5h-9.07v-4.25h.37c.57,0,1.13,0,1.69,0a1.39,1.39,0,0,0,1.49-1.52c0-.44,0-.87,0-1.3q0-7.8,0-15.61c0-.7,0-1.41,0-2.11a1.42,1.42,0,0,0-1.48-1.54c-.57,0-1.15,0-1.73,0h-.34c0-1.43,0-2.82,0-4.26h9.07v-5h4.3c0,1.66,0,3.33,0,5h2.73c0-1.69,0-3.35,0-5h4.29c0,.13,0,.26,0,.39,0,1.47,0,2.93,0,4.39,0,.34.07.5.43.51a5.72,5.72,0,0,1,.83.12,9.06,9.06,0,0,1,4.13,1.81,6.62,6.62,0,0,1,2.57,4.94,6.54,6.54,0,0,1-1,3.92,8.14,8.14,0,0,1-4.2,3.23l-.36.15a.75.75,0,0,0,.34.18,11.07,11.07,0,0,1,3.22,1.33,6.64,6.64,0,0,1,2.94,4.21,7.63,7.63,0,0,1-3,8.11,11.06,11.06,0,0,1-5.47,2.08c-.31,0-.38.14-.38.44C1120.55,551.48,1120.54,553.11,1120.54,554.75ZM1111.33,536a.94.94,0,0,0,0,.23q0,3.22,0,6.47a13,13,0,0,0,.08,1.39.61.61,0,0,0,.62.63c1,0,2.08.1,3.11.08a24.14,24.14,0,0,0,2.69-.18,4.34,4.34,0,0,0,2.5-1.14,4.47,4.47,0,0,0,1.39-3.19,3.75,3.75,0,0,0-2.43-3.77,8.37,8.37,0,0,0-2.93-.51c-1.58,0-3.16,0-4.74,0A1.37,1.37,0,0,0,1111.33,536Zm0-4.54.27,0h3.15a13.64,13.64,0,0,0,3.55-.36,3.72,3.72,0,0,0,2.24-1.51,3.42,3.42,0,0,0-2.1-5.3,12.29,12.29,0,0,0-2-.25c-1.61,0-3.23,0-4.84,0l-.27,0Z"/><line class="cls-5" x1="95.67" y1="636.58" x2="220.73" y2="636.58"/><line class="cls-5" x1="344.17" y1="636.58" x2="456.23" y2="636.58"/><line class="cls-5" x1="886.5" y1="636.58" x2="998.56" y2="636.58"/><line class="cls-5" x1="1225.92" y1="636.58" x2="1337.98" y2="636.58"/></svg>