<?xml version="1.0" encoding="utf-8"?>
<!-- Generator: Adobe Illustrator 15.1.0, SVG Export Plug-In . SVG Version: 6.00 Build 0)  -->
<!DOCTYPE svg PUBLIC "-//W3C//DTD SVG 1.1//EN" "http://www.w3.org/Graphics/SVG/1.1/DTD/svg11.dtd">
<svg version="1.1" xmlns="http://www.w3.org/2000/svg" xmlns:xlink="http://www.w3.org/1999/xlink" x="0px" y="0px" width="1422px"
	 height="870px" viewBox="0 0 1422 870" enable-background="new 0 0 1422 870" xml:space="preserve">
<g id="under">
	<line fill="none" stroke="#4A4A4A" stroke-width="4" stroke-miterlimit="10" x1="115.6" y1="834.15" x2="1134.063" y2="834.15"/>
	
		<line fill="none" stroke="#4A4A4A" stroke-width="4" stroke-miterlimit="10" x1="1156.992" y1="834.15" x2="1232.537" y2="834.15"/>
</g>
<g id="discoball">
	<g>
		<g>
			<g>
				
					<line fill="#EBEBEB" stroke="#4A4A4A" stroke-width="4" stroke-linecap="round" stroke-linejoin="round" stroke-miterlimit="10" x1="406.95" y1="200.858" x2="406.95" y2="147.394"/>
				
					<line fill="#EBEBEB" stroke="#4A4A4A" stroke-width="4" stroke-linecap="round" stroke-linejoin="round" stroke-miterlimit="10" x1="406.95" y1="137.254" x2="406.95" y2="120.661"/>
				
					<line fill="#EBEBEB" stroke="#4A4A4A" stroke-width="4" stroke-linecap="round" stroke-linejoin="round" stroke-miterlimit="10" x1="406.95" y1="107.673" x2="406.95" y2="100.298"/>
			</g>
			<g>
				
					<circle fill="#FFFFFF" stroke="#4A4A4A" stroke-width="4" stroke-linecap="round" stroke-linejoin="round" stroke-miterlimit="10" cx="406.95" cy="284.743" r="80.198"/>
				<g>
					
						<path fill="none" stroke="#4A4A4A" stroke-width="4" stroke-linecap="round" stroke-linejoin="round" stroke-miterlimit="10" d="
						M361.403,218.732c-1.954,4.637-3.937,10.048-5.706,16.168c-2.185,7.541-4.065,16.169-5.181,25.793
						c-1.622,13.818-1.687,29.683,1.106,47.298c1.355,8.536,3.374,17.487,6.222,26.815c1.751,5.761,3.816,11.68,6.25,17.727"/>
					
						<path fill="none" stroke="#4A4A4A" stroke-width="4" stroke-linecap="round" stroke-linejoin="round" stroke-miterlimit="10" d="
						M452.487,218.723c1.917,4.563,3.872,9.863,5.614,15.873v0.011c2.157,7.374,4.019,15.799,5.171,25.174
						c1.751,14.271,1.853,30.752-1.152,49.114c-1.364,8.37-3.383,17.137-6.186,26.271c-1.724,5.65-3.761,11.44-6.139,17.367v0.009"
						/>
					
						<path fill="none" stroke="#4A4A4A" stroke-width="4" stroke-linecap="round" stroke-linejoin="round" stroke-miterlimit="10" d="
						M429.543,207.781c0.728,6.6,1.365,13.532,1.899,20.769c0.691,9.347,1.208,19.21,1.493,29.571
						c0.434,16.279,0.295,33.766-0.663,52.359c-0.507,9.78-1.226,19.864-2.213,30.254c-0.664,7.024-1.447,14.186-2.36,21.486"/>
					
						<path fill="none" stroke="#4A4A4A" stroke-width="4" stroke-linecap="round" stroke-linejoin="round" stroke-miterlimit="10" d="
						M383.822,207.938c-0.738,6.711-1.383,13.754-1.917,21.109c-0.691,9.348-1.189,19.211-1.465,29.563
						c-0.424,16.002-0.277,33.166,0.654,51.399c0.488,9.78,1.207,19.856,2.185,30.235c0.673,7.145,1.466,14.417,2.396,21.838"/>
				</g>
				<g>
					
						<path fill="none" stroke="#4A4A4A" stroke-width="4" stroke-linecap="round" stroke-linejoin="round" stroke-miterlimit="10" d="
						M474.012,240.764c-4.434-2.028-9.753-4.176-15.91-6.157v-0.011c-7.642-2.451-16.575-4.654-26.659-6.046
						c-14.307-1.982-30.927-2.342-49.538,0.497c-8.352,1.264-17.09,3.171-26.207,5.854c-5.005,1.484-10.13,3.199-15.357,5.172"/>
					
						<path fill="none" stroke="#4A4A4A" stroke-width="4" stroke-linecap="round" stroke-linejoin="round" stroke-miterlimit="10" d="
						M474.39,328.151c-5.015,2.313-11.2,4.802-18.455,7.015c-7.513,2.296-16.168,4.305-25.875,5.568
						c-13.634,1.761-29.323,2.037-46.782-0.489c-8.103-1.161-16.593-2.931-25.433-5.438c-5.798-1.65-11.744-3.604-17.846-5.918
						h-0.01"/>
					
						<path fill="none" stroke="#4A4A4A" stroke-width="4" stroke-linecap="round" stroke-linejoin="round" stroke-miterlimit="10" d="
						M484.078,306.802c-6.959,0.793-14.278,1.503-21.957,2.093c-9.421,0.729-19.376,1.281-29.848,1.586
						c-15.911,0.479-33.01,0.387-51.179-0.471c-9.532-0.451-19.358-1.115-29.47-2.019c-7.227-0.646-14.593-1.41-22.105-2.323"/>
					
						<path fill="none" stroke="#4A4A4A" stroke-width="4" stroke-linecap="round" stroke-linejoin="round" stroke-miterlimit="10" d="
						M483.801,261.753c-6.526-0.746-13.375-1.41-20.529-1.973c-9.568-0.765-19.689-1.337-30.337-1.659
						c-16.298-0.507-33.821-0.415-52.497,0.489c-9.67,0.461-19.653,1.142-29.922,2.083c-6.793,0.617-13.707,1.346-20.75,2.193"/>
				</g>
			</g>
			
				<path fill="#FFFFFF" stroke="#4A4A4A" stroke-width="4" stroke-linecap="round" stroke-linejoin="round" stroke-miterlimit="10" d="
				M432.272,310.48c0,0,0.312,26.101-2.213,30.254c12.665-2.162,25.875-5.568,25.875-5.568c5.707-16.551,6.186-26.271,6.186-26.271
				C449.166,309.759,432.272,310.48,432.272,310.48z"/>
			
				<path fill="#FFFFFF" stroke="#4A4A4A" stroke-width="4" stroke-linecap="round" stroke-linejoin="round" stroke-miterlimit="10" d="
				M380.439,258.61c0,0-0.896,48.415,0,52.158c23.584-0.061,51.833-0.288,51.833-0.288c1.715-21.824,0.663-52.359,0.663-52.359
				L380.439,258.61z"/>
			
				<path fill="#FFFFFF" stroke="#4A4A4A" stroke-width="4" stroke-linecap="round" stroke-linejoin="round" stroke-miterlimit="10" d="
				M463.272,259.78c0,0,3.859,31.635-1.152,49.114c17.178-1.568,21.957-2.093,21.957-2.093c5.91-14.535,2.756-42.687-0.276-45.049
				C477.68,261.088,463.272,259.78,463.272,259.78z"/>
		</g>
	</g>
</g>
<g id="vet_dj">
	<g>
		<g>
			<g>
				<polygon fill="#FF0083" stroke="#4A4A4A" stroke-width="2.5" stroke-miterlimit="10" points="693.73,333.815 709.711,367.228 
					704.304,370.892 692.031,334.608 				"/>
				<circle fill="#FF0083" stroke="#4A4A4A" stroke-width="2.5" stroke-miterlimit="10" cx="690.592" cy="329.296" r="5.503"/>
			</g>
			<g>
				<polygon fill="#FF0083" stroke="#4A4A4A" stroke-width="2.5" stroke-miterlimit="10" points="814.531,333.815 798.445,367.448 
					803.435,370.892 816.23,334.608 				"/>
				<circle fill="#FF0083" stroke="#4A4A4A" stroke-width="2.5" stroke-miterlimit="10" cx="817.67" cy="329.296" r="5.503"/>
			</g>
		</g>
		<path fill="#FFFFFF" stroke="#4A4A4A" stroke-miterlimit="10" d="M824.68,615.2H792.86L756.22,534.27L725.08,615.2h-32.43
			l12.6-99.7l0.88-7.72l3.58-31.19v-73.33l-51.99-16.67l-6.66-59.33l21.33-3.47l8.31,42.33h33.71l83.72,0.7
			c10.601,0.09,19.17,8.68,19.22,19.279l0.261,52.74c0.04,7.05-3.95,13.5-10.271,16.63l-12.38,6.13v14.19l6.82,31.99L824.68,615.2z"
			/>
		<polygon fill="#FFFFFF" stroke="#4A4A4A" stroke-miterlimit="10" points="824.68,615.2 792.86,615.2 756.22,534.27 725.08,615.2 
			692.65,615.2 705.25,515.5 706.13,507.78 801.78,507.78 		"/>
		<g>
			<path fill="#FFFFFF" stroke="#4A4A4A" stroke-miterlimit="10" d="M811.647,482.089c-0.456,0.171-0.945,0.255-1.457,0.283v0.024
				C810.867,482.39,811.599,482.347,811.647,482.089z"/>
		</g>
		<g>
			<polygon fill="#EBEBEB" points="807,516.09 807,528.34 714.48,528.34 703.67,615.42 693,615.42 705.33,516.09 			"/>
			
				<path fill="#EBEBEB" stroke="#4A4A4A" stroke-width="4" stroke-linecap="round" stroke-linejoin="round" stroke-miterlimit="10" d="
				M676.658,631.342h48.427V615.2H688.67c-6.606,0-12.012,5.405-12.012,12.012V631.342z"/>
			
				<path fill="#EBEBEB" stroke="#4A4A4A" stroke-width="4" stroke-linecap="round" stroke-linejoin="round" stroke-miterlimit="10" d="
				M839.816,631.342h-46.959V615.2h35.492c6.333,0,11.467,5.134,11.467,11.466V631.342z"/>
			
				<polyline fill="none" stroke="#4A4A4A" stroke-width="4" stroke-linecap="round" stroke-linejoin="round" stroke-miterlimit="10" points="
				762.996,516.869 724.685,615.2 692.646,615.2 709.711,480.196 			"/>
			<path fill="#EBEBEB" stroke="#4A4A4A" stroke-width="2.5" stroke-miterlimit="10" d="M717.481,576.934l-16.527-0.661
				c-4.2-0.168-7.47-3.71-7.302-7.91l0.799-19.979c0.168-4.2,3.71-7.47,7.91-7.302l10.479,0.419
				c9.278,0.371,16.5,8.194,16.128,17.474l-0.305,7.637C728.426,572.55,723.42,577.171,717.481,576.934z"/>
		</g>
		<g>
			<polygon fill="#EBEBEB" stroke="#4A4A4A" stroke-miterlimit="10" points="793.959,477.995 709.711,477.995 711.314,464.789 
				793.959,464.789 			"/>
			
				<line fill="none" stroke="#4A4A4A" stroke-width="2.5" stroke-miterlimit="10" x1="711.314" y1="464.789" x2="724.987" y2="464.789"/>
			
				<line fill="none" stroke="#4A4A4A" stroke-width="2.5" stroke-miterlimit="10" x1="724.987" y1="477.995" x2="709.711" y2="477.995"/>
			
				<line fill="none" stroke="#4A4A4A" stroke-width="2.5" stroke-miterlimit="10" x1="771.946" y1="477.995" x2="735.26" y2="477.995"/>
			
				<line fill="none" stroke="#4A4A4A" stroke-width="2.5" stroke-miterlimit="10" x1="794.959" y1="477.995" x2="782.219" y2="477.995"/>
			
				<line fill="none" stroke="#4A4A4A" stroke-width="2.5" stroke-miterlimit="10" x1="782.219" y1="464.789" x2="794.959" y2="464.789"/>
			
				<line fill="none" stroke="#4A4A4A" stroke-width="2.5" stroke-miterlimit="10" x1="735.26" y1="464.789" x2="771.946" y2="464.789"/>
			<path fill="#FFFFFF" stroke="#4A4A4A" stroke-width="3.6686" stroke-miterlimit="10" d="M772.036,477.995"/>
			<g>
				<path fill="#EBEBEB" stroke="#4A4A4A" stroke-width="2.5" stroke-miterlimit="10" d="M732.325,494.138h-4.403
					c-1.62,0-2.935-1.314-2.935-2.936v-33.751c0-1.62,1.314-2.935,2.935-2.935h4.403c1.62,0,2.935,1.314,2.935,2.935v33.751
					C735.26,492.823,733.945,494.138,732.325,494.138z"/>
				<path fill="#EBEBEB" stroke="#4A4A4A" stroke-width="2.5" stroke-miterlimit="10" d="M779.284,494.138h-4.402
					c-1.621,0-2.936-1.314-2.936-2.936v-33.751c0-1.62,1.314-2.935,2.936-2.935h4.402c1.621,0,2.935,1.314,2.935,2.935v33.751
					C782.219,492.823,780.905,494.138,779.284,494.138z"/>
			</g>
		</g>
		<g>
			<g>
				<path fill="#FFFFFF" stroke="#4A4A4A" stroke-miterlimit="10" d="M779.148,340.058c-0.645-1.587-0.598-8.08-0.701-11.927
					c-0.103-3.847-1.143-4.523-2.38-6.775s-4.107-4.544-7.056-4.343s-7.645,3.234-8.715,4.631c-1.07,1.397-2.837,1.168-8.071-0.412
					c-5.235-1.58-4.769-2.867-9.783-2.818s-6.946,1.75-9.494,5.381c-2.547,3.63-1.321,21.684-1.321,21.684v9.988
					c0,9.685,8.566,18.012,18.252,18.012h11.783c9.686,0,16.965-8.327,16.965-18.012v-11.141l0.56-0.014
					C779.187,344.312,779.794,341.644,779.148,340.058z"/>
				
					<path fill="none" stroke="#4A4A4A" stroke-width="4" stroke-linecap="round" stroke-linejoin="round" stroke-miterlimit="10" d="
					M794.692,321.531c0-20.565-14.575-35.035-35.142-35.035h-7.704c-20.565,0-39.333,14.47-39.333,35.035v39.07c0,0.12,0-0.128,0,0
					c0,12.156,18.718,22.745,41.41,22.745c22.693,0,40.769-10.589,40.769-22.745c0-0.128,0,0.12,0,0V321.531z"/>
				
					<path fill="none" stroke="#4A4A4A" stroke-width="4" stroke-linecap="round" stroke-linejoin="round" stroke-miterlimit="10" d="
					M778.551,337.122v18.344c0,9.685-7.203,17.609-16.889,17.609h-11.783c-9.686,0-18.288-7.925-18.288-17.609v-21.278"/>
				
					<path fill="#EBEBEB" stroke="#4A4A4A" stroke-width="4" stroke-linecap="round" stroke-linejoin="round" stroke-miterlimit="10" d="
					M759.49,296.769h-9.783c-12.645,0-21.051,9.244-21.051,21.889v5.137c0,4.928,0,10.004,2.935,13.823v-6.859
					c0-4.825,1.443-8.812,4.904-11.479c3.464-2.672,9.306-2.741,12.556,0.186c1.603,1.443,4.308,2.373,6.635,2.373
					c2.383,0,4.839-0.694,6.453-2.201c3.188-2.977,6.565-3.49,10.422-1.451c3.668,1.94,5.99,6.413,5.99,11.906v9.416l0.598,0.551
					c2.966-4.402,3.805-10.574,3.805-15.897v-5.136C782.953,306.327,772.188,296.769,759.49,296.769z"/>
			</g>
			
				<path fill="none" stroke="#4A4A4A" stroke-width="2.5" stroke-linecap="round" stroke-linejoin="round" stroke-miterlimit="10" d="
				M742.442,342.747c0-2.701,2.189-4.891,4.892-4.891c2.701,0,4.892,2.189,4.892,4.891"/>
			
				<path fill="none" stroke="#4A4A4A" stroke-width="2.5" stroke-linecap="round" stroke-linejoin="round" stroke-miterlimit="10" d="
				M771.303,342.747c0-2.701-2.19-4.891-4.892-4.891c-2.702,0-4.892,2.189-4.892,4.891"/>
			
				<path fill="none" stroke="#4A4A4A" stroke-width="2.5" stroke-linecap="round" stroke-linejoin="round" stroke-miterlimit="10" d="
				M749.902,359.378c6.236,1.713,17.486,1.224,20.789-3.668"/>
		</g>
		
			<polyline fill="none" stroke="#4A4A4A" stroke-width="4" stroke-linecap="round" stroke-linejoin="round" stroke-miterlimit="10" points="
			756.218,534.268 792.644,615.2 824.684,615.2 798.445,480.196 		"/>
		<path fill="#EBEBEB" stroke="#4A4A4A" stroke-width="2.5" stroke-miterlimit="10" d="M796.601,577.192l16.479-1.429
			c4.188-0.362,7.289-4.053,6.927-8.241l-1.727-19.919c-0.363-4.188-4.053-7.289-8.242-6.926l-10.447,0.905
			c-9.252,0.802-16.102,8.952-15.3,18.203l0.66,7.614C785.464,573.321,790.68,577.706,796.601,577.192z"/>
		
			<path fill="#FFFFFF" stroke="#4A4A4A" stroke-width="3" stroke-linecap="round" stroke-linejoin="round" stroke-miterlimit="10" d="
			M653.544,326.856l-3.854-14.81c-1.048-4.392,0.294-9.01,3.532-12.155c4.888-4.75,7.022-3.288,7.501-0.826
			c2.598,13.36,8.537,5.145,8.965,10.886l0.867,13.843L653.544,326.856z"/>
		
			<polyline fill="none" stroke="#4A4A4A" stroke-width="4" stroke-linecap="round" stroke-linejoin="round" stroke-miterlimit="10" points="
			709.711,476.595 709.711,403.262 657.722,386.595 651.056,327.261 672.389,323.794 680.704,366.116 735.132,366.116 		"/>
		<g>
			
				<rect x="648.936" y="484.598" fill="#EBEBEB" stroke="#4A4A4A" stroke-width="4" stroke-linecap="round" stroke-linejoin="round" stroke-miterlimit="10" width="209.333" height="15.452"/>
			
				<rect x="658.603" y="500.05" fill="#EBEBEB" stroke="#4A4A4A" stroke-width="4" stroke-linecap="round" stroke-linejoin="round" stroke-miterlimit="10" width="186.761" height="15.453"/>
			<g>
				
					<rect x="659.408" y="475.794" fill="#EBEBEB" stroke="#4A4A4A" stroke-width="4" stroke-linecap="round" stroke-linejoin="round" stroke-miterlimit="10" width="86" height="8.804"/>
				
					<rect x="761.798" y="475.794" fill="#EBEBEB" stroke="#4A4A4A" stroke-width="4" stroke-linecap="round" stroke-linejoin="round" stroke-miterlimit="10" width="86" height="8.804"/>
			</g>
		</g>
		
			<line fill="none" stroke="#4A4A4A" stroke-width="4" stroke-linecap="round" stroke-linejoin="round" stroke-miterlimit="10" x1="794.692" y1="475.794" x2="794.692" y2="436.262"/>
		
			<path fill="#FFFFFF" stroke="#4A4A4A" stroke-width="3" stroke-linecap="round" stroke-linejoin="round" stroke-miterlimit="10" d="
			M764.341,458.058c-7.94,1.333-29.209,6.074-29.209,17.743c7.13,0,12.074,0,12.074,0v6.002l24.83-10.281L764.341,458.058z"/>
		<polygon fill="#FFFFFF" points="797.056,435.178 759.587,456.803 768.628,474.627 801.719,458.253 807.338,443.208 		"/>
		<path fill="none" stroke="#4A4A4A" stroke-width="4" stroke-linecap="round" stroke-linejoin="round" stroke-miterlimit="10" d="
			M768.628,474.627l38.708-19.154c6.335-3.134,10.357-9.576,10.393-16.644l0.256-50.872c0.027-5.416-2.105-10.62-5.927-14.46
			c-3.82-3.84-9.014-5.999-14.431-5.999h-22.071"/>
		
			<polyline fill="none" stroke="#4A4A4A" stroke-width="3" stroke-linecap="round" stroke-linejoin="round" stroke-miterlimit="10" points="
			791.45,406.479 794.692,436.262 759.587,456.027 767.987,473.393 		"/>
	</g>
</g>
<g id="girl_1">
	<g>
		<path fill="#FFFFFF" d="M164.432,709.961l15.713,107.495c-2.458,4.618-4.188,13.899-1.708,14.87s12.964,0.97,12.964,0.97l34.167,1
			c-0.174-6.038-1.417-10.498-10-17.332c5.456-30.658,18.373-114.992,18.373-114.992l5.794-4.842l-10.025-30.241
			c7.849,4.822,13.446,8.468,19.084,6.343s26.485-17.078,26.485-17.078c1.881-3.546,2.956-9.332,2.956-9.332
			c2.948-5.359,12.617-20.559,1.309-30.5c6.507-9.32,12.624-18.941,12.624-18.941l-2.065-4.618l-12.46-8.427l-3.535,0.649
			L251.5,615.38l0.734,5.5l12.014,8.612l1.736,8.638l-18.418,5.206l-15.624-47.437l-5.309-7.925l-6.76-4.94l-5.973-2.545
			l-39.575-0.209c0,0-15.646,2.994-16.119,21.797l-5.035,46.387c0,0-1.938,10.916,9.812,19.916c-2.25,9.75-7.75,36.078-7.75,36.078
			L164.432,709.961z"/>
		<polygon fill="#EBEBEB" points="177,708.757 189.121,821.631 180.234,818.297 164.333,705.757 		"/>
		<g>
			
				<path fill="#FF0083" stroke="#4A4A4A" stroke-width="3" stroke-linecap="round" stroke-linejoin="round" stroke-miterlimit="10" d="
				M271.113,628.396c-1.526,2.187-4.537,2.722-6.724,1.195l-10.824-7.557c-1.05-0.733-1.766-1.854-1.99-3.115
				c-0.224-1.261,0.062-2.559,0.795-3.609l20.184-28.91c0.733-1.051,1.853-1.767,3.114-1.99c1.261-0.225,2.56,0.062,3.609,0.795
				l10.824,7.557c2.187,1.527,2.722,4.537,1.195,6.725L271.113,628.396z"/>
			<path fill="none" stroke="#4A4A4A" stroke-width="4" stroke-linecap="round" stroke-linejoin="round" stroke-miterlimit="10" d="
				M164.432,709.961l15.802,108.336c0,0,2.439,3.334,8.886,3.334c0,0,22.447,1.333,26.447-4.667
				c2-4.667,18.373-114.992,18.373-114.992"/>
			
				<path fill="#FFFFFF" stroke="#4A4A4A" stroke-width="3" stroke-linecap="round" stroke-linejoin="round" stroke-miterlimit="10" d="
				M266.235,636.964c-1.833-5.333-3.5-9.99,0.336-12.96c3.5-2,5.164,1.461,6.998-0.706s8.167-10.287,10.667-0.561
				s-1.833,16.607-6,24.084"/>
			
				<line fill="none" stroke="#4A4A4A" stroke-width="3" stroke-linecap="round" stroke-linejoin="round" stroke-miterlimit="10" x1="192.234" y1="724.297" x2="192.234" y2="821.737"/>
			<path fill="none" stroke="#4A4A4A" stroke-width="4" stroke-linecap="round" stroke-linejoin="round" stroke-miterlimit="10" d="
				M194.247,580.28h13.209c13.087,0,22.588,7.678,26.181,20.263l13.93,42.793l19.333-5.039c10.71-1.648,13.223,12.571,8.379,17.856
				c-1.427,1.557-10.942,8.222-19.768,14.275c-10.053,6.895-22.433,2.12-26.43-4.65"/>
			<path fill="none" stroke="#4A4A4A" stroke-width="4" stroke-linecap="round" stroke-linejoin="round" stroke-miterlimit="10" d="
				M228.509,663.267l11.226,33.863c-24.735,20.96-68.401,15.294-84.5,7.328l9.25-48.828l-6.277-53.553
				c-0.79-9.166,4.522-17.662,12.886-21.061"/>
			<path fill="none" stroke="#4A4A4A" stroke-width="3" stroke-linecap="round" stroke-linejoin="round" stroke-miterlimit="10" d="
				M161.485,669.453l-4.835-7.036c-3.009-4.379-4.347-9.692-3.769-14.974l5.285-48.304"/>
			<path fill="none" stroke="#4A4A4A" stroke-width="4" stroke-linecap="round" stroke-linejoin="round" stroke-miterlimit="10" d="
				M214.123,818.737c6.321,0,11.446,5.125,11.446,11.446v4.112h-33.334v-12.559"/>
			<path fill="none" stroke="#4A4A4A" stroke-width="4" stroke-linecap="round" stroke-linejoin="round" stroke-miterlimit="10" d="
				M191.401,833.296c0,0-12.833,1.835-14-2.332s0.321-12.016,2.744-13.508"/>
			
				<line fill="none" stroke="#4A4A4A" stroke-width="3" stroke-linecap="round" stroke-linejoin="round" stroke-miterlimit="10" x1="227.568" y1="662.631" x2="213.902" y2="634.296"/>
			
				<path fill="#EBEBEB" stroke="#4A4A4A" stroke-width="4" stroke-linecap="round" stroke-linejoin="round" stroke-miterlimit="10" d="
				M199.187,584.983c-17.796,10.451-23.574,0.644-22.731-2.889c-12.706,5.245-16.639,33.708-15.672,41.952l3.702,31.583l-9.25,48.46
				c27.515,10.5,56.235,12.83,84.5-6.96l-11.166-32.348l-11.236-21.692c-15.969,0-31.917-46.238-0.583-60.995"/>
			<g>
				<g>
					
						<path fill="#FFFFFF" stroke="#4A4A4A" stroke-width="4" stroke-linecap="round" stroke-linejoin="round" stroke-miterlimit="10" d="
						M191.357,584.983h5.781c12.557,0,22.737-4.863,22.737-17.42v-25.831c0-12.557-10.18-22.736-22.737-22.736h-5.781
						c-12.558,0-22.737,10.18-22.737,22.736v25.831C168.62,580.12,178.799,584.983,191.357,584.983z"/>
				</g>
				
					<path fill="#EBEBEB" stroke="#4A4A4A" stroke-width="4" stroke-linecap="round" stroke-linejoin="round" stroke-miterlimit="10" d="
					M191.875,553.473c0,0,6.831-11.776,14.082-14.818c0.318-0.133,0.638-0.25,0.957-0.348l-3.838,7.861c0,0,23.8,0.771,21.7-11.595
					c-2.1-12.367-6.09-23.566-17.861-24.5c-11.772-0.935-33.315-5.367-38.293,7.699s-6.939,41.661,0.527,59.15
					c2.453,5.746,3.921,6.073,5.103,6.334c1.531,0.337,4.75-5.833,8.291-17.418c0,0-5.04-7.806-1.633-12.133
					C186.041,547.186,191.875,553.473,191.875,553.473z"/>
				
					<path fill="#EBEBEB" stroke="#4A4A4A" stroke-width="4" stroke-linecap="round" stroke-linejoin="round" stroke-miterlimit="10" d="
					M175.075,505.639c10.003,3.044,15.167,15.168,2.8,26.134c-5.9,5.232,4.2,7.467-0.7,19.366
					c-6.336,15.39-10.404,14.7-16.168,15.634c0,0,3.802-6.749-2.731-12.124c-6.533-5.376,2.1-9.109,0-14.942
					s-9.935-14.921-0.7-27.768C164.597,502.172,175.075,505.639,175.075,505.639z"/>
				
					<path fill="none" stroke="#4A4A4A" stroke-width="2.5" stroke-linecap="round" stroke-linejoin="round" stroke-miterlimit="10" d="
					M216.447,553.536"/>
				
					<path fill="none" stroke="#4A4A4A" stroke-width="2.5" stroke-linecap="round" stroke-linejoin="round" stroke-miterlimit="10" d="
					M209.489,556.303"/>
				
					<path fill="none" stroke="#4A4A4A" stroke-width="2.5" stroke-linecap="round" stroke-linejoin="round" stroke-miterlimit="10" d="
					M214.833,566.772c0,0,1.749,1.432,5.041,0.791"/>
				
					<path fill="none" stroke="#4A4A4A" stroke-width="2.5" stroke-linecap="round" stroke-linejoin="round" stroke-miterlimit="10" d="
					M219.167,554.757c0-2.375-1.942-3.956-4.339-3.533c-2.396,0.424-4.339,2.691-4.339,5.066"/>
			</g>
		</g>
	</g>
</g>
<g id="boy_with_smartphone">
	<g>
		<g>
			<path fill="#EBEBEB" d="M614.42,477.8c-0.02-11.7-9.48-21.19-21.18-21.229h-47.77l-14,3.3l-2.97,2.33
				c-0.07,0.069-0.16,0.13-0.22,0.189c-4.16,4.42-7.12,10.391-7.12,16.98v87.34c0,2.13,2.48,3.67,4.57,3.67h-0.41v16.97
				c0,7.13,5.39,12.2,13.51,12.67c0.13,0.021,0.26,0.021,0.39,0.03v96.17h-0.67c-6.99,0-13.23,5.44-13.23,12.55v5.83h84.75V536.29
				c3.86-5.75,4.41-7.061,4.41-15.391C614.48,515.99,614.45,494.58,614.42,477.8z"/>
			<path fill="#FFFFFF" d="M610.07,567.56V714.6h-84.75v-5.83c0-7.109,6.24-12.55,13.23-12.55h0.67v-96.17
				c-0.13-0.01-0.26-0.01-0.39-0.03v-32.46H610.07z"/>
			<path fill="#EBEBEB" stroke="#4A4A4A" stroke-width="4" stroke-miterlimit="10" d="M586.905,456.566h5.432
				c11.885,0,22.14,9.721,22.14,21.605v48.736c0,3.505-2.32,6.755-4.242,9.384"/>
			<rect x="539" y="568.756" fill="#EBEBEB" width="11.667" height="128.667"/>
			<path fill="#FF0083" stroke="#FF0083" stroke-width="3" stroke-miterlimit="10" d="M547.016,536.115
				c-0.586,0.045-1.163-0.13-1.615-0.51c-0.451-0.382-0.729-0.914-0.78-1.504l-2.579-29.631c-0.105-1.215,0.798-2.29,2.013-2.396
				l14.725-1.281c1.225-0.098,2.291,0.796,2.396,2.012l1.578,18.143l-4.535-2.625c-2.066-1.119-4.489-1.234-6.65-0.313
				c-2.161,0.923-3.757,2.751-4.378,5.017l-1.489,5.435c-0.554,2.019-0.269,4.124,0.8,5.925c0.374,0.63,0.851,1.166,1.372,1.654
				L547.016,536.115z"/>
			
				<path fill="#FFFFFF" stroke="#4A4A4A" stroke-width="4" stroke-linecap="round" stroke-linejoin="round" stroke-miterlimit="10" d="
				M537.948,598.042c-7.954,0-12.549-4.641-12.549-10.695v-19.082h14.846"/>
			
				<path fill="#EBEBEB" stroke="#4A4A4A" stroke-width="4" stroke-linecap="round" stroke-linejoin="round" stroke-miterlimit="10" d="
				M571.352,698.343h-34.614c-6.15,0-11.339,4.278-11.339,10.428v5.126h37.469"/>
			
				<path fill="#EBEBEB" stroke="#4A4A4A" stroke-width="4" stroke-linecap="round" stroke-linejoin="round" stroke-miterlimit="10" d="
				M562.161,713.896h46.66v-15.554h-38.423c-4.53,0-8.237,3.707-8.237,8.237V713.896z"/>
			<path fill="none" stroke="#4A4A4A" stroke-width="4" stroke-linecap="round" stroke-linejoin="round" stroke-miterlimit="10" d="
				M608.821,568.972v129.371h-69.283V568.265H523.69c-1.156,0-2.533-0.401-2.533-1.559v-87.34c0-12.592,10.738-22.715,23.33-22.715
				l0,0"/>
			
				<line fill="none" stroke="#4A4A4A" stroke-width="2.5" stroke-miterlimit="10" x1="538.831" y1="567.558" x2="608.114" y2="567.558"/>
			<path fill="none" stroke="#4A4A4A" stroke-width="4" stroke-linecap="round" stroke-linejoin="round" stroke-miterlimit="10" d="
				M571.352,698.343h37.469c0,0,0-129.542,0-129.547c1.414-0.145,1.414-1.367,1.414-2.855c0,0,0-28.866,0-29.648
				c2.828-2.63,4.242-5.874,4.242-9.384v-48.736c0-11.885-10.254-21.605-22.14-21.605h-4.731"/>
			
				<line fill="none" stroke="#4A4A4A" stroke-width="2.5" stroke-linecap="round" stroke-linejoin="round" stroke-miterlimit="10" x1="571.352" y1="587.352" x2="571.352" y2="697.637"/>
			
				<path fill="none" stroke="#4A4A4A" stroke-width="2.5" stroke-linecap="round" stroke-linejoin="round" stroke-miterlimit="10" d="
				M610.758,535.458c-2.894,3.96-7.529,6.649-12.809,6.649h-25.751c-0.846,0-0.846-0.889-0.846-1.734v-14.846
				c0-0.846,0-1.801,0.846-1.801h11.966c3.904,0,6.983-2.896,6.983-6.8V499.69"/>
			
				<path fill="#FFFFFF" stroke="#4A4A4A" stroke-width="2.5" stroke-linecap="round" stroke-linejoin="round" stroke-miterlimit="10" d="
				M569.965,540.038l-18.401-3.141c-3.63-0.86-5.825-4.559-4.838-8.157l1.49-5.434c1.123-4.096,5.767-6.076,9.5-4.052l12.25,7.093"
				/>
			
				<path fill="none" stroke="#4A4A4A" stroke-width="2.5" stroke-linecap="round" stroke-linejoin="round" stroke-miterlimit="10" d="
				M551.555,536.784l-4.446,0.388c-1.8,0.156-3.387-1.176-3.543-2.978l-2.579-29.632c-0.157-1.801,1.176-3.388,2.976-3.544
				l14.726-1.282c1.801-0.156,3.387,1.177,3.544,2.978l1.735,19.931"/>
			
				<line fill="none" stroke="#4A4A4A" stroke-width="2.5" stroke-linecap="round" stroke-linejoin="round" stroke-miterlimit="10" x1="536.003" y1="568.972" x2="536.003" y2="491.207"/>
		</g>
		<g>
			<g>
				
					<path fill="#FFFFFF" stroke="#4A4A4A" stroke-width="4" stroke-linecap="round" stroke-linejoin="round" stroke-miterlimit="10" d="
					M569.624,466.072L569.624,466.072c14.099,0,25.529-11.43,25.529-25.529v-19.972c0-14.1-11.43-25.529-25.529-25.529l0,0
					c-14.099,0-25.529,11.43-25.529,25.529v19.972C544.095,454.643,555.525,466.072,569.624,466.072z"/>
			</g>
			
				<path fill="#EBEBEB" stroke="#4A4A4A" stroke-width="4" stroke-linecap="round" stroke-linejoin="round" stroke-miterlimit="10" d="
				M553.921,410.357c5.267,17.371,32.742,22.225,34.142,23.8s1.994,19.173,4.954,20.983c1.051,0.643,3.503,0.846,6.246,1.241
				c2.725,0.394,1.936-28.935,1.05-35.759c-3.15-24.266-14.816-27.766-22.392-28.955c-8.037-1.264-16.273-1.216-21.523,0.709
				s-16.467,8.18-16.964,24.742c-0.285,9.523-0.647,41.044-0.647,41.044s3.166-1.105,5.309-2.155
				c2.143-1.051,0.106-6.997,0.043-17.038c-0.063-10.042-0.924-12.862,0.763-16.013
				C546.588,419.807,553.921,410.357,553.921,410.357z"/>
			<g>
				
					<path fill="none" stroke="#4A4A4A" stroke-width="2.5" stroke-linecap="round" stroke-linejoin="round" stroke-miterlimit="10" d="
					M579.295,434.561c0-2.603-2.11-4.713-4.713-4.713c-2.603,0-4.713,2.11-4.713,4.713"/>
				
					<path fill="none" stroke="#4A4A4A" stroke-width="2.5" stroke-linecap="round" stroke-linejoin="round" stroke-miterlimit="10" d="
					M560.914,434.561c0-2.603-2.11-4.713-4.713-4.713c-2.603,0-4.713,2.11-4.713,4.713"/>
			</g>
			
				<path fill="none" stroke="#4A4A4A" stroke-width="2.5" stroke-linecap="round" stroke-linejoin="round" stroke-miterlimit="10" d="
				M573.757,447.164c-9.592,8.973-17.792,0-17.792,0"/>
		</g>
	</g>
</g>
<g id="girl_2">
	<g>
		<g>
			
				<polygon fill="#EBEBEB" stroke="#4A4A4A" stroke-width="4" stroke-linecap="round" stroke-linejoin="round" stroke-miterlimit="10" points="
				1237.203,755.463 1212.947,755.463 1209.729,691.314 1241.247,691.314 			"/>
			
				<polygon fill="#FFFFFF" stroke="#4A4A4A" stroke-width="4" stroke-linecap="round" stroke-linejoin="round" stroke-miterlimit="10" points="
				1224.993,755.463 1200.739,755.463 1196.537,691.314 1228.056,691.314 			"/>
			<polygon fill="#EBEBEB" points="1208.75,696.34 1211,753.34 1202.739,753.463 1198.25,693.84 			"/>
			
				<path fill="#EBEBEB" stroke="#4A4A4A" stroke-width="4" stroke-linecap="round" stroke-linejoin="round" stroke-miterlimit="10" d="
				M1195.757,771.016h40.931v-15.553h-33.706c-3.973,0-7.225,3.707-7.225,8.237V771.016z"/>
			
				<path fill="#EBEBEB" stroke="#4A4A4A" stroke-width="4" stroke-linecap="round" stroke-linejoin="round" stroke-miterlimit="10" d="
				M1184.063,771.016h40.931v-15.553h-33.705c-3.974,0-7.226,3.707-7.226,8.237V771.016z"/>
		</g>
		
			<path fill="#EBEBEB" stroke="#4A4A4A" stroke-width="4" stroke-linecap="round" stroke-linejoin="round" stroke-miterlimit="10" d="
			M1185.572,619.945l-5.838,67.287c9.326,10.04,57.295,21.97,78.122-7.94l-9.942-63.53L1185.572,619.945z"/>
		<g>
			
				<path fill="#FFFFFF" stroke="#4A4A4A" stroke-width="4" stroke-linecap="round" stroke-linejoin="round" stroke-miterlimit="10" d="
				M1254.287,612.807c-8.707,17.288-50.04,19.621-73.101,7.288l-0.505-78.183c0.395-13.587,11.682-24.601,25.209-24.601H1228
				c13.529,0,20.453,11.012,20.782,24.601C1249.213,559.684,1254.287,612.807,1254.287,612.807z"/>
			
				<path fill="#FF0083" stroke="#4A4A4A" stroke-width="3" stroke-linecap="round" stroke-linejoin="round" stroke-miterlimit="10" d="
				M1170.496,556.389l-17.419,6.793c-1.257,0.489-2.642-0.125-3.093-1.372l-11.146-30.787c-0.45-1.247,0.201-2.656,1.456-3.145
				l17.42-6.792c1.257-0.49,2.641,0.123,3.092,1.371l11.146,30.788C1172.403,554.491,1171.751,555.898,1170.496,556.389z"/>
			
				<path fill="#FFFFFF" stroke="#4A4A4A" stroke-width="4" stroke-linecap="round" stroke-linejoin="round" stroke-miterlimit="10" d="
				M1145.554,578.463c0,0-6.132-9.796-7.003-15.971c-0.87-6.175,1.242-14.61,2.355-16.836c1.115-2.228,4.914-0.47,5.498,3.515
				c0.585,3.983,2.547,4.687,4.538,4.451c1.989-0.233,3.505-4.218,5.355-3.631c1.849,0.586,4.05,5.155,5.019,7.967
				c0.968,2.813-2.162,14.177-2.162,14.177L1145.554,578.463z"/>
			
				<path fill="#FFFFFF" stroke="#4A4A4A" stroke-width="4" stroke-linecap="round" stroke-linejoin="round" stroke-miterlimit="10" d="
				M1200.063,573.541l-17.867,33.008c-6.257,8.924-22.104,7.976-27.151-1.373l-12.268-26.247c-0.759-1.293-0.386-2.979,0.854-3.891
				c3.972-2.917,12.823-6.34,16.114-5.188c3.617,1.267,8.692,9.061,8.692,9.061l-1.744,6.815l15.368-51.32"/>
		</g>
		<g>
			
				<path fill="#FFFFFF" stroke="#4A4A4A" stroke-width="4" stroke-linecap="round" stroke-linejoin="round" stroke-miterlimit="10" d="
				M1221.426,525.979h-12.807c-8.572,0-15.521-6.949-15.521-15.521v-27.163c0-8.571,6.949-15.521,15.521-15.521h12.807
				c8.57,0,15.52,6.95,15.52,15.521v27.163C1236.945,519.029,1229.996,525.979,1221.426,525.979z"/>
			
				<path fill="#EBEBEB" stroke="#4A4A4A" stroke-width="4" stroke-linecap="round" stroke-linejoin="round" stroke-miterlimit="10" d="
				M1211.143,478.542c-4.428,1.951-4.925,2.246-5.821,2.037c-2.458-0.573-2.193-3.602-4.655-4.365
				c-2.607-0.807-4.061,2.223-7.276,1.746c-2.786-0.414-5.387-3.236-5.239-5.529c0.131-1.997,2.25-2.167,2.619-4.365
				c0.504-3-1.979-4.468-1.455-6.985c0.481-2.312,2.542-1.782,4.947-4.947c2.666-3.506,2.563-5.042,4.656-6.257
				c2.509-1.455,3.777,1.365,8.149,0.437c3.997-0.849,3.827-5.288,7.565-6.111c4.416-0.972,4.626,3.13,10.914,3.492
				c5.416,0.313,9.082-2.081,12.66-0.582c3.125,1.31,2.052,4.677,5.82,7.566c4.328,3.318,6.391,1.772,8.004,4.512
				c1.645,2.796-0.441,4.71,0.727,9.749c0.891,3.844,3.846,4.344,4.365,8.73c0.109,0.918,0.393,3.309-0.873,5.529
				c-2.125,3.73-6.217,2.77-7.275,5.529c-1.299,3.39,3.871,7.442,2.328,9.604c-0.871,1.222-2.719,0.211-4.074,1.747
				c-1.393,1.579-0.107,3.405-1.455,5.528c-1.102,1.738-2.363,1.148-3.783,2.62c-2.937,3.047,0.197,7.934-2.328,10.477
				c-1.535,1.547-4.915,1.977-6.693,0.582c-3.898-3.054,2.744-12.633-2.037-18.334c-1.126-1.342-2.014-1.433-5.529-4.948
				c-3.373-3.372-3.676-4.409-3.784-4.947c-0.632-3.136,2.305-4.277,2.038-7.566c-0.288-3.529-4.059-6.952-7.275-6.984
				C1215.953,476.5,1215.646,476.558,1211.143,478.542z"/>
			
				<path fill="none" stroke="#4A4A4A" stroke-width="2.5" stroke-linecap="round" stroke-linejoin="round" stroke-miterlimit="10" d="
				M1197.484,495.945c0-2.163,1.492-3.919,3.336-3.919c1.842,0,3.336,1.756,3.336,3.919"/>
			
				<path fill="none" stroke="#4A4A4A" stroke-width="2.5" stroke-linecap="round" stroke-linejoin="round" stroke-miterlimit="10" d="
				M1194.23,513.104c4.555,1.863,10.689-0.568,12.309-1.642"/>
		</g>
	</g>
</g>
<g id="girl_3">
	<g>
		<g>
			
				<path fill="#EBEBEB" stroke="#4A4A4A" stroke-width="4" stroke-linecap="round" stroke-linejoin="round" stroke-miterlimit="10" d="
				M930.16,692.733l-5,60.016l3.653,64.671c-6.39,0-10.472,3.17-10.472,16.876h36.082v-15.66l6.875-64.886l11.125-31.614
				l12.971,33.783l10.105,60.892v17.485h34.049c0,0,4.078-14.717-9.711-16.876c-0.616-17.538,0-68.784,0-68.784l-12.789-61
				l-65.375-2.5L930.16,692.733z"/>
			
				<polyline fill="none" stroke="#4A4A4A" stroke-width="4" stroke-linecap="round" stroke-linejoin="round" stroke-miterlimit="10" points="
				930.16,692.733 925.16,752.749 928.813,817.42 953.971,817.42 961.356,753.249 975.73,709.249 			"/>
			
				<polyline fill="none" stroke="#4A4A4A" stroke-width="4" stroke-linecap="round" stroke-linejoin="round" stroke-miterlimit="10" points="
				1008.24,692.733 1019.838,749.249 1019.008,817.42 995.601,817.42 985.395,755.919 973.253,721.972 			"/>
			<path fill="none" stroke="#4A4A4A" stroke-width="4" stroke-linecap="round" stroke-linejoin="round" stroke-miterlimit="10" d="
				M953.971,817.42h-26.847c-4.851,0-8.782,4.881-8.782,10.902v5.974h35.629V817.42z"/>
			<path fill="none" stroke="#4A4A4A" stroke-width="4" stroke-linecap="round" stroke-linejoin="round" stroke-miterlimit="10" d="
				M1029.549,828.322c0-6.021-3.966-10.902-8.857-10.902h-25.113v16.876h33.971V828.322z"/>
		</g>
		<g>
			
				<path fill="#FFFFFF" stroke="#4A4A4A" stroke-width="4" stroke-linecap="round" stroke-linejoin="round" stroke-miterlimit="10" d="
				M1030.657,573.583l-79.677,3c-7.088,0-14.049,1.884-20.169,5.458l-31.321,18.042l11.667,26.5l23-7.5l-5,74.984h80l-4-77.984
				l30.5-12L1030.657,573.583z"/>
			
				<path fill="#FFFFFF" stroke="#4A4A4A" stroke-width="4" stroke-linecap="round" stroke-linejoin="round" stroke-miterlimit="10" d="
				M1031.259,575.618c12.906-6.525,27.898-23.035,32.398-39.035s9.9-16.5,13.45-15.5s6.123,9.406,1.837,25.953
				c-4.287,16.547-14.875,38.262-43.831,54.404C1033.413,590.045,1031.259,575.618,1031.259,575.618z"/>
			
				<path fill="#FFFFFF" stroke="#4A4A4A" stroke-width="4" stroke-linecap="round" stroke-linejoin="round" stroke-miterlimit="10" d="
				M910.369,624.195c-10.728,9.176-19.598,24.166-19.947,39.277s-5.389,17.016-9.03,17.113c-3.641,0.099-6.178-6.496-6.168-22.025
				c0.011-15.528,2.306-33.25,26.004-55.142C905.669,612.848,910.369,624.195,910.369,624.195z"/>
		</g>
		<g>
			
				<path fill="#FFFFFF" stroke="#4A4A4A" stroke-width="4" stroke-linecap="round" stroke-linejoin="round" stroke-miterlimit="10" d="
				M972.708,582.365h-15.4c-10.309,0-18.666-8.357-18.666-18.666v-32.667c0-10.309,8.357-18.667,18.666-18.667h15.4
				c10.31,0,18.666,8.358,18.666,18.667v32.667C991.374,574.008,983.018,582.365,972.708,582.365z"/>
			
				<path fill="#EBEBEB" stroke="#4A4A4A" stroke-width="4" stroke-linecap="round" stroke-linejoin="round" stroke-miterlimit="10" d="
				M957.308,534.416h-24.149v-5.017c0-13.467,10.917-24.384,24.384-24.384h18.55c16.495,0,29.866,13.372,29.866,29.866v62.599
				c0,3.938-3.847,6.727-7.59,5.501l-30.154-9.87c-6.488-2.123-10.877-8.175-10.881-15.002L957.308,534.416z"/>
			
				<path fill="none" stroke="#4A4A4A" stroke-width="2.5" stroke-linecap="round" stroke-linejoin="round" stroke-miterlimit="10" d="
				M943.17,548.604c0-2.604,2.11-4.713,4.714-4.713c2.603,0,4.713,2.109,4.713,4.713"/>
			
				<path fill="none" stroke="#4A4A4A" stroke-width="2.5" stroke-linecap="round" stroke-linejoin="round" stroke-miterlimit="10" d="
				M938.642,563.699c3.5,1.866,10.5,0,10.5,0"/>
		</g>
		
			<path fill="#FFFFFF" stroke="#4A4A4A" stroke-width="4" stroke-linecap="round" stroke-linejoin="round" stroke-miterlimit="10" d="
			M932.216,686.053"/>
	</g>
</g>
<g id="boy">
	<g>
		<path fill="#FFFFFF" d="M355.528,799.137v-5.239c0-6.021,4.881-10.902,10.902-10.902h2.098V717.59l7-60.016V582.59l-29.5-9l5-33.5
			h75c0,0,13.942,1.064,14.886,1.328s44.281,24.172,44.281,24.172l-13.667,30.5l-21-7.5l-0.92,68.984l13.598,56.516l-2.955,68.171
			h2.071c6.021,0,10.902,4.881,10.902,10.902v5.974h-49.196v-16.876l2.734-61.501l-10.142-33.947l-11.896,31.277v81.047H355.528z"/>
		<path fill="#EBEBEB" d="M375.528,657.574V582.59l-29.5-9l5-33.5h75c0,0,13.942,1.064,14.886,1.328s44.281,24.172,44.281,24.172
			l-13.667,30.5l-21-7.5l-0.92,68.984H375.528z"/>
		<polyline fill="#EBEBEB" points="389.333,657.423 377.333,717.757 379.667,782.757 370,781.757 368,719.09 377.333,657.423 
			389.333,657.423 		"/>
		<path fill="none" stroke="#4A4A4A" stroke-width="4" stroke-linecap="round" stroke-linejoin="round" stroke-miterlimit="10" d="
			M351.028,540.09h79.677c7.088,0,14.049,1.884,20.169,5.458l34.321,20.042l-13.667,30.5l-21-7.5v68.984h-75V582.59l-29.5-9
			L351.028,540.09z"/>
		<g>
			<path fill="#FFFFFF" stroke="#4A4A4A" stroke-miterlimit="10" d="M386.704,510.605v24.679c0,8.358,6.776,15.134,15.134,15.134
				h14.125c10.22,0,18.504-8.284,18.504-18.504V513.61c4.073-10.159,5.041-23.467-1.642-32.22
				c-6.682-8.754-18.868-9.765-24.183-8.335s-16.596,7.83-19.889,5.655s-4.695-2.508-4.695-2.508
				C382.663,483.465,380.558,498.457,386.704,510.605z"/>
			<g>
				
					<path fill="none" stroke="#4A4A4A" stroke-width="4" stroke-linecap="round" stroke-linejoin="round" stroke-miterlimit="10" d="
					M434.78,513.61v18.354c0,9.914-8.677,18.453-18.593,18.453h-12.063c-9.916,0-17.42-8.539-17.42-18.453v-21.359"/>
				
					<path fill="#EBEBEB" stroke="#4A4A4A" stroke-width="4" stroke-linecap="round" stroke-linejoin="round" stroke-miterlimit="10" d="
					M417.344,473.122c-8.514-1.253-14.178,0.736-21.784,5.259c-5.893,3.502-11.23-2.989-11.23-2.989
					c-4.256,11.768-0.631,34.389,2.375,38.3v-7.023c0-4.94,2.969-12.4,7.353-11.512c14.827,3.005,16.803-7.587,31.452-0.685
					c3.844,1.811,4.912,8.572,5.858,14.115c0.424,2.489,2.887,7.04,2.887,7.04l-0.017,0.563c3.037-4.506,4.118-18.251,2.773-25.426
					C435.603,483.252,430.206,475.014,417.344,473.122z"/>
			</g>
			<g>
				
					<path fill="none" stroke="#4A4A4A" stroke-width="2.5" stroke-linecap="round" stroke-linejoin="round" stroke-miterlimit="10" d="
					M393.306,517.867c0-2.766,2.242-5.007,5.008-5.007c2.766,0,5.008,2.241,5.008,5.007"/>
				
					<path fill="none" stroke="#4A4A4A" stroke-width="2.5" stroke-linecap="round" stroke-linejoin="round" stroke-miterlimit="10" d="
					M412.837,517.867c0-2.766,2.242-5.007,5.008-5.007c2.766,0,5.008,2.241,5.008,5.007"/>
			</g>
			
				<path fill="none" stroke="#4A4A4A" stroke-width="2.5" stroke-linecap="round" stroke-linejoin="round" stroke-miterlimit="10" d="
				M399.19,531.258c10.192,9.536,18.906,0,18.906,0"/>
		</g>
		
			<polyline fill="none" stroke="#4A4A4A" stroke-width="4" stroke-linecap="round" stroke-linejoin="round" stroke-miterlimit="10" points="
			375.528,657.574 368.528,717.59 368.528,782.261 404.725,782.261 404.725,718.09 419.099,674.09 		"/>
		
			<polyline fill="none" stroke="#4A4A4A" stroke-width="4" stroke-linecap="round" stroke-linejoin="round" stroke-miterlimit="10" points="
			449.608,657.574 463.207,714.09 460.251,782.261 424.055,782.261 426.763,720.76 416.621,686.813 		"/>
		
			<path fill="#FFFFFF" stroke="#4A4A4A" stroke-width="4" stroke-linecap="round" stroke-linejoin="round" stroke-miterlimit="10" d="
			M404.725,782.261h-38.294c-6.021,0-10.902,4.881-10.902,10.902v5.974h49.196V782.261z"/>
		
			<path fill="#FFFFFF" stroke="#4A4A4A" stroke-width="4" stroke-linecap="round" stroke-linejoin="round" stroke-miterlimit="10" d="
			M473.225,793.163c0-6.021-4.881-10.902-10.902-10.902h-38.294v16.876h49.196V793.163z"/>
		
			<path fill="#FFFFFF" stroke="#4A4A4A" stroke-width="4" stroke-linecap="round" stroke-linejoin="round" stroke-miterlimit="10" d="
			M350.426,544.125c-12.906-6.525-27.898-23.035-32.398-39.035s-9.9-16.5-13.45-15.5s-6.123,9.406-1.836,25.953
			s14.875,38.262,43.831,54.404C348.273,558.552,350.426,544.125,350.426,544.125z"/>
		
			<path fill="#FFFFFF" stroke="#4A4A4A" stroke-width="4" stroke-linecap="round" stroke-linejoin="round" stroke-miterlimit="10" d="
			M483.694,570.434c13.994,1.853,31.742-0.816,43.22-10.652c11.479-9.835,16.262-7.356,18.768-4.713
			c2.505,2.645,0.628,10.427-10.934,20.793c-11.562,10.365-29.106,20.344-61.228,17.334
			C477.569,583.592,483.694,570.434,483.694,570.434z"/>
	</g>
</g>
<g id="sky">
	<g>
		<g>
			<path fill="none" stroke="#4A4A4A" stroke-width="3" stroke-linecap="round" stroke-linejoin="round" stroke-miterlimit="10" d="
				M1060.224,97.192c0,0,14.996,1.647,22.498,2.469c0.014,0.769,0.045,1.547,0.043,2.312c-0.05,8.669-0.048,17.341-0.202,25.994
				c-0.032,1.979,0.344,2.985,2.226,3.264c1.461,0.214,2.918,0.751,4.365,1.213c7.932,2.513,15.292,6.61,21.556,13.023
				c8.169,8.362,12.761,18.596,13.3,30.729c0.382,8.478-1.541,15.981-5.515,22.651c-6.519,10.939-14.993,14.073-24.005,17.427
				c0.161,0.179,12.613,5.829,18.61,11.007c8.014,6.911,13.292,15.825,15.259,26.585c3.674,20.137-2.24,35.52-16.221,46.304
				c-8.413,6.493-18.309,8.729-28.684,9.199c-1.629,0.078-2.021,0.649-2.022,2.399v22.502 M980.498,114.979l26.484,3.299"/>
		</g>
		<g>
			<path fill="#FF0083" d="M1064.821,347.051c-7.503-0.821-14.999-1.645-22.499-2.463c0.059-9.854,0.12-19.708,0.18-29.595
				c-4.855-0.53-9.579-1.048-14.315-1.57c-0.062,9.98-0.121,19.787-0.182,29.597c-7.5-0.824-14.997-1.644-22.498-2.466
				c0.059-9.86,0.121-19.72,0.184-29.834c-16.032-1.752-31.787-3.477-47.564-5.208c0.051-8.489,0.103-16.73,0.153-25.168
				c0.746,0.087,1.356,0.159,1.969,0.217c2.954,0.27,5.907,0.626,8.861,0.776c5.099,0.256,7.618-2.419,7.854-8.16
				c0.103-2.553,0.228-5.112,0.245-7.676c0.202-30.815,0.394-61.632,0.566-92.446c0.021-4.17-0.038-8.355-0.127-12.537
				c-0.114-5.7-2.688-9.06-7.734-9.954c-2.998-0.538-6.016-0.815-9.024-1.217c-0.602-0.078-1.203-0.195-1.792-0.292
				c0.051-8.458,0.102-16.698,0.153-25.199c15.894,1.742,31.639,3.465,47.554,5.207c0.061-10.076,0.118-19.888,0.179-29.7
				c7.503,0.826,14.999,1.646,22.499,2.466c-0.061,9.857-0.12,19.72-0.183,29.606c4.877,0.534,9.596,1.052,14.319,1.572
				c0.061-9.987,0.12-19.8,0.181-29.611c7.499,0.823,14.996,1.646,22.499,2.469c0.013,0.769,0.044,1.546,0.042,2.311
				c-0.05,8.669-0.048,17.341-0.201,25.994c-0.033,1.979,0.343,2.986,2.225,3.264c1.462,0.214,2.918,0.752,4.366,1.214
				c7.932,2.513,15.291,6.61,21.555,13.022c8.169,8.362,12.761,18.597,13.3,30.73c0.382,8.478-1.541,15.98-5.515,22.651
				c-5.285,8.867-13.046,13.829-22.092,16.731c-0.647,0.208-1.275,0.457-1.913,0.695c0.632,0.699,1.199,0.993,1.777,1.235
				c5.911,2.486,11.668,5.312,16.833,9.771c8.014,6.91,13.291,15.825,15.259,26.584c3.674,20.137-2.239,35.52-16.22,46.304
				c-8.414,6.493-18.311,8.729-28.685,9.2c-1.629,0.078-2.021,0.648-2.021,2.399C1065.008,327.674,1064.896,337.36,1064.821,347.051
				z M1017.167,230.717c-0.028,0.6-0.059,0.976-0.062,1.357c-0.079,12.778-0.177,25.55-0.21,38.331
				c-0.007,2.755,0.151,5.533,0.379,8.304c0.185,2.283,1.277,3.782,3.232,4.093c5.438,0.872,10.885,1.74,16.326,2.245
				c4.701,0.436,9.421,0.604,14.091,0.469c4.931-0.148,9.399-1.824,13.107-5.371c4.82-4.61,7.09-10.677,7.392-18.054
				c0.41-10.212-4.233-19.043-12.584-23.738c-4.932-2.771-10.124-3.963-15.334-4.689c-8.283-1.161-16.58-1.969-24.876-2.918
				C1018.187,230.692,1017.744,230.726,1017.167,230.717z M1017.382,203.84c0.559,0.12,0.997,0.252,1.437,0.304
				c5.512,0.607,11.017,1.24,16.523,1.789c6.25,0.626,12.499,1.111,18.59-0.118c4.792-0.97,8.989-3.174,11.776-7.661
				c6.306-10.15,3.204-27.949-10.827-32.629c-3.437-1.145-6.952-2.095-10.445-2.586c-8.454-1.195-16.916-2.062-25.376-3.054
				c-0.438-0.052-0.877-0.009-1.41-0.011C1017.561,174.51,1017.473,189.052,1017.382,203.84z"/>
		</g>
	</g>
	<g>
		<path fill="#FF0083" d="M877.619,377.794c-3.012,0-6.151-0.744-9.078-2.151c-4.297-2.063-7.678-5.381-9.519-9.343
			c-1.895-4.074-1.953-8.365-0.166-12.083c2.377-4.947,7.734-8.021,13.979-8.021c2.989,0,6.056,0.714,8.865,2.065
			c3.576,1.718,6.545,4.379,8.481,7.534l27.717-58.382l6.422,3.089l-33.466,70.643l-0.231-0.11
			C887.919,375.294,883.163,377.794,877.619,377.794z"/>
		<g>
			<path fill="#4A4A4A" d="M918.607,299.418l3.72,1.789l-32.185,67.938l-0.136-0.064c-2.385,4.77-7.111,7.213-12.388,7.213
				c-2.745,0-5.64-0.663-8.429-2.003c-8.219-3.947-12.275-12.573-8.982-19.425c2.21-4.599,7.14-7.171,12.628-7.171
				c2.689,0,5.513,0.618,8.216,1.917c4.465,2.146,7.68,5.712,9.159,9.62L918.607,299.418 M890.143,369.146L890.143,369.146
				l-0.028,0.06L890.143,369.146 M890.114,369.205l-0.002,0.004v0.001L890.114,369.205 M890.112,369.21l-0.021,0.042l0.009-0.02
				L890.112,369.21 M917.19,295.407l-1.293,2.724l-25.975,54.714c-1.988-2.446-4.584-4.501-7.571-5.937
				c-3.012-1.447-6.302-2.213-9.516-2.213c-6.827,0-12.702,3.399-15.332,8.871c-1.984,4.13-1.929,8.877,0.158,13.366
				c1.987,4.275,5.62,7.849,10.229,10.063c3.128,1.504,6.492,2.299,9.728,2.299c5.584,0,10.447-2.332,13.51-6.359l0.439,0.209
				l1.255-2.649l0.027-0.057v-0.001l0.003-0.007l32.185-67.938l1.277-2.695l-2.688-1.292l-3.719-1.789L917.19,295.407
				L917.19,295.407z"/>
		</g>
	</g>
	<g>
		<path fill="#FF0083" d="M616.953,277.227c-6.896,0-12.581-3.647-14.481-9.294c-2.569-7.632,2.662-16.306,11.661-19.336
			c2.08-0.699,4.216-1.055,6.35-1.055c1.486,0,2.954,0.178,4.354,0.521l-9.318-27.254c-7.638-22.341-7.638-22.341-9.145-26.648
			l-1.625-4.652l52.861-25.435l21.887,64.22c0.25,0.735,0.511,1.452,0.767,2.156c1.848,5.087,3.593,9.892-0.305,15.913
			c-2.183,3.372-5.74,6.021-10.015,7.46c-2.12,0.713-4.292,1.075-6.455,1.075c0,0,0,0-0.001,0
			c-6.896-0.001-12.581-3.648-14.48-9.293c-1.261-3.747-0.71-7.837,1.551-11.517c2.208-3.592,5.798-6.369,10.11-7.82
			c2.08-0.699,4.215-1.055,6.349-1.055c1.479,0,2.941,0.176,4.335,0.517l-14.107-40.603l-40.155,19.604l15.582,45.049
			c0.315,0.925,0.632,1.797,0.937,2.635c1.795,4.941,3.346,9.209,0.755,14.601c-1.984,4.131-5.978,7.46-10.955,9.136
			C621.288,276.865,619.116,277.227,616.953,277.227z"/>
		<g>
			<path fill="#4A4A4A" d="M656.735,166.159c0,0,15.545,45.607,21.341,62.618c1.999,5.865,4.624,10.59,0.623,16.771
				c-1.964,3.033-5.204,5.497-9.234,6.854c-2.008,0.676-4.031,0.997-5.977,0.997c-6.029,0-11.313-3.086-13.059-8.271
				c-2.31-6.86,2.488-14.667,10.717-17.437c1.969-0.663,3.956-0.977,5.87-0.977c2.433,0,4.751,0.507,6.768,1.447l-15.678-45.123
				l-42.869,20.928l16.016,46.305c2.145,6.297,4.476,10.438,1.757,16.096c-1.787,3.72-5.401,6.788-10.082,8.363
				c-2.008,0.676-4.031,0.997-5.977,0.997c-6.03,0-11.314-3.086-13.06-8.272c-2.309-6.859,2.489-14.665,10.718-17.436
				c1.97-0.663,3.956-0.977,5.871-0.977c2.433,0,4.75,0.507,6.769,1.447c-20.887-61.079-16.817-49.236-20.646-60.21L656.735,166.159
				 M658.483,161.989l-3.049,1.467l-50.13,24.12l-2.415,1.162l0.883,2.529l1.185,3.39c1.506,4.303,1.506,4.303,9.143,26.641
				l8.499,24.856c-0.699-0.074-1.406-0.112-2.116-0.112c-2.296,0-4.593,0.382-6.828,1.133c-9.783,3.294-15.438,12.82-12.605,21.236
				c2.11,6.267,8.352,10.315,15.903,10.315c2.327,0,4.66-0.388,6.934-1.154c5.359-1.803,9.67-5.414,11.829-9.907
				c2.864-5.96,1.134-10.722-0.697-15.763c-0.301-0.828-0.615-1.69-0.924-2.6l-15.152-43.807l37.441-18.278l12.718,36.604
				c-0.689-0.072-1.385-0.108-2.084-0.108c-2.296,0-4.593,0.382-6.828,1.134c-4.644,1.563-8.519,4.565-10.909,8.456
				c-2.499,4.065-3.101,8.604-1.694,12.78c2.109,6.266,8.351,10.314,15.902,10.314c2.327,0,4.66-0.389,6.934-1.154
				c4.595-1.546,8.429-4.41,10.795-8.065c4.304-6.648,2.348-12.033,0.456-17.24c-0.252-0.695-0.51-1.403-0.757-2.129
				c-5.795-17.011-21.341-62.618-21.341-62.618L658.483,161.989L658.483,161.989z"/>
		</g>
	</g>
	<circle fill="#FF0083" stroke="#4A4A4A" stroke-width="3" stroke-miterlimit="10" cx="67.356" cy="222.23" r="12.14"/>
	<circle fill="#FF0083" stroke="#4A4A4A" stroke-width="3" stroke-miterlimit="10" cx="73.5" cy="589.594" r="8.498"/>
	<circle fill="#FF0083" stroke="#4A4A4A" stroke-width="3" stroke-miterlimit="10" cx="823.628" cy="134.604" r="12.14"/>
	<circle fill="#FF0083" stroke="#4A4A4A" stroke-width="3" stroke-miterlimit="10" cx="1342.203" cy="434.211" r="8.498"/>
	<circle fill="#FF0083" stroke="#4A4A4A" stroke-width="3" stroke-miterlimit="10" cx="247.319" cy="168.092" r="8.373"/>
	<g>
		<path fill="#FF0083" d="M230.385,408.649c0-31.572-8.5-40.073-40.072-40.073c31.572,0,40.072-8.5,40.072-40.072
			c0,31.572,8.5,40.072,40.072,40.072C238.885,368.576,230.385,377.077,230.385,408.649z"/>
		<path fill="none" stroke="#4A4A4A" stroke-width="3" stroke-linecap="round" stroke-linejoin="round" stroke-miterlimit="10" d="
			M230.385,408.649c0-31.572-8.5-40.073-40.072-40.073c31.572,0,40.072-8.5,40.072-40.072c0,31.572,8.5,40.072,40.072,40.072
			C238.885,368.576,230.385,377.077,230.385,408.649z"/>
	</g>
	<g>
		<path fill="#FF0083" d="M714.997,109.476c0-31.572-8.5-40.073-40.072-40.073c31.572,0,40.072-8.5,40.072-40.072
			c0,31.572,8.5,40.072,40.072,40.072C723.497,69.402,714.997,77.903,714.997,109.476z"/>
		<path fill="none" stroke="#4A4A4A" stroke-width="3" stroke-linecap="round" stroke-linejoin="round" stroke-miterlimit="10" d="
			M714.997,109.476c0-31.572-8.5-40.073-40.072-40.073c31.572,0,40.072-8.5,40.072-40.072c0,31.572,8.5,40.072,40.072,40.072
			C723.497,69.402,714.997,77.903,714.997,109.476z"/>
	</g>
	<g>
		<path fill="#FF0083" d="M1010.341,456.632c0-31.572-8.5-40.073-40.072-40.073c31.572,0,40.072-8.5,40.072-40.072
			c0,31.572,8.5,40.072,40.072,40.072C1018.841,416.559,1010.341,425.06,1010.341,456.632z"/>
		
			<path fill="#FF0083" stroke="#4A4A4A" stroke-width="3" stroke-linecap="round" stroke-linejoin="round" stroke-miterlimit="10" d="
			M1010.341,456.632c0-31.572-8.5-40.073-40.072-40.073c31.572,0,40.072-8.5,40.072-40.072c0,31.572,8.5,40.072,40.072,40.072
			C1018.841,416.559,1010.341,425.06,1010.341,456.632z"/>
	</g>
	<g>
		<path fill="#FF0083" d="M1293.394,309.255c0-22.472-6.05-28.523-28.521-28.523c22.472,0,28.521-6.05,28.521-28.521
			c0,22.472,6.05,28.521,28.522,28.521C1299.443,280.731,1293.394,286.783,1293.394,309.255z"/>
		<path fill="none" stroke="#4A4A4A" stroke-width="3" stroke-linecap="round" stroke-linejoin="round" stroke-miterlimit="10" d="
			M1293.394,309.255c0-22.472-6.05-28.523-28.521-28.523c22.472,0,28.521-6.05,28.521-28.521c0,22.472,6.05,28.521,28.522,28.521
			C1299.443,280.731,1293.394,286.783,1293.394,309.255z"/>
	</g>
	<g>
		<path fill="#FF0083" d="M292.167,126.447c0-22.472-6.05-28.523-28.521-28.523c22.472,0,28.521-6.05,28.521-28.521
			c0,22.472,6.05,28.521,28.522,28.521C298.217,97.924,292.167,103.976,292.167,126.447z"/>
		<path fill="none" stroke="#4A4A4A" stroke-width="3" stroke-linecap="round" stroke-linejoin="round" stroke-miterlimit="10" d="
			M292.167,126.447c0-22.472-6.05-28.523-28.521-28.523c22.472,0,28.521-6.05,28.521-28.521c0,22.472,6.05,28.521,28.522,28.521
			C298.217,97.924,292.167,103.976,292.167,126.447z"/>
	</g>
</g>
</svg>
