<svg id="work" xmlns="http://www.w3.org/2000/svg" viewBox="0 0 1422 870"><defs><style>.cls-1,.cls-10,.cls-7{fill:#fff;}.cls-2,.cls-8{fill:#ebebeb;}.cls-12,.cls-3,.cls-6{fill:#ff0083;}.cls-11,.cls-13,.cls-14,.cls-4,.cls-5,.cls-9{fill:none;}.cls-12,.cls-13,.cls-4,.cls-5,.cls-6,.cls-7,.cls-8{stroke:#4a4a4a;}.cls-10,.cls-11,.cls-12,.cls-13,.cls-14,.cls-4,.cls-5,.cls-6,.cls-7,.cls-8,.cls-9{stroke-linecap:round;stroke-linejoin:round;}.cls-10,.cls-11,.cls-14,.cls-4,.cls-6,.cls-7,.cls-8,.cls-9{stroke-width:2.5px;}.cls-12,.cls-5{stroke-width:4px;}.cls-9{stroke:#ebebeb;}.cls-10,.cls-11{stroke:#ff0083;}.cls-13{stroke-width:1.5px;}.cls-14{stroke:#494949;}</style></defs><title>15,3</title><path class="cls-1" d="M1050.88,279.79a137.06,137.06,0,1,0-7.89-56.64c-.13,1.92-.23,3.82-.29,5.72"/><path class="cls-1" d="M733.57,533.92l23.06,8.72a46.12,46.12,0,0,0,29.13,1.18l34.31-9.9,1-26.84-37.82.39a21,21,0,0,1-16.8-8.07l-39.86-50.85a41.69,41.69,0,0,0-32.81-16h-75.1a35.72,35.72,0,0,0-34.86,27.92l-21.64,96.64A19.15,19.15,0,0,0,574,579.2l6.1,2.35-4.5,52.53,107.5,22.5,26,39.34,11.5,84.66h45.5v-67"/><path class="cls-2" d="M1316.3,242.67a137,137,0,0,1-139.6,127.2c31.46-1.36,60.57-59.31,65.79-132.47s-15.38-134.76-46.38-140.5A137,137,0,0,1,1316.3,242.67Z"/><path class="cls-1" d="M1023.33,796.23H508.67V487.9a21.67,21.67,0,0,1,21.66-21.67H999.67a23.66,23.66,0,0,1,23.66,23.67v56l.95.42a10.53,10.53,0,0,1,6,12.14l-6.9,28.11Z"/><rect class="cls-1" x="404.07" y="575.25" width="104" height="222" rx="4" ry="4"/><path class="cls-1" d="M1024.07,592.58V793.25a4,4,0,0,0,4,4h96a4,4,0,0,0,4-4v-214a4,4,0,0,0-4-4h-94"/><path class="cls-1" d="M193.74,797.25V613.58a19,19,0,0,1,19-19h136a19,19,0,0,1,19,19V797.25h21.33v-185a37,37,0,0,0-37-37H209.4a37,37,0,0,0-37,37v185Z"/><path class="cls-1" d="M312.76,361.76a25.14,25.14,0,0,1,5.62,32.91h0a25.13,25.13,0,0,1-29.11,10.6"/><path class="cls-1" d="M260.6,388.26,242.46,377a25.13,25.13,0,0,1-8-34.61h0a25.12,25.12,0,0,1,34.61-8l15.75,9.81"/><path class="cls-1" d="M328.15,333.24l-52,96.37c-18.05-10.54-21.69-38.11-8.11-61.68l5.41-9.39C286.35,336.11,310.21,325.34,328.15,333.24Z"/><path class="cls-2" d="M712.57,746.58H510.07a2,2,0,0,1-2-2v-13a2,2,0,0,1,2-2h201"/><path class="cls-2" d="M766.07,729.58h256a2,2,0,0,1,2,2v13a2,2,0,0,1-2,2h-257"/><rect class="cls-2" x="404.07" y="575.25" width="24" height="222" rx="2" ry="2"/><rect class="cls-2" x="1024.07" y="575.25" width="24" height="222" rx="2" ry="2"/><path class="cls-2" d="M735.32,533.92l7,3.31,36.43,9.29L847.11,527l-20.42,27.88,3,12.27,9.15,7.13L844.3,587h1.1l-8.83,7.92.59,57.54s-47.95-14.66-75.19,4.9l-5.85-.76-16.18-18.36,7.24-21.11s-9.22-5.68-15-2c-1.61-13.26-1.61-38.93-1.61-38.93l9.58-1.17-8-38.5Z"/><polygon class="cls-2" points="616.46 574.75 730.57 600.58 728.74 614.58 616.46 574.75"/><polygon class="cls-2" points="614.07 512.25 615.24 526.95 648.74 534.75 605.24 533.92 614.07 512.25"/><path class="cls-2" d="M707.85,694.06c1.22-17,26.24-38.8,48-36.7C747.61,647,733,632.21,733,632.21c-18.24,14.5-29.63,30.25-49.88,24.37C686,662.21,707.85,694.06,707.85,694.06Z"/><path class="cls-2" d="M1024.07,488.58v57.87c-18-4.91-56.31-15.43-74.6-20.79a9.43,9.43,0,0,0-11.8,6.8c-6.67,27-19.59,44.57-34,55.09a97.45,97.45,0,0,0-10.41-6,49.91,49.91,0,0,1,1.48-6.3c2.67-1.27,5.81-3,8.78-4.62a12.35,12.35,0,0,0,4.76-16.75l-8.94-16.13a32.17,32.17,0,0,0-33.07-16.19l1.85-7.89a7,7,0,0,0-5.49-8.43l-15.51-2.92-26,4.76-46.65-1.46-34.27-41.37H999.74A24.33,24.33,0,0,1,1024.07,488.58Z"/><path class="cls-2" d="M1000.51,646.42c8.84-14.75,17.36-40,23.56-61.1v65.11A140.58,140.58,0,0,0,1000.51,646.42Z"/><path class="cls-2" d="M508.07,491.75a24.83,24.83,0,0,1,24.83-24.83h49.17l-14.44,64.61-7.89,2.39-5,29.47A13.86,13.86,0,0,0,561.9,578L581,588.13l-4.95,22.49-6.52,9.3-1.69,7.24a8.79,8.79,0,0,0,7.08,10.68l108.13,18.74s-57.33-11.62-91,0c-34.33-15.68-56-17.63-84-12.33Z"/><path class="cls-2" d="M282.74,575.25v19.33H212.41a18.67,18.67,0,0,0-18.67,18.67v184H172.4V611.92a36.67,36.67,0,0,1,36.67-36.67Z"/><path class="cls-2" d="M262.6,380.14s1.2,20,26,26.37l-12.47,23.1C258.07,417.25,258.13,395.69,262.6,380.14Z"/><path class="cls-3" d="M965.23,278.5l-2.61-.07c0-1.41.08-2.82.12-4.28l-2,0c-.16,0-.13.12-.13.21l-.12,4.05-2.61-.07c0-1.44.08-2.88.13-4.35l-5.2-.16s0-.06,0-.07l.57-2.87c0-.15.11-.13.21-.13l1.6.05a1,1,0,0,0,1.11-1.07l.33-11.22a1.3,1.3,0,0,0-1.27-1.43c-.43,0-.86-.05-1.28-.07l-.79,0c0-.94.06-1.84.08-2.78l5.22.16c0-1.45.08-2.86.12-4.27l2.61.08c0,1.33-.07,2.66-.12,4,0,.15,0,.21.2.21.45,0,.9,0,1.36,0l.49,0a.27.27,0,0,0,0-.09c.05-1.36.09-2.72.13-4.08l2.61.08c0,.09,0,.18,0,.27,0,1.2-.07,2.4-.1,3.6,0,.41,0,.41.41.47a10.58,10.58,0,0,1,3.35.93,4,4,0,0,1,2.14,2.29,5.31,5.31,0,0,1,.25,2.37,3.75,3.75,0,0,1-2,3.08l-.28.15.14.07c.44.18.91.33,1.33.55a3.79,3.79,0,0,1,2,2.55,7,7,0,0,1-.16,3.47,4.83,4.83,0,0,1-1.59,2.51,6.65,6.65,0,0,1-3.15,1.3c-.91.15-1.83.19-2.75.27-.2,0-.26.07-.26.26,0,.35,0,.7,0,1C965.28,276.47,965.26,277.49,965.23,278.5Zm-4.42-7.57c.8,0,1.57.06,2.33.06a9.64,9.64,0,0,0,3.07-.41,2.83,2.83,0,0,0,1.59-1.07,2.38,2.38,0,0,0-.74-3.32,5.86,5.86,0,0,0-2.72-.84c-1-.08-2.06-.09-3.08-.15-.23,0-.3.05-.3.28,0,1.73-.1,3.45-.14,5.18A2.18,2.18,0,0,0,960.81,270.93Zm.31-11c0,.8,0,1.61-.07,2.41,0,.12,0,.21.17.22a13.93,13.93,0,0,0,3.92-.21,2.87,2.87,0,0,0,1.68-1,2.28,2.28,0,0,0-.32-2.94,4,4,0,0,0-2.27-.9c-.94-.1-1.89-.11-2.83-.16-.18,0-.21.07-.21.22C961.17,258.39,961.15,259.18,961.12,260Z"/><path class="cls-4" d="M193.74,797.25V613.58a19,19,0,0,1,19-19h136a19,19,0,0,1,19,19V797.25h21.33v-185a37,37,0,0,0-37-37H209.4a37,37,0,0,0-37,37v185Z"/><rect class="cls-5" x="404.07" y="575.25" width="104" height="222" rx="4" ry="4"/><path class="cls-5" d="M1024.07,592.58V793.25a4,4,0,0,0,4,4h96a4,4,0,0,0,4-4v-214a4,4,0,0,0-4-4h-94"/><path class="cls-5" d="M1024.07,544.91V488.58a23,23,0,0,0-23-23H739.94"/><path class="cls-5" d="M582.07,465.58h-52a22,22,0,0,0-22,22V797.25h516V590.58"/><line class="cls-4" x1="520.07" y1="729.58" x2="695.07" y2="729.58"/><line class="cls-4" x1="779.83" y1="729.58" x2="1024.07" y2="729.58"/><path class="cls-4" d="M1050.88,279.79a137.06,137.06,0,1,0-7.89-56.64c-.13,1.92-.23,3.82-.29,5.72"/><path class="cls-4" d="M1242.49,237.4c5.39-75.47-16.67-138.54-49.27-140.87s-63.38,57-68.77,132.44,16.67,138.54,49.26,140.87S1237.1,312.87,1242.49,237.4Z"/><line class="cls-4" x1="1073.06" y1="167.15" x2="1293.54" y2="182.9"/><line class="cls-4" x1="1064.72" y1="283.86" x2="1285.21" y2="299.6"/><line class="cls-4" x1="1049.02" y1="223.58" x2="1309.31" y2="242.17"/><path class="cls-4" d="M1220.72,275c73.88-65.83,117.09-137.92,96.52-161-8.4-9.42-26.11-9.23-49.16-1.23"/><path class="cls-4" d="M1189.4,301c-63.08,48.49-122,71.23-139.7,51.41-7-7.84-6.62-21.3-.22-38.25"/><polyline class="cls-4" points="1188.63 311.75 1191.29 299.24 1178.82 298.35"/><path class="cls-6" d="M1165,167.51c2.23-12.94-5.78-24.14-17.9-25s-23.76,8.93-26,21.87,5.78,24.14,17.9,25S1162.73,180.46,1165,167.51Z"/><path class="cls-6" d="M1112.31,287.25c-.38-13.13,9.15-23.07,21.26-22.21s22.25,12.22,22.63,25.35-9.15,23.07-21.27,22.21S1112.68,300.38,1112.31,287.25Z"/><path class="cls-6" d="M1221.64,224.75c6.16-11.6,19.35-15.55,29.46-8.81s13.32,21.6,7.16,33.2-19.34,15.55-29.46,8.82S1215.49,236.35,1221.64,224.75Z"/><line class="cls-7" x1="239.74" y1="575.25" x2="159.07" y2="492.58"/><line class="cls-7" x1="175.15" y1="481.79" x2="265.07" y2="575.25"/><line class="cls-7" x1="161.4" y1="464.58" x2="242.74" y2="379.58"/><line class="cls-7" x1="173.74" y1="474.25" x2="257.4" y2="386.25"/><path class="cls-4" d="M260.6,388.26,242.46,377a25.13,25.13,0,0,1-8-34.61h0a25.12,25.12,0,0,1,34.61-8l15.75,9.81"/><path class="cls-4" d="M312.76,361.76a25.14,25.14,0,0,1,5.62,32.91h0a25.13,25.13,0,0,1-29.11,10.6"/><path class="cls-4" d="M328.15,333.24l-52,96.37c-18.05-10.54-21.69-38.11-8.11-61.68l5.41-9.39C286.35,336.11,310.21,325.34,328.15,333.24Z"/><polygon class="cls-7" points="156.4 462.58 178.74 480.92 156.4 492.58 156.4 462.58"/><path class="cls-8" d="M352.74,526.52v42.73a4,4,0,0,1-4,4h-27a4,4,0,0,1-4-4V526.52Z"/><path class="cls-7" d="M332.74,537.58a4.59,4.59,0,1,0-4.59,4.59A4.59,4.59,0,0,0,332.74,537.58Z"/><path class="cls-4" d="M352.74,536.58a8,8,0,0,1,8,8v10.67a8,8,0,0,1-8,8"/><path class="cls-4" d="M335.24,519.58c8.5-7.33-11.5-20.33,0-28.66"/><path class="cls-4" d="M342,519.58c3.16-5-4.28-13.83,0-19.5"/><line class="cls-9" x1="340.6" y1="337.84" x2="508.07" y2="356.13"/><line class="cls-9" x1="288.07" y1="443.5" x2="328.15" y2="474.25"/><line class="cls-9" x1="378.34" y1="511.87" x2="456.34" y2="565.29"/><polygon class="cls-10" points="984.6 294.49 941.73 294.21 942.14 230.9 970.28 231.08 984.92 245.92 984.6 294.49"/><polygon class="cls-11" points="970.18 245.82 984.92 245.92 970.28 231.08 970.18 245.82"/><polygon class="cls-10" points="1046.71 288.99 1013.94 274.16 1035.84 225.76 1057.35 235.5 1063.52 251.86 1046.71 288.99"/><polygon class="cls-11" points="1052.25 246.76 1063.52 251.86 1057.35 235.5 1052.25 246.76"/><polyline class="cls-10" points="815.34 312.85 805.72 286.56 845.02 272.17 873.15 285.21 897.99 353.06 857.28 367.96"/><polygon class="cls-11" points="852.56 292.75 873.15 285.21 845.02 272.17 852.56 292.75"/><path class="cls-4" d="M520.07,642.08s35-8,70,17"/><path class="cls-4" d="M766.07,654.08s31.08-22.44,72.78-.76"/><path class="cls-4" d="M922.07,659.08c26-17,63-14.72,100-9.11"/><path class="cls-4" d="M908.07,583.58c18.35-14.35,27.16-40,30.43-52a6.79,6.79,0,0,1,8.24-4.79l76.74,19.61a8.2,8.2,0,0,1,6.13,8.75c-1.39,13.78-6.92,46.58-29,88.73"/><path class="cls-4" d="M986.57,554.58a74.84,74.84,0,0,0,28.5-2,83.42,83.42,0,0,0-12,23.67"/><path class="cls-4" d="M894.69,549.08v24a25,25,0,0,1-25,25h-4.62a25,25,0,0,1-25-25v-24"/><circle class="cls-4" cx="853.57" cy="559.83" r="5"/><circle class="cls-4" cx="880.82" cy="559.83" r="5"/><path class="cls-4" d="M861.76,578.25a1.65,1.65,0,0,0-1.09,2.88l2.33,2.06a6.59,6.59,0,0,0,8.76,0l2.33-2.06a1.66,1.66,0,0,0,.44-1.82,1.63,1.63,0,0,0-1.53-1.06Z"/><path class="cls-4" d="M895.69,575.08,903,570a14.08,14.08,0,0,0,4.6-17.74l-5-10.26c-13.32-27.21-56-27.51-69.46,0l-5,10.26a14.07,14.07,0,0,0,4.6,17.74l7.34,5.1"/><path class="cls-4" d="M844.3,587c-6.73,4.33-7.73,17.83-7.73,33.83v24.28a16,16,0,0,0,16,16h0a14.52,14.52,0,0,0,14.52-14.52v.35a14.17,14.17,0,0,0,14.18,14.17h3.15a14.17,14.17,0,0,0,14.17-14.17V620.58"/><path class="cls-4" d="M898.57,659.08h9.64a20.87,20.87,0,0,0,20.85-19.87c.82-16.63-4.64-40.35-35.85-57.66"/><path class="cls-4" d="M929.14,624c3.93-2,7.93-6.46,10.93-17.21,9.25,15.75,4.44,37.87-14.4,50.06"/><path class="cls-4" d="M849.57,623.15c4.08,2.41,10.07,3.93,16.75,3.93s12.48-1.47,16.55-3.81"/><path class="cls-5" d="M733.57,533.92l23.06,8.72a46.12,46.12,0,0,0,29.13,1.18l34.31-9.9,1-26.84-37.82.39a21,21,0,0,1-16.8-8.07l-39.86-50.85a41.69,41.69,0,0,0-32.81-16h-75.1a35.72,35.72,0,0,0-34.86,27.92l-21.64,96.64A19.15,19.15,0,0,0,574,579.2l6.1,2.35-4.5,52.53,107.5,22.5,26,39.34,11.5,84.66h45.5v-67"/><polyline class="cls-5" points="730.57 576.25 730.57 614.58 612.83 575.25"/><path class="cls-12" d="M739.33,567.57a7,7,0,0,1-6.12,7.78l-63.66,7.59a7,7,0,0,1-7.78-6.12L649.7,475.56a7,7,0,0,1,6.12-7.77l63.66-7.59a7,7,0,0,1,7.78,6.12Z"/><path class="cls-7" d="M649.65,534.92l23.41-3A13.33,13.33,0,0,1,688,543.38h0a13.33,13.33,0,0,1-11.5,14.94l-22.83,3"/><path class="cls-4" d="M594,533.92h55.66l3.2,29.33-54.61,16.38a46,46,0,0,1-13.13,1.92h-5"/><path class="cls-4" d="M649.65,534.92l23.41-3A13.33,13.33,0,0,1,688,543.38h0a13.33,13.33,0,0,1-11.5,14.94l-22.83,3"/><line class="cls-4" x1="614.07" y1="512.25" x2="606.07" y2="533"/><path class="cls-4" d="M683.07,656.58c11.45,2.5,21,.78,32.53-10.73"/><path class="cls-8" d="M622.2,642.74a4.91,4.91,0,0,1-5.68,4l-38.66-6.67a12.32,12.32,0,0,1-10.05-14.25,27,27,0,0,1,31.19-22L623.21,608a4.92,4.92,0,0,1,4,5.68Z"/><path class="cls-8" d="M769.88,711.87a4.91,4.91,0,0,0,4.33-5.43l-4.44-39a12.33,12.33,0,0,0-13.65-10.86,27,27,0,0,0-23.76,29.88l2.78,24.41a4.9,4.9,0,0,0,5.43,4.32Z"/><line class="cls-5" x1="755.42" y1="655.78" x2="740.15" y2="637.62"/><path class="cls-8" d="M559.76,537.67a7.1,7.1,0,0,1,9.23-5.79,8,8,0,0,1,5.47,8.56l-2.38,20.08a6.55,6.55,0,0,0,3.26,6.46l7.18,4.08A10.91,10.91,0,0,1,587.74,583l-.57,2.45a4.18,4.18,0,0,1-6.15,2.69L561.54,577a11.29,11.29,0,0,1-5.6-11.35Z"/><path class="cls-8" d="M746.09,543.84a5.43,5.43,0,0,1-3.62-3.1,3.43,3.43,0,0,1,1.36-3.78c2.37-1.94,6.52-2.53,9.93-1.41l18,5.91a9.5,9.5,0,0,0,7.18-.54l6.31-3.43a15.86,15.86,0,0,1,13-.51l2.1.89a2.73,2.73,0,0,1,1.88,2.09,2.38,2.38,0,0,1-1.47,2.23l-17.14,9.33a16.52,16.52,0,0,1-12.59.87Z"/><path class="cls-7" d="M821.07,507.08l19.68-4a38,38,0,0,1,20.84,1.65l.64.24a7.32,7.32,0,0,1,4.65,8.06l-1.16,6.91a2.67,2.67,0,0,1-1.86,2.1l-15.29,4.53-28.5,7.35"/><path class="cls-11" d="M871.46,241.59a481.53,481.53,0,0,0-64.82,43.32"/><path class="cls-11" d="M866.35,385.53c69.7-54.72,90.36-72.92,146.57-97.16"/><path class="cls-11" d="M999,219c3-.41,6-.78,9-1.11"/><path class="cls-11" d="M942.14,230.9a482.48,482.48,0,0,1,48-10.57"/><path class="cls-11" d="M842.13,412.1c5.25-4.55,10.7-9,16.4-13.52"/><path class="cls-11" d="M798.43,457.32a347.83,347.83,0,0,1,38-40.18"/><line class="cls-11" x1="896.16" y1="327.91" x2="915.12" y2="315"/><path class="cls-11" d="M730.23,438s16.56-18.49,31.74-30.88"/><path class="cls-5" d="M711.71,365.7a49,49,0,0,0-49-49H643a49,49,0,0,0-49,49V431c18,34.21,103.22,30.73,117.72,0Z"/><rect class="cls-1" x="620.66" y="349.95" width="69.59" height="92.4" rx="25.52" ry="25.52"/><rect class="cls-5" x="620.66" y="349.95" width="69.59" height="92.4" rx="25.52" ry="25.52"/><path class="cls-2" d="M696.05,357.29v18.17a25.4,25.4,0,0,1-5.79,16.24v-9.28c0-20.56-14.83-27.19-23.55-19a16.11,16.11,0,0,1-21.83.11c-9.46-8.65-24.22-.43-24.22,18.91V389a25.47,25.47,0,0,1-3.87-13.55V357.29c0-14.1,11.39-27.83,25.4-27.83h28.46C684.69,329.46,696.05,343.19,696.05,357.29Z"/><path class="cls-5" d="M696.05,357.29v18.17a25.4,25.4,0,0,1-5.79,16.24v-9.28c0-20.56-14.83-27.19-23.55-19a16.11,16.11,0,0,1-21.83.11c-9.46-8.65-24.22-.43-24.22,18.91V389a25.47,25.47,0,0,1-3.87-13.55V357.29c0-14.1,11.39-27.83,25.4-27.83h28.46C684.69,329.46,696.05,343.19,696.05,357.29Z"/><path class="cls-13" d="M651.79,399.25a8.32,8.32,0,1,0-16.63,0"/><path class="cls-13" d="M680.78,399.25a8.31,8.31,0,1,0-16.62,0"/><path class="cls-13" d="M647.53,421.48s19.53,7.73,31.51-6"/><path class="cls-14" d="M651.79,399.25a8.32,8.32,0,1,0-16.63,0"/><path class="cls-14" d="M651.79,399.25a8.32,8.32,0,1,0-16.63,0"/><path class="cls-14" d="M680.78,399.25a8.31,8.31,0,1,0-16.62,0"/><path class="cls-14" d="M680.78,399.25a8.31,8.31,0,1,0-16.62,0"/><path class="cls-14" d="M647.53,421.48s19.53,7.73,31.51-6"/><path class="cls-14" d="M647.53,421.48s19.53,7.73,31.51-6"/><path class="cls-11" d="M750.06,285.43s125.28-88.11,265-81.12"/><path class="cls-3" d="M1037.76,272.21l-2.4-1c.56-1.3,1.12-2.59,1.69-3.93l-1.79-.77c-.15-.06-.16.06-.2.15l-1.6,3.72-2.4-1,1.72-4-4.78-2.06a.32.32,0,0,0,0-.07c.53-.82,1.07-1.64,1.59-2.47.08-.12.15-.08.24,0l1.47.64a1,1,0,0,0,1.43-.58l4.44-10.31a1.3,1.3,0,0,0-.65-1.8c-.39-.19-.78-.36-1.17-.54l-.72-.31,1.1-2.55,4.79,2.07c.57-1.33,1.13-2.62,1.68-3.92l2.4,1c-.52,1.22-1,2.44-1.58,3.66-.06.15,0,.21.11.27.42.16.84.34,1.25.51l.45.2.06-.07,1.62-3.75,2.4,1-.12.24-1.42,3.31c-.17.38-.16.38.21.59a10.68,10.68,0,0,1,2.76,2.1,4,4,0,0,1,1.16,2.92,5.44,5.44,0,0,1-.65,2.3,3.76,3.76,0,0,1-3,2.11l-.31,0,.1.11c.34.33.72.64,1,1a3.76,3.76,0,0,1,.93,3.11,7,7,0,0,1-1.43,3.17,4.77,4.77,0,0,1-2.4,1.74,6.68,6.68,0,0,1-3.41.06c-.89-.2-1.77-.5-2.65-.78-.19-.05-.27,0-.34.16s-.27.64-.4,1Zm-1.31-8.67c.74.32,1.43.64,2.14.92a9.8,9.8,0,0,0,3,.75,2.79,2.79,0,0,0,1.87-.41,2.37,2.37,0,0,0,.54-3.35,5.78,5.78,0,0,0-2.22-1.79c-.92-.45-1.88-.85-2.81-1.28-.2-.09-.29-.06-.38.15-.67,1.59-1.36,3.18-2,4.76Zm4.33-10.07-1,2.21c0,.12-.08.2.08.27a13.94,13.94,0,0,0,3.72,1.25,3,3,0,0,0,1.94-.31,2.31,2.31,0,0,0,.78-2.86,4,4,0,0,0-1.78-1.67c-.83-.44-1.71-.8-2.57-1.2-.16-.08-.22,0-.28.13Z"/><polygon class="cls-10" points="866.36 385.53 809.69 414.8 766.46 331.14 803.65 311.93 833.19 321.34 866.36 385.53"/><polygon class="cls-11" points="813.72 331.4 833.19 321.34 803.65 311.93 813.72 331.4"/><path class="cls-3" d="M829.21,379.47l-3.78,1.92c-1-2-2.08-4.08-3.14-6.18l-2.83,1.44c-.22.11-.08.27,0,.4,1,1.95,2,3.91,3,5.86l-3.78,1.92-3.2-6.28-7.51,3.82c-.05-.06-.08-.07-.08-.09-.48-1.51-.94-3-1.43-4.53-.07-.23.06-.28.21-.35l2.31-1.18a1.55,1.55,0,0,0,.76-2.38l-8.25-16.22a2.11,2.11,0,0,0-2.92-1.05c-.63.28-1.25.6-1.87.9l-1.13.58-2-4c2.53-1.29,5-2.56,7.54-3.83L797.9,344l3.78-1.92q1.47,2.88,2.93,5.77c.11.23.22.26.44.14.64-.36,1.29-.69,1.94-1l.71-.36a1.12,1.12,0,0,0,0-.15c-1-2-2-3.93-3-5.9l3.78-1.92.18.4,2.65,5.21c.3.6.3.59,1,.35a17.25,17.25,0,0,1,5.48-1.28,6.59,6.59,0,0,1,4.83,1.58,8.71,8.71,0,0,1,2.19,3.2,6.09,6.09,0,0,1-.49,5.95l-.28.43h.24a23.14,23.14,0,0,1,2.32-.25,6.1,6.1,0,0,1,4.84,2.07,11.36,11.36,0,0,1,2.47,5.07,7.81,7.81,0,0,1-.32,4.8,10.78,10.78,0,0,1-3.47,4.3c-1.17.91-2.46,1.7-3.71,2.51-.27.18-.31.31-.16.58.28.49.52,1,.77,1.5ZM817,372.12c1.17-.59,2.29-1.13,3.38-1.72a15.91,15.91,0,0,0,4-3,4.56,4.56,0,0,0,1.43-2.76,3.85,3.85,0,0,0-3.62-4.15,9.58,9.58,0,0,0-4.53.93c-1.52.68-3,1.46-4.5,2.18-.33.15-.38.29-.21.62q1.92,3.74,3.82,7.49C816.9,371.85,817,372,817,372.12Zm-8-15.84,1.77,3.49c.09.18.16.3.41.18a22.75,22.75,0,0,0,5.42-3.34,4.73,4.73,0,0,0,1.61-2.75,3.7,3.7,0,0,0-2.74-3.93,6.33,6.33,0,0,0-3.93.49c-1.41.58-2.77,1.3-4.16,2-.26.12-.23.27-.12.48Z"/><path class="cls-7" d="M712.57,796.25v-8a16.33,16.33,0,0,1,16.33-16.33h29a16.33,16.33,0,0,1,16.34,16.33v8Z"/><path class="cls-7" d="M732,670.24l-7.38-3.09a16.33,16.33,0,0,1-8.74-21.38L727.13,619a16.34,16.34,0,0,1,21.38-8.75l7.38,3.1Z"/><line class="cls-5" x1="94.07" y1="796.25" x2="1309.31" y2="796.25"/><line class="cls-9" x1="349" y1="377.23" x2="453" y2="407.23"/><path class="cls-4" d="M1172.7,369.73c1.33.07,2.67.12,4,.14a27.15,27.15,0,0,1-3,0C1173.37,369.81,1173,369.78,1172.7,369.73Z"/><path class="cls-4" d="M1196.06,96.89c-1.33-.15-2.67-.3-4-.42.39,0,.79,0,1.18.06A26.87,26.87,0,0,1,1196.06,96.89Z"/></svg>