<svg id="work" xmlns="http://www.w3.org/2000/svg" viewBox="0 0 1422 870"><defs><style>.cls-1,.cls-10,.cls-15,.cls-9{fill:#fff;}.cls-11,.cls-12,.cls-13,.cls-2{fill:#ebebeb;}.cls-3,.cls-6,.cls-7{fill:#ff0083;}.cls-14,.cls-4,.cls-5,.cls-8{fill:none;}.cls-4{stroke:#ff0083;}.cls-10,.cls-12,.cls-13,.cls-14,.cls-15,.cls-4,.cls-5,.cls-6,.cls-7,.cls-8,.cls-9{stroke-linecap:round;stroke-linejoin:round;}.cls-4,.cls-5,.cls-6,.cls-9{stroke-width:2.5px;}.cls-10,.cls-11,.cls-12,.cls-13,.cls-14,.cls-15,.cls-5,.cls-6,.cls-7,.cls-8,.cls-9{stroke:#4a4a4a;}.cls-10,.cls-11,.cls-13,.cls-7,.cls-8{stroke-width:4px;}.cls-11{stroke-miterlimit:10;}.cls-12,.cls-14,.cls-15{stroke-width:3px;}</style></defs><title>15,2</title><path class="cls-1" d="M712,465.57c-.84-1.67,4.83-4.84,8.83-6.84s12.33-9.33,12.33-10.33,4.84,4.17,4.5,7.5.17,11.17-6.16,11.83-13.84-1-16.17-1A4.44,4.44,0,0,1,712,465.57Z"/><path class="cls-1" d="M709,475.9c-.67-1.33,2.66-6.67,7.83-5.17s13.5,3.84,18.33.17,6.84,4.17,1.84,8.33-10.34,2.17-13.5,1-7-3.66-10.34-2.66S709,475.9,709,475.9Z"/><path class="cls-1" d="M706.19,483.9l20.17,67L745,492.4l-4-9.5s-7.5,6.33-12.84,4.67-15.33-5.84-17-5.84S706.19,483.9,706.19,483.9Z"/><path class="cls-1" d="M653.36,485.07l20.33,64.66,20.67-64-2.17-1.66c4-8,0-17.84-6.5-22.34-4.33-8-16.33-10.33-20.66-5.83s-7.67,9.67-5.5,15.67c.66,2.33.66.83.66.83a12.72,12.72,0,0,0-2.5,9.5C651.69,483.07,653.36,485.07,653.36,485.07Z"/><path class="cls-1" d="M601.19,486.73l18.34,65,20.83-65.83s-3.5-2.67-3-3.33c.17-13.84-12-17.17-16.67-17.17s-17,5.17-17.5,17A5.29,5.29,0,0,0,601.19,486.73Z"/><rect class="cls-2" x="868.69" y="601.23" width="110" height="141"/><rect class="cls-1" x="536.69" y="745.23" width="314" height="14"/><rect class="cls-1" x="563.69" y="601.23" width="307" height="141"/><path class="cls-1" d="M357.69,434.48l5.25-50.75-2-2c2.25-18.75-8.5-25-17.75-28.5-2.25-7.75-9.25-6-9.25-6,3-6.75-14.25-7.5-14.25,2.5-7.75,8.25-8,17.75-2.5,24.5-5.5,3.75-1.8,8.74-2.52,13.62-5.15,2-3.14,7.5-3.36,13.71-.37,10.34.16,22.7,3.13,24.42,3.75-5.25,4.5-16,2.25-20.75,7,13,12.75,22.25,12.75,22.25,3.5-5,4.75-1.75,12,5.25,3.5,3.75,8.25,2.5,9.75-1.5S356.19,429.23,357.69,434.48Z"/><path class="cls-1" d="M502.69,760.23h-106v-219h106v197a21.51,21.51,0,0,1,22.47,21l0,1.48Z"/><path class="cls-3" d="M694.86,416.19l-11.84,0c0-4.59,0-9.17,0-13.77l-7.53,0c0,4.64,0,9.2,0,13.76l-11.83,0c0-4.59,0-9.18,0-13.88l-25-.07c0-3.95,0-7.78,0-11.71h1c1.55,0,3.11,0,4.66-.08,2.68-.13,4-1.5,4.11-4.18.05-1.2.11-2.39.12-3.58q.08-21.51.12-43c0-1.94,0-3.88-.09-5.82-.07-2.65-1.43-4.08-4.08-4.25-1.58-.1-3.17-.08-4.75-.12l-.94,0c0-3.94,0-7.77,0-11.73l25,.07c0-4.69,0-9.25,0-13.82l11.83,0,0,13.77,7.52,0c0-4.64,0-9.21,0-13.77l11.83,0c0,.36,0,.72,0,1.08,0,4,0,8.06-.06,12.09,0,.92.19,1.37,1.18,1.41a15,15,0,0,1,2.3.35,24.81,24.81,0,0,1,11.35,5,18.48,18.48,0,0,1,4.2,24.43c-2.77,4.38-6.84,7.07-11.59,8.87-.34.13-.67.28-1,.42a2.25,2.25,0,0,0,.94.49,29.88,29.88,0,0,1,8.86,3.71,18.19,18.19,0,0,1,8.07,11.6c2,9.18-1.1,16.62-8.43,22.33-4.41,3.43-9.61,5-15.06,5.7-.86.11-1.06.4-1.06,1.21C694.92,407.17,694.88,411.68,694.86,416.19Zm-25.27-51.73c0,.28,0,.46,0,.63,0,6,0,11.89,0,17.83,0,1.29.09,2.57.21,3.85a1.72,1.72,0,0,0,1.71,1.74c2.86.14,5.73.27,8.59.24a70.35,70.35,0,0,0,7.4-.48,11.77,11.77,0,0,0,6.88-3.15,12.15,12.15,0,0,0,3.85-8.76A10.31,10.31,0,0,0,691.51,366a23,23,0,0,0-8.07-1.42c-4.36-.13-8.72-.1-13.08-.13C670.12,364.4,669.89,364.43,669.59,364.46Zm.06-12.51c.29,0,.52.07.75.07,2.9,0,5.8,0,8.69,0a37.29,37.29,0,0,0,9.77-1,10.22,10.22,0,0,0,6.18-4.14c3.3-5,1.63-13.15-5.75-14.63a33,33,0,0,0-5.5-.69c-4.44-.14-8.9-.12-13.34-.16a7.09,7.09,0,0,0-.74.06C669.69,338.31,669.67,345.07,669.65,352Z"/><polyline class="cls-4" points="728.14 370.32 754.69 396.87 754.69 441.72"/><polyline class="cls-4" points="748.4 436.73 754.68 443 761.41 436.27"/><polyline class="cls-4" points="730.68 387.58 746.71 403.61 746.71 425.73"/><line class="cls-4" x1="761.41" y1="398.58" x2="761.41" y2="405.65"/><polyline class="cls-4" points="586.17 372.18 601.99 356.35 639.93 356.35"/><line class="cls-4" x1="642.9" y1="364.26" x2="606.48" y2="364.26"/><polyline class="cls-4" points="586.17 354.32 586.17 372.68 603.95 372.68"/><line class="cls-4" x1="614.22" y1="347.64" x2="624.69" y2="347.64"/><line class="cls-4" x1="722.25" y1="392.7" x2="732.74" y2="403.12"/><circle class="cls-2" cx="1239.63" cy="316.83" r="147.12" transform="translate(-35.26 208.62) rotate(-9.49)"/><rect class="cls-2" x="114.69" y="381.64" width="113.99" height="239.32" rx="34" ry="34"/><polyline class="cls-5" points="600.23 485.12 620.58 551.5 640.92 485.12"/><path class="cls-5" d="M640.65,484.2c-.41-.61-1.75-.84-2.45-1.28a6.39,6.39,0,0,0-3.38-1.36c-1.65.05-2.33,1.76-3.69,1.95-2,.29-2.6-2.69-3.32-3.88-1-1.64-2.72-1.31-4-.3s-1.84,4.1-3.28,4.83-1.28-1.82-1.55-2.86c-.38-1.45-1.67-1.91-3.14-1.42-1.85.62-3.54,2.64-5,3.89s-2.06.61-3.6-.13a9.32,9.32,0,0,0-3.43-1.24c-2.09-.11-3.94,2.14-3.92,4.08,0,2.61,1.46,5.47,2.3,7.89.95,2.78,2.72,3.91,5.61,3.62a6.64,6.64,0,0,0,3.87-1.27c1.06-.94,1.4-2.07,2.61-2.89.82-.56,2.68-1.68,3.32-.53.3.53-.15,3-.25,3.62-.45,3.06-2.4,6.68-1.51,9.86.36,1.3,1.27,3,2.86,2.67,2-.38,2-2.63,2.24-4.15a26.93,26.93,0,0,0,0-7.34c-.1-1-.33-4.38,1-4.66s2,1.67,2.21,2.52c.3,1.52-.33,3.06,0,4.55.37,1.68,1.75,1.72,3.31,1.18,2.6-.9,4-3.9,5.42-6.05,2.26-3.31,4.27-9.3,8.19-11-.2.24-.41.18-.64.29"/><path class="cls-5" d="M637.31,482.38a16.86,16.86,0,1,0-33.72,0"/><polyline class="cls-5" points="653.81 485.12 674.16 551.5 694.51 485.12"/><polyline class="cls-5" points="706.25 485.12 726.6 551.5 746.95 485.12"/><path class="cls-5" d="M694.23,484.2c-.41-.61-1.74-.84-2.45-1.28a6.35,6.35,0,0,0-3.38-1.36c-1.64.05-2.32,1.76-3.69,1.95-2.05.29-2.6-2.69-3.31-3.88-1-1.64-2.73-1.31-4-.3s-1.84,4.1-3.29,4.83-1.28-1.82-1.55-2.86c-.37-1.45-1.67-1.91-3.14-1.42-1.85.62-3.54,2.64-5,3.89s-2,.61-3.59-.13a9.31,9.31,0,0,0-3.44-1.24c-2.08-.11-3.94,2.14-3.92,4.08,0,2.61,1.46,5.47,2.3,7.89,1,2.78,2.73,3.91,5.61,3.62a6.61,6.61,0,0,0,3.87-1.27c1.07-.94,1.41-2.07,2.62-2.89.81-.56,2.68-1.68,3.32-.53.29.53-.16,3-.25,3.62-.46,3.06-2.4,6.68-1.52,9.86.36,1.3,1.28,3,2.87,2.67,2-.38,2-2.63,2.23-4.15a26.93,26.93,0,0,0,0-7.34c-.1-1-.33-4.38,1-4.66s2,1.67,2.2,2.52c.31,1.52-.32,3.06,0,4.55.37,1.68,1.75,1.72,3.31,1.18,2.59-.9,4-3.9,5.42-6.05,2.26-3.31,4.26-9.3,8.18-11-.19.24-.41.18-.63.29"/><path class="cls-5" d="M690.9,482.38a16.86,16.86,0,0,0-33.72,0"/><path class="cls-5" d="M692.76,483.05a16.86,16.86,0,1,0-31-13.35"/><path class="cls-5" d="M685,462.19a13.4,13.4,0,0,0-24.84,10.05"/><path class="cls-5" d="M713.63,483.09c-2-1-5-1.46-6.73.42s.28,4.08.83,6.07c.77,2.77,1.31,5.16,4.35,6.45,2.7,1.14,5.26.93,6.48,4,1.08,2.72,1.79,5.15,5.42,4.31,1.74-.41,2.12-1.94,3.27-3.17,1.66-1.77,2.9-1.92,5.14-2.1,7.74-.6,12.45-5.1,14.6-12.28.78-2.6-.22-4.32-3-4.59-4-.38-7.29,3.17-11,4.31-2.19.67-4.47,1.25-6.66.32-1.74-.74-3.43-1.63-5.24-2.28-1.5-.54-3.09-.52-4.52-1"/><path class="cls-5" d="M718.49,479.06a15.35,15.35,0,0,0-4.58-1.07c-1.25-.08-2.37.19-3.28-.83a3,3,0,0,1-.56-3c1.41-3.25,7.7-3.53,10.45-2.62,3.91,1.29,8.42,2.65,12.29.45,2.12-1.22,4.33-3.81,6.92-2.67,3.7,1.63.95,5.63-1.1,7.46a15.71,15.71,0,0,1-14.93,3.48"/><path class="cls-5" d="M717.63,466.26c-1.85,0-4.77.54-5.28-1.93-.57-2.78,5.45-5,7.35-5.79,3.93-1.57,7.22-2.8,10.52-5.49,1.95-1.59,1.82-3.33,2.75-5.23,2.21,2.84,5.14,5.12,5.22,9.05,0,2.53-1.51,7.95-3.73,9.42-2.59,1.72-7.83,2.2-10.62.9"/><path class="cls-3" d="M318.11,369.13c2.84-9.8,16.54-20.64,32-12.81,6,3.57,13.19,10.6,10.12,24.62a23.92,23.92,0,0,0-3.13-1.61c-5.06-18.87-16.64-16.55-18.68-16.87C329.82,361.08,318.11,369.13,318.11,369.13Z"/><path class="cls-2" d="M318.36,407.58l11,22.37,2.6-5.29,5.09,3.75,4.65,6.59,5.24-.2,3.79-4.89s2.22-2.17,3.09-1.83,5.49,4.36,5.49,4.36l3.31-49.87-2.09,2.51-6.5,15.33-4.67,6.34-4.47,2-2-10.16h-3.39l2,6,.46,13-3.79,1.53-3-5.56.51-9.08-1.32-5.82a36.54,36.54,0,0,0-4,2.79c-.33.5-3.66,5-3.66,5l-6.79-.28Z"/><polyline class="cls-5" points="318.36 406.69 353.61 480.94 363.46 382.92"/><path class="cls-5" d="M362.89,381.79c-.67-.69-2.44-.68-3.45-1.09-1.4-.57-3.05-1.31-4.66-1-2.12.43-2.61,2.79-4.33,3.35-2.58.84-4-2.89-5.15-4.26-1.65-1.89-3.82-1.08-5.26.53s-1.44,5.7-3.15,7-2.06-2.06-2.64-3.34c-.82-1.8-2.59-2.1-4.38-1.13-2.25,1.22-4,4.21-5.53,6.15s-2.51,1.26-4.66.65a12,12,0,0,0-4.72-.82c-2.72.32-4,3.61-4.14,6.14-2,56.74,11,20.85,4.76,9.67-1.87-3.36,4.41,4.42,8.06,3.4,1.7-.48,3.55-1.06,4.71-2.52s1.34-3,2.72-4.33c.92-.89,3.08-2.77,4.16-1.43.5.62.48,3.89.5,4.73.1,4.05-1.58,9.16.28,13.07.75,1.59,2.32,3.55,4.3,2.79,2.45-.94,2-3.84,1.94-5.86a35.23,35.23,0,0,0-1.7-9.46c-.35-1.25-1.42-5.58.19-6.24s3,1.7,3.42,2.76c.74,1.88.27,4,1,5.87.85,2.08,2.65,1.81,4.53.77,3.15-1.75,4.22-5.93,5.63-9,2.16-4.78,3.4-13,8.06-16.11-.2.36-.5.33-.76.52"/><path class="cls-5" d="M358.18,380.21a22.09,22.09,0,0,0-43.51,7.64"/><path class="cls-5" d="M360.74,380.64a22.09,22.09,0,0,0-43-10.21"/><path class="cls-5" d="M344.93,354A17.55,17.55,0,1,0,316.2,374.1"/><path class="cls-6" d="M335.32,341.83a9.58,9.58,0,1,0-9.58,9.58A9.58,9.58,0,0,0,335.32,341.83Z"/><path class="cls-5" d="M314.57,321.33s9.42,3.09,10.25,15.34"/><path class="cls-7" d="M553.66,443.73a3,3,0,0,1-3.94,1.57l-28.49-12.21a3,3,0,0,1-1.58-3.94l21.86-51a3,3,0,0,1,3.94-1.57L574,388.78a3,3,0,0,1,1.57,3.94Z"/><rect class="cls-2" x="398.09" y="555.45" width="20.98" height="203.63"/><polygon class="cls-2" points="461.75 759.08 444.07 759.08 444.07 595.32 461.75 608.8 461.75 759.08"/><line class="cls-5" x1="171.69" y1="501.29" x2="171.69" y2="761.03"/><rect class="cls-5" x="114.69" y="381.64" width="113.99" height="239.32" rx="34" ry="34"/><line class="cls-8" x1="127.8" y1="761.03" x2="212.07" y2="761.03"/><line class="cls-5" x1="281.18" y1="661.59" x2="318.68" y2="661.59"/><line class="cls-5" x1="1017.65" y1="497.46" x2="1115.07" y2="497.46"/><line class="cls-5" x1="164.27" y1="252.33" x2="259.88" y2="252.33"/><line class="cls-8" x1="229.68" y1="761.32" x2="1117.64" y2="761.32"/><line class="cls-5" x1="408.32" y1="93.07" x2="535.82" y2="93.07"/><line class="cls-8" x1="1179.64" y1="761.32" x2="1307.13" y2="761.32"/><line class="cls-5" x1="1239.63" y1="316.83" x2="1239.63" y2="761.32"/><circle class="cls-5" cx="1239.63" cy="316.83" r="147.12" transform="translate(-35.26 208.62) rotate(-9.49)"/><line class="cls-8" x1="564.07" y1="218.58" x2="564.07" y2="381.64"/><line class="cls-8" x1="564.07" y1="473.01" x2="564.07" y2="744.58"/><line class="cls-8" x1="564.07" y1="583.58" x2="870.07" y2="583.58"/><line class="cls-8" x1="564.07" y1="599.58" x2="870.07" y2="599.58"/><line class="cls-5" x1="870.07" y1="583.58" x2="978.07" y2="583.58"/><line class="cls-5" x1="870.07" y1="599.58" x2="978.07" y2="599.58"/><line class="cls-5" x1="978.07" y1="157.58" x2="978.07" y2="744.58"/><path class="cls-9" d="M625.07,219.08v36a30.49,30.49,0,0,1-30.5,30.5h0a30.5,30.5,0,0,1-30.5-30.5v-36"/><path class="cls-9" d="M686.07,219.08v36a30.49,30.49,0,0,1-30.5,30.5h0a30.5,30.5,0,0,1-30.5-30.5v-36"/><path class="cls-9" d="M746.79,219.08v36a30.5,30.5,0,0,1-30.5,30.5h0a30.5,30.5,0,0,1-30.51-30.5v-36"/><path class="cls-9" d="M807.79,219.08v36a30.5,30.5,0,0,1-30.5,30.5h0a30.5,30.5,0,0,1-30.51-30.5v-36"/><path class="cls-9" d="M868.79,219.08v36a30.5,30.5,0,0,1-30.5,30.5h0a30.5,30.5,0,0,1-30.51-30.5v-36"/><path class="cls-5" d="M625.07,599.58v16a30.49,30.49,0,0,1-30.5,30.5h0a30.5,30.5,0,0,1-30.5-30.5v-16"/><path class="cls-5" d="M686.07,599.58v16a30.49,30.49,0,0,1-30.5,30.5h0a30.5,30.5,0,0,1-30.5-30.5v-16"/><path class="cls-5" d="M746.79,599.58v16a30.5,30.5,0,0,1-30.5,30.5h0a30.5,30.5,0,0,1-30.51-30.5v-16"/><path class="cls-5" d="M807.79,599.58v16a30.5,30.5,0,0,1-30.5,30.5h0a30.5,30.5,0,0,1-30.51-30.5v-16"/><path class="cls-5" d="M868.79,599.58v16a30.5,30.5,0,0,1-30.5,30.5h0a30.5,30.5,0,0,1-30.51-30.5v-16"/><line class="cls-5" x1="564.07" y1="219.08" x2="686.07" y2="133.08"/><line class="cls-5" x1="622.78" y1="219.08" x2="744.78" y2="133.08"/><line class="cls-5" x1="685.78" y1="219.08" x2="807.79" y2="133.08"/><line class="cls-5" x1="746.78" y1="219.08" x2="868.79" y2="133.08"/><line class="cls-5" x1="807.78" y1="219.08" x2="929.79" y2="133.08"/><line class="cls-5" x1="868.78" y1="219.08" x2="990.79" y2="133.08"/><line class="cls-5" x1="567.07" y1="218.58" x2="870.07" y2="218.58"/><line class="cls-5" x1="625.07" y1="599.58" x2="625.07" y2="744.58"/><line class="cls-5" x1="686.07" y1="599.58" x2="686.07" y2="744.58"/><line class="cls-5" x1="746.79" y1="599.58" x2="746.79" y2="744.58"/><line class="cls-5" x1="807.78" y1="599.58" x2="807.78" y2="744.58"/><rect class="cls-8" x="535.07" y="744.58" width="316" height="16.74"/><line class="cls-5" x1="851.07" y1="744.58" x2="996.07" y2="744.58"/><polyline class="cls-5" points="594.57 580.58 594.57 532.58 777.28 532.58"/><polyline class="cls-5" points="610.07 580.58 610.07 562.08 767.57 562.08"/><path class="cls-10" d="M347.88,471.74s-12.2-12-15.6-20.53-3.3-21.14-2.47-24.64,6.89-2.18,9.11,3.3,5.29,5.87,8.06,4.93,3.57-7.07,6.43-6.81,7.6,6.08,10,9.78,1.83,20.8,1.83,20.8Z"/><path class="cls-10" d="M424.61,461.22l-24.82,48.25c-8.8,13-32.11,11.66-39.91-2l-19.13-38.37a4.27,4.27,0,0,1,1.08-5.68c5.71-4.27,18.56-9.27,23.44-7.59,5.36,1.85,12.15,12.25,12.15,12.25l-1.28,11,10.93-71.45"/><path class="cls-10" d="M384,517.58v29.86h126.4V415a36,36,0,0,0-36-36H419.93c-39.65,0-36.65,41.65-43.79,100"/><path class="cls-10" d="M560.38,468.41s9.42-14.32,11-23.34-1.2-21.36-2.74-24.61-7.19-.69-8.22,5.13-3.94,6.85-6.85,6.51-5-6.17-7.71-5.31-6.16,7.54-7.7,11.65,2.57,20.72,2.57,20.72Z"/><path class="cls-10" d="M480.57,461.22l24.82,48.25c8.81,13,32.11,11.66,39.92-2l19.13-38.37a4.28,4.28,0,0,0-1.09-5.68c-5.7-4.27-18.55-9.27-23.43-7.59-5.37,1.85-13.15,13.25-13.15,13.25L529,479l-20.37-75"/><path class="cls-1" d="M427.74,273.46h15a35.73,35.73,0,0,1,35.73,35.73V358a35.73,35.73,0,0,1-35.73,35.73h-15A35.73,35.73,0,0,1,392,358V309.19A35.74,35.74,0,0,1,427.74,273.46Z" transform="translate(870.45 667.15) rotate(180)"/><path class="cls-8" d="M427.74,273.46h15a35.73,35.73,0,0,1,35.73,35.73V358a35.73,35.73,0,0,1-35.73,35.73h-15A35.73,35.73,0,0,1,392,358V309.19A35.74,35.74,0,0,1,427.74,273.46Z" transform="translate(870.45 667.15) rotate(180)"/><path class="cls-2" d="M478.44,283.36c-18.46-24.76-60.26-22-75.66-9.9S390,307.71,392,358s43.21,29,43.21,29,16,.27,17.61-13.42-5.5-50.9,1.65-57.05,23.1-2.84,26.4-8.89S484,290.86,478.44,283.36Z"/><path class="cls-8" d="M478.44,283.36c-18.46-24.76-60.26-22-75.66-9.9S390,307.71,392,358s43.21,29,43.21,29,16,.27,17.61-13.42-5.5-50.9,1.65-57.05,23.1-2.84,26.4-8.89S484,290.86,478.44,283.36Z"/><path class="cls-8" d="M374.07,312.39c0-35.25,22.08-60.06,53.22-60.06H439a59.59,59.59,0,0,1,59.56,60.06v67h0c0,20.84-43.95,23.37-78.32,23.37s-46.12-2.53-46.12-23.37h0Z"/><path class="cls-11" d="M422,551.39a3.26,3.26,0,0,1-3.17,4.06H377a2.88,2.88,0,0,1-2.82-3.68l7.92-27.45h33.16Z"/><path class="cls-11" d="M462.84,551.39a3.28,3.28,0,0,1-3.18,4.06H417.83a2.89,2.89,0,0,1-2.82-3.68l7.92-27.45H456.1Z"/><path class="cls-11" d="M405.65,524.32h-14c-14.68,0-20.13-11.9-20.13-26.57V398.33A26.56,26.56,0,0,1,398,371.76h0a26.56,26.56,0,0,1,26.57,26.57v99.42C424.61,512.42,420.33,524.32,405.65,524.32Z"/><path class="cls-11" d="M446.48,524.32H432.43c-14.67,0-20.13-11.9-20.13-26.57V398.33a26.57,26.57,0,0,1,26.57-26.57h0a26.57,26.57,0,0,1,26.57,26.57v99.42C465.44,512.42,461.15,524.32,446.48,524.32Z"/><line class="cls-8" x1="398.09" y1="555.45" x2="398.09" y2="761.32"/><line class="cls-8" x1="504.07" y1="547.44" x2="504.07" y2="737.91"/><path class="cls-5" d="M525.4,761.32H398.09V737.91H506.4a19,19,0,0,1,19,19Z"/><path class="cls-10" d="M838,404H816.76A25.72,25.72,0,0,1,791,378.25v-45a25.73,25.73,0,0,1,25.72-25.73H838a25.73,25.73,0,0,1,25.73,25.73v45A25.72,25.72,0,0,1,838,404Z"/><path class="cls-10" d="M869.33,571.37H772.39l13.3-88.26c0-2.75-6.51-20.74-3.65-27.49,14-33.12,25.88-51.65,34.72-51.65h26.53c22.43,0,26,74.39,26,86.91Z"/><path class="cls-12" d="M869.33,490.88v92.7h-98.4l14.76-100.47c0-2.75-6.51-20.74-3.65-27.49,4.47-10.57,8.72-19.15,12.73-26.61a8.77,8.77,0,0,0,4.91-.45c2.6-1,12.36-6,22.28-16.78s7.34-7.37,7.34-7.37l12.25-.07a59.87,59.87,0,0,0-5.19,7.78c-1.94,3.69-7.3,14.08-9,25.57s-.72,14.19.52,17.14,6.62,6.9,7.37,7.38a29.11,29.11,0,0,0,5,2.13c1,.2,27.51.89,27.51.89Z"/><path class="cls-13" d="M786.86,320.09c-3.21-7.38,1.09-15.32,1.93-16.88,9.58-17.7,51.78-24.93,74.27-5.78,7.28,6.19,12.44,13,12.54,18.32,1.19,58.92-7.71,81.46-15.43,81.35-1.25,0-8.31,2-8.68-6.11-1.93-42-4.18-6.75-20.8-62.7-2.41-8.11-10.12-5.44-19.78-2.89-7.65,2-10.49,3.82-16.82,1.93C789.4,325.92,787.21,320.9,786.86,320.09Z"/><path class="cls-7" d="M758.79,524.71a3,3,0,0,0,3.94,1.58l28.49-12.22a3,3,0,0,0,1.58-3.94l-21.86-51a3,3,0,0,0-3.94-1.57l-28.5,12.21a3,3,0,0,0-1.57,3.94Z"/><path class="cls-13" d="M863.71,310c-1.28-8.75,3.87-20.12,13.82-25.08a25.67,25.67,0,0,1,26.05,2.25c12.52,9.29,11.95,30.17,8,43.08-6.16,20.37-14.35,21.8-21.54,37-5.79,12.21-5.26,24.43.32,31.51.73.92-2.42,2.89-5.14,3.53-10.6,2.51-28.3-17.45-29.58-37.61-.2-3.09-.76-11.95,3.86-20.9s10.51-10.54,10.93-17.37C870.89,319.38,864.88,318,863.71,310Z"/><path class="cls-14" d="M829.3,404s-25.4,29.14-34.53,24.54"/><path class="cls-14" d="M841.84,404c-12.54,15.31-19.93,45.22-12.54,52.93s9.65,6.76,9.65,6.76"/><path class="cls-15" d="M839,453.45l4.39,35.22a5.73,5.73,0,0,1-5.44,6.73l-50.3,1.8-12.49-1.55a7.35,7.35,0,0,0-7.06,7.1V511a7.66,7.66,0,0,0,7.5,7.35l11.31,2.34H837l21.54-.57c9.22-.44,15.08-6.72,13.19-15.75L864.39,441"/><path class="cls-5" d="M802.13,355.13a6.5,6.5,0,0,1,13,0"/><path class="cls-5" d="M791,380.86c6,3.38,26.08,4.1,29-1.45"/><line class="cls-5" x1="444.07" y1="595.32" x2="444.07" y2="761.32"/><line class="cls-8" x1="870.07" y1="218.58" x2="870.07" y2="744.58"/></svg>