<svg id="work" xmlns="http://www.w3.org/2000/svg" viewBox="0 0 1422 870"><defs><style>.cls-1,.cls-14,.cls-17,.cls-9{fill:#fff;}.cls-11,.cls-2,.cls-3,.cls-4,.cls-5,.cls-7,.cls-8{fill:none;}.cls-12,.cls-15,.cls-17,.cls-18,.cls-19,.cls-2,.cls-3,.cls-5,.cls-7,.cls-8,.cls-9{stroke:#4a4a4a;}.cls-12,.cls-13,.cls-14,.cls-2,.cls-7{stroke-miterlimit:10;}.cls-2,.cls-3,.cls-4{stroke-width:3px;}.cls-11,.cls-15,.cls-17,.cls-18,.cls-19,.cls-3,.cls-4,.cls-5,.cls-8,.cls-9{stroke-linecap:round;stroke-linejoin:round;}.cls-4{stroke:#ff339c;}.cls-5{stroke-width:2.5px;}.cls-18,.cls-6{fill:#ebebeb;}.cls-11,.cls-12,.cls-14,.cls-15,.cls-17,.cls-18,.cls-19,.cls-7,.cls-8{stroke-width:4px;}.cls-9{stroke-width:1.5px;}.cls-10,.cls-19{fill:#ff0083;}.cls-11{stroke:#494949;}.cls-12,.cls-13,.cls-15,.cls-16{fill:#ebeaea;}.cls-13,.cls-14{stroke:#4a5999;}</style></defs><title>10,2</title><path class="cls-1" d="M275.09,185.44a36.51,36.51,0,0,0,48.23,18.42l43.07-19.27a26.51,26.51,0,1,0-32.18-39.91,36.52,36.52,0,0,0-59.12,40.76Z"/><path class="cls-2" d="M275.09,185.44a36.51,36.51,0,0,0,48.23,18.42l43.07-19.27a26.51,26.51,0,1,0-32.18-39.91,36.52,36.52,0,0,0-59.12,40.76Z"/><path class="cls-3" d="M344.6,175.36a36.5,36.5,0,0,1-41,31.36"/><path class="cls-3" d="M344.09,178.31a36.51,36.51,0,0,1-43.45,27.89"/><path class="cls-1" d="M995.06,139.92a43.43,43.43,0,0,0,27.2,55.08l89.81,30.45a23.43,23.43,0,1,0,15-44.38,23.08,23.08,0,0,0-10.19-1.08,31.54,31.54,0,0,0-37.3-27.82,43.45,43.45,0,0,0-84.57-12.25Z"/><path class="cls-3" d="M995.06,139.92a43.43,43.43,0,0,0,27.2,55.08l89.81,30.45a23.43,23.43,0,1,0,15-44.38,23.08,23.08,0,0,0-10.19-1.08,31.54,31.54,0,0,0-37.3-27.82,43.45,43.45,0,0,0-84.57-12.25Z"/><path class="cls-3" d="M1061.41,189.24a43.43,43.43,0,0,1-60.58-10.17"/><path class="cls-3" d="M1096.34,212.83a31.49,31.49,0,0,1-20.81.25"/><path class="cls-4" d="M504.44,66l3.5,16.7m-10.1-6.6,16.7-3.5"/><path class="cls-4" d="M169.88,251.48l9,14.48m-11.75-2.73,14.48-9"/><path class="cls-4" d="M1226.49,154.8l-7.08,15.52M1215.19,159l15.52,7.09"/><path class="cls-4" d="M815.89,196.43l-2.12,16.93m-7.41-9.53L823.29,206"/><path class="cls-4" d="M424.68,391.32l6.56,15.75m-11.15-4.59,15.74-6.57"/><path class="cls-5" d="M294.14,594.4l-6,23.67a20.71,20.71,0,0,0,4,18.26l6.21,7.66a19.68,19.68,0,0,1,3.76,17.64l-2,7.55a29.55,29.55,0,0,0,0,15.56l3.9,14.1a57.27,57.27,0,0,1-5.36,43L276.57,782.1"/><path class="cls-5" d="M218.72,652.55l3.21,34.64a38.8,38.8,0,0,1-4.43,21.92l-8.92,16.63a38,38,0,0,0-4.51,18v3.11a20.78,20.78,0,0,1-9.54,17.48l-28.85,18.53"/><path class="cls-5" d="M594.21,577.84c.62,3.84.53,9.12,3.11,12.09,8.19,9.39,21.6,5.85,33.66,6,10.16.14,26.77-3.37,32.2,8.13,5.14,10.88-.19,24.47.12,35.56s7.61,24,12.56,33.78c6.32,12.44,14.62,13,26.19,16.91,15.83,5.31,32.46,5.42,48.48,10.55,4.65,1.49,10.91,3,14.13,7.41,2.24,3,3.8,12.18,2,16.27-4.22,9.79-23.05,5.55-31,5-9.25-.63-17.17-.53-26.13-2.69-9.79-2.37-22-11.43-29.41-3.62-4.7,4.93,1.08,14.38.82,21.63s-3,15.06-1.19,21.86c2.16,8.28,7.23,16,9.07,24.82,1.75,8.39,1.37,17.62,1.72,26.24"/><path class="cls-5" d="M808.88,702.82c-1-10.25-2.08-22.14-.15-32,1.89-9.59,12.63-23.72,18.17-8,3.75,10.64,2.06,21.33,3.17,32.68.86,8.85,6.45,15.78,4,25.37C833.48,723.34,814.87,762.76,808.88,702.82Z"/><path class="cls-5" d="M450.42,761.88c3.91-4.55,5.44-17.24,12.87-16.9,6.32.28,13.7,10.41,18.87,13.68"/><path class="cls-5" d="M875.34,624.78c.57-5.57,9.49-8.27,13.58-6.81,3.25,1.16,10,9.46,9.16,13.51C895.33,644.65,874.6,631.9,875.34,624.78Z"/><path class="cls-5" d="M917.89,614.63c1.49-5.45,8.69-10.84,14-12C968.07,595.07,907.4,652.82,917.89,614.63Z"/><path class="cls-5" d="M1132,634.62c6.18,18.44,13.47,37.59,24.78,47.53,13.8,12.12,54.21,8.79,70.66,20.15,9.94,6.85,16.92,17.76,25.49,25.7,9.28,8.61,26.17,18.1,28.34,31.48,2.42,14.89-13.2,27.81-15.16,40"/><path class="cls-5" d="M930.07,803.48c-3.75-9.54-10.24-18.32-17.47-25.34-9-8.77-14.13-15.42-1.71-23.16,10-6.26,19.15-10.84,30.36-14.32,10.14-3.13,15.34-9.19,14.83-20.51-.52-11.73-5.54-21.11-1.33-32.64a186,186,0,0,1,13.32-28c6.11-10.88-1.47-22.88,8.51-30.83,11.77-9.38,24.62-13.54,38.64-18.7,7.32-2.69,25.15-8.54,43.82-13.34"/><path class="cls-5" d="M118.57,759,116,762.42m1208.83-1.78q-14.08-18.17-29.21-35.44m-24.38-26.56c-139-144.42-334.2-234.28-550.43-234.28-242.22,0-458.11,112.76-598,288.65"/><path class="cls-4" d="M396.52,496.9q-12.07,5.13-24,10.64m454.24-69c-4.91-.65-9.83-1.24-14.76-1.8m164.65,35.93c-2.71-.9-5.43-1.77-8.16-2.64m281.52,155.48c-2.15-1.82-4.31-3.62-6.48-5.42m69.36,64.32q-22.25-23.13-46.25-44.49"/><path class="cls-6" d="M176.24,555.9a2.28,2.28,0,0,1-.52,3.55l-25.3,14.45a2,2,0,0,1-3-1.25l-4.7-19.34,20.06-11.46Z"/><path class="cls-7" d="M176.24,555.9a2.28,2.28,0,0,1-.52,3.55l-25.3,14.45a2,2,0,0,1-3-1.25l-4.7-19.34,20.06-11.46Z"/><path class="cls-6" d="M159.66,549.85l-8.49,4.85c-8.88,5.07-16.29-.24-21.36-9.12L95.48,485.45a18.5,18.5,0,0,1,6.89-25.24h0a18.5,18.5,0,0,1,25.24,6.89L162,527.23C167,536.1,168.54,544.78,159.66,549.85Z"/><path class="cls-7" d="M159.66,549.85l-8.49,4.85c-8.88,5.07-16.29-.24-21.36-9.12L95.48,485.45a18.5,18.5,0,0,1,6.89-25.24h0a18.5,18.5,0,0,1,25.24,6.89L162,527.23C167,536.1,168.54,544.78,159.66,549.85Z"/><path class="cls-1" d="M239.13,555.5l51.65,90.44,4.44-2.53a10.38,10.38,0,0,1,14.15,3.86l2.4,4.22L235.92,694.8l-7.55-13.21h0L162.53,566.32l-1.93-1.49a4.67,4.67,0,0,1-1.25-1.44L144.22,536.9l-3.48-2.12a18,18,0,0,1-6.23-6.41l-22.75-39.85A24.79,24.79,0,0,1,121,454.7l40.1-22.9A24.79,24.79,0,0,1,194.91,441l45,78.71-3,1.68,9,15.72a12.61,12.61,0,0,1-4.69,17.18Z"/><polygon class="cls-6" points="223.19 527.4 215.4 531.91 282 650.81 290.65 645.56 223.19 527.4"/><polyline class="cls-6" points="262.17 662.41 256.33 665.63 204.94 575.16 208.97 567.59"/><path class="cls-8" d="M138.42,444.75,121,454.7a24.79,24.79,0,0,0-9.23,33.82l22.75,39.85a17.94,17.94,0,0,0,6.23,6.4l3.48,2.13,15.13,26.49a4.8,4.8,0,0,0,1.25,1.44l1.93,1.49,65.83,115.27L290.78,646l-66.87-117.1,16-9.11-45-78.7a24.79,24.79,0,0,0-33.82-9.24Z"/><path class="cls-5" d="M239.13,555.5l2.05-1.16a12.61,12.61,0,0,0,4.7-17.18l-9-15.73-13,7.42Z"/><polyline class="cls-5" points="187.58 458.36 226.47 526.46 159.95 564.45"/><line class="cls-5" x1="205.75" y1="561.58" x2="262.99" y2="661.82"/><path class="cls-5" d="M142.7,494.49l8.39,14.69a7.29,7.29,0,0,0,9.94,2.71l10.59-6.05,9.47,16.57-26,14.84c-3.44,2-8.48,1-11-.72"/><path class="cls-5" d="M173.18,508.58l9-14.11a5.65,5.65,0,0,1,8.68-1.07l6.42,6.07a5.68,5.68,0,0,1-.47,8.64l-16.66,12.6"/><path class="cls-9" d="M148.33,430.63c-3.62,6.6-7.71,9.24-15.6,8.91"/><path class="cls-9" d="M138.05,422.15a5.78,5.78,0,0,1,10-5.73"/><path class="cls-9" d="M121.54,431.58a5.77,5.77,0,1,1,10-5.72"/><path class="cls-8" d="M309.37,647.27l2.4,4.22-35.08,20-2.4-4.22a10.38,10.38,0,0,0-10.48-5.12l-.36-.63,31.77-18.14A10.38,10.38,0,0,1,309.37,647.27Z"/><path class="cls-8" d="M228.37,681.59l31.77-18.15a10.36,10.36,0,0,1,14.14,3.86l2.41,4.22-40.78,23.29Z"/><path class="cls-5" d="M195.13,509.41l2-1.51a5.67,5.67,0,0,0,.48-8.64l-6.42-6.08a5.65,5.65,0,0,0-8.68,1.09l-3.81,6-5.16,8.12"/><path class="cls-10" d="M188.4,472.06,203,502.18a3.14,3.14,0,0,1-1.47,4.2l-6.71,3.24,2-1.51A5.73,5.73,0,0,0,199,503.9a5.63,5.63,0,0,0-1.77-4.43l-6.42-6.08a5.66,5.66,0,0,0-8.68,1.08l-3.8,6-9.23-19.1a3.15,3.15,0,0,1,1.47-4.2l13.62-6.57A3.16,3.16,0,0,1,188.4,472.06Z"/><path class="cls-5" d="M188.4,472.06,203,502.18a3.14,3.14,0,0,1-1.47,4.2l-6.71,3.24,2-1.51A5.73,5.73,0,0,0,199,503.9a5.63,5.63,0,0,0-1.77-4.43l-6.42-6.08a5.66,5.66,0,0,0-8.68,1.08l-3.8,6-9.23-19.1a3.15,3.15,0,0,1,1.47-4.2l13.62-6.57A3.16,3.16,0,0,1,188.4,472.06Z"/><path class="cls-8" d="M85.71,425.54c-9.65-16.91-4.46-35.65,12.45-45.31l6.34-3.62C121.41,367,143.63,370,153.29,387l18.35,32.13c.05.1-.06-.1,0,0,5.71,10-4.71,27.49-23.37,38.15s-38.5,10.44-44.21.44h0Z"/><path class="cls-1" d="M115.42,446.73c4.55,8,15.43,10.84,23.4,6.29l9.69-5.53c8-4.55,10.07-14.85,5.52-22.81l-12-21.06a13.14,13.14,0,0,0-17.93-4.89l-15.79,9a13.14,13.14,0,0,0-4.9,17.92Z"/><path class="cls-8" d="M107,432l8.42,14.74c4.55,8,15.43,10.84,23.4,6.29l9.69-5.53c8-4.55,10.07-14.85,5.52-22.81l-9.79-17.16"/><path class="cls-11" d="M115.42,446.73c4.55,8,15.43,10.84,23.4,6.29l9.69-5.53c8-4.55,10.07-14.85,5.52-22.81l-12-21.06a13.14,13.14,0,0,0-17.93-4.89l-15.79,9a13.14,13.14,0,0,0-4.9,17.92Z"/><path class="cls-11" d="M107,432l8.42,14.74c4.55,8,15.43,10.84,23.4,6.29l9.69-5.53c8-4.55,10.07-14.85,5.52-22.81l-9.79-17.16"/><path class="cls-5" d="M142.51,416.82a4.63,4.63,0,0,0-8,4.6"/><path class="cls-5" d="M127.26,425.53a4.63,4.63,0,0,0-8,4.6"/><path class="cls-5" d="M144.43,431.15c-3.81,12.34-15.18,8.68-15.18,8.68"/><path class="cls-6" d="M102.43,391.47c6.27-4.91,11.73-5.91,19.91-5.77,6.34.11,7.65-7.55,7.65-7.55,8.82,7.5,16.28,27.33,15.66,31.85l-3.22-5.64c-2.27-4-8.07-8.6-11.19-5.87-10.53,9.21-17,1.61-25.57,13.87-2.26,3.22,0,9.14,1.77,14,.8,2.19.91,7,.91,7l.27.44c-4.51-2.22-11.68-12.77-13.89-19.15C92.41,408,93,398.89,102.43,391.47Z"/><path class="cls-8" d="M102.43,391.47c6.27-4.91,11.73-5.91,19.91-5.77,6.34.11,7.65-7.55,7.65-7.55,8.82,7.5,16.28,27.33,15.66,31.85l-3.22-5.64c-2.27-4-8.07-8.6-11.19-5.87-10.53,9.21-17,1.61-25.57,13.87-2.26,3.22,0,9.14,1.77,14,.8,2.19.91,7,.91,7l.27.44c-4.51-2.22-11.68-12.77-13.89-19.15C92.41,408,93,398.89,102.43,391.47Z"/><path class="cls-11" d="M102.43,391.47c6.27-4.91,11.73-5.91,19.91-5.77,6.34.11,7.65-7.55,7.65-7.55,8.82,7.5,16.28,27.33,15.66,31.85l-3.22-5.64c-2.27-4-8.07-8.6-11.19-5.87-10.53,9.21-17,1.61-25.57,13.87-2.26,3.22,0,9.14,1.77,14,.8,2.19.91,7,.91,7l.27.44c-4.51-2.22-11.68-12.77-13.89-19.15C92.41,408,93,398.89,102.43,391.47Z"/><path class="cls-11" d="M102.43,391.47c6.27-4.91,11.73-5.91,19.91-5.77,6.34.11,7.65-7.55,7.65-7.55,8.82,7.5,16.28,27.33,15.66,31.85l-3.22-5.64c-2.27-4-8.07-8.6-11.19-5.87-10.53,9.21-17,1.61-25.57,13.87-2.26,3.22,0,9.14,1.77,14,.8,2.19.91,7,.91,7l.27.44c-4.51-2.22-11.68-12.77-13.89-19.15C92.41,408,93,398.89,102.43,391.47Z"/><path class="cls-1" d="M1246.06,455.21m-9.83-9.64-41.64-27.9-14.15-5.31-4,.3-.3,0A26.31,26.31,0,0,0,1160,423.34L1109,499.56c-1.25,1.86,2.54,4.08,2.54,4.08l-11,16.37c-4.23,6.33-1.38,12.56,5.7,17.73L1047.73,625c-7.54-5-14.47-4.62-18.22,1l-3.08,4.59,73,48.9,80.21-119.68,23,15.42c2.51,1.69,4.65.89,5.37-1.31,6.41-19.88,5.84-18,5.9-18.47,5-1.14,11-3.46,14.18-8.13l41.14-61.39c6.4-9.55,4.37-21.56-5-27.84l-1.74-1.17c-1.75-1.17-10.47-3.15-17.41.64m-13.73-15.25,4.45-3.75,9.24-14.31c0-.06.21,0,.3-.05l.55-.28c5.34-2.75,13.24-13.15,16-19.87,1.83-4.48,4.74-15.93-7.21-26-6.63-5.59-12.73-6.77-21-6.92-4.82-.09-5.73-6.18-5.76-6.43a1.65,1.65,0,0,0-1.05-1.32,1.76,1.76,0,0,0-1.71.26c-9.32,7.11-18.43,25.64-18.81,31.77,0,.23-.14.38-.13.58,0,0,0,0,0,0l-8.89,13.49c-1.12,1.7-2.1,6.45-2.63,8.32"/><path class="cls-12" d="M1196.8,544.31l16.76,11.24L1207.33,575a2.08,2.08,0,0,1-3.15,1.07L1179,559.19a29.66,29.66,0,0,0,17.83-14.88"/><path class="cls-13" d="M1245.76,457.7c6.15-4.07,13.68-1,15.55.21l1.77,1.19a18.49,18.49,0,0,1,4.9,26l-41.15,61.39a18.31,18.31,0,0,1-25.77,5.17l-1.77-1.18a21.73,21.73,0,0,1-4.08-3.51"/><path class="cls-14" d="M1196,545.77l17.66-26.36,28.51-42.53c7-10.37,3.68-24.85-6.69-31.8l-4.74-3.18"/><path class="cls-8" d="M1246,457.39c6.16-4.07,13.89-1.35,15.77-.09l1.77,1.19c8.71,5.84,10.93,18.29,5.09,27l-41.14,61.38a19.57,19.57,0,0,1-26.8,5.38l-1.77-1.19a15.68,15.68,0,0,1-3.36-3.08"/><path class="cls-15" d="M1105.28,536.73c-6.94-4.65-8.23-11.39-4.69-16.67l11.16-16.65,13,8.68"/><path class="cls-8" d="M1075.77,643.8l-30.21-20.25c-5.36-3.6-12.39-2.9-16,2.47l-3,4.47,32.7,21.92"/><rect class="cls-16" x="1047.34" y="588.99" width="116" height="8" transform="translate(-2.75 1180.83) rotate(-56.16)"/><rect class="cls-16" x="1080.15" y="611.48" width="116" height="7" transform="translate(-6.32 1218.11) rotate(-56.17)"/><path class="cls-8" d="M1071,650.68h37.1a0,0,0,0,1,0,0V667a0,0,0,0,1,0,0h-49a0,0,0,0,1,0,0V662.6A11.91,11.91,0,0,1,1071,650.68Z" transform="translate(550.25 -491.7) rotate(33.83)"/><path class="cls-8" d="M1184.13,552.82l-75.66,112.89L1048,625.19l76.08-113.52-13.83-9.26c-1-.68-2-1.84-1.3-2.85L1160,423.34c7.37-11,22.66-13.53,33.64-6.17h0"/><line class="cls-5" x1="1123.47" y1="511.26" x2="1169.03" y2="541.8"/><path class="cls-8" d="M1075.77,643.8l32.7,21.91,75.77-113.05c1.72,1.16,6,1.43,8.07-1.65l49.87-74.13c7-10.37,3.68-24.85-6.69-31.8l-4.17-2.79"/><line class="cls-5" x1="1140.69" y1="546.94" x2="1076.18" y2="643.18"/><line class="cls-5" x1="1121" y1="509.61" x2="1166.07" y2="442.36"/><line class="cls-5" x1="1168.52" y1="542.35" x2="1214" y2="474.48"/><path class="cls-15" d="M1170.18,543.49l-10.73,16a11.09,11.09,0,0,0,2.86,15.06,10.61,10.61,0,0,0,14.46-3.1c4.79-7.15,12.35-18.13,12.35-18.13"/><path class="cls-8" d="M1169.42,542.73l14.82,9.93c2,1.34,5.86,2,10.18-4.5"/><path class="cls-15" d="M1250.66,388.42c6.48,4.21,7.94,13.45,3.28,20.62L1235,438.1c-4.67,7.17-13.71,9.56-20.19,5.35l-15.36-10c-6.48-4.21-8-13.45-3.28-20.62l18.91-29.06c4.67-7.17,13.71-9.56,20.19-5.35Z"/><path class="cls-8" d="M1247.07,421.55,1237,436.63c-5.46,8.14-17.28,10.38-25.43,4.92l-9.9-6.64c-8.15-5.46-9.61-16.6-4.15-24.75l11.75-17.54"/><path class="cls-15" d="M1255,378.7c-6.3-5.71-12-7.2-20.79-7.67-6.77-.37-7.57-8.63-7.57-8.63-10,7.32-19.45,27.89-19.13,32.76l3.86-5.77c2.72-4.06,9.26-8.55,12.38-5.41,10.52,10.63,18,3,26.2,16.75,2.16,3.6-.68,9.74-3,14.82-1,2.28-1.5,7.37-1.5,7.37l-.32.45c5-2,13.43-12.72,16.27-19.36C1264.46,397.07,1264.56,387.34,1255,378.7Z"/><path class="cls-5" d="M1210.67,402.22a4.95,4.95,0,1,1,8.22,5.51"/><path class="cls-5" d="M1226.71,413a5,5,0,0,1,8.23,5.51"/><path class="cls-5" d="M1208.13,416.46c3.12,13.44,15.53,10.4,15.53,10.4"/><path class="cls-8" d="M1270.26,416.31c11.59-17.3,7.49-37.68-9.8-49.27L1254,362.7c-17.3-11.59-41.23-10-52.82,7.3l-22,32.85c-.07.1.07-.11,0,0-6.85,10.22,2.91,29.67,22,42.46s40.24,14.07,47.09,3.85h0Z"/><path class="cls-1" d="M707.27,537l40.78-2.3s1.37-.79,1.83-.21-.24-16.11-.24-16.11l-7.27-101.09s8.15,100.12,7.73,100.54l.64,17.22,42.44-2.17s1.2-15.73-16.85-15.76c-4.7-49.4,3.49-108,3.49-108,3.57-5,1.63-20.24,1.63-26.88,2.34-15.11-3.26-97.85-4.84-101.43s-5.78-11.58-13.18-13.63-55.5.68-60.2,1-23.71,3.85-22.6,30,5.53,89,5.53,89l18.59-.59s18,134.51,17.7,134.05S703,521.33,707.27,537Z"/><path class="cls-12" d="M782.47,368.23l20.14-1.11,6.74,19.3a2.06,2.06,0,0,1-1.87,2.74l-30.31,1.68a29.67,29.67,0,0,0,5.3-22.61"/><path class="cls-13" d="M769.45,269.59c2.47-6.95,10.31-9.06,12.56-9.18l2.13-.12a18.48,18.48,0,0,1,19.54,17.8l4.07,73.79a18.31,18.31,0,0,1-17.47,19.64l-2.13.12a21.54,21.54,0,0,1-5.36-.35"/><path class="cls-14" d="M782.71,369.87,781,338.19l-2.82-51.12c-.69-12.47-12-22.07-24.48-21.38L748,266"/><path class="cls-8" d="M769.43,269.22c2.47-7,10.29-9.43,12.54-9.56l2.13-.12c10.47-.57,19.74,8,20.32,18.51l4.07,73.79a19.57,19.57,0,0,1-18.16,20.42l-2.14.12a15.93,15.93,0,0,1-4.53-.45"/><path class="cls-8" d="M707,417.25c-11.48,2.67-15.63-4.63-16-10.5l-1.11-20,15.57-.86"/><polygon class="cls-16" points="774.55 518.9 767.56 519.28 771.45 402.24 778.44 401.86 774.55 518.9"/><path class="cls-8" d="M792.69,533.44l-41.84,1.84-1-16.32,29.94-1.14A12,12,0,0,1,792.43,529Z"/><path class="cls-8" d="M706.43,537.33,750.3,535,750,518.62l-32,2.13a12,12,0,0,0-11.67,12.16Z"/><line class="cls-5" x1="704.01" y1="385.95" x2="758.78" y2="382.93"/><line class="cls-5" x1="701.04" y1="386.11" x2="696.58" y2="305.29"/><line class="cls-5" x1="758.69" y1="383.68" x2="754.19" y2="302.11"/><path class="cls-8" d="M759.65,383.44l17.81-1c2.4-.13,5.85-2,5.42-9.71"/><path class="cls-8" d="M764.12,221.79c-1.14-20.79-16.69-34.6-37.47-33.45l-7.79.43c-20.78,1.14-38.94,16.82-37.79,37.6l2.18,39.49c0,.12,0-.13,0,0,.68,12.28,20.18,21.94,43.12,20.67s40.61-13,39.93-25.26c0-.13,0,.12,0,0Z"/><path class="cls-8" d="M703.48,268.55h0c-13.21.73-23.89,12-23.16,25.17l5.06,91.62c.07,1.21,1.53,1.55,2.75,1.49l16.62-.92,17.87,134.63,26.76-1.8-7.32-105.51,7.81,105.12,26.37-.06,1.22-135.84c2.07-.11,5.66-2.46,5.45-6.17l-4.77-89.21c-.69-12.47-12-22.07-24.48-21.38l-10,.27"/><path class="cls-17" d="M760.13,385.75l1.64,17.09a11.09,11.09,0,0,0,11.35,10.31A10.61,10.61,0,0,0,782.81,402c-.48-8.59-1.22-17.79-1.22-17.79"/><path class="cls-18" d="M702.67,216.33c-.57-9.92-.91-13.7,4.56-18.83,7.71-7.24,27.28-6.66,35.85,3,4.49,5.09,6.75,13.76,6.53,21-.17,5.77,0,10.89,2.16,12.45,2.66,1.9,8.23-2.19,8.23-2.19,3.47,2.09,3,14-3.73,20.78-7.4,7.47-19.16,5.26-22.47,4.64a34,34,0,0,1-23-16.65C707.62,234.81,703.38,228.41,702.67,216.33Z"/><path class="cls-17" d="M720.12,277.64l6.46-.51A20.64,20.64,0,0,0,745.46,255l-2.35-29.66a16.81,16.81,0,0,0-18-15.39L711,211.05a16.81,16.81,0,0,0-15.39,18L698,258.75A20.64,20.64,0,0,0,720.12,277.64Z"/><path class="cls-19" d="M707.55,210.07c.29,3.59,4.85,6.16,10.2,5.74s9.45-3.68,9.16-7.28-4.85-6.16-10.19-5.74S707.27,206.47,707.55,210.07Z"/><path class="cls-18" d="M697.17,248.67c1.23-10,.52-12.63,3.65-17.58l5.69,3.95c10.67,6.75,24.83,9.25,37.46,9.11,4.9-.05,8.61,0,8.61,0-4.89-2.31-5.68-8-6-11.53l-.41-5.18a22.93,22.93,0,0,0-24.59-21l-8.35.67a22.92,22.92,0,0,0-21,24.58l.41,5.17a22.75,22.75,0,0,0,4.46,11.82"/><path class="cls-5" d="M734.81,251a4.16,4.16,0,0,0-8.29.79"/><path class="cls-5" d="M715.08,253.72a4.16,4.16,0,0,0-8.29.79"/><path class="cls-8" d="M710.74,265.06a13.44,13.44,0,0,0,19.67,2.31"/><path class="cls-4" d="M475.06,460.49a819.57,819.57,0,0,0-151.29,64.84"/></svg>