<svg id="work" xmlns="http://www.w3.org/2000/svg" viewBox="0 0 1422 870"><defs><style>.cls-1,.cls-13,.cls-19,.cls-27,.cls-4,.cls-8{fill:#fff;}.cls-11,.cls-2,.cls-23{fill:#ebebeb;}.cls-10,.cls-12,.cls-18,.cls-25,.cls-26,.cls-3,.cls-5,.cls-6,.cls-7{fill:none;}.cls-11,.cls-12,.cls-13,.cls-15,.cls-16,.cls-18,.cls-20,.cls-22,.cls-23,.cls-25,.cls-3,.cls-4,.cls-5,.cls-6,.cls-7,.cls-8{stroke:#4a4a4a;}.cls-3,.cls-4{stroke-linecap:square;stroke-width:2.57px;}.cls-10,.cls-13,.cls-16,.cls-22,.cls-23,.cls-25,.cls-26,.cls-27,.cls-3,.cls-4,.cls-6,.cls-7,.cls-8{stroke-linejoin:round;}.cls-11,.cls-12,.cls-15,.cls-18,.cls-19,.cls-20,.cls-5{stroke-miterlimit:10;}.cls-10,.cls-16,.cls-20,.cls-5,.cls-6{stroke-width:4px;}.cls-10,.cls-13,.cls-16,.cls-18,.cls-22,.cls-23,.cls-25,.cls-26,.cls-27,.cls-6,.cls-7,.cls-8{stroke-linecap:round;}.cls-11,.cls-12,.cls-13,.cls-15,.cls-18,.cls-22,.cls-23,.cls-26,.cls-27,.cls-7{stroke-width:2.5px;}.cls-8{stroke-width:1.5px;}.cls-22,.cls-9{fill:#ff0083;}.cls-10{stroke:#494949;}.cls-14{fill:#ec1e81;}.cls-15,.cls-16,.cls-17,.cls-20{fill:#ebeaea;}.cls-19{stroke:#4a5999;}.cls-21{fill:#ededed;}.cls-24{fill:#f9f9f9;}.cls-25{stroke-width:1.2px;}.cls-26,.cls-27{stroke:#ff0083;}</style></defs><title>22,1</title><path class="cls-1" d="M185.82,805.2v-.5a25.5,25.5,0,0,1,25.5-25.5h3.83l-40-128.33c-14.66-44-1.66-101.67,2-109-3,3-13,10-13,10L142.82,593.2l-2.33,46.33-35.67-10.66,17.67-40.67c7-54,25.66-106,93.33-150-2-4-16-68-16-68l-44,8.33,39.33-24.66-21.33-91.34,109-26,23,90,44.33,6L308.49,343.2l3,5,13.33,53.67,11,3-8.33,8.33s9,25.67-12,41a9,9,0,0,1,2,2.33L407.15,561.2l12,2.33,2.34-15c-10.67-9-4.34-20-1.34-23.66s15.34-10.34,26.34,1.33c9.66,11-1.67,23.33-8.67,25.67-2,5.66-39.67,181-39.67,181l-6.66,1.33,21.66-137.67-16-21.66-36.66-10c5.66,25.66,4.33,61.33-1,84.66.33.34-7.34,1-7.34,1l-30,129h.67a25.34,25.34,0,0,1,25.33,25.34v1.33Z"/><polygon class="cls-2" points="732.65 806.33 585.64 806.33 585.64 246.16 732.65 392.13 732.65 806.33"/><polyline class="cls-1" points="585.87 246.16 499.05 392.13 499.05 806.33 585.64 806.33"/><polyline class="cls-1" points="1153.97 811.61 1153.97 183.31 1318.05 27.94 1318.05 806.33"/><path class="cls-1" d="M1028.85,110.74h0c-116.73,0-211.4,89.8-211.4,200.57v495h209.68"/><rect class="cls-2" x="766.02" y="428.26" width="51.45" height="378.07"/><polyline class="cls-2" points="1352.81 806.33 1352.81 183.31 1318.05 27.94 1318.05 806.33"/><path class="cls-2" d="M1028.83,807.65V110.74h.3c15.35,0,28.9,59,34.46,136.13V805"/><polyline class="cls-3" points="1352.81 806.33 1352.81 183.31 1318.05 27.94 1318.05 806.33"/><path class="cls-3" d="M817.47,806.33v-495c0-110.77,94.67-200.57,211.4-200.57h0"/><path class="cls-3" d="M1028.83,209.71v-99h.3c15.35,0,28.9,59,34.46,136.13V805"/><line class="cls-3" x1="1028.83" y1="802.39" x2="1028.83" y2="568.87"/><polyline class="cls-4" points="585.87 246.16 499.05 392.13 499.05 806.33 585.64 806.33"/><polyline class="cls-3" points="585.64 589.24 585.64 246.16 732.65 392.13 732.65 806.33 585.64 806.33"/><line class="cls-3" x1="732.65" y1="426.94" x2="817.47" y2="426.94"/><line class="cls-3" x1="584.25" y1="603.76" x2="584.25" y2="639.38"/><path class="cls-1" d="M877.15,613.87c0-50-8-248,63-305,58-46,126.81-77.24,213.91-79.12V807.87H885.15C879.15,703.87,877.15,613.87,877.15,613.87Z"/><path class="cls-3" d="M1154.75,804.35l-.69-574.6c-75.36,0-200.2,39.39-241.15,113.18"/><path class="cls-4" d="M885,806.33s-5.3-74.23-6.15-164.87"/><path class="cls-2" d="M1035.38,806.33s-12.76-332.72,11.43-449.41c17.16-82.79,64.66-127.17,107.57-127.17l.37,574.6"/><line class="cls-3" x1="1154.38" y1="229.75" x2="1154.75" y2="804.35"/><rect class="cls-2" x="1180.39" y="199.15" width="12.51" height="30.35"/><rect class="cls-2" x="1213.76" y="199.15" width="12.51" height="30.35"/><rect class="cls-2" x="1247.14" y="199.15" width="12.51" height="30.35"/><rect class="cls-2" x="1280.51" y="199.15" width="12.51" height="30.35"/><rect class="cls-2" x="1180.39" y="246.65" width="12.51" height="31.67"/><rect class="cls-2" x="1213.76" y="246.65" width="12.51" height="31.67"/><rect class="cls-2" x="1247.14" y="246.65" width="12.51" height="31.67"/><rect class="cls-2" x="1280.51" y="246.65" width="12.51" height="31.67"/><rect class="cls-2" x="1180.39" y="302.07" width="12.51" height="30.35"/><rect class="cls-2" x="1213.76" y="302.07" width="12.51" height="30.35"/><rect class="cls-2" x="1247.14" y="302.07" width="12.51" height="30.35"/><rect class="cls-2" x="1280.51" y="302.07" width="12.51" height="30.35"/><rect class="cls-2" x="1180.39" y="353.54" width="12.51" height="31.67"/><rect class="cls-2" x="1213.76" y="353.54" width="12.51" height="31.67"/><rect class="cls-2" x="1247.14" y="353.54" width="12.51" height="31.67"/><rect class="cls-2" x="1280.51" y="353.54" width="12.51" height="31.67"/><rect class="cls-2" x="1180.39" y="408.96" width="12.51" height="31.67"/><rect class="cls-2" x="1213.76" y="408.96" width="12.51" height="31.67"/><rect class="cls-2" x="1247.14" y="408.96" width="12.51" height="31.67"/><rect class="cls-2" x="1280.51" y="408.96" width="12.51" height="31.67"/><rect class="cls-2" x="1180.39" y="463.06" width="12.51" height="31.67"/><rect class="cls-2" x="1213.76" y="463.06" width="12.51" height="31.67"/><rect class="cls-2" x="1247.14" y="463.06" width="12.51" height="31.67"/><rect class="cls-2" x="1280.51" y="463.06" width="12.51" height="31.67"/><rect class="cls-2" x="1180.39" y="514.52" width="12.51" height="31.67"/><rect class="cls-2" x="1213.76" y="514.52" width="12.51" height="31.67"/><rect class="cls-2" x="1247.14" y="514.52" width="12.51" height="31.67"/><rect class="cls-2" x="1280.51" y="514.52" width="12.51" height="31.67"/><polyline class="cls-3" points="1153.97 804.35 1153.97 183.31 1318.05 27.94 1318.05 806.33"/><path class="cls-2" d="M733.13,545.35a4,4,0,0,1-3.84,4.91H678.72a3.49,3.49,0,0,1-3.41-4.45l9.57-33.19H725Z"/><path class="cls-5" d="M733.13,545.35a4,4,0,0,1-3.84,4.91H678.72a3.49,3.49,0,0,1-3.41-4.45l9.57-33.19H725Z"/><path class="cls-2" d="M713.35,522h-17C678.63,522,672,507.57,672,489.83V369.63a32.12,32.12,0,0,1,32.12-32.12h0a32.12,32.12,0,0,1,32.12,32.12v120.2C736.27,507.57,731.09,522,713.35,522Z"/><path class="cls-5" d="M713.35,522h-17C678.63,522,672,507.57,672,489.83V369.63a32.12,32.12,0,0,1,32.12-32.12h0a32.12,32.12,0,0,1,32.12,32.12v120.2C736.27,507.57,731.09,522,713.35,522Z"/><path class="cls-1" d="M828.28,598.89v180.8h8.89a18,18,0,0,1,18,18v8.42H703.51V779.7h0V549.25l-1.62-3.9a8.46,8.46,0,0,1-.66-3.25v-53L697.79,483a31.21,31.21,0,0,1-3.86-15V388.27a43,43,0,0,1,43-43h80.14a43,43,0,0,1,43,43V545.61h-5.91V577a21.86,21.86,0,0,1-21.86,21.86Z"/><path class="cls-6" d="M771.81,345.23H737a43,43,0,0,0-43,43v79.66a31,31,0,0,0,3.87,15l3.42,6.2v53a8.42,8.42,0,0,0,.65,3.25l1.63,3.91V779.69H828.28V545.61h31.88V388.27a43,43,0,0,0-43-43Z"/><path class="cls-7" d="M828.28,598.89h4.1A21.86,21.86,0,0,0,854.24,577V545.61h-26Z"/><polyline class="cls-7" points="834.2 408.08 834.2 544.22 701.22 544.22"/><line class="cls-7" x1="772.72" y1="579.31" x2="772.72" y2="779.69"/><path class="cls-7" d="M735.44,423.9v29.38a12.64,12.64,0,0,0,12.64,12.64h21.18v33.13H717.34c-6.89,0-13.64-5.84-16-10.56"/><path class="cls-7" d="M769.26,471.38l25.65-13.55a9.83,9.83,0,0,1,14,5.85l4.45,14.68A9.86,9.86,0,0,1,805.21,491l-36,4.65"/><path class="cls-8" d="M798.91,332.48c-11.16,6.83-19.59,7.29-31.2,0"/><path class="cls-8" d="M790.71,310.85a10,10,0,1,1,20,0"/><path class="cls-8" d="M757.69,310.85a10,10,0,0,1,20,0"/><path class="cls-6" d="M855.16,797.69v8.42H785v-8.42A18,18,0,0,0,773.65,781v-1.26h63.52A18,18,0,0,1,855.16,797.69Z"/><path class="cls-6" d="M703.51,779.69H767a18,18,0,0,1,18,18v8.43H703.51Z"/><path class="cls-7" d="M801.64,491.53l4.3-.55a9.86,9.86,0,0,0,8.16-12.62l-4.44-14.68a9.85,9.85,0,0,0-14-5.85l-10.89,5.76L770,471.38"/><path class="cls-9" d="M823.64,429.44l-4,57.92a5.43,5.43,0,0,1-5.82,5.07l-12.9-.9,4.3-.55a9.86,9.86,0,0,0,8.16-12.62l-4.44-14.68a9.85,9.85,0,0,0-14-5.85L784,463.59l2.53-36.74a5.48,5.48,0,0,1,5.84-5.07l26.18,1.83A5.45,5.45,0,0,1,823.64,429.44Z"/><path class="cls-7" d="M823.64,429.44l-4,57.92a5.43,5.43,0,0,1-5.82,5.07l-12.9-.9,4.3-.55a9.86,9.86,0,0,0,8.16-12.62l-4.44-14.68a9.85,9.85,0,0,0-14-5.85L784,463.59l2.53-36.74a5.48,5.48,0,0,1,5.84-5.07l26.18,1.83A5.45,5.45,0,0,1,823.64,429.44Z"/><path class="cls-6" d="M704.44,269.46c0-36,25.54-61.39,61.57-61.39h13.5c36,0,68.92,25.36,68.92,61.39v68.46h0c0,21.3-32.8,39.85-72.56,39.85s-71.43-18.55-71.43-39.85h0Z"/><path class="cls-1" d="M732.72,330.76c0,17,14.85,31.58,31.82,31.58h20.65c17,0,29.81-14.61,29.81-31.58V285.89a24.31,24.31,0,0,0-24.31-24.31H757a24.31,24.31,0,0,0-24.31,24.31Z"/><path class="cls-6" d="M732.72,299.35v31.41c0,17,14.85,31.58,31.82,31.58h20.65c17,0,29.81-14.61,29.81-31.58V294.21"/><path class="cls-10" d="M732.72,330.76c0,17,14.85,31.58,31.82,31.58h20.65c17,0,29.81-14.61,29.81-31.58V285.89a24.31,24.31,0,0,0-24.31-24.31H757a24.31,24.31,0,0,0-24.31,24.31Z"/><path class="cls-10" d="M732.72,299.35v31.41c0,17,14.85,31.58,31.82,31.58h20.65c17,0,29.81-14.61,29.81-31.58V294.21"/><path class="cls-7" d="M803.7,307.57a8.57,8.57,0,0,0-17.14,0"/><path class="cls-7" d="M771.21,307.57a8.57,8.57,0,0,0-17.14,0"/><path class="cls-7" d="M793.63,332.35c-17.44,16.32-32.35,0-32.35,0"/><path class="cls-2" d="M762.56,230.06c14.57-2.15,24.27,1.26,37.28,9,10.09,6,19.22-5.12,19.22-5.12,7.29,20.14,1.08,58.86-4.06,65.55v-12c0-8.46-5.08-21.22-12.58-19.7-25.38,5.14-28.76-13-53.83-1.17-6.58,3.1-8.41,14.67-10,24.15-.72,4.26-4.94,12.05-4.94,12.05l0,1c-5.19-7.71-7-31.23-4.74-43.51C731.32,247.39,740.55,233.29,762.56,230.06Z"/><path class="cls-6" d="M762.56,230.06c14.57-2.15,24.27,1.26,37.28,9,10.09,6,19.22-5.12,19.22-5.12,7.29,20.14,1.08,58.86-4.06,65.55v-12c0-8.46-5.08-21.22-12.58-19.7-25.38,5.14-28.76-13-53.83-1.17-6.58,3.1-8.41,14.67-10,24.15-.72,4.26-4.94,12.05-4.94,12.05l0,1c-5.19-7.71-7-31.23-4.74-43.51C731.32,247.39,740.55,233.29,762.56,230.06Z"/><path class="cls-10" d="M762.56,230.06c14.57-2.15,24.27,1.26,37.28,9,10.09,6,19.22-5.12,19.22-5.12,7.29,20.14,1.08,58.86-4.06,65.55v-12c0-8.46-5.08-21.22-12.58-19.7-25.38,5.14-28.76-13-53.83-1.17-6.58,3.1-8.41,14.67-10,24.15-.72,4.26-4.94,12.05-4.94,12.05l0,1c-5.19-7.71-7-31.23-4.74-43.51C731.32,247.39,740.55,233.29,762.56,230.06Z"/><path class="cls-10" d="M762.56,230.06c14.57-2.15,24.27,1.26,37.28,9,10.09,6,19.22-5.12,19.22-5.12,7.29,20.14,1.08,58.86-4.06,65.55v-12c0-8.46-5.08-21.22-12.58-19.7-25.38,5.14-28.76-13-53.83-1.17-6.58,3.1-8.41,14.67-10,24.15-.72,4.26-4.94,12.05-4.94,12.05l0,1c-5.19-7.71-7-31.23-4.74-43.51C731.32,247.39,740.55,233.29,762.56,230.06Z"/><path class="cls-1" d="M1065.84,804.61l-.15-8.67a16.54,16.54,0,0,1,16.52-16.81h9.94l-2.94-69.59-2.47-64.89L1084.43,597c-17.28.63-35.31,2.34-29-53.75-5-3-5.1-7.12-5.1-7.12V428.88l-.51-37.6a50.18,50.18,0,0,1,50.58-50.88l110,.89a43.85,43.85,0,0,1,43.49,43.38l.6,56.71c-.29,17.85-15.76,34.38-33.29,37.73-.15,0-.42-.59-.22.09S1215.36,778,1215.36,778l1.91,28.07Z"/><rect class="cls-11" x="1094.56" y="391.23" width="48.49" height="71.46" rx="6.8" ry="6.8"/><rect class="cls-12" x="1094.56" y="391.23" width="48.49" height="71.46" rx="6.8" ry="6.8"/><rect class="cls-13" x="1107.33" y="406.55" width="20.41" height="28.07"/><polygon class="cls-14" points="1258.33 288.68 1230.35 347.17 1239.03 353.16 1261.28 290.05 1258.33 288.68"/><path class="cls-14" d="M1254.81,282.86a8,8,0,1,0,8-7.95A8,8,0,0,0,1254.81,282.86Z"/><path class="cls-1" d="M1150.27,465.39l-28.5-7.09a9.95,9.95,0,0,0-12.35,9.15l-.81,15.51a10,10,0,0,0,11.08,10.42l36.47-4.15"/><path class="cls-7" d="M1150.27,465.39l-28.5-7.09a9.95,9.95,0,0,0-12.35,9.15l-.81,15.51a10,10,0,0,0,11.08,10.42l36.47-4.15"/><path class="cls-7" d="M1123.34,493.06l-4.36.5a10,10,0,0,1-11.09-10.42l.8-15.51a10,10,0,0,1,12.37-9.15l12.1,3,16.4,4.07"/><path class="cls-9" d="M1086.63,437.37l18,56a5.52,5.52,0,0,0,7,3.57l12.46-4-4.37.5A10,10,0,0,1,1108.61,483l.8-15.51a10,10,0,0,1,12.37-9.15l12.09,3-11.41-35.49a5.53,5.53,0,0,0-7-3.56l-25.3,8.15A5.53,5.53,0,0,0,1086.63,437.37Z"/><path class="cls-7" d="M1086.63,437.37l18,56a5.52,5.52,0,0,0,7,3.57l12.46-4-4.37.5A10,10,0,0,1,1108.61,483l.8-15.51a10,10,0,0,1,12.37-9.15l12.09,3-11.41-35.49a5.53,5.53,0,0,0-7-3.56l-25.3,8.15A5.53,5.53,0,0,0,1086.63,437.37Z"/><path class="cls-6" d="M1187.31,341.64h21c25.79,0,46.11,21.1,46.11,46.88v46.53a44.93,44.93,0,0,1-36.59,44.15l-62.4,11.8L1150,460.61l38-14.55A28.16,28.16,0,0,0,1206,419.77V403.93"/><path class="cls-7" d="M1080.44,543.25h-25.06v34.44c0,10.94,8.3,19.31,22.65,19.31h6.4"/><path class="cls-6" d="M1050.28,447.55v-59a47.14,47.14,0,0,1,47-46.88H1117"/><path class="cls-15" d="M1248.63,461.5l.45,1.11a11.36,11.36,0,0,1-6.29,14.77L1222,485.74a11.34,11.34,0,0,1-14.76-6.3l-.23-.55a5.94,5.94,0,0,1,3.28-7.7l31.41-12.64A5.32,5.32,0,0,1,1248.63,461.5Z"/><path class="cls-6" d="M1081.06,543.25h-25.68c-2.74,0-5.1-1.25-5.1-4V486"/><path class="cls-16" d="M1066,806.11h87.69L1151.71,778h-66.82a19.3,19.3,0,0,0-19.44,20.89Z"/><polyline class="cls-6" points="1082.89 543.25 1091.81 778.04 1151.01 778.04"/><path class="cls-15" d="M1120,710.24l-28-.36a13.69,13.69,0,0,1-13.25-13.36l-1-34.68a12.45,12.45,0,0,1,12.54-13l17.77.22c15.74.2,28.85,13.42,29.29,29.52l.36,13.26A17.6,17.6,0,0,1,1120,710.24Z"/><path class="cls-16" d="M1132,806.11h85.24L1215.33,778H1151a19.29,19.29,0,0,0-19.44,20.89Z"/><polyline class="cls-6" points="1220.94 479.2 1215.36 778.04 1153.8 778.04 1146.84 616.7"/><path class="cls-15" d="M1186.08,710.24l-28-.36a13.69,13.69,0,0,1-13.25-13.36l-1-34.68a12.45,12.45,0,0,1,12.54-13l17.77.22c15.73.2,28.84,13.42,29.28,29.52l.36,13.26A17.59,17.59,0,0,1,1186.08,710.24Z"/><polygon class="cls-17" points="1217.69 539.13 1082.9 539.13 1082.9 517.55 1218.44 516.51 1217.69 539.13"/><line class="cls-18" x1="1082.18" y1="541.05" x2="1082.18" y2="424.58"/><line class="cls-12" x1="1082.18" y1="516.46" x2="1102.6" y2="516.46"/><line class="cls-12" x1="1102.6" y1="539.42" x2="1082.18" y2="539.42"/><line class="cls-12" x1="1172.93" y1="539.42" x2="1114.66" y2="539.42"/><line class="cls-7" x1="1219.1" y1="539.42" x2="1172.93" y2="539.42"/><line class="cls-7" x1="1172.93" y1="516.46" x2="1219.1" y2="516.46"/><line class="cls-12" x1="1114.66" y1="516.46" x2="1172.93" y2="516.46"/><path class="cls-15" d="M1100.74,498.59h7.66a5.1,5.1,0,0,1,5.1,5.1v58.7a5.11,5.11,0,0,1-5.11,5.11h-7.65a5.11,5.11,0,0,1-5.11-5.11v-58.7A5.1,5.1,0,0,1,1100.74,498.59Z"/><path class="cls-15" d="M1158.94,498.59h7.65a5.1,5.1,0,0,1,5.1,5.1v58.7a5.1,5.1,0,0,1-5.1,5.1h-7.66a5.1,5.1,0,0,1-5.1-5.1V503.7A5.11,5.11,0,0,1,1158.94,498.59Z"/><path class="cls-6" d="M1223.82,267.31c0-35.77-25.34-60.93-61.11-60.93h-13.4c-35.77,0-68.4,25.16-68.4,60.93v67.95h0c0,21.14,32.55,39.56,72,39.56s70.9-18.42,70.9-39.56h0Z"/><path class="cls-19" d="M1108.64,299.53c1.12-2.76,1-14,1.22-20.74s2-7.87,4.14-11.79,7.14-7.9,12.27-7.55,13.29,5.63,15.16,8.06,4.93,2,14-.72,8.3-5,17-4.9,12.08,3,16.51,9.36,2.29,37.71,2.29,37.71v17.37c0,16.84-14.89,31.32-31.73,31.32h-20.5c-16.84,0-29.5-14.48-29.5-31.32V307l-1,0S1107.52,302.29,1108.64,299.53Z"/><path class="cls-6" d="M1109.68,294.42v31.91c0,16.84,12.53,30.62,29.37,30.62h20.5c16.84,0,31.8-13.78,31.8-30.62v-37"/><path class="cls-20" d="M1142.83,224.24h17c22,0,36.61,16.08,36.61,38.07v8.94c0,8.57,0,17.39-5.1,24V283.36c0-8.4-2.51-15.33-8.53-20s-16.18-4.76-21.84.32a18.42,18.42,0,0,1-11.54,4.13c-4.14,0-8.41-1.21-11.22-3.83-5.54-5.17-11.41-6.07-18.12-2.52-6.38,3.37-10.42,11.16-10.42,20.71v16.37l-1,1c-5.16-7.65-6.62-18.39-6.62-27.65V263C1102,240.87,1120.74,224.24,1142.83,224.24Z"/><path class="cls-7" d="M1169,304.21a8.51,8.51,0,1,0-17,0"/><path class="cls-7" d="M1135.82,304.21a8.51,8.51,0,1,0-17,0"/><path class="cls-7" d="M1126.82,333.13c10.85,3,30.42,2.13,36.16-6.38"/><path class="cls-7" d="M306.61,425.23c1.56,8.33-2.48,16.08-9,17.31s-13.11-4.53-14.67-12.87,2.47-16.08,9-17.3S305,416.9,306.61,425.23Z"/><polygon class="cls-21" points="279.44 717.43 289.88 731.45 279.69 778.35 266.01 778.35 279.44 717.43"/><polygon class="cls-21" points="190.77 651.15 177.33 651.15 215.84 779.24 229.28 779.24 190.77 651.15"/><polyline class="cls-6" points="316.62 453.63 406.95 560.73 396.58 575.02 362.76 563.88"/><path class="cls-6" d="M177.33,650.25H360.06c7.66-45,6.8-73.31-7.63-123.09"/><path class="cls-7" d="M123.89,586.71c8.87-1.06,18.41,4.7,18.45,6.64.18,9.51-.27,38.47-.27,38.47s-.15,7.2-4.57,7"/><path class="cls-6" d="M216.84,436.22c-34,25.39-87,61.71-94.19,149"/><path class="cls-6" d="M328.82,418.25a34.18,34.18,0,0,1-25.15,41.29l-45.22,11a34.19,34.19,0,0,1-41.29-25.16l-15.68-64.59a34.18,34.18,0,0,1,25.16-41.29l45.22-11a34.19,34.19,0,0,1,41.28,25.16Z"/><polygon class="cls-1" points="354.31 332.76 153.57 380.18 195.3 353.75 305.17 327.8 354.31 332.76"/><polygon class="cls-22" points="281.34 501.09 249.91 513.25 248.59 488.73 281.12 496.95 281.34 501.09"/><polygon class="cls-22" points="290.22 500.74 321.79 505.21 317.45 481.05 289.49 496.65 290.22 500.74"/><path class="cls-22" d="M293.54,498.3a10,10,0,1,0-8.71,11.14A10.06,10.06,0,0,0,293.54,498.3Z"/><path class="cls-23" d="M247.55,423.67c12.54-1.34,11-27.54,43.45-13.66,25.3-23.29,30.45-5.15,45.23-5.38-10.75,13.89-23.06,20.61-33.81,14.56s-16,1.92-19.71,6.05C278.46,429.94,262.56,434.19,247.55,423.67Z"/><polygon class="cls-6" points="354.31 332.76 153.57 380.18 195.3 353.75 305.17 327.8 354.31 332.76"/><polygon class="cls-24" points="230.04 345.04 196.1 353.25 174.54 262.59 208.47 254.38 230.04 345.04"/><rect class="cls-6" x="183.79" y="248.31" width="112.06" height="93.17" transform="translate(-61.96 63.79) rotate(-13.44)"/><rect class="cls-22" x="190.76" y="307.7" width="112.06" height="33" transform="translate(-68.4 66) rotate(-13.4)"/><path class="cls-6" d="M214.5,777.89s-31.29-95.11-39.06-127.64c-6.27-26.24-12.18-67.12,1.89-107.87"/><line class="cls-6" x1="352.45" y1="652.04" x2="322.89" y2="777"/><line class="cls-7" x1="278.99" y1="712.51" x2="266.9" y2="776.11"/><path class="cls-6" d="M348,806.11a26.66,26.66,0,0,0-26.44-26.87H212.27a26.65,26.65,0,0,0-26.43,26.87Z"/><line class="cls-7" x1="265.56" y1="779.69" x2="265.56" y2="806.11"/><path class="cls-7" d="M219,449.15c9,0,21.5-5.82,18.36-53.29"/><path class="cls-23" d="M274.07,386.79a18.93,18.93,0,1,0-18.93,18.92A18.92,18.92,0,0,0,274.07,386.79Z"/><polyline class="cls-6" points="396.58 575.02 413.55 596.95 415.7 580.81"/><path class="cls-6" d="M406.94,560.68l15.35,3.47a5.56,5.56,0,0,1,4.26,6.39l-.57,3.21a4.27,4.27,0,0,1-2.39,3.13l-8.32,3.93"/><path class="cls-7" d="M414.41,591.57,392,734l6-.43,39.17-181.19c.43-7.75-12.91-9.9-15.06-4.31l-1.94,13.34"/><path class="cls-7" d="M438.91,551.73a16.8,16.8,0,1,0-18.07-4"/><polyline class="cls-7" points="142.34 593.35 163.86 551.4 206.54 522.82"/><path class="cls-7" d="M137.5,638.86l-26.85-7.17a5.61,5.61,0,0,1-3.81-7.67l15.32-37"/><path class="cls-23" d="M305.46,373.29c1.12,4.79-1.42,9.47-5.66,10.46s-8.59-2.08-9.71-6.87,1.42-9.46,5.66-10.45S304.34,368.51,305.46,373.29Z"/><path class="cls-7" d="M266.42,382.39c1.17,4.77-1.31,9.48-5.54,10.52s-8.62-2-9.79-6.76,1.31-9.48,5.54-10.52S265.25,377.62,266.42,382.39Z"/><line class="cls-6" x1="89.17" y1="806.01" x2="1386.6" y2="806.01"/><path class="cls-25" d="M609,201.9s-9.45-14.16-22.83-14.16H544.49l13.38,13.38h35.42"/><polyline class="cls-25" points="580.7 208.99 575.19 213.71 545.27 213.71 525.99 194.43"/><path class="cls-25" d="M523.23,184.59H509.06s-5.5,8.66,1.58,14.95h12.59"/><path class="cls-25" d="M576.76,194Z"/><path class="cls-25" d="M570.86,194Z"/><path class="cls-25" d="M564.17,194Z"/><line class="cls-25" x1="486.24" y1="192.2" x2="427.46" y2="192.2"/><line class="cls-25" x1="498.83" y1="199.54" x2="473.64" y2="199.54"/><path class="cls-26" d="M609,201.9s-9.45-14.16-22.83-14.16H544.49l13.38,13.38h35.42"/><path class="cls-26" d="M609,201.9s-9.45-14.16-22.83-14.16H544.49l13.38,13.38h35.42"/><polyline class="cls-26" points="580.7 208.99 575.19 213.71 545.27 213.71 525.99 194.43"/><polyline class="cls-26" points="580.7 208.99 575.19 213.71 545.27 213.71 525.99 194.43"/><path class="cls-26" d="M523.23,184.59H509.06s-5.5,8.66,1.58,14.95h12.59"/><path class="cls-26" d="M523.23,184.59H509.06s-5.5,8.66,1.58,14.95h12.59"/><path class="cls-26" d="M576.76,194Z"/><path class="cls-26" d="M576.76,194Z"/><path class="cls-26" d="M570.86,194Z"/><path class="cls-26" d="M570.86,194Z"/><path class="cls-26" d="M564.17,194Z"/><path class="cls-26" d="M564.17,194Z"/><line class="cls-26" x1="486.24" y1="192.2" x2="427.46" y2="192.2"/><line class="cls-26" x1="486.24" y1="192.2" x2="427.46" y2="192.2"/><line class="cls-26" x1="498.83" y1="199.54" x2="473.64" y2="199.54"/><line class="cls-26" x1="498.83" y1="199.54" x2="473.64" y2="199.54"/><path class="cls-25" d="M1036,61.74s9.44-14.17,22.83-14.17h41.72L1087.2,61h-35.42"/><polyline class="cls-25" points="1064.38 68.82 1069.89 73.55 1099.8 73.55 1119.08 54.26"/><path class="cls-25" d="M1121.84,44.42H1136s5.51,8.66-1.58,15h-12.59"/><path class="cls-25" d="M1068.31,53.87Z"/><path class="cls-25" d="M1074.22,53.87Z"/><path class="cls-25" d="M1080.91,53.87Z"/><line class="cls-25" x1="1158.84" y1="52.03" x2="1217.61" y2="52.03"/><line class="cls-25" x1="1146.24" y1="59.38" x2="1171.43" y2="59.38"/><path class="cls-26" d="M1036,61.74s9.44-14.17,22.83-14.17h41.72L1087.2,61h-35.42"/><path class="cls-26" d="M1036,61.74s9.44-14.17,22.83-14.17h41.72L1087.2,61h-35.42"/><polyline class="cls-26" points="1064.38 68.82 1069.89 73.55 1099.8 73.55 1119.08 54.26"/><polyline class="cls-26" points="1064.38 68.82 1069.89 73.55 1099.8 73.55 1119.08 54.26"/><path class="cls-26" d="M1121.84,44.42H1136s5.51,8.66-1.58,15h-12.59"/><path class="cls-26" d="M1121.84,44.42H1136s5.51,8.66-1.58,15h-12.59"/><path class="cls-26" d="M1068.31,53.87Z"/><path class="cls-26" d="M1068.31,53.87Z"/><path class="cls-26" d="M1074.22,53.87Z"/><path class="cls-26" d="M1074.22,53.87Z"/><path class="cls-26" d="M1080.91,53.87Z"/><path class="cls-26" d="M1080.91,53.87Z"/><line class="cls-26" x1="1158.84" y1="52.03" x2="1217.61" y2="52.03"/><line class="cls-26" x1="1158.84" y1="52.03" x2="1217.61" y2="52.03"/><line class="cls-26" x1="1146.24" y1="59.38" x2="1171.43" y2="59.38"/><line class="cls-26" x1="1146.24" y1="59.38" x2="1171.43" y2="59.38"/><path class="cls-9" d="M970.7,514.76H958q0-7.37,0-14.74H950c0,5,0,9.86,0,14.75H937.31V499.88l-26.78,0c0-4.23,0-8.34,0-12.54h1.11c1.66,0,3.33,0,5-.09,2.88-.15,4.29-1.62,4.4-4.49.05-1.28.11-2.55.11-3.83q0-23,0-46.05c0-2.08,0-4.16-.11-6.24-.08-2.83-1.54-4.36-4.38-4.53-1.69-.11-3.39-.08-5.09-.12l-1-.05c0-4.21,0-8.31,0-12.55l26.78,0v-14.8H950q0,7.36,0,14.75h8.07V394.61h12.67c0,.38,0,.76,0,1.15,0,4.31,0,8.63,0,13,0,1,.21,1.46,1.26,1.5a17,17,0,0,1,2.46.37,26.78,26.78,0,0,1,12.18,5.31,19.5,19.5,0,0,1,7.58,14.58,19.3,19.3,0,0,1-3,11.58c-3,4.7-7.3,7.59-12.38,9.52-.37.14-.72.3-1.08.45a2.38,2.38,0,0,0,1,.52,32.3,32.3,0,0,1,9.5,3.95,19.57,19.57,0,0,1,8.67,12.41c2.13,9.82-1.15,17.8-9,23.93-4.72,3.68-10.28,5.33-16.11,6.13-.92.13-1.14.43-1.13,1.31C970.75,505.1,970.72,509.93,970.7,514.76Zm-27.18-55.33c0,.3,0,.49,0,.68,0,6.36,0,12.73,0,19.09,0,1.37.1,2.75.24,4.11a1.84,1.84,0,0,0,1.84,1.87c3.06.14,6.12.27,9.19.23a75.06,75.06,0,0,0,7.93-.53,12.75,12.75,0,0,0,7.36-3.38,13.11,13.11,0,0,0,4.1-9.39A11,11,0,0,0,967,461a24.57,24.57,0,0,0-8.64-1.51c-4.67-.13-9.34-.08-14-.11C944.09,459.36,943.84,459.4,943.52,459.43Zm0-13.39c.31,0,.56.07.81.07,3.1,0,6.2,0,9.3,0A40.43,40.43,0,0,0,964.13,445a10.91,10.91,0,0,0,6.6-4.45c3.52-5.39,1.72-14.09-6.19-15.65a35.52,35.52,0,0,0-5.89-.73c-4.76-.13-9.53-.11-14.29-.14-.25,0-.49,0-.79.07C943.56,431.43,943.56,438.67,943.56,446Z"/><path class="cls-27" d="M899.86,443.27a8.52,8.52,0,0,1,8.52,8.52v8.81a8.52,8.52,0,0,1-8.52,8.52H876.45a3.19,3.19,0,0,0-3.19,3.19v7.8a3.2,3.2,0,0,1-5.15,2.53l-24.94-19.31a9,9,0,0,1,0-14.3l25-19.29a3.19,3.19,0,0,1,5.14,2.53v7.81a3.19,3.19,0,0,0,3.2,3.19Z"/><path class="cls-27" d="M1016,443.27a8.52,8.52,0,0,0-8.51,8.52v8.81a8.52,8.52,0,0,0,8.51,8.52h23.41a3.19,3.19,0,0,1,3.2,3.19v7.8a3.19,3.19,0,0,0,5.14,2.53l24.94-19.31a9,9,0,0,0,0-14.3l-25-19.29a3.2,3.2,0,0,0-5.15,2.53v7.81a3.19,3.19,0,0,1-3.19,3.19Z"/></svg>