<svg id="work" xmlns="http://www.w3.org/2000/svg" viewBox="0 0 1422 870"><defs><style>.cls-1,.cls-10,.cls-6{fill:#fff;}.cls-12,.cls-18,.cls-2,.cls-5{fill:#ebebeb;}.Graphic-Style-21,.cls-13,.cls-14,.cls-15,.cls-16,.cls-3,.cls-4,.cls-9{fill:none;}.cls-10,.cls-11,.cls-12,.cls-13,.cls-14,.cls-18,.cls-3,.cls-4,.cls-5,.cls-6,.cls-7,.cls-9{stroke:#4a4a4a;}.Graphic-Style-21,.cls-10,.cls-11,.cls-14,.cls-15,.cls-18,.cls-3,.cls-4,.cls-5,.cls-6,.cls-7,.cls-9{stroke-linecap:round;stroke-linejoin:round;}.Graphic-Style-21,.cls-10,.cls-11,.cls-12,.cls-13,.cls-15,.cls-3,.cls-5{stroke-width:2.5px;}.cls-18,.cls-4{stroke-width:4px;}.cls-6,.cls-7,.cls-9{stroke-width:3px;}.cls-11,.cls-17,.cls-7{fill:#ff0083;}.cls-8{fill:#4a4a4a;}.cls-12,.cls-13{stroke-miterlimit:10;}.cls-14{stroke-width:1.5px;}.cls-15{stroke:#494949;}.Graphic-Style-21{stroke:#ff0083;}</style></defs><title>13,2</title><ellipse class="cls-1" cx="534.07" cy="436.23" rx="84" ry="300"/><rect class="cls-2" x="408.07" y="169.56" width="27.6" height="556.66"/><ellipse class="cls-3" cx="504.79" cy="430.72" rx="39.34" ry="215.6"/><polyline class="cls-4" points="548.07 788.56 592.07 788.56 725.66 834.56 815.66 834.56 815.66 788.56 890.07 788.56"/><line class="cls-4" x1="124.19" y1="788.56" x2="404.07" y2="788.56"/><rect class="cls-5" x="863.4" y="265.98" width="109.39" height="97.3"/><rect class="cls-5" x="863.4" y="380.98" width="109.39" height="97.3"/><rect class="cls-5" x="863.4" y="497.21" width="109.39" height="97.3"/><rect class="cls-3" x="863.4" y="381" width="109.39" height="97.3"/><rect class="cls-3" x="874.09" y="390.5" width="88.02" height="78.29"/><rect class="cls-3" x="928.65" y="414.34" width="23.42" height="10.11"/><line class="cls-3" x1="928.65" y1="432.04" x2="952.07" y2="432.04"/><line class="cls-3" x1="928.65" y1="438.75" x2="952.07" y2="438.75"/><rect class="cls-3" x="863.4" y="497.21" width="109.39" height="97.3"/><rect class="cls-3" x="874.09" y="506.71" width="88.02" height="78.29"/><rect class="cls-3" x="928.65" y="530.55" width="23.42" height="10.11"/><line class="cls-3" x1="928.65" y1="548.25" x2="952.07" y2="548.25"/><line class="cls-3" x1="928.65" y1="554.96" x2="952.07" y2="554.96"/><rect class="cls-3" x="863.4" y="265.98" width="109.39" height="97.3"/><rect class="cls-3" x="874.09" y="275.49" width="88.02" height="78.29"/><rect class="cls-3" x="928.65" y="299.33" width="23.42" height="10.11"/><line class="cls-3" x1="928.65" y1="317.02" x2="952.07" y2="317.02"/><line class="cls-3" x1="928.65" y1="323.73" x2="952.07" y2="323.73"/><path class="cls-1" d="M379.53,581.81l-12,12.48a7.6,7.6,0,0,1-11-.06l-17.68-18.72c.2.52.42,1,.68,1.57-1.14-.76-36.58-26.94-36.58-26.94V550c0,7,0,12.93-.07,17.32a12,12,0,0,1-1.8,6.19L278.69,759.66l2.47.17a18.45,18.45,0,0,1,17.2,18.41v9.09H187v-26L178.5,583.81a16.48,16.48,0,0,1-2.91-9.36V491c0-36.81-1.14-55.76,15.39-75.69,0,0-28.78-72.56-14.28-110.08,9.24-23.52,60.47-31.24,93.82-26.85,11.66,1.5,48.47,12.36,44.43,117.33l-19.87,20.43,24.66,92.3s36.64,50.13,34.69,50.71l22.81,10.5a7.59,7.59,0,0,1,2.29,12.19Z"/><path class="cls-2" d="M176,585.33s23.34,34.66,60,26a212.45,212.45,0,0,0,63.34-26.67l-.67-10L248,598l-.29.08a85.11,85.11,0,0,1-59.6-6.59Z"/><path class="cls-2" d="M181.36,484.66s52,50,72,55.33c8.67-5.33,10-13.33,10-13.33Z"/><path class="cls-2" d="M262,415.2l-4.65-8.85,10.84-1a28.42,28.42,0,0,0,26-28.6l-.19-20,1.62.06A1.37,1.37,0,0,0,297,355.5l-.36-31.64a3,3,0,0,0-3.4-2.89l-1.35.21-.76-6.46a29.38,29.38,0,0,0-29.33-26c-4.13,0-8.83,0-14.19.09,6.05-4.11,14-7.49,23-10.5C324.25,288.8,315,395.68,315,395.68l-27.09,27.69c-1-7.28-12.82-13.43-23.78-9.71a6.65,6.65,0,0,0-2.14,1.56l-4.74-9.14"/><path class="cls-3" d="M270.53,278.35c-57.29,16-72.78,79.15-41.91,140l27.24,10.05"/><line class="cls-3" x1="247.98" y1="425.52" x2="247.29" y2="446.59"/><line class="cls-3" x1="290.22" y1="421.1" x2="288.3" y2="461.13"/><path class="cls-4" d="M290.22,421.1,315,395.68c4-105-32.76-115.83-44.43-117.33-33.35-4.39-84.58,3.32-93.81,26.84C162.21,342.71,191,415.27,191,415.27c-16.53,19.93-15.4,38.9-15.4,75.69v83.48a16.6,16.6,0,0,0,8.14,14.27h0a80.45,80.45,0,0,0,70,5.77l41.36-16a12.13,12.13,0,0,0,7.75-11.16c.28-23.45.32-91.18-7.91-124.47"/><path class="cls-6" d="M291.66,318.16l.18,3,2.07,35.65.93,15.88a31.42,31.42,0,0,1-29.55,33.21l-26.66,1.56a31.22,31.22,0,0,1-16.46-3.55A129.72,129.72,0,0,1,213.06,360a93.44,93.44,0,0,1,6-36.1,73.28,73.28,0,0,1,27.38-34.62l12-.69A31.42,31.42,0,0,1,291.66,318.16Z"/><path class="cls-7" d="M296.19,326l.49,13,.22,5.58h0l.28,7.29a4.88,4.88,0,0,1-3.25,5,3.9,3.9,0,0,1-1,.18l-79.84,3a93.41,93.41,0,0,1,6-36.1l72.48-2.76h.3A4.78,4.78,0,0,1,296.19,326Z"/><path class="cls-8" d="M293.57,366.68a.86.86,0,0,1-.47,1.12.84.84,0,0,1-1.12-.46.86.86,0,0,1,.46-1.13A.87.87,0,0,1,293.57,366.68Z"/><path class="cls-8" d="M293.57,366.68a.86.86,0,0,1-.47,1.12.84.84,0,0,1-1.12-.46.86.86,0,0,1,.46-1.13A.87.87,0,0,1,293.57,366.68Z"/><path class="cls-8" d="M287.87,362.85a.86.86,0,0,1-1.6.65.86.86,0,1,1,1.6-.65Z"/><path class="cls-8" d="M293.57,366.68a.86.86,0,0,1-.47,1.12.84.84,0,0,1-1.12-.46.86.86,0,0,1,.46-1.13A.87.87,0,0,1,293.57,366.68Z"/><path class="cls-8" d="M290.05,368.13a.87.87,0,1,1-1.13-.47A.87.87,0,0,1,290.05,368.13Z"/><path class="cls-8" d="M290.72,364.76a.87.87,0,1,1-1.13-.47A.87.87,0,0,1,290.72,364.76Z"/><path class="cls-8" d="M287.87,362.85a.86.86,0,0,1-1.6.65.86.86,0,1,1,1.6-.65Z"/><path class="cls-8" d="M292.23,373.41a.87.87,0,0,1-1.6.66.87.87,0,0,1,1.6-.66Z"/><path class="cls-8" d="M292.9,370a.87.87,0,1,1-1.13-.46A.86.86,0,0,1,292.9,370Z"/><path class="cls-8" d="M293.57,366.68a.86.86,0,0,1-.47,1.12.84.84,0,0,1-1.12-.46.86.86,0,0,1,.46-1.13A.87.87,0,0,1,293.57,366.68Z"/><path class="cls-8" d="M290.05,368.13a.87.87,0,1,1-1.13-.47A.87.87,0,0,1,290.05,368.13Z"/><path class="cls-8" d="M292.23,373.41a.87.87,0,0,1-1.6.66.87.87,0,0,1,1.6-.66Z"/><path class="cls-8" d="M287.87,362.85a.86.86,0,0,1-1.6.65.86.86,0,1,1,1.6-.65Z"/><path class="cls-8" d="M284.35,364.3a.86.86,0,1,1-1.13-.47A.86.86,0,0,1,284.35,364.3Z"/><path class="cls-8" d="M290.05,368.13a.87.87,0,1,1-1.13-.47A.87.87,0,0,1,290.05,368.13Z"/><path class="cls-8" d="M286.53,369.58a.87.87,0,1,1-1.13-.47A.87.87,0,0,1,286.53,369.58Z"/><path class="cls-8" d="M287.2,366.21a.87.87,0,1,1-1.13-.47A.87.87,0,0,1,287.2,366.21Z"/><path class="cls-8" d="M287.87,362.85a.86.86,0,0,1-1.6.65.86.86,0,1,1,1.6-.65Z"/><path class="cls-8" d="M284.35,364.3a.86.86,0,1,1-1.13-.47A.86.86,0,0,1,284.35,364.3Z"/><path class="cls-8" d="M292.23,373.41a.87.87,0,0,1-1.6.66.87.87,0,0,1,1.6-.66Z"/><path class="cls-8" d="M288.7,374.87a.86.86,0,1,1-1.12-.47A.85.85,0,0,1,288.7,374.87Z"/><path class="cls-8" d="M289.38,371.5a.87.87,0,0,1-1.6.66.87.87,0,1,1,1.6-.66Z"/><path class="cls-8" d="M290.05,368.13a.87.87,0,1,1-1.13-.47A.87.87,0,0,1,290.05,368.13Z"/><path class="cls-8" d="M286.53,369.58a.87.87,0,1,1-1.13-.47A.87.87,0,0,1,286.53,369.58Z"/><path class="cls-8" d="M290.88,380.15a.86.86,0,0,1-.47,1.12.84.84,0,0,1-1.12-.46.86.86,0,1,1,1.59-.66Z"/><path class="cls-8" d="M291.55,376.78a.86.86,0,1,1-1.12-.47A.86.86,0,0,1,291.55,376.78Z"/><path class="cls-8" d="M292.23,373.41a.87.87,0,0,1-1.6.66.87.87,0,0,1,1.6-.66Z"/><path class="cls-8" d="M288.7,374.87a.86.86,0,1,1-1.12-.47A.85.85,0,0,1,288.7,374.87Z"/><path class="cls-8" d="M290.88,380.15a.86.86,0,0,1-.47,1.12.84.84,0,0,1-1.12-.46.86.86,0,1,1,1.59-.66Z"/><path class="cls-8" d="M284.35,364.3a.86.86,0,1,1-1.13-.47A.86.86,0,0,1,284.35,364.3Z"/><path class="cls-8" d="M280.83,365.75a.87.87,0,1,1-1.13-.47A.87.87,0,0,1,280.83,365.75Z"/><path class="cls-8" d="M286.53,369.58a.87.87,0,1,1-1.13-.47A.87.87,0,0,1,286.53,369.58Z"/><path class="cls-8" d="M283,371a.86.86,0,1,1-1.59.66A.86.86,0,1,1,283,371Z"/><path class="cls-8" d="M283.68,367.66a.87.87,0,1,1-1.13-.46A.87.87,0,0,1,283.68,367.66Z"/><path class="cls-8" d="M284.35,364.3a.86.86,0,1,1-1.13-.47A.86.86,0,0,1,284.35,364.3Z"/><path class="cls-8" d="M280.83,365.75a.87.87,0,1,1-1.13-.47A.87.87,0,0,1,280.83,365.75Z"/><path class="cls-8" d="M288.7,374.87a.86.86,0,1,1-1.12-.47A.85.85,0,0,1,288.7,374.87Z"/><path class="cls-8" d="M285.18,376.32a.87.87,0,0,1-1.6.66.87.87,0,0,1,1.6-.66Z"/><path class="cls-8" d="M285.85,373a.86.86,0,1,1-1.59.66.87.87,0,0,1,.47-1.13A.86.86,0,0,1,285.85,373Z"/><path class="cls-8" d="M286.53,369.58a.87.87,0,1,1-1.13-.47A.87.87,0,0,1,286.53,369.58Z"/><path class="cls-8" d="M283,371a.86.86,0,1,1-1.59.66A.86.86,0,1,1,283,371Z"/><path class="cls-8" d="M290.88,380.15a.86.86,0,0,1-.47,1.12.84.84,0,0,1-1.12-.46.86.86,0,1,1,1.59-.66Z"/><path class="cls-8" d="M287.36,381.6a.87.87,0,1,1-1.13-.47A.87.87,0,0,1,287.36,381.6Z"/><path class="cls-8" d="M288,378.23a.87.87,0,0,1-.47,1.13.86.86,0,0,1-1.12-.47.86.86,0,0,1,1.59-.66Z"/><path class="cls-8" d="M288.7,374.87a.86.86,0,1,1-1.12-.47A.85.85,0,0,1,288.7,374.87Z"/><path class="cls-8" d="M285.18,376.32a.87.87,0,0,1-1.6.66.87.87,0,0,1,1.6-.66Z"/><path class="cls-8" d="M289.54,386.88a.88.88,0,0,1-.47,1.14.87.87,0,1,1,.47-1.14Z"/><path class="cls-8" d="M290.21,383.52a.86.86,0,0,1-.47,1.12.86.86,0,1,1,.47-1.12Z"/><path class="cls-8" d="M290.88,380.15a.86.86,0,0,1-.47,1.12.84.84,0,0,1-1.12-.46.86.86,0,1,1,1.59-.66Z"/><path class="cls-8" d="M287.36,381.6a.87.87,0,1,1-1.13-.47A.87.87,0,0,1,287.36,381.6Z"/><path class="cls-8" d="M289.54,386.88a.88.88,0,0,1-.47,1.14.87.87,0,1,1,.47-1.14Z"/><path class="cls-8" d="M280.83,365.75a.87.87,0,1,1-1.13-.47A.87.87,0,0,1,280.83,365.75Z"/><path class="cls-8" d="M277.3,367.2a.87.87,0,0,1-.47,1.13.86.86,0,1,1,.47-1.13Z"/><path class="cls-8" d="M283,371a.86.86,0,1,1-1.59.66A.86.86,0,1,1,283,371Z"/><path class="cls-8" d="M279.48,372.49a.86.86,0,0,1-.47,1.12.88.88,0,0,1-1.13-.46.87.87,0,1,1,1.6-.66Z"/><path class="cls-8" d="M280.15,369.12a.86.86,0,1,1-1.12-.47A.85.85,0,0,1,280.15,369.12Z"/><path class="cls-8" d="M280.83,365.75a.87.87,0,1,1-1.13-.47A.87.87,0,0,1,280.83,365.75Z"/><path class="cls-8" d="M277.3,367.2a.87.87,0,0,1-.47,1.13.86.86,0,1,1,.47-1.13Z"/><path class="cls-8" d="M285.18,376.32a.87.87,0,0,1-1.6.66.87.87,0,0,1,1.6-.66Z"/><path class="cls-8" d="M281.66,377.77a.87.87,0,1,1-1.13-.47A.87.87,0,0,1,281.66,377.77Z"/><path class="cls-8" d="M282.33,374.4a.87.87,0,1,1-1.13-.47A.87.87,0,0,1,282.33,374.4Z"/><path class="cls-8" d="M283,371a.86.86,0,1,1-1.59.66A.86.86,0,1,1,283,371Z"/><path class="cls-8" d="M279.48,372.49a.86.86,0,0,1-.47,1.12.88.88,0,0,1-1.13-.46.87.87,0,1,1,1.6-.66Z"/><path class="cls-8" d="M287.36,381.6a.87.87,0,1,1-1.13-.47A.87.87,0,0,1,287.36,381.6Z"/><path class="cls-8" d="M283.84,383.05a.87.87,0,1,1-1.13-.47A.87.87,0,0,1,283.84,383.05Z"/><path class="cls-8" d="M284.51,379.69a.86.86,0,1,1-1.13-.47A.87.87,0,0,1,284.51,379.69Z"/><path class="cls-8" d="M285.18,376.32a.87.87,0,0,1-1.6.66.87.87,0,0,1,1.6-.66Z"/><path class="cls-8" d="M281.66,377.77a.87.87,0,1,1-1.13-.47A.87.87,0,0,1,281.66,377.77Z"/><path class="cls-8" d="M289.54,386.88a.88.88,0,0,1-.47,1.14.87.87,0,1,1,.47-1.14Z"/><path class="cls-8" d="M286,388.34a.86.86,0,0,1-.46,1.13.87.87,0,1,1-.66-1.6A.86.86,0,0,1,286,388.34Z"/><path class="cls-8" d="M286.69,385a.87.87,0,1,1-1.13-.47A.87.87,0,0,1,286.69,385Z"/><path class="cls-8" d="M287.36,381.6a.87.87,0,1,1-1.13-.47A.87.87,0,0,1,287.36,381.6Z"/><path class="cls-8" d="M283.84,383.05a.87.87,0,1,1-1.13-.47A.87.87,0,0,1,283.84,383.05Z"/><path class="cls-8" d="M288.86,390.25a.85.85,0,0,1-.46,1.13.87.87,0,0,1-1.13-.47.86.86,0,0,1,.47-1.12A.84.84,0,0,1,288.86,390.25Z"/><path class="cls-8" d="M289.54,386.88a.88.88,0,0,1-.47,1.14.87.87,0,1,1,.47-1.14Z"/><path class="cls-8" d="M286,388.34a.86.86,0,0,1-.46,1.13.87.87,0,1,1-.66-1.6A.86.86,0,0,1,286,388.34Z"/><path class="cls-8" d="M277.3,367.2a.87.87,0,0,1-.47,1.13.86.86,0,1,1,.47-1.13Z"/><path class="cls-8" d="M273.78,368.65a.86.86,0,1,1-1.59.66.86.86,0,0,1,.46-1.13A.87.87,0,0,1,273.78,368.65Z"/><path class="cls-8" d="M279.48,372.49a.86.86,0,0,1-.47,1.12.88.88,0,0,1-1.13-.46.87.87,0,1,1,1.6-.66Z"/><path class="cls-8" d="M276,373.94a.87.87,0,0,1-1.6.66.87.87,0,1,1,1.6-.66Z"/><path class="cls-8" d="M276.63,370.57a.87.87,0,1,1-1.13-.47A.87.87,0,0,1,276.63,370.57Z"/><path class="cls-8" d="M277.3,367.2a.87.87,0,0,1-.47,1.13.86.86,0,1,1,.47-1.13Z"/><path class="cls-8" d="M273.78,368.65a.86.86,0,1,1-1.59.66.86.86,0,0,1,.46-1.13A.87.87,0,0,1,273.78,368.65Z"/><path class="cls-8" d="M281.66,377.77a.87.87,0,1,1-1.13-.47A.87.87,0,0,1,281.66,377.77Z"/><path class="cls-8" d="M278.14,379.22a.87.87,0,1,1-1.13-.47A.87.87,0,0,1,278.14,379.22Z"/><path class="cls-8" d="M278.81,375.85a.87.87,0,1,1-1.13-.47A.87.87,0,0,1,278.81,375.85Z"/><path class="cls-8" d="M279.48,372.49a.86.86,0,0,1-.47,1.12.88.88,0,0,1-1.13-.46.87.87,0,1,1,1.6-.66Z"/><path class="cls-8" d="M276,373.94a.87.87,0,0,1-1.6.66.87.87,0,1,1,1.6-.66Z"/><path class="cls-8" d="M283.84,383.05a.87.87,0,1,1-1.13-.47A.87.87,0,0,1,283.84,383.05Z"/><path class="cls-8" d="M280.31,384.51a.86.86,0,1,1-1.59.65.86.86,0,0,1,.47-1.12A.84.84,0,0,1,280.31,384.51Z"/><path class="cls-8" d="M281.66,377.77a.87.87,0,1,1-1.13-.47A.87.87,0,0,1,281.66,377.77Z"/><path class="cls-8" d="M278.14,379.22a.87.87,0,1,1-1.13-.47A.87.87,0,0,1,278.14,379.22Z"/><path class="cls-8" d="M286,388.34a.86.86,0,0,1-.46,1.13.87.87,0,1,1-.66-1.6A.86.86,0,0,1,286,388.34Z"/><path class="cls-8" d="M282.49,389.79a.86.86,0,1,1-1.12-.47A.86.86,0,0,1,282.49,389.79Z"/><path class="cls-8" d="M283.16,386.42a.86.86,0,0,1-.46,1.13.87.87,0,1,1,.46-1.13Z"/><path class="cls-8" d="M283.84,383.05a.87.87,0,1,1-1.13-.47A.87.87,0,0,1,283.84,383.05Z"/><path class="cls-8" d="M280.31,384.51a.86.86,0,1,1-1.59.65.86.86,0,0,1,.47-1.12A.84.84,0,0,1,280.31,384.51Z"/><path class="cls-8" d="M284.67,395.07a.87.87,0,0,1-.47,1.13.86.86,0,0,1-1.12-.47.86.86,0,0,1,1.59-.66Z"/><path class="cls-8" d="M285.34,391.71a.84.84,0,0,1-.46,1.12.86.86,0,1,1,.46-1.12Z"/><path class="cls-8" d="M286,388.34a.86.86,0,0,1-.46,1.13.87.87,0,1,1-.66-1.6A.86.86,0,0,1,286,388.34Z"/><path class="cls-8" d="M282.49,389.79a.86.86,0,1,1-1.12-.47A.86.86,0,0,1,282.49,389.79Z"/><path class="cls-8" d="M284.67,395.07a.87.87,0,0,1-.47,1.13.86.86,0,0,1-1.12-.47.86.86,0,0,1,1.59-.66Z"/><path class="cls-8" d="M268.08,364.82a.87.87,0,1,1-1.13-.47A.87.87,0,0,1,268.08,364.82Z"/><path class="cls-8" d="M273.78,368.65a.86.86,0,1,1-1.59.66.86.86,0,0,1,.46-1.13A.87.87,0,0,1,273.78,368.65Z"/><path class="cls-8" d="M270.26,370.11a.86.86,0,0,1-1.6.65.86.86,0,1,1,1.6-.65Z"/><path class="cls-8" d="M270.93,366.74a.87.87,0,0,1-1.6.66.87.87,0,0,1,1.6-.66Z"/><path class="cls-8" d="M268.08,364.82a.87.87,0,1,1-1.13-.47A.87.87,0,0,1,268.08,364.82Z"/><path class="cls-8" d="M276,373.94a.87.87,0,0,1-1.6.66.87.87,0,1,1,1.6-.66Z"/><path class="cls-8" d="M272.44,375.39a.87.87,0,1,1-1.13-.47A.87.87,0,0,1,272.44,375.39Z"/><path class="cls-8" d="M273.11,372a.87.87,0,1,1-1.13-.47A.87.87,0,0,1,273.11,372Z"/><path class="cls-8" d="M273.78,368.65a.86.86,0,1,1-1.59.66.86.86,0,0,1,.46-1.13A.87.87,0,0,1,273.78,368.65Z"/><path class="cls-8" d="M270.26,370.11a.86.86,0,0,1-1.6.65.86.86,0,1,1,1.6-.65Z"/><path class="cls-8" d="M278.14,379.22a.87.87,0,1,1-1.13-.47A.87.87,0,0,1,278.14,379.22Z"/><path class="cls-8" d="M274.61,380.68a.86.86,0,1,1-1.12-.48A.86.86,0,0,1,274.61,380.68Z"/><path class="cls-8" d="M275.29,377.31a.86.86,0,1,1-1.13-.47A.86.86,0,0,1,275.29,377.31Z"/><path class="cls-8" d="M276,373.94a.87.87,0,0,1-1.6.66.87.87,0,1,1,1.6-.66Z"/><path class="cls-8" d="M272.44,375.39a.87.87,0,1,1-1.13-.47A.87.87,0,0,1,272.44,375.39Z"/><path class="cls-8" d="M280.31,384.51a.86.86,0,1,1-1.59.65.86.86,0,0,1,.47-1.12A.84.84,0,0,1,280.31,384.51Z"/><path class="cls-8" d="M276.79,386a.86.86,0,0,1-.47,1.12.86.86,0,1,1,.47-1.12Z"/><path class="cls-8" d="M278.14,379.22a.87.87,0,1,1-1.13-.47A.87.87,0,0,1,278.14,379.22Z"/><path class="cls-8" d="M274.61,380.68a.86.86,0,1,1-1.12-.48A.86.86,0,0,1,274.61,380.68Z"/><path class="cls-8" d="M282.49,389.79a.86.86,0,1,1-1.12-.47A.86.86,0,0,1,282.49,389.79Z"/><path class="cls-8" d="M279,391.24a.87.87,0,1,1-1.13-.47A.87.87,0,0,1,279,391.24Z"/><path class="cls-8" d="M279.64,387.87a.87.87,0,1,1-1.13-.47A.87.87,0,0,1,279.64,387.87Z"/><path class="cls-8" d="M280.31,384.51a.86.86,0,1,1-1.59.65.86.86,0,0,1,.47-1.12A.84.84,0,0,1,280.31,384.51Z"/><path class="cls-8" d="M276.79,386a.86.86,0,0,1-.47,1.12.86.86,0,1,1,.47-1.12Z"/><path class="cls-8" d="M284.67,395.07a.87.87,0,0,1-.47,1.13.86.86,0,0,1-1.12-.47.86.86,0,0,1,1.59-.66Z"/><path class="cls-8" d="M281.15,396.53a.86.86,0,1,1-1.13-.47A.87.87,0,0,1,281.15,396.53Z"/><path class="cls-8" d="M281.82,393.16a.87.87,0,1,1-1.13-.47A.87.87,0,0,1,281.82,393.16Z"/><path class="cls-8" d="M282.49,389.79a.86.86,0,1,1-1.12-.47A.86.86,0,0,1,282.49,389.79Z"/><path class="cls-8" d="M279,391.24a.87.87,0,1,1-1.13-.47A.87.87,0,0,1,279,391.24Z"/><path class="cls-8" d="M284.67,395.07a.87.87,0,0,1-.47,1.13.86.86,0,0,1-1.12-.47.86.86,0,0,1,1.59-.66Z"/><path class="cls-8" d="M281.15,396.53a.86.86,0,1,1-1.13-.47A.87.87,0,0,1,281.15,396.53Z"/><path class="cls-8" d="M268.08,364.82a.87.87,0,1,1-1.13-.47A.87.87,0,0,1,268.08,364.82Z"/><path class="cls-8" d="M264.56,366.27a.87.87,0,1,1-1.13-.46A.86.86,0,0,1,264.56,366.27Z"/><path class="cls-8" d="M270.26,370.11a.86.86,0,0,1-1.6.65.86.86,0,1,1,1.6-.65Z"/><path class="cls-8" d="M266.73,371.56a.86.86,0,1,1-1.59.66.87.87,0,0,1,.47-1.13A.86.86,0,0,1,266.73,371.56Z"/><path class="cls-8" d="M267.41,368.19a.87.87,0,1,1-1.13-.47A.87.87,0,0,1,267.41,368.19Z"/><path class="cls-8" d="M268.08,364.82a.87.87,0,1,1-1.13-.47A.87.87,0,0,1,268.08,364.82Z"/><path class="cls-8" d="M264.56,366.27a.87.87,0,1,1-1.13-.46A.86.86,0,0,1,264.56,366.27Z"/><path class="cls-8" d="M272.44,375.39a.87.87,0,1,1-1.13-.47A.87.87,0,0,1,272.44,375.39Z"/><path class="cls-8" d="M268.91,376.84a.87.87,0,0,1-.47,1.13.87.87,0,1,1,.47-1.13Z"/><path class="cls-8" d="M269.58,373.47a.86.86,0,1,1-1.59.66.87.87,0,0,1,.47-1.13A.86.86,0,0,1,269.58,373.47Z"/><path class="cls-8" d="M270.26,370.11a.86.86,0,0,1-1.6.65.86.86,0,1,1,1.6-.65Z"/><path class="cls-8" d="M266.73,371.56a.86.86,0,1,1-1.59.66.87.87,0,0,1,.47-1.13A.86.86,0,0,1,266.73,371.56Z"/><path class="cls-8" d="M274.61,380.68a.86.86,0,1,1-1.12-.48A.86.86,0,0,1,274.61,380.68Z"/><path class="cls-8" d="M271.76,378.76a.86.86,0,0,1-1.59.66.87.87,0,0,1,.47-1.13A.86.86,0,0,1,271.76,378.76Z"/><path class="cls-8" d="M272.44,375.39a.87.87,0,1,1-1.13-.47A.87.87,0,0,1,272.44,375.39Z"/><path class="cls-8" d="M268.91,376.84a.87.87,0,0,1-.47,1.13.87.87,0,1,1,.47-1.13Z"/><path class="cls-8" d="M276.79,386a.86.86,0,0,1-.47,1.12.86.86,0,1,1,.47-1.12Z"/><path class="cls-8" d="M273.27,387.41a.87.87,0,1,1-1.13-.47A.87.87,0,0,1,273.27,387.41Z"/><path class="cls-8" d="M274.61,380.68a.86.86,0,1,1-1.12-.48A.86.86,0,0,1,274.61,380.68Z"/><path class="cls-8" d="M279,391.24a.87.87,0,1,1-1.13-.47A.87.87,0,0,1,279,391.24Z"/><path class="cls-8" d="M275.45,392.69a.87.87,0,1,1-1.13-.46A.86.86,0,0,1,275.45,392.69Z"/><path class="cls-8" d="M276.12,389.33a.86.86,0,0,1-.47,1.12.87.87,0,0,1-1.13-.47.86.86,0,0,1,1.6-.65Z"/><path class="cls-8" d="M276.79,386a.86.86,0,0,1-.47,1.12.86.86,0,1,1,.47-1.12Z"/><path class="cls-8" d="M273.27,387.41a.87.87,0,1,1-1.13-.47A.87.87,0,0,1,273.27,387.41Z"/><path class="cls-8" d="M281.15,396.53a.86.86,0,1,1-1.13-.47A.87.87,0,0,1,281.15,396.53Z"/><path class="cls-8" d="M277.63,398a.85.85,0,0,1-.48,1.12.84.84,0,0,1-1.12-.46.87.87,0,1,1,1.6-.66Z"/><path class="cls-8" d="M278.3,394.61a.87.87,0,1,1-1.13-.47A.87.87,0,0,1,278.3,394.61Z"/><path class="cls-8" d="M279,391.24a.87.87,0,1,1-1.13-.47A.87.87,0,0,1,279,391.24Z"/><path class="cls-8" d="M275.45,392.69a.87.87,0,1,1-1.13-.46A.86.86,0,0,1,275.45,392.69Z"/><path class="cls-8" d="M281.15,396.53a.86.86,0,1,1-1.13-.47A.87.87,0,0,1,281.15,396.53Z"/><path class="cls-8" d="M277.63,398a.85.85,0,0,1-.48,1.12.84.84,0,0,1-1.12-.46.87.87,0,1,1,1.6-.66Z"/><path class="cls-8" d="M264.56,366.27a.87.87,0,1,1-1.13-.46A.86.86,0,0,1,264.56,366.27Z"/><path class="cls-8" d="M261,367.73a.86.86,0,1,1-1.12-.47A.85.85,0,0,1,261,367.73Z"/><path class="cls-8" d="M261.71,364.36a.87.87,0,1,1-1.13-.47A.87.87,0,0,1,261.71,364.36Z"/><path class="cls-8" d="M266.73,371.56a.86.86,0,1,1-1.59.66.87.87,0,0,1,.47-1.13A.86.86,0,0,1,266.73,371.56Z"/><path class="cls-8" d="M263.21,373a.87.87,0,1,1-1.13-.47A.87.87,0,0,1,263.21,373Z"/><path class="cls-8" d="M263.89,369.64a.87.87,0,1,1-1.14-.47A.88.88,0,0,1,263.89,369.64Z"/><path class="cls-8" d="M264.56,366.27a.87.87,0,1,1-1.13-.46A.86.86,0,0,1,264.56,366.27Z"/><path class="cls-8" d="M261,367.73a.86.86,0,1,1-1.12-.47A.85.85,0,0,1,261,367.73Z"/><path class="cls-8" d="M268.91,376.84a.87.87,0,0,1-.47,1.13.87.87,0,1,1,.47-1.13Z"/><path class="cls-8" d="M265.39,378.3a.86.86,0,0,1-.47,1.12.87.87,0,0,1-1.13-.47.86.86,0,0,1,1.6-.65Z"/><path class="cls-8" d="M266.06,374.93a.84.84,0,0,1-.47,1.12.86.86,0,1,1,.47-1.12Z"/><path class="cls-8" d="M266.73,371.56a.86.86,0,1,1-1.59.66.87.87,0,0,1,.47-1.13A.86.86,0,0,1,266.73,371.56Z"/><path class="cls-8" d="M263.21,373a.87.87,0,1,1-1.13-.47A.87.87,0,0,1,263.21,373Z"/><path class="cls-8" d="M268.91,376.84a.87.87,0,0,1-.47,1.13.87.87,0,1,1,.47-1.13Z"/><path class="cls-8" d="M265.39,378.3a.86.86,0,0,1-.47,1.12.87.87,0,0,1-1.13-.47.86.86,0,0,1,1.6-.65Z"/><path class="cls-8" d="M273.27,387.41a.87.87,0,1,1-1.13-.47A.87.87,0,0,1,273.27,387.41Z"/><path class="cls-8" d="M269.75,388.86a.87.87,0,1,1-1.13-.47A.87.87,0,0,1,269.75,388.86Z"/><path class="cls-8" d="M275.45,392.69a.87.87,0,1,1-1.13-.46A.86.86,0,0,1,275.45,392.69Z"/><path class="cls-8" d="M271.92,394.15a.86.86,0,1,1-1.12-.47A.86.86,0,0,1,271.92,394.15Z"/><path class="cls-8" d="M272.6,390.78a.87.87,0,0,1-1.6.66.87.87,0,1,1,1.6-.66Z"/><path class="cls-8" d="M273.27,387.41a.87.87,0,1,1-1.13-.47A.87.87,0,0,1,273.27,387.41Z"/><path class="cls-8" d="M269.75,388.86a.87.87,0,1,1-1.13-.47A.87.87,0,0,1,269.75,388.86Z"/><path class="cls-8" d="M277.63,398a.85.85,0,0,1-.48,1.12.84.84,0,0,1-1.12-.46.87.87,0,1,1,1.6-.66Z"/><path class="cls-8" d="M274.1,399.43A.87.87,0,1,1,273,399,.87.87,0,0,1,274.1,399.43Z"/><path class="cls-8" d="M274.78,396.06a.87.87,0,1,1-1.14-.46A.87.87,0,0,1,274.78,396.06Z"/><path class="cls-8" d="M275.45,392.69a.87.87,0,1,1-1.13-.46A.86.86,0,0,1,275.45,392.69Z"/><path class="cls-8" d="M271.92,394.15a.86.86,0,1,1-1.12-.47A.86.86,0,0,1,271.92,394.15Z"/><path class="cls-8" d="M277.63,398a.85.85,0,0,1-.48,1.12.84.84,0,0,1-1.12-.46.87.87,0,1,1,1.6-.66Z"/><path class="cls-8" d="M274.1,399.43A.87.87,0,1,1,273,399,.87.87,0,0,1,274.1,399.43Z"/><path class="cls-8" d="M255.33,363.89a.86.86,0,1,1-1.59.66.86.86,0,0,1,1.59-.66Z"/><path class="cls-8" d="M261,367.73a.86.86,0,1,1-1.12-.47A.85.85,0,0,1,261,367.73Z"/><path class="cls-8" d="M257.51,369.18a.87.87,0,1,1-1.13-.47A.87.87,0,0,1,257.51,369.18Z"/><path class="cls-8" d="M258.18,365.81a.86.86,0,1,1-1.12-.47A.86.86,0,0,1,258.18,365.81Z"/><path class="cls-8" d="M255.33,363.89a.86.86,0,1,1-1.59.66.86.86,0,0,1,1.59-.66Z"/><path class="cls-8" d="M263.21,373a.87.87,0,1,1-1.13-.47A.87.87,0,0,1,263.21,373Z"/><path class="cls-8" d="M259.69,374.46a.87.87,0,1,1-1.13-.47A.87.87,0,0,1,259.69,374.46Z"/><path class="cls-8" d="M260.36,371.09a.87.87,0,1,1-1.12-.47A.87.87,0,0,1,260.36,371.09Z"/><path class="cls-8" d="M261,367.73a.86.86,0,1,1-1.12-.47A.85.85,0,0,1,261,367.73Z"/><path class="cls-8" d="M257.51,369.18a.87.87,0,1,1-1.13-.47A.87.87,0,0,1,257.51,369.18Z"/><path class="cls-8" d="M265.39,378.3a.86.86,0,0,1-.47,1.12.87.87,0,0,1-1.13-.47.86.86,0,0,1,1.6-.65Z"/><path class="cls-8" d="M262.54,376.38a.87.87,0,1,1-1.13-.47A.87.87,0,0,1,262.54,376.38Z"/><path class="cls-8" d="M263.21,373a.87.87,0,1,1-1.13-.47A.87.87,0,0,1,263.21,373Z"/><path class="cls-8" d="M259.69,374.46a.87.87,0,1,1-1.13-.47A.87.87,0,0,1,259.69,374.46Z"/><path class="cls-8" d="M265.39,378.3a.86.86,0,0,1-.47,1.12.87.87,0,0,1-1.13-.47.86.86,0,0,1,1.6-.65Z"/><path class="cls-8" d="M269.75,388.86a.87.87,0,1,1-1.13-.47A.87.87,0,0,1,269.75,388.86Z"/><path class="cls-8" d="M266.22,390.32a.86.86,0,0,1-1.59.65.86.86,0,1,1,1.59-.65Z"/><path class="cls-8" d="M271.92,394.15a.86.86,0,1,1-1.12-.47A.86.86,0,0,1,271.92,394.15Z"/><path class="cls-8" d="M268.4,395.6a.86.86,0,0,1-.47,1.13.87.87,0,1,1,.47-1.13Z"/><path class="cls-8" d="M269.07,392.23a.86.86,0,1,1-1.12-.47A.86.86,0,0,1,269.07,392.23Z"/><path class="cls-8" d="M269.75,388.86a.87.87,0,1,1-1.13-.47A.87.87,0,0,1,269.75,388.86Z"/><path class="cls-8" d="M266.22,390.32a.86.86,0,0,1-1.59.65.86.86,0,1,1,1.59-.65Z"/><path class="cls-8" d="M274.1,399.43A.87.87,0,1,1,273,399,.87.87,0,0,1,274.1,399.43Z"/><path class="cls-8" d="M270.58,400.88a.87.87,0,0,1-1.6.66.87.87,0,0,1,1.6-.66Z"/><path class="cls-8" d="M271.25,397.51a.87.87,0,0,1-1.6.66.85.85,0,0,1,.48-1.12A.84.84,0,0,1,271.25,397.51Z"/><path class="cls-8" d="M271.92,394.15a.86.86,0,1,1-1.12-.47A.86.86,0,0,1,271.92,394.15Z"/><path class="cls-8" d="M268.4,395.6a.86.86,0,0,1-.47,1.13.87.87,0,1,1,.47-1.13Z"/><path class="cls-8" d="M274.1,399.43A.87.87,0,1,1,273,399,.87.87,0,0,1,274.1,399.43Z"/><path class="cls-8" d="M270.58,400.88a.87.87,0,0,1-1.6.66.87.87,0,0,1,1.6-.66Z"/><path class="cls-8" d="M255.33,363.89a.86.86,0,1,1-1.59.66.86.86,0,0,1,1.59-.66Z"/><path class="cls-8" d="M251.81,365.35a.86.86,0,1,1-1.13-.47A.86.86,0,0,1,251.81,365.35Z"/><path class="cls-8" d="M257.51,369.18a.87.87,0,1,1-1.13-.47A.87.87,0,0,1,257.51,369.18Z"/><path class="cls-8" d="M254,370.63a.87.87,0,1,1-1.13-.47A.87.87,0,0,1,254,370.63Z"/><path class="cls-8" d="M254.66,367.26a.87.87,0,1,1-1.13-.47A.87.87,0,0,1,254.66,367.26Z"/><path class="cls-8" d="M255.33,363.89a.86.86,0,1,1-1.59.66.86.86,0,0,1,1.59-.66Z"/><path class="cls-8" d="M251.81,365.35a.86.86,0,1,1-1.13-.47A.86.86,0,0,1,251.81,365.35Z"/><path class="cls-8" d="M259.69,374.46a.87.87,0,1,1-1.13-.47A.87.87,0,0,1,259.69,374.46Z"/><path class="cls-8" d="M256.84,372.55a.87.87,0,1,1-1.13-.47A.86.86,0,0,1,256.84,372.55Z"/><path class="cls-8" d="M257.51,369.18a.87.87,0,1,1-1.13-.47A.87.87,0,0,1,257.51,369.18Z"/><path class="cls-8" d="M254,370.63a.87.87,0,1,1-1.13-.47A.87.87,0,0,1,254,370.63Z"/><path class="cls-8" d="M259.69,374.46a.87.87,0,1,1-1.13-.47A.87.87,0,0,1,259.69,374.46Z"/><path class="cls-8" d="M259,377.83a.87.87,0,1,1-1.13-.47A.87.87,0,0,1,259,377.83Z"/><path class="cls-8" d="M261.87,379.75a.87.87,0,0,1-1.6.66.87.87,0,1,1,1.6-.66Z"/><path class="cls-8" d="M255.49,379.28a.85.85,0,0,1-.46,1.13.87.87,0,0,1-1.13-.47.86.86,0,1,1,1.59-.66Z"/><path class="cls-8" d="M256.17,375.91a.87.87,0,1,1-1.13-.47A.88.88,0,0,1,256.17,375.91Z"/><path class="cls-8" d="M258.34,381.2a.86.86,0,1,1-1.13-.47A.86.86,0,0,1,258.34,381.2Z"/><path class="cls-8" d="M252.05,380.7a.86.86,0,0,1-.46,1.13.87.87,0,1,1,.46-1.13Z"/><path class="cls-8" d="M254.91,382.62a.87.87,0,0,1-1.6.66.87.87,0,1,1,1.6-.66Z"/><path class="cls-8" d="M252.64,377.37a.86.86,0,0,1-.47,1.12.84.84,0,0,1-1.12-.47.86.86,0,1,1,1.59-.65Z"/><path class="cls-8" d="M271.09,382.13a.87.87,0,1,1-1.13-.47A.87.87,0,0,1,271.09,382.13Z"/><path class="cls-8" d="M273.94,384.05a.86.86,0,0,1-.47,1.12.86.86,0,1,1-.66-1.59A.86.86,0,0,1,273.94,384.05Z"/><path class="cls-8" d="M277.46,382.59a.87.87,0,0,1-.47,1.13.86.86,0,0,1-1.12-.47.86.86,0,1,1,1.59-.66Z"/><path class="cls-8" d="M281,381.14a.87.87,0,1,1-1.13-.47A.87.87,0,0,1,281,381.14Z"/><path class="cls-8" d="M268.24,380.21a.87.87,0,1,1-1.13-.47A.87.87,0,0,1,268.24,380.21Z"/><path class="cls-8" d="M267.57,383.58a.87.87,0,1,1-1.13-.47A.87.87,0,0,1,267.57,383.58Z"/><path class="cls-8" d="M270.42,385.5a.86.86,0,0,1-.47,1.12.86.86,0,1,1,.47-1.12Z"/><path class="cls-8" d="M264.05,385a.87.87,0,1,1-1.13-.47A.87.87,0,0,1,264.05,385Z"/><path class="cls-8" d="M264.72,381.66a.87.87,0,1,1-1.13-.47A.87.87,0,0,1,264.72,381.66Z"/><path class="cls-8" d="M266.9,387a.87.87,0,1,1-1.13-.47A.87.87,0,0,1,266.9,387Z"/><path class="cls-8" d="M261.19,383.12a.86.86,0,1,1-1.59.65.86.86,0,0,1,1.59-.65Z"/><path class="cls-8" d="M260.52,386.48a.86.86,0,1,1-1.59.66.86.86,0,1,1,1.59-.66Z"/><path class="cls-8" d="M266.22,390.32a.86.86,0,0,1-1.59.65.86.86,0,1,1,1.59-.65Z"/><path class="cls-8" d="M262.7,391.77a.86.86,0,0,1-.47,1.12.86.86,0,1,1,.47-1.12Z"/><path class="cls-8" d="M263.38,388.4a.87.87,0,0,1-.48,1.13.86.86,0,0,1-.65-1.6A.87.87,0,0,1,263.38,388.4Z"/><path class="cls-8" d="M260.52,386.48a.86.86,0,1,1-1.59.66.86.86,0,1,1,1.59-.66Z"/><path class="cls-8" d="M268.4,395.6a.86.86,0,0,1-.47,1.13.87.87,0,1,1,.47-1.13Z"/><path class="cls-8" d="M264.88,397.05a.87.87,0,1,1-1.13-.47A.87.87,0,0,1,264.88,397.05Z"/><path class="cls-8" d="M265.55,393.68a.87.87,0,1,1-1.13-.47A.87.87,0,0,1,265.55,393.68Z"/><path class="cls-8" d="M266.22,390.32a.86.86,0,0,1-1.59.65.86.86,0,1,1,1.59-.65Z"/><path class="cls-8" d="M262.7,391.77a.86.86,0,0,1-.47,1.12.86.86,0,1,1,.47-1.12Z"/><path class="cls-8" d="M270.58,400.88a.87.87,0,0,1-1.6.66.87.87,0,0,1,1.6-.66Z"/><path class="cls-8" d="M267.06,402.33a.87.87,0,1,1-1.13-.46A.87.87,0,0,1,267.06,402.33Z"/><path class="cls-8" d="M267.73,399a.87.87,0,1,1-1.13-.47A.87.87,0,0,1,267.73,399Z"/><path class="cls-8" d="M268.4,395.6a.86.86,0,0,1-.47,1.13.87.87,0,1,1,.47-1.13Z"/><path class="cls-8" d="M264.88,397.05a.87.87,0,1,1-1.13-.47A.87.87,0,0,1,264.88,397.05Z"/><path class="cls-8" d="M270.58,400.88a.87.87,0,0,1-1.6.66.87.87,0,0,1,1.6-.66Z"/><path class="cls-8" d="M267.06,402.33a.87.87,0,1,1-1.13-.46A.87.87,0,0,1,267.06,402.33Z"/><path class="cls-8" d="M251.81,365.35a.86.86,0,1,1-1.13-.47A.86.86,0,0,1,251.81,365.35Z"/><path class="cls-8" d="M248.29,366.8a.86.86,0,1,1-1.6.65.86.86,0,0,1,1.6-.65Z"/><path class="cls-8" d="M254,370.63a.87.87,0,1,1-1.13-.47A.87.87,0,0,1,254,370.63Z"/><path class="cls-8" d="M250.46,372.08a.85.85,0,0,1-.46,1.13.86.86,0,1,1-.66-1.59A.84.84,0,0,1,250.46,372.08Z"/><path class="cls-8" d="M251.14,368.72a.86.86,0,0,1-1.6.65.86.86,0,1,1,1.6-.65Z"/><path class="cls-8" d="M251.81,365.35a.86.86,0,1,1-1.13-.47A.86.86,0,0,1,251.81,365.35Z"/><path class="cls-8" d="M248.29,366.8a.86.86,0,1,1-1.6.65.86.86,0,0,1,1.6-.65Z"/><path class="cls-8" d="M253.32,374a.87.87,0,0,1-1.6.66.87.87,0,0,1,1.6-.66Z"/><path class="cls-8" d="M254,370.63a.87.87,0,1,1-1.13-.47A.87.87,0,0,1,254,370.63Z"/><path class="cls-8" d="M250.46,372.08a.85.85,0,0,1-.46,1.13.86.86,0,1,1-.66-1.59A.84.84,0,0,1,250.46,372.08Z"/><path class="cls-8" d="M260.52,386.48a.86.86,0,1,1-1.59.66.86.86,0,1,1,1.59-.66Z"/><path class="cls-8" d="M257,387.94a.86.86,0,0,1-.47,1.12.87.87,0,0,1-1.13-.47.86.86,0,0,1,1.6-.65Z"/><path class="cls-8" d="M262.7,391.77a.86.86,0,0,1-.47,1.12.86.86,0,1,1,.47-1.12Z"/><path class="cls-8" d="M259.18,393.22a.87.87,0,1,1-1.13-.47A.87.87,0,0,1,259.18,393.22Z"/><path class="cls-8" d="M259.85,389.85a.87.87,0,1,1-1.13-.47A.87.87,0,0,1,259.85,389.85Z"/><path class="cls-8" d="M260.52,386.48a.86.86,0,1,1-1.59.66.86.86,0,1,1,1.59-.66Z"/><path class="cls-8" d="M257,387.94a.86.86,0,0,1-.47,1.12.87.87,0,0,1-1.13-.47.86.86,0,0,1,1.6-.65Z"/><path class="cls-8" d="M264.88,397.05a.87.87,0,1,1-1.13-.47A.87.87,0,0,1,264.88,397.05Z"/><path class="cls-8" d="M261.36,398.5a.87.87,0,1,1-1.13-.47A.87.87,0,0,1,261.36,398.5Z"/><path class="cls-8" d="M262,395.14a.86.86,0,0,1-.47,1.12.87.87,0,1,1,.47-1.12Z"/><path class="cls-8" d="M262.7,391.77a.86.86,0,0,1-.47,1.12.86.86,0,1,1,.47-1.12Z"/><path class="cls-8" d="M259.18,393.22a.87.87,0,1,1-1.13-.47A.87.87,0,0,1,259.18,393.22Z"/><path class="cls-8" d="M267.06,402.33a.87.87,0,1,1-1.13-.46A.87.87,0,0,1,267.06,402.33Z"/><path class="cls-8" d="M264.21,400.42a.87.87,0,1,1-1.13-.47A.87.87,0,0,1,264.21,400.42Z"/><path class="cls-8" d="M264.88,397.05a.87.87,0,1,1-1.13-.47A.87.87,0,0,1,264.88,397.05Z"/><path class="cls-8" d="M261.36,398.5a.87.87,0,1,1-1.13-.47A.87.87,0,0,1,261.36,398.5Z"/><path class="cls-8" d="M267.06,402.33a.87.87,0,1,1-1.13-.46A.87.87,0,0,1,267.06,402.33Z"/><path class="cls-8" d="M248.29,366.8a.86.86,0,1,1-1.6.65.86.86,0,0,1,1.6-.65Z"/><path class="cls-8" d="M244.76,368.25a.86.86,0,1,1-1.59.66.87.87,0,0,1,.47-1.13A.86.86,0,0,1,244.76,368.25Z"/><path class="cls-8" d="M250.46,372.08a.85.85,0,0,1-.46,1.13.86.86,0,1,1-.66-1.59A.84.84,0,0,1,250.46,372.08Z"/><path class="cls-8" d="M246.94,373.53a.86.86,0,1,1-1.59.66.84.84,0,0,1,.47-1.12A.85.85,0,0,1,246.94,373.53Z"/><path class="cls-8" d="M247.62,370.17a.87.87,0,0,1-.47,1.12.86.86,0,0,1-1.13-.46.87.87,0,1,1,1.6-.66Z"/><path class="cls-8" d="M248.29,366.8a.86.86,0,1,1-1.6.65.86.86,0,0,1,1.6-.65Z"/><path class="cls-8" d="M244.76,368.25a.86.86,0,1,1-1.59.66.87.87,0,0,1,.47-1.13A.86.86,0,0,1,244.76,368.25Z"/><path class="cls-8" d="M249.12,378.82a.87.87,0,1,1-1.13-.47A.87.87,0,0,1,249.12,378.82Z"/><path class="cls-8" d="M249.79,375.45a.87.87,0,0,1-.47,1.13.86.86,0,0,1-1.12-.47.87.87,0,0,1,.47-1.13A.86.86,0,0,1,249.79,375.45Z"/><path class="cls-8" d="M250.46,372.08a.85.85,0,0,1-.46,1.13.86.86,0,1,1-.66-1.59A.84.84,0,0,1,250.46,372.08Z"/><path class="cls-8" d="M246.94,373.53a.86.86,0,1,1-1.59.66.84.84,0,0,1,.47-1.12A.85.85,0,0,1,246.94,373.53Z"/><path class="cls-8" d="M251.3,384.1a.87.87,0,1,1-1.13-.47A.87.87,0,0,1,251.3,384.1Z"/><path class="cls-8" d="M249.12,378.82a.87.87,0,1,1-1.13-.47A.87.87,0,0,1,249.12,378.82Z"/><path class="cls-8" d="M257,387.94a.86.86,0,0,1-.47,1.12.87.87,0,0,1-1.13-.47.86.86,0,0,1,1.6-.65Z"/><path class="cls-8" d="M253.48,389.39a.87.87,0,1,1-1.13-.47A.86.86,0,0,1,253.48,389.39Z"/><path class="cls-8" d="M254.15,386a.87.87,0,1,1-1.13-.47A.87.87,0,0,1,254.15,386Z"/><path class="cls-8" d="M257.67,384.57a.86.86,0,1,1-1.13-.47A.87.87,0,0,1,257.67,384.57Z"/><path class="cls-8" d="M251.3,384.1a.87.87,0,1,1-1.13-.47A.87.87,0,0,1,251.3,384.1Z"/><path class="cls-8" d="M259.18,393.22a.87.87,0,1,1-1.13-.47A.87.87,0,0,1,259.18,393.22Z"/><path class="cls-8" d="M255.66,394.67a.87.87,0,1,1-1.13-.47A.87.87,0,0,1,255.66,394.67Z"/><path class="cls-8" d="M256.33,391.3a.87.87,0,1,1-1.13-.47A.87.87,0,0,1,256.33,391.3Z"/><path class="cls-8" d="M257,387.94a.86.86,0,0,1-.47,1.12.87.87,0,0,1-1.13-.47.86.86,0,0,1,1.6-.65Z"/><path class="cls-8" d="M253.48,389.39a.87.87,0,1,1-1.13-.47A.86.86,0,0,1,253.48,389.39Z"/><path class="cls-8" d="M261.36,398.5a.87.87,0,1,1-1.13-.47A.87.87,0,0,1,261.36,398.5Z"/><path class="cls-8" d="M257.83,400a.86.86,0,1,1-1.59.66.86.86,0,0,1,1.59-.66Z"/><path class="cls-8" d="M258.51,396.59a.86.86,0,1,1-1.13-.47A.87.87,0,0,1,258.51,396.59Z"/><path class="cls-8" d="M259.18,393.22a.87.87,0,1,1-1.13-.47A.87.87,0,0,1,259.18,393.22Z"/><path class="cls-8" d="M255.66,394.67a.87.87,0,1,1-1.13-.47A.87.87,0,0,1,255.66,394.67Z"/><path class="cls-8" d="M260.68,401.87a.86.86,0,1,1-1.12-.47A.86.86,0,0,1,260.68,401.87Z"/><path class="cls-8" d="M261.36,398.5a.87.87,0,1,1-1.13-.47A.87.87,0,0,1,261.36,398.5Z"/><path class="cls-8" d="M257.83,400a.86.86,0,1,1-1.59.66.86.86,0,0,1,1.59-.66Z"/><path class="cls-8" d="M244.76,368.25a.86.86,0,1,1-1.59.66.87.87,0,0,1,.47-1.13A.86.86,0,0,1,244.76,368.25Z"/><path class="cls-8" d="M241.24,369.7a.87.87,0,1,1-1.12-.47A.86.86,0,0,1,241.24,369.7Z"/><path class="cls-8" d="M246.94,373.53a.86.86,0,1,1-1.59.66.84.84,0,0,1,.47-1.12A.85.85,0,0,1,246.94,373.53Z"/><path class="cls-8" d="M243.42,375a.86.86,0,1,1-1.13-.47A.87.87,0,0,1,243.42,375Z"/><path class="cls-8" d="M244.09,371.62a.86.86,0,0,1-.46,1.12.86.86,0,1,1,.46-1.12Z"/><path class="cls-8" d="M244.76,368.25a.86.86,0,1,1-1.59.66.87.87,0,0,1,.47-1.13A.86.86,0,0,1,244.76,368.25Z"/><path class="cls-8" d="M241.24,369.7a.87.87,0,1,1-1.12-.47A.86.86,0,0,1,241.24,369.7Z"/><path class="cls-8" d="M249.12,378.82a.87.87,0,1,1-1.13-.47A.87.87,0,0,1,249.12,378.82Z"/><path class="cls-8" d="M245.6,380.27a.87.87,0,1,1-1.13-.47A.87.87,0,0,1,245.6,380.27Z"/><path class="cls-8" d="M246.27,376.9a.87.87,0,0,1-.47,1.13.87.87,0,0,1-.66-1.6A.87.87,0,0,1,246.27,376.9Z"/><path class="cls-8" d="M246.94,373.53a.86.86,0,1,1-1.59.66.84.84,0,0,1,.47-1.12A.85.85,0,0,1,246.94,373.53Z"/><path class="cls-8" d="M243.42,375a.86.86,0,1,1-1.13-.47A.87.87,0,0,1,243.42,375Z"/><path class="cls-8" d="M251.3,384.1a.87.87,0,1,1-1.13-.47A.87.87,0,0,1,251.3,384.1Z"/><path class="cls-8" d="M247.78,385.56a.86.86,0,0,1-.47,1.12.86.86,0,1,1-.66-1.59A.86.86,0,0,1,247.78,385.56Z"/><path class="cls-8" d="M248.45,382.19a.86.86,0,1,1-1.13-.47A.86.86,0,0,1,248.45,382.19Z"/><path class="cls-8" d="M249.12,378.82a.87.87,0,1,1-1.13-.47A.87.87,0,0,1,249.12,378.82Z"/><path class="cls-8" d="M245.6,380.27a.87.87,0,1,1-1.13-.47A.87.87,0,0,1,245.6,380.27Z"/><path class="cls-8" d="M253.48,389.39a.87.87,0,1,1-1.13-.47A.86.86,0,0,1,253.48,389.39Z"/><path class="cls-8" d="M250,390.84a.86.86,0,1,1-1.59.66.87.87,0,0,1,.47-1.13A.86.86,0,0,1,250,390.84Z"/><path class="cls-8" d="M250.63,387.47a.87.87,0,1,1-1.13-.47A.87.87,0,0,1,250.63,387.47Z"/><path class="cls-8" d="M251.3,384.1a.87.87,0,1,1-1.13-.47A.87.87,0,0,1,251.3,384.1Z"/><path class="cls-8" d="M247.78,385.56a.86.86,0,0,1-.47,1.12.86.86,0,1,1-.66-1.59A.86.86,0,0,1,247.78,385.56Z"/><path class="cls-8" d="M255.66,394.67a.87.87,0,1,1-1.13-.47A.87.87,0,0,1,255.66,394.67Z"/><path class="cls-8" d="M252.13,396.12a.86.86,0,1,1-1.12-.47A.86.86,0,0,1,252.13,396.12Z"/><path class="cls-8" d="M252.8,392.76a.84.84,0,0,1-.46,1.12.87.87,0,0,1-1.13-.47.86.86,0,1,1,1.59-.65Z"/><path class="cls-8" d="M253.48,389.39a.87.87,0,1,1-1.13-.47A.86.86,0,0,1,253.48,389.39Z"/><path class="cls-8" d="M250,390.84a.86.86,0,1,1-1.59.66.87.87,0,0,1,.47-1.13A.86.86,0,0,1,250,390.84Z"/><path class="cls-8" d="M257.83,400a.86.86,0,1,1-1.59.66.86.86,0,0,1,1.59-.66Z"/><path class="cls-8" d="M254.31,401.41a.86.86,0,1,1-1.6.65.86.86,0,0,1,1.6-.65Z"/><path class="cls-8" d="M255,398a.86.86,0,0,1-.47,1.12.84.84,0,0,1-1.12-.46A.86.86,0,1,1,255,398Z"/><path class="cls-8" d="M255.66,394.67a.87.87,0,1,1-1.13-.47A.87.87,0,0,1,255.66,394.67Z"/><path class="cls-8" d="M252.13,396.12a.86.86,0,1,1-1.12-.47A.86.86,0,0,1,252.13,396.12Z"/><path class="cls-8" d="M257.16,403.32a.86.86,0,1,1-1.59.66.86.86,0,1,1,1.59-.66Z"/><path class="cls-8" d="M257.83,400a.86.86,0,1,1-1.59.66.86.86,0,0,1,1.59-.66Z"/><path class="cls-8" d="M254.31,401.41a.86.86,0,1,1-1.6.65.86.86,0,0,1,1.6-.65Z"/><path class="cls-8" d="M241.24,369.7a.87.87,0,1,1-1.12-.47A.86.86,0,0,1,241.24,369.7Z"/><path class="cls-8" d="M243.42,375a.86.86,0,1,1-1.13-.47A.87.87,0,0,1,243.42,375Z"/><path class="cls-8" d="M239.9,376.44a.87.87,0,1,1-1.13-.47A.87.87,0,0,1,239.9,376.44Z"/><path class="cls-8" d="M240.57,373.07a.87.87,0,1,1-1.13-.47A.87.87,0,0,1,240.57,373.07Z"/><path class="cls-8" d="M241.24,369.7a.87.87,0,1,1-1.12-.47A.86.86,0,0,1,241.24,369.7Z"/><path class="cls-8" d="M245.6,380.27a.87.87,0,1,1-1.13-.47A.87.87,0,0,1,245.6,380.27Z"/><path class="cls-8" d="M242.08,381.72a.87.87,0,1,1-1.13-.47A.87.87,0,0,1,242.08,381.72Z"/><path class="cls-8" d="M242.75,378.35a.87.87,0,1,1-1.13-.46A.86.86,0,0,1,242.75,378.35Z"/><path class="cls-8" d="M243.42,375a.86.86,0,1,1-1.13-.47A.87.87,0,0,1,243.42,375Z"/><path class="cls-8" d="M239.9,376.44a.87.87,0,1,1-1.13-.47A.87.87,0,0,1,239.9,376.44Z"/><path class="cls-8" d="M247.78,385.56a.86.86,0,0,1-.47,1.12.86.86,0,1,1-.66-1.59A.86.86,0,0,1,247.78,385.56Z"/><path class="cls-8" d="M244.26,387a.86.86,0,0,1-.48,1.12.86.86,0,1,1-.65-1.59A.87.87,0,0,1,244.26,387Z"/><path class="cls-8" d="M244.93,383.64a.87.87,0,1,1-1.13-.47A.87.87,0,0,1,244.93,383.64Z"/><path class="cls-8" d="M245.6,380.27a.87.87,0,1,1-1.13-.47A.87.87,0,0,1,245.6,380.27Z"/><path class="cls-8" d="M242.08,381.72a.87.87,0,1,1-1.13-.47A.87.87,0,0,1,242.08,381.72Z"/><path class="cls-8" d="M250,390.84a.86.86,0,1,1-1.59.66.87.87,0,0,1,.47-1.13A.86.86,0,0,1,250,390.84Z"/><path class="cls-8" d="M246.43,392.29a.87.87,0,0,1-.47,1.13.87.87,0,1,1,.47-1.13Z"/><path class="cls-8" d="M247.11,388.92a.87.87,0,1,1-1.13-.47A.87.87,0,0,1,247.11,388.92Z"/><path class="cls-8" d="M247.78,385.56a.86.86,0,0,1-.47,1.12.86.86,0,1,1-.66-1.59A.86.86,0,0,1,247.78,385.56Z"/><path class="cls-8" d="M244.26,387a.86.86,0,0,1-.48,1.12.86.86,0,1,1-.65-1.59A.87.87,0,0,1,244.26,387Z"/><path class="cls-8" d="M252.13,396.12a.86.86,0,1,1-1.12-.47A.86.86,0,0,1,252.13,396.12Z"/><path class="cls-8" d="M248.61,397.58a.86.86,0,1,1-1.59.65.86.86,0,1,1,1.59-.65Z"/><path class="cls-8" d="M249.28,394.21a.86.86,0,1,1-1.59.66.85.85,0,0,1,.46-1.13A.87.87,0,0,1,249.28,394.21Z"/><path class="cls-8" d="M250,390.84a.86.86,0,1,1-1.59.66.87.87,0,0,1,.47-1.13A.86.86,0,0,1,250,390.84Z"/><path class="cls-8" d="M246.43,392.29a.87.87,0,0,1-.47,1.13.87.87,0,1,1,.47-1.13Z"/><path class="cls-8" d="M254.31,401.41a.86.86,0,1,1-1.6.65.86.86,0,0,1,1.6-.65Z"/><path class="cls-8" d="M250.79,402.86a.87.87,0,1,1-1.13-.47A.87.87,0,0,1,250.79,402.86Z"/><path class="cls-8" d="M251.46,399.49a.87.87,0,1,1-1.13-.47A.87.87,0,0,1,251.46,399.49Z"/><path class="cls-8" d="M252.13,396.12a.86.86,0,1,1-1.12-.47A.86.86,0,0,1,252.13,396.12Z"/><path class="cls-8" d="M248.61,397.58a.86.86,0,1,1-1.59.65.86.86,0,1,1,1.59-.65Z"/><path class="cls-8" d="M254.31,401.41a.86.86,0,1,1-1.6.65.86.86,0,0,1,1.6-.65Z"/><path class="cls-8" d="M250.79,402.86a.87.87,0,1,1-1.13-.47A.87.87,0,0,1,250.79,402.86Z"/><path class="cls-8" d="M239.9,376.44a.87.87,0,1,1-1.13-.47A.87.87,0,0,1,239.9,376.44Z"/><path class="cls-8" d="M236.38,377.89a.87.87,0,1,1-1.13-.47A.87.87,0,0,1,236.38,377.89Z"/><path class="cls-8" d="M237.05,374.52a.87.87,0,1,1-1.13-.47A.87.87,0,0,1,237.05,374.52Z"/><path class="cls-8" d="M242.08,381.72a.87.87,0,1,1-1.13-.47A.87.87,0,0,1,242.08,381.72Z"/><path class="cls-8" d="M238.55,383.17a.86.86,0,1,1-1.12-.47A.87.87,0,0,1,238.55,383.17Z"/><path class="cls-8" d="M239.22,379.81a.84.84,0,0,1-.47,1.12.85.85,0,0,1-1.12-.46.86.86,0,1,1,1.59-.66Z"/><path class="cls-8" d="M239.9,376.44a.87.87,0,1,1-1.13-.47A.87.87,0,0,1,239.9,376.44Z"/><path class="cls-8" d="M236.38,377.89a.87.87,0,1,1-1.13-.47A.87.87,0,0,1,236.38,377.89Z"/><path class="cls-8" d="M244.26,387a.86.86,0,0,1-.48,1.12.86.86,0,1,1-.65-1.59A.87.87,0,0,1,244.26,387Z"/><path class="cls-8" d="M240.73,388.46a.87.87,0,0,1-.47,1.13.87.87,0,0,1-.66-1.6A.87.87,0,0,1,240.73,388.46Z"/><path class="cls-8" d="M241.4,385.09a.87.87,0,0,1-.47,1.13.87.87,0,0,1-.66-1.6A.87.87,0,0,1,241.4,385.09Z"/><path class="cls-8" d="M242.08,381.72a.87.87,0,1,1-1.13-.47A.87.87,0,0,1,242.08,381.72Z"/><path class="cls-8" d="M238.55,383.17a.86.86,0,1,1-1.12-.47A.87.87,0,0,1,238.55,383.17Z"/><path class="cls-8" d="M246.43,392.29a.87.87,0,0,1-.47,1.13.87.87,0,1,1,.47-1.13Z"/><path class="cls-8" d="M242.91,393.74a.87.87,0,1,1-1.13-.47A.87.87,0,0,1,242.91,393.74Z"/><path class="cls-8" d="M243.58,390.38A.86.86,0,0,1,242,391a.84.84,0,0,1,.46-1.12A.87.87,0,0,1,243.58,390.38Z"/><path class="cls-8" d="M244.26,387a.86.86,0,0,1-.48,1.12.86.86,0,1,1-.65-1.59A.87.87,0,0,1,244.26,387Z"/><path class="cls-8" d="M240.73,388.46a.87.87,0,0,1-.47,1.13.87.87,0,0,1-.66-1.6A.87.87,0,0,1,240.73,388.46Z"/><path class="cls-8" d="M248.61,397.58a.86.86,0,1,1-1.59.65.86.86,0,1,1,1.59-.65Z"/><path class="cls-8" d="M245.09,399a.87.87,0,1,1-1.13-.47A.87.87,0,0,1,245.09,399Z"/><path class="cls-8" d="M245.76,395.66a.87.87,0,1,1-1.13-.47A.87.87,0,0,1,245.76,395.66Z"/><path class="cls-8" d="M246.43,392.29a.87.87,0,0,1-.47,1.13.87.87,0,1,1,.47-1.13Z"/><path class="cls-8" d="M242.91,393.74a.87.87,0,1,1-1.13-.47A.87.87,0,0,1,242.91,393.74Z"/><path class="cls-8" d="M250.79,402.86a.87.87,0,1,1-1.13-.47A.87.87,0,0,1,250.79,402.86Z"/><path class="cls-8" d="M247.94,400.94a.87.87,0,1,1-1.13-.47A.87.87,0,0,1,247.94,400.94Z"/><path class="cls-8" d="M248.61,397.58a.86.86,0,1,1-1.59.65.86.86,0,1,1,1.59-.65Z"/><path class="cls-8" d="M245.09,399a.87.87,0,1,1-1.13-.47A.87.87,0,0,1,245.09,399Z"/><path class="cls-8" d="M250.79,402.86a.87.87,0,1,1-1.13-.47A.87.87,0,0,1,250.79,402.86Z"/><path class="cls-8" d="M236.38,377.89a.87.87,0,1,1-1.13-.47A.87.87,0,0,1,236.38,377.89Z"/><path class="cls-8" d="M238.55,383.17a.86.86,0,1,1-1.12-.47A.87.87,0,0,1,238.55,383.17Z"/><path class="cls-8" d="M236.38,377.89a.87.87,0,1,1-1.13-.47A.87.87,0,0,1,236.38,377.89Z"/><path class="cls-8" d="M235.7,381.26a.87.87,0,0,1-.47,1.13.86.86,0,0,1-1.12-.47.86.86,0,1,1,1.59-.66Z"/><path class="cls-8" d="M240.73,388.46a.87.87,0,0,1-.47,1.13.87.87,0,0,1-.66-1.6A.87.87,0,0,1,240.73,388.46Z"/><path class="cls-8" d="M237.21,389.91a.87.87,0,1,1-1.13-.47A.87.87,0,0,1,237.21,389.91Z"/><path class="cls-8" d="M237.88,386.54a.86.86,0,1,1-1.59.66.86.86,0,0,1,.46-1.13A.87.87,0,0,1,237.88,386.54Z"/><path class="cls-8" d="M238.55,383.17a.86.86,0,1,1-1.12-.47A.87.87,0,0,1,238.55,383.17Z"/><path class="cls-8" d="M242.91,393.74a.87.87,0,1,1-1.13-.47A.87.87,0,0,1,242.91,393.74Z"/><path class="cls-8" d="M239.39,395.2a.86.86,0,0,1-.47,1.12.87.87,0,0,1-1.13-.47.86.86,0,0,1,1.6-.65Z"/><path class="cls-8" d="M240.06,391.83a.86.86,0,0,1-.47,1.12.87.87,0,0,1-1.13-.47.86.86,0,0,1,.47-1.12A.87.87,0,0,1,240.06,391.83Z"/><path class="cls-8" d="M240.73,388.46a.87.87,0,0,1-.47,1.13.87.87,0,0,1-.66-1.6A.87.87,0,0,1,240.73,388.46Z"/><path class="cls-8" d="M237.21,389.91a.87.87,0,1,1-1.13-.47A.87.87,0,0,1,237.21,389.91Z"/><path class="cls-8" d="M245.09,399a.87.87,0,1,1-1.13-.47A.87.87,0,0,1,245.09,399Z"/><path class="cls-8" d="M242.24,397.11a.87.87,0,1,1-1.13-.47A.87.87,0,0,1,242.24,397.11Z"/><path class="cls-8" d="M242.91,393.74a.87.87,0,1,1-1.13-.47A.87.87,0,0,1,242.91,393.74Z"/><path class="cls-8" d="M239.39,395.2a.86.86,0,0,1-.47,1.12.87.87,0,0,1-1.13-.47.86.86,0,0,1,1.6-.65Z"/><path class="cls-8" d="M245.09,399a.87.87,0,1,1-1.13-.47A.87.87,0,0,1,245.09,399Z"/><path class="cls-8" d="M237.21,389.91a.87.87,0,1,1-1.13-.47A.87.87,0,0,1,237.21,389.91Z"/><path class="cls-8" d="M239.39,395.2a.86.86,0,0,1-.47,1.12.87.87,0,0,1-1.13-.47.86.86,0,0,1,1.6-.65Z"/><path class="cls-8" d="M237.21,389.91a.87.87,0,1,1-1.13-.47A.87.87,0,0,1,237.21,389.91Z"/><path class="cls-8" d="M239.39,395.2a.86.86,0,0,1-.47,1.12.87.87,0,0,1-1.13-.47.86.86,0,0,1,1.6-.65Z"/><path class="cls-6" d="M245.77,335.69,272,328.92s7,16.78-8.73,20.82S245.77,335.69,245.77,335.69Z"/><path class="cls-8" d="M269.09,336.82a4,4,0,1,0-2.17,5.21A4,4,0,0,0,269.09,336.82Z"/><path class="cls-6" d="M296.68,339l.22,5.58h0c-2.38,3-6.54,6.1-12.4,2.32-9.28-6-3.35-17.29-3.35-17.29Z"/><path class="cls-8" d="M292.8,336.37a4,4,0,1,0-2.16,5.21A4,4,0,0,0,292.8,336.37Z"/><path class="cls-9" d="M252.9,382.51s10.81-5.32,27.29-1"/><polyline class="cls-4" points="300.65 574.1 278.02 759.54 186.97 759.81 177 581.09"/><path class="cls-4" d="M298.88,787.23H187V759.81h90.44a21.46,21.46,0,0,1,21.46,21.46Z"/><path class="cls-3" d="M251.08,630.56,232.49,759.41h1.79a21.35,21.35,0,0,1,21.35,21.36v6.46"/><path class="cls-3" d="M181.28,483.38s33.23,24.18,82.48,42.67c-.54.29,21.16-83.93,24.54-98.44s-23.45-19.91-27.39-10.81-22.48,51.77-22.48,51.77"/><line class="cls-3" x1="229.08" y1="451.23" x2="241" y2="461.13"/><path class="cls-3" d="M191,416.41a28.65,28.65,0,0,1,14.48-9.19"/><line class="cls-3" x1="256.17" y1="406.44" x2="262.41" y2="414.75"/><path class="cls-10" d="M263.87,412.05l1.73-16.18a8.43,8.43,0,0,1,4.89-6.47l11.71-5.92a15.27,15.27,0,0,1,11.61-.69l2.51.86a2.41,2.41,0,0,1,1.83,2.81l-9.4,33.05S280.49,407.84,263.87,412.05Z"/><path class="cls-3" d="M294.9,417.35l24.84,91.06s40.21,55,34.14,50.45-21.24,4.18-14.41,18.21c-1.14-.75-36.58-26.93-36.58-26.93"/><path class="cls-3" d="M338.79,575.49l17.68,18.74a7.62,7.62,0,0,0,11,.06l12-12.48a7.61,7.61,0,0,0-2.29-12.2l-23.36-10.75"/><line class="cls-3" x1="815.66" y1="693.56" x2="931.15" y2="693.56"/><line class="cls-3" x1="1211.64" y1="693.56" x2="1287.13" y2="693.56"/><path class="cls-1" d="M1102.19,785.83v-4.75a20.75,20.75,0,0,1,20.75-20.75h2.75l-26.5-83L1071.36,562l2.33-26.66L1062.36,526l.66-21.33-85.33,38L966,514l72-44.66L1065,393l14.67-11.66,16.67-4,97,17,20.46,16.5,40.2,68.5,8,28-5,7-48.33,64-9.67-5.67-8,108,53,69-45.33,36.67Z"/><path class="cls-11" d="M1226.67,352.43a8.34,8.34,0,0,1-8.34,8.35c-.36,0-.7,0-1-.06L1201,400.9l-9.13-6.8,20.82-35.55a8.34,8.34,0,1,1,14-6.12Z"/><path class="cls-5" d="M1183.71,568.74l-7.23,1.77a109.71,109.71,0,0,1-71.56-6.68l-45.38-20.65,1.12-16.2,44.52,19.91a109.65,109.65,0,0,0,70.92,6.4l7.61-1.86-3.34,6.38Z"/><path class="cls-10" d="M1206,579.29l-16.39,17.41a15.86,15.86,0,0,1-22.43-.06h0a15.85,15.85,0,0,1,.07-22.43L1182.52,559Z"/><path class="cls-4" d="M1063.51,397a39,39,0,0,1,40.3-19.16l73.9,12.27a58.48,58.48,0,0,1,41,28.27l38.22,65.68a30.75,30.75,0,0,1-2,33.93l-46.72,62.24-26-20.8-1.82-1.45,28.22-55.44a9.56,9.56,0,0,0-1.3-10.63l-33-38"/><polyline class="cls-4" points="1228.2 729.89 1190.31 680.43 1197.61 590.29"/><polyline class="cls-4" points="1072.44 422.26 1058.22 548.61 1072.61 654.23 1189.82 758.33"/><line class="cls-3" x1="1139.54" y1="615.29" x2="1193.69" y2="684.85"/><path class="cls-12" d="M1156.26,505.82l-26.94-5.9a7.08,7.08,0,0,1-5.25-6.69V446.15a4.21,4.21,0,0,1,5.25-4.39l26.94,5.9a7.09,7.09,0,0,1,5.25,6.69v47.09A4.2,4.2,0,0,1,1156.26,505.82Z"/><path class="cls-13" d="M1156.26,505.82l-26.94-5.9a7.08,7.08,0,0,1-5.25-6.69V446.15a4.21,4.21,0,0,1,5.25-4.39l26.94,5.9a7.09,7.09,0,0,1,5.25,6.69v47.09A4.2,4.2,0,0,1,1156.26,505.82Z"/><polygon class="cls-10" points="1149.69 481.54 1133.93 478.08 1133.93 455.23 1149.69 458.69 1149.69 481.54"/><path class="cls-5" d="M1084.31,567.45c0,1.85-1.5,2.65-3.34,1.8l-7.79-3.59a6,6,0,0,1-3.33-4.88V521.63c0-1.84,1.49-2.64,3.33-1.79l7.79,3.59a6,6,0,0,1,3.34,4.88Z"/><path class="cls-5" d="M1116.13,583.05c0,1.85-1.5,2.65-3.34,1.8l-7.79-3.6a6,6,0,0,1-3.34-4.87V537.23c0-1.84,1.5-2.64,3.34-1.79l7.79,3.59a6,6,0,0,1,3.34,4.88Z"/><path class="cls-5" d="M1131.73,657a7.64,7.64,0,0,1-2.17,10.59l-30.11,19.89a8.56,8.56,0,0,1-11.86-2.43l-23.37-35.38a8.56,8.56,0,0,1,2.42-11.86l4.49-3a38.34,38.34,0,0,1,53.14,10.86Z"/><line class="cls-4" x1="1099.45" y1="688.6" x2="1125.18" y2="758.33"/><path class="cls-4" d="M1169.79,786.08h-67V782a23.28,23.28,0,0,1,23.28-23.28"/><path class="cls-4" d="M1189.68,758.72A23.28,23.28,0,0,0,1166.4,782v4.08h34l44.5-35.61-16.69-20.58"/><line class="cls-3" x1="1184.28" y1="758.33" x2="1126.33" y2="758.33"/><line class="cls-3" x1="1228.2" y1="729.89" x2="1189.82" y2="758.33"/><path class="cls-5" d="M1250.28,486.46a6.76,6.76,0,0,1,2.85-7.67l.44-.27a6.73,6.73,0,0,1,10,3.75l3.46,11.46a27.57,27.57,0,0,1-4.06,24.16l-8.11,11.19a5.08,5.08,0,0,1-6.75,1.36l-1.67-1a5.14,5.14,0,0,1-2-6.67l6.1-12.39a24.44,24.44,0,0,0,1.46-17.89Z"/><path class="cls-4" d="M1073.19,319.41a50.23,50.23,0,0,1,50.24-50.24h20.22a50.24,50.24,0,0,1,50.24,50.24V386.3c-18.43,35.08-105.84,31.51-120.7,0Z"/><path class="cls-1" d="M1095.19,371.83A26.16,26.16,0,0,0,1121.35,398h19a26.17,26.17,0,0,0,26.17-26.16V329.42a26.17,26.17,0,0,0-26.17-26.17h-19a26.17,26.17,0,0,0-26.16,26.17Z"/><path class="cls-4" d="M1095.19,371.83A26.16,26.16,0,0,0,1121.35,398h19a26.17,26.17,0,0,0,26.17-26.16V329.42a26.17,26.17,0,0,0-26.17-26.17h-19a26.17,26.17,0,0,0-26.16,26.17Z"/><path class="cls-2" d="M1089.24,310.79v18.62a26,26,0,0,0,6,16.65v-9.52c0-21.07,15.19-27.87,24.14-19.5a16.52,16.52,0,0,0,22.38.12c9.7-8.88,24.83-.44,24.83,19.38v6.76a26.05,26.05,0,0,0,4-13.89V310.79c0-14.46-11.68-28.54-26-28.54h-29.17C1100.9,282.25,1089.24,296.33,1089.24,310.79Z"/><path class="cls-4" d="M1089.24,310.79v18.62a26,26,0,0,0,6,16.65v-9.52c0-21.07,15.19-27.87,24.14-19.5a16.52,16.52,0,0,0,22.38.12c9.7-8.88,24.83-.44,24.83,19.38v6.76a26.05,26.05,0,0,0,4-13.89V310.79c0-14.46-11.68-28.54-26-28.54h-29.17C1100.9,282.25,1089.24,296.33,1089.24,310.79Z"/><path class="cls-14" d="M1134.63,353.8a8.52,8.52,0,1,1,17,0"/><path class="cls-14" d="M1104.9,353.8a8.52,8.52,0,1,1,17,0"/><path class="cls-14" d="M1139,376.59s-20,7.93-32.31-6.14"/><path class="cls-15" d="M1134.63,353.8a8.52,8.52,0,1,1,17,0"/><path class="cls-15" d="M1134.63,353.8a8.52,8.52,0,1,1,17,0"/><path class="cls-15" d="M1104.9,353.8a8.52,8.52,0,1,1,17,0"/><path class="cls-15" d="M1104.9,353.8a8.52,8.52,0,1,1,17,0"/><path class="cls-15" d="M1139,376.59s-20,7.93-32.31-6.14"/><path class="cls-15" d="M1139,376.59s-20,7.93-32.31-6.14"/><path class="cls-1" d="M991.39,564.58l39.47-15.71,15,3.23-39.47,15.71Z"/><polygon class="cls-1" points="1018.43 710.84 1040.32 715.45 1014.44 741.45 981.94 733.95 980.32 725.83 1018.43 710.84"/><path class="cls-16" d="M971.13,704.89l-39.47,15.7a8.43,8.43,0,0,1-4.37.31c-1-.16-2-.35-3-.54-2.08-.4-4.16-.85-6.24-1.25l-2-.45L955.44,703c.77.16,1.41.32,2,.44,2.08.41,4.16.86,6.23,1.26,1,.19,2,.37,3,.53A8.32,8.32,0,0,0,971.13,704.89Z"/><path class="cls-10" d="M916,718.66,955.44,703c.77.16,1.41.32,2,.44,2.08.41,4.16.86,6.23,1.26,1,.19,2,.37,3,.53a8.32,8.32,0,0,0,4.37-.3l-39.47,15.7a8.43,8.43,0,0,1-4.37.31c-1-.16-2-.35-3-.54-2.08-.4-4.16-.85-6.24-1.25l-2-.45"/><path class="cls-16" d="M988.93,762l39.47-15.71c-.14,10.83-.27,21.48-.41,32.1l-39.48,15.71C988.66,783.48,988.79,772.84,988.93,762Z"/><path class="cls-10" d="M988.93,762l39.47-15.71c-.14,10.83-.27,21.48-.41,32.1l-39.48,15.71c.15-10.63.28-21.27.42-32.1"/><path class="cls-16" d="M978,671.06l39.48-15.71c0,.65-.08,1-.08,1.47l-39.47,15.7C977.9,672.11,977.94,671.7,978,671.06Z"/><path class="cls-17" d="M978,671.06l39.48-15.71c0,.65-.08,1-.08,1.47l-39.47,15.7c0-.41,0-.82.07-1.46"/><path class="cls-16" d="M1028.33,768.61l39.48-15.71c-.68.27-.88,1-.89,2.27-.07,10.52-.25,21-.4,31.53L1027,802.41c.16-10.51.34-21,.41-31.54C1027.46,769.56,1027.66,768.88,1028.33,768.61Z"/><path class="cls-10" d="M1028.33,768.61l39.48-15.71c-.68.27-.88,1-.89,2.27-.07,10.52-.25,21-.4,31.53L1027,802.41c.16-10.51.34-21,.41-31.54,0-1.31.21-2,.88-2.26"/><path class="cls-16" d="M979,594.2l39.47-15.7c-.21,15.87-.4,31.65-.6,47.7L978.4,641.9C978.59,625.85,978.79,610.08,979,594.2Z"/><path class="cls-10" d="M979,594.2l39.47-15.7c-.21,15.87-.4,31.65-.6,47.7L978.4,641.9"/><path class="cls-16" d="M918.1,548.89l39.47-15.7c16.63,3.57,33.1,7.12,49.75,10.71l-39.47,15.7Z"/><path class="cls-10" d="M918.1,548.89l39.47-15.7c16.63,3.57,33.1,7.12,49.75,10.71l-39.47,15.7L918.1,548.89"/><path class="cls-16" d="M1061.48,631,1022,646.67a20.71,20.71,0,0,1-5.35,1.27c-5.37.57-10.85-.18-16.35-1.23l-3.11-.62c-5.77-1.18-11.53-2.46-17.3-3.71a13.93,13.93,0,0,1-1.49-.48l39.47-15.7c.59.19,1,.37,1.5.47,5.77,1.25,11.53,2.53,17.3,3.71l3.11.62c5.5,1.06,11,1.8,16.35,1.23A20,20,0,0,0,1061.48,631Z"/><path class="cls-10" d="M979.89,642.38a13.93,13.93,0,0,1-1.49-.48"/><path class="cls-10" d="M978.4,641.9l39.47-15.7c.59.19,1,.37,1.5.47,5.77,1.25,11.53,2.53,17.3,3.71l3.11.62c5.5,1.06,11,1.8,16.35,1.23a20,20,0,0,0,5.35-1.27L1022,646.67"/><path class="cls-10" d="M979.49,669.26l39.47-15.7c-.2,15.88-.34,41.24-.53,57.28L979,726.55"/><path class="cls-3" d="M979,726.55l39.48-15.71a14,14,0,0,0,1.5.48c5.77,1.25,11.53,2.53,17.29,3.71l3.12.62c5.49,1.05,11,1.8,16.34,1.23a20.61,20.61,0,0,0,5.35-1.27"/><path class="cls-16" d="M968.25,527.38l39.48-15.71,23.55,5.08-39.48,15.7Z"/><path class="cls-10" d="M968.25,527.38l39.48-15.71,23.55,5.08-39.48,15.7-23.55-5.07"/><path class="cls-16" d="M991.8,532.45l39.48-15.7c-.15,10.7-.28,21.38-.42,32.12l-39.47,15.71C991.53,553.84,991.66,543.15,991.8,532.45Z"/><path class="cls-10" d="M991.8,532.45l39.48-15.7c-.15,10.7-.28,21.38-.42,32.12l-39.47,15.71c.14-10.74.27-21.43.41-32.13"/><path class="cls-10" d="M1053.28,765.09l38.53-15.32a35.75,35.75,0,0,0,7.35-3.93c14.72-10.22,21-26.29,17.32-48.53a55.42,55.42,0,0,0-15.78-30.5c-5.39-5.39-11.39-9.06-17.57-12.4a5.26,5.26,0,0,1-1.84-1.52l-39,14.5"/><path class="cls-16" d="M1006.78,535.68,1046.26,520l23.53,5.07-39.47,15.71Z"/><path class="cls-10" d="M1006.78,535.68,1046.26,520l23.53,5.07-39.47,15.71-23.54-5.07"/><path class="cls-10" d="M1050.57,666l39.47-15.7a33.17,33.17,0,0,0,16.51-13.73,41.86,41.86,0,0,0,5.94-24,55.46,55.46,0,0,0-13.71-34.77,60.4,60.4,0,0,0-22.49-16.43,30.54,30.54,0,0,0-4.56-1.79c-2-.49-2.35-1.63-2.3-3.78.21-9.37.28-18.78.4-28.18,0-.84,0-1.69,0-2.53l-39.47,15.71.22,33.28"/><path class="cls-11" d="M1077,713c3.71,22.24-2.6,38.32-17.31,48.53-8.86,6.15-19.24,7.53-30.11,6.94-1.7-.09-2.12.48-2.13,2.39-.07,10.53-.25,21-.41,31.54l-23.53-5.07q.19-16,.39-32.11l-15-3.22c-.14,10.83-.27,21.47-.42,32.1L965,789c.14-10.7.27-21.39.41-32.36L915.61,746c.12-9.22.23-18.16.35-27.31l2,.45c2.08.4,4.16.85,6.24,1.25,1,.19,2,.38,3,.54,5.34.82,8-1.83,8.28-8,.13-2.77.28-5.53.31-8.31q.64-50.14,1.26-100.29c.05-4.53,0-9.08,0-13.62-.09-6.2-2.75-10.12-8-11.64-3.14-.89-6.29-1.51-9.44-2.27-.63-.15-1.26-.33-1.88-.51.12-9.17.23-18.11.35-27.34l49.75,10.71c.14-10.92.27-21.57.4-32.22l23.55,5.07c-.14,10.7-.27,21.39-.41,32.13l15,3.23c.13-10.84.26-21.49.4-32.13l23.54,5.07c0,.84,0,1.68,0,2.52-.12,9.4-.18,18.82-.4,28.19,0,2.14.34,3.28,2.3,3.78a30.48,30.48,0,0,1,4.56,1.78,60.54,60.54,0,0,1,22.49,16.43A55.45,55.45,0,0,1,1073,628.23a41.73,41.73,0,0,1-5.94,24c-5.6,9.06-13.76,13.62-23.26,15.81-.67.16-1.34.36-2,.55a5.23,5.23,0,0,0,1.85,1.53c6.17,3.34,12.17,7,17.56,12.4A55.39,55.39,0,0,1,1077,713Zm-42.43-2.13c.5-11-4.3-21.12-13-27.09a47.53,47.53,0,0,0-16-6.74c-8.67-2.14-17.35-3.89-26-5.81-.54-.1-1-.12-1.53-.18,0,.64-.08,1.05-.07,1.46-.18,13.86-.38,27.72-.5,41.59,0,3,.12,6,.33,9.06.19,2.49,1.32,4.23,3.36,4.78,5.69,1.53,11.39,3,17.08,4.17l.88.18a118.62,118.62,0,0,0,13.88,1.83,18.1,18.1,0,0,0,13.76-4.43c5.08-4.5,7.49-10.84,7.87-18.82M979,594.2c-.21,15.88-.41,31.65-.6,47.7a13.93,13.93,0,0,0,1.49.48c5.77,1.25,11.53,2.53,17.3,3.71l3.11.62c5.5,1,11,1.8,16.35,1.23,5-.54,9.44-2.5,12.39-7.07,6.68-10.34,3.56-30-11.1-36.56a65.34,65.34,0,0,0-10.92-3.93c-8.85-2.19-17.71-4-26.56-6-.51-.1-1-.11-1.46-.17"/><path class="cls-1" d="M1060.8,518.68a24.09,24.09,0,0,1-2.49,1l-13.15,4.28a5.06,5.06,0,0,1-6.25-2.89l-.36-.85-61.24,22-2.22-1.45h-48a3.9,3.9,0,0,1-3.9-3.89v-2.72A12.17,12.17,0,0,1,933,522.21l33.77-6.68v-.93l62.94-39.46a24.21,24.21,0,0,0,10-12.44l21-59.33a38.11,38.11,0,0,1,2.9-6.35Z"/><path class="cls-4" d="M1060.2,512.38l-82.88,29.81-10.57-27.58,62.94-39.47a24.19,24.19,0,0,0,10-12.44l21-59.33a38.55,38.55,0,0,1,2.9-6.35"/><path class="cls-5" d="M1063.57,494.89l-2.77,23.79a26.68,26.68,0,0,1-2.49,1l-13.15,4.27a5.08,5.08,0,0,1-6.25-2.88l-.76-1.81a5.13,5.13,0,0,1,2.36-6.53l12.23-6.43A24.45,24.45,0,0,0,1063.57,494.89Z"/><path class="cls-3" d="M966.74,515.53,933,522.22a12.15,12.15,0,0,0-9.79,11.92v2.72a3.89,3.89,0,0,0,3.89,3.89h48"/><path class="cls-2" d="M649.13,436.23c0,165.69-37.61,300-84,300H534.07c46.39,0,84-134.31,84-300s-37.61-300-84-300h31.06C611.52,136.23,649.13,270.54,649.13,436.23Z"/><line class="cls-3" x1="124.19" y1="168.59" x2="435.67" y2="168.59"/><line class="cls-3" x1="818.66" y1="168.59" x2="1246.1" y2="168.59"/><polyline class="Graphic-Style-21" points="377.66 264.82 344.18 228.13 225.69 228.13"/><polyline class="Graphic-Style-21" points="1294.16 471.54 1330.87 505.03 1330.87 567.52"/><polyline class="Graphic-Style-21" points="1019.02 242.03 1042.38 216.43 1097.43 216.43"/><polyline class="cls-3" points="436.68 246.48 435.68 168.59 477.86 127.41"/><polyline class="cls-18" points="725.66 272.86 725.66 834.56 815.66 834.56 815.66 39.09 725.66 39.09 725.66 148.96"/><ellipse class="cls-4" cx="534.07" cy="436.23" rx="84" ry="300"/><path class="cls-3" d="M534.07,136.23h31.06c46.39,0,84,134.31,84,300s-37.61,300-84,300H534.07"/><path class="cls-3" d="M506.08,215.75h14.54c21.73,0,39.35,96.53,39.35,215.6S542.35,647,520.62,647H506.08"/><polygon class="cls-11" points="518.74 408.88 481.52 407.69 481.52 390.72 518.74 388.57 518.74 408.88"/><polygon class="cls-5" points="492.49 435.71 481.52 433.84 481.52 416.87 492.49 417.75 492.49 435.71"/><polygon class="cls-5" points="504.81 437.8 492.49 435.71 492.49 417.75 504.81 418.74 504.81 437.8"/><polygon class="cls-5" points="518.74 440.17 504.81 437.8 504.81 418.74 518.74 419.86 518.74 440.17"/><polygon class="cls-5" points="492.49 453.66 481.52 450.81 481.52 433.84 492.49 435.71 492.49 453.66"/><polygon class="cls-5" points="504.81 456.86 492.49 453.66 492.49 435.71 504.81 437.8 504.81 456.86"/><polygon class="cls-5" points="518.74 460.48 504.81 456.86 504.81 437.8 518.74 440.17 518.74 460.48"/><polygon class="cls-5" points="492.49 471.61 481.52 467.78 481.52 450.81 492.49 453.66 492.49 471.61"/><polygon class="cls-5" points="504.81 475.92 492.49 471.61 492.49 453.66 504.81 456.86 504.81 475.92"/><polygon class="cls-5" points="504.81 494.98 492.49 489.57 492.49 471.61 504.81 475.92 504.81 494.98"/><polygon class="cls-5" points="518.74 480.78 504.81 475.92 504.81 456.86 518.74 460.48 518.74 480.78"/><path class="cls-5" d="M523.74,187.31c0-7.51-2.26-13.59-5-13.6s-5,6.09-5,13.6,2.25,13.6,5,13.6S523.74,194.82,523.74,187.31Z"/><path class="cls-3" d="M526.77,200.91c2.78,0,5-6.09,5-13.6s-2.25-13.59-5-13.6"/><path class="cls-5" d="M567.37,249c0-7.51-2.25-13.6-5-13.6s-5,6.09-5,13.6,2.26,13.59,5,13.59S567.37,256.51,567.37,249Z"/><path class="cls-3" d="M570.4,262.59c2.78,0,5-6.08,5-13.59s-2.26-13.6-5-13.6"/><path class="cls-5" d="M583,338.23c0-7.51-2.25-13.6-5-13.6s-5,6.09-5,13.6,2.26,13.6,5,13.6S583,345.74,583,338.23Z"/><path class="cls-3" d="M586,351.83c2.78,0,5-6.09,5-13.6s-2.26-13.6-5-13.6"/><path class="cls-5" d="M587,437.8c0-7.51-2.26-13.6-5-13.6s-5,6.09-5,13.6,2.25,13.6,5,13.6S587,445.31,587,437.8Z"/><path class="cls-3" d="M590.06,451.4c2.78,0,5-6.09,5-13.6s-2.25-13.6-5-13.6"/><path class="cls-5" d="M583,525.12c0-7.51-2.25-13.6-5-13.6s-5,6.09-5,13.6,2.26,13.59,5,13.59S583,532.63,583,525.12Z"/><path class="cls-3" d="M586,538.71c2.78,0,5-6.08,5-13.59s-2.26-13.6-5-13.6"/><path class="cls-5" d="M564.86,625.73c0-7.51-2.26-13.6-5-13.6s-5,6.09-5,13.6,2.25,13.6,5,13.6S564.86,633.24,564.86,625.73Z"/><path class="cls-3" d="M567.89,639.33c2.78,0,5-6.09,5-13.6s-2.25-13.6-5-13.6"/><path class="cls-5" d="M519.74,686.73c0-7.51-2.25-13.6-5-13.6s-5,6.09-5,13.6,2.25,13.6,5,13.6S519.74,694.24,519.74,686.73Z"/><path class="cls-3" d="M522.77,700.33c2.78,0,5-6.09,5-13.6s-2.26-13.6-5-13.6"/><polyline class="Graphic-Style-21" points="654.13 69.23 654.13 120.23 673.1 134.2 673.1 267.23"/><line class="Graphic-Style-21" x1="690.07" y1="229.23" x2="690.07" y2="338.23"/><line class="Graphic-Style-21" x1="690.07" y1="525.12" x2="690.07" y2="686.73"/><polyline class="cls-3" points="565.73 775.76 435.68 726.22 435.68 577.51"/><path class="Graphic-Style-21" d="M644.18,755c0-4.93,2.21-8.92,5-8.92s5,4,5,8.92-2.22,8.92-5,8.92S644.18,759.92,644.18,755Z"/><path class="Graphic-Style-21" d="M650,169.56c0-5.67,2.55-10.27,5.7-10.27s5.7,4.6,5.7,10.27-2.55,10.28-5.7,10.28S650,175.24,650,169.56Z"/><path class="Graphic-Style-21" d="M650,200.91c0-5.67,2.55-10.27,5.7-10.27s5.7,4.6,5.7,10.27-2.55,10.28-5.7,10.28S650,206.59,650,200.91Z"/><line class="cls-4" x1="725.66" y1="788.56" x2="725.66" y2="834.56"/></svg>