<svg id="work" xmlns="http://www.w3.org/2000/svg" viewBox="0 0 1422 870"><defs><style>.cls-1,.cls-11,.cls-18,.cls-6{fill:#fff;}.cls-2,.cls-9{fill:#ebebeb;}.cls-10,.cls-16,.cls-17,.cls-20,.cls-21,.cls-3,.cls-4,.cls-5,.cls-8{fill:none;}.cls-10,.cls-11,.cls-13,.cls-14,.cls-16,.cls-19,.cls-20,.cls-3,.cls-4,.cls-5,.cls-6,.cls-9{stroke:#4a4a4a;}.cls-10,.cls-13,.cls-16,.cls-18,.cls-19,.cls-3,.cls-9{stroke-miterlimit:10;}.cls-14,.cls-19,.cls-3,.cls-4,.cls-8{stroke-width:4px;}.cls-11,.cls-14,.cls-16,.cls-17,.cls-20,.cls-21,.cls-4,.cls-5,.cls-6,.cls-8{stroke-linecap:round;}.cls-11,.cls-14,.cls-17,.cls-20,.cls-21,.cls-4,.cls-5,.cls-6,.cls-8{stroke-linejoin:round;}.cls-10,.cls-11,.cls-13,.cls-16,.cls-17,.cls-21,.cls-5,.cls-9{stroke-width:2.5px;}.cls-20,.cls-6{stroke-width:1.5px;}.cls-7{fill:#ff0083;}.cls-21,.cls-8{stroke:#494949;}.cls-12{fill:#ec1e81;}.cls-13,.cls-14,.cls-15,.cls-19{fill:#ebeaea;}.cls-17,.cls-18{stroke:#4a5999;}.cls-22{fill:#494949;}.cls-23{fill:#f2f2f2;}</style></defs><title>8,1</title><path class="cls-1" d="M196.76,598.63S188.4,423.51,331.74,430c82,0,107.33,79.45,120.66,168.63Z"/><path class="cls-2" d="M1160.83,524.64a4.24,4.24,0,0,0,4.11,5.26h54.18a3.73,3.73,0,0,0,3.65-4.77l-10.25-35.56h-43Z"/><path class="cls-3" d="M1160.83,524.64a4.24,4.24,0,0,0,4.11,5.26h54.18a3.73,3.73,0,0,0,3.65-4.77l-10.25-35.56h-43Z"/><path class="cls-2" d="M1182,499.57h18.19c19,0,26.08-15.4,26.08-34.41V336.39A34.41,34.41,0,0,0,1191.88,302h0a34.41,34.41,0,0,0-34.42,34.41V465.16C1157.46,484.17,1163,499.57,1182,499.57Z"/><path class="cls-3" d="M1182,499.57h18.19c19,0,26.08-15.4,26.08-34.41V336.39A34.41,34.41,0,0,0,1191.88,302h0a34.41,34.41,0,0,0-34.42,34.41V465.16C1157.46,484.17,1163,499.57,1182,499.57Z"/><path class="cls-1" d="M1058.89,582V775.69h-9.52A19.28,19.28,0,0,0,1030.1,795v9h162.46V775.7h0V528.82l1.74-4.18a9,9,0,0,0,.7-3.48V464.42l3.67-6.63a33.42,33.42,0,0,0,4.13-16.09V356.36a46.11,46.11,0,0,0-46.1-46.11h-85.86a46.1,46.1,0,0,0-46.11,46.11V524.92h6.33v33.66A23.42,23.42,0,0,0,1054.5,582Z"/><path class="cls-4" d="M1119.39,310.25h37.33a46.1,46.1,0,0,1,46.1,46.11v85.33a33.26,33.26,0,0,1-4.14,16.09l-3.66,6.64v56.74a9,9,0,0,1-.7,3.48l-1.74,4.18V775.69H1058.89V524.92h-34.14V356.36a46.1,46.1,0,0,1,46.1-46.11Z"/><path class="cls-5" d="M1058.89,582h-4.39a23.42,23.42,0,0,1-23.42-23.42V524.92h27.81Z"/><polyline class="cls-5" points="1052.56 377.58 1052.56 523.43 1195.02 523.43"/><line class="cls-5" x1="1118.42" y1="561.02" x2="1118.42" y2="775.69"/><path class="cls-5" d="M1158.35,394.53V426a13.54,13.54,0,0,1-13.54,13.54h-22.68V475h55.62c7.38,0,14.61-6.24,17.12-11.31"/><path class="cls-5" d="M1122.13,445.4l-27.48-14.52a10.54,10.54,0,0,0-15,6.27l-4.76,15.73a10.55,10.55,0,0,0,8.74,13.51l38.52,5"/><path class="cls-6" d="M1090.37,296.59c12,7.32,21,7.81,33.42,0"/><path class="cls-6" d="M1099.15,273.42a10.74,10.74,0,1,0-21.47,0"/><path class="cls-6" d="M1134.52,273.42a10.74,10.74,0,1,0-21.47,0"/><path class="cls-4" d="M1030.1,795v9h75.13v-9a19.28,19.28,0,0,1,12.2-17.93v-1.35h-68.06A19.28,19.28,0,0,0,1030.1,795Z"/><path class="cls-4" d="M1192.57,775.69h-68.06A19.28,19.28,0,0,0,1105.23,795v9h87.34Z"/><path class="cls-5" d="M1087.44,467l-4.61-.59a10.55,10.55,0,0,1-8.74-13.51l4.76-15.74a10.54,10.54,0,0,1,15-6.26l11.67,6.16,15.81,8.35"/><path class="cls-7" d="M1063.87,400.46l4.29,62.06a5.83,5.83,0,0,0,6.24,5.43l13.82-1-4.61-.59a10.55,10.55,0,0,1-8.74-13.51l4.76-15.74a10.54,10.54,0,0,1,15-6.26l11.67,6.16-2.72-39.35a5.86,5.86,0,0,0-6.25-5.43l-28,2A5.83,5.83,0,0,0,1063.87,400.46Z"/><path class="cls-5" d="M1063.87,400.46l4.29,62.06a5.83,5.83,0,0,0,6.24,5.43l13.82-1-4.61-.59a10.55,10.55,0,0,1-8.74-13.51l4.76-15.74a10.54,10.54,0,0,1,15-6.26l11.67,6.16-2.72-39.35a5.86,5.86,0,0,0-6.25-5.43l-28,2A5.83,5.83,0,0,0,1063.87,400.46Z"/><path class="cls-4" d="M1191.57,229.08c0-38.6-27.36-65.77-66-65.77h-14.47c-38.6,0-73.83,27.17-73.83,65.77v73.33h0c0,22.83,35.14,42.7,77.73,42.7s76.53-19.87,76.53-42.7h0Z"/><path class="cls-1" d="M1161.27,294.75c0,18.18-15.91,33.83-34.09,33.83h-22.12c-18.18,0-31.94-15.65-31.94-33.83V246.68a26,26,0,0,1,26-26h36.07a26,26,0,0,1,26,26Z"/><path class="cls-4" d="M1161.27,261.1v33.65c0,18.18-15.91,33.83-34.09,33.83h-22.12c-18.18,0-31.94-15.65-31.94-33.83V255.59"/><path class="cls-8" d="M1161.27,294.75c0,18.18-15.91,33.83-34.09,33.83h-22.12c-18.18,0-31.94-15.65-31.94-33.83V246.68a26,26,0,0,1,26-26h36.07a26,26,0,0,1,26,26Z"/><path class="cls-8" d="M1161.27,261.1v33.65c0,18.18-15.91,33.83-34.09,33.83h-22.12c-18.18,0-31.94-15.65-31.94-33.83V255.59"/><path class="cls-5" d="M1085.22,269.9a9.19,9.19,0,0,1,18.37,0"/><path class="cls-5" d="M1120,269.9a9.18,9.18,0,1,1,18.36,0"/><path class="cls-5" d="M1096,296.46c18.68,17.48,34.66,0,34.66,0"/><path class="cls-2" d="M1129.3,186.86c-15.61-2.29-26,1.35-39.94,9.64-10.81,6.43-20.59-5.48-20.59-5.48-7.81,21.58-1.16,63.06,4.35,70.23V248.37c0-9.06,5.45-22.74,13.48-21.11,27.19,5.51,30.81-13.91,57.67-1.25,7,3.32,9,15.71,10.74,25.88.78,4.56,5.29,12.9,5.29,12.9l0,1c5.57-8.27,7.55-33.47,5.09-46.62C1162.78,205.44,1152.88,190.33,1129.3,186.86Z"/><path class="cls-4" d="M1129.3,186.86c-15.61-2.29-26,1.35-39.94,9.64-10.81,6.43-20.59-5.48-20.59-5.48-7.81,21.58-1.16,63.06,4.35,70.23V248.37c0-9.06,5.45-22.74,13.48-21.11,27.19,5.51,30.81-13.91,57.67-1.25,7,3.32,9,15.71,10.74,25.88.78,4.56,5.29,12.9,5.29,12.9l0,1c5.57-8.27,7.55-33.47,5.09-46.62C1162.78,205.44,1152.88,190.33,1129.3,186.86Z"/><path class="cls-8" d="M1129.3,186.86c-15.61-2.29-26,1.35-39.94,9.64-10.81,6.43-20.59-5.48-20.59-5.48-7.81,21.58-1.16,63.06,4.35,70.23V248.37c0-9.06,5.45-22.74,13.48-21.11,27.19,5.51,30.81-13.91,57.67-1.25,7,3.32,9,15.71,10.74,25.88.78,4.56,5.29,12.9,5.29,12.9l0,1c5.57-8.27,7.55-33.47,5.09-46.62C1162.78,205.44,1152.88,190.33,1129.3,186.86Z"/><path class="cls-8" d="M1129.3,186.86c-15.61-2.29-26,1.35-39.94,9.64-10.81,6.43-20.59-5.48-20.59-5.48-7.81,21.58-1.16,63.06,4.35,70.23V248.37c0-9.06,5.45-22.74,13.48-21.11,27.19,5.51,30.81-13.91,57.67-1.25,7,3.32,9,15.71,10.74,25.88.78,4.56,5.29,12.9,5.29,12.9l0,1c5.57-8.27,7.55-33.47,5.09-46.62C1162.78,205.44,1152.88,190.33,1129.3,186.86Z"/><path class="cls-1" d="M684.5,803.51l3-28.5-7-322.5s-32,1-34.5-48.5c-1.5-54-6-80.5,35-96,12.5-2.5,144-1.5,144-1.5,28.5,5,38,30,38.5,55.5s-.5,157-.5,157l-4.5,3-2,44-5.5,8.5L838.5,579H827l-8.5,193.5,15,2,7.21,4.75,5.64,9.5L846,803Z"/><rect class="cls-9" x="764.04" y="359.17" width="51.95" height="76.55" rx="7.29" ry="7.29" transform="translate(1580.02 794.89) rotate(-180)"/><rect class="cls-10" x="764.04" y="359.17" width="51.95" height="76.55" rx="7.29" ry="7.29" transform="translate(1580.02 794.89) rotate(-180)"/><rect class="cls-11" x="780.44" y="375.57" width="21.87" height="30.07" transform="translate(1582.75 781.22) rotate(180)"/><polygon class="cls-12" points="640.54 249.29 670.51 311.96 661.22 318.37 637.38 250.77 640.54 249.29"/><path class="cls-12" d="M644.31,243.07a8.53,8.53,0,1,1-8.52-8.52A8.51,8.51,0,0,1,644.31,243.07Z"/><path class="cls-1" d="M756.3,438.61l30.53-7.6a10.67,10.67,0,0,1,13.24,9.81l.86,16.62a10.68,10.68,0,0,1-11.87,11.16L750,464.15Z"/><path class="cls-5" d="M756.3,438.61l30.53-7.6a10.67,10.67,0,0,1,13.24,9.81l.86,16.62a10.68,10.68,0,0,1-11.87,11.16L750,464.15"/><path class="cls-5" d="M785.15,468.25l4.68.54a10.68,10.68,0,0,0,11.87-11.16L800.84,441a10.66,10.66,0,0,0-13.24-9.8l-13,3.22-17.57,4.36"/><path class="cls-7" d="M824.48,408.59l-19.29,60a5.91,5.91,0,0,1-7.46,3.83l-13.35-4.31,4.68.54a10.68,10.68,0,0,0,11.87-11.16l-.85-16.62a10.67,10.67,0,0,0-13.25-9.8l-13,3.22,12.22-38a6,6,0,0,1,7.47-3.82l27.09,8.74A5.91,5.91,0,0,1,824.48,408.59Z"/><path class="cls-5" d="M824.48,408.59l-19.29,60a5.91,5.91,0,0,1-7.46,3.83l-13.35-4.31,4.68.54a10.68,10.68,0,0,0,11.87-11.16l-.85-16.62a10.67,10.67,0,0,0-13.25-9.8l-13,3.22,12.22-38a6,6,0,0,1,7.47-3.82l27.09,8.74A5.91,5.91,0,0,1,824.48,408.59Z"/><path class="cls-4" d="M716.63,306H694.09c-27.62,0-49.39,22.6-49.39,50.22v49.85a48.14,48.14,0,0,0,39.19,47.3L750.74,466l5.88-32.55-40.68-15.58a30.18,30.18,0,0,1-19.38-28.17v-17"/><path class="cls-5" d="M831.11,522H858v36.9c0,11.71-8.89,20.69-24.27,20.69h-6.85"/><path class="cls-4" d="M863.42,419.5V356.26A50.5,50.5,0,0,0,813.05,306H792"/><path class="cls-13" d="M863.28,418.13h1.28a5.7,5.7,0,0,1,5.7,5.7v36.27a6.34,6.34,0,0,1-6.34,6.34h-.64a12.16,12.16,0,0,1-12.16-12.16v-24A12.16,12.16,0,0,1,863.28,418.13Z" transform="translate(1721.38 884.56) rotate(-180)"/><path class="cls-4" d="M830.45,522H858c2.94,0,5.46-1.34,5.46-4.27V466"/><path class="cls-14" d="M846.64,803.63H752.69l2.07-30.07h71.58a20.67,20.67,0,0,1,20.83,22.38Z"/><polyline class="cls-4" points="828.49 522.02 818.93 773.56 755.51 773.56"/><path class="cls-13" d="M788.74,700.92l30-.38A14.68,14.68,0,0,0,833,686.22l1-37.15a13.32,13.32,0,0,0-13.43-14l-19,.24c-16.86.21-30.9,14.37-31.37,31.63l-.39,14.2C769.45,692.21,778,701.05,788.74,700.92Z"/><path class="cls-14" d="M775.84,803.63H684.52l2.08-30.07h68.94a20.67,20.67,0,0,1,20.83,22.38Z"/><polyline class="cls-4" points="680.59 453.41 686.57 773.56 752.52 773.56 759.98 600.71"/><path class="cls-13" d="M717.94,700.92l30-.38a14.68,14.68,0,0,0,14.2-14.32l1-37.15a13.33,13.33,0,0,0-13.43-14l-19,.24c-16.86.21-30.9,14.37-31.37,31.63l-.39,14.2C698.65,692.21,707.15,701.05,717.94,700.92Z"/><polygon class="cls-15" points="684.07 517.49 829.07 517.49 829.07 494.49 683.56 493.32 684.07 517.49"/><line class="cls-16" x1="829.25" y1="519.67" x2="829.25" y2="394.89"/><line class="cls-10" x1="829.25" y1="493.32" x2="807.38" y2="493.32"/><line class="cls-10" x1="807.38" y1="517.92" x2="829.25" y2="517.92"/><line class="cls-10" x1="732.03" y1="517.92" x2="794.45" y2="517.92"/><line class="cls-5" x1="682.56" y1="517.92" x2="732.03" y2="517.92"/><line class="cls-5" x1="732.03" y1="493.32" x2="682.56" y2="493.32"/><line class="cls-10" x1="794.45" y1="493.32" x2="732.03" y2="493.32"/><rect class="cls-13" x="795.69" y="474.18" width="19.14" height="73.82" rx="5.47" ry="5.47" transform="translate(1610.52 1022.18) rotate(-180)"/><rect class="cls-13" x="733.35" y="474.18" width="19.14" height="73.82" rx="5.47" ry="5.47" transform="translate(1485.83 1022.18) rotate(-180)"/><path class="cls-4" d="M677.5,226.41c0-38.32,27.16-65.28,65.47-65.28h14.36c38.32,0,73.28,27,73.28,65.28V299.2h0c0,22.65-34.87,42.38-77.15,42.38s-76-19.73-76-42.38h0Z"/><path class="cls-17" d="M774.85,265.94a9.11,9.11,0,1,0-18.22,0"/><path class="cls-17" d="M739.31,265.94a9.12,9.12,0,1,0-18.23,0"/><path class="cls-17" d="M761,296.92c-11.63,3.19-32.59,2.28-38.74-6.83"/><path class="cls-18" d="M800.9,260.92c-1.2-2.95-1.11-15.05-1.3-22.22s-2.13-8.43-4.44-12.62S787.51,217.61,782,218s-14.25,6-16.24,8.63-5.29,2.17-15-.77-8.88-5.34-18.23-5.25-12.94,3.26-17.68,10-2.47,40.4-2.47,40.4v18.61c0,18.05,16,33.56,34,33.56h22c18,0,31.61-15.51,31.61-33.56V268.87l1,0S802.1,263.88,800.9,260.92Z"/><path class="cls-4" d="M799.79,255.46v34.17c0,18.05-13.42,32.81-31.47,32.81h-22c-18,0-34.08-14.76-34.08-32.81V250"/><path class="cls-19" d="M764.28,180.27H746.05c-23.56,0-39.22,17.22-39.22,40.78v9.57c0,9.18,0,18.64,5.46,25.76V243.6c0-9,2.7-16.42,9.14-21.39s17.34-5.11,23.4.35A19.81,19.81,0,0,0,757.19,227c4.44,0,9-1.3,12-4.1,5.94-5.55,12.23-6.51,19.42-2.71,6.83,3.62,11.16,12,11.16,22.19V259.9l1.11,1c5.53-8.2,7.09-19.7,7.09-29.62v-9.56C808,198.08,787.93,180.27,764.28,180.27Z"/><path class="cls-5" d="M736.24,265.94a9.12,9.12,0,1,1,18.23,0"/><path class="cls-5" d="M771.78,265.94a9.12,9.12,0,1,1,18.23,0"/><path class="cls-5" d="M781.42,296.92c-11.62,3.19-32.58,2.28-38.73-6.83"/><path class="cls-15" d="M648.47,412.86l-1.24.31c-6.58,1.26-10.3,10.07-5.68,18.23a60.87,60.87,0,0,0,22.23,22.49c8.1,4.72,17,1.09,18.29-5.46.06-.21.11-.42.17-.62a7.11,7.11,0,0,0-4-8.05,41.7,41.7,0,0,1-22.62-23.21A6.26,6.26,0,0,0,648.47,412.86Z"/><path class="cls-10" d="M648.47,412.86l-1.24.31c-6.58,1.26-10.3,10.07-5.68,18.23a60.87,60.87,0,0,0,22.23,22.49c8.1,4.72,17,1.09,18.29-5.46.06-.21.11-.42.17-.62a7.11,7.11,0,0,0-4-8.05,41.7,41.7,0,0,1-22.62-23.21A6.26,6.26,0,0,0,648.47,412.86Z"/><path class="cls-5" d="M898.87,338.06c23.34-12.11,65-23.05,112.78,13.38"/><path class="cls-5" d="M879.07,351.44a75.65,75.65,0,0,1,8.43-6.56"/><polyline class="cls-5" points="1007.26 331.57 1013 352.66 990.83 352.66"/><path class="cls-5" d="M993.22,307.4c-22.85-13-64.11-25.52-113.2,9.07"/><path class="cls-5" d="M1012.5,321.52a76.2,76.2,0,0,0-8.17-6.88"/><polyline class="cls-5" points="885.16 296.78 878.62 317.63 900.77 318.48"/><path class="cls-5" d="M483.77,280A128.14,128.14,0,0,0,355.63,151.82H296.41A128.14,128.14,0,0,0,168.27,280V598.63h315.5Z"/><path class="cls-7" d="M369,498.82l-21-5.11a12.7,12.7,0,0,1-23.55,1.09L304,502.49l.84-29.66L325,483.24A12.7,12.7,0,0,1,346.23,482l18.34-12.5Z"/><path class="cls-5" d="M324.47,494.8,304,502.49l.84-29.66L325,483.24h0a12.75,12.75,0,0,0-.52,11.55Z"/><path class="cls-5" d="M348,493.71a12.87,12.87,0,0,0,.61-2.59,12.65,12.65,0,0,0-2.4-9.14l18.34-12.5L369,498.82Z"/><path class="cls-5" d="M348.63,491.12a12.7,12.7,0,1,0-14.19,11A12.71,12.71,0,0,0,348.63,491.12Z"/><path class="cls-7" d="M959.69,262.78l-9.27,1.63q-.95-5.39-1.9-10.79l-5.9,1,1.9,10.8-9.27,1.63c-.63-3.59-1.27-7.19-1.92-10.87l-19.6,3.46c-.55-3.1-1.08-6.1-1.62-9.18l.81-.14c1.21-.24,2.43-.44,3.64-.72,2.08-.48,2.92-1.74,2.63-3.85-.13-.94-.25-1.89-.41-2.83q-3-16.85-5.95-33.7c-.27-1.52-.58-3-.89-4.55a3.11,3.11,0,0,0-3.8-2.75c-1.25.14-2.49.38-3.73.57l-.75.1c-.54-3.08-1.07-6.09-1.62-9.19l19.6-3.46c-.65-3.67-1.28-7.25-1.91-10.83l9.27-1.63q.94,5.39,1.9,10.79l5.9-1-1.9-10.8,9.27-1.63c.06.28.12.56.17.83.56,3.17,1.14,6.32,1.66,9.49.12.72.34,1.05,1.12.93A14.09,14.09,0,0,1,949,186a20,20,0,0,1,9.6,2.32,14.69,14.69,0,0,1,6.72,18.55,17.81,17.81,0,0,1-7.82,8.57c-.25.15-.49.31-.73.47a1.6,1.6,0,0,0,.8.25,24,24,0,0,1,7.47,1.66,14.51,14.51,0,0,1,8,8c2.83,6.91,1.47,13.18-3.47,18.67a24.18,24.18,0,0,1-11,6.58c-.65.21-.77.47-.65,1.1C958.47,255.7,959.08,259.24,959.69,262.78Zm-27.06-37c0,.22,0,.36.06.5.83,4.66,1.64,9.32,2.48,14,.18,1,.43,2,.71,3a1.37,1.37,0,0,0,1.58,1.13c2.26-.3,4.52-.6,6.76-1A57.19,57.19,0,0,0,950,242a9.42,9.42,0,0,0,4.94-3.43,9.74,9.74,0,0,0,1.79-7.41,8.22,8.22,0,0,0-6.68-7.22,18.55,18.55,0,0,0-6.52,0c-3.44.51-6.85,1.15-10.27,1.74C933,225.68,932.86,225.75,932.63,225.81ZM930.92,216c.23,0,.42,0,.6-.05,2.27-.4,4.54-.79,6.81-1.21a29.5,29.5,0,0,0,7.52-2.14,8.12,8.12,0,0,0,4.25-4.11c1.87-4.4-.57-10.53-6.56-10.65a26.87,26.87,0,0,0-4.4.23c-3.51.52-7,1.16-10.48,1.75a5.41,5.41,0,0,0-.57.15C929,205.31,930,210.61,930.92,216Z"/><line class="cls-5" x1="561.24" y1="117.71" x2="561.24" y2="808.99"/><line class="cls-5" x1="220.76" y1="803.99" x2="597.24" y2="803.99"/><line class="cls-5" x1="593.18" y1="803.99" x2="1324.71" y2="803.99"/><line class="cls-5" x1="141.77" y1="803.99" x2="168.76" y2="803.99"/><line class="cls-5" x1="175.74" y1="803.99" x2="178.74" y2="803.99"/><line class="cls-5" x1="503.77" y1="196.65" x2="561.24" y2="196.65"/><line class="cls-5" x1="541.25" y1="561.02" x2="561.24" y2="561.02"/><line class="cls-5" x1="526.19" y1="561.02" x2="531.19" y2="561.02"/><line class="cls-5" x1="388.75" y1="682.63" x2="490.75" y2="682.63"/><line class="cls-5" x1="465.25" y1="765.13" x2="561.24" y2="765.13"/><line class="cls-5" x1="351.26" y1="625.63" x2="351.26" y2="668.36"/><line class="cls-5" x1="427.96" y1="682.63" x2="427.96" y2="727.63"/><line class="cls-5" x1="136.77" y1="345.45" x2="136.77" y2="396.69"/><line class="cls-5" x1="136.77" y1="410.1" x2="136.77" y2="421.34"/><path class="cls-4" d="M196.76,598.63S188.4,423.51,331.74,430c82,0,107.33,79.45,120.66,168.63"/><path class="cls-1" d="M374.37,425.12a28,28,0,0,1-27.61,28.3l-38.05.46a28,28,0,0,1-28.3-27.61l-.67-54.35a28,28,0,0,1,27.61-28.3l38-.47a28,28,0,0,1,28.3,27.61Z"/><path class="cls-4" d="M374.37,425.12a28,28,0,0,1-27.61,28.3l-38.05.46a28,28,0,0,1-28.3-27.61l-.67-54.35a28,28,0,0,1,27.61-28.3l38-.47a28,28,0,0,1,28.3,27.61Z"/><path class="cls-2" d="M307.54,424.42c10.24,1.22,13.79-19.95,37.13-2.94,24.43-13.92,25.21,1.48,37,4-11.11,9.09-22.16,12.19-29.62,5.4S339,429.5,335.28,432.1C331,435.07,317.57,435.55,307.54,424.42Z"/><path class="cls-5" d="M304.41,428.91c10-1.43,11.91-25.19,40.26-9.3,29.06-12.59,28.93,4.88,39.84,10.32-14.5,4.86-24.74,6.61-32.1-.66-7.58-7.27-14-1.55-17.44,1.34C330.56,433.83,318.27,435.92,304.41,428.91Z"/><path class="cls-5" d="M281.16,429.63c7.14,1.64,18.2-.71,24.4-39.12"/><path class="cls-2" d="M336.49,390A15.47,15.47,0,1,0,318,401.63,15.48,15.48,0,0,0,336.49,390Z"/><path class="cls-20" d="M336.49,390A15.47,15.47,0,1,0,318,401.63,15.48,15.48,0,0,0,336.49,390Z"/><path class="cls-21" d="M336.49,390A15.47,15.47,0,1,0,318,401.63,15.48,15.48,0,0,0,336.49,390Z"/><path class="cls-21" d="M336.49,390A15.47,15.47,0,1,0,318,401.63,15.48,15.48,0,0,0,336.49,390Z"/><path class="cls-22" d="M321.86,390.74h-.49a4.2,4.2,0,0,1,0-8.4h.49a4.2,4.2,0,0,1,0,8.4Z"/><path class="cls-22" d="M354.61,390.74h-.49a4.2,4.2,0,0,1,0-8.4h.49a4.2,4.2,0,0,1,0,8.4Z"/><path class="cls-1" d="M280.49,349l-.58-76.2,91.65-.78.57,76.19Zm91.6-.3-92.32.56-38.1,13.43,168.67-1Z"/><polygon class="cls-23" points="309.05 348.67 280.5 349 279.92 272.8 308.46 272.47 309.05 348.67"/><polygon class="cls-4" points="410.34 361.65 241.67 362.68 279.76 349.25 372.08 348.69 410.34 361.65"/><polygon class="cls-4" points="372.13 348.2 280.5 348.99 279.92 272.8 371.56 272.01 372.13 348.2"/><rect class="cls-7" x="280.39" y="321.64" width="91.64" height="26.98" transform="translate(-2.65 2.6) rotate(-0.45)"/><rect class="cls-4" x="280.39" y="321.64" width="91.64" height="26.98" transform="translate(-2.65 2.6) rotate(-0.45)"/><line class="cls-4" x1="245.74" y1="527.15" x2="274.4" y2="538.49"/><path class="cls-4" d="M316.42,550.82l65.29,20.33s-9.58,14,0,26.48"/><path class="cls-5" d="M428,598.63c-2.67-17.89-13.88-23.22-46.25-24.4"/><path class="cls-5" d="M321.41,550.82c-.34-8.33-35.67-36.64-52.34-2.82-4,9.15,0,13.82,5.33,16.49a66,66,0,0,0,9.9,3.27,22.22,22.22,0,0,0,22.92-7.35l8.35-10.18"/><path class="cls-4" d="M404.83,555.37c-24.87-6.15-51.68-13.11-91.59-16.88"/></svg>