<svg id="work" xmlns="http://www.w3.org/2000/svg" xmlns:xlink="http://www.w3.org/1999/xlink" viewBox="0 0 1422 870"><defs><style>.cls-1,.cls-8{fill:#ff0083;}.cls-10,.cls-2,.cls-5{fill:none;}.cls-10,.cls-11,.cls-12,.cls-14,.cls-15,.cls-2,.cls-5,.cls-6,.cls-7,.cls-8,.cls-9{stroke:#4a5999;}.cls-14,.cls-15,.cls-2,.cls-5,.cls-6,.cls-7,.cls-8{stroke-linecap:round;stroke-linejoin:round;}.cls-12,.cls-2,.cls-6,.cls-7{stroke-width:4px;}.cls-11,.cls-15,.cls-3,.cls-6{fill:#fff;}.cls-12,.cls-14,.cls-4,.cls-7,.cls-9{fill:#92abdc;}.cls-10,.cls-14,.cls-15,.cls-5,.cls-8,.cls-9{stroke-width:2.5px;}.cls-10,.cls-11,.cls-12,.cls-9{stroke-miterlimit:10;}.cls-13,.cls-16{opacity:0.6;}.cls-13{fill:url(#radial-gradient);}.cls-16{fill:url(#radial-gradient-2);}</style><radialGradient id="radial-gradient" cx="-219.74" cy="670.03" r="185.37" gradientTransform="translate(394.82 -199.86) scale(0.92)" gradientUnits="userSpaceOnUse"><stop offset="0" stop-color="#fff"/><stop offset="0.09" stop-color="#e7ecf7" stop-opacity="0.78"/><stop offset="0.18" stop-color="#d1dbf0" stop-opacity="0.57"/><stop offset="0.27" stop-color="#bdccea" stop-opacity="0.4"/><stop offset="0.37" stop-color="#aec0e5" stop-opacity="0.25"/><stop offset="0.46" stop-color="#a2b7e1" stop-opacity="0.14"/><stop offset="0.55" stop-color="#99b0de" stop-opacity="0.06"/><stop offset="0.64" stop-color="#94acdd" stop-opacity="0.02"/><stop offset="0.73" stop-color="#92abdc" stop-opacity="0"/></radialGradient><radialGradient id="radial-gradient-2" cx="1567.99" cy="318.65" r="185.35" gradientTransform="translate(96.64 -1068.01) rotate(45) scale(1.12)" xlink:href="#radial-gradient"/></defs><title>Congrat correct dark</title><polygon class="cls-1" points="1158.01 752.13 1158.01 816.62 263.99 816.62 263.99 752.13 327.49 702.63 327.49 626.14 536.35 504 885.65 504 1094.51 626.14 1094.51 702.63 1158.01 752.13"/><polyline class="cls-2" points="890 504 1096.51 626.14 1096.51 702.63 1160.01 752.13 1160.01 816.62"/><line class="cls-2" x1="1182.85" y1="625.99" x2="1182.85" y2="660.99"/><polyline class="cls-2" points="534 504 327.49 626.14 327.49 702.63 263.99 752.13 263.99 816.62"/><polygon class="cls-2" points="327.49 626.14 241.99 626.14 475.98 503.08 948.02 503.08 1182.01 626.14 1096.51 626.14 327.49 626.14"/><polyline class="cls-2" points="96.5 702.63 327.49 702.63 1096.51 702.63 1327.5 702.63"/><polyline class="cls-2" points="157.53 752.13 263.99 752.13 1160.01 752.13 1266.47 752.13"/><polyline class="cls-2" points="204 817.13 301.54 817.13 1122.46 817.13 1220 817.13"/><line class="cls-2" x1="241.15" y1="625.99" x2="241.15" y2="660.99"/><path class="cls-3" d="M479.48,534.32l-14.33,57,4.58.88a19.62,19.62,0,0,0,22.68-14.38l1.07-4.17L583,581.39a17.18,17.18,0,0,0,18.13-12.87l19.07-74.87,22.24,13.4a14.8,14.8,0,0,1,7.16,12.55l.6,76.6h69.33s.47-11.67-2.83-16.49-8.55-7-14.36-7.6l-4.14-1.46,1.63-89a4.8,4.8,0,0,0-1.31-3.38L683.15,462l3.39-6.56a18.75,18.75,0,0,0-3.32-21.81L661.82,412l-19.67-34.67L647.82,312l-7.67-17.67-44-24.29c-3.83-2.26-10.65-4.93-14.29-2.38l-13.5,13.5a4.46,4.46,0,0,0-1.17,2c-1.9,6.74-11.17,42-9.67,81.84v84.66l2.67,30,1.49,47.94a5.64,5.64,0,0,1-5.56,5.8Z"/><path class="cls-4" d="M474.48,560l126.67,7.33s-1,15-20,14.67-88-9.34-88-9.34-2.33,23-26,18.67C469.82,577,474.48,560,474.48,560Z"/><path class="cls-4" d="M560.48,482l55,28,4.67-16s-56.33-24.67-59.67-33.34Z"/><path class="cls-4" d="M582.82,332.65l-3.36,65a25.93,25.93,0,0,0,24,27.2l30,2.17s-30-20.34-34-29.67S582.82,332.65,582.82,332.65Z"/><path class="cls-2" d="M558.15,449.65a24.33,24.33,0,0,0,13.83,22l63.85,30.54a25.18,25.18,0,0,1,14.32,22.73V596.2h69.33v-7.55a16.2,16.2,0,0,0-16.21-16.2h-5.12L701.52,492a27.74,27.74,0,0,0-11.44-23.65L646.82,437l16.66-24.67-15.91-21.8a26.53,26.53,0,0,1-4.92-18.63c1.56-13.73,4.21-36.87,4.83-41.57,1.34-10,3.48-39.11-32.66-58.63-44.67-24.11-54.34,24.45-57,53.21S558.15,449.65,558.15,449.65Z"/><path class="cls-5" d="M582.82,332.32c3.61,19.14,7.61,37.69,10.52,50.67a48.72,48.72,0,0,0,18.84,28.72L646.82,437"/><line class="cls-5" x1="639.82" y1="320.65" x2="641.82" y2="380.17"/><path class="cls-2" d="M619.77,494.46l-19.24,75.31a17.21,17.21,0,0,1-18.64,12.84l-88.41-10.16-2,6.62a18.63,18.63,0,0,1-17.84,13.25h-8.16l12.3-53.83a5.84,5.84,0,0,1,5.7-4.55h69.23a8.51,8.51,0,0,0,8.51-8.76L559.15,456"/><line class="cls-5" x1="557.15" y1="449.65" x2="633.35" y2="427.16"/><path class="cls-5" d="M663.48,412.32c20,18,33.1,33.91,18.22,50"/><path class="cls-6" d="M605.69,287.23l19.16,7.64a25,25,0,0,0,32.49-13.95l16.23-40.63a25,25,0,0,0-14-32.47l-19.16-7.64A25,25,0,0,0,608,214.13l-16.22,40.63A25,25,0,0,0,605.69,287.23Z"/><path class="cls-7" d="M597.31,280.68C616,288.12,616.17,251.5,635,258.21c19-48.86,46.22-16.55,46.43-17.44a37.85,37.85,0,0,0-22.69-43.92l-10.45-4.16a37.87,37.87,0,0,0-49,21.06l-10.43,26.12a37.84,37.84,0,0,0,8.55,40.81"/><path class="cls-5" d="M661,257.2a6.31,6.31,0,0,0-11.72-4.68"/><path class="cls-5" d="M657.34,280.92c-5.22-.41-13.35-4.47-14.72-5.28s-1.47-2.87-1.47-2.87"/><line class="cls-5" x1="493.48" y1="572.45" x2="500.82" y2="534.16"/><line class="cls-5" x1="698.15" y1="572.45" x2="650.15" y2="573.65"/><path class="cls-3" d="M810.15,352.06l-2.67-75.41L800.65,271s16.13-22.74,15.06-22.49-6.06-4.76-5.31-4.76,17.25-8.25,23-38.5c28.25-1.75,61-2,61-2s25.23-.49,31.48,7.76c2.25,3,10,12.25,9.75,17.25s-5.5,25.25-10,32.25c-.5,3.5-.85,90.52-.85,90.52Z"/><path class="cls-4" d="M874.15,249.65l-6,2.49a30,30,0,0,1-21.25.65l-32.42-11.14-1.33,3.67,34.52,19.89a16.27,16.27,0,0,0,23.06-7.64Z"/><path class="cls-4" d="M809.48,298l38.82,28.94a28.09,28.09,0,0,0,36-2L924.82,287l-1.34-26L888,303.35a29,29,0,0,1-39.92,4.4l-40.6-31.1Z"/><polygon class="cls-3" points="812.65 369.99 818.65 570.99 921.65 572.49 924.13 369.99 812.65 369.99"/><path class="cls-4" d="M863.15,436.32,852.82,451l6,122.66s11.33,0,11.33-1S863.15,436.32,863.15,436.32Z"/><polygon class="cls-4" points="924.13 369.99 810.15 369.99 810.15 352.06 924.8 351.02 924.13 369.99"/><path class="cls-8" d="M955,153.51a6.74,6.74,0,0,1-6.74,6.74,6.06,6.06,0,0,1-1.42-.16L930.18,214l-7.34-5.06,21.43-50A6.73,6.73,0,1,1,955,153.51Z"/><path class="cls-2" d="M874.71,250.61c-3,7.46-7.93,24.12-26.27,14.4l-32.6-16.34-16.31,21.41,41.25,34.2c14.36,11.28,36.06,12.12,48.49-1.27,9.19-9.89,24.75-29.85,33.44-40.19s16.94-28.33,11.25-39.66c-5.9-11.73-9.16-19.92-39.54-19.92"/><path class="cls-9" d="M886.21,305.75l.09,1a9.62,9.62,0,0,1-8.8,10.35l-18.87,1.52a9.6,9.6,0,0,1-10.33-8.81l0-.5a5,5,0,0,1,4.58-5.4l28.54-2.29A4.48,4.48,0,0,1,886.21,305.75Z"/><path class="cls-7" d="M795.75,596.2h74.19l-1.63-23.75H811.78a16.32,16.32,0,0,0-16.45,17.67Z"/><polyline class="cls-2" points="806.74 278.99 817.63 572.45 867.72 572.45"/><path class="cls-9" d="M841.47,515.08l-23.71-.3a11.58,11.58,0,0,1-11.21-11.31l-.8-29.34a10.53,10.53,0,0,1,10.6-11l15,.19c13.31.17,24.4,11.35,24.77,25l.31,11.22A14.88,14.88,0,0,1,841.47,515.08Z"/><path class="cls-7" d="M851.66,596.2h72.11l-1.64-23.75H867.69a16.32,16.32,0,0,0-16.45,17.67Z"/><polyline class="cls-2" points="925.88 258.07 922.15 572.45 870.07 572.45 864.19 435.95"/><path class="cls-9" d="M897.38,515.08l-23.71-.3a11.59,11.59,0,0,1-11.21-11.31l-.8-29.34a10.53,10.53,0,0,1,10.61-11l15,.19c13.31.17,24.4,11.35,24.78,25l.3,11.22A14.87,14.87,0,0,1,897.38,515.08Z"/><line class="cls-10" x1="809.49" y1="351.14" x2="826.76" y2="351.14"/><line class="cls-10" x1="826.76" y1="370.57" x2="809.49" y2="370.57"/><line class="cls-10" x1="886.26" y1="370.57" x2="836.97" y2="370.57"/><line class="cls-5" x1="925.33" y1="370.57" x2="886.26" y2="370.57"/><line class="cls-5" x1="886.26" y1="351.14" x2="925.33" y2="351.14"/><line class="cls-10" x1="836.97" y1="351.14" x2="886.26" y2="351.14"/><rect class="cls-9" x="820.87" y="336.02" width="15.11" height="58.3" rx="4.32" ry="4.32"/><rect class="cls-9" x="870.1" y="336.02" width="15.11" height="58.3" rx="4.32" ry="4.32"/><path class="cls-2" d="M828.07,224.09c10.34,4.49,23.29,7.21,37.26,7.21,33.39,0,60-15.57,60-33.46h0V140.35c0-30.26-21.45-51.55-51.7-51.55H862.28c-30.26,0-57.87,21.29-57.87,51.55"/><path class="cls-11" d="M827.87,167.61c1-2.33.88-11.89,1-17.55s1.68-6.65,3.5-10,6.05-6.68,10.38-6.39,11.25,4.76,12.83,6.82,4.17,1.72,11.87-.61,7-4.22,14.4-4.15,10.22,2.58,14,7.92,1.95,31.91,1.95,31.91v14.69c0,14.25-12.6,26.5-26.85,26.5H853.6c-14.25,0-25-12.25-25-26.5V173.89l-.83,0S826.92,170,827.87,167.61Z"/><path class="cls-2" d="M828.75,163.29v27c0,14.25,10.6,25.91,24.85,25.91h17.34c14.25,0,26.9-11.66,26.9-25.91V159"/><path class="cls-12" d="M856.79,103.92h14.4c18.6,0,31,13.6,31,32.2v7.56c0,7.25,0,14.72-4.32,20.34V153.93c0-7.1-2.12-13-7.21-16.89s-13.7-4-18.48.27a15.63,15.63,0,0,1-9.76,3.49c-3.51,0-7.12-1-9.49-3.24-4.69-4.38-9.66-5.13-15.34-2.13-5.4,2.85-8.81,9.44-8.81,17.52V166.8l-.88.81c-4.36-6.48-5.6-15.56-5.6-23.39v-7.56C822.27,118,838.11,103.92,856.79,103.92Z"/><path class="cls-5" d="M878.93,171.57a7.2,7.2,0,1,0-14.39,0"/><path class="cls-5" d="M850.87,171.57a7.2,7.2,0,0,0-14.4,0"/><path class="cls-5" d="M843.25,196c9.18,2.52,25.74,1.8,30.59-5.4"/><path class="cls-3" d="M751.13,138l9.78-2.84c29.06-8.44,57.2,12.14,65.64,41.2l3.16,10.89c8.44,29-6,55.58-35.08,64l-55.21,16h0c-17.18,5-39.55-16.2-48.87-48.27,0,0-5.4-24.69-5.07-28.69-5.16-6-8-19.83-1.83-31.66,3.33-6.5,18.83-16.34,22.5-18.34s11.5-1.66,11.5-1.66l23.67-5.5Z"/><path class="cls-4" d="M685.15,191.17s-7.83-10.34-5.33-19.84,6.5-16.16,7-16.5l19.5-13.16s6-2.34,6.5-2.34,27.83-5.66,27.83-5.66l18.83,14-30.66,31.16-7.37-14.46Z"/><path class="cls-8" d="M744.89,118a6.69,6.69,0,0,1-6.06-.24L720.41,138h-8.53l24.82-22.13a6.5,6.5,0,0,1-.74-1.22,6.74,6.74,0,1,1,8.93,3.32Z"/><path class="cls-2" d="M701.06,153.48c-15.1,7.09-19.33,35.15-10.51,65.54,9.32,32.07,31.69,53.26,48.87,48.27h0l55.21-16c29.06-8.44,43.52-35,35.08-64l-3.16-10.89c-8.44-29.06-36.58-49.64-65.64-41.2L751.13,138"/><path class="cls-2" d="M703.4,152.65c26-6.73,58.85,108.24,30.25,116.12"/><path class="cls-2" d="M712.65,138.8l29-5.56L759.29,147l-28.14,29.39,2.31-10.49a15.07,15.07,0,0,0-3.66-13.47l-9.56-10.35a10.2,10.2,0,0,0-13.4-1.38l-18.15,12.92a15.75,15.75,0,0,0-6.29,9.66l-2,9.86a20.62,20.62,0,0,0,3,15.48L686,192.5"/><path class="cls-8" d="M797.26,95a6.74,6.74,0,0,0-4.25,8.53,6.2,6.2,0,0,0,.61,1.3l-45.79,32.93,7.13,5.35,40.58-36.22A6.73,6.73,0,1,0,797.26,95Z"/><path class="cls-6" d="M815.71,248.51l-21.07-15a13.25,13.25,0,0,0-18.51,3.13h0a13.3,13.3,0,0,0,3.14,18.53l21.07,15Z"/><line class="cls-2" x1="686" y1="190.33" x2="721" y2="164.33"/><path class="cls-13" d="M363.28,414.76a170,170,0,1,0-170,170A170,170,0,0,0,363.28,414.76Z"/><path class="cls-14" d="M223.93,467.6c-25.55-42.51-43.88-47.08-86.4-21.52,42.52-25.56,47.08-43.89,21.52-86.4,25.56,42.51,43.89,47.08,86.4,21.52C202.94,406.76,198.38,425.09,223.93,467.6Z"/><path class="cls-15" d="M175.09,491.89c12.93-61.65-.19-81.73-61.84-94.66,61.65,12.93,81.73-.19,94.66-61.84-12.93,61.65.19,81.73,61.83,94.66C208.1,417.12,188,430.24,175.09,491.89Z"/><path class="cls-14" d="M304.28,292.66c29.33-17.21,32.6-29.74,15.4-59.06,17.2,29.32,29.72,32.58,59.06,15.37-29.34,17.21-32.61,29.74-15.41,59.06C346.13,278.71,333.61,275.45,304.28,292.66Z"/><path class="cls-15" d="M1091.64,197.46c8-38-.11-50.37-38.1-58.34,38,8,50.36-.11,58.33-38.11-8,38,.12,50.37,38.11,58.34C1112,151.38,1099.61,159.47,1091.64,197.46Z"/><path class="cls-14" d="M1270.61,594.37c6-28.37-.08-37.6-28.44-43.55,28.36,5.95,37.59-.09,43.54-28.45-6,28.36.09,37.6,28.45,43.55C1285.8,560,1276.56,566,1270.61,594.37Z"/><circle class="cls-16" cx="1083.24" cy="421.86" r="207" transform="translate(18.97 889.53) rotate(-45)"/><path class="cls-15" d="M1138.9,481.92c-30.44-50.65-52.28-56.09-102.92-25.64,50.64-30.45,56.08-52.28,25.63-102.92,30.45,50.64,52.28,56.08,102.92,25.63C1113.89,409.44,1108.46,431.27,1138.9,481.92Z"/></svg>