<svg id="work" xmlns="http://www.w3.org/2000/svg" viewBox="0 0 1422 870"><defs><style>.cls-1,.cls-16,.cls-17,.cls-7{fill:#ebebeb;}.cls-1,.cls-10,.cls-11,.cls-12,.cls-13,.cls-14,.cls-15,.cls-16,.cls-17,.cls-2,.cls-3,.cls-4,.cls-5,.cls-6,.cls-7,.cls-8,.cls-9{stroke:#4a4a4a;}.cls-1,.cls-10,.cls-12,.cls-13,.cls-14,.cls-15,.cls-2,.cls-5,.cls-7{stroke-linecap:round;}.cls-1,.cls-10,.cls-13,.cls-14,.cls-15,.cls-2,.cls-4,.cls-5,.cls-6,.cls-7,.cls-9{stroke-linejoin:round;}.cls-1,.cls-10,.cls-11,.cls-12,.cls-15,.cls-16,.cls-2,.cls-3,.cls-6,.cls-9{stroke-width:2.5px;}.cls-13,.cls-2,.cls-3{fill:#ff0083;}.cls-11,.cls-12,.cls-16,.cls-17,.cls-3,.cls-8{stroke-miterlimit:10;}.cls-11,.cls-15,.cls-4,.cls-5,.cls-6,.cls-8{fill:#fff;}.cls-4,.cls-6,.cls-9{stroke-linecap:square;}.cls-13,.cls-14,.cls-17,.cls-4,.cls-5,.cls-7,.cls-8{stroke-width:4px;}.cls-10,.cls-12,.cls-14,.cls-9{fill:none;}</style></defs><title>Монтажная область 18 копия 3</title><path class="cls-1" d="M620.13,466.82l-154.36,9.23c-20.73-1.71-44.88,9.15-44.46-9.23l-2.66-103.89c.77-34.09,9.16-116.36,89.72-123.06,141.57-11.78,130.48,66.37,129.33,117.07l8,70.89C645.22,448.05,642.93,468.7,620.13,466.82Z"/><path class="cls-1" d="M1034.71,466.26l110.5,63.87c16.41-1.37,28.9-13.85,28.57-28.56l-1.17-124.19c-.61-27.28-7-98.66-71.07-98.5-62,.15-103.32,53.09-102.39,93.66l1.51,66.59C1001,455.31,1016.66,467.76,1034.71,466.26Z"/><polygon class="cls-2" points="1161.56 262.38 1124.66 322.22 1133.32 329.68 1164.59 264.21 1161.56 262.38"/><circle class="cls-3" cx="1168.36" cy="254.54" r="10.38" transform="translate(791.02 1389.2) rotate(-83.9)"/><polygon class="cls-2" points="942.13 237.46 965.39 303.31 954.52 309.09 938.78 238.6 942.13 237.46"/><circle class="cls-3" cx="937.15" cy="228.35" r="10.38" transform="translate(610.44 1135.9) rotate(-83.9)"/><path class="cls-4" d="M994.13,280.76H1077A73.25,73.25,0,0,1,1150.28,354V534.4a0,0,0,0,1,0,0H937.13a0,0,0,0,1,0,0V337.76A57,57,0,0,1,994.13,280.76Z"/><polygon class="cls-5" points="607.47 440.72 476.09 438.74 482.83 371.26 457.23 335.34 457.23 281.95 479.67 262.3 541.08 291.87 597.55 260.22 626.33 280.16 612.04 346.65 599.27 370.44 607.47 440.72"/><ellipse class="cls-6" cx="716.65" cy="559.65" rx="481.36" ry="143.78"/><path class="cls-5" d="M606,468.12l-9.27,7.93c-3.42,2.92-14.35,13.89-32.62,7.9l-2.66-2.55a8.76,8.76,0,0,1,.8-13.33l29-16.75Z"/><path class="cls-5" d="M764.54,640.55l-3.28-26.88c-.27-5.8,3.72-16.91,14.74-16.91l14,.23c10.9,2.55,14,7.2,13.83,14.18l-10.3,38Z"/><path class="cls-5" d="M493,466.34l12.77,13.37c3.42,3.28,19.58,11.75,28.12,8l3.75-3.14a9,9,0,0,0-.24-13.77L508,451.32Z"/><path class="cls-7" d="M578.49,116c-.49-23.55-.39-32.55-14.28-43.66-19.58-15.66-65.72-10.62-84.16,13.89-9.66,12.86-13.37,33.79-11.51,50.81,1.49,13.6,2.11,25.73-2.77,29.84-5.92,5-19.85-3.64-19.85-3.64-7.81,5.58-4.35,33.76,12.7,48.42,18.9,16.26,46.26,8.84,54,6.75,23.65-6.41,42.21-24,51.21-43.66C570.27,160.62,579.1,144.7,578.49,116Z"/><path class="cls-5" d="M609.46,353.4c-13.9,27.78-23.42,27-36.52,30.56"/><path class="cls-5" d="M645.63,414.27l-9.42-116.2a16.33,16.33,0,0,0-17.6-15l-15.54,47.66,6.71,82.86a15.35,15.35,0,0,1-2.69,10l-20.66,29.77a4.45,4.45,0,0,0,1.12,6.19L601,468.9a4.45,4.45,0,0,0,6-.83l35.3-43.18a14.28,14.28,0,0,0,3.39-10.62Z"/><path class="cls-8" d="M988.07,225.29v49.29c0,22.89,17.32,42.59,40.21,42.59h27.84c22.89,0,42.92-19.7,42.92-42.59V232.22l-6.61-60.54L1046.18,161l-50.83,7.15-12.48,10.72,5.2,46.46"/><path class="cls-9" d="M1044.6,344.27h0c-45.88,0-83.06-23-83.06-50V174.78c0-38.48,32.35-69.66,72.25-69.66h21.61c39.91,0,72.25,31.18,72.25,69.66V305.37C1127.65,318.07,1090.47,344.27,1044.6,344.27Z"/><path class="cls-7" d="M1058.79,138.77c-19.65-2.88-32.72,1.7-50.28,12.14C994.91,159,982.6,144,982.6,144c-9.83,27.16-1.46,79.37,5.47,88.4V189.54c5.12-18.65,13.06,3.18,27.75,2.38,20.46-1.1,23.26-8,35.72-2.38,21.83,9.93,13.09,39.29,25.91,41.34,24.21,3.87,21.59,25.35,21.59,25.35h0c7-10.4,8.24-60.18,5.14-76.74C1100.93,162.15,1088.48,143.14,1058.79,138.77Z"/><path class="cls-10" d="M995.51,237c.29-5.13,4-9.1,8.24-8.86s7.49,4.59,7.21,9.72"/><path class="cls-10" d="M1031,239.16c.29-5.13,4-9.09,8.34-8.85s7.58,4.6,7.29,9.73"/><path class="cls-3" d="M1072.11,447.1l-35-5.23a2.74,2.74,0,0,1-2.34-2.71V374.74a2.74,2.74,0,0,1,3.15-2.71l35,5.23a2.73,2.73,0,0,1,2.34,2.71v64.42A2.74,2.74,0,0,1,1072.11,447.1Z"/><path class="cls-11" d="M1057.87,420.51l-14.93-2.23a1.17,1.17,0,0,1-1-1.16V389.65a1.16,1.16,0,0,1,1.34-1.15l14.93,2.23a1.15,1.15,0,0,1,1,1.15v27.48A1.16,1.16,0,0,1,1057.87,420.51Z"/><line class="cls-12" x1="977.61" y1="379.6" x2="977.61" y2="439.14"/><path class="cls-5" d="M518,105.12h46.16a33.39,33.39,0,0,1,33.39,33.39v84.74a41,41,0,0,1-41,41h-31a41,41,0,0,1-41-41V138.5A33.39,33.39,0,0,1,518,105.12Z"/><ellipse class="cls-13" cx="542.77" cy="102.14" rx="23.02" ry="15.48"/><path class="cls-7" d="M597.56,191.44c-4.78-23.41-3.59-29.76-11.92-40.88L572.94,161c-24,18-57,26.52-86.83,28.57-11.59.8-20.34,1.52-20.34,1.52,11.11-6.39,11.9-20,11.9-28.38v-12.3a54.35,54.35,0,0,1,54.18-54.19H551.7a54.35,54.35,0,0,1,54.18,54.19v12.3a53.75,53.75,0,0,1-8.32,28.77"/><path class="cls-10" d="M509.05,204a9.87,9.87,0,1,1,19.74.32"/><path class="cls-10" d="M556.18,206.73a9.87,9.87,0,1,1,19.74.32"/><path class="cls-14" d="M568.57,232.73a31.85,31.85,0,0,1-46,9.13"/><path class="cls-14" d="M1046.88,273.69c-1.09,1.6-8,11.4-20.67,13s-21.27-6.18-22.64-7.46"/><path class="cls-13" d="M541.08,291.87s44.56-45.25,56.47-43.86,17.07,16.2,17.07,16.2Z"/><path class="cls-13" d="M603.5,347.05c-1.59-2.38-4.76-51.84,22.63-71.17,0,0,17,4.33,9.92,12.82-7.19,8.68-11.91,9.13-24,32.94C603.56,338.32,603.5,347.05,603.5,347.05Z"/><path class="cls-5" d="M472.71,353.4c13.89,27.78,23.42,27,36.52,30.56"/><path class="cls-5" d="M446,298.07a16.33,16.33,0,0,1,17.6-15L479,332.24l-3.78,76.63a15.42,15.42,0,0,0,2.69,10l36.46,36.22a4.45,4.45,0,0,1-1.12,6.19l-13.41,9.3a4.45,4.45,0,0,1-6-.83L449,433.53a25.7,25.7,0,0,1-9.51-21.45Z"/><path class="cls-13" d="M541.08,291.87S496.53,246.62,484.62,248s-17.07,16.2-17.07,16.2Z"/><path class="cls-13" d="M478.67,347.05c1.58-2.38,4.76-51.84-22.63-71.17,0,0-17,4.33-9.92,12.82,7.19,8.68,11.9,9.13,24,32.94C478.61,338.32,478.67,347.05,478.67,347.05Z"/><path class="cls-5" d="M1034.77,520.12l-21.23,7.13c-14.41,1.79-26.31-1.21-28.4-5.85l-2.81-6.22a9.91,9.91,0,0,1,6.49-13.66l37.55-5.33Z"/><path class="cls-15" d="M1087.17,408.17V446a23.87,23.87,0,0,1-13.68,21.58l-60,28.28s3.92,2,11.11,12.7c6.55,9.72,3,16.87,3,16.87L1123,509.73a32.63,32.63,0,0,0,27.32-32.19V408.17"/><rect class="cls-5" x="859.28" y="376.38" width="126.8" height="171.86" rx="45.75" ry="45.75"/><path class="cls-5" d="M1014.78,771.13,878.51,795.35a34.94,34.94,0,0,1-41-34.4V579.3A46.27,46.27,0,0,1,883.74,533h95.51a51.23,51.23,0,0,1,51.23,51.23V752.41A19,19,0,0,1,1014.78,771.13Z"/><path class="cls-2" d="M863.55,537.66A46,46,0,0,1,883.74,533h95.51a51,51,0,0,1,25.53,6.81l-18.7,71.63-63.37,9.2L876,576.85,859.28,546Z"/><path class="cls-5" d="M851.68,546c-6.38,4.94-30.76,57-37.27,71.09-.88,1.89-6,11-7.92,11.73h0c-1.8-3.16-7-9.15-10.67-9.15,0,0-11.23-2.2-21.15.22-12.08,2.95-15.53,7.22-12.53,22.55,1.87,9.59,11.76,27.42,20.39,41.72a23.35,23.35,0,0,0,33.78,6.77l41.61-30.5"/><path class="cls-15" d="M853.83,544c10.55,15.06,41.58,110.88,99.31,105.15s60.81-100.93,53.32-111.94a19.25,19.25,0,0,0-10.67-7.83,8,8,0,0,0-10.18,6.91c-1.35,15-6.59,47.29-26.74,52.77-36.19,9.84-81.34-44.28-90-53.58S850.53,539.3,853.83,544Z"/><path class="cls-10" d="M857.92,533.68s57.54,88.59,99.19,76.69,39-77.34,39-77.34"/><path class="cls-15" d="M957.11,610.37c37-10.59,39.06-68.24,39.06-80.85l-.38-.13a8,8,0,0,0-10.18,6.91c-1.35,15-6.59,47.29-26.74,52.77-36.19,9.84-81.34-44.28-90-53.58-3.86-4.13-7.91-3.83-10.92-1.81C857.92,533.68,915.46,622.27,957.11,610.37Z"/><path class="cls-1" d="M1006.46,537.22a19.16,19.16,0,0,0-10.29-7.7c0,12.61-2,70.26-39.06,80.85-41.65,11.9-99.19-76.69-99.19-76.69-3.77,2.52-5.92,7.72-4.09,10.33,10.55,15.06,41.58,110.88,99.31,105.15S1014,548.23,1006.46,537.22Z"/><path class="cls-7" d="M940.58,537.66H924.5c-16.19,0-29.09-9-28.54-32.88.33-14.38-.26-21.16-7.93-27.93-15.2-13.44-14.87-15-14.87-24.79,0,0,2.31-14.54-.66-21.86-2.89-7.11-16.87-15.23-14.26-22,8.74-22.64,32.32-37.4,58-37.4h16c33.41,0,53.81,28.9,53.81,62.3l1.43,59.6C987.51,526.11,974,537.66,940.58,537.66Z"/><polygon class="cls-13" points="541.58 311.48 548.53 325.57 564.09 327.83 552.83 338.8 555.49 354.28 541.58 346.97 527.67 354.28 530.33 338.8 519.08 327.83 534.63 325.57 541.58 311.48"/><path class="cls-16" d="M1131.23,465.23,1130,486.34a4,4,0,0,1-3,3.86l-19.62,6a5.58,5.58,0,0,0-4.19,5.41v8a5.59,5.59,0,0,0,6.15,5.56l27.78-5.46c13.4-4.17,16.63-5.91,16.63-18.7l0-29.75a3.73,3.73,0,0,0-4.67-3.61l-15.17,4A3.72,3.72,0,0,0,1131.23,465.23Z"/><polygon class="cls-15" points="440.94 651.22 352.39 615.13 426.01 502.81 514.56 538.9 440.94 651.22"/><rect class="cls-8" x="218.24" y="361.75" width="129.77" height="183.74" rx="43.58" ry="43.58"/><ellipse class="cls-8" cx="347.59" cy="439.44" rx="11.76" ry="26.46"/><path class="cls-17" d="M219.29,401.23h42.84a29.18,29.18,0,0,1,29.19,29.18v12.18a41.78,41.78,0,0,0,41.78,41.79H344a11.55,11.55,0,0,1,11.55,11.55v8.19A31.92,31.92,0,0,1,323.65,536h0a41.15,41.15,0,0,1-41.15-41.16V461.49a12.39,12.39,0,0,0-12.39-12.39H219.29a14.9,14.9,0,0,1-14.91-14.91V416.14A14.9,14.9,0,0,1,219.29,401.23Z"/><path class="cls-10" d="M336,435.24h-53.7a20,20,0,0,0-20,19.95V463"/><path class="cls-5" d="M316.69,758.5,188,734.27s-8.14-116.11,0-180c2.88-22.59,13-35.47,30.24-45,11.29-6.22,25.83,0,48.91,2.51,29.66,3.24,45-1.25,59,10.49,21.09,17.65,33.21,45.14,33.21,74.81v126A36,36,0,0,1,316.69,758.5Z"/><path class="cls-5" d="M456.23,644.37c19-16.36,37.51-36.94,32.47-52.47s-17.21,0-21.41,4.2-10.6,3.86-11.86.08-4.1-8.9-9.66-5.64c-4.36,2.56-7.83,7.67-11.8,23.71"/><path class="cls-5" d="M322.11,644.36l22.68,41a29.64,29.64,0,0,0,40.09,11.72l60.37-32.77a21,21,0,0,0,8.38-28.73l-6-11a21.35,21.35,0,0,0-29-8.39l-18.26,10.08A11.24,11.24,0,0,1,385.08,622l-33.67-65"/><path class="cls-2" d="M192.67,536c-2.79,12.7-.43,14,32.77,22.89,81.52,21.92,98-2.31,98-2.31l-11.13-16.17,18.54,7.47s9-1,10.51-9.11c0,0-6.14-11.09-15.22-16.54s-11.22-8-29.76-8.79-33.12-2-40-3.18-25.05-5.05-30.84-3.4a50.74,50.74,0,0,0-24.62,15.88C192.62,532.68,192.67,536,192.67,536Z"/><path class="cls-1" d="M269.76,779.9,174,757.3a34.27,34.27,0,0,1-26.4-33.36V669.28c0-28.87,4.63-102.8,56.83-100C271.87,573,311.9,644.77,311.9,687.72v58.82A34.27,34.27,0,0,1,269.76,779.9Z"/><path class="cls-1" d="M896,830.7l122.68-10.19c18.22-1.52,32.08-15.38,31.71-31.7L1049.1,732c-.69-30.29-7.84-109.53-78.9-109.35-68.85.16-114.7,58.93-113.68,104l1.68,73.92C858.61,818.55,876,832.37,896,830.7Z"/></svg>