<svg id="work" xmlns="http://www.w3.org/2000/svg" xmlns:xlink="http://www.w3.org/1999/xlink" viewBox="0 0 1422 870"><defs><style>.cls-1,.cls-5{fill:none;}.cls-2,.cls-7,.cls-8{fill:#fff;}.cls-10,.cls-11,.cls-2,.cls-3,.cls-4,.cls-5,.cls-6,.cls-7,.cls-8,.cls-9{stroke:#4a4a4a;stroke-linejoin:round;}.cls-11,.cls-2,.cls-4,.cls-7,.cls-9{stroke-linecap:square;}.cls-10,.cls-11,.cls-2{stroke-width:4px;}.cls-10,.cls-11,.cls-3,.cls-9{fill:#ebebeb;}.cls-10,.cls-3,.cls-5,.cls-6,.cls-8{stroke-linecap:round;}.cls-3,.cls-4,.cls-5,.cls-6,.cls-7,.cls-8,.cls-9{stroke-width:2.5px;}.cls-4,.cls-6{fill:#ff0083;}.cls-12{clip-path:url(#clip-path);}.cls-13{clip-path:url(#clip-path-2);}</style><clipPath id="clip-path"><circle class="cls-1" cx="539" cy="672.84" r="45.14"/></clipPath><clipPath id="clip-path-2"><circle class="cls-1" cx="1053.83" cy="672.84" r="45.14"/></clipPath></defs><title>Монтажная область 17</title><path class="cls-2" d="M736.28,536.45c-3.24-27.07.44-59.8,25.44-87.78l62-2.18,32,45.59,45.63,10.12,1.42,12.16-47,13.95"/><path class="cls-2" d="M823.72,373.75a25.35,25.35,0,0,1,5.34,13.86l2.47,35.12-.85,12.52c-.6,8.19-11.71,16.94-22.62,17.71l-27.77,2A25.62,25.62,0,0,1,753,431.24l-2.69-38.07A25.35,25.35,0,0,1,753,380"/><ellipse class="cls-3" cx="797.2" cy="398.44" rx="12.87" ry="11.52" transform="translate(349 1168.76) rotate(-86.36)"/><polygon class="cls-2" points="747.81 367.5 741.15 304.91 822.27 299.16 826.9 360.62 862.88 369.21 719.23 381.19 747.81 367.5"/><rect class="cls-4" x="747" y="342.99" width="79.21" height="20.77" transform="translate(-25.27 62.72) rotate(-4.49)"/><path class="cls-5" d="M793.06,399.83c-.22-3.16,1.73-5.88,4.37-6.06s4.94,2.23,5.16,5.4"/><path class="cls-5" d="M815,398.44c-.22-3.17,1.76-5.88,4.43-6.07s5,2.23,5.22,5.39"/><path class="cls-3" d="M821.06,424s-1.15-.87,6.73,3.08,17.77-11.84,17.77-11.84-5.83,1.33-10.11-1.44-9.56-4-16,4.13L818.23,420l-3.06-.94c-10.52-3.44-14.07.21-15.81,4.63S792,430,792,430s17.22,6.06,25,1.5c7.07-4.16,4.12-7.51,4.12-7.51"/><circle class="cls-4" cx="823.83" cy="468.07" r="6.89" transform="translate(-121.52 404.08) rotate(-25.73)"/><polygon class="cls-4" points="849.94 461.65 831.51 467.36 827.87 461.51 838.84 446.49 849.94 461.65"/><polygon class="cls-4" points="806.52 488.65 819.8 474.64 816.16 468.79 797.2 471.8 806.52 488.65"/><path class="cls-3" d="M901.37,502.2c21.3-11.47,29.78-8.65,30.73-4.74s4.1,10.57-2.66,14.31c-1.08.6-8.47-3.79-11.65-2.68s-7.65,7.29-9,7.77-6-2.5-6-2.5Z"/><path class="cls-5" d="M785.68,398.82c-.36,10.27-7.15,35.37-20.45,36.7-5.91.59-12.42-7-12.42-7"/><path class="cls-3" d="M821.06,424l29.71-6.55s8.6.59,3.18,9.47l-30.53,4.59S818.69,429.93,821.06,424Z"/><path class="cls-3" d="M850.84,417.74a5.49,5.49,0,0,0,1.92,9.33"/><path class="cls-3" d="M875.2,320.68c6.38,8.52,2.76,15.52-2.13,19.79s-7.67,15.44,0,23.91,4.52,19.89-4.77,27.91"/><path class="cls-3" d="M825.5,375.61c-12.49-5.93-41.82.56-48.67,8.31s-4.42,23.62-6.94,26.45c0,0-4.33-12.17-11.37-7.46S756,417.59,756,417.59s0,19.5-3.19,10.93c-2.74-7.34-2.33-39.24-2.33-39.24s.09-9.5,5-10.84,65.74-4.69,65.74-4.69,2.52-2.75,4.3,1.86Z"/><path class="cls-6" d="M536.17,379.6c-11.5,1.73-13.65.88-16.06-.58-5.59-3.41-3.88-13.12-7.14-16.68a8.27,8.27,0,0,0-7.67-2.85c-5.26.74-10.8-3-10.8-3l-4.86,19.16a10.37,10.37,0,0,0,10.66,4.49c6.39-1.1,1.47,16.45,8.44,20.44S530,404.21,530,404.21Z"/><path class="cls-6" d="M531.29,356.18c-10.09,7.05-1.25,11.41-.17,13.84s-2.53,7.7-2.53,7.7l19.51,4s4.63-5.12,2.75-8.36c-3-5.22-10-9.63-.55-14.07Z"/><path class="cls-7" d="M508.1,403.57C496.74,421,477.7,451,510.64,481s73.41,14.22,80.06-2.62,7.23-38.17-6.62-57.52-29.49-29.06-29.49-29.06l.69-17.92s-3.65,5.66-8.33,5.81-11.66-4.73-17.12-2.42-11.18,10.17-15.39,11.58-16.14,1.38-16.14,1.38Z"/><path class="cls-8" d="M554.59,391.83a50.17,50.17,0,0,0-19.85,5.33"/><ellipse class="cls-7" cx="590.07" cy="517.54" rx="53.2" ry="78.9" transform="translate(-177.46 681.61) rotate(-53.32)"/><path class="cls-9" d="M640.14,531.68c-16-43-11.93-60.43-9.16-62.47s12.35-9.71,24.27,14.35,22.15,48.12,22.15,48.12"/><path class="cls-2" d="M653.18,571.38c3.78-39.7,6.76-61.75,20.26-80.63l53.25-24s75.9,70,75.9,97.92"/><path class="cls-2" d="M700.78,403.36a23.87,23.87,0,0,1,9.59,10.18S721.9,436.3,725,443.27c3.3,7.34,3.72,11.22,3.72,11.22,2.39,7.35-4.18,18.93-13.41,23.49l-23.51,11.6a24.11,24.11,0,0,1-32.21-10.92l-15.91-32.22a23.83,23.83,0,0,1-2.4-12.42"/><ellipse class="cls-3" cx="695.79" cy="439.23" rx="10.33" ry="12.12" transform="translate(-105.26 251.2) rotate(-19.05)"/><path class="cls-5" d="M693.52,442.79c-1.32-2.68-.65-5.71,1.49-6.77s5,.26,6.28,2.94"/><path class="cls-5" d="M710.67,434.19c-1.32-2.68-.73-5.67,1.32-6.68s4.78.35,6.1,3"/><circle class="cls-4" cx="731.77" cy="484.76" r="6.49" transform="translate(-145.79 465.68) rotate(-32.28)"/><polygon class="cls-4" points="755.5 475.95 738.87 483.27 734.84 478.18 743.5 462.96 755.5 475.95"/><polygon class="cls-4" points="717.78 505.85 728.7 491.33 724.67 486.24 707.25 491.09 717.78 505.85"/><path class="cls-5" d="M687,444.79c3.34,9.08,2.71,30.09-6.62,33.93-10.22,4.2-21.89-2.36-21.89-2.36"/><path class="cls-5" d="M697.84,458.63s15.38,1.45,23.35-7.43c0,0,4.57,9.29-5.89,13-7.19,2.55-11.08-3.86-11.08-3.86"/><path class="cls-3" d="M706.33,407.73c-13.18-.18-30,13.52-32.89,23s3.74,20.84,2.68,24.29c0,0-8.59-8.82-12.81-1.93S667,466.76,667,466.76s2.47,12.58-5.79,9.79-18.41-32.38-18.41-32.38-3.71-8.27,0-11.37,54.31-28.89,54.31-28.89,3.41-1.75,6.78,1.54S706.33,407.73,706.33,407.73Z"/><polygon class="cls-2" points="634.94 433.9 606.84 381.72 675.5 347.81 701.43 399.73 735.84 394.4 614.91 456.01 634.94 433.9"/><rect class="cls-4" x="626.43" y="397.99" width="74.59" height="19.56" transform="translate(-112.47 342.05) rotate(-26.73)"/><path class="cls-9" d="M972.71,487.93c-1.28-2.88-69.62-92.09-69.62-92.09s-16,10.84-16,23.52,49.69,93.4,49.69,93.4L953.55,540,987.4,499.5Z"/><path class="cls-5" d="M463.63,420.75c-17.46.85-12.35,9.8-16.18,15.33s-13.63,3.41-13.63,3.41"/><path class="cls-5" d="M463.84,419.36c-14.28,10.08-5.17,14.89-5.44,21.62s-9.67,10.18-9.67,10.18"/><path class="cls-7" d="M463.63,471c1.48-14.83,8.52-39.18,0-50.25s-24.7-8.52-24.7-8.52,2.56-8.51,6.81-13.62,10.22,1.7,17.89-3.41,20.44-17,20.44-17c-3.41,14.48-8.52,28.1,9.37,39.17s111.44,33,100.49,114.34c-3.4,25.34-67.7,38.11-93.68,20.23S459.89,508.54,463.63,471Z"/><line class="cls-5" x1="298.39" y1="750.77" x2="1303.37" y2="750.77"/><line class="cls-5" x1="53.9" y1="750.77" x2="244.45" y2="750.77"/><line class="cls-5" x1="1331.47" y1="750.77" x2="1400.05" y2="750.77"/><path class="cls-10" d="M1271,610.57s-63.24-76.17-298.3-122.16c0,0-2.42,43.91-215.51,43.91H614.37c-138,0-138-31.62-150.74-61,0,0-100.92,20.6-192.9,85.75,0,0-2.56,63.4,51.1,126h127c-.33-3.83-.51-6.66-.51-9.9A90.84,90.84,0,0,1,539,582.3c50.1,0,90.7,40.85,90.7,90.94,0,3.24-.17,6-.5,9.82H962.36c-.33-3.83-.51-6.66-.51-9.9a90.84,90.84,0,0,1,90.7-90.86c50.1,0,90.71,40.85,90.71,90.94,0,3.24-.18,6-.51,9.82H1254.4S1246.73,637.39,1271,610.57Z"/><path class="cls-5" d="M898.18,522.36,911.28,541a35.67,35.67,0,0,1,6.5,20.53V683.06"/><path class="cls-5" d="M662.07,531.68l-18.56,18.56a36.74,36.74,0,0,0-6.82,42.55l45,89"/><path class="cls-5" d="M465.12,423.17c14.27,2.27,23.23-7.39,20.08-12.86"/><path class="cls-8" d="M378.68,648.57v18.52H277.75v-9.26C296.92,647.39,378.68,648.57,378.68,648.57Z"/><path class="cls-8" d="M1177.11,648.57v18.52H1278v-9.26C1258.87,647.39,1177.11,648.57,1177.11,648.57Z"/><circle class="cls-11" cx="539" cy="672.84" r="75.37"/><circle class="cls-8" cx="539" cy="672.84" r="50.85"/><g class="cls-12"><path class="cls-3" d="M591.1,678.84l-35.28-11.46,21.81-30-16.82-12.22-21.81,30-21.8-30-16.82,12.22,21.8,30L486.9,678.84l6.19,19.77,35.05-11.46v37.43h21.72V687.15l35,11.46Zm-52.1-6Z"/></g><circle class="cls-5" cx="539" cy="672.84" r="50.85"/><circle class="cls-11" cx="1053.83" cy="672.84" r="75.37"/><circle class="cls-8" cx="1053.83" cy="672.84" r="50.85"/><g class="cls-13"><path class="cls-3" d="M1105.93,678.84l-35.28-11.46,21.8-30-16.81-12.22-21.81,30-21.8-30-16.82,12.22,21.8,30-35.28,11.46,6.19,19.77L1043,687.15v37.43h21.72V687.15l35,11.46Zm-52.1-6Z"/></g><circle class="cls-5" cx="1053.83" cy="672.84" r="50.85"/><path class="cls-6" d="M450.85,312c-27.14-10.63-31,3.42-36.4,6s-22.36,0-22.36,0l6.39,28.47s17.4,4,24.27,0c11.07-6.49,16.61-18,36.41-7.07Z"/><path class="cls-6" d="M196.21,361.87s7.88,1,11.92-2.23,11.26-9.68,22.78-12.77c8.73-2.34,25.55,2.36,34.28,11.07l5.11,30s-11.92-18.19-34.92-9.94c-8.63,3.1-10.43,9.3-19.16,12.92s-13,1.92-13,1.92Z"/><path class="cls-6" d="M387.3,400.42a17.87,17.87,0,0,0-12.46,0c-6.38,2.55-7,9.26-15.33,14.05s-24.59,2.44-24.59,2.44l11.18,30.8s20.76,5.69,28.11-2.92,13.09-17.23,19.8-17.23a21,21,0,0,1,10.85,2.76Z"/><path class="cls-6" d="M96.72,354.22s9.85,6.28,25.73-.57c8.8-3.8,6.07-10.46,18-15.43a62.38,62.38,0,0,1,22.8-4.73l-17.13-29s-17.5-3.22-27.89,5.35-14.63,18.36-24.35,18.66-11.39,0-11.39,0Z"/><path class="cls-6" d="M54.83,439.23c12.78,10.69,19.16,6.82,23,5.56s16.92-14.35,28.74-9.56,17.89,10.54,17.89,10.54l-16.29,25.55s-7.35-8.3-16.93-6.39c-6.61,1.32-11.5,16-23,15.65S39.5,469.21,39.5,469.21Z"/><path class="cls-6" d="M493.68,268.73c2.41,14.08,8.73,15.1,11.94,16.41s19,0,24.09,9.71,5.84,16.82,5.84,16.82l-24.84,7.65s-.19-9.5-7.51-13.57c-5.05-2.81-16.38,4.05-23.72-2.54S467,279.81,467,279.81Z"/><path class="cls-5" d="M517.58,453.11c-21.29-2.39-25.78,8.1-25.35,14.25.24,3.5.27,9,8.45,10.31,5.58.91,10.71-.4,23.63-4.12C536.6,470,546.45,485.08,539,494.76c-6,7.77-20.42,9.63-30.66,11.28"/><line class="cls-5" x1="500.83" y1="446.43" x2="541.58" y2="512.68"/><line class="cls-5" x1="492.59" y1="450.52" x2="533.34" y2="516.78"/><path class="cls-5" d="M850.88,528.75s-7.65-24.26-12.81-30.81"/><path class="cls-5" d="M715.64,532.78s-3.92-12-6.73-15.37"/></svg>