<svg id="work" xmlns="http://www.w3.org/2000/svg" viewBox="0 0 1422 870"><defs><style>.cls-1,.cls-12,.cls-7{fill:#ff0083;}.cls-10,.cls-13,.cls-2,.cls-9{fill:none;}.cls-10,.cls-11,.cls-12,.cls-2,.cls-5,.cls-6,.cls-8,.cls-9{stroke:#4a4a4a;}.cls-11,.cls-12,.cls-13,.cls-2,.cls-8,.cls-9{stroke-linecap:round;stroke-linejoin:round;}.cls-11,.cls-2,.cls-5,.cls-6,.cls-8{stroke-width:4px;}.cls-11,.cls-3,.cls-5{fill:#fff;}.cls-4,.cls-6,.cls-8{fill:#ebebeb;}.cls-10,.cls-5,.cls-6,.cls-7{stroke-miterlimit:10;}.cls-13,.cls-7{stroke:#ff0083;}.cls-10,.cls-12,.cls-7,.cls-9{stroke-width:2.5px;}.cls-13{stroke-width:5px;}</style></defs><title>Монтажная область 18 копия 2</title><path class="cls-1" d="M705.65,38.69A44.4,44.4,0,0,1,721.59,30a59.34,59.34,0,0,0-31.67,6.06,125.34,125.34,0,0,0,10.75,7.15C702.29,41.61,704,40.08,705.65,38.69Z"/><path class="cls-1" d="M681.68,72.91a94,94,0,0,1,14.55-24.8,127.61,127.61,0,0,1-12.4-8.53,59,59,0,0,0-22,26.26A3.11,3.11,0,0,1,663,66Z"/><path class="cls-1" d="M758.27,64.17a124.46,124.46,0,0,0,12.67,1.4,59.28,59.28,0,0,0-20-24.74,44.38,44.38,0,0,1,6.51,16.94A62.47,62.47,0,0,1,758.27,64.17Z"/><path class="cls-1" d="M679.44,79l-18.68-6.88a3.3,3.3,0,0,1-1-.58,59,59,0,0,0-.68,32.89A127.15,127.15,0,0,1,674.47,106,94.82,94.82,0,0,1,679.44,79Z"/><path class="cls-1" d="M719.71,86.91l27.72,10.21a87.57,87.57,0,0,0,4.65-27.47,171.48,171.48,0,0,1-23.53-6.46C726,70,723,78,719.71,86.91Z"/><path class="cls-1" d="M711.39,90.75l-25.87-9.52a88.84,88.84,0,0,0-4.65,25.9,175.12,175.12,0,0,1,22.3,6.19C705.61,106.55,708.38,98.92,711.39,90.75Z"/><path class="cls-1" d="M732.12,35.57a19.6,19.6,0,0,0-2.66-.2c-6.18,0-13,2.84-19.71,8.34-1.09.89-2.15,1.84-3.2,2.83a168.91,168.91,0,0,0,18.2,8.35C728.17,45.85,730.69,39.27,732.12,35.57Z"/><path class="cls-1" d="M693.62,140.13c1.41-4,4-11.27,7.36-20.72a169.41,169.41,0,0,0-19.92-5.62C682,125.9,686.35,135.55,693.62,140.13Z"/><path class="cls-1" d="M722.47,61a173,173,0,0,1-20.53-9.55,86.51,86.51,0,0,0-14.18,23.75l25.87,9.53C716.93,75.76,719.9,67.8,722.47,61Z"/><path class="cls-1" d="M709.25,115.56a172.68,172.68,0,0,1,22.48,10.61,88.53,88.53,0,0,0,13.46-23L717.47,93C714.46,101.16,711.69,108.79,709.25,115.56Z"/><path class="cls-1" d="M674.55,112.54A121.35,121.35,0,0,0,661.27,111,59.31,59.31,0,0,0,682,137.52a44.17,44.17,0,0,1-6.51-16.93A65.13,65.13,0,0,1,674.55,112.54Z"/><path class="cls-1" d="M699.63,142.57c8.72,1.85,18.7-2.62,27.63-11.48a167.29,167.29,0,0,0-20.21-9.44C703.6,131.29,701,138.64,699.63,142.57Z"/><path class="cls-1" d="M751.27,105.44a94.33,94.33,0,0,1-14,24.06,119.67,119.67,0,0,1,12.42,8.85A59,59,0,0,0,771,112.66a3.15,3.15,0,0,1-.44-.11Z"/><path class="cls-1" d="M753.51,99.36l19.3,7.11a3.75,3.75,0,0,1,.41.19,59.12,59.12,0,0,0,.14-34.52,123.49,123.49,0,0,1-14.85-1.37A93.68,93.68,0,0,1,753.51,99.36Z"/><path class="cls-1" d="M727.3,139.66a44.56,44.56,0,0,1-15.92,8.67,59.27,59.27,0,0,0,32.4-6.43A119.11,119.11,0,0,0,733,134.42,64.33,64.33,0,0,1,727.3,139.66Z"/><path class="cls-1" d="M730.83,57.13A167.08,167.08,0,0,0,751.73,63c-1.26-11.91-5.89-21.25-13.45-25.36C736.88,41.22,734.32,47.89,730.83,57.13Z"/><circle class="cls-2" cx="716.47" cy="89.18" r="59.38"/><path class="cls-3" d="M1053.78,268.35H980.2l-21.6,5.1L954,277c-.1.1-.25.19-.34.29-6.41,6.81-11,16-11,26.18v134.7c0,3.29,3.83,5.68,7,5.68h-.62v26.16c0,11.17,8.57,19.06,21.42,19.58V638h-1c-10.78,0-20.39,8.39-20.39,19.36v9h130.7V454.79h41.64a5.31,5.31,0,0,0,4.56-1.94,5.47,5.47,0,0,0,.93-4.92l-7.72-27-.19-.38c5.23-5.53,7.92-13.25,7.92-21.51V290.58c0-16.87-12.29-29.86-28.86-29.86H1095c-3.09,0-15.08,1.83-20.45,12.12l-.23-.19c-.26-.19-.44-.4-.7-.58l-.56-.4.56.4m-26-3.72v-33c0-.1.25-.19.33-.31s.31-.52.46-.78c4.4-7.64,5.88-26.76,3.91-37.3-1.32-7-6.9-23.77-30.14-27.19-13.09-1.92-21.9,1.4-32.68,7.81-6.32,3.76-12.73-3.4-13-3.7a2.67,2.67,0,0,0-4.52.84c-6.07,16.78-2,48,2.78,56.07.18.31.15.6.34.84,0,0,0,0,0,.06V256c0,3,2.78,9.77,3.67,12.52"/><rect class="cls-4" x="1059.36" y="439.53" width="17.45" height="200.62"/><rect class="cls-4" x="1002.67" y="470.06" width="17.45" height="170.09"/><path class="cls-4" d="M1075.31,275.35c4.18-10,15.83-12.45,19.15-12.45h3.13c15.39,0,27.2,12.29,27.2,27.68V399.07a26.88,26.88,0,0,1-27.2,27.37h-3.13a27.56,27.56,0,0,1-13.51-3.18"/><path class="cls-5" d="M1044.1,268.35h8.38c18.33,0,34.14,15,34.14,33.32v75.17c0,5.4-3.58,10.41-6.54,14.47"/><path class="cls-2" d="M1075.31,274.8c4.18-10,15.83-13,19.15-13h3.13c15.39,0,28.29,13.38,28.29,28.77V399.07c0,15.39-12.9,28.46-28.29,28.46h-3.13a28.2,28.2,0,0,1-13.51-4"/><path class="cls-6" d="M1076.81,453.7h44.56a3,3,0,0,0,3-3.87L1116,421h-34.85"/><path class="cls-7" d="M982.58,391a3.47,3.47,0,0,1-2.49-.79,3.39,3.39,0,0,1-1.2-2.32l-4-45.7a3.43,3.43,0,0,1,3.1-3.7l22.71-2a3.42,3.42,0,0,1,3.7,3.1l2.43,28-7-4.05a11.8,11.8,0,0,0-17,7.26l-2.3,8.38a11.72,11.72,0,0,0,1.24,9.14,11.56,11.56,0,0,0,2.11,2.55Z"/><path class="cls-2" d="M968.59,486.54c-12.26,0-19.35-7.15-19.35-16.49V440.62h22.9"/><path class="cls-2" d="M1020.11,641.23H966.73c-9.49,0-17.49,6.6-17.49,16.09v7.9H1007"/><path class="cls-2" d="M1017.71,641.23h60.19a0,0,0,0,1,0,0v24a0,0,0,0,1,0,0h-72a0,0,0,0,1,0,0V653A11.77,11.77,0,0,1,1017.71,641.23Z"/><path class="cls-2" d="M1071.36,204.84c0-30.56-21.66-52.06-52.22-52.06h-11.45c-30.56,0-58.45,21.5-58.45,52.06V262.9h0c0,18.06,27.81,33.8,61.54,33.8s60.58-15.74,60.58-33.8h0Z"/><path class="cls-2" d="M1047.37,230.19v26.64c0,14.39-12.59,26.78-27,26.78h-17.51c-14.39,0-25.28-12.39-25.28-26.78v-31"/><path class="cls-8" d="M1022.06,171.42c-12.35-1.82-20.58,1.07-31.62,7.63-8.55,5.09-16.3-4.33-16.3-4.33-6.17,17.08-.91,49.91,3.45,55.59v-10.2c0-7.17,4.31-18,10.67-16.71,21.52,4.37,24.39-11,45.65-1,5.58,2.63,7.13,12.44,8.51,20.49.61,3.61,4.19,10.22,4.19,10.22l0,.81c4.41-6.54,6-26.49,4-36.9C1048.56,186.12,1040.73,174.17,1022.06,171.42Z"/><path class="cls-9" d="M987.17,236.37a7.27,7.27,0,1,1,14.54,0"/><path class="cls-9" d="M1015.52,236.37a7.27,7.27,0,1,1,14.54,0"/><path class="cls-2" d="M1077.9,441.71V641.23H971.05V440.62H946.61c-1.79,0-3.91-.62-3.91-2.4V303.51c0-19.42,16.56-35,36-35h0"/><line class="cls-10" x1="969.96" y1="439.53" x2="1076.81" y2="439.53"/><path class="cls-2" d="M1020.11,641.23h57.79V441.44c2.18-.22,2.18-2.11,2.18-4.41V391.31a19.4,19.4,0,0,0,6.54-14.47V301.67c0-18.33-15.81-33.32-34.14-33.32h-7.3"/><line class="cls-9" x1="1020.11" y1="470.06" x2="1020.11" y2="640.14"/><path class="cls-9" d="M1080.89,390a24.53,24.53,0,0,1-19.76,10.26h-39.71c-1.31,0-1.31-1.37-1.31-2.68V374.71c0-1.31,0-2.78,1.31-2.78h18.45a10.45,10.45,0,0,0,10.77-10.49V334.86"/><path class="cls-9" d="M1018,397.08l-28.38-4.84a10.17,10.17,0,0,1-7.46-12.58l2.3-8.38A10.17,10.17,0,0,1,999.08,365L1018,376"/><path class="cls-9" d="M989.58,392.07l-6.86.59a5,5,0,0,1-5.46-4.59l-4-45.7a5,5,0,0,1,4.59-5.46l22.71-2a5,5,0,0,1,5.47,4.59l2.67,30.74"/><line class="cls-9" x1="965.6" y1="441.71" x2="965.6" y2="321.78"/><path class="cls-9" d="M995.71,255.81c14.8,13.83,27.44,0,27.44,0"/><path class="cls-4" d="M530.16,392.12a27.53,27.53,0,0,1-13.5,3.19h-3.13c-15.4,0-27.2-12-27.2-27.37V259.45c0-15.39,11.8-27.68,27.2-27.68h3.13c3.31,0,15,2.45,19.15,12.45l1.62,4.43"/><path class="cls-3" d="M544.84,242.38c-6.48,3.44-13.46,10.45-18.9,23.93-2.93,7.29-3.54,39.81-1.45,81.87.19,3.86,6.35,9.64,6.54,13.37,1.36,25.72-.1,40.1-.63,44.22a2.74,2.74,0,0,0,.72,2.2l2.43,2.57a2.74,2.74,0,0,1,.74,1.9l-3,193.85v26.17a2.72,2.72,0,0,0,2.72,2.72H659.27a2.72,2.72,0,0,0,2.72-2.72v-6.28c0-11-9.62-19.35-20.4-19.35h-1V459.94a2.72,2.72,0,0,1,2.44-2.7c11.49-1.24,19-7.87,19-18.32V412.76h0a2.68,2.68,0,0,1,1.53-2.58,10,10,0,0,0,4.9-7.84v-130c0-10-4.43-19.09-10.69-25.86l-.81-.75L653,242.68a2.9,2.9,0,0,0-1.06-.51l-20.7-4.88a2.7,2.7,0,0,0-.63-.07h-73a2.32,2.32,0,0,0-.46,0C555.73,237.5,551.11,239.05,544.84,242.38ZM538,240.54"/><rect class="cls-4" x="534.3" y="408.4" width="17.45" height="200.62" transform="translate(1086.05 1017.41) rotate(-180)"/><rect class="cls-4" x="591" y="438.92" width="17.45" height="170.09" transform="translate(1199.45 1047.94) rotate(-180)"/><path class="cls-2" d="M530.16,392.4c-4,2.22-8.6,4-13.5,4h-3.13c-15.4,0-28.29-13.07-28.29-28.46V259.45c0-15.39,12.89-28.77,28.29-28.77h3.13c3.31,0,15,3,19.15,13l1.62,4.25"/><path class="cls-6" d="M534.3,422.57H489.74a3,3,0,0,1-3-3.87l8.32-28.84h34.84"/><path class="cls-7" d="M627.21,359.79a12.14,12.14,0,0,0,2.12-2.55,11.72,11.72,0,0,0,1.23-9.14l-2.3-8.38a11.8,11.8,0,0,0-17-7.26l-7,4.05,2.44-28a3.4,3.4,0,0,1,3.69-3.1l22.71,2a3.43,3.43,0,0,1,3.11,3.7l-4,45.7a3.4,3.4,0,0,1-1.21,2.32,3.44,3.44,0,0,1-2.49.78Z"/><path class="cls-2" d="M642.52,455.41c12.27,0,19.35-7.16,19.35-16.49V409.49H645.52"/><path class="cls-2" d="M591,610.1h53.39c9.48,0,17.48,6.6,17.48,16.08v7.91H604.09"/><path class="cls-2" d="M533.21,610.1h72a0,0,0,0,1,0,0v24a0,0,0,0,1,0,0H545a11.77,11.77,0,0,1-11.77-11.77V610.1A0,0,0,0,1,533.21,610.1Z" transform="translate(1138.39 1244.19) rotate(-180)"/><path class="cls-2" d="M539.76,173.71c0-30.56,21.66-52.07,52.22-52.07h11.44c30.57,0,58.45,21.51,58.45,52.07v58.06h0c0,18.06-27.81,33.8-61.53,33.8s-60.58-15.74-60.58-33.8h0Z"/><path class="cls-9" d="M623.94,205.23a7.27,7.27,0,0,0-14.54,0"/><path class="cls-9" d="M595.59,205.23a7.27,7.27,0,0,0-14.53,0"/><path class="cls-2" d="M641.59,409.49h22.92c1.78,0,3.91-.62,3.91-2.41V272.38c0-19.42-16.56-35-36-35h0"/><polyline class="cls-2" points="533.21 410.58 533.21 610.1 640.07 610.1 640.07 409.49"/><line class="cls-10" x1="642.24" y1="409.47" x2="531.62" y2="409.47"/><path class="cls-2" d="M591,610.1H533.21V410.31c-2.18-.23-2.18-2.11-2.18-4.41V360.18a19.4,19.4,0,0,1-6.54-14.48v-67a41.56,41.56,0,0,1,41.44-41.44h66.51"/><line class="cls-9" x1="591" y1="438.92" x2="591" y2="609.01"/><path class="cls-9" d="M530.23,358.89A24.52,24.52,0,0,0,550,369.14H589.7c1.3,0,1.3-1.36,1.3-2.67v-22.9c0-1.3,0-2.77-1.3-2.77H571.24a10.45,10.45,0,0,1-10.77-10.49V303.73"/><path class="cls-9" d="M592.06,366l29.46-4.84A10.17,10.17,0,0,0,629,348.53l-2.29-8.38A10.17,10.17,0,0,0,612,333.9l-20,10.94"/><path class="cls-9" d="M621.53,360.94l6.86.59a5,5,0,0,0,5.47-4.59l4-45.7a5,5,0,0,0-4.59-5.47l-22.71-2a5,5,0,0,0-5.46,4.59l-2.68,30.74"/><line class="cls-9" x1="645.52" y1="409.5" x2="645.52" y2="290.64"/><path class="cls-9" d="M615.4,224.67c-14.79,13.84-27.44,0-27.44,0"/><path class="cls-11" d="M268.15,396.78H400.94a0,0,0,0,1,0,0V538.72a35,35,0,0,1-35,35h-62.8a35,35,0,0,1-35-35V396.78a0,0,0,0,1,0,0Z" transform="translate(669.08 970.5) rotate(-180)"/><path class="cls-11" d="M329.74,406.5h8.91c19.37,0,35.07-7.5,35.07-26.87V339.79a35.07,35.07,0,0,0-35.07-35.06h-8.91a35.07,35.07,0,0,0-35.07,35.06v39.84C294.67,399,310.37,406.5,329.74,406.5Z"/><path class="cls-8" d="M330.54,357.9s10.53-18.16,21.72-22.85a14.52,14.52,0,0,1,1.47-.54l-5.92,12.12s36.71,1.19,33.47-17.88S371.89,292.4,353.73,291s-51.38-8.28-59.06,11.87-10.7,64.25.82,91.23c10.31,24.15,12.11,5.66,12.11,5.66L316.14,377s-7.77-12-2.52-18.71C321.54,348.2,330.54,357.9,330.54,357.9Z"/><path class="cls-8" d="M304.63,284.13c15.43,4.69,23.39,23.39,4.32,40.3-9.1,8.07,6.47,11.52-1.08,29.87C298.09,378,291.82,377,282.93,378.41a14.83,14.83,0,0,0-4.21-18.7c-10.08-8.29,3.24-14,0-23s-15.32-23-1.08-42.83C288.47,278.78,304.63,284.13,304.63,284.13Z"/><path class="cls-3" d="M282.93,574.81V800.5h130.7v-9c0-11-9.61-19.35-20.39-19.35h-1V574.81"/><polyline class="cls-4" points="325.82 604.24 325.82 774.33 343.26 774.33 343.26 604.24"/><polyline class="cls-2" points="284.86 575.9 284.86 775.42 391.71 775.42 391.71 574.81"/><polyline class="cls-4" points="285.95 573.72 285.95 774.33 303.39 774.33 303.39 573.72"/><path class="cls-2" d="M342.65,775.42H284.86V575.63"/><line class="cls-9" x1="327.16" y1="604.24" x2="327.16" y2="774.33"/><path class="cls-2" d="M284.86,775.42h72a0,0,0,0,1,0,0v24a0,0,0,0,1,0,0H296.63a11.77,11.77,0,0,1-11.77-11.77V775.42A0,0,0,0,1,284.86,775.42Z" transform="translate(641.68 1574.83) rotate(-180)"/><path class="cls-11" d="M327.16,775.42h86.9a0,0,0,0,1,0,0v24a0,0,0,0,1,0,0H338.93a11.77,11.77,0,0,1-11.77-11.77V775.42A0,0,0,0,1,327.16,775.42Z" transform="translate(741.23 1574.83) rotate(-180)"/><rect class="cls-12" x="421.93" y="405.78" width="35.99" height="58.25" rx="3.45" ry="3.45" transform="translate(690.43 1000.51) rotate(-158.56)"/><path class="cls-11" d="M453.48,490.69s9.89-15,11.51-24.53-1.26-22.43-2.88-25.85-7.55-.72-8.63,5.4-4.14,7.19-7.2,6.83-5.22-6.47-8.1-5.57-6.47,7.91-8.09,12.23S432.78,481,432.78,481Z"/><path class="cls-11" d="M369.63,483.13l26.08,50.69c9.25,13.71,33.73,12.25,41.93-2.11l20.1-40.31a4.5,4.5,0,0,0-1.14-6c-6-4.48-19.5-9.74-24.63-8-5.63,2-13.81,13.92-13.81,13.92l2.39,10.46L399.14,423"/><path class="cls-6" d="M308.11,577.87a3.43,3.43,0,0,1-3.33,4.26H260.83a3,3,0,0,1-3-3.87l8.31-28.84H301Z"/><path class="cls-6" d="M351,577.87a3.43,3.43,0,0,1-3.34,4.26H303.72a3,3,0,0,1-3-3.87l8.31-28.84h34.85Z"/><path class="cls-2" d="M264.81,329.17c0-34.59,21.66-58.93,52.22-58.93h11.45a58.47,58.47,0,0,1,58.45,58.93v65.72h0c0,20.45-27.82,28.14-61.54,28.14s-60.58-7.69-60.58-28.14h0Z"/><path class="cls-6" d="M290.92,549.42H276.17c-15.42,0-21.15-12.49-21.15-27.91V417.06a27.9,27.9,0,0,1,27.91-27.91h0a27.9,27.9,0,0,1,27.91,27.91V521.51C310.84,536.93,306.34,549.42,290.92,549.42Z"/><path class="cls-6" d="M333.81,549.42H319.06c-15.42,0-21.15-12.49-21.15-27.91V417.06a27.9,27.9,0,0,1,27.91-27.91h0a27.91,27.91,0,0,1,27.91,27.91V521.51C353.73,536.93,349.23,549.42,333.81,549.42Z"/><rect class="cls-8" x="560.35" y="143.19" width="78.74" height="109.55" rx="36.47" ry="36.47"/><path class="cls-11" d="M623.94,166.81c-8.12,26.79-50.49,34.28-52.65,36.71s-3.08,29.57-7.64,32.36c-1.63,1-5.41,1.3-9.64,1.92s-3-44.63-1.62-55.15c4.86-37.43,22.85-42.83,34.54-44.66,12.39-2,25.1-1.88,33.19,1.09s25.4,12.62,26.16,38.16c.45,14.69,1,63.3,1,63.3s-4.88-1.7-8.18-3.32-.17-10.79-.07-26.28,1.43-19.84-1.18-24.7S623.94,166.81,623.94,166.81Z"/><path class="cls-2" d="M775.86,81.29c28.75,11.54,46.55,24.09,44.46,33.22-3.33,14.53-55.74,14.93-117.07.88s-108.33-37.21-105-51.74c2.42-10.58,30.86-13.66,69.81-9.14"/><path class="cls-2" d="M766.35,52.86c25.38-3.3,43.23-1.45,45.46,6,3.59,12-34.66,34.08-85.43,49.25s-94.86,17.71-98.45,5.68c-2-6.74,9.1-16.63,28.2-26.68"/><path class="cls-9" d="M584.81,204.14a7.27,7.27,0,1,1,14.54,0"/><path class="cls-9" d="M613.16,204.14a7.27,7.27,0,0,1,14.54,0"/><path class="cls-9" d="M593.35,223.58c14.79,13.84,27.44,0,27.44,0"/><path class="cls-13" d="M745.64,158.18V338.11a22.49,22.49,0,0,0,22.49,22.49H955.62"/><line class="cls-13" x1="722.97" y1="158.18" x2="722.97" y2="442.11"/><path class="cls-13" d="M703.54,158.18V404A22.49,22.49,0,0,1,681,426.45H478.44"/><path class="cls-13" d="M681.94,158.18v149.7a22.49,22.49,0,0,1-22.49,22.49h-7.19"/><rect class="cls-11" x="805.8" y="339.55" width="84.82" height="118" rx="32.48" ry="32.48"/><path class="cls-8" d="M805.8,349.26c18.11-24.29,59.13-21.59,74.25-9.71s12.5,33.61,10.57,82.93-42.41,28.42-42.41,28.42-15.66.26-17.28-13.17,5.4-50-1.62-56S806.64,379,803.4,373,800.31,356.63,805.8,349.26Z"/><path class="cls-3" d="M780.82,623.39V820.73h-1c-10.78,0-20.4,8.38-20.4,19.36v9H890.1V623.39"/><polyline class="cls-4" points="847.21 652.83 847.21 822.91 829.76 822.91 829.76 652.83"/><polyline class="cls-2" points="888.17 624.48 888.17 824 781.31 824 781.31 623.39"/><polyline class="cls-4" points="887.08 622.3 887.08 822.91 869.63 822.91 869.63 622.3"/><path class="cls-2" d="M830.38,824h57.79V624.21"/><line class="cls-9" x1="845.86" y1="652.83" x2="845.86" y2="822.91"/><path class="cls-2" d="M828,824h60.19a0,0,0,0,1,0,0v24a0,0,0,0,1,0,0h-72a0,0,0,0,1,0,0V835.77A11.77,11.77,0,0,1,828,824Z"/><path class="cls-11" d="M770.73,824h75.13a0,0,0,0,1,0,0v24a0,0,0,0,1,0,0H759a0,0,0,0,1,0,0V835.77A11.77,11.77,0,0,1,770.73,824Z"/><rect class="cls-12" x="715.11" y="454.36" width="35.99" height="58.25" rx="3.45" ry="3.45" transform="translate(-126 301.44) rotate(-21.44)"/><path class="cls-11" d="M807.08,445.36h62.8a35,35,0,0,1,35,35V622.3a0,0,0,0,1,0,0H772.09a0,0,0,0,1,0,0V480.35A35,35,0,0,1,807.08,445.36Z"/><path class="cls-11" d="M719.55,539.27s-9.9-15-11.52-24.52,1.26-22.44,2.88-25.86,7.56-.72,8.64,5.4,4.14,7.2,7.2,6.84,5.22-6.48,8.09-5.58,6.48,7.91,8.1,12.23-2.7,21.77-2.7,21.77Z"/><path class="cls-2" d="M908.22,377.75c0-34.59-21.66-58.93-52.22-58.93H844.55a58.47,58.47,0,0,0-58.45,58.93v65.73h0c0,20.44,43.14,22.93,76.86,22.93s45.26-2.49,45.26-22.93h0Z"/><path class="cls-11" d="M803.4,531.71,777.32,582.4c-9.25,13.71-33.73,12.25-41.94-2.1L715.29,540a4.51,4.51,0,0,1,1.14-6c6-4.48,19.49-9.73,24.62-8C746.69,528,754.86,540,754.86,540l-2.38,10.47,21.4-78.82"/><path class="cls-6" d="M864.92,626.45a3.43,3.43,0,0,0,3.33,4.26h44a3,3,0,0,0,3-3.86L906.84,598H872Z"/><path class="cls-6" d="M882.1,598h14.76c15.41,0,21.15-12.49,21.15-27.91V465.64a27.92,27.92,0,0,0-27.91-27.91h0a27.91,27.91,0,0,0-27.91,27.91V570.09C862.19,585.51,866.69,598,882.1,598Z"/><path class="cls-6" d="M822,626.45a3.43,3.43,0,0,0,3.33,4.26h43.95a3,3,0,0,0,3-3.86L864,598H829.11Z"/><path class="cls-6" d="M839.22,598H854c15.42,0,21.15-12.49,21.15-27.91V465.64a27.92,27.92,0,0,0-27.91-27.91h0a27.91,27.91,0,0,0-27.91,27.91V570.09C819.3,585.51,823.8,598,839.22,598Z"/></svg>