<svg id="work" xmlns="http://www.w3.org/2000/svg" viewBox="0 0 1422 870"><defs><style>.cls-1,.cls-10,.cls-5{fill:#fff;}.cls-1,.cls-10,.cls-11,.cls-12,.cls-13,.cls-14,.cls-2,.cls-3,.cls-4,.cls-5,.cls-9{stroke:#4a4a4a;}.cls-1,.cls-10,.cls-11,.cls-12,.cls-13,.cls-2,.cls-3,.cls-6,.cls-7,.cls-9{stroke-linecap:round;stroke-linejoin:round;}.cls-1,.cls-14,.cls-2,.cls-3,.cls-4,.cls-5,.cls-6,.cls-7,.cls-9{stroke-width:2.5px;}.cls-12,.cls-2,.cls-4{fill:#ebebeb;}.cls-11,.cls-3,.cls-6,.cls-7{fill:none;}.cls-14,.cls-4,.cls-5{stroke-miterlimit:10;}.cls-6{stroke:#ff0083;}.cls-7{stroke:#ebebeb;}.cls-13,.cls-14,.cls-8,.cls-9{fill:#ff0083;}.cls-10,.cls-11,.cls-12,.cls-13{stroke-width:4px;}</style></defs><title>Монтажная область 18 копия</title><rect class="cls-1" x="169.77" y="584.92" width="1070.47" height="18.42"/><polygon class="cls-1" points="1240.24 584.92 169.77 584.92 291.77 450.05 1118.24 450.05 1240.24 584.92"/><polygon class="cls-2" points="610.56 544.3 327.36 544.3 364.59 493.2 573.32 493.2 610.56 544.3"/><line class="cls-3" x1="368.56" y1="505.3" x2="381.56" y2="505.3"/><line class="cls-3" x1="395.65" y1="505.3" x2="408.65" y2="505.3"/><line class="cls-3" x1="421.65" y1="505.3" x2="434.65" y2="505.3"/><line class="cls-3" x1="448.73" y1="505.3" x2="461.73" y2="505.3"/><line class="cls-3" x1="362.06" y1="516.13" x2="375.06" y2="516.13"/><line class="cls-3" x1="389.15" y1="516.13" x2="402.15" y2="516.13"/><line class="cls-3" x1="415.15" y1="516.13" x2="428.15" y2="516.13"/><line class="cls-3" x1="442.23" y1="516.13" x2="455.23" y2="516.13"/><line class="cls-3" x1="353.4" y1="528.05" x2="366.4" y2="528.05"/><line class="cls-3" x1="380.48" y1="528.05" x2="393.48" y2="528.05"/><line class="cls-3" x1="406.48" y1="528.05" x2="419.48" y2="528.05"/><line class="cls-3" x1="433.57" y1="528.05" x2="446.57" y2="528.05"/><rect class="cls-2" x="424.16" y="401.84" width="130.39" height="62.83"/><path class="cls-2" d="M414.66,463H564.05a16.5,16.5,0,0,1,16.5,16.5v1.38a0,0,0,0,1,0,0H398.16a0,0,0,0,1,0,0v-1.38A16.5,16.5,0,0,1,414.66,463Z"/><rect class="cls-4" x="289.49" y="175.43" width="399.74" height="240.49" rx="9" ry="9"/><rect class="cls-5" x="305.73" y="189.51" width="367.26" height="212.32" rx="7.67" ry="7.67"/><line class="cls-3" x1="325.23" y1="212.79" x2="664.32" y2="212.79"/><line class="cls-6" x1="346.9" y1="223.62" x2="381.56" y2="223.62"/><line class="cls-3" x1="394.57" y1="224.71" x2="475.82" y2="224.71"/><line class="cls-3" x1="346.9" y1="236.63" x2="416.23" y2="236.63"/><line class="cls-6" x1="428.15" y1="235.54" x2="456.32" y2="235.54"/><line class="cls-3" x1="470.4" y1="236.63" x2="486.65" y2="236.63"/><line class="cls-7" x1="501.82" y1="235.54" x2="518.07" y2="235.54"/><line class="cls-3" x1="370.73" y1="248.54" x2="528.9" y2="248.54"/><line class="cls-3" x1="394.57" y1="260.46" x2="486.65" y2="260.46"/><line class="cls-6" x1="498.57" y1="259.38" x2="521.32" y2="259.38"/><line class="cls-3" x1="535.4" y1="260.46" x2="581.99" y2="260.46"/><line class="cls-6" x1="394.57" y1="271.29" x2="462.82" y2="271.29"/><line class="cls-3" x1="473.65" y1="272.38" x2="528.9" y2="272.38"/><line class="cls-6" x1="541.9" y1="271.29" x2="564.65" y2="271.29"/><line class="cls-3" x1="575.49" y1="272.38" x2="598.24" y2="272.38"/><line class="cls-3" x1="448.73" y1="284.29" x2="462.82" y2="284.29"/><line class="cls-6" x1="480.15" y1="283.21" x2="494.23" y2="283.21"/><line class="cls-7" x1="506.15" y1="283.21" x2="546.24" y2="283.21"/><line class="cls-3" x1="449.82" y1="297.29" x2="490.98" y2="297.29"/><line class="cls-6" x1="503.98" y1="296.21" x2="522.4" y2="296.21"/><line class="cls-3" x1="537.57" y1="297.29" x2="604.74" y2="297.29"/><line class="cls-3" x1="449.82" y1="309.21" x2="604.74" y2="309.21"/><line class="cls-3" x1="614.49" y1="309.21" x2="635.07" y2="309.21"/><line class="cls-6" x1="408.65" y1="320.04" x2="612.32" y2="320.04"/><line class="cls-3" x1="624.24" y1="321.13" x2="646.99" y2="321.13"/><line class="cls-3" x1="408.65" y1="333.04" x2="510.48" y2="333.04"/><line class="cls-7" x1="525.65" y1="331.96" x2="558.15" y2="331.96"/><line class="cls-6" x1="573.32" y1="331.96" x2="586.32" y2="331.96"/><line class="cls-3" x1="408.65" y1="344.96" x2="449.82" y2="344.96"/><line class="cls-6" x1="370.73" y1="355.79" x2="427.07" y2="355.79"/><line class="cls-3" x1="436.82" y1="356.88" x2="475.82" y2="356.88"/><line class="cls-3" x1="487.73" y1="356.88" x2="550.57" y2="356.88"/><line class="cls-3" x1="563.57" y1="356.88" x2="583.07" y2="356.88"/><line class="cls-3" x1="370.73" y1="368.79" x2="402.15" y2="368.79"/><line class="cls-3" x1="411.9" y1="368.79" x2="501.82" y2="368.79"/><line class="cls-6" x1="346.9" y1="379.63" x2="490.98" y2="379.63"/><path class="cls-3" d="M785.66,523.71c8-9,15.64-13.1,20.58-15.16,17.67-7.38,30.12-.89,71,0,14.42.31,28.2-.16,28.71-3.25.53-3.26-14.09-6.87-13.54-10.29.73-4.54,27.28-3.85,29.25-3.8,22.29.66,33.31,3.23,46.82,1.18,13.35-2,21.53-7.37,21.43-14.18-.07-4.56-3.14-10-10.65-13.54-8-3.73-23.87-5.72-39.73-6.5"/><rect class="cls-2" x="752.07" y="509.43" width="37.72" height="53.08" rx="17.41" ry="17.41" transform="translate(826.14 -401.34) rotate(58.56)"/><path class="cls-1" d="M520.5,411.59h80a44.34,44.34,0,0,1,44.34,44.34v246a0,0,0,0,1,0,0H476.16a0,0,0,0,1,0,0v-246A44.34,44.34,0,0,1,520.5,411.59Z"/><path class="cls-1" d="M644.82,459.63v242.3H476.16V459.63a47.86,47.86,0,0,1,12.93-32.79"/><rect class="cls-2" x="853.17" y="401.84" width="130.39" height="62.83"/><path class="cls-2" d="M843.67,463H993.06a16.5,16.5,0,0,1,16.5,16.5v1.38a0,0,0,0,1,0,0H827.17a0,0,0,0,1,0,0v-1.38a16.5,16.5,0,0,1,16.5-16.5Z"/><rect class="cls-4" x="718.5" y="175.43" width="399.74" height="240.49" rx="9" ry="9"/><rect class="cls-5" x="734.74" y="189.51" width="367.26" height="212.32" rx="7.67" ry="7.67"/><line class="cls-3" x1="745.57" y1="212.79" x2="1084.66" y2="212.79"/><line class="cls-6" x1="767.24" y1="223.62" x2="801.91" y2="223.62"/><line class="cls-3" x1="814.91" y1="224.71" x2="896.16" y2="224.71"/><line class="cls-3" x1="767.24" y1="236.63" x2="836.57" y2="236.63"/><line class="cls-6" x1="848.49" y1="235.54" x2="876.66" y2="235.54"/><line class="cls-3" x1="890.74" y1="236.63" x2="906.99" y2="236.63"/><line class="cls-7" x1="922.16" y1="235.54" x2="938.41" y2="235.54"/><line class="cls-3" x1="791.07" y1="248.54" x2="949.24" y2="248.54"/><line class="cls-3" x1="827.91" y1="260.46" x2="906.99" y2="260.46"/><line class="cls-6" x1="918.91" y1="259.38" x2="941.66" y2="259.38"/><line class="cls-3" x1="955.74" y1="260.46" x2="1002.33" y2="260.46"/><line class="cls-6" x1="827.91" y1="271.29" x2="883.16" y2="271.29"/><line class="cls-3" x1="893.99" y1="272.38" x2="949.24" y2="272.38"/><line class="cls-6" x1="962.24" y1="271.29" x2="984.99" y2="271.29"/><line class="cls-3" x1="995.83" y1="272.38" x2="1018.58" y2="272.38"/><line class="cls-3" x1="827.91" y1="284.29" x2="883.16" y2="284.29"/><line class="cls-6" x1="900.49" y1="283.21" x2="914.58" y2="283.21"/><line class="cls-7" x1="926.49" y1="283.21" x2="966.58" y2="283.21"/><line class="cls-3" x1="861.49" y1="297.29" x2="911.33" y2="297.29"/><line class="cls-6" x1="924.33" y1="296.21" x2="942.74" y2="296.21"/><line class="cls-3" x1="957.91" y1="297.29" x2="1025.08" y2="297.29"/><line class="cls-3" x1="861.49" y1="309.21" x2="1025.08" y2="309.21"/><line class="cls-3" x1="1034.83" y1="309.21" x2="1055.41" y2="309.21"/><line class="cls-6" x1="861.49" y1="320.04" x2="1032.66" y2="320.04"/><line class="cls-3" x1="1044.58" y1="321.13" x2="1067.33" y2="321.13"/><line class="cls-3" x1="828.99" y1="333.04" x2="930.83" y2="333.04"/><line class="cls-7" x1="945.99" y1="331.96" x2="978.49" y2="331.96"/><line class="cls-6" x1="993.66" y1="331.96" x2="1006.66" y2="331.96"/><line class="cls-3" x1="791.07" y1="344.96" x2="870.16" y2="344.96"/><line class="cls-6" x1="791.07" y1="355.79" x2="847.41" y2="355.79"/><line class="cls-3" x1="857.16" y1="356.88" x2="896.16" y2="356.88"/><line class="cls-3" x1="908.08" y1="356.88" x2="970.91" y2="356.88"/><line class="cls-3" x1="983.91" y1="356.88" x2="1003.41" y2="356.88"/><line class="cls-3" x1="791.07" y1="368.79" x2="822.49" y2="368.79"/><line class="cls-3" x1="832.24" y1="368.79" x2="922.16" y2="368.79"/><line class="cls-6" x1="767.24" y1="379.63" x2="911.33" y2="379.63"/><line class="cls-3" x1="745.51" y1="465.48" x2="750.27" y2="474.42"/><line class="cls-3" x1="763.99" y1="458.17" x2="762.55" y2="474.42"/><line class="cls-3" x1="779.88" y1="468.63" x2="774.1" y2="474.42"/><path class="cls-3" d="M275.4,494.46h13a11.12,11.12,0,0,1,11.12,11.12v12.76a11.13,11.13,0,0,1-11.13,11.13h-13a0,0,0,0,1,0,0v-35A0,0,0,0,1,275.4,494.46Z"/><path class="cls-1" d="M283.7,542.67s-5.87,4.61-25.64,4.61c-19.5,0-25.64-4.61-25.64-4.61V479.12s9.93,4,25.64,4c16.25,0,25.64-4,25.64-4Z"/><ellipse class="cls-2" cx="258.06" cy="478.48" rx="25.64" ry="4.88"/><path class="cls-8" d="M262,541h-4.45v-7.27h-3.32c-.26,0-.21.22-.21.37q0,3.45,0,6.9h-4.45v-7.4h-8.85a.9.9,0,0,1,0-.12c.27-1.64.55-3.28.82-4.92,0-.24.19-.22.36-.22h2.72a1.63,1.63,0,0,0,1.84-1.87v-19.1a2.2,2.2,0,0,0-2.22-2.36c-.73,0-1.46,0-2.19-.05h-1.33v-4.72h8.88V493h4.45c0,2.26,0,4.52,0,6.79,0,.26.08.35.35.34.77,0,1.54,0,2.31,0h.83c0-.1.05-.13.05-.15V493H262c0,.15,0,.3,0,.46,0,2,0,4.09,0,6.13,0,.7,0,.7.73.78a17.8,17.8,0,0,1,5.73,1.42,6.9,6.9,0,0,1,3.77,3.77,9.21,9.21,0,0,1,.53,4,6.41,6.41,0,0,1-3.3,5.33l-.46.27.23.11c.76.29,1.56.51,2.28.87a6.36,6.36,0,0,1,3.55,4.23,12,12,0,0,1-.1,5.91,8.14,8.14,0,0,1-2.59,4.34A11.19,11.19,0,0,1,267.1,533c-1.54.3-3.11.41-4.67.58-.34,0-.44.15-.42.47,0,.59,0,1.18,0,1.77C262,537.55,262,539.27,262,541Zm-7.89-12.65c1.37,0,2.68,0,4,0a16.37,16.37,0,0,0,5.19-.86,4.8,4.8,0,0,0,2.65-1.9,4,4,0,0,0-1.41-5.6,10,10,0,0,0-4.68-1.29c-1.75-.08-3.5-.06-5.25-.1-.38,0-.49.1-.49.49,0,2.94,0,5.87,0,8.81Zm0-18.65v4.1c0,.21,0,.36.3.37a24.4,24.4,0,0,0,6.65-.55,4.93,4.93,0,0,0,2.82-1.81,3.9,3.9,0,0,0-.69-5,6.74,6.74,0,0,0-3.91-1.41c-1.6-.12-3.21-.09-4.82-.14-.31,0-.35.14-.35.39C254.15,507,254.14,508.36,254.14,509.7Z"/><polygon class="cls-1" points="956.29 530.76 956.29 519.92 1061.37 477.48 1061.37 488.51 956.29 530.76"/><polygon class="cls-2" points="1230.92 523.64 1062.01 488.51 1062.01 477.48 1231.12 507.73 1230.92 523.64"/><polygon class="cls-2" points="1144.21 578.25 957.01 530.74 1062.01 488.51 1230.92 522.81 1144.21 578.25"/><polygon class="cls-1" points="1231.12 507.73 1230.92 523.64 1143.41 578.32 1143.41 565.06 1231.12 507.73"/><polygon class="cls-1" points="1062.01 477.48 1132.33 409.42 1300.61 430.18 1231.12 507.73 1062.01 477.48"/><polygon class="cls-2" points="1062.01 477.48 1051.08 469 1127.78 398.3 1132.33 409.42 1062.01 477.48"/><polygon class="cls-2" points="1127.14 398.21 1299.71 414.12 1299.71 430 1131.92 409.42 1127.14 398.21"/><polygon class="cls-1" points="1226.31 496.63 1299.71 414.12 1299.71 430 1230.51 507.73 1226.31 496.63"/><path class="cls-9" d="M1204.37,431.24a8,8,0,0,1,3.41,1.36l12,8,13.7,9.13c2,1.31,3.94,2.63,5.93,3.94,1.57,1,1.33,2.32-.47,2.78-6.6,1.71-13.17,3.45-19.75,5.17l-14.26,3.74-5.87,1.55c-.47.12-.47.12-.88-.15-3.87-2.58-7.76-5.16-11.63-7.75l-11.11-7.41-8.2-5.46c-2-1.33-4-2.67-6-4-.31-.2-.28-.28.07-.37l16.46-4.31,16.93-4.44,6.57-1.72A7.44,7.44,0,0,1,1204.37,431.24Zm-3.6,22c5.55.91,10.37-.29,10.76-2.84s-3.62-5.13-9-6.09c-5.83-1-10.61.31-11,2.77S1195.07,452.22,1200.77,453.2Z"/><path class="cls-2" d="M1112.14,456.4c0-.62.82-1,1.84-1.23l8.1-2.12,9.35-2.44,10.16-2.68,7.26-1.89c1.56-.41,3.12-.81,4.67-1.23a.8.8,0,0,1,.75.12l14.8,9.87,13.23,8.81,9,6c.27.19.34.28-.06.38-2.46.62-4.89,1.27-7.32,1.91l-5.64,1.49-6,1.58-4.92,1.29-5.25,1.36-5.71,1.52-5.1,1.33a7.53,7.53,0,0,1-2.94.07,7.67,7.67,0,0,1-3-1l-6.77-4.52-6.51-4.33-4.65-3.1-8.61-5.74L1113,458C1112.27,457.46,1112,457,1112.14,456.4Zm25.06-.4c-5.49-1-10.66.27-10.86,3-.18,2.37,3.68,5,9.15,5.92s10.5-.27,10.8-2.94C1146.55,459.58,1142.59,456.91,1137.2,456Zm29.32,5.07c-5.51-.91-10.13.35-10.68,2.63-.63,2.61,3.56,5.38,9.17,6.32,5.35.9,10.07-.23,10.66-2.67S1172,462,1166.52,461.07Z"/><ellipse class="cls-1" cx="1093.77" cy="527.51" rx="27.35" ry="81.88" transform="translate(512.86 1593.89) rotate(-87.17)"/><ellipse class="cls-8" cx="1063.72" cy="516.39" rx="9.75" ry="3.33"/><ellipse class="cls-8" cx="1114.35" cy="520.01" rx="11.99" ry="3.63"/><ellipse class="cls-8" cx="1115.72" cy="540.41" rx="7.94" ry="2.61"/><ellipse class="cls-8" cx="1092.61" cy="532.07" rx="3.61" ry="1.31"/><ellipse class="cls-8" cx="1054.69" cy="538.2" rx="12.28" ry="4.82"/><ellipse class="cls-8" cx="1149.67" cy="531.41" rx="7.94" ry="1.96"/><polyline class="cls-1" points="1142.62 578.42 1142.62 577.8 1142.62 564.34 956.74 519.71 955.68 530.82 1142.62 578.32 1142.62 564.34"/><path class="cls-10" d="M394.57,536c-9.76-8.46-11.14-15.61-4.22-22.87s23.17-14.84,33.47-11.59,13.54,7.48,12.45,11.59A20.13,20.13,0,0,1,426.52,525C421.11,528.05,394.57,536,394.57,536Z"/><path class="cls-10" d="M727.16,522.09c6-14.63,14.08-17.88,24.37-17.33s32.5,2.15,36.84,12.72,3.79,12.73,0,13.28-14.09-.55-17.34,0-11.74,14.62-11.74,14.62Z"/><path class="cls-11" d="M555.08,252.33h17.06a60.8,60.8,0,0,1,60.8,60.8v51.32a0,0,0,0,1,0,0H494.27a0,0,0,0,1,0,0V313.14a60.8,60.8,0,0,1,60.8-60.8Z"/><rect class="cls-12" x="507.01" y="268.54" width="115.36" height="156.35" rx="45.75" ry="45.75"/><path class="cls-12" d="M493.57,336.43h8.52a3.83,3.83,0,0,1,3.83,3.83v40.26a3.83,3.83,0,0,1-3.83,3.83h-8.52a17.21,17.21,0,0,1-17.21-17.21v-13.5a17.21,17.21,0,0,1,17.21-17.21Z" transform="translate(-13.07 18.53) rotate(-2.13)"/><path class="cls-12" d="M640.59,336.43h8.52a3.83,3.83,0,0,1,3.83,3.83v40.26a3.83,3.83,0,0,1-3.83,3.83h-8.52a17.21,17.21,0,0,1-17.21-17.21v-13.5A17.21,17.21,0,0,1,640.59,336.43Z" transform="translate(1262.47 744.29) rotate(-177.87)"/><path class="cls-10" d="M642.65,550.8l28.68,38.31a28.07,28.07,0,0,0,40.9,4.16l51.91-45.54a7.64,7.64,0,0,0,1.32-10.43c-6.11-8.22-19.2-21.65-38.67-19.82-5,.47-12,4.91-19,10.53L630.52,426"/><path class="cls-10" d="M479.88,550.8l-22.47,38.31c-7.71,13-22.45,14.91-32.06,4.16l-33-45.54c-2.46-2.58-2.69-13-.79-16.22,4.78-8.22,16.23-15.86,31.48-14C427,518,432.5,522.39,438,528L489.4,426"/><path class="cls-13" d="M489.09,426.84a47.87,47.87,0,0,1,35.11-15.25h72.58a47.92,47.92,0,0,1,36.77,17.12l-38,40.1-73.13-3.33Z"/><path class="cls-2" d="M560.94,456.55c-27.08,0-51.15-13.57-66.49-34.63-5.35-7.35-15.53,5.1-12.12,18.07,11.9,45.26,42.6,77.49,78.61,77.49,37.84,0,69.82-35.59,80.27-84.5,2.35-11-7-21.29-11.11-14.94C615,441.29,589.64,456.55,560.94,456.55Z"/><path class="cls-1" d="M560.94,439.75c-24.22,0-45.24-10.65-61.35-25.55-3-2.76-9.42,2.12-5.14,7.72,16.4,21.45,39.41,34.63,66.49,34.63,29.61,0,56.26-15.44,69.16-38.51,3.61-6.46-6.74-5-7.45-4.21A85.35,85.35,0,0,1,560.94,439.75Z"/><rect class="cls-14" x="619.45" y="331.6" width="14.99" height="59.22" rx="6" ry="6"/><rect class="cls-14" x="493.24" y="331.42" width="14.99" height="59.22" rx="6" ry="6"/><path class="cls-3" d="M238.22,399.72c-3.67,9.18,6.86,16.38,7.09,21.5.36,7.93-9.19,10.89-7.88,20.72.71,5.35,4.27,9.26,6.82,11.54"/><path class="cls-3" d="M259.18,440.17a35.5,35.5,0,0,1-3.39-14c0-9.91,7.08-13.52,5.77-21-1.23-7-8.55-11.1-8.95-17.17-.51-7.67,13.73-13,5.28-20.85"/><rect class="cls-2" x="448.73" y="713.3" width="226.96" height="43.88" rx="20.25" ry="20.25"/><path class="cls-2" d="M553.89,488.09h14.85a89.07,89.07,0,0,1,89.07,89.07V697.79a15.33,15.33,0,0,1-15.33,15.33H480.16a15.33,15.33,0,0,1-15.33-15.33V577.16a89.07,89.07,0,0,1,89.07-89.07Z"/><path class="cls-2" d="M542.08,676.47h38.47a0,0,0,0,1,0,0v83.25a9.92,9.92,0,0,1-9.92,9.92H552a9.92,9.92,0,0,1-9.92-9.92V676.47A0,0,0,0,1,542.08,676.47Z"/><path class="cls-2" d="M552.18,614.18h18.29a26.34,26.34,0,0,1,26.34,26.34v37.66a8.59,8.59,0,0,1-8.59,8.59H534.43a8.59,8.59,0,0,1-8.59-8.59V640.51a26.34,26.34,0,0,1,26.34-26.34Z"/></svg>