<svg id="work" xmlns="http://www.w3.org/2000/svg" viewBox="0 0 1422 870">
  <defs>
    <style>
      .cls-1, .cls-11 {
        fill: #fff;
      }

      .cls-10, .cls-12, .cls-2, .cls-4, .cls-5, .cls-7, .cls-9 {
        fill: none;
      }

      .cls-10, .cls-11, .cls-2, .cls-4, .cls-5, .cls-6, .cls-7 {
        stroke: #4a4a4a;
      }

      .cls-11, .cls-12, .cls-2, .cls-4, .cls-5, .cls-6, .cls-7, .cls-9 {
        stroke-linecap: round;
        stroke-linejoin: round;
      }

      .cls-2, .cls-6, .cls-9 {
        stroke-width: 2.5px;
      }

      .cls-3 {
        fill: #ff0083;
      }

      .cls-4 {
        stroke-width: 1.2px;
      }

      .cls-10, .cls-12, .cls-5 {
        stroke-width: 4px;
      }

      .cls-6, .cls-8 {
        fill: #ebebeb;
      }

      .cls-11, .cls-7 {
        stroke-width: 1.5px;
      }

      .cls-12, .cls-9 {
        stroke: #494949;
      }

      .cls-10 {
        stroke-miterlimit: 10;
      }
    </style>
  </defs>
  <title>5,1</title>
  <g>
    <path class="cls-1" d="M914.21,480.94h0a8.79,8.79,0,0,1-5.52,7.83l-20.42,8.36a18.05,18.05,0,0,0-7.25,5.48,15.79,15.79,0,0,1-11.91,6.11l-8.74.12,2.49-21.7c-1.51,10.65-3.41,23.9-3.45,23.9s-27.34,8.42-65.34,20.27c6,23.19,9.34,43.48,4.67,96.15l-49.66,151h5a18.63,18.63,0,0,1,18.63,18.62V804h-158v-5.08a20.41,20.41,0,0,1,20.42-20.41h8.92l-46-140.34c-9.37-23-9.37-67.73-9.37-67.73l-46,4.4.9-4.45-43.57-5.13a5.66,5.66,0,0,1-5-5.62h0a7.25,7.25,0,0,1,5.39-7l19.91-5.32a14.28,14.28,0,0,0,7.07-4.41,13.05,13.05,0,0,1,11.61-4.34l8.52,1.18-2.93,25.67,5.43-26.9,37.34-12c4.66-54.43,29.33-97.65,54-115,90.66-37.34,119.33,18.68,119.33,18.68l40.67,48.65,63.33-4.8s-.2,1.37-.51,3.59l44.85-1.51A4.78,4.78,0,0,1,914.21,480.94Z"/>
    <g>
      <path class="cls-2" d="M901.53,509.74c-10.32,2.8-20,.56-22.57-5a15.49,15.49,0,0,0,2-2.15,18,18,0,0,1,7.26-5.48l20.41-8.35a9,9,0,0,0,3-2c3.45,1.2,5.89,3.3,6.65,6.11C920,499.23,912.5,506.77,901.53,509.74Z"/>
      <path class="cls-2" d="M918.29,492.91l1.43,7.12c1.71,6.33-5.79,13.86-16.76,16.83s-21.25.26-23-6.06l-1-6"/>
    </g>
    <g>
      <path class="cls-2" d="M521.28,416.22c.43,6.54-8.41,12.46-19.75,13.22S480.64,425.51,480.2,419s8.4-12.45,19.75-13.21S520.84,409.69,521.28,416.22Z"/>
      <path class="cls-2" d="M521.27,416.22v7.26c.44,6.54-8.4,12.45-19.74,13.21s-20.89-3.92-21.33-10.46V419"/>
    </g>
    <g>
      <path class="cls-2" d="M516.2,503.29c-11,2.85-21.26,0-22.91-6.33-.86-3.3.79-6.91,4.11-10,4,.67,7.52-.11,9.58-2.51l4.33-4.41h0c10.59-2.4,20.22.45,21.82,6.59a7.32,7.32,0,0,1,.19,1C534,493.77,526.6,500.59,516.2,503.29Z"/>
      <path class="cls-2" d="M533.14,486.63l1.35,7.14c1.65,6.35-5.94,13.8-16.94,16.66s-21.26,0-22.91-6.32L493.29,497"/>
    </g>
    <g>
      <path class="cls-2" d="M512.08,479.27c-4.28,5-14.73,3-23.35-4.41s-12.15-17.44-7.88-22.41,14.73-3,23.35,4.41S516.35,474.3,512.08,479.27Z"/>
      <path class="cls-2" d="M512.07,479.27,507,484.45c-4.27,5-14.71,3-23.33-4.41s-12.16-17.44-7.89-22.42l5.09-5.17"/>
    </g>
    <g>
      <path class="cls-1" d="M1221.32,800.51V804h-90.4V772.35h.88l-32-146.21,7.9-36.56-45.44,182.77h1.48V804h-90.4v-3.45a28.16,28.16,0,0,1,28.16-28.16H1005l8.89-249.94,1-30.63-68.34,44.79-1.27-1.4L927,546a19.33,19.33,0,0,1-14.58,2.14l-33.84-8.43a6.73,6.73,0,0,1-5.09-6.52v-2.08a6.72,6.72,0,0,1,6.72-6.72h25.61l1-.31a6.72,6.72,0,0,1,5-6.5L926,513.94l-1.85-2,56.71-64.33.38-93.11a50.39,50.39,0,0,1,50.38-50.38h114.6a50.38,50.38,0,0,1,50.38,50.38v168h-1V554.5a25.17,25.17,0,0,1-21.6,24.94l17.12,192.91h2A28.15,28.15,0,0,1,1221.32,800.51Z"/>
      <g>
        <path class="cls-3" d="M1218.35,239.86a9.38,9.38,0,0,1-12.68,8.78l-24.37,72.23-8.89-9.38,31.78-63.56a9.38,9.38,0,1,1,14.16-8.07Z"/>
        <path class="cls-4" d="M1218.35,239.86a9.38,9.38,0,0,1-12.68,8.78l-24.37,72.23-8.89-9.38,31.78-63.56a9.38,9.38,0,1,1,14.16-8.07Z"/>
      </g>
      <g>
        <path class="cls-3" d="M957.91,239.86a9.38,9.38,0,0,0,12.68,8.78L995,320.87l8.89-9.38-31.78-63.56a9.38,9.38,0,1,0-14.16-8.07Z"/>
        <path class="cls-4" d="M957.91,239.86a9.38,9.38,0,0,0,12.68,8.78L995,320.87l8.89-9.38-31.78-63.56a9.38,9.38,0,1,0-14.16-8.07Z"/>
      </g>
      <path class="cls-5" d="M1099.81,626.14l32.1,146.71h59.27L1169,522.41h27.66V354.46a50.39,50.39,0,0,0-50.39-50.38H1031.64a50.38,50.38,0,0,0-50.38,50.38l-.38,93.11L924.17,511.9l22.33,24.67,68.34-44.79-1,30.63L1005,772.35h57.29l45.45-182.76"/>
      <rect class="cls-6" x="1014.84" y="491.78" width="153.13" height="28.65"/>
      <line class="cls-7" x1="1014.84" y1="520.43" x2="1014.84" y2="390.03"/>
      <line class="cls-7" x1="1167.97" y1="520.43" x2="1167.97" y2="390.03"/>
      <path class="cls-2" d="M1195.62,522.41V554.5a25.17,25.17,0,0,1-22,25L1169,522.41Z"/>
      <g>
        <path class="cls-8" d="M1146.2,367.3h-36.56a6.91,6.91,0,0,0-6.91,6.92v62.24a6.91,6.91,0,0,0,6.91,6.91h36.56a6.91,6.91,0,0,0,6.91-6.91V374.22A6.91,6.91,0,0,0,1146.2,367.3Zm-6.92,47.42h-22.72v-32.6h22.72Z"/>
        <rect class="cls-2" x="1102.73" y="367.3" width="50.38" height="76.07" rx="6.92" ry="6.92"/>
        <rect class="cls-2" x="1116.56" y="382.12" width="22.72" height="32.6"/>
      </g>
      <rect class="cls-6" x="1035.59" y="474" width="18.77" height="74.09" rx="5.93" ry="5.93"/>
      <rect class="cls-6" x="1122.53" y="474" width="18.77" height="74.09" rx="5.93" ry="5.93"/>
      <path class="cls-6" d="M1014.5,472v31.06a14.31,14.31,0,0,1-15.94-1.85l-.75-.64a6,6,0,0,1-.64-8.37Z"/>
      <path class="cls-6" d="M1189.21,459.18a5.93,5.93,0,0,0,5.92,5.93h1a14.34,14.34,0,0,0,14.33-14.33V433a14.33,14.33,0,0,0-14.33-14.32h-1a5.92,5.92,0,0,0-5.92,5.93Z"/>
      <path class="cls-6" d="M1063.51,685.51a18,18,0,0,1-18.79,17.19l-31.53-1.4a13.63,13.63,0,0,1-13-14.23l1.75-39.37a13.64,13.64,0,0,1,14.23-13l16.81.75a32.74,32.74,0,0,1,31.26,34.16Z"/>
      <path class="cls-6" d="M1126.36,685.51a18,18,0,0,0,18.78,17.19l31.54-1.4a13.64,13.64,0,0,0,13-14.23L1188,647.7a13.64,13.64,0,0,0-14.23-13l-16.81.75a32.74,32.74,0,0,0-31.26,34.17Z"/>
      <path class="cls-5" d="M1063.74,772.35H1001.5a28.15,28.15,0,0,0-28.15,28.16V804h90.39Z"/>
      <path class="cls-5" d="M1130.92,772.35h62.24a28.16,28.16,0,0,1,28.16,28.16V804h-90.4Z"/>
      <g>
        <path class="cls-5" d="M1164.27,223.44a62.61,62.61,0,0,0-62.61-62.61h-25.2a62.61,62.61,0,0,0-62.61,62.61v83.35c23,43.72,131.89,39.27,150.42,0Z"/>
        <g>
          <g>
            <rect class="cls-1" x="1047.94" y="203.31" width="88.91" height="118.06" rx="32.6" ry="32.6"/>
            <rect class="cls-5" x="1047.94" y="203.31" width="88.91" height="118.06" rx="32.6" ry="32.6"/>
          </g>
          <g>
            <path class="cls-8" d="M1144.26,212.69V235.9a32.48,32.48,0,0,1-7.41,20.75V244.79c0-26.27-18.94-34.73-30.08-24.3a20.57,20.57,0,0,1-27.89.14c-12.09-11-30.94-.54-30.94,24.16v8.42a32.47,32.47,0,0,1-5-17.31V212.69c0-18,14.55-35.56,32.45-35.56h36.37C1129.73,177.13,1144.26,194.67,1144.26,212.69Z"/>
            <path class="cls-5" d="M1144.26,212.69V235.9a32.48,32.48,0,0,1-7.41,20.75V244.79c0-26.27-18.94-34.73-30.08-24.3a20.57,20.57,0,0,1-27.89.14c-12.09-11-30.94-.54-30.94,24.16v8.42a32.47,32.47,0,0,1-5-17.31V212.69c0-18,14.55-35.56,32.45-35.56h36.37C1129.73,177.13,1144.26,194.67,1144.26,212.69Z"/>
          </g>
          <g>
            <g>
              <path class="cls-7" d="M1087.7,266.29a10.62,10.62,0,0,0-21.24,0"/>
              <path class="cls-7" d="M1124.75,266.29a10.62,10.62,0,1,0-21.24,0"/>
              <path class="cls-7" d="M1077.27,293.81s24.94-9.88,40.26,7.65"/>
            </g>
            <g>
              <g>
                <path class="cls-9" d="M1087.7,266.29a10.62,10.62,0,0,0-21.24,0"/>
                <path class="cls-9" d="M1087.7,266.29a10.62,10.62,0,0,0-21.24,0"/>
              </g>
              <g>
                <path class="cls-9" d="M1124.75,266.29a10.62,10.62,0,1,0-21.24,0"/>
                <path class="cls-9" d="M1124.75,266.29a10.62,10.62,0,1,0-21.24,0"/>
              </g>
              <g>
                <path class="cls-9" d="M1077.27,293.81s24.94-9.88,40.26,7.65"/>
                <path class="cls-9" d="M1077.27,293.81s24.94-9.88,40.26,7.65"/>
              </g>
            </g>
          </g>
        </g>
      </g>
      <path class="cls-2" d="M945.36,535.1,927,546a19.34,19.34,0,0,1-14.58,2.14l-33.84-8.43a6.73,6.73,0,0,1-5.1-6.52v-2.08a6.72,6.72,0,0,1,6.72-6.72h25.62l1-.3a6.72,6.72,0,0,1,5-6.51l14.3-3.7"/>
    </g>
    <g>
      <g>
        <g>
          <path class="cls-8" d="M268,521.13a4.29,4.29,0,0,1-4.17,5.32H209a3.79,3.79,0,0,1-3.7-4.82l10.38-36h43.5Z"/>
          <path class="cls-8" d="M246.51,485.63H228.1c-19.24,0-26.4-15.6-26.4-34.84V320.41a34.84,34.84,0,0,1,34.84-34.84h0a34.84,34.84,0,0,1,34.84,34.84V450.79C271.38,470,265.76,485.63,246.51,485.63Z"/>
        </g>
        <path class="cls-10" d="M268,521.13a4.29,4.29,0,0,1-4.17,5.32H209a3.79,3.79,0,0,1-3.7-4.82l10.38-36h43.5Z"/>
        <path class="cls-10" d="M246.51,485.63H228.1c-19.24,0-26.4-15.6-26.4-34.84V320.41a34.84,34.84,0,0,1,34.84-34.84h0a34.84,34.84,0,0,1,34.84,34.84V450.79C271.38,470,265.76,485.63,246.51,485.63Z"/>
      </g>
      <g>
        <path class="cls-1" d="M405.74,350.75a46.67,46.67,0,0,0-46.68-46.68H272.13a46.68,46.68,0,0,0-46.68,46.68v86.4a33.77,33.77,0,0,0,4.19,16.29l3.71,6.72V517.6a9.12,9.12,0,0,0,.71,3.53l1.76,4.23V775.31h0V804H400.32v-9.14a19.51,19.51,0,0,0-19.51-19.52h-9.64V579.2l-.43-58.4h6.85V406.13l15.76,38a20,20,0,0,0,26.28,10.73l50.27-21.44L461.57,405l-31.5,5.5-8.33-1.67-3.34-6.33Z"/>
        <path class="cls-1" d="M469.9,433.45l21.8-11.18a5.28,5.28,0,0,0,2.87-4.7v-4.74a3,3,0,0,1,2.3-2.94l11.05-2.76a5.64,5.64,0,0,0,4.25-5.94,3,3,0,0,0-3.43-2.75L461.57,405Z"/>
        <path class="cls-5" d="M309.92,304.07H272.13a46.68,46.68,0,0,0-46.68,46.68v86.4a33.75,33.75,0,0,0,4.2,16.29l3.71,6.72v57.45a9.25,9.25,0,0,0,.7,3.52l1.76,4.24V775.31H371.17V521.41l6.42-1.51V409.13l12.58,32.11a24.06,24.06,0,0,0,32.14,13.24l48.26-21.32-9-29L431,410.47a10.56,10.56,0,0,1-12.49-8.24C412.63,373.1,404.91,342,404.91,342s-5.58-37.93-45.84-37.93Z"/>
        <polyline class="cls-2" points="377.59 372.24 377.59 519.9 233.36 519.9"/>
        <line class="cls-2" x1="310.91" y1="557.97" x2="310.91" y2="775.31"/>
        <path class="cls-2" d="M270.48,389.4v31.86A13.7,13.7,0,0,0,284.18,435h23v35.94H250.84c-7.48,0-14.79-6.33-17.33-11.46"/>
        <path class="cls-2" d="M307.15,440.05l28.16-7.53a10.67,10.67,0,0,1,13.41,9.57l1.15,16.6a10.68,10.68,0,0,1-11.67,11.37l-31.05-3"/>
        <path class="cls-11" d="M339.31,290.24c-12.1,7.41-21.24,7.91-33.84,0"/>
        <path class="cls-11" d="M330.42,266.78a10.87,10.87,0,0,1,21.74,0"/>
        <path class="cls-11" d="M294.61,266.78a10.87,10.87,0,1,1,21.73,0"/>
        <path class="cls-5" d="M400.32,794.82V804H324.26v-9.14a19.51,19.51,0,0,0-12.35-18.15V775.3h68.9A19.51,19.51,0,0,1,400.32,794.82Z"/>
        <path class="cls-5" d="M235.84,775.31h68.91a19.51,19.51,0,0,1,19.51,19.51V804H235.84Z"/>
      </g>
      <g>
        <path class="cls-5" d="M236.85,222.08c0-37.31,26.44-63.57,63.76-63.57h14c37.31,0,71.37,26.26,71.37,63.57V293h0c0,22.06-34,41.27-75.14,41.27s-74-19.21-74-41.27h0Z"/>
        <g>
          <g>
            <path class="cls-1" d="M266.13,285.56c0,17.57,15.38,32.7,32.95,32.7h21.38c17.58,0,30.87-15.13,30.87-32.7V239.09a25.17,25.17,0,0,0-25.17-25.17H291.31a25.17,25.17,0,0,0-25.18,25.17Z"/>
            <path class="cls-5" d="M266.13,253v32.53c0,17.57,15.38,32.7,32.95,32.7h21.38c17.58,0,30.87-15.13,30.87-32.7V247.7"/>
          </g>
          <g>
            <path class="cls-12" d="M266.13,285.56c0,17.57,15.38,32.7,32.95,32.7h21.38c17.58,0,30.87-15.13,30.87-32.7V239.09a25.17,25.17,0,0,0-25.17-25.17H291.31a25.17,25.17,0,0,0-25.18,25.17Z"/>
            <path class="cls-12" d="M266.13,253v32.53c0,17.57,15.38,32.7,32.95,32.7h21.38c17.58,0,30.87-15.13,30.87-32.7V247.7"/>
          </g>
        </g>
        <g>
          <g>
            <path class="cls-2" d="M339.63,260.57a8.88,8.88,0,0,0-17.75,0"/>
            <path class="cls-2" d="M305,260.57a8.88,8.88,0,0,0-17.75,0"/>
          </g>
          <path class="cls-2" d="M329.21,295.81c-18.07-16.89-33.51,0-33.51,0"/>
        </g>
        <g>
          <g>
            <path class="cls-8" d="M297,181.28c15.09-2.22,25.13,1.3,38.61,9.32,10.44,6.21,19.9-5.3,19.9-5.3,7.54,20.85,1.12,60.94-4.21,67.87V240.73c0-8.76-5.26-22-13-20.4-26.27,5.32-29.78-13.45-55.73-1.22-6.82,3.21-8.71,15.19-10.39,25-.75,4.41-5.11,12.47-5.11,12.47l0,1c-5.38-8-7.3-32.34-4.92-45.06C264.68,199.23,274.24,184.63,297,181.28Z"/>
            <path class="cls-5" d="M297,181.28c15.09-2.22,25.13,1.3,38.61,9.32,10.44,6.21,19.9-5.3,19.9-5.3,7.54,20.85,1.12,60.94-4.21,67.87V240.73c0-8.76-5.26-22-13-20.4-26.27,5.32-29.78-13.45-55.73-1.22-6.82,3.21-8.71,15.19-10.39,25-.75,4.41-5.11,12.47-5.11,12.47l0,1c-5.38-8-7.3-32.34-4.92-45.06C264.68,199.23,274.24,184.63,297,181.28Z"/>
          </g>
          <g>
            <path class="cls-12" d="M297,181.28c15.09-2.22,25.13,1.3,38.61,9.32,10.44,6.21,19.9-5.3,19.9-5.3,7.54,20.85,1.12,60.94-4.21,67.87V240.73c0-8.76-5.26-22-13-20.4-26.27,5.32-29.78-13.45-55.73-1.22-6.82,3.21-8.71,15.19-10.39,25-.75,4.41-5.11,12.47-5.11,12.47l0,1c-5.38-8-7.3-32.34-4.92-45.06C264.68,199.23,274.24,184.63,297,181.28Z"/>
            <path class="cls-12" d="M297,181.28c15.09-2.22,25.13,1.3,38.61,9.32,10.44,6.21,19.9-5.3,19.9-5.3,7.54,20.85,1.12,60.94-4.21,67.87V240.73c0-8.76-5.26-22-13-20.4-26.27,5.32-29.78-13.45-55.73-1.22-6.82,3.21-8.71,15.19-10.39,25-.75,4.41-5.11,12.47-5.11,12.47l0,1c-5.38-8-7.3-32.34-4.92-45.06C264.68,199.23,274.24,184.63,297,181.28Z"/>
          </g>
        </g>
      </g>
      <path class="cls-2" d="M512.57,400.73a2.72,2.72,0,0,0-3.07-2.7l-47.93,6.1,9,29,19.91-9.34a6.24,6.24,0,0,0,3.59-5.65V415a6.23,6.23,0,0,1,4.76-6l9-2.19A6.24,6.24,0,0,0,512.57,400.73Z"/>
    </g>
    <path class="cls-5" d="M641.4,411.47c-24.66,17.33-49.33,60.55-54,115l-37.33,12-7.33,36.34,46-4.4s0,44.73,9.37,67.73c50.67,12,146,19.34,200.67-10.66,4.66-52.67,1.33-73-4.67-96.15,38-11.85,65.33-20.27,65.33-20.27,0,.42,5.34-37.05,5.34-37.05l-63.34,4.8-40.66-48.65S732.07,374.13,641.4,411.47Z"/>
    <path class="cls-2" d="M769.4,465.11s12.67,20.06,24.67,66.21"/>
    <g>
      <path class="cls-3" d="M756.38,482.41,734.92,480a12.7,12.7,0,0,1-23.23,4l-19.32,10.17-2.85-29.53,21.25,7.82a12.7,12.7,0,0,1,20.91-3.89l16.64-14.69Z"/>
      <path class="cls-2" d="M711.69,484l-19.32,10.17-2.85-29.53,21.25,7.82h0a12.69,12.69,0,0,0,.92,11.53Z"/>
      <path class="cls-2" d="M734.92,480a12.81,12.81,0,0,0,.28-2.65,12.63,12.63,0,0,0-3.52-8.77l16.64-14.69,8.06,28.56Z"/>
      <path class="cls-2" d="M735.2,477.31A12.7,12.7,0,1,0,722.5,490,12.7,12.7,0,0,0,735.2,477.31Z"/>
    </g>
    <path class="cls-2" d="M731.68,648.58s14.61-74.91,0-134.68"/>
    <polyline class="cls-2" points="640.07 504.69 621.4 567.47 588.7 570.4"/>
    <polyline class="cls-5" points="798.74 627.47 749.07 778.47 644.07 778.47 598.07 638.13"/>
    <line class="cls-2" x1="717.4" y1="714.13" x2="701.4" y2="778.47"/>
    <path class="cls-5" d="M772.74,797.09a18.63,18.63,0,0,0-18.63-18.62h-119a20.41,20.41,0,0,0-20.41,20.41V804h158Z"/>
    <line class="cls-2" x1="701.4" y1="778.47" x2="701.4" y2="803.96"/>
    <g>
      <g>
        <g>
          <path class="cls-1" d="M737.64,395a28,28,0,0,1-20.57,33.77l-37,9a28,28,0,0,1-33.76-20.57L633.5,364.31a28,28,0,0,1,20.58-33.76l37-9a27.94,27.94,0,0,1,33.76,20.57Z"/>
          <path class="cls-5" d="M737.64,395a28,28,0,0,1-20.57,33.77l-37,9a28,28,0,0,1-33.76-20.57L633.5,364.31a28,28,0,0,1,20.58-33.76l37-9a27.94,27.94,0,0,1,33.76,20.57Z"/>
        </g>
        <g>
          <g>
            <path class="cls-8" d="M672.36,409.25c10.25-1.1,9-22.52,35.52-11.17,20.7-19,24.91-4.21,37-4.39-8.79,11.35-18.86,16.84-27.65,11.9s-13.06,1.57-16.11,4.94C697.63,414.38,684.62,417.86,672.36,409.25Z"/>
            <path class="cls-2" d="M672.36,409.25c10.25-1.1,9-22.52,35.52-11.17,20.7-19,24.91-4.21,37-4.39-8.79,11.35-18.86,16.84-27.65,11.9s-13.06,1.57-16.11,4.94C697.63,414.38,684.62,417.86,672.36,409.25Z"/>
          </g>
          <g>
            <g>
              <path class="cls-2" d="M647.81,420.24c7.33,0,17.58-4.76,15-43.58"/>
              <g>
                <path class="cls-8" d="M692.86,369.24a15.47,15.47,0,1,0-15.47,15.47A15.47,15.47,0,0,0,692.86,369.24Z"/>
                <g>
                  <path class="cls-7" d="M692.86,369.24a15.47,15.47,0,1,0-15.47,15.47A15.47,15.47,0,0,0,692.86,369.24Z"/>
                  <g>
                    <path class="cls-9" d="M692.86,369.24a15.47,15.47,0,1,0-15.47,15.47A15.47,15.47,0,0,0,692.86,369.24Z"/>
                    <path class="cls-9" d="M692.86,369.24a15.47,15.47,0,1,0-15.47,15.47A15.47,15.47,0,0,0,692.86,369.24Z"/>
                  </g>
                </g>
              </g>
            </g>
            <g>
              <g>
                <path class="cls-7" d="M686.42,370.27a8,8,0,0,0-15.67,3"/>
                <path class="cls-7" d="M718.28,364.41a8,8,0,0,0-15.67,3"/>
              </g>
              <g>
                <g>
                  <path class="cls-9" d="M686.42,370.27a8,8,0,0,0-15.67,3"/>
                  <path class="cls-9" d="M686.42,370.27a8,8,0,0,0-15.67,3"/>
                </g>
                <g>
                  <path class="cls-9" d="M718.28,364.41a8,8,0,0,0-15.67,3"/>
                  <path class="cls-9" d="M718.28,364.41a8,8,0,0,0-15.67,3"/>
                </g>
              </g>
            </g>
          </g>
        </g>
      </g>
      <g>
        <path class="cls-1" d="M629.1,341.8l-17.63-74.13,89.14-21.29,17.62,74.13ZM718.3,321l-89.85,21.22-34.12,21.62,164.15-38.78Z"/>
        <polygon class="cls-8" points="656.86 335.1 629.11 341.81 611.48 267.67 639.22 260.96 656.86 335.1"/>
        <polygon class="cls-5" points="758.48 325.06 594.33 363.84 628.45 342.22 718.3 321 758.48 325.06"/>
        <polygon class="cls-5" points="718.23 320.51 629.11 341.8 611.48 267.67 700.61 246.38 718.23 320.51"/>
        <g>
          <rect class="cls-3" x="624.74" y="304.57" width="91.64" height="26.98" transform="translate(-55.44 164.01) rotate(-13.4)"/>
          <rect class="cls-5" x="624.74" y="304.57" width="91.64" height="26.98" transform="translate(-55.44 164.01) rotate(-13.4)"/>
        </g>
      </g>
    </g>
    <path class="cls-2" d="M547.57,539.69l-8.52-1.18a13,13,0,0,0-11.61,4.34,14.28,14.28,0,0,1-7.07,4.41l-19.92,5.32a7.26,7.26,0,0,0-5.38,7h0a5.66,5.66,0,0,0,5,5.62l44,5.18"/>
    <path class="cls-2" d="M860.37,508.85l8.74-.12A15.81,15.81,0,0,0,881,502.62a18,18,0,0,1,7.25-5.48l20.42-8.36A8.78,8.78,0,0,0,914.2,481h0a4.77,4.77,0,0,0-5.12-4.86L864,477.6"/>
    <path class="cls-2" d="M480.85,452.44l-5.09,5.18c-4.27,5-.74,15,7.88,22.41A29.31,29.31,0,0,0,497.4,487c4,.67,7.52-.11,9.58-2.51l4.33-4.41h0l.11-.12,0,0,.62-.63"/>
    <g>
      <path class="cls-2" d="M640,247.59a21.77,21.77,0,0,1-7.54-16.5V151.91m79.28,101h38.82a4.05,4.05,0,0,1,4,4.06v46.48a1.25,1.25,0,0,0,2.17.84l45.63-50.05a4.06,4.06,0,0,1,3-1.33h33.89a21.81,21.81,0,0,0,21.82-21.82V107.74a21.81,21.81,0,0,0-21.82-21.82h-185a21.82,21.82,0,0,0-21.83,21.82v10.17"/>
      <g>
        <path class="cls-3" d="M683.12,142.23h-6.88v-5H696.3v5h-6.85v17.38h-6.33Z"/>
        <path class="cls-3" d="M720,137.21v22.4h-6.34v-8.74H705v8.74h-6.33v-22.4H705v8.41h8.64v-8.41Z"/>
        <path class="cls-3" d="M739.47,155.25H730l-1.76,4.36h-6.47l9.89-22.4h6.24l9.92,22.4h-6.59Zm-1.86-4.67-2.88-7.17-2.88,7.17Z"/>
        <path class="cls-3" d="M753.26,142.23h-6.88v-5h20.06v5H759.6v17.38h-6.34Z"/>
        <path class="cls-3" d="M774.41,136.57a3.45,3.45,0,0,1,1,2.59,5.72,5.72,0,0,1-.2,1.47,16.58,16.58,0,0,1-.83,2.21l-2,4.67h-3.81l1.51-5.22a3,3,0,0,1-1.39-1.23,3.59,3.59,0,0,1-.5-1.9,3.44,3.44,0,0,1,1-2.59,3.65,3.65,0,0,1,2.63-1A3.58,3.58,0,0,1,774.41,136.57Z"/>
        <path class="cls-3" d="M778.57,137.21h6.34v17.37h10.68v5h-17Z"/>
        <path class="cls-3" d="M798.09,137.21h6.34v17.37h10.68v5h-17Z"/>
        <path class="cls-3" d="M714.11,188.42a5.54,5.54,0,0,1,1.08,3.44,5.16,5.16,0,0,1-2.36,4.55A12.3,12.3,0,0,1,706,198h-12.1v-22.4h11.46c2.86,0,5,.52,6.53,1.58a5,5,0,0,1,2.24,4.27,5.29,5.29,0,0,1-.79,2.87,5.47,5.47,0,0,1-2.22,2A6.24,6.24,0,0,1,714.11,188.42Zm-14-8.24v4.32h4.36c2.13,0,3.2-.72,3.2-2.17s-1.07-2.15-3.2-2.15Zm8.64,11c0-1.52-1.1-2.27-3.32-2.27h-5.32v4.54h5.32C707.69,193.43,708.79,192.67,708.79,191.16Z"/>
        <path class="cls-3" d="M736.47,193.11V198h-18v-22.4h17.57v4.89h-11.3v3.78h10V189h-10v4.1Z"/>
        <path class="cls-3" d="M765.19,195.81a9.41,9.41,0,0,1-5.52,2.48v3.56h-3.84v-3.43a20,20,0,0,1-4.54-.81,13.18,13.18,0,0,1-3.55-1.62l2.08-4.67a14.22,14.22,0,0,0,7.39,2.21c2.43,0,3.65-.61,3.65-1.83a1.51,1.51,0,0,0-1-1.42,19.05,19.05,0,0,0-3.35-1,31,31,0,0,1-4.22-1.17,7,7,0,0,1-2.91-2,5.39,5.39,0,0,1-1.22-3.71,6.39,6.39,0,0,1,2-4.72,9.47,9.47,0,0,1,5.72-2.41v-3.52h3.84v3.45a18.94,18.94,0,0,1,3.51.64,13.1,13.1,0,0,1,3,1.25l-1.95,4.7a13.06,13.06,0,0,0-6.21-1.72,5.12,5.12,0,0,0-2.75.56,1.67,1.67,0,0,0-.87,1.45,1.45,1.45,0,0,0,1,1.35,18.49,18.49,0,0,0,3.29.92,32.72,32.72,0,0,1,4.24,1.17,7.43,7.43,0,0,1,2.92,2,5.29,5.29,0,0,1,1.23,3.69A6.33,6.33,0,0,1,765.19,195.81Z"/>
        <path class="cls-3" d="M778.14,175.61V198H771.8V180.5h-4.16v-4.89Z"/>
        <path class="cls-3" d="M796.84,185.69a6.36,6.36,0,0,1,2.26,5.12,7.2,7.2,0,0,1-1.07,3.82,7.48,7.48,0,0,1-3.27,2.78,12.51,12.51,0,0,1-5.42,1,19.61,19.61,0,0,1-4.69-.57,13.53,13.53,0,0,1-4-1.63l2.27-4.77a10.68,10.68,0,0,0,3,1.37,11.32,11.32,0,0,0,3.25.48,4.74,4.74,0,0,0,2.6-.62,2,2,0,0,0,1-1.74,1.86,1.86,0,0,0-1-1.7,7.13,7.13,0,0,0-3.39-.58H782.3l1.12-13.08h14.27v4.89h-9l-.29,3.27h1.5Q794.59,183.77,796.84,185.69Z"/>
      </g>
    </g>
    <line class="cls-5" x1="108.07" y1="803.96" x2="1326.07" y2="803.96"/>
  </g>
  <path class="cls-2" d="M860.37,508.85l8.74-.12A15.81,15.81,0,0,0,881,502.62a18,18,0,0,1,7.25-5.48l20.42-8.36A8.78,8.78,0,0,0,914.2,481h0a4.77,4.77,0,0,0-5.12-4.86L864,477.6"/>
  <path class="cls-2" d="M911.64,486.8a9,9,0,0,1-3,2l-20.41,8.35a18,18,0,0,0-7.26,5.48,16.19,16.19,0,0,1-11.9,6.12l-8.74.12"/>
</svg>
