<svg id="work" xmlns="http://www.w3.org/2000/svg" viewBox="0 0 1422 870">
  <defs>
    <style>
      .cls-1, .cls-2, .cls-5 {
        fill: #ebebeb;
      }

      .cls-1, .cls-10, .cls-2, .cls-3, .cls-4, .cls-6, .cls-8 {
        stroke: #4a4a4a;
        stroke-linecap: round;
        stroke-linejoin: round;
      }

      .cls-1, .cls-10, .cls-4, .cls-6 {
        stroke-width: 2.5px;
      }

      .cls-2, .cls-3, .cls-8 {
        stroke-width: 4px;
      }

      .cls-10, .cls-3, .cls-4 {
        fill: none;
      }

      .cls-6, .cls-8, .cls-9 {
        fill: #fff;
      }

      .cls-7 {
        fill: #ff0083;
      }

      .cls-10 {
        stroke-dasharray: 10.08 10.08;
      }

      .cls-11 {
        fill: #f90080;
      }
    </style>
  </defs>
  <title>24,2</title>
  <g>
    <path class="cls-1" d="M428.83,258.68c0-19.72,3.65-35.06,24.8-39.58L795.31,153c19.3-4,39.06,12.36,44.15,36.58L841,201.05"/>
    <g>
      <path class="cls-2" d="M792.42,164.31A88,88,0,1,0,786,288.6,88,88,0,0,0,792.42,164.31Z"/>
      <path class="cls-3" d="M650,212.1a78.49,78.49,0,0,0-.79,9.55"/>
      <path class="cls-4" d="M804.5,232a77.92,77.92,0,0,0-151.57-32.7"/>
      <path class="cls-3" d="M649.7,232.46a77.92,77.92,0,0,0,152.23,12.4"/>
    </g>
    <path class="cls-1" d="M429.78,261c0-24.85,19.47-30.23,37.24-31.67l392-29.8c22.18-1.79,41.82,16.74,43.85,41.39l1.58,44.19"/>
    <line class="cls-3" x1="420.15" y1="609.1" x2="342.73" y2="609.1"/>
    <line class="cls-3" x1="1061.88" y1="609.1" x2="962.12" y2="609.1"/>
    <line class="cls-3" x1="1346.87" y1="609.1" x2="1247.11" y2="609.1"/>
    <line class="cls-3" x1="199.57" y1="609.1" x2="99.81" y2="609.1"/>
    <line class="cls-4" x1="365.19" y1="503.24" x2="260.2" y2="503.24"/>
    <line class="cls-4" x1="781.45" y1="767.33" x2="676.46" y2="767.33"/>
    <line class="cls-4" x1="995.67" y1="586.9" x2="1024.62" y2="586.9"/>
    <g>
      <path class="cls-5" d="M276.34,729.37c46.86-3.72,88-31.93,81.24-80.1-5.19-40.56-36.55-69.16-92.85-66.3-46.94,2.39-86.7,30.14-81.25,80.09C182.36,709.78,229.47,733.08,276.34,729.37Z"/>
      <path class="cls-3" d="M275,712c-48.21,3.82-89.58-22-92.41-57.58s34-67.61,82.18-71.43,89.58,21.95,92.4,57.58S323.17,708.14,275,712Z"/>
      <path class="cls-4" d="M184,663a48.41,48.41,0,0,0-.1,8.77c2.82,35.62,44.2,61.4,92.41,57.58s85-35.81,82.18-71.42a48.84,48.84,0,0,0-1.49-8.66"/>
      <path class="cls-1" d="M274.46,705.6c42.55-3.37,75.3-30.81,74.63-61.9,0-.84,0-1.67-.12-2.52-2.55-32.11-40-55.32-83.74-51.86s-77.07,32.31-74.52,64.42c.07.84.15,1.67.28,2.5C195.22,687,231.89,709,274.46,705.6Z"/>
      <path class="cls-6" d="M274.46,705.6c42.55-3.37,75.3-30.81,74.63-61.9-4.24-30.8-40.9-52.73-83.46-49.35S190.31,625.16,191,656.24C195.22,687,231.89,709,274.46,705.6Z"/>
      <line class="cls-4" x1="201.37" y1="691.84" x2="202.59" y2="707.25"/>
      <line class="cls-4" x1="210.33" y1="698.55" x2="211.55" y2="713.96"/>
      <line class="cls-4" x1="219.86" y1="703.86" x2="221.08" y2="719.28"/>
      <line class="cls-4" x1="312.69" y1="703.07" x2="313.92" y2="718.49"/>
      <line class="cls-4" x1="322.11" y1="698.45" x2="323.33" y2="713.86"/>
      <line class="cls-4" x1="329.66" y1="693.8" x2="330.88" y2="709.22"/>
      <line class="cls-4" x1="336.79" y1="688.01" x2="338.01" y2="703.43"/>
      <line class="cls-4" x1="342.73" y1="682.14" x2="343.95" y2="697.56"/>
      <line class="cls-4" x1="231.34" y1="708.35" x2="232.56" y2="723.76"/>
      <line class="cls-4" x1="245.4" y1="711.28" x2="246.62" y2="726.69"/>
      <line class="cls-4" x1="259.4" y1="713.54" x2="260.63" y2="728.95"/>
      <line class="cls-4" x1="273.18" y1="712.95" x2="274.4" y2="728.37"/>
      <line class="cls-4" x1="286.96" y1="712.36" x2="288.18" y2="727.78"/>
      <line class="cls-4" x1="300.47" y1="708.43" x2="301.7" y2="723.84"/>
      <path class="cls-7" d="M325.22,642.74q-1.71,4-3.4,7.92l-12.33-1.29-2,5,12.24,1.29q-1.65,3.84-3.27,7.64L304.23,662l-6.4,15.63-10.08-1.05c.1-.24.18-.43.25-.63.36-1,.75-1.91,1.06-2.88.53-1.67-.34-2.62-2.64-2.92-1-.14-2.05-.28-3.09-.39l-37.39-3.91c-1.69-.18-3.39-.33-5.09-.47-2.32-.19-3.83.54-4.49,2.19-.39,1-.68,2-1,2.94l-.22.57L225,670l4.69-15.84-12.22-1.28,2.17-7.77L232,646.39c.51-1.7,1-3.36,1.49-5l-12.4-1.3,2.24-8.07,1,.08c3.67.39,7.35.76,11,1.18.83.1,1.29,0,1.52-.68a10.23,10.23,0,0,1,.78-1.55,21,21,0,0,1,6.95-7.48,22.69,22.69,0,0,1,14.19-3.71,17.85,17.85,0,0,1,9.36,3.07,12.61,12.61,0,0,1,5.42,9c0,.24.09.49.14.73a2,2,0,0,0,.67-.6,26.86,26.86,0,0,1,5.57-5.85,23.53,23.53,0,0,1,12.82-4.63c9.08-.52,15.16,2.4,18.4,8.13,1.93,3.4,1.88,7.14,1,10.94-.13.6.07.76.81.84C317.06,641.85,321.13,642.31,325.22,642.74Zm-52.93,12,.56.08c5.26.55,10.53,1.11,15.8,1.65,1.13.11,2.29.17,3.46.21a1.92,1.92,0,0,0,2-.95c.84-1.85,1.69-3.72,2.39-5.61a37.75,37.75,0,0,0,1.48-5,5.7,5.7,0,0,0-1.06-4.94c-1.51-1.94-3.87-3-7-3.45a12.8,12.8,0,0,0-11.11,3.56,16.07,16.07,0,0,0-3.22,5.31c-1.14,2.88-2.13,5.76-3.17,8.61A4.71,4.71,0,0,0,272.29,654.74Zm-11.08-1.18a4.76,4.76,0,0,0,.22-.49c.65-1.9,1.32-3.8,1.95-5.72a19.65,19.65,0,0,0,1.34-6.64,5.49,5.49,0,0,0-2.36-4.59c-3.84-2.74-11.61-2.36-14.54,2.56a20.32,20.32,0,0,0-1.77,3.64c-1.05,3-2,5.92-2.9,8.84a3.3,3.3,0,0,0-.09.49Z"/>
    </g>
    <g>
      <path class="cls-5" d="M1155.68,659.37c46.86-3.72,88-31.93,81.23-80.1-5.19-40.56-36.55-69.16-92.85-66.3-46.94,2.39-86.7,30.14-81.24,80.09C1061.69,639.78,1108.81,663.08,1155.68,659.37Z"/>
      <path class="cls-3" d="M1154.44,642.9c-48.21,3.82-89.58-22-92.4-57.59s34-67.6,82.17-71.43,89.58,22,92.41,57.59S1202.65,639.07,1154.44,642.9Z"/>
      <path class="cls-4" d="M1063.52,594a48.52,48.52,0,0,0-.11,8.78c2.83,35.62,44.2,61.4,92.42,57.58s85-35.81,82.17-71.43a47.84,47.84,0,0,0-1.49-8.65"/>
      <path class="cls-1" d="M1153.94,636.53c42.56-3.37,75.31-30.82,74.63-61.9,0-.84,0-1.67-.11-2.52-2.55-32.11-40-55.32-83.74-51.86s-77.07,32.3-74.53,64.41c.07.85.16,1.68.28,2.51C1074.71,618,1111.38,639.91,1153.94,636.53Z"/>
      <path class="cls-6" d="M1153.94,636.53c42.56-3.37,75.31-30.82,74.63-61.9-4.23-30.8-40.9-52.73-83.45-49.35s-75.32,30.81-74.65,61.89C1074.71,618,1111.38,639.91,1153.94,636.53Z"/>
      <line class="cls-4" x1="1080.85" y1="622.77" x2="1082.08" y2="638.18"/>
      <line class="cls-4" x1="1089.82" y1="629.47" x2="1091.04" y2="644.89"/>
      <line class="cls-4" x1="1099.34" y1="634.79" x2="1100.56" y2="650.2"/>
      <line class="cls-4" x1="1192.18" y1="634" x2="1193.4" y2="649.42"/>
      <line class="cls-4" x1="1201.59" y1="629.38" x2="1202.81" y2="644.79"/>
      <line class="cls-4" x1="1209.15" y1="624.73" x2="1210.37" y2="640.14"/>
      <line class="cls-4" x1="1216.27" y1="618.94" x2="1217.5" y2="634.35"/>
      <line class="cls-4" x1="1222.21" y1="613.07" x2="1223.44" y2="628.49"/>
      <line class="cls-4" x1="1110.83" y1="639.28" x2="1112.05" y2="654.69"/>
      <line class="cls-4" x1="1124.88" y1="642.21" x2="1126.11" y2="657.62"/>
      <line class="cls-4" x1="1138.89" y1="644.46" x2="1140.11" y2="659.88"/>
      <line class="cls-4" x1="1152.67" y1="643.88" x2="1153.89" y2="659.29"/>
      <line class="cls-4" x1="1166.45" y1="643.29" x2="1167.67" y2="658.71"/>
      <line class="cls-4" x1="1179.96" y1="639.35" x2="1181.18" y2="654.77"/>
      <path class="cls-7" d="M1204.7,573.67l-3.39,7.92-12.34-1.3-2,5,12.25,1.29-3.27,7.63-12.21-1.28-6.4,15.63-10.07-1c.09-.24.18-.44.25-.64.35-1,.74-1.91,1-2.87.53-1.67-.34-2.62-2.64-2.93-1-.13-2.05-.28-3.08-.39l-37.4-3.91c-1.69-.17-3.39-.32-5.09-.46-2.32-.19-3.83.54-4.49,2.18-.39,1-.67,2-1,2.94-.07.2-.15.39-.22.58l-10.12-1.06c1.55-5.21,3.1-10.45,4.7-15.83L1097,583.8q1.08-3.87,2.16-7.78l12.32,1.3c.5-1.71,1-3.36,1.49-5l-12.41-1.3q1.13-4,2.25-8.07l1,.08c3.68.39,7.35.75,11,1.18.84.09,1.29,0,1.52-.68a10,10,0,0,1,.79-1.56,20.94,20.94,0,0,1,7-7.48,22.8,22.8,0,0,1,14.19-3.71,17.89,17.89,0,0,1,9.36,3.08,12.59,12.59,0,0,1,5.41,9c0,.25.09.49.14.74a2,2,0,0,0,.67-.6,27,27,0,0,1,5.58-5.86,23.46,23.46,0,0,1,12.82-4.62c9.07-.52,15.15,2.4,18.39,8.13,1.93,3.4,1.88,7.14,1,10.94-.13.59.07.76.82.83C1196.54,572.78,1200.62,573.23,1204.7,573.67Zm-52.93,12,.56.07c5.27.56,10.53,1.12,15.8,1.65,1.14.12,2.3.18,3.46.21a1.91,1.91,0,0,0,2-.94c.85-1.86,1.7-3.73,2.4-5.61a39.76,39.76,0,0,0,1.47-5,5.69,5.69,0,0,0-1-4.94c-1.51-2-3.87-3-7-3.46a12.83,12.83,0,0,0-11.11,3.57,15.83,15.83,0,0,0-3.21,5.3c-1.15,2.89-2.14,5.77-3.18,8.62C1151.85,585.31,1151.82,585.47,1151.77,585.67Zm-11.08-1.18a5.06,5.06,0,0,0,.23-.49c.65-1.9,1.31-3.8,1.95-5.72a19.88,19.88,0,0,0,1.33-6.64,5.45,5.45,0,0,0-2.35-4.59c-3.84-2.74-11.62-2.36-14.54,2.55a21.17,21.17,0,0,0-1.78,3.65c-1,3-2,5.92-2.9,8.84a3.3,3.3,0,0,0-.09.49Z"/>
    </g>
    <g>
      <path class="cls-8" d="M619.66,253.37a88,88,0,1,0-104.2,68.06A88,88,0,0,0,619.66,253.37Z"/>
      <path class="cls-4" d="M497.08,166.44a78.41,78.41,0,0,0-8.18,5"/>
      <path class="cls-4" d="M572.13,303a77.92,77.92,0,0,0-62.91-141.71"/>
      <path class="cls-5" d="M566.15,305.58a77.48,77.48,0,0,1-84-128.3,79.38,79.38,0,0,0,84,128.3Z"/>
      <path class="cls-4" d="M480.48,178.23a77.92,77.92,0,0,0,79.71,130.29"/>
      <path class="cls-7" d="M532.81,285.21l-8.76-1.84,3-14.33-6.55-1.37c-.52-.11-.5.33-.57.64q-1.42,6.79-2.84,13.6l-8.77-1.84,3.05-14.58-17.44-3.66c0-.16,0-.22,0-.26,1.22-3.11,2.45-6.22,3.65-9.35.18-.47.46-.37.79-.3l5.37,1.13c2.46.5,3.89-.44,4.41-2.92L516,212.48a4.43,4.43,0,0,0-3.41-5.58c-1.41-.38-2.85-.68-4.28-1l-2.63-.55c.66-3.13,1.3-6.17,1.95-9.3l17.5,3.66c1-4.84,2-9.57,3-14.31l8.77,1.84c-.94,4.46-1.87,8.92-2.83,13.38-.11.53,0,.73.55.82,1.52.27,3,.58,4.56.88l1.64.34a1.68,1.68,0,0,0,.16-.28l2.88-13.68,8.77,1.84c-.08.3-.16.59-.23.9q-1.26,6-2.53,12.09c-.29,1.39-.29,1.38,1.1,1.83a36.15,36.15,0,0,1,10.72,5.17,13.82,13.82,0,0,1,5.86,9,18.47,18.47,0,0,1-.62,8.16,12.92,12.92,0,0,1-8.7,9.16l-1,.33a5,5,0,0,0,.42.31c1.38.88,2.86,1.65,4.14,2.66A12.87,12.87,0,0,1,567,250a24,24,0,0,1-2.65,11.61,16.48,16.48,0,0,1-6.88,7.49,22.76,22.76,0,0,1-11.41,2.49c-3.15,0-6.3-.46-9.45-.77-.67-.07-.91.11-1,.75-.2,1.17-.47,2.32-.71,3.48Q533.87,280.1,532.81,285.21ZM522.49,257c2.71.57,5.26,1.17,7.84,1.63a33.32,33.32,0,0,0,10.59.46,9.67,9.67,0,0,0,6-2.66,8.1,8.1,0,0,0-.47-11.61,20.11,20.11,0,0,0-8.69-4.49c-3.41-.88-6.87-1.56-10.29-2.37-.76-.18-1,0-1.18.76-1.18,5.8-2.41,11.59-3.62,17.38C522.62,256.37,522.56,256.64,522.49,257Zm7.71-36.76c-.57,2.7-1.13,5.39-1.7,8.09-.09.41-.13.71.43.84,4.4,1,8.8,1.92,13.36,1.67a10,10,0,0,0,6.29-2.39c2.67-2.41,2.95-7.26.7-10.11a13.54,13.54,0,0,0-7.12-4.39c-3.11-.91-6.3-1.52-9.45-2.28-.61-.15-.75.12-.85.63C531.32,215,530.75,217.6,530.2,220.24Z"/>
      <path class="cls-6" d="M466.07,219c5.83-27.8-2.16-37-30-42.86,27.81,5.83,38.94.08,44.77-27.73-5.83,27.81.09,36.87,27.9,42.7C481,185.24,471.9,191.16,466.07,219Z"/>
      <path class="cls-6" d="M441.85,243.7c3.87-18.47-.06-24.49-18.53-28.36,18.47,3.87,24.49-.06,28.36-18.52-3.87,18.46.06,24.48,18.52,28.35C451.74,221.3,445.72,225.23,441.85,243.7Z"/>
    </g>
    <g>
      <path class="cls-8" d="M889,244.45a88,88,0,1,0,6.8,124.27A88,88,0,0,0,889,244.45Z"/>
      <path class="cls-3" d="M752.37,307.08a78.49,78.49,0,0,0,.23,9.58"/>
      <path class="cls-4" d="M908.14,310.42A77.92,77.92,0,0,0,754,294"/>
      <path class="cls-5" d="M907.39,316.9a77.47,77.47,0,0,1-153.09,8.5,79.37,79.37,0,0,0,153.09-8.5Z"/>
      <path class="cls-3" d="M754.27,327.35A77.92,77.92,0,0,0,907,323.53"/>
      <path class="cls-7" d="M843.49,330.39c1.84-2.06,3.64-4,5.33-6a33.16,33.16,0,0,0,5.7-8.94,9.64,9.64,0,0,0,.71-6.53,8.12,8.12,0,0,0-10.29-5.41,20.18,20.18,0,0,0-8.24,5.28c-2.46,2.51-4.78,5.17-7.2,7.73-.53.57-.51.88.07,1.4,4.43,3.92,8.83,7.88,13.24,11.83C843,330,843.22,330.15,843.49,330.39Zm-28-25.07,6.15,5.52c.32.29.55.47,1,.05,3.06-3.31,6.06-6.66,8.12-10.73a9.9,9.9,0,0,0,1.08-6.64c-.75-3.52-4.81-6.19-8.4-5.66a13.56,13.56,0,0,0-7.37,4c-2.34,2.23-4.46,4.69-6.7,7-.43.45-.26.72.13,1.06C811.5,301.71,813.51,303.52,815.52,305.32Z"/>
    </g>
    <g>
      <path class="cls-8" d="M742.71,332.23A88,88,0,1,0,618.26,332,88,88,0,0,0,742.71,332.23Z"/>
      <path class="cls-4" d="M687.91,192.31a78.64,78.64,0,0,0-9.58-.31"/>
      <path class="cls-4" d="M675.76,347.64a77.92,77.92,0,0,0,25.13-153"/>
      <path class="cls-5" d="M669.34,346.53a77.48,77.48,0,0,1,.16-153.33,79.38,79.38,0,0,0-.16,153.33Z"/>
      <path class="cls-4" d="M667.56,193.06a77.93,77.93,0,0,0-4.82,152.67"/>
      <path class="cls-7" d="M652.64,311.21l-6.33-6.34,10.38-10.33L652,289.79c-.38-.37-.6,0-.82.23l-9.84,9.81L635,293.48,645.52,283,633,270.34c.08-.14.1-.2.14-.22,2.72-1.94,5.46-3.86,8.18-5.81.4-.3.59-.06.83.18l3.87,3.89c1.78,1.77,3.49,1.76,5.29,0l27.25-27.14a4.44,4.44,0,0,0,.2-6.54c-1-1.1-2-2.13-3-3.19-.62-.64-1.26-1.26-1.89-1.9l6.73-6.71,12.62,12.67c3.5-3.5,6.93-6.91,10.36-10.32q3.16,3.17,6.32,6.35c-3.23,3.21-6.45,6.43-9.7,9.63-.38.38-.39.62,0,1,1.12,1.06,2.22,2.15,3.33,3.23.41.4.81.82,1.18,1.19a1.5,1.5,0,0,0,.29-.15l9.91-9.86q3.17,3.18,6.32,6.35c-.22.21-.45.41-.67.63-2.93,2.9-5.84,5.81-8.76,8.71-1,1-1,1-.08,2.14a36.13,36.13,0,0,1,6.13,10.2,13.85,13.85,0,0,1,0,10.74,18.33,18.33,0,0,1-5,6.48,12.89,12.89,0,0,1-12.3,2.88l-1-.28c.09.26.13.38.18.49a47.25,47.25,0,0,1,2,4.49,12.84,12.84,0,0,1-1,11.08,23.92,23.92,0,0,1-8.58,8.26,16.47,16.47,0,0,1-9.86,2.48,22.71,22.71,0,0,1-10.91-4.17c-2.61-1.77-5-3.85-7.48-5.83-.52-.43-.82-.41-1.26.07-.8.86-1.67,1.68-2.5,2.51ZM659.48,282c1.95,2,3.76,3.87,5.66,5.67a33.1,33.1,0,0,0,8.6,6.19,9.64,9.64,0,0,0,6.48,1.08,8.11,8.11,0,0,0,6-10,20.13,20.13,0,0,0-4.8-8.52c-2.37-2.6-4.89-5.07-7.31-7.63-.54-.56-.85-.56-1.4,0-4.17,4.2-8.37,8.36-12.57,12.54Zm26.61-26.5-5.86,5.83c-.3.3-.5.52-.1.94,3.13,3.24,6.3,6.43,10.25,8.72A9.89,9.89,0,0,0,697,272.4c3.56-.55,6.45-4.45,6.13-8.07a13.54,13.54,0,0,0-3.54-7.57c-2.1-2.47-4.44-4.73-6.65-7.09-.43-.46-.7-.31-1.06.06C689.92,251.65,688,253.55,686.09,255.46Z"/>
    </g>
    <g>
      <path class="cls-9" d="M965.85,571.08v77.44a44.78,44.78,0,0,1-44.8,44.81H473.63a44.81,44.81,0,0,1-44.8-44.81V249.62c0,27.08,20.06,36.27,44.8,36.27H921.05a44.41,44.41,0,0,1,25.55,8h0a44.75,44.75,0,0,1,19.24,36.8v88.23"/>
      <path class="cls-5" d="M965.85,542.72V574.4H908a67.26,67.26,0,0,1-66.42-77.54Z"/>
      <path class="cls-5" d="M967.16,333V646.73a44,44,0,0,1-19.26,36.34V296.67h0A44,44,0,0,1,967.16,333Z"/>
      <path class="cls-9" d="M965.86,428.26H908a67.21,67.21,0,0,0-67.21,67.21h0A67.21,67.21,0,0,0,908,562.68h87.69V428.26H965.86"/>
      <rect class="cls-5" x="977.85" y="428.26" width="17.81" height="134.42"/>
      <path class="cls-3" d="M965.85,571.08v77.44a44.78,44.78,0,0,1-44.8,44.81H473.63a44.81,44.81,0,0,1-44.8-44.81V249.62c0,27.08,20.06,36.27,44.8,36.27H921.05a44.41,44.41,0,0,1,25.55,8h0a44.75,44.75,0,0,1,19.24,36.8v88.23"/>
      <path class="cls-3" d="M965.85,571.08v77.44a44.78,44.78,0,0,1-44.8,44.81H473.63a44.81,44.81,0,0,1-44.8-44.81V249.62c0,27.08,20.06,36.27,44.8,36.27H921.05a44.41,44.41,0,0,1,25.55,8h0a44.75,44.75,0,0,1,19.24,36.8v88.23"/>
      <path class="cls-3" d="M965.86,428.26H908a67.21,67.21,0,0,0-67.21,67.21h0A67.21,67.21,0,0,0,908,562.68h87.69V428.26H965.86"/>
      <path class="cls-5" d="M934.12,503.14a23.34,23.34,0,1,0-23.34,23.34A23.34,23.34,0,0,0,934.12,503.14Z"/>
      <path class="cls-7" d="M934.12,495.47a23.34,23.34,0,1,0-23.34,23.34A23.35,23.35,0,0,0,934.12,495.47Z"/>
      <rect class="cls-10" x="484.93" y="428.93" width="326.2" height="140.14" rx="49.89" ry="49.89"/>
      <g>
        <path class="cls-11" d="M530.25,516.54a21.6,21.6,0,0,1-7.19-1.15,14.84,14.84,0,0,1-9.32-9.09,21.85,21.85,0,0,1-1.31-7.85,21.63,21.63,0,0,1,1.25-7.53,16,16,0,0,1,3.61-5.79,15.28,15.28,0,0,1,5.63-3.58,20.59,20.59,0,0,1,7.35-1.27,28.05,28.05,0,0,1,7.24.89,23,23,0,0,1,2.85,1c.85.37,1.6.71,2.24,1v8.46h-1c-.44-.37-1-.82-1.65-1.33a22.92,22.92,0,0,0-2.27-1.52,16.9,16.9,0,0,0-2.79-1.26,9.91,9.91,0,0,0-3.21-.51,10.85,10.85,0,0,0-3.61.6,8.79,8.79,0,0,0-3.16,2,9.78,9.78,0,0,0-2.24,3.53,14.81,14.81,0,0,0-.85,5.34,14.08,14.08,0,0,0,.92,5.47A9.6,9.6,0,0,0,525,507.4a8.64,8.64,0,0,0,3.19,1.84,11.47,11.47,0,0,0,3.47.55,11,11,0,0,0,3.25-.49,12.8,12.8,0,0,0,3-1.33,17.67,17.67,0,0,0,2.13-1.45q1-.76,1.62-1.32h.94v8.34c-.88.39-1.71.76-2.51,1.1a21.21,21.21,0,0,1-2.51.89,29.2,29.2,0,0,1-3.21.75A25.76,25.76,0,0,1,530.25,516.54Z"/>
        <path class="cls-11" d="M574.29,515.86H551v-6.09h7.36V491.32H551v-5.69a25.82,25.82,0,0,0,3.23-.2,8.74,8.74,0,0,0,2.58-.7,4.36,4.36,0,0,0,1.83-1.52,4.75,4.75,0,0,0,.7-2.34h7.76v28.9h7.2Z"/>
        <path class="cls-11" d="M617.27,498.42q0,8.34-4.78,13.26t-13.22,4.91q-8.41,0-13.19-4.91t-4.79-13.26q0-8.42,4.79-13.3t13.19-4.89q8.38,0,13.19,4.89T617.27,498.42Zm-11.93,8.84a10.67,10.67,0,0,0,1.95-3.76,18.42,18.42,0,0,0,.63-5.1,17,17,0,0,0-.73-5.35,10.42,10.42,0,0,0-1.9-3.56,7.1,7.1,0,0,0-2.75-2,8.59,8.59,0,0,0-3.25-.63,8.46,8.46,0,0,0-3.22.61,7.62,7.62,0,0,0-2.78,2,10,10,0,0,0-1.91,3.62,17.66,17.66,0,0,0-.73,5.35,17.15,17.15,0,0,0,.71,5.31,10.39,10.39,0,0,0,1.89,3.57,7,7,0,0,0,2.74,2,8.45,8.45,0,0,0,3.3.66,8.3,8.3,0,0,0,3.31-.67A7.18,7.18,0,0,0,605.34,507.26Z"/>
        <path class="cls-11" d="M650.67,504.05a12.49,12.49,0,0,1-1,5.05,11,11,0,0,1-3,4,14.14,14.14,0,0,1-4.95,2.64,21.91,21.91,0,0,1-6.39.86,34.33,34.33,0,0,1-7.09-.67,26.6,26.6,0,0,1-4.72-1.44v-7.71h1a25.07,25.07,0,0,0,4.6,2.11,15.06,15.06,0,0,0,4.89.84,16.31,16.31,0,0,0,3.2-.34,5.76,5.76,0,0,0,2.73-1.23,5.88,5.88,0,0,0,1.21-1.48,5.06,5.06,0,0,0,.41-2.32,3.87,3.87,0,0,0-.55-2.1,4.45,4.45,0,0,0-1.42-1.41,7.69,7.69,0,0,0-3-1,23,23,0,0,0-3.24-.25,22,22,0,0,0-4,.36c-1.29.25-2.42.48-3.39.72h-1V481h24.82v6.68H633.3v5.7c.48,0,1.1-.06,1.84-.09l2,0a21.66,21.66,0,0,1,5.14.55,14.17,14.17,0,0,1,3.9,1.53,9.22,9.22,0,0,1,3.33,3.41A10.76,10.76,0,0,1,650.67,504.05Z"/>
        <path class="cls-11" d="M677.13,515.86H656.69v-6.19h5.72V487.15h-5.72V481h20.44v6.19h-5.72v22.52h5.72Z"/>
        <path class="cls-11" d="M711,496.44a28.48,28.48,0,0,1-1.13,8.16,16.49,16.49,0,0,1-3.42,6.36,15.42,15.42,0,0,1-6.17,4.18,24.1,24.1,0,0,1-8.57,1.4,36.22,36.22,0,0,1-3.75-.21,21.8,21.8,0,0,1-2.65-.38v-6.86h.94a15,15,0,0,0,2,.7,13.37,13.37,0,0,0,3.55.37,14.47,14.47,0,0,0,3.59-.45,8.24,8.24,0,0,0,3-1.45,8.5,8.5,0,0,0,2.27-2.63,10.74,10.74,0,0,0,1.2-3.81,23.08,23.08,0,0,1-3.79,1.79,12.9,12.9,0,0,1-4.34.62,14.53,14.53,0,0,1-3.77-.48,10.56,10.56,0,0,1-3.27-1.49,9.93,9.93,0,0,1-3.1-3.64,12.42,12.42,0,0,1-1.16-5.72,11.73,11.73,0,0,1,3.9-9.13,14.63,14.63,0,0,1,10.23-3.54,18,18,0,0,1,5.78.86,11.45,11.45,0,0,1,4.35,2.62,12.55,12.55,0,0,1,3.21,5.13A23.38,23.38,0,0,1,711,496.44Zm-9-1.31a17,17,0,0,0-.55-4.7,7.08,7.08,0,0,0-1.51-2.86,4,4,0,0,0-1.57-1.08,5.39,5.39,0,0,0-1.88-.33,4.93,4.93,0,0,0-1.75.32,4.66,4.66,0,0,0-1.6,1.09,5.5,5.5,0,0,0-1.18,2,8.25,8.25,0,0,0-.46,2.92,6.85,6.85,0,0,0,.49,2.76,4.43,4.43,0,0,0,1.36,1.77,5,5,0,0,0,1.93.89,10.67,10.67,0,0,0,4.73,0,11.74,11.74,0,0,0,1.92-.55c0-.17,0-.42,0-.74S702,495.78,702,495.13Z"/>
        <path class="cls-11" d="M750.32,515.86h-8.67l-14.81-23.95v23.95h-8.25V481h10.76l12.72,20V481h8.25Z"/>
        <path class="cls-11" d="M783.09,499.5a7.82,7.82,0,0,1,1.83,2.3,7.65,7.65,0,0,1,.68,3.49,10.9,10.9,0,0,1-1,4.59,9.51,9.51,0,0,1-3,3.66A14.43,14.43,0,0,1,777,515.8a23.22,23.22,0,0,1-6.46.79,35.47,35.47,0,0,1-7.44-.68,27.78,27.78,0,0,1-5.05-1.53v-7.66H759a23,23,0,0,0,4.82,2.11,17.08,17.08,0,0,0,5.12.89,22.82,22.82,0,0,0,3-.22,6.34,6.34,0,0,0,2.7-1,4.75,4.75,0,0,0,1.38-1.41,4.66,4.66,0,0,0,.52-2.41,3.53,3.53,0,0,0-.71-2.35,3.82,3.82,0,0,0-1.85-1.19,9.92,9.92,0,0,0-2.76-.41l-3,0h-1.93v-6.24h2c1.21,0,2.29,0,3.23-.11a7.8,7.8,0,0,0,2.39-.54,3.54,3.54,0,0,0,1.55-1.19,3.79,3.79,0,0,0,.51-2.16,2.55,2.55,0,0,0-.54-1.7,3.83,3.83,0,0,0-1.35-1,7,7,0,0,0-2.16-.56,18.21,18.21,0,0,0-2.13-.15,17,17,0,0,0-4.79.77,21.54,21.54,0,0,0-5,2.19h-.86v-7.57a33.32,33.32,0,0,1,5.22-1.49,31.48,31.48,0,0,1,6.71-.72,26,26,0,0,1,5.78.58,14.19,14.19,0,0,1,4.1,1.53,7.75,7.75,0,0,1,2.86,2.79,7.6,7.6,0,0,1,.94,3.85,8.19,8.19,0,0,1-1.8,5.19,8.08,8.08,0,0,1-4.76,2.92v.32a12,12,0,0,1,2.53.66A8.24,8.24,0,0,1,783.09,499.5Z"/>
      </g>
    </g>
    <path class="cls-6" d="M714,351.34a87.8,87.8,0,0,0,28.74-19.11"/>
    <path class="cls-6" d="M618.26,332a87.91,87.91,0,0,0,75,25"/>
    <path class="cls-6" d="M1213.64,588.92c7.07-33.75-.11-44.75-33.86-51.83,33.75,7.08,44.75-.1,51.83-33.85-7.08,33.75.1,44.74,33.85,51.82C1231.71,548,1220.71,555.17,1213.64,588.92Z"/>
    <path class="cls-6" d="M336.41,640.21c4.48-21.38-.07-28.35-21.45-32.83,21.38,4.48,28.35-.07,32.83-21.45-4.48,21.38.07,28.35,21.45,32.83C347.86,614.28,340.89,618.83,336.41,640.21Z"/>
  </g>
</svg>
