<svg id="work" xmlns="http://www.w3.org/2000/svg" viewBox="0 0 1422 870">
  <defs>
    <style>
      .cls-1, .cls-11, .cls-7, .cls-8 {
        fill: #fff;
      }

      .cls-10, .cls-2, .cls-4, .cls-6 {
        fill: none;
      }

      .cls-10, .cls-11, .cls-12, .cls-2, .cls-6, .cls-7, .cls-8 {
        stroke: #4a4a4a;
      }

      .cls-10, .cls-11, .cls-12, .cls-2, .cls-4, .cls-7 {
        stroke-linecap: round;
      }

      .cls-10, .cls-11, .cls-12, .cls-2, .cls-4, .cls-6, .cls-7, .cls-8 {
        stroke-linejoin: round;
      }

      .cls-2, .cls-4, .cls-7 {
        stroke-width: 2.5px;
      }

      .cls-3 {
        fill: #ebeaea;
      }

      .cls-4 {
        stroke: #4b4a4b;
      }

      .cls-5 {
        fill: #ebebeb;
      }

      .cls-6, .cls-8 {
        stroke-linecap: square;
        stroke-width: 3px;
      }

      .cls-12, .cls-9 {
        fill: #ff0083;
      }

      .cls-10, .cls-11, .cls-12 {
        stroke-width: 4px;
      }

      .cls-13 {
        opacity: 0.1;
      }

      .cls-14 {
        fill: #4a4a4a;
      }

      .cls-15 {
        opacity: 0.2;
      }
    </style>
  </defs>
  <title>12,1</title>
  <g>
    <g>
      <g>
        <g>
          <path class="cls-1" d="M879,528.43v10.76c0,2.81-18.41,5.09-41.12,5.09s-41.13-2.28-41.13-5.09V528.43c0-4.8,37.17-5.09,41.13-5.09S879,524.47,879,528.43Z"/>
          <path class="cls-2" d="M879,528.43c0-2.81-18.41-5.09-41.12-5.09s-41.13,2.28-41.13,5.09,18.41,5.09,41.13,5.09S879,531.24,879,528.43Z"/>
          <path class="cls-2" d="M879,528.43v10.76c0,2.81-18.41,5.09-41.12,5.09s-41.13-2.28-41.13-5.09V528.43"/>
        </g>
        <g>
          <path class="cls-1" d="M879,518v10.76c0,2.81-18.41,5.09-41.12,5.09s-41.13-2.28-41.13-5.09V518c0-4.8,37.17-5.08,41.13-5.08S879,514,879,518Z"/>
          <path class="cls-2" d="M879,518c0-2.81-18.41-5.08-41.12-5.08s-41.13,2.27-41.13,5.08,18.41,5.09,41.13,5.09S879,520.77,879,518Z"/>
          <path class="cls-2" d="M879,518v10.76c0,2.81-18.41,5.09-41.12,5.09s-41.13-2.28-41.13-5.09V518"/>
        </g>
        <g>
          <path class="cls-1" d="M879,506.57v10.76c0,2.81-18.41,5.09-41.12,5.09s-41.13-2.28-41.13-5.09V506.57c0-4.8,37.17-5.09,41.13-5.09S879,502.62,879,506.57Z"/>
          <path class="cls-2" d="M879,506.57c0-2.81-18.41-5.09-41.12-5.09s-41.13,2.28-41.13,5.09,18.41,5.09,41.13,5.09S879,509.38,879,506.57Z"/>
          <path class="cls-2" d="M879,506.57v10.76c0,2.81-18.41,5.09-41.12,5.09s-41.13-2.28-41.13-5.09V506.57"/>
        </g>
        <g>
          <path class="cls-1" d="M879,496.1v10.76c0,2.81-18.41,5.09-41.12,5.09s-41.13-2.28-41.13-5.09V496.1c0-4.8,37.17-5.08,41.13-5.08S879,492.15,879,496.1Z"/>
          <path class="cls-2" d="M879,496.1c0-2.81-18.41-5.08-41.12-5.08s-41.13,2.27-41.13,5.08,18.41,5.09,41.13,5.09S879,498.91,879,496.1Z"/>
          <path class="cls-2" d="M879,496.1v10.76c0,2.81-18.41,5.09-41.12,5.09s-41.13-2.28-41.13-5.09V496.1"/>
        </g>
        <g>
          <path class="cls-1" d="M879,485.64V496.4c0,2.81-18.41,5.08-41.12,5.08s-41.13-2.27-41.13-5.08V485.64c0-4.81,37.17-5.09,41.13-5.09S879,481.68,879,485.64Z"/>
          <path class="cls-2" d="M879,485.64c0-2.81-18.41-5.09-41.12-5.09s-41.13,2.28-41.13,5.09,18.41,5.08,41.13,5.08S879,488.45,879,485.64Z"/>
          <path class="cls-2" d="M879,485.64V496.4c0,2.81-18.41,5.08-41.12,5.08s-41.13-2.27-41.13-5.08V485.64"/>
        </g>
        <g>
          <path class="cls-1" d="M876.56,475.17v10.76c0,2.81-18.42,5.09-41.13,5.09s-41.13-2.28-41.13-5.09V475.17c0-4.81,37.18-5.09,41.13-5.09S876.56,471.21,876.56,475.17Z"/>
          <path class="cls-2" d="M876.56,475.17c0-2.81-18.42-5.09-41.13-5.09s-41.13,2.28-41.13,5.09,18.41,5.09,41.13,5.09S876.56,478,876.56,475.17Z"/>
          <path class="cls-2" d="M876.56,475.17v10.76c0,2.81-18.42,5.09-41.13,5.09s-41.13-2.28-41.13-5.09V475.17"/>
        </g>
      </g>
      <g>
        <g>
          <path class="cls-1" d="M793.43,491.18v10.76c0,2.81-18.41,5.09-41.13,5.09s-41.13-2.28-41.13-5.09V491.18c0-4.8,37.18-5.09,41.13-5.09S793.43,487.22,793.43,491.18Z"/>
          <path class="cls-2" d="M793.43,491.18c0-2.81-18.41-5.09-41.13-5.09s-41.13,2.28-41.13,5.09,18.42,5.09,41.13,5.09S793.43,494,793.43,491.18Z"/>
          <path class="cls-2" d="M793.43,491.18v10.76c0,2.81-18.41,5.09-41.13,5.09s-41.13-2.28-41.13-5.09V491.18"/>
        </g>
        <g>
          <path class="cls-1" d="M793.43,480.71v10.76c0,2.81-18.41,5.09-41.13,5.09s-41.13-2.28-41.13-5.09V480.71c0-4.8,37.18-5.08,41.13-5.08S793.43,476.75,793.43,480.71Z"/>
          <path class="cls-2" d="M793.43,480.71c0-2.81-18.41-5.08-41.13-5.08s-41.13,2.27-41.13,5.08,18.42,5.09,41.13,5.09S793.43,483.52,793.43,480.71Z"/>
          <path class="cls-2" d="M793.43,480.71v10.76c0,2.81-18.41,5.09-41.13,5.09s-41.13-2.28-41.13-5.09V480.71"/>
        </g>
        <g>
          <path class="cls-1" d="M793.43,469.32v10.76c0,2.81-18.41,5.09-41.13,5.09s-41.13-2.28-41.13-5.09V469.32c0-4.8,37.18-5.09,41.13-5.09S793.43,465.36,793.43,469.32Z"/>
          <path class="cls-2" d="M793.43,469.32c0-2.81-18.41-5.09-41.13-5.09s-41.13,2.28-41.13,5.09,18.42,5.09,41.13,5.09S793.43,472.13,793.43,469.32Z"/>
          <path class="cls-2" d="M793.43,469.32v10.76c0,2.81-18.41,5.09-41.13,5.09s-41.13-2.28-41.13-5.09V469.32"/>
        </g>
        <g>
          <path class="cls-1" d="M793.43,458.85v10.76c0,2.81-18.41,5.09-41.13,5.09s-41.13-2.28-41.13-5.09V458.85c0-4.8,37.18-5.08,41.13-5.08S793.43,454.9,793.43,458.85Z"/>
          <path class="cls-2" d="M793.43,458.85c0-2.81-18.41-5.08-41.13-5.08s-41.13,2.27-41.13,5.08,18.42,5.09,41.13,5.09S793.43,461.66,793.43,458.85Z"/>
          <path class="cls-2" d="M793.43,458.85v10.76c0,2.81-18.41,5.09-41.13,5.09s-41.13-2.28-41.13-5.09V458.85"/>
        </g>
        <g>
          <path class="cls-1" d="M805.77,445.92v10.76c0,2.81-18.41,5.09-41.13,5.09s-41.13-2.28-41.13-5.09V445.92c0-4.81,37.18-5.09,41.13-5.09S805.77,442,805.77,445.92Z"/>
          <path class="cls-2" d="M805.77,445.92c0-2.81-18.41-5.09-41.13-5.09s-41.13,2.28-41.13,5.09S741.93,451,764.64,451,805.77,448.73,805.77,445.92Z"/>
          <path class="cls-2" d="M805.77,445.92v10.76c0,2.81-18.41,5.09-41.13,5.09s-41.13-2.28-41.13-5.09V445.92"/>
        </g>
        <g>
          <path class="cls-1" d="M791,440.39v10.76c0,2.81-18.41,5.08-41.13,5.08s-41.12-2.27-41.12-5.08V440.39c0-4.81,37.17-5.09,41.12-5.09S791,436.43,791,440.39Z"/>
          <path class="cls-2" d="M791,440.39c0-2.81-18.41-5.09-41.13-5.09s-41.12,2.28-41.12,5.09,18.41,5.09,41.12,5.09S791,443.2,791,440.39Z"/>
          <path class="cls-2" d="M791,440.39v10.76c0,2.81-18.41,5.08-41.13,5.08s-41.12-2.27-41.12-5.08V440.39"/>
        </g>
      </g>
      <g>
        <g>
          <path class="cls-1" d="M714.21,717V727.8c0,2.81-18.42,5.09-41.13,5.09S632,730.61,632,727.8V717c0-4.8,37.18-5.08,41.13-5.08S714.21,713.09,714.21,717Z"/>
          <path class="cls-2" d="M714.21,717c0-2.81-18.42-5.08-41.13-5.08S632,714.23,632,717s18.42,5.09,41.13,5.09S714.21,719.85,714.21,717Z"/>
          <path class="cls-2" d="M714.21,717V727.8c0,2.81-18.42,5.09-41.13,5.09S632,730.61,632,727.8V717"/>
        </g>
        <g>
          <path class="cls-1" d="M714.21,706.58v10.75c0,2.81-18.42,5.09-41.13,5.09S632,720.14,632,717.33V706.58c0-4.81,37.18-5.09,41.13-5.09S714.21,702.62,714.21,706.58Z"/>
          <path class="cls-2" d="M714.21,706.58c0-2.81-18.42-5.09-41.13-5.09S632,703.77,632,706.58s18.42,5.08,41.13,5.08S714.21,709.38,714.21,706.58Z"/>
          <path class="cls-2" d="M714.21,706.58v10.75c0,2.81-18.42,5.09-41.13,5.09S632,720.14,632,717.33V706.58"/>
        </g>
        <g>
          <path class="cls-1" d="M740.62,695.18v10.76c0,2.81-18.42,5.09-41.13,5.09s-41.13-2.28-41.13-5.09V695.18c0-4.8,37.18-5.08,41.13-5.08S740.62,691.23,740.62,695.18Z"/>
          <path class="cls-2" d="M740.62,695.18c0-2.8-18.42-5.08-41.13-5.08s-41.13,2.28-41.13,5.08,18.41,5.09,41.13,5.09S740.62,698,740.62,695.18Z"/>
          <path class="cls-2" d="M740.62,695.18v10.76c0,2.81-18.42,5.09-41.13,5.09s-41.13-2.28-41.13-5.09V695.18"/>
        </g>
        <g>
          <path class="cls-1" d="M714.21,684.72v10.76c0,2.81-18.42,5.08-41.13,5.08S632,698.29,632,695.48V684.72c0-4.81,37.18-5.09,41.13-5.09S714.21,680.76,714.21,684.72Z"/>
          <path class="cls-2" d="M714.21,684.72c0-2.81-18.42-5.09-41.13-5.09S632,681.91,632,684.72s18.42,5.08,41.13,5.08S714.21,687.53,714.21,684.72Z"/>
          <path class="cls-2" d="M714.21,684.72v10.76c0,2.81-18.42,5.08-41.13,5.08S632,698.29,632,695.48V684.72"/>
        </g>
        <g>
          <path class="cls-1" d="M726.55,671.78v10.76c0,2.81-18.42,5.09-41.13,5.09s-41.13-2.28-41.13-5.09V671.78c0-4.81,37.18-5.09,41.13-5.09S726.55,667.82,726.55,671.78Z"/>
          <path class="cls-2" d="M726.55,671.78c0-2.81-18.42-5.09-41.13-5.09s-41.13,2.28-41.13,5.09,18.41,5.09,41.13,5.09S726.55,674.59,726.55,671.78Z"/>
          <path class="cls-2" d="M726.55,671.78v10.76c0,2.81-18.42,5.09-41.13,5.09s-41.13-2.28-41.13-5.09V671.78"/>
        </g>
        <g>
          <path class="cls-1" d="M711.74,666.25V677c0,2.81-18.41,5.09-41.13,5.09s-41.13-2.28-41.13-5.09V666.25c0-4.81,37.18-5.09,41.13-5.09S711.74,662.29,711.74,666.25Z"/>
          <path class="cls-2" d="M711.74,666.25c0-2.81-18.41-5.09-41.13-5.09s-41.13,2.28-41.13,5.09,18.42,5.09,41.13,5.09S711.74,669.06,711.74,666.25Z"/>
          <path class="cls-2" d="M711.74,666.25V677c0,2.81-18.41,5.09-41.13,5.09s-41.13-2.28-41.13-5.09V666.25"/>
        </g>
        <g>
          <path class="cls-1" d="M717.12,653.28V664c0,2.81-18.41,5.08-41.13,5.08s-41.12-2.27-41.12-5.08V653.28c0-4.81,37.17-5.09,41.12-5.09S717.12,649.32,717.12,653.28Z"/>
          <path class="cls-2" d="M717.12,653.28c0-2.81-18.41-5.09-41.13-5.09s-41.12,2.28-41.12,5.09,18.41,5.08,41.12,5.08S717.12,656.09,717.12,653.28Z"/>
          <path class="cls-2" d="M717.12,653.28V664c0,2.81-18.41,5.08-41.13,5.08s-41.12-2.27-41.12-5.08V653.28"/>
        </g>
        <g>
          <path class="cls-1" d="M727.12,642.42v10.76c0,2.81-18.41,5.09-41.13,5.09s-41.12-2.28-41.12-5.09V642.42c0-4.8,37.17-5.09,41.12-5.09S727.12,638.46,727.12,642.42Z"/>
          <path class="cls-2" d="M727.12,642.42c0-2.81-18.41-5.09-41.13-5.09s-41.12,2.28-41.12,5.09,18.41,5.09,41.12,5.09S727.12,645.23,727.12,642.42Z"/>
          <path class="cls-2" d="M727.12,642.42v10.76c0,2.81-18.41,5.09-41.13,5.09s-41.12-2.28-41.12-5.09V642.42"/>
        </g>
      </g>
      <g>
        <g>
          <path class="cls-1" d="M1006.46,489.51v10.76c0,2.81-18.42,5.08-41.13,5.08s-41.13-2.27-41.13-5.08V489.51c0-4.81,37.18-5.09,41.13-5.09S1006.46,485.55,1006.46,489.51Z"/>
          <path class="cls-2" d="M1006.46,489.51c0-2.81-18.42-5.09-41.13-5.09s-41.13,2.28-41.13,5.09,18.41,5.08,41.13,5.08S1006.46,492.32,1006.46,489.51Z"/>
          <path class="cls-2" d="M1006.46,489.51v10.76c0,2.81-18.42,5.08-41.13,5.08s-41.13-2.27-41.13-5.08V489.51"/>
        </g>
        <g>
          <path class="cls-1" d="M1006.46,479V489.8c0,2.81-18.42,5.09-41.13,5.09s-41.13-2.28-41.13-5.09V479c0-4.81,37.18-5.09,41.13-5.09S1006.46,475.08,1006.46,479Z"/>
          <path class="cls-2" d="M1006.46,479c0-2.81-18.42-5.09-41.13-5.09S924.2,476.23,924.2,479s18.41,5.09,41.13,5.09S1006.46,481.85,1006.46,479Z"/>
          <path class="cls-2" d="M1006.46,479V489.8c0,2.81-18.42,5.09-41.13,5.09s-41.13-2.28-41.13-5.09V479"/>
        </g>
        <g>
          <path class="cls-1" d="M1006.46,467.65v10.76c0,2.81-18.42,5.09-41.13,5.09s-41.13-2.28-41.13-5.09V467.65c0-4.81,37.18-5.09,41.13-5.09S1006.46,463.69,1006.46,467.65Z"/>
          <path class="cls-2" d="M1006.46,467.65c0-2.81-18.42-5.09-41.13-5.09s-41.13,2.28-41.13,5.09,18.41,5.09,41.13,5.09S1006.46,470.46,1006.46,467.65Z"/>
          <path class="cls-2" d="M1006.46,467.65v10.76c0,2.81-18.42,5.09-41.13,5.09s-41.13-2.28-41.13-5.09V467.65"/>
        </g>
        <g>
          <path class="cls-1" d="M1006.46,457.18v10.76c0,2.81-18.42,5.09-41.13,5.09s-41.13-2.28-41.13-5.09V457.18c0-4.81,37.18-5.09,41.13-5.09S1006.46,453.22,1006.46,457.18Z"/>
          <path class="cls-2" d="M1006.46,457.18c0-2.81-18.42-5.09-41.13-5.09s-41.13,2.28-41.13,5.09,18.41,5.09,41.13,5.09S1006.46,460,1006.46,457.18Z"/>
          <path class="cls-2" d="M1006.46,457.18v10.76c0,2.81-18.42,5.09-41.13,5.09s-41.13-2.28-41.13-5.09V457.18"/>
        </g>
        <g>
          <path class="cls-1" d="M1018.8,444.24V455c0,2.81-18.42,5.09-41.13,5.09s-41.13-2.28-41.13-5.09V444.24c0-4.8,37.18-5.08,41.13-5.08S1018.8,440.29,1018.8,444.24Z"/>
          <path class="cls-2" d="M1018.8,444.24c0-2.81-18.42-5.08-41.13-5.08s-41.13,2.27-41.13,5.08,18.41,5.09,41.13,5.09S1018.8,447.05,1018.8,444.24Z"/>
          <path class="cls-2" d="M1018.8,444.24V455c0,2.81-18.42,5.09-41.13,5.09s-41.13-2.28-41.13-5.09V444.24"/>
        </g>
        <g>
          <path class="cls-1" d="M1004,438.71v10.76c0,2.81-18.41,5.09-41.13,5.09s-41.13-2.28-41.13-5.09V438.71c0-4.8,37.18-5.09,41.13-5.09S1004,434.75,1004,438.71Z"/>
          <path class="cls-2" d="M1004,438.71c0-2.81-18.41-5.09-41.13-5.09s-41.13,2.28-41.13,5.09,18.42,5.09,41.13,5.09S1004,441.52,1004,438.71Z"/>
          <path class="cls-2" d="M1004,438.71v10.76c0,2.81-18.41,5.09-41.13,5.09s-41.13-2.28-41.13-5.09V438.71"/>
        </g>
      </g>
      <g>
        <g>
          <path class="cls-1" d="M361,588.26V599c0,2.81-18.41,5.09-41.12,5.09s-41.13-2.28-41.13-5.09V588.26c0-4.8,37.17-5.08,41.13-5.08S361,584.31,361,588.26Z"/>
          <path class="cls-2" d="M361,588.26c0-2.8-18.41-5.08-41.12-5.08s-41.13,2.28-41.13,5.08,18.41,5.09,41.13,5.09S361,591.07,361,588.26Z"/>
          <path class="cls-2" d="M361,588.26V599c0,2.81-18.41,5.09-41.12,5.09s-41.13-2.28-41.13-5.09V588.26"/>
        </g>
        <g>
          <path class="cls-1" d="M361,576.87v10.76c0,2.81-18.41,5.09-41.12,5.09s-41.13-2.28-41.13-5.09V576.87c0-4.8,37.17-5.08,41.13-5.08S361,572.92,361,576.87Z"/>
          <path class="cls-2" d="M361,576.87c0-2.81-18.41-5.08-41.12-5.08s-41.13,2.27-41.13,5.08S297.15,582,319.87,582,361,579.68,361,576.87Z"/>
          <path class="cls-2" d="M361,576.87v10.76c0,2.81-18.41,5.09-41.12,5.09s-41.13-2.28-41.13-5.09V576.87"/>
        </g>
        <g>
          <path class="cls-1" d="M361,566.41v10.75c0,2.81-18.41,5.09-41.12,5.09s-41.13-2.28-41.13-5.09V566.41c0-4.81,37.17-5.09,41.13-5.09S361,562.45,361,566.41Z"/>
          <path class="cls-2" d="M361,566.41c0-2.81-18.41-5.09-41.12-5.09s-41.13,2.28-41.13,5.09,18.41,5.08,41.13,5.08S361,569.21,361,566.41Z"/>
          <path class="cls-2" d="M361,566.41v10.75c0,2.81-18.41,5.09-41.12,5.09s-41.13-2.28-41.13-5.09V566.41"/>
        </g>
        <g>
          <path class="cls-1" d="M362.23,555.94V566.7c0,2.81-18.42,5.09-41.13,5.09S280,569.51,280,566.7V555.94c0-4.81,37.18-5.09,41.13-5.09S362.23,552,362.23,555.94Z"/>
          <path class="cls-2" d="M362.23,555.94c0-2.81-18.42-5.09-41.13-5.09S280,553.13,280,555.94,298.39,561,321.1,561,362.23,558.75,362.23,555.94Z"/>
          <path class="cls-2" d="M362.23,555.94V566.7c0,2.81-18.42,5.09-41.13,5.09S280,569.51,280,566.7V555.94"/>
        </g>
        <g>
          <path class="cls-1" d="M361,545.47v10.76c0,2.81-18.41,5.09-41.12,5.09s-41.13-2.28-41.13-5.09V545.47c0-4.81,37.17-5.09,41.13-5.09S361,541.51,361,545.47Z"/>
          <path class="cls-2" d="M361,545.47c0-2.81-18.41-5.09-41.12-5.09s-41.13,2.28-41.13,5.09,18.41,5.09,41.13,5.09S361,548.28,361,545.47Z"/>
          <path class="cls-2" d="M361,545.47v10.76c0,2.81-18.41,5.09-41.12,5.09s-41.13-2.28-41.13-5.09V545.47"/>
        </g>
        <g>
          <path class="cls-1" d="M357.29,534.13v10.75c0,2.82-18.41,5.09-41.13,5.09S275,547.7,275,544.88V534.13c0-4.81,37.17-5.09,41.12-5.09S357.29,530.17,357.29,534.13Z"/>
          <path class="cls-2" d="M357.29,534.13c0-2.81-18.41-5.09-41.13-5.09S275,531.32,275,534.13s18.41,5.08,41.12,5.08S357.29,536.94,357.29,534.13Z"/>
          <path class="cls-2" d="M357.29,534.13v10.75c0,2.82-18.41,5.09-41.13,5.09S275,547.7,275,544.88V534.13"/>
        </g>
        <g>
          <path class="cls-1" d="M361,523.66v10.76c0,2.81-18.41,5.09-41.12,5.09s-41.13-2.28-41.13-5.09V523.66c0-4.81,37.17-5.09,41.13-5.09S361,519.7,361,523.66Z"/>
          <path class="cls-2" d="M361,523.66c0-2.81-18.41-5.09-41.12-5.09s-41.13,2.28-41.13,5.09,18.41,5.09,41.13,5.09S361,526.47,361,523.66Z"/>
          <path class="cls-2" d="M361,523.66v10.76c0,2.81-18.41,5.09-41.12,5.09s-41.13-2.28-41.13-5.09V523.66"/>
        </g>
        <g>
          <path class="cls-1" d="M369.63,512.27V523c0,2.81-18.41,5.09-41.13,5.09s-41.12-2.28-41.12-5.09V512.27c0-4.81,37.17-5.09,41.12-5.09S369.63,508.31,369.63,512.27Z"/>
          <path class="cls-2" d="M369.63,512.27c0-2.81-18.41-5.09-41.13-5.09s-41.12,2.28-41.12,5.09,18.41,5.09,41.12,5.09S369.63,515.08,369.63,512.27Z"/>
          <path class="cls-2" d="M369.63,512.27V523c0,2.81-18.41,5.09-41.13,5.09s-41.12-2.28-41.12-5.09V512.27"/>
        </g>
        <g>
          <path class="cls-1" d="M361,501.8v10.76c0,2.81-18.41,5.09-41.12,5.09s-41.13-2.28-41.13-5.09V501.8c0-4.81,37.17-5.09,41.13-5.09S361,497.84,361,501.8Z"/>
          <path class="cls-2" d="M361,501.8c0-2.81-18.41-5.09-41.12-5.09s-41.13,2.28-41.13,5.09,18.41,5.09,41.13,5.09S361,504.61,361,501.8Z"/>
          <path class="cls-2" d="M361,501.8v10.76c0,2.81-18.41,5.09-41.12,5.09s-41.13-2.28-41.13-5.09V501.8"/>
        </g>
        <g>
          <path class="cls-1" d="M348.65,491.33v10.76c0,2.81-18.41,5.09-41.12,5.09s-41.13-2.28-41.13-5.09V491.33c0-4.81,37.18-5.09,41.13-5.09S348.65,487.37,348.65,491.33Z"/>
          <path class="cls-2" d="M348.65,491.33c0-2.81-18.41-5.09-41.12-5.09s-41.13,2.28-41.13,5.09,18.41,5.09,41.13,5.09S348.65,494.14,348.65,491.33Z"/>
          <path class="cls-2" d="M348.65,491.33v10.76c0,2.81-18.41,5.09-41.12,5.09s-41.13-2.28-41.13-5.09V491.33"/>
        </g>
        <g>
          <path class="cls-1" d="M361,480.86v10.76c0,2.81-18.41,5.09-41.12,5.09s-41.13-2.28-41.13-5.09V480.86c0-4.8,37.17-5.09,41.13-5.09S361,476.91,361,480.86Z"/>
          <path class="cls-2" d="M361,480.86c0-2.81-18.41-5.09-41.12-5.09s-41.13,2.28-41.13,5.09S297.15,486,319.87,486,361,483.67,361,480.86Z"/>
          <path class="cls-2" d="M361,480.86v10.76c0,2.81-18.41,5.09-41.12,5.09s-41.13-2.28-41.13-5.09V480.86"/>
        </g>
        <g>
          <path class="cls-1" d="M361,469.49v10.76c0,2.81-18.41,5.09-41.12,5.09s-41.13-2.28-41.13-5.09V469.49c0-4.81,37.17-5.09,41.13-5.09S361,465.53,361,469.49Z"/>
          <path class="cls-2" d="M361,469.49c0-2.81-18.41-5.09-41.12-5.09s-41.13,2.28-41.13,5.09,18.41,5.09,41.13,5.09S361,472.3,361,469.49Z"/>
          <path class="cls-2" d="M361,469.49v10.76c0,2.81-18.41,5.09-41.12,5.09s-41.13-2.28-41.13-5.09V469.49"/>
        </g>
        <g>
          <path class="cls-1" d="M373.33,459v10.76c0,2.81-18.41,5.09-41.12,5.09s-41.13-2.28-41.13-5.09V459c0-4.8,37.17-5.09,41.13-5.09S373.33,455.06,373.33,459Z"/>
          <ellipse class="cls-2" cx="332.21" cy="459.02" rx="41.13" ry="5.09"/>
          <path class="cls-2" d="M373.33,459v10.76c0,2.81-18.41,5.09-41.12,5.09s-41.13-2.28-41.13-5.09V459"/>
        </g>
        <g>
          <path class="cls-1" d="M361,447.63v10.76c0,2.81-18.41,5.09-41.12,5.09s-41.13-2.28-41.13-5.09V447.63c0-4.81,37.17-5.09,41.13-5.09S361,443.67,361,447.63Z"/>
          <path class="cls-2" d="M361,447.63c0-2.81-18.41-5.09-41.12-5.09s-41.13,2.28-41.13,5.09,18.41,5.09,41.13,5.09S361,450.44,361,447.63Z"/>
          <path class="cls-2" d="M361,447.63v10.76c0,2.81-18.41,5.09-41.12,5.09s-41.13-2.28-41.13-5.09V447.63"/>
        </g>
        <g>
          <path class="cls-1" d="M354.83,437.16v10.76c0,2.81-18.42,5.09-41.13,5.09s-41.13-2.28-41.13-5.09V437.16c0-4.8,37.17-5.09,41.13-5.09S354.83,433.2,354.83,437.16Z"/>
          <path class="cls-2" d="M354.83,437.16c0-2.81-18.42-5.09-41.13-5.09s-41.13,2.28-41.13,5.09,18.41,5.09,41.13,5.09S354.83,440,354.83,437.16Z"/>
          <path class="cls-2" d="M354.83,437.16v10.76c0,2.81-18.42,5.09-41.13,5.09s-41.13-2.28-41.13-5.09V437.16"/>
        </g>
        <g>
          <path class="cls-1" d="M361,426.69v10.76c0,2.81-18.41,5.09-41.12,5.09s-41.13-2.28-41.13-5.09V426.69c0-4.8,37.17-5.08,41.13-5.08S361,422.74,361,426.69Z"/>
          <path class="cls-2" d="M361,426.69c0-2.8-18.41-5.08-41.12-5.08s-41.13,2.28-41.13,5.08,18.41,5.09,41.13,5.09S361,429.5,361,426.69Z"/>
          <path class="cls-2" d="M361,426.69v10.76c0,2.81-18.41,5.09-41.12,5.09s-41.13-2.28-41.13-5.09V426.69"/>
        </g>
        <g>
          <path class="cls-1" d="M384.93,416.23V427c0,2.81-18.41,5.08-41.13,5.08s-41.13-2.27-41.13-5.08V416.23c0-4.81,37.18-5.09,41.13-5.09S384.93,412.27,384.93,416.23Z"/>
          <path class="cls-2" d="M384.93,416.23c0-2.81-18.41-5.09-41.13-5.09s-41.13,2.28-41.13,5.09,18.42,5.08,41.13,5.08S384.93,419,384.93,416.23Z"/>
          <path class="cls-2" d="M384.93,416.23V427c0,2.81-18.41,5.08-41.13,5.08s-41.13-2.27-41.13-5.08V416.23"/>
        </g>
      </g>
      <g>
        <g>
          <path class="cls-1" d="M654.87,631.17v10.76c0,2.81,18.41,5.09,41.12,5.09s41.13-2.28,41.13-5.09V631.17c0-4.8-37.17-5.08-41.13-5.08S654.87,627.22,654.87,631.17Z"/>
          <path class="cls-2" d="M654.87,631.17c0-2.8,18.41-5.08,41.12-5.08s41.13,2.28,41.13,5.08-18.41,5.09-41.13,5.09S654.87,634,654.87,631.17Z"/>
          <path class="cls-2" d="M654.87,631.17v10.76c0,2.81,18.41,5.09,41.12,5.09s41.13-2.28,41.13-5.09V631.17"/>
        </g>
        <g>
          <path class="cls-1" d="M654.87,619.78v10.76c0,2.81,18.41,5.09,41.12,5.09s41.13-2.28,41.13-5.09V619.78c0-4.8-37.17-5.08-41.13-5.08S654.87,615.83,654.87,619.78Z"/>
          <path class="cls-2" d="M654.87,619.78c0-2.81,18.41-5.08,41.12-5.08s41.13,2.27,41.13,5.08-18.41,5.09-41.13,5.09S654.87,622.59,654.87,619.78Z"/>
          <path class="cls-2" d="M654.87,619.78v10.76c0,2.81,18.41,5.09,41.12,5.09s41.13-2.28,41.13-5.09V619.78"/>
        </g>
        <g>
          <path class="cls-1" d="M654.87,609.32v10.76c0,2.8,18.41,5.08,41.12,5.08s41.13-2.28,41.13-5.08V609.32c0-4.81-37.17-5.09-41.13-5.09S654.87,605.36,654.87,609.32Z"/>
          <path class="cls-2" d="M654.87,609.32c0-2.81,18.41-5.09,41.12-5.09s41.13,2.28,41.13,5.09S718.71,614.4,696,614.4,654.87,612.13,654.87,609.32Z"/>
          <path class="cls-2" d="M654.87,609.32v10.76c0,2.8,18.41,5.08,41.12,5.08s41.13-2.28,41.13-5.08V609.32"/>
        </g>
        <g>
          <path class="cls-1" d="M653.63,598.85v10.76c0,2.81,18.42,5.09,41.13,5.09s41.13-2.28,41.13-5.09V598.85c0-4.81-37.18-5.09-41.13-5.09S653.63,594.89,653.63,598.85Z"/>
          <path class="cls-2" d="M653.63,598.85c0-2.81,18.42-5.09,41.13-5.09s41.13,2.28,41.13,5.09-18.41,5.09-41.13,5.09S653.63,601.66,653.63,598.85Z"/>
          <path class="cls-2" d="M653.63,598.85v10.76c0,2.81,18.42,5.09,41.13,5.09s41.13-2.28,41.13-5.09V598.85"/>
        </g>
        <g>
          <path class="cls-1" d="M654.87,588.38v10.76c0,2.81,18.41,5.09,41.12,5.09s41.13-2.28,41.13-5.09V588.38c0-4.81-37.17-5.09-41.13-5.09S654.87,584.42,654.87,588.38Z"/>
          <path class="cls-2" d="M654.87,588.38c0-2.81,18.41-5.09,41.12-5.09s41.13,2.28,41.13,5.09-18.41,5.09-41.13,5.09S654.87,591.19,654.87,588.38Z"/>
          <path class="cls-2" d="M654.87,588.38v10.76c0,2.81,18.41,5.09,41.12,5.09s41.13-2.28,41.13-5.09V588.38"/>
        </g>
        <g>
          <path class="cls-1" d="M658.57,577v10.75c0,2.82,18.41,5.09,41.13,5.09s41.13-2.27,41.13-5.09V577c0-4.81-37.18-5.09-41.13-5.09S658.57,573.08,658.57,577Z"/>
          <path class="cls-2" d="M658.57,577c0-2.81,18.41-5.09,41.13-5.09s41.13,2.28,41.13,5.09-18.42,5.08-41.13,5.08S658.57,579.85,658.57,577Z"/>
          <path class="cls-2" d="M658.57,577v10.75c0,2.82,18.41,5.09,41.13,5.09s41.13-2.27,41.13-5.09V577"/>
        </g>
        <g>
          <path class="cls-1" d="M654.87,566.57v10.76c0,2.81,18.41,5.09,41.12,5.09s41.13-2.28,41.13-5.09V566.57c0-4.81-37.17-5.09-41.13-5.09S654.87,562.61,654.87,566.57Z"/>
          <path class="cls-2" d="M654.87,566.57c0-2.81,18.41-5.09,41.12-5.09s41.13,2.28,41.13,5.09-18.41,5.09-41.13,5.09S654.87,569.38,654.87,566.57Z"/>
          <path class="cls-2" d="M654.87,566.57v10.76c0,2.81,18.41,5.09,41.12,5.09s41.13-2.28,41.13-5.09V566.57"/>
        </g>
        <g>
          <path class="cls-1" d="M646.23,555.18v10.76c0,2.81,18.41,5.09,41.13,5.09s41.12-2.28,41.12-5.09V555.18c0-4.81-37.17-5.09-41.12-5.09S646.23,551.22,646.23,555.18Z"/>
          <path class="cls-2" d="M646.23,555.18c0-2.81,18.41-5.09,41.13-5.09s41.12,2.28,41.12,5.09-18.41,5.09-41.12,5.09S646.23,558,646.23,555.18Z"/>
          <path class="cls-2" d="M646.23,555.18v10.76c0,2.81,18.41,5.09,41.13,5.09s41.12-2.28,41.12-5.09V555.18"/>
        </g>
        <g>
          <path class="cls-1" d="M654.87,544.71v10.76c0,2.81,18.41,5.09,41.12,5.09s41.13-2.28,41.13-5.09V544.71c0-4.81-37.17-5.09-41.13-5.09S654.87,540.75,654.87,544.71Z"/>
          <path class="cls-2" d="M654.87,544.71c0-2.81,18.41-5.09,41.12-5.09s41.13,2.28,41.13,5.09S718.71,549.8,696,549.8,654.87,547.52,654.87,544.71Z"/>
          <path class="cls-2" d="M654.87,544.71v10.76c0,2.81,18.41,5.09,41.12,5.09s41.13-2.28,41.13-5.09V544.71"/>
        </g>
        <g>
          <path class="cls-1" d="M667.21,534.24V545c0,2.81,18.41,5.09,41.12,5.09s41.13-2.28,41.13-5.09V534.24c0-4.81-37.17-5.09-41.13-5.09S667.21,530.28,667.21,534.24Z"/>
          <path class="cls-2" d="M667.21,534.24c0-2.81,18.41-5.09,41.12-5.09s41.13,2.28,41.13,5.09-18.41,5.09-41.13,5.09S667.21,537.05,667.21,534.24Z"/>
          <path class="cls-2" d="M667.21,534.24V545c0,2.81,18.41,5.09,41.12,5.09s41.13-2.28,41.13-5.09V534.24"/>
        </g>
        <g>
          <path class="cls-1" d="M654.87,523.77v10.76c0,2.81,18.41,5.09,41.12,5.09s41.13-2.28,41.13-5.09V523.77c0-4.8-37.17-5.09-41.13-5.09S654.87,519.82,654.87,523.77Z"/>
          <path class="cls-2" d="M654.87,523.77c0-2.81,18.41-5.09,41.12-5.09s41.13,2.28,41.13,5.09-18.41,5.09-41.13,5.09S654.87,526.58,654.87,523.77Z"/>
          <path class="cls-2" d="M654.87,523.77v10.76c0,2.81,18.41,5.09,41.12,5.09s41.13-2.28,41.13-5.09V523.77"/>
        </g>
        <g>
          <path class="cls-1" d="M654.87,512.4v10.76c0,2.81,18.41,5.09,41.12,5.09s41.13-2.28,41.13-5.09V512.4c0-4.81-37.17-5.09-41.13-5.09S654.87,508.44,654.87,512.4Z"/>
          <path class="cls-2" d="M654.87,512.4c0-2.81,18.41-5.09,41.12-5.09s41.13,2.28,41.13,5.09-18.41,5.09-41.13,5.09S654.87,515.21,654.87,512.4Z"/>
          <path class="cls-2" d="M654.87,512.4v10.76c0,2.81,18.41,5.09,41.12,5.09s41.13-2.28,41.13-5.09V512.4"/>
        </g>
        <g>
          <path class="cls-1" d="M642.53,501.93v10.76c0,2.81,18.41,5.09,41.12,5.09s41.13-2.28,41.13-5.09V501.93c0-4.8-37.17-5.09-41.13-5.09S642.53,498,642.53,501.93Z"/>
          <path class="cls-2" d="M642.53,501.93c0-2.81,18.41-5.09,41.12-5.09s41.13,2.28,41.13,5.09S706.37,507,683.65,507,642.53,504.74,642.53,501.93Z"/>
          <path class="cls-2" d="M642.53,501.93v10.76c0,2.81,18.41,5.09,41.12,5.09s41.13-2.28,41.13-5.09V501.93"/>
        </g>
        <g>
          <path class="cls-1" d="M654.87,490.54V501.3c0,2.81,18.41,5.09,41.12,5.09s41.13-2.28,41.13-5.09V490.54c0-4.81-37.17-5.09-41.13-5.09S654.87,486.58,654.87,490.54Z"/>
          <path class="cls-2" d="M654.87,490.54c0-2.81,18.41-5.09,41.12-5.09s41.13,2.28,41.13,5.09-18.41,5.09-41.13,5.09S654.87,493.35,654.87,490.54Z"/>
          <path class="cls-2" d="M654.87,490.54V501.3c0,2.81,18.41,5.09,41.12,5.09s41.13-2.28,41.13-5.09V490.54"/>
        </g>
        <g>
          <path class="cls-1" d="M661,480.07v10.76c0,2.81,18.41,5.09,41.12,5.09s41.13-2.28,41.13-5.09V480.07c0-4.8-37.17-5.09-41.13-5.09S661,476.11,661,480.07Z"/>
          <path class="cls-2" d="M661,480.07c0-2.81,18.41-5.09,41.12-5.09s41.13,2.28,41.13,5.09-18.41,5.09-41.13,5.09S661,482.88,661,480.07Z"/>
          <path class="cls-2" d="M661,480.07v10.76c0,2.81,18.41,5.09,41.12,5.09s41.13-2.28,41.13-5.09V480.07"/>
        </g>
        <g>
          <path class="cls-1" d="M654.87,469.6v10.76c0,2.81,18.41,5.09,41.12,5.09s41.13-2.28,41.13-5.09V469.6c0-4.8-37.17-5.08-41.13-5.08S654.87,465.65,654.87,469.6Z"/>
          <path class="cls-2" d="M654.87,469.6c0-2.81,18.41-5.08,41.12-5.08s41.13,2.27,41.13,5.08-18.41,5.09-41.13,5.09S654.87,472.41,654.87,469.6Z"/>
          <path class="cls-2" d="M654.87,469.6v10.76c0,2.81,18.41,5.09,41.12,5.09s41.13-2.28,41.13-5.09V469.6"/>
        </g>
        <g>
          <path class="cls-1" d="M649.93,459.14V469.9c0,2.81,18.41,5.08,41.13,5.08s41.13-2.27,41.13-5.08V459.14c0-4.81-37.18-5.09-41.13-5.09S649.93,455.18,649.93,459.14Z"/>
          <ellipse class="cls-2" cx="691.06" cy="459.14" rx="41.13" ry="5.09"/>
          <path class="cls-2" d="M649.93,459.14V469.9c0,2.81,18.41,5.08,41.13,5.08s41.13-2.27,41.13-5.08V459.14"/>
        </g>
      </g>
      <g>
        <g>
          <path class="cls-1" d="M1087,549.08v10.76c0,2.81-18.42,5.09-41.13,5.09s-41.13-2.28-41.13-5.09V549.08c0-4.81,37.18-5.09,41.13-5.09S1087,545.12,1087,549.08Z"/>
          <path class="cls-2" d="M1087,549.08c0-2.81-18.42-5.09-41.13-5.09s-41.13,2.28-41.13,5.09,18.41,5.09,41.13,5.09S1087,551.89,1087,549.08Z"/>
          <path class="cls-2" d="M1087,549.08v10.76c0,2.81-18.42,5.09-41.13,5.09s-41.13-2.28-41.13-5.09V549.08"/>
        </g>
        <g>
          <path class="cls-1" d="M1087,537.69v10.76c0,2.81-18.42,5.09-41.13,5.09s-41.13-2.28-41.13-5.09V537.69c0-4.81,37.18-5.09,41.13-5.09S1087,533.73,1087,537.69Z"/>
          <path class="cls-2" d="M1087,537.69c0-2.81-18.42-5.09-41.13-5.09s-41.13,2.28-41.13,5.09,18.41,5.09,41.13,5.09S1087,540.5,1087,537.69Z"/>
          <path class="cls-2" d="M1087,537.69v10.76c0,2.81-18.42,5.09-41.13,5.09s-41.13-2.28-41.13-5.09V537.69"/>
        </g>
        <g>
          <path class="cls-1" d="M1087,527.22V538c0,2.81-18.42,5.09-41.13,5.09s-41.13-2.28-41.13-5.09V527.22c0-4.81,37.18-5.09,41.13-5.09S1087,523.26,1087,527.22Z"/>
          <path class="cls-2" d="M1087,527.22c0-2.81-18.42-5.09-41.13-5.09s-41.13,2.28-41.13,5.09,18.41,5.09,41.13,5.09S1087,530,1087,527.22Z"/>
          <path class="cls-2" d="M1087,527.22V538c0,2.81-18.42,5.09-41.13,5.09s-41.13-2.28-41.13-5.09V527.22"/>
        </g>
        <g>
          <path class="cls-1" d="M1088.26,516.75v10.76c0,2.81-18.41,5.09-41.13,5.09s-41.13-2.28-41.13-5.09V516.75c0-4.8,37.18-5.09,41.13-5.09S1088.26,512.79,1088.26,516.75Z"/>
          <path class="cls-2" d="M1088.26,516.75c0-2.81-18.41-5.09-41.13-5.09s-41.13,2.28-41.13,5.09,18.42,5.09,41.13,5.09S1088.26,519.56,1088.26,516.75Z"/>
          <path class="cls-2" d="M1088.26,516.75v10.76c0,2.81-18.41,5.09-41.13,5.09s-41.13-2.28-41.13-5.09V516.75"/>
        </g>
        <g>
          <path class="cls-1" d="M1087,506.28V517c0,2.81-18.42,5.09-41.13,5.09s-41.13-2.28-41.13-5.09V506.28c0-4.8,37.18-5.08,41.13-5.08S1087,502.33,1087,506.28Z"/>
          <path class="cls-2" d="M1087,506.28c0-2.81-18.42-5.08-41.13-5.08s-41.13,2.27-41.13,5.08,18.41,5.09,41.13,5.09S1087,509.09,1087,506.28Z"/>
          <path class="cls-2" d="M1087,506.28V517c0,2.81-18.42,5.09-41.13,5.09s-41.13-2.28-41.13-5.09V506.28"/>
        </g>
        <g>
          <path class="cls-1" d="M1083.32,494.94V505.7c0,2.81-18.41,5.09-41.12,5.09s-41.13-2.28-41.13-5.09V494.94c0-4.81,37.17-5.09,41.13-5.09S1083.32,491,1083.32,494.94Z"/>
          <path class="cls-2" d="M1083.32,494.94c0-2.81-18.41-5.09-41.12-5.09s-41.13,2.28-41.13,5.09,18.41,5.09,41.13,5.09S1083.32,497.75,1083.32,494.94Z"/>
          <path class="cls-2" d="M1083.32,494.94V505.7c0,2.81-18.41,5.09-41.12,5.09s-41.13-2.28-41.13-5.09V494.94"/>
        </g>
        <g>
          <path class="cls-1" d="M1087,484.47v10.76c0,2.81-18.42,5.09-41.13,5.09s-41.13-2.28-41.13-5.09V484.47c0-4.81,37.18-5.09,41.13-5.09S1087,480.51,1087,484.47Z"/>
          <path class="cls-2" d="M1087,484.47c0-2.81-18.42-5.09-41.13-5.09s-41.13,2.28-41.13,5.09,18.41,5.09,41.13,5.09S1087,487.28,1087,484.47Z"/>
          <path class="cls-2" d="M1087,484.47v10.76c0,2.81-18.42,5.09-41.13,5.09s-41.13-2.28-41.13-5.09V484.47"/>
        </g>
        <g>
          <path class="cls-1" d="M1095.66,473.08v10.76c0,2.81-18.41,5.09-41.12,5.09s-41.13-2.28-41.13-5.09V473.08c0-4.81,37.17-5.09,41.13-5.09S1095.66,469.12,1095.66,473.08Z"/>
          <path class="cls-2" d="M1095.66,473.08c0-2.81-18.41-5.09-41.12-5.09s-41.13,2.28-41.13,5.09,18.41,5.09,41.13,5.09S1095.66,475.89,1095.66,473.08Z"/>
          <path class="cls-2" d="M1095.66,473.08v10.76c0,2.81-18.41,5.09-41.12,5.09s-41.13-2.28-41.13-5.09V473.08"/>
        </g>
        <g>
          <path class="cls-1" d="M1087,462.61v10.76c0,2.81-18.42,5.09-41.13,5.09s-41.13-2.28-41.13-5.09V462.61c0-4.8,37.18-5.09,41.13-5.09S1087,458.66,1087,462.61Z"/>
          <path class="cls-2" d="M1087,462.61c0-2.81-18.42-5.09-41.13-5.09s-41.13,2.28-41.13,5.09,18.41,5.09,41.13,5.09S1087,465.42,1087,462.61Z"/>
          <path class="cls-2" d="M1087,462.61v10.76c0,2.81-18.42,5.09-41.13,5.09s-41.13-2.28-41.13-5.09V462.61"/>
        </g>
        <g>
          <path class="cls-1" d="M1074.69,452.14V462.9c0,2.81-18.42,5.09-41.13,5.09s-41.13-2.28-41.13-5.09V452.14c0-4.8,37.18-5.08,41.13-5.08S1074.69,448.19,1074.69,452.14Z"/>
          <path class="cls-2" d="M1074.69,452.14c0-2.8-18.42-5.08-41.13-5.08s-41.13,2.28-41.13,5.08,18.41,5.09,41.13,5.09S1074.69,455,1074.69,452.14Z"/>
          <path class="cls-2" d="M1074.69,452.14V462.9c0,2.81-18.42,5.09-41.13,5.09s-41.13-2.28-41.13-5.09V452.14"/>
        </g>
        <g>
          <path class="cls-1" d="M1087,441.68v10.76c0,2.81-18.42,5.08-41.13,5.08s-41.13-2.27-41.13-5.08V441.68c0-4.81,37.18-5.09,41.13-5.09S1087,437.72,1087,441.68Z"/>
          <path class="cls-2" d="M1087,441.68c0-2.81-18.42-5.09-41.13-5.09s-41.13,2.28-41.13,5.09,18.41,5.09,41.13,5.09S1087,444.49,1087,441.68Z"/>
          <path class="cls-2" d="M1087,441.68v10.76c0,2.81-18.42,5.08-41.13,5.08s-41.13-2.27-41.13-5.08V441.68"/>
        </g>
        <g>
          <path class="cls-1" d="M1087,430.3v10.76c0,2.81-18.42,5.09-41.13,5.09s-41.13-2.28-41.13-5.09V430.3c0-4.8,37.18-5.09,41.13-5.09S1087,426.35,1087,430.3Z"/>
          <path class="cls-2" d="M1087,430.3c0-2.81-18.42-5.09-41.13-5.09s-41.13,2.28-41.13,5.09,18.41,5.09,41.13,5.09S1087,433.11,1087,430.3Z"/>
          <path class="cls-2" d="M1087,430.3v10.76c0,2.81-18.42,5.09-41.13,5.09s-41.13-2.28-41.13-5.09V430.3"/>
        </g>
        <g>
          <path class="cls-1" d="M1099.37,419.84v10.75c0,2.81-18.42,5.09-41.13,5.09s-41.13-2.28-41.13-5.09V419.84c0-4.81,37.18-5.09,41.13-5.09S1099.37,415.88,1099.37,419.84Z"/>
          <path class="cls-2" d="M1099.37,419.84c0-2.81-18.42-5.09-41.13-5.09s-41.13,2.28-41.13,5.09,18.41,5.08,41.13,5.08S1099.37,422.64,1099.37,419.84Z"/>
          <path class="cls-2" d="M1099.37,419.84v10.75c0,2.81-18.42,5.09-41.13,5.09s-41.13-2.28-41.13-5.09V419.84"/>
        </g>
        <g>
          <path class="cls-1" d="M1087,408.44V419.2c0,2.81-18.42,5.09-41.13,5.09s-41.13-2.28-41.13-5.09V408.44c0-4.8,37.18-5.08,41.13-5.08S1087,404.49,1087,408.44Z"/>
          <path class="cls-2" d="M1087,408.44c0-2.8-18.42-5.08-41.13-5.08s-41.13,2.28-41.13,5.08,18.41,5.09,41.13,5.09S1087,411.25,1087,408.44Z"/>
          <path class="cls-2" d="M1087,408.44V419.2c0,2.81-18.42,5.09-41.13,5.09s-41.13-2.28-41.13-5.09V408.44"/>
        </g>
        <g>
          <path class="cls-1" d="M1080.86,398v10.76c0,2.81-18.42,5.08-41.13,5.08s-41.13-2.27-41.13-5.08V398c0-4.81,37.18-5.09,41.13-5.09S1080.86,394,1080.86,398Z"/>
          <path class="cls-2" d="M1080.86,398c0-2.81-18.42-5.09-41.13-5.09S998.6,395.17,998.6,398s18.41,5.08,41.13,5.08S1080.86,400.79,1080.86,398Z"/>
          <path class="cls-2" d="M1080.86,398v10.76c0,2.81-18.42,5.08-41.13,5.08s-41.13-2.27-41.13-5.08V398"/>
        </g>
        <g>
          <path class="cls-1" d="M1087,387.51v10.76c0,2.81-18.42,5.09-41.13,5.09s-41.13-2.28-41.13-5.09V387.51c0-4.81,37.18-5.09,41.13-5.09S1087,383.55,1087,387.51Z"/>
          <path class="cls-2" d="M1087,387.51c0-2.81-18.42-5.09-41.13-5.09s-41.13,2.28-41.13,5.09,18.41,5.09,41.13,5.09S1087,390.32,1087,387.51Z"/>
          <path class="cls-2" d="M1087,387.51v10.76c0,2.81-18.42,5.09-41.13,5.09s-41.13-2.28-41.13-5.09V387.51"/>
        </g>
        <g>
          <path class="cls-1" d="M1092,377V387.8c0,2.81-18.41,5.09-41.13,5.09s-41.12-2.28-41.12-5.09V377c0-4.81,37.17-5.09,41.12-5.09S1092,373.08,1092,377Z"/>
          <path class="cls-2" d="M1092,377c0-2.81-18.41-5.09-41.13-5.09s-41.12,2.28-41.12,5.09,18.41,5.09,41.12,5.09S1092,379.85,1092,377Z"/>
          <path class="cls-2" d="M1092,377V387.8c0,2.81-18.41,5.09-41.13,5.09s-41.12-2.28-41.12-5.09V377"/>
        </g>
      </g>
      <g>
        <path class="cls-1" d="M668.19,732.89c-3.2-30.69,3.69-98.29,48.69-116.5-34.5-31-25.16-70,15.67-105-3.88-15.73-26.5-23.09-40.74-24.5-4.75-.47-3.54-.14-.35-.64,28.79-4.54,43.71-19.79,52.81-48.71-3.89,22.87,4.34,51.57,17.77,59.47,21.34-12.1,87.84-.26,122.84,50.32.5,6.58,0,179.12,0,179.12Z"/>
        <path class="cls-3" d="M797.91,727.25H775.48c9.8-72.77,16.26-145.6,0-233.39h22.43Z"/>
        <polygon class="cls-3" points="849.71 727.25 811.48 727.25 811.48 493.86 840.12 506.81 849.71 514.06 849.71 727.25"/>
        <g>
          <path class="cls-4" d="M668.19,724.12c0-92.21,47.11-108.37,47.11-108.37"/>
          <path class="cls-4" d="M754.34,634.6c-142.19-39,11.13-229.71,125.86-93.56"/>
          <g>
            <path class="cls-1" d="M759.06,520.85c-9.43,7.39-22.22,6.06-23.57.67a49.36,49.36,0,0,0-1.87-7.4c-7.1-20.69-26.57-25.78-46.58-27.6,31.62-1.36,51.82-22.89,53.84-45.09,0,22.5,9,43,16.1,53.49a30.41,30.41,0,0,0,5.43,6.4C769.14,506.71,768.47,513.45,759.06,520.85Z"/>
            <path class="cls-4" d="M759.06,520.85c-9.43,7.39-22.22,6.06-23.57.67a49.36,49.36,0,0,0-1.87-7.4c-7.1-20.69-26.57-25.78-46.58-27.6,31.62-1.36,51.82-22.89,53.84-45.09,0,22.5,9,43,16.1,53.49a30.41,30.41,0,0,0,5.43,6.4C769.14,506.71,768.47,513.45,759.06,520.85Z"/>
          </g>
          <path class="cls-4" d="M753.79,489.74s6.55,12.82-19.76,25.65"/>
        </g>
      </g>
      <g>
        <g>
          <path class="cls-5" d="M465.34,465.17c19.51,31.79,53.76,88.95,5.76,143.15s-110.59,18.43-121.31-13.76C339.34,563.18,337.48,525.06,356,492,374.39,459.25,396,443.14,396,443.14l-2.38-30.31s5.63,9.57,12.32,9.91,16.33-7.8,24.45-3.8,17.41,17.68,23.81,20.25,24.32,2.86,24.32,2.86Z"/>
          <path class="cls-6" d="M465.34,465.17c19.51,31.79,53.76,88.95,5.76,143.15s-110.59,18.43-121.31-13.76C339.34,563.18,337.48,525.06,356,492,374.39,459.25,396,443.14,396,443.14l-2.38-30.31s5.63,9.57,12.32,9.91,16.33-7.8,24.45-3.8,17.41,17.68,23.81,20.25,24.32,2.86,24.32,2.86Z"/>
          <path class="cls-7" d="M396,443.14c15.38.91,29.17,9.81,29.17,9.81"/>
        </g>
        <path class="cls-8" d="M315.16,554.93C267,598.51,247.36,671.49,272.11,720,298,770.81,362.24,776,414.78,729.19c52.84-47,70.23-125.49,39.88-173C425.65,510.83,363.6,511.14,315.16,554.93Z"/>
        <path class="cls-5" d="M416.38,520.89s-40,1-45,3.5c-9.5,7-97.5,145.5,18,221.5,23.5-13,35.5-31,35.5-31Z"/>
        <path class="cls-6" d="M315.16,554.93C267,598.51,247.36,671.49,272.11,720,298,770.81,362.24,776,414.78,729.19c52.84-47,70.23-125.49,39.88-173C425.65,510.83,363.6,511.14,315.16,554.93Z"/>
        <path class="cls-2" d="M546.1,465.85c24.7,19.69,10.8,28.09,12.41,40.83S576.17,527,576.17,527"/>
        <path class="cls-8" d="M555.25,564.1c-5-29-20.33-75.66-8.59-95.66S584.85,454,584.85,454s-5.72-15.82-13.49-25.32-16,2.7-28.88-6.8c-12.75-9.37-34.08-30.66-34.08-30.66,7.25,25.54,17.18,50.12-8.95,69.28S338.14,512.35,358,665.45c6.62,51,109.42,90.54,149.91,57.94C548.64,690.6,568.34,640,555.25,564.1Z"/>
        <path class="cls-2" d="M544.68,472.83c-22.2,3.3-37.59-14.87-33.49-24.61"/>
        <path class="cls-5" d="M479.38,472.39c11.78,60.41,17.38,123.24,0,262l28.53-13v-267C501.18,462.78,490.81,467.92,479.38,472.39Z"/>
      </g>
      <polygon class="cls-1" points="1281.38 764.47 1281.38 802.85 126.17 802.85 126.17 764.47 160.96 764.47 160.96 727.25 1246.59 727.25 1246.59 764.47 1281.38 764.47"/>
      <g>
        <g>
          <path class="cls-1" d="M891,587.76c-66.63-58.53,61.43-189.67,160.18-72.48l-47.29,179.51c-36.1,23.63-116.8,14.11-159.46-1C844.43,628.69,866.27,602.41,891,587.76Z"/>
          <path class="cls-3" d="M949,707.58c-3.7-51.78,1.39-159,55.94-229.29a126,126,0,0,1,20.8,13.87c-25.43,41.6-47.15,104.93-48.08,213.57A127.72,127.72,0,0,1,949,707.58Z"/>
          <path class="cls-4" d="M1003.89,694.79c-36.1,23.63-116.8,14.11-159.46-1,0-89.91,45.94-105.67,45.94-105.67"/>
          <path class="cls-4" d="M928.45,606.51c-138.66-38,10.85-224,122.73-91.23"/>
          <g>
            <path class="cls-3" d="M913.72,415.56c4.25,5.46-1.44,21.81-16.25,34.23s-33.14,16.2-37.39,10.74,4.31-19.95,19.12-32.38S909.47,410.1,913.72,415.56Z"/>
            <path class="cls-1" d="M933,495.59c-9.19,7.21-21.66,5.91-23,.65a45.73,45.73,0,0,0-1.83-7.21c-6.92-20.18-25.9-25.14-45.42-26.92,30.85-1.32,50.54-22.32,52.51-44,0,21.95,8.73,41.9,15.7,52.17a29.84,29.84,0,0,0,5.3,6.24C942.88,481.8,942.23,488.38,933,495.59Z"/>
            <path class="cls-4" d="M915.4,419.21c-5.42-25.36-78,38.14-50.95,42.58"/>
            <path class="cls-4" d="M933,495.59c-9.19,7.21-21.66,5.91-23,.65a45.73,45.73,0,0,0-1.83-7.21c-6.92-20.18-25.9-25.14-45.42-26.92,30.85-1.32,50.54-22.32,52.51-44,0,21.95,8.73,41.9,15.7,52.17a29.84,29.84,0,0,0,5.3,6.24C942.88,481.8,942.23,488.38,933,495.59Z"/>
          </g>
          <path class="cls-4" d="M927.91,465.25s6.38,12.51-19.27,25"/>
          <path class="cls-4" d="M955.52,512.49s28.06,42.33,20.67,140.78"/>
          <path class="cls-4" d="M989,541c-5.61-4.27-15.75-7.41-25.57-6.8-27.75,1.72-41.87,46.18,9.33,53.07,43.67,5.88,32.31,53.87,6.4,58.09-14.79,2.41-34-6.23-34.95-18.21"/>
        </g>
        <g>
          <path class="cls-1" d="M1022.33,503.31c-9.78-29.31,11.4-37.23,26.36-37.23,1.62,60.12,81.34,82.39,118.39,81.71l-1,167.37c-94,22.65-183.82,2.12-199-10.93-4.52-3.16-5.15-81.7,23.08-148.46C1003.69,523.71,1020.93,504,1022.33,503.31Z"/>
          <path class="cls-3" d="M1110.17,720.3s33.28-78.59,7.39-157.64c11.56-3.24,9.25-17.1,5.55-20.34,20.8,4.62,35.6,2.31,35.6,2.31l.92,165C1143.45,716.6,1110.17,720.3,1110.17,720.3Z"/>
          <path class="cls-9" d="M1168.38,516.65V547c-17,1.82-74.47-2.82-106.37-42.53-5.43-19.58-20.1-53.84-20.1-53.84,16.67-7.25,33.64-15.14,33.64-15.14,1.81,2.9,5,7.31,5,7.31,5.44-1.82,20.28-4.35,20.28-4.35-2.16-4.68-2.19-4.69-2.19-4.69,10.51-5.08,23.2-12,23.2-12,8.35,8,14.63,19.18,17.77,35.17,9.8,2.54,14-.72,14-.72,5.7,24.32,3.45,44.36,1.25,59.83Z"/>
          <path class="cls-4" d="M1022,503.49c-60.11,68-60.73,196.67-54.91,200.74,15.23,13,105,33.58,199,10.93"/>
          <path class="cls-4" d="M1167.08,565c-33.87,8.47-122.14-12.08-141.5-53.65-16.74-35.94,6.87-45.29,23.11-45.29,1.62,60.12,81.34,82.39,118.39,81.71"/>
          <path class="cls-4" d="M1061.86,503.49s-12.16-40.86-20-52.18c13.78-5.91,34-16.74,34-16.74,10.34,17.72,20,46.09,22.64,67.87"/>
          <path class="cls-4" d="M1084.65,508.91l31.51-14.77c11.81,11.81,20.67,31,28,47.74"/>
          <path class="cls-4" d="M1080.54,442.77l28.23-6.72c4.43,16.24,8.35,39.17,2.94,59.85"/>
          <path class="cls-4" d="M1114.43,459.85c9.93,7.29,15.63,31.82,12.18,45.6"/>
          <path class="cls-4" d="M1123.54,457.71l31-1c3.1,12.3.67,28.87.67,28.87"/>
          <path class="cls-4" d="M1139.29,456.73c-2.51-12.39-6.26-22.16-17.23-35l-23.63,11.8,2,3.57"/>
          <path class="cls-4" d="M1101.23,590.35c-35.54-41.37-87,11.68-33.4,36.45a34.06,34.06,0,0,1,19.54,24.76c5.55,31.78-50.11,45.11-60.46,3.35"/>
          <path class="cls-4" d="M1085.64,566c-11.82,17.73-32,72.86-34.46,129.47"/>
        </g>
      </g>
      <g>
        <g>
          <path class="cls-1" d="M333.44,673.21V684c0,2.81-18.41,5.09-41.13,5.09s-41.13-2.28-41.13-5.09V673.21c0-4.8,37.18-5.09,41.13-5.09S333.44,669.25,333.44,673.21Z"/>
          <path class="cls-2" d="M333.44,673.21c0-2.81-18.41-5.09-41.13-5.09s-41.13,2.28-41.13,5.09,18.42,5.09,41.13,5.09S333.44,676,333.44,673.21Z"/>
          <path class="cls-2" d="M333.44,673.21V684c0,2.81-18.41,5.09-41.13,5.09s-41.13-2.28-41.13-5.09V673.21"/>
        </g>
        <g>
          <path class="cls-1" d="M333.44,662.74V673.5c0,2.81-18.41,5.09-41.13,5.09s-41.13-2.28-41.13-5.09V662.74c0-4.8,37.18-5.08,41.13-5.08S333.44,658.79,333.44,662.74Z"/>
          <path class="cls-2" d="M333.44,662.74c0-2.81-18.41-5.08-41.13-5.08s-41.13,2.27-41.13,5.08,18.42,5.09,41.13,5.09S333.44,665.55,333.44,662.74Z"/>
          <path class="cls-2" d="M333.44,662.74V673.5c0,2.81-18.41,5.09-41.13,5.09s-41.13-2.28-41.13-5.09V662.74"/>
        </g>
        <g>
          <path class="cls-1" d="M333.44,651.35v10.76c0,2.81-18.41,5.09-41.13,5.09s-41.13-2.28-41.13-5.09V651.35c0-4.8,37.18-5.09,41.13-5.09S333.44,647.4,333.44,651.35Z"/>
          <path class="cls-2" d="M333.44,651.35c0-2.81-18.41-5.09-41.13-5.09s-41.13,2.28-41.13,5.09,18.42,5.09,41.13,5.09S333.44,654.16,333.44,651.35Z"/>
          <path class="cls-2" d="M333.44,651.35v10.76c0,2.81-18.41,5.09-41.13,5.09s-41.13-2.28-41.13-5.09V651.35"/>
        </g>
        <g>
          <path class="cls-1" d="M333.44,640.88v10.76c0,2.81-18.41,5.09-41.13,5.09s-41.13-2.28-41.13-5.09V640.88c0-4.8,37.18-5.08,41.13-5.08S333.44,636.93,333.44,640.88Z"/>
          <path class="cls-2" d="M333.44,640.88c0-2.8-18.41-5.08-41.13-5.08s-41.13,2.28-41.13,5.08S269.6,646,292.31,646,333.44,643.69,333.44,640.88Z"/>
          <path class="cls-2" d="M333.44,640.88v10.76c0,2.81-18.41,5.09-41.13,5.09s-41.13-2.28-41.13-5.09V640.88"/>
        </g>
        <g>
          <path class="cls-1" d="M333.44,630.42v10.76c0,2.81-18.41,5.08-41.13,5.08s-41.13-2.27-41.13-5.08V630.42c0-4.81,37.18-5.09,41.13-5.09S333.44,626.46,333.44,630.42Z"/>
          <path class="cls-2" d="M333.44,630.42c0-2.81-18.41-5.09-41.13-5.09s-41.13,2.28-41.13,5.09,18.42,5.08,41.13,5.08S333.44,633.23,333.44,630.42Z"/>
          <path class="cls-2" d="M333.44,630.42v10.76c0,2.81-18.41,5.08-41.13,5.08s-41.13-2.27-41.13-5.08V630.42"/>
        </g>
        <g>
          <path class="cls-1" d="M331,620v10.76c0,2.81-18.41,5.09-41.13,5.09s-41.12-2.28-41.12-5.09V620c0-4.81,37.17-5.09,41.12-5.09S331,616,331,620Z"/>
          <path class="cls-2" d="M331,620c0-2.81-18.41-5.09-41.13-5.09s-41.12,2.28-41.12,5.09S267.13,625,289.84,625,331,622.76,331,620Z"/>
          <path class="cls-2" d="M331,620v10.76c0,2.81-18.41,5.09-41.13,5.09s-41.12-2.28-41.12-5.09V620"/>
        </g>
      </g>
      <g>
        <g>
          <path class="cls-1" d="M392.38,696.91v10.76c0,2.81-18.41,5.08-41.13,5.08s-41.12-2.27-41.12-5.08V696.91c0-4.81,37.17-5.09,41.12-5.09S392.38,693,392.38,696.91Z"/>
          <path class="cls-2" d="M392.38,696.91c0-2.81-18.41-5.09-41.13-5.09s-41.12,2.28-41.12,5.09S328.54,702,351.25,702,392.38,699.72,392.38,696.91Z"/>
          <path class="cls-2" d="M392.38,696.91v10.76c0,2.81-18.41,5.08-41.13,5.08s-41.12-2.27-41.12-5.08V696.91"/>
        </g>
        <g>
          <path class="cls-1" d="M392.38,686.44V697.2c0,2.81-18.41,5.09-41.13,5.09s-41.12-2.28-41.12-5.09V686.44c0-4.81,37.17-5.09,41.12-5.09S392.38,682.48,392.38,686.44Z"/>
          <path class="cls-2" d="M392.38,686.44c0-2.81-18.41-5.09-41.13-5.09s-41.12,2.28-41.12,5.09,18.41,5.09,41.12,5.09S392.38,689.25,392.38,686.44Z"/>
          <path class="cls-2" d="M392.38,686.44V697.2c0,2.81-18.41,5.09-41.13,5.09s-41.12-2.28-41.12-5.09V686.44"/>
        </g>
        <g>
          <path class="cls-1" d="M392.38,675.05v10.76c0,2.81-18.41,5.09-41.13,5.09s-41.12-2.28-41.12-5.09V675.05c0-4.81,37.17-5.09,41.12-5.09S392.38,671.09,392.38,675.05Z"/>
          <path class="cls-2" d="M392.38,675.05c0-2.81-18.41-5.09-41.13-5.09s-41.12,2.28-41.12,5.09,18.41,5.09,41.12,5.09S392.38,677.86,392.38,675.05Z"/>
          <path class="cls-2" d="M392.38,675.05v10.76c0,2.81-18.41,5.09-41.13,5.09s-41.12-2.28-41.12-5.09V675.05"/>
        </g>
        <g>
          <path class="cls-1" d="M392.38,664.58v10.76c0,2.81-18.41,5.09-41.13,5.09s-41.12-2.28-41.12-5.09V664.58c0-4.81,37.17-5.09,41.12-5.09S392.38,660.62,392.38,664.58Z"/>
          <path class="cls-2" d="M392.38,664.58c0-2.81-18.41-5.09-41.13-5.09s-41.12,2.28-41.12,5.09,18.41,5.09,41.12,5.09S392.38,667.39,392.38,664.58Z"/>
          <path class="cls-2" d="M392.38,664.58v10.76c0,2.81-18.41,5.09-41.13,5.09s-41.12-2.28-41.12-5.09V664.58"/>
        </g>
        <g>
          <path class="cls-1" d="M404.72,651.64V662.4c0,2.81-18.41,5.09-41.13,5.09s-41.12-2.28-41.12-5.09V651.64c0-4.8,37.17-5.08,41.12-5.08S404.72,647.69,404.72,651.64Z"/>
          <path class="cls-2" d="M404.72,651.64c0-2.81-18.41-5.08-41.13-5.08s-41.12,2.27-41.12,5.08,18.41,5.09,41.12,5.09S404.72,654.45,404.72,651.64Z"/>
          <path class="cls-2" d="M404.72,651.64V662.4c0,2.81-18.41,5.09-41.13,5.09s-41.12-2.28-41.12-5.09V651.64"/>
        </g>
        <g>
          <path class="cls-1" d="M389.91,646.11v10.76c0,2.81-18.41,5.09-41.12,5.09s-41.13-2.28-41.13-5.09V646.11c0-4.8,37.17-5.09,41.13-5.09S389.91,642.15,389.91,646.11Z"/>
          <path class="cls-2" d="M389.91,646.11c0-2.81-18.41-5.09-41.12-5.09s-41.13,2.28-41.13,5.09,18.41,5.09,41.13,5.09S389.91,648.92,389.91,646.11Z"/>
          <path class="cls-2" d="M389.91,646.11v10.76c0,2.81-18.41,5.09-41.12,5.09s-41.13-2.28-41.13-5.09V646.11"/>
        </g>
      </g>
      <g>
        <polygon class="cls-5" points="813.73 340.19 813.73 688.39 1183.95 688.39 1183.95 726.43 795.39 726.43 795.39 349.54 618.4 349.54 618.4 726.43 225.49 726.43 225.49 688.39 596.77 688.39 596.77 340.19 225.49 340.19 225.49 269.05 1183.95 269.05 1183.95 340.19 813.73 340.19"/>
        <polyline class="cls-10" points="126.17 804 126.17 765.63 160.96 765.63 160.96 727.25 172.88 727.25"/>
        <polyline class="cls-10" points="1281.38 804 1281.38 765.63 1246.59 765.63 1246.59 727.25 1234.66 727.25"/>
        <g>
          <rect class="cls-1" x="618.4" y="726.43" width="176.99" height="0.82"/>
          <rect class="cls-1" x="219.28" y="340.19" width="6.21" height="348.2"/>
          <rect class="cls-1" x="1183.95" y="340.19" width="7.27" height="348.2"/>
          <rect class="cls-2" x="618.4" y="349.54" width="176.99" height="377.71"/>
          <rect class="cls-2" x="219.27" y="340.19" width="377.49" height="348.2"/>
          <rect class="cls-2" x="813.73" y="340.19" width="377.49" height="348.2"/>
          <line class="cls-10" x1="706.9" y1="349.54" x2="706.9" y2="727.25"/>
        </g>
        <polyline class="cls-11" points="577.36 726.25 577.36 707.14 568.3 707.14 559.22 394.67 563.6 394.67 563.6 374.56 506.45 374.56 506.45 394.67 510.83 394.67 501.75 707.14 492.69 707.14 492.69 726.25"/>
        <polygon class="cls-11" points="275.67 701.11 275.67 725.25 182.88 725.25 182.88 701.11 192.81 701.11 192.95 695.52 193.13 688.13 193.2 685.03 193.38 677.64 202.76 294.86 197.96 294.86 197.96 268.72 260.59 268.72 260.59 294.86 255.79 294.86 256.9 340.19 263.66 615.93 263.66 616.02 263.86 623.9 263.92 626.61 263.93 626.74 264.11 634.11 264.12 634.68 264.18 637.05 264.18 637.18 264.31 642.23 264.35 643.89 264.36 644.61 264.37 644.91 264.44 647.5 264.44 647.61 264.56 652.57 264.62 655.12 264.63 655.41 264.71 658.86 264.72 658.96 264.89 665.9 264.9 666.54 264.97 669.29 264.97 669.41 265.16 677.03 265.17 677.32 265.38 686.02 265.42 687.82 265.44 688.39 265.63 696.36 265.75 701.11 275.67 701.11"/>
        <polygon class="cls-11" points="1227.62 701.11 1227.62 725.25 1134.83 725.25 1134.83 701.11 1144.75 701.11 1144.75 701.02 1145.06 688.39 1145.11 686.43 1145.36 676.39 1148.04 566.9 1148.54 546.63 1148.54 546.58 1148.57 545.21 1150.72 457.45 1150.74 456.84 1153.6 340.19 1154.71 294.86 1149.91 294.86 1149.91 268.72 1212.54 268.72 1212.54 294.86 1207.74 294.86 1217.47 692.13 1217.69 701.11 1227.62 701.11"/>
        <line class="cls-2" x1="160.96" y1="765.63" x2="1246.59" y2="765.63"/>
        <polyline class="cls-2" points="172.88 727.25 874.38 727.25 1234.66 727.25"/>
        <g>
          <polygon class="cls-1" points="1260.62 216.39 1260.62 269.05 146.14 269.05 146.18 216.39 220.11 199.73 229.95 197.51 705.88 90.27 810.09 113.96 819.94 116.2 1260.62 216.39"/>
          <polygon class="cls-10" points="1260.62 216.39 1260.62 269.05 146.14 269.05 146.18 216.39 220.11 199.73 229.95 197.51 705.88 90.27 810.09 113.96 819.94 116.2 1260.62 216.39"/>
          <polyline class="cls-2" points="268.67 223.62 1101.43 223.62 707.99 137.72"/>
        </g>
        <g>
          <line class="cls-10" x1="1323.41" y1="803.39" x2="1344.44" y2="803.39"/>
          <line class="cls-10" x1="171.47" y1="803.39" x2="1302.38" y2="803.39"/>
          <line class="cls-10" x1="66.32" y1="803.39" x2="152.77" y2="803.39"/>
        </g>
        <rect class="cls-11" x="482.11" y="256.39" width="449.81" height="118.17"/>
        <g>
          <path class="cls-9" d="M606.11,320.25a13.31,13.31,0,0,1,2.64,8.33,12.53,12.53,0,0,1-5.74,11q-5.73,3.87-16.58,3.87H557.14V289.22h27.74q10.38,0,15.81,3.84a12,12,0,0,1,5.42,10.34,12.84,12.84,0,0,1-1.9,6.93,13.22,13.22,0,0,1-5.38,4.85A15.23,15.23,0,0,1,606.11,320.25ZM572.33,300.3v10.46h10.54q7.74,0,7.74-5.27t-7.74-5.19Zm20.92,26.58q0-5.5-8.06-5.5H572.33v11h12.86Q593.24,332.38,593.25,326.88Z"/>
          <path class="cls-9" d="M675.61,332.92H652.68l-4.26,10.54H632.76l24-54.24h15.11l24,54.24h-16Zm-4.49-11.31-7-17.36-7,17.36Z"/>
          <path class="cls-9" d="M774.33,289.22v54.24H761.7l-24-28.9v28.9h-15V289.22h12.63l23.94,28.9v-28.9Z"/>
          <path class="cls-9" d="M828.64,323.78l-5.73,6.12v13.56H807.72V289.22h15.19v22.55l21-22.55H860.8l-22.16,24L862,343.46H844.14Z"/>
        </g>
      </g>
      <path class="cls-12" d="M680.86,646.3a15.89,15.89,0,1,0,0-31.77Z"/>
      <path class="cls-12" d="M734.94,646.3a15.89,15.89,0,1,1,0-31.77Z"/>
    </g>
    <g>
      <g class="cls-13">
        <path class="cls-14" d="M1219.56,696.53l-.11-10.29-31.92,2.86-5.19.46c-2.63.24-4.65,3-4.51,6.17s2.39,5.54,5,5.31l4.48-.4,41.68-3.77v-.32Zm-24.75-30.3a14.58,14.58,0,0,0-6.85-1.31l-.45,0-16.27,1.43-6.56.58-13.4,1.18-7.72.68c-6.21.54-12.69,5.44-14.81,13a19,19,0,0,0-.72,5.94l9.56-.85a6.19,6.19,0,0,1,2.48-5.07,7.72,7.72,0,0,1,3.89-1.61l6.77-.61,13.73-1.21,6.47-.58,16.83-1.49.27,0c1.57-.14,6,.49,6.55,5,0,.18,0,.37.05.56l9.48-.85C1203.73,673.5,1199.76,668.46,1194.81,666.23Zm10.54,39.52-9.54.87c.23,5-4.43,6.59-6.08,6.74l-2.63.24-31.54,2.88h0l-10.29.94a6.86,6.86,0,0,1-5.38-2,5.17,5.17,0,0,1-.73-1,5.37,5.37,0,0,1-.71-2.58l-9.63.88a21.23,21.23,0,0,0,.47,3.77,17,17,0,0,0,1.79,4.68,16.09,16.09,0,0,0,4,4.69c.45.34.91.67,1.37,1a15,15,0,0,0,9.22,2.28l24.62-2.27,10.38-1,6.25-.57,3.36-.32a14,14,0,0,0,2.63-.49C1199.77,722.53,1205.84,715.6,1205.35,705.75Z"/>
        <path class="cls-14" d="M1149.93,696.33a4.21,4.21,0,0,0-3-1.4l-23.36-.55-42.58-1c-2.65-.06-5,2.47-5.16,5.67s1.81,5.85,4.47,5.91l40,.92,19.87.46,6.32.15c2.65.06,4.9-2.49,5-5.68A6.15,6.15,0,0,0,1149.93,696.33Zm-46.67-14.6a15.44,15.44,0,0,0-14.5-12.47l-5.75-.14-20.28-.5-10-.24-8.23-.21c-6.83-.16-14.52,4.82-16.85,13.4a20.79,20.79,0,0,0-.64,3.8l9.63.23a6,6,0,0,1,2-4,7.53,7.53,0,0,1,5.08-2l17.65.43,26.8.64a7.31,7.31,0,0,1,3.34,1,5.39,5.39,0,0,1,2.68,5.26l9.59.22A19.62,19.62,0,0,0,1103.26,681.73ZM1092.68,712c-.29,5.08-5.11,6.12-6.78,6.09l-44.89-1c-2.79-.06-6.51-2.32-6.22-6.39l-9.7-.22a18.39,18.39,0,0,0,1.19,8.26,16.12,16.12,0,0,0,5.37,7.08,15.29,15.29,0,0,0,1.46,1,14.82,14.82,0,0,0,7.08,2.05l45,1a15.88,15.88,0,0,0,9.49-3c.42-.3.83-.62,1.24-1a16.89,16.89,0,0,0,1.6-1.57,19.19,19.19,0,0,0,4.79-12Z"/>
        <path class="cls-14" d="M1045.13,694.27l-31.78-4.35-23.61-3.23-10.15-1.4a4.37,4.37,0,0,0-2.39.38,6.3,6.3,0,0,0-3.33,4.71c-.52,3.08,1.06,5.86,3.55,6.37l.27,0,11.07,1.52,5.84.8h0l48.81,6.69c2.63.37,5.15-1.92,5.62-5.12S1047.75,694.63,1045.13,694.27Zm-53-31.72a14.41,14.41,0,0,0-2.34-.53l-10.65-1.47-16-2.2L945.92,656c-7.7-1-17.2,4.44-19.15,15.23l9.53,1.31c.71-4,4.87-5.57,7.62-5.19l18.21,2.5L978,672l9.94,1.37a7.18,7.18,0,0,1,2.92,1.2,5.47,5.47,0,0,1,2.41,5.76l8.57,1.18.94.13s0-.08,0-.13C1004.34,671.75,998.89,664.66,992.17,662.55Zm-2.91,42.73a6.7,6.7,0,0,1-.46,1.62c-1.49,3.54-5.47,3.9-6.93,3.7l-38.51-5.27h0l-6-.82c-2.77-.38-6.23-3.06-5.51-7.09l-9.59-1.31a18.92,18.92,0,0,0,.11,7.6,15.86,15.86,0,0,0,12.94,12.44L980,722.26c6.82.93,14.65-3.14,17.79-11.51a20.94,20.94,0,0,0,1.09-4.16Z"/>
        <path class="cls-14" d="M944.67,681.41a3.56,3.56,0,0,0-.62-.23l-43.13-10.9L880.07,665c-2.56-.65-5.33,1.34-6.18,4.44s.54,6.17,3.12,6.82l19.89,5,2.92.73,41.35,10.47c2.58.66,5.32-1.36,6.12-4.49C948,685.16,946.84,682.34,944.67,681.41Zm-42-29.85a15.33,15.33,0,0,0-10.07-8.65l-22.68-5.71-.78-.2-.17,0-19.13-4.82a16.7,16.7,0,0,0-14.6,3.8,17.27,17.27,0,0,0-2.46,2.58,19.41,19.41,0,0,0-3.39,6.7l2.58.66,2.12.53,4.56,1.15c1.1-3.87,5.38-5,8.05-4.33l19.36,4.88.13,0,2.56.65,20.84,5.26c1.6.41,5.86,2.65,4.55,7.53l7.42,1.87,1.86.48A18.31,18.31,0,0,0,902.67,651.56ZM887.57,686c-1.34,5-6.24,4.91-7.86,4.51l-14.78-3.76-5-1.26L843,681.2l-6.58-1.67c-2.69-.68-5.82-3.73-4.7-7.67l-.41-.1-2.15-.54-6.76-1.71c-2.23,7.73.42,14.45,4.93,18.31a14.67,14.67,0,0,0,5.87,3.09l30.53,7.74,12.88,3.27A16.16,16.16,0,0,0,891.24,698a19.62,19.62,0,0,0,5.67-9.6Z"/>
        <path class="cls-14" d="M845.82,655.72l-12.25-4.57-2.1-.78-12.67-4.71-2.35-.87-11.09-4.13-20.93-7.8c-2.46-.92-5.38.76-6.53,3.76s-.1,6.18,2.37,7.1l23,8.57,11.86,4.42,2.36.88,12.71,4.74,2.1.79,9.58,3.57c2.48.93,5.38-.79,6.48-3.82S848.29,656.63,845.82,655.72Zm-37.46-32.63A15.37,15.37,0,0,0,799,612.22l-33.5-12.44-2-.75-3.92-1.45-1.49-.55a15.86,15.86,0,0,0-12.11.74l-.07,0h0c-.15.06-.28.14-.42.21l-.12.06a17.76,17.76,0,0,0-4.71,3.54,19.52,19.52,0,0,0-4,6.26l.56.21h0l.77.29,5.64,2.1.13,0h0l1.72.65c.06-.16.14-.31.21-.46l0-.07a5.79,5.79,0,0,1,2.11-2.29,6.72,6.72,0,0,1,2.41-.9,7.2,7.2,0,0,1,.89-.11h0a6.89,6.89,0,0,1,2.67.37l4.68,1.74,3.41,1.27,2,.76L794.89,623c1.53.57,5.51,3.25,3.72,8l7.95,3,1,.35A18.77,18.77,0,0,0,808.36,623.09Zm-18.69,31.42c-1.81,4.78-6.63,4.22-8.18,3.64l-38.57-14.43-2.57-1-.27-.11a5.38,5.38,0,0,1-1.12-.57,6.77,6.77,0,0,1-3-4.23.52.52,0,0,1,0-.18,5.53,5.53,0,0,1,.32-3.12l-3.82-1.43-.16,0h0l-.54-.21-4.36-1.63a17,17,0,0,0-.69,2l-.06.17a20.4,20.4,0,0,0-.5,2.47,1.65,1.65,0,0,0,0,.31,17.31,17.31,0,0,0,1,8.51,9,9,0,0,0,.36.83,15.88,15.88,0,0,0,2,3.37,14.64,14.64,0,0,0,6.27,4.66l1.78.66h0l39.74,14.89c7.35,2.76,17.35-.74,21.32-11.3Z"/>
        <path class="cls-14" d="M753.39,619.26a3.28,3.28,0,0,0-.71-.58h0a2.58,2.58,0,0,0-.32-.18l-6.42-3.2L735.24,610h0v0h0l-.33-.17-2.44-1.22-.64-.31h0l-.62-.31-.67-.34-7.78-3.88h0L711.26,598l-.94-.46-.48-.24-2.11-1.06-1-.5-12.29-6.12c-2.13-1.06-4.86,0-6.39,2.41-.13.22-.26.44-.37.66a.49.49,0,0,0,0,.11c-1.37,2.83-.63,6,1.66,7.16l.08,0h0l.18.08h0l14.58,7.28.81.41h0l4.41,2.22h0l.14.06.33.16,12,6,.2.1,1.71.85,6.28,3.15h0l1.36.67,1.75.88,3.23,1.62h0l.8.39h0l10.09,5a4.14,4.14,0,0,0,3.09.21,5.4,5.4,0,0,0,1.59-.8h0a6.74,6.74,0,0,0,2.06-2.53A5.85,5.85,0,0,0,753.39,619.26ZM719,585.56c0-.06,0-.12,0-.18v-.26a2.81,2.81,0,0,1,0-.29,16.15,16.15,0,0,0-3.82-10.65L715,574c-.34-.39-.71-.75-1.08-1.1s-.83-.7-1.26-1h0a13.9,13.9,0,0,0-1.91-1.16l-12.34-6.11-.29-.15h0l-3.19-1.59-22.72-11.26a15.79,15.79,0,0,0-14.32.61,18.57,18.57,0,0,0-7.64,8l5.9,2.94,2.41,1.19c1.8-3.55,6.09-3.78,8.48-2.59L689.78,573l5.72,2.85h0l.3.16h0l9.82,4.87a7.2,7.2,0,0,1,3.12,3.36,1,1,0,0,1,.09.24,5.2,5.2,0,0,1,.32,1.32c0,.09,0,.19,0,.28a6,6,0,0,1-.69,3l8.4,4.18A19.51,19.51,0,0,0,719,585.56Zm-21.52,26.06c-2.25,4.55-6.91,3.49-8.36,2.77l-2.42-1.21h0l-.11-.06h0l-2.58-1.3-33-16.5-.83-.42c-2.41-1.21-4.79-4.8-3-8.39l-8.35-4.18c-5,9.78-.8,19.54,6,23l4.19,2.1L682.12,624h0l.27.12h0l1.48.76a15.62,15.62,0,0,0,16.81-2.34l0,0a18.15,18.15,0,0,0,2.26-2.22l.55-.66a21.75,21.75,0,0,0,2.36-3.79Z"/>
        <path class="cls-14" d="M663.7,573.87l-8.29-6.46L636.86,553l-23.54-18.34a4.34,4.34,0,0,0-4.94-.06,6.78,6.78,0,0,0-2,1.85c-1.82,2.57-1.67,5.92.34,7.48l.23.18,27.77,21.7,18.61,14.55,3.86,3c2,1.59,5.16.77,6.94-1.84S665.75,575.46,663.7,573.87Zm-31.79-55-19-14.74L598.48,493h0c-5.82-4.5-15.94-4.07-22.18,4.51l7.18,5.58c2.29-3.16,6.38-2.62,8.46-1l6.65,5.17L611,516.84,625.41,528c1.26,1,4.2,4.67,1.36,8.69l7.29,5.67C640.3,533.51,637.85,523.45,631.91,518.86Zm-19.35,38c-2.48,3.52-6,2.6-7.72,1.64a6.16,6.16,0,0,1-.68-.45l-5.75-4.51-27.92-21.88c-2.08-1.64-3.73-5.61-1.4-8.83l-7.2-5.63c-6.35,8.72-4,19.11,1.9,23.73l33.51,26.36.21.16a13.67,13.67,0,0,0,5.61,2.62c5.56,1.18,12.13-.89,16.75-7.48Z"/>
        <path class="cls-14" d="M585.72,514.62l-23.49-22.45-.56-.55-17.13-16.37-1.08-1-3-2.85c-1.8-1.72-4.87-1.22-6.87,1.12s-2.17,5.65-.37,7.37l9.16,8.8,4.16,4,12.35,11.84.85.82,18.76,18c1.83,1.77,4.94,1.24,6.92-1.16S587.55,516.38,585.72,514.62ZM560,457.6l-15.31-14.55h0l-1.29-1.23h0L534.08,433,530,429.12c-5.21-5-15-5.47-21.9,2.38l6.42,6.12c2.52-2.89,6.42-2,8.29-.21l9.92,9.45,6.37,6.08h0l5.16,4.92,8.56,8.15c1.13,1.08,3.63,5,.51,8.66l6.54,6.25C566.76,472.77,565.33,462.66,560,457.6ZM541.64,497l-4-3.83c-3.17,3.74-7.12,1.47-8.25.38l-30-28.89-.13-.13c-1.86-1.78-3.08-5.84-.53-8.77l-6.44-6.19c-6,6.85-5.83,15.5-2.34,21a13.24,13.24,0,0,0,1.95,2.43l30.16,29.14c4.61,4.45,12.43,5.38,19,.33a19.35,19.35,0,0,0,3.15-3Z"/>
        <path class="cls-14" d="M516.88,447.84,493.06,419.7h0l-2.19-2.58-13.49-15.93a3.73,3.73,0,0,0-3.48-1.22,5.81,5.81,0,0,0-3.26,1.66c-2.15,2.11-2.64,5.32-1.07,7.19l2.26,2.68,37.27,44.18a3.86,3.86,0,0,0,4.1,1.12,5.65,5.65,0,0,0,2.29-1.23h0a3.26,3.26,0,0,0,.39-.36C518.05,453,518.48,449.74,516.88,447.84Zm-19.36-58.32L496.19,388l-24.86-29.13c-4.56-5.34-14-6.74-21.33.29l5.59,6.6c2.7-2.6,6.38-1.35,8,.55l13,15.25,1.19,1.41,5.95,7,6.09,7.16c1,1.16,3,5.21-.35,8.54l5.73,6.73C502.6,405,502.19,395,497.52,389.52Zm-25,32.73c-3.42,3.36-7,.77-8-.4l-2.35-2.8-17-20.25-2.5-3L442,395l-2.82-3.37-.16-.17h0l-.72-.87a6.3,6.3,0,0,1-1.18-2.31,6.22,6.22,0,0,1,1.52-6.32l-3.12-3.71-.07-.08h0l-2.39-2.87a20.28,20.28,0,0,0-2.4,2.75,18,18,0,0,0-3.46,10.23c0,.4,0,.81,0,1.21a2.44,2.44,0,0,0,0,.27,15,15,0,0,0,2.7,7.8c.16.22.33.43.5.63l.86,1,6.28,7.52L454,426.4l2.66,3.18c4.67,5.59,14,6.92,21.59-.54Z"/>
        <path class="cls-14" d="M456.06,380a2.17,2.17,0,0,0,0-.25,4.49,4.49,0,0,0-.45-2.6L427.13,324c-1.12-2.1-4-2.45-6.34-.77s-3.39,4.76-2.27,6.87l25.89,48.49.13.24,2.45,4.59c1.15,2.18,4,2.52,6.43.79A6.57,6.57,0,0,0,456.06,380ZM448,316.22l-4.39-8.08L429,281.37c-3.28-6.05-11.78-9.1-19.84-3.51l4,7.46c3-2.06,6.16-.18,7.32,2l11.14,20.63,7.75,14.35c.71,1.31,1.9,5.67-1.83,8.33l4.12,7.66C449.93,332.4,451.33,322.44,448,316.22Zm-29,27.66c-3.78,2.69-6.65-.51-7.35-1.85l-18.44-34.77-.33-.61c-1.16-2.18-1.15-6.31,1.84-8.41l-4-7.52a18.44,18.44,0,0,0-8,16.36,14.14,14.14,0,0,0,1.54,5.6l18.72,35.52c3.34,6.34,11.81,9.35,20.14,3.41Z"/>
        <path class="cls-14" d="M411.6,296.26l-21.78-54.58a3.31,3.31,0,0,0-2.67-2.07,5,5,0,0,0-3.3.69c-2.44,1.4-3.72,4.29-2.86,6.46l2.65,6.69,19,48.06c.89,2.24,3.61,2.86,6.07,1.41S412.49,298.47,411.6,296.26Zm-.2-56.47a13.78,13.78,0,0,0-.9-3.68L396,200.33c-2.39-5.9-9.58-9.64-17.39-5.94q-.58.27-1.17.6l1.63,4.07,1.43,3.58c3.05-1.72,5.9.42,6.79,2.64l13.79,34.3.65,1.59c.53,1.35,1.22,5.71-2.61,7.92l3.16,7.87A17.88,17.88,0,0,0,411.4,239.79Zm-27.55.51c-2.44,1.4-3.72,4.29-2.86,6.46l2.65,6.69,3.51-13.84A5,5,0,0,0,383.85,240.3Zm-2.69,22.95-1.22-3.07c-3.87,2.24-6.27-1.17-6.81-2.53l-7.39-18.78-.12-.31-6.75-17.17c-.87-2.23-.45-6.25,2.62-8l-3-7.7c-8.36,4.71-10.9,14.42-8.44,20.72l4.65,11.92.12.31.38.95,9.05,23.2a11.72,11.72,0,0,0,10.89,7.58,15.61,15.61,0,0,0,8-2.28Zm2.48-9.8,3.51-13.84a5,5,0,0,0-3.3.69c-2.44,1.4-3.72,4.29-2.86,6.46Z"/>
        <path class="cls-14" d="M380.36,212.31l-1.29-13.25-.46-4.67-2-21.06-9.28,1.79,3.8,40.14c.23,2.41,2.49,3.7,5.06,2.88A6,6,0,0,0,380.36,212.31Z"/>
      </g>
      <path class="cls-7" d="M1255.44,679.88c-.2-3.14-2.46-5.48-5.06-5.25l-65,5.79c-2.63.23-4.64,3-4.5,6.12s2.38,5.53,5,5.3l65.2-5.86C1253.69,685.75,1255.64,683,1255.44,679.88Zm-48.37-8-9.46.84c-.24-4.93-4.95-5.63-6.58-5.49l-44,3.88c-2.75.24-6.48,2.68-6.35,6.65l-9.54.84c-.33-10.77,7.78-18.13,15.49-18.81l43.82-3.83C1198.22,655.25,1206.52,661,1207.07,671.84Zm-13.78,43.81-44.48,4.07c-7.83.71-16.49-5.34-16.84-16.3l9.6-.87c.14,4,4,5.82,6.82,5.57l44.36-4c1.65-.15,6.3-1.71,6.06-6.72l9.51-.85C1208.89,707.57,1201.13,714.93,1193.29,715.65Z"/>
      <path class="cls-7" d="M1154.6,691.6c.13-3.18-1.9-5.8-4.53-5.86l-65.77-1.57c-2.65-.06-5,2.46-5.15,5.64s1.81,5.82,4.46,5.89l66,1.54C1152.22,697.3,1154.47,694.77,1154.6,691.6ZM1106.93,678l-9.56-.23c.28-5-4.37-6.21-6-6.25L1047,670.46c-2.76-.06-6.74,2-7,5.95l-9.6-.23c.79-10.83,9.67-17.3,17.42-17.1l44.2,1.09C1099.81,660.36,1107.51,667.07,1106.93,678Zm-18.41,42.44-44.89-1c-7.89-.17-15.9-7.23-15.08-18.26l9.67.22c-.29,4.05,3.42,6.3,6.22,6.36l44.76,1c1.66,0,6.48-1,6.77-6l9.62.22C1105,714.12,1096.44,720.63,1088.52,720.46Z"/>
      <path class="cls-7" d="M1052.42,691.43c.47-3.17-1.28-6-3.91-6.38l-65.36-9c-2.63-.36-5.18,1.91-5.71,5.07s1.18,6,3.82,6.38l65.56,9C1049.45,696.88,1052,694.6,1052.42,691.43Zm-46.11-19-9.5-1.31c.81-4.95-3.69-6.7-5.32-6.93l-43.93-6c-2.74-.37-6.91,1.21-7.6,5.16l-9.51-1.3c1.93-10.73,11.41-16.21,19.08-15.15l43.8,6C1001.07,654,1008,661.57,1006.31,672.47Zm-22.76,40.4-44.5-6.09c-7.8-1.07-15-9-13-20l9.56,1.31c-.71,4,2.74,6.68,5.51,7.06l44.36,6.08c1.65.22,6.55-.26,7.37-5.29l9.55,1.31C1000.59,708.39,991.4,713.94,983.55,712.87Z"/>
      <path class="cls-7" d="M950.92,678.79c.79-3.11-.65-6.16-3.22-6.81l-63.82-16.12c-2.57-.65-5.32,1.33-6.17,4.43s.55,6.13,3.11,6.78l64,16.19C947.41,683.91,950.14,681.91,950.92,678.79Zm-43.76-24-9.26-2.34c1.31-4.85-2.95-7.09-4.55-7.49l-42.78-10.8c-2.66-.67-6.93.45-8,4.31l-9.23-2.33c3-10.47,12.92-14.89,20.38-13l42.66,10.75C903.89,635.78,910,644.1,907.16,654.79Zm-26.7,37.8-43.31-11c-7.58-1.92-13.86-10.63-10.79-21.3l9.29,2.35c-1.11,3.92,2,7,4.7,7.63l43.19,10.94c1.61.41,6.51.46,7.83-4.47l9.32,2.36C897.79,690,888.13,694.53,880.46,692.59Z"/>
      <path class="cls-7" d="M852.19,653.71c1.09-3,0-6.2-2.49-7.11l-61.25-22.78c-2.45-.91-5.37.76-6.51,3.75s-.09,6.15,2.37,7.07l61.42,22.87C848.2,658.44,851.1,656.73,852.19,653.71Zm-40.71-28.5-8.88-3.3c1.77-4.69-2.2-7.36-3.73-7.93l-41-15.2c-2.54-.94-6.85-.27-8.32,3.44L740.78,599c4-10.08,14.19-13.44,21.32-10.79l40.84,15.13C810.18,606,815.36,614.88,811.48,625.21ZM781.38,660,740,644.46c-7.24-2.71-12.51-12-8.43-22.27l8.88,3.31c-1.49,3.77,1.27,7.11,3.83,8.07L785.55,649c1.54.57,6.35,1.15,8.16-3.61l8.93,3.33C798.69,659.22,788.72,662.7,781.38,660Z"/>
      <path class="cls-7" d="M758.2,616.83c1.36-2.88.58-6.15-1.75-7.31l-57.81-28.73c-2.31-1.15-5.32.22-6.73,3.05s-.69,6.09,1.62,7.24l58,28.86C753.81,621.11,756.83,619.71,758.2,616.83Zm-37.14-32.36-8.37-4.16c2.2-4.46-1.43-7.5-2.87-8.22L671.26,553c-2.4-1.18-6.67-1-8.47,2.58l-8.29-4.12c4.91-9.56,15.17-11.87,21.89-8.55l38.47,19C721.68,565.29,725.88,574.64,721.06,584.47Zm-32.89,31.37-39-19.5c-6.8-3.41-11-13.13-6-22.86l8.33,4.16c-1.83,3.58.54,7.15,3,8.36l38.87,19.41c1.45.72,6.11,1.78,8.34-2.75l8.42,4.2C705.18,616.87,695.08,619.3,688.17,615.84Z"/>
      <path class="cls-7" d="M668.45,572.65c1.78-2.6,1.57-6-.47-7.57L617.69,526c-2-1.56-5.09-.76-6.9,1.78s-1.66,5.88.35,7.45l50.37,39.27C663.56,576.08,666.66,575.25,668.45,572.65Zm-30.06-38.91-7.28-5.65c2.83-4-.11-7.68-1.37-8.65l-33.43-25.9c-2.07-1.6-6.15-2.14-8.43,1L580.71,489c6.22-8.53,16.32-9,22.13-4.47l33.37,25.78C642.15,514.89,644.6,524.9,638.39,533.74Zm-36.43,25L568.3,532.28c-5.87-4.6-8.25-14.94-1.93-23.62l7.19,5.61c-2.32,3.2-.67,7.15,1.41,8.78l33.61,26.29c1.26,1,5.5,2.88,8.37-1.18l7.31,5.7C617.94,562.85,607.94,563.38,602,558.69Z"/>
      <path class="cls-7" d="M589.87,513.56c2-2.39,2.1-5.74.26-7.49L545,463c-1.8-1.72-4.86-1.22-6.86,1.11s-2.15,5.62-.36,7.34L583,514.71C584.8,516.47,587.89,516,589.87,513.56Zm-25.54-41-6.54-6.22c3.12-3.67.61-7.55-.51-8.62l-30-28.49c-1.86-1.76-5.76-2.66-8.27.22l-6.41-6.11c6.82-7.8,16.63-7.3,21.84-2.36l29.95,28.36C569.74,454.35,571.19,464.41,564.33,472.52Zm-37.68,21.12-30.11-29c-5.23-5.05-6.57-15.41.36-23.34l6.43,6.16c-2.54,2.92-1.33,6.95.54,8.74L534,485.07c1.13,1.09,5.06,3.34,8.22-.38l6.55,6.28C541.75,499.21,532,498.8,526.65,493.64Z"/>
    </g>
    <polyline class="cls-11" points="921.33 725.25 921.33 707.14 912.27 707.14 903.19 394.67 907.58 394.67 907.58 374.56 850.42 374.56 850.42 394.67 854.8 394.67 845.72 707.14 836.66 707.14 836.66 725.25"/>
    <g class="cls-15">
      <path class="cls-14" d="M294.08,664.75l-9.6,2.8c.68,2.3-.69,4.4-2.52,5.74a3.71,3.71,0,0,1-.41.28h0a7.94,7.94,0,0,1-2.17,1l-22,6.42-3.11.91-1.21.35-3.81,1.11-14.36,4.19c-1.66.49-6.67.93-7.89-3.26l-9.51,2.77-.09,0,.09.29c2.81,9,12.42,12.05,20.2,9.77l18.25-5.33,1.69-.49,24.54-7.16.47-.15h0c.58-.19,1.16-.41,1.73-.66a17.66,17.66,0,0,0,9.48-9.94c0-.1.07-.19.1-.29A14.06,14.06,0,0,0,294.08,664.75ZM287,641.31l0,0v0l-.16-.29c-3.76-6.78-12.39-9-19.25-7l-10.79,3.15-.41.12-5.5,1.61h0l-.59.18h0l-7,2L223,646.94a18.18,18.18,0,0,0-5.54,2.71,16.27,16.27,0,0,0-6.21,8.51,14.45,14.45,0,0,0,0,8c0,.06,0,.12.05.18l6.16-1.8,3.44-1c-1.22-4.18,3.24-6.51,4.9-7l17.36-5.07,6.87-2h0l.62-.17h0l4.05-1.19,1.81-.53,13.75-4c2.77-.81,7.13-.15,8.1,3.19L288,644A14,14,0,0,0,287,641.31Zm-45.47,27.5a5,5,0,0,0-6.2-3.39l-17.79,5.19-6.21,1.81-17.9,5.22L193.2,685l-.07,3.1,18.15-5.3,6.21-1.81,20.59-6A5,5,0,0,0,241.48,668.81Z"/>
      <path class="cls-14" d="M324,656.52s0,0,0-.07,0-.05,0-.07c-.07-.43-.13-.86-.2-1.29v0c-.18-1.24-.35-2.47-.49-3.71l-3.83,1.71a14.93,14.93,0,0,0,1.2,2.2l0,.06a.05.05,0,0,0,0,0,.56.56,0,0,0,.12.16,8.15,8.15,0,0,0,.61.84,13.71,13.71,0,0,0,2.22,2.22c.23-.09.44-.19.62-.28C324.18,657.71,324.09,657.12,324,656.52Zm16.86-24.82a5,5,0,0,0-6.6-2.54l-8.81,3.92L323,634.15h0l-.1.06h0l-.52.23-5.54,2.47h0l-.19.08-6.39,2.84h0l-.82.37h0l-4,1.78-.5.23-2,.89h0l-3.25,1.44-15.51,6.9-.64.29h0l-2.1.94h0l-9.95,4.42a5,5,0,0,0-3,4.71,3.36,3.36,0,0,0,.06.63,4.29,4.29,0,0,0,.28,1h0a1.67,1.67,0,0,0,.08.2,5,5,0,0,0,6.6,2.53l7-3.1h0l.67-.31h0l1.41-.62,18.61-8.27h0l.87-.4h0l.5-.22,6.24-2.77h0l.84-.38h0l2.82-1.25,1.75-.78,5.61-2.49.88-.39.82-.36.06,0h0l1.84-.82,2.6-1.15.34-.15,9.94-4.42a5,5,0,0,0,2.53-6.6ZM324,656.45s0-.05,0-.07c-.07-.43-.13-.86-.2-1.29v0c-.18-1.24-.35-2.47-.49-3.71l-3.83,1.71a14.93,14.93,0,0,0,1.2,2.2l0,.06a.05.05,0,0,0,0,0,.56.56,0,0,0,.12.16,8.15,8.15,0,0,0,.61.84,13.71,13.71,0,0,0,2.22,2.22c.23-.09.44-.19.62-.28-.11-.6-.2-1.19-.3-1.79C324,656.5,324,656.47,324,656.45Zm68.45-35.83-9.14,4.06a4.21,4.21,0,0,1,.27,2.67,7.8,7.8,0,0,1-4.39,5l-11.12,4.95-.47.2h0l-9.14,4.08h0l-.08,0h0L348.55,646l-.33.15h0l-11.36,5h0c-1.31.58-4.93,1.45-7.13-.59h0a4.61,4.61,0,0,1-1.11-1.58L326,650.17l-.53.24-2.16,1-3.83,1.71a14.93,14.93,0,0,0,1.2,2.2l0,.06a.05.05,0,0,0,0,0,.56.56,0,0,0,.12.16,8.15,8.15,0,0,0,.61.84,13.71,13.71,0,0,0,2.22,2.22c.17.14.35.28.53.4l.25.19a11.48,11.48,0,0,0,1,.61,14.66,14.66,0,0,0,3.62,1.5,17.22,17.22,0,0,0,6,.52h0a18.08,18.08,0,0,0,5.84-1.49l7.76-3.45.86-.38,3.77-1.68.34-.16h0l6.65-3h0l19.91-8.85h0l.48-.22,1.22-.54,1.32-.59a18,18,0,0,0,10-11.52A14.08,14.08,0,0,0,392.43,620.62ZM340.85,631.7a5,5,0,0,0-6.6-2.54l-8.81,3.92L323,634.15h0l-.1.06.45.15a7.07,7.07,0,0,1,.8.31l.33.16a2.11,2.11,0,0,1,.84.69.41.41,0,0,1,.05.09.32.32,0,0,1,0,.09.57.57,0,0,1,0,.18v.3a.57.57,0,0,1,0,.18s0,0,0,0h0a1.19,1.19,0,0,1-.12.22,1,1,0,0,1-.17.21l0,0-.26.2a6.93,6.93,0,0,1-1.8.84l-.43.14-.19.06a73.42,73.42,0,0,1-13,2.1h0l-4,1.78-.5.23,2.06.16c1,.08,2,.17,3,.27l2.63.26c1.14.13,2.25.26,3.3.41l1.53.22c.83.12,1.62.26,2.36.4h0l.37.07.13,0,.64.14.61.14c.39.09.76.19,1.1.29,0,.21,0,.43,0,.64l.82-.36.06,0h0l1.84-.82,2.6-1.15.34-.15,9.94-4.42a5,5,0,0,0,2.53-6.6Zm21.12-38-11.2,5-3.6,1.6-22.74,10.11-4.8,2.13-.6.28-.15.08a18.17,18.17,0,0,0-6.52,5.51,16.53,16.53,0,0,0-1.79,3.14,1.89,1.89,0,0,0-.11.25,14.32,14.32,0,0,0-1,7.68s0,0,0,.05h0a13.2,13.2,0,0,0,.61,2.44h0a1.34,1.34,0,0,0,.09.26c.12.36.27.73.43,1.09l1.9-.85.44-.19,6.8-3a4.86,4.86,0,0,1-.35-1.15,1.26,1.26,0,0,1,0-.27,5.34,5.34,0,0,1,1.88-4.48l.1-.1A9,9,0,0,1,323,622h0a7.51,7.51,0,0,1,.72-.38l25.41-11.3,4.56-2L366,602.8c2.64-1.17,7.05-1.1,8.46,2.09l9.14-4.07C379.78,592.17,369.39,590.37,362,593.67Zm-27.72,35.49-8.81,3.92L323,634.15h0l-.1.06a3,3,0,0,1,.45.15,7.07,7.07,0,0,1,.8.31,2.53,2.53,0,0,1,.33.16,2.11,2.11,0,0,1,.84.69.41.41,0,0,1,.05.09.32.32,0,0,1,0,.09.57.57,0,0,1,0,.18v.3a.57.57,0,0,1,0,.18s0,0,0,0h0a.53.53,0,0,1-.12.22,1,1,0,0,1-.17.21l0,0a1.37,1.37,0,0,1-.26.2,6.93,6.93,0,0,1-1.8.84l-.43.14-.19.06a73.42,73.42,0,0,1-13,2.1h0l-4,1.78-.5.23,2.06.16c1,.08,2,.17,3,.27l2.63.26c1.14.13,2.25.26,3.3.41l1.53.22c.83.12,1.62.26,2.36.4h0l.37.07.13,0,.64.14.61.14c.39.09.76.19,1.1.29,0,.21,0,.43,0,.64l.82-.36.06,0h0l1.84-.82,2.6-1.15.34-.15,9.94-4.42a5,5,0,0,0,2.53-6.6A5,5,0,0,0,334.25,629.16Z"/>
      <path class="cls-14" d="M433.72,580.29a5,5,0,0,0-6.86-1.71l-15.33,9.21L367.93,614a5,5,0,0,0-2.43,4.28h0a4.9,4.9,0,0,0,.72,2.57,5,5,0,0,0,6.62,1.84l.24-.13L412,599.16l20-12A5,5,0,0,0,433.72,580.29ZM484.57,565a14.82,14.82,0,0,0-1-2l-1.34.81L475,568.12c1.8,3-.67,6.64-3.14,8.12l-12.44,7.48-27.28,16.39c-1.48.9-6.21,2.59-8.45-1.14l-8.58,5.15c5,8.23,15.17,8.78,22.18,4.57L461,594.45l15.13-9.1.9-.54a18.39,18.39,0,0,0,5.43-5C485.41,575.57,486.66,570.12,484.57,565ZM450,540l-8,4.79-31.58,19-.17.1c-7,4.22-11.32,13.5-6.37,21.72l7.3-4.39,1.27-.76c-2.25-3.73,1.47-7.11,2.95-8L447.76,553l7.42-4.46c2.47-1.49,6.85-2,8.64,1l8.58-5.15C467.51,536.29,457,535.77,450,540Z"/>
      <path class="cls-14" d="M519,516.87a5,5,0,0,0-7-1l-12.06,9.18-1,.79-11.69,8.9-6.09,4.64-23.83,18.14a5,5,0,0,0,6.06,8l18.45-14,5.63-4.28,11.1-8.45,1.41-1.08L518,523.88A5,5,0,0,0,519,516.87Zm47.64-22.65-8,6.06c2.11,2.77.05,6.66-2.25,8.41l-1.7,1.3-.63.47-14.77,11.25-19.77,15c-1.37,1-5.89,3.25-8.52-.22l-8,6.06c5.81,7.64,16,7.07,22.54,2.11l16-12.21,13.41-10.21,6.12-4.66,1.29-1C568.94,511.73,572.36,501.76,566.62,494.22Zm-16.28-20.3c-4.4-3.1-10.11-3.26-15-1.43a18,18,0,0,0-4.6,2.51l-30.87,23.5-.25.19-5.75,4.38c-6.51,5-9.78,14.65-4,22.29l7.95-6.05c-2.26-3-.13-6.17,1.39-7.68a6.84,6.84,0,0,1,.62-.55L500,511l34.38-26.17,2.49-1.9c2.29-1.75,6.6-2.69,8.71.08l6.61-5,1.34-1A14.26,14.26,0,0,0,550.34,473.92Z"/>
      <path class="cls-14" d="M571.63,448.42l-.56,0c-1.16-.06-2.46-.08-3.86,0l-1.17,0h-.16c-.46,0-.92,0-1.4.1l-.28,0-1.21.12h-.08a14.43,14.43,0,0,0,4.16,6.53l6.09-6.66Zm22.5-6.76a5,5,0,0,0-5.36-.91,4.9,4.9,0,0,0-1.7,1.22L553.8,478.35l-1.2,1.31-11.94,13a5,5,0,0,0,7.37,6.75l2.56-2.8,3.62-4,34.56-37.78,5.67-6.2A5,5,0,0,0,594.13,441.66Zm-27.06,13.53,6.09-6.66-1.53-.11-.56,0c-1.16-.06-2.46-.08-3.86,0l-1.17,0h-.16c-.46,0-.92,0-1.4.1l-.28,0-1.21.12h-.08A14.43,14.43,0,0,0,567.07,455.19Zm27.06-13.53a5,5,0,0,0-5.36-.91v14.17l5.67-6.2A5,5,0,0,0,594.13,441.66ZM637,410.87l-6.75,7.38c2.57,2.35,1.24,6.55-.71,8.68L610.4,447.82l-12.16,13.3c-1.17,1.27-5.22,4.25-8.43,1.31l-1,1.14-5.71,6.24a14.47,14.47,0,0,0,5.71,3.27c6.05,1.8,12.7-.67,16.85-5.21l4.78-5.23,26.49-29C642.37,427.69,644,417.26,637,410.87Zm-42.84,30.79a5,5,0,0,0-5.36-.91v14.17l5.67-6.2A5,5,0,0,0,594.13,441.66Zm16.27-49.13a18.17,18.17,0,0,0-12.13,5.82l-9.5,10.39L568.38,431,567,432.55c-3.89,4.25-5.77,10.51-4.09,16.11a14.43,14.43,0,0,0,4.16,6.53l6.09-6.66.66-.72c-2.43-2.22-1.53-5.23-.44-7.11a7.64,7.64,0,0,1,1-1.4l14.39-15.74,16.88-18.46a8.43,8.43,0,0,1,4.75-2.56,4.62,4.62,0,0,1,3.84,1.09l6.74-7.38A14.18,14.18,0,0,0,610.4,392.53Z"/>
      <path class="cls-14" d="M662.32,360.18a5,5,0,0,0-7,.82l-6.76,8.56L612.66,415a5,5,0,0,0,7.85,6.2l40.77-51.59,1.86-2.36A5,5,0,0,0,662.32,360.18Zm40.51-33.8-6.2,7.85c2.73,2.16,1.71,6.44-.08,8.71l-1.26,1.6-19.78,25-7.69,9.73c-1.07,1.36-4.9,4.62-8.32,1.91l-6.2,7.85c7.54,5.95,17.29,2.87,22.36-3.56l12.59-15.93,10.65-13.47,5.49-6.95a17.73,17.73,0,0,0,2.63-4.6C709.4,338.46,708.66,331,702.83,326.38Zm-39.5-9.69-22,27.85L634.6,353c-3.6,4.56-5,11-2.85,16.52a14.34,14.34,0,0,0,4.56,6.06l4.79-6.06,1.41-1.79c-3.42-2.7-1.13-7.17-.06-8.53l11.61-14.7,17.11-21.65c1.79-2.27,5.73-4.25,8.46-2.09l6.2-7.85C678.4,307.08,668.36,310.32,663.33,316.69Z"/>
      <path class="cls-14" d="M722.17,272.37a5,5,0,0,0-6.89,1.57l-36.62,58.2a5,5,0,1,0,8.46,5.33l36.62-58.2A5,5,0,0,0,722.17,272.37Zm36.67-37.93-5.33,8.47c2.88,1.8,2.42,6,1,8.48a1.18,1.18,0,0,1-.11.19l-7.85,12.47-16.83,26.74c-.92,1.47-4.38,5.11-8.07,2.79l-5.32,8.47c8.12,5.11,17.49,1,21.85-5.93l20.18-32.07,4.5-7.15a18.19,18.19,0,0,0,2.28-5.51C766.56,245.24,764.92,238.27,758.84,234.44ZM718.53,229l-14.07,22.36-8,12.66-2.64,4.19c-4.36,6.93-4,17.16,4.11,22.27l5.33-8.46c-3.69-2.32-1.89-7-1-8.48l6-9.52,8-12.66,10.72-17c1.53-2.44,5.23-4.83,8.18-3l5.33-8.46C732.49,217.86,722.86,222.16,718.53,229Z"/>
      <path class="cls-14" d="M774.41,179.82a5,5,0,0,0-6.75,2.12L748.5,218.62l-12.67,24.27a5,5,0,0,0,8.87,4.63l15.09-28.9,16.73-32.05A5,5,0,0,0,774.41,179.82Zm33.49-40.75-4.62,8.86c2.77,1.45,2.89,5.17,1.9,7.76a7.59,7.59,0,0,1-.36.81l-21.45,41.08c-.79,1.53-4,5.44-7.81,3.43l-4.63,8.86c8.51,4.45,17.52-.41,21.31-7.66l21.45-41.08a17.87,17.87,0,0,0,1.31-3.3C817,151,815.09,142.82,807.9,139.07Zm-40.61-2.16-4.92,9.43L745.84,178c-3.79,7.26-2.62,17.42,5.89,21.87l4.63-8.87c-3.86-2-2.45-6.84-1.65-8.37l17.79-34.06,3.66-7c1.33-2.56,4.83-5.25,7.91-3.63L788.7,129C780.3,124.66,771.05,129.71,767.29,136.91Z"/>
      <path class="cls-14" d="M802.09,109l-15.75,40.78a4.94,4.94,0,0,0-.33,1.76,5,5,0,0,0,9.55,2.09,2.56,2.56,0,0,0,.11-.24l16.27-42.15Z"/>
    </g>
    <g>
      <path class="cls-7" d="M157.87,686.88a5,5,0,0,0,6.2,3.4l66-19.26a5,5,0,1,0-2.8-9.6l-66,19.26A5,5,0,0,0,157.87,686.88Zm51.53-3.75,9.6-2.81c1.22,4.19,6.23,3.75,7.89,3.26l44.48-13c2.77-.81,6.08-3.71,5.11-7.05l9.6-2.8c2.65,9.09-4.12,17.18-11.91,19.45l-44.48,13C221.83,695.48,212.09,692.34,209.4,683.13ZM215,642.94l44.48-13c7.8-2.28,17.85.9,20.51,10l-9.6,2.8c-1-3.34-5.33-4-8.1-3.19l-44.48,13c-1.66.48-6.12,2.81-4.9,7l-9.6,2.8C200.64,653.11,207.16,645.23,215,642.94Z"/>
      <path class="cls-7" d="M260.88,659.7a5,5,0,0,0,6.6,2.54l62.83-27.94a5,5,0,1,0-4.06-9.14L263.42,653.1A5,5,0,0,0,260.88,659.7Zm50.56-10.63,9.14-4.06c1.77,4,6.67,2.87,8.25,2.17l42.34-18.83c2.64-1.17,5.54-4.49,4.12-7.67l9.14-4.06c3.85,8.65-1.78,17.57-9.2,20.87L332.9,656.32C325.41,659.64,315.34,657.84,311.44,649.07Zm.19-40.58L354,589.67c7.42-3.3,17.81-1.5,21.66,7.15l-9.14,4.07c-1.41-3.19-5.82-3.26-8.46-2.09l-42.34,18.83c-1.58.7-5.68,3.6-3.91,7.58l-9.14,4.07C298.74,620.5,304.15,611.82,311.63,608.49Z"/>
      <path class="cls-7" d="M358.21,616.86a5,5,0,0,0,6.87,1.71L424,583.15a5,5,0,0,0-5.15-8.57L359.92,610A5,5,0,0,0,358.21,616.86Zm48.88-16.74,8.57-5.15c2.25,3.73,7,2,8.46,1.15l39.71-23.87c2.48-1.49,4.95-5.14,3.15-8.13l8.57-5.15c4.88,8.12.39,17.66-6.57,21.85l-39.71,23.87C422.25,608.9,412,608.35,407.09,600.12Zm-4.78-40.29L442,536c7-4.19,17.49-3.67,22.37,4.45l-8.57,5.15c-1.79-3-6.17-2.52-8.65-1L407.46,568.4c-1.48.89-5.2,4.27-3,8l-8.57,5.15C391,573.33,395.29,564.05,402.31,559.83Z"/>
      <path class="cls-7" d="M448.31,560.58a5,5,0,0,0,7,.95L510,519.88a5,5,0,1,0-6.06-8l-54.71,41.65A5,5,0,0,0,448.31,560.58Zm46.76-22,7.95-6.06c2.64,3.47,7.16,1.26,8.53.22l36.87-28.07c2.3-1.75,4.36-5.64,2.25-8.41l8-6.06c5.74,7.54,2.32,17.51-4.14,22.43l-36.87,28.06C511.1,545.67,500.88,546.24,495.07,538.6Zm-9.16-39.53L522.78,471c6.46-4.91,17-5.55,22.72,2l-8,6.06c-2.11-2.77-6.42-1.83-8.72-.08L492,507c-1.38,1-4.71,4.81-2.07,8.28L482,521.36C476.13,513.72,479.4,504,485.91,499.07Z"/>
      <path class="cls-7" d="M533,495.78a5,5,0,0,0,7.06-.32l46.41-50.74a5,5,0,0,0-7.38-6.75l-46.41,50.74A5,5,0,0,0,533,495.78Z"/>
    </g>
    <g>
      <path class="cls-1" d="M610.76,473.67v-.22a76.26,76.26,0,1,0-152.52,0v.22H439.05V558.2c0,112.25,190.88,114.71,190.88,0V473.67Zm-129.67,0v-.22a53.4,53.4,0,1,1,106.8,0v.22Z"/>
      <rect class="cls-5" x="458.73" y="464.75" width="22.36" height="8.92"/>
      <rect class="cls-5" x="588.4" y="464.75" width="22.36" height="8.92"/>
      <path class="cls-2" d="M534.5,397.18a76.26,76.26,0,0,0-76.26,76.27v.22h22.85v-.22a53.4,53.4,0,1,1,106.8,0v.22h22.87v-.22A76.26,76.26,0,0,0,534.5,397.18Z"/>
      <path class="cls-2" d="M629.93,558.2c0,114.72-190.87,112.26-190.87,0V473.67H629.93Z"/>
      <path class="cls-5" d="M552.33,535.22A17.84,17.84,0,0,1,539,552.49v38.92a4.47,4.47,0,0,1-4.45,4.45,4.46,4.46,0,0,1-4.47-4.45V552.49a17.84,17.84,0,1,1,22.3-17.27Z"/>
      <path class="cls-2" d="M552.33,535.22A17.84,17.84,0,0,1,539,552.49v38.92a4.47,4.47,0,0,1-4.45,4.45,4.46,4.46,0,0,1-4.47-4.45V552.49a17.84,17.84,0,1,1,22.3-17.27Z"/>
    </g>
    <g>
      <path class="cls-7" d="M575.06,465.81l6.75-7.38c3.21,2.94,7.26,0,8.43-1.31l31.27-34.19c2-2.13,3.28-6.33.71-8.68l6.75-7.38c7,6.39,5.4,16.82-.08,22.81l-31.27,34.19C592.09,469.91,582.14,472.29,575.06,465.81Z"/>
      <path class="cls-7" d="M559,428.55l31.27-34.19c5.48-6,15.72-8.5,22.71-2.11l-6.75,7.38c-2.57-2.35-6.63-.65-8.58,1.48L566.38,435.3c-1.17,1.27-3.77,5.57-.56,8.51l-6.75,7.38C552,444.71,553.47,434.59,559,428.55Z"/>
      <path class="cls-7" d="M605.48,418a5,5,0,0,0,7-.82l42.64-53.95a5,5,0,0,0-7.85-6.2L604.66,411A5,5,0,0,0,605.48,418Zm39.82-32.92,6.2-7.84c3.42,2.7,7.25-.56,8.32-1.92l28.73-36.35c1.78-2.27,2.81-6.55.08-8.71l6.2-7.85c7.43,5.88,6.6,16.39,1.56,22.76l-28.73,36.35C662.59,387.92,652.83,391,645.3,385.05Zm-18.7-36,28.73-36.35c5-6.37,15.07-9.61,22.5-3.74l-6.2,7.85c-2.73-2.16-6.67-.18-8.46,2.09l-28.73,36.35c-1.07,1.36-3.35,5.83.07,8.53l-6.2,7.85C620.77,365.67,621.52,355.47,626.6,349Z"/>
      <path class="cls-7" d="M672.22,335a5,5,0,0,0,6.9-1.57l36.62-58.2a5,5,0,0,0-8.46-5.33l-36.63,58.2A5,5,0,0,0,672.22,335Zm36.08-37,5.32-8.46c3.69,2.32,7.15-1.33,8.07-2.8l24.67-39.21c1.54-2.44,2.1-6.82-.85-8.67l5.33-8.46c8,5,8.31,15.58,4,22.45l-24.68,39.22C725.79,299.05,716.42,303.16,708.3,298.05Zm-22.45-33.8L710.53,225c4.33-6.87,14-11.17,22-6.12l-5.32,8.46c-2.95-1.85-6.65.54-8.19,3l-24.68,39.22c-.91,1.46-2.71,6.16,1,8.48L690,286.51C681.84,281.4,681.49,271.17,685.85,264.25Z"/>
      <path class="cls-7" d="M730,245.64a5,5,0,0,0,6.74-2.12l31.83-61a5,5,0,1,0-8.86-4.63l-31.83,61A5,5,0,0,0,730,245.64Zm33-39.77,4.63-8.86c3.86,2,7-1.9,7.81-3.43l21.45-41.07c1.33-2.56,1.54-7-1.55-8.58l4.63-8.86c8.4,4.38,9.54,14.87,5.78,22.06l-21.44,41.08C780.45,205.47,771.44,210.32,762.93,205.87ZM737.84,174l21.45-41.07c3.76-7.2,13-12.25,21.41-7.87l-4.63,8.87c-3.09-1.61-6.58,1.07-7.92,3.63l-21.44,41.07c-.8,1.53-2.22,6.36,1.65,8.37l-4.63,8.87C735.22,191.4,734.05,181.24,737.84,174Z"/>
      <path class="cls-7" d="M781.2,152.21a5,5,0,0,0,6.47-2.86L812.44,85.2a5,5,0,0,0-9.33-3.6l-24.77,64.14A5,5,0,0,0,781.2,152.21Z"/>
    </g>
    <g>
      <path class="cls-7" d="M520.43,446.89c2.14-2.15,2.57-5.43,1-7.31l-39.47-46.47c-1.56-1.85-4.57-1.65-6.72.44s-2.62,5.3-1,7.16l39.48,46.66C515.24,449.26,518.28,449.05,520.43,446.89ZM499.7,404.25l-5.71-6.7c3.36-3.31,1.31-7.35.33-8.5l-26.17-30.68c-1.62-1.89-5.29-3.14-8-.56l-5.59-6.56c7.32-7,16.73-5.6,21.27-.29L502,381.51C506.68,387,507.1,397,499.7,404.25Zm-38.38,17.13-26.2-31.23c-4.55-5.42-4.84-15.67,2.59-22.78l5.6,6.63c-2.73,2.61-1.95,6.67-.33,8.59l26.19,31.09c1,1.17,4.56,3.75,8,.4l5.71,6.77C475.34,428.27,466,426.94,461.32,421.38Z"/>
      <path class="cls-7" d="M458,376.25c2.38-1.73,3.37-4.88,2.21-7L431.73,316.3c-1.13-2.09-4-2.44-6.32-.77s-3.38,4.73-2.26,6.84l28.46,53.1C452.77,377.63,455.65,378,458,376.25Zm-11.75-45.77-4.12-7.63c3.72-2.65,2.53-7,1.82-8.3l-18.89-34.82c-1.16-2.16-4.35-4-7.31-2l-4-7.43c8-5.56,16.52-2.52,19.8,3.5l18.92,34.71C455.86,314.73,454.48,324.63,446.28,330.48Zm-38.72,9.87L388.83,305c-3.24-6.13-1.68-16.22,6.45-21.86l4,7.49c-3,2.08-3,6.2-1.82,8.37l18.76,35.23c.71,1.33,3.57,4.51,7.33,1.84l4.11,7.69C419.35,349.66,410.9,346.66,407.56,340.35Z"/>
      <path class="cls-7" d="M413.37,295.27c2.46-1.45,3.73-4.42,2.84-6.63l-21.8-54.35c-.86-2.15-3.52-2.77-6-1.37s-3.71,4.27-2.85,6.43l21.71,54.52C408.2,296.09,410.91,296.72,413.37,295.27Zm-6.52-45.76-3.16-7.83c3.83-2.21,3.14-6.55,2.59-7.89L391.83,198c-.89-2.2-3.73-4.34-6.77-2.62L382,187.8c8.23-4.64,16-.85,18.53,5.32L415,228.75C417.62,235.12,415.28,244.63,406.85,249.51Zm-38,5.79-14.21-36.22c-2.46-6.27.06-15.93,8.38-20.62l3,7.67c-3.06,1.73-3.47,5.73-2.6,8l14.27,36.11c.53,1.36,2.94,4.74,6.8,2.51l3.13,7.89C379.18,265.53,371.43,261.77,368.9,255.3Z"/>
      <path class="cls-7" d="M378.3,210.92c2.51-1.09,4.11-3.83,3.57-6.1L368.71,149c-.52-2.21-2.94-3.14-5.42-2.1s-4.06,3.69-3.54,5.9l13,56C373.32,211.05,375.79,212,378.3,210.92Z"/>
    </g>
  </g>
</svg>
