<svg id="work" xmlns="http://www.w3.org/2000/svg" viewBox="0 0 1422 870">
  <defs>
    <style>
      .cls-1 {
        fill: #ebebeb;
      }

      .cls-2, .cls-5, .cls-7 {
        fill: #fff;
      }

      .cls-3, .cls-4 {
        fill: none;
      }

      .cls-3, .cls-4, .cls-5, .cls-7 {
        stroke: #4a4a4a;
        stroke-linecap: round;
        stroke-linejoin: round;
      }

      .cls-3, .cls-7 {
        stroke-width: 2.5px;
      }

      .cls-4, .cls-5 {
        stroke-width: 4px;
      }

      .cls-6 {
        fill: #ff0083;
      }
    </style>
  </defs>
  <title>28,1</title>
  <g>
    <g>
      <polygon class="cls-1" points="676.16 562.03 676.16 593.39 647.44 669.06 232.19 669.06 232.19 638.7 647.44 638.7 647.44 637.7 676.16 562.03"/>
      <polygon class="cls-2" points="233.49 637.33 320.82 562.67 676.16 562.03 647.44 637.7 233.49 637.33"/>
    </g>
    <g>
      <polygon class="cls-2" points="1114.65 607 758.2 607 786.92 683.61 1201.15 682 1114.65 607"/>
      <polygon class="cls-1" points="758.2 606.94 758.2 638.3 786.92 713.97 1202.17 713.97 1202.17 683.61 786.92 683.61 786.92 682.61 758.2 606.94"/>
    </g>
    <polygon class="cls-1" points="659.13 588.7 642.38 630.37 276.56 630.37 320.19 588.7 339.64 588.7 339.64 602.7 603.13 602.7 603.13 588.7 659.13 588.7"/>
    <polygon class="cls-1" points="775.65 633.62 792.4 675.29 1158.22 675.29 1114.59 633.62 1095.14 633.62 1095.14 647.62 831.65 647.62 831.65 633.62 775.65 633.62"/>
    <polygon class="cls-1" points="677.16 142.7 676.16 168.08 648.44 196.7 232.19 196.7 231.78 173.85 232.19 171.08 319.19 141.7 677.16 142.7"/>
    <polygon class="cls-1" points="757.96 189.17 758.96 214.55 786.67 243.17 1202.92 243.17 1203.34 220.32 1202.92 217.55 1115.92 188.17 757.96 189.17"/>
    <g>
      <g>
        <polygon class="cls-3" points="253.05 630.37 320.19 568.37 668.71 568.37 642.38 630.37 253.05 630.37"/>
        <rect class="cls-4" x="232.19" y="171.08" width="416.26" height="497.98"/>
        <polygon class="cls-3" points="648.44 171.09 232.19 171.09 320.19 142.7 677.16 142.7 648.44 171.09"/>
        <line class="cls-3" x1="677.16" y1="142.7" x2="677.16" y2="588.7"/>
        <line class="cls-3" x1="677.16" y1="588.7" x2="648.44" y2="669.06"/>
        <line class="cls-4" x1="232.19" y1="637.7" x2="648.44" y2="637.7"/>
        <line class="cls-3" x1="320.19" y1="562.7" x2="676.16" y2="562.7"/>
        <line class="cls-3" x1="647.44" y1="638.7" x2="676.16" y2="562.7"/>
        <line class="cls-3" x1="232.19" y1="638.7" x2="320.19" y2="562.7"/>
        <line class="cls-3" x1="320.19" y1="184.7" x2="320.19" y2="588.7"/>
        <line class="cls-3" x1="659.13" y1="588.7" x2="320.19" y2="588.7"/>
        <rect class="cls-5" x="339.64" y="207.68" width="263.49" height="395.02"/>
        <line class="cls-3" x1="276.56" y1="630.37" x2="320.19" y2="588.7"/>
        <polyline class="cls-3" points="232.19 184.7 648.44 184.7 677.16 155.9"/>
        <polyline class="cls-3" points="232.19 196.7 648.44 196.7 676.16 168.09"/>
        <g>
          <g>
            <path class="cls-6" d="M419.59,353.52h-3.82v3.74h-2.84v-3.74h-3.81v-2.69h3.81v-3.74h2.84v3.74h3.82Z"/>
            <path class="cls-6" d="M427.27,344.47v15.41h-3.56V347.33h-3.08v-2.86Z"/>
            <path class="cls-6" d="M450.53,353.26a3.93,3.93,0,0,1,.74,2.41,3.57,3.57,0,0,1-1.57,3.12,8.1,8.1,0,0,1-4.59,1.09h-8V344.47h7.52a7.38,7.38,0,0,1,4.33,1.08,3.43,3.43,0,0,1,1.5,2.93,3.68,3.68,0,0,1-2,3.39A4.09,4.09,0,0,1,450.53,353.26Zm-9.84-6.1v3.63h3.54a3.69,3.69,0,0,0,2-.46,1.56,1.56,0,0,0,.68-1.37,1.52,1.52,0,0,0-.68-1.35,3.69,3.69,0,0,0-2-.45Zm6.28,9.57a1.59,1.59,0,0,0,.72-1.43c0-1.28-.95-1.92-2.84-1.92h-4.16v3.81h4.16A3.9,3.9,0,0,0,447,356.73Z"/>
            <path class="cls-6" d="M457,347.38H452v-2.91h13.42v2.91h-4.93v12.5H457Z"/>
            <path class="cls-6" d="M470.25,359.12a7.64,7.64,0,0,1-3-2.84,8.27,8.27,0,0,1,0-8.21,7.64,7.64,0,0,1,3-2.84,9.53,9.53,0,0,1,7.9-.31,7.08,7.08,0,0,1,2.71,2l-2.28,2.11a5,5,0,0,0-3.88-1.8,5.23,5.23,0,0,0-2.55.62,4.53,4.53,0,0,0-1.75,1.75,5.57,5.57,0,0,0,0,5.11,4.53,4.53,0,0,0,1.75,1.75,5.23,5.23,0,0,0,2.55.62,4.94,4.94,0,0,0,3.88-1.82l2.28,2.11a7.06,7.06,0,0,1-2.72,2,9.08,9.08,0,0,1-3.63.71A8.88,8.88,0,0,1,470.25,359.12Z"/>
            <path class="cls-6" d="M488.81,352.31H495v2.75h-6.22Z"/>
            <path class="cls-6" d="M497.43,352.31h6.23v2.75h-6.23Z"/>
            <path class="cls-6" d="M506.05,352.31h6.23v2.75h-6.23Z"/>
            <path class="cls-6" d="M514.68,352.31h6.22v2.75h-6.22Z"/>
            <path class="cls-6" d="M523.3,352.31h6.23v2.75H523.3Z"/>
            <path class="cls-6" d="M419.59,411.52h-3.82v3.74h-2.84v-3.74h-3.81v-2.69h3.81v-3.74h2.84v3.74h3.82Z"/>
            <path class="cls-6" d="M427.27,402.47v15.41h-3.56V405.33h-3.08v-2.86Z"/>
            <path class="cls-6" d="M433.15,417.19a6.35,6.35,0,0,1-2.35-2.74,11.3,11.3,0,0,1,0-8.55,6.35,6.35,0,0,1,2.35-2.74,6.6,6.6,0,0,1,6.82,0,6.4,6.4,0,0,1,2.34,2.74,11.18,11.18,0,0,1,0,8.55,6.4,6.4,0,0,1-2.34,2.74,6.6,6.6,0,0,1-6.82,0Zm5.62-3.27a9.17,9.17,0,0,0,0-7.49,2.55,2.55,0,0,0-2.21-1.21,2.5,2.5,0,0,0-2.19,1.21,9.06,9.06,0,0,0,0,7.49,2.5,2.5,0,0,0,2.19,1.21A2.55,2.55,0,0,0,438.77,413.92Z"/>
            <path class="cls-6" d="M465.46,411.26a3.87,3.87,0,0,1,.75,2.41,3.57,3.57,0,0,1-1.57,3.12,8.1,8.1,0,0,1-4.59,1.09h-8V402.47h7.52a7.33,7.33,0,0,1,4.32,1.08,3.41,3.41,0,0,1,1.51,2.93,3.75,3.75,0,0,1-.54,2,3.8,3.8,0,0,1-1.5,1.39A4.06,4.06,0,0,1,465.46,411.26Zm-9.83-6.1v3.63h3.54a3.63,3.63,0,0,0,2-.46,1.55,1.55,0,0,0,.69-1.37,1.5,1.5,0,0,0-.69-1.35,3.63,3.63,0,0,0-2-.45Zm6.28,9.57a1.59,1.59,0,0,0,.72-1.43c0-1.28-.95-1.92-2.84-1.92h-4.16v3.81h4.16A3.93,3.93,0,0,0,461.91,414.73Z"/>
            <path class="cls-6" d="M471.89,405.38H467v-2.91h13.42v2.91h-4.93v12.5h-3.56Z"/>
            <path class="cls-6" d="M485.19,417.12a7.74,7.74,0,0,1-3-2.84,8.34,8.34,0,0,1,0-8.21,7.74,7.74,0,0,1,3-2.84,9.51,9.51,0,0,1,7.89-.31,7.11,7.11,0,0,1,2.72,2l-2.29,2.11a4.92,4.92,0,0,0-3.87-1.8,5.23,5.23,0,0,0-2.55.62,4.53,4.53,0,0,0-1.75,1.75,5.5,5.5,0,0,0,0,5.11,4.53,4.53,0,0,0,1.75,1.75,5.23,5.23,0,0,0,2.55.62,4.91,4.91,0,0,0,3.87-1.82l2.29,2.11a7,7,0,0,1-2.73,2,9,9,0,0,1-3.63.71A8.84,8.84,0,0,1,485.19,417.12Z"/>
            <path class="cls-6" d="M503.74,410.31H510v2.75h-6.23Z"/>
            <path class="cls-6" d="M512.37,410.31h6.22v2.75h-6.22Z"/>
            <path class="cls-6" d="M521,410.31h6.23v2.75H521Z"/>
            <path class="cls-6" d="M408.9,468.31h6.23v2.75H408.9Z"/>
            <path class="cls-6" d="M427,468.25a4.17,4.17,0,0,1,1.08,2.92,4.57,4.57,0,0,1-.7,2.47,4.94,4.94,0,0,1-2.15,1.82,8.26,8.26,0,0,1-3.53.68,12,12,0,0,1-3.2-.43,8.22,8.22,0,0,1-2.67-1.22l1.38-2.73a6.73,6.73,0,0,0,2,1,7.61,7.61,0,0,0,2.36.37,3.82,3.82,0,0,0,2.12-.52,1.66,1.66,0,0,0,.77-1.46c0-1.26-1-1.89-2.89-1.89H420v-2.36l3.16-3.59h-6.55v-2.86h10.78v2.32l-3.48,4A5.12,5.12,0,0,1,427,468.25Z"/>
            <path class="cls-6" d="M450.26,469.26a3.87,3.87,0,0,1,.75,2.41,3.57,3.57,0,0,1-1.57,3.12,8.1,8.1,0,0,1-4.59,1.09h-8V460.47h7.52a7.33,7.33,0,0,1,4.32,1.08,3.41,3.41,0,0,1,1.51,2.93,3.71,3.71,0,0,1-2.05,3.39A4.09,4.09,0,0,1,450.26,469.26Zm-9.83-6.1v3.63H444a3.63,3.63,0,0,0,2-.46,1.54,1.54,0,0,0,.68-1.37,1.5,1.5,0,0,0-.68-1.35,3.63,3.63,0,0,0-2-.45Zm6.28,9.57a1.58,1.58,0,0,0,.71-1.43c0-1.28-.94-1.92-2.83-1.92h-4.16v3.81h4.16A4,4,0,0,0,446.71,472.73Z"/>
            <path class="cls-6" d="M456.69,463.38h-4.93v-2.91h13.42v2.91h-4.93v12.5h-3.56Z"/>
            <path class="cls-6" d="M470,475.12a7.78,7.78,0,0,1-3-2.84,8.27,8.27,0,0,1,0-8.21,7.78,7.78,0,0,1,3-2.84,9.53,9.53,0,0,1,7.9-.31,7.11,7.11,0,0,1,2.72,2l-2.29,2.11a4.92,4.92,0,0,0-3.87-1.8,5.23,5.23,0,0,0-2.55.62,4.53,4.53,0,0,0-1.75,1.75,5.5,5.5,0,0,0,0,5.11,4.53,4.53,0,0,0,1.75,1.75,5.23,5.23,0,0,0,2.55.62,4.91,4.91,0,0,0,3.87-1.82l2.29,2.11a7,7,0,0,1-2.73,2,9,9,0,0,1-3.63.71A8.88,8.88,0,0,1,470,475.12Z"/>
            <path class="cls-6" d="M488.54,468.31h6.23v2.75h-6.23Z"/>
            <path class="cls-6" d="M497.17,468.31h6.22v2.75h-6.22Z"/>
            <path class="cls-6" d="M505.79,468.31H512v2.75h-6.22Z"/>
            <path class="cls-6" d="M514.41,468.31h6.23v2.75h-6.23Z"/>
            <path class="cls-6" d="M523,468.31h6.22v2.75H523Z"/>
            <path class="cls-6" d="M419.59,527.52h-3.82v3.74h-2.84v-3.74h-3.81v-2.69h3.81v-3.74h2.84v3.74h3.82Z"/>
            <path class="cls-6" d="M433,531v2.91H421.31v-2.31l5.94-5.61a6.39,6.39,0,0,0,1.28-1.56,2.8,2.8,0,0,0,.33-1.28,1.7,1.7,0,0,0-.63-1.42,2.92,2.92,0,0,0-1.84-.5,4.15,4.15,0,0,0-1.82.39,3.45,3.45,0,0,0-1.37,1.15l-2.59-1.67a6.17,6.17,0,0,1,2.48-2.1,8.27,8.27,0,0,1,3.63-.76,7.55,7.55,0,0,1,3,.56,4.69,4.69,0,0,1,2,1.59,4.12,4.12,0,0,1,.71,2.4,5.27,5.27,0,0,1-.53,2.36,9.09,9.09,0,0,1-2,2.51L426.33,531Z"/>
            <path class="cls-6" d="M445.93,531v2.91H434.29v-2.31l5.94-5.61a6.39,6.39,0,0,0,1.28-1.56,2.8,2.8,0,0,0,.33-1.28,1.7,1.7,0,0,0-.63-1.42,2.92,2.92,0,0,0-1.84-.5,4.15,4.15,0,0,0-1.82.39,3.45,3.45,0,0,0-1.37,1.15l-2.59-1.67a6.17,6.17,0,0,1,2.48-2.1,8.27,8.27,0,0,1,3.63-.76,7.55,7.55,0,0,1,3,.56,4.69,4.69,0,0,1,2,1.59,4.12,4.12,0,0,1,.71,2.4,5.27,5.27,0,0,1-.53,2.36,9.09,9.09,0,0,1-2,2.51L439.31,531Z"/>
            <path class="cls-6" d="M468,527.26a3.87,3.87,0,0,1,.75,2.41,3.57,3.57,0,0,1-1.57,3.12,8.1,8.1,0,0,1-4.59,1.09h-8V518.47h7.52a7.33,7.33,0,0,1,4.32,1.08,3.41,3.41,0,0,1,1.51,2.93,3.71,3.71,0,0,1-2.05,3.39A4.09,4.09,0,0,1,468,527.26Zm-9.83-6.1v3.63h3.54a3.63,3.63,0,0,0,2-.46,1.54,1.54,0,0,0,.68-1.37,1.5,1.5,0,0,0-.68-1.35,3.63,3.63,0,0,0-2-.45Zm6.28,9.57a1.58,1.58,0,0,0,.71-1.43c0-1.28-.94-1.92-2.83-1.92h-4.16v3.81h4.16A4,4,0,0,0,464.42,530.73Z"/>
            <path class="cls-6" d="M474.4,521.38h-4.93v-2.91h13.42v2.91H478v12.5H474.4Z"/>
            <path class="cls-6" d="M487.7,533.12a7.74,7.74,0,0,1-3-2.84,8.27,8.27,0,0,1,0-8.21,7.74,7.74,0,0,1,3-2.84,9.51,9.51,0,0,1,7.89-.31,7.11,7.11,0,0,1,2.72,2L496,523.05a4.92,4.92,0,0,0-3.87-1.8,5.23,5.23,0,0,0-2.55.62,4.53,4.53,0,0,0-1.75,1.75,5.5,5.5,0,0,0,0,5.11,4.53,4.53,0,0,0,1.75,1.75,5.23,5.23,0,0,0,2.55.62,4.91,4.91,0,0,0,3.87-1.82l2.29,2.11a7,7,0,0,1-2.73,2,9,9,0,0,1-3.63.71A8.81,8.81,0,0,1,487.7,533.12Z"/>
            <path class="cls-6" d="M506.25,526.31h6.23v2.75h-6.23Z"/>
            <path class="cls-6" d="M514.88,526.31h6.22v2.75h-6.22Z"/>
            <path class="cls-6" d="M523.5,526.31h6.23v2.75H523.5Z"/>
          </g>
          <path class="cls-6" d="M544.17,419.85a2.17,2.17,0,0,1-1.48-.59l-7.85-7.39a2.16,2.16,0,0,1,3-3.15l6.33,6,16.58-16.32a2.16,2.16,0,0,1,3,3.08l-18.06,17.78A2.18,2.18,0,0,1,544.17,419.85Z"/>
          <path class="cls-6" d="M544.17,365.22a2.16,2.16,0,0,1-1.48-.58l-7.85-7.4a2.16,2.16,0,1,1,3-3.14l6.33,6,16.58-16.32a2.16,2.16,0,0,1,3,3.08l-18.06,17.78A2.16,2.16,0,0,1,544.17,365.22Z"/>
          <path class="cls-6" d="M544.17,475.87a2.13,2.13,0,0,1-1.48-.59l-7.85-7.39a2.16,2.16,0,1,1,3-3.14l6.33,6,16.58-16.31a2.16,2.16,0,0,1,3,3.07l-18.06,17.78A2.18,2.18,0,0,1,544.17,475.87Z"/>
          <path class="cls-6" d="M544.17,531.88a2.17,2.17,0,0,1-1.48-.59l-7.85-7.4a2.16,2.16,0,0,1,3-3.14l6.33,6,16.58-16.32a2.16,2.16,0,0,1,3,3.08l-18.06,17.78A2.18,2.18,0,0,1,544.17,531.88Z"/>
        </g>
      </g>
      <g>
        <polygon class="cls-3" points="1181.77 675.29 1114.63 613.29 766.1 613.29 792.44 675.29 1181.77 675.29"/>
        <rect class="cls-4" x="786.37" y="216" width="416.26" height="497.98"/>
        <polygon class="cls-3" points="786.37 216 1202.63 216 1114.63 187.62 757.66 187.62 786.37 216"/>
        <line class="cls-3" x1="757.66" y1="187.62" x2="757.66" y2="633.62"/>
        <line class="cls-3" x1="757.66" y1="633.62" x2="786.37" y2="713.98"/>
        <line class="cls-4" x1="1202.63" y1="682.62" x2="786.37" y2="682.62"/>
        <line class="cls-3" x1="1114.63" y1="607.62" x2="758.66" y2="607.62"/>
        <line class="cls-3" x1="787.37" y1="683.62" x2="758.66" y2="607.62"/>
        <line class="cls-3" x1="1202.63" y1="683.62" x2="1114.63" y2="607.62"/>
        <line class="cls-3" x1="1114.63" y1="229.62" x2="1114.63" y2="633.62"/>
        <line class="cls-3" x1="775.69" y1="633.62" x2="1114.63" y2="633.62"/>
        <rect class="cls-5" x="831.69" y="254.6" width="263.49" height="395.02"/>
        <line class="cls-3" x1="1158.26" y1="675.29" x2="1114.63" y2="633.62"/>
        <polyline class="cls-3" points="1202.63 229.62 786.37 229.62 757.66 200.81"/>
        <polyline class="cls-3" points="1202.63 241.62 786.37 241.62 758.66 213"/>
        <g>
          <g>
            <path class="cls-6" d="M906.46,410.42h-3.83v3.74h-2.84v-3.74H896v-2.68h3.81V404h2.84v3.74h3.83Z"/>
            <path class="cls-6" d="M918.74,408.46a4.3,4.3,0,0,1,1.55,3.48,4.81,4.81,0,0,1-.7,2.56,4.93,4.93,0,0,1-2.15,1.85,8.17,8.17,0,0,1-3.55.69,12,12,0,0,1-3.2-.43,8,8,0,0,1-2.67-1.22l1.4-2.72a6.79,6.79,0,0,0,2,1,7.79,7.79,0,0,0,2.35.36,3.66,3.66,0,0,0,2.12-.53,1.69,1.69,0,0,0,.77-1.47,1.66,1.66,0,0,0-.81-1.5,5.61,5.61,0,0,0-2.78-.5h-3.94l.79-8.67h9.4v2.86h-6.43l-.24,2.93h1.26A7.4,7.4,0,0,1,918.74,408.46Z"/>
            <path class="cls-6" d="M924.93,416.1a6.46,6.46,0,0,1-2.34-2.74,11.2,11.2,0,0,1,0-8.56,6.46,6.46,0,0,1,2.34-2.74,6.66,6.66,0,0,1,6.82,0,6.41,6.41,0,0,1,2.35,2.74,11.32,11.32,0,0,1,0,8.56,6.41,6.41,0,0,1-2.35,2.74,6.66,6.66,0,0,1-6.82,0Zm5.63-3.28a9.14,9.14,0,0,0,0-7.48,2.53,2.53,0,0,0-2.22-1.21,2.48,2.48,0,0,0-2.18,1.21,9,9,0,0,0,0,7.48,2.48,2.48,0,0,0,2.18,1.21A2.53,2.53,0,0,0,930.56,412.82Z"/>
            <path class="cls-6" d="M957.25,410.17a3.83,3.83,0,0,1,.75,2.41,3.55,3.55,0,0,1-1.57,3.11,8,8,0,0,1-4.59,1.09h-8v-15.4h7.52a7.33,7.33,0,0,1,4.32,1.08,3.4,3.4,0,0,1,1.51,2.92,3.68,3.68,0,0,1-2.05,3.39A4.1,4.1,0,0,1,957.25,410.17Zm-9.83-6.11v3.63H951a3.54,3.54,0,0,0,2-.46,1.7,1.7,0,0,0,0-2.72,3.63,3.63,0,0,0-2-.45Zm6.28,9.57a1.56,1.56,0,0,0,.71-1.43c0-1.27-.94-1.91-2.83-1.91h-4.16v3.81h4.16A3.94,3.94,0,0,0,953.7,413.63Z"/>
            <path class="cls-6" d="M963.68,404.28h-4.93v-2.9h13.42v2.9h-4.93v12.5h-3.56Z"/>
            <path class="cls-6" d="M977,416a7.66,7.66,0,0,1-3-2.84,8.26,8.26,0,0,1,0-8.2,7.66,7.66,0,0,1,3-2.84,9.57,9.57,0,0,1,7.89-.32,7.21,7.21,0,0,1,2.72,2L985.3,406a4.9,4.9,0,0,0-3.87-1.81,5.13,5.13,0,0,0-2.55.63,4.46,4.46,0,0,0-1.75,1.75,5.48,5.48,0,0,0,0,5.1,4.46,4.46,0,0,0,1.75,1.75,5.13,5.13,0,0,0,2.55.63,4.89,4.89,0,0,0,3.87-1.83l2.29,2.11a7,7,0,0,1-2.73,2,9,9,0,0,1-3.63.7A8.81,8.81,0,0,1,977,416Z"/>
            <path class="cls-6" d="M995.53,409.21h6.23V412h-6.23Z"/>
            <path class="cls-6" d="M1004.16,409.21h6.22V412h-6.22Z"/>
            <path class="cls-6" d="M906.46,468.42h-3.83v3.74h-2.84v-3.74H896v-2.68h3.81V462h2.84v3.74h3.83Z"/>
            <path class="cls-6" d="M920.49,459.38v2.31l-5.72,13.09H910.9l5.52-12.5h-5.1v2.51h-3.17v-5.41Z"/>
            <path class="cls-6" d="M942.64,468.17a3.83,3.83,0,0,1,.75,2.41,3.55,3.55,0,0,1-1.57,3.11,8,8,0,0,1-4.59,1.09h-8v-15.4h7.52a7.38,7.38,0,0,1,4.33,1.08,3.41,3.41,0,0,1,1.5,2.92,3.78,3.78,0,0,1-.54,2,3.85,3.85,0,0,1-1.5,1.38A4,4,0,0,1,942.64,468.17Zm-9.83-6.11v3.63h3.54a3.54,3.54,0,0,0,2-.46,1.69,1.69,0,0,0,0-2.72,3.63,3.63,0,0,0-2-.45Zm6.28,9.57a1.57,1.57,0,0,0,.72-1.43c0-1.27-.95-1.91-2.84-1.91h-4.16v3.81H937A3.89,3.89,0,0,0,939.09,471.63Z"/>
            <path class="cls-6" d="M949.07,462.28h-4.93v-2.9h13.42v2.9h-4.93v12.5h-3.56Z"/>
            <path class="cls-6" d="M962.37,474a7.57,7.57,0,0,1-3-2.84,8.26,8.26,0,0,1,0-8.2,7.57,7.57,0,0,1,3-2.84,9.59,9.59,0,0,1,7.9-.32,7.26,7.26,0,0,1,2.71,2L970.7,464a4.93,4.93,0,0,0-3.88-1.81,5.13,5.13,0,0,0-2.55.63,4.46,4.46,0,0,0-1.75,1.75,5.48,5.48,0,0,0,0,5.1,4.46,4.46,0,0,0,1.75,1.75,5.13,5.13,0,0,0,2.55.63,4.92,4.92,0,0,0,3.88-1.83l2.28,2.11a7,7,0,0,1-2.73,2,9,9,0,0,1-3.63.7A8.87,8.87,0,0,1,962.37,474Z"/>
            <path class="cls-6" d="M980.92,467.21h6.23V470h-6.23Z"/>
            <path class="cls-6" d="M989.55,467.21h6.22V470h-6.22Z"/>
            <path class="cls-6" d="M998.17,467.21h6.23V470h-6.23Z"/>
            <path class="cls-6" d="M1006.8,467.21H1013V470h-6.22Z"/>
            <path class="cls-6" d="M895.76,525.21H902V528h-6.23Z"/>
            <path class="cls-6" d="M914.44,519.08a8.06,8.06,0,0,1,1.83,5.67,9.6,9.6,0,0,1-1,4.49,6.75,6.75,0,0,1-2.76,2.84,8.56,8.56,0,0,1-4.12,1,10,10,0,0,1-2.35-.27,6.48,6.48,0,0,1-1.92-.78l1.32-2.62a5,5,0,0,0,2.89.77,4.17,4.17,0,0,0,3.1-1.16,4.84,4.84,0,0,0,1.23-3.33,5.15,5.15,0,0,1-3.83,1.39,6,6,0,0,1-2.68-.6,4.51,4.51,0,0,1-2.62-4.2,4.78,4.78,0,0,1,.77-2.7,5,5,0,0,1,2.1-1.8,6.85,6.85,0,0,1,3-.62A6.56,6.56,0,0,1,914.44,519.08Zm-2.89,4.65a2.13,2.13,0,0,0,.73-1.66,2.08,2.08,0,0,0-.71-1.65,2.83,2.83,0,0,0-2-.64,2.76,2.76,0,0,0-1.86.61,2.12,2.12,0,0,0-.71,1.68,2.15,2.15,0,0,0,.71,1.68,3.16,3.16,0,0,0,3.81,0Z"/>
            <path class="cls-6" d="M938.55,526.17a3.83,3.83,0,0,1,.75,2.41,3.55,3.55,0,0,1-1.57,3.11,8,8,0,0,1-4.59,1.09h-8v-15.4h7.52a7.33,7.33,0,0,1,4.32,1.08,3.4,3.4,0,0,1,1.51,2.92,3.68,3.68,0,0,1-2,3.39A4.1,4.1,0,0,1,938.55,526.17Zm-9.83-6.11v3.63h3.54a3.54,3.54,0,0,0,2-.46,1.7,1.7,0,0,0,0-2.72,3.63,3.63,0,0,0-2-.45Zm6.28,9.57a1.56,1.56,0,0,0,.71-1.43c0-1.27-.94-1.91-2.83-1.91h-4.16v3.81h4.16A3.94,3.94,0,0,0,935,529.63Z"/>
            <path class="cls-6" d="M945,520.28h-4.93v-2.9h13.42v2.9h-4.93v12.5H945Z"/>
            <path class="cls-6" d="M958.28,532a7.66,7.66,0,0,1-3-2.84,8.26,8.26,0,0,1,0-8.2,7.66,7.66,0,0,1,3-2.84,9.57,9.57,0,0,1,7.89-.32,7.21,7.21,0,0,1,2.72,2L966.6,522a4.9,4.9,0,0,0-3.87-1.81,5.13,5.13,0,0,0-2.55.63,4.46,4.46,0,0,0-1.75,1.75,5.48,5.48,0,0,0,0,5.1,4.46,4.46,0,0,0,1.75,1.75,5.13,5.13,0,0,0,2.55.63,4.89,4.89,0,0,0,3.87-1.83l2.29,2.11a7,7,0,0,1-2.73,2.05,9,9,0,0,1-3.63.7A8.81,8.81,0,0,1,958.28,532Z"/>
            <path class="cls-6" d="M976.83,525.21h6.23V528h-6.23Z"/>
            <path class="cls-6" d="M985.46,525.21h6.22V528h-6.22Z"/>
            <path class="cls-6" d="M994.08,525.21h6.23V528h-6.23Z"/>
            <path class="cls-6" d="M1002.7,525.21h6.23V528h-6.23Z"/>
            <path class="cls-6" d="M1011.33,525.21h6.22V528h-6.22Z"/>
            <path class="cls-6" d="M906.46,584.42h-3.83v3.74h-2.84v-3.74H896v-2.68h3.81V578h2.84v3.74h3.83Z"/>
            <path class="cls-6" d="M918.84,581.71a4.7,4.7,0,0,1,1.92,1.69,4.58,4.58,0,0,1,.7,2.52,4.8,4.8,0,0,1-.77,2.7,5,5,0,0,1-2.1,1.8,7,7,0,0,1-3,.62,6.54,6.54,0,0,1-5.06-2,8,8,0,0,1-1.83-5.65,9.48,9.48,0,0,1,1-4.49,6.76,6.76,0,0,1,2.76-2.84,8.49,8.49,0,0,1,4.11-1,10.1,10.1,0,0,1,2.36.27,6.18,6.18,0,0,1,1.93.78l-1.32,2.62a5.11,5.11,0,0,0-2.88-.77,4.22,4.22,0,0,0-3.11,1.14,4.83,4.83,0,0,0-1.23,3.33,5.15,5.15,0,0,1,3.81-1.37A6.09,6.09,0,0,1,918.84,581.71Zm-1.55,6.06a2.32,2.32,0,0,0,0-3.36,2.78,2.78,0,0,0-1.9-.63,2.84,2.84,0,0,0-1.92.65,2.24,2.24,0,0,0,0,3.31,2.89,2.89,0,0,0,2,.64A2.76,2.76,0,0,0,917.29,587.77Z"/>
            <path class="cls-6" d="M943.33,584.17a3.88,3.88,0,0,1,.74,2.41,3.55,3.55,0,0,1-1.57,3.11,8,8,0,0,1-4.59,1.09h-8v-15.4h7.52a7.38,7.38,0,0,1,4.33,1.08,3.41,3.41,0,0,1,1.5,2.92,3.65,3.65,0,0,1-2,3.39A4.1,4.1,0,0,1,943.33,584.17Zm-9.84-6.11v3.63H937a3.6,3.6,0,0,0,2-.46,1.7,1.7,0,0,0,0-2.72,3.69,3.69,0,0,0-2-.45Zm6.28,9.57a1.57,1.57,0,0,0,.72-1.43c0-1.27-1-1.91-2.84-1.91h-4.16v3.81h4.16A3.89,3.89,0,0,0,939.77,587.63Z"/>
            <path class="cls-6" d="M949.75,578.28h-4.93v-2.9h13.42v2.9h-4.93v12.5h-3.56Z"/>
            <path class="cls-6" d="M963.05,590a7.57,7.57,0,0,1-3-2.84,8.26,8.26,0,0,1,0-8.2,7.57,7.57,0,0,1,3-2.84,9.59,9.59,0,0,1,7.9-.32,7.29,7.29,0,0,1,2.72,2L971.38,580a4.93,4.93,0,0,0-3.88-1.81,5.13,5.13,0,0,0-2.55.63,4.53,4.53,0,0,0-1.75,1.75,5.55,5.55,0,0,0,0,5.1,4.53,4.53,0,0,0,1.75,1.75,5.13,5.13,0,0,0,2.55.63,4.92,4.92,0,0,0,3.88-1.83l2.29,2.11a7.19,7.19,0,0,1-2.73,2.05,9.07,9.07,0,0,1-3.63.7A8.88,8.88,0,0,1,963.05,590Z"/>
            <path class="cls-6" d="M981.61,583.21h6.22V586h-6.22Z"/>
            <path class="cls-6" d="M990.23,583.21h6.23V586h-6.23Z"/>
            <path class="cls-6" d="M998.85,583.21h6.23V586h-6.23Z"/>
            <path class="cls-6" d="M1007.48,583.21h6.22V586h-6.22Z"/>
          </g>
          <path class="cls-6" d="M1031,476.75a2.13,2.13,0,0,1-1.48-.59l-7.84-7.39a2.16,2.16,0,0,1,3-3.14l6.33,6,16.58-16.32a2.16,2.16,0,1,1,3,3.08l-18.06,17.77A2.13,2.13,0,0,1,1031,476.75Z"/>
          <path class="cls-6" d="M1031,422.13a2.17,2.17,0,0,1-1.48-.59l-7.84-7.39a2.16,2.16,0,0,1,3-3.15l6.33,6,16.58-16.31a2.16,2.16,0,1,1,3,3.07l-18.06,17.78A2.18,2.18,0,0,1,1031,422.13Z"/>
          <path class="cls-6" d="M1031,532.77a2.16,2.16,0,0,1-1.48-.58l-7.84-7.4a2.16,2.16,0,0,1,3-3.14l6.33,6,16.58-16.32a2.16,2.16,0,1,1,3,3.08l-18.06,17.78A2.16,2.16,0,0,1,1031,532.77Z"/>
          <path class="cls-6" d="M1031,588.78a2.16,2.16,0,0,1-1.48-.58l-7.84-7.4a2.16,2.16,0,0,1,3-3.14l6.33,6,16.58-16.32a2.16,2.16,0,1,1,3,3.08l-18.06,17.77A2.13,2.13,0,0,1,1031,588.78Z"/>
        </g>
      </g>
      <g>
        <path class="cls-3" d="M862.38,622.06a7.82,7.82,0,1,0-7.82,7.82A7.82,7.82,0,0,0,862.38,622.06Z"/>
        <path class="cls-3" d="M862.38,574a7.82,7.82,0,1,0-7.82,7.82A7.82,7.82,0,0,0,862.38,574Z"/>
        <path class="cls-3" d="M862.38,525.91a7.82,7.82,0,1,0-7.82,7.82A7.82,7.82,0,0,0,862.38,525.91Z"/>
        <path class="cls-3" d="M862.38,477.84a7.82,7.82,0,1,0-7.82,7.82A7.82,7.82,0,0,0,862.38,477.84Z"/>
        <path class="cls-3" d="M862.38,429.76a7.82,7.82,0,1,0-7.82,7.82A7.82,7.82,0,0,0,862.38,429.76Z"/>
        <path class="cls-3" d="M862.38,381.69a7.82,7.82,0,1,0-7.82,7.82A7.82,7.82,0,0,0,862.38,381.69Z"/>
        <path class="cls-3" d="M862.38,333.62a7.82,7.82,0,1,0-7.82,7.81A7.82,7.82,0,0,0,862.38,333.62Z"/>
        <path class="cls-3" d="M862.38,285.54a7.82,7.82,0,1,0-7.82,7.82A7.82,7.82,0,0,0,862.38,285.54Z"/>
      </g>
      <g>
        <path class="cls-3" d="M368.73,571.88a7.82,7.82,0,1,0-7.82,7.82A7.82,7.82,0,0,0,368.73,571.88Z"/>
        <path class="cls-3" d="M368.73,523.81a7.82,7.82,0,1,0-7.82,7.82A7.82,7.82,0,0,0,368.73,523.81Z"/>
        <circle class="cls-3" cx="360.91" cy="475.74" r="7.82" transform="translate(-12.38 9.65) rotate(-1.51)"/>
        <path class="cls-3" d="M368.73,427.66a7.82,7.82,0,1,0-7.82,7.82A7.82,7.82,0,0,0,368.73,427.66Z"/>
        <path class="cls-3" d="M368.73,379.59a7.82,7.82,0,1,0-7.82,7.82A7.82,7.82,0,0,0,368.73,379.59Z"/>
        <circle class="cls-3" cx="360.91" cy="331.52" r="7.82" transform="translate(-8.59 9.6) rotate(-1.51)"/>
        <path class="cls-3" d="M368.73,283.44a7.82,7.82,0,1,0-7.82,7.82A7.82,7.82,0,0,0,368.73,283.44Z"/>
        <path class="cls-3" d="M368.73,235.37a7.82,7.82,0,1,0-7.82,7.82A7.82,7.82,0,0,0,368.73,235.37Z"/>
      </g>
    </g>
    <line class="cls-4" x1="142.11" y1="626.23" x2="246.05" y2="626.23"/>
    <line class="cls-4" x1="664.44" y1="626.23" x2="756.66" y2="626.23"/>
    <line class="cls-4" x1="1139.58" y1="626.23" x2="1331.02" y2="626.23"/>
    <g>
      <path class="cls-6" d="M303.82,719.05v35h-9.9V726.7h-6.5v-7.65Z"/>
      <path class="cls-6" d="M316.52,752.6a14.42,14.42,0,0,1-5.48-6.27,25.24,25.24,0,0,1,0-19.55,14.45,14.45,0,0,1,5.48-6.28,15.87,15.87,0,0,1,16,0,14.49,14.49,0,0,1,5.47,6.28,25.12,25.12,0,0,1,0,19.55,14.46,14.46,0,0,1-5.47,6.27,15.87,15.87,0,0,1-16,0Zm12-8.37c1-1.62,1.48-4.18,1.48-7.68s-.5-6.06-1.48-7.67a4.51,4.51,0,0,0-8,0Q319,731.3,319,736.55t1.47,7.68a4.52,4.52,0,0,0,8,0Z"/>
      <path class="cls-6" d="M391.27,754.05l-.1-18.55-9,15.1h-4.4L368.82,736v18h-9.15v-35h8.15l12.3,20.2,12-20.2h8.15l.1,35Z"/>
      <path class="cls-6" d="M407.37,719.05h9.9v35h-9.9Z"/>
      <path class="cls-6" d="M457.62,719.05v35h-8.15L434,735.4v18.65h-9.7v-35h8.15l15.45,18.65V719.05Z"/>
      <path class="cls-6" d="M468.64,750.5q-4.32-4.25-4.32-12v-19.4h9.9v19.1q0,8.4,6.65,8.4t6.6-8.4v-19.1h9.75v19.4q0,7.8-4.33,12t-12.12,4.25Q473,754.75,468.64,750.5Z"/>
      <path class="cls-6" d="M510.82,726.9H500.07v-7.85h31.35v7.85h-10.7v27.15h-9.9Z"/>
      <path class="cls-6" d="M563.22,746.4v7.65h-28.1v-35h27.45v7.65H544.92v5.9h15.55V740H544.92v6.4Z"/>
      <path class="cls-6" d="M572.77,753.7a20.12,20.12,0,0,1-6.5-2.8l3.25-7.3a22.15,22.15,0,0,0,11.55,3.45q5.7,0,5.7-2.85a2.35,2.35,0,0,0-1.63-2.22,28.78,28.78,0,0,0-5.22-1.53,49.88,49.88,0,0,1-6.6-1.82,11.09,11.09,0,0,1-4.55-3.13,8.43,8.43,0,0,1-1.9-5.8,10,10,0,0,1,1.75-5.77,11.68,11.68,0,0,1,5.22-4.08,21.53,21.53,0,0,1,8.53-1.5,29.93,29.93,0,0,1,6.8.78,20.66,20.66,0,0,1,5.9,2.27L592,728.75a20.41,20.41,0,0,0-9.7-2.7,8.05,8.05,0,0,0-4.3.88,2.62,2.62,0,0,0-1.35,2.27,2.26,2.26,0,0,0,1.6,2.1,28.39,28.39,0,0,0,5.15,1.45,48.84,48.84,0,0,1,6.62,1.83,11.38,11.38,0,0,1,4.55,3.1,8.23,8.23,0,0,1,1.93,5.77,9.89,9.89,0,0,1-1.75,5.7,12,12,0,0,1-5.25,4.08,21.39,21.39,0,0,1-8.5,1.52A32.28,32.28,0,0,1,572.77,753.7Z"/>
    </g>
    <g>
      <path class="cls-6" d="M856,753.27v35h-9.9V760.92h-6.5v-7.65Z"/>
      <path class="cls-6" d="M868.68,786.82a14.5,14.5,0,0,1-5.48-6.28,25.24,25.24,0,0,1,0-19.55,14.42,14.42,0,0,1,5.48-6.27,15.87,15.87,0,0,1,16,0A14.46,14.46,0,0,1,890.1,761a25.12,25.12,0,0,1,0,19.55,14.55,14.55,0,0,1-5.47,6.28,15.87,15.87,0,0,1-16,0Zm12-8.38c1-1.61,1.48-4.17,1.48-7.67s-.5-6.06-1.48-7.68a4.52,4.52,0,0,0-8,0q-1.47,2.43-1.47,7.68t1.47,7.67a4.51,4.51,0,0,0,8,0Z"/>
      <path class="cls-6" d="M943.43,788.27l-.1-18.55-9,15.1h-4.4L921,770.22v18h-9.15v-35H920l12.3,20.2,12-20.2h8.15l.1,35Z"/>
      <path class="cls-6" d="M959.53,753.27h9.89v35h-9.89Z"/>
      <path class="cls-6" d="M1009.78,753.27v35h-8.15l-15.46-18.65v18.65h-9.69v-35h8.14l15.46,18.65V753.27Z"/>
      <path class="cls-6" d="M1020.8,784.72q-4.32-4.26-4.32-12.05v-19.4h9.9v19.1q0,8.4,6.65,8.4t6.6-8.4v-19.1h9.75v19.4q0,7.8-4.33,12.05T1032.93,789Q1025.13,789,1020.8,784.72Z"/>
      <path class="cls-6" d="M1063,761.12h-10.75v-7.85h31.35v7.85h-10.7v27.15H1063Z"/>
      <path class="cls-6" d="M1115.38,780.62v7.65h-28.1v-35h27.45v7.65h-17.65v5.9h15.55v7.4h-15.55v6.4Z"/>
      <path class="cls-6" d="M1124.93,787.92a20.12,20.12,0,0,1-6.5-2.8l3.25-7.3a21.21,21.21,0,0,0,5.45,2.5,20.82,20.82,0,0,0,6.1.95q5.7,0,5.7-2.85a2.38,2.38,0,0,0-1.63-2.23,29.8,29.8,0,0,0-5.22-1.52,49.73,49.73,0,0,1-6.6-1.83,11.06,11.06,0,0,1-4.55-3.12,8.43,8.43,0,0,1-1.9-5.8,10,10,0,0,1,1.75-5.78,11.68,11.68,0,0,1,5.22-4.07,21.53,21.53,0,0,1,8.53-1.5,30.5,30.5,0,0,1,6.8.77,21,21,0,0,1,5.9,2.28l-3,7.35a20.41,20.41,0,0,0-9.7-2.7,8.16,8.16,0,0,0-4.3.87,2.63,2.63,0,0,0-1.35,2.28,2.26,2.26,0,0,0,1.6,2.1,29.25,29.25,0,0,0,5.15,1.45,49,49,0,0,1,6.62,1.82,11.49,11.49,0,0,1,4.55,3.1,8.3,8.3,0,0,1,1.93,5.78,9.89,9.89,0,0,1-1.75,5.7,11.91,11.91,0,0,1-5.25,4.07,21.21,21.21,0,0,1-8.5,1.53A32.28,32.28,0,0,1,1124.93,787.92Z"/>
    </g>
    <g>
      <path class="cls-7" d="M247.73,168.61a3.52,3.52,0,0,0-4.57,2l-17.69,45.12A3.53,3.53,0,1,0,232,218.3l17.68-45.12A3.53,3.53,0,0,0,247.73,168.61ZM227.63,199l-2.58,6.56c-2.86-1.12-4.77,1.86-5.21,3l-11.92,30.41c-.74,1.89-.55,5,1.74,5.89l-2.58,6.56c-6.21-2.43-7.81-9.69-5.72-15L213.28,206C215.38,200.59,221.33,196.51,227.63,199Zm20,20.44-11.91,30.41c-2.09,5.33-8.19,9.57-14.41,7.13l2.57-6.56c2.29.9,4.53-1.25,5.27-3.14l11.92-30.41c.44-1.13,1.07-4.62-1.79-5.74l2.57-6.56C248.14,207,249.73,214.05,247.62,219.42Z"/>
      <path class="cls-7" d="M221.61,238.93a3.52,3.52,0,0,0-4.74,1.53L194.78,283.6a3.52,3.52,0,1,0,6.27,3.21l22.09-43.14A3.52,3.52,0,0,0,221.61,238.93Zm-23,28.22-3.21,6.27c-2.74-1.4-4.94,1.38-5.49,2.46L175,305c-.93,1.81-1,4.92,1.14,6l-3.21,6.28c-5.95-3-6.81-10.43-4.21-15.52l14.89-29.07C186.25,267.53,192.56,264.06,198.59,267.15Zm17.86,22.33-14.88,29.07c-2.61,5.09-9.1,8.71-15,5.67l3.21-6.28c2.18,1.12,4.63-.79,5.56-2.6l14.88-29.07c.55-1.09,1.52-4.49-1.21-5.89l3.21-6.28C218.2,277.18,219.08,284.34,216.45,289.48Z"/>
      <path class="cls-7" d="M189.23,307a3.53,3.53,0,0,0-4.94.63L154.66,346a3.53,3.53,0,0,0,5.58,4.31l29.63-38.36A3.52,3.52,0,0,0,189.23,307ZM161.42,330.5l-4.31,5.58c-2.43-1.88-5.1.45-5.84,1.41l-20,25.84c-1.24,1.62-1.93,4.64,0,6.14l-4.3,5.58c-5.29-4.08-4.78-11.5-1.28-16l20-25.85C149.22,328.61,156.07,326.36,161.42,330.5Zm13.46,25.23-20,25.85c-3.5,4.53-10.55,6.89-15.83,2.81l4.31-5.58c1.94,1.5,4.7.07,5.94-1.54l20-25.85c.74-1,2.32-4.13-.11-6l4.3-5.58C178.86,344,178.41,351.17,174.88,355.73Z"/>
      <path class="cls-7" d="M145,367.72a3.51,3.51,0,0,0-5,0l-34,34.5a3.53,3.53,0,0,0,5,4.95l34-34.5A3.52,3.52,0,0,0,145,367.72Zm-30.44,20-5,5c-2.19-2.16-5.12-.17-6,.69L80.66,416.66c-1.43,1.45-2.48,4.37-.73,6.09l-5,5c-4.75-4.69-3.36-12,.66-16.06l22.94-23.25C102.63,384.36,109.7,383,114.52,387.7Zm10.32,26.67L101.9,437.62c-4,4.07-11.3,5.57-16.05.88l5-5c1.75,1.73,4.65.64,6.08-.81l22.94-23.25c.86-.86,2.8-3.82.62-6l5-5C130.2,403.17,128.89,410.26,124.84,414.37Z"/>
      <path class="cls-7" d="M93.34,422.54a3.52,3.52,0,0,0-4.92-.81L49,450a3.52,3.52,0,0,0,4.1,5.73l39.39-28.24A3.53,3.53,0,0,0,93.34,422.54ZM60,437.08l-5.73,4.11c-1.79-2.5-5-1-6-.32l-26.54,19c-1.65,1.18-3.18,3.89-1.75,5.88l-5.72,4.11c-3.9-5.42-1.28-12.38,3.37-15.72l26.54-19C48.81,431.78,56,431.58,60,437.08Zm5.65,28-26.54,19c-4.65,3.33-12.08,3.57-16-1.85l5.73-4.11c1.43,2,4.48,1.42,6.14.23l26.53-19c1-.71,3.41-3.3,1.62-5.79l5.73-4.11C72.8,455,70.3,461.75,65.61,465.12Z"/>
      <path class="cls-7" d="M33.92,469.12a3.53,3.53,0,0,0-4.68-1.73l-44,20.29a3.52,3.52,0,0,0-1.73,4.67,3.53,3.53,0,0,0,4.68,1.73l44-20.29A3.52,3.52,0,0,0,33.92,469.12Z"/>
    </g>
    <g>
      <path class="cls-2" d="M280.22,216.28l0-.14a48.78,48.78,0,0,0-92.62-30.64l0,.14L176,181.78l-17,51.34c-22.55,68.17,92.87,108,115.92,38.35l17-51.34Zm-78.75-26.05.05-.14a34.16,34.16,0,1,1,64.86,21.46l-.05.14Z"/>
      <rect class="cls-1" x="192.73" y="178.12" width="5.7" height="14.3" transform="translate(-41.75 312.75) rotate(-71.69)"/>
      <rect class="cls-1" x="271.47" y="204.18" width="5.7" height="14.3" transform="translate(-12.49 405.37) rotate(-71.69)"/>
      <path class="cls-3" d="M249.27,154.51a48.77,48.77,0,0,0-61.63,31l0,.14,13.87,4.59.05-.14a34.16,34.16,0,1,1,64.86,21.46l-.05.14,13.89,4.59,0-.14A48.78,48.78,0,0,0,249.27,154.51Z"/>
      <path class="cls-3" d="M274.88,271.47c-23,69.67-138.47,29.82-115.91-38.35l17-51.34,115.91,38.35Z"/>
      <path class="cls-1" d="M232.37,241.92a11.41,11.41,0,0,1-11.59,7.8L213,273.36a2.81,2.81,0,0,1-1.43,1.64,2.76,2.76,0,0,1-2.17.17,2.86,2.86,0,0,1-1.82-3.6l7.82-23.64a11.41,11.41,0,1,1,17-6Z"/>
      <path class="cls-3" d="M232.37,241.92a11.41,11.41,0,0,1-11.59,7.8L213,273.36a2.81,2.81,0,0,1-1.43,1.64,2.76,2.76,0,0,1-2.17.17,2.86,2.86,0,0,1-1.82-3.6l7.82-23.64a11.41,11.41,0,1,1,17-6Z"/>
    </g>
    <g>
      <path class="cls-7" d="M226.87,174.71a3.53,3.53,0,0,1,4.91-.86l39.63,27.9a3.53,3.53,0,0,1-4.06,5.77l-39.63-27.9A3.52,3.52,0,0,1,226.87,174.71ZM260.38,189l5.76,4.06c1.77-2.51,5-1.08,6-.38l26.71,18.81c1.66,1.17,3.21,3.86,1.8,5.87l5.76,4.05c3.84-5.46,1.17-12.39-3.51-15.69l-26.7-18.8C271.48,183.56,264.27,183.43,260.38,189ZM255,217l26.71,18.81c4.68,3.29,12.11,3.47,15.95-2l-5.76-4.06c-1.42,2-4.47,1.45-6.13.28L259,211.28c-1-.7-3.44-3.26-1.67-5.78l-5.76-4.05C247.69,207,250.24,213.72,255,217Z"/>
      <path class="cls-7" d="M288,218.79a3.52,3.52,0,0,1,4.63-1.83l44.49,19.24a3.52,3.52,0,0,1-2.8,6.47l-44.49-19.25A3.52,3.52,0,0,1,288,218.79Zm35.71,7.13,6.47,2.8c1.22-2.81,4.68-2.07,5.8-1.59l30,13c1.87.81,3.93,3.13,3,5.38l6.47,2.8c2.65-6.13-1.38-12.37-6.63-14.65l-30-13C333.44,218.37,326.36,219.71,323.67,225.92Zm.42,28.6,30,13c5.26,2.27,12.57.93,15.22-5.2l-6.47-2.8c-1,2.26-4.08,2.34-5.95,1.53l-30-13c-1.12-.48-4-2.49-2.81-5.31l-6.47-2.8C314.92,246.15,318.79,252.23,324.09,254.52Z"/>
      <path class="cls-7" d="M356.26,249.81a3.53,3.53,0,0,1,4.43-2.29l46.17,14.73a3.52,3.52,0,1,1-2.14,6.71l-46.17-14.73A3.51,3.51,0,0,1,356.26,249.81Zm36.24,3.54,6.72,2.14c.93-2.92,4.45-2.52,5.61-2.16L436,263.26c1.94.62,4.22,2.72,3.47,5.06l6.72,2.14c2-6.36-2.6-12.17-8.05-13.92L407,246.62C401.48,244.87,394.56,246.91,392.5,253.35Zm3.26,28.42,31.12,9.92c5.45,1.74,12.59-.32,14.62-6.68l-6.71-2.14c-.75,2.34-3.83,2.72-5.77,2.1l-31.12-9.92c-1.15-.37-4.25-2.08-3.32-5l-6.71-2.14C385.81,274.34,390.27,280,395.76,281.77Z"/>
      <path class="cls-7" d="M427.37,274.79a3.52,3.52,0,0,1,3.93-3.06l48.1,6a3.52,3.52,0,1,1-.88,7l-48.09-6A3.52,3.52,0,0,1,427.37,274.79Zm36.28-3.17,7,.88c.38-3.06,3.91-3.31,5.12-3.16l32.41,4c2,.26,4.65,1.9,4.35,4.34l7,.87c.83-6.62-4.79-11.49-10.47-12.2l-32.4-4C470.91,261.63,464.49,264.9,463.65,271.62ZM472.07,299,504.48,303c5.67.71,12.31-2.63,13.14-9.26l-7-.87c-.31,2.43-3.26,3.38-5.28,3.13l-32.41-4c-1.21-.15-4.57-1.27-4.19-4.32l-7-.87C460.92,293.49,466.34,298.24,472.07,299Z"/>
      <path class="cls-7" d="M501.65,286.16a3.53,3.53,0,0,1,3.54-3.51l48.46.16a3.52,3.52,0,1,1,0,7l-48.47-.15A3.53,3.53,0,0,1,501.65,286.16Zm35.64-7.52,7,0c0-3.08,3.49-3.75,4.71-3.75l32.65.1c2,0,4.85,1.32,4.84,3.78l7.05,0c0-6.68-6.14-10.83-11.86-10.85l-32.66-.1C543.29,267.85,537.31,271.88,537.29,278.64Zm11.65,26.12,32.66.1c5.72,0,11.91-4.09,11.93-10.77l-7,0c0,2.45-2.83,3.75-4.86,3.74l-32.66-.1c-1.21,0-4.69-.71-4.68-3.78l-7,0C537.21,300.68,543.17,304.74,548.94,304.76Z"/>
      <path class="cls-7" d="M576.93,288.16a3.52,3.52,0,0,1,2.89-4.06l47.79-8.05a3.52,3.52,0,1,1,1.17,6.95L581,291.05A3.52,3.52,0,0,1,576.93,288.16Zm33.84-13.44,7-1.17c-.51-3,2.8-4.29,4-4.49l32.21-5.42c2-.34,5,.48,5.41,2.9l6.95-1.17c-1.11-6.58-7.89-9.63-13.53-8.68l-32.2,5.42C614.86,263.07,609.65,268.05,610.77,274.72Zm15.91,23.77,32.2-5.42c5.65-.95,11-6.06,9.94-12.64l-7,1.17c.41,2.42-2.15,4.18-4.15,4.52l-32.21,5.42c-1.2.2-4.74.09-5.25-2.93l-7,1.17C614.43,296.45,621,299.45,626.68,298.49Z"/>
      <path class="cls-7" d="M651.85,278.82a3.53,3.53,0,0,1,2.07-4.54l45.41-16.94a3.53,3.53,0,0,1,2.46,6.61l-45.41,16.94A3.52,3.52,0,0,1,651.85,278.82Zm71-26.52a3.53,3.53,0,0,1,2.07-4.54l45.41-16.93a3.52,3.52,0,0,1,2.46,6.6L727.4,254.37A3.52,3.52,0,0,1,722.87,252.3Zm-40.33,6.92,6.61-2.47c-1.08-2.87,1.94-4.73,3.08-5.16l30.59-11.42c1.91-.7,5-.46,5.86,1.83l6.61-2.46c-2.34-6.25-9.57-8-14.93-6L689.76,245C684.36,247,680.18,252.88,682.54,259.22Zm20.12,20.33,30.59-11.42c5.37-2,9.71-8,7.38-14.28L734,256.31c.86,2.3-1.32,4.51-3.23,5.22l-30.6,11.41c-1.14.43-4.63,1-5.71-1.88l-6.6,2.47C690.24,279.86,697.25,281.57,702.66,279.55Z"/>
    </g>
    <g>
      <path class="cls-2" d="M819,251.5v-.14a48.78,48.78,0,0,0-97.47-4.13v.15l-12.26-.52-2.28,54c-3,71.74,118.89,78.47,122,5.16l2.28-54ZM736.14,248v-.15a34.16,34.16,0,1,1,68.26,2.89v.15Z"/>
      <rect class="cls-1" x="726.27" y="237.7" width="5.7" height="14.3" transform="translate(453.63 962.95) rotate(-87.57)"/>
      <rect class="cls-1" x="809.14" y="241.2" width="5.7" height="14.3" transform="translate(529.53 1049.12) rotate(-87.58)"/>
      <path class="cls-3" d="M772.34,200.56a48.76,48.76,0,0,0-50.79,46.67v.15l14.6.62v-.15a34.16,34.16,0,1,1,68.26,2.89v.15l14.61.61v-.14A48.78,48.78,0,0,0,772.34,200.56Z"/>
      <path class="cls-3" d="M829,306c-3.09,73.32-125,66.59-122-5.16l2.28-54,122,5.16Z"/>
      <path class="cls-1" d="M780,289.26a11.41,11.41,0,0,1-9,10.68l-1,24.87a2.79,2.79,0,0,1-.93,2,2.76,2.76,0,0,1-2,.76,2.87,2.87,0,0,1-2.74-3l1-24.88A11.41,11.41,0,1,1,780,289.26Z"/>
      <path class="cls-3" d="M780,289.26a11.41,11.41,0,0,1-9,10.68l-1,24.87a2.79,2.79,0,0,1-.93,2,2.76,2.76,0,0,1-2,.76,2.87,2.87,0,0,1-2.74-3l1-24.88A11.41,11.41,0,1,1,780,289.26Z"/>
    </g>
    <g>
      <path class="cls-7" d="M744.68,228a3.54,3.54,0,0,1,4.92-.85L789.22,255a3.52,3.52,0,1,1-4.05,5.76l-39.63-27.9A3.53,3.53,0,0,1,744.68,228Zm33.51,14.26,5.77,4.06c1.76-2.52,5-1.08,6-.38l26.7,18.8c1.67,1.17,3.22,3.86,1.8,5.87l5.77,4.06c3.84-5.46,1.17-12.4-3.51-15.69L794,240.13C789.3,236.8,782.09,236.67,778.19,242.21Zm-5.41,28.08,26.71,18.8c4.67,3.29,12.11,3.47,16-2L809.67,283c-1.41,2-4.46,1.46-6.13.29l-26.7-18.8c-1-.7-3.44-3.27-1.67-5.78l-5.76-4.06C765.51,260.22,768.06,267,772.78,270.29Z"/>
      <path class="cls-7" d="M805.78,272a3.52,3.52,0,0,1,4.63-1.84l44.48,19.25a3.52,3.52,0,1,1-2.8,6.47l-44.48-19.25A3.53,3.53,0,0,1,805.78,272Zm35.71,7.13L848,282c1.22-2.82,4.68-2.07,5.8-1.59l30,13c1.87.81,3.93,3.12,3,5.37l6.47,2.8c2.65-6.12-1.38-12.37-6.63-14.64l-30-13C851.26,271.62,844.18,273,841.49,279.17Zm.42,28.59,30,13c5.25,2.27,12.56.93,15.22-5.2l-6.47-2.8c-1,2.25-4.08,2.33-6,1.53l-30-13c-1.12-.49-4-2.5-2.81-5.32l-6.47-2.8C832.74,299.39,836.61,305.47,841.91,307.76Z"/>
      <path class="cls-7" d="M874.08,303.05a3.52,3.52,0,0,1,4.43-2.29l46.17,14.73a3.53,3.53,0,0,1-2.14,6.72l-46.17-14.73A3.53,3.53,0,0,1,874.08,303.05Zm36.24,3.55,6.72,2.14c.93-2.93,4.45-2.53,5.61-2.16l31.11,9.92c1.94.62,4.23,2.72,3.48,5.06l6.72,2.15c2-6.37-2.6-12.18-8.05-13.92l-31.12-9.92C919.29,298.11,912.38,300.15,910.32,306.6ZM913.58,335l31.12,9.92c5.45,1.74,12.59-.32,14.62-6.68l-6.72-2.14c-.74,2.34-3.82,2.73-5.76,2.11l-31.12-9.93c-1.16-.37-4.26-2.08-3.32-5l-6.72-2.14C903.63,327.59,908.08,333.26,913.58,335Z"/>
      <path class="cls-7" d="M945.19,328a3.52,3.52,0,0,1,3.93-3.06l48.09,6a3.53,3.53,0,0,1-.87,7l-48.09-6A3.52,3.52,0,0,1,945.19,328Zm36.28-3.17,7,.88c.38-3.05,3.91-3.31,5.12-3.16l32.41,4.05c2,.25,4.65,1.9,4.35,4.33l7,.88c.83-6.63-4.79-11.5-10.47-12.21l-32.41-4C988.73,314.88,982.3,318.15,981.47,324.86Zm8.42,27.34,32.4,4c5.68.71,12.32-2.63,13.15-9.25l-7-.88c-.31,2.44-3.27,3.39-5.28,3.14l-32.41-4.05c-1.21-.15-4.57-1.26-4.19-4.31l-7-.88C978.74,346.73,984.16,351.48,989.89,352.2Z"/>
      <path class="cls-7" d="M1019.47,339.41a3.52,3.52,0,0,1,3.54-3.51l48.46.15a3.53,3.53,0,1,1,0,7.05l-48.47-.16A3.52,3.52,0,0,1,1019.47,339.41Zm35.63-7.52,7.05,0c0-3.07,3.49-3.75,4.7-3.75l32.66.1c2,0,4.85,1.33,4.84,3.78l7.05,0c0-6.68-6.14-10.83-11.87-10.85l-32.65-.11C1061.11,321.1,1055.12,325.12,1055.1,331.89ZM1066.76,358l32.66.11c5.72,0,11.91-4.1,11.93-10.78l-7,0c0,2.46-2.83,3.75-4.86,3.75l-32.66-.11c-1.22,0-4.69-.7-4.68-3.77l-7,0C1055,353.92,1061,358,1066.76,358Z"/>
      <path class="cls-7" d="M1094.75,341.41a3.53,3.53,0,0,1,2.89-4.07l47.79-8a3.52,3.52,0,1,1,1.17,6.95l-47.79,8A3.52,3.52,0,0,1,1094.75,341.41ZM1128.59,328l7-1.17c-.51-3,2.8-4.28,4-4.48l32.21-5.43c2-.33,5,.49,5.41,2.91l6.95-1.17c-1.11-6.59-7.89-9.64-13.53-8.69l-32.21,5.43C1132.68,316.31,1127.47,321.29,1128.59,328Zm15.91,23.77,32.2-5.42c5.64-.95,11-6.05,9.94-12.64l-7,1.17c.41,2.42-2.15,4.18-4.16,4.52l-32.2,5.42c-1.2.2-4.75.1-5.25-2.93l-6.95,1.17C1132.25,349.69,1138.81,352.69,1144.5,351.73Z"/>
      <path class="cls-7" d="M1169.67,332.06a3.52,3.52,0,0,1,2.07-4.53l45.41-16.94a3.52,3.52,0,0,1,2.46,6.6l-45.41,16.94A3.52,3.52,0,0,1,1169.67,332.06Zm71-26.52a3.52,3.52,0,0,1,2.06-4.53l45.41-16.94a3.52,3.52,0,1,1,2.47,6.6l-45.41,16.94A3.52,3.52,0,0,1,1240.69,305.54Zm-40.33,6.92L1207,310c-1.07-2.88,1.94-4.74,3.08-5.17l30.6-11.41c1.91-.71,5-.47,5.86,1.83l6.61-2.46c-2.34-6.26-9.57-8-14.93-6l-30.6,11.42C1202.17,300.25,1198,306.12,1200.36,312.46Zm20.11,20.33,30.6-11.41c5.36-2,9.71-8,7.37-14.29l-6.6,2.47c.86,2.29-1.33,4.5-3.23,5.22L1218,326.19c-1.14.42-4.64,1-5.71-1.89l-6.6,2.47C1208.06,333.11,1215.07,334.81,1220.47,332.79Z"/>
      <path class="cls-7" d="M1272.39,285.41l6.51-2.7c-1.18-2.84,1.77-4.81,2.89-5.27l30.17-12.5c1.88-.78,5-.65,5.93,1.62l6.51-2.7c-2.56-6.17-9.85-7.62-15.13-5.43l-30.17,12.5C1273.76,273.13,1269.8,279.15,1272.39,285.41Z"/>
      <path class="cls-7" d="M1293.21,305l30.18-12.5c5.28-2.19,9.41-8.38,6.85-14.55l-6.51,2.7c.94,2.27-1.16,4.56-3,5.33l-30.18,12.5c-1.12.47-4.59,1.16-5.77-1.68l-6.51,2.7C1280.82,305.76,1287.88,307.21,1293.21,305Z"/>
      <path class="cls-7" d="M1312.64,278.9a3.52,3.52,0,0,1,1.1-4.86l41-25.86a3.52,3.52,0,1,1,3.76,6l-41,25.86A3.52,3.52,0,0,1,1312.64,278.9Zm26-25.45,6-3.77c-1.64-2.59.93-5,2-5.68l27.62-17.42c1.72-1.09,4.8-1.48,6.11.59l6-3.76c-3.57-5.64-11-5.84-15.84-2.79L1342.84,238C1338,241.12,1335.07,247.72,1338.68,253.45Zm23.84,15.79,27.62-17.42c4.84-3,7.86-9.85,4.3-15.49l-6,3.76c1.31,2.07-.38,4.68-2.09,5.77l-27.63,17.42c-1,.65-4.34,1.92-6-.68l-6,3.76C1350.43,272.08,1357.64,272.32,1362.52,269.24Z"/>
      <path class="cls-7" d="M1378.16,241.38a3.52,3.52,0,0,1,.16-5l35.36-33.14a3.53,3.53,0,0,1,4.82,5.15l-35.36,33.13A3.51,3.51,0,0,1,1378.16,241.38Z"/>
    </g>
  </g>
</svg>
