<svg id="work" xmlns="http://www.w3.org/2000/svg" viewBox="0 0 1422 870">
  <defs>
    <style>
      .cls-1, .cls-3, .cls-8 {
        fill: #fff;
      }

      .cls-2, .cls-9 {
        fill: #ff0083;
      }

      .cls-10, .cls-3, .cls-4, .cls-6, .cls-7, .cls-8, .cls-9 {
        stroke: #4a4a4a;
      }

      .Graphic-Style, .cls-10, .cls-3, .cls-4, .cls-6, .cls-7, .cls-8, .cls-9 {
        stroke-linecap: round;
        stroke-linejoin: round;
      }

      .Graphic-Style, .cls-3, .cls-4 {
        stroke-width: 2.5px;
      }

      .Graphic-Style, .cls-4, .cls-6 {
        fill: none;
      }

      .cls-5, .cls-7 {
        fill: #ebebeb;
      }

      .cls-6, .cls-7 {
        stroke-width: 4px;
      }

      .cls-10, .cls-8, .cls-9 {
        stroke-width: 3px;
      }

      .cls-10, .cls-11 {
        fill: #4a4a4a;
      }

      .Graphic-Style {
        stroke: #ff0083;
      }
    </style>
  </defs>
  <title>13,1</title>
  <g>
    <polygon class="cls-1" points="1202.48 682.5 1202.48 630.5 1194.47 630.5 1194.47 604.5 1202.48 604.5 1202.48 552.5 1194.47 552.5 1194.47 526.5 1152.72 526.5 1152.72 525.75 1113.22 525.75 1113.22 526.5 1057.97 526.5 1057.97 552.5 1065.98 552.5 1065.98 604.5 1057.97 604.5 1057.97 630.5 1065.98 630.5 1065.98 682.5 1081.47 682.5 1081.47 708.25 1064.47 708.25 1064.47 734.25 1200.97 734.25 1200.97 708.5 1217.97 708.5 1217.97 682.5 1202.48 682.5"/>
    <g>
      <rect class="cls-2" x="560.47" y="451.51" width="39.5" height="26.75"/>
      <polyline class="cls-3" points="560.47 452.26 521.73 452.26 521.73 478.26 641.73 478.26 641.73 452.26 557.22 452.26"/>
      <polyline class="cls-4" points="522.22 452.26 505.22 452.26 505.22 478.26 522.22 478.26"/>
      <line class="cls-4" x1="522.22" y1="459.01" x2="557.22" y2="459.01"/>
      <line class="cls-4" x1="505.22" y1="471.26" x2="549.97" y2="471.26"/>
      <line class="cls-4" x1="513.72" y1="464.01" x2="521.72" y2="464.01"/>
      <line class="cls-4" x1="601.22" y1="459.01" x2="641.72" y2="459.01"/>
      <line class="cls-4" x1="641.72" y1="465.51" x2="619.97" y2="465.51"/>
      <line class="cls-4" x1="605.22" y1="471.26" x2="618.22" y2="471.26"/>
      <line class="cls-4" x1="560.47" y1="452.51" x2="560.47" y2="478.26"/>
      <line class="cls-4" x1="599.97" y1="452.51" x2="599.97" y2="478.26"/>
    </g>
    <g>
      <rect class="cls-2" x="1119.72" y="707.5" width="39.5" height="26.75"/>
      <polyline class="cls-4" points="1119.72 708.25 1080.97 708.25 1080.97 734.25 1200.97 734.25 1200.97 708.25 1116.47 708.25"/>
      <polyline class="cls-4" points="1081.47 708.25 1064.47 708.25 1064.47 734.25 1081.47 734.25"/>
      <line class="cls-4" x1="1081.47" y1="715" x2="1116.47" y2="715"/>
      <line class="cls-4" x1="1064.47" y1="727.25" x2="1109.22" y2="727.25"/>
      <line class="cls-4" x1="1072.97" y1="720" x2="1080.97" y2="720"/>
      <line class="cls-4" x1="1164.47" y1="727.25" x2="1177.47" y2="727.25"/>
      <line class="cls-4" x1="1119.72" y1="708.5" x2="1119.72" y2="734.25"/>
      <line class="cls-4" x1="1159.22" y1="708.5" x2="1159.22" y2="734.25"/>
    </g>
    <g>
      <rect class="cls-2" x="1136.72" y="681.75" width="39.5" height="26.75"/>
      <polyline class="cls-4" points="1136.72 682.5 1097.97 682.5 1097.97 708.5 1217.97 708.5 1217.97 682.5 1133.47 682.5"/>
      <polyline class="cls-4" points="1098.47 682.5 1081.47 682.5 1081.47 708.5 1098.47 708.5"/>
      <line class="cls-4" x1="1098.47" y1="689.25" x2="1133.47" y2="689.25"/>
      <line class="cls-4" x1="1089.97" y1="694.25" x2="1097.97" y2="694.25"/>
      <line class="cls-4" x1="1217.97" y1="695.75" x2="1196.22" y2="695.75"/>
      <line class="cls-4" x1="1181.47" y1="701.5" x2="1194.47" y2="701.5"/>
      <line class="cls-4" x1="1136.72" y1="682.75" x2="1136.72" y2="708.5"/>
      <line class="cls-4" x1="1176.22" y1="682.75" x2="1176.22" y2="708.5"/>
    </g>
    <g>
      <rect class="cls-2" x="1121.23" y="655.75" width="39.5" height="26.75"/>
      <polyline class="cls-4" points="1121.23 656.5 1082.48 656.5 1082.48 682.5 1202.48 682.5 1202.48 656.5 1117.98 656.5"/>
      <polyline class="cls-4" points="1082.98 656.5 1065.98 656.5 1065.98 682.5 1082.98 682.5"/>
      <line class="cls-4" x1="1074.48" y1="668.25" x2="1082.48" y2="668.25"/>
      <line class="cls-4" x1="1161.98" y1="663.25" x2="1202.48" y2="663.25"/>
      <line class="cls-4" x1="1165.98" y1="675.5" x2="1178.98" y2="675.5"/>
      <line class="cls-4" x1="1121.23" y1="656.75" x2="1121.23" y2="682.5"/>
      <line class="cls-4" x1="1160.73" y1="656.75" x2="1160.73" y2="682.5"/>
    </g>
    <g>
      <rect class="cls-2" x="1121.23" y="629.75" width="39.5" height="26.75"/>
      <polyline class="cls-4" points="1121.23 630.5 1082.48 630.5 1082.48 656.5 1202.48 656.5 1202.48 630.5 1117.98 630.5"/>
      <polyline class="cls-4" points="1082.98 630.5 1065.98 630.5 1065.98 656.5 1082.98 656.5"/>
      <line class="cls-4" x1="1074.48" y1="642.25" x2="1082.48" y2="642.25"/>
      <line class="cls-4" x1="1121.23" y1="630.75" x2="1121.23" y2="656.5"/>
      <line class="cls-4" x1="1160.73" y1="630.75" x2="1160.73" y2="656.5"/>
    </g>
    <g>
      <rect class="cls-2" x="1113.22" y="603.75" width="39.5" height="26.75"/>
      <polyline class="cls-4" points="1113.22 604.5 1074.47 604.5 1074.47 630.5 1194.47 630.5 1194.47 604.5 1109.97 604.5"/>
      <polyline class="cls-4" points="1074.97 604.5 1057.97 604.5 1057.97 630.5 1074.97 630.5"/>
      <line class="cls-4" x1="1066.47" y1="616.25" x2="1074.47" y2="616.25"/>
      <line class="cls-4" x1="1113.22" y1="604.75" x2="1113.22" y2="630.5"/>
      <line class="cls-4" x1="1152.72" y1="604.75" x2="1152.72" y2="630.5"/>
    </g>
    <g>
      <rect class="cls-2" x="1121.23" y="577.75" width="39.5" height="26.75"/>
      <polyline class="cls-4" points="1121.23 578.5 1082.48 578.5 1082.48 604.5 1202.48 604.5 1202.48 578.5 1117.98 578.5"/>
      <polyline class="cls-4" points="1082.98 578.5 1065.98 578.5 1065.98 604.5 1082.98 604.5"/>
      <line class="cls-4" x1="1121.23" y1="578.75" x2="1121.23" y2="604.5"/>
      <line class="cls-4" x1="1160.73" y1="578.75" x2="1160.73" y2="604.5"/>
    </g>
    <g>
      <rect class="cls-2" x="1121.23" y="551.75" width="39.5" height="26.75"/>
      <polyline class="cls-4" points="1121.23 552.5 1082.48 552.5 1082.48 578.5 1202.48 578.5 1202.48 552.5 1117.98 552.5"/>
      <polyline class="cls-4" points="1082.98 552.5 1065.98 552.5 1065.98 578.5 1082.98 578.5"/>
      <line class="cls-4" x1="1082.98" y1="559.25" x2="1117.98" y2="559.25"/>
      <line class="cls-4" x1="1121.23" y1="552.75" x2="1121.23" y2="578.5"/>
      <line class="cls-4" x1="1160.73" y1="552.75" x2="1160.73" y2="578.5"/>
    </g>
    <g>
      <rect class="cls-2" x="1113.22" y="525.75" width="39.5" height="26.75"/>
      <polyline class="cls-4" points="1113.22 526.5 1074.47 526.5 1074.47 552.5 1194.47 552.5 1194.47 526.5 1109.97 526.5"/>
      <polyline class="cls-4" points="1074.97 526.5 1057.97 526.5 1057.97 552.5 1074.97 552.5"/>
      <line class="cls-4" x1="1156.98" y1="533.25" x2="1191.98" y2="533.25"/>
      <line class="cls-4" x1="1066.47" y1="538.25" x2="1074.47" y2="538.25"/>
      <line class="cls-4" x1="1153.97" y1="533.25" x2="1194.47" y2="533.25"/>
      <line class="cls-4" x1="1194.47" y1="539.75" x2="1172.72" y2="539.75"/>
      <line class="cls-4" x1="1113.22" y1="526.75" x2="1113.22" y2="552.5"/>
      <line class="cls-4" x1="1152.72" y1="526.75" x2="1152.72" y2="552.5"/>
    </g>
    <path class="cls-1" d="M587.78,341.17a23.88,23.88,0,0,0-23.88-23.88h-222a23.65,23.65,0,0,0-23.65,23.65V545.88H587.78Z"/>
    <g>
      <polyline class="cls-3" points="933.73 447.59 916.8 446.02 914.41 471.92 931.34 473.48"/>
      <polyline class="cls-3" points="971.82 451.1 933.24 447.54 930.85 473.43 1050.34 484.46 1052.73 458.57 1011.15 454.73"/>
      <line class="cls-4" x1="933.11" y1="454.31" x2="967.96" y2="457.52"/>
      <line class="cls-4" x1="915.06" y1="464.94" x2="959.62" y2="469.05"/>
      <line class="cls-4" x1="924.19" y1="458.5" x2="932.16" y2="459.24"/>
      <line class="cls-4" x1="1011.78" y1="461.57" x2="1052.11" y2="465.29"/>
      <line class="cls-4" x1="1051.51" y1="471.76" x2="1029.85" y2="469.76"/>
      <line class="cls-4" x1="1014.64" y1="474.13" x2="1027.58" y2="475.33"/>
      <rect class="cls-2" x="975.59" y="444.24" width="29.75" height="39.5" transform="translate(437.42 1407.63) rotate(-84.73)"/>
      <line class="cls-4" x1="972.17" y1="447.37" x2="969.43" y2="476.99"/>
      <line class="cls-4" x1="1011.5" y1="451" x2="1008.76" y2="480.62"/>
      <path class="cls-4" d="M1053.53,449.85c-7.43,4.34-42,1.15-42,1.15l-39.33-3.63C946.52,445,934,439.82,934,439.82l-16.43-1.51s5.35,4.51,10.09,4.94"/>
    </g>
    <g>
      <polyline class="cls-3" points="720.22 452.26 703.22 452.26 703.22 478.26 720.22 478.26"/>
      <polyline class="cls-3" points="758.47 452.26 719.73 452.26 719.73 478.26 839.73 478.26 839.73 452.26 797.97 452.26"/>
      <line class="cls-4" x1="720.22" y1="459.01" x2="755.22" y2="459.01"/>
      <line class="cls-4" x1="703.22" y1="471.26" x2="747.97" y2="471.26"/>
      <line class="cls-4" x1="711.72" y1="464.01" x2="719.72" y2="464.01"/>
      <line class="cls-4" x1="799.22" y1="459.01" x2="839.72" y2="459.01"/>
      <line class="cls-4" x1="839.72" y1="465.51" x2="817.97" y2="465.51"/>
      <line class="cls-4" x1="803.22" y1="471.26" x2="816.22" y2="471.26"/>
      <rect class="cls-2" x="758.47" y="448.51" width="39.5" height="29.75"/>
      <line class="cls-4" x1="758.47" y1="448.51" x2="758.47" y2="478.26"/>
      <line class="cls-4" x1="797.97" y1="448.51" x2="797.97" y2="478.26"/>
      <path class="cls-4" d="M839.72,443.51c-7,5-41.75,5-41.75,5h-39.5c-25.75,0-38.75-4-38.75-4h-16.5s5.75,4,10.5,4"/>
    </g>
    <rect class="cls-5" x="245.01" y="546.88" width="416.02" height="86.9"/>
    <rect class="cls-5" x="587.78" y="519.31" width="402.3" height="26.57"/>
    <rect class="cls-5" x="587.78" y="354.06" width="21.12" height="123.95"/>
    <polyline class="cls-6" points="1286.23 733.78 1014.23 733.78 994.23 634.78 130.23 634.78 115.23 734.25"/>
    <line class="cls-6" x1="1300.23" y1="733.78" x2="1318.23" y2="733.78"/>
    <g>
      <g>
        <path class="cls-2" d="M348.75,348.12v4.93h9.89v4.89h-9.89v7.68h-6.34v-22.4H360v4.9Z"/>
        <path class="cls-2" d="M377.1,361.27h-9.47l-1.76,4.35H359.4l9.89-22.4h6.24l9.92,22.4h-6.59Zm-1.86-4.67-2.88-7.17-2.88,7.17Z"/>
        <path class="cls-2" d="M395.88,357.5,393.52,360v5.6h-6.28v-22.4h6.28v9.32l8.67-9.32h7L400,353.14l9.63,12.48h-7.36Z"/>
        <path class="cls-2" d="M429.29,360.73v4.89h-18v-22.4h17.57v4.9h-11.3v3.78h9.95v4.73h-9.95v4.1Z"/>
        <path class="cls-2" d="M462.35,365.62l-.07-11.87-5.76,9.67h-2.81L448,354.07v11.55h-5.86v-22.4h5.22l7.87,12.93,7.68-12.93h5.22l.06,22.4Z"/>
        <path class="cls-2" d="M477.56,364.57a11.46,11.46,0,0,1,0-20.29,14.34,14.34,0,0,1,12.77,0,11.45,11.45,0,0,1,0,20.29,14.34,14.34,0,0,1-12.77,0ZM487,360a5.76,5.76,0,0,0,2.18-2.25,7.39,7.39,0,0,0,0-6.69,5.85,5.85,0,0,0-2.18-2.26,6.29,6.29,0,0,0-6.14,0,5.78,5.78,0,0,0-2.18,2.26,7.39,7.39,0,0,0,0,6.69,5.69,5.69,0,0,0,2.18,2.25,6.29,6.29,0,0,0,6.14,0Z"/>
        <path class="cls-2" d="M521,343.22v22.4h-5.21l-9.89-11.93v11.93h-6.21v-22.4h5.22l9.89,11.94V343.22Z"/>
        <path class="cls-2" d="M543.5,360.73v4.89h-18v-22.4h17.56v4.9H531.79v3.78h10v4.73h-10v4.1Z"/>
        <path class="cls-2" d="M558.83,357.59v8h-6.34V357.5L544,343.22h6.69l5.31,8.9,5.31-8.9h6.14Z"/>
        <path class="cls-2" d="M396.68,382.63a7.78,7.78,0,0,1,3.46,2.88,7.92,7.92,0,0,1,1.22,4.4,7.54,7.54,0,0,1-4.68,7.25,12.79,12.79,0,0,1-5.28,1h-3.9V404h-6.34v-22.4H391.4A12.79,12.79,0,0,1,396.68,382.63Zm-2.72,9.7a3,3,0,0,0,1-2.42,3,3,0,0,0-1-2.43,4.34,4.34,0,0,0-2.94-.86H387.5v6.56H391A4.44,4.44,0,0,0,394,392.33Z"/>
        <path class="cls-2" d="M414.22,398.07h-3.46V404h-6.33v-22.4h10.24a12.85,12.85,0,0,1,5.28,1,7.8,7.8,0,0,1,3.45,2.88,7.92,7.92,0,0,1,1.22,4.4,7.77,7.77,0,0,1-1.14,4.24,7.61,7.61,0,0,1-3.24,2.83l4.83,7h-6.79Zm3-10.59a4.35,4.35,0,0,0-3-.86h-3.52v6.56h3.52a4.46,4.46,0,0,0,3-.85,3,3,0,0,0,1-2.42A3.06,3.06,0,0,0,417.23,387.48Z"/>
        <path class="cls-2" d="M428.11,381.62h6.33V404h-6.33Z"/>
        <path class="cls-2" d="M460.27,381.62V404h-5.22l-9.89-11.93V404H439v-22.4h5.21l9.89,11.94V381.62Z"/>
        <path class="cls-2" d="M469.52,386.65h-6.88v-5H482.7v5h-6.85V404h-6.33Z"/>
        <path class="cls-2" d="M503.05,399.13V404h-18v-22.4h17.57v4.9h-11.3v3.78h10V395h-10v4.1Z"/>
        <path class="cls-2" d="M516.36,398.07h-3.45V404h-6.34v-22.4h10.24a12.79,12.79,0,0,1,5.28,1,7.83,7.83,0,0,1,3.46,2.88,8.56,8.56,0,0,1,.08,8.64,7.64,7.64,0,0,1-3.25,2.83l4.83,7h-6.78Zm3-10.59a4.34,4.34,0,0,0-2.94-.86h-3.52v6.56h3.52a4.44,4.44,0,0,0,2.94-.85,3,3,0,0,0,1-2.42A3.06,3.06,0,0,0,519.37,387.48Z"/>
      </g>
      <rect class="cls-7" x="188.57" y="519.31" width="129.66" height="26.57"/>
      <path class="cls-6" d="M191.43,478h125.8v41.3H191.43a20.65,20.65,0,0,1,0-41.3Z"/>
      <path class="cls-6" d="M1010.73,498.66a20.65,20.65,0,0,1-20.65,20.65H587.78V478h402.3A20.65,20.65,0,0,1,1010.73,498.66Z"/>
      <path class="cls-6" d="M587.78,543.88V343.32a26,26,0,0,0-26-26H344.29a26,26,0,0,0-26,26V358"/>
      <line class="cls-6" x1="318.27" y1="379.89" x2="318.27" y2="545.88"/>
      <path class="cls-6" d="M440.65,299.37a27.92,27.92,0,1,1,24.66,0"/>
      <line class="cls-4" x1="426.55" y1="283.3" x2="479.41" y2="283.3"/>
      <line class="cls-4" x1="463.18" y1="264.11" x2="452.98" y2="283.3"/>
      <rect class="cls-4" x="368.29" y="300.44" width="169.47" height="15.84"/>
      <polyline class="cls-6" points="245.01 545.88 245.01 633.78 661.03 633.78 661.03 546.88"/>
      <g>
        <polyline class="cls-4" points="414.72 545.88 414.72 494.68 555.22 494.68 555.22 545.88"/>
        <rect class="cls-5" x="414.72" y="428.16" width="140.5" height="54.41"/>
        <rect class="cls-4" x="414.72" y="428.16" width="140.5" height="54.41"/>
        <line class="cls-4" x1="404.82" y1="428.16" x2="565.12" y2="428.16"/>
        <rect class="cls-2" x="425.94" y="434.58" width="118.06" height="28.94"/>
        <rect class="cls-4" x="425.94" y="434.58" width="118.06" height="28.94"/>
        <line class="cls-4" x1="426.93" y1="473.27" x2="434.85" y2="473.27"/>
        <line class="cls-4" x1="446.47" y1="473.27" x2="454.39" y2="473.27"/>
        <line class="cls-4" x1="466.01" y1="473.27" x2="473.93" y2="473.27"/>
        <line class="cls-4" x1="485.55" y1="473.27" x2="493.47" y2="473.27"/>
        <line class="cls-4" x1="425.94" y1="509.96" x2="544" y2="509.96"/>
        <line class="cls-4" x1="425.94" y1="517.34" x2="544" y2="517.34"/>
        <line class="cls-4" x1="425.94" y1="524.72" x2="544" y2="524.72"/>
        <line class="cls-4" x1="425.94" y1="532.11" x2="544" y2="532.11"/>
      </g>
      <g>
        <path class="cls-1" d="M328.43,511.89,320,392.36a12.88,12.88,0,1,1,7-.56l8.4,119.59a32.5,32.5,0,0,1,32.25,32.5h-65C302.67,519.64,328.43,511.89,328.43,511.89Z"/>
        <path class="cls-4" d="M326.1,389.74l8.79,121.81a30.6,30.6,0,0,0-5.7.59l-8.81-122"/>
        <path class="cls-4" d="M367.76,543.88a32.34,32.34,0,1,0-64.68,0"/>
        <path class="cls-4" d="M311.22,374.85A12.38,12.38,0,0,0,320.51,392"/>
        <path class="cls-4" d="M334.8,381.31a12.37,12.37,0,0,1-8.57,10.28"/>
      </g>
      <circle class="cls-4" cx="197.23" cy="498.66" r="9.33"/>
      <circle class="cls-4" cx="615.04" cy="498.66" r="9.33"/>
      <circle class="cls-4" cx="738.76" cy="498.66" r="9.33"/>
      <circle class="cls-4" cx="862.47" cy="498.66" r="9.33"/>
      <circle class="cls-4" cx="987.91" cy="498.66" r="9.33"/>
      <rect class="cls-4" x="587.78" y="519.31" width="402.3" height="26.57"/>
      <line class="cls-4" x1="957.25" y1="545.88" x2="957.25" y2="632.78"/>
      <line class="cls-4" x1="937.6" y1="632.78" x2="937.6" y2="545.88"/>
    </g>
    <path class="cls-1" d="M301.23,629.85a12.29,12.29,0,0,0-12.29-12.29H237.17v16.66h64.06Z"/>
    <g>
      <path class="cls-1" d="M315,357.45s-12.17-11.54-20.5-21.15c-4.49-25-12.82-53.17-22.42-63.42l16-7.05c38.44-83.93,12.17-105.07,3.2-110.2C265.71,140.9,221.5,130,206.13,146c-24.35,25.62-16,98-16,98-25,8.75-37.8,44.68-37.8,65.56V419h9l-9,198.61H147.5A12.49,12.49,0,0,0,135,630.05v4.17h66v-17.3l19.22-137.1L235.17,616.7v17.52h64.92v-3.74A12.49,12.49,0,0,0,287.6,618h-6.3l-5.13-199h10.25l-2.63-30.32-2.39-9.55h18.5l6.5-6.25,5.75,1.25,16.25,3,7,4.75,3.5-1.25,2.75-8.5-6.25-7.75-5.75-2.25Z"/>
      <polygon class="cls-5" points="161.28 418.95 276.17 418.95 281.3 617.99 235.1 617.99 220.22 480.03 201 617.56 152.31 617.56 161.28 418.95"/>
      <path class="cls-5" d="M237.73,255.2l2.57,27.6,2.56,2.46,45.27-19.43s43.35-83.72,3.2-110.19c-8.27-.55-15.88-.48-22.17.84,4.37,1.75,8.2,3.3,11.56,4.67a25.86,25.86,0,0,1,15.13,30.92l-1.54,5.5,1.16.28a2.64,2.64,0,0,1,1.7,1.34,2.6,2.6,0,0,1,.1,2.15L287,227.16a1.22,1.22,0,0,1-1.63.65l-1.28-.6-6.54,16.31a25,25,0,0,1-30.67,14.54Z"/>
      <path class="cls-4" d="M291.34,155.63c-51.9-6.19-85.64,39.94-80.94,99.73l32.46,29.9,29.25-12.38"/>
      <line class="cls-4" x1="223.73" y1="267.65" x2="223.73" y2="301.49"/>
      <line class="cls-4" x1="259.53" y1="278.2" x2="259.53" y2="309.18"/>
      <path class="cls-6" d="M210,310.89l32,32.46L303.29,354c7.48,8.54,6.62,18.37-2.77,23.92,0,.42-65.35,0-65.35,0L180.5,342.07"/>
      <line class="cls-4" x1="276.17" y1="327.98" x2="278.48" y2="349.51"/>
      <path class="cls-6" d="M283.79,388.63,286.42,419H276.17l5.13,199h6.3a12.49,12.49,0,0,1,12.49,12.49v3.74H235.17V616.7L220.22,479.82,201,616.92v17.3H135v-4.17a12.49,12.49,0,0,1,12.49-12.49h4.81l9-198.61h-9V309.61c0-20.88,12.81-56.81,37.8-65.56,0,0-8.33-72.4,16-98,15.37-16,59.58-5.13,85.2,9.6,9,5.13,35.24,26.27-3.2,110.2l-16,7.05c9.6,10.25,17.93,38.44,22.42,63.42,8.33,9.61,20.5,21.15,20.5,21.15"/>
      <line class="cls-6" x1="152.31" y1="617.56" x2="201" y2="617.56"/>
      <line class="cls-6" x1="235.1" y1="617.56" x2="283.79" y2="617.56"/>
      <line class="cls-6" x1="161.28" y1="418.95" x2="276.17" y2="418.95"/>
      <path class="cls-4" d="M305.4,356.81c18.4,2.56,41.83,5.23,34.77,22.13-2.24,5.38-7.33,1.11-9.39,0-5.68-3.06-11.95-4.3-25.38-4.57"/>
      <line class="cls-4" x1="237.73" y1="254.94" x2="240.18" y2="282.8"/>
      <path class="cls-8" d="M295.17,195.06l-.86,2.51-10.25,29.65-4.56,13.21a27.61,27.61,0,0,1-35.13,17.08l-22.19-7.66a27.4,27.4,0,0,1-12.18-8.4,113.91,113.91,0,0,1,7.29-38.7,82.24,82.24,0,0,1,17-27.32,64.4,64.4,0,0,1,33.84-19l10,3.45A27.63,27.63,0,0,1,295.17,195.06Z"/>
      <path class="cls-9" d="M296.24,202.93l-7.86,21.33a4.31,4.31,0,0,1-4.32,3,3.47,3.47,0,0,1-.89-.2l-65.88-24.27a82.24,82.24,0,0,1,17-27.32l59.8,22,.25.11A4.2,4.2,0,0,1,296.24,202.93Z"/>
      <path class="cls-8" d="M257.13,188.62l17.61,17.61s-9.21,10.05-18.41,4.4-5.24-15.7-3.77-17.58A37.42,37.42,0,0,1,257.13,188.62Z"/>
      <path class="cls-8" d="M294.84,201.61l-16.75,6.17s1.1,10.15,8.15,8.21,8.74-10.71,8.67-12.54Z"/>
      <path class="cls-10" d="M269.16,207.4a3.28,3.28,0,1,1-3.28-3.28A3.28,3.28,0,0,1,269.16,207.4Z"/>
      <path class="cls-10" d="M288.47,212a2.89,2.89,0,1,1-2.89-2.89A2.89,2.89,0,0,1,288.47,212Z"/>
      <path class="cls-8" d="M242.86,228.83c4.37-1.16,6.14,3.49,8.65,5.44s8.23,6.7,11.86,7.12,2.51,2.93,1,3.49-10.33,2.65-15.63-2.37-7-6-8.65-7S238.68,230,242.86,228.83Z"/>
      <g>
        <path class="cls-11" d="M280.48,235.11a.76.76,0,1,1-.76-.76A.76.76,0,0,1,280.48,235.11Z"/>
        <path class="cls-11" d="M280.48,235.11a.76.76,0,1,1-.76-.76A.76.76,0,0,1,280.48,235.11Z"/>
        <path class="cls-11" d="M277.13,230.09a.76.76,0,1,1-.76-.76A.76.76,0,0,1,277.13,230.09Z"/>
        <path class="cls-11" d="M280.48,235.11a.76.76,0,1,1-.76-.76A.76.76,0,0,1,280.48,235.11Z"/>
        <path class="cls-11" d="M277.13,235.11a.76.76,0,1,1-.76-.76A.76.76,0,0,1,277.13,235.11Z"/>
        <path class="cls-11" d="M278.8,232.6a.76.76,0,1,1-.76-.76A.76.76,0,0,1,278.8,232.6Z"/>
        <path class="cls-11" d="M277.13,230.09a.76.76,0,1,1-.76-.76A.76.76,0,0,1,277.13,230.09Z"/>
        <path class="cls-11" d="M277.13,240.14a.76.76,0,1,1-.76-.76A.76.76,0,0,1,277.13,240.14Z"/>
        <path class="cls-11" d="M278.8,237.62a.76.76,0,1,1-.76-.76A.76.76,0,0,1,278.8,237.62Z"/>
        <path class="cls-11" d="M280.48,235.11a.76.76,0,1,1-.76-.76A.76.76,0,0,1,280.48,235.11Z"/>
        <path class="cls-11" d="M277.13,235.11a.76.76,0,1,1-.76-.76A.76.76,0,0,1,277.13,235.11Z"/>
        <path class="cls-11" d="M277.13,240.14a.76.76,0,1,1-.76-.76A.76.76,0,0,1,277.13,240.14Z"/>
        <path class="cls-11" d="M277.13,230.09a.76.76,0,1,1-.76-.76A.76.76,0,0,1,277.13,230.09Z"/>
        <path class="cls-11" d="M273.78,230.09a.76.76,0,1,1-.76-.76A.76.76,0,0,1,273.78,230.09Z"/>
        <path class="cls-11" d="M277.13,235.11a.76.76,0,1,1-.76-.76A.76.76,0,0,1,277.13,235.11Z"/>
        <path class="cls-11" d="M273.78,235.11a.76.76,0,1,1-.76-.76A.76.76,0,0,1,273.78,235.11Z"/>
        <path class="cls-11" d="M275.45,232.6a.76.76,0,1,1-.75-.76A.76.76,0,0,1,275.45,232.6Z"/>
        <path class="cls-11" d="M277.13,230.09a.76.76,0,1,1-.76-.76A.76.76,0,0,1,277.13,230.09Z"/>
        <path class="cls-11" d="M273.78,230.09a.76.76,0,1,1-.76-.76A.76.76,0,0,1,273.78,230.09Z"/>
        <path class="cls-11" d="M277.13,240.14a.76.76,0,1,1-.76-.76A.76.76,0,0,1,277.13,240.14Z"/>
        <path class="cls-11" d="M273.78,240.14a.76.76,0,1,1-.76-.76A.76.76,0,0,1,273.78,240.14Z"/>
        <path class="cls-11" d="M275.45,237.62a.76.76,0,1,1-.75-.76A.76.76,0,0,1,275.45,237.62Z"/>
        <path class="cls-11" d="M277.13,235.11a.76.76,0,1,1-.76-.76A.76.76,0,0,1,277.13,235.11Z"/>
        <path class="cls-11" d="M273.78,235.11a.76.76,0,1,1-.76-.76A.76.76,0,0,1,273.78,235.11Z"/>
        <path class="cls-11" d="M273.78,245.16a.76.76,0,0,1-1.52,0,.76.76,0,1,1,1.52,0Z"/>
        <path class="cls-11" d="M275.45,242.65a.76.76,0,1,1-.75-.76A.76.76,0,0,1,275.45,242.65Z"/>
        <path class="cls-11" d="M277.13,240.14a.76.76,0,1,1-.76-.76A.76.76,0,0,1,277.13,240.14Z"/>
        <path class="cls-11" d="M273.78,240.14a.76.76,0,1,1-.76-.76A.76.76,0,0,1,273.78,240.14Z"/>
        <path class="cls-11" d="M273.78,245.16a.76.76,0,0,1-1.52,0,.76.76,0,1,1,1.52,0Z"/>
        <path class="cls-11" d="M273.78,230.09a.76.76,0,1,1-.76-.76A.76.76,0,0,1,273.78,230.09Z"/>
        <path class="cls-11" d="M270.43,230.09a.76.76,0,1,1-.76-.76A.76.76,0,0,1,270.43,230.09Z"/>
        <path class="cls-11" d="M273.78,235.11a.76.76,0,1,1-.76-.76A.76.76,0,0,1,273.78,235.11Z"/>
        <path class="cls-11" d="M270.43,235.11a.76.76,0,1,1-.76-.76A.76.76,0,0,1,270.43,235.11Z"/>
        <path class="cls-11" d="M272.11,232.6a.76.76,0,1,1-.76-.76A.76.76,0,0,1,272.11,232.6Z"/>
        <path class="cls-11" d="M273.78,230.09a.76.76,0,1,1-.76-.76A.76.76,0,0,1,273.78,230.09Z"/>
        <path class="cls-11" d="M270.43,230.09a.76.76,0,1,1-.76-.76A.76.76,0,0,1,270.43,230.09Z"/>
        <path class="cls-11" d="M273.78,240.14a.76.76,0,1,1-.76-.76A.76.76,0,0,1,273.78,240.14Z"/>
        <path class="cls-11" d="M270.43,240.14a.76.76,0,1,1-.76-.76A.76.76,0,0,1,270.43,240.14Z"/>
        <path class="cls-11" d="M272.11,237.62a.76.76,0,1,1-.76-.76A.76.76,0,0,1,272.11,237.62Z"/>
        <path class="cls-11" d="M273.78,235.11a.76.76,0,1,1-.76-.76A.76.76,0,0,1,273.78,235.11Z"/>
        <path class="cls-11" d="M270.43,235.11a.76.76,0,1,1-.76-.76A.76.76,0,0,1,270.43,235.11Z"/>
        <path class="cls-11" d="M273.78,245.16a.76.76,0,0,1-1.52,0,.76.76,0,1,1,1.52,0Z"/>
        <path class="cls-11" d="M270.43,245.16a.76.76,0,0,1-1.52,0,.76.76,0,0,1,1.52,0Z"/>
        <path class="cls-11" d="M272.11,242.65a.76.76,0,1,1-.76-.76A.76.76,0,0,1,272.11,242.65Z"/>
        <path class="cls-11" d="M273.78,240.14a.76.76,0,1,1-.76-.76A.76.76,0,0,1,273.78,240.14Z"/>
        <path class="cls-11" d="M270.43,240.14a.76.76,0,1,1-.76-.76A.76.76,0,0,1,270.43,240.14Z"/>
        <path class="cls-11" d="M270.43,250.18a.76.76,0,1,1-.76-.76A.76.76,0,0,1,270.43,250.18Z"/>
        <path class="cls-11" d="M272.11,247.67a.76.76,0,0,1-1.52,0,.76.76,0,0,1,1.52,0Z"/>
        <path class="cls-11" d="M273.78,245.16a.76.76,0,0,1-1.52,0,.76.76,0,1,1,1.52,0Z"/>
        <path class="cls-11" d="M270.43,245.16a.76.76,0,0,1-1.52,0,.76.76,0,0,1,1.52,0Z"/>
        <path class="cls-11" d="M270.43,250.18a.76.76,0,1,1-.76-.76A.76.76,0,0,1,270.43,250.18Z"/>
        <path class="cls-11" d="M270.43,230.09a.76.76,0,1,1-.76-.76A.76.76,0,0,1,270.43,230.09Z"/>
        <path class="cls-11" d="M267.08,230.09a.75.75,0,0,1-.75.76.76.76,0,0,1,0-1.52A.75.75,0,0,1,267.08,230.09Z"/>
        <path class="cls-11" d="M270.43,235.11a.76.76,0,1,1-.76-.76A.76.76,0,0,1,270.43,235.11Z"/>
        <path class="cls-11" d="M267.08,235.11a.75.75,0,0,1-.75.76.76.76,0,0,1,0-1.52A.75.75,0,0,1,267.08,235.11Z"/>
        <path class="cls-11" d="M268.76,232.6a.76.76,0,1,1-.76-.76A.76.76,0,0,1,268.76,232.6Z"/>
        <path class="cls-11" d="M270.43,230.09a.76.76,0,1,1-.76-.76A.76.76,0,0,1,270.43,230.09Z"/>
        <path class="cls-11" d="M267.08,230.09a.75.75,0,0,1-.75.76.76.76,0,0,1,0-1.52A.75.75,0,0,1,267.08,230.09Z"/>
        <path class="cls-11" d="M270.43,240.14a.76.76,0,1,1-.76-.76A.76.76,0,0,1,270.43,240.14Z"/>
        <path class="cls-11" d="M267.08,240.14a.75.75,0,0,1-.75.75.76.76,0,1,1,0-1.51A.75.75,0,0,1,267.08,240.14Z"/>
        <path class="cls-11" d="M268.76,237.62a.76.76,0,1,1-.76-.76A.76.76,0,0,1,268.76,237.62Z"/>
        <path class="cls-11" d="M270.43,235.11a.76.76,0,1,1-.76-.76A.76.76,0,0,1,270.43,235.11Z"/>
        <path class="cls-11" d="M267.08,235.11a.75.75,0,0,1-.75.76.76.76,0,0,1,0-1.52A.75.75,0,0,1,267.08,235.11Z"/>
        <path class="cls-11" d="M270.43,245.16a.76.76,0,0,1-1.52,0,.76.76,0,0,1,1.52,0Z"/>
        <path class="cls-11" d="M267.08,245.16a.74.74,0,0,1-.75.75.75.75,0,0,1-.76-.75.76.76,0,0,1,.76-.76A.75.75,0,0,1,267.08,245.16Z"/>
        <path class="cls-11" d="M268.76,242.65a.76.76,0,1,1-.76-.76A.76.76,0,0,1,268.76,242.65Z"/>
        <path class="cls-11" d="M270.43,240.14a.76.76,0,1,1-.76-.76A.76.76,0,0,1,270.43,240.14Z"/>
        <path class="cls-11" d="M267.08,240.14a.75.75,0,0,1-.75.75.76.76,0,1,1,0-1.51A.75.75,0,0,1,267.08,240.14Z"/>
        <path class="cls-11" d="M270.43,250.18a.76.76,0,1,1-.76-.76A.76.76,0,0,1,270.43,250.18Z"/>
        <path class="cls-11" d="M267.08,250.18a.75.75,0,0,1-.75.76.76.76,0,0,1,0-1.52A.75.75,0,0,1,267.08,250.18Z"/>
        <path class="cls-11" d="M268.76,247.67a.76.76,0,0,1-1.52,0,.76.76,0,1,1,1.52,0Z"/>
        <path class="cls-11" d="M270.43,245.16a.76.76,0,0,1-1.52,0,.76.76,0,0,1,1.52,0Z"/>
        <path class="cls-11" d="M267.08,245.16a.74.74,0,0,1-.75.75.75.75,0,0,1-.76-.75.76.76,0,0,1,.76-.76A.75.75,0,0,1,267.08,245.16Z"/>
        <path class="cls-11" d="M268.76,252.69a.76.76,0,1,1-.76-.76A.76.76,0,0,1,268.76,252.69Z"/>
        <path class="cls-11" d="M270.43,250.18a.76.76,0,1,1-.76-.76A.76.76,0,0,1,270.43,250.18Z"/>
        <path class="cls-11" d="M267.08,250.18a.75.75,0,0,1-.75.76.76.76,0,0,1,0-1.52A.75.75,0,0,1,267.08,250.18Z"/>
        <path class="cls-11" d="M267.08,230.09a.75.75,0,0,1-.75.76.76.76,0,0,1,0-1.52A.75.75,0,0,1,267.08,230.09Z"/>
        <path class="cls-11" d="M263.74,230.09a.76.76,0,1,1-.76-.76A.76.76,0,0,1,263.74,230.09Z"/>
        <path class="cls-11" d="M267.08,235.11a.75.75,0,0,1-.75.76.76.76,0,0,1,0-1.52A.75.75,0,0,1,267.08,235.11Z"/>
        <path class="cls-11" d="M263.74,235.11a.76.76,0,1,1-.76-.76A.76.76,0,0,1,263.74,235.11Z"/>
        <path class="cls-11" d="M265.41,232.6a.76.76,0,1,1-.76-.76A.76.76,0,0,1,265.41,232.6Z"/>
        <path class="cls-11" d="M267.08,230.09a.75.75,0,0,1-.75.76.76.76,0,0,1,0-1.52A.75.75,0,0,1,267.08,230.09Z"/>
        <path class="cls-11" d="M263.74,230.09a.76.76,0,1,1-.76-.76A.76.76,0,0,1,263.74,230.09Z"/>
        <path class="cls-11" d="M267.08,240.14a.75.75,0,0,1-.75.75.76.76,0,1,1,0-1.51A.75.75,0,0,1,267.08,240.14Z"/>
        <path class="cls-11" d="M263.74,240.14a.76.76,0,1,1-.76-.76A.76.76,0,0,1,263.74,240.14Z"/>
        <path class="cls-11" d="M265.41,237.62a.76.76,0,1,1-.76-.76A.76.76,0,0,1,265.41,237.62Z"/>
        <path class="cls-11" d="M267.08,235.11a.75.75,0,0,1-.75.76.76.76,0,0,1,0-1.52A.75.75,0,0,1,267.08,235.11Z"/>
        <path class="cls-11" d="M263.74,235.11a.76.76,0,1,1-.76-.76A.76.76,0,0,1,263.74,235.11Z"/>
        <path class="cls-11" d="M267.08,245.16a.74.74,0,0,1-.75.75.75.75,0,0,1-.76-.75.76.76,0,0,1,.76-.76A.75.75,0,0,1,267.08,245.16Z"/>
        <path class="cls-11" d="M263.74,245.16a.76.76,0,0,1-1.52,0,.76.76,0,1,1,1.52,0Z"/>
        <path class="cls-11" d="M267.08,240.14a.75.75,0,0,1-.75.75.76.76,0,1,1,0-1.51A.75.75,0,0,1,267.08,240.14Z"/>
        <path class="cls-11" d="M263.74,240.14a.76.76,0,1,1-.76-.76A.76.76,0,0,1,263.74,240.14Z"/>
        <path class="cls-11" d="M267.08,250.18a.75.75,0,0,1-.75.76.76.76,0,0,1,0-1.52A.75.75,0,0,1,267.08,250.18Z"/>
        <path class="cls-11" d="M263.74,250.18a.76.76,0,1,1-.76-.76A.76.76,0,0,1,263.74,250.18Z"/>
        <path class="cls-11" d="M265.41,247.67a.76.76,0,0,1-1.52,0,.76.76,0,0,1,1.52,0Z"/>
        <path class="cls-11" d="M267.08,245.16a.74.74,0,0,1-.75.75.75.75,0,0,1-.76-.75.76.76,0,0,1,.76-.76A.75.75,0,0,1,267.08,245.16Z"/>
        <path class="cls-11" d="M263.74,245.16a.76.76,0,0,1-1.52,0,.76.76,0,1,1,1.52,0Z"/>
        <path class="cls-11" d="M263.74,255.2a.76.76,0,1,1-.76-.76A.76.76,0,0,1,263.74,255.2Z"/>
        <path class="cls-11" d="M265.41,252.69a.76.76,0,1,1-.76-.76A.76.76,0,0,1,265.41,252.69Z"/>
        <path class="cls-11" d="M267.08,250.18a.75.75,0,0,1-.75.76.76.76,0,0,1,0-1.52A.75.75,0,0,1,267.08,250.18Z"/>
        <path class="cls-11" d="M263.74,250.18a.76.76,0,1,1-.76-.76A.76.76,0,0,1,263.74,250.18Z"/>
        <path class="cls-11" d="M263.74,255.2a.76.76,0,1,1-.76-.76A.76.76,0,0,1,263.74,255.2Z"/>
        <path class="cls-11" d="M260.39,225.07a.76.76,0,1,1-.76-.76A.76.76,0,0,1,260.39,225.07Z"/>
        <path class="cls-11" d="M263.74,230.09a.76.76,0,1,1-.76-.76A.76.76,0,0,1,263.74,230.09Z"/>
        <path class="cls-11" d="M260.39,230.09a.76.76,0,1,1-.76-.76A.76.76,0,0,1,260.39,230.09Z"/>
        <path class="cls-11" d="M262.06,227.58a.76.76,0,1,1-.76-.76A.76.76,0,0,1,262.06,227.58Z"/>
        <path class="cls-11" d="M260.39,225.07a.76.76,0,1,1-.76-.76A.76.76,0,0,1,260.39,225.07Z"/>
        <path class="cls-11" d="M263.74,235.11a.76.76,0,1,1-.76-.76A.76.76,0,0,1,263.74,235.11Z"/>
        <path class="cls-11" d="M260.39,235.11a.76.76,0,1,1-.76-.76A.76.76,0,0,1,260.39,235.11Z"/>
        <path class="cls-11" d="M262.06,232.6a.76.76,0,1,1-.76-.76A.76.76,0,0,1,262.06,232.6Z"/>
        <path class="cls-11" d="M263.74,230.09a.76.76,0,1,1-.76-.76A.76.76,0,0,1,263.74,230.09Z"/>
        <path class="cls-11" d="M260.39,230.09a.76.76,0,1,1-.76-.76A.76.76,0,0,1,260.39,230.09Z"/>
        <path class="cls-11" d="M263.74,240.14a.76.76,0,1,1-.76-.76A.76.76,0,0,1,263.74,240.14Z"/>
        <path class="cls-11" d="M260.39,240.14a.76.76,0,1,1-.76-.76A.76.76,0,0,1,260.39,240.14Z"/>
        <path class="cls-11" d="M262.06,237.62a.76.76,0,1,1-.76-.76A.76.76,0,0,1,262.06,237.62Z"/>
        <path class="cls-11" d="M263.74,235.11a.76.76,0,1,1-.76-.76A.76.76,0,0,1,263.74,235.11Z"/>
        <path class="cls-11" d="M260.39,235.11a.76.76,0,1,1-.76-.76A.76.76,0,0,1,260.39,235.11Z"/>
        <path class="cls-11" d="M263.74,245.16a.76.76,0,0,1-1.52,0,.76.76,0,1,1,1.52,0Z"/>
        <path class="cls-11" d="M260.39,245.16a.76.76,0,0,1-1.52,0,.76.76,0,1,1,1.52,0Z"/>
        <path class="cls-11" d="M263.74,240.14a.76.76,0,1,1-.76-.76A.76.76,0,0,1,263.74,240.14Z"/>
        <path class="cls-11" d="M260.39,240.14a.76.76,0,1,1-.76-.76A.76.76,0,0,1,260.39,240.14Z"/>
        <path class="cls-11" d="M263.74,250.18a.76.76,0,1,1-.76-.76A.76.76,0,0,1,263.74,250.18Z"/>
        <path class="cls-11" d="M260.39,250.18a.76.76,0,1,1-.76-.76A.76.76,0,0,1,260.39,250.18Z"/>
        <path class="cls-11" d="M262.06,247.67a.76.76,0,0,1-1.52,0,.76.76,0,0,1,1.52,0Z"/>
        <path class="cls-11" d="M263.74,245.16a.76.76,0,0,1-1.52,0,.76.76,0,1,1,1.52,0Z"/>
        <path class="cls-11" d="M260.39,245.16a.76.76,0,0,1-1.52,0,.76.76,0,1,1,1.52,0Z"/>
        <path class="cls-11" d="M263.74,255.2a.76.76,0,1,1-.76-.76A.76.76,0,0,1,263.74,255.2Z"/>
        <path class="cls-11" d="M260.39,255.2a.76.76,0,1,1-.76-.76A.76.76,0,0,1,260.39,255.2Z"/>
        <path class="cls-11" d="M262.06,252.69a.76.76,0,1,1-.76-.76A.76.76,0,0,1,262.06,252.69Z"/>
        <path class="cls-11" d="M263.74,250.18a.76.76,0,1,1-.76-.76A.76.76,0,0,1,263.74,250.18Z"/>
        <path class="cls-11" d="M260.39,250.18a.76.76,0,1,1-.76-.76A.76.76,0,0,1,260.39,250.18Z"/>
        <path class="cls-11" d="M263.74,255.2a.76.76,0,1,1-.76-.76A.76.76,0,0,1,263.74,255.2Z"/>
        <path class="cls-11" d="M260.39,255.2a.76.76,0,1,1-.76-.76A.76.76,0,0,1,260.39,255.2Z"/>
        <path class="cls-11" d="M260.39,225.07a.76.76,0,1,1-.76-.76A.76.76,0,0,1,260.39,225.07Z"/>
        <path class="cls-11" d="M257,225.07a.76.76,0,1,1-.76-.76A.76.76,0,0,1,257,225.07Z"/>
        <path class="cls-11" d="M260.39,230.09a.76.76,0,1,1-.76-.76A.76.76,0,0,1,260.39,230.09Z"/>
        <path class="cls-11" d="M257,230.09a.76.76,0,1,1-.76-.76A.76.76,0,0,1,257,230.09Z"/>
        <path class="cls-11" d="M258.71,227.58a.75.75,0,0,1-.75.76.76.76,0,0,1,0-1.52A.75.75,0,0,1,258.71,227.58Z"/>
        <path class="cls-11" d="M260.39,225.07a.76.76,0,1,1-.76-.76A.76.76,0,0,1,260.39,225.07Z"/>
        <path class="cls-11" d="M257,225.07a.76.76,0,1,1-.76-.76A.76.76,0,0,1,257,225.07Z"/>
        <path class="cls-11" d="M260.39,235.11a.76.76,0,1,1-.76-.76A.76.76,0,0,1,260.39,235.11Z"/>
        <path class="cls-11" d="M257,235.11a.76.76,0,1,1-.76-.76A.76.76,0,0,1,257,235.11Z"/>
        <path class="cls-11" d="M258.71,232.6a.75.75,0,0,1-.75.76.76.76,0,0,1,0-1.52A.75.75,0,0,1,258.71,232.6Z"/>
        <path class="cls-11" d="M260.39,230.09a.76.76,0,1,1-.76-.76A.76.76,0,0,1,260.39,230.09Z"/>
        <path class="cls-11" d="M257,230.09a.76.76,0,1,1-.76-.76A.76.76,0,0,1,257,230.09Z"/>
        <path class="cls-11" d="M260.39,240.14a.76.76,0,1,1-.76-.76A.76.76,0,0,1,260.39,240.14Z"/>
        <path class="cls-11" d="M258.71,237.62a.75.75,0,0,1-.75.76.76.76,0,0,1,0-1.52A.75.75,0,0,1,258.71,237.62Z"/>
        <path class="cls-11" d="M260.39,235.11a.76.76,0,1,1-.76-.76A.76.76,0,0,1,260.39,235.11Z"/>
        <path class="cls-11" d="M257,235.11a.76.76,0,1,1-.76-.76A.76.76,0,0,1,257,235.11Z"/>
        <path class="cls-11" d="M260.39,245.16a.76.76,0,0,1-1.52,0,.76.76,0,1,1,1.52,0Z"/>
        <path class="cls-11" d="M257,245.16a.76.76,0,0,1-1.52,0,.76.76,0,0,1,1.52,0Z"/>
        <path class="cls-11" d="M260.39,240.14a.76.76,0,1,1-.76-.76A.76.76,0,0,1,260.39,240.14Z"/>
        <path class="cls-11" d="M260.39,250.18a.76.76,0,1,1-.76-.76A.76.76,0,0,1,260.39,250.18Z"/>
        <path class="cls-11" d="M257,250.18a.76.76,0,1,1-.76-.76A.76.76,0,0,1,257,250.18Z"/>
        <path class="cls-11" d="M258.71,247.67a.74.74,0,0,1-.75.75.75.75,0,0,1-.76-.75.76.76,0,0,1,.76-.76A.75.75,0,0,1,258.71,247.67Z"/>
        <path class="cls-11" d="M260.39,245.16a.76.76,0,0,1-1.52,0,.76.76,0,1,1,1.52,0Z"/>
        <path class="cls-11" d="M257,245.16a.76.76,0,0,1-1.52,0,.76.76,0,0,1,1.52,0Z"/>
        <path class="cls-11" d="M260.39,255.2a.76.76,0,1,1-.76-.76A.76.76,0,0,1,260.39,255.2Z"/>
        <path class="cls-11" d="M257,255.2a.76.76,0,1,1-.76-.76A.76.76,0,0,1,257,255.2Z"/>
        <path class="cls-11" d="M258.71,252.69a.75.75,0,0,1-.75.76.76.76,0,0,1,0-1.52A.75.75,0,0,1,258.71,252.69Z"/>
        <path class="cls-11" d="M260.39,250.18a.76.76,0,1,1-.76-.76A.76.76,0,0,1,260.39,250.18Z"/>
        <path class="cls-11" d="M257,250.18a.76.76,0,1,1-.76-.76A.76.76,0,0,1,257,250.18Z"/>
        <path class="cls-11" d="M260.39,255.2a.76.76,0,1,1-.76-.76A.76.76,0,0,1,260.39,255.2Z"/>
        <path class="cls-11" d="M257,255.2a.76.76,0,1,1-.76-.76A.76.76,0,0,1,257,255.2Z"/>
        <path class="cls-11" d="M257,225.07a.76.76,0,1,1-.76-.76A.76.76,0,0,1,257,225.07Z"/>
        <path class="cls-11" d="M253.69,225.07a.76.76,0,1,1-.76-.76A.76.76,0,0,1,253.69,225.07Z"/>
        <path class="cls-11" d="M255.37,222.56a.76.76,0,0,1-1.52,0,.76.76,0,1,1,1.52,0Z"/>
        <path class="cls-11" d="M257,230.09a.76.76,0,1,1-.76-.76A.76.76,0,0,1,257,230.09Z"/>
        <path class="cls-11" d="M253.69,230.09a.76.76,0,1,1-.76-.76A.76.76,0,0,1,253.69,230.09Z"/>
        <path class="cls-11" d="M255.37,227.58a.76.76,0,1,1-.76-.76A.76.76,0,0,1,255.37,227.58Z"/>
        <path class="cls-11" d="M257,225.07a.76.76,0,1,1-.76-.76A.76.76,0,0,1,257,225.07Z"/>
        <path class="cls-11" d="M253.69,225.07a.76.76,0,1,1-.76-.76A.76.76,0,0,1,253.69,225.07Z"/>
        <path class="cls-11" d="M257,235.11a.76.76,0,1,1-.76-.76A.76.76,0,0,1,257,235.11Z"/>
        <path class="cls-11" d="M253.69,235.11a.76.76,0,1,1-.76-.76A.76.76,0,0,1,253.69,235.11Z"/>
        <path class="cls-11" d="M255.37,232.6a.76.76,0,1,1-.76-.76A.76.76,0,0,1,255.37,232.6Z"/>
        <path class="cls-11" d="M257,230.09a.76.76,0,1,1-.76-.76A.76.76,0,0,1,257,230.09Z"/>
        <path class="cls-11" d="M253.69,230.09a.76.76,0,1,1-.76-.76A.76.76,0,0,1,253.69,230.09Z"/>
        <path class="cls-11" d="M257,235.11a.76.76,0,1,1-.76-.76A.76.76,0,0,1,257,235.11Z"/>
        <path class="cls-11" d="M253.69,235.11a.76.76,0,1,1-.76-.76A.76.76,0,0,1,253.69,235.11Z"/>
        <path class="cls-11" d="M257,245.16a.76.76,0,0,1-1.52,0,.76.76,0,0,1,1.52,0Z"/>
        <path class="cls-11" d="M253.69,245.16a.76.76,0,0,1-1.52,0,.76.76,0,0,1,1.52,0Z"/>
        <path class="cls-11" d="M257,250.18a.76.76,0,1,1-.76-.76A.76.76,0,0,1,257,250.18Z"/>
        <path class="cls-11" d="M253.69,250.18a.76.76,0,1,1-.76-.76A.76.76,0,0,1,253.69,250.18Z"/>
        <path class="cls-11" d="M255.37,247.67a.76.76,0,0,1-1.52,0,.76.76,0,0,1,1.52,0Z"/>
        <path class="cls-11" d="M257,245.16a.76.76,0,0,1-1.52,0,.76.76,0,0,1,1.52,0Z"/>
        <path class="cls-11" d="M253.69,245.16a.76.76,0,0,1-1.52,0,.76.76,0,0,1,1.52,0Z"/>
        <path class="cls-11" d="M257,255.2a.76.76,0,1,1-.76-.76A.76.76,0,0,1,257,255.2Z"/>
        <path class="cls-11" d="M253.69,255.2a.76.76,0,1,1-.76-.76A.76.76,0,0,1,253.69,255.2Z"/>
        <path class="cls-11" d="M255.37,252.69a.76.76,0,1,1-.76-.76A.76.76,0,0,1,255.37,252.69Z"/>
        <path class="cls-11" d="M257,250.18a.76.76,0,1,1-.76-.76A.76.76,0,0,1,257,250.18Z"/>
        <path class="cls-11" d="M253.69,250.18a.76.76,0,1,1-.76-.76A.76.76,0,0,1,253.69,250.18Z"/>
        <path class="cls-11" d="M257,255.2a.76.76,0,1,1-.76-.76A.76.76,0,0,1,257,255.2Z"/>
        <path class="cls-11" d="M253.69,255.2a.76.76,0,1,1-.76-.76A.76.76,0,0,1,253.69,255.2Z"/>
        <path class="cls-11" d="M250.34,220a.76.76,0,1,1-.76-.75A.75.75,0,0,1,250.34,220Z"/>
        <path class="cls-11" d="M253.69,225.07a.76.76,0,1,1-.76-.76A.76.76,0,0,1,253.69,225.07Z"/>
        <path class="cls-11" d="M250.34,225.07a.76.76,0,1,1-.76-.76A.76.76,0,0,1,250.34,225.07Z"/>
        <path class="cls-11" d="M252,222.56a.76.76,0,0,1-1.52,0,.76.76,0,1,1,1.52,0Z"/>
        <path class="cls-11" d="M250.34,220a.76.76,0,1,1-.76-.75A.75.75,0,0,1,250.34,220Z"/>
        <path class="cls-11" d="M253.69,230.09a.76.76,0,1,1-.76-.76A.76.76,0,0,1,253.69,230.09Z"/>
        <path class="cls-11" d="M250.34,230.09a.76.76,0,1,1-.76-.76A.76.76,0,0,1,250.34,230.09Z"/>
        <path class="cls-11" d="M252,227.58a.76.76,0,1,1-.76-.76A.76.76,0,0,1,252,227.58Z"/>
        <path class="cls-11" d="M253.69,225.07a.76.76,0,1,1-.76-.76A.76.76,0,0,1,253.69,225.07Z"/>
        <path class="cls-11" d="M250.34,225.07a.76.76,0,1,1-.76-.76A.76.76,0,0,1,250.34,225.07Z"/>
        <path class="cls-11" d="M253.69,235.11a.76.76,0,1,1-.76-.76A.76.76,0,0,1,253.69,235.11Z"/>
        <path class="cls-11" d="M252,232.6a.76.76,0,1,1-.76-.76A.76.76,0,0,1,252,232.6Z"/>
        <path class="cls-11" d="M253.69,230.09a.76.76,0,1,1-.76-.76A.76.76,0,0,1,253.69,230.09Z"/>
        <path class="cls-11" d="M250.34,230.09a.76.76,0,1,1-.76-.76A.76.76,0,0,1,250.34,230.09Z"/>
        <path class="cls-11" d="M253.69,235.11a.76.76,0,1,1-.76-.76A.76.76,0,0,1,253.69,235.11Z"/>
        <path class="cls-11" d="M253.69,245.16a.76.76,0,0,1-1.52,0,.76.76,0,0,1,1.52,0Z"/>
        <path class="cls-11" d="M250.34,245.16a.76.76,0,1,1-.76-.76A.76.76,0,0,1,250.34,245.16Z"/>
        <path class="cls-11" d="M253.69,250.18a.76.76,0,1,1-.76-.76A.76.76,0,0,1,253.69,250.18Z"/>
        <path class="cls-11" d="M250.34,250.18a.76.76,0,1,1-.76-.76A.76.76,0,0,1,250.34,250.18Z"/>
        <path class="cls-11" d="M252,247.67a.76.76,0,0,1-1.52,0,.76.76,0,1,1,1.52,0Z"/>
        <path class="cls-11" d="M253.69,245.16a.76.76,0,0,1-1.52,0,.76.76,0,0,1,1.52,0Z"/>
        <path class="cls-11" d="M250.34,245.16a.76.76,0,1,1-.76-.76A.76.76,0,0,1,250.34,245.16Z"/>
        <path class="cls-11" d="M253.69,255.2a.76.76,0,1,1-.76-.76A.76.76,0,0,1,253.69,255.2Z"/>
        <path class="cls-11" d="M250.34,255.2a.76.76,0,1,1-.76-.76A.76.76,0,0,1,250.34,255.2Z"/>
        <path class="cls-11" d="M252,252.69a.76.76,0,1,1-.76-.76A.76.76,0,0,1,252,252.69Z"/>
        <path class="cls-11" d="M253.69,250.18a.76.76,0,1,1-.76-.76A.76.76,0,0,1,253.69,250.18Z"/>
        <path class="cls-11" d="M250.34,250.18a.76.76,0,1,1-.76-.76A.76.76,0,0,1,250.34,250.18Z"/>
        <path class="cls-11" d="M253.69,255.2a.76.76,0,1,1-.76-.76A.76.76,0,0,1,253.69,255.2Z"/>
        <path class="cls-11" d="M250.34,255.2a.76.76,0,1,1-.76-.76A.76.76,0,0,1,250.34,255.2Z"/>
        <path class="cls-11" d="M250.34,220a.76.76,0,1,1-.76-.75A.75.75,0,0,1,250.34,220Z"/>
        <path class="cls-11" d="M247,220a.76.76,0,1,1-.76-.75A.75.75,0,0,1,247,220Z"/>
        <path class="cls-11" d="M250.34,225.07a.76.76,0,1,1-.76-.76A.76.76,0,0,1,250.34,225.07Z"/>
        <path class="cls-11" d="M247,225.07a.76.76,0,1,1-.76-.76A.76.76,0,0,1,247,225.07Z"/>
        <path class="cls-11" d="M248.67,222.56a.76.76,0,0,1-1.52,0,.76.76,0,0,1,1.52,0Z"/>
        <path class="cls-11" d="M250.34,220a.76.76,0,1,1-.76-.75A.75.75,0,0,1,250.34,220Z"/>
        <path class="cls-11" d="M247,220a.76.76,0,1,1-.76-.75A.75.75,0,0,1,247,220Z"/>
        <path class="cls-11" d="M250.34,230.09a.76.76,0,1,1-.76-.76A.76.76,0,0,1,250.34,230.09Z"/>
        <path class="cls-11" d="M248.67,227.58a.76.76,0,1,1-.76-.76A.76.76,0,0,1,248.67,227.58Z"/>
        <path class="cls-11" d="M250.34,225.07a.76.76,0,1,1-.76-.76A.76.76,0,0,1,250.34,225.07Z"/>
        <path class="cls-11" d="M247,225.07a.76.76,0,1,1-.76-.76A.76.76,0,0,1,247,225.07Z"/>
        <path class="cls-11" d="M250.34,230.09a.76.76,0,1,1-.76-.76A.76.76,0,0,1,250.34,230.09Z"/>
        <path class="cls-11" d="M247,240.14a.76.76,0,1,1-.76-.76A.76.76,0,0,1,247,240.14Z"/>
        <path class="cls-11" d="M250.34,245.16a.76.76,0,1,1-.76-.76A.76.76,0,0,1,250.34,245.16Z"/>
        <path class="cls-11" d="M247,245.16a.76.76,0,0,1-1.52,0,.76.76,0,1,1,1.52,0Z"/>
        <path class="cls-11" d="M248.67,242.65a.76.76,0,1,1-.76-.76A.76.76,0,0,1,248.67,242.65Z"/>
        <path class="cls-11" d="M247,240.14a.76.76,0,1,1-.76-.76A.76.76,0,0,1,247,240.14Z"/>
        <path class="cls-11" d="M250.34,250.18a.76.76,0,1,1-.76-.76A.76.76,0,0,1,250.34,250.18Z"/>
        <path class="cls-11" d="M247,250.18a.76.76,0,1,1-.76-.76A.76.76,0,0,1,247,250.18Z"/>
        <path class="cls-11" d="M248.67,247.67a.76.76,0,0,1-1.52,0,.76.76,0,0,1,1.52,0Z"/>
        <path class="cls-11" d="M250.34,245.16a.76.76,0,1,1-.76-.76A.76.76,0,0,1,250.34,245.16Z"/>
        <path class="cls-11" d="M247,245.16a.76.76,0,0,1-1.52,0,.76.76,0,1,1,1.52,0Z"/>
        <path class="cls-11" d="M250.34,255.2a.76.76,0,1,1-.76-.76A.76.76,0,0,1,250.34,255.2Z"/>
        <path class="cls-11" d="M247,255.2a.76.76,0,1,1-.76-.76A.76.76,0,0,1,247,255.2Z"/>
        <path class="cls-11" d="M248.67,252.69a.76.76,0,1,1-.76-.76A.76.76,0,0,1,248.67,252.69Z"/>
        <path class="cls-11" d="M250.34,250.18a.76.76,0,1,1-.76-.76A.76.76,0,0,1,250.34,250.18Z"/>
        <path class="cls-11" d="M247,250.18a.76.76,0,1,1-.76-.76A.76.76,0,0,1,247,250.18Z"/>
        <path class="cls-11" d="M250.34,255.2a.76.76,0,1,1-.76-.76A.76.76,0,0,1,250.34,255.2Z"/>
        <path class="cls-11" d="M247,255.2a.76.76,0,1,1-.76-.76A.76.76,0,0,1,247,255.2Z"/>
        <path class="cls-11" d="M247,220a.76.76,0,1,1-.76-.75A.75.75,0,0,1,247,220Z"/>
        <path class="cls-11" d="M243.65,220a.76.76,0,1,1-.76-.75A.75.75,0,0,1,243.65,220Z"/>
        <path class="cls-11" d="M247,225.07a.76.76,0,1,1-.76-.76A.76.76,0,0,1,247,225.07Z"/>
        <path class="cls-11" d="M243.65,225.07a.76.76,0,1,1-.76-.76A.76.76,0,0,1,243.65,225.07Z"/>
        <path class="cls-11" d="M245.32,222.56a.76.76,0,0,1-1.52,0,.76.76,0,1,1,1.52,0Z"/>
        <path class="cls-11" d="M247,220a.76.76,0,1,1-.76-.75A.75.75,0,0,1,247,220Z"/>
        <path class="cls-11" d="M243.65,220a.76.76,0,1,1-.76-.75A.75.75,0,0,1,243.65,220Z"/>
        <path class="cls-11" d="M245.32,227.58a.76.76,0,1,1-.75-.76A.76.76,0,0,1,245.32,227.58Z"/>
        <path class="cls-11" d="M247,225.07a.76.76,0,1,1-.76-.76A.76.76,0,0,1,247,225.07Z"/>
        <path class="cls-11" d="M243.65,225.07a.76.76,0,1,1-.76-.76A.76.76,0,0,1,243.65,225.07Z"/>
        <path class="cls-11" d="M247,240.14a.76.76,0,1,1-.76-.76A.76.76,0,0,1,247,240.14Z"/>
        <path class="cls-11" d="M243.65,240.14a.76.76,0,1,1-.76-.76A.76.76,0,0,1,243.65,240.14Z"/>
        <path class="cls-11" d="M247,245.16a.76.76,0,0,1-1.52,0,.76.76,0,1,1,1.52,0Z"/>
        <path class="cls-11" d="M243.65,245.16a.76.76,0,0,1-1.52,0,.76.76,0,1,1,1.52,0Z"/>
        <path class="cls-11" d="M245.32,242.65a.76.76,0,1,1-.75-.76A.76.76,0,0,1,245.32,242.65Z"/>
        <path class="cls-11" d="M247,240.14a.76.76,0,1,1-.76-.76A.76.76,0,0,1,247,240.14Z"/>
        <path class="cls-11" d="M243.65,240.14a.76.76,0,1,1-.76-.76A.76.76,0,0,1,243.65,240.14Z"/>
        <path class="cls-11" d="M247,250.18a.76.76,0,1,1-.76-.76A.76.76,0,0,1,247,250.18Z"/>
        <path class="cls-11" d="M243.65,250.18a.76.76,0,1,1-.76-.76A.76.76,0,0,1,243.65,250.18Z"/>
        <path class="cls-11" d="M245.32,247.67a.76.76,0,0,1-1.52,0,.76.76,0,1,1,1.52,0Z"/>
        <path class="cls-11" d="M247,245.16a.76.76,0,0,1-1.52,0,.76.76,0,1,1,1.52,0Z"/>
        <path class="cls-11" d="M243.65,245.16a.76.76,0,0,1-1.52,0,.76.76,0,1,1,1.52,0Z"/>
        <path class="cls-11" d="M247,255.2a.76.76,0,1,1-.76-.76A.76.76,0,0,1,247,255.2Z"/>
        <path class="cls-11" d="M245.32,252.69a.76.76,0,1,1-.75-.76A.76.76,0,0,1,245.32,252.69Z"/>
        <path class="cls-11" d="M247,250.18a.76.76,0,1,1-.76-.76A.76.76,0,0,1,247,250.18Z"/>
        <path class="cls-11" d="M243.65,250.18a.76.76,0,1,1-.76-.76A.76.76,0,0,1,243.65,250.18Z"/>
        <path class="cls-11" d="M247,255.2a.76.76,0,1,1-.76-.76A.76.76,0,0,1,247,255.2Z"/>
        <path class="cls-11" d="M243.65,220a.76.76,0,1,1-.76-.75A.75.75,0,0,1,243.65,220Z"/>
        <path class="cls-11" d="M240.3,220a.76.76,0,1,1-.76-.75A.75.75,0,0,1,240.3,220Z"/>
        <path class="cls-11" d="M243.65,225.07a.76.76,0,1,1-.76-.76A.76.76,0,0,1,243.65,225.07Z"/>
        <path class="cls-11" d="M240.3,225.07a.76.76,0,1,1-.76-.76A.76.76,0,0,1,240.3,225.07Z"/>
        <path class="cls-11" d="M242,222.56a.76.76,0,1,1-.76-.76A.76.76,0,0,1,242,222.56Z"/>
        <path class="cls-11" d="M243.65,220a.76.76,0,1,1-.76-.75A.75.75,0,0,1,243.65,220Z"/>
        <path class="cls-11" d="M240.3,220a.76.76,0,1,1-.76-.75A.75.75,0,0,1,240.3,220Z"/>
        <path class="cls-11" d="M240.3,230.09a.76.76,0,1,1-.76-.76A.76.76,0,0,1,240.3,230.09Z"/>
        <path class="cls-11" d="M242,227.58a.76.76,0,1,1-.76-.76A.76.76,0,0,1,242,227.58Z"/>
        <path class="cls-11" d="M243.65,225.07a.76.76,0,1,1-.76-.76A.76.76,0,0,1,243.65,225.07Z"/>
        <path class="cls-11" d="M240.3,225.07a.76.76,0,1,1-.76-.76A.76.76,0,0,1,240.3,225.07Z"/>
        <path class="cls-11" d="M240.3,235.11a.76.76,0,1,1-.76-.76A.76.76,0,0,1,240.3,235.11Z"/>
        <path class="cls-11" d="M240.3,230.09a.76.76,0,1,1-.76-.76A.76.76,0,0,1,240.3,230.09Z"/>
        <path class="cls-11" d="M243.65,240.14a.76.76,0,1,1-.76-.76A.76.76,0,0,1,243.65,240.14Z"/>
        <path class="cls-11" d="M240.3,240.14a.76.76,0,1,1-.76-.76A.76.76,0,0,1,240.3,240.14Z"/>
        <path class="cls-11" d="M242,237.62a.76.76,0,1,1-.76-.76A.76.76,0,0,1,242,237.62Z"/>
        <path class="cls-11" d="M240.3,235.11a.76.76,0,1,1-.76-.76A.76.76,0,0,1,240.3,235.11Z"/>
        <path class="cls-11" d="M243.65,245.16a.76.76,0,0,1-1.52,0,.76.76,0,1,1,1.52,0Z"/>
        <path class="cls-11" d="M240.3,245.16a.76.76,0,0,1-1.52,0,.76.76,0,1,1,1.52,0Z"/>
        <path class="cls-11" d="M242,242.65a.76.76,0,1,1-.76-.76A.76.76,0,0,1,242,242.65Z"/>
        <path class="cls-11" d="M243.65,240.14a.76.76,0,1,1-.76-.76A.76.76,0,0,1,243.65,240.14Z"/>
        <path class="cls-11" d="M240.3,240.14a.76.76,0,1,1-.76-.76A.76.76,0,0,1,240.3,240.14Z"/>
        <path class="cls-11" d="M243.65,250.18a.76.76,0,1,1-.76-.76A.76.76,0,0,1,243.65,250.18Z"/>
        <path class="cls-11" d="M240.3,250.18a.76.76,0,1,1-.76-.76A.76.76,0,0,1,240.3,250.18Z"/>
        <path class="cls-11" d="M242,247.67a.76.76,0,1,1-.76-.76A.76.76,0,0,1,242,247.67Z"/>
        <path class="cls-11" d="M243.65,245.16a.76.76,0,0,1-1.52,0,.76.76,0,1,1,1.52,0Z"/>
        <path class="cls-11" d="M240.3,245.16a.76.76,0,0,1-1.52,0,.76.76,0,1,1,1.52,0Z"/>
        <path class="cls-11" d="M242,252.69a.76.76,0,1,1-.76-.76A.76.76,0,0,1,242,252.69Z"/>
        <path class="cls-11" d="M243.65,250.18a.76.76,0,1,1-.76-.76A.76.76,0,0,1,243.65,250.18Z"/>
        <path class="cls-11" d="M240.3,250.18a.76.76,0,1,1-.76-.76A.76.76,0,0,1,240.3,250.18Z"/>
        <path class="cls-11" d="M240.3,220a.76.76,0,1,1-.76-.75A.75.75,0,0,1,240.3,220Z"/>
        <path class="cls-11" d="M237,220a.76.76,0,1,1-.76-.75A.75.75,0,0,1,237,220Z"/>
        <path class="cls-11" d="M240.3,225.07a.76.76,0,1,1-.76-.76A.76.76,0,0,1,240.3,225.07Z"/>
        <path class="cls-11" d="M237,225.07a.76.76,0,1,1-.76-.76A.76.76,0,0,1,237,225.07Z"/>
        <path class="cls-11" d="M238.63,222.56a.76.76,0,0,1-1.52,0,.76.76,0,0,1,1.52,0Z"/>
        <path class="cls-11" d="M240.3,220a.76.76,0,1,1-.76-.75A.75.75,0,0,1,240.3,220Z"/>
        <path class="cls-11" d="M237,220a.76.76,0,1,1-.76-.75A.75.75,0,0,1,237,220Z"/>
        <path class="cls-11" d="M240.3,230.09a.76.76,0,1,1-.76-.76A.76.76,0,0,1,240.3,230.09Z"/>
        <path class="cls-11" d="M237,230.09a.76.76,0,1,1-.76-.76A.76.76,0,0,1,237,230.09Z"/>
        <path class="cls-11" d="M238.63,227.58a.76.76,0,1,1-.76-.76A.76.76,0,0,1,238.63,227.58Z"/>
        <path class="cls-11" d="M240.3,225.07a.76.76,0,1,1-.76-.76A.76.76,0,0,1,240.3,225.07Z"/>
        <path class="cls-11" d="M237,225.07a.76.76,0,1,1-.76-.76A.76.76,0,0,1,237,225.07Z"/>
        <path class="cls-11" d="M240.3,235.11a.76.76,0,1,1-.76-.76A.76.76,0,0,1,240.3,235.11Z"/>
        <path class="cls-11" d="M237,235.11a.76.76,0,1,1-.76-.76A.76.76,0,0,1,237,235.11Z"/>
        <path class="cls-11" d="M238.63,232.6a.76.76,0,1,1-.76-.76A.76.76,0,0,1,238.63,232.6Z"/>
        <path class="cls-11" d="M240.3,230.09a.76.76,0,1,1-.76-.76A.76.76,0,0,1,240.3,230.09Z"/>
        <path class="cls-11" d="M237,230.09a.76.76,0,1,1-.76-.76A.76.76,0,0,1,237,230.09Z"/>
        <path class="cls-11" d="M240.3,240.14a.76.76,0,1,1-.76-.76A.76.76,0,0,1,240.3,240.14Z"/>
        <path class="cls-11" d="M237,240.14a.76.76,0,1,1-.76-.76A.76.76,0,0,1,237,240.14Z"/>
        <path class="cls-11" d="M238.63,237.62a.76.76,0,1,1-.76-.76A.76.76,0,0,1,238.63,237.62Z"/>
        <path class="cls-11" d="M240.3,235.11a.76.76,0,1,1-.76-.76A.76.76,0,0,1,240.3,235.11Z"/>
        <path class="cls-11" d="M237,235.11a.76.76,0,1,1-.76-.76A.76.76,0,0,1,237,235.11Z"/>
        <path class="cls-11" d="M240.3,245.16a.76.76,0,0,1-1.52,0,.76.76,0,1,1,1.52,0Z"/>
        <path class="cls-11" d="M237,245.16a.76.76,0,0,1-1.52,0,.76.76,0,0,1,1.52,0Z"/>
        <path class="cls-11" d="M238.63,242.65a.76.76,0,1,1-.76-.76A.76.76,0,0,1,238.63,242.65Z"/>
        <path class="cls-11" d="M240.3,240.14a.76.76,0,1,1-.76-.76A.76.76,0,0,1,240.3,240.14Z"/>
        <path class="cls-11" d="M237,240.14a.76.76,0,1,1-.76-.76A.76.76,0,0,1,237,240.14Z"/>
        <path class="cls-11" d="M240.3,250.18a.76.76,0,1,1-.76-.76A.76.76,0,0,1,240.3,250.18Z"/>
        <path class="cls-11" d="M237,250.18a.76.76,0,1,1-.76-.76A.76.76,0,0,1,237,250.18Z"/>
        <path class="cls-11" d="M238.63,247.67a.76.76,0,0,1-1.52,0,.76.76,0,1,1,1.52,0Z"/>
        <path class="cls-11" d="M240.3,245.16a.76.76,0,0,1-1.52,0,.76.76,0,1,1,1.52,0Z"/>
        <path class="cls-11" d="M237,245.16a.76.76,0,0,1-1.52,0,.76.76,0,0,1,1.52,0Z"/>
        <path class="cls-11" d="M238.63,252.69a.76.76,0,1,1-.76-.76A.76.76,0,0,1,238.63,252.69Z"/>
        <path class="cls-11" d="M240.3,250.18a.76.76,0,1,1-.76-.76A.76.76,0,0,1,240.3,250.18Z"/>
        <path class="cls-11" d="M237,250.18a.76.76,0,1,1-.76-.76A.76.76,0,0,1,237,250.18Z"/>
        <path class="cls-11" d="M237,220a.76.76,0,1,1-.76-.75A.75.75,0,0,1,237,220Z"/>
        <path class="cls-11" d="M237,225.07a.76.76,0,1,1-.76-.76A.76.76,0,0,1,237,225.07Z"/>
        <path class="cls-11" d="M233.6,225.07a.76.76,0,0,1-.76.76.76.76,0,0,1,0-1.52A.76.76,0,0,1,233.6,225.07Z"/>
        <path class="cls-11" d="M235.28,222.56a.76.76,0,0,1-1.52,0,.76.76,0,0,1,1.52,0Z"/>
        <path class="cls-11" d="M237,220a.76.76,0,1,1-.76-.75A.75.75,0,0,1,237,220Z"/>
        <path class="cls-11" d="M237,230.09a.76.76,0,1,1-.76-.76A.76.76,0,0,1,237,230.09Z"/>
        <path class="cls-11" d="M233.6,230.09a.76.76,0,0,1-.76.76.76.76,0,0,1,0-1.52A.76.76,0,0,1,233.6,230.09Z"/>
        <path class="cls-11" d="M235.28,227.58a.76.76,0,1,1-.76-.76A.76.76,0,0,1,235.28,227.58Z"/>
        <path class="cls-11" d="M237,225.07a.76.76,0,1,1-.76-.76A.76.76,0,0,1,237,225.07Z"/>
        <path class="cls-11" d="M233.6,225.07a.76.76,0,0,1-.76.76.76.76,0,0,1,0-1.52A.76.76,0,0,1,233.6,225.07Z"/>
        <path class="cls-11" d="M237,235.11a.76.76,0,1,1-.76-.76A.76.76,0,0,1,237,235.11Z"/>
        <path class="cls-11" d="M233.6,235.11a.76.76,0,0,1-.76.76.76.76,0,0,1,0-1.52A.76.76,0,0,1,233.6,235.11Z"/>
        <path class="cls-11" d="M235.28,232.6a.76.76,0,1,1-.76-.76A.76.76,0,0,1,235.28,232.6Z"/>
        <path class="cls-11" d="M237,230.09a.76.76,0,1,1-.76-.76A.76.76,0,0,1,237,230.09Z"/>
        <path class="cls-11" d="M233.6,230.09a.76.76,0,0,1-.76.76.76.76,0,0,1,0-1.52A.76.76,0,0,1,233.6,230.09Z"/>
        <path class="cls-11" d="M237,240.14a.76.76,0,1,1-.76-.76A.76.76,0,0,1,237,240.14Z"/>
        <path class="cls-11" d="M233.6,240.14a.76.76,0,0,1-.76.75.76.76,0,1,1,.76-.75Z"/>
        <path class="cls-11" d="M235.28,237.62a.76.76,0,1,1-.76-.76A.76.76,0,0,1,235.28,237.62Z"/>
        <path class="cls-11" d="M237,235.11a.76.76,0,1,1-.76-.76A.76.76,0,0,1,237,235.11Z"/>
        <path class="cls-11" d="M233.6,235.11a.76.76,0,0,1-.76.76.76.76,0,0,1,0-1.52A.76.76,0,0,1,233.6,235.11Z"/>
        <path class="cls-11" d="M237,245.16a.76.76,0,0,1-1.52,0,.76.76,0,0,1,1.52,0Z"/>
        <path class="cls-11" d="M233.6,245.16a.75.75,0,0,1-.76.75.74.74,0,0,1-.75-.75.75.75,0,0,1,.75-.76A.76.76,0,0,1,233.6,245.16Z"/>
        <path class="cls-11" d="M235.28,242.65a.76.76,0,1,1-.76-.76A.76.76,0,0,1,235.28,242.65Z"/>
        <path class="cls-11" d="M237,240.14a.76.76,0,1,1-.76-.76A.76.76,0,0,1,237,240.14Z"/>
        <path class="cls-11" d="M233.6,240.14a.76.76,0,0,1-.76.75.76.76,0,1,1,.76-.75Z"/>
        <path class="cls-11" d="M237,250.18a.76.76,0,1,1-.76-.76A.76.76,0,0,1,237,250.18Z"/>
        <path class="cls-11" d="M233.6,250.18a.76.76,0,0,1-.76.76.76.76,0,0,1,0-1.52A.76.76,0,0,1,233.6,250.18Z"/>
        <path class="cls-11" d="M235.28,247.67a.76.76,0,0,1-1.52,0,.76.76,0,0,1,1.52,0Z"/>
        <path class="cls-11" d="M237,245.16a.76.76,0,0,1-1.52,0,.76.76,0,0,1,1.52,0Z"/>
        <path class="cls-11" d="M233.6,245.16a.75.75,0,0,1-.76.75.74.74,0,0,1-.75-.75.75.75,0,0,1,.75-.76A.76.76,0,0,1,233.6,245.16Z"/>
        <path class="cls-11" d="M237,250.18a.76.76,0,1,1-.76-.76A.76.76,0,0,1,237,250.18Z"/>
        <path class="cls-11" d="M233.6,250.18a.76.76,0,0,1-.76.76.76.76,0,0,1,0-1.52A.76.76,0,0,1,233.6,250.18Z"/>
        <path class="cls-11" d="M233.6,225.07a.76.76,0,0,1-.76.76.76.76,0,0,1,0-1.52A.76.76,0,0,1,233.6,225.07Z"/>
        <path class="cls-11" d="M230.26,225.07a.76.76,0,1,1-.76-.76A.77.77,0,0,1,230.26,225.07Z"/>
        <path class="cls-11" d="M231.93,222.56a.76.76,0,0,1-1.52,0,.76.76,0,1,1,1.52,0Z"/>
        <path class="cls-11" d="M233.6,230.09a.76.76,0,0,1-.76.76.76.76,0,0,1,0-1.52A.76.76,0,0,1,233.6,230.09Z"/>
        <path class="cls-11" d="M230.26,230.09a.76.76,0,1,1-.76-.76A.77.77,0,0,1,230.26,230.09Z"/>
        <path class="cls-11" d="M231.93,227.58a.76.76,0,1,1-.76-.76A.76.76,0,0,1,231.93,227.58Z"/>
        <path class="cls-11" d="M233.6,225.07a.76.76,0,0,1-.76.76.76.76,0,0,1,0-1.52A.76.76,0,0,1,233.6,225.07Z"/>
        <path class="cls-11" d="M230.26,225.07a.76.76,0,1,1-.76-.76A.77.77,0,0,1,230.26,225.07Z"/>
        <path class="cls-11" d="M233.6,235.11a.76.76,0,0,1-.76.76.76.76,0,0,1,0-1.52A.76.76,0,0,1,233.6,235.11Z"/>
        <path class="cls-11" d="M230.26,235.11a.76.76,0,1,1-.76-.76A.77.77,0,0,1,230.26,235.11Z"/>
        <path class="cls-11" d="M231.93,232.6a.76.76,0,1,1-.76-.76A.76.76,0,0,1,231.93,232.6Z"/>
        <path class="cls-11" d="M233.6,230.09a.76.76,0,0,1-.76.76.76.76,0,0,1,0-1.52A.76.76,0,0,1,233.6,230.09Z"/>
        <path class="cls-11" d="M230.26,230.09a.76.76,0,1,1-.76-.76A.77.77,0,0,1,230.26,230.09Z"/>
        <path class="cls-11" d="M233.6,240.14a.76.76,0,0,1-.76.75.76.76,0,1,1,.76-.75Z"/>
        <path class="cls-11" d="M230.26,240.14a.76.76,0,0,1-1.52,0,.76.76,0,0,1,1.52,0Z"/>
        <path class="cls-11" d="M231.93,237.62a.76.76,0,1,1-.76-.76A.76.76,0,0,1,231.93,237.62Z"/>
        <path class="cls-11" d="M233.6,235.11a.76.76,0,0,1-.76.76.76.76,0,0,1,0-1.52A.76.76,0,0,1,233.6,235.11Z"/>
        <path class="cls-11" d="M230.26,235.11a.76.76,0,1,1-.76-.76A.77.77,0,0,1,230.26,235.11Z"/>
        <path class="cls-11" d="M233.6,245.16a.75.75,0,0,1-.76.75.74.74,0,0,1-.75-.75.75.75,0,0,1,.75-.76A.76.76,0,0,1,233.6,245.16Z"/>
        <path class="cls-11" d="M230.26,245.16a.76.76,0,1,1-.76-.76A.77.77,0,0,1,230.26,245.16Z"/>
        <path class="cls-11" d="M231.93,242.65a.76.76,0,1,1-.76-.76A.76.76,0,0,1,231.93,242.65Z"/>
        <path class="cls-11" d="M233.6,240.14a.76.76,0,0,1-.76.75.76.76,0,1,1,.76-.75Z"/>
        <path class="cls-11" d="M230.26,240.14a.76.76,0,0,1-1.52,0,.76.76,0,0,1,1.52,0Z"/>
        <path class="cls-11" d="M233.6,250.18a.76.76,0,0,1-.76.76.76.76,0,0,1,0-1.52A.76.76,0,0,1,233.6,250.18Z"/>
        <path class="cls-11" d="M231.93,247.67a.76.76,0,0,1-1.52,0,.76.76,0,1,1,1.52,0Z"/>
        <path class="cls-11" d="M233.6,245.16a.75.75,0,0,1-.76.75.74.74,0,0,1-.75-.75.75.75,0,0,1,.75-.76A.76.76,0,0,1,233.6,245.16Z"/>
        <path class="cls-11" d="M230.26,245.16a.76.76,0,1,1-.76-.76A.77.77,0,0,1,230.26,245.16Z"/>
        <path class="cls-11" d="M233.6,250.18a.76.76,0,0,1-.76.76.76.76,0,0,1,0-1.52A.76.76,0,0,1,233.6,250.18Z"/>
        <path class="cls-11" d="M230.26,225.07a.76.76,0,1,1-.76-.76A.77.77,0,0,1,230.26,225.07Z"/>
        <path class="cls-11" d="M230.26,230.09a.76.76,0,1,1-.76-.76A.77.77,0,0,1,230.26,230.09Z"/>
        <path class="cls-11" d="M230.26,225.07a.76.76,0,1,1-.76-.76A.77.77,0,0,1,230.26,225.07Z"/>
        <path class="cls-11" d="M228.58,227.58a.76.76,0,1,1-.76-.76A.76.76,0,0,1,228.58,227.58Z"/>
        <path class="cls-11" d="M230.26,235.11a.76.76,0,1,1-.76-.76A.77.77,0,0,1,230.26,235.11Z"/>
        <path class="cls-11" d="M226.91,235.11a.76.76,0,1,1-.76-.76A.76.76,0,0,1,226.91,235.11Z"/>
        <path class="cls-11" d="M228.58,232.6a.76.76,0,1,1-.76-.76A.76.76,0,0,1,228.58,232.6Z"/>
        <path class="cls-11" d="M230.26,230.09a.76.76,0,1,1-.76-.76A.77.77,0,0,1,230.26,230.09Z"/>
        <path class="cls-11" d="M230.26,240.14a.76.76,0,0,1-1.52,0,.76.76,0,0,1,1.52,0Z"/>
        <path class="cls-11" d="M226.91,240.14a.76.76,0,1,1-.76-.76A.76.76,0,0,1,226.91,240.14Z"/>
        <path class="cls-11" d="M228.58,237.62a.76.76,0,1,1-.76-.76A.76.76,0,0,1,228.58,237.62Z"/>
        <path class="cls-11" d="M230.26,235.11a.76.76,0,1,1-.76-.76A.77.77,0,0,1,230.26,235.11Z"/>
        <path class="cls-11" d="M226.91,235.11a.76.76,0,1,1-.76-.76A.76.76,0,0,1,226.91,235.11Z"/>
        <path class="cls-11" d="M230.26,245.16a.76.76,0,1,1-.76-.76A.77.77,0,0,1,230.26,245.16Z"/>
        <path class="cls-11" d="M228.58,242.65a.76.76,0,1,1-.76-.76A.76.76,0,0,1,228.58,242.65Z"/>
        <path class="cls-11" d="M230.26,240.14a.76.76,0,0,1-1.52,0,.76.76,0,0,1,1.52,0Z"/>
        <path class="cls-11" d="M226.91,240.14a.76.76,0,1,1-.76-.76A.76.76,0,0,1,226.91,240.14Z"/>
        <path class="cls-11" d="M230.26,245.16a.76.76,0,1,1-.76-.76A.77.77,0,0,1,230.26,245.16Z"/>
        <path class="cls-11" d="M226.91,235.11a.76.76,0,1,1-.76-.76A.76.76,0,0,1,226.91,235.11Z"/>
        <path class="cls-11" d="M226.91,240.14a.76.76,0,1,1-.76-.76A.76.76,0,0,1,226.91,240.14Z"/>
        <path class="cls-11" d="M226.91,235.11a.76.76,0,1,1-.76-.76A.76.76,0,0,1,226.91,235.11Z"/>
        <path class="cls-11" d="M226.91,240.14a.76.76,0,1,1-.76-.76A.76.76,0,0,1,226.91,240.14Z"/>
      </g>
      <path class="cls-4" d="M272.11,272.88l-29.25,12.38L210.4,255.37a136.35,136.35,0,0,1-.4-13.92,113.91,113.91,0,0,1,7.29-38.7,82.24,82.24,0,0,1,17-27.32,64.4,64.4,0,0,1,33.84-19,72.38,72.38,0,0,1,23.24-.85"/>
    </g>
    <line class="cls-4" x1="587.78" y1="545.88" x2="318.27" y2="545.88"/>
    <polyline class="cls-4" points="587.78 354.06 608.9 354.06 608.9 478.01"/>
    <line class="cls-4" x1="1074.48" y1="545.88" x2="1103.48" y2="545.88"/>
    <line class="cls-4" x1="1057.97" y1="532.59" x2="1068.48" y2="532.59"/>
    <line class="cls-4" x1="1066.47" y1="565.5" x2="1078.48" y2="565.5"/>
    <line class="cls-4" x1="1065.98" y1="572.89" x2="1103.48" y2="572.89"/>
    <line class="cls-4" x1="1168.48" y1="560.39" x2="1202.48" y2="560.39"/>
    <line class="cls-4" x1="1202.48" y1="570.39" x2="1185.48" y2="570.39"/>
    <line class="cls-4" x1="1066.47" y1="589.33" x2="1097.97" y2="589.33"/>
    <line class="cls-4" x1="1082.48" y1="598.14" x2="1104.98" y2="598.14"/>
    <line class="cls-4" x1="1202.48" y1="589.33" x2="1180.48" y2="589.33"/>
    <line class="cls-4" x1="1057.97" y1="623.89" x2="1095.98" y2="623.89"/>
    <line class="cls-4" x1="1193.98" y1="610.39" x2="1168.48" y2="610.39"/>
    <line class="cls-4" x1="1194.47" y1="622.14" x2="1168.48" y2="622.14"/>
    <line class="cls-4" x1="1070.47" y1="634.78" x2="1113.22" y2="634.78"/>
    <line class="cls-4" x1="1065.98" y1="651.39" x2="1078.48" y2="651.39"/>
    <line class="cls-4" x1="1202.48" y1="636.89" x2="1168.48" y2="636.89"/>
    <line class="cls-4" x1="1202.48" y1="643.63" x2="1180.48" y2="643.63"/>
    <line class="cls-4" x1="1202.48" y1="651.39" x2="1183.6" y2="651.39"/>
    <line class="cls-4" x1="1082.22" y1="661.39" x2="1091.85" y2="661.39"/>
    <line class="cls-4" x1="1082.48" y1="675.5" x2="1117.98" y2="675.5"/>
    <line class="cls-4" x1="1097.97" y1="701.5" x2="1115.97" y2="701.5"/>
    <g>
      <line class="cls-6" x1="956.65" y1="790.39" x2="977.68" y2="790.39"/>
      <line class="cls-6" x1="338.88" y1="790.39" x2="935.62" y2="790.39"/>
      <line class="cls-6" x1="233.73" y1="790.39" x2="320.19" y2="790.39"/>
    </g>
    <line class="Graphic-Style" x1="824.4" y1="302.48" x2="916.74" y2="302.48"/>
    <line class="Graphic-Style" x1="1012.18" y1="188.33" x2="1174.89" y2="188.33"/>
    <line class="Graphic-Style" x1="616.81" y1="119.75" x2="553.75" y2="119.75"/>
  </g>
</svg>
