<svg id="work" xmlns="http://www.w3.org/2000/svg" viewBox="0 0 1422 870">
  <defs>
    <style>
      .cls-1, .cls-11 {
        fill: #fff;
      }

      .cls-2 {
        fill: #ebebeb;
      }

      .Graphic-Style-84, .cls-3, .cls-4, .cls-5, .cls-9 {
        fill: none;
      }

      .cls-10, .cls-11, .cls-3, .cls-4, .cls-6, .cls-7, .cls-8, .cls-9 {
        stroke: #4a4a4a;
      }

      .Graphic-Style-84, .cls-10, .cls-11, .cls-3, .cls-4, .cls-5, .cls-6 {
        stroke-linecap: round;
        stroke-linejoin: round;
      }

      .cls-3, .cls-7 {
        stroke-width: 4px;
      }

      .Graphic-Style-84, .cls-10, .cls-11, .cls-4, .cls-8, .cls-9 {
        stroke-width: 2.5px;
      }

      .cls-5 {
        stroke: #ff339c;
      }

      .cls-5, .cls-6 {
        stroke-width: 3px;
      }

      .cls-10, .cls-6, .cls-7, .cls-8 {
        fill: #ff0083;
      }

      .cls-7, .cls-8, .cls-9 {
        stroke-miterlimit: 10;
      }

      .Graphic-Style-84 {
        stroke: #ff0083;
      }

      .cls-12 {
        opacity: 0.2;
      }
    </style>
  </defs>
  <title>29,2</title>
  <path class="cls-1" d="M732.06,349.61s20.18,19.52,70.27,66.26c0,0,17.54,26.08,18.95,52.16L809.85,478.9s-80.35,5.43-151.72-17c-42,8.46-78.79-1.7-78.79-1.7s-130.51-60.61-187.26-88.91c0,0-21.19,4-65.65-3.72L84.56,236.18,183.07,279a49.25,49.25,0,0,0,47.27-4.44c23-15.69,56.19-38.1,60.36-40L112.17,124.42,213.55,171.5a19.56,19.56,0,0,0,2.48,1c7,2.17,41.33,12.66,61.7,16.63-6.2-21.36-2.13-37.12-1-40.73a2.55,2.55,0,0,1,.88-1.26c2.68-2,13.9-10.48,31.34-21.5a19.86,19.86,0,0,1,16.76-2.1c.87.28,1.77.6,2.71,1a45.15,45.15,0,0,1,7.15-8.58A12.32,12.32,0,0,1,346.48,113c27.65,6.15,52,18.19,52,18.19l-6-19.95a23.06,23.06,0,0,0-11.74-13.92L304,59l173.47,73s31.86,31.81,60.76,66.44L546.69,240l133.5,79h17.5Z"/>
  <g>
    <polygon class="cls-2" points="531.19 269 549.19 240.5 675.94 317.25 697.51 317.53 731.31 348.91 728.55 368.31 688.99 368.79 531.19 269"/>
    <path class="cls-2" d="M522.35,209.85l-13.17,34.3s22.09,17.31,22.31,25.17c7.5,4.74,15.31-2.26,15.31-2.26l7.39-5.46L559,246.7l-9.49-7.39-11.24-40.93Z"/>
    <polygon class="cls-2" points="483.34 357.55 470.74 317.41 422.01 301.9 483.34 357.55"/>
    <path class="cls-2" d="M188.42,280.93l144,80.14L329.07,368,102.71,244.06S178.24,275.26,188.42,280.93Z"/>
    <path class="cls-2" d="M205.81,171.16l170.85,109-1.09,4.34L121.9,130.37S195.91,165,205.81,171.16Z"/>
    <path class="cls-2" d="M569,443.81s-147.78-52.48-104.73-76.16a24.42,24.42,0,0,1,6-2.89l-4.07-4.27L395.64,370.7l183.7,89.46S567.67,451.47,569,443.81Z"/>
    <path class="cls-2" d="M821.29,468l-11.44,10.88S710.48,477.11,681,468.1c-26.62-7.8-31.19-4.79-31.19-4.79s-53,5-70.48-3.15c-6.18-7.1-15.89-13.24-10.76-17.49s26.29-7.36,26.29-7.36l33.66-5.79s64.27-2.84,76.45,2.39S797.24,470.73,821.29,468Z"/>
    <polygon class="cls-2" points="452.5 362.37 609.02 432.69 627.45 428.39 479.71 355.77 452.5 362.37"/>
    <polygon class="cls-2" points="420.88 300.7 463.29 338.51 416.81 351.1 266.92 249.81 290.7 234.54 376.27 282.22 420.88 300.7"/>
    <path class="cls-3" d="M543.22,199.77q-2.47-.71-5-1.39c-28.9-34.63-60.76-66.44-60.76-66.44L304,59l76.74,38.38a23.06,23.06,0,0,1,11.74,13.92l6,19.95s-24.39-12-52-18.19a12.35,12.35,0,0,0-10.93,2.89,45.15,45.15,0,0,0-7.15,8.58c-.94-.38-1.84-.7-2.71-1a19.86,19.86,0,0,0-16.76,2.1c-8.6,5.43-15.69,10.24-21,14a31.92,31.92,0,0,0-13.58,25.79,82.45,82.45,0,0,0,3.36,23.74c-20.37-4-54.68-14.46-61.7-16.63a20.17,20.17,0,0,1-2.48-1L112.17,124.42,290.7,234.54c-4.17,1.89-37.32,24.3-60.36,40A49.2,49.2,0,0,1,183.07,279L84.56,236.18,326.43,367.53c44.46,7.74,65.65,3.72,65.65,3.72,56.75,28.3,187.26,88.91,187.26,88.91s36.82,10.16,78.79,1.7c71.37,22.47,151.72,17,151.72,17L821.28,468c-1.41-26.08-18.95-52.16-18.95-52.16-50.09-46.74-70.27-66.26-70.27-66.26"/>
    <path class="cls-4" d="M331.69,125.38l96.83,45.85s84.22,70.75,103,98.09L504.8,294.7l-.6-1a41.49,41.49,0,0,0-13-13.44L352.38,190.4c-7.18,6-74.65-1.31-74.65-1.31"/>
    <path class="cls-4" d="M399.65,131.33s33.65,19.23,61.65,45.83"/>
    <path class="cls-4" d="M296.08,190.82s-.05-9.81.36-19.16a28.13,28.13,0,0,1,11.38-21.36c12.05-8.93,29.67-22.17,29.67-22.17"/>
    <path class="cls-4" d="M345.53,131.94l2.81-4.12a12.58,12.58,0,0,1,13.1-5.22l35,7.62"/>
    <path class="cls-4" d="M377.39,281.16l46.84,10.38a105,105,0,0,0,31.82,2.1L496,290.16"/>
    <polyline class="cls-4" points="292.71 236.66 376.04 285.68 470.74 317.41"/>
    <path class="cls-4" d="M463.73,338.59l-59.24,15.79a220.38,220.38,0,0,1-44.86,7.11l-29.37,1.59"/>
    <line class="cls-4" x1="392.08" y1="371.25" x2="483.09" y2="357.29"/>
    <line class="cls-4" x1="420.88" y1="300.7" x2="463.73" y2="338.59"/>
    <line class="cls-4" x1="463.73" y1="338.59" x2="483.09" y2="357.29"/>
    <line class="cls-4" x1="483.09" y1="357.29" x2="628.53" y2="429.52"/>
    <path class="cls-4" d="M579.34,460.16l-9.54-10.94a6.57,6.57,0,0,1,3.9-10.8l54.83-8.9,54.25-1.89A50.78,50.78,0,0,1,705,431.91c23.86,10.48,82.9,35,116.3,36.12"/>
    <line class="cls-4" x1="594.87" y1="435.31" x2="658.13" y2="461.86"/>
    <path class="cls-4" d="M427.06,170.54s78.78,17.1,107.45,27.75"/>
    <polyline class="cls-3" points="548.03 237.09 548.76 239.99 679.09 318.51 698.3 318.35 732.06 349.61"/>
    <path class="cls-4" d="M509.18,244.15l11.95-31a12.23,12.23,0,0,1,4.27-5.54l12.83-9.25,9.8,38.71"/>
    <polyline class="cls-4" points="731.15 352.89 728.24 370.19 688.99 368.79 531.49 269.32"/>
    <polyline class="cls-4" points="698.3 318.35 695.71 331.74 725.42 367.22"/>
    <line class="cls-4" x1="546.94" y1="277.03" x2="548.76" y2="239.99"/>
    <line class="cls-4" x1="641.18" y1="338.59" x2="679.09" y2="318.51"/>
    <line class="cls-4" x1="694.21" y1="334" x2="667.49" y2="355.21"/>
    <path class="cls-4" d="M483.34,183.68c-12.6,17.82,0,48.32,23.6,66.23C531.44,221,586.94,146,674.49,83.43,635.28,75,567.63,70.51,483.34,183.68"/>
    <path class="cls-4" d="M544.85,224.52C564.75,205.85,677.13,91.77,674.49,84"/>
  </g>
  <g>
    <path class="cls-5" d="M1228.37,173.33c-75.73-44.5-151.14-57.88-181.95-28.44-29.88,28.56,4,96.64,75.61,152.07,57.3,44.34,123.13,61.76,147,38.92,19.12-18.27-2.54-61.84-48.39-97.32-36.67-28.38-78.8-39.53-94.1-24.91-12.24,11.7,1.63,39.58,31,62.28,23.47,18.17,50.43,25.3,60.22,15.95,7.84-7.49-1-25.33-19.81-39.86-10.25-7.93-21.53-12.57-29.65-12.83"/>
    <path class="cls-5" d="M1049,89.46s16-4.47,38.33,1.86"/>
    <path class="cls-5" d="M1258.59,405.37a78,78,0,0,1-40.87-1.88"/>
  </g>
  <path class="cls-6" d="M114,455.52c6.24-18,3.07-24.51-14.92-30.75,18,6.24,24.52,3.07,30.75-14.92-6.23,18-3.07,24.51,14.92,30.75C126.74,434.36,120.22,437.53,114,455.52Z"/>
  <path class="cls-6" d="M321.54,505.67c-3.75-10.8-1.85-14.71,8.95-18.45-10.8,3.74-14.71,1.84-18.45-9,3.74,10.79,1.84,14.7-9,18.45C313.88,493,317.79,494.87,321.54,505.67Z"/>
  <path class="cls-6" d="M911,626.77c6.24-18,3.07-24.51-14.92-30.75,18,6.24,24.51,3.07,30.75-14.92-6.24,18-3.07,24.52,14.92,30.75C923.75,605.62,917.23,608.78,911,626.77Z"/>
  <path class="cls-6" d="M867.5,120.76c2.64-18.84-1.73-24.62-20.59-27.24,18.86,2.62,24.65-1.74,27.29-20.59-2.64,18.85,1.73,24.62,20.59,27.25C875.93,97.55,870.14,101.92,867.5,120.76Z"/>
  <path class="cls-6" d="M1313.43,512.4c-3.74-10.8-1.84-14.71,9-18.46-10.79,3.75-14.7,1.85-18.45-8.95,3.75,10.8,1.85,14.71-9,18.46C1305.78,499.7,1309.69,501.6,1313.43,512.4Z"/>
  <circle class="cls-6" cx="680.85" cy="230.12" r="14.5"/>
  <circle class="cls-6" cx="509.18" cy="794.05" r="14.5"/>
  <path class="cls-6" d="M253.93,632.67a27.1,27.1,0,1,0-27.1,27.1A27.1,27.1,0,0,0,253.93,632.67Z"/>
  <g>
    <path class="cls-7" d="M1235.69,697.51a40.77,40.77,0,1,1,1.5-7.67A40.59,40.59,0,0,1,1235.69,697.51Z"/>
    <path class="cls-8" d="M1235.69,697.51a40.59,40.59,0,0,1-16.12,22.08,17.42,17.42,0,0,1,15.63-30.48,15.26,15.26,0,0,1,2,.73A40.77,40.77,0,0,1,1235.69,697.51Z"/>
    <path class="cls-9" d="M1214.93,665.88a7.53,7.53,0,1,0-9.36,5.07A7.53,7.53,0,0,0,1214.93,665.88Z"/>
    <path class="cls-9" d="M1187.73,691.12a7.52,7.52,0,1,0-9.35,5.07A7.52,7.52,0,0,0,1187.73,691.12Z"/>
    <path class="cls-9" d="M1182.38,660.7a4.39,4.39,0,1,0-5.4,3.06A4.39,4.39,0,0,0,1182.38,660.7Z"/>
    <path class="Graphic-Style-84" d="M1050.05,699.37l122.52-61.6a53.79,53.79,0,0,1,56.79,90.79,55.51,55.51,0,0,1-8.75,5.46l-53.46,26.32"/>
    <line class="Graphic-Style-84" x1="1133.44" y1="687.08" x2="1065.69" y2="723.19"/>
    <line class="Graphic-Style-84" x1="1130.07" y1="720.67" x2="1077.17" y2="748.24"/>
    <line class="Graphic-Style-84" x1="1158.73" y1="735.88" x2="1129.21" y2="751.65"/>
    <line class="Graphic-Style-84" x1="1051.79" y1="730.87" x2="1044.81" y2="734.58"/>
  </g>
  <g>
    <g>
      <g>
        <path class="cls-2" d="M1057.68,393.16a3,3,0,0,1-.62,4.62l-32.62,19.1a2.62,2.62,0,0,1-3.89-1.58l-6.35-25,25.86-15.14Z"/>
        <path class="cls-2" d="M1032.56,379.52l-10.95,6.41c-11.45,6.7-21.14-.08-27.84-11.53l-45.39-77.54A24,24,0,0,1,957,264h0a24,24,0,0,1,32.86,8.59l45.39,77.54C1041.92,361.58,1044,372.82,1032.56,379.52Z"/>
      </g>
      <path class="cls-9" d="M1057.68,393.16a3,3,0,0,1-.62,4.62l-32.62,19.1a2.62,2.62,0,0,1-3.89-1.58l-6.35-25,25.86-15.14Z"/>
      <path class="cls-9" d="M1032.56,379.52l-10.95,6.41c-11.45,6.7-21.14-.08-27.84-11.53l-45.39-77.54A24,24,0,0,1,957,264h0a24,24,0,0,1,32.86,8.59l45.39,77.54C1041.92,361.58,1044,372.82,1032.56,379.52Z"/>
    </g>
    <g>
      <path class="cls-1" d="M1117.56,493.27l-14.71-20.64-8.45-5.72-46.68-12-10.28-54.36,17.6-29.82,5.54-24.22a43.48,43.48,0,0,0-23.12-48.68l-34.06-16.82a40.94,40.94,0,0,0-31.9-1.84l-39.92,14.26L901.34,311a28.08,28.08,0,0,0-13.05,31.44l6,22.77a4.87,4.87,0,0,1-.72,4,4.82,4.82,0,0,1-3.52,2l-22.31,2.07-13.52-12.71c-4.9-3.13-12.5-3.05-17,.67l-4.71,6.41a6.3,6.3,0,0,0-.68,6.33l2.88,6.36,22.9,16.79,50.56,4.95s8.54-4,15.57-18.77l17,33.85,29.91,75.66s44.2,37.26,61.77,45.78c2.57,13.62,10,29,19,24.24s13.2-13.56,11.59-25.56-4.69-18.6-9.79-20.1l-20.83-24.6s45,3.65,52.09,4.24c4.56,7.53,17.94,20.06,26.93,13.1A16.18,16.18,0,0,0,1117.56,493.27Zm-96.35-127.5L999.68,321.3s22.8,5.71,23.93,22.09Z"/>
      <polygon class="cls-2" points="1014.2 489.56 1048.92 528.97 1051.58 518.98 1025.11 489.24 1014.2 489.56"/>
      <polygon class="cls-2" points="997.7 320.59 995.27 334.03 1015.79 375.94 1020.11 365.57 997.7 320.59"/>
      <path class="cls-2" d="M861.74,396.19l31.59-3.86a16.84,16.84,0,0,0,14.55-13.83l3.86-22.27L924.14,384l-7.42,13.76a7.42,7.42,0,0,1-7.37,3.86Z"/>
      <path class="cls-2" d="M1053.27,313.17s3.65,56.29-25.94,86.44c8.81,1,12.05,1,12.05,1C1053.77,372.92,1066.41,332.57,1053.27,313.17Z"/>
      <path class="cls-3" d="M922.94,384c-5.12,12.12-5.7,18.35-21.5,17-10-.84-42.47-4.91-42.47-4.91,8.87-3.29,8.77-22.69,8.77-22.69l19.6-.27c5.16-1,7.15-5,7.15-10.25-2.93-10.38-18.31-43.08,15.42-57.38l47.37-20.07c42.65-18.08,61.21.79,85.44,17.11a38.29,38.29,0,0,1,16.84,33.79c-.92,17-5.64,40.85-22.07,62.87l-.15.2c-.64.13,11.44,57.13,11.44,57.13l38,8.89c16.45,2.75,19,31.9-2.31,31.51-9.53-.17-69-9.08-69-9.08"/>
      <path class="cls-4" d="M1021.46,365.27,999.08,320.1l16.28,9.67a16.9,16.9,0,0,1,8.25,13.62c.64,11.79-1.67,24.32-10.27,41.76"/>
      <path class="cls-4" d="M999.08,413.17c-48.14,17.1-56.51,5.8-58.91,1.6l-27-55.47"/>
      <path class="cls-3" d="M941.34,417.34l28.2,74.73,60.3,45.9c11.4,3.9,23.59-1.5,21.6-20.7"/>
      <path class="cls-4" d="M1111.43,510a14.29,14.29,0,0,1-19.92-3.5l-6.39-9.18c7.2,1.43,26.83-15,5.29-30.79a14.21,14.21,0,0,1,12.43,6.09L1115,490.05A14.36,14.36,0,0,1,1111.43,510Z"/>
      <path class="cls-4" d="M1052.44,561.69a13.56,13.56,0,0,1-5.54,1.24c-5.27,0-9.74-3.47-11.06-9.23l-3.43-15c10.58,2.29,20.88-3.66,19-21.42l3.82,2.17a6.9,6.9,0,0,1,3.32,4.46l4.07,17.82C1064.41,549.45,1059.85,558.39,1052.44,561.69Z"/>
      <path class="cls-4" d="M856.73,395.3l-18.18-11.17c-7.43-5.06-8.79-15.08-2.21-21.38h0c6.31-6,16.34-5.09,21.87,1.06l9.62,10.7C869.1,378.51,863.15,398.29,856.73,395.3Z"/>
      <line class="cls-3" x1="1027.33" y1="489.57" x2="1051.44" y2="517.27"/>
    </g>
    <path class="cls-4" d="M1035.28,399.69c-8.45,1-22.31-1.13-21.94-14.54"/>
    <g>
      <path class="cls-3" d="M947.38,236.14c-10.61-19.79-32.1-26.18-51.89-15.56l-7.42,4c-19.78,10.63-30.38,34.25-19.77,54l20.15,37.6c.07.11-.06-.13,0,0,6.28,11.69,29.75,12.21,51.59.49s33.77-31.25,27.5-42.95c-.07-.12.06.12,0,0Z"/>
      <g>
        <path class="cls-1" d="M949.89,278.14c5,9.32,1.15,21.72-8.17,26.73L930.38,311c-9.32,5-20.68.77-25.67-8.55l-13.22-24.64a15.16,15.16,0,0,1,6.2-20.52l18.48-9.92a15.14,15.14,0,0,1,20.51,6.18Z"/>
        <path class="cls-3" d="M940.65,260.89l9.24,17.25c5,9.32,1.15,21.72-8.17,26.73L930.38,311c-9.32,5-20.68.77-25.67-8.55l-10.77-20.07"/>
      </g>
      <g>
        <g>
          <path class="cls-4" d="M903.81,285.82a5.34,5.34,0,0,1,9.41-5.05"/>
          <path class="cls-4" d="M922.16,276a5.34,5.34,0,0,1,9.42-5"/>
        </g>
        <path class="cls-4" d="M916.09,295.44c14.38,3.81,17.77-9.54,17.77-9.54"/>
      </g>
      <g>
        <path class="cls-2" d="M903.85,231.64c-8.63,3.12-13,7.84-17.82,15.93-3.78,6.27-12.06,2.86-12.06,2.86,1.93,13.21,16.73,32.64,21.53,34.8l-3.54-6.6c-2.49-4.65-3.46-13.16,1.11-14.53,15.45-4.66,12-15.61,29.22-16.52,4.52-.24,8.93,5.58,12.62,10.31,1.65,2.13,6.26,5.16,6.26,5.16l.26.54c.59-5.77-5.32-19.23-10.2-25.3C926.12,231.94,916.89,226.92,903.85,231.64Z"/>
        <path class="cls-3" d="M903.85,231.64c-8.63,3.12-13,7.84-17.82,15.93-3.78,6.27-12.06,2.86-12.06,2.86,1.93,13.21,16.73,32.64,21.53,34.8l-3.54-6.6c-2.49-4.65-3.46-13.16,1.11-14.53,15.45-4.66,12-15.61,29.22-16.52,4.52-.24,8.93,5.58,12.62,10.31,1.65,2.13,6.26,5.16,6.26,5.16l.26.54c.59-5.77-5.32-19.23-10.2-25.3C926.12,231.94,916.89,226.92,903.85,231.64Z"/>
      </g>
    </g>
    <g>
      <g>
        <path class="cls-2" d="M1024.07,401.64a7.6,7.6,0,0,1-2.71,10.39L999.26,425a7.58,7.58,0,0,1-10.37-2.73l-29.4-50.38a7.6,7.6,0,0,1,2.72-10.38l22.1-12.93a7.58,7.58,0,0,1,10.37,2.73Z"/>
        <path class="cls-10" d="M1018.17,397.46a7.59,7.59,0,0,1-.29,10.72L999.3,425.79a7.57,7.57,0,0,1-10.72-.29L948.5,383.12a7.6,7.6,0,0,1,.29-10.73l18.58-17.6a7.55,7.55,0,0,1,10.71.29Z"/>
        <path class="cls-1" d="M989.14,392l-2,1.78-2.91-3.22-1.47,1.34c-.11.11,0,.18.06.25l2.77,3.05-2,1.78-3-3.27-3.9,3.55-.07,0-1.61-2.5c-.08-.13,0-.18.07-.25l1.2-1.09a1,1,0,0,0,.07-1.57l-7.66-8.45a1.33,1.33,0,0,0-1.94-.15c-.33.27-.65.57-1,.85l-.59.54c-.63-.71-1.25-1.39-1.89-2.09l3.92-3.56-2.91-3.22,2-1.78c.9,1,1.81,2,2.71,3,.11.12.18.12.3,0,.32-.32.66-.63,1-.94l.37-.34,0-.08c-.93-1-1.86-2.05-2.78-3.08l2-1.78.17.21c.83.9,1.65,1.81,2.47,2.71.28.31.27.31.63.05a10.93,10.93,0,0,1,3.1-1.67,4.09,4.09,0,0,1,3.18.16,5.48,5.48,0,0,1,1.85,1.57,3.83,3.83,0,0,1,.68,3.68l-.1.31.15-.05a13.2,13.2,0,0,1,1.36-.53,3.8,3.8,0,0,1,3.26.45,7.11,7.11,0,0,1,2.33,2.66,4.81,4.81,0,0,1,.59,2.95,6.74,6.74,0,0,1-1.38,3.18c-.56.74-1.21,1.43-1.83,2.13-.13.15-.13.24,0,.38s.48.52.72.77C987.75,390.44,988.44,391.2,989.14,392Zm-8.56-2.44c.6-.55,1.19-1.06,1.75-1.59a9.89,9.89,0,0,0,1.95-2.47,2.82,2.82,0,0,0,.41-1.9,2.4,2.4,0,0,0-2.87-1.91,6,6,0,0,0-2.58,1.3c-.81.67-1.57,1.38-2.36,2.06-.18.15-.18.25,0,.42q1.78,1.94,3.55,3.89Zm-7.48-8.25c.55.61,1.1,1.21,1.64,1.82.09.09.15.15.28,0a14.16,14.16,0,0,0,2.72-2.91,2.92,2.92,0,0,0,.52-1.93,2.32,2.32,0,0,0-2.3-1.93,4,4,0,0,0-2.29.95c-.76.58-1.46,1.24-2.19,1.87-.14.11-.1.2,0,.31Z"/>
      </g>
      <path class="cls-11" d="M1021.15,414.76c-5.64,5.25-15.46,5.11-21.6-.9h0c-6.29-6.15-5.48-15.25,1.37-19.78l12.55-8.29c-3.27,14,12.66,15,22.67,14.78Z"/>
    </g>
    <line class="cls-4" x1="985.48" y1="440.63" x2="1013.87" y2="487.62"/>
    <line class="cls-3" x1="923.77" y1="382.38" x2="941.47" y2="418.8"/>
  </g>
  <g>
    <g>
      <g>
        <path class="cls-2" d="M380,560.88a3,3,0,0,0,.4,4.65l31.72,20.67a2.61,2.61,0,0,0,3.95-1.4l7.57-24.68-25.14-16.38Z"/>
        <path class="cls-2" d="M405.8,548.49l10.65,6.94c11.12,7.25,21.14.94,28.4-10.16L494,470.05a24,24,0,0,0-7-33.23h0a24.05,24.05,0,0,0-33.27,7L404.56,519C397.31,530.11,394.68,541.23,405.8,548.49Z"/>
      </g>
      <path class="cls-9" d="M380,560.88a3,3,0,0,0,.4,4.65l31.72,20.67a2.61,2.61,0,0,0,3.95-1.4l7.57-24.68-25.14-16.38Z"/>
      <path class="cls-9" d="M405.8,548.49l10.65,6.94c11.12,7.25,21.14.94,28.4-10.16L494,470.05a24,24,0,0,0-7-33.23h0a24.05,24.05,0,0,0-33.27,7L404.56,519C397.31,530.11,394.68,541.23,405.8,548.49Z"/>
    </g>
    <path class="cls-1" d="M577,554.51l-12.63-.79L552.8,549,551,542.71s12.26-31.88,5.79-41.16-33.41-26.71-33.41-26.71-35.16-17.77-52.1-20.15-24.41-1.31-44.52,8-31.24,22-35.28,29.81-3.1,39.94,1.9,51.91,9.52,23.79,15.15,29.55L392.56,628.6l-47.11,10.49s-4.58-2.07-9.39,5.41-11,21.75-11,21.75-2.21,10.66,7.32,16.42,18-3.73,23.34-13.77l6.53-1.75,62.49-5.48,9.26-6.86,10.71,4.52s8.21,3,17.14-5.56,39.75-56.69,39.75-56.69l19.88-34,9.81,15.53,9.47,1.72,36.33-1.46S566,562.67,577,554.51Zm-146.1-29-5.6,12.4s-5.48-21.7,2-29.75S449,495.49,449,495.49Z"/>
    <g>
      <polygon class="cls-2" points="450.59 495.52 452.37 509.07 429.82 549.92 426.01 539.36 450.59 495.52"/>
      <path class="cls-2" d="M583,577.66l-31.42-5.39a16.87,16.87,0,0,1-13.88-14.53l-2.79-22.43-13.74,27.08,6.76,14.11a7.45,7.45,0,0,0,7.18,4.21Z"/>
      <path class="cls-2" d="M395.36,485.4s-6.37,56,21.78,87.6c-8.86.53-12.1.39-12.1.39C392,545.05,381.29,504.13,395.36,485.4Z"/>
      <path class="cls-3" d="M522.32,562.45c4.54,12.36,4.82,18.61,20.68,18,10-.36,42.72-2.83,42.72-2.83C577,574,578,554.58,578,554.58l-19.59-1.23c-5.11-1.23-6.91-5.34-6.66-10.59,3.43-10.21,20.4-42.13-12.66-58.05l-46.41-22.36c-41.79-20.13-61.27-2.2-86.3,12.93A38.26,38.26,0,0,0,388,508.2c.1,17,3.67,41.07,19,63.86l.14.21c.63.16-14.19,56.49-14.19,56.49l-38.48,7c-16.59,2-20.58,30.93.79,31.59,9.55.29,69.46-5.71,69.46-5.71"/>
      <path class="cls-4" d="M424.67,539l24.56-44-16.75,8.87a16.9,16.9,0,0,0-8.91,13.2c-1.2,11.74.5,24.37,8.26,42.2"/>
      <path class="cls-4" d="M444.74,587.92c47.34,19.43,56.25,8.55,58.85,4.47l29.72-54.08"/>
      <path class="cls-4" d="M332.36,682.67a14.31,14.31,0,0,0,19.33-6l5.16-9.93c-7,2.34-28.59-11.45-9.23-29.84a14.19,14.19,0,0,0-11.56,7.63l-9.82,18.84A14.36,14.36,0,0,0,332.36,682.67Z"/>
      <path class="cls-4" d="M378.18,631.8c-3.32-6-.83-12.75,10.44-20.64-4.75-.36-13,.61-18.66,6.3l-11.14,17.43C358,636,369.21,633.6,378.18,631.8Z"/>
    </g>
    <path class="cls-4" d="M409.18,572.69c8.41,1.41,22.38,0,22.65-13.46"/>
    <g class="cls-12">
      <path class="cls-3" d="M505,413.64c11.57-19.25,33.37-24.59,52.65-13l7.23,4.34c19.28,11.57,28.74,35.68,17.17,54.93l-22,36.56c-.07.11.07-.12,0,0-6.84,11.37-30.35,10.75-51.62-2S476.18,461.57,483,450.2h0Z"/>
      <g>
        <path class="cls-1" d="M500.46,455.46c-5.45,9.07-2.19,21.64,6.89,27.09l11,6.64c9.09,5.45,20.65,1.77,26.1-7.3l14.4-24a15.15,15.15,0,0,0-5.2-20.79l-18-10.81a15.16,15.16,0,0,0-20.81,5.17Z"/>
        <path class="cls-3" d="M510.54,438.69l-10.08,16.77c-5.45,9.07-2.19,21.64,6.89,27.09l11,6.64c9.09,5.45,20.65,1.77,26.1-7.3l11.73-19.51"/>
      </g>
      <g>
        <g>
          <path class="cls-4" d="M546.19,465.38a5.35,5.35,0,0,0-9.18-5.51"/>
          <path class="cls-4" d="M528.3,454.64a5.35,5.35,0,0,0-9.18-5.51"/>
        </g>
        <path class="cls-4" d="M533.44,474.39c-14.58,3.11-17.32-10.4-17.32-10.4"/>
      </g>
      <g>
        <path class="cls-2" d="M548.75,411.26c8.49,3.54,12.58,8.47,17.06,16.79,3.48,6.44,11.93,3.44,11.93,3.44-2.57,13.1-18.31,31.78-23.21,33.7l3.85-6.41c2.72-4.52,4.1-13-.41-14.57-15.23-5.4-11.22-16.17-28.42-17.92-4.52-.46-9.21,5.14-13.13,9.68-1.75,2-6.51,4.85-6.51,4.85l-.29.52c-.31-5.79,6.26-18.94,11.43-24.76C526.46,410.48,535.93,405.92,548.75,411.26Z"/>
        <path class="cls-3" d="M548.75,411.26c8.49,3.54,12.58,8.47,17.06,16.79,3.48,6.44,11.93,3.44,11.93,3.44-2.57,13.1-18.31,31.78-23.21,33.7l3.85-6.41c2.72-4.52,4.1-13-.41-14.57-15.23-5.4-11.22-16.17-28.42-17.92-4.52-.46-9.21,5.14-13.13,9.68-1.75,2-6.51,4.85-6.51,4.85l-.29.52c-.31-5.79,6.26-18.94,11.43-24.76C526.46,410.48,535.93,405.92,548.75,411.26Z"/>
      </g>
    </g>
    <g>
      <path class="cls-11" d="M597.3,579.15c7.71-.15,14.68-7.09,14.92-15.67h0c.25-8.81-6.66-14.78-14.73-13.27l-18.75,4.56c-8.38,4.42-8,17.22-1.9,23.44Z"/>
      <g>
        <path class="cls-10" d="M578.38,572.94a7.58,7.58,0,0,0,3.47,10.16l23,11.29A7.6,7.6,0,0,0,615,590.93l25.74-52.34a7.58,7.58,0,0,0-3.48-10.15l-23-11.29a7.58,7.58,0,0,0-10.17,3.46Z"/>
        <path class="cls-1" d="M605.28,569.62l-2.39-1.16,1.91-3.91-1.79-.86c-.15-.07-.17,0-.21.14-.6,1.23-1.2,2.47-1.81,3.7l-2.39-1.16c.64-1.32,1.29-2.64,1.94-4l-4.75-2.32c0-.05,0-.07,0-.08.58-.8,1.16-1.61,1.73-2.42.09-.12.16-.07.25,0l1.46.71a1,1,0,0,0,1.48-.51l5-10.25a1.32,1.32,0,0,0-.57-1.86L604,545l-.71-.34c.41-.86.82-1.69,1.24-2.54l4.77,2.33c.64-1.32,1.26-2.61,1.9-3.9l2.38,1.17c-.59,1.21-1.18,2.43-1.78,3.64-.07.14,0,.21.1.28.42.18.83.38,1.25.58l.44.22.07-.07c.61-1.24,1.21-2.48,1.83-3.73l2.38,1.17-.13.24-1.6,3.29c-.18.38-.18.38.18.61a10.53,10.53,0,0,1,2.71,2.26,4.08,4.08,0,0,1,1,3,5.55,5.55,0,0,1-.77,2.31,3.86,3.86,0,0,1-3.17,2l-.32,0,.1.12a12.66,12.66,0,0,1,1,1.07,3.82,3.82,0,0,1,.8,3.19,7.07,7.07,0,0,1-1.61,3.15,4.88,4.88,0,0,1-2.52,1.65,6.76,6.76,0,0,1-3.46-.11c-.91-.24-1.78-.59-2.67-.91-.19-.07-.27,0-.35.14s-.3.63-.45,1Zm-.92-8.86c.73.36,1.42.72,2.13,1a9.77,9.77,0,0,0,3,.9,2.87,2.87,0,0,0,1.93-.32,2.41,2.41,0,0,0,.7-3.38,6,6,0,0,0-2.17-1.92c-.92-.5-1.86-1-2.79-1.43-.21-.1-.29-.07-.39.14-.76,1.58-1.54,3.15-2.31,4.73C604.44,560.59,604.4,560.66,604.36,560.76Zm4.88-10-1.08,2.2c0,.11-.09.19.06.27a14.3,14.3,0,0,0,3.72,1.45,3,3,0,0,0,2-.23,2.32,2.32,0,0,0,.93-2.85,3.92,3.92,0,0,0-1.73-1.78c-.82-.5-1.7-.9-2.55-1.35-.16-.09-.22,0-.29.13Z"/>
      </g>
    </g>
    <line class="cls-4" x1="432.73" y1="654.05" x2="458.47" y2="622.79"/>
    <path class="cls-3" d="M521.56,560.84l-19.47,35.51L460.72,654.2a12.23,12.23,0,0,1-14.17,4.37l-12.79-4.71-9,7.81"/>
    <g>
      <path class="cls-3" d="M499.15,404.84c12.41-21.21,36.18-27.33,57.39-14.92l7.94,4.65c21.21,12.41,31.83,38.66,19.42,59.87l-23.58,40.29h0c-7.34,12.54-33,12.16-56.43-1.54s-35.65-35.52-28.32-48.06h0Z"/>
      <g>
        <g>
          <path class="cls-2" d="M508.67,484h0a31.65,31.65,0,0,1-11.33-43.31l12.51-21.38A31.65,31.65,0,0,1,553.16,408h0a31.66,31.66,0,0,1,11.33,43.32L552,472.71A31.65,31.65,0,0,1,508.67,484Z"/>
          <path class="cls-3" d="M508.67,484h0a31.65,31.65,0,0,1-11.33-43.31l12.51-21.38A31.65,31.65,0,0,1,553.16,408h0a31.66,31.66,0,0,1,11.33,43.32L552,472.71A31.65,31.65,0,0,1,508.67,484Z"/>
        </g>
        <g>
          <path class="cls-1" d="M560.37,434.25c-16.51,15.29-49,3.28-51.44,4.08s-14.15,19.28-18.45,19.36c-1.52,0-4.28-1.29-7.46-2.59s16.05-32.18,21.27-38.92c18.57-24,33.25-20.44,42.1-17,9.4,3.69,18.18,8.9,22.59,14.24s12.5,19.08,2.67,37.11c-5.67,10.37-25,44.33-25,44.33s-2.7-3.16-4.33-5.63,4.27-7.55,10.62-18.26,9.05-13.19,9.21-17.62S560.37,434.25,560.37,434.25Z"/>
          <path class="cls-3" d="M560.37,434.25c-16.51,15.29-49,3.28-51.44,4.08s-14.15,19.28-18.45,19.36c-1.52,0-4.28-1.29-7.46-2.59s16.05-32.18,21.27-38.92c18.57-24,33.25-20.44,42.1-17,9.4,3.69,18.18,8.9,22.59,14.24s12.5,19.08,2.67,37.11c-5.67,10.37-25,44.33-25,44.33s-2.7-3.16-4.33-5.63,4.27-7.55,10.62-18.26,9.05-13.19,9.21-17.62S560.37,434.25,560.37,434.25Z"/>
        </g>
        <g>
          <g>
            <path class="cls-4" d="M518.06,444.26a5.84,5.84,0,1,1,10.09,5.9"/>
            <path class="cls-4" d="M537.73,455.77a5.85,5.85,0,0,1,10.09,5.91"/>
          </g>
          <path class="cls-4" d="M516.09,461.21c4.65,15.62,19,11.15,19,11.15"/>
        </g>
      </g>
    </g>
    <path class="cls-3" d="M376.43,629.12s-.91-17.51,21.14-17.64"/>
    <path class="cls-11" d="M411.11,575.07l14.33,15.78c6.35,6.36,16.44,5.83,21.4-1.83h0c4.77-7.34,2-17-5.08-21.32l-12.29-7.45C425.31,559.74,407,569.31,411.11,575.07Z"/>
  </g>
  <path class="cls-1" d="M756.27,715.17l-1.83,5.08.25,7.5,1.58,9.83s-.16,6-.16,5.75-.67,9.5-.67,9.5l.17,6.75,5.25,6.25,7.5,1.67s4.33-3.17,4.58-3.17a23.93,23.93,0,0,0,3.83-3.25c0-.25,2.5-15.41,2.5-15.41l5.09,8.25,6,7.33,5.83.5,8.17-3.67,4-5.5-1.92-7.16,5.25,2.08,7.67-1.75s3.92-3.42,3.75-3.58,1.41-6.75,1.41-6.75l-.83-6.09-1.92-2.75,2.17-9L821,704.08l-6.41-8.66-7.42-3.92-1.17.25,2.34,7.58.25,4.34-2.09,3.83-7.25-3.33s-12.5-4-12.25-4.17.25-4,.25-4l6.17-7.92-1.25-8.16-11.58-10.59-11.42-3.66-13.67,2.5-7.08,5.16L742,681.17l-2.16,8.33-1.25,8.75,2.66,5.5,4.5,2.42,5.59,1Z"/>
  <g>
    <g>
      <path class="cls-4" d="M781.62,679.63l4.94,15.67a17.13,17.13,0,0,1-11.18,21.48l-3,1a17.13,17.13,0,0,1-21.48-11.18l-4.94-15.67"/>
      <path class="cls-4" d="M760.24,694.09a3.42,3.42,0,1,0-6.53,2"/>
      <path class="cls-4" d="M778,688.48a3.43,3.43,0,0,0-6.54,2.06"/>
      <path class="cls-4" d="M765.75,703.56a1.21,1.21,0,0,0-.85,1.09,1.19,1.19,0,0,0,.72,1.18l2.1.94a4.89,4.89,0,0,0,6.19-1.95l1.18-2a1.21,1.21,0,0,0-1.41-1.78Z"/>
      <path class="cls-4" d="M787.63,696.4l3.74-4.84a9.63,9.63,0,0,0-.65-12.53l-5.39-5.67c-14.31-15-42.25-6.43-45.38,14.3l-1.16,7.74A9.62,9.62,0,0,0,745.45,706l5.84,1.82"/>
      <path class="cls-4" d="M772.12,712.84s5.83-.58,8.73-7.22"/>
    </g>
    <path class="cls-4" d="M780.13,746.39l-.48-.92L786,756.59a10.49,10.49,0,0,0,13.94,4.13l2.29-1.19a10.48,10.48,0,0,0,5.21-6.22,8.18,8.18,0,0,0-.78-7.07L796.91,731"/>
    <path class="cls-4" d="M756.13,714.44c-1.82,3.57-1.83,9.22-.77,15.88,1.73,10.83,1.46,12.49-.32,23.44a11.76,11.76,0,0,0,10,13.42h0a10.76,10.76,0,0,0,12.2-9.09l1.85-12.7"/>
    <path class="cls-4" d="M805.89,745.06c10.48,5.93,23.15-2,17-16.17-8-18.4-20.69-25.16-35.52-28.89"/>
    <path class="cls-4" d="M808,705.46c1.22-3,1.22-7.48-2.4-14.91,12.87,4.18,21.08,18.8,16.63,34.81"/>
    <path class="cls-4" d="M766.4,743.93a28,28,0,0,0,24.28-4.39"/>
    <path class="cls-4" d="M730,689c-6.22-15.28,3.71-28.68,17.35-35,15-7,34.43-5.42,41.81,11.56,2.29,5.28,29.74,42.28-12.16,57.64C748.79,733.53,742.21,719.09,730,689Z"/>
  </g>
</svg>
