<svg id="work" xmlns="http://www.w3.org/2000/svg" viewBox="0 0 1422 870">
  <defs>
    <style>
      .cls-1, .cls-6 {
        fill: #ebebeb;
      }

      .cls-2, .cls-3, .cls-5, .cls-9 {
        fill: #fff;
      }

      .cls-11, .cls-12, .cls-3, .cls-4, .cls-5, .cls-6, .cls-7, .cls-8, .cls-9 {
        stroke: #4a4a4a;
      }

      .Graphic-Style-21, .cls-11, .cls-12, .cls-3, .cls-4, .cls-5, .cls-6, .cls-7, .cls-8, .cls-9 {
        stroke-linecap: round;
        stroke-linejoin: round;
      }

      .cls-3, .cls-8 {
        stroke-width: 4px;
      }

      .Graphic-Style-21, .cls-12, .cls-4, .cls-8 {
        fill: none;
      }

      .Graphic-Style-21, .cls-4, .cls-5, .cls-6, .cls-7 {
        stroke-width: 2.5px;
      }

      .Graphic-Style-21 {
        stroke: #ff0083;
      }

      .cls-11, .cls-7 {
        fill: #ff0083;
      }

      .cls-11, .cls-12, .cls-9 {
        stroke-width: 3px;
      }

      .cls-10 {
        fill: #4a4a4a;
      }
    </style>
  </defs>
  <title>16,1</title>
  <g>
    <path class="cls-1" d="M254.4,422.6s67,58.49,98.82,65.42c9.82-30.62,26-132.28,26-132.28L347,470.88S288.48,447.88,254.4,422.6Z"/>
    <path class="cls-1" d="M385.7,375.78s24.28,23.39,18.15,96.13a24.35,24.35,0,0,1-9.26,0Z"/>
    <polygon class="cls-1" points="335.06 592.68 345.13 630.16 330.69 741.83 313.58 741.58 335.06 592.68"/>
    <rect class="cls-1" x="665.57" y="328.26" width="15.38" height="26.63"/>
    <rect class="cls-1" x="667.44" y="559.02" width="13.51" height="30.47"/>
  </g>
  <g>
    <path class="cls-2" d="M260,773.64v-30l-10.5-203.5-1.5-10.5V395.14s-.5-36,17.5-51.5c-23.5-63-23-123.5-15.5-132s37.5-34,107-26.5c17,2.5,55,19.5,51.5,136,.5,1.5-22.5,25.5-22.5,25.5l33.5,83.5s8,23,2,33-7,26-7,26l-19,25.5s-1,10-4.5,17c-.5,8-24.5,209.5-24.5,209.5,21,0,24,21.5,24,32C381,773.14,260,773.64,260,773.64Z"/>
    <path class="cls-1" d="M255.5,423.14c13,20,59,50.5,91,57a14.75,14.75,0,0,0,2.5-9l-47.55-19.9Z"/>
    <path class="cls-1" d="M250.33,556.14c12.34,8.34,41.34,24,81.67,11s59.67-24.33,59.67-24.33l1-14.67c-42.34,18.67-66,29.34-79,29.67s-54.34-7.67-63-18.33C249.67,542.48,250.33,556.14,250.33,556.14Z"/>
    <rect class="cls-3" x="625.07" y="223.48" width="526.38" height="456.53" rx="22.45" ry="22.45"/>
    <path class="cls-1" d="M1095.33,646.74c0,1.6-1.79,2.9-4,2.9H688c-2.21,0-4-1.3-4-2.9v-7.26h411.33Z"/>
    <rect class="cls-4" x="682.45" y="269.63" width="414.12" height="370.46" rx="3.74" ry="3.74"/>
    <g>
      <rect class="cls-5" x="652.42" y="300.82" width="74.75" height="27.44" rx="3.74" ry="3.74"/>
      <path class="cls-6" d="M652.42,352c0,2.06.68,3.74,1.51,3.74h27c.83,0,1.5-1.68,1.5-3.74V332c0-2.07-.67-3.74-1.5-3.74h-27c-.83,0-1.51,1.67-1.51,3.74Z"/>
    </g>
    <g>
      <rect class="cls-5" x="652.42" y="586.46" width="74.75" height="27.44" rx="3.74" ry="3.74"/>
      <path class="cls-6" d="M652.42,562.76c0-2.07.68-3.74,1.51-3.74h27c.83,0,1.5,1.67,1.5,3.74v20c0,2.07-.67,3.75-1.5,3.75h-27c-.83,0-1.51-1.68-1.51-3.75Z"/>
    </g>
    <polyline class="Graphic-Style-21" points="1009.07 29.49 1009.07 114.49 993.07 130.49 993.07 212.32"/>
    <polyline class="Graphic-Style-21" points="1042.07 29.49 1042.07 146.99 1058.57 163.49 1058.57 212.32"/>
    <line class="Graphic-Style-21" x1="1024.57" y1="29.49" x2="1024.57" y2="46.49"/>
    <line class="Graphic-Style-21" x1="1024.57" y1="64.99" x2="1024.57" y2="150.99"/>
    <line class="Graphic-Style-21" x1="1024.57" y1="166.99" x2="1024.57" y2="212.32"/>
    <line class="Graphic-Style-21" x1="1009.07" y1="171.49" x2="1009.07" y2="190.24"/>
    <line class="Graphic-Style-21" x1="1058.57" y1="29.49" x2="1058.57" y2="79.49"/>
    <line class="Graphic-Style-21" x1="1058.57" y1="98.49" x2="1058.57" y2="142.99"/>
    <polyline class="Graphic-Style-21" points="1075.57 29.49 1075.57 73.99 1090.32 88.73 1090.32 128.49"/>
    <g>
      <line class="Graphic-Style-21" x1="665.57" y1="701.74" x2="665.57" y2="835.74"/>
      <line class="Graphic-Style-21" x1="710.57" y1="701.24" x2="710.57" y2="768.74"/>
      <line class="Graphic-Style-21" x1="710.57" y1="783.24" x2="710.57" y2="835.74"/>
      <line class="Graphic-Style-21" x1="727.57" y1="701.74" x2="727.57" y2="731.74"/>
      <line class="Graphic-Style-21" x1="694.8" y1="701.74" x2="694.8" y2="731.74"/>
      <line class="Graphic-Style-21" x1="744.57" y1="758.24" x2="744.57" y2="768.74"/>
      <line class="Graphic-Style-21" x1="744.57" y1="781.24" x2="744.57" y2="835.74"/>
      <polyline class="Graphic-Style-21" points="693.57 835.74 693.57 753.74 680.54 740.7 680.54 701.74"/>
      <polyline class="Graphic-Style-21" points="727.57 835.74 727.57 748.74 743.32 732.99 743.32 701.74"/>
    </g>
    <g>
      <path class="cls-1" d="M1020.89,354A42.86,42.86,0,1,0,978,396.87,42.86,42.86,0,0,0,1020.89,354Z"/>
      <path class="cls-4" d="M1031.07,351.49a54,54,0,1,0-54,54A54,54,0,0,0,1031.07,351.49Z"/>
      <g>
        <polyline class="cls-4" points="992.33 393.3 977.08 351.4 977.08 351.39 977.07 351.39 977.07 351.38 961.88 309.65"/>
        <polyline class="cls-4" points="977.07 395.99 977.07 351.39 977.07 351.38 977.07 306.99"/>
        <polyline class="cls-4" points="961.82 393.31 977.07 351.39 977.07 351.38 992.26 309.65"/>
        <polyline class="cls-4" points="948.41 385.54 977.07 351.39 977.07 351.38 1005.63 317.36"/>
        <polyline class="cls-4" points="938.48 373.67 977.07 351.39 977.08 351.39 1015.57 329.16"/>
        <polyline class="cls-4" points="933.22 359.12 977.07 351.39 977.08 351.39 1020.89 343.66"/>
        <polyline class="cls-4" points="933.25 343.66 977.07 351.39 977.08 351.39 1020.92 359.12"/>
        <polyline class="cls-4" points="938.57 329.16 977.07 351.39 977.08 351.39 977.08 351.4 1015.66 373.67"/>
        <polyline class="cls-4" points="948.51 317.36 977.07 351.38 977.07 351.39 977.08 351.4 1005.73 385.54"/>
        <polyline class="cls-4" points="961.87 309.65 961.88 309.65 977.07 351.38 977.07 351.39 977.08 351.4 992.33 393.3"/>
        <polyline class="cls-4" points="977.07 306.99 977.07 351.38 977.07 351.39 977.07 395.99"/>
      </g>
      <circle class="cls-3" cx="977.07" cy="351.49" r="31.33"/>
    </g>
    <rect class="cls-6" x="726.07" y="423.52" width="327.25" height="149.21"/>
    <rect class="cls-7" x="743.32" y="435" width="287.75" height="51.49"/>
    <g>
      <rect class="cls-4" x="743.32" y="503.49" width="18" height="18"/>
      <rect class="cls-4" x="773.81" y="503.49" width="18" height="18"/>
      <rect class="cls-4" x="804.3" y="503.49" width="18" height="18"/>
      <rect class="cls-4" x="834.78" y="503.49" width="18" height="18"/>
      <rect class="cls-4" x="865.27" y="503.49" width="18" height="18"/>
      <rect class="cls-4" x="895.76" y="503.49" width="18" height="18"/>
      <rect class="cls-4" x="743.32" y="531.49" width="18" height="18"/>
      <rect class="cls-4" x="773.81" y="531.49" width="18" height="18"/>
      <rect class="cls-4" x="804.3" y="531.49" width="18" height="18"/>
      <rect class="cls-4" x="834.78" y="531.49" width="18" height="18"/>
      <rect class="cls-4" x="865.27" y="531.49" width="18" height="18"/>
      <rect class="cls-4" x="895.76" y="531.49" width="18" height="18"/>
    </g>
    <rect class="cls-5" x="931.07" y="503.49" width="100" height="46"/>
    <g>
      <path class="cls-2" d="M766.48,469.85a8.14,8.14,0,0,1-3-3.49,14.27,14.27,0,0,1,0-10.89,8.08,8.08,0,0,1,3-3.49,8.45,8.45,0,0,1,8.68,0,8.08,8.08,0,0,1,3,3.49,14.27,14.27,0,0,1,0,10.89,8.14,8.14,0,0,1-3,3.49,8.45,8.45,0,0,1-8.68,0Zm7.16-4.18a11.62,11.62,0,0,0,0-9.52,3.23,3.23,0,0,0-2.82-1.54,3.19,3.19,0,0,0-2.78,1.54,11.51,11.51,0,0,0,0,9.52,3.17,3.17,0,0,0,2.78,1.54A3.21,3.21,0,0,0,773.64,465.67Z"/>
      <path class="cls-2" d="M788.82,451.11v19.6h-4.53v-16h-3.92v-3.64Z"/>
      <path class="cls-2" d="M796.3,469.85a8.14,8.14,0,0,1-3-3.49,14.27,14.27,0,0,1,0-10.89,8.08,8.08,0,0,1,3-3.49,8.45,8.45,0,0,1,8.68,0,8.08,8.08,0,0,1,3,3.49,14.27,14.27,0,0,1,0,10.89,8.14,8.14,0,0,1-3,3.49,8.45,8.45,0,0,1-8.68,0Zm7.16-4.18a11.62,11.62,0,0,0,0-9.52,3.32,3.32,0,0,0-5.61,0,11.62,11.62,0,0,0,0,9.52,3.32,3.32,0,0,0,5.61,0Z"/>
      <path class="cls-2" d="M815.31,469.85a8.14,8.14,0,0,1-3-3.49,14.27,14.27,0,0,1,0-10.89,8.08,8.08,0,0,1,3-3.49A8,8,0,0,1,827,455.47a14.27,14.27,0,0,1,0,10.89,8.08,8.08,0,0,1-3,3.49,8.45,8.45,0,0,1-8.68,0Zm7.16-4.18a11.62,11.62,0,0,0,0-9.52,3.23,3.23,0,0,0-2.82-1.54,3.19,3.19,0,0,0-2.78,1.54,11.51,11.51,0,0,0,0,9.52,3.17,3.17,0,0,0,2.78,1.54A3.21,3.21,0,0,0,822.47,465.67Z"/>
      <path class="cls-2" d="M834.32,469.85a8.14,8.14,0,0,1-3-3.49,14.27,14.27,0,0,1,0-10.89,8.08,8.08,0,0,1,3-3.49,8.45,8.45,0,0,1,8.68,0,8.1,8.1,0,0,1,3,3.49,14.39,14.39,0,0,1,0,10.89,8.16,8.16,0,0,1-3,3.49,8.45,8.45,0,0,1-8.68,0Zm7.16-4.18a11.62,11.62,0,0,0,0-9.52,3.32,3.32,0,0,0-5.6,0,11.62,11.62,0,0,0,0,9.52,3.32,3.32,0,0,0,5.6,0Z"/>
      <path class="cls-2" d="M853.34,469.85a8.16,8.16,0,0,1-3-3.49,14.39,14.39,0,0,1,0-10.89,8.1,8.1,0,0,1,3-3.49,8.45,8.45,0,0,1,8.68,0,8.15,8.15,0,0,1,3,3.49,14.27,14.27,0,0,1,0,10.89,8.21,8.21,0,0,1-3,3.49,8.45,8.45,0,0,1-8.68,0Zm7.15-4.18a11.62,11.62,0,0,0,0-9.52,3.32,3.32,0,0,0-5.6,0,11.62,11.62,0,0,0,0,9.52,3.32,3.32,0,0,0,5.6,0Z"/>
      <path class="cls-2" d="M875.68,451.11v19.6h-4.54v-16h-3.92v-3.64Z"/>
      <path class="cls-2" d="M886.66,451.11v19.6h-4.54v-16H878.2v-3.64Z"/>
      <path class="cls-2" d="M894.13,469.85a8.14,8.14,0,0,1-3-3.49,14.27,14.27,0,0,1,0-10.89,8.08,8.08,0,0,1,3-3.49,8.45,8.45,0,0,1,8.68,0,8.08,8.08,0,0,1,3,3.49,14.27,14.27,0,0,1,0,10.89,8.14,8.14,0,0,1-3,3.49,8.45,8.45,0,0,1-8.68,0Zm7.16-4.18a11.62,11.62,0,0,0,0-9.52,3.23,3.23,0,0,0-2.82-1.54,3.18,3.18,0,0,0-2.78,1.54,11.51,11.51,0,0,0,0,9.52,3.16,3.16,0,0,0,2.78,1.54A3.21,3.21,0,0,0,901.29,465.67Z"/>
      <path class="cls-2" d="M916.47,451.11v19.6h-4.53v-16H908v-3.64Z"/>
      <path class="cls-2" d="M924,469.85a8.14,8.14,0,0,1-3-3.49,14.27,14.27,0,0,1,0-10.89,8.08,8.08,0,0,1,3-3.49,8.45,8.45,0,0,1,8.68,0,8.08,8.08,0,0,1,3,3.49,14.27,14.27,0,0,1,0,10.89,8.14,8.14,0,0,1-3,3.49,8.45,8.45,0,0,1-8.68,0Zm7.15-4.18a11.51,11.51,0,0,0,0-9.52,3.32,3.32,0,0,0-5.6,0,11.62,11.62,0,0,0,0,9.52,3.32,3.32,0,0,0,5.6,0Z"/>
      <path class="cls-2" d="M943,469.85a8.14,8.14,0,0,1-3-3.49,14.27,14.27,0,0,1,0-10.89,8.08,8.08,0,0,1,3-3.49,8,8,0,0,1,11.66,3.49,14.27,14.27,0,0,1,0,10.89,8.08,8.08,0,0,1-3,3.49,8.45,8.45,0,0,1-8.68,0Zm7.16-4.18a11.62,11.62,0,0,0,0-9.52,3.32,3.32,0,0,0-5.6,0,11.51,11.51,0,0,0,0,9.52,3.32,3.32,0,0,0,5.6,0Z"/>
      <path class="cls-2" d="M962,469.85a8.14,8.14,0,0,1-3-3.49,14.27,14.27,0,0,1,0-10.89,8.08,8.08,0,0,1,3-3.49,8.45,8.45,0,0,1,8.68,0,8.1,8.1,0,0,1,3,3.49,14.39,14.39,0,0,1,0,10.89,8.16,8.16,0,0,1-3,3.49,8.45,8.45,0,0,1-8.68,0Zm7.16-4.18a11.62,11.62,0,0,0,0-9.52,3.32,3.32,0,0,0-5.6,0,11.62,11.62,0,0,0,0,9.52,3.32,3.32,0,0,0,5.6,0Z"/>
      <path class="cls-2" d="M981,469.85a8.16,8.16,0,0,1-3-3.49,14.39,14.39,0,0,1,0-10.89,8.1,8.1,0,0,1,3-3.49,8.45,8.45,0,0,1,8.68,0,8.15,8.15,0,0,1,3,3.49,14.27,14.27,0,0,1,0,10.89,8.21,8.21,0,0,1-3,3.49,8.45,8.45,0,0,1-8.68,0Zm7.15-4.18a11.62,11.62,0,0,0,0-9.52,3.32,3.32,0,0,0-5.6,0,11.62,11.62,0,0,0,0,9.52,3.32,3.32,0,0,0,5.6,0Z"/>
      <path class="cls-2" d="M1003.33,451.11v19.6h-4.54v-16h-3.92v-3.64Z"/>
      <path class="cls-2" d="M1014.31,451.11v19.6h-4.54v-16h-3.92v-3.64Z"/>
    </g>
    <g>
      <g>
        <path class="cls-1" d="M347.63,343.82l-5.37-10.23,12.52-1.1a32.86,32.86,0,0,0,30-33l-.23-23.1,1.87.07a1.6,1.6,0,0,0,1.17-.44,1.63,1.63,0,0,0,.48-1.16l-.42-36.55a3.42,3.42,0,0,0-3.94-3.35l-1.55.24-.88-7.45a34,34,0,0,0-33.9-30c-4.76,0-10.2.05-16.39.11,7-4.75,16.2-8.66,26.54-12.13,62.08,12.06,51.33,135.58,51.33,135.58l-31.3,32c-1.18-8.42-14.81-15.52-27.48-11.23a7.65,7.65,0,0,0-2.47,1.8l-5.48-10.56"/>
        <path class="cls-4" d="M357.53,185.67c-66.2,18.48-84.1,91.47-48.43,161.82l31.48,11.61"/>
        <line class="cls-4" x1="331.47" y1="355.74" x2="330.68" y2="380.08"/>
        <line class="cls-4" x1="380.29" y1="350.63" x2="378.06" y2="396.89"/>
        <path class="cls-8" d="M380.29,350.63l28.57-29.37C413.53,200,371,187.41,357.53,185.67c-38.54-5.07-97.75,3.84-108.42,31-16.75,43.36,16.51,127.21,16.51,127.21-19.11,23-17.79,44.94-17.79,87.46v96.47a19.16,19.16,0,0,0,9.4,16.48h0A93,93,0,0,0,338.08,551l47.8-18.48a14,14,0,0,0,9-12.9c.32-27.1.37-105.36-9.14-143.84"/>
        <path class="cls-9" d="M382,231.68l.2,3.48,2.4,41.19,1.07,18.35a36.32,36.32,0,0,1-34.15,38.38l-30.81,1.8a36,36,0,0,1-19-4.11,149.93,149.93,0,0,1-10.53-50.71,108.3,108.3,0,0,1,6.93-41.71,84.7,84.7,0,0,1,31.65-40l13.87-.8A36.33,36.33,0,0,1,382,231.68Z"/>
        <g>
          <path class="cls-10" d="M384.16,287.74a1,1,0,0,1-1.84.77,1,1,0,1,1,1.84-.77Z"/>
          <path class="cls-10" d="M384.16,287.74a1,1,0,0,1-1.84.77,1,1,0,1,1,1.84-.77Z"/>
          <path class="cls-10" d="M377.57,283.31a1,1,0,0,1-.54,1.31,1,1,0,0,1-.76-1.85A1,1,0,0,1,377.57,283.31Z"/>
          <path class="cls-10" d="M384.16,287.74a1,1,0,0,1-1.84.77,1,1,0,1,1,1.84-.77Z"/>
          <path class="cls-10" d="M380.09,289.42a1,1,0,0,1-.54,1.3,1,1,0,1,1,.54-1.3Z"/>
          <path class="cls-10" d="M380.87,285.53a1,1,0,1,1-1.31-.55A1,1,0,0,1,380.87,285.53Z"/>
          <path class="cls-10" d="M377.57,283.31a1,1,0,0,1-.54,1.31,1,1,0,0,1-.76-1.85A1,1,0,0,1,377.57,283.31Z"/>
          <path class="cls-10" d="M382.61,295.53a1,1,0,1,1-1.31-.54A1,1,0,0,1,382.61,295.53Z"/>
          <path class="cls-10" d="M383.38,291.63a1,1,0,1,1-1.3-.54A1,1,0,0,1,383.38,291.63Z"/>
          <path class="cls-10" d="M384.16,287.74a1,1,0,0,1-1.84.77,1,1,0,1,1,1.84-.77Z"/>
          <path class="cls-10" d="M380.09,289.42a1,1,0,0,1-.54,1.3,1,1,0,1,1,.54-1.3Z"/>
          <path class="cls-10" d="M382.61,295.53a1,1,0,1,1-1.31-.54A1,1,0,0,1,382.61,295.53Z"/>
          <path class="cls-10" d="M377.57,283.31a1,1,0,0,1-.54,1.31,1,1,0,0,1-.76-1.85A1,1,0,0,1,377.57,283.31Z"/>
          <path class="cls-10" d="M373.5,285a1,1,0,1,1-1.84.76,1,1,0,1,1,1.84-.76Z"/>
          <path class="cls-10" d="M380.09,289.42a1,1,0,0,1-.54,1.3,1,1,0,1,1,.54-1.3Z"/>
          <path class="cls-10" d="M376,291.1a1,1,0,1,1-1.3-.54A1,1,0,0,1,376,291.1Z"/>
          <path class="cls-10" d="M376.79,287.21A1,1,0,0,1,375,288a1,1,0,0,1,.54-1.31A1,1,0,0,1,376.79,287.21Z"/>
          <path class="cls-10" d="M377.57,283.31a1,1,0,0,1-.54,1.31,1,1,0,0,1-.76-1.85A1,1,0,0,1,377.57,283.31Z"/>
          <path class="cls-10" d="M373.5,285a1,1,0,1,1-1.84.76,1,1,0,1,1,1.84-.76Z"/>
          <path class="cls-10" d="M382.61,295.53a1,1,0,1,1-1.31-.54A1,1,0,0,1,382.61,295.53Z"/>
          <path class="cls-10" d="M378.54,297.21a1,1,0,1,1-1.31-.55A1,1,0,0,1,378.54,297.21Z"/>
          <path class="cls-10" d="M379.31,293.31a1,1,0,1,1-1.3-.54A1,1,0,0,1,379.31,293.31Z"/>
          <path class="cls-10" d="M380.09,289.42a1,1,0,0,1-.54,1.3,1,1,0,1,1,.54-1.3Z"/>
          <path class="cls-10" d="M376,291.1a1,1,0,1,1-1.3-.54A1,1,0,0,1,376,291.1Z"/>
          <path class="cls-10" d="M381.05,303.31a1,1,0,1,1-1.3-.54A1,1,0,0,1,381.05,303.31Z"/>
          <path class="cls-10" d="M381.83,299.42a1,1,0,1,1-1.3-.54A1,1,0,0,1,381.83,299.42Z"/>
          <path class="cls-10" d="M382.61,295.53a1,1,0,1,1-1.31-.54A1,1,0,0,1,382.61,295.53Z"/>
          <path class="cls-10" d="M378.54,297.21a1,1,0,1,1-1.31-.55A1,1,0,0,1,378.54,297.21Z"/>
          <path class="cls-10" d="M381.05,303.31a1,1,0,1,1-1.3-.54A1,1,0,0,1,381.05,303.31Z"/>
          <path class="cls-10" d="M373.5,285a1,1,0,1,1-1.84.76,1,1,0,1,1,1.84-.76Z"/>
          <path class="cls-10" d="M369.43,286.67a1,1,0,0,1-.54,1.3,1,1,0,1,1-.76-1.84A1,1,0,0,1,369.43,286.67Z"/>
          <path class="cls-10" d="M376,291.1a1,1,0,1,1-1.3-.54A1,1,0,0,1,376,291.1Z"/>
          <path class="cls-10" d="M372,292.78a1,1,0,0,1-.54,1.3,1,1,0,1,1,.54-1.3Z"/>
          <path class="cls-10" d="M372.73,288.88a1,1,0,0,1-.55,1.31,1,1,0,0,1-.76-1.85A1,1,0,0,1,372.73,288.88Z"/>
          <path class="cls-10" d="M373.5,285a1,1,0,1,1-1.84.76,1,1,0,1,1,1.84-.76Z"/>
          <path class="cls-10" d="M369.43,286.67a1,1,0,0,1-.54,1.3,1,1,0,1,1-.76-1.84A1,1,0,0,1,369.43,286.67Z"/>
          <path class="cls-10" d="M378.54,297.21a1,1,0,1,1-1.31-.55A1,1,0,0,1,378.54,297.21Z"/>
          <path class="cls-10" d="M374.47,298.88a1,1,0,0,1-.55,1.31,1,1,0,1,1,.55-1.31Z"/>
          <path class="cls-10" d="M375.24,295a1,1,0,1,1-1.3-.54A1,1,0,0,1,375.24,295Z"/>
          <path class="cls-10" d="M376,291.1a1,1,0,1,1-1.3-.54A1,1,0,0,1,376,291.1Z"/>
          <path class="cls-10" d="M372,292.78a1,1,0,0,1-.54,1.3,1,1,0,1,1,.54-1.3Z"/>
          <path class="cls-10" d="M381.05,303.31a1,1,0,1,1-1.3-.54A1,1,0,0,1,381.05,303.31Z"/>
          <path class="cls-10" d="M377,305a1,1,0,0,1-1.84.76A1,1,0,1,1,377,305Z"/>
          <path class="cls-10" d="M377.76,301.1a1,1,0,1,1-1.3-.54A1,1,0,0,1,377.76,301.1Z"/>
          <path class="cls-10" d="M378.54,297.21a1,1,0,1,1-1.31-.55A1,1,0,0,1,378.54,297.21Z"/>
          <path class="cls-10" d="M374.47,298.88a1,1,0,0,1-.55,1.31,1,1,0,1,1,.55-1.31Z"/>
          <path class="cls-10" d="M379.5,311.09a1,1,0,1,1-1.3-.54A1,1,0,0,1,379.5,311.09Z"/>
          <path class="cls-10" d="M380.28,307.2a1,1,0,1,1-1.31-.54A1,1,0,0,1,380.28,307.2Z"/>
          <path class="cls-10" d="M381.05,303.31a1,1,0,1,1-1.3-.54A1,1,0,0,1,381.05,303.31Z"/>
          <path class="cls-10" d="M377,305a1,1,0,0,1-1.84.76A1,1,0,1,1,377,305Z"/>
          <path class="cls-10" d="M379.5,311.09a1,1,0,1,1-1.3-.54A1,1,0,0,1,379.5,311.09Z"/>
          <path class="cls-10" d="M369.43,286.67a1,1,0,0,1-.54,1.3,1,1,0,1,1-.76-1.84A1,1,0,0,1,369.43,286.67Z"/>
          <path class="cls-10" d="M365.36,288.35a1,1,0,0,1-.54,1.3,1,1,0,1,1,.54-1.3Z"/>
          <path class="cls-10" d="M372,292.78a1,1,0,0,1-.54,1.3,1,1,0,1,1,.54-1.3Z"/>
          <path class="cls-10" d="M367.88,294.46a1,1,0,1,1-1.3-.55A1,1,0,0,1,367.88,294.46Z"/>
          <path class="cls-10" d="M368.65,290.56a1,1,0,0,1-.54,1.31,1,1,0,0,1-.76-1.85A1,1,0,0,1,368.65,290.56Z"/>
          <path class="cls-10" d="M369.43,286.67a1,1,0,0,1-.54,1.3,1,1,0,1,1-.76-1.84A1,1,0,0,1,369.43,286.67Z"/>
          <path class="cls-10" d="M365.36,288.35a1,1,0,0,1-.54,1.3,1,1,0,1,1,.54-1.3Z"/>
          <path class="cls-10" d="M374.47,298.88a1,1,0,0,1-.55,1.31,1,1,0,1,1,.55-1.31Z"/>
          <path class="cls-10" d="M370.39,300.56a1,1,0,1,1-1.3-.54A1,1,0,0,1,370.39,300.56Z"/>
          <path class="cls-10" d="M371.17,296.67a1,1,0,1,1-1.3-.54A1,1,0,0,1,371.17,296.67Z"/>
          <path class="cls-10" d="M372,292.78a1,1,0,0,1-.54,1.3,1,1,0,1,1,.54-1.3Z"/>
          <path class="cls-10" d="M367.88,294.46a1,1,0,1,1-1.3-.55A1,1,0,0,1,367.88,294.46Z"/>
          <path class="cls-10" d="M377,305a1,1,0,0,1-1.84.76A1,1,0,1,1,377,305Z"/>
          <path class="cls-10" d="M372.91,306.67a1,1,0,1,1-1.3-.55A1,1,0,0,1,372.91,306.67Z"/>
          <path class="cls-10" d="M373.68,302.78a1,1,0,0,1-.53,1.3,1,1,0,1,1-.76-1.85A1,1,0,0,1,373.68,302.78Z"/>
          <path class="cls-10" d="M374.47,298.88a1,1,0,0,1-.55,1.31,1,1,0,1,1,.55-1.31Z"/>
          <path class="cls-10" d="M370.39,300.56a1,1,0,1,1-1.3-.54A1,1,0,0,1,370.39,300.56Z"/>
          <path class="cls-10" d="M379.5,311.09a1,1,0,1,1-1.3-.54A1,1,0,0,1,379.5,311.09Z"/>
          <path class="cls-10" d="M375.43,312.77a1,1,0,1,1-1.3-.54A1,1,0,0,1,375.43,312.77Z"/>
          <path class="cls-10" d="M376.2,308.88a1,1,0,1,1-1.3-.54A1,1,0,0,1,376.2,308.88Z"/>
          <path class="cls-10" d="M377,305a1,1,0,0,1-1.84.76A1,1,0,1,1,377,305Z"/>
          <path class="cls-10" d="M372.91,306.67a1,1,0,1,1-1.3-.55A1,1,0,0,1,372.91,306.67Z"/>
          <path class="cls-10" d="M378.72,315a1,1,0,1,1-1.3-.54A1,1,0,0,1,378.72,315Z"/>
          <path class="cls-10" d="M379.5,311.09a1,1,0,1,1-1.3-.54A1,1,0,0,1,379.5,311.09Z"/>
          <path class="cls-10" d="M375.43,312.77a1,1,0,1,1-1.3-.54A1,1,0,0,1,375.43,312.77Z"/>
          <path class="cls-10" d="M365.36,288.35a1,1,0,0,1-.54,1.3,1,1,0,1,1,.54-1.3Z"/>
          <path class="cls-10" d="M361.29,290a1,1,0,0,1-1.84.76,1,1,0,1,1,1.84-.76Z"/>
          <path class="cls-10" d="M367.88,294.46a1,1,0,1,1-1.3-.55A1,1,0,0,1,367.88,294.46Z"/>
          <path class="cls-10" d="M363.81,296.14a1,1,0,0,1-.55,1.29,1,1,0,1,1-.76-1.84A1,1,0,0,1,363.81,296.14Z"/>
          <path class="cls-10" d="M364.58,292.24a1,1,0,1,1-1.3-.54A1,1,0,0,1,364.58,292.24Z"/>
          <path class="cls-10" d="M365.36,288.35a1,1,0,0,1-.54,1.3,1,1,0,1,1,.54-1.3Z"/>
          <path class="cls-10" d="M361.29,290a1,1,0,0,1-1.84.76,1,1,0,1,1,1.84-.76Z"/>
          <path class="cls-10" d="M370.39,300.56a1,1,0,1,1-1.3-.54A1,1,0,0,1,370.39,300.56Z"/>
          <path class="cls-10" d="M366.32,302.24a1,1,0,1,1-1.3-.54A1,1,0,0,1,366.32,302.24Z"/>
          <path class="cls-10" d="M367.1,298.35a1,1,0,0,1-1.84.76,1,1,0,1,1,1.84-.76Z"/>
          <path class="cls-10" d="M367.88,294.46a1,1,0,1,1-1.3-.55A1,1,0,0,1,367.88,294.46Z"/>
          <path class="cls-10" d="M363.81,296.14a1,1,0,0,1-.55,1.29,1,1,0,1,1-.76-1.84A1,1,0,0,1,363.81,296.14Z"/>
          <path class="cls-10" d="M372.91,306.67a1,1,0,1,1-1.3-.55A1,1,0,0,1,372.91,306.67Z"/>
          <path class="cls-10" d="M368.84,308.35a1,1,0,0,1-1.84.75,1,1,0,1,1,1.84-.75Z"/>
          <path class="cls-10" d="M370.39,300.56a1,1,0,1,1-1.3-.54A1,1,0,0,1,370.39,300.56Z"/>
          <path class="cls-10" d="M366.32,302.24a1,1,0,1,1-1.3-.54A1,1,0,0,1,366.32,302.24Z"/>
          <path class="cls-10" d="M375.43,312.77a1,1,0,1,1-1.3-.54A1,1,0,0,1,375.43,312.77Z"/>
          <path class="cls-10" d="M371.36,314.45a1,1,0,1,1-1.3-.54A1,1,0,0,1,371.36,314.45Z"/>
          <path class="cls-10" d="M372.13,310.56a1,1,0,1,1-1.84.76,1,1,0,1,1,1.84-.76Z"/>
          <path class="cls-10" d="M372.91,306.67a1,1,0,1,1-1.3-.55A1,1,0,0,1,372.91,306.67Z"/>
          <path class="cls-10" d="M368.84,308.35a1,1,0,0,1-1.84.75,1,1,0,1,1,1.84-.75Z"/>
          <path class="cls-10" d="M373.87,320.56a1,1,0,1,1-1.3-.54A1,1,0,0,1,373.87,320.56Z"/>
          <path class="cls-10" d="M374.65,316.67a1,1,0,0,1-1.84.76,1,1,0,1,1,1.84-.76Z"/>
          <path class="cls-10" d="M375.43,312.77a1,1,0,1,1-1.3-.54A1,1,0,0,1,375.43,312.77Z"/>
          <path class="cls-10" d="M371.36,314.45a1,1,0,1,1-1.3-.54A1,1,0,0,1,371.36,314.45Z"/>
          <path class="cls-10" d="M373.87,320.56a1,1,0,1,1-1.3-.54A1,1,0,0,1,373.87,320.56Z"/>
          <path class="cls-10" d="M354.7,285.6a1,1,0,0,1-.54,1.3,1,1,0,1,1-.76-1.84A1,1,0,0,1,354.7,285.6Z"/>
          <path class="cls-10" d="M361.29,290a1,1,0,0,1-1.84.76,1,1,0,1,1,1.84-.76Z"/>
          <path class="cls-10" d="M357.22,291.7a1,1,0,1,1-1.3-.54A1,1,0,0,1,357.22,291.7Z"/>
          <path class="cls-10" d="M358,287.81a1,1,0,1,1-1.3-.54A1,1,0,0,1,358,287.81Z"/>
          <path class="cls-10" d="M354.7,285.6a1,1,0,0,1-.54,1.3,1,1,0,1,1-.76-1.84A1,1,0,0,1,354.7,285.6Z"/>
          <path class="cls-10" d="M363.81,296.14a1,1,0,0,1-.55,1.29,1,1,0,1,1-.76-1.84A1,1,0,0,1,363.81,296.14Z"/>
          <path class="cls-10" d="M359.74,297.81a1,1,0,0,1-1.85.76,1,1,0,0,1,.54-1.3A1,1,0,0,1,359.74,297.81Z"/>
          <path class="cls-10" d="M360.51,293.92a1,1,0,0,1-.54,1.3,1,1,0,0,1-1.31-.54,1,1,0,0,1,.55-1.31A1,1,0,0,1,360.51,293.92Z"/>
          <path class="cls-10" d="M361.29,290a1,1,0,0,1-1.84.76,1,1,0,1,1,1.84-.76Z"/>
          <path class="cls-10" d="M357.22,291.7a1,1,0,1,1-1.3-.54A1,1,0,0,1,357.22,291.7Z"/>
          <path class="cls-10" d="M366.32,302.24a1,1,0,1,1-1.3-.54A1,1,0,0,1,366.32,302.24Z"/>
          <path class="cls-10" d="M362.25,303.92a1,1,0,1,1-1.84.76,1,1,0,1,1,1.84-.76Z"/>
          <path class="cls-10" d="M363,300a1,1,0,1,1-1.3-.54A1,1,0,0,1,363,300Z"/>
          <path class="cls-10" d="M363.81,296.14a1,1,0,0,1-.55,1.29,1,1,0,1,1-.76-1.84A1,1,0,0,1,363.81,296.14Z"/>
          <path class="cls-10" d="M359.74,297.81a1,1,0,0,1-1.85.76,1,1,0,0,1,.54-1.3A1,1,0,0,1,359.74,297.81Z"/>
          <path class="cls-10" d="M368.84,308.35a1,1,0,0,1-1.84.75,1,1,0,1,1,1.84-.75Z"/>
          <path class="cls-10" d="M364.77,310a1,1,0,1,1-1.3-.54A1,1,0,0,1,364.77,310Z"/>
          <path class="cls-10" d="M366.32,302.24a1,1,0,1,1-1.3-.54A1,1,0,0,1,366.32,302.24Z"/>
          <path class="cls-10" d="M362.25,303.92a1,1,0,1,1-1.84.76,1,1,0,1,1,1.84-.76Z"/>
          <path class="cls-10" d="M371.36,314.45a1,1,0,1,1-1.3-.54A1,1,0,0,1,371.36,314.45Z"/>
          <path class="cls-10" d="M367.29,316.13a1,1,0,1,1-1.3-.54A1,1,0,0,1,367.29,316.13Z"/>
          <path class="cls-10" d="M368.06,312.24a1,1,0,1,1-1.84.76,1,1,0,1,1,1.84-.76Z"/>
          <path class="cls-10" d="M368.84,308.35a1,1,0,0,1-1.84.75,1,1,0,1,1,1.84-.75Z"/>
          <path class="cls-10" d="M364.77,310a1,1,0,1,1-1.3-.54A1,1,0,0,1,364.77,310Z"/>
          <path class="cls-10" d="M373.87,320.56a1,1,0,1,1-1.3-.54A1,1,0,0,1,373.87,320.56Z"/>
          <path class="cls-10" d="M369.8,322.23a1,1,0,0,1-.54,1.3A1,1,0,0,1,368,323a1,1,0,0,1,.54-1.3A1,1,0,0,1,369.8,322.23Z"/>
          <path class="cls-10" d="M370.58,318.34a1,1,0,1,1-1.3-.54A1,1,0,0,1,370.58,318.34Z"/>
          <path class="cls-10" d="M371.36,314.45a1,1,0,1,1-1.3-.54A1,1,0,0,1,371.36,314.45Z"/>
          <path class="cls-10" d="M367.29,316.13a1,1,0,1,1-1.3-.54A1,1,0,0,1,367.29,316.13Z"/>
          <path class="cls-10" d="M373.87,320.56a1,1,0,1,1-1.3-.54A1,1,0,0,1,373.87,320.56Z"/>
          <path class="cls-10" d="M369.8,322.23a1,1,0,0,1-.54,1.3A1,1,0,0,1,368,323a1,1,0,0,1,.54-1.3A1,1,0,0,1,369.8,322.23Z"/>
          <path class="cls-10" d="M354.7,285.6a1,1,0,0,1-.54,1.3,1,1,0,1,1-.76-1.84A1,1,0,0,1,354.7,285.6Z"/>
          <path class="cls-10" d="M350.63,287.28a1,1,0,1,1-1.3-.54A1,1,0,0,1,350.63,287.28Z"/>
          <path class="cls-10" d="M357.22,291.7a1,1,0,1,1-1.3-.54A1,1,0,0,1,357.22,291.7Z"/>
          <path class="cls-10" d="M353.15,293.38a1,1,0,1,1-1.31-.54A1,1,0,0,1,353.15,293.38Z"/>
          <path class="cls-10" d="M353.93,289.49a1,1,0,1,1-1.31-.54A1,1,0,0,1,353.93,289.49Z"/>
          <path class="cls-10" d="M354.7,285.6a1,1,0,0,1-.54,1.3,1,1,0,1,1-.76-1.84A1,1,0,0,1,354.7,285.6Z"/>
          <path class="cls-10" d="M350.63,287.28a1,1,0,1,1-1.3-.54A1,1,0,0,1,350.63,287.28Z"/>
          <path class="cls-10" d="M359.74,297.81a1,1,0,0,1-1.85.76,1,1,0,0,1,.54-1.3A1,1,0,0,1,359.74,297.81Z"/>
          <path class="cls-10" d="M355.67,299.49a1,1,0,1,1-1.31-.54A1,1,0,0,1,355.67,299.49Z"/>
          <path class="cls-10" d="M356.44,295.6a1,1,0,1,1-1.84.76,1,1,0,1,1,1.84-.76Z"/>
          <path class="cls-10" d="M357.22,291.7a1,1,0,1,1-1.3-.54A1,1,0,0,1,357.22,291.7Z"/>
          <path class="cls-10" d="M353.15,293.38a1,1,0,1,1-1.31-.54A1,1,0,0,1,353.15,293.38Z"/>
          <path class="cls-10" d="M362.25,303.92a1,1,0,1,1-1.84.76,1,1,0,1,1,1.84-.76Z"/>
          <path class="cls-10" d="M359,301.7a1,1,0,0,1-.54,1.3,1,1,0,1,1-.76-1.84A1,1,0,0,1,359,301.7Z"/>
          <path class="cls-10" d="M359.74,297.81a1,1,0,0,1-1.85.76,1,1,0,0,1,.54-1.3A1,1,0,0,1,359.74,297.81Z"/>
          <path class="cls-10" d="M355.67,299.49a1,1,0,1,1-1.31-.54A1,1,0,0,1,355.67,299.49Z"/>
          <path class="cls-10" d="M364.77,310a1,1,0,1,1-1.3-.54A1,1,0,0,1,364.77,310Z"/>
          <path class="cls-10" d="M360.7,311.7a1,1,0,1,1-1.31-.54A1,1,0,0,1,360.7,311.7Z"/>
          <path class="cls-10" d="M362.25,303.92a1,1,0,1,1-1.84.76,1,1,0,1,1,1.84-.76Z"/>
          <path class="cls-10" d="M367.29,316.13a1,1,0,1,1-1.3-.54A1,1,0,0,1,367.29,316.13Z"/>
          <path class="cls-10" d="M363.22,317.81a1,1,0,1,1-1.31-.54A1,1,0,0,1,363.22,317.81Z"/>
          <path class="cls-10" d="M364,313.91a1,1,0,1,1-1.3-.54A1,1,0,0,1,364,313.91Z"/>
          <path class="cls-10" d="M364.77,310a1,1,0,1,1-1.3-.54A1,1,0,0,1,364.77,310Z"/>
          <path class="cls-10" d="M360.7,311.7a1,1,0,1,1-1.31-.54A1,1,0,0,1,360.7,311.7Z"/>
          <path class="cls-10" d="M369.8,322.23a1,1,0,0,1-.54,1.3A1,1,0,0,1,368,323a1,1,0,0,1,.54-1.3A1,1,0,0,1,369.8,322.23Z"/>
          <path class="cls-10" d="M365.73,323.91a1,1,0,1,1-1.3-.54A1,1,0,0,1,365.73,323.91Z"/>
          <path class="cls-10" d="M366.51,320a1,1,0,0,1-.54,1.3,1,1,0,1,1-.76-1.84A1,1,0,0,1,366.51,320Z"/>
          <path class="cls-10" d="M367.29,316.13a1,1,0,1,1-1.3-.54A1,1,0,0,1,367.29,316.13Z"/>
          <path class="cls-10" d="M363.22,317.81a1,1,0,1,1-1.31-.54A1,1,0,0,1,363.22,317.81Z"/>
          <path class="cls-10" d="M369.8,322.23a1,1,0,0,1-.54,1.3A1,1,0,0,1,368,323a1,1,0,0,1,.54-1.3A1,1,0,0,1,369.8,322.23Z"/>
          <path class="cls-10" d="M365.73,323.91a1,1,0,1,1-1.3-.54A1,1,0,0,1,365.73,323.91Z"/>
          <path class="cls-10" d="M350.63,287.28a1,1,0,1,1-1.3-.54A1,1,0,0,1,350.63,287.28Z"/>
          <path class="cls-10" d="M346.56,289a1,1,0,1,1-1.3-.54A1,1,0,0,1,346.56,289Z"/>
          <path class="cls-10" d="M347.34,285.06a1,1,0,1,1-1.31-.54A1,1,0,0,1,347.34,285.06Z"/>
          <path class="cls-10" d="M353.15,293.38a1,1,0,1,1-1.31-.54A1,1,0,0,1,353.15,293.38Z"/>
          <path class="cls-10" d="M349.08,295.06a1,1,0,1,1-1.31-.54A1,1,0,0,1,349.08,295.06Z"/>
          <path class="cls-10" d="M349.86,291.17a1,1,0,1,1-1.31-.54A1,1,0,0,1,349.86,291.17Z"/>
          <path class="cls-10" d="M350.63,287.28a1,1,0,1,1-1.3-.54A1,1,0,0,1,350.63,287.28Z"/>
          <path class="cls-10" d="M346.56,289a1,1,0,1,1-1.3-.54A1,1,0,0,1,346.56,289Z"/>
          <path class="cls-10" d="M355.67,299.49a1,1,0,1,1-1.31-.54A1,1,0,0,1,355.67,299.49Z"/>
          <path class="cls-10" d="M351.6,301.17a1,1,0,0,1-.55,1.3,1,1,0,0,1-1.3-.54,1,1,0,1,1,1.85-.76Z"/>
          <path class="cls-10" d="M352.37,297.27a1,1,0,1,1-1.85.77,1,1,0,0,1,.55-1.31A1,1,0,0,1,352.37,297.27Z"/>
          <path class="cls-10" d="M353.15,293.38a1,1,0,1,1-1.31-.54A1,1,0,0,1,353.15,293.38Z"/>
          <path class="cls-10" d="M349.08,295.06a1,1,0,1,1-1.31-.54A1,1,0,0,1,349.08,295.06Z"/>
          <path class="cls-10" d="M355.67,299.49a1,1,0,1,1-1.31-.54A1,1,0,0,1,355.67,299.49Z"/>
          <path class="cls-10" d="M351.6,301.17a1,1,0,0,1-.55,1.3,1,1,0,0,1-1.3-.54,1,1,0,1,1,1.85-.76Z"/>
          <path class="cls-10" d="M360.7,311.7a1,1,0,1,1-1.31-.54A1,1,0,0,1,360.7,311.7Z"/>
          <path class="cls-10" d="M356.63,313.38a1,1,0,1,1-1.31-.54A1,1,0,0,1,356.63,313.38Z"/>
          <path class="cls-10" d="M363.22,317.81a1,1,0,1,1-1.31-.54A1,1,0,0,1,363.22,317.81Z"/>
          <path class="cls-10" d="M359.15,319.48a1,1,0,1,1-1.31-.54A1,1,0,0,1,359.15,319.48Z"/>
          <path class="cls-10" d="M359.92,315.59a1,1,0,1,1-1.3-.54A1,1,0,0,1,359.92,315.59Z"/>
          <path class="cls-10" d="M360.7,311.7a1,1,0,1,1-1.31-.54A1,1,0,0,1,360.7,311.7Z"/>
          <path class="cls-10" d="M356.63,313.38a1,1,0,1,1-1.31-.54A1,1,0,0,1,356.63,313.38Z"/>
          <path class="cls-10" d="M365.73,323.91a1,1,0,1,1-1.3-.54A1,1,0,0,1,365.73,323.91Z"/>
          <path class="cls-10" d="M361.66,325.59a1,1,0,1,1-1.3-.54A1,1,0,0,1,361.66,325.59Z"/>
          <path class="cls-10" d="M362.44,321.7a1,1,0,0,1-1.85.76,1,1,0,0,1,1.85-.76Z"/>
          <path class="cls-10" d="M363.22,317.81a1,1,0,1,1-1.31-.54A1,1,0,0,1,363.22,317.81Z"/>
          <path class="cls-10" d="M359.15,319.48a1,1,0,1,1-1.31-.54A1,1,0,0,1,359.15,319.48Z"/>
          <path class="cls-10" d="M365.73,323.91a1,1,0,1,1-1.3-.54A1,1,0,0,1,365.73,323.91Z"/>
          <path class="cls-10" d="M361.66,325.59a1,1,0,1,1-1.3-.54A1,1,0,0,1,361.66,325.59Z"/>
          <path class="cls-10" d="M340,284.52a1,1,0,1,1-1.3-.53A1,1,0,0,1,340,284.52Z"/>
          <path class="cls-10" d="M346.56,289a1,1,0,1,1-1.3-.54A1,1,0,0,1,346.56,289Z"/>
          <path class="cls-10" d="M342.49,290.63a1,1,0,1,1-1.84.76,1,1,0,1,1,1.84-.76Z"/>
          <path class="cls-10" d="M343.27,286.74a1,1,0,1,1-1.31-.54A1,1,0,0,1,343.27,286.74Z"/>
          <path class="cls-10" d="M340,284.52a1,1,0,1,1-1.3-.53A1,1,0,0,1,340,284.52Z"/>
          <path class="cls-10" d="M349.08,295.06a1,1,0,1,1-1.31-.54A1,1,0,0,1,349.08,295.06Z"/>
          <path class="cls-10" d="M345,296.74a1,1,0,1,1-1.31-.54A1,1,0,0,1,345,296.74Z"/>
          <path class="cls-10" d="M345.78,292.85a1,1,0,0,1-1.84.76,1,1,0,1,1,1.84-.76Z"/>
          <path class="cls-10" d="M346.56,289a1,1,0,1,1-1.3-.54A1,1,0,0,1,346.56,289Z"/>
          <path class="cls-10" d="M342.49,290.63a1,1,0,1,1-1.84.76,1,1,0,1,1,1.84-.76Z"/>
          <path class="cls-10" d="M351.6,301.17a1,1,0,0,1-.55,1.3,1,1,0,0,1-1.3-.54,1,1,0,1,1,1.85-.76Z"/>
          <path class="cls-10" d="M348.3,299a1,1,0,0,1-1.85.76,1,1,0,0,1,.55-1.3A1,1,0,0,1,348.3,299Z"/>
          <path class="cls-10" d="M349.08,295.06a1,1,0,1,1-1.31-.54A1,1,0,0,1,349.08,295.06Z"/>
          <path class="cls-10" d="M345,296.74a1,1,0,1,1-1.31-.54A1,1,0,0,1,345,296.74Z"/>
          <path class="cls-10" d="M351.6,301.17a1,1,0,0,1-.55,1.3,1,1,0,0,1-1.3-.54,1,1,0,1,1,1.85-.76Z"/>
          <path class="cls-10" d="M356.63,313.38a1,1,0,1,1-1.31-.54A1,1,0,0,1,356.63,313.38Z"/>
          <path class="cls-10" d="M352.56,315.06a1,1,0,0,1-1.85.76,1,1,0,1,1,1.85-.76Z"/>
          <path class="cls-10" d="M359.15,319.48a1,1,0,1,1-1.31-.54A1,1,0,0,1,359.15,319.48Z"/>
          <path class="cls-10" d="M355.07,321.16a1,1,0,1,1-1.84.76,1,1,0,1,1,1.84-.76Z"/>
          <path class="cls-10" d="M355.85,317.27a1,1,0,1,1-1.3-.54A1,1,0,0,1,355.85,317.27Z"/>
          <path class="cls-10" d="M356.63,313.38a1,1,0,1,1-1.31-.54A1,1,0,0,1,356.63,313.38Z"/>
          <path class="cls-10" d="M352.56,315.06a1,1,0,0,1-1.85.76,1,1,0,1,1,1.85-.76Z"/>
          <path class="cls-10" d="M361.66,325.59a1,1,0,1,1-1.3-.54A1,1,0,0,1,361.66,325.59Z"/>
          <path class="cls-10" d="M357.59,327.27a1,1,0,1,1-1.3-.54A1,1,0,0,1,357.59,327.27Z"/>
          <path class="cls-10" d="M358.37,323.38a1,1,0,0,1-.54,1.3,1,1,0,1,1-.76-1.84A1,1,0,0,1,358.37,323.38Z"/>
          <path class="cls-10" d="M359.15,319.48a1,1,0,1,1-1.31-.54A1,1,0,0,1,359.15,319.48Z"/>
          <path class="cls-10" d="M355.07,321.16a1,1,0,1,1-1.84.76,1,1,0,1,1,1.84-.76Z"/>
          <path class="cls-10" d="M361.66,325.59a1,1,0,1,1-1.3-.54A1,1,0,0,1,361.66,325.59Z"/>
          <path class="cls-10" d="M357.59,327.27a1,1,0,1,1-1.3-.54A1,1,0,0,1,357.59,327.27Z"/>
          <path class="cls-10" d="M340,284.52a1,1,0,1,1-1.3-.53A1,1,0,0,1,340,284.52Z"/>
          <path class="cls-10" d="M335.9,286.2a1,1,0,0,1-.54,1.31,1,1,0,0,1-.76-1.85A1,1,0,0,1,335.9,286.2Z"/>
          <path class="cls-10" d="M342.49,290.63a1,1,0,1,1-1.84.76,1,1,0,1,1,1.84-.76Z"/>
          <path class="cls-10" d="M338.42,292.31a1,1,0,0,1-.54,1.3,1,1,0,1,1-.76-1.84A1,1,0,0,1,338.42,292.31Z"/>
          <path class="cls-10" d="M339.2,288.42a1,1,0,1,1-1.31-.55A1,1,0,0,1,339.2,288.42Z"/>
          <path class="cls-10" d="M340,284.52a1,1,0,1,1-1.3-.53A1,1,0,0,1,340,284.52Z"/>
          <path class="cls-10" d="M335.9,286.2a1,1,0,0,1-.54,1.31,1,1,0,0,1-.76-1.85A1,1,0,0,1,335.9,286.2Z"/>
          <path class="cls-10" d="M345,296.74a1,1,0,1,1-1.31-.54A1,1,0,0,1,345,296.74Z"/>
          <path class="cls-10" d="M341.71,294.52a1,1,0,0,1-.54,1.31,1,1,0,0,1-1.3-.54,1,1,0,1,1,1.84-.77Z"/>
          <path class="cls-10" d="M342.49,290.63a1,1,0,1,1-1.84.76,1,1,0,1,1,1.84-.76Z"/>
          <path class="cls-10" d="M338.42,292.31a1,1,0,0,1-.54,1.3,1,1,0,1,1-.76-1.84A1,1,0,0,1,338.42,292.31Z"/>
          <path class="cls-10" d="M345,296.74a1,1,0,1,1-1.31-.54A1,1,0,0,1,345,296.74Z"/>
          <path class="cls-10" d="M344.23,300.63a1,1,0,1,1-1.31-.54A1,1,0,0,1,344.23,300.63Z"/>
          <path class="cls-10" d="M347.52,302.85a1,1,0,1,1-1.3-.55A1,1,0,0,1,347.52,302.85Z"/>
          <path class="cls-10" d="M340.16,302.31a1,1,0,0,1-.54,1.3,1,1,0,1,1,.54-1.3Z"/>
          <path class="cls-10" d="M340.93,298.42a1,1,0,0,1-.54,1.3,1,1,0,0,1-1.3-.54,1,1,0,0,1,.54-1.31A1,1,0,0,1,340.93,298.42Z"/>
          <path class="cls-10" d="M343.45,304.53a1,1,0,0,1-.54,1.29,1,1,0,1,1,.54-1.29Z"/>
          <path class="cls-10" d="M336.18,304a1,1,0,0,1-1.84.76,1,1,0,0,1,.54-1.31A1,1,0,0,1,336.18,304Z"/>
          <path class="cls-10" d="M339.48,306.16a1,1,0,1,1-1.31-.54A1,1,0,0,1,339.48,306.16Z"/>
          <path class="cls-10" d="M336.86,300.09a1,1,0,1,1-1.3-.54A1,1,0,0,1,336.86,300.09Z"/>
          <path class="cls-10" d="M358.18,305.6a1,1,0,0,1-1.84.76,1,1,0,1,1,1.84-.76Z"/>
          <path class="cls-10" d="M361.48,307.81a1,1,0,1,1-1.31-.54A1,1,0,0,1,361.48,307.81Z"/>
          <path class="cls-10" d="M365.55,306.14a1,1,0,0,1-.55,1.3,1,1,0,1,1,.55-1.3Z"/>
          <path class="cls-10" d="M369.62,304.46a1,1,0,0,1-1.85.76,1,1,0,1,1,1.85-.76Z"/>
          <path class="cls-10" d="M354.89,303.38a1,1,0,1,1-1.31-.54A1,1,0,0,1,354.89,303.38Z"/>
          <path class="cls-10" d="M354.11,307.27a1,1,0,1,1-1.3-.54A1,1,0,0,1,354.11,307.27Z"/>
          <path class="cls-10" d="M357.41,309.49a1,1,0,1,1-1.31-.54A1,1,0,0,1,357.41,309.49Z"/>
          <path class="cls-10" d="M350,309a1,1,0,0,1-.54,1.31A1,1,0,1,1,350,309Z"/>
          <path class="cls-10" d="M350.82,305.06a1,1,0,1,1-1.31-.54A1,1,0,0,1,350.82,305.06Z"/>
          <path class="cls-10" d="M353.34,311.17a1,1,0,0,1-1.85.76,1,1,0,1,1,1.85-.76Z"/>
          <path class="cls-10" d="M346.75,306.74a1,1,0,1,1-1.31-.54A1,1,0,0,1,346.75,306.74Z"/>
          <path class="cls-10" d="M346,310.63a1,1,0,1,1-1.3-.54A1,1,0,0,1,346,310.63Z"/>
          <path class="cls-10" d="M352.56,315.06a1,1,0,0,1-1.85.76,1,1,0,1,1,1.85-.76Z"/>
          <path class="cls-10" d="M348.49,316.73a1,1,0,0,1-.55,1.3,1,1,0,0,1-1.3-.53,1,1,0,0,1,1.85-.77Z"/>
          <path class="cls-10" d="M349.27,312.84a1,1,0,0,1-.55,1.31,1,1,0,1,1,.55-1.31Z"/>
          <path class="cls-10" d="M346,310.63a1,1,0,1,1-1.3-.54A1,1,0,0,1,346,310.63Z"/>
          <path class="cls-10" d="M355.07,321.16a1,1,0,1,1-1.84.76,1,1,0,1,1,1.84-.76Z"/>
          <path class="cls-10" d="M351,322.84a1,1,0,1,1-1.84.76,1,1,0,0,1,1.84-.76Z"/>
          <path class="cls-10" d="M351.78,319a1,1,0,0,1-.54,1.3,1,1,0,0,1-1.31-.54,1,1,0,0,1,1.85-.76Z"/>
          <path class="cls-10" d="M352.56,315.06a1,1,0,0,1-1.85.76,1,1,0,1,1,1.85-.76Z"/>
          <path class="cls-10" d="M348.49,316.73a1,1,0,0,1-.55,1.3,1,1,0,0,1-1.3-.53,1,1,0,0,1,1.85-.77Z"/>
          <path class="cls-10" d="M357.59,327.27a1,1,0,1,1-1.3-.54A1,1,0,0,1,357.59,327.27Z"/>
          <path class="cls-10" d="M353.52,329a1,1,0,1,1-1.3-.54A1,1,0,0,1,353.52,329Z"/>
          <path class="cls-10" d="M354.3,325.05a1,1,0,1,1-1.3-.54A1,1,0,0,1,354.3,325.05Z"/>
          <path class="cls-10" d="M355.07,321.16a1,1,0,1,1-1.84.76,1,1,0,1,1,1.84-.76Z"/>
          <path class="cls-10" d="M351,322.84a1,1,0,1,1-1.84.76,1,1,0,0,1,1.84-.76Z"/>
          <path class="cls-10" d="M357.59,327.27a1,1,0,1,1-1.3-.54A1,1,0,0,1,357.59,327.27Z"/>
          <path class="cls-10" d="M353.52,329a1,1,0,1,1-1.3-.54A1,1,0,0,1,353.52,329Z"/>
          <path class="cls-10" d="M335.9,286.2a1,1,0,0,1-.54,1.31,1,1,0,0,1-.76-1.85A1,1,0,0,1,335.9,286.2Z"/>
          <path class="cls-10" d="M331.83,287.88a1,1,0,1,1-1.3-.54A1,1,0,0,1,331.83,287.88Z"/>
          <path class="cls-10" d="M338.42,292.31a1,1,0,0,1-.54,1.3,1,1,0,1,1-.76-1.84A1,1,0,0,1,338.42,292.31Z"/>
          <path class="cls-10" d="M334.35,294a1,1,0,1,1-1.31-.54A1,1,0,0,1,334.35,294Z"/>
          <path class="cls-10" d="M335.13,290.1a1,1,0,1,1-1.31-.55A1,1,0,0,1,335.13,290.1Z"/>
          <path class="cls-10" d="M335.9,286.2a1,1,0,0,1-.54,1.31,1,1,0,0,1-.76-1.85A1,1,0,0,1,335.9,286.2Z"/>
          <path class="cls-10" d="M331.83,287.88a1,1,0,1,1-1.3-.54A1,1,0,0,1,331.83,287.88Z"/>
          <path class="cls-10" d="M337.64,296.2a1,1,0,1,1-1.3-.54A1,1,0,0,1,337.64,296.2Z"/>
          <path class="cls-10" d="M338.42,292.31a1,1,0,0,1-.54,1.3,1,1,0,1,1-.76-1.84A1,1,0,0,1,338.42,292.31Z"/>
          <path class="cls-10" d="M334.35,294a1,1,0,1,1-1.31-.54A1,1,0,0,1,334.35,294Z"/>
          <path class="cls-10" d="M346,310.63a1,1,0,1,1-1.3-.54A1,1,0,0,1,346,310.63Z"/>
          <path class="cls-10" d="M341.9,312.31a1,1,0,1,1-1.3-.54A1,1,0,0,1,341.9,312.31Z"/>
          <path class="cls-10" d="M348.49,316.73a1,1,0,0,1-.55,1.3,1,1,0,0,1-1.3-.53,1,1,0,0,1,1.85-.77Z"/>
          <path class="cls-10" d="M344.42,318.41a1,1,0,0,1-.55,1.3,1,1,0,1,1-.76-1.84A1,1,0,0,1,344.42,318.41Z"/>
          <path class="cls-10" d="M345.19,314.52a1,1,0,1,1-1.3-.54A1,1,0,0,1,345.19,314.52Z"/>
          <path class="cls-10" d="M346,310.63a1,1,0,1,1-1.3-.54A1,1,0,0,1,346,310.63Z"/>
          <path class="cls-10" d="M341.9,312.31a1,1,0,1,1-1.3-.54A1,1,0,0,1,341.9,312.31Z"/>
          <path class="cls-10" d="M351,322.84a1,1,0,1,1-1.84.76,1,1,0,0,1,1.84-.76Z"/>
          <path class="cls-10" d="M346.93,324.52a1,1,0,1,1-1.3-.54A1,1,0,0,1,346.93,324.52Z"/>
          <path class="cls-10" d="M347.71,320.63a1,1,0,0,1-1.84.76,1,1,0,1,1,1.84-.76Z"/>
          <path class="cls-10" d="M348.49,316.73a1,1,0,0,1-.55,1.3,1,1,0,0,1-1.3-.53,1,1,0,0,1,1.85-.77Z"/>
          <path class="cls-10" d="M344.42,318.41a1,1,0,0,1-.55,1.3,1,1,0,1,1-.76-1.84A1,1,0,0,1,344.42,318.41Z"/>
          <path class="cls-10" d="M353.52,329a1,1,0,1,1-1.3-.54A1,1,0,0,1,353.52,329Z"/>
          <path class="cls-10" d="M350.23,326.73a1,1,0,1,1-1.3-.54A1,1,0,0,1,350.23,326.73Z"/>
          <path class="cls-10" d="M351,322.84a1,1,0,1,1-1.84.76,1,1,0,0,1,1.84-.76Z"/>
          <path class="cls-10" d="M346.93,324.52a1,1,0,1,1-1.3-.54A1,1,0,0,1,346.93,324.52Z"/>
          <path class="cls-10" d="M353.52,329a1,1,0,1,1-1.3-.54A1,1,0,0,1,353.52,329Z"/>
          <path class="cls-10" d="M331.83,287.88a1,1,0,1,1-1.3-.54A1,1,0,0,1,331.83,287.88Z"/>
          <path class="cls-10" d="M327.76,289.56a1,1,0,0,1-.54,1.3,1,1,0,1,1-.76-1.84A1,1,0,0,1,327.76,289.56Z"/>
          <path class="cls-10" d="M334.35,294a1,1,0,1,1-1.31-.54A1,1,0,0,1,334.35,294Z"/>
          <path class="cls-10" d="M330.28,295.66a1,1,0,0,1-1.85.77,1,1,0,0,1,.55-1.3A1,1,0,0,1,330.28,295.66Z"/>
          <path class="cls-10" d="M331.06,291.78a1,1,0,1,1-1.31-.55A1,1,0,0,1,331.06,291.78Z"/>
          <path class="cls-10" d="M331.83,287.88a1,1,0,1,1-1.3-.54A1,1,0,0,1,331.83,287.88Z"/>
          <path class="cls-10" d="M327.76,289.56a1,1,0,0,1-.54,1.3,1,1,0,1,1-.76-1.84A1,1,0,0,1,327.76,289.56Z"/>
          <path class="cls-10" d="M332.8,301.77a1,1,0,0,1-.55,1.31,1,1,0,1,1,.55-1.31Z"/>
          <path class="cls-10" d="M333.57,297.88a1,1,0,1,1-1.3-.54A1,1,0,0,1,333.57,297.88Z"/>
          <path class="cls-10" d="M334.35,294a1,1,0,1,1-1.31-.54A1,1,0,0,1,334.35,294Z"/>
          <path class="cls-10" d="M330.28,295.66a1,1,0,0,1-1.85.77,1,1,0,0,1,.55-1.3A1,1,0,0,1,330.28,295.66Z"/>
          <path class="cls-10" d="M335.31,307.88a1,1,0,1,1-1.3-.54A1,1,0,0,1,335.31,307.88Z"/>
          <path class="cls-10" d="M332.8,301.77a1,1,0,0,1-.55,1.31,1,1,0,1,1,.55-1.31Z"/>
          <path class="cls-10" d="M341.9,312.31a1,1,0,1,1-1.3-.54A1,1,0,0,1,341.9,312.31Z"/>
          <path class="cls-10" d="M337.83,314a1,1,0,1,1-1.3-.55A1,1,0,0,1,337.83,314Z"/>
          <path class="cls-10" d="M338.6,310.09a1,1,0,1,1-1.84.76,1,1,0,1,1,1.84-.76Z"/>
          <path class="cls-10" d="M342.67,308.41a1,1,0,1,1-1.3-.54A1,1,0,0,1,342.67,308.41Z"/>
          <path class="cls-10" d="M335.31,307.88a1,1,0,1,1-1.3-.54A1,1,0,0,1,335.31,307.88Z"/>
          <path class="cls-10" d="M344.42,318.41a1,1,0,0,1-.55,1.3,1,1,0,1,1-.76-1.84A1,1,0,0,1,344.42,318.41Z"/>
          <path class="cls-10" d="M340.35,320.09a1,1,0,1,1-1.31-.54A1,1,0,0,1,340.35,320.09Z"/>
          <path class="cls-10" d="M341.12,316.2a1,1,0,1,1-1.3-.54A1,1,0,0,1,341.12,316.2Z"/>
          <path class="cls-10" d="M341.9,312.31a1,1,0,1,1-1.3-.54A1,1,0,0,1,341.9,312.31Z"/>
          <path class="cls-10" d="M337.83,314a1,1,0,1,1-1.3-.55A1,1,0,0,1,337.83,314Z"/>
          <path class="cls-10" d="M346.93,324.52a1,1,0,1,1-1.3-.54A1,1,0,0,1,346.93,324.52Z"/>
          <path class="cls-10" d="M342.86,326.2a1,1,0,1,1-1.3-.54A1,1,0,0,1,342.86,326.2Z"/>
          <path class="cls-10" d="M343.64,322.31a1,1,0,1,1-1.3-.55A1,1,0,0,1,343.64,322.31Z"/>
          <path class="cls-10" d="M344.42,318.41a1,1,0,0,1-.55,1.3,1,1,0,1,1-.76-1.84A1,1,0,0,1,344.42,318.41Z"/>
          <path class="cls-10" d="M340.35,320.09a1,1,0,1,1-1.31-.54A1,1,0,0,1,340.35,320.09Z"/>
          <path class="cls-10" d="M346.16,328.41a1,1,0,1,1-1.31-.54A1,1,0,0,1,346.16,328.41Z"/>
          <path class="cls-10" d="M346.93,324.52a1,1,0,1,1-1.3-.54A1,1,0,0,1,346.93,324.52Z"/>
          <path class="cls-10" d="M342.86,326.2a1,1,0,1,1-1.3-.54A1,1,0,0,1,342.86,326.2Z"/>
          <path class="cls-10" d="M327.76,289.56a1,1,0,0,1-.54,1.3,1,1,0,1,1-.76-1.84A1,1,0,0,1,327.76,289.56Z"/>
          <path class="cls-10" d="M323.69,291.24a1,1,0,0,1-.54,1.3,1,1,0,1,1-.76-1.84A1,1,0,0,1,323.69,291.24Z"/>
          <path class="cls-10" d="M330.28,295.66a1,1,0,0,1-1.85.77,1,1,0,0,1,.55-1.3A1,1,0,0,1,330.28,295.66Z"/>
          <path class="cls-10" d="M326.21,297.34a1,1,0,0,1-.55,1.31,1,1,0,0,1-.75-1.85A1,1,0,0,1,326.21,297.34Z"/>
          <path class="cls-10" d="M327,293.45a1,1,0,1,1-1.3-.54A1,1,0,0,1,327,293.45Z"/>
          <path class="cls-10" d="M327.76,289.56a1,1,0,0,1-.54,1.3,1,1,0,1,1-.76-1.84A1,1,0,0,1,327.76,289.56Z"/>
          <path class="cls-10" d="M323.69,291.24a1,1,0,0,1-.54,1.3,1,1,0,1,1-.76-1.84A1,1,0,0,1,323.69,291.24Z"/>
          <path class="cls-10" d="M332.8,301.77a1,1,0,0,1-.55,1.31,1,1,0,1,1,.55-1.31Z"/>
          <path class="cls-10" d="M328.72,303.45a1,1,0,1,1-1.3-.54A1,1,0,0,1,328.72,303.45Z"/>
          <path class="cls-10" d="M329.5,299.56a1,1,0,1,1-1.3-.54A1,1,0,0,1,329.5,299.56Z"/>
          <path class="cls-10" d="M330.28,295.66a1,1,0,0,1-1.85.77,1,1,0,0,1,.55-1.3A1,1,0,0,1,330.28,295.66Z"/>
          <path class="cls-10" d="M326.21,297.34a1,1,0,0,1-.55,1.31,1,1,0,0,1-.75-1.85A1,1,0,0,1,326.21,297.34Z"/>
          <path class="cls-10" d="M335.31,307.88a1,1,0,1,1-1.3-.54A1,1,0,0,1,335.31,307.88Z"/>
          <path class="cls-10" d="M331.24,309.56a1,1,0,0,1-1.84.76,1,1,0,1,1,1.84-.76Z"/>
          <path class="cls-10" d="M332,305.66a1,1,0,1,1-1.3-.54A1,1,0,0,1,332,305.66Z"/>
          <path class="cls-10" d="M332.8,301.77a1,1,0,0,1-.55,1.31,1,1,0,1,1,.55-1.31Z"/>
          <path class="cls-10" d="M328.72,303.45a1,1,0,1,1-1.3-.54A1,1,0,0,1,328.72,303.45Z"/>
          <path class="cls-10" d="M337.83,314a1,1,0,1,1-1.3-.55A1,1,0,0,1,337.83,314Z"/>
          <path class="cls-10" d="M333.76,315.66a1,1,0,1,1-1.3-.54A1,1,0,0,1,333.76,315.66Z"/>
          <path class="cls-10" d="M334.53,311.77a1,1,0,1,1-1.3-.54A1,1,0,0,1,334.53,311.77Z"/>
          <path class="cls-10" d="M335.31,307.88a1,1,0,1,1-1.3-.54A1,1,0,0,1,335.31,307.88Z"/>
          <path class="cls-10" d="M331.24,309.56a1,1,0,0,1-1.84.76,1,1,0,1,1,1.84-.76Z"/>
          <path class="cls-10" d="M340.35,320.09a1,1,0,1,1-1.31-.54A1,1,0,0,1,340.35,320.09Z"/>
          <path class="cls-10" d="M336.27,321.77a1,1,0,1,1-1.3-.54A1,1,0,0,1,336.27,321.77Z"/>
          <path class="cls-10" d="M337.05,317.88a1,1,0,0,1-1.84.76,1,1,0,1,1,1.84-.76Z"/>
          <path class="cls-10" d="M337.83,314a1,1,0,1,1-1.3-.55A1,1,0,0,1,337.83,314Z"/>
          <path class="cls-10" d="M333.76,315.66a1,1,0,1,1-1.3-.54A1,1,0,0,1,333.76,315.66Z"/>
          <path class="cls-10" d="M342.86,326.2a1,1,0,1,1-1.3-.54A1,1,0,0,1,342.86,326.2Z"/>
          <path class="cls-10" d="M338.79,327.87a1,1,0,1,1-1.3-.54A1,1,0,0,1,338.79,327.87Z"/>
          <path class="cls-10" d="M339.57,324a1,1,0,1,1-1.3-.54A1,1,0,0,1,339.57,324Z"/>
          <path class="cls-10" d="M340.35,320.09a1,1,0,1,1-1.31-.54A1,1,0,0,1,340.35,320.09Z"/>
          <path class="cls-10" d="M336.27,321.77a1,1,0,1,1-1.3-.54A1,1,0,0,1,336.27,321.77Z"/>
          <path class="cls-10" d="M342.08,330.09a1,1,0,1,1-1.3-.54A1,1,0,0,1,342.08,330.09Z"/>
          <path class="cls-10" d="M342.86,326.2a1,1,0,1,1-1.3-.54A1,1,0,0,1,342.86,326.2Z"/>
          <path class="cls-10" d="M338.79,327.87a1,1,0,1,1-1.3-.54A1,1,0,0,1,338.79,327.87Z"/>
          <path class="cls-10" d="M323.69,291.24a1,1,0,0,1-.54,1.3,1,1,0,1,1-.76-1.84A1,1,0,0,1,323.69,291.24Z"/>
          <path class="cls-10" d="M326.21,297.34a1,1,0,0,1-.55,1.31,1,1,0,0,1-.75-1.85A1,1,0,0,1,326.21,297.34Z"/>
          <path class="cls-10" d="M322.14,299a1,1,0,0,1-.55,1.31,1,1,0,1,1,.55-1.31Z"/>
          <path class="cls-10" d="M322.91,295.13a1,1,0,1,1-1.3-.54A1,1,0,0,1,322.91,295.13Z"/>
          <path class="cls-10" d="M323.69,291.24a1,1,0,0,1-.54,1.3,1,1,0,1,1-.76-1.84A1,1,0,0,1,323.69,291.24Z"/>
          <path class="cls-10" d="M328.72,303.45a1,1,0,1,1-1.3-.54A1,1,0,0,1,328.72,303.45Z"/>
          <path class="cls-10" d="M324.65,305.13a1,1,0,0,1-1.84.76,1,1,0,1,1,1.84-.76Z"/>
          <path class="cls-10" d="M325.43,301.24a1,1,0,0,1-1.84.76,1,1,0,1,1,1.84-.76Z"/>
          <path class="cls-10" d="M326.21,297.34a1,1,0,0,1-.55,1.31,1,1,0,0,1-.75-1.85A1,1,0,0,1,326.21,297.34Z"/>
          <path class="cls-10" d="M322.14,299a1,1,0,0,1-.55,1.31,1,1,0,1,1,.55-1.31Z"/>
          <path class="cls-10" d="M331.24,309.56a1,1,0,0,1-1.84.76,1,1,0,1,1,1.84-.76Z"/>
          <path class="cls-10" d="M327.17,311.24a1,1,0,1,1-1.3-.55A1,1,0,0,1,327.17,311.24Z"/>
          <path class="cls-10" d="M328,307.34a1,1,0,1,1-1.31-.54A1,1,0,0,1,328,307.34Z"/>
          <path class="cls-10" d="M328.72,303.45a1,1,0,1,1-1.3-.54A1,1,0,0,1,328.72,303.45Z"/>
          <path class="cls-10" d="M324.65,305.13a1,1,0,0,1-1.84.76,1,1,0,1,1,1.84-.76Z"/>
          <path class="cls-10" d="M333.76,315.66a1,1,0,1,1-1.3-.54A1,1,0,0,1,333.76,315.66Z"/>
          <path class="cls-10" d="M329.69,317.34a1,1,0,0,1-.55,1.3,1,1,0,0,1-.75-1.84A1,1,0,0,1,329.69,317.34Z"/>
          <path class="cls-10" d="M330.46,313.45a1,1,0,1,1-1.3-.54A1,1,0,0,1,330.46,313.45Z"/>
          <path class="cls-10" d="M331.24,309.56a1,1,0,0,1-1.84.76,1,1,0,1,1,1.84-.76Z"/>
          <path class="cls-10" d="M327.17,311.24a1,1,0,1,1-1.3-.55A1,1,0,0,1,327.17,311.24Z"/>
          <path class="cls-10" d="M336.27,321.77a1,1,0,1,1-1.3-.54A1,1,0,0,1,336.27,321.77Z"/>
          <path class="cls-10" d="M332.21,323.45a1,1,0,1,1-1.31-.55A1,1,0,0,1,332.21,323.45Z"/>
          <path class="cls-10" d="M333,319.56a1,1,0,1,1-1.3-.55A1,1,0,0,1,333,319.56Z"/>
          <path class="cls-10" d="M333.76,315.66a1,1,0,1,1-1.3-.54A1,1,0,0,1,333.76,315.66Z"/>
          <path class="cls-10" d="M329.69,317.34a1,1,0,0,1-.55,1.3,1,1,0,0,1-.75-1.84A1,1,0,0,1,329.69,317.34Z"/>
          <path class="cls-10" d="M338.79,327.87a1,1,0,1,1-1.3-.54A1,1,0,0,1,338.79,327.87Z"/>
          <path class="cls-10" d="M334.72,329.55a1,1,0,1,1-1.84.76,1,1,0,1,1,1.84-.76Z"/>
          <path class="cls-10" d="M335.5,325.66a1,1,0,1,1-1.31-.54A1,1,0,0,1,335.5,325.66Z"/>
          <path class="cls-10" d="M336.27,321.77a1,1,0,1,1-1.3-.54A1,1,0,0,1,336.27,321.77Z"/>
          <path class="cls-10" d="M332.21,323.45a1,1,0,1,1-1.31-.55A1,1,0,0,1,332.21,323.45Z"/>
          <path class="cls-10" d="M338.79,327.87a1,1,0,1,1-1.3-.54A1,1,0,0,1,338.79,327.87Z"/>
          <path class="cls-10" d="M334.72,329.55a1,1,0,1,1-1.84.76,1,1,0,1,1,1.84-.76Z"/>
          <path class="cls-10" d="M322.14,299a1,1,0,0,1-.55,1.31,1,1,0,1,1,.55-1.31Z"/>
          <path class="cls-10" d="M318.06,300.7a1,1,0,0,1-.54,1.3,1,1,0,1,1,.54-1.3Z"/>
          <path class="cls-10" d="M318.84,296.81a1,1,0,1,1-1.3-.54A1,1,0,0,1,318.84,296.81Z"/>
          <path class="cls-10" d="M324.65,305.13a1,1,0,0,1-1.84.76,1,1,0,1,1,1.84-.76Z"/>
          <path class="cls-10" d="M320.58,306.81a1,1,0,0,1-1.84.76,1,1,0,1,1,1.84-.76Z"/>
          <path class="cls-10" d="M321.36,302.92a1,1,0,1,1-1.3-.55A1,1,0,0,1,321.36,302.92Z"/>
          <path class="cls-10" d="M322.14,299a1,1,0,0,1-.55,1.31,1,1,0,1,1,.55-1.31Z"/>
          <path class="cls-10" d="M318.06,300.7a1,1,0,0,1-.54,1.3,1,1,0,1,1,.54-1.3Z"/>
          <path class="cls-10" d="M327.17,311.24a1,1,0,1,1-1.3-.55A1,1,0,0,1,327.17,311.24Z"/>
          <path class="cls-10" d="M323.1,312.91a1,1,0,0,1-.54,1.3,1,1,0,1,1,.54-1.3Z"/>
          <path class="cls-10" d="M323.87,309a1,1,0,0,1-.54,1.3,1,1,0,1,1,.54-1.3Z"/>
          <path class="cls-10" d="M324.65,305.13a1,1,0,0,1-1.84.76,1,1,0,1,1,1.84-.76Z"/>
          <path class="cls-10" d="M320.58,306.81a1,1,0,0,1-1.84.76,1,1,0,1,1,1.84-.76Z"/>
          <path class="cls-10" d="M329.69,317.34a1,1,0,0,1-.55,1.3,1,1,0,0,1-.75-1.84A1,1,0,0,1,329.69,317.34Z"/>
          <path class="cls-10" d="M325.62,319a1,1,0,1,1-1.31-.54A1,1,0,0,1,325.62,319Z"/>
          <path class="cls-10" d="M326.39,315.13a1,1,0,1,1-1.3-.54A1,1,0,0,1,326.39,315.13Z"/>
          <path class="cls-10" d="M327.17,311.24a1,1,0,1,1-1.3-.55A1,1,0,0,1,327.17,311.24Z"/>
          <path class="cls-10" d="M323.1,312.91a1,1,0,0,1-.54,1.3,1,1,0,1,1,.54-1.3Z"/>
          <path class="cls-10" d="M332.21,323.45a1,1,0,1,1-1.31-.55A1,1,0,0,1,332.21,323.45Z"/>
          <path class="cls-10" d="M328.13,325.13a1,1,0,0,1-.54,1.29,1,1,0,0,1-1.3-.53,1,1,0,0,1,.54-1.31A1,1,0,0,1,328.13,325.13Z"/>
          <path class="cls-10" d="M328.91,321.23a1,1,0,1,1-1.84.76,1,1,0,1,1,1.84-.76Z"/>
          <path class="cls-10" d="M329.69,317.34a1,1,0,0,1-.55,1.3,1,1,0,0,1-.75-1.84A1,1,0,0,1,329.69,317.34Z"/>
          <path class="cls-10" d="M325.62,319a1,1,0,1,1-1.31-.54A1,1,0,0,1,325.62,319Z"/>
          <path class="cls-10" d="M334.72,329.55a1,1,0,1,1-1.84.76,1,1,0,1,1,1.84-.76Z"/>
          <path class="cls-10" d="M331.43,327.34a1,1,0,1,1-1.31-.54A1,1,0,0,1,331.43,327.34Z"/>
          <path class="cls-10" d="M332.21,323.45a1,1,0,1,1-1.31-.55A1,1,0,0,1,332.21,323.45Z"/>
          <path class="cls-10" d="M328.13,325.13a1,1,0,0,1-.54,1.29,1,1,0,0,1-1.3-.53,1,1,0,0,1,.54-1.31A1,1,0,0,1,328.13,325.13Z"/>
          <path class="cls-10" d="M334.72,329.55a1,1,0,1,1-1.84.76,1,1,0,1,1,1.84-.76Z"/>
          <path class="cls-10" d="M318.06,300.7a1,1,0,0,1-.54,1.3,1,1,0,1,1,.54-1.3Z"/>
          <path class="cls-10" d="M320.58,306.81a1,1,0,0,1-1.84.76,1,1,0,1,1,1.84-.76Z"/>
          <path class="cls-10" d="M318.06,300.7a1,1,0,0,1-.54,1.3,1,1,0,1,1,.54-1.3Z"/>
          <path class="cls-10" d="M317.29,304.59a1,1,0,1,1-1.3-.54A1,1,0,0,1,317.29,304.59Z"/>
          <path class="cls-10" d="M323.1,312.91a1,1,0,0,1-.54,1.3,1,1,0,1,1,.54-1.3Z"/>
          <path class="cls-10" d="M319,314.59a1,1,0,1,1-1.3-.54A1,1,0,0,1,319,314.59Z"/>
          <path class="cls-10" d="M319.81,310.7a1,1,0,1,1-1.31-.54A1,1,0,0,1,319.81,310.7Z"/>
          <path class="cls-10" d="M320.58,306.81a1,1,0,0,1-1.84.76,1,1,0,1,1,1.84-.76Z"/>
          <path class="cls-10" d="M325.62,319a1,1,0,1,1-1.31-.54A1,1,0,0,1,325.62,319Z"/>
          <path class="cls-10" d="M321.55,320.7a1,1,0,1,1-1.31-.54A1,1,0,0,1,321.55,320.7Z"/>
          <path class="cls-10" d="M322.32,316.8a1,1,0,1,1-1.3-.54A1,1,0,0,1,322.32,316.8Z"/>
          <path class="cls-10" d="M323.1,312.91a1,1,0,0,1-.54,1.3,1,1,0,1,1,.54-1.3Z"/>
          <path class="cls-10" d="M319,314.59a1,1,0,1,1-1.3-.54A1,1,0,0,1,319,314.59Z"/>
          <path class="cls-10" d="M328.13,325.13a1,1,0,0,1-.54,1.29,1,1,0,0,1-1.3-.53,1,1,0,0,1,.54-1.31A1,1,0,0,1,328.13,325.13Z"/>
          <path class="cls-10" d="M324.84,322.91a1,1,0,1,1-1.3-.54A1,1,0,0,1,324.84,322.91Z"/>
          <path class="cls-10" d="M325.62,319a1,1,0,1,1-1.31-.54A1,1,0,0,1,325.62,319Z"/>
          <path class="cls-10" d="M321.55,320.7a1,1,0,1,1-1.31-.54A1,1,0,0,1,321.55,320.7Z"/>
          <path class="cls-10" d="M328.13,325.13a1,1,0,0,1-.54,1.29,1,1,0,0,1-1.3-.53,1,1,0,0,1,.54-1.31A1,1,0,0,1,328.13,325.13Z"/>
          <path class="cls-10" d="M319,314.59a1,1,0,1,1-1.3-.54A1,1,0,0,1,319,314.59Z"/>
          <path class="cls-10" d="M321.55,320.7a1,1,0,1,1-1.31-.54A1,1,0,0,1,321.55,320.7Z"/>
          <path class="cls-10" d="M319,314.59a1,1,0,1,1-1.3-.54A1,1,0,0,1,319,314.59Z"/>
          <path class="cls-10" d="M321.55,320.7a1,1,0,1,1-1.31-.54A1,1,0,0,1,321.55,320.7Z"/>
        </g>
        <g>
          <path class="cls-11" d="M386.73,235l.61,15.81.28,6.8h0l.36,8.86a7.09,7.09,0,0,1-3.71,6.64,4.57,4.57,0,0,1-1.17.38l-62.75,11.64a51.21,51.21,0,0,1-17,.26l-12.23-1.87a107.94,107.94,0,0,1,6.94-41.72l3.85.2a92.52,92.52,0,0,0,21.79-1.44l57.68-10.69.35,0C384.4,229.54,386.6,231.79,386.73,235Z"/>
          <g>
            <g>
              <path class="cls-9" d="M329,255.24,359,242.61s8.1,19.37-9.93,26.93S329,255.24,329,255.24Z"/>
              <path class="cls-10" d="M355.72,252.76a4,4,0,0,0-6-1.79,5.62,5.62,0,0,0-2.46,6.73,4,4,0,0,0,6,1.79A5.62,5.62,0,0,0,355.72,252.76Z"/>
            </g>
            <g>
              <path class="cls-9" d="M387.34,250.81l.28,6.8h0c-2.71,4.11-7.46,8.54-14.2,4.89-10.67-5.78-3.91-20.61-3.91-20.61Z"/>
              <path class="cls-10" d="M382.89,248.27a4,4,0,0,0-6-1.79,5.64,5.64,0,0,0-2.47,6.74,4,4,0,0,0,6,1.79A5.63,5.63,0,0,0,382.89,248.27Z"/>
            </g>
          </g>
        </g>
        <path class="cls-12" d="M341.54,310.46s8.6-11,27.91-14.74"/>
      </g>
      <polyline class="cls-8" points="392.34 527.43 366.19 741.72 260.98 742.04 249.45 535.51"/>
      <path class="cls-8" d="M390.29,773.72H261V742H365.5a24.79,24.79,0,0,1,24.79,24.79Z"/>
      <path class="cls-4" d="M335.06,592.68l-21.48,148.9h2.07a24.67,24.67,0,0,1,24.67,24.67v7.47"/>
      <path class="cls-4" d="M254.4,422.6s38.4,27.94,95.31,49.31c-.62.33,24.45-97,28.35-113.75s-27.09-23-31.64-12.5-26,59.83-26,59.83"/>
      <line class="cls-4" x1="309.64" y1="385.44" x2="323.41" y2="396.89"/>
      <path class="cls-4" d="M265.62,345.21a33.07,33.07,0,0,1,16.73-10.62"/>
      <line class="cls-4" x1="340.94" y1="333.69" x2="348.15" y2="343.3"/>
      <path class="cls-5" d="M349.84,340.18l2-18.71a9.73,9.73,0,0,1,5.65-7.47L371,307.15a17.72,17.72,0,0,1,13.42-.79l2.89,1a2.8,2.8,0,0,1,2.12,3.25l-10.87,38.2S369.05,335.31,349.84,340.18Z"/>
    </g>
    <path class="cls-8" d="M413.31,489.18l-18.44,27.73-.28-45c14.2,1.8,18.72,17.27,18.72,17.27l8.33-27.62a42.9,42.9,0,0,0-1.39-28.62l-36-87.73"/>
  </g>
  <polyline class="Graphic-Style-21" points="165.06 488.63 165.06 422.86 131 388.8"/>
  <polyline class="Graphic-Style-21" points="489.44 58.38 489.44 122.38 513.63 146.57 513.63 177.05"/>
  <line class="Graphic-Style-21" x1="1314.63" y1="270.58" x2="1314.63" y2="341.58"/>
  <polyline class="Graphic-Style-21" points="1195.4 572.74 1195.4 617.05 1216.79 638.44 1216.79 680.01"/>
  <line class="cls-8" x1="123.69" y1="773.56" x2="635.16" y2="773.56"/>
  <line class="cls-8" x1="775.33" y1="773.56" x2="1286.81" y2="773.56"/>
</svg>
