<svg id="work" xmlns="http://www.w3.org/2000/svg" viewBox="0 0 1422 870">
  <defs>
    <style>
      .cls-1, .cls-7 {
        fill: #ebebeb;
      }

      .cls-1, .cls-2, .cls-3, .cls-4, .cls-5, .cls-6, .cls-7 {
        stroke: #4a4a4a;
        stroke-linecap: round;
        stroke-linejoin: round;
      }

      .cls-1, .cls-4 {
        stroke-width: 4px;
      }

      .cls-2, .cls-4 {
        fill: #fff;
      }

      .cls-2, .cls-3, .cls-5, .cls-6, .cls-7 {
        stroke-width: 2.5px;
      }

      .cls-3 {
        fill: none;
      }

      .cls-5 {
        fill: #ff0083;
      }

      .cls-6, .cls-8 {
        fill: #4a4a4a;
      }
    </style>
  </defs>
  <title>Illustration 1.2</title>
  <g>
    <path class="cls-1" d="M735.93,101C777.29,78.73,811.81,96,823,104S850.14,151,832.24,201s-25.31,59.88-25.31,59.88l-71,30.87L681,249.83s4.94-97.64,18.52-122.34S735.93,101,735.93,101Z"/>
    <path class="cls-2" d="M741.49,288.62,681,281.83V217.65h57l22.61,24.67s-24.37-4.95-24.76-1.85C734,255,741.49,288.62,741.49,288.62Z"/>
    <g>
      <line class="cls-3" x1="389.23" y1="805.33" x2="1081.89" y2="805.33"/>
      <line class="cls-3" x1="1105.34" y1="805.33" x2="1226.34" y2="805.33"/>
      <line class="cls-3" x1="286.75" y1="805.33" x2="364.54" y2="805.33"/>
    </g>
    <polygon class="cls-1" points="798.82 780.02 731.46 780.02 711.79 573.01 682.27 780.02 610.38 780.02 621.73 486.06 792.01 486.06 798.82 780.02"/>
    <path class="cls-4" d="M604.15,780h77.37a0,0,0,0,1,0,0V804.1a0,0,0,0,1,0,0H584.65a0,0,0,0,1,0,0v-4.58A19.5,19.5,0,0,1,604.15,780Z"/>
    <path class="cls-4" d="M731.08,780H828a0,0,0,0,1,0,0V804.1a0,0,0,0,1,0,0H750.58a19.5,19.5,0,0,1-19.5-19.5V780A0,0,0,0,1,731.08,780Z" transform="translate(1559.04 1584.12) rotate(-180)"/>
    <rect class="cls-2" x="696.21" y="93.81" width="116.12" height="152.3" rx="33" ry="33" transform="translate(96.85 -236.99) rotate(19.06)"/>
    <path class="cls-5" d="M683.78,135.91H815.46a5.23,5.23,0,0,1,5.23,5.23v36a5.23,5.23,0,0,1-5.23,5.23H683.78a0,0,0,0,1,0,0V135.91a0,0,0,0,1,0,0Z" transform="translate(101.4 -250.24) rotate(20.22)"/>
    <path class="cls-2" d="M764.59,146l26,26S777,186.76,763.4,178.43s-7.71-23.16-5.55-25.93A55.35,55.35,0,0,1,764.59,146Z"/>
    <path class="cls-2" d="M820.22,165.13l-24.72,9.09s1.63,15,12,12.12,12.89-15.8,12.79-18.51Z"/>
    <circle class="cls-6" cx="777.5" cy="173.66" r="4.84"/>
    <circle class="cls-6" cx="806.56" cy="180.5" r="4.27"/>
    <path class="cls-2" d="M743.55,205.28c6.44-1.72,9.05,5.14,12.75,8s12.15,9.88,17.5,10.5,3.7,4.32,1.44,5.14-15.23,3.91-23-3.49-10.29-8.85-12.76-10.29S737.37,206.93,743.55,205.28Z"/>
    <path class="cls-4" d="M885,438.84l-65.38-74.29s-21-89.36-36.43-93.83l-41.83,17.9S707,259,697.58,249.11c-6.86-7.21-3.62-29.53-2.43-38.27C712.43,83.66,811.85,97.25,811.85,97.25S763.7,69.46,704.44,77.49c-50.91,6.89-40.26,146.4-40.26,146.4-36,21.19-53.8,70.23-53.8,110.41V479.68a7,7,0,0,0,7,7H800.2a5.71,5.71,0,0,0,5.7-6.09l-7.21-69.25,59.57,38.77a10.09,10.09,0,0,0,11.59-.22Z"/>
    <line class="cls-3" x1="713.33" y1="265.16" x2="713.33" y2="315.78"/>
    <line class="cls-3" x1="766.43" y1="277.51" x2="766.43" y2="325.66"/>
    <path class="cls-4" d="M904.42,460.67a69.41,69.41,0,0,1-13.25-.07c-8-.7-16.9-5.38-27-9.06h0c8.36-8.49,9.63-8.41,14.07-10.66h29.52c6.58,0,14.44,1.3,14.44,7.88h0C922.16,455.33,911,460.67,904.42,460.67Z"/>
    <path class="cls-4" d="M878,430.3s-20-6.85-27.41-7.93c-7.13-1-31-.56-31-.56l4.29-29.5,45.92,10.86a19.73,19.73,0,0,1,15,22.05h0A6,6,0,0,1,878,430.3Z"/>
    <path class="cls-7" d="M981.68,315.86A10.83,10.83,0,0,0,971,322.25L924.44,430.81H794a9.89,9.89,0,0,0-9.88,9.88h0l147.56.19L984,319.36A2.55,2.55,0,0,0,981.68,315.86Z"/>
    <line class="cls-3" x1="790.57" y1="351.59" x2="799.76" y2="427.09"/>
    <path class="cls-2" d="M693.79,325.66l48.34,46.73a8.36,8.36,0,0,0,3.83,1.82l84.07,16a9.28,9.28,0,0,1,7.34,7.21c1,4.66,2,10.87,1.27,14.3-.77,3.62-4.21,8.81-6.82,12.35a9.27,9.27,0,0,1-7.77,3.78l-86.31-2.74a34,34,0,0,1-16.75-5l-67.45-41.63"/>
  </g>
  <g>
    <circle class="cls-8" cx="797.91" cy="214.54" r="1.12"/>
    <circle class="cls-8" cx="797.91" cy="214.54" r="1.12"/>
    <circle class="cls-8" cx="792.97" cy="207.13" r="1.12"/>
    <circle class="cls-8" cx="797.91" cy="214.54" r="1.12"/>
    <circle class="cls-8" cx="792.97" cy="214.54" r="1.12"/>
    <circle class="cls-8" cx="795.44" cy="210.84" r="1.12"/>
    <circle class="cls-8" cx="792.97" cy="207.13" r="1.12"/>
    <circle class="cls-8" cx="792.97" cy="221.95" r="1.12"/>
    <circle class="cls-8" cx="795.44" cy="218.24" r="1.12"/>
    <circle class="cls-8" cx="797.91" cy="214.54" r="1.12"/>
    <circle class="cls-8" cx="792.97" cy="214.54" r="1.12"/>
    <circle class="cls-8" cx="792.97" cy="221.95" r="1.12"/>
    <circle class="cls-8" cx="792.97" cy="207.13" r="1.12"/>
    <circle class="cls-8" cx="788.03" cy="207.13" r="1.12"/>
    <circle class="cls-8" cx="792.97" cy="214.54" r="1.12"/>
    <circle class="cls-8" cx="788.03" cy="214.54" r="1.12"/>
    <circle class="cls-8" cx="790.5" cy="210.84" r="1.12"/>
    <circle class="cls-8" cx="792.97" cy="207.13" r="1.12"/>
    <circle class="cls-8" cx="788.03" cy="207.13" r="1.12"/>
    <circle class="cls-8" cx="792.97" cy="221.95" r="1.12"/>
    <circle class="cls-8" cx="788.03" cy="221.95" r="1.12"/>
    <circle class="cls-8" cx="790.5" cy="218.24" r="1.12"/>
    <circle class="cls-8" cx="792.97" cy="214.54" r="1.12"/>
    <circle class="cls-8" cx="788.03" cy="214.54" r="1.12"/>
    <circle class="cls-8" cx="788.03" cy="229.36" r="1.12"/>
    <circle class="cls-8" cx="790.5" cy="225.65" r="1.12"/>
    <circle class="cls-8" cx="792.97" cy="221.95" r="1.12"/>
    <circle class="cls-8" cx="788.03" cy="221.95" r="1.12"/>
    <circle class="cls-8" cx="788.03" cy="229.36" r="1.12"/>
    <circle class="cls-8" cx="788.03" cy="207.13" r="1.12"/>
    <circle class="cls-8" cx="783.09" cy="207.13" r="1.12"/>
    <circle class="cls-8" cx="788.03" cy="214.54" r="1.12"/>
    <circle class="cls-8" cx="783.09" cy="214.54" r="1.12"/>
    <circle class="cls-8" cx="785.56" cy="210.84" r="1.12"/>
    <circle class="cls-8" cx="788.03" cy="207.13" r="1.12"/>
    <circle class="cls-8" cx="783.09" cy="207.13" r="1.12"/>
    <circle class="cls-8" cx="788.03" cy="221.95" r="1.12"/>
    <circle class="cls-8" cx="783.09" cy="221.95" r="1.12"/>
    <circle class="cls-8" cx="785.56" cy="218.24" r="1.12"/>
    <circle class="cls-8" cx="788.03" cy="214.54" r="1.12"/>
    <circle class="cls-8" cx="783.09" cy="214.54" r="1.12"/>
    <circle class="cls-8" cx="788.03" cy="229.36" r="1.12"/>
    <circle class="cls-8" cx="783.09" cy="229.36" r="1.12"/>
    <circle class="cls-8" cx="785.56" cy="225.65" r="1.12"/>
    <circle class="cls-8" cx="788.03" cy="221.95" r="1.12"/>
    <circle class="cls-8" cx="783.09" cy="221.95" r="1.12"/>
    <circle class="cls-8" cx="783.09" cy="236.76" r="1.12"/>
    <circle class="cls-8" cx="785.56" cy="233.06" r="1.12"/>
    <circle class="cls-8" cx="788.03" cy="229.36" r="1.12"/>
    <circle class="cls-8" cx="783.09" cy="229.36" r="1.12"/>
    <circle class="cls-8" cx="783.09" cy="236.76" r="1.12"/>
    <circle class="cls-8" cx="783.09" cy="207.13" r="1.12"/>
    <circle class="cls-8" cx="778.15" cy="207.13" r="1.12"/>
    <circle class="cls-8" cx="783.09" cy="214.54" r="1.12"/>
    <circle class="cls-8" cx="778.15" cy="214.54" r="1.12"/>
    <circle class="cls-8" cx="780.62" cy="210.84" r="1.12"/>
    <circle class="cls-8" cx="783.09" cy="207.13" r="1.12"/>
    <circle class="cls-8" cx="778.15" cy="207.13" r="1.12"/>
    <circle class="cls-8" cx="783.09" cy="221.95" r="1.12"/>
    <circle class="cls-8" cx="778.15" cy="221.95" r="1.12"/>
    <circle class="cls-8" cx="780.62" cy="218.24" r="1.12"/>
    <circle class="cls-8" cx="783.09" cy="214.54" r="1.12"/>
    <circle class="cls-8" cx="778.15" cy="214.54" r="1.12"/>
    <circle class="cls-8" cx="783.09" cy="229.36" r="1.12"/>
    <circle class="cls-8" cx="778.15" cy="229.36" r="1.12"/>
    <circle class="cls-8" cx="780.62" cy="225.65" r="1.12"/>
    <circle class="cls-8" cx="783.09" cy="221.95" r="1.12"/>
    <circle class="cls-8" cx="778.15" cy="221.95" r="1.12"/>
    <circle class="cls-8" cx="783.09" cy="236.76" r="1.12"/>
    <circle class="cls-8" cx="778.15" cy="236.76" r="1.12"/>
    <circle class="cls-8" cx="780.62" cy="233.06" r="1.12"/>
    <circle class="cls-8" cx="783.09" cy="229.36" r="1.12"/>
    <circle class="cls-8" cx="778.15" cy="229.36" r="1.12"/>
    <circle class="cls-8" cx="780.62" cy="240.47" r="1.12"/>
    <circle class="cls-8" cx="783.09" cy="236.76" r="1.12"/>
    <circle class="cls-8" cx="778.15" cy="236.76" r="1.12"/>
    <circle class="cls-8" cx="778.15" cy="207.13" r="1.12"/>
    <circle class="cls-8" cx="773.22" cy="207.13" r="1.12"/>
    <circle class="cls-8" cx="778.15" cy="214.54" r="1.12"/>
    <circle class="cls-8" cx="773.22" cy="214.54" r="1.12"/>
    <circle class="cls-8" cx="775.69" cy="210.84" r="1.12"/>
    <circle class="cls-8" cx="778.15" cy="207.13" r="1.12"/>
    <circle class="cls-8" cx="773.22" cy="207.13" r="1.12"/>
    <circle class="cls-8" cx="778.15" cy="221.95" r="1.12"/>
    <circle class="cls-8" cx="773.22" cy="221.95" r="1.12"/>
    <circle class="cls-8" cx="775.69" cy="218.24" r="1.12"/>
    <circle class="cls-8" cx="778.15" cy="214.54" r="1.12"/>
    <circle class="cls-8" cx="773.22" cy="214.54" r="1.12"/>
    <circle class="cls-8" cx="778.15" cy="229.36" r="1.12"/>
    <circle class="cls-8" cx="773.22" cy="229.36" r="1.12"/>
    <circle class="cls-8" cx="778.15" cy="221.95" r="1.12"/>
    <circle class="cls-8" cx="773.22" cy="221.95" r="1.12"/>
    <circle class="cls-8" cx="778.15" cy="236.76" r="1.12"/>
    <circle class="cls-8" cx="773.22" cy="236.76" r="1.12"/>
    <circle class="cls-8" cx="775.69" cy="233.06" r="1.12"/>
    <circle class="cls-8" cx="778.15" cy="229.36" r="1.12"/>
    <circle class="cls-8" cx="773.22" cy="229.36" r="1.12"/>
    <circle class="cls-8" cx="773.22" cy="244.17" r="1.12"/>
    <circle class="cls-8" cx="775.69" cy="240.47" r="1.12"/>
    <circle class="cls-8" cx="778.15" cy="236.76" r="1.12"/>
    <circle class="cls-8" cx="773.22" cy="236.76" r="1.12"/>
    <circle class="cls-8" cx="773.22" cy="244.17" r="1.12"/>
    <circle class="cls-8" cx="768.28" cy="199.72" r="1.12"/>
    <circle class="cls-8" cx="773.22" cy="207.13" r="1.12"/>
    <circle class="cls-8" cx="768.28" cy="207.13" r="1.12"/>
    <circle class="cls-8" cx="770.75" cy="203.43" r="1.12"/>
    <circle class="cls-8" cx="768.28" cy="199.72" r="1.12"/>
    <circle class="cls-8" cx="773.22" cy="214.54" r="1.12"/>
    <circle class="cls-8" cx="768.28" cy="214.54" r="1.12"/>
    <circle class="cls-8" cx="770.75" cy="210.84" r="1.12"/>
    <circle class="cls-8" cx="773.22" cy="207.13" r="1.12"/>
    <circle class="cls-8" cx="768.28" cy="207.13" r="1.12"/>
    <circle class="cls-8" cx="773.22" cy="221.95" r="1.12"/>
    <circle class="cls-8" cx="768.28" cy="221.95" r="1.12"/>
    <circle class="cls-8" cx="770.75" cy="218.24" r="1.12"/>
    <circle class="cls-8" cx="773.22" cy="214.54" r="1.12"/>
    <circle class="cls-8" cx="768.28" cy="214.54" r="1.12"/>
    <circle class="cls-8" cx="773.22" cy="229.36" r="1.12"/>
    <circle class="cls-8" cx="768.28" cy="229.36" r="1.12"/>
    <circle class="cls-8" cx="773.22" cy="221.95" r="1.12"/>
    <circle class="cls-8" cx="768.28" cy="221.95" r="1.12"/>
    <circle class="cls-8" cx="773.22" cy="236.76" r="1.12"/>
    <circle class="cls-8" cx="768.28" cy="236.76" r="1.12"/>
    <circle class="cls-8" cx="770.75" cy="233.06" r="1.12"/>
    <circle class="cls-8" cx="773.22" cy="229.36" r="1.12"/>
    <circle class="cls-8" cx="768.28" cy="229.36" r="1.12"/>
    <circle class="cls-8" cx="773.22" cy="244.17" r="1.12"/>
    <circle class="cls-8" cx="768.28" cy="244.17" r="1.12"/>
    <circle class="cls-8" cx="770.75" cy="240.47" r="1.12"/>
    <circle class="cls-8" cx="773.22" cy="236.76" r="1.12"/>
    <circle class="cls-8" cx="768.28" cy="236.76" r="1.12"/>
    <circle class="cls-8" cx="773.22" cy="244.17" r="1.12"/>
    <circle class="cls-8" cx="768.28" cy="244.17" r="1.12"/>
    <circle class="cls-8" cx="768.28" cy="199.72" r="1.12"/>
    <circle class="cls-8" cx="763.34" cy="199.72" r="1.12"/>
    <circle class="cls-8" cx="768.28" cy="207.13" r="1.12"/>
    <circle class="cls-8" cx="763.34" cy="207.13" r="1.12"/>
    <circle class="cls-8" cx="765.81" cy="203.43" r="1.12"/>
    <circle class="cls-8" cx="768.28" cy="199.72" r="1.12"/>
    <circle class="cls-8" cx="763.34" cy="199.72" r="1.12"/>
    <circle class="cls-8" cx="768.28" cy="214.54" r="1.12"/>
    <circle class="cls-8" cx="763.34" cy="214.54" r="1.12"/>
    <circle class="cls-8" cx="765.81" cy="210.84" r="1.12"/>
    <circle class="cls-8" cx="768.28" cy="207.13" r="1.12"/>
    <circle class="cls-8" cx="763.34" cy="207.13" r="1.12"/>
    <circle class="cls-8" cx="768.28" cy="221.95" r="1.12"/>
    <circle class="cls-8" cx="765.81" cy="218.24" r="1.12"/>
    <circle class="cls-8" cx="768.28" cy="214.54" r="1.12"/>
    <circle class="cls-8" cx="763.34" cy="214.54" r="1.12"/>
    <circle class="cls-8" cx="768.28" cy="229.36" r="1.12"/>
    <circle class="cls-8" cx="763.34" cy="229.36" r="1.12"/>
    <circle class="cls-8" cx="768.28" cy="221.95" r="1.12"/>
    <circle class="cls-8" cx="768.28" cy="236.76" r="1.12"/>
    <circle class="cls-8" cx="763.34" cy="236.76" r="1.12"/>
    <circle class="cls-8" cx="765.81" cy="233.06" r="1.12"/>
    <circle class="cls-8" cx="768.28" cy="229.36" r="1.12"/>
    <circle class="cls-8" cx="763.34" cy="229.36" r="1.12"/>
    <circle class="cls-8" cx="768.28" cy="244.17" r="1.12"/>
    <circle class="cls-8" cx="763.34" cy="244.17" r="1.12"/>
    <circle class="cls-8" cx="765.81" cy="240.47" r="1.12"/>
    <circle class="cls-8" cx="768.28" cy="236.76" r="1.12"/>
    <circle class="cls-8" cx="763.34" cy="236.76" r="1.12"/>
    <circle class="cls-8" cx="768.28" cy="244.17" r="1.12"/>
    <circle class="cls-8" cx="763.34" cy="244.17" r="1.12"/>
    <circle class="cls-8" cx="763.34" cy="199.72" r="1.12"/>
    <circle class="cls-8" cx="758.4" cy="199.72" r="1.12"/>
    <circle class="cls-8" cx="760.87" cy="196.02" r="1.12"/>
    <circle class="cls-8" cx="763.34" cy="207.13" r="1.12"/>
    <circle class="cls-8" cx="758.4" cy="207.13" r="1.12"/>
    <circle class="cls-8" cx="760.87" cy="203.43" r="1.12"/>
    <circle class="cls-8" cx="763.34" cy="199.72" r="1.12"/>
    <circle class="cls-8" cx="758.4" cy="199.72" r="1.12"/>
    <circle class="cls-8" cx="763.34" cy="214.54" r="1.12"/>
    <circle class="cls-8" cx="758.4" cy="214.54" r="1.12"/>
    <circle class="cls-8" cx="760.87" cy="210.84" r="1.12"/>
    <circle class="cls-8" cx="763.34" cy="207.13" r="1.12"/>
    <circle class="cls-8" cx="758.4" cy="207.13" r="1.12"/>
    <circle class="cls-8" cx="763.34" cy="214.54" r="1.12"/>
    <circle class="cls-8" cx="758.4" cy="214.54" r="1.12"/>
    <circle class="cls-8" cx="763.34" cy="229.36" r="1.12"/>
    <circle class="cls-8" cx="758.4" cy="229.36" r="1.12"/>
    <circle class="cls-8" cx="763.34" cy="236.76" r="1.12"/>
    <circle class="cls-8" cx="758.4" cy="236.76" r="1.12"/>
    <circle class="cls-8" cx="760.87" cy="233.06" r="1.12"/>
    <circle class="cls-8" cx="763.34" cy="229.36" r="1.12"/>
    <circle class="cls-8" cx="758.4" cy="229.36" r="1.12"/>
    <circle class="cls-8" cx="763.34" cy="244.17" r="1.12"/>
    <circle class="cls-8" cx="758.4" cy="244.17" r="1.12"/>
    <circle class="cls-8" cx="760.87" cy="240.47" r="1.12"/>
    <circle class="cls-8" cx="763.34" cy="236.76" r="1.12"/>
    <circle class="cls-8" cx="758.4" cy="236.76" r="1.12"/>
    <circle class="cls-8" cx="763.34" cy="244.17" r="1.12"/>
    <circle class="cls-8" cx="758.4" cy="244.17" r="1.12"/>
    <circle class="cls-8" cx="753.46" cy="192.32" r="1.12"/>
    <circle class="cls-8" cx="758.4" cy="199.72" r="1.12"/>
    <circle class="cls-8" cx="753.46" cy="199.72" r="1.12"/>
    <circle class="cls-8" cx="755.93" cy="196.02" r="1.12"/>
    <circle class="cls-8" cx="753.46" cy="192.32" r="1.12"/>
    <circle class="cls-8" cx="758.4" cy="207.13" r="1.12"/>
    <circle class="cls-8" cx="753.46" cy="207.13" r="1.12"/>
    <circle class="cls-8" cx="755.93" cy="203.43" r="1.12"/>
    <circle class="cls-8" cx="758.4" cy="199.72" r="1.12"/>
    <circle class="cls-8" cx="753.46" cy="199.72" r="1.12"/>
    <circle class="cls-8" cx="758.4" cy="214.54" r="1.12"/>
    <circle class="cls-8" cx="755.93" cy="210.84" r="1.12"/>
    <circle class="cls-8" cx="758.4" cy="207.13" r="1.12"/>
    <circle class="cls-8" cx="753.46" cy="207.13" r="1.12"/>
    <circle class="cls-8" cx="758.4" cy="214.54" r="1.12"/>
    <circle class="cls-8" cx="758.4" cy="229.36" r="1.12"/>
    <circle class="cls-8" cx="753.46" cy="229.36" r="1.12"/>
    <circle class="cls-8" cx="758.4" cy="236.76" r="1.12"/>
    <circle class="cls-8" cx="753.46" cy="236.76" r="1.12"/>
    <circle class="cls-8" cx="755.93" cy="233.06" r="1.12"/>
    <circle class="cls-8" cx="758.4" cy="229.36" r="1.12"/>
    <circle class="cls-8" cx="753.46" cy="229.36" r="1.12"/>
    <circle class="cls-8" cx="758.4" cy="244.17" r="1.12"/>
    <circle class="cls-8" cx="753.46" cy="244.17" r="1.12"/>
    <circle class="cls-8" cx="755.93" cy="240.47" r="1.12"/>
    <circle class="cls-8" cx="758.4" cy="236.76" r="1.12"/>
    <circle class="cls-8" cx="753.46" cy="236.76" r="1.12"/>
    <circle class="cls-8" cx="758.4" cy="244.17" r="1.12"/>
    <circle class="cls-8" cx="753.46" cy="244.17" r="1.12"/>
    <circle class="cls-8" cx="753.46" cy="192.32" r="1.12"/>
    <circle class="cls-8" cx="748.52" cy="192.32" r="1.12"/>
    <circle class="cls-8" cx="753.46" cy="199.72" r="1.12"/>
    <circle class="cls-8" cx="748.52" cy="199.72" r="1.12"/>
    <circle class="cls-8" cx="750.99" cy="196.02" r="1.12"/>
    <circle class="cls-8" cx="753.46" cy="192.32" r="1.12"/>
    <circle class="cls-8" cx="748.52" cy="192.32" r="1.12"/>
    <circle class="cls-8" cx="753.46" cy="207.13" r="1.12"/>
    <circle class="cls-8" cx="750.99" cy="203.43" r="1.12"/>
    <circle class="cls-8" cx="753.46" cy="199.72" r="1.12"/>
    <circle class="cls-8" cx="748.52" cy="199.72" r="1.12"/>
    <circle class="cls-8" cx="753.46" cy="207.13" r="1.12"/>
    <circle class="cls-8" cx="748.52" cy="221.95" r="1.12"/>
    <circle class="cls-8" cx="753.46" cy="229.36" r="1.12"/>
    <circle class="cls-8" cx="748.52" cy="229.36" r="1.12"/>
    <circle class="cls-8" cx="750.99" cy="225.65" r="1.12"/>
    <circle class="cls-8" cx="748.52" cy="221.95" r="1.12"/>
    <circle class="cls-8" cx="753.46" cy="236.76" r="1.12"/>
    <circle class="cls-8" cx="748.52" cy="236.76" r="1.12"/>
    <circle class="cls-8" cx="750.99" cy="233.06" r="1.12"/>
    <circle class="cls-8" cx="753.46" cy="229.36" r="1.12"/>
    <circle class="cls-8" cx="748.52" cy="229.36" r="1.12"/>
    <circle class="cls-8" cx="753.46" cy="244.17" r="1.12"/>
    <circle class="cls-8" cx="748.52" cy="244.17" r="1.12"/>
    <circle class="cls-8" cx="750.99" cy="240.47" r="1.12"/>
    <circle class="cls-8" cx="753.46" cy="236.76" r="1.12"/>
    <circle class="cls-8" cx="748.52" cy="236.76" r="1.12"/>
    <circle class="cls-8" cx="753.46" cy="244.17" r="1.12"/>
    <circle class="cls-8" cx="748.52" cy="244.17" r="1.12"/>
    <circle class="cls-8" cx="748.52" cy="192.32" r="1.12"/>
    <circle class="cls-8" cx="743.58" cy="192.32" r="1.12"/>
    <circle class="cls-8" cx="748.52" cy="199.72" r="1.12"/>
    <circle class="cls-8" cx="743.58" cy="199.72" r="1.12"/>
    <circle class="cls-8" cx="746.05" cy="196.02" r="1.12"/>
    <circle class="cls-8" cx="748.52" cy="192.32" r="1.12"/>
    <circle class="cls-8" cx="743.58" cy="192.32" r="1.12"/>
    <circle class="cls-8" cx="746.05" cy="203.43" r="1.12"/>
    <circle class="cls-8" cx="748.52" cy="199.72" r="1.12"/>
    <circle class="cls-8" cx="743.58" cy="199.72" r="1.12"/>
    <circle class="cls-8" cx="748.52" cy="221.95" r="1.12"/>
    <circle class="cls-8" cx="743.58" cy="221.95" r="1.12"/>
    <circle class="cls-8" cx="748.52" cy="229.36" r="1.12"/>
    <circle class="cls-8" cx="743.58" cy="229.36" r="1.12"/>
    <circle class="cls-8" cx="746.05" cy="225.65" r="1.12"/>
    <circle class="cls-8" cx="748.52" cy="221.95" r="1.12"/>
    <circle class="cls-8" cx="743.58" cy="221.95" r="1.12"/>
    <circle class="cls-8" cx="748.52" cy="236.76" r="1.12"/>
    <circle class="cls-8" cx="743.58" cy="236.76" r="1.12"/>
    <circle class="cls-8" cx="746.05" cy="233.06" r="1.12"/>
    <circle class="cls-8" cx="748.52" cy="229.36" r="1.12"/>
    <circle class="cls-8" cx="743.58" cy="229.36" r="1.12"/>
    <circle class="cls-8" cx="748.52" cy="244.17" r="1.12"/>
    <circle class="cls-8" cx="746.05" cy="240.47" r="1.12"/>
    <circle class="cls-8" cx="748.52" cy="236.76" r="1.12"/>
    <circle class="cls-8" cx="743.58" cy="236.76" r="1.12"/>
    <circle class="cls-8" cx="748.52" cy="244.17" r="1.12"/>
    <circle class="cls-8" cx="743.58" cy="192.32" r="1.12"/>
    <circle class="cls-8" cx="738.65" cy="192.32" r="1.12"/>
    <circle class="cls-8" cx="743.58" cy="199.72" r="1.12"/>
    <circle class="cls-8" cx="738.65" cy="199.72" r="1.12"/>
    <circle class="cls-8" cx="741.11" cy="196.02" r="1.12"/>
    <circle class="cls-8" cx="743.58" cy="192.32" r="1.12"/>
    <circle class="cls-8" cx="738.65" cy="192.32" r="1.12"/>
    <circle class="cls-8" cx="738.65" cy="207.13" r="1.12"/>
    <circle class="cls-8" cx="741.11" cy="203.43" r="1.12"/>
    <circle class="cls-8" cx="743.58" cy="199.72" r="1.12"/>
    <circle class="cls-8" cx="738.65" cy="199.72" r="1.12"/>
    <circle class="cls-8" cx="738.65" cy="214.54" r="1.12"/>
    <circle class="cls-8" cx="738.65" cy="207.13" r="1.12"/>
    <circle class="cls-8" cx="743.58" cy="221.95" r="1.12"/>
    <circle class="cls-8" cx="738.65" cy="221.95" r="1.12"/>
    <circle class="cls-8" cx="741.11" cy="218.24" r="1.12"/>
    <circle class="cls-8" cx="738.65" cy="214.54" r="1.12"/>
    <circle class="cls-8" cx="743.58" cy="229.36" r="1.12"/>
    <circle class="cls-8" cx="738.65" cy="229.36" r="1.12"/>
    <circle class="cls-8" cx="741.11" cy="225.65" r="1.12"/>
    <circle class="cls-8" cx="743.58" cy="221.95" r="1.12"/>
    <circle class="cls-8" cx="738.65" cy="221.95" r="1.12"/>
    <circle class="cls-8" cx="743.58" cy="236.76" r="1.12"/>
    <circle class="cls-8" cx="738.65" cy="236.76" r="1.12"/>
    <circle class="cls-8" cx="741.11" cy="233.06" r="1.12"/>
    <circle class="cls-8" cx="743.58" cy="229.36" r="1.12"/>
    <circle class="cls-8" cx="738.65" cy="229.36" r="1.12"/>
    <circle class="cls-8" cx="741.11" cy="240.47" r="1.12"/>
    <circle class="cls-8" cx="743.58" cy="236.76" r="1.12"/>
    <circle class="cls-8" cx="738.65" cy="236.76" r="1.12"/>
    <circle class="cls-8" cx="738.65" cy="192.32" r="1.12"/>
    <circle class="cls-8" cx="733.71" cy="192.32" r="1.12"/>
    <circle class="cls-8" cx="738.65" cy="199.72" r="1.12"/>
    <circle class="cls-8" cx="733.71" cy="199.72" r="1.12"/>
    <circle class="cls-8" cx="736.18" cy="196.02" r="1.12"/>
    <circle class="cls-8" cx="738.65" cy="192.32" r="1.12"/>
    <circle class="cls-8" cx="733.71" cy="192.32" r="1.12"/>
    <circle class="cls-8" cx="738.65" cy="207.13" r="1.12"/>
    <circle class="cls-8" cx="733.71" cy="207.13" r="1.12"/>
    <circle class="cls-8" cx="736.18" cy="203.43" r="1.12"/>
    <circle class="cls-8" cx="738.65" cy="199.72" r="1.12"/>
    <circle class="cls-8" cx="733.71" cy="199.72" r="1.12"/>
    <circle class="cls-8" cx="738.65" cy="214.54" r="1.12"/>
    <circle class="cls-8" cx="733.71" cy="214.54" r="1.12"/>
    <circle class="cls-8" cx="736.18" cy="210.84" r="1.12"/>
    <circle class="cls-8" cx="738.65" cy="207.13" r="1.12"/>
    <circle class="cls-8" cx="733.71" cy="207.13" r="1.12"/>
    <circle class="cls-8" cx="738.65" cy="221.95" r="1.12"/>
    <circle class="cls-8" cx="733.71" cy="221.95" r="1.12"/>
    <circle class="cls-8" cx="736.18" cy="218.24" r="1.12"/>
    <circle class="cls-8" cx="738.65" cy="214.54" r="1.12"/>
    <circle class="cls-8" cx="733.71" cy="214.54" r="1.12"/>
    <circle class="cls-8" cx="738.65" cy="229.36" r="1.12"/>
    <circle class="cls-8" cx="733.71" cy="229.36" r="1.12"/>
    <circle class="cls-8" cx="736.18" cy="225.65" r="1.12"/>
    <circle class="cls-8" cx="738.65" cy="221.95" r="1.12"/>
    <circle class="cls-8" cx="733.71" cy="221.95" r="1.12"/>
    <circle class="cls-8" cx="738.65" cy="236.76" r="1.12"/>
    <circle class="cls-8" cx="733.71" cy="236.76" r="1.12"/>
    <circle class="cls-8" cx="736.18" cy="233.06" r="1.12"/>
    <circle class="cls-8" cx="738.65" cy="229.36" r="1.12"/>
    <circle class="cls-8" cx="733.71" cy="229.36" r="1.12"/>
    <circle class="cls-8" cx="736.18" cy="240.47" r="1.12"/>
    <circle class="cls-8" cx="738.65" cy="236.76" r="1.12"/>
    <circle class="cls-8" cx="733.71" cy="236.76" r="1.12"/>
    <circle class="cls-8" cx="733.71" cy="192.32" r="1.12"/>
    <circle class="cls-8" cx="733.71" cy="199.72" r="1.12"/>
    <circle class="cls-8" cx="728.77" cy="199.72" r="1.12"/>
    <circle class="cls-8" cx="731.24" cy="196.02" r="1.12"/>
    <circle class="cls-8" cx="733.71" cy="192.32" r="1.12"/>
    <circle class="cls-8" cx="733.71" cy="207.13" r="1.12"/>
    <circle class="cls-8" cx="728.77" cy="207.13" r="1.12"/>
    <circle class="cls-8" cx="731.24" cy="203.43" r="1.12"/>
    <circle class="cls-8" cx="733.71" cy="199.72" r="1.12"/>
    <circle class="cls-8" cx="728.77" cy="199.72" r="1.12"/>
    <circle class="cls-8" cx="733.71" cy="214.54" r="1.12"/>
    <circle class="cls-8" cx="728.77" cy="214.54" r="1.12"/>
    <circle class="cls-8" cx="731.24" cy="210.84" r="1.12"/>
    <circle class="cls-8" cx="733.71" cy="207.13" r="1.12"/>
    <circle class="cls-8" cx="728.77" cy="207.13" r="1.12"/>
    <circle class="cls-8" cx="733.71" cy="221.95" r="1.12"/>
    <circle class="cls-8" cx="728.77" cy="221.95" r="1.12"/>
    <circle class="cls-8" cx="731.24" cy="218.24" r="1.12"/>
    <circle class="cls-8" cx="733.71" cy="214.54" r="1.12"/>
    <circle class="cls-8" cx="728.77" cy="214.54" r="1.12"/>
    <circle class="cls-8" cx="733.71" cy="229.36" r="1.12"/>
    <circle class="cls-8" cx="728.77" cy="229.36" r="1.12"/>
    <circle class="cls-8" cx="731.24" cy="225.65" r="1.12"/>
    <circle class="cls-8" cx="733.71" cy="221.95" r="1.12"/>
    <circle class="cls-8" cx="728.77" cy="221.95" r="1.12"/>
    <circle class="cls-8" cx="733.71" cy="236.76" r="1.12"/>
    <circle class="cls-8" cx="728.77" cy="236.76" r="1.12"/>
    <circle class="cls-8" cx="731.24" cy="233.06" r="1.12"/>
    <circle class="cls-8" cx="733.71" cy="229.36" r="1.12"/>
    <circle class="cls-8" cx="728.77" cy="229.36" r="1.12"/>
    <circle class="cls-8" cx="733.71" cy="236.76" r="1.12"/>
    <circle class="cls-8" cx="728.77" cy="236.76" r="1.12"/>
    <circle class="cls-8" cx="728.77" cy="199.72" r="1.12"/>
    <circle class="cls-8" cx="723.83" cy="199.72" r="1.12"/>
    <circle class="cls-8" cx="726.3" cy="196.02" r="1.12"/>
    <circle class="cls-8" cx="728.77" cy="207.13" r="1.12"/>
    <circle class="cls-8" cx="723.83" cy="207.13" r="1.12"/>
    <circle class="cls-8" cx="726.3" cy="203.43" r="1.12"/>
    <circle class="cls-8" cx="728.77" cy="199.72" r="1.12"/>
    <circle class="cls-8" cx="723.83" cy="199.72" r="1.12"/>
    <circle class="cls-8" cx="728.77" cy="214.54" r="1.12"/>
    <circle class="cls-8" cx="723.83" cy="214.54" r="1.12"/>
    <circle class="cls-8" cx="726.3" cy="210.84" r="1.12"/>
    <circle class="cls-8" cx="728.77" cy="207.13" r="1.12"/>
    <circle class="cls-8" cx="723.83" cy="207.13" r="1.12"/>
    <circle class="cls-8" cx="728.77" cy="221.95" r="1.12"/>
    <circle class="cls-8" cx="723.83" cy="221.95" r="1.12"/>
    <circle class="cls-8" cx="726.3" cy="218.24" r="1.12"/>
    <circle class="cls-8" cx="728.77" cy="214.54" r="1.12"/>
    <circle class="cls-8" cx="723.83" cy="214.54" r="1.12"/>
    <circle class="cls-8" cx="728.77" cy="229.36" r="1.12"/>
    <circle class="cls-8" cx="723.83" cy="229.36" r="1.12"/>
    <circle class="cls-8" cx="726.3" cy="225.65" r="1.12"/>
    <circle class="cls-8" cx="728.77" cy="221.95" r="1.12"/>
    <circle class="cls-8" cx="723.83" cy="221.95" r="1.12"/>
    <circle class="cls-8" cx="728.77" cy="236.76" r="1.12"/>
    <circle class="cls-8" cx="726.3" cy="233.06" r="1.12"/>
    <circle class="cls-8" cx="728.77" cy="229.36" r="1.12"/>
    <circle class="cls-8" cx="723.83" cy="229.36" r="1.12"/>
    <circle class="cls-8" cx="728.77" cy="236.76" r="1.12"/>
    <circle class="cls-8" cx="723.83" cy="199.72" r="1.12"/>
    <circle class="cls-8" cx="723.83" cy="207.13" r="1.12"/>
    <circle class="cls-8" cx="723.83" cy="199.72" r="1.12"/>
    <circle class="cls-8" cx="721.36" cy="203.43" r="1.12"/>
    <circle class="cls-8" cx="723.83" cy="214.54" r="1.12"/>
    <circle class="cls-8" cx="718.89" cy="214.54" r="1.12"/>
    <circle class="cls-8" cx="721.36" cy="210.84" r="1.12"/>
    <circle class="cls-8" cx="723.83" cy="207.13" r="1.12"/>
    <circle class="cls-8" cx="723.83" cy="221.95" r="1.12"/>
    <circle class="cls-8" cx="718.89" cy="221.95" r="1.12"/>
    <circle class="cls-8" cx="721.36" cy="218.24" r="1.12"/>
    <circle class="cls-8" cx="723.83" cy="214.54" r="1.12"/>
    <circle class="cls-8" cx="718.89" cy="214.54" r="1.12"/>
    <circle class="cls-8" cx="723.83" cy="229.36" r="1.12"/>
    <circle class="cls-8" cx="721.36" cy="225.65" r="1.12"/>
    <circle class="cls-8" cx="723.83" cy="221.95" r="1.12"/>
    <circle class="cls-8" cx="718.89" cy="221.95" r="1.12"/>
    <circle class="cls-8" cx="723.83" cy="229.36" r="1.12"/>
    <circle class="cls-8" cx="718.89" cy="214.54" r="1.12"/>
    <circle class="cls-8" cx="718.89" cy="221.95" r="1.12"/>
    <circle class="cls-8" cx="718.89" cy="214.54" r="1.12"/>
    <circle class="cls-8" cx="718.89" cy="221.95" r="1.12"/>
  </g>
</svg>
