<svg id="work" xmlns="http://www.w3.org/2000/svg" viewBox="0 0 1422 870">
  <defs>
    <style>
      .cls-1, .cls-3 {
        fill: #ebebeb;
      }

      .cls-1, .cls-4, .cls-5 {
        stroke: #4a4a4a;
      }

      .Graphic-Style-5, .cls-1, .cls-4, .cls-5 {
        stroke-linecap: round;
        stroke-linejoin: round;
        stroke-width: 2.5px;
      }

      .cls-2, .cls-5 {
        fill: #fff;
      }

      .Graphic-Style-5, .cls-4 {
        fill: none;
      }

      .cls-6 {
        fill: #ff0083;
      }

      .Graphic-Style-5 {
        stroke: #ff0083;
      }
    </style>
  </defs>
  <title>21,1</title>
  <g>
    <g>
      <rect class="cls-1" x="313.51" y="92.28" width="162.44" height="241.38" rx="7.87" ry="7.87"/>
      <polygon class="cls-2" points="454.13 148.28 469.43 135.98 469.43 286.77 454.13 275.53 454.13 148.28"/>
      <polygon class="cls-3" points="469.32 146.35 460.89 153.81 460.89 192.41 469.63 183.68 469.63 193.84 460.89 201.42 460.89 235.23 468.97 227.07 469.32 234.48 460.48 244.35 460.48 279.61 454.13 275.64 454.54 149.75 469.32 134.81 469.32 146.35"/>
      <polyline class="cls-4" points="475.95 130.87 454.82 148.84 454.82 275.64 475.39 291.25"/>
      <polyline class="cls-4" points="469.32 136.82 469.32 182.41 455.02 197.12"/>
      <polyline class="cls-4" points="469.32 182.68 469.32 225.36 455.02 240.07"/>
      <line class="cls-4" x1="469.32" y1="225.36" x2="469.32" y2="285.8"/>
      <path class="cls-5" d="M331.88,113.2a5.94,5.94,0,1,0-5.94,5.94A5.94,5.94,0,0,0,331.88,113.2Z"/>
      <path class="cls-5" d="M331.88,134.81a5.94,5.94,0,1,0-5.94,5.94A5.94,5.94,0,0,0,331.88,134.81Z"/>
      <path class="cls-5" d="M331.88,156.51a5.94,5.94,0,1,0-5.94,5.94A5.94,5.94,0,0,0,331.88,156.51Z"/>
      <path class="cls-5" d="M331.88,178.17a5.94,5.94,0,1,0-5.94,5.94A5.94,5.94,0,0,0,331.88,178.17Z"/>
      <path class="cls-5" d="M331.88,199.78a5.94,5.94,0,1,0-5.94,5.94A5.94,5.94,0,0,0,331.88,199.78Z"/>
      <path class="cls-5" d="M331.88,221.48a5.94,5.94,0,1,0-5.94,5.94A5.94,5.94,0,0,0,331.88,221.48Z"/>
      <path class="cls-5" d="M331.88,243a5.94,5.94,0,1,0-5.94,5.94A5.95,5.95,0,0,0,331.88,243Z"/>
      <path class="cls-5" d="M331.88,264.65a5.94,5.94,0,1,0-5.94,5.94A5.93,5.93,0,0,0,331.88,264.65Z"/>
      <path class="cls-5" d="M331.88,286.36a5.94,5.94,0,1,0-5.94,5.94A5.94,5.94,0,0,0,331.88,286.36Z"/>
      <path class="cls-5" d="M331.88,308a5.94,5.94,0,1,0-5.94,5.94A5.94,5.94,0,0,0,331.88,308Z"/>
      <g>
        <line class="cls-4" x1="310.06" y1="111.54" x2="327.19" y2="111.54"/>
        <line class="cls-4" x1="310.06" y1="115.14" x2="327.19" y2="115.14"/>
        <line class="cls-4" x1="310.06" y1="133.12" x2="327.19" y2="133.12"/>
        <line class="cls-4" x1="310.06" y1="136.71" x2="327.19" y2="136.71"/>
        <line class="cls-4" x1="310.06" y1="154.7" x2="327.19" y2="154.7"/>
        <line class="cls-4" x1="310.06" y1="158.29" x2="327.19" y2="158.29"/>
        <line class="cls-4" x1="310.06" y1="176.28" x2="327.19" y2="176.28"/>
        <line class="cls-4" x1="310.06" y1="179.87" x2="327.19" y2="179.87"/>
        <line class="cls-4" x1="310.06" y1="197.86" x2="327.19" y2="197.86"/>
        <line class="cls-4" x1="310.06" y1="201.45" x2="327.19" y2="201.45"/>
        <line class="cls-4" x1="310.06" y1="219.44" x2="327.19" y2="219.44"/>
        <line class="cls-4" x1="310.06" y1="223.03" x2="327.19" y2="223.03"/>
        <line class="cls-4" x1="310.06" y1="241.02" x2="327.19" y2="241.02"/>
        <line class="cls-4" x1="310.06" y1="244.61" x2="327.19" y2="244.61"/>
        <line class="cls-4" x1="310.06" y1="262.6" x2="327.19" y2="262.6"/>
        <line class="cls-4" x1="310.06" y1="266.19" x2="327.19" y2="266.19"/>
        <line class="cls-4" x1="310.06" y1="284.18" x2="327.19" y2="284.18"/>
        <line class="cls-4" x1="310.06" y1="287.77" x2="327.19" y2="287.77"/>
        <line class="cls-4" x1="310.06" y1="305.75" x2="327.19" y2="305.75"/>
        <line class="cls-4" x1="310.06" y1="309.35" x2="327.19" y2="309.35"/>
      </g>
      <path class="cls-6" d="M404.79,271.85H393.52V253.43H385.1c-.67,0-.53.54-.53.93q0,8.73,0,17.48H373.31V253.11H350.89c-.05-.2-.09-.26-.07-.32.69-4.15,1.41-8.29,2.08-12.45.1-.62.48-.57.9-.57h6.9c3.16,0,4.67-1.55,4.67-4.74V186.65a5.59,5.59,0,0,0-5.64-6c-1.84-.1-3.69-.09-5.54-.12-1.12,0-2.24,0-3.36,0V168.58h22.48V150.19h11.27c0,5.73,0,11.46,0,17.19,0,.68.21.9.89.88,1.94-.07,3.88-.08,5.83-.1h2.12a2.27,2.27,0,0,0,.11-.39q0-8.79,0-17.58h11.27c0,.38,0,.77,0,1.16q0,7.77,0,15.54c0,1.78,0,1.77,1.84,2a45.33,45.33,0,0,1,14.52,3.59c4.36,2,7.76,5,9.54,9.56A23.2,23.2,0,0,1,432,192.22a16.24,16.24,0,0,1-8.35,13.51l-1.18.68c.32.14.45.22.59.27a59.91,59.91,0,0,1,5.78,2.21c4.5,2.27,7.71,5.7,9,10.72a30.16,30.16,0,0,1-.26,15,20.64,20.64,0,0,1-6.54,11,28.56,28.56,0,0,1-13.4,6c-3.89.75-7.88,1.06-11.83,1.49-.85.09-1.1.36-1.07,1.18.07,1.49,0,3,0,4.47Q404.77,265.3,404.79,271.85Zm-20-32.06c3.48,0,6.78.08,10.07,0A41.77,41.77,0,0,0,408,237.6c2.67-1,5.18-2.27,6.71-4.82a10.21,10.21,0,0,0-3.58-14.18,25.4,25.4,0,0,0-11.85-3.28c-4.43-.2-8.86-.14-13.29-.25-1,0-1.25.25-1.25,1.24,0,7.44,0,14.88,0,22.33Zm0-47.24c0,3.46,0,6.93,0,10.39,0,.54,0,.91.75.93,5.67.09,11.33.08,16.87-1.4a12.45,12.45,0,0,0,7.13-4.57c2.67-3.65,1.76-9.69-1.75-12.62a17,17,0,0,0-9.9-3.57c-4.05-.32-8.14-.24-12.21-.36-.79,0-.9.35-.89,1C384.81,185.75,384.8,189.15,384.8,192.55Z"/>
    </g>
    <g>
      <rect class="cls-1" x="611.51" y="34.01" width="162.44" height="241.38" rx="7.87" ry="7.87"/>
      <polygon class="cls-2" points="752.13 90.02 767.43 77.72 767.43 228.5 752.13 217.27 752.13 90.02"/>
      <polygon class="cls-3" points="767.32 88.09 758.89 95.55 758.89 134.15 767.63 125.42 767.63 135.57 758.89 143.16 758.89 176.97 766.97 168.81 767.32 176.22 758.48 186.09 758.48 221.34 752.13 217.38 752.54 91.48 767.32 76.55 767.32 88.09"/>
      <polyline class="cls-4" points="773.95 72.61 752.82 90.58 752.82 217.38 773.39 232.98"/>
      <polyline class="cls-4" points="767.32 78.56 767.32 124.14 753.02 138.85"/>
      <polyline class="cls-4" points="767.32 124.42 767.32 167.1 753.02 181.81"/>
      <line class="cls-4" x1="767.32" y1="167.1" x2="767.32" y2="227.53"/>
      <path class="cls-5" d="M629.88,54.94a5.94,5.94,0,1,0-5.94,5.94A5.94,5.94,0,0,0,629.88,54.94Z"/>
      <path class="cls-5" d="M629.88,76.55a5.94,5.94,0,1,0-5.94,5.94A5.94,5.94,0,0,0,629.88,76.55Z"/>
      <path class="cls-5" d="M629.88,98.25a5.94,5.94,0,1,0-5.94,5.94A5.94,5.94,0,0,0,629.88,98.25Z"/>
      <path class="cls-5" d="M629.88,119.9a5.94,5.94,0,1,0-5.94,5.94A5.93,5.93,0,0,0,629.88,119.9Z"/>
      <path class="cls-5" d="M629.88,141.52a5.94,5.94,0,1,0-5.94,5.93A5.93,5.93,0,0,0,629.88,141.52Z"/>
      <path class="cls-5" d="M629.88,163.22a5.94,5.94,0,1,0-5.94,5.94A5.94,5.94,0,0,0,629.88,163.22Z"/>
      <path class="cls-5" d="M629.88,184.78a5.94,5.94,0,1,0-5.94,5.94A5.94,5.94,0,0,0,629.88,184.78Z"/>
      <path class="cls-5" d="M629.88,206.39a5.94,5.94,0,1,0-5.94,5.94A5.94,5.94,0,0,0,629.88,206.39Z"/>
      <path class="cls-5" d="M629.88,228.09a5.94,5.94,0,1,0-5.94,5.94A5.94,5.94,0,0,0,629.88,228.09Z"/>
      <path class="cls-5" d="M629.88,249.75a5.94,5.94,0,1,0-5.94,5.94A5.94,5.94,0,0,0,629.88,249.75Z"/>
      <g>
        <line class="cls-4" x1="608.06" y1="53.28" x2="625.19" y2="53.28"/>
        <line class="cls-4" x1="608.06" y1="56.87" x2="625.19" y2="56.87"/>
        <line class="cls-4" x1="608.06" y1="74.86" x2="625.19" y2="74.86"/>
        <line class="cls-4" x1="608.06" y1="78.45" x2="625.19" y2="78.45"/>
        <line class="cls-4" x1="608.06" y1="96.44" x2="625.19" y2="96.44"/>
        <line class="cls-4" x1="608.06" y1="100.03" x2="625.19" y2="100.03"/>
        <line class="cls-4" x1="608.06" y1="118.02" x2="625.19" y2="118.02"/>
        <line class="cls-4" x1="608.06" y1="121.61" x2="625.19" y2="121.61"/>
        <line class="cls-4" x1="608.06" y1="139.6" x2="625.19" y2="139.6"/>
        <line class="cls-4" x1="608.06" y1="143.19" x2="625.19" y2="143.19"/>
        <line class="cls-4" x1="608.06" y1="161.18" x2="625.19" y2="161.18"/>
        <line class="cls-4" x1="608.06" y1="164.77" x2="625.19" y2="164.77"/>
        <line class="cls-4" x1="608.06" y1="182.75" x2="625.19" y2="182.75"/>
        <line class="cls-4" x1="608.06" y1="186.35" x2="625.19" y2="186.35"/>
        <line class="cls-4" x1="608.06" y1="204.33" x2="625.19" y2="204.33"/>
        <line class="cls-4" x1="608.06" y1="207.93" x2="625.19" y2="207.93"/>
        <line class="cls-4" x1="608.06" y1="225.91" x2="625.19" y2="225.91"/>
        <line class="cls-4" x1="608.06" y1="229.5" x2="625.19" y2="229.5"/>
        <line class="cls-4" x1="608.06" y1="247.49" x2="625.19" y2="247.49"/>
        <line class="cls-4" x1="608.06" y1="251.08" x2="625.19" y2="251.08"/>
      </g>
      <path class="cls-6" d="M702.79,213.58H691.52V195.17H683.1c-.67,0-.53.53-.53.93q0,8.73,0,17.47H671.31V194.85H648.89c0-.2-.09-.27-.07-.33.69-4.14,1.41-8.29,2.08-12.44.1-.63.48-.58.9-.58h6.9c3.16,0,4.67-1.54,4.67-4.73V128.39a5.59,5.59,0,0,0-5.64-6c-1.84-.11-3.69-.1-5.54-.12-1.12,0-2.24,0-3.36,0v-12h22.48V91.92h11.27c0,5.73,0,11.47,0,17.2,0,.68.21.9.89.87,1.94-.06,3.88-.07,5.83-.1.73,0,1.45,0,2.12,0a2.06,2.06,0,0,0,.11-.38q0-8.79,0-17.59h11.27c0,.39,0,.77,0,1.16q0,7.77,0,15.54c0,1.79,0,1.77,1.84,2a45.61,45.61,0,0,1,14.52,3.6c4.36,2,7.76,5,9.54,9.55A23.24,23.24,0,0,1,730,134a16.24,16.24,0,0,1-8.35,13.52l-1.18.67c.32.15.45.23.59.28a55.09,55.09,0,0,1,5.78,2.21,16.18,16.18,0,0,1,9,10.72,30.16,30.16,0,0,1-.26,15,20.61,20.61,0,0,1-6.54,11,28.56,28.56,0,0,1-13.4,6c-3.89.76-7.88,1.06-11.83,1.49-.85.09-1.1.37-1.07,1.19.07,1.48,0,3,0,4.47C702.76,204.84,702.78,209.22,702.79,213.58Zm-20-32.06c3.48,0,6.78.08,10.07,0A41.49,41.49,0,0,0,706,179.33c2.66-1,5.18-2.27,6.71-4.81a10.21,10.21,0,0,0-3.58-14.18,25.28,25.28,0,0,0-11.85-3.28c-4.43-.2-8.86-.14-13.29-.26-1,0-1.25.26-1.25,1.24,0,7.45,0,14.89,0,22.33Zm0-47.24c0,3.47,0,6.93,0,10.4,0,.53,0,.91.75.93,5.67.09,11.33.08,16.87-1.4a12.45,12.45,0,0,0,7.13-4.57c2.67-3.66,1.76-9.7-1.75-12.62a17,17,0,0,0-9.9-3.57c-4-.32-8.14-.24-12.21-.37-.79,0-.9.35-.89,1C682.81,127.48,682.8,130.88,682.8,134.28Z"/>
    </g>
    <g>
      <rect class="cls-1" x="893.51" y="98.75" width="162.44" height="241.38" rx="7.87" ry="7.87"/>
      <polygon class="cls-2" points="1034.13 154.75 1049.43 142.45 1049.43 293.24 1034.13 282 1034.13 154.75"/>
      <polygon class="cls-3" points="1049.32 152.82 1040.89 160.29 1040.89 198.88 1049.63 190.15 1049.63 200.31 1040.89 207.89 1040.89 241.71 1048.97 233.54 1049.32 240.95 1040.48 250.82 1040.48 286.08 1034.13 282.12 1034.54 156.22 1049.32 141.29 1049.32 152.82"/>
      <polyline class="cls-4" points="1055.95 137.35 1034.82 155.31 1034.82 282.12 1055.39 297.72"/>
      <polyline class="cls-4" points="1049.32 143.29 1049.32 188.88 1035.03 203.59"/>
      <polyline class="cls-4" points="1049.32 189.15 1049.32 231.84 1035.03 246.55"/>
      <line class="cls-4" x1="1049.32" y1="231.84" x2="1049.32" y2="292.27"/>
      <path class="cls-5" d="M911.88,119.68a5.94,5.94,0,1,0-5.94,5.93A5.93,5.93,0,0,0,911.88,119.68Z"/>
      <path class="cls-5" d="M911.88,141.29a5.94,5.94,0,1,0-5.94,5.94A5.93,5.93,0,0,0,911.88,141.29Z"/>
      <path class="cls-5" d="M911.88,163a5.94,5.94,0,1,0-5.94,5.94A5.94,5.94,0,0,0,911.88,163Z"/>
      <path class="cls-5" d="M911.88,184.64a5.94,5.94,0,1,0-5.94,5.94A5.94,5.94,0,0,0,911.88,184.64Z"/>
      <path class="cls-5" d="M911.88,206.25a5.94,5.94,0,1,0-5.94,5.94A5.94,5.94,0,0,0,911.88,206.25Z"/>
      <path class="cls-5" d="M911.88,228a5.94,5.94,0,1,0-5.94,5.94A5.94,5.94,0,0,0,911.88,228Z"/>
      <path class="cls-5" d="M911.88,249.52a5.94,5.94,0,1,0-5.94,5.94A5.94,5.94,0,0,0,911.88,249.52Z"/>
      <path class="cls-5" d="M911.88,271.13a5.94,5.94,0,1,0-5.94,5.94A5.94,5.94,0,0,0,911.88,271.13Z"/>
      <path class="cls-5" d="M911.88,292.83a5.94,5.94,0,1,0-5.94,5.94A5.94,5.94,0,0,0,911.88,292.83Z"/>
      <path class="cls-5" d="M911.88,314.48a5.94,5.94,0,1,0-5.94,5.94A5.94,5.94,0,0,0,911.88,314.48Z"/>
      <g>
        <line class="cls-4" x1="890.06" y1="118.02" x2="907.19" y2="118.02"/>
        <line class="cls-4" x1="890.06" y1="121.61" x2="907.19" y2="121.61"/>
        <line class="cls-4" x1="890.06" y1="139.6" x2="907.19" y2="139.6"/>
        <line class="cls-4" x1="890.06" y1="143.19" x2="907.19" y2="143.19"/>
        <line class="cls-4" x1="890.06" y1="161.18" x2="907.19" y2="161.18"/>
        <line class="cls-4" x1="890.06" y1="164.77" x2="907.19" y2="164.77"/>
        <line class="cls-4" x1="890.06" y1="182.75" x2="907.19" y2="182.75"/>
        <line class="cls-4" x1="890.06" y1="186.35" x2="907.19" y2="186.35"/>
        <line class="cls-4" x1="890.06" y1="204.33" x2="907.19" y2="204.33"/>
        <line class="cls-4" x1="890.06" y1="207.92" x2="907.19" y2="207.92"/>
        <line class="cls-4" x1="890.06" y1="225.91" x2="907.19" y2="225.91"/>
        <line class="cls-4" x1="890.06" y1="229.5" x2="907.19" y2="229.5"/>
        <line class="cls-4" x1="890.06" y1="247.49" x2="907.19" y2="247.49"/>
        <line class="cls-4" x1="890.06" y1="251.08" x2="907.19" y2="251.08"/>
        <line class="cls-4" x1="890.06" y1="269.07" x2="907.19" y2="269.07"/>
        <line class="cls-4" x1="890.06" y1="272.66" x2="907.19" y2="272.66"/>
        <line class="cls-4" x1="890.06" y1="290.65" x2="907.19" y2="290.65"/>
        <line class="cls-4" x1="890.06" y1="294.24" x2="907.19" y2="294.24"/>
        <line class="cls-4" x1="890.06" y1="312.23" x2="907.19" y2="312.23"/>
        <line class="cls-4" x1="890.06" y1="315.82" x2="907.19" y2="315.82"/>
      </g>
      <path class="cls-6" d="M984.79,278.32H973.52V259.91c-2.87,0-5.65,0-8.42,0-.67,0-.53.54-.53.93q0,8.75,0,17.48H953.31V259.58H930.89c0-.2-.09-.26-.07-.32.69-4.15,1.41-8.29,2.08-12.45.1-.62.48-.57.9-.57h6.9c3.16,0,4.67-1.55,4.67-4.74V193.12a5.6,5.6,0,0,0-5.64-6c-1.84-.1-3.69-.09-5.54-.12h-3.36v-12h22.48V156.66h11.27c0,5.73,0,11.46,0,17.19,0,.68.21.91.89.88,1.94-.07,3.88-.08,5.83-.1h2.12a2.68,2.68,0,0,0,.11-.38q0-8.81,0-17.59h11.27c0,.38,0,.77,0,1.16q0,7.77,0,15.54c0,1.78,0,1.77,1.84,2a45.59,45.59,0,0,1,14.52,3.59c4.36,2,7.76,5,9.54,9.56a23.22,23.22,0,0,1,1.35,10.21,16.24,16.24,0,0,1-8.35,13.51l-1.18.68.59.28a57.34,57.34,0,0,1,5.78,2.2c4.5,2.27,7.71,5.7,9,10.72a30.16,30.16,0,0,1-.26,15,20.64,20.64,0,0,1-6.54,11,28.56,28.56,0,0,1-13.4,6c-3.89.76-7.88,1.06-11.83,1.49-.85.09-1.1.37-1.07,1.18.07,1.49,0,3,0,4.47Q984.77,271.77,984.79,278.32Zm-20-32.06c3.48,0,6.78.08,10.07,0A41.49,41.49,0,0,0,988,244.07c2.67-1,5.18-2.27,6.71-4.82a10.2,10.2,0,0,0-3.58-14.17,25.28,25.28,0,0,0-11.85-3.28c-4.43-.2-8.86-.15-13.29-.26-1,0-1.25.25-1.25,1.24,0,7.45,0,14.89,0,22.33Zm0-47.24q0,5.21,0,10.39c0,.54,0,.92.75.93,5.67.09,11.33.09,16.87-1.4a12.49,12.49,0,0,0,7.13-4.56c2.67-3.66,1.76-9.7-1.75-12.63a17.12,17.12,0,0,0-9.9-3.57c-4-.32-8.14-.24-12.21-.36-.79,0-.9.35-.89,1C964.81,192.22,964.8,195.62,964.8,199Z"/>
    </g>
    <g>
      <rect class="cls-1" x="1038.48" y="465.95" width="162.44" height="241.38" rx="7.87" ry="7.87"/>
      <polygon class="cls-2" points="1179.1 521.96 1194.4 509.66 1194.4 660.45 1179.1 649.21 1179.1 521.96"/>
      <polygon class="cls-3" points="1194.29 520.03 1185.86 527.49 1185.86 566.09 1194.6 557.36 1194.6 567.52 1185.86 575.1 1185.86 608.91 1193.94 600.75 1194.29 608.16 1185.45 618.03 1185.45 653.29 1179.1 649.32 1179.51 523.42 1194.29 508.49 1194.29 520.03"/>
      <polyline class="cls-4" points="1200.92 504.55 1179.79 522.52 1179.79 649.32 1200.36 664.92"/>
      <polyline class="cls-4" points="1194.29 510.5 1194.29 556.08 1179.99 570.79"/>
      <polyline class="cls-4" points="1194.29 556.36 1194.29 599.04 1179.99 613.75"/>
      <line class="cls-4" x1="1194.29" y1="599.04" x2="1194.29" y2="659.47"/>
      <path class="cls-5" d="M1056.85,486.88a5.94,5.94,0,1,0-5.94,5.94A5.94,5.94,0,0,0,1056.85,486.88Z"/>
      <path class="cls-5" d="M1056.85,508.49a5.94,5.94,0,1,0-5.94,5.94A5.94,5.94,0,0,0,1056.85,508.49Z"/>
      <path class="cls-5" d="M1056.85,530.19a5.94,5.94,0,1,0-5.94,5.94A5.94,5.94,0,0,0,1056.85,530.19Z"/>
      <path class="cls-5" d="M1056.85,551.85a5.94,5.94,0,1,0-5.94,5.94A5.94,5.94,0,0,0,1056.85,551.85Z"/>
      <path class="cls-5" d="M1056.85,573.46a5.94,5.94,0,1,0-5.94,5.94A5.94,5.94,0,0,0,1056.85,573.46Z"/>
      <path class="cls-5" d="M1056.85,595.16a5.94,5.94,0,1,0-5.94,5.94A5.94,5.94,0,0,0,1056.85,595.16Z"/>
      <path class="cls-5" d="M1056.85,616.72a5.94,5.94,0,1,0-5.94,5.94A5.94,5.94,0,0,0,1056.85,616.72Z"/>
      <path class="cls-5" d="M1056.85,638.33a5.94,5.94,0,1,0-5.94,5.94A5.94,5.94,0,0,0,1056.85,638.33Z"/>
      <path class="cls-5" d="M1056.85,660a5.94,5.94,0,1,0-5.94,5.94A5.93,5.93,0,0,0,1056.85,660Z"/>
      <path class="cls-5" d="M1056.85,681.69a5.94,5.94,0,1,0-5.94,5.94A5.94,5.94,0,0,0,1056.85,681.69Z"/>
      <g>
        <line class="cls-4" x1="1035.03" y1="485.22" x2="1052.15" y2="485.22"/>
        <line class="cls-4" x1="1035.03" y1="488.81" x2="1052.15" y2="488.81"/>
        <line class="cls-4" x1="1035.03" y1="506.8" x2="1052.15" y2="506.8"/>
        <line class="cls-4" x1="1035.03" y1="510.39" x2="1052.15" y2="510.39"/>
        <line class="cls-4" x1="1035.03" y1="528.38" x2="1052.15" y2="528.38"/>
        <line class="cls-4" x1="1035.03" y1="531.97" x2="1052.15" y2="531.97"/>
        <line class="cls-4" x1="1035.03" y1="549.96" x2="1052.15" y2="549.96"/>
        <line class="cls-4" x1="1035.03" y1="553.55" x2="1052.15" y2="553.55"/>
        <line class="cls-4" x1="1035.03" y1="571.54" x2="1052.15" y2="571.54"/>
        <line class="cls-4" x1="1035.03" y1="575.13" x2="1052.15" y2="575.13"/>
        <line class="cls-4" x1="1035.03" y1="593.12" x2="1052.15" y2="593.12"/>
        <line class="cls-4" x1="1035.03" y1="596.71" x2="1052.15" y2="596.71"/>
        <line class="cls-4" x1="1035.03" y1="614.7" x2="1052.15" y2="614.7"/>
        <line class="cls-4" x1="1035.03" y1="618.29" x2="1052.15" y2="618.29"/>
        <line class="cls-4" x1="1035.03" y1="636.28" x2="1052.15" y2="636.28"/>
        <line class="cls-4" x1="1035.03" y1="639.87" x2="1052.15" y2="639.87"/>
        <line class="cls-4" x1="1035.03" y1="657.86" x2="1052.15" y2="657.85"/>
        <line class="cls-4" x1="1035.03" y1="661.45" x2="1052.15" y2="661.45"/>
        <line class="cls-4" x1="1035.03" y1="679.43" x2="1052.15" y2="679.43"/>
        <line class="cls-4" x1="1035.03" y1="683.03" x2="1052.15" y2="683.03"/>
      </g>
      <path class="cls-6" d="M1129.76,645.53h-11.27V627.11h-8.42c-.68,0-.53.53-.53.93q0,8.73,0,17.48h-11.27V626.79h-22.42c0-.2-.09-.27-.07-.32.69-4.15,1.41-8.3,2.08-12.45.1-.63.47-.58.9-.58h6.9c3.16,0,4.67-1.54,4.67-4.73V560.33a5.59,5.59,0,0,0-5.64-6c-1.85-.1-3.69-.1-5.54-.12-1.12,0-2.24,0-3.37,0v-12h22.49v-18.4h11.27c0,5.74,0,11.47,0,17.2,0,.68.2.9.89.88,1.94-.07,3.88-.08,5.83-.11h2.11a2.76,2.76,0,0,0,.12-.38q0-8.79,0-17.59h11.27c0,.39,0,.78,0,1.17v15.54c0,1.78,0,1.77,1.83,2a45.45,45.45,0,0,1,14.53,3.59c4.36,2,7.75,5,9.54,9.56A23.05,23.05,0,0,1,1157,565.9a16.21,16.21,0,0,1-8.34,13.51l-1.18.68c.31.14.45.22.59.27a59.91,59.91,0,0,1,5.78,2.21c4.5,2.27,7.71,5.7,9,10.72a30.16,30.16,0,0,1-.26,15,20.66,20.66,0,0,1-6.55,11,28.4,28.4,0,0,1-13.4,6c-3.88.76-7.87,1.07-11.83,1.5-.84.09-1.09.36-1.06,1.18.06,1.49,0,3,0,4.47Q1129.72,639,1129.76,645.53Zm-20-32.06c3.49,0,6.78.08,10.08,0a42,42,0,0,0,13.15-2.17c2.67-1,5.18-2.27,6.72-4.82a10.21,10.21,0,0,0-3.58-14.18,25.32,25.32,0,0,0-11.85-3.28c-4.43-.2-8.86-.14-13.29-.26-1,0-1.26.26-1.25,1.25,0,7.44,0,14.88,0,22.33Zm0-47.24c0,3.46,0,6.93,0,10.39,0,.54,0,.91.75.93,5.67.09,11.32.08,16.87-1.4a12.45,12.45,0,0,0,7.13-4.57c2.66-3.65,1.76-9.69-1.75-12.62a17,17,0,0,0-9.9-3.57c-4-.32-8.14-.24-12.21-.37-.79,0-.9.36-.89,1C1109.78,559.43,1109.77,562.83,1109.77,566.23Z"/>
    </g>
    <g>
      <rect class="cls-1" x="756.31" y="587.89" width="162.44" height="241.38" rx="7.87" ry="7.87"/>
      <polygon class="cls-2" points="896.92 643.89 912.23 631.59 912.23 782.38 896.92 771.14 896.92 643.89"/>
      <polygon class="cls-3" points="912.12 641.97 903.69 649.42 903.69 688.02 912.43 679.29 912.43 689.45 903.69 697.03 903.69 730.85 911.77 722.68 912.12 730.09 903.28 739.96 903.28 775.22 896.92 771.25 897.34 645.36 912.12 630.42 912.12 641.97"/>
      <polyline class="cls-4" points="918.75 626.49 897.62 644.45 897.62 771.25 918.19 786.86"/>
      <polyline class="cls-4" points="912.12 632.43 912.12 678.02 897.82 692.73"/>
      <polyline class="cls-4" points="912.12 678.29 912.12 720.98 897.82 735.69"/>
      <line class="cls-4" x1="912.12" y1="720.98" x2="912.12" y2="781.41"/>
      <path class="cls-5" d="M774.68,608.81a5.94,5.94,0,1,0-5.94,5.94A5.93,5.93,0,0,0,774.68,608.81Z"/>
      <path class="cls-5" d="M774.68,630.43a5.94,5.94,0,1,0-5.94,5.93A5.93,5.93,0,0,0,774.68,630.43Z"/>
      <path class="cls-5" d="M774.68,652.13a5.94,5.94,0,1,0-5.94,5.94A5.94,5.94,0,0,0,774.68,652.13Z"/>
      <path class="cls-5" d="M774.68,673.78a5.94,5.94,0,1,0-5.94,5.94A5.94,5.94,0,0,0,774.68,673.78Z"/>
      <path class="cls-5" d="M774.68,695.39a5.94,5.94,0,1,0-5.94,5.94A5.94,5.94,0,0,0,774.68,695.39Z"/>
      <path class="cls-5" d="M774.68,717.09a5.94,5.94,0,1,0-5.94,5.94A5.94,5.94,0,0,0,774.68,717.09Z"/>
      <path class="cls-5" d="M774.68,738.66a5.94,5.94,0,1,0-5.94,5.94A5.94,5.94,0,0,0,774.68,738.66Z"/>
      <path class="cls-5" d="M774.68,760.27a5.94,5.94,0,1,0-5.94,5.93A5.94,5.94,0,0,0,774.68,760.27Z"/>
      <path class="cls-5" d="M774.68,782a5.94,5.94,0,1,0-5.94,5.94A5.94,5.94,0,0,0,774.68,782Z"/>
      <path class="cls-5" d="M774.68,803.62a5.94,5.94,0,1,0-5.94,5.94A5.94,5.94,0,0,0,774.68,803.62Z"/>
      <g>
        <line class="cls-4" x1="752.85" y1="607.16" x2="769.98" y2="607.16"/>
        <line class="cls-4" x1="752.85" y1="610.75" x2="769.98" y2="610.75"/>
        <line class="cls-4" x1="752.85" y1="628.74" x2="769.98" y2="628.74"/>
        <line class="cls-4" x1="752.85" y1="632.33" x2="769.98" y2="632.33"/>
        <line class="cls-4" x1="752.85" y1="650.31" x2="769.98" y2="650.31"/>
        <line class="cls-4" x1="752.85" y1="653.91" x2="769.98" y2="653.91"/>
        <line class="cls-4" x1="752.85" y1="671.89" x2="769.98" y2="671.89"/>
        <line class="cls-4" x1="752.85" y1="675.48" x2="769.98" y2="675.48"/>
        <line class="cls-4" x1="752.85" y1="693.47" x2="769.98" y2="693.47"/>
        <line class="cls-4" x1="752.85" y1="697.06" x2="769.98" y2="697.06"/>
        <line class="cls-4" x1="752.85" y1="715.05" x2="769.98" y2="715.05"/>
        <line class="cls-4" x1="752.85" y1="718.64" x2="769.98" y2="718.64"/>
        <line class="cls-4" x1="752.85" y1="736.63" x2="769.98" y2="736.63"/>
        <line class="cls-4" x1="752.85" y1="740.22" x2="769.98" y2="740.22"/>
        <line class="cls-4" x1="752.85" y1="758.21" x2="769.98" y2="758.21"/>
        <line class="cls-4" x1="752.85" y1="761.8" x2="769.98" y2="761.8"/>
        <line class="cls-4" x1="752.85" y1="779.79" x2="769.98" y2="779.79"/>
        <line class="cls-4" x1="752.85" y1="783.38" x2="769.98" y2="783.38"/>
        <line class="cls-4" x1="752.85" y1="801.37" x2="769.98" y2="801.37"/>
        <line class="cls-4" x1="752.85" y1="804.96" x2="769.98" y2="804.96"/>
      </g>
      <path class="cls-6" d="M847.59,767.46H836.32V749.05h-8.43c-.67,0-.52.54-.52.93q0,8.74,0,17.48H816.1V748.72H793.69c-.05-.2-.09-.26-.08-.32.7-4.15,1.42-8.29,2.08-12.45.1-.62.48-.57.91-.57h6.9c3.16,0,4.67-1.55,4.67-4.74V682.27a5.6,5.6,0,0,0-5.64-6c-1.85-.1-3.69-.09-5.54-.12h-3.37v-12H816.1V645.8h11.28c0,5.73,0,11.46,0,17.19,0,.68.2.91.88.88,1.95-.07,3.89-.08,5.84-.1h2.11c.08-.27.12-.33.12-.38q0-8.8,0-17.59h11.27c0,.38-.05.77-.05,1.16V662.5c0,1.78,0,1.77,1.83,2a45.65,45.65,0,0,1,14.53,3.59c4.36,2,7.75,5,9.54,9.56a23.07,23.07,0,0,1,1.34,10.21,16.21,16.21,0,0,1-8.34,13.51l-1.18.68.59.28a57.34,57.34,0,0,1,5.78,2.2c4.5,2.27,7.71,5.7,9,10.72a30.16,30.16,0,0,1-.26,15,20.66,20.66,0,0,1-6.55,11,28.52,28.52,0,0,1-13.4,6c-3.88.76-7.87,1.06-11.83,1.49-.85.09-1.09.36-1.06,1.18.06,1.49,0,3,0,4.47Q847.56,760.91,847.59,767.46Zm-20-32.06c3.49,0,6.78.08,10.08,0a41.43,41.43,0,0,0,13.15-2.17c2.67-1,5.18-2.27,6.72-4.82A10.2,10.2,0,0,0,854,714.22a25.32,25.32,0,0,0-11.85-3.28c-4.43-.2-8.86-.15-13.29-.26-1,0-1.26.25-1.25,1.24,0,7.44,0,14.89,0,22.33Zm0-47.24q0,5.21,0,10.39c0,.54,0,.92.75.93,5.67.09,11.32.09,16.87-1.4a12.49,12.49,0,0,0,7.13-4.56c2.66-3.66,1.76-9.7-1.75-12.63a17.14,17.14,0,0,0-9.9-3.57c-4.05-.32-8.14-.24-12.22-.36-.78,0-.89.35-.88,1C827.61,681.36,827.6,684.76,827.6,688.16Z"/>
    </g>
    <g>
      <rect class="cls-1" x="451.5" y="576.94" width="162.44" height="241.38" rx="7.87" ry="7.87"/>
      <polygon class="cls-2" points="592.12 632.94 607.42 620.64 607.42 771.43 592.12 760.19 592.12 632.94"/>
      <polygon class="cls-3" points="607.31 631.01 598.89 638.48 598.89 677.07 607.62 668.34 607.62 678.5 598.89 686.08 598.89 719.89 606.96 711.73 607.31 719.14 598.47 729.01 598.47 764.27 592.12 760.3 592.53 634.41 607.31 619.48 607.31 631.01"/>
      <polyline class="cls-4" points="613.94 615.54 592.81 633.5 592.81 760.3 613.38 775.91"/>
      <polyline class="cls-4" points="607.31 621.49 607.31 667.07 593.02 681.78"/>
      <polyline class="cls-4" points="607.31 667.34 607.31 710.03 593.02 724.74"/>
      <line class="cls-4" x1="607.31" y1="710.03" x2="607.31" y2="770.46"/>
      <path class="cls-5" d="M469.88,597.86a5.95,5.95,0,1,0-5.94,5.94A5.94,5.94,0,0,0,469.88,597.86Z"/>
      <path class="cls-5" d="M469.88,619.48a5.95,5.95,0,1,0-5.94,5.93A5.93,5.93,0,0,0,469.88,619.48Z"/>
      <path class="cls-5" d="M469.88,641.18a5.95,5.95,0,1,0-5.94,5.94A5.95,5.95,0,0,0,469.88,641.18Z"/>
      <path class="cls-5" d="M469.88,662.83a5.95,5.95,0,1,0-5.94,5.94A5.95,5.95,0,0,0,469.88,662.83Z"/>
      <path class="cls-5" d="M469.88,684.44a5.95,5.95,0,1,0-5.94,5.94A5.95,5.95,0,0,0,469.88,684.44Z"/>
      <path class="cls-5" d="M469.88,706.14a5.95,5.95,0,1,0-5.94,5.94A5.95,5.95,0,0,0,469.88,706.14Z"/>
      <path class="cls-5" d="M469.88,727.71a5.95,5.95,0,1,0-5.94,5.94A5.95,5.95,0,0,0,469.88,727.71Z"/>
      <path class="cls-5" d="M469.88,749.32a5.95,5.95,0,1,0-5.94,5.94A5.95,5.95,0,0,0,469.88,749.32Z"/>
      <path class="cls-5" d="M469.88,771a5.95,5.95,0,1,0-5.94,5.94A5.95,5.95,0,0,0,469.88,771Z"/>
      <path class="cls-5" d="M469.88,792.67a5.95,5.95,0,1,0-5.94,5.94A5.95,5.95,0,0,0,469.88,792.67Z"/>
      <g>
        <line class="cls-4" x1="448.05" y1="596.21" x2="465.18" y2="596.21"/>
        <line class="cls-4" x1="448.05" y1="599.8" x2="465.18" y2="599.8"/>
        <line class="cls-4" x1="448.05" y1="617.79" x2="465.18" y2="617.79"/>
        <line class="cls-4" x1="448.05" y1="621.38" x2="465.18" y2="621.38"/>
        <line class="cls-4" x1="448.05" y1="639.36" x2="465.18" y2="639.36"/>
        <line class="cls-4" x1="448.05" y1="642.96" x2="465.18" y2="642.96"/>
        <line class="cls-4" x1="448.05" y1="660.94" x2="465.18" y2="660.94"/>
        <line class="cls-4" x1="448.05" y1="664.53" x2="465.18" y2="664.53"/>
        <line class="cls-4" x1="448.05" y1="682.52" x2="465.18" y2="682.52"/>
        <line class="cls-4" x1="448.05" y1="686.11" x2="465.18" y2="686.11"/>
        <line class="cls-4" x1="448.05" y1="704.1" x2="465.18" y2="704.1"/>
        <line class="cls-4" x1="448.05" y1="707.69" x2="465.18" y2="707.69"/>
        <line class="cls-4" x1="448.05" y1="725.68" x2="465.18" y2="725.68"/>
        <line class="cls-4" x1="448.05" y1="729.27" x2="465.18" y2="729.27"/>
        <line class="cls-4" x1="448.05" y1="747.26" x2="465.18" y2="747.26"/>
        <line class="cls-4" x1="448.05" y1="750.85" x2="465.18" y2="750.85"/>
        <line class="cls-4" x1="448.05" y1="768.84" x2="465.18" y2="768.84"/>
        <line class="cls-4" x1="448.05" y1="772.43" x2="465.18" y2="772.43"/>
        <line class="cls-4" x1="448.05" y1="790.42" x2="465.18" y2="790.42"/>
        <line class="cls-4" x1="448.05" y1="794.01" x2="465.18" y2="794.01"/>
      </g>
      <path class="cls-6" d="M542.78,756.51H531.51V738.1h-8.42c-.67,0-.53.54-.53.93q0,8.75,0,17.48H511.3V737.77H488.88a1.11,1.11,0,0,1-.07-.32c.69-4.15,1.41-8.29,2.08-12.45.1-.62.48-.57.9-.57h6.9c3.16,0,4.67-1.55,4.67-4.74V671.31a5.6,5.6,0,0,0-5.64-6c-1.84-.1-3.69-.09-5.54-.12h-3.36v-12H511.3V634.85h11.27c0,5.73,0,11.46,0,17.19,0,.68.21.91.89.88,1.94-.07,3.89-.08,5.83-.1.73,0,1.46,0,2.12,0a2.68,2.68,0,0,0,.11-.38q0-8.81,0-17.59h11.27c0,.38,0,.77,0,1.16,0,5.18,0,10.36,0,15.54,0,1.78,0,1.77,1.83,2a45.59,45.59,0,0,1,14.52,3.59c4.36,2,7.76,5,9.54,9.56A23.22,23.22,0,0,1,570,676.88a16.24,16.24,0,0,1-8.35,13.51l-1.18.68.59.28a57.34,57.34,0,0,1,5.78,2.2c4.5,2.27,7.72,5.7,9,10.72a30.16,30.16,0,0,1-.26,15,20.7,20.7,0,0,1-6.54,11,28.56,28.56,0,0,1-13.4,6c-3.89.76-7.88,1.06-11.83,1.49-.85.09-1.1.36-1.07,1.18.07,1.49,0,3,0,4.47Q542.76,750,542.78,756.51Zm-20-32.06c3.48,0,6.78.08,10.07,0A41.49,41.49,0,0,0,546,722.26c2.67-1,5.18-2.27,6.71-4.82a10.2,10.2,0,0,0-3.57-14.17A25.36,25.36,0,0,0,537.3,700c-4.42-.2-8.86-.15-13.29-.26-1,0-1.25.25-1.25,1.24,0,7.44,0,14.89,0,22.33Zm0-47.24c0,3.47,0,6.93,0,10.39,0,.54,0,.92.75.93,5.67.09,11.32.09,16.86-1.4a12.49,12.49,0,0,0,7.13-4.56c2.67-3.66,1.76-9.7-1.75-12.63a17.12,17.12,0,0,0-9.9-3.57c-4-.32-8.14-.24-12.21-.36-.79,0-.9.35-.89,1C522.8,670.41,522.79,673.81,522.79,677.21Z"/>
    </g>
    <g>
      <rect class="cls-1" x="175.5" y="454.01" width="162.44" height="241.38" rx="7.87" ry="7.87"/>
      <polygon class="cls-2" points="316.12 510.01 331.42 497.71 331.42 648.5 316.12 637.26 316.12 510.01"/>
      <polygon class="cls-3" points="331.31 508.08 322.89 515.54 322.89 554.14 331.62 545.41 331.62 555.57 322.89 563.15 322.89 596.96 330.96 588.8 331.31 596.21 322.47 606.08 322.47 641.34 316.12 637.37 316.53 511.48 331.31 496.54 331.31 508.08"/>
      <polyline class="cls-4" points="337.94 492.6 316.81 510.57 316.81 637.37 337.38 652.98"/>
      <polyline class="cls-4" points="331.31 498.55 331.31 544.13 317.02 558.85"/>
      <polyline class="cls-4" points="331.31 544.41 331.31 587.09 317.02 601.8"/>
      <line class="cls-4" x1="331.31" y1="587.09" x2="331.31" y2="647.52"/>
      <path class="cls-5" d="M193.88,474.93a5.95,5.95,0,1,0-5.94,5.94A5.95,5.95,0,0,0,193.88,474.93Z"/>
      <path class="cls-5" d="M193.88,496.54a5.95,5.95,0,1,0-5.94,5.94A5.95,5.95,0,0,0,193.88,496.54Z"/>
      <path class="cls-5" d="M193.88,518.24a5.95,5.95,0,1,0-5.94,5.94A5.95,5.95,0,0,0,193.88,518.24Z"/>
      <path class="cls-5" d="M193.88,539.9a5.95,5.95,0,1,0-5.94,5.94A5.95,5.95,0,0,0,193.88,539.9Z"/>
      <path class="cls-5" d="M193.88,561.51a5.95,5.95,0,1,0-5.94,5.94A5.95,5.95,0,0,0,193.88,561.51Z"/>
      <path class="cls-5" d="M193.88,583.21a5.95,5.95,0,1,0-5.94,5.94A5.95,5.95,0,0,0,193.88,583.21Z"/>
      <path class="cls-5" d="M193.88,604.77a5.95,5.95,0,1,0-5.94,5.94A5.95,5.95,0,0,0,193.88,604.77Z"/>
      <path class="cls-5" d="M193.88,626.38a5.95,5.95,0,1,0-5.94,5.94A5.95,5.95,0,0,0,193.88,626.38Z"/>
      <path class="cls-5" d="M193.88,648.09a5.95,5.95,0,1,0-5.94,5.93A5.95,5.95,0,0,0,193.88,648.09Z"/>
      <path class="cls-5" d="M193.88,669.74a5.95,5.95,0,1,0-5.94,5.94A5.95,5.95,0,0,0,193.88,669.74Z"/>
      <g>
        <line class="cls-4" x1="172.05" y1="473.27" x2="189.18" y2="473.27"/>
        <line class="cls-4" x1="172.05" y1="476.87" x2="189.18" y2="476.87"/>
        <line class="cls-4" x1="172.05" y1="494.85" x2="189.18" y2="494.85"/>
        <line class="cls-4" x1="172.05" y1="498.44" x2="189.18" y2="498.44"/>
        <line class="cls-4" x1="172.05" y1="516.43" x2="189.18" y2="516.43"/>
        <line class="cls-4" x1="172.05" y1="520.02" x2="189.18" y2="520.02"/>
        <line class="cls-4" x1="172.05" y1="538.01" x2="189.18" y2="538.01"/>
        <line class="cls-4" x1="172.05" y1="541.6" x2="189.18" y2="541.6"/>
        <line class="cls-4" x1="172.05" y1="559.59" x2="189.18" y2="559.59"/>
        <line class="cls-4" x1="172.05" y1="563.18" x2="189.18" y2="563.18"/>
        <line class="cls-4" x1="172.05" y1="581.17" x2="189.18" y2="581.17"/>
        <line class="cls-4" x1="172.05" y1="584.76" x2="189.18" y2="584.76"/>
        <line class="cls-4" x1="172.05" y1="602.75" x2="189.18" y2="602.75"/>
        <line class="cls-4" x1="172.05" y1="606.34" x2="189.18" y2="606.34"/>
        <line class="cls-4" x1="172.05" y1="624.33" x2="189.18" y2="624.33"/>
        <line class="cls-4" x1="172.05" y1="627.92" x2="189.18" y2="627.92"/>
        <line class="cls-4" x1="172.05" y1="645.91" x2="189.18" y2="645.91"/>
        <line class="cls-4" x1="172.05" y1="649.5" x2="189.18" y2="649.5"/>
        <line class="cls-4" x1="172.05" y1="667.48" x2="189.18" y2="667.48"/>
        <line class="cls-4" x1="172.05" y1="671.08" x2="189.18" y2="671.08"/>
      </g>
      <path class="cls-6" d="M266.78,633.58H255.51V615.16h-8.42c-.67,0-.53.54-.53.93q0,8.73,0,17.48H235.3V614.84H212.88a1.17,1.17,0,0,1-.07-.32c.69-4.15,1.41-8.29,2.08-12.45.1-.62.48-.58.9-.57h6.9c3.16,0,4.67-1.54,4.67-4.73V548.38a5.59,5.59,0,0,0-5.64-6c-1.84-.1-3.69-.09-5.54-.12-1.11,0-2.24,0-3.36,0v-12H235.3V511.92h11.27c0,5.73,0,11.46,0,17.19,0,.68.21.9.89.88,1.94-.07,3.89-.08,5.83-.1h2.12a2.27,2.27,0,0,0,.11-.39q0-8.79,0-17.58h11.27c0,.38,0,.77,0,1.16,0,5.18,0,10.36,0,15.54,0,1.78,0,1.77,1.83,2a45.33,45.33,0,0,1,14.52,3.59c4.36,2,7.76,5,9.54,9.56A23.2,23.2,0,0,1,294,554a16.24,16.24,0,0,1-8.35,13.51l-1.18.68c.32.14.45.22.59.27a59.91,59.91,0,0,1,5.78,2.21c4.5,2.27,7.72,5.7,9,10.72a30.16,30.16,0,0,1-.26,15,20.64,20.64,0,0,1-6.54,11,28.45,28.45,0,0,1-13.4,6c-3.89.76-7.88,1.07-11.83,1.5-.85.09-1.1.36-1.07,1.18.07,1.49,0,3,0,4.47Q266.76,627,266.78,633.58Zm-20-32.06c3.48,0,6.78.08,10.07,0A41.77,41.77,0,0,0,270,599.33c2.67-1,5.18-2.27,6.71-4.82a10.21,10.21,0,0,0-3.57-14.18,25.36,25.36,0,0,0-11.86-3.28c-4.42-.2-8.86-.14-13.29-.25-1,0-1.25.25-1.25,1.24,0,7.44,0,14.88,0,22.33Zm0-47.24c0,3.46,0,6.93,0,10.39,0,.54,0,.91.75.93,5.67.09,11.32.08,16.86-1.4a12.45,12.45,0,0,0,7.13-4.57c2.67-3.65,1.76-9.69-1.75-12.62a17,17,0,0,0-9.9-3.57c-4-.32-8.14-.24-12.21-.37-.79,0-.9.36-.89,1C246.8,547.48,246.79,550.88,246.79,554.28Z"/>
    </g>
    <g>
      <polyline class="Graphic-Style-5" points="498.81 242.98 542.72 242.98 552.68 252.94 589.68 252.94"/>
      <line class="Graphic-Style-5" x1="504.35" y1="257.49" x2="521.02" y2="257.49"/>
      <polyline class="Graphic-Style-5" points="504.35 296.89 552.35 296.89 581.48 326.02"/>
      <polyline class="Graphic-Style-5" points="498.81 308.77 544.24 308.77 573.55 338.08 828.35 338.08 847.69 318.74 869.02 318.74"/>
      <line class="Graphic-Style-5" x1="789.02" y1="233.03" x2="869.02" y2="233.03"/>
      <polyline class="Graphic-Style-5" points="783.68 221.02 821.02 221.02 833.61 208.43 875.02 208.43"/>
      <line class="Graphic-Style-5" x1="837.53" y1="221.37" x2="866.35" y2="221.37"/>
      <line class="Graphic-Style-5" x1="629.88" y1="296.89" x2="629.88" y2="322.63"/>
      <line class="Graphic-Style-5" x1="623.94" y1="347.28" x2="604.48" y2="366.75"/>
      <line class="Graphic-Style-5" x1="581.48" y1="388.62" x2="515.75" y2="454.35"/>
      <polyline class="Graphic-Style-5" points="475.38 490.87 428.55 537.71 428.55 549.9 404.73 549.9 376.86 577.77 365.02 577.77"/>
      <polyline class="Graphic-Style-5" points="578.35 360.62 613.65 395.92 636.35 395.92 808.65 568.22"/>
      <line class="Graphic-Style-5" x1="683.91" y1="300.65" x2="683.91" y2="324.48"/>
      <line class="Graphic-Style-5" x1="683.91" y1="347.28" x2="683.91" y2="430.54"/>
      <polyline class="Graphic-Style-5" points="683.91 454.35 683.91 464.42 790.01 570.51"/>
      <polyline class="Graphic-Style-5" points="700.35 301.25 700.35 439.28 790.55 529.48 925.02 529.48 954.53 558.99 1013.02 558.99"/>
      <line class="Graphic-Style-5" x1="644.35" y1="558.99" x2="699.28" y2="504.07"/>
      <polyline class="Graphic-Style-5" points="743.02 459.95 768.98 433.99 866.35 433.99 918.57 381.77 918.57 360.62"/>
      <polyline class="Graphic-Style-5" points="934.35 360.62 934.35 392.62 879.23 447.74 879.23 514.43"/>
      <line class="Graphic-Style-5" x1="879.23" y1="538.7" x2="879.23" y2="565.57"/>
      <polyline class="Graphic-Style-5" points="950.35 360.62 950.35 430.54 971.39 451.58"/>
      <polyline class="Graphic-Style-5" points="964.73 360.62 964.73 421.48 991.44 448.19 991.44 470.97 1010 489.52"/>
      <polyline class="Graphic-Style-5" points="644.35 296.89 644.35 350.13 617.24 377.24"/>
      <line class="Graphic-Style-5" x1="595.02" y1="402.62" x2="514.23" y2="483.41"/>
      <polyline class="Graphic-Style-5" points="444.35 357.01 444.35 430.12 488.73 474.5 488.73 500.6 507.39 519.27 507.39 552.13"/>
      <polyline class="Graphic-Style-5" points="424.35 357.01 424.35 425.95 402.49 447.81"/>
      <polyline class="Graphic-Style-5" points="404.73 354.62 404.73 412.62 382.02 435.33 382.02 475.28 354.4 502.9"/>
      <line class="Graphic-Style-5" x1="934.35" y1="650.94" x2="1010" y2="650.94"/>
      <polyline class="Graphic-Style-5" points="929.02 668.29 972.18 668.29 989.15 685.27 1018.35 685.27"/>
      <polyline class="Graphic-Style-5" points="734.35 669.72 683.91 669.72 662.92 690.71 636.35 690.71"/>
      <line class="Graphic-Style-5" x1="636.35" y1="658.5" x2="661.69" y2="658.5"/>
      <line class="Graphic-Style-5" x1="685.35" y1="687.06" x2="734.35" y2="687.06"/>
      <polyline class="Graphic-Style-5" points="347.68 662.39 387.68 662.39 395.93 670.64 438.68 670.64"/>
      <line class="Graphic-Style-5" x1="350.68" y1="648.39" x2="438.68" y2="648.39"/>
      <line class="Graphic-Style-5" x1="358.68" y1="675.39" x2="381.18" y2="675.39"/>
    </g>
  </g>
</svg>
