<svg id="work" xmlns="http://www.w3.org/2000/svg" viewBox="0 0 1422 870">
  <defs>
    <style>
      .cls-1, .cls-10, .cls-7 {
        fill: #ebebeb;
      }

      .cls-2, .cls-3, .cls-8 {
        fill: #fff;
      }

      .cls-10, .cls-3, .cls-4, .cls-5, .cls-7, .cls-8, .cls-9 {
        stroke: #4a4a4a;
      }

      .cls-10, .cls-12, .cls-3, .cls-4, .cls-5, .cls-7, .cls-8, .cls-9 {
        stroke-linecap: round;
        stroke-linejoin: round;
      }

      .cls-10, .cls-3, .cls-4, .cls-9 {
        stroke-width: 2.5px;
      }

      .cls-12, .cls-4, .cls-5 {
        fill: none;
      }

      .cls-12, .cls-5, .cls-7, .cls-8 {
        stroke-width: 4px;
      }

      .cls-6, .cls-9 {
        fill: #ff0083;
      }

      .cls-11 {
        fill: red;
      }

      .cls-12 {
        stroke: #ff0083;
      }
    </style>
  </defs>
  <title>28,4</title>
  <g>
    <polygon class="cls-1" points="1011.08 212.58 1009.08 235.08 1051.08 239.08 1011.08 212.58"/>
    <polygon class="cls-1" points="233.75 312.25 231.75 334.75 274.75 337.75 233.75 312.25"/>
    <polygon class="cls-1" points="583.08 59.58 581.08 82.08 623.08 86.08 583.08 59.58"/>
    <path class="cls-2" d="M1128,391.92c3.27-20.92-4.71-39-26.6-42.59l-2.13-2.08-11.06-1-4.19,4.5s-6,4-9,7.25c-6,1.5-17.5,10.5-6,29-5-.25-9,4.5-9,4.5Z"/>
    <path class="cls-3" d="M627.25,176.25c0-23.75,2.83-42.75,29.92-45.87a16.45,16.45,0,0,1,3.08-2.88l11.57-.54,2.43,3.29c7.25,5.25,9.75,5.5,12,11.75,12.25,2.5,15.53,13.38,6.64,27.94,5.86,4.56,11.86,9.06,11.86,9.06Z"/>
    <path class="cls-2" d="M739.9,311.08l-24.42,166,7.74,1.35,29-197.1c-2.08-3.68-4-4.07-7.74-1.35l-2.36,16"/>
    <path class="cls-2" d="M612,491.5v-3.92a9.92,9.92,0,0,1,9.92-9.91h8.91v-132H626V265l-16,15.5-44.17,5.67-4-16,33.5-8,20.34-32S627.83,221,639,221s53,.5,53,.5,10.33,0,25.67,18.33C727,252.5,730.83,262,730.83,262l14.84,45.5-16.5,8.33L718.5,288.5,708,274.83,702.67,267l.5,78.33L700,347l-.67,124.5v20.33Z"/>
    <path class="cls-2" d="M1063.75,475.75s-31,35.75-39.75,35.75a114.84,114.84,0,0,1-13-12.25c26.75-29.25,36.25-44.75,40.5-53.75s21.25-14,27.5-14h52.25l12.56,5.67L1170.5,460l18.75-11.25,2.75-4.46a4,4,0,0,1,6.07-.9l2.68,2.36h17.87a5.12,5.12,0,0,1,5.13,5.13,3.29,3.29,0,0,1-2.56,3.21L1200,459l-30.5,27.75-28.25-12V557H1138V703h-63.75v-9l16-20.75-26.5-45L1067.5,557l-2.75-1Z"/>
    <g>
      <polygon class="cls-1" points="1280.43 691.35 1170.92 691.35 1149.92 675.8 1149.92 481.5 1161 481.5 1170.75 486.5 1175 481.5 1255.43 481.5 1280.43 492.76 1280.43 691.35"/>
      <polygon class="cls-1" points="483.74 492.13 593.24 492.13 611.24 476.58 611.24 282.28 504.74 282.28 483.74 293.54 483.74 492.13"/>
      <polygon class="cls-1" points="163.14 739.31 272.64 739.31 293.64 723.76 293.64 529.47 193.14 529.47 163.14 540.73 163.14 739.31"/>
      <polygon class="cls-1" points="699.3 820.48 699.3 803.69 704.75 768.95 895.51 768.95 900.98 805.29 900.98 820.48 699.3 820.48"/>
      <g>
        <g>
          <polyline class="cls-3" points="600.1 255.76 479.76 255.76 479.76 58.67 581.76 58.67 579.3 82.67 624.22 86.67 624.22 223.5"/>
          <line class="cls-4" x1="624.22" y1="86.67" x2="581.76" y2="58.67"/>
        </g>
        <g>
          <polygon class="cls-3" points="1053.2 408.95 908.74 408.95 908.74 211.86 1010.74 211.86 1008.28 235.86 1053.2 239.86 1053.2 408.95"/>
          <line class="cls-4" x1="1053.2" y1="239.86" x2="1010.74" y2="211.86"/>
        </g>
        <g>
          <polygon class="cls-3" points="276.05 508.06 131.6 508.06 131.6 310.97 233.6 310.97 231.13 334.97 276.05 338.98 276.05 508.06"/>
          <line class="cls-4" x1="276.05" y1="338.97" x2="233.6" y2="310.97"/>
        </g>
        <g>
          <g>
            <g>
              <rect class="cls-4" x="699.3" y="579.21" width="201.68" height="241.27"/>
              <polygon class="cls-4" points="699.3 579.21 900.98 579.22 894.9 565.46 702.82 565.46 699.3 579.21"/>
              <line class="cls-4" x1="699.18" y1="781.55" x2="699.3" y2="820.48"/>
              <line class="cls-4" x1="900.98" y1="805.29" x2="699.3" y2="805.29"/>
              <line class="cls-4" x1="895.51" y1="768.95" x2="704.75" y2="768.95"/>
              <line class="cls-4" x1="699.78" y1="805.77" x2="699.66" y2="768.95"/>
              <line class="cls-4" x1="900.98" y1="805.78" x2="900.98" y2="768.95"/>
              <polyline class="cls-4" points="900.98 585.81 699.3 585.81 699.18 579.21"/>
            </g>
            <line class="cls-4" x1="704.72" y1="585.81" x2="704.72" y2="768.95"/>
            <line class="cls-4" x1="704.75" y1="768.95" x2="699.18" y2="803.69"/>
            <line class="cls-4" x1="895.51" y1="768.95" x2="895.51" y2="585.81"/>
            <line class="cls-4" x1="895.51" y1="768.95" x2="900.98" y2="805.29"/>
          </g>
          <line class="cls-4" x1="704.75" y1="577.27" x2="704.75" y2="565.46"/>
          <line class="cls-4" x1="894.9" y1="565.46" x2="894.9" y2="579.21"/>
        </g>
        <polygon class="cls-1" points="1140.58 472.38 1140.88 556.04 1128.71 556.04 1128.71 466.85 1140.58 472.38"/>
        <polygon class="cls-1" points="1108.64 686.97 1099.42 686.97 1099.42 572.37 1108.64 575.44 1108.64 686.97"/>
        <path class="cls-1" d="M1064.71,473.2h-8.19L1020.4,509l3.16,3.27S1060.21,481.8,1064.71,473.2Z"/>
        <path class="cls-5" d="M1189.1,449.42l-19.84,11.09-21.38-20.22a31.51,31.51,0,0,0-21.67-8.62h-.31c-2.09,0-29.5.34-48.77.32a30.4,30.4,0,0,0-26.25,15.06c-10.74,18.39-29,40.78-40.31,53,0,0,12.06,10.75,13,12.28a169.68,169.68,0,0,0,41.15-39.11v83.36H1068l-3.28,72.55,24.88,44.22"/>
        <polyline class="cls-5" points="1138.73 688.32 1138.73 557 1140.88 557 1140.88 520.12 1140.88 474.03 1171.1 485.98 1198.84 459.03"/>
        <line class="cls-4" x1="1067.99" y1="556.56" x2="1138.73" y2="556.56"/>
        <line class="cls-4" x1="1142.32" y1="474.03" x2="1130.03" y2="467.88"/>
        <line class="cls-4" x1="1099.42" y1="571.14" x2="1099.42" y2="687.07"/>
        <line class="cls-4" x1="1138.73" y1="702.49" x2="1138.73" y2="688.32"/>
        <path class="cls-4" d="M1138.73,688.32h-39.32a9.82,9.82,0,0,0-9.82,9.82v4.35h49.14Z"/>
        <g>
          <g>
            <path class="cls-2" d="M1119.48,422.93c0,9-7.88,16.77-16.89,16.77h-11c-9,0-15.83-7.76-15.83-16.77V399.11a12.91,12.91,0,0,1,12.91-12.9h17.87a12.91,12.91,0,0,1,12.9,12.9Z"/>
            <path class="cls-5" d="M1119.48,406.26v16.67c0,9-7.88,16.77-16.89,16.77h-11c-9,0-15.83-7.76-15.83-16.77v-19.4"/>
          </g>
          <g>
            <g>
              <path class="cls-4" d="M1081.8,410.13a4.55,4.55,0,0,1,9.1,0"/>
              <path class="cls-4" d="M1099.54,410.13a4.55,4.55,0,0,1,9.1,0"/>
            </g>
            <path class="cls-4" d="M1087.14,422.29c9.26,8.66,17.18,0,17.18,0"/>
          </g>
          <g>
            <path class="cls-1" d="M1072.29,391.91h5.85a15.85,15.85,0,0,0-2.34,8v6.38C1074.46,404.59,1073,398.71,1072.29,391.91Z"/>
            <path class="cls-1" d="M1119,408.6l0-.51s-2.23-4.14-2.62-6.4c-.57-3.31-1.18-7.1-2.53-9.78H1122C1122.05,398.23,1121,405.63,1119,408.6Z"/>
            <path class="cls-5" d="M1114.54,393.53a49.93,49.93,0,0,1,1.84,8.16c.38,2.27,2.62,6.4,2.62,6.4v.51c2-3,3.06-10.37,3-16.69"/>
            <path class="cls-5" d="M1072.25,392.22c.68,6.92,2.19,12.33,3.55,14.11V400a16.22,16.22,0,0,1,1.71-7"/>
          </g>
        </g>
        <g>
          <path class="cls-4" d="M1071.72,385.51a7.89,7.89,0,0,0,2,.26c5.48,0,9.92-5.77,9.92-12.9s-4.44-12.9-9.92-12.9a7.11,7.11,0,0,0-1.14.09"/>
          <path class="cls-5" d="M1069.22,385l-11.06,7H1128s7.62-41.57-26.6-42.59c-1.24.61-1.9-3.08-1.9-3.08h-11.29l-3,4.1a19.15,19.15,0,0,0-9,7.78l-3.6,1.93c-4.94.73-8.78,6.19-8.78,12.81,0,6.24,3.4,11.44,7.92,12.64l-2.46.26"/>
          <path class="cls-4" d="M1076.32,385.77c7.8,0,14.12-5.77,14.12-12.9s-6.32-12.9-14.12-12.9"/>
          <polyline class="cls-4" points="1088.19 382.7 1091.94 382.7 1095.02 382.7 1120.12 382.7"/>
          <path class="cls-4" d="M1099.48,349.94c-7.33,13.31-3.44,30.1-3.44,32.76a75.11,75.11,0,0,0-12.4,9.21"/>
          <path class="cls-4" d="M1086.35,350.27a17.9,17.9,0,0,0-2.59,8.27"/>
        </g>
        <path class="cls-4" d="M1099.42,674l-9.83,1.25-11.4,11.8a18.16,18.16,0,0,0-5.09,12.62v2.82h16.49"/>
        <g>
          <g>
            <path class="cls-4" d="M982.18,690.15s66.38.28,92.69-23.89c6,7,6.93,9.54,6.93,9.54C1046.62,691.49,1018.89,694.82,982.18,690.15Z"/>
            <path class="cls-4" d="M1028.68,696.24a192.29,192.29,0,0,1-46.67-.11l.17-6"/>
            <path class="cls-4" d="M1081.8,675.8l-1.86,6.91c-9.58,3.35-22,8.16-38.11,11.4"/>
            <path class="cls-4" d="M1042,694.77c.2,1.47-2.72,3.14-6.51,3.73s-7-.12-7.21-1.58,2.71-3.14,6.5-3.74S1041.82,693.3,1042,694.77Z"/>
          </g>
          <path class="cls-4" d="M1036.61,683.86l-7.74,1.35-29-197.1c2.08-3.69,4-4.07,7.74-1.36Z"/>
        </g>
        <g>
          <g>
            <g>
              <rect class="cls-4" x="1174.35" y="505.56" width="100.84" height="28.03"/>
              <line class="cls-4" x1="1180.13" y1="511.62" x2="1180.13" y2="528.96"/>
              <rect class="cls-4" x="1224.77" y="511.62" width="39.15" height="14.16"/>
              <line class="cls-4" x1="1268.84" y1="511.62" x2="1268.84" y2="515.48"/>
              <line class="cls-4" x1="1268.84" y1="518.37" x2="1268.84" y2="522.22"/>
              <line class="cls-4" x1="1187.64" y1="511.62" x2="1187.64" y2="514.61"/>
              <line class="cls-4" x1="1193.74" y1="511.62" x2="1193.74" y2="514.61"/>
              <line class="cls-4" x1="1199.84" y1="511.62" x2="1199.84" y2="514.61"/>
              <line class="cls-4" x1="1217.26" y1="511.62" x2="1217.26" y2="514.61"/>
              <line class="cls-4" x1="1187.64" y1="518.8" x2="1187.64" y2="521.78"/>
              <line class="cls-4" x1="1193.74" y1="518.8" x2="1193.74" y2="521.79"/>
              <line class="cls-4" x1="1199.84" y1="518.8" x2="1199.84" y2="521.79"/>
              <line class="cls-4" x1="1187.64" y1="525.78" x2="1187.64" y2="528.77"/>
              <line class="cls-4" x1="1193.74" y1="525.78" x2="1193.74" y2="528.77"/>
              <line class="cls-4" x1="1199.84" y1="525.78" x2="1199.84" y2="528.77"/>
            </g>
            <g>
              <rect class="cls-4" x="1174.35" y="545.34" width="100.84" height="28.03"/>
              <line class="cls-4" x1="1180.13" y1="551.41" x2="1180.13" y2="568.74"/>
              <rect class="cls-4" x="1224.77" y="551.41" width="39.15" height="14.16"/>
              <line class="cls-4" x1="1268.84" y1="551.41" x2="1268.84" y2="555.26"/>
              <line class="cls-4" x1="1268.84" y1="558.15" x2="1268.84" y2="562"/>
              <line class="cls-4" x1="1187.64" y1="551.41" x2="1187.64" y2="554.39"/>
              <line class="cls-4" x1="1193.74" y1="551.41" x2="1193.74" y2="554.39"/>
              <line class="cls-4" x1="1199.84" y1="551.41" x2="1199.84" y2="554.39"/>
              <line class="cls-4" x1="1217.26" y1="551.41" x2="1217.26" y2="554.39"/>
              <line class="cls-4" x1="1187.64" y1="558.58" x2="1187.64" y2="561.57"/>
              <line class="cls-4" x1="1193.74" y1="558.58" x2="1193.74" y2="561.57"/>
              <line class="cls-4" x1="1199.84" y1="558.58" x2="1199.84" y2="561.57"/>
              <line class="cls-4" x1="1187.64" y1="565.56" x2="1187.64" y2="568.55"/>
              <line class="cls-4" x1="1193.74" y1="565.56" x2="1193.74" y2="568.55"/>
              <line class="cls-4" x1="1199.84" y1="565.56" x2="1199.84" y2="568.55"/>
            </g>
            <g>
              <rect class="cls-4" x="1174.35" y="585.12" width="100.84" height="28.03"/>
              <line class="cls-4" x1="1180.13" y1="591.19" x2="1180.13" y2="608.52"/>
              <rect class="cls-4" x="1224.77" y="591.19" width="39.15" height="14.16"/>
              <line class="cls-4" x1="1268.84" y1="591.19" x2="1268.84" y2="595.04"/>
              <line class="cls-4" x1="1268.84" y1="597.93" x2="1268.84" y2="601.78"/>
              <line class="cls-4" x1="1187.64" y1="591.19" x2="1187.64" y2="594.17"/>
              <line class="cls-4" x1="1193.74" y1="591.19" x2="1193.74" y2="594.17"/>
              <line class="cls-4" x1="1199.84" y1="591.19" x2="1199.84" y2="594.17"/>
              <line class="cls-4" x1="1217.26" y1="591.19" x2="1217.26" y2="594.17"/>
              <line class="cls-4" x1="1187.64" y1="598.36" x2="1187.64" y2="601.35"/>
              <line class="cls-4" x1="1193.74" y1="598.36" x2="1193.74" y2="601.35"/>
              <line class="cls-4" x1="1199.84" y1="598.36" x2="1199.84" y2="601.35"/>
              <line class="cls-4" x1="1187.64" y1="605.35" x2="1187.64" y2="608.33"/>
              <line class="cls-4" x1="1193.74" y1="605.35" x2="1193.74" y2="608.33"/>
              <line class="cls-4" x1="1199.84" y1="605.35" x2="1199.84" y2="608.33"/>
            </g>
            <g>
              <rect class="cls-4" x="1174.35" y="624.9" width="100.84" height="28.03"/>
              <line class="cls-4" x1="1180.13" y1="630.97" x2="1180.13" y2="648.31"/>
              <rect class="cls-4" x="1224.77" y="630.97" width="39.15" height="14.16"/>
              <line class="cls-4" x1="1268.84" y1="630.97" x2="1268.84" y2="634.82"/>
              <line class="cls-4" x1="1268.84" y1="637.71" x2="1268.84" y2="641.56"/>
              <line class="cls-4" x1="1187.64" y1="630.97" x2="1187.64" y2="633.96"/>
              <line class="cls-4" x1="1193.74" y1="630.97" x2="1193.74" y2="633.96"/>
              <line class="cls-4" x1="1199.84" y1="630.97" x2="1199.84" y2="633.96"/>
              <line class="cls-4" x1="1217.26" y1="630.97" x2="1217.26" y2="633.96"/>
              <line class="cls-4" x1="1187.64" y1="638.15" x2="1187.64" y2="641.13"/>
              <line class="cls-4" x1="1193.74" y1="638.15" x2="1193.74" y2="641.13"/>
              <line class="cls-4" x1="1199.84" y1="638.15" x2="1199.84" y2="641.13"/>
              <line class="cls-4" x1="1187.64" y1="645.13" x2="1187.64" y2="648.11"/>
              <line class="cls-4" x1="1193.74" y1="645.13" x2="1193.74" y2="648.11"/>
              <line class="cls-4" x1="1199.84" y1="645.13" x2="1199.84" y2="648.11"/>
            </g>
            <line class="cls-4" x1="1174.35" y1="679.53" x2="1275.91" y2="679.53"/>
            <line class="cls-4" x1="1174.35" y1="685.16" x2="1267.39" y2="685.16"/>
            <rect class="cls-4" x="1168.67" y="492.76" width="112.5" height="198.59"/>
          </g>
          <line class="cls-4" x1="1253.6" y1="481.5" x2="1281.16" y2="492.76"/>
          <line class="cls-4" x1="1253.6" y1="481.5" x2="1180.13" y2="481.5"/>
          <line class="cls-4" x1="1149.92" y1="675.8" x2="1149.92" y2="479.5"/>
          <line class="cls-4" x1="1168.67" y1="691.35" x2="1149.92" y2="675.8"/>
        </g>
        <g>
          <g>
            <g>
              <rect class="cls-4" x="490.95" y="306.16" width="100.84" height="28.03"/>
              <line class="cls-4" x1="586.01" y1="312.23" x2="586.01" y2="329.56"/>
              <rect class="cls-4" x="502.22" y="312.23" width="39.15" height="14.16"/>
              <line class="cls-4" x1="497.3" y1="312.23" x2="497.3" y2="316.08"/>
              <line class="cls-4" x1="497.3" y1="318.97" x2="497.3" y2="322.82"/>
              <line class="cls-4" x1="578.5" y1="312.23" x2="578.5" y2="315.21"/>
              <line class="cls-4" x1="572.4" y1="312.23" x2="572.4" y2="315.21"/>
              <line class="cls-4" x1="566.3" y1="312.23" x2="566.3" y2="315.21"/>
              <line class="cls-4" x1="548.88" y1="312.23" x2="548.88" y2="315.21"/>
              <line class="cls-4" x1="578.5" y1="319.4" x2="578.5" y2="322.39"/>
              <line class="cls-4" x1="572.4" y1="319.4" x2="572.4" y2="322.39"/>
              <line class="cls-4" x1="566.3" y1="319.4" x2="566.3" y2="322.39"/>
              <line class="cls-4" x1="578.5" y1="326.38" x2="578.5" y2="329.37"/>
              <line class="cls-4" x1="572.4" y1="326.38" x2="572.4" y2="329.37"/>
              <line class="cls-4" x1="566.3" y1="326.38" x2="566.3" y2="329.37"/>
            </g>
            <g>
              <rect class="cls-4" x="490.95" y="345.94" width="100.84" height="28.03"/>
              <line class="cls-4" x1="586.01" y1="352.01" x2="586.01" y2="369.34"/>
              <rect class="cls-4" x="502.22" y="352.01" width="39.15" height="14.16"/>
              <line class="cls-4" x1="497.3" y1="352.01" x2="497.3" y2="355.86"/>
              <line class="cls-4" x1="497.3" y1="358.75" x2="497.3" y2="362.6"/>
              <line class="cls-4" x1="578.5" y1="352.01" x2="578.5" y2="354.99"/>
              <line class="cls-4" x1="572.4" y1="352.01" x2="572.4" y2="354.99"/>
              <line class="cls-4" x1="566.3" y1="352.01" x2="566.3" y2="354.99"/>
              <line class="cls-4" x1="548.88" y1="352.01" x2="548.88" y2="354.99"/>
              <line class="cls-4" x1="578.5" y1="359.18" x2="578.5" y2="362.17"/>
              <line class="cls-4" x1="572.4" y1="359.18" x2="572.4" y2="362.17"/>
              <line class="cls-4" x1="566.3" y1="359.18" x2="566.3" y2="362.17"/>
              <line class="cls-4" x1="578.5" y1="366.17" x2="578.5" y2="369.15"/>
              <line class="cls-4" x1="572.4" y1="366.17" x2="572.4" y2="369.15"/>
              <line class="cls-4" x1="566.3" y1="366.17" x2="566.3" y2="369.15"/>
            </g>
            <g>
              <rect class="cls-4" x="490.95" y="385.72" width="100.84" height="28.03"/>
              <line class="cls-4" x1="586.01" y1="391.79" x2="586.01" y2="409.13"/>
              <rect class="cls-4" x="502.22" y="391.79" width="39.15" height="14.16"/>
              <line class="cls-4" x1="497.3" y1="391.79" x2="497.3" y2="395.64"/>
              <line class="cls-4" x1="497.3" y1="398.53" x2="497.3" y2="402.38"/>
              <line class="cls-4" x1="578.5" y1="391.79" x2="578.5" y2="394.78"/>
              <line class="cls-4" x1="572.4" y1="391.79" x2="572.4" y2="394.78"/>
              <line class="cls-4" x1="566.3" y1="391.79" x2="566.3" y2="394.78"/>
              <line class="cls-4" x1="548.88" y1="391.79" x2="548.88" y2="394.78"/>
              <line class="cls-4" x1="578.5" y1="398.97" x2="578.5" y2="401.95"/>
              <line class="cls-4" x1="572.4" y1="398.97" x2="572.4" y2="401.95"/>
              <line class="cls-4" x1="566.3" y1="398.97" x2="566.3" y2="401.95"/>
              <line class="cls-4" x1="578.5" y1="405.95" x2="578.5" y2="408.93"/>
              <line class="cls-4" x1="572.4" y1="405.95" x2="572.4" y2="408.93"/>
              <line class="cls-4" x1="566.3" y1="405.95" x2="566.3" y2="408.93"/>
            </g>
            <g>
              <rect class="cls-4" x="490.95" y="425.5" width="100.84" height="28.03"/>
              <line class="cls-4" x1="586.01" y1="431.57" x2="586.01" y2="448.91"/>
              <rect class="cls-4" x="502.22" y="431.57" width="39.15" height="14.16"/>
              <line class="cls-4" x1="497.3" y1="431.57" x2="497.3" y2="435.43"/>
              <line class="cls-4" x1="497.3" y1="438.31" x2="497.3" y2="442.17"/>
              <line class="cls-4" x1="578.5" y1="431.57" x2="578.5" y2="434.56"/>
              <line class="cls-4" x1="572.4" y1="431.57" x2="572.4" y2="434.56"/>
              <line class="cls-4" x1="566.3" y1="431.57" x2="566.3" y2="434.56"/>
              <line class="cls-4" x1="548.88" y1="431.57" x2="548.88" y2="434.56"/>
              <line class="cls-4" x1="578.5" y1="438.75" x2="578.5" y2="441.73"/>
              <line class="cls-4" x1="572.4" y1="438.75" x2="572.4" y2="441.73"/>
              <line class="cls-4" x1="566.3" y1="438.75" x2="566.3" y2="441.73"/>
              <line class="cls-4" x1="578.5" y1="445.73" x2="578.5" y2="448.72"/>
              <line class="cls-4" x1="572.4" y1="445.73" x2="572.4" y2="448.72"/>
              <line class="cls-4" x1="566.3" y1="445.73" x2="566.3" y2="448.72"/>
            </g>
            <line class="cls-4" x1="591.79" y1="480.13" x2="490.23" y2="480.13"/>
            <line class="cls-4" x1="591.79" y1="485.76" x2="498.75" y2="485.76"/>
            <rect class="cls-4" x="484.97" y="293.36" width="112.5" height="198.59"/>
          </g>
          <line class="cls-4" x1="506.54" y1="282.1" x2="484.97" y2="293.36"/>
          <line class="cls-4" x1="506.54" y1="282.1" x2="538.6" y2="282.1"/>
          <line class="cls-4" x1="611.22" y1="476.4" x2="611.22" y2="284.4"/>
          <line class="cls-4" x1="597.47" y1="491.95" x2="611.22" y2="476.4"/>
        </g>
        <g>
          <g>
            <g>
              <rect class="cls-4" x="168.46" y="554.16" width="100.84" height="28.03"/>
              <line class="cls-4" x1="263.52" y1="560.23" x2="263.52" y2="577.56"/>
              <rect class="cls-4" x="179.73" y="560.23" width="39.15" height="14.16"/>
              <line class="cls-4" x1="174.81" y1="560.23" x2="174.81" y2="564.08"/>
              <line class="cls-4" x1="174.81" y1="566.97" x2="174.81" y2="570.82"/>
              <line class="cls-4" x1="256.01" y1="560.23" x2="256.01" y2="563.21"/>
              <line class="cls-4" x1="249.91" y1="560.23" x2="249.91" y2="563.21"/>
              <line class="cls-4" x1="243.81" y1="560.23" x2="243.81" y2="563.21"/>
              <line class="cls-4" x1="226.39" y1="560.23" x2="226.39" y2="563.21"/>
              <line class="cls-4" x1="256.01" y1="567.4" x2="256.01" y2="570.39"/>
              <line class="cls-4" x1="249.91" y1="567.4" x2="249.91" y2="570.39"/>
              <line class="cls-4" x1="243.81" y1="567.4" x2="243.81" y2="570.39"/>
              <line class="cls-4" x1="256.01" y1="574.38" x2="256.01" y2="577.37"/>
              <line class="cls-4" x1="249.91" y1="574.38" x2="249.91" y2="577.37"/>
              <line class="cls-4" x1="243.81" y1="574.38" x2="243.81" y2="577.37"/>
            </g>
            <g>
              <rect class="cls-4" x="168.46" y="593.94" width="100.84" height="28.03"/>
              <line class="cls-4" x1="263.52" y1="600.01" x2="263.52" y2="617.34"/>
              <rect class="cls-4" x="179.73" y="600.01" width="39.15" height="14.16"/>
              <line class="cls-4" x1="174.81" y1="600.01" x2="174.81" y2="603.86"/>
              <line class="cls-4" x1="174.81" y1="606.75" x2="174.81" y2="610.6"/>
              <line class="cls-4" x1="256.01" y1="600.01" x2="256.01" y2="602.99"/>
              <line class="cls-4" x1="249.91" y1="600.01" x2="249.91" y2="602.99"/>
              <line class="cls-4" x1="243.81" y1="600.01" x2="243.81" y2="602.99"/>
              <line class="cls-4" x1="226.39" y1="600.01" x2="226.39" y2="602.99"/>
              <line class="cls-4" x1="256.01" y1="607.18" x2="256.01" y2="610.17"/>
              <line class="cls-4" x1="249.91" y1="607.18" x2="249.91" y2="610.17"/>
              <line class="cls-4" x1="243.81" y1="607.18" x2="243.81" y2="610.17"/>
              <line class="cls-4" x1="256.01" y1="614.17" x2="256.01" y2="617.15"/>
              <line class="cls-4" x1="249.91" y1="614.17" x2="249.91" y2="617.15"/>
              <line class="cls-4" x1="243.81" y1="614.17" x2="243.81" y2="617.15"/>
            </g>
            <g>
              <rect class="cls-4" x="168.46" y="633.72" width="100.84" height="28.03"/>
              <line class="cls-4" x1="263.52" y1="639.79" x2="263.52" y2="657.13"/>
              <rect class="cls-4" x="179.73" y="639.79" width="39.15" height="14.16"/>
              <line class="cls-4" x1="174.81" y1="639.79" x2="174.81" y2="643.64"/>
              <line class="cls-4" x1="174.81" y1="646.53" x2="174.81" y2="650.38"/>
              <line class="cls-4" x1="256.01" y1="639.79" x2="256.01" y2="642.78"/>
              <line class="cls-4" x1="249.91" y1="639.79" x2="249.91" y2="642.78"/>
              <line class="cls-4" x1="243.81" y1="639.79" x2="243.81" y2="642.78"/>
              <line class="cls-4" x1="226.39" y1="639.79" x2="226.39" y2="642.78"/>
              <line class="cls-4" x1="256.01" y1="646.97" x2="256.01" y2="649.95"/>
              <line class="cls-4" x1="249.91" y1="646.97" x2="249.91" y2="649.95"/>
              <line class="cls-4" x1="243.81" y1="646.97" x2="243.81" y2="649.95"/>
              <line class="cls-4" x1="256.01" y1="653.95" x2="256.01" y2="656.93"/>
              <line class="cls-4" x1="249.91" y1="653.95" x2="249.91" y2="656.93"/>
              <line class="cls-4" x1="243.81" y1="653.95" x2="243.81" y2="656.93"/>
            </g>
            <g>
              <rect class="cls-4" x="168.46" y="673.5" width="100.84" height="28.03"/>
              <line class="cls-4" x1="263.52" y1="679.57" x2="263.52" y2="696.91"/>
              <rect class="cls-4" x="179.73" y="679.57" width="39.15" height="14.16"/>
              <line class="cls-4" x1="174.81" y1="679.57" x2="174.81" y2="683.43"/>
              <line class="cls-4" x1="174.81" y1="686.31" x2="174.81" y2="690.17"/>
              <line class="cls-4" x1="256.01" y1="679.57" x2="256.01" y2="682.56"/>
              <line class="cls-4" x1="249.91" y1="679.57" x2="249.91" y2="682.56"/>
              <line class="cls-4" x1="243.81" y1="679.57" x2="243.81" y2="682.56"/>
              <line class="cls-4" x1="226.39" y1="679.57" x2="226.39" y2="682.56"/>
              <line class="cls-4" x1="256.01" y1="686.75" x2="256.01" y2="689.73"/>
              <line class="cls-4" x1="249.91" y1="686.75" x2="249.91" y2="689.73"/>
              <line class="cls-4" x1="243.81" y1="686.75" x2="243.81" y2="689.73"/>
              <line class="cls-4" x1="256.01" y1="693.73" x2="256.01" y2="696.72"/>
              <line class="cls-4" x1="249.91" y1="693.73" x2="249.91" y2="696.72"/>
              <line class="cls-4" x1="243.81" y1="693.73" x2="243.81" y2="696.72"/>
            </g>
            <line class="cls-4" x1="269.3" y1="728.13" x2="167.74" y2="728.13"/>
            <line class="cls-4" x1="269.3" y1="733.76" x2="176.26" y2="733.76"/>
            <rect class="cls-4" x="162.49" y="541.36" width="112.5" height="198.59"/>
          </g>
          <line class="cls-4" x1="195.06" y1="530.1" x2="162.49" y2="541.36"/>
          <line class="cls-4" x1="196.06" y1="530.1" x2="244.55" y2="530.1"/>
          <line class="cls-4" x1="293.73" y1="724.4" x2="293.73" y2="532.4"/>
          <line class="cls-4" x1="274.98" y1="739.95" x2="293.73" y2="724.4"/>
        </g>
        <path class="cls-4" d="M1222.92,449a5,5,0,0,0-4.6-3h-15.17a10.55,10.55,0,0,1-6-1.89l-.65-.45a3.26,3.26,0,0,0-4.58.87l-2.8,4.22L1199.84,459l20.27-4.47a4,4,0,0,0,2.81-5.56Z"/>
        <g>
          <g>
            <path class="cls-3" d="M1208.72,426.81c-18,0-32.66-15-32.66-33.57s14.63-33.57,32.66-33.57,32.67,15,32.67,33.57S1226.76,426.81,1208.72,426.81Z"/>
            <path class="cls-3" d="M1208.72,426.81h-5.08c-18,0-32.66-15-32.66-33.57s14.62-33.57,32.66-33.57h5.08c-18,0-32.66,15-32.66,33.57S1190.68,426.81,1208.72,426.81Z"/>
          </g>
          <path class="cls-3" d="M1208.72,420.59c-14.7,0-26.61-12.25-26.61-27.35a27.68,27.68,0,0,1,5.76-17"/>
          <path class="cls-3" d="M1221,417.53a27.2,27.2,0,0,1-3.3,1.48"/>
          <path class="cls-3" d="M1196.24,369.07a26,26,0,0,1,12.48-3.19c14.7,0,26.62,12.25,26.62,27.36a27.72,27.72,0,0,1-4.92,15.84"/>
          <line class="cls-4" x1="1170.98" y1="368.65" x2="1170.98" y2="355.09"/>
          <line class="cls-4" x1="1176.06" y1="355.09" x2="1176.06" y2="317.11"/>
          <line class="cls-4" x1="1238.94" y1="363.77" x2="1238.94" y2="336.1"/>
          <path class="cls-4" d="M1191.83,352.22a31.88,31.88,0,0,1,28-1.27"/>
          <path class="cls-4" d="M1201.24,342.07a31.79,31.79,0,0,1,5.89-.55,31.4,31.4,0,0,1,5.94.56"/>
          <path class="cls-6" d="M1222.61,408.45l-3.69,1.75c-.67-1.44-1.34-2.87-2-4.31l-2.35,1.12c.69,1.45,1.36,2.87,2,4.3l-3.69,1.75c-.67-1.44-1.35-2.87-2-4.34l-7.79,3.7c-.58-1.24-1.14-2.44-1.72-3.66l.32-.15c.48-.24,1-.47,1.44-.72a1.34,1.34,0,0,0,.66-1.92c-.16-.38-.32-.76-.5-1.13q-3.15-6.72-6.32-13.43c-.29-.61-.59-1.21-.89-1.8a1.34,1.34,0,0,0-1.9-.72c-.51.2-1,.44-1.49.67l-.3.12c-.58-1.23-1.15-2.42-1.73-3.66l7.79-3.69-2-4.32,3.68-1.75,2,4.31,2.35-1.12c-.69-1.45-1.36-2.87-2-4.3l3.68-1.75c.06.12.12.22.17.34.59,1.25,1.2,2.51,1.77,3.78.14.29.26.4.58.26a5.11,5.11,0,0,1,.76-.23,8.59,8.59,0,0,1,4.27-.13,6.34,6.34,0,0,1,4.92,7,7.68,7.68,0,0,1-2.28,4.49c-.09.09-.17.19-.25.28a.74.74,0,0,0,.36,0,10.44,10.44,0,0,1,3.3-.16,6.27,6.27,0,0,1,4.23,2.42,7.25,7.25,0,0,1,.68,8.22,10.35,10.35,0,0,1-3.84,4c-.25.17-.27.29-.15.54Q1221.63,406.34,1222.61,408.45Zm-15.52-12.38a2.16,2.16,0,0,0,.09.2q1.3,2.79,2.62,5.57a11.82,11.82,0,0,0,.64,1.16.58.58,0,0,0,.79.29c.91-.38,1.82-.76,2.71-1.2a22.23,22.23,0,0,0,2.23-1.25,4.05,4.05,0,0,0,1.67-2,4.2,4.2,0,0,0-.09-3.3,3.55,3.55,0,0,0-3.62-2.26,8,8,0,0,0-2.72.75c-1.37.61-2.72,1.27-4.09,1.91Zm-1.83-3.91.25-.09,2.7-1.29a13.17,13.17,0,0,0,2.9-1.75,3.58,3.58,0,0,0,1.31-2.21,3.25,3.25,0,0,0-4-3.71,10.38,10.38,0,0,0-1.81.6c-1.4.62-2.79,1.28-4.18,1.93-.07,0-.13.08-.22.13Z"/>
        </g>
        <g>
          <polygon class="cls-2" points="241.39 615.66 262 558.28 246.59 541.36 244.55 530.1 247.23 500.37 253.02 487.53 259.27 483.76 272.66 478.52 312.98 479.28 328.18 493.29 339.93 536.23 337.58 545.66 326.67 550.7 314.22 554.16 332.89 614.16 326.06 619.59 318.3 623.67 302.97 727.07 314.22 733.4 316.22 739.74 259.51 739.74 260.94 733.76 274.2 727.07 258.45 622.27 248.43 620.33 241.39 615.66"/>
          <polygon class="cls-1" points="302.79 558.23 332.89 611.4 314.39 555.58 302.79 558.23"/>
          <path class="cls-1" d="M256,549.25s-9.47-32.66,5.29-43c-4,14.2-4.49,23.17.41,32.32,1.79,6.82,3.7,15.2.29,19.67A32.74,32.74,0,0,1,256,549.25Z"/>
          <polygon class="cls-1" points="318.3 526.75 300.99 544.8 314.22 515.88 318.3 526.75"/>
          <path class="cls-1" d="M317.86,630.17a133.88,133.88,0,0,1-58.35,0v-7.9a133.88,133.88,0,0,0,58.35,0Z"/>
          <rect class="cls-1" x="289.6" y="625.67" width="6.67" height="101.4"/>
          <path class="cls-3" d="M274.74,727.07l-11.66,5.1a6,6,0,0,0-3.57,5.46v2.11h56.71v-2.21a6.55,6.55,0,0,0-3.73-5.91L303,727.07"/>
          <polyline class="cls-4" points="259.51 622.27 274.74 727.07 288.88 727.07 288.89 626.4"/>
          <polyline class="cls-4" points="318.21 622.27 302.97 727.07 288.83 727.07 288.82 626.4"/>
          <g>
            <path class="cls-4" d="M382.38,481.86S367,420.43,307.59,426.29"/>
            <path class="cls-3" d="M304.68,437.25s60.07,5.65,77.7,44.61c-14-40.11-57.54-56.34-74.79-55.57C307.05,427.93,304.68,437.25,304.68,437.25Z"/>
          </g>
          <path class="cls-5" d="M244.55,530.13,246.06,507a30.53,30.53,0,0,1,23.88-27.82l2.72-.6a90.21,90.21,0,0,1,34.46-.89,28.81,28.81,0,0,1,23.12,21.19l9.69,37.4a10.15,10.15,0,0,1-6.25,12.06l-19.29,7.29,18.5,55.82c0,20.5-91.5,15-91.5,2L262,558.28C254.45,550.18,243.82,541.25,244.55,530.13Z"/>
          <path class="cls-4" d="M262.08,505.26c-2.94,3.39-5.9,12.5-4.39,18.64l5.43,19.91a22.9,22.9,0,0,1-.47,13.61l-7.57,21.68"/>
          <polyline class="cls-4" points="314.39 555.58 302.22 558.58 299.22 545.74 323.89 532.74"/>
          <line class="cls-4" x1="314.22" y1="512.4" x2="320.89" y2="532.74"/>
          <line class="cls-4" x1="288.82" y1="739.74" x2="288.82" y2="727.07"/>
          <g>
            <path class="cls-7" d="M309.52,418.45c-.23-10.85-.18-15-6.58-20.12-9-7.22-25.29-3.89-33.79,7.4-4.45,5.93-9.16,14.58-8.3,22.42.69,6.27-1,11.86-3.28,13.75-2.73,2.3-9.15-1.68-9.15-1.68-3.6,2.58-2,15.56,5.86,22.32,8.7,7.49,21.32,4.08,24.87,3.11a37.12,37.12,0,0,0,23.6-20.12C305.73,439,309.8,431.67,309.52,418.45Z"/>
            <path class="cls-8" d="M266.26,452.33V431.74a18.38,18.38,0,0,1,18.32-18.32H300a18.38,18.38,0,0,1,18.32,18.32v32.52a22.54,22.54,0,0,1-22.48,22.48h-7.08a22.56,22.56,0,0,1-22.29-19.53"/>
            <path class="cls-9" d="M303.67,412.05c0,3.94-4.75,7.13-10.61,7.13s-10.61-3.19-10.61-7.13,4.75-7.13,10.61-7.13S303.67,408.11,303.67,412.05Z"/>
            <path class="cls-7" d="M306.87,411.28a25.06,25.06,0,0,1,15.27,23V440a24.77,24.77,0,0,1-3.83,13.26"/>
            <path class="cls-10" d="M317.61,449.58c-1.43-7.91-1.43-10.72-4.8-15.21L307,439.16c-11,8.28-26.25,12.22-40,13.17-5.34.36-9.38.7-9.38.7,5.12-2.95,5.49-9.23,5.49-13.08v-5.67a25,25,0,0,1,25-25h9.14a24.72,24.72,0,0,1,9.7,2"/>
            <path class="cls-7" d="M318.31,453.21c-.27-1.33-.5-2.53-.7-3.63"/>
            <path class="cls-4" d="M277.52,459a4.55,4.55,0,0,1,9.1.15"/>
            <path class="cls-4" d="M299.24,460.25a4.55,4.55,0,0,1,9.1.15"/>
            <path class="cls-4" d="M305,479.28a14.69,14.69,0,0,0-21.22-4.21"/>
            <line class="cls-4" x1="266.26" y1="453.03" x2="266.76" y2="465.59"/>
          </g>
          <path class="cls-3" d="M347.61,446.71a2.89,2.89,0,0,0-1.57-3.8h0a2.9,2.9,0,0,0-3.8,1.56L272.41,589.15A2.91,2.91,0,0,0,274,593h0a2.9,2.9,0,0,0,3.8-1.57Z"/>
          <path class="cls-3" d="M302.23,557.22l-11.17,2.86a5.37,5.37,0,0,1-6.55-3.94,5,5,0,0,1,3.63-6l11.65-3Z"/>
          <g>
            <path class="cls-2" d="M324.64,427.64l5.67,9.2H256.65l2.62-9.2c0-31.76,19.75-33,21.72-35.18l.23-1.52h20.17l.94,1.43c16.74,8.16,21.92,20.6,21.92,34.3Z"/>
            <polyline class="cls-3" points="275.52 427.64 259.27 427.64 256.65 436.84 326.67 436.84 324.64 427.64 302.92 427.64"/>
            <path class="cls-4" d="M259.27,426.67c0-17.08,9.06-28.86,21.72-34.21"/>
            <path class="cls-4" d="M302.33,392.37c12.75,5.29,21.92,17.14,21.92,34.3"/>
            <path class="cls-4" d="M306.06,416.88a14.6,14.6,0,1,0-14.59,14.6A14.6,14.6,0,0,0,306.06,416.88Z"/>
            <path class="cls-4" d="M302.33,389.43v15.7h-2.2a14.6,14.6,0,0,0-17.33,0H281v-15.7Z"/>
          </g>
        </g>
        <polygon class="cls-1" points="702.21 265.39 702.52 345.02 690.35 345.02 690.35 259.87 702.21 265.39"/>
        <polygon class="cls-1" points="670.29 475.9 661.07 475.9 661.07 361.35 670.29 364.42 670.29 475.9"/>
        <path class="cls-5" d="M719.83,292.73a59.25,59.25,0,0,0-7.16-13.21l-10.15-14.13V346h-2.15V477.25H629.65V345.55h-3.27V262.22l-16.51,18.89-45.44,4.56-2.67-15.59,33.33-8.42s9.69-13.7,17.08-26A30.37,30.37,0,0,1,638.23,221c14.68,0,35-.14,48.33-.27a30.36,30.36,0,0,1,23,10.2l9.63,10.85A54.22,54.22,0,0,1,730,260.38l16.1,47.36-17,9Z"/>
        <line class="cls-4" x1="629.65" y1="345.55" x2="700.37" y2="345.55"/>
        <line class="cls-4" x1="702.52" y1="265.39" x2="690.24" y2="259.26"/>
        <line class="cls-4" x1="661.07" y1="360.12" x2="661.07" y2="476.01"/>
        <path class="cls-4" d="M700.37,477.25H623.15a10.9,10.9,0,0,0-10.9,10.89v3.28h88.12Z"/>
        <path class="cls-4" d="M700.37,477.25H661.06a9.82,9.82,0,0,0-9.81,9.82v4.35h49.12Z"/>
        <g>
          <g>
            <path class="cls-2" d="M637.52,212.11c0,10,8.75,18.62,18.76,18.62h12.17c10,0,17.57-8.61,17.57-18.62V185.66a14.33,14.33,0,0,0-14.32-14.33H651.85a14.34,14.34,0,0,0-14.33,14.33Z"/>
            <path class="cls-5" d="M637.52,193.6v18.51c0,10,8.75,18.62,18.76,18.62h12.17c10,0,17.58-8.61,17.58-18.62V190.56"/>
          </g>
          <g>
            <g>
              <path class="cls-4" d="M679.36,197.89a5,5,0,0,0-10.1,0"/>
              <path class="cls-4" d="M659.66,197.89a5.06,5.06,0,0,0-10.11,0"/>
            </g>
            <path class="cls-4" d="M673.43,215.68c-10.29-9.62-19.08,0-19.08,0"/>
          </g>
          <g>
            <path class="cls-1" d="M689.93,177.67h-6.5a17.59,17.59,0,0,1,2.6,8.92v7.09C687.51,191.74,689.16,185.21,689.93,177.67Z"/>
            <path class="cls-1" d="M638.07,196.2l0-.57s2.48-4.59,2.91-7.1c.63-3.68,1.31-7.89,2.81-10.86h-9.08C634.66,184.69,635.85,192.9,638.07,196.2Z"/>
            <path class="cls-5" d="M643,179.46a55.17,55.17,0,0,0-2,9.07c-.43,2.51-2.91,7.1-2.91,7.1l0,.57c-2.23-3.3-3.41-11.51-3.37-18.53"/>
            <path class="cls-5" d="M690,178c-.76,7.69-2.43,13.69-3.94,15.67v-7.09a18.06,18.06,0,0,0-1.91-7.73"/>
          </g>
        </g>
        <g>
          <path class="cls-5" d="M692.89,169.94l12.28,7.73H627.63s-8.46-46.16,29.54-47.29c1.38.68,2.11-3.42,2.11-3.42h12.54l3.33,4.55a21.28,21.28,0,0,1,10,8.64"/>
          <path class="cls-5" d="M676.87,156.52c0-7.91,4.93-14.32,11-14.32s11,6.41,11,14.32-4.94,14.33-11,14.33S676.87,164.44,676.87,156.52Z"/>
          <path class="cls-5" d="M685,170.85c-8.66,0-15.68-6.41-15.68-14.33s7-14.32,15.68-14.32"/>
          <polyline class="cls-4" points="671.82 167.44 667.65 167.44 664.24 167.44 636.36 167.44"/>
          <path class="cls-4" d="M659.28,131.06c8.14,14.78,3.82,33.42,3.82,36.38a83.25,83.25,0,0,1,13.77,10.23"/>
          <path class="cls-4" d="M659.28,127c9.51,8,8.79,19.56,8.79,19.56"/>
          <path class="cls-4" d="M674.47,131.51s3.3,4.26,3.38,9.1"/>
          <line class="cls-4" x1="682.99" y1="177.67" x2="671.82" y2="169.03"/>
        </g>
        <g>
          <path class="cls-2" d="M770.08,489.36c-18,3.31-55.48,2.31-98.48-13.11L670.3,469l.39-.59a69.43,69.43,0,0,1,6.89-8.63c11.87,6.71,22.72,13.32,33.24,16.58L760,483l6.58.59h0l3.26-.2Z"/>
          <g>
            <path class="cls-4" d="M769.91,483.38s-66.38.28-92.69-23.88c-6,7-6.93,9.54-6.93,9.54C705.47,484.73,733.2,488.06,769.91,483.38Z"/>
            <path class="cls-4" d="M723.41,489.48a192.84,192.84,0,0,0,46.67-.12l-.17-6"/>
            <path class="cls-4" d="M670.29,469l1.86,6.91c9.58,3.34,22,8.15,38.11,11.39"/>
            <path class="cls-3" d="M710.08,488c-.2,1.47,2.72,3.14,6.51,3.73s7-.11,7.22-1.58-2.72-3.14-6.51-3.73S710.28,486.53,710.08,488Z"/>
          </g>
          <path class="cls-4" d="M739.9,311.08l-24.42,166,7.74,1.35,29-197.1c-2.08-3.68-4-4.07-7.74-1.35l-2.36,16"/>
          <path class="cls-11" d="M767.6,483.36l-.94.22h0L763,483Z"/>
        </g>
        <path class="cls-3" d="M561.76,270.08c-11.91,1.67-25.91,4.42-26.16,16.92,1.25,0,28.83-1.33,28.83-1.33Z"/>
        <path class="cls-9" d="M993.2,398.33C881,414,802.22,545.82,776.7,631.68l-9.49-15.07a2.88,2.88,0,0,0-5.27,2.09l8.8,45.16a5.59,5.59,0,0,0,8.34,3.74l39.32-23.34a2.88,2.88,0,0,0-1.57-5.36l-19.24.69C827.84,539.38,901.23,411.17,993.2,398.33Z"/>
        <path class="cls-3" d="M745,308.3l6.92,12.64a5.1,5.1,0,0,1-.54,5,11.83,11.83,0,0,1-5.22,4.34c-4.3,1.94-8.89,1.28-10.3-1.49l-6.17-12.14Z"/>
        <g>
          <g>
            <path class="cls-6" d="M168.79,370.61h-1.9v1.86h-1.41v-1.86h-1.9v-1.33h1.9v-1.87h1.41v1.87h1.9Z"/>
            <path class="cls-6" d="M175.44,372.33v1.45h-5.79v-1.15l2.95-2.8a3,3,0,0,0,.64-.77,1.38,1.38,0,0,0,.16-.64.85.85,0,0,0-.31-.71,1.47,1.47,0,0,0-.91-.24,2.06,2.06,0,0,0-.91.19,1.78,1.78,0,0,0-.68.57l-1.29-.83a3.06,3.06,0,0,1,1.23-1,4,4,0,0,1,1.81-.38,3.68,3.68,0,0,1,1.5.28,2.3,2.3,0,0,1,1,.79,2,2,0,0,1,.36,1.2,2.64,2.64,0,0,1-.27,1.17,4.54,4.54,0,0,1-1,1.25l-1.77,1.66Z"/>
            <path class="cls-6" d="M186.41,370.49a1.88,1.88,0,0,1,.37,1.19,1.76,1.76,0,0,1-.78,1.55,4,4,0,0,1-2.28.55h-4v-7.67h3.75a3.65,3.65,0,0,1,2.15.54,1.68,1.68,0,0,1,.75,1.45,1.85,1.85,0,0,1-.27,1,1.92,1.92,0,0,1-.75.69A2,2,0,0,1,186.41,370.49Zm-4.89-3v1.8h1.76a1.74,1.74,0,0,0,1-.23.78.78,0,0,0,.34-.68.76.76,0,0,0-.34-.67,1.83,1.83,0,0,0-1-.22Zm3.12,4.76a.78.78,0,0,0,.36-.71q0-1-1.41-1h-2.07v1.9h2.07A2,2,0,0,0,184.64,372.21Z"/>
            <path class="cls-6" d="M189.61,367.56h-2.45v-1.45h6.67v1.45h-2.45v6.22h-1.77Z"/>
            <path class="cls-6" d="M196.23,373.4a3.82,3.82,0,0,1-1.49-1.41,4,4,0,0,1-.54-2.05,3.89,3.89,0,0,1,.54-2,3.82,3.82,0,0,1,1.49-1.41,4.41,4.41,0,0,1,2.13-.51,4.55,4.55,0,0,1,1.8.35,3.48,3.48,0,0,1,1.35,1l-1.14,1.05a2.44,2.44,0,0,0-1.92-.9,2.58,2.58,0,0,0-1.28.31,2.27,2.27,0,0,0-.87.87,2.65,2.65,0,0,0-.31,1.27,2.62,2.62,0,0,0,.31,1.27,2.21,2.21,0,0,0,.87.87,2.59,2.59,0,0,0,1.28.32,2.45,2.45,0,0,0,1.92-.91l1.14,1.05a3.64,3.64,0,0,1-1.36,1,4.55,4.55,0,0,1-1.8.35A4.4,4.4,0,0,1,196.23,373.4Z"/>
            <path class="cls-6" d="M205.46,370h3.1v1.37h-3.1Z"/>
            <path class="cls-6" d="M209.76,370h3.1v1.37h-3.1Z"/>
            <path class="cls-6" d="M214.05,370h3.1v1.37h-3.1Z"/>
            <path class="cls-6" d="M218.34,370h3.1v1.37h-3.1Z"/>
            <path class="cls-6" d="M222.63,370h3.1v1.37h-3.1Z"/>
            <path class="cls-6" d="M168.79,399.25h-1.9v1.86h-1.41v-1.86h-1.9v-1.33h1.9v-1.87h1.41v1.87h1.9Z"/>
            <path class="cls-6" d="M172.61,394.75v7.67h-1.77v-6.25h-1.53v-1.42Z"/>
            <path class="cls-6" d="M179,397.9a2.35,2.35,0,0,1,1,.84,2.29,2.29,0,0,1,.35,1.26,2.39,2.39,0,0,1-.38,1.34,2.47,2.47,0,0,1-1.05.89,3.37,3.37,0,0,1-1.47.32,3.25,3.25,0,0,1-2.52-1,4,4,0,0,1-.91-2.81,4.72,4.72,0,0,1,.49-2.24,3.35,3.35,0,0,1,1.38-1.41,4.18,4.18,0,0,1,2-.48,4.6,4.6,0,0,1,1.18.14,3.5,3.5,0,0,1,1,.38l-.66,1.31a2.49,2.49,0,0,0-1.44-.39,2.08,2.08,0,0,0-1.54.57,2.39,2.39,0,0,0-.61,1.66,2.52,2.52,0,0,1,1.89-.68A3.1,3.1,0,0,1,179,397.9Zm-.78,3a1.06,1.06,0,0,0,.36-.84,1,1,0,0,0-.36-.83,1.35,1.35,0,0,0-.94-.32,1.4,1.4,0,0,0-1,.33,1.06,1.06,0,0,0-.37.82,1,1,0,0,0,.36.82,1.41,1.41,0,0,0,1,.32A1.36,1.36,0,0,0,178.2,400.92Z"/>
            <path class="cls-6" d="M191.16,399.13a1.88,1.88,0,0,1,.38,1.19,1.77,1.77,0,0,1-.79,1.55,4,4,0,0,1-2.28.55h-4v-7.67h3.74a3.65,3.65,0,0,1,2.15.54,1.68,1.68,0,0,1,.75,1.45,1.85,1.85,0,0,1-.27,1,1.8,1.8,0,0,1-.75.69A2,2,0,0,1,191.16,399.13Zm-4.89-3v1.8H188a1.74,1.74,0,0,0,1-.23.78.78,0,0,0,.34-.68.76.76,0,0,0-.34-.67,1.83,1.83,0,0,0-1-.22Zm3.12,4.76a.78.78,0,0,0,.36-.71q0-1-1.41-1h-2.07v1.9h2.07A2,2,0,0,0,189.39,400.85Z"/>
            <path class="cls-6" d="M194.36,396.2h-2.45v-1.45h6.68v1.45h-2.46v6.22h-1.77Z"/>
            <path class="cls-6" d="M201,402a3.82,3.82,0,0,1-1.49-1.41,4,4,0,0,1-.54-2.05,3.89,3.89,0,0,1,.54-2,3.82,3.82,0,0,1,1.49-1.41,4.41,4.41,0,0,1,2.13-.51,4.55,4.55,0,0,1,1.8.35,3.48,3.48,0,0,1,1.35,1l-1.14,1a2.43,2.43,0,0,0-1.92-.9,2.52,2.52,0,0,0-1.27.31,2.27,2.27,0,0,0-.87.87,2.55,2.55,0,0,0-.32,1.27,2.52,2.52,0,0,0,.32,1.27,2.21,2.21,0,0,0,.87.87,2.52,2.52,0,0,0,1.27.32,2.44,2.44,0,0,0,1.92-.91l1.14,1.05a3.61,3.61,0,0,1-1.35,1,4.6,4.6,0,0,1-1.81.35A4.4,4.4,0,0,1,201,402Z"/>
            <path class="cls-6" d="M210.22,398.65h3.1V400h-3.1Z"/>
            <path class="cls-6" d="M214.51,398.65h3.1V400h-3.1Z"/>
            <path class="cls-6" d="M218.8,398.65h3.1V400h-3.1Z"/>
            <path class="cls-6" d="M163.47,427.29h3.1v1.37h-3.1Z"/>
            <path class="cls-6" d="M174.62,429.45h-1.25v1.61h-1.73v-1.61h-4.13v-1.2l3.62-4.86H173L169.64,428h2.05v-1.43h1.68V428h1.25Z"/>
            <path class="cls-6" d="M185.38,427.77a1.88,1.88,0,0,1,.37,1.19,1.76,1.76,0,0,1-.78,1.55,3.92,3.92,0,0,1-2.28.55h-4v-7.67h3.75a3.65,3.65,0,0,1,2.15.54,1.69,1.69,0,0,1,.75,1.45,1.85,1.85,0,0,1-.27,1,1.92,1.92,0,0,1-.75.69A2,2,0,0,1,185.38,427.77Zm-4.89-3v1.8h1.76a1.74,1.74,0,0,0,1-.23.84.84,0,0,0,0-1.35,1.83,1.83,0,0,0-1-.22Zm3.12,4.76a.78.78,0,0,0,.36-.71c0-.64-.47-.95-1.41-.95h-2.07v1.89h2.07A2,2,0,0,0,183.61,429.49Z"/>
            <path class="cls-6" d="M188.58,424.84h-2.45v-1.45h6.68v1.45h-2.46v6.22h-1.77Z"/>
            <path class="cls-6" d="M195.2,430.68a3.82,3.82,0,0,1-1.49-1.41,4,4,0,0,1-.54-2,3.89,3.89,0,0,1,.54-2,3.82,3.82,0,0,1,1.49-1.41,4.41,4.41,0,0,1,2.13-.51,4.55,4.55,0,0,1,1.8.35,3.48,3.48,0,0,1,1.35,1l-1.14,1.05a2.44,2.44,0,0,0-1.92-.9,2.52,2.52,0,0,0-1.27.31,2.14,2.14,0,0,0-.87.87,2.58,2.58,0,0,0-.32,1.27,2.52,2.52,0,0,0,.32,1.27,2,2,0,0,0,.87.87,2.52,2.52,0,0,0,1.27.32,2.45,2.45,0,0,0,1.92-.91l1.14,1.05a3.64,3.64,0,0,1-1.36,1,4.55,4.55,0,0,1-1.8.35A4.4,4.4,0,0,1,195.2,430.68Z"/>
            <path class="cls-6" d="M204.43,427.29h3.1v1.37h-3.1Z"/>
            <path class="cls-6" d="M208.73,427.29h3.1v1.37h-3.1Z"/>
            <path class="cls-6" d="M213,427.29h3.1v1.37H213Z"/>
            <path class="cls-6" d="M217.31,427.29h3.1v1.37h-3.1Z"/>
            <path class="cls-6" d="M221.6,427.29h3.1v1.37h-3.1Z"/>
            <path class="cls-6" d="M168.79,456.53h-1.9v1.86h-1.41v-1.86h-1.9V455.2h1.9v-1.87h1.41v1.87h1.9Z"/>
            <path class="cls-6" d="M175.44,458.25v1.45h-5.79v-1.15l2.95-2.8a3,3,0,0,0,.64-.77,1.38,1.38,0,0,0,.16-.64.85.85,0,0,0-.31-.71,1.47,1.47,0,0,0-.91-.24,2.06,2.06,0,0,0-.91.19,1.78,1.78,0,0,0-.68.57l-1.29-.83a3.06,3.06,0,0,1,1.23-1,4,4,0,0,1,1.81-.38,3.68,3.68,0,0,1,1.5.28,2.3,2.3,0,0,1,1,.79,2,2,0,0,1,.36,1.2,2.64,2.64,0,0,1-.27,1.17,4.54,4.54,0,0,1-1,1.25l-1.77,1.66Z"/>
            <path class="cls-6" d="M186.41,456.41a1.88,1.88,0,0,1,.37,1.19,1.76,1.76,0,0,1-.78,1.55,4,4,0,0,1-2.28.55h-4V452h3.75a3.65,3.65,0,0,1,2.15.54,1.68,1.68,0,0,1,.75,1.45,1.85,1.85,0,0,1-.27,1,1.92,1.92,0,0,1-.75.69A2,2,0,0,1,186.41,456.41Zm-4.89-3v1.8h1.76a1.74,1.74,0,0,0,1-.23.78.78,0,0,0,.34-.68.76.76,0,0,0-.34-.67,1.83,1.83,0,0,0-1-.22Zm3.12,4.76a.78.78,0,0,0,.36-.71q0-1-1.41-1h-2.07v1.9h2.07A2,2,0,0,0,184.64,458.13Z"/>
            <path class="cls-6" d="M189.61,453.48h-2.45V452h6.67v1.45h-2.45v6.22h-1.77Z"/>
            <path class="cls-6" d="M196.23,459.32a3.82,3.82,0,0,1-1.49-1.41,4,4,0,0,1-.54-2.05,3.89,3.89,0,0,1,.54-2,3.82,3.82,0,0,1,1.49-1.41,4.41,4.41,0,0,1,2.13-.51,4.55,4.55,0,0,1,1.8.35,3.48,3.48,0,0,1,1.35,1l-1.14,1.05a2.44,2.44,0,0,0-1.92-.9,2.58,2.58,0,0,0-1.28.31,2.27,2.27,0,0,0-.87.87,2.65,2.65,0,0,0-.31,1.27,2.62,2.62,0,0,0,.31,1.27,2.21,2.21,0,0,0,.87.87,2.59,2.59,0,0,0,1.28.32,2.45,2.45,0,0,0,1.92-.91l1.14,1a3.64,3.64,0,0,1-1.36,1,4.55,4.55,0,0,1-1.8.35A4.4,4.4,0,0,1,196.23,459.32Z"/>
            <path class="cls-6" d="M205.46,455.93h3.1v1.37h-3.1Z"/>
            <path class="cls-6" d="M209.76,455.93h3.1v1.37h-3.1Z"/>
            <path class="cls-6" d="M214.05,455.93h3.1v1.37h-3.1Z"/>
            <path class="cls-6" d="M218.34,455.93h3.1v1.37h-3.1Z"/>
            <path class="cls-6" d="M222.63,455.93h3.1v1.37h-3.1Z"/>
          </g>
          <path class="cls-6" d="M230.64,403.52a1.07,1.07,0,0,1-.73-.29L226,399.56a1.07,1.07,0,1,1,1.47-1.56l3.14,3,8.22-8.09a1.07,1.07,0,0,1,1.52,0,1.06,1.06,0,0,1,0,1.51l-9,8.82A1,1,0,0,1,230.64,403.52Z"/>
          <path class="cls-6" d="M230.64,376.42a1,1,0,0,1-.73-.29L226,372.46a1.07,1.07,0,1,1,1.47-1.55l3.14,3,8.22-8.1a1.07,1.07,0,1,1,1.5,1.53l-9,8.82A1.07,1.07,0,0,1,230.64,376.42Z"/>
          <path class="cls-6" d="M230.64,431.3a1,1,0,0,1-.73-.29L226,427.34a1.07,1.07,0,1,1,1.47-1.55l3.14,3,8.22-8.1a1.07,1.07,0,0,1,1.52,0,1.06,1.06,0,0,1,0,1.51l-9,8.82A1.07,1.07,0,0,1,230.64,431.3Z"/>
          <path class="cls-6" d="M230.64,459.09a1.07,1.07,0,0,1-.73-.29L226,455.13a1.07,1.07,0,1,1,1.47-1.56l3.14,3,8.22-8.09a1.07,1.07,0,0,1,1.52,0,1.06,1.06,0,0,1,0,1.51l-9,8.82A1.08,1.08,0,0,1,230.64,459.09Z"/>
        </g>
        <g>
          <g>
            <path class="cls-6" d="M522,119.24h-1.91v1.86h-1.41v-1.86h-1.9V117.9h1.9V116h1.41v1.86H522Z"/>
            <path class="cls-6" d="M528.6,121v1.44h-5.79v-1.15l3-2.79a3.32,3.32,0,0,0,.63-.77,1.43,1.43,0,0,0,.17-.64.84.84,0,0,0-.32-.71,1.39,1.39,0,0,0-.91-.25,2.06,2.06,0,0,0-.91.2,1.62,1.62,0,0,0-.68.57l-1.29-.83a3,3,0,0,1,1.24-1,4.11,4.11,0,0,1,1.8-.38,3.86,3.86,0,0,1,1.5.28,2.34,2.34,0,0,1,1,.79,2.09,2.09,0,0,1,.35,1.2,2.71,2.71,0,0,1-.26,1.17,4.65,4.65,0,0,1-1,1.25L525.31,121Z"/>
            <path class="cls-6" d="M539.57,119.11a1.89,1.89,0,0,1,.38,1.2,1.76,1.76,0,0,1-.79,1.55,4,4,0,0,1-2.28.54h-4v-7.66h3.74a3.63,3.63,0,0,1,2.15.53,1.71,1.71,0,0,1,.75,1.46,1.84,1.84,0,0,1-.27,1,1.76,1.76,0,0,1-.75.7A2,2,0,0,1,539.57,119.11Zm-4.89-3v1.81h1.76a1.83,1.83,0,0,0,1-.23.76.76,0,0,0,.34-.68.74.74,0,0,0-.34-.67,1.83,1.83,0,0,0-1-.23Zm3.13,4.76a.79.79,0,0,0,.35-.71c0-.63-.47-1-1.41-1h-2.07v1.89h2.07A1.92,1.92,0,0,0,537.81,120.83Z"/>
            <path class="cls-6" d="M542.77,116.18h-2.45v-1.44H547v1.44h-2.45v6.22h-1.78Z"/>
            <path class="cls-6" d="M549.39,122a3.82,3.82,0,0,1-1.49-1.41,4.12,4.12,0,0,1,0-4.08,3.77,3.77,0,0,1,1.49-1.42,4.41,4.41,0,0,1,2.13-.51,4.48,4.48,0,0,1,1.8.35,3.59,3.59,0,0,1,1.35,1L553.54,117a2.45,2.45,0,0,0-1.93-.89,2.52,2.52,0,0,0-1.27.31,2.21,2.21,0,0,0-.87.87,2.52,2.52,0,0,0-.31,1.27,2.54,2.54,0,0,0,.31,1.27,2.27,2.27,0,0,0,.87.87,2.52,2.52,0,0,0,1.27.31,2.44,2.44,0,0,0,1.93-.91l1.13,1a3.41,3.41,0,0,1-1.35,1,4.75,4.75,0,0,1-3.93-.16Z"/>
            <path class="cls-6" d="M558.63,118.63h3.1V120h-3.1Z"/>
            <path class="cls-6" d="M562.92,118.63H566V120h-3.1Z"/>
            <path class="cls-6" d="M567.21,118.63h3.1V120h-3.1Z"/>
            <path class="cls-6" d="M571.5,118.63h3.1V120h-3.1Z"/>
            <path class="cls-6" d="M575.8,118.63h3.1V120h-3.1Z"/>
            <path class="cls-6" d="M522,147.88h-1.91v1.86h-1.41v-1.86h-1.9v-1.34h1.9v-1.86h1.41v1.86H522Z"/>
            <path class="cls-6" d="M525.78,143.38V151H524V144.8h-1.53v-1.42Z"/>
            <path class="cls-6" d="M532.14,146.53a2.28,2.28,0,0,1,1,.84,2.2,2.2,0,0,1,.35,1.25,2.45,2.45,0,0,1-.38,1.35,2.55,2.55,0,0,1-1,.89,3.37,3.37,0,0,1-1.47.31,3.29,3.29,0,0,1-2.52-1,4.05,4.05,0,0,1-.91-2.82,4.68,4.68,0,0,1,.5-2.23,3.33,3.33,0,0,1,1.37-1.41,4.11,4.11,0,0,1,2-.49,5.08,5.08,0,0,1,1.18.14,3,3,0,0,1,1,.39l-.66,1.3a2.56,2.56,0,0,0-1.43-.38,2.1,2.1,0,0,0-1.55.57,2.38,2.38,0,0,0-.61,1.65,2.56,2.56,0,0,1,1.89-.68A3,3,0,0,1,532.14,146.53Zm-.77,3a1.05,1.05,0,0,0,.35-.83,1.09,1.09,0,0,0-.35-.84,1.39,1.39,0,0,0-1-.31,1.42,1.42,0,0,0-.95.32,1.11,1.11,0,0,0,0,1.65,1.44,1.44,0,0,0,1,.32A1.41,1.41,0,0,0,531.37,149.54Z"/>
            <path class="cls-6" d="M544.33,147.75a2,2,0,0,1,.37,1.2,1.77,1.77,0,0,1-.78,1.55,4.06,4.06,0,0,1-2.29.54h-4v-7.66h3.74a3.69,3.69,0,0,1,2.16.53,1.72,1.72,0,0,1,.75,1.46,1.84,1.84,0,0,1-.27,1,1.79,1.79,0,0,1-.75.69A2,2,0,0,1,544.33,147.75Zm-4.9-3v1.81h1.76a1.83,1.83,0,0,0,1-.23.77.77,0,0,0,.34-.68.73.73,0,0,0-.34-.67,1.83,1.83,0,0,0-1-.23Zm3.13,4.76a.79.79,0,0,0,.35-.71c0-.63-.47-.95-1.41-.95h-2.07v1.89h2.07A1.92,1.92,0,0,0,542.56,149.47Z"/>
            <path class="cls-6" d="M547.52,144.82h-2.45v-1.44h6.68v1.44H549.3V151h-1.78Z"/>
            <path class="cls-6" d="M554.14,150.66a4,4,0,0,1-1.49-5.49,3.84,3.84,0,0,1,1.49-1.42,4.41,4.41,0,0,1,2.13-.51,4.48,4.48,0,0,1,1.8.35,3.7,3.7,0,0,1,1.36,1l-1.14,1.05a2.45,2.45,0,0,0-1.93-.9,2.55,2.55,0,0,0-1.27.32,2.21,2.21,0,0,0-.87.87,2.52,2.52,0,0,0-.31,1.27,2.54,2.54,0,0,0,.31,1.27,2.27,2.27,0,0,0,.87.87,2.54,2.54,0,0,0,1.27.31,2.43,2.43,0,0,0,1.93-.91l1.14,1.05a3.52,3.52,0,0,1-1.36,1,4.56,4.56,0,0,1-1.81.35A4.4,4.4,0,0,1,554.14,150.66Z"/>
            <path class="cls-6" d="M563.38,147.27h3.1v1.37h-3.1Z"/>
            <path class="cls-6" d="M567.67,147.27h3.1v1.37h-3.1Z"/>
            <path class="cls-6" d="M572,147.27h3.1v1.37H572Z"/>
            <path class="cls-6" d="M516.63,175.91h3.1v1.37h-3.1Z"/>
            <path class="cls-6" d="M527.78,178.07h-1.25v1.61H524.8v-1.61h-4.13v-1.19l3.62-4.86h1.86l-3.35,4.61h2.06v-1.44h1.67v1.44h1.25Z"/>
            <path class="cls-6" d="M538.54,176.39a1.91,1.91,0,0,1,.38,1.2,1.76,1.76,0,0,1-.79,1.55,4,4,0,0,1-2.28.54h-4V172h3.74a3.63,3.63,0,0,1,2.15.53,1.71,1.71,0,0,1,.75,1.46,1.92,1.92,0,0,1-.26,1,1.88,1.88,0,0,1-.75.7A2,2,0,0,1,538.54,176.39Zm-4.89-3v1.81h1.76a1.83,1.83,0,0,0,1-.23.76.76,0,0,0,.34-.68.74.74,0,0,0-.34-.67,1.83,1.83,0,0,0-1-.23Zm3.13,4.77a.82.82,0,0,0,.35-.72c0-.63-.47-1-1.41-1h-2.07v1.89h2.07A2,2,0,0,0,536.78,178.12Z"/>
            <path class="cls-6" d="M541.74,173.46h-2.45V172H546v1.44h-2.45v6.22h-1.78Z"/>
            <path class="cls-6" d="M548.36,179.3a3.82,3.82,0,0,1-1.49-1.41,4.12,4.12,0,0,1,0-4.08,3.77,3.77,0,0,1,1.49-1.42,4.41,4.41,0,0,1,2.13-.51,4.48,4.48,0,0,1,1.8.35,3.7,3.7,0,0,1,1.36,1l-1.14,1a2.44,2.44,0,0,0-1.93-.89,2.52,2.52,0,0,0-1.27.31,2.27,2.27,0,0,0-.87.87,2.52,2.52,0,0,0-.31,1.27,2.54,2.54,0,0,0,.31,1.27,2.27,2.27,0,0,0,.87.87,2.52,2.52,0,0,0,1.27.31,2.43,2.43,0,0,0,1.93-.91l1.14,1.05a3.52,3.52,0,0,1-1.36,1,4.75,4.75,0,0,1-3.93-.16Z"/>
            <path class="cls-6" d="M557.6,175.91h3.1v1.37h-3.1Z"/>
            <path class="cls-6" d="M561.89,175.91H565v1.37h-3.1Z"/>
            <path class="cls-6" d="M566.18,175.91h3.1v1.37h-3.1Z"/>
            <path class="cls-6" d="M570.47,175.91h3.1v1.37h-3.1Z"/>
            <path class="cls-6" d="M574.77,175.91h3.1v1.37h-3.1Z"/>
            <path class="cls-6" d="M522,205.16h-1.91V207h-1.41v-1.86h-1.9v-1.34h1.9V202h1.41v1.86H522Z"/>
            <path class="cls-6" d="M528.6,206.88v1.44h-5.79v-1.15l3-2.79a3.32,3.32,0,0,0,.63-.77,1.43,1.43,0,0,0,.17-.64.84.84,0,0,0-.32-.71,1.39,1.39,0,0,0-.91-.25,2.06,2.06,0,0,0-.91.2,1.62,1.62,0,0,0-.68.57l-1.29-.83a3,3,0,0,1,1.24-1,4.11,4.11,0,0,1,1.8-.38,3.86,3.86,0,0,1,1.5.28,2.34,2.34,0,0,1,1,.79,2.09,2.09,0,0,1,.35,1.2,2.71,2.71,0,0,1-.26,1.17,4.65,4.65,0,0,1-1,1.25l-1.76,1.67Z"/>
            <path class="cls-6" d="M539.57,205a1.89,1.89,0,0,1,.38,1.2,1.76,1.76,0,0,1-.79,1.55,4,4,0,0,1-2.28.54h-4v-7.66h3.74a3.63,3.63,0,0,1,2.15.53,1.71,1.71,0,0,1,.75,1.46,1.84,1.84,0,0,1-.27,1,1.68,1.68,0,0,1-.75.69A2,2,0,0,1,539.57,205Zm-4.89-3v1.81h1.76a1.83,1.83,0,0,0,1-.23.76.76,0,0,0,.34-.68.74.74,0,0,0-.34-.67,1.83,1.83,0,0,0-1-.23Zm3.13,4.76a.79.79,0,0,0,.35-.71c0-.63-.47-.95-1.41-.95h-2.07V207h2.07A1.92,1.92,0,0,0,537.81,206.75Z"/>
            <path class="cls-6" d="M542.77,202.1h-2.45v-1.44H547v1.44h-2.45v6.22h-1.78Z"/>
            <path class="cls-6" d="M549.39,207.94a3.82,3.82,0,0,1-1.49-1.41,4.12,4.12,0,0,1,0-4.08,3.77,3.77,0,0,1,1.49-1.42,4.41,4.41,0,0,1,2.13-.51,4.48,4.48,0,0,1,1.8.35,3.59,3.59,0,0,1,1.35,1l-1.13,1.05a2.45,2.45,0,0,0-1.93-.89,2.52,2.52,0,0,0-1.27.31,2.21,2.21,0,0,0-.87.87,2.52,2.52,0,0,0-.31,1.27,2.54,2.54,0,0,0,.31,1.27,2.27,2.27,0,0,0,.87.87,2.52,2.52,0,0,0,1.27.31,2.44,2.44,0,0,0,1.93-.91l1.13,1.05a3.41,3.41,0,0,1-1.35,1,4.6,4.6,0,0,1-1.81.35A4.4,4.4,0,0,1,549.39,207.94Z"/>
            <path class="cls-6" d="M558.63,204.55h3.1v1.37h-3.1Z"/>
            <path class="cls-6" d="M562.92,204.55H566v1.37h-3.1Z"/>
            <path class="cls-6" d="M567.21,204.55h3.1v1.37h-3.1Z"/>
          </g>
          <path class="cls-6" d="M583.81,152.14a1.05,1.05,0,0,1-.74-.29l-3.89-3.67a1.07,1.07,0,1,1,1.47-1.55l3.14,3,8.22-8.09a1.07,1.07,0,1,1,1.51,1.53l-9,8.82A1.08,1.08,0,0,1,583.81,152.14Z"/>
          <path class="cls-6" d="M583.81,125.05a1.1,1.1,0,0,1-.74-.29l-3.89-3.67a1.07,1.07,0,1,1,1.47-1.56l3.14,3L592,114.4a1.07,1.07,0,1,1,1.51,1.52l-9,8.82A1.05,1.05,0,0,1,583.81,125.05Z"/>
          <path class="cls-6" d="M583.81,179.93a1.1,1.1,0,0,1-.74-.29L579.18,176a1.07,1.07,0,0,1,0-1.51,1.08,1.08,0,0,1,1.52-.05l3.14,3,8.22-8.09a1.07,1.07,0,1,1,1.51,1.52l-9,8.82A1.05,1.05,0,0,1,583.81,179.93Z"/>
          <path class="cls-6" d="M583.81,207.71a1.05,1.05,0,0,1-.74-.29l-3.89-3.67a1.07,1.07,0,0,1,0-1.51,1.08,1.08,0,0,1,1.52-.05l3.14,3,8.22-8.09a1.07,1.07,0,1,1,1.51,1.53l-9,8.81A1.05,1.05,0,0,1,583.81,207.71Z"/>
        </g>
        <g>
          <g>
            <path class="cls-6" d="M950.94,272.74H949v1.86h-1.41v-1.86h-1.89V271.4h1.89v-1.86H949v1.86h1.91Z"/>
            <path class="cls-6" d="M957.58,274.46v1.44h-5.79v-1.15l3-2.79a3.32,3.32,0,0,0,.63-.77,1.43,1.43,0,0,0,.17-.64.87.87,0,0,0-.31-.71,1.5,1.5,0,0,0-.92-.25,2.09,2.09,0,0,0-.91.2,1.77,1.77,0,0,0-.68.57l-1.29-.83a3,3,0,0,1,1.24-1,4.15,4.15,0,0,1,1.81-.38,3.84,3.84,0,0,1,1.49.28,2.34,2.34,0,0,1,1,.79,2.09,2.09,0,0,1,.35,1.2,2.71,2.71,0,0,1-.26,1.17,4.65,4.65,0,0,1-1,1.25l-1.76,1.67Z"/>
            <path class="cls-6" d="M968.56,272.61a2,2,0,0,1,.37,1.2,1.77,1.77,0,0,1-.78,1.55,4.06,4.06,0,0,1-2.29.54h-4v-7.66h3.74a3.71,3.71,0,0,1,2.15.53,1.71,1.71,0,0,1,.75,1.46,1.89,1.89,0,0,1-.26,1,1.92,1.92,0,0,1-.75.69A2,2,0,0,1,968.56,272.61Zm-4.9-3v1.81h1.76a1.83,1.83,0,0,0,1-.23.76.76,0,0,0,.34-.68.74.74,0,0,0-.34-.67,1.83,1.83,0,0,0-1-.23Zm3.13,4.77a.81.81,0,0,0,.35-.72c0-.63-.47-.95-1.41-.95h-2.07v1.9h2.07A2,2,0,0,0,966.79,274.34Z"/>
            <path class="cls-6" d="M971.75,269.68H969.3v-1.44H976v1.44h-2.45v6.22h-1.78Z"/>
            <path class="cls-6" d="M978.37,275.52a3.82,3.82,0,0,1-1.49-1.41,4.12,4.12,0,0,1,0-4.08,3.77,3.77,0,0,1,1.49-1.42,4.41,4.41,0,0,1,2.13-.51,4.32,4.32,0,0,1,1.8.36,3.57,3.57,0,0,1,1.36,1l-1.14,1.05a2.47,2.47,0,0,0-1.93-.89,2.54,2.54,0,0,0-1.27.31,2.27,2.27,0,0,0-.87.87,2.52,2.52,0,0,0-.31,1.27,2.54,2.54,0,0,0,.31,1.27,2.27,2.27,0,0,0,.87.87,2.54,2.54,0,0,0,1.27.31,2.43,2.43,0,0,0,1.93-.91l1.14,1.05a3.52,3.52,0,0,1-1.36,1,4.75,4.75,0,0,1-3.93-.16Z"/>
            <path class="cls-6" d="M987.61,272.13h3.1v1.37h-3.1Z"/>
            <path class="cls-6" d="M991.9,272.13H995v1.37h-3.1Z"/>
            <path class="cls-6" d="M996.19,272.13h3.1v1.37h-3.1Z"/>
            <path class="cls-6" d="M1000.49,272.13h3.09v1.37h-3.09Z"/>
            <path class="cls-6" d="M1004.78,272.13h3.1v1.37h-3.1Z"/>
            <path class="cls-6" d="M950.94,301.38H949v1.86h-1.41v-1.86h-1.89V300h1.89v-1.86H949V300h1.91Z"/>
            <path class="cls-6" d="M954.76,296.88v7.66H953V298.3h-1.54v-1.42Z"/>
            <path class="cls-6" d="M961.12,300a2.35,2.35,0,0,1,1,.84,2.2,2.2,0,0,1,.35,1.25,2.37,2.37,0,0,1-.38,1.35,2.52,2.52,0,0,1-1,.89,3.44,3.44,0,0,1-1.48.31,3.29,3.29,0,0,1-2.52-1,4,4,0,0,1-.9-2.82,4.68,4.68,0,0,1,.49-2.23,3.33,3.33,0,0,1,1.37-1.41,4.22,4.22,0,0,1,2-.49,5,5,0,0,1,1.18.14,3,3,0,0,1,1,.39l-.66,1.3a2.56,2.56,0,0,0-1.43-.38,2.1,2.1,0,0,0-1.55.57,2.38,2.38,0,0,0-.61,1.65,2.58,2.58,0,0,1,1.9-.68A3,3,0,0,1,961.12,300Zm-.77,3a1,1,0,0,0,.36-.83,1.06,1.06,0,0,0-.36-.84,1.38,1.38,0,0,0-1-.31,1.44,1.44,0,0,0-.95.32,1.11,1.11,0,0,0,0,1.65,1.44,1.44,0,0,0,1,.32A1.36,1.36,0,0,0,960.35,303Z"/>
            <path class="cls-6" d="M973.31,301.25a1.93,1.93,0,0,1,.37,1.2,1.77,1.77,0,0,1-.78,1.55,4.06,4.06,0,0,1-2.29.54h-4v-7.66h3.75a3.65,3.65,0,0,1,2.15.53,1.71,1.71,0,0,1,.75,1.46,1.9,1.9,0,0,1-.27,1,1.92,1.92,0,0,1-.75.69A2,2,0,0,1,973.31,301.25Zm-4.9-3V300h1.77a1.79,1.79,0,0,0,1-.23.76.76,0,0,0,.34-.68.74.74,0,0,0-.34-.67,1.79,1.79,0,0,0-1-.23Zm3.13,4.77a.81.81,0,0,0,.36-.72c0-.63-.48-.95-1.42-.95h-2.07v1.9h2.07A2,2,0,0,0,971.54,303Z"/>
            <path class="cls-6" d="M976.51,298.32h-2.46v-1.44h6.68v1.44h-2.45v6.22h-1.77Z"/>
            <path class="cls-6" d="M983.12,304.16a4,4,0,0,1-1.48-5.49,3.74,3.74,0,0,1,1.48-1.42,4.47,4.47,0,0,1,2.13-.51,4.56,4.56,0,0,1,1.81.35,3.75,3.75,0,0,1,1.35,1l-1.14,1a2.44,2.44,0,0,0-1.93-.89,2.54,2.54,0,0,0-1.27.31,2.27,2.27,0,0,0-.87.87,2.52,2.52,0,0,0-.31,1.27,2.54,2.54,0,0,0,.31,1.27,2.27,2.27,0,0,0,.87.87,2.54,2.54,0,0,0,1.27.31,2.43,2.43,0,0,0,1.93-.91l1.14,1.05a3.52,3.52,0,0,1-1.36,1,4.75,4.75,0,0,1-3.93-.16Z"/>
            <path class="cls-6" d="M992.36,300.77h3.1v1.37h-3.1Z"/>
            <path class="cls-6" d="M996.65,300.77h3.1v1.37h-3.1Z"/>
            <path class="cls-6" d="M1001,300.77H1004v1.37H1001Z"/>
            <path class="cls-6" d="M945.62,329.42h3.09v1.36h-3.09Z"/>
            <path class="cls-6" d="M956.76,331.57h-1.25v1.61h-1.73v-1.61h-4.12v-1.19l3.61-4.86h1.86l-3.35,4.61h2.06v-1.44h1.67v1.44h1.25Z"/>
            <path class="cls-6" d="M967.53,329.89a2,2,0,0,1,.37,1.2,1.77,1.77,0,0,1-.78,1.55,4.06,4.06,0,0,1-2.29.54h-4v-7.66h3.74a3.76,3.76,0,0,1,2.16.53,1.74,1.74,0,0,1,.75,1.46,1.9,1.9,0,0,1-.27,1,1.92,1.92,0,0,1-.75.69A2,2,0,0,1,967.53,329.89Zm-4.9-3v1.81h1.76a1.83,1.83,0,0,0,1-.23.76.76,0,0,0,.34-.68.74.74,0,0,0-.34-.67,1.83,1.83,0,0,0-1-.23Zm3.13,4.77a.81.81,0,0,0,.35-.72c0-.63-.47-.95-1.41-.95h-2.07v1.9h2.07A2,2,0,0,0,965.76,331.62Z"/>
            <path class="cls-6" d="M970.72,327h-2.45v-1.44H975V327H972.5v6.22h-1.78Z"/>
            <path class="cls-6" d="M977.34,332.8a3.93,3.93,0,0,1,0-6.91,4.41,4.41,0,0,1,2.13-.51,4.32,4.32,0,0,1,1.8.36,3.57,3.57,0,0,1,1.36,1l-1.14,1.05a2.47,2.47,0,0,0-1.93-.89,2.54,2.54,0,0,0-1.27.31,2.27,2.27,0,0,0-.87.87,2.76,2.76,0,0,0,0,2.54,2.27,2.27,0,0,0,.87.87,2.54,2.54,0,0,0,1.27.31,2.43,2.43,0,0,0,1.93-.91l1.14,1.05a3.52,3.52,0,0,1-1.36,1,4.75,4.75,0,0,1-3.93-.16Z"/>
            <path class="cls-6" d="M986.58,329.42h3.1v1.36h-3.1Z"/>
            <path class="cls-6" d="M990.87,329.42H994v1.36h-3.1Z"/>
            <path class="cls-6" d="M995.16,329.42h3.1v1.36h-3.1Z"/>
            <path class="cls-6" d="M999.46,329.42h3.09v1.36h-3.09Z"/>
            <path class="cls-6" d="M1003.75,329.42h3.1v1.36h-3.1Z"/>
            <path class="cls-6" d="M950.94,358.66H949v1.86h-1.41v-1.86h-1.89v-1.34h1.89v-1.86H949v1.86h1.91Z"/>
            <path class="cls-6" d="M957.58,360.38v1.44h-5.79v-1.15l3-2.79a3.32,3.32,0,0,0,.63-.77,1.43,1.43,0,0,0,.17-.64.87.87,0,0,0-.31-.71,1.5,1.5,0,0,0-.92-.25,2.09,2.09,0,0,0-.91.2,1.77,1.77,0,0,0-.68.57l-1.29-.83a3,3,0,0,1,1.24-1.05,4.15,4.15,0,0,1,1.81-.38,3.84,3.84,0,0,1,1.49.28,2.34,2.34,0,0,1,1,.79,2.09,2.09,0,0,1,.35,1.2,2.71,2.71,0,0,1-.26,1.17,4.65,4.65,0,0,1-1,1.25l-1.76,1.67Z"/>
            <path class="cls-6" d="M968.56,358.53a2,2,0,0,1,.37,1.2,1.77,1.77,0,0,1-.78,1.55,4.06,4.06,0,0,1-2.29.54h-4v-7.66h3.74a3.63,3.63,0,0,1,2.15.53,1.71,1.71,0,0,1,.75,1.46,1.89,1.89,0,0,1-.26,1,1.92,1.92,0,0,1-.75.69A2,2,0,0,1,968.56,358.53Zm-4.9-3v1.81h1.76a1.83,1.83,0,0,0,1-.23.76.76,0,0,0,.34-.68.74.74,0,0,0-.34-.67,1.83,1.83,0,0,0-1-.23Zm3.13,4.77a.81.81,0,0,0,.35-.72c0-.63-.47-1-1.41-1h-2.07v1.9h2.07A2,2,0,0,0,966.79,360.26Z"/>
            <path class="cls-6" d="M971.75,355.6H969.3v-1.44H976v1.44h-2.45v6.22h-1.78Z"/>
            <path class="cls-6" d="M978.37,361.44a3.82,3.82,0,0,1-1.49-1.41,4.12,4.12,0,0,1,0-4.08,3.77,3.77,0,0,1,1.49-1.42,4.41,4.41,0,0,1,2.13-.51,4.32,4.32,0,0,1,1.8.36,3.57,3.57,0,0,1,1.36,1l-1.14,1.05a2.44,2.44,0,0,0-1.93-.89,2.54,2.54,0,0,0-1.27.31,2.27,2.27,0,0,0-.87.87,2.52,2.52,0,0,0-.31,1.27,2.54,2.54,0,0,0,.31,1.27,2.27,2.27,0,0,0,.87.87,2.54,2.54,0,0,0,1.27.31,2.43,2.43,0,0,0,1.93-.91l1.14,1.05a3.52,3.52,0,0,1-1.36,1,4.75,4.75,0,0,1-3.93-.16Z"/>
            <path class="cls-6" d="M987.61,358.05h3.1v1.37h-3.1Z"/>
            <path class="cls-6" d="M991.9,358.05H995v1.37h-3.1Z"/>
            <path class="cls-6" d="M996.19,358.05h3.1v1.37h-3.1Z"/>
          </g>
          <path class="cls-6" d="M1012.79,305.64a1.05,1.05,0,0,1-.74-.29l-3.89-3.67a1.07,1.07,0,0,1,1.47-1.55l3.14,3L1021,295a1.07,1.07,0,0,1,1.5,1.53l-9,8.82A1.08,1.08,0,0,1,1012.79,305.64Z"/>
          <path class="cls-6" d="M1012.79,278.55a1.1,1.1,0,0,1-.74-.29l-3.89-3.67a1.07,1.07,0,0,1,1.47-1.56l3.14,3,8.23-8.09a1.07,1.07,0,1,1,1.5,1.52l-9,8.82A1.05,1.05,0,0,1,1012.79,278.55Z"/>
          <path class="cls-6" d="M1012.79,333.43a1.05,1.05,0,0,1-.74-.29l-3.89-3.67a1.07,1.07,0,0,1,1.47-1.56l3.14,3,8.23-8.09a1.06,1.06,0,0,1,1.51,0,1.07,1.07,0,0,1,0,1.52l-9,8.81A1.05,1.05,0,0,1,1012.79,333.43Z"/>
          <path class="cls-6" d="M1012.79,361.21a1.05,1.05,0,0,1-.74-.29l-3.89-3.67a1.07,1.07,0,0,1,1.47-1.56l3.14,3,8.23-8.1a1.07,1.07,0,0,1,1.5,1.53l-9,8.82A1.08,1.08,0,0,1,1012.79,361.21Z"/>
        </g>
        <g>
          <path class="cls-4" d="M145.31,328.84a3.88,3.88,0,1,0-3.88,3.88A3.88,3.88,0,0,0,145.31,328.84Z"/>
          <path class="cls-4" d="M145.31,352.06a3.88,3.88,0,1,0-3.88,3.88A3.88,3.88,0,0,0,145.31,352.06Z"/>
          <path class="cls-4" d="M145.31,375.29a3.88,3.88,0,1,0-3.88,3.88A3.88,3.88,0,0,0,145.31,375.29Z"/>
          <path class="cls-4" d="M145.31,398.51a3.88,3.88,0,1,0-3.88,3.88A3.88,3.88,0,0,0,145.31,398.51Z"/>
          <path class="cls-4" d="M145.31,421.74a3.88,3.88,0,1,0-3.88,3.87A3.88,3.88,0,0,0,145.31,421.74Z"/>
          <path class="cls-4" d="M145.31,445a3.88,3.88,0,1,0-3.88,3.88A3.88,3.88,0,0,0,145.31,445Z"/>
          <path class="cls-4" d="M145.31,468.18a3.88,3.88,0,1,0-3.88,3.88A3.88,3.88,0,0,0,145.31,468.18Z"/>
          <path class="cls-4" d="M145.31,491.41a3.88,3.88,0,1,0-3.88,3.88A3.88,3.88,0,0,0,145.31,491.41Z"/>
        </g>
        <g>
          <path class="cls-4" d="M497.64,72.92a3.88,3.88,0,1,0-3.88,3.88A3.88,3.88,0,0,0,497.64,72.92Z"/>
          <path class="cls-4" d="M497.64,96.14a3.88,3.88,0,1,0-3.88,3.88A3.88,3.88,0,0,0,497.64,96.14Z"/>
          <path class="cls-4" d="M497.64,119.37a3.88,3.88,0,1,0-3.88,3.88A3.88,3.88,0,0,0,497.64,119.37Z"/>
          <path class="cls-4" d="M497.64,142.59a3.88,3.88,0,1,0-3.88,3.88A3.88,3.88,0,0,0,497.64,142.59Z"/>
          <path class="cls-4" d="M497.64,165.82a3.88,3.88,0,1,0-3.88,3.88A3.88,3.88,0,0,0,497.64,165.82Z"/>
          <path class="cls-4" d="M497.64,189a3.88,3.88,0,1,0-3.88,3.88A3.88,3.88,0,0,0,497.64,189Z"/>
          <path class="cls-4" d="M497.64,212.27a3.88,3.88,0,1,0-3.88,3.87A3.88,3.88,0,0,0,497.64,212.27Z"/>
          <path class="cls-4" d="M497.64,235.49a3.88,3.88,0,1,0-3.88,3.88A3.88,3.88,0,0,0,497.64,235.49Z"/>
        </g>
        <g>
          <path class="cls-4" d="M926.17,229.12A3.88,3.88,0,1,0,922.3,233,3.87,3.87,0,0,0,926.17,229.12Z"/>
          <path class="cls-4" d="M926.17,252.34a3.88,3.88,0,1,0-3.87,3.88A3.88,3.88,0,0,0,926.17,252.34Z"/>
          <path class="cls-4" d="M926.17,275.56a3.88,3.88,0,1,0-3.87,3.88A3.87,3.87,0,0,0,926.17,275.56Z"/>
          <path class="cls-4" d="M926.17,298.79a3.88,3.88,0,1,0-3.87,3.88A3.88,3.88,0,0,0,926.17,298.79Z"/>
          <path class="cls-4" d="M926.17,322a3.88,3.88,0,1,0-3.87,3.88A3.87,3.87,0,0,0,926.17,322Z"/>
          <path class="cls-4" d="M926.17,345.24a3.88,3.88,0,1,0-3.87,3.88A3.88,3.88,0,0,0,926.17,345.24Z"/>
          <path class="cls-4" d="M926.17,368.46a3.88,3.88,0,1,0-3.87,3.88A3.87,3.87,0,0,0,926.17,368.46Z"/>
          <path class="cls-4" d="M926.17,391.69a3.88,3.88,0,1,0-3.87,3.88A3.88,3.88,0,0,0,926.17,391.69Z"/>
        </g>
        <path class="cls-3" d="M1003.05,510.26a7,7,0,0,0,.49,9.9l2.71,2.46a7,7,0,0,0,9.88-.51l8.61-9.84-13.17-11.11Z"/>
        <rect class="cls-3" x="699.3" y="579.21" width="201.68" height="6.6"/>
        <path class="cls-12" d="M614.74,629.65C539.07,571,434.15,520.76,347.83,517.93"/>
        <g>
          <path class="cls-12" d="M428.17,798.7c146.5-109.52,258.55-99.41,258.55-99.41-14.1-18.24-32.72-37.11-54.46-55.48"/>
          <path class="cls-6" d="M454.26,799.53a1.58,1.58,0,0,0,.65-1.4,1.6,1.6,0,0,0-1.7-1.49l-24.43,1.66,8.83-22.83a1.59,1.59,0,0,0-.92-2.07,1.61,1.61,0,0,0-2.07.91l-9.73,25.18a1.6,1.6,0,0,0,1.6,2.17l26.93-1.82a1.67,1.67,0,0,0,.84-.31Z"/>
        </g>
        <g>
          <path class="cls-12" d="M604.34,367.66c46.91,41.27,82.38,127.63,94.84,205.18-37.35,14.69-80.33,63.93-112,118.57"/>
          <path class="cls-6" d="M583.69,665.59a1.57,1.57,0,0,1,1.32-.79,1.6,1.6,0,0,1,1.66,1.54l.91,24.46,21.78-11.17a1.6,1.6,0,1,1,1.46,2.85l-24,12.31a1.59,1.59,0,0,1-1.54,0,1.62,1.62,0,0,1-.79-1.32l-1-27a1.59,1.59,0,0,1,.22-.87C584,665.13,583.54,665.84,583.69,665.59Z"/>
        </g>
      </g>
    </g>
  </g>
</svg>
