<svg id="work" xmlns="http://www.w3.org/2000/svg" viewBox="0 0 1422 870">
  <defs>
    <style>
      .cls-1, .cls-2, .cls-8 {
        fill: #fff;
      }

      .cls-10, .cls-2, .cls-4, .cls-6, .cls-7, .cls-8, .cls-9 {
        stroke: #4a4a4a;
      }

      .cls-10, .cls-12, .cls-2, .cls-4, .cls-6, .cls-7, .cls-8, .cls-9 {
        stroke-linecap: round;
        stroke-linejoin: round;
      }

      .cls-2, .cls-4, .cls-7 {
        stroke-width: 2.5px;
      }

      .cls-3, .cls-9 {
        fill: #ff0083;
      }

      .cls-12, .cls-4, .cls-6 {
        fill: none;
      }

      .cls-5, .cls-7 {
        fill: #ebebeb;
      }

      .cls-12, .cls-6 {
        stroke-width: 4px;
      }

      .cls-10, .cls-8, .cls-9 {
        stroke-width: 3px;
      }

      .cls-10, .cls-11 {
        fill: #4a4a4a;
      }

      .cls-12 {
        stroke: #ff0083;
      }
    </style>
  </defs>
  <title>7,3</title>
  <path class="cls-1" d="M367.19,397.49a55.77,55.77,0,1,0-55.77,55.77A55.77,55.77,0,0,0,367.19,397.49Z"/>
  <path class="cls-1" d="M934.16,655.32a55.78,55.78,0,1,0-55.78,55.77A55.77,55.77,0,0,0,934.16,655.32Z"/>
  <path class="cls-1" d="M506.19,245.72a55.77,55.77,0,1,0-55.77,55.77A55.77,55.77,0,0,0,506.19,245.72Z"/>
  <g>
    <g>
      <path class="cls-2" d="M465.64,535.68a55.77,55.77,0,1,0-55.77,55.77A55.77,55.77,0,0,0,465.64,535.68Z"/>
      <path class="cls-3" d="M418.12,565.46h-6.27v-7.31h-4v7.31h-6.28c0-2.44,0-4.87,0-7.37H388.31v-6.22h.55c.82,0,1.65,0,2.47,0a2.06,2.06,0,0,0,2.18-2.23c0-.63.05-1.27.05-1.9q0-11.41,0-22.83c0-1,0-2.06-.06-3.09a2.07,2.07,0,0,0-2.17-2.25c-.84,0-1.68,0-2.52,0l-.5,0v-6.22H401.6V505.9h6.28v7.31h4c0-2.46,0-4.89,0-7.31h6.27c0,.19,0,.38,0,.57,0,2.14,0,4.28,0,6.42,0,.49.09.73.62.75a8.35,8.35,0,0,1,1.22.18,13.31,13.31,0,0,1,6,2.63,9.81,9.81,0,0,1,2.26,13,11.87,11.87,0,0,1-6.14,4.72l-.53.22a1.1,1.1,0,0,0,.5.26,16.21,16.21,0,0,1,4.71,2,9.69,9.69,0,0,1,4.29,6.15c1.06,4.87-.56,8.82-4.45,11.86a16.13,16.13,0,0,1-8,3c-.45.06-.56.21-.56.64C418.15,560.68,418.13,563.07,418.12,565.46ZM404.65,538c0,.15,0,.24,0,.34,0,3.15,0,6.31,0,9.46a19.93,19.93,0,0,0,.12,2,.9.9,0,0,0,.91.92c1.51.07,3,.14,4.55.12a36.88,36.88,0,0,0,3.93-.27A6.27,6.27,0,0,0,417.8,549a6.44,6.44,0,0,0,2-4.65,5.47,5.47,0,0,0-3.55-5.52,12.24,12.24,0,0,0-4.28-.74c-2.31-.07-4.63,0-6.94,0Zm0-6.64c.16,0,.28,0,.4,0,1.54,0,3.07,0,4.61,0a19.62,19.62,0,0,0,5.18-.53,5.41,5.41,0,0,0,3.28-2.21c1.74-2.67.85-7-3.07-7.76a19.23,19.23,0,0,0-2.92-.35c-2.36-.07-4.72-.06-7.08-.07l-.4,0Z"/>
    </g>
    <g>
      <path class="cls-4" d="M367.19,397.49a55.77,55.77,0,1,0-55.77,55.77A55.77,55.77,0,0,0,367.19,397.49Z"/>
      <path class="cls-3" d="M318.67,427.88h-6.28v-7.31h-4c0,2.47,0,4.89,0,7.31h-6.27V420.5H288.85v-6.22c.21,0,.38,0,.55,0,.82,0,1.65,0,2.47,0a2,2,0,0,0,2.18-2.23c0-.63.06-1.27.06-1.9q0-11.42,0-22.83c0-1,0-2.06-.06-3.09a2.07,2.07,0,0,0-2.17-2.25c-.84-.05-1.68,0-2.52-.05l-.5,0c0-2.08,0-4.12,0-6.22h13.26c0-2.49,0-4.92,0-7.34h6.27v7.31h4v-7.32h6.28c0,.19,0,.38,0,.57,0,2.14,0,4.28,0,6.42,0,.48.1.72.62.74a8.35,8.35,0,0,1,1.22.18,13.27,13.27,0,0,1,6,2.63,9.63,9.63,0,0,1,3.76,7.23,9.52,9.52,0,0,1-1.5,5.74,11.88,11.88,0,0,1-6.13,4.72l-.54.23a1.17,1.17,0,0,0,.5.25,16.21,16.21,0,0,1,4.71,2,9.7,9.7,0,0,1,4.3,6.15c1.05,4.87-.57,8.82-4.45,11.86a16.16,16.16,0,0,1-8,3.05c-.45.06-.56.21-.56.64C318.69,423.09,318.67,425.48,318.67,427.88ZM305.2,400.45c0,.15,0,.24,0,.34,0,3.15,0,6.31,0,9.46a19.93,19.93,0,0,0,.12,2,.9.9,0,0,0,.91.92c1.52.07,3,.14,4.56.12a37.06,37.06,0,0,0,3.93-.27,6.25,6.25,0,0,0,3.64-1.67,6.47,6.47,0,0,0,2-4.66,5.48,5.48,0,0,0-3.54-5.52,12.34,12.34,0,0,0-4.29-.74c-2.31-.06-4.62,0-6.94-.05Zm0-6.64a3.37,3.37,0,0,0,.4,0h4.61a20.13,20.13,0,0,0,5.19-.54,5.4,5.4,0,0,0,3.27-2.2c1.74-2.68.85-7-3.07-7.76a17.92,17.92,0,0,0-2.92-.36c-2.36-.07-4.72-.05-7.08-.07a3,3,0,0,0-.39,0C305.21,386.57,305.21,390.16,305.21,393.81Z"/>
    </g>
    <g>
      <path class="cls-4" d="M934.16,655.32a55.78,55.78,0,1,0-55.78,55.77A55.77,55.77,0,0,0,934.16,655.32Z"/>
      <path class="cls-3" d="M885.64,685.7h-6.28v-7.31h-4c0,2.47,0,4.89,0,7.31h-6.28c0-2.44,0-4.87,0-7.37H855.82v-6.22h.55c.82,0,1.65,0,2.47,0a2,2,0,0,0,2.18-2.23c0-.63.05-1.26.05-1.9q0-11.41,0-22.83c0-1,0-2.06-.06-3.09a2.07,2.07,0,0,0-2.17-2.25c-.84,0-1.68,0-2.52,0l-.5,0v-6.22h13.27c0-2.49,0-4.92,0-7.34h6.27v7.31h4c0-2.47,0-4.89,0-7.32h6.28c0,.19,0,.38,0,.57,0,2.14,0,4.28,0,6.42,0,.49.1.72.62.74a8.35,8.35,0,0,1,1.22.18,13.27,13.27,0,0,1,6,2.63,9.67,9.67,0,0,1,3.76,7.23,9.52,9.52,0,0,1-1.5,5.74,11.87,11.87,0,0,1-6.14,4.72l-.53.23a1.17,1.17,0,0,0,.5.25,16.21,16.21,0,0,1,4.71,2,9.74,9.74,0,0,1,4.3,6.15c1.05,4.87-.57,8.82-4.45,11.86a16.16,16.16,0,0,1-8,3c-.45.06-.56.21-.56.64C885.66,680.92,885.64,683.31,885.64,685.7Zm-13.48-27.42c0,.15,0,.24,0,.34,0,3.15,0,6.31,0,9.46a19.93,19.93,0,0,0,.12,2,.9.9,0,0,0,.91.92c1.52.07,3,.14,4.55.12a36.88,36.88,0,0,0,3.93-.27,6.25,6.25,0,0,0,3.65-1.67,6.47,6.47,0,0,0,2-4.66A5.48,5.48,0,0,0,883.8,659a12.34,12.34,0,0,0-4.29-.74c-2.31-.07-4.63,0-6.94,0Zm0-6.64a3.37,3.37,0,0,0,.4,0c1.54,0,3.08,0,4.61,0a20.13,20.13,0,0,0,5.19-.54,5.4,5.4,0,0,0,3.27-2.2c1.74-2.68.85-7-3.07-7.76a18.06,18.06,0,0,0-2.92-.36c-2.36-.07-4.72-.05-7.08-.07a2.87,2.87,0,0,0-.39,0C872.18,644.4,872.18,648,872.18,651.64Z"/>
    </g>
    <g>
      <path class="cls-2" d="M255.64,160.35a55.77,55.77,0,1,0-55.77,55.77A55.77,55.77,0,0,0,255.64,160.35Z"/>
      <path class="cls-3" d="M208.12,190.13h-6.27v-7.31h-4v7.31h-6.28c0-2.44,0-4.88,0-7.37H178.31v-6.21h.55c.82,0,1.65,0,2.47,0a2,2,0,0,0,2.18-2.22c0-.64.05-1.27.05-1.9q0-11.42,0-22.83c0-1,0-2.06-.06-3.09a2.06,2.06,0,0,0-2.17-2.25c-.84,0-1.68,0-2.52-.06l-.5,0V137.9H191.6v-7.33h6.28v7.31h4c0-2.47,0-4.89,0-7.31h6.27c0,.19,0,.38,0,.57,0,2.14,0,4.28,0,6.42,0,.49.09.73.62.75a7.18,7.18,0,0,1,1.22.18,13.21,13.21,0,0,1,6,2.63,9.8,9.8,0,0,1,2.26,13,11.88,11.88,0,0,1-6.14,4.73l-.53.22a1.2,1.2,0,0,0,.5.26,15.92,15.92,0,0,1,4.71,2,9.69,9.69,0,0,1,4.29,6.15c1.06,4.87-.56,8.83-4.45,11.87a16,16,0,0,1-8,3c-.45.06-.56.21-.56.65C208.15,185.34,208.13,187.74,208.12,190.13Zm-13.47-27.42c0,.15,0,.24,0,.33,0,3.16,0,6.31,0,9.47a19.93,19.93,0,0,0,.12,2,.9.9,0,0,0,.91.92c1.51.07,3,.14,4.55.11a36.87,36.87,0,0,0,3.93-.26,6.27,6.27,0,0,0,3.65-1.68,6.46,6.46,0,0,0,2-4.65,5.46,5.46,0,0,0-3.55-5.52,12.25,12.25,0,0,0-4.28-.75c-2.31-.06-4.63,0-6.94-.05A3.51,3.51,0,0,0,194.65,162.71Zm0-6.64.4,0c1.54,0,3.07,0,4.61,0a19.62,19.62,0,0,0,5.18-.53,5.45,5.45,0,0,0,3.28-2.21c1.74-2.67.85-7-3.07-7.76a18.06,18.06,0,0,0-2.92-.36c-2.36-.06-4.72-.05-7.08-.06l-.4,0Z"/>
    </g>
    <g>
      <path class="cls-2" d="M505,474.35a55.77,55.77,0,1,0-55.77,55.77A55.77,55.77,0,0,0,505,474.35Z"/>
      <path class="cls-3" d="M457.46,504.13h-6.28v-7.31h-4c0,2.46,0,4.89,0,7.31h-6.27v-7.37H427.64v-6.21h.55c.83,0,1.65,0,2.47-.05a2,2,0,0,0,2.18-2.22c0-.64.06-1.27.06-1.9q0-11.42,0-22.83,0-1.55-.06-3.09a2.06,2.06,0,0,0-2.17-2.25c-.84-.05-1.68,0-2.52-.06l-.5,0c0-2.09,0-4.12,0-6.22h13.26c0-2.49,0-4.91,0-7.33h6.28q0,3.65,0,7.31h4v-7.31h6.28c0,.19,0,.38,0,.57,0,2.14,0,4.28,0,6.42,0,.49.1.73.62.75a7.18,7.18,0,0,1,1.22.18,13.24,13.24,0,0,1,6,2.63,9.62,9.62,0,0,1,3.75,7.22,9.5,9.5,0,0,1-1.5,5.74,11.9,11.9,0,0,1-6.13,4.73L461,473a1.2,1.2,0,0,0,.5.26,15.92,15.92,0,0,1,4.71,1.95,9.7,9.7,0,0,1,4.3,6.15c1.05,4.87-.57,8.83-4.45,11.87a16.06,16.06,0,0,1-8,3c-.45.06-.56.21-.56.65C457.48,499.34,457.46,501.74,457.46,504.13ZM444,476.71c0,.15,0,.24,0,.33,0,3.16,0,6.31,0,9.47a19.93,19.93,0,0,0,.12,2,.91.91,0,0,0,.91.92c1.52.07,3,.14,4.56.11a37,37,0,0,0,3.93-.26,6.33,6.33,0,0,0,3.64-1.68,6.51,6.51,0,0,0,2-4.65,5.49,5.49,0,0,0-3.55-5.52,12.35,12.35,0,0,0-4.29-.75c-2.31-.06-4.62,0-6.94-.05A3.37,3.37,0,0,0,444,476.71Zm0-6.64.41,0H449a19.69,19.69,0,0,0,5.19-.53,5.46,5.46,0,0,0,3.27-2.21c1.74-2.67.85-7-3.07-7.76a17.92,17.92,0,0,0-2.92-.36c-2.36-.06-4.72-.05-7.08-.06l-.39,0C444,462.82,444,466.42,444,470.07Z"/>
    </g>
    <g>
      <path class="cls-2" d="M507,244.35a55.77,55.77,0,1,0-55.77,55.77A55.77,55.77,0,0,0,507,244.35Z"/>
      <path class="cls-3" d="M459.46,274.13h-6.28v-7.31h-4c0,2.46,0,4.89,0,7.31h-6.27v-7.37H429.64v-6.21h.55c.83,0,1.65,0,2.47-.05a2,2,0,0,0,2.18-2.22c0-.64.06-1.27.06-1.9q0-11.42,0-22.83c0-1,0-2.06-.06-3.09a2.06,2.06,0,0,0-2.17-2.25c-.84,0-1.68,0-2.52-.06l-.5,0V221.9h13.27c0-2.49,0-4.91,0-7.33h6.27v7.31h4v-7.31h6.28c0,.19,0,.38,0,.57,0,2.14,0,4.28,0,6.42,0,.49.1.73.62.75a7.18,7.18,0,0,1,1.22.18,13.24,13.24,0,0,1,6,2.63,9.62,9.62,0,0,1,3.75,7.22,9.5,9.5,0,0,1-1.5,5.74,11.9,11.9,0,0,1-6.13,4.73L463,243a1.2,1.2,0,0,0,.5.26,15.92,15.92,0,0,1,4.71,2,9.7,9.7,0,0,1,4.3,6.15c1.05,4.87-.57,8.83-4.45,11.87a16.06,16.06,0,0,1-8,3c-.45.06-.56.21-.56.65C459.48,269.34,459.46,271.74,459.46,274.13ZM446,246.71c0,.15,0,.24,0,.33,0,3.16,0,6.31,0,9.47a19.93,19.93,0,0,0,.12,2,.91.91,0,0,0,.91.92c1.52.07,3,.14,4.55.11a36.69,36.69,0,0,0,3.93-.26,6.33,6.33,0,0,0,3.65-1.68,6.46,6.46,0,0,0,2-4.65,5.46,5.46,0,0,0-3.54-5.52,12.35,12.35,0,0,0-4.29-.75c-2.31-.06-4.62,0-6.94-.05A3.51,3.51,0,0,0,446,246.71Zm0-6.64.4,0c1.54,0,3.08,0,4.61,0a19.69,19.69,0,0,0,5.19-.53,5.46,5.46,0,0,0,3.27-2.21c1.74-2.67.85-7-3.07-7.76a17.92,17.92,0,0,0-2.92-.36c-2.36-.06-4.72-.05-7.08-.06l-.39,0C446,232.82,446,236.42,446,240.07Z"/>
    </g>
    <g>
      <path class="cls-2" d="M367,397.68a55.77,55.77,0,1,0-55.77,55.77A55.77,55.77,0,0,0,367,397.68Z"/>
      <path class="cls-3" d="M319.46,427.46h-6.28v-7.31h-4c0,2.47,0,4.89,0,7.31h-6.27v-7.37H289.64v-6.22h.55c.83,0,1.65,0,2.47,0a2.05,2.05,0,0,0,2.18-2.23c0-.63.06-1.27.06-1.9q0-11.42,0-22.83c0-1,0-2.06-.06-3.09a2.07,2.07,0,0,0-2.17-2.25c-.84,0-1.68,0-2.52,0l-.5,0v-6.22h13.27c0-2.48,0-4.91,0-7.33h6.27v7.31h4V367.9h6.28c0,.19,0,.38,0,.57,0,2.14,0,4.28,0,6.42,0,.49.1.73.62.75a8.35,8.35,0,0,1,1.22.18,13.35,13.35,0,0,1,6,2.63,9.66,9.66,0,0,1,3.75,7.23,9.54,9.54,0,0,1-1.5,5.74,11.88,11.88,0,0,1-6.13,4.72l-.54.22a1.1,1.1,0,0,0,.5.26,16.21,16.21,0,0,1,4.71,2,9.7,9.7,0,0,1,4.3,6.15c1.05,4.87-.57,8.82-4.45,11.86a16.16,16.16,0,0,1-8,3.05c-.45.06-.56.21-.56.64C319.48,422.68,319.46,425.07,319.46,427.46ZM306,400c0,.15,0,.24,0,.34,0,3.15,0,6.31,0,9.46a19.93,19.93,0,0,0,.12,2,.9.9,0,0,0,.91.92c1.52.07,3,.14,4.55.12a36.7,36.7,0,0,0,3.93-.27,6.27,6.27,0,0,0,3.65-1.68,6.43,6.43,0,0,0,2-4.65,5.47,5.47,0,0,0-3.54-5.52,12.34,12.34,0,0,0-4.29-.74c-2.31-.07-4.62,0-6.94-.05Zm0-6.64c.16,0,.28,0,.4,0,1.54,0,3.08,0,4.61,0a19.69,19.69,0,0,0,5.19-.53,5.42,5.42,0,0,0,3.27-2.21c1.74-2.67.85-7-3.07-7.76a19.08,19.08,0,0,0-2.92-.35c-2.36-.07-4.72-.06-7.08-.07l-.39,0C306,386.16,306,389.75,306,393.4Z"/>
    </g>
    <g>
      <circle class="cls-1" cx="1089.65" cy="453.26" r="55.77"/>
      <circle class="cls-4" cx="1089.65" cy="453.26" r="55.77"/>
      <path class="cls-3" d="M1096.43,483h-6.28v-7.31h-4V483h-6.28v-7.37h-13.27v-6.22h.55c.83,0,1.65,0,2.47,0a2,2,0,0,0,2.18-2.23c0-.63.06-1.27.06-1.9q0-11.41,0-22.83,0-1.54-.06-3.09a2.07,2.07,0,0,0-2.17-2.25c-.83-.05-1.68,0-2.52-.05l-.5,0c0-2.09,0-4.12,0-6.22h13.26c0-2.49,0-4.91,0-7.33h6.28q0,3.64,0,7.31h4v-7.31h6.28c0,.19,0,.38,0,.57,0,2.14,0,4.28,0,6.42,0,.49.1.73.62.75a7.18,7.18,0,0,1,1.22.18,13.35,13.35,0,0,1,6,2.63,9.66,9.66,0,0,1,3.75,7.23,9.49,9.49,0,0,1-1.5,5.73,11.85,11.85,0,0,1-6.13,4.73l-.54.22a1.1,1.1,0,0,0,.5.26,15.94,15.94,0,0,1,4.71,2,9.68,9.68,0,0,1,4.3,6.15c1.06,4.87-.57,8.82-4.45,11.86a16.06,16.06,0,0,1-8,3c-.45.07-.56.22-.56.65C1096.45,478.25,1096.43,480.65,1096.43,483ZM1083,455.62c0,.15,0,.24,0,.33,0,3.16,0,6.31,0,9.47q0,1,.12,2a.9.9,0,0,0,.91.92c1.52.07,3,.14,4.56.12a37.06,37.06,0,0,0,3.93-.27,6.27,6.27,0,0,0,3.64-1.68,6.44,6.44,0,0,0,2-4.65,5.47,5.47,0,0,0-3.54-5.52,12.35,12.35,0,0,0-4.29-.75c-2.31-.06-4.62,0-6.94,0A2,2,0,0,0,1083,455.62Zm0-6.64.41,0H1088a19.66,19.66,0,0,0,5.18-.53,5.46,5.46,0,0,0,3.27-2.21c1.74-2.67.85-7-3.07-7.76a16.87,16.87,0,0,0-2.92-.35c-2.36-.07-4.72-.06-7.08-.07l-.39,0C1083,441.74,1083,445.33,1083,449Z"/>
    </g>
    <g>
      <g>
        <path class="cls-1" d="M1204.55,244.93a55.77,55.77,0,1,0-55.77,55.77A55.77,55.77,0,0,0,1204.55,244.93Z"/>
        <path class="cls-4" d="M1204.55,244.93a55.77,55.77,0,1,0-55.77,55.77A55.77,55.77,0,0,0,1204.55,244.93Z"/>
        <path class="cls-3" d="M1155.56,274.71h-6.28c0-2.44,0-4.87,0-7.31h-4v7.3H1139c0-2.43,0-4.87,0-7.36h-13.28c0-2.09,0-4.13,0-6.21h.55c.82,0,1.65,0,2.47-.05a2,2,0,0,0,2.18-2.22c0-.64,0-1.27,0-1.9q0-11.41,0-22.83c0-1,0-2.06,0-3.09a2.07,2.07,0,0,0-2.17-2.25c-.84-.05-1.68,0-2.52-.06l-.5,0v-6.23H1139v-7.34h6.28c0,2.43,0,4.86,0,7.31h4v-7.31h6.28c0,.19,0,.38,0,.57,0,2.14,0,4.28,0,6.42,0,.49.1.73.63.74a10.26,10.26,0,0,1,1.22.18,13.38,13.38,0,0,1,6,2.64,9.63,9.63,0,0,1,3.76,7.22,9.51,9.51,0,0,1-1.51,5.74,11.86,11.86,0,0,1-6.13,4.73,4.93,4.93,0,0,0-.53.22,1.3,1.3,0,0,0,.49.26,15.7,15.7,0,0,1,4.71,1.95,9.67,9.67,0,0,1,4.3,6.15c1.06,4.87-.57,8.83-4.45,11.87a16.21,16.21,0,0,1-8,3c-.46.06-.57.21-.56.65C1155.58,269.92,1155.57,272.31,1155.56,274.71Zm-13.47-27.43c0,.15,0,.25,0,.34,0,3.16,0,6.31,0,9.47a19.57,19.57,0,0,0,.12,2,.91.91,0,0,0,.9.93c1.52.07,3,.13,4.56.11a36.87,36.87,0,0,0,3.93-.26,6.36,6.36,0,0,0,3.65-1.68,6.5,6.5,0,0,0,2-4.66,5.46,5.46,0,0,0-3.55-5.51,12.1,12.1,0,0,0-4.28-.75c-2.31-.06-4.63,0-6.94-.05Zm0-6.63.4,0h4.61a20.49,20.49,0,0,0,5.18-.53,5.43,5.43,0,0,0,3.27-2.21c1.75-2.68.85-7-3.07-7.76a17.94,17.94,0,0,0-2.91-.36c-2.36-.06-4.73,0-7.08-.07-.13,0-.25,0-.4,0Z"/>
      </g>
      <g>
        <path class="cls-1" d="M1244.58,183.63a55.77,55.77,0,1,0-55.77,55.78A55.77,55.77,0,0,0,1244.58,183.63Z"/>
        <path class="cls-4" d="M1244.58,183.63a55.77,55.77,0,1,0-55.77,55.78A55.77,55.77,0,0,0,1244.58,183.63Z"/>
        <path class="cls-3" d="M1195.6,213.42h-6.28v-7.3h-4c0,2.46,0,4.88,0,7.3H1179c0-2.43,0-4.87,0-7.36h-13.27v-6.21h.55c.82,0,1.65,0,2.47-.05a2,2,0,0,0,2.18-2.22c0-.64,0-1.27,0-1.91q0-11.42,0-22.82c0-1,0-2.07-.06-3.1a2.06,2.06,0,0,0-2.17-2.24c-.84-.06-1.68,0-2.52-.06l-.5,0v-6.23h13.27v-7.34h6.28v7.31h4c0-2.47,0-4.89,0-7.31h6.28c0,.19,0,.38,0,.57,0,2.14,0,4.28,0,6.42,0,.49.1.73.62.74a10,10,0,0,1,1.22.18,13.22,13.22,0,0,1,6,2.64,9.8,9.8,0,0,1,2.26,13,11.94,11.94,0,0,1-6.14,4.73c-.18.06-.35.14-.53.22a1.34,1.34,0,0,0,.5.26,15.92,15.92,0,0,1,4.71,1.95,9.69,9.69,0,0,1,4.29,6.15c1.06,4.87-.56,8.83-4.44,11.86a16.2,16.2,0,0,1-8,3.05c-.45.06-.56.21-.56.65C1195.62,208.63,1195.6,211,1195.6,213.42ZM1182.12,186c0,.15,0,.24,0,.34,0,3.15,0,6.31,0,9.46a19.77,19.77,0,0,0,.12,2,.91.91,0,0,0,.91.93c1.51.07,3,.13,4.55.11,1.31,0,2.63-.11,3.93-.26a6.33,6.33,0,0,0,3.65-1.68,6.47,6.47,0,0,0,2-4.66,5.48,5.48,0,0,0-3.55-5.52,12.24,12.24,0,0,0-4.28-.74c-2.31-.06-4.63,0-6.94,0Zm0-6.64a3.18,3.18,0,0,0,.4,0c1.54,0,3.08,0,4.61,0a20.45,20.45,0,0,0,5.18-.53,5.45,5.45,0,0,0,3.28-2.21c1.74-2.68.85-7-3.07-7.76a18.06,18.06,0,0,0-2.92-.36c-2.36-.06-4.72-.05-7.08-.07a3.18,3.18,0,0,0-.4,0Z"/>
      </g>
    </g>
    <g>
      <path class="cls-1" d="M862.48,81.83a55.77,55.77,0,1,0-55.77,55.77A55.77,55.77,0,0,0,862.48,81.83Z"/>
      <path class="cls-4" d="M862.48,81.83a55.77,55.77,0,1,0-55.77,55.77A55.77,55.77,0,0,0,862.48,81.83Z"/>
      <path class="cls-3" d="M813.49,111.61h-6.28V104.3h-4v7.31h-6.28v-7.37H783.67c0-2.09,0-4.13,0-6.21h.54c.83,0,1.65,0,2.48,0a2,2,0,0,0,2.17-2.22c0-.64.06-1.27.06-1.9q0-11.41,0-22.83c0-1,0-2.06-.05-3.09a2.08,2.08,0,0,0-2.18-2.25c-.83-.05-1.67,0-2.51-.06l-.5,0V59.38H797V52.05h6.28q0,3.64,0,7.31h4V52.05h6.28c0,.19,0,.38,0,.57,0,2.14,0,4.28,0,6.42,0,.49.1.73.63.75a7.49,7.49,0,0,1,1.22.18,13.25,13.25,0,0,1,6,2.63,9.68,9.68,0,0,1,3.76,7.22,9.58,9.58,0,0,1-1.51,5.74,11.86,11.86,0,0,1-6.13,4.73l-.53.22a1.12,1.12,0,0,0,.49.26,15.7,15.7,0,0,1,4.71,2,9.7,9.7,0,0,1,4.3,6.15c1.06,4.87-.57,8.83-4.45,11.87a16,16,0,0,1-8,3c-.46.06-.57.22-.56.65C813.51,106.82,813.5,109.22,813.49,111.61ZM800,84.19c0,.14,0,.24,0,.33,0,3.16,0,6.31,0,9.47q0,1,.12,2A.92.92,0,0,0,801,97c1.52.07,3,.14,4.56.11a37,37,0,0,0,3.93-.26,6.24,6.24,0,0,0,3.64-1.68,6.47,6.47,0,0,0,2-4.65A5.47,5.47,0,0,0,811.65,85a12.33,12.33,0,0,0-4.28-.75c-2.32-.06-4.63,0-6.94,0A3.32,3.32,0,0,0,800,84.19Zm0-6.64.4,0c1.53,0,3.07,0,4.61,0a19.66,19.66,0,0,0,5.18-.53,5.43,5.43,0,0,0,3.27-2.21c1.75-2.67.85-7-3.07-7.76a17.92,17.92,0,0,0-2.92-.36c-2.36-.06-4.72,0-7.08-.06a2.88,2.88,0,0,0-.39,0Z"/>
    </g>
    <g>
      <circle class="cls-1" cx="1041.6" cy="406.78" r="55.77" transform="translate(-51.71 172.1) rotate(-9.22)"/>
      <circle class="cls-4" cx="1041.6" cy="406.78" r="55.77" transform="translate(-51.71 172.1) rotate(-9.22)"/>
      <path class="cls-3" d="M1048.38,436.56h-6.27v-7.31h-4c0,2.47,0,4.89,0,7.31h-6.28c0-2.44,0-4.87,0-7.37h-13.27V423h.55c.82,0,1.65,0,2.47,0a2.05,2.05,0,0,0,2.18-2.23c0-.63.05-1.27.05-1.9q0-11.42,0-22.83c0-1,0-2.06-.05-3.09a2.07,2.07,0,0,0-2.17-2.25c-.84-.05-1.68,0-2.52-.05l-.5,0v-6.22h13.27V377h6.28v7.31h4c0-2.46,0-4.88,0-7.31h6.27c0,.18,0,.37,0,.57,0,2.14,0,4.28,0,6.42,0,.48.1.72.62.74a8.35,8.35,0,0,1,1.22.18,13.31,13.31,0,0,1,6,2.63,9.81,9.81,0,0,1,2.26,13,11.87,11.87,0,0,1-6.14,4.72l-.53.22a1.1,1.1,0,0,0,.5.26,16.21,16.21,0,0,1,4.71,2,9.69,9.69,0,0,1,4.29,6.15c1.06,4.87-.56,8.82-4.44,11.86a16.2,16.2,0,0,1-8,3.05c-.45.06-.56.21-.56.64C1048.41,431.78,1048.39,434.17,1048.38,436.56Zm-13.47-27.42c0,.15,0,.24,0,.34,0,3.15,0,6.31,0,9.46a19.93,19.93,0,0,0,.12,2,.9.9,0,0,0,.91.92c1.51.07,3,.14,4.55.12a36.88,36.88,0,0,0,3.93-.27,6.31,6.31,0,0,0,3.65-1.67,6.47,6.47,0,0,0,2-4.66,5.48,5.48,0,0,0-3.55-5.52,12.24,12.24,0,0,0-4.28-.74c-2.31-.07-4.63,0-6.94-.05Zm0-6.64a3.18,3.18,0,0,0,.4,0c1.54,0,3.07,0,4.61,0a19.74,19.74,0,0,0,5.19-.53,5.4,5.4,0,0,0,3.27-2.2c1.74-2.68.85-7-3.07-7.76a18.06,18.06,0,0,0-2.92-.36c-2.36-.07-4.72-.05-7.08-.07a3.18,3.18,0,0,0-.4,0Z"/>
    </g>
    <g>
      <circle class="cls-1" cx="879.85" cy="248.57" r="55.77" transform="translate(313.5 966.33) rotate(-67.5)"/>
      <circle class="cls-4" cx="879.85" cy="248.57" r="55.77" transform="translate(313.5 966.33) rotate(-67.5)"/>
      <path class="cls-3" d="M886.64,278.36h-6.28v-7.3h-4c0,2.47,0,4.89,0,7.31h-6.27V271H856.82v-6.22h.55c.82,0,1.65,0,2.47,0a2,2,0,0,0,2.18-2.23c0-.63.05-1.26.06-1.9q0-11.41,0-22.83c0-1,0-2.06-.06-3.09a2.07,2.07,0,0,0-2.17-2.25c-.84,0-1.68,0-2.52,0l-.5,0v-6.23h13.27c0-2.49,0-4.92,0-7.34h6.27v7.31h4c0-2.47,0-4.89,0-7.32h6.28c0,.19,0,.38,0,.57,0,2.14,0,4.28,0,6.42,0,.49.1.72.62.74a8.35,8.35,0,0,1,1.22.18,13.18,13.18,0,0,1,6,2.64,9.63,9.63,0,0,1,3.76,7.22,9.52,9.52,0,0,1-1.5,5.74,11.88,11.88,0,0,1-6.13,4.72c-.19.07-.36.15-.54.23a1.17,1.17,0,0,0,.5.25,16.21,16.21,0,0,1,4.71,2,9.74,9.74,0,0,1,4.3,6.15c1.05,4.87-.57,8.83-4.45,11.86a16.16,16.16,0,0,1-8,3c-.45.06-.56.21-.56.64C886.66,273.57,886.64,276,886.64,278.36Zm-13.48-27.43c0,.15,0,.24,0,.34,0,3.15,0,6.31,0,9.46a19.93,19.93,0,0,0,.12,2,.92.92,0,0,0,.91.93c1.52.06,3,.13,4.55.11a36.7,36.7,0,0,0,3.93-.27,6.25,6.25,0,0,0,3.65-1.67,6.47,6.47,0,0,0,2-4.66,5.48,5.48,0,0,0-3.54-5.52,12.34,12.34,0,0,0-4.29-.74c-2.31-.06-4.62,0-6.94,0Zm0-6.64a3.37,3.37,0,0,0,.4,0h4.61a20.13,20.13,0,0,0,5.19-.54,5.4,5.4,0,0,0,3.27-2.2c1.74-2.68.85-7-3.07-7.76a18.06,18.06,0,0,0-2.92-.36c-2.36-.07-4.72-.05-7.08-.07a2.87,2.87,0,0,0-.39,0C873.18,237.05,873.18,240.64,873.18,244.29Z"/>
    </g>
    <g>
      <path class="cls-1" d="M466.15,535.38a55.77,55.77,0,1,0-55.77,55.77A55.77,55.77,0,0,0,466.15,535.38Z"/>
      <path class="cls-4" d="M466.15,535.38a55.77,55.77,0,1,0-55.77,55.77A55.77,55.77,0,0,0,466.15,535.38Z"/>
      <path class="cls-3" d="M417.17,565.16h-6.28v-7.3h-4c0,2.47,0,4.89,0,7.31h-6.27v-7.36H387.35v-6.21h.55c.82,0,1.65,0,2.47-.05a2,2,0,0,0,2.18-2.23c0-.63.05-1.26.06-1.9q0-11.42,0-22.83c0-1,0-2.06-.06-3.09a2.06,2.06,0,0,0-2.17-2.24c-.84-.05-1.68,0-2.52-.06l-.5,0v-6.23h13.27c0-2.49,0-4.91,0-7.34h6.27v7.32h4V505.6h6.28c0,.19,0,.38,0,.57,0,2.14,0,4.28,0,6.42,0,.49.1.72.62.74a10,10,0,0,1,1.22.18,13.18,13.18,0,0,1,6,2.64,9.63,9.63,0,0,1,3.76,7.22,9.52,9.52,0,0,1-1.5,5.74,12,12,0,0,1-6.13,4.73,5.09,5.09,0,0,0-.54.22,1.17,1.17,0,0,0,.5.25,16.21,16.21,0,0,1,4.71,2,9.7,9.7,0,0,1,4.3,6.15c1.05,4.87-.57,8.83-4.45,11.86a16.16,16.16,0,0,1-8,3.05c-.45.06-.56.21-.56.65C417.19,560.37,417.17,562.76,417.17,565.16Zm-13.48-27.43c0,.15,0,.24,0,.34,0,3.15,0,6.31,0,9.46a19.77,19.77,0,0,0,.12,2,.92.92,0,0,0,.91.93c1.51.06,3,.13,4.55.11a34.28,34.28,0,0,0,3.93-.27,6.25,6.25,0,0,0,3.65-1.67,6.47,6.47,0,0,0,2-4.66,5.48,5.48,0,0,0-3.54-5.52,12.34,12.34,0,0,0-4.29-.74c-2.31-.06-4.62,0-6.94,0Zm0-6.64a3.37,3.37,0,0,0,.4,0h4.61a20.57,20.57,0,0,0,5.19-.53,5.46,5.46,0,0,0,3.27-2.21c1.74-2.68.85-7-3.07-7.76a17.92,17.92,0,0,0-2.92-.36c-2.36-.07-4.72,0-7.08-.07a2.87,2.87,0,0,0-.39,0C403.71,523.85,403.71,527.44,403.71,531.09Z"/>
    </g>
    <path class="cls-1" d="M534.75,837v-6.92a17.91,17.91,0,0,1,17.92-17.91h7.58l15.5-310.67h-14v-178s9.5-76.5,59-95c-5.5-116,9.66-139.36,32.83-158.93s89.17-.07,125.17,20.93c16.5,8,52.5,40.5-5,172C762,267.53,749,273.74,749,273.74c25.3,32.23,26.27,77.74,34.77,98.74,15.14,16.32,32,33,32,33,15.79,4.3,45.71,9.31,37.67,36.67,29.33.59,44.36,12,36.59,22.66s-21,12.84-60.4-1.5c-9.36-2.33-21.53-13-21.53-13l-29.33-12.55-12.47,0,4.8,63.71-16-.5,8,311.17h12.25a17.91,17.91,0,0,1,17.92,17.91v7.42h-101l-1.35-26L666.25,605l-28.5,206.5v26Z"/>
    <g>
      <polygon class="cls-5" points="575.75 501.48 755.08 501.48 763.08 812.15 690.98 812.15 667.75 596.81 637.75 811.48 561.75 811.48 575.75 501.48"/>
      <path class="cls-5" d="M695.08,245.89l4,43.08,4,3.84,70.67-30.33s67.67-130.67,5-172c-12.92-.85-24.79-.73-34.61,1.32,6.82,2.73,12.8,5.15,18,7.29a40.36,40.36,0,0,1,23.63,48.26l-2.41,8.58,1.81.44a4.06,4.06,0,0,1,2.81,5.45l-16.08,40.3a1.88,1.88,0,0,1-2.53,1l-2-.92-10.2,25.44a39,39,0,0,1-47.87,22.7Z"/>
      <path class="cls-4" d="M778.75,90.48c-81-9.67-133.67,62.33-126.33,155.66l50.66,46.67,45.67-19.33"/>
      <line class="cls-4" x1="673.23" y1="265.32" x2="673.23" y2="318.14"/>
      <line class="cls-4" x1="729.11" y1="281.79" x2="729.11" y2="330.14"/>
      <path class="cls-6" d="M651.74,332.81l50,50.67,95.67,16.66c11.66,13.34,10.33,28.67-4.34,37.34,0,.66-102,0-102,0l-85.33-56"/>
      <line class="cls-4" x1="755.08" y1="359.48" x2="758.68" y2="393.09"/>
      <path class="cls-6" d="M767,454.15l4.11,47.33h-16l8,310.67h9.83a19.5,19.5,0,0,1,19.5,19.5v5.83H691.08V810.15L667.75,596.48l-30,214v27h-103V831a19.5,19.5,0,0,1,19.5-19.5h7.5l14-310h-14V330.81c0-32.58,20-88.66,59-102.33,0,0-13-113,25-153,24-25,93-8,133,15,14,8,55,41-5,172l-25,11c15,16,28,60,35,99,13,15,32,33,32,33"/>
      <line class="cls-6" x1="561.75" y1="811.48" x2="637.75" y2="811.48"/>
      <line class="cls-6" x1="690.97" y1="811.48" x2="766.97" y2="811.48"/>
      <line class="cls-6" x1="575.75" y1="501.48" x2="755.08" y2="501.48"/>
      <path class="cls-4" d="M800.71,404.48c28.71,4,61.37,6.67,52.71,37.67-9,1.33-14.67,0-14.67,0s-17.08-9.83-38-10.25"/>
      <polyline class="cls-6" points="808.08 453.15 827.77 464.81 842.08 453.15"/>
      <path class="cls-4" d="M830.75,464.81s21,8.67,43.33,8.67,16-20.33,16-20.33"/>
      <polygon class="cls-7" points="745.42 453.15 905.42 453.15 959.75 323.48 945.75 323.48 895.75 442.74 755.08 442.74 745.42 453.15"/>
      <line class="cls-4" x1="695.08" y1="245.48" x2="698.91" y2="288.97"/>
      <path class="cls-8" d="M784.74,152l-1.35,3.91-16,46.28-7.12,20.62a43.1,43.1,0,0,1-54.83,26.67l-34.63-12a42.91,42.91,0,0,1-19-13.11c.48-22,4.43-42.45,11.39-60.41,6.4-16.54,15.35-31,26.48-42.64A100.49,100.49,0,0,1,742.48,91.8l15.59,5.39A43.12,43.12,0,0,1,784.74,152Z"/>
      <path class="cls-9" d="M786.4,164.3,779.5,183l-1.83,5-3.54,9.61a6.72,6.72,0,0,1-6.74,4.61,5.19,5.19,0,0,1-1.38-.31L663.18,164c6.4-16.54,15.35-31,26.48-42.64L783,155.77l.38.16C786.31,157.25,787.65,160.9,786.4,164.3Z"/>
      <path class="cls-8" d="M712.6,154l38.59-4.13s3.47,18.54-12.34,23.73-24.31-7.68-25.21-10.88A46,46,0,0,1,712.6,154Z"/>
      <path class="cls-8" d="M779.5,183.2l-2,5.49c-4.58-.12-17.21-2.68-20.86-13.5-4-11.91,12.85-15,12.85-15Z"/>
      <path class="cls-10" d="M744,157.89a5.13,5.13,0,1,1-7.22-.58A5.13,5.13,0,0,1,744,157.89Z"/>
      <path class="cls-10" d="M769.68,176.84a4.51,4.51,0,1,1,4.21-4.81A4.52,4.52,0,0,1,769.68,176.84Z"/>
      <path class="cls-8" d="M737.25,234.4c-6,3.71-10.75-2.44-15.38-4.22s-15.33-6.27-20.94-5.26-5.07-3.24-3-4.76,14.22-8.64,24.41-3.53,13.13,5.8,16.08,6.5S743,230.83,737.25,234.4Z"/>
      <g>
        <path class="cls-11" d="M683.22,240.53a1.19,1.19,0,1,1,1.48.79A1.19,1.19,0,0,1,683.22,240.53Z"/>
        <path class="cls-11" d="M681,233a1.19,1.19,0,1,1,1.48.79A1.18,1.18,0,0,1,681,233Z"/>
        <path class="cls-11" d="M679.59,237.54a1.18,1.18,0,1,1,1.47.79A1.18,1.18,0,0,1,679.59,237.54Z"/>
        <path class="cls-11" d="M683.22,240.53a1.19,1.19,0,1,1,1.48.79A1.19,1.19,0,0,1,683.22,240.53Z"/>
        <path class="cls-11" d="M681,233a1.19,1.19,0,1,1,1.48.79A1.18,1.18,0,0,1,681,233Z"/>
        <path class="cls-11" d="M683.22,240.53a1.19,1.19,0,1,1,1.48.79A1.19,1.19,0,0,1,683.22,240.53Z"/>
        <path class="cls-11" d="M688.22,239a1.18,1.18,0,0,1,2.27-.68,1.18,1.18,0,0,1-2.27.68Z"/>
        <path class="cls-11" d="M681,233a1.19,1.19,0,1,1,1.48.79A1.18,1.18,0,0,1,681,233Z"/>
        <path class="cls-11" d="M686,231.51a1.18,1.18,0,0,1,.79-1.48,1.19,1.19,0,1,1,.69,2.27A1.18,1.18,0,0,1,686,231.51Z"/>
        <path class="cls-11" d="M684.59,236a1.18,1.18,0,1,1,1.47.79A1.18,1.18,0,0,1,684.59,236Z"/>
        <path class="cls-11" d="M683.22,240.53a1.19,1.19,0,1,1,1.48.79A1.19,1.19,0,0,1,683.22,240.53Z"/>
        <path class="cls-11" d="M688.22,239a1.18,1.18,0,0,1,2.27-.68,1.18,1.18,0,0,1-2.27.68Z"/>
        <path class="cls-11" d="M683.68,224a1.18,1.18,0,1,1,1.47.79A1.18,1.18,0,0,1,683.68,224Z"/>
        <path class="cls-11" d="M682.31,228.52a1.19,1.19,0,1,1,1.48.79A1.19,1.19,0,0,1,682.31,228.52Z"/>
        <path class="cls-11" d="M681,233a1.19,1.19,0,1,1,1.48.79A1.18,1.18,0,0,1,681,233Z"/>
        <path class="cls-11" d="M686,231.51a1.18,1.18,0,0,1,.79-1.48,1.19,1.19,0,1,1,.69,2.27A1.18,1.18,0,0,1,686,231.51Z"/>
        <path class="cls-11" d="M683.68,224a1.18,1.18,0,1,1,1.47.79A1.18,1.18,0,0,1,683.68,224Z"/>
        <path class="cls-11" d="M695.5,245a1.18,1.18,0,0,1,.79-1.48,1.19,1.19,0,1,1,.69,2.27A1.18,1.18,0,0,1,695.5,245Z"/>
        <path class="cls-11" d="M688.22,239a1.18,1.18,0,0,1,2.27-.68,1.18,1.18,0,0,1-2.27.68Z"/>
        <path class="cls-11" d="M693.23,237.5a1.18,1.18,0,1,1,1.47.79A1.18,1.18,0,0,1,693.23,237.5Z"/>
        <path class="cls-11" d="M691.86,242a1.19,1.19,0,1,1,1.48.79A1.19,1.19,0,0,1,691.86,242Z"/>
        <path class="cls-11" d="M695.5,245a1.18,1.18,0,0,1,.79-1.48,1.19,1.19,0,1,1,.69,2.27A1.18,1.18,0,0,1,695.5,245Z"/>
        <path class="cls-11" d="M686,231.51a1.18,1.18,0,0,1,.79-1.48,1.19,1.19,0,1,1,.69,2.27A1.18,1.18,0,0,1,686,231.51Z"/>
        <path class="cls-11" d="M691,230a1.19,1.19,0,1,1,1.48.79A1.19,1.19,0,0,1,691,230Z"/>
        <path class="cls-11" d="M689.59,234.5a1.18,1.18,0,0,1,.79-1.47,1.18,1.18,0,1,1,.68,2.26A1.18,1.18,0,0,1,689.59,234.5Z"/>
        <path class="cls-11" d="M688.22,239a1.18,1.18,0,0,1,2.27-.68,1.18,1.18,0,0,1-2.27.68Z"/>
        <path class="cls-11" d="M693.23,237.5a1.18,1.18,0,1,1,1.47.79A1.18,1.18,0,0,1,693.23,237.5Z"/>
        <path class="cls-11" d="M683.68,224a1.18,1.18,0,1,1,1.47.79A1.18,1.18,0,0,1,683.68,224Z"/>
        <path class="cls-11" d="M688.68,222.49a1.18,1.18,0,0,1,.79-1.47,1.18,1.18,0,1,1,.68,2.26A1.18,1.18,0,0,1,688.68,222.49Z"/>
        <path class="cls-11" d="M687.31,227a1.18,1.18,0,1,1,1.48.79A1.19,1.19,0,0,1,687.31,227Z"/>
        <path class="cls-11" d="M686,231.51a1.18,1.18,0,0,1,.79-1.48,1.19,1.19,0,1,1,.69,2.27A1.18,1.18,0,0,1,686,231.51Z"/>
        <path class="cls-11" d="M691,230a1.19,1.19,0,1,1,1.48.79A1.19,1.19,0,0,1,691,230Z"/>
        <path class="cls-11" d="M686.41,215a1.18,1.18,0,1,1,1.47.79A1.17,1.17,0,0,1,686.41,215Z"/>
        <path class="cls-11" d="M685,219.5a1.19,1.19,0,1,1,1.48.79A1.19,1.19,0,0,1,685,219.5Z"/>
        <path class="cls-11" d="M683.68,224a1.18,1.18,0,1,1,1.47.79A1.18,1.18,0,0,1,683.68,224Z"/>
        <path class="cls-11" d="M688.68,222.49a1.18,1.18,0,0,1,.79-1.47,1.18,1.18,0,1,1,.68,2.26A1.18,1.18,0,0,1,688.68,222.49Z"/>
        <path class="cls-11" d="M686.41,215a1.18,1.18,0,1,1,1.47.79A1.17,1.17,0,0,1,686.41,215Z"/>
        <path class="cls-11" d="M695.5,245a1.18,1.18,0,0,1,.79-1.48,1.19,1.19,0,1,1,.69,2.27A1.18,1.18,0,0,1,695.5,245Z"/>
        <path class="cls-11" d="M700.5,243.48a1.18,1.18,0,1,1,1.48.8A1.2,1.2,0,0,1,700.5,243.48Z"/>
        <path class="cls-11" d="M693.23,237.5a1.18,1.18,0,1,1,1.47.79A1.18,1.18,0,0,1,693.23,237.5Z"/>
        <path class="cls-11" d="M698.23,236a1.18,1.18,0,1,1,1.47.79A1.17,1.17,0,0,1,698.23,236Z"/>
        <path class="cls-11" d="M696.86,240.49a1.19,1.19,0,1,1,1.48.79A1.19,1.19,0,0,1,696.86,240.49Z"/>
        <path class="cls-11" d="M695.5,245a1.18,1.18,0,0,1,.79-1.48,1.19,1.19,0,1,1,.69,2.27A1.18,1.18,0,0,1,695.5,245Z"/>
        <path class="cls-11" d="M700.5,243.48a1.18,1.18,0,1,1,1.48.8A1.2,1.2,0,0,1,700.5,243.48Z"/>
        <path class="cls-11" d="M691,230a1.19,1.19,0,1,1,1.48.79A1.19,1.19,0,0,1,691,230Z"/>
        <path class="cls-11" d="M696,228.48a1.19,1.19,0,1,1,1.48.79A1.19,1.19,0,0,1,696,228.48Z"/>
        <path class="cls-11" d="M694.59,233a1.18,1.18,0,0,1,.79-1.48,1.19,1.19,0,1,1-.79,1.48Z"/>
        <path class="cls-11" d="M693.23,237.5a1.18,1.18,0,1,1,1.47.79A1.18,1.18,0,0,1,693.23,237.5Z"/>
        <path class="cls-11" d="M698.23,236a1.18,1.18,0,1,1,1.47.79A1.17,1.17,0,0,1,698.23,236Z"/>
        <path class="cls-11" d="M688.68,222.49a1.18,1.18,0,0,1,.79-1.47,1.18,1.18,0,1,1,.68,2.26A1.18,1.18,0,0,1,688.68,222.49Z"/>
        <path class="cls-11" d="M693.68,221a1.19,1.19,0,0,1,2.27-.69,1.19,1.19,0,0,1-2.27.69Z"/>
        <path class="cls-11" d="M692.32,225.49a1.18,1.18,0,1,1,1.47.79A1.18,1.18,0,0,1,692.32,225.49Z"/>
        <path class="cls-11" d="M691,230a1.19,1.19,0,1,1,1.48.79A1.19,1.19,0,0,1,691,230Z"/>
        <path class="cls-11" d="M696,228.48a1.19,1.19,0,1,1,1.48.79A1.19,1.19,0,0,1,696,228.48Z"/>
        <path class="cls-11" d="M686.41,215a1.18,1.18,0,1,1,1.47.79A1.17,1.17,0,0,1,686.41,215Z"/>
        <path class="cls-11" d="M691.41,213.48a1.18,1.18,0,1,1,1.47.78A1.18,1.18,0,0,1,691.41,213.48Z"/>
        <path class="cls-11" d="M690,218a1.18,1.18,0,1,1,1.48.8A1.18,1.18,0,0,1,690,218Z"/>
        <path class="cls-11" d="M688.68,222.49a1.18,1.18,0,0,1,.79-1.47,1.18,1.18,0,1,1,.68,2.26A1.18,1.18,0,0,1,688.68,222.49Z"/>
        <path class="cls-11" d="M693.68,221a1.19,1.19,0,0,1,2.27-.69,1.19,1.19,0,0,1-2.27.69Z"/>
        <path class="cls-11" d="M687.77,210.48a1.18,1.18,0,0,1,2.27-.68,1.18,1.18,0,0,1-2.27.68Z"/>
        <path class="cls-11" d="M686.41,215a1.18,1.18,0,1,1,1.47.79A1.17,1.17,0,0,1,686.41,215Z"/>
        <path class="cls-11" d="M691.41,213.48a1.18,1.18,0,1,1,1.47.78A1.18,1.18,0,0,1,691.41,213.48Z"/>
        <path class="cls-11" d="M700.5,243.48a1.18,1.18,0,1,1,1.48.8A1.2,1.2,0,0,1,700.5,243.48Z"/>
        <path class="cls-11" d="M705.5,242a1.19,1.19,0,1,1,1.48.79A1.19,1.19,0,0,1,705.5,242Z"/>
        <path class="cls-11" d="M698.23,236a1.18,1.18,0,1,1,1.47.79A1.17,1.17,0,0,1,698.23,236Z"/>
        <path class="cls-11" d="M703.23,234.47a1.18,1.18,0,1,1,1.48.79A1.18,1.18,0,0,1,703.23,234.47Z"/>
        <path class="cls-11" d="M701.86,239a1.18,1.18,0,0,1,2.27-.68,1.18,1.18,0,0,1-2.27.68Z"/>
        <path class="cls-11" d="M700.5,243.48a1.18,1.18,0,1,1,1.48.8A1.2,1.2,0,0,1,700.5,243.48Z"/>
        <path class="cls-11" d="M705.5,242a1.19,1.19,0,1,1,1.48.79A1.19,1.19,0,0,1,705.5,242Z"/>
        <path class="cls-11" d="M696,228.48a1.19,1.19,0,1,1,1.48.79A1.19,1.19,0,0,1,696,228.48Z"/>
        <path class="cls-11" d="M701,227a1.18,1.18,0,1,1,1.47.79A1.18,1.18,0,0,1,701,227Z"/>
        <path class="cls-11" d="M699.59,231.47a1.18,1.18,0,1,1,1.48.79A1.18,1.18,0,0,1,699.59,231.47Z"/>
        <path class="cls-11" d="M698.23,236a1.18,1.18,0,1,1,1.47.79A1.17,1.17,0,0,1,698.23,236Z"/>
        <path class="cls-11" d="M703.23,234.47a1.18,1.18,0,1,1,1.48.79A1.18,1.18,0,0,1,703.23,234.47Z"/>
        <path class="cls-11" d="M693.68,221a1.19,1.19,0,0,1,2.27-.69,1.19,1.19,0,0,1-2.27.69Z"/>
        <path class="cls-11" d="M698.68,219.46a1.18,1.18,0,1,1,1.48.79A1.18,1.18,0,0,1,698.68,219.46Z"/>
        <path class="cls-11" d="M696,228.48a1.19,1.19,0,1,1,1.48.79A1.19,1.19,0,0,1,696,228.48Z"/>
        <path class="cls-11" d="M701,227a1.18,1.18,0,1,1,1.47.79A1.18,1.18,0,0,1,701,227Z"/>
        <path class="cls-11" d="M691.41,213.48a1.18,1.18,0,1,1,1.47.78A1.18,1.18,0,0,1,691.41,213.48Z"/>
        <path class="cls-11" d="M696.41,212a1.18,1.18,0,1,1,1.47.79A1.18,1.18,0,0,1,696.41,212Z"/>
        <path class="cls-11" d="M695,216.47a1.19,1.19,0,1,1,1.48.79A1.19,1.19,0,0,1,695,216.47Z"/>
        <path class="cls-11" d="M693.68,221a1.19,1.19,0,0,1,2.27-.69,1.19,1.19,0,0,1-2.27.69Z"/>
        <path class="cls-11" d="M698.68,219.46a1.18,1.18,0,1,1,1.48.79A1.18,1.18,0,0,1,698.68,219.46Z"/>
        <path class="cls-11" d="M694.13,204.46a1.19,1.19,0,1,1,2.27-.69,1.19,1.19,0,1,1-2.27.69Z"/>
        <path class="cls-11" d="M692.77,209a1.19,1.19,0,1,1,1.48.79A1.18,1.18,0,0,1,692.77,209Z"/>
        <path class="cls-11" d="M691.41,213.48a1.18,1.18,0,1,1,1.47.78A1.18,1.18,0,0,1,691.41,213.48Z"/>
        <path class="cls-11" d="M696.41,212a1.18,1.18,0,1,1,1.47.79A1.18,1.18,0,0,1,696.41,212Z"/>
        <path class="cls-11" d="M694.13,204.46a1.19,1.19,0,1,1,2.27-.69,1.19,1.19,0,1,1-2.27.69Z"/>
        <path class="cls-11" d="M712.78,248a1.18,1.18,0,1,1,1.47.79A1.18,1.18,0,0,1,712.78,248Z"/>
        <path class="cls-11" d="M705.5,242a1.19,1.19,0,1,1,1.48.79A1.19,1.19,0,0,1,705.5,242Z"/>
        <path class="cls-11" d="M710.5,240.45a1.19,1.19,0,1,1,1.48.79A1.18,1.18,0,0,1,710.5,240.45Z"/>
        <path class="cls-11" d="M709.14,245a1.18,1.18,0,1,1,1.48.79A1.18,1.18,0,0,1,709.14,245Z"/>
        <path class="cls-11" d="M712.78,248a1.18,1.18,0,1,1,1.47.79A1.18,1.18,0,0,1,712.78,248Z"/>
        <path class="cls-11" d="M703.23,234.47a1.18,1.18,0,1,1,1.48.79A1.18,1.18,0,0,1,703.23,234.47Z"/>
        <path class="cls-11" d="M708.23,233a1.18,1.18,0,0,1,.79-1.48,1.19,1.19,0,1,1,.69,2.27A1.18,1.18,0,0,1,708.23,233Z"/>
        <path class="cls-11" d="M706.87,237.46a1.18,1.18,0,1,1,1.47.79A1.18,1.18,0,0,1,706.87,237.46Z"/>
        <path class="cls-11" d="M705.5,242a1.19,1.19,0,1,1,1.48.79A1.19,1.19,0,0,1,705.5,242Z"/>
        <path class="cls-11" d="M710.5,240.45a1.19,1.19,0,1,1,1.48.79A1.18,1.18,0,0,1,710.5,240.45Z"/>
        <path class="cls-11" d="M701,227a1.18,1.18,0,1,1,1.47.79A1.18,1.18,0,0,1,701,227Z"/>
        <path class="cls-11" d="M706,225.45a1.18,1.18,0,1,1,1.47.79A1.18,1.18,0,0,1,706,225.45Z"/>
        <path class="cls-11" d="M704.59,230a1.19,1.19,0,1,1,1.48.79A1.19,1.19,0,0,1,704.59,230Z"/>
        <path class="cls-11" d="M703.23,234.47a1.18,1.18,0,1,1,1.48.79A1.18,1.18,0,0,1,703.23,234.47Z"/>
        <path class="cls-11" d="M708.23,233a1.18,1.18,0,0,1,.79-1.48,1.19,1.19,0,1,1,.69,2.27A1.18,1.18,0,0,1,708.23,233Z"/>
        <path class="cls-11" d="M698.68,219.46a1.18,1.18,0,1,1,1.48.79A1.18,1.18,0,0,1,698.68,219.46Z"/>
        <path class="cls-11" d="M703.68,218a1.19,1.19,0,1,1,1.48.79A1.19,1.19,0,0,1,703.68,218Z"/>
        <path class="cls-11" d="M701,227a1.18,1.18,0,1,1,1.47.79A1.18,1.18,0,0,1,701,227Z"/>
        <path class="cls-11" d="M706,225.45a1.18,1.18,0,1,1,1.47.79A1.18,1.18,0,0,1,706,225.45Z"/>
        <path class="cls-11" d="M696.41,212a1.18,1.18,0,1,1,1.47.79A1.18,1.18,0,0,1,696.41,212Z"/>
        <path class="cls-11" d="M701.41,210.45a1.19,1.19,0,1,1,1.47.78A1.17,1.17,0,0,1,701.41,210.45Z"/>
        <path class="cls-11" d="M700.05,215a1.18,1.18,0,1,1,1.47.79A1.18,1.18,0,0,1,700.05,215Z"/>
        <path class="cls-11" d="M698.68,219.46a1.18,1.18,0,1,1,1.48.79A1.18,1.18,0,0,1,698.68,219.46Z"/>
        <path class="cls-11" d="M703.68,218a1.19,1.19,0,1,1,1.48.79A1.19,1.19,0,0,1,703.68,218Z"/>
        <path class="cls-11" d="M694.13,204.46a1.19,1.19,0,1,1,2.27-.69,1.19,1.19,0,1,1-2.27.69Z"/>
        <path class="cls-11" d="M699.14,202.94a1.18,1.18,0,1,1,1.47.79A1.18,1.18,0,0,1,699.14,202.94Z"/>
        <path class="cls-11" d="M697.77,207.45a1.19,1.19,0,1,1,1.48.79A1.19,1.19,0,0,1,697.77,207.45Z"/>
        <path class="cls-11" d="M696.41,212a1.18,1.18,0,1,1,1.47.79A1.18,1.18,0,0,1,696.41,212Z"/>
        <path class="cls-11" d="M701.41,210.45a1.19,1.19,0,1,1,1.47.78A1.17,1.17,0,0,1,701.41,210.45Z"/>
        <path class="cls-11" d="M694.13,204.46a1.19,1.19,0,1,1,2.27-.69,1.19,1.19,0,1,1-2.27.69Z"/>
        <path class="cls-11" d="M699.14,202.94a1.18,1.18,0,1,1,1.47.79A1.18,1.18,0,0,1,699.14,202.94Z"/>
        <path class="cls-11" d="M712.78,248a1.18,1.18,0,1,1,1.47.79A1.18,1.18,0,0,1,712.78,248Z"/>
        <path class="cls-11" d="M717.78,246.44a1.18,1.18,0,1,1,1.47.79A1.18,1.18,0,0,1,717.78,246.44Z"/>
        <path class="cls-11" d="M710.5,240.45a1.19,1.19,0,1,1,1.48.79A1.18,1.18,0,0,1,710.5,240.45Z"/>
        <path class="cls-11" d="M715.5,238.94a1.19,1.19,0,1,1,1.48.79A1.19,1.19,0,0,1,715.5,238.94Z"/>
        <path class="cls-11" d="M714.14,243.45a1.19,1.19,0,0,1,2.27-.69,1.19,1.19,0,0,1-2.27.69Z"/>
        <path class="cls-11" d="M712.78,248a1.18,1.18,0,1,1,1.47.79A1.18,1.18,0,0,1,712.78,248Z"/>
        <path class="cls-11" d="M717.78,246.44a1.18,1.18,0,1,1,1.47.79A1.18,1.18,0,0,1,717.78,246.44Z"/>
        <path class="cls-11" d="M708.23,233a1.18,1.18,0,0,1,.79-1.48,1.19,1.19,0,1,1,.69,2.27A1.18,1.18,0,0,1,708.23,233Z"/>
        <path class="cls-11" d="M713.23,231.43a1.18,1.18,0,1,1,1.48.79A1.18,1.18,0,0,1,713.23,231.43Z"/>
        <path class="cls-11" d="M711.87,235.94a1.18,1.18,0,1,1,1.47.79A1.18,1.18,0,0,1,711.87,235.94Z"/>
        <path class="cls-11" d="M710.5,240.45a1.19,1.19,0,1,1,1.48.79A1.18,1.18,0,0,1,710.5,240.45Z"/>
        <path class="cls-11" d="M715.5,238.94a1.19,1.19,0,1,1,1.48.79A1.19,1.19,0,0,1,715.5,238.94Z"/>
        <path class="cls-11" d="M706,225.45a1.18,1.18,0,1,1,1.47.79A1.18,1.18,0,0,1,706,225.45Z"/>
        <path class="cls-11" d="M709.59,228.44a1.18,1.18,0,1,1,1.48.79A1.18,1.18,0,0,1,709.59,228.44Z"/>
        <path class="cls-11" d="M708.23,233a1.18,1.18,0,0,1,.79-1.48,1.19,1.19,0,1,1,.69,2.27A1.18,1.18,0,0,1,708.23,233Z"/>
        <path class="cls-11" d="M713.23,231.43a1.18,1.18,0,1,1,1.48.79A1.18,1.18,0,0,1,713.23,231.43Z"/>
        <path class="cls-11" d="M703.68,218a1.19,1.19,0,1,1,1.48.79A1.19,1.19,0,0,1,703.68,218Z"/>
        <path class="cls-11" d="M708.68,216.43a1.18,1.18,0,1,1,2.27-.68,1.18,1.18,0,0,1-2.27.68Z"/>
        <path class="cls-11" d="M706,225.45a1.18,1.18,0,1,1,1.47.79A1.18,1.18,0,0,1,706,225.45Z"/>
        <path class="cls-11" d="M701.41,210.45a1.19,1.19,0,1,1,1.47.78A1.17,1.17,0,0,1,701.41,210.45Z"/>
        <path class="cls-11" d="M706.41,208.93a1.19,1.19,0,1,1,1.48.79A1.19,1.19,0,0,1,706.41,208.93Z"/>
        <path class="cls-11" d="M705.05,213.44a1.18,1.18,0,1,1,1.47.79A1.18,1.18,0,0,1,705.05,213.44Z"/>
        <path class="cls-11" d="M703.68,218a1.19,1.19,0,1,1,1.48.79A1.19,1.19,0,0,1,703.68,218Z"/>
        <path class="cls-11" d="M708.68,216.43a1.18,1.18,0,1,1,2.27-.68,1.18,1.18,0,0,1-2.27.68Z"/>
        <path class="cls-11" d="M699.14,202.94a1.18,1.18,0,1,1,1.47.79A1.18,1.18,0,0,1,699.14,202.94Z"/>
        <path class="cls-11" d="M704.14,201.43a1.18,1.18,0,1,1,1.47.79A1.18,1.18,0,0,1,704.14,201.43Z"/>
        <path class="cls-11" d="M702.77,205.94a1.19,1.19,0,1,1,1.48.79A1.19,1.19,0,0,1,702.77,205.94Z"/>
        <path class="cls-11" d="M701.41,210.45a1.19,1.19,0,1,1,1.47.78A1.17,1.17,0,0,1,701.41,210.45Z"/>
        <path class="cls-11" d="M706.41,208.93a1.19,1.19,0,1,1,1.48.79A1.19,1.19,0,0,1,706.41,208.93Z"/>
        <path class="cls-11" d="M699.14,202.94a1.18,1.18,0,1,1,1.47.79A1.18,1.18,0,0,1,699.14,202.94Z"/>
        <path class="cls-11" d="M704.14,201.43a1.18,1.18,0,1,1,1.47.79A1.18,1.18,0,0,1,704.14,201.43Z"/>
        <path class="cls-11" d="M717.78,246.44a1.18,1.18,0,1,1,1.47.79A1.18,1.18,0,0,1,717.78,246.44Z"/>
        <path class="cls-11" d="M722.78,244.92a1.18,1.18,0,1,1,1.48.79A1.18,1.18,0,0,1,722.78,244.92Z"/>
        <path class="cls-11" d="M721.41,249.43a1.19,1.19,0,1,1,1.48.79A1.19,1.19,0,0,1,721.41,249.43Z"/>
        <path class="cls-11" d="M715.5,238.94a1.19,1.19,0,1,1,1.48.79A1.19,1.19,0,0,1,715.5,238.94Z"/>
        <path class="cls-11" d="M720.51,237.42a1.18,1.18,0,1,1,1.47.79A1.17,1.17,0,0,1,720.51,237.42Z"/>
        <path class="cls-11" d="M719.14,241.93a1.19,1.19,0,1,1,1.48.79A1.19,1.19,0,0,1,719.14,241.93Z"/>
        <path class="cls-11" d="M717.78,246.44a1.18,1.18,0,1,1,1.47.79A1.18,1.18,0,0,1,717.78,246.44Z"/>
        <path class="cls-11" d="M722.78,244.92a1.18,1.18,0,1,1,1.48.79A1.18,1.18,0,0,1,722.78,244.92Z"/>
        <path class="cls-11" d="M713.23,231.43a1.18,1.18,0,1,1,1.48.79A1.18,1.18,0,0,1,713.23,231.43Z"/>
        <path class="cls-11" d="M718.23,229.92a1.19,1.19,0,1,1,1.48.79A1.19,1.19,0,0,1,718.23,229.92Z"/>
        <path class="cls-11" d="M716.87,234.43a1.18,1.18,0,0,1,.79-1.48,1.19,1.19,0,0,1,.69,2.27A1.18,1.18,0,0,1,716.87,234.43Z"/>
        <path class="cls-11" d="M715.5,238.94a1.19,1.19,0,1,1,1.48.79A1.19,1.19,0,0,1,715.5,238.94Z"/>
        <path class="cls-11" d="M720.51,237.42a1.18,1.18,0,1,1,1.47.79A1.17,1.17,0,0,1,720.51,237.42Z"/>
        <path class="cls-11" d="M713.23,231.43a1.18,1.18,0,1,1,1.48.79A1.18,1.18,0,0,1,713.23,231.43Z"/>
        <path class="cls-11" d="M718.23,229.92a1.19,1.19,0,1,1,1.48.79A1.19,1.19,0,0,1,718.23,229.92Z"/>
        <path class="cls-11" d="M708.68,216.43a1.18,1.18,0,1,1,2.27-.68,1.18,1.18,0,0,1-2.27.68Z"/>
        <path class="cls-11" d="M713.69,214.92a1.18,1.18,0,1,1,1.47.79A1.18,1.18,0,0,1,713.69,214.92Z"/>
        <path class="cls-11" d="M706.41,208.93a1.19,1.19,0,1,1,1.48.79A1.19,1.19,0,0,1,706.41,208.93Z"/>
        <path class="cls-11" d="M711.41,207.41a1.18,1.18,0,1,1,1.48.79A1.18,1.18,0,0,1,711.41,207.41Z"/>
        <path class="cls-11" d="M710.05,211.92a1.18,1.18,0,1,1,1.48.79A1.17,1.17,0,0,1,710.05,211.92Z"/>
        <path class="cls-11" d="M708.68,216.43a1.18,1.18,0,1,1,2.27-.68,1.18,1.18,0,0,1-2.27.68Z"/>
        <path class="cls-11" d="M713.69,214.92a1.18,1.18,0,1,1,1.47.79A1.18,1.18,0,0,1,713.69,214.92Z"/>
        <path class="cls-11" d="M704.14,201.43a1.18,1.18,0,1,1,1.47.79A1.18,1.18,0,0,1,704.14,201.43Z"/>
        <path class="cls-11" d="M709.14,199.91a1.18,1.18,0,1,1,1.48.79A1.18,1.18,0,0,1,709.14,199.91Z"/>
        <path class="cls-11" d="M707.77,204.42a1.19,1.19,0,1,1,1.48.79A1.19,1.19,0,0,1,707.77,204.42Z"/>
        <path class="cls-11" d="M706.41,208.93a1.19,1.19,0,1,1,1.48.79A1.19,1.19,0,0,1,706.41,208.93Z"/>
        <path class="cls-11" d="M711.41,207.41a1.18,1.18,0,1,1,1.48.79A1.18,1.18,0,0,1,711.41,207.41Z"/>
        <path class="cls-11" d="M704.14,201.43a1.18,1.18,0,1,1,1.47.79A1.18,1.18,0,0,1,704.14,201.43Z"/>
        <path class="cls-11" d="M709.14,199.91a1.18,1.18,0,1,1,1.48.79A1.18,1.18,0,0,1,709.14,199.91Z"/>
        <path class="cls-11" d="M722.78,244.92a1.18,1.18,0,1,1,1.48.79A1.18,1.18,0,0,1,722.78,244.92Z"/>
        <path class="cls-11" d="M727.78,243.41a1.19,1.19,0,1,1,1.48.79A1.18,1.18,0,0,1,727.78,243.41Z"/>
        <path class="cls-11" d="M726.42,247.92a1.18,1.18,0,1,1,1.47.79A1.18,1.18,0,0,1,726.42,247.92Z"/>
        <path class="cls-11" d="M720.51,237.42a1.18,1.18,0,1,1,1.47.79A1.17,1.17,0,0,1,720.51,237.42Z"/>
        <path class="cls-11" d="M725.51,235.91a1.18,1.18,0,1,1,1.47.79A1.18,1.18,0,0,1,725.51,235.91Z"/>
        <path class="cls-11" d="M724.14,240.41a1.18,1.18,0,1,1,1.48.79A1.18,1.18,0,0,1,724.14,240.41Z"/>
        <path class="cls-11" d="M722.78,244.92a1.18,1.18,0,1,1,1.48.79A1.18,1.18,0,0,1,722.78,244.92Z"/>
        <path class="cls-11" d="M727.78,243.41a1.19,1.19,0,1,1,1.48.79A1.18,1.18,0,0,1,727.78,243.41Z"/>
        <path class="cls-11" d="M718.23,229.92a1.19,1.19,0,1,1,1.48.79A1.19,1.19,0,0,1,718.23,229.92Z"/>
        <path class="cls-11" d="M721.87,232.91a1.18,1.18,0,1,1,1.48.79A1.18,1.18,0,0,1,721.87,232.91Z"/>
        <path class="cls-11" d="M720.51,237.42a1.18,1.18,0,1,1,1.47.79A1.17,1.17,0,0,1,720.51,237.42Z"/>
        <path class="cls-11" d="M725.51,235.91a1.18,1.18,0,1,1,1.47.79A1.18,1.18,0,0,1,725.51,235.91Z"/>
        <path class="cls-11" d="M718.23,229.92a1.19,1.19,0,1,1,1.48.79A1.19,1.19,0,0,1,718.23,229.92Z"/>
        <path class="cls-11" d="M713.69,214.92a1.18,1.18,0,1,1,1.47.79A1.18,1.18,0,0,1,713.69,214.92Z"/>
        <path class="cls-11" d="M718.69,213.4a1.18,1.18,0,1,1,1.47.79A1.18,1.18,0,0,1,718.69,213.4Z"/>
        <path class="cls-11" d="M711.41,207.41a1.18,1.18,0,1,1,1.48.79A1.18,1.18,0,0,1,711.41,207.41Z"/>
        <path class="cls-11" d="M716.41,205.9a1.19,1.19,0,1,1,1.48.79A1.19,1.19,0,0,1,716.41,205.9Z"/>
        <path class="cls-11" d="M715.05,210.41a1.19,1.19,0,0,1,2.27-.69,1.19,1.19,0,1,1-2.27.69Z"/>
        <path class="cls-11" d="M713.69,214.92a1.18,1.18,0,1,1,1.47.79A1.18,1.18,0,0,1,713.69,214.92Z"/>
        <path class="cls-11" d="M718.69,213.4a1.18,1.18,0,1,1,1.47.79A1.18,1.18,0,0,1,718.69,213.4Z"/>
        <path class="cls-11" d="M709.14,199.91a1.18,1.18,0,1,1,1.48.79A1.18,1.18,0,0,1,709.14,199.91Z"/>
        <path class="cls-11" d="M714.14,198.4a1.19,1.19,0,1,1,2.27-.69,1.19,1.19,0,1,1-2.27.69Z"/>
        <path class="cls-11" d="M712.78,202.9a1.18,1.18,0,1,1,1.47.79A1.18,1.18,0,0,1,712.78,202.9Z"/>
        <path class="cls-11" d="M711.41,207.41a1.18,1.18,0,1,1,1.48.79A1.18,1.18,0,0,1,711.41,207.41Z"/>
        <path class="cls-11" d="M716.41,205.9a1.19,1.19,0,1,1,1.48.79A1.19,1.19,0,0,1,716.41,205.9Z"/>
        <path class="cls-11" d="M709.14,199.91a1.18,1.18,0,1,1,1.48.79A1.18,1.18,0,0,1,709.14,199.91Z"/>
        <path class="cls-11" d="M714.14,198.4a1.19,1.19,0,1,1,2.27-.69,1.19,1.19,0,1,1-2.27.69Z"/>
        <path class="cls-11" d="M727.78,243.41a1.19,1.19,0,1,1,1.48.79A1.18,1.18,0,0,1,727.78,243.41Z"/>
        <path class="cls-11" d="M732.78,241.89a1.19,1.19,0,1,1,1.48.79A1.18,1.18,0,0,1,732.78,241.89Z"/>
        <path class="cls-11" d="M731.42,246.4a1.19,1.19,0,1,1,1.47.79A1.19,1.19,0,0,1,731.42,246.4Z"/>
        <path class="cls-11" d="M725.51,235.91a1.18,1.18,0,1,1,1.47.79A1.18,1.18,0,0,1,725.51,235.91Z"/>
        <path class="cls-11" d="M729.15,238.9a1.18,1.18,0,1,1,1.47.79A1.18,1.18,0,0,1,729.15,238.9Z"/>
        <path class="cls-11" d="M727.78,243.41a1.19,1.19,0,1,1,1.48.79A1.18,1.18,0,0,1,727.78,243.41Z"/>
        <path class="cls-11" d="M732.78,241.89a1.19,1.19,0,1,1,1.48.79A1.18,1.18,0,0,1,732.78,241.89Z"/>
        <path class="cls-11" d="M725.51,235.91a1.18,1.18,0,1,1,1.47.79A1.18,1.18,0,0,1,725.51,235.91Z"/>
        <path class="cls-11" d="M726,219.39a1.19,1.19,0,1,1,1.48.79A1.19,1.19,0,0,1,726,219.39Z"/>
        <path class="cls-11" d="M718.69,213.4a1.18,1.18,0,1,1,1.47.79A1.18,1.18,0,0,1,718.69,213.4Z"/>
        <path class="cls-11" d="M723.69,211.88a1.18,1.18,0,0,1,.79-1.47,1.18,1.18,0,1,1-.79,1.47Z"/>
        <path class="cls-11" d="M722.32,216.39a1.18,1.18,0,1,1,1.48.79A1.18,1.18,0,0,1,722.32,216.39Z"/>
        <path class="cls-11" d="M726,219.39a1.19,1.19,0,1,1,1.48.79A1.19,1.19,0,0,1,726,219.39Z"/>
        <path class="cls-11" d="M716.41,205.9a1.19,1.19,0,1,1,1.48.79A1.19,1.19,0,0,1,716.41,205.9Z"/>
        <path class="cls-11" d="M721.41,204.38a1.18,1.18,0,1,1,2.27-.68,1.18,1.18,0,0,1-2.27.68Z"/>
        <path class="cls-11" d="M720.05,208.89a1.19,1.19,0,1,1,1.48.79A1.19,1.19,0,0,1,720.05,208.89Z"/>
        <path class="cls-11" d="M718.69,213.4a1.18,1.18,0,1,1,1.47.79A1.18,1.18,0,0,1,718.69,213.4Z"/>
        <path class="cls-11" d="M723.69,211.88a1.18,1.18,0,0,1,.79-1.47,1.18,1.18,0,1,1-.79,1.47Z"/>
        <path class="cls-11" d="M714.14,198.4a1.19,1.19,0,1,1,2.27-.69,1.19,1.19,0,1,1-2.27.69Z"/>
        <path class="cls-11" d="M719.14,196.88a1.19,1.19,0,0,1,2.27-.69,1.19,1.19,0,1,1-2.27.69Z"/>
        <path class="cls-11" d="M717.78,201.39a1.18,1.18,0,1,1,1.47.79A1.18,1.18,0,0,1,717.78,201.39Z"/>
        <path class="cls-11" d="M716.41,205.9a1.19,1.19,0,1,1,1.48.79A1.19,1.19,0,0,1,716.41,205.9Z"/>
        <path class="cls-11" d="M721.41,204.38a1.18,1.18,0,1,1,2.27-.68,1.18,1.18,0,0,1-2.27.68Z"/>
        <path class="cls-11" d="M714.14,198.4a1.19,1.19,0,1,1,2.27-.69,1.19,1.19,0,1,1-2.27.69Z"/>
        <path class="cls-11" d="M719.14,196.88a1.19,1.19,0,0,1,2.27-.69,1.19,1.19,0,1,1-2.27.69Z"/>
        <path class="cls-11" d="M732.78,241.89a1.19,1.19,0,1,1,1.48.79A1.18,1.18,0,0,1,732.78,241.89Z"/>
        <path class="cls-11" d="M737.78,240.38a1.19,1.19,0,1,1,1.48.79A1.19,1.19,0,0,1,737.78,240.38Z"/>
        <path class="cls-11" d="M736.42,244.89a1.19,1.19,0,0,1,2.27-.69,1.19,1.19,0,0,1-2.27.69Z"/>
        <path class="cls-11" d="M734.15,237.38a1.18,1.18,0,1,1,1.47.79A1.18,1.18,0,0,1,734.15,237.38Z"/>
        <path class="cls-11" d="M732.78,241.89a1.19,1.19,0,1,1,1.48.79A1.18,1.18,0,0,1,732.78,241.89Z"/>
        <path class="cls-11" d="M737.78,240.38a1.19,1.19,0,1,1,1.48.79A1.19,1.19,0,0,1,737.78,240.38Z"/>
        <path class="cls-11" d="M726,219.39a1.19,1.19,0,1,1,1.48.79A1.19,1.19,0,0,1,726,219.39Z"/>
        <path class="cls-11" d="M731,217.87a1.19,1.19,0,1,1,1.48.79A1.19,1.19,0,0,1,731,217.87Z"/>
        <path class="cls-11" d="M723.69,211.88a1.18,1.18,0,0,1,.79-1.47,1.18,1.18,0,1,1-.79,1.47Z"/>
        <path class="cls-11" d="M728.69,210.37a1.18,1.18,0,0,1,.79-1.48,1.19,1.19,0,1,1-.79,1.48Z"/>
        <path class="cls-11" d="M727.33,214.88a1.18,1.18,0,1,1,1.47.79A1.18,1.18,0,0,1,727.33,214.88Z"/>
        <path class="cls-11" d="M726,219.39a1.19,1.19,0,1,1,1.48.79A1.19,1.19,0,0,1,726,219.39Z"/>
        <path class="cls-11" d="M731,217.87a1.19,1.19,0,1,1,1.48.79A1.19,1.19,0,0,1,731,217.87Z"/>
        <path class="cls-11" d="M721.41,204.38a1.18,1.18,0,1,1,2.27-.68,1.18,1.18,0,0,1-2.27.68Z"/>
        <path class="cls-11" d="M726.42,202.87a1.18,1.18,0,1,1,1.47.79A1.18,1.18,0,0,1,726.42,202.87Z"/>
        <path class="cls-11" d="M725.05,207.38a1.19,1.19,0,1,1,1.48.79A1.19,1.19,0,0,1,725.05,207.38Z"/>
        <path class="cls-11" d="M723.69,211.88a1.18,1.18,0,0,1,.79-1.47,1.18,1.18,0,1,1-.79,1.47Z"/>
        <path class="cls-11" d="M728.69,210.37a1.18,1.18,0,0,1,.79-1.48,1.19,1.19,0,1,1-.79,1.48Z"/>
        <path class="cls-11" d="M719.14,196.88a1.19,1.19,0,0,1,2.27-.69,1.19,1.19,0,1,1-2.27.69Z"/>
        <path class="cls-11" d="M722.78,199.87a1.18,1.18,0,1,1,1.47.79A1.18,1.18,0,0,1,722.78,199.87Z"/>
        <path class="cls-11" d="M721.41,204.38a1.18,1.18,0,1,1,2.27-.68,1.18,1.18,0,0,1-2.27.68Z"/>
        <path class="cls-11" d="M726.42,202.87a1.18,1.18,0,1,1,1.47.79A1.18,1.18,0,0,1,726.42,202.87Z"/>
        <path class="cls-11" d="M719.14,196.88a1.19,1.19,0,0,1,2.27-.69,1.19,1.19,0,1,1-2.27.69Z"/>
        <path class="cls-11" d="M737.78,240.38a1.19,1.19,0,1,1,1.48.79A1.19,1.19,0,0,1,737.78,240.38Z"/>
        <path class="cls-11" d="M742.78,238.86a1.19,1.19,0,1,1,1.48.79A1.19,1.19,0,0,1,742.78,238.86Z"/>
        <path class="cls-11" d="M741.42,243.37a1.19,1.19,0,1,1,1.48.79A1.18,1.18,0,0,1,741.42,243.37Z"/>
        <path class="cls-11" d="M740.51,231.36a1.19,1.19,0,1,1,1.48.79A1.18,1.18,0,0,1,740.51,231.36Z"/>
        <path class="cls-11" d="M739.15,235.87a1.18,1.18,0,1,1,1.47.79A1.18,1.18,0,0,1,739.15,235.87Z"/>
        <path class="cls-11" d="M737.78,240.38a1.19,1.19,0,1,1,1.48.79A1.19,1.19,0,0,1,737.78,240.38Z"/>
        <path class="cls-11" d="M742.78,238.86a1.19,1.19,0,1,1,1.48.79A1.19,1.19,0,0,1,742.78,238.86Z"/>
        <path class="cls-11" d="M738.24,223.86a1.18,1.18,0,1,1,1.47.79A1.18,1.18,0,0,1,738.24,223.86Z"/>
        <path class="cls-11" d="M740.51,231.36a1.19,1.19,0,1,1,1.48.79A1.18,1.18,0,0,1,740.51,231.36Z"/>
        <path class="cls-11" d="M731,217.87a1.19,1.19,0,1,1,1.48.79A1.19,1.19,0,0,1,731,217.87Z"/>
        <path class="cls-11" d="M736,216.36a1.19,1.19,0,0,1,2.27-.69,1.19,1.19,0,0,1-2.27.69Z"/>
        <path class="cls-11" d="M734.6,220.86a1.18,1.18,0,1,1,1.48.79A1.18,1.18,0,0,1,734.6,220.86Z"/>
        <path class="cls-11" d="M738.24,223.86a1.18,1.18,0,1,1,1.47.79A1.18,1.18,0,0,1,738.24,223.86Z"/>
        <path class="cls-11" d="M728.69,210.37a1.18,1.18,0,0,1,.79-1.48,1.19,1.19,0,1,1-.79,1.48Z"/>
        <path class="cls-11" d="M733.69,208.85a1.18,1.18,0,1,1,1.48.79A1.18,1.18,0,0,1,733.69,208.85Z"/>
        <path class="cls-11" d="M732.33,213.36a1.18,1.18,0,1,1,1.47.79A1.19,1.19,0,0,1,732.33,213.36Z"/>
        <path class="cls-11" d="M731,217.87a1.19,1.19,0,1,1,1.48.79A1.19,1.19,0,0,1,731,217.87Z"/>
        <path class="cls-11" d="M736,216.36a1.19,1.19,0,0,1,2.27-.69,1.19,1.19,0,0,1-2.27.69Z"/>
        <path class="cls-11" d="M726.42,202.87a1.18,1.18,0,1,1,1.47.79A1.18,1.18,0,0,1,726.42,202.87Z"/>
        <path class="cls-11" d="M731.42,201.35a1.18,1.18,0,1,1,1.47.79A1.18,1.18,0,0,1,731.42,201.35Z"/>
        <path class="cls-11" d="M730.05,205.86a1.19,1.19,0,1,1,1.48.79A1.19,1.19,0,0,1,730.05,205.86Z"/>
        <path class="cls-11" d="M728.69,210.37a1.18,1.18,0,0,1,.79-1.48,1.19,1.19,0,1,1-.79,1.48Z"/>
        <path class="cls-11" d="M733.69,208.85a1.18,1.18,0,1,1,1.48.79A1.18,1.18,0,0,1,733.69,208.85Z"/>
        <path class="cls-11" d="M727.78,198.36a1.19,1.19,0,1,1,1.48.79A1.18,1.18,0,0,1,727.78,198.36Z"/>
        <path class="cls-11" d="M726.42,202.87a1.18,1.18,0,1,1,1.47.79A1.18,1.18,0,0,1,726.42,202.87Z"/>
        <path class="cls-11" d="M731.42,201.35a1.18,1.18,0,1,1,1.47.79A1.18,1.18,0,0,1,731.42,201.35Z"/>
        <path class="cls-11" d="M742.78,238.86a1.19,1.19,0,1,1,1.48.79A1.19,1.19,0,0,1,742.78,238.86Z"/>
        <path class="cls-11" d="M747.79,237.35a1.18,1.18,0,1,1,1.47.78A1.18,1.18,0,0,1,747.79,237.35Z"/>
        <path class="cls-11" d="M746.42,241.85a1.18,1.18,0,1,1,1.48.79A1.18,1.18,0,0,1,746.42,241.85Z"/>
        <path class="cls-11" d="M740.51,231.36a1.19,1.19,0,1,1,1.48.79A1.18,1.18,0,0,1,740.51,231.36Z"/>
        <path class="cls-11" d="M745.51,229.84a1.18,1.18,0,1,1,1.48.79A1.18,1.18,0,0,1,745.51,229.84Z"/>
        <path class="cls-11" d="M744.15,234.35a1.18,1.18,0,1,1,1.48.79A1.18,1.18,0,0,1,744.15,234.35Z"/>
        <path class="cls-11" d="M742.78,238.86a1.19,1.19,0,1,1,1.48.79A1.19,1.19,0,0,1,742.78,238.86Z"/>
        <path class="cls-11" d="M747.79,237.35a1.18,1.18,0,1,1,1.47.78A1.18,1.18,0,0,1,747.79,237.35Z"/>
        <path class="cls-11" d="M738.24,223.86a1.18,1.18,0,1,1,1.47.79A1.18,1.18,0,0,1,738.24,223.86Z"/>
        <path class="cls-11" d="M743.24,222.34a1.18,1.18,0,1,1,1.48.79A1.18,1.18,0,0,1,743.24,222.34Z"/>
        <path class="cls-11" d="M741.88,226.85a1.18,1.18,0,1,1,1.47.79A1.18,1.18,0,0,1,741.88,226.85Z"/>
        <path class="cls-11" d="M740.51,231.36a1.19,1.19,0,1,1,1.48.79A1.18,1.18,0,0,1,740.51,231.36Z"/>
        <path class="cls-11" d="M745.51,229.84a1.18,1.18,0,1,1,1.48.79A1.18,1.18,0,0,1,745.51,229.84Z"/>
        <path class="cls-11" d="M736,216.36a1.19,1.19,0,0,1,2.27-.69,1.19,1.19,0,0,1-2.27.69Z"/>
        <path class="cls-11" d="M741,214.84a1.2,1.2,0,0,1,.8-1.48,1.18,1.18,0,0,1,.68,2.27A1.2,1.2,0,0,1,741,214.84Z"/>
        <path class="cls-11" d="M739.6,219.35a1.19,1.19,0,1,1,1.48.79A1.19,1.19,0,0,1,739.6,219.35Z"/>
        <path class="cls-11" d="M738.24,223.86a1.18,1.18,0,1,1,1.47.79A1.18,1.18,0,0,1,738.24,223.86Z"/>
        <path class="cls-11" d="M743.24,222.34a1.18,1.18,0,1,1,1.48.79A1.18,1.18,0,0,1,743.24,222.34Z"/>
        <path class="cls-11" d="M733.69,208.85a1.18,1.18,0,1,1,1.48.79A1.18,1.18,0,0,1,733.69,208.85Z"/>
        <path class="cls-11" d="M738.69,207.34a1.19,1.19,0,1,1,1.48.79A1.19,1.19,0,0,1,738.69,207.34Z"/>
        <path class="cls-11" d="M737.33,211.85a1.18,1.18,0,1,1,1.47.79A1.18,1.18,0,0,1,737.33,211.85Z"/>
        <path class="cls-11" d="M736,216.36a1.19,1.19,0,0,1,2.27-.69,1.19,1.19,0,0,1-2.27.69Z"/>
        <path class="cls-11" d="M741,214.84a1.2,1.2,0,0,1,.8-1.48,1.18,1.18,0,0,1,.68,2.27A1.2,1.2,0,0,1,741,214.84Z"/>
        <path class="cls-11" d="M731.42,201.35a1.18,1.18,0,1,1,1.47.79A1.18,1.18,0,0,1,731.42,201.35Z"/>
        <path class="cls-11" d="M736.42,199.84a1.18,1.18,0,1,1,1.47.79A1.18,1.18,0,0,1,736.42,199.84Z"/>
        <path class="cls-11" d="M735.05,204.34a1.18,1.18,0,0,1,2.27-.68,1.18,1.18,0,0,1-2.27.68Z"/>
        <path class="cls-11" d="M733.69,208.85a1.18,1.18,0,1,1,1.48.79A1.18,1.18,0,0,1,733.69,208.85Z"/>
        <path class="cls-11" d="M738.69,207.34a1.19,1.19,0,1,1,1.48.79A1.19,1.19,0,0,1,738.69,207.34Z"/>
        <path class="cls-11" d="M732.78,196.84a1.19,1.19,0,0,1,.79-1.48,1.19,1.19,0,1,1-.79,1.48Z"/>
        <path class="cls-11" d="M731.42,201.35a1.18,1.18,0,1,1,1.47.79A1.18,1.18,0,0,1,731.42,201.35Z"/>
        <path class="cls-11" d="M736.42,199.84a1.18,1.18,0,1,1,1.47.79A1.18,1.18,0,0,1,736.42,199.84Z"/>
        <path class="cls-11" d="M747.79,237.35a1.18,1.18,0,1,1,1.47.78A1.18,1.18,0,0,1,747.79,237.35Z"/>
        <path class="cls-11" d="M745.51,229.84a1.18,1.18,0,1,1,1.48.79A1.18,1.18,0,0,1,745.51,229.84Z"/>
        <path class="cls-11" d="M750.51,228.33a1.19,1.19,0,1,1,1.48.79A1.19,1.19,0,0,1,750.51,228.33Z"/>
        <path class="cls-11" d="M749.15,232.84a1.18,1.18,0,0,1,.79-1.48,1.17,1.17,0,0,1,1.47.79,1.18,1.18,0,1,1-2.26.69Z"/>
        <path class="cls-11" d="M747.79,237.35a1.18,1.18,0,1,1,1.47.78A1.18,1.18,0,0,1,747.79,237.35Z"/>
        <path class="cls-11" d="M743.24,222.34a1.18,1.18,0,1,1,1.48.79A1.18,1.18,0,0,1,743.24,222.34Z"/>
        <path class="cls-11" d="M748.24,220.83a1.19,1.19,0,0,1,2.27-.69,1.19,1.19,0,1,1-2.27.69Z"/>
        <path class="cls-11" d="M746.88,225.33a1.18,1.18,0,0,1,2.26-.68,1.18,1.18,0,1,1-2.26.68Z"/>
        <path class="cls-11" d="M745.51,229.84a1.18,1.18,0,1,1,1.48.79A1.18,1.18,0,0,1,745.51,229.84Z"/>
        <path class="cls-11" d="M750.51,228.33a1.19,1.19,0,1,1,1.48.79A1.19,1.19,0,0,1,750.51,228.33Z"/>
        <path class="cls-11" d="M741,214.84a1.2,1.2,0,0,1,.8-1.48,1.18,1.18,0,0,1,.68,2.27A1.2,1.2,0,0,1,741,214.84Z"/>
        <path class="cls-11" d="M746,213.32a1.18,1.18,0,1,1,1.47.79A1.18,1.18,0,0,1,746,213.32Z"/>
        <path class="cls-11" d="M744.6,217.83a1.18,1.18,0,1,1,1.48.79A1.18,1.18,0,0,1,744.6,217.83Z"/>
        <path class="cls-11" d="M743.24,222.34a1.18,1.18,0,1,1,1.48.79A1.18,1.18,0,0,1,743.24,222.34Z"/>
        <path class="cls-11" d="M748.24,220.83a1.19,1.19,0,0,1,2.27-.69,1.19,1.19,0,1,1-2.27.69Z"/>
        <path class="cls-11" d="M738.69,207.34a1.19,1.19,0,1,1,1.48.79A1.19,1.19,0,0,1,738.69,207.34Z"/>
        <path class="cls-11" d="M743.69,205.82a1.19,1.19,0,1,1,1.48.79A1.18,1.18,0,0,1,743.69,205.82Z"/>
        <path class="cls-11" d="M742.33,210.33a1.18,1.18,0,1,1,1.47.79A1.18,1.18,0,0,1,742.33,210.33Z"/>
        <path class="cls-11" d="M741,214.84a1.2,1.2,0,0,1,.8-1.48,1.18,1.18,0,0,1,.68,2.27A1.2,1.2,0,0,1,741,214.84Z"/>
        <path class="cls-11" d="M746,213.32a1.18,1.18,0,1,1,1.47.79A1.18,1.18,0,0,1,746,213.32Z"/>
        <path class="cls-11" d="M736.42,199.84a1.18,1.18,0,1,1,1.47.79A1.18,1.18,0,0,1,736.42,199.84Z"/>
        <path class="cls-11" d="M741.42,198.32a1.18,1.18,0,0,1,.79-1.48,1.19,1.19,0,1,1-.79,1.48Z"/>
        <path class="cls-11" d="M740.06,202.83a1.18,1.18,0,1,1,1.47.79A1.18,1.18,0,0,1,740.06,202.83Z"/>
        <path class="cls-11" d="M738.69,207.34a1.19,1.19,0,1,1,1.48.79A1.19,1.19,0,0,1,738.69,207.34Z"/>
        <path class="cls-11" d="M743.69,205.82a1.19,1.19,0,1,1,1.48.79A1.18,1.18,0,0,1,743.69,205.82Z"/>
        <path class="cls-11" d="M736.42,199.84a1.18,1.18,0,1,1,1.47.79A1.18,1.18,0,0,1,736.42,199.84Z"/>
        <path class="cls-11" d="M741.42,198.32a1.18,1.18,0,0,1,.79-1.48,1.19,1.19,0,1,1-.79,1.48Z"/>
        <path class="cls-11" d="M750.51,228.33a1.19,1.19,0,1,1,1.48.79A1.19,1.19,0,0,1,750.51,228.33Z"/>
        <path class="cls-11" d="M755.51,226.81a1.18,1.18,0,0,1,2.27-.68,1.18,1.18,0,0,1-2.27.68Z"/>
        <path class="cls-11" d="M748.24,220.83a1.19,1.19,0,0,1,2.27-.69,1.19,1.19,0,1,1-2.27.69Z"/>
        <path class="cls-11" d="M753.24,219.31a1.19,1.19,0,1,1,1.48.79A1.18,1.18,0,0,1,753.24,219.31Z"/>
        <path class="cls-11" d="M751.88,223.82a1.18,1.18,0,1,1,1.47.79A1.18,1.18,0,0,1,751.88,223.82Z"/>
        <path class="cls-11" d="M750.51,228.33a1.19,1.19,0,1,1,1.48.79A1.19,1.19,0,0,1,750.51,228.33Z"/>
        <path class="cls-11" d="M755.51,226.81a1.18,1.18,0,0,1,2.27-.68,1.18,1.18,0,0,1-2.27.68Z"/>
        <path class="cls-11" d="M746,213.32a1.18,1.18,0,1,1,1.47.79A1.18,1.18,0,0,1,746,213.32Z"/>
        <path class="cls-11" d="M751,211.81a1.18,1.18,0,1,1,1.47.79A1.18,1.18,0,0,1,751,211.81Z"/>
        <path class="cls-11" d="M749.6,216.32a1.2,1.2,0,0,1,.79-1.48,1.19,1.19,0,1,1,.69,2.27A1.19,1.19,0,0,1,749.6,216.32Z"/>
        <path class="cls-11" d="M748.24,220.83a1.19,1.19,0,0,1,2.27-.69,1.19,1.19,0,1,1-2.27.69Z"/>
        <path class="cls-11" d="M753.24,219.31a1.19,1.19,0,1,1,1.48.79A1.18,1.18,0,0,1,753.24,219.31Z"/>
        <path class="cls-11" d="M743.69,205.82a1.19,1.19,0,1,1,1.48.79A1.18,1.18,0,0,1,743.69,205.82Z"/>
        <path class="cls-11" d="M748.7,204.31a1.18,1.18,0,1,1,1.47.79A1.18,1.18,0,0,1,748.7,204.31Z"/>
        <path class="cls-11" d="M747.33,208.81a1.18,1.18,0,1,1,1.48.79A1.18,1.18,0,0,1,747.33,208.81Z"/>
        <path class="cls-11" d="M746,213.32a1.18,1.18,0,1,1,1.47.79A1.18,1.18,0,0,1,746,213.32Z"/>
        <path class="cls-11" d="M751,211.81a1.18,1.18,0,1,1,1.47.79A1.18,1.18,0,0,1,751,211.81Z"/>
        <path class="cls-11" d="M741.42,198.32a1.18,1.18,0,0,1,.79-1.48,1.19,1.19,0,1,1-.79,1.48Z"/>
        <path class="cls-11" d="M745.06,201.31a1.18,1.18,0,1,1,1.47.79A1.18,1.18,0,0,1,745.06,201.31Z"/>
        <path class="cls-11" d="M743.69,205.82a1.19,1.19,0,1,1,1.48.79A1.18,1.18,0,0,1,743.69,205.82Z"/>
        <path class="cls-11" d="M748.7,204.31a1.18,1.18,0,1,1,1.47.79A1.18,1.18,0,0,1,748.7,204.31Z"/>
        <path class="cls-11" d="M741.42,198.32a1.18,1.18,0,0,1,.79-1.48,1.19,1.19,0,1,1-.79,1.48Z"/>
        <path class="cls-11" d="M755.51,226.81a1.18,1.18,0,0,1,2.27-.68,1.18,1.18,0,0,1-2.27.68Z"/>
        <path class="cls-11" d="M753.24,219.31a1.19,1.19,0,1,1,1.48.79A1.18,1.18,0,0,1,753.24,219.31Z"/>
        <path class="cls-11" d="M758.24,217.8a1.19,1.19,0,1,1,2.27-.69,1.19,1.19,0,0,1-2.27.69Z"/>
        <path class="cls-11" d="M756.88,222.3a1.18,1.18,0,1,1,1.47.79A1.18,1.18,0,0,1,756.88,222.3Z"/>
        <path class="cls-11" d="M755.51,226.81a1.18,1.18,0,0,1,2.27-.68,1.18,1.18,0,0,1-2.27.68Z"/>
        <path class="cls-11" d="M751,211.81a1.18,1.18,0,1,1,1.47.79A1.18,1.18,0,0,1,751,211.81Z"/>
        <path class="cls-11" d="M756,210.29a1.18,1.18,0,1,1,1.48.79A1.18,1.18,0,0,1,756,210.29Z"/>
        <path class="cls-11" d="M754.61,214.8a1.18,1.18,0,0,1,2.26-.69,1.18,1.18,0,1,1-2.26.69Z"/>
        <path class="cls-11" d="M753.24,219.31a1.19,1.19,0,1,1,1.48.79A1.18,1.18,0,0,1,753.24,219.31Z"/>
        <path class="cls-11" d="M758.24,217.8a1.19,1.19,0,1,1,2.27-.69,1.19,1.19,0,0,1-2.27.69Z"/>
        <path class="cls-11" d="M748.7,204.31a1.18,1.18,0,1,1,1.47.79A1.18,1.18,0,0,1,748.7,204.31Z"/>
        <path class="cls-11" d="M752.33,207.3a1.19,1.19,0,1,1,1.48.79A1.19,1.19,0,0,1,752.33,207.3Z"/>
        <path class="cls-11" d="M751,211.81a1.18,1.18,0,1,1,1.47.79A1.18,1.18,0,0,1,751,211.81Z"/>
        <path class="cls-11" d="M756,210.29a1.18,1.18,0,1,1,1.48.79A1.18,1.18,0,0,1,756,210.29Z"/>
        <path class="cls-11" d="M748.7,204.31a1.18,1.18,0,1,1,1.47.79A1.18,1.18,0,0,1,748.7,204.31Z"/>
        <path class="cls-11" d="M758.24,217.8a1.19,1.19,0,1,1,2.27-.69,1.19,1.19,0,0,1-2.27.69Z"/>
        <path class="cls-11" d="M756,210.29a1.18,1.18,0,1,1,1.48.79A1.18,1.18,0,0,1,756,210.29Z"/>
        <path class="cls-11" d="M758.24,217.8a1.19,1.19,0,1,1,2.27-.69,1.19,1.19,0,0,1-2.27.69Z"/>
        <path class="cls-11" d="M756,210.29a1.18,1.18,0,1,1,1.48.79A1.18,1.18,0,0,1,756,210.29Z"/>
      </g>
      <path class="cls-4" d="M748.75,273.48l-45.67,19.33-50.66-46.66a215.33,215.33,0,0,1-.63-21.72c.48-22,4.43-42.45,11.39-60.41,6.4-16.54,15.35-31,26.48-42.64A100.49,100.49,0,0,1,742.48,91.8a112.83,112.83,0,0,1,36.27-1.32"/>
    </g>
    <path class="cls-6" d="M1081.9,837.48h138m-904.46,0h744m-765,0H233"/>
    <g>
      <path class="cls-1" d="M203.25,210.45v23.91a6.46,6.46,0,0,0,2.33,5c.26.2,16.56,9.68,17.86,10.44l.08.05a6.82,6.82,0,0,0,.77.37,6.28,6.28,0,0,0,1.61.43,6.83,6.83,0,0,0,1.65,0,3.08,3.08,0,0,0,.72-.15,5.85,5.85,0,0,0,1.67-.67l32.57-18.91a17.59,17.59,0,0,0,8.77-15.23v-24.8a4,4,0,0,0-2-3.44l-.05,0c-.64-.37-7-4.08-12.05-6.93l-12.47-1.66-28.34,17.26-7.27,4.22A11.75,11.75,0,0,0,203.25,210.45Z"/>
      <path class="cls-1" d="M216.32,198.07V202l6.29,4,.42-.57v.57l5.54-3.09V198c.14-8.47,5.27-18.09,11.58-21.6a10,10,0,0,1,3.31-1.2,9.78,9.78,0,0,1,.82,1.88c.06.18.12.36.17.55s.1.37.14.57.09.39.13.59.07.39.1.6v0c0,.16.05.32.07.48a21.92,21.92,0,0,1,.12,2.19v4.53l6.72,3.35,5.53-3.09v-4.52c0-.5,0-1,0-1.48l0-.47c0-.42-.06-.83-.11-1.23v0c0-.19-.05-.37-.07-.55s-.05-.36-.09-.54V178c-.07-.45-.16-.88-.26-1.31q-.07-.37-.18-.72c-.05-.19-.1-.37-.16-.55a6.39,6.39,0,0,0-.22-.7c-.05-.13-.09-.26-.15-.38a5.53,5.53,0,0,0-.24-.61c-.09-.23-.19-.46-.3-.68l-.17-.36c-.09-.15-.17-.3-.25-.45l0-.05-.3-.5v0c-.11-.17-.22-.34-.34-.5a5.3,5.3,0,0,0-.34-.45,8,8,0,0,0-.71-.82l-.21-.21a8.71,8.71,0,0,0-2.07-1.54c-1-1-6.83-3.52-8.07-3.93-2.71-.91-6-.5-9.48,1.45C224,170.91,216.32,185.42,216.32,198.07Z"/>
      <path class="cls-4" d="M220.3,244.25a6.42,6.42,0,0,0,9.64,5.55l32.57-18.92a17.6,17.6,0,0,0,8.77-15.23v-24.8a4,4,0,0,0-6-3.44l-39.16,22.74a11.77,11.77,0,0,0-5.86,10.17Z"/>
      <path class="cls-4" d="M216.38,196l-7.27,4.23a11.75,11.75,0,0,0-5.86,10.17v23.92a6.4,6.4,0,0,0,2.33,4.95c.28.23,17.63,10.32,17.94,10.5a6.4,6.4,0,0,0,6.42,0l32.57-18.91a17.6,17.6,0,0,0,8.77-15.23v-24.8a4,4,0,0,0-2-3.45c-.26-.15-6.93-4-12.09-7"/>
      <line class="cls-4" x1="244.84" y1="179.52" x2="231.48" y2="187.28"/>
      <path class="cls-3" d="M243.93,220.31l-1.21,11.92,7.51-4.13L249,217.51a11.12,11.12,0,0,0,3.19-7.06c0-3.26-2.57-4.5-5.74-2.75s-5.74,5.8-5.74,9.07C240.74,219.09,242,220.39,243.93,220.31Z"/>
      <path class="cls-4" d="M243.93,220.31l-1.21,11.92,7.51-4.13L249,217.51a11.12,11.12,0,0,0,3.19-7.06c0-3.26-2.57-4.5-5.74-2.75s-5.74,5.8-5.74,9.07C240.74,219.09,242,220.39,243.93,220.31Z"/>
      <path class="cls-4" d="M240.15,169c4.11-2.29,7.88-2.46,10.83-.87a8.71,8.71,0,0,1,2.07,1.54l.21.21a8,8,0,0,1,.71.82,5.3,5.3,0,0,1,.34.45c.12.16.23.33.34.5v0l.3.5,0,.05c.08.15.16.3.25.45l.17.36c.11.22.21.45.3.68a5.53,5.53,0,0,1,.24.61c.06.12.1.25.15.38a6.39,6.39,0,0,1,.22.7c.06.18.11.36.16.55s.13.47.18.72c.1.43.19.86.26,1.31V178c0,.18.06.36.09.54s0,.36.07.55v0c.05.4.09.81.11,1.23l0,.47c0,.48,0,1,0,1.48v4.52L251.73,190v-4.53c0-7-3.49-11-8.27-10.23a10,10,0,0,0-3.31,1.2c-6.31,3.51-11.44,13.13-11.58,21.6v4.85L223,205.94v-4.53C223,188.77,230.7,174.26,240.15,169Z"/>
      <path class="cls-4" d="M222.61,205.94l-6.29-4v-3.89c0-12.64,7.66-27.15,17.11-32.41,3.51-2,6.76-2.36,9.48-1.45,1.25.42,7.1,3,8.09,3.94m-7.54,7.06a9.78,9.78,0,0,1,.82,1.88c.06.18.12.36.17.55s.1.37.14.57.09.39.13.59.07.39.1.6v0c0,.16.05.32.07.48a21.92,21.92,0,0,1,.12,2.19v4.53l6.72,3.35"/>
    </g>
    <g>
      <path class="cls-12" d="M442.86,473.74h11.61a12.15,12.15,0,0,0,12.14-12.17h0a12.16,12.16,0,0,0-12.17-12.14H440.62l.19,48.68,16-.08a12.16,12.16,0,0,0,12.1-12.21h0a12.15,12.15,0,0,0-12.22-12.1l-11.6,0"/>
      <path class="cls-12" d="M448,442.63l.05,6.21m4.83-6.21.06,6.21"/>
      <path class="cls-12" d="M448,498.12l.05,8.21m4.83-8.21.06,8.21"/>
      <line class="cls-12" x1="445.62" y1="449.43" x2="435.62" y2="449.43"/>
      <line class="cls-12" x1="445.62" y1="498.12" x2="435.62" y2="498.12"/>
    </g>
    <g>
      <path class="cls-1" d="M307.38,450.14v23.92a6.44,6.44,0,0,0,2.33,4.95c.27.21,16.56,9.69,17.86,10.44l.08.05a6.86,6.86,0,0,0,.77.38,7,7,0,0,0,1.61.43,6.91,6.91,0,0,0,1.66,0,4.61,4.61,0,0,0,.72-.15,6.22,6.22,0,0,0,1.66-.67l32.57-18.91a17.58,17.58,0,0,0,8.77-15.23v-24.8a4,4,0,0,0-2-3.45l-.05,0c-.63-.37-7-4.08-12-6.94l-12.48-1.65-28.34,17.25L313.24,440A11.76,11.76,0,0,0,307.38,450.14Z"/>
      <path class="cls-1" d="M320.45,437.76v3.88l6.29,4,.43-.57v.57l5.53-3.09V438c0-.11,0-.22,0-.34.13-8.47,5.26-18.08,11.57-21.59a9.74,9.74,0,0,1,3.31-1.2,10.46,10.46,0,0,1,.83,1.88c.06.18.11.36.16.54s.1.38.14.57.09.39.13.6.07.39.11.59v0c0,.16,0,.31.06.48a19,19,0,0,1,.12,2.19v4.53l6.72,3.35,5.53-3.09v-4.52c0-.51,0-1,0-1.48,0-.16,0-.31,0-.47,0-.42-.06-.84-.11-1.24a.43.43,0,0,1,0-.05c0-.18,0-.36-.07-.54s-.05-.36-.08-.54a.09.09,0,0,0,0-.05c-.07-.45-.16-.89-.26-1.32-.05-.24-.11-.48-.18-.71s-.09-.38-.15-.56-.15-.47-.22-.69l-.15-.39c-.07-.2-.16-.41-.24-.6s-.2-.46-.31-.68-.11-.25-.17-.36-.16-.3-.25-.45,0,0,0-.05c-.1-.17-.2-.34-.31-.5v0c-.11-.17-.22-.34-.34-.51s-.22-.3-.34-.44a8,8,0,0,0-.7-.82l-.22-.22a9.11,9.11,0,0,0-2.06-1.53c-1-1-6.83-3.52-8.08-3.94-2.71-.9-6-.49-9.48,1.46C328.11,410.61,320.45,425.12,320.45,437.76Z"/>
      <path class="cls-4" d="M324.44,483.94a6.42,6.42,0,0,0,9.64,5.55l32.57-18.91a17.62,17.62,0,0,0,8.77-15.23V430.54a4,4,0,0,0-6-3.43L330.3,449.85A11.75,11.75,0,0,0,324.44,460Z"/>
      <path class="cls-4" d="M320.52,435.74,313.24,440a11.8,11.8,0,0,0-5.86,10.18v23.92a6.41,6.41,0,0,0,2.34,4.95c.27.23,17.62,10.31,17.93,10.49a6.42,6.42,0,0,0,6.43,0l32.57-18.91a17.62,17.62,0,0,0,8.77-15.23V430.54a4,4,0,0,0-2-3.44l-12.1-7"/>
      <line class="cls-4" x1="348.97" y1="419.22" x2="335.61" y2="426.98"/>
      <path class="cls-3" d="M348.06,460l-1.2,11.92,7.51-4.13-1.2-10.6a11.09,11.09,0,0,0,3.19-7.05c0-3.26-2.58-4.5-5.75-2.75s-5.74,5.8-5.74,9.06C344.87,458.79,346.17,460.09,348.06,460Z"/>
      <path class="cls-4" d="M348.06,460l-1.2,11.92,7.51-4.13-1.2-10.6a11.09,11.09,0,0,0,3.19-7.05c0-3.26-2.58-4.5-5.75-2.75s-5.74,5.8-5.74,9.06C344.87,458.79,346.17,460.09,348.06,460Z"/>
      <path class="cls-4" d="M344.28,408.7c4.11-2.29,7.88-2.46,10.84-.87a9.11,9.11,0,0,1,2.06,1.53l.22.22a8,8,0,0,1,.7.82c.12.14.23.29.34.44s.23.34.34.51v0c.11.16.21.33.31.5,0,0,0,0,0,.05s.17.3.25.45.11.24.17.36.21.44.31.68.17.4.24.6l.15.39c.07.22.15.45.22.69s.1.37.15.56.13.47.18.71c.1.43.19.87.26,1.32a.09.09,0,0,1,0,.05c0,.18.06.36.08.54s.05.36.07.54a.43.43,0,0,0,0,.05c0,.4.08.82.11,1.24,0,.16,0,.31,0,.47,0,.48,0,1,0,1.48v4.52l-5.53,3.09v-4.53c0-7-3.48-11-8.27-10.23a9.74,9.74,0,0,0-3.31,1.2c-6.31,3.51-11.44,13.12-11.57,21.59,0,.12,0,.23,0,.34v4.52l-5.53,3.09v-4.53C327.17,428.47,334.83,414,344.28,408.7Z"/>
      <path class="cls-4" d="M326.75,445.63l-6.3-4v-3.88c0-12.64,7.66-27.15,17.11-32.41,3.51-2,6.77-2.36,9.48-1.46,1.25.42,7.1,3,8.09,3.95m-7.54,7.06a10.46,10.46,0,0,1,.83,1.88c.06.18.11.36.16.54s.1.38.14.57.09.39.13.6.07.39.11.59v0q0,.22.06.48a19,19,0,0,1,.12,2.19v4.53l6.72,3.35"/>
    </g>
    <g>
      <path class="cls-4" d="M506.19,245.72a55.77,55.77,0,1,0-55.77,55.77A55.77,55.77,0,0,0,506.19,245.72Z"/>
      <path class="cls-3" d="M458.67,277h-6.28v-7.31h-4c0,2.47,0,4.89,0,7.31h-6.27v-7.37H428.85v-6.22h.55c.83,0,1.65,0,2.47,0a2,2,0,0,0,2.18-2.23c0-.63.06-1.27.06-1.9q0-11.41,0-22.83,0-1.55-.06-3.09a2.07,2.07,0,0,0-2.17-2.25c-.84-.05-1.68,0-2.52-.05l-.5,0c0-2.08,0-4.12,0-6.22h13.26c0-2.49,0-4.92,0-7.34h6.27v7.31h4v-7.32h6.28c0,.19,0,.38,0,.57,0,2.14,0,4.28,0,6.42,0,.49.1.72.62.74a8.35,8.35,0,0,1,1.22.18,13.35,13.35,0,0,1,6,2.63,9.66,9.66,0,0,1,3.75,7.23,9.52,9.52,0,0,1-1.5,5.74,11.88,11.88,0,0,1-6.13,4.72l-.54.23a1.17,1.17,0,0,0,.5.25,16.21,16.21,0,0,1,4.71,2,9.7,9.7,0,0,1,4.3,6.15c1.05,4.87-.57,8.82-4.45,11.86a16.16,16.16,0,0,1-8,3.05c-.45.06-.56.21-.56.64C458.69,272.24,458.67,274.63,458.67,277ZM445.2,249.6c0,.15,0,.24,0,.34,0,3.15,0,6.31,0,9.46a19.93,19.93,0,0,0,.12,2,.9.9,0,0,0,.91.92c1.52.07,3,.14,4.56.12a37.06,37.06,0,0,0,3.93-.27,6.25,6.25,0,0,0,3.64-1.67,6.47,6.47,0,0,0,2-4.66,5.48,5.48,0,0,0-3.54-5.52,12.34,12.34,0,0,0-4.29-.74c-2.31-.06-4.62,0-6.94-.05Zm0-6.64a3.37,3.37,0,0,0,.4,0h4.61a20.13,20.13,0,0,0,5.19-.54,5.4,5.4,0,0,0,3.27-2.2c1.74-2.68.85-7-3.07-7.76a17.92,17.92,0,0,0-2.92-.36c-2.36-.07-4.72,0-7.08-.07a3,3,0,0,0-.39,0C445.22,235.72,445.21,239.31,445.21,243Z"/>
    </g>
    <g>
      <path class="cls-1" d="M866.78,679.25v23.92a6.44,6.44,0,0,1-2.33,5c-.26.2-16.56,9.68-17.85,10.43l-.09.05a5.5,5.5,0,0,1-.77.38,6.76,6.76,0,0,1-1.6.43,7.86,7.86,0,0,1-.83.05,7.55,7.55,0,0,1-.83-.05,4.61,4.61,0,0,1-.72-.15,6.15,6.15,0,0,1-1.67-.67l-32.57-18.91a17.6,17.6,0,0,1-8.77-15.23v-24.8a4,4,0,0,1,2-3.45l0,0c.64-.37,7.05-4.08,12.05-6.94l12.47-1.65,28.34,17.25,7.27,4.23A11.74,11.74,0,0,1,866.78,679.25Z"/>
      <path class="cls-1" d="M853.71,666.87v3.89l-6.29,4-.42-.57v.57l-5.54-3.09V666.8c-.13-8.47-5.26-18.08-11.57-21.59a10.11,10.11,0,0,0-3.31-1.2,9.22,9.22,0,0,0-.83,1.88c-.06.18-.12.36-.17.54s-.1.38-.14.57-.09.39-.13.6-.07.39-.1.59v0c0,.16,0,.31-.07.48a21.59,21.59,0,0,0-.12,2.19v4.53l-6.72,3.35-5.53-3.09v-4.52c0-.5,0-1,0-1.48l0-.47c0-.42.06-.83.11-1.24v0c0-.19,0-.37.08-.55a4.68,4.68,0,0,1,.08-.54v-.05c.07-.45.16-.89.26-1.32l.18-.71c.05-.19.1-.38.16-.56s.14-.47.22-.69.09-.26.15-.39a6.44,6.44,0,0,1,.24-.61c.09-.23.19-.45.3-.67l.17-.36c.09-.15.17-.3.25-.45l0,0,.3-.5v0l.34-.51c.11-.15.22-.3.34-.44a8,8,0,0,1,.71-.82,2.08,2.08,0,0,1,.21-.21,8.71,8.71,0,0,1,2.07-1.54c1-1,6.83-3.52,8.07-3.93,2.72-.91,6-.5,9.48,1.45C846.05,639.72,853.71,654.23,853.71,666.87Z"/>
      <path class="cls-4" d="M849.73,713.05a6.42,6.42,0,0,1-9.64,5.55l-32.57-18.91a17.6,17.6,0,0,1-8.77-15.23V659.65a4,4,0,0,1,6-3.43L843.87,679a11.77,11.77,0,0,1,5.86,10.17Z"/>
      <path class="cls-4" d="M853.65,664.85l7.27,4.22a11.78,11.78,0,0,1,5.86,10.18v23.92a6.44,6.44,0,0,1-2.33,5c-.28.23-17.62,10.31-17.94,10.49a6.4,6.4,0,0,1-6.42,0l-32.57-18.91a17.6,17.6,0,0,1-8.77-15.23V659.65a4,4,0,0,1,2-3.44c.26-.15,6.93-4,12.1-7"/>
      <line class="cls-4" x1="825.19" y1="648.33" x2="838.55" y2="656.09"/>
      <path class="cls-3" d="M826.11,689.12l1.2,11.92-7.51-4.13,1.2-10.6a11.09,11.09,0,0,1-3.19-7c0-3.26,2.57-4.5,5.74-2.75s5.74,5.8,5.74,9.07C829.29,687.9,828,689.2,826.11,689.12Z"/>
      <path class="cls-4" d="M826.11,689.12l1.2,11.92-7.51-4.13,1.2-10.6a11.09,11.09,0,0,1-3.19-7c0-3.26,2.57-4.5,5.74-2.75s5.74,5.8,5.74,9.07C829.29,687.9,828,689.2,826.11,689.12Z"/>
      <path class="cls-4" d="M829.89,637.81c-4.11-2.29-7.89-2.46-10.84-.87a8.71,8.71,0,0,0-2.07,1.54,2.08,2.08,0,0,0-.21.21,8,8,0,0,0-.71.82c-.12.14-.23.29-.34.44l-.34.51v0l-.3.5,0,0c-.08.15-.16.3-.25.45l-.17.36c-.11.22-.21.44-.3.67a6.44,6.44,0,0,0-.24.61c-.06.13-.1.26-.15.39s-.15.45-.22.69-.11.37-.16.56l-.18.71c-.1.43-.19.87-.26,1.32v.05a4.68,4.68,0,0,0-.08.54c0,.18,0,.36-.08.55v0c-.05.41-.08.82-.11,1.24l0,.47c0,.48,0,1,0,1.48v4.52l5.53,3.09v-4.53c0-7,3.49-11,8.28-10.23a10.11,10.11,0,0,1,3.31,1.2c6.31,3.51,11.44,13.12,11.57,21.59v4.86l5.54,3.09v-4.53C847,657.58,839.34,643.07,829.89,637.81Z"/>
      <path class="cls-4" d="M847.42,674.74l6.29-4v-3.89c0-12.64-7.66-27.15-17.11-32.41-3.5-2-6.76-2.36-9.47-1.45-1.26.41-7.11,3-8.1,3.94m7.55,7.06a9.22,9.22,0,0,0-.83,1.88c-.06.18-.12.36-.17.54s-.1.38-.14.57-.09.39-.13.6-.07.39-.1.59v0c0,.16,0,.31-.07.48a21.59,21.59,0,0,0-.12,2.19v4.53l-6.72,3.35"/>
    </g>
    <g>
      <path class="cls-1" d="M1064.89,462.25v23.92a6.4,6.4,0,0,1-2.33,4.95c-.26.21-16.56,9.69-17.85,10.44l-.09.05a4.54,4.54,0,0,1-.77.37,6.55,6.55,0,0,1-2.43.49,5.69,5.69,0,0,1-.83-.06,3.66,3.66,0,0,1-.72-.14,6.15,6.15,0,0,1-1.67-.67l-32.57-18.91a17.6,17.6,0,0,1-8.77-15.23v-24.8a4,4,0,0,1,2-3.45l0,0c.64-.38,7.05-4.08,12.05-6.94l12.47-1.66,28.34,17.26,7.27,4.23A11.74,11.74,0,0,1,1064.89,462.25Z"/>
      <path class="cls-1" d="M1051.82,449.87v3.88l-6.29,4-.42-.56v.56l-5.54-3.08V449.8c-.13-8.47-5.27-18.08-11.57-21.6a10.26,10.26,0,0,0-3.31-1.2,9.56,9.56,0,0,0-.83,1.89c-.06.17-.12.36-.17.54s-.1.38-.14.57-.09.39-.13.59-.07.4-.1.6v0c0,.16,0,.31-.07.48a21.59,21.59,0,0,0-.12,2.19v4.53l-6.72,3.34-5.53-3.08v-4.52c0-.51,0-1,0-1.48l0-.47c0-.43.06-.84.11-1.24v-.05c0-.18.05-.36.07-.54s0-.37.09-.54v0c.07-.45.16-.89.26-1.32l.18-.71c.05-.19.1-.38.16-.56s.14-.47.22-.69.09-.26.15-.39a6.44,6.44,0,0,1,.24-.61c.09-.23.19-.45.3-.68l.18-.35.24-.45,0,0,.3-.51h0l.34-.51.34-.45a7.91,7.91,0,0,1,.71-.81l.21-.22a8.94,8.94,0,0,1,2.07-1.53c1-1,6.83-3.52,8.07-3.94,2.72-.9,6-.5,9.48,1.45C1044.16,422.72,1051.82,437.23,1051.82,449.87Z"/>
      <path class="cls-4" d="M1047.84,496.05a6.42,6.42,0,0,1-9.64,5.55l-32.57-18.91a17.61,17.61,0,0,1-8.77-15.23V442.65a4,4,0,0,1,6-3.43L1042,462a11.8,11.8,0,0,1,5.86,10.18Z"/>
      <path class="cls-4" d="M1051.76,447.85l7.27,4.22a11.77,11.77,0,0,1,5.86,10.18v23.92a6.44,6.44,0,0,1-2.33,4.95c-.27.22-17.62,10.31-17.94,10.49a6.4,6.4,0,0,1-6.42,0l-32.57-18.91a17.61,17.61,0,0,1-8.77-15.23V442.65a4,4,0,0,1,2-3.44l12.1-7"/>
      <line class="cls-4" x1="1023.3" y1="431.33" x2="1036.66" y2="439.09"/>
      <path class="cls-3" d="M1024.21,472.12l1.21,11.92-7.51-4.13,1.2-10.6a11.09,11.09,0,0,1-3.19-7.05c0-3.26,2.57-4.5,5.74-2.76s5.74,5.81,5.74,9.07C1027.4,470.9,1026.11,472.19,1024.21,472.12Z"/>
      <path class="cls-4" d="M1024.21,472.12l1.21,11.92-7.51-4.13,1.2-10.6a11.09,11.09,0,0,1-3.19-7.05c0-3.26,2.57-4.5,5.74-2.76s5.74,5.81,5.74,9.07C1027.4,470.9,1026.11,472.19,1024.21,472.12Z"/>
      <path class="cls-4" d="M1028,420.81c-4.12-2.3-7.89-2.46-10.84-.87a8.94,8.94,0,0,0-2.07,1.53l-.21.22a7.91,7.91,0,0,0-.71.81l-.34.45-.34.51h0l-.3.51,0,0-.24.45-.18.35c-.11.23-.21.45-.3.68a6.44,6.44,0,0,0-.24.61c-.06.13-.1.25-.15.39s-.15.45-.22.69-.11.37-.16.56l-.18.71c-.1.43-.19.87-.26,1.32v0c0,.17-.06.35-.09.54s0,.36-.07.54V431c0,.4-.08.81-.11,1.24l0,.47c0,.48,0,1,0,1.48v4.52l5.53,3.08v-4.52c0-7,3.49-11,8.28-10.24a10.26,10.26,0,0,1,3.31,1.2c6.3,3.52,11.44,13.13,11.57,21.6v4.86l5.54,3.08v-4.52C1045.11,440.58,1037.45,426.07,1028,420.81Z"/>
      <path class="cls-4" d="M1045.53,457.74l6.29-4v-3.88c0-12.64-7.66-27.15-17.11-32.42-3.5-1.95-6.76-2.35-9.47-1.45-1.26.42-7.11,3-8.1,3.95m7.55,7.05a9.56,9.56,0,0,0-.83,1.89c-.06.17-.12.36-.17.54s-.1.38-.14.57-.09.39-.13.59-.07.4-.1.6v0c0,.15,0,.31-.07.48a21.59,21.59,0,0,0-.12,2.19v4.53l-6.72,3.34"/>
    </g>
    <g>
      <path class="cls-1" d="M1233.08,247.27v23.92a6.4,6.4,0,0,1-2.33,4.95c-.26.21-16.56,9.69-17.85,10.44-.05,0-.07.05-.09.05a4.84,4.84,0,0,1-.76.37,6.52,6.52,0,0,1-1.61.44,7.86,7.86,0,0,1-.83.05,7.55,7.55,0,0,1-.83-.05,4.61,4.61,0,0,1-.72-.15,6.28,6.28,0,0,1-1.67-.67l-32.56-18.91a17.59,17.59,0,0,1-8.78-15.23v-24.8a4,4,0,0,1,2-3.45l0,0c.64-.37,7.05-4.08,12.05-6.94l12.48-1.66L1220,232.87l7.27,4.23A11.75,11.75,0,0,1,1233.08,247.27Z"/>
      <path class="cls-1" d="M1220,234.89v3.88l-6.3,4-.42-.56v.56l-5.53-3.08v-4.52c0-.11,0-.22,0-.34-.13-8.47-5.26-18.08-11.57-21.6a10,10,0,0,0-3.31-1.19,9.8,9.8,0,0,0-.83,1.88c-.06.18-.11.36-.16.54l-.15.57c0,.19-.08.39-.12.59s-.07.4-.11.6v0l-.06.48a19,19,0,0,0-.12,2.19v4.53l-6.72,3.35-5.53-3.09v-4.52c0-.51,0-1,0-1.48l0-.47c0-.43.06-.84.11-1.24a.43.43,0,0,0,0-.05c0-.18,0-.36.07-.54s.05-.37.08-.54a.09.09,0,0,1,0-.05c.07-.45.15-.89.25-1.32l.18-.71c.05-.19.1-.38.16-.56s.15-.47.22-.69.1-.26.15-.39a6.44,6.44,0,0,1,.24-.61c.09-.23.19-.45.3-.68l.18-.35c.08-.16.16-.3.25-.45s0,0,0-.05l.3-.51h0a5,5,0,0,1,.34-.51,4.59,4.59,0,0,1,.33-.44,7.09,7.09,0,0,1,.71-.82l.22-.22a9.11,9.11,0,0,1,2.06-1.53c1-1,6.83-3.52,8.08-3.94,2.71-.9,6-.5,9.47,1.46C1212.35,207.74,1220,222.25,1220,234.89Z"/>
      <path class="cls-4" d="M1216,281.07a6.42,6.42,0,0,1-9.64,5.55l-32.57-18.91a17.61,17.61,0,0,1-8.77-15.23V227.67a4,4,0,0,1,6-3.43L1210.17,247a11.78,11.78,0,0,1,5.86,10.18Z"/>
      <path class="cls-4" d="M1220,232.87l7.27,4.22a11.78,11.78,0,0,1,5.86,10.18v23.92a6.44,6.44,0,0,1-2.33,4.95c-.27.23-17.62,10.31-17.94,10.49a6.4,6.4,0,0,1-6.42,0l-32.57-18.91a17.61,17.61,0,0,1-8.77-15.23V227.67a4,4,0,0,1,2-3.44l12.1-7"/>
      <line class="cls-4" x1="1191.5" y1="216.35" x2="1204.86" y2="224.11"/>
      <path class="cls-3" d="M1192.41,257.14l1.2,11.92-7.51-4.13,1.2-10.6a11.09,11.09,0,0,1-3.19-7.05c0-3.26,2.57-4.5,5.75-2.75s5.74,5.8,5.74,9.06C1195.6,255.92,1194.3,257.21,1192.41,257.14Z"/>
      <path class="cls-4" d="M1192.41,257.14l1.2,11.92-7.51-4.13,1.2-10.6a11.09,11.09,0,0,1-3.19-7.05c0-3.26,2.57-4.5,5.75-2.75s5.74,5.8,5.74,9.06C1195.6,255.92,1194.3,257.21,1192.41,257.14Z"/>
      <path class="cls-4" d="M1196.19,205.83c-4.11-2.3-7.88-2.46-10.84-.87a9.11,9.11,0,0,0-2.06,1.53l-.22.22a7.09,7.09,0,0,0-.71.82,4.59,4.59,0,0,0-.33.44,5,5,0,0,0-.34.51h0l-.3.51s0,0,0,.05-.17.29-.25.45l-.18.35c-.11.23-.21.45-.3.68a6.44,6.44,0,0,0-.24.61c-.05.13-.1.25-.15.39s-.15.45-.22.69-.11.37-.16.56l-.18.71c-.1.43-.18.87-.25,1.32a.09.09,0,0,0,0,.05c0,.17-.06.35-.08.54s0,.36-.07.54a.43.43,0,0,1,0,.05c0,.4-.08.81-.11,1.24l0,.47c0,.48,0,1,0,1.48v4.52l5.53,3.09v-4.53c0-7,3.48-11,8.27-10.23a10,10,0,0,1,3.31,1.19c6.31,3.52,11.44,13.13,11.57,21.6,0,.12,0,.23,0,.34v4.52l5.53,3.08v-4.52C1213.3,225.6,1205.64,211.09,1196.19,205.83Z"/>
      <path class="cls-4" d="M1213.72,242.76l6.3-4v-3.88c0-12.64-7.66-27.15-17.12-32.41-3.5-2-6.76-2.36-9.47-1.46-1.26.42-7.1,3-8.09,3.95m7.54,7.06a9.8,9.8,0,0,0-.83,1.88c-.06.18-.11.36-.16.54s-.1.38-.15.57-.08.39-.12.59-.07.4-.11.6v0q0,.22-.06.48a19,19,0,0,0-.12,2.19v4.53l-6.72,3.35"/>
    </g>
    <g>
      <path class="cls-1" d="M873.1,273.85v23.92a6.47,6.47,0,0,1-2.33,5c-.26.2-16.56,9.68-17.86,10.44l-.08,0a5.5,5.5,0,0,1-.77.38,6.28,6.28,0,0,1-1.61.43,6.83,6.83,0,0,1-1.65,0,3.69,3.69,0,0,1-.72-.15,6.15,6.15,0,0,1-1.67-.67l-32.57-18.91a17.59,17.59,0,0,1-8.77-15.23v-24.8a4,4,0,0,1,2-3.45l.05,0c.64-.37,7-4.08,12-6.94l12.47-1.65L860,259.45l7.27,4.23A11.74,11.74,0,0,1,873.1,273.85Z"/>
      <path class="cls-1" d="M860,261.47v3.89l-6.29,4-.42-.57v.57l-5.54-3.09V261.4c-.14-8.47-5.27-18.08-11.58-21.59a10,10,0,0,0-3.31-1.2,9.78,9.78,0,0,0-.82,1.88,5,5,0,0,0-.17.55c0,.18-.1.37-.14.57s-.09.38-.13.59-.07.39-.1.59v0c0,.16,0,.31-.07.48a21.59,21.59,0,0,0-.12,2.19V250l-6.72,3.35-5.53-3.09v-4.52c0-.5,0-1,0-1.48,0-.16,0-.31,0-.47,0-.42.06-.83.11-1.23v-.05c0-.19.05-.37.07-.55s0-.36.09-.54v-.05c.07-.45.16-.89.26-1.31q.07-.37.18-.72c0-.19.1-.38.16-.56a7,7,0,0,1,.22-.69c0-.13.09-.26.15-.39a6.25,6.25,0,0,1,.24-.6c.09-.23.19-.46.3-.68s.11-.25.17-.36.17-.3.25-.45l0,0c.1-.17.19-.34.3-.5s0,0,0,0c.11-.17.22-.34.34-.5a5.3,5.3,0,0,1,.34-.45,7,7,0,0,1,.71-.82,2.08,2.08,0,0,1,.21-.21,8.71,8.71,0,0,1,2.07-1.54c1-1,6.83-3.52,8.07-3.93,2.71-.91,6-.5,9.48,1.45C852.37,234.32,860,248.83,860,261.47Z"/>
      <path class="cls-4" d="M856,307.65a6.4,6.4,0,0,1-9.63,5.55l-32.57-18.91a17.6,17.6,0,0,1-8.77-15.23V254.25a4,4,0,0,1,6-3.43l39.16,22.74A11.76,11.76,0,0,1,856,283.73Z"/>
      <path class="cls-4" d="M860,259.45l7.28,4.22a11.78,11.78,0,0,1,5.86,10.18v23.92a6.44,6.44,0,0,1-2.33,5c-.28.23-17.63,10.31-17.94,10.49a6.38,6.38,0,0,1-6.42,0l-32.57-18.91a17.6,17.6,0,0,1-8.77-15.23V254.25a4,4,0,0,1,2-3.44c.26-.15,6.93-4,12.09-7"/>
      <line class="cls-4" x1="831.51" y1="242.93" x2="844.87" y2="250.69"/>
      <path class="cls-3" d="M832.42,283.72l1.21,11.92-7.51-4.13,1.2-10.59a11.14,11.14,0,0,1-3.19-7.06c0-3.26,2.57-4.5,5.74-2.75s5.74,5.8,5.74,9.07C835.61,282.5,834.32,283.8,832.42,283.72Z"/>
      <path class="cls-4" d="M832.42,283.72l1.21,11.92-7.51-4.13,1.2-10.59a11.14,11.14,0,0,1-3.19-7.06c0-3.26,2.57-4.5,5.74-2.75s5.74,5.8,5.74,9.07C835.61,282.5,834.32,283.8,832.42,283.72Z"/>
      <path class="cls-4" d="M836.2,232.41c-4.11-2.29-7.88-2.46-10.83-.87a8.71,8.71,0,0,0-2.07,1.54,2.08,2.08,0,0,0-.21.21,7,7,0,0,0-.71.82,5.3,5.3,0,0,0-.34.45c-.12.16-.23.33-.34.5,0,0,0,0,0,0s-.2.33-.3.5l0,0c-.08.15-.16.3-.25.45s-.11.24-.17.36-.21.45-.3.68a6.25,6.25,0,0,0-.24.6c-.06.13-.1.26-.15.39a7,7,0,0,0-.22.69c-.06.18-.11.37-.16.56s-.13.47-.18.72c-.1.42-.19.86-.26,1.31v.05c0,.18-.06.36-.09.54s-.05.36-.07.55v.05c0,.4-.09.81-.11,1.23,0,.16,0,.31,0,.47,0,.48,0,1,0,1.48v4.52l5.53,3.09v-4.53c0-7,3.49-11,8.27-10.23a10,10,0,0,1,3.31,1.2c6.31,3.51,11.44,13.12,11.58,21.59v4.86l5.54,3.09v-4.53C853.32,252.18,845.65,237.67,836.2,232.41Z"/>
      <path class="cls-4" d="M853.74,269.34l6.29-4v-3.89c0-12.64-7.66-27.15-17.11-32.41-3.51-1.95-6.76-2.36-9.48-1.45-1.25.41-7.1,3-8.09,3.94m7.54,7.06a9.78,9.78,0,0,0-.82,1.88,5,5,0,0,0-.17.55c0,.18-.1.37-.14.57s-.09.38-.13.59-.07.39-.1.59v0c0,.16,0,.31-.07.48a21.59,21.59,0,0,0-.12,2.19V250l-6.72,3.35"/>
    </g>
    <g>
      <path class="cls-1" d="M815.57,101.86v23.92a6.4,6.4,0,0,0,2.33,4.95c.26.21,16.56,9.69,17.85,10.44l.08.05a5.4,5.4,0,0,0,.77.37,6.52,6.52,0,0,0,1.61.44,7.7,7.7,0,0,0,.83.05,7.55,7.55,0,0,0,.83-.05,4.61,4.61,0,0,0,.72-.15,6.09,6.09,0,0,0,1.66-.67l32.57-18.91a17.58,17.58,0,0,0,8.77-15.23V82.27a4,4,0,0,0-2-3.45l0,0c-.64-.37-7-4.08-12-6.94L857,70.2,828.69,87.46l-7.27,4.23A11.75,11.75,0,0,0,815.57,101.86Z"/>
      <path class="cls-1" d="M828.63,89.48v3.88l6.3,4,.42-.56v.56l5.53-3.08V89.75c0-.11,0-.22,0-.34.13-8.47,5.26-18.08,11.57-21.6a10.26,10.26,0,0,1,3.31-1.2,10.89,10.89,0,0,1,.83,1.89c.06.18.11.36.16.54l.15.57c.05.19.08.39.12.59s.07.4.11.6v0l.06.48a19,19,0,0,1,.12,2.19V78L864,81.38l5.53-3.09V73.77c0-.51,0-1,0-1.48l0-.47c0-.43-.06-.84-.11-1.24a.43.43,0,0,1,0,0c0-.18,0-.36-.07-.54s-.05-.37-.08-.54a.09.09,0,0,0,0,0c-.07-.45-.15-.89-.25-1.32l-.18-.71c0-.19-.1-.38-.16-.56s-.15-.47-.22-.69-.1-.26-.15-.39a6.44,6.44,0,0,0-.24-.61c-.1-.23-.19-.45-.3-.68l-.18-.35c-.08-.16-.16-.3-.25-.45s0,0,0,0l-.3-.51h0q-.15-.26-.33-.51l-.34-.45a7.91,7.91,0,0,0-.71-.81,2.28,2.28,0,0,0-.22-.22,9.11,9.11,0,0,0-2.06-1.53c-1-1-6.83-3.52-8.08-3.94-2.71-.9-6-.5-9.47,1.46C836.3,62.33,828.63,76.84,828.63,89.48Z"/>
      <path class="cls-4" d="M832.62,135.66a6.42,6.42,0,0,0,9.64,5.55l32.57-18.91a17.61,17.61,0,0,0,8.77-15.23V82.26a4,4,0,0,0-6-3.43l-39.16,22.73a11.78,11.78,0,0,0-5.86,10.18Z"/>
      <path class="cls-4" d="M828.7,87.46l-7.27,4.22a11.77,11.77,0,0,0-5.86,10.18v23.92a6.44,6.44,0,0,0,2.33,4.95c.27.23,17.62,10.31,17.94,10.49a6.4,6.4,0,0,0,6.42,0l32.57-18.91a17.61,17.61,0,0,0,8.77-15.23V82.26a4,4,0,0,0-2-3.44l-12.1-7"/>
      <line class="cls-4" x1="857.15" y1="70.94" x2="843.79" y2="78.7"/>
      <path class="cls-3" d="M856.24,111.73,855,123.65l7.51-4.13-1.2-10.6a11.09,11.09,0,0,0,3.19-7c0-3.26-2.57-4.5-5.75-2.76s-5.74,5.81-5.74,9.07C853.05,110.51,854.35,111.8,856.24,111.73Z"/>
      <path class="cls-4" d="M856.24,111.73,855,123.65l7.51-4.13-1.2-10.6a11.09,11.09,0,0,0,3.19-7c0-3.26-2.57-4.5-5.75-2.76s-5.74,5.81-5.74,9.07C853.05,110.51,854.35,111.8,856.24,111.73Z"/>
      <path class="cls-4" d="M852.46,60.42c4.11-2.3,7.88-2.46,10.84-.87a9.11,9.11,0,0,1,2.06,1.53,2.28,2.28,0,0,1,.22.22,7.91,7.91,0,0,1,.71.81l.34.45q.18.25.33.51h0l.3.51s0,0,0,0,.17.29.25.45l.18.35c.11.23.2.45.3.68a6.44,6.44,0,0,1,.24.61c.05.13.1.25.15.39s.15.45.22.69.11.37.16.56l.18.71c.1.43.18.87.25,1.32a.09.09,0,0,1,0,0c0,.17.06.35.08.54s0,.36.07.54a.43.43,0,0,0,0,0c.05.4.08.81.11,1.24l0,.47c0,.48,0,1,0,1.48v4.52L864,81.38V76.85c0-7-3.48-11-8.27-10.24a10.26,10.26,0,0,0-3.31,1.2c-6.31,3.52-11.44,13.13-11.57,21.6,0,.12,0,.23,0,.34v4.52l-5.53,3.08V92.83C835.35,80.19,843,65.68,852.46,60.42Z"/>
      <path class="cls-4" d="M834.93,97.35l-6.3-4V89.48c0-12.64,7.66-27.15,17.12-32.42,3.5-2,6.76-2.35,9.47-1.45,1.26.42,7.1,3,8.09,4m-7.54,7a10.89,10.89,0,0,1,.83,1.89c.06.18.11.36.16.54s.1.38.15.57.08.39.12.59.07.4.11.6v0l.06.48a19,19,0,0,1,.12,2.19V78L864,81.38"/>
    </g>
    <g>
      <path class="cls-1" d="M454.17,288.42v23.92a6.44,6.44,0,0,0,2.33,5c.27.2,16.56,9.68,17.86,10.44l.08,0c.26.14.51.26.77.37a6.09,6.09,0,0,0,1.61.43,5.79,5.79,0,0,0,.83.06,5.55,5.55,0,0,0,.82-.06,3.76,3.76,0,0,0,.73-.14,6.22,6.22,0,0,0,1.66-.67l32.57-18.91a17.59,17.59,0,0,0,8.77-15.23V268.82a3.94,3.94,0,0,0-2-3.44l-.05,0c-.63-.38-7-4.09-12-6.94l-12.47-1.66L467.3,274,460,278.24A11.77,11.77,0,0,0,454.17,288.42Z"/>
      <path class="cls-1" d="M467.24,276v3.88l6.29,4,.43-.56v.56l5.53-3.08V276.3c0-.11,0-.22,0-.33.13-8.47,5.26-18.08,11.57-21.6a10.18,10.18,0,0,1,3.31-1.2,10.89,10.89,0,0,1,.83,1.89c.06.17.11.35.16.54s.1.38.14.57.09.39.13.59.07.4.1.6v0c0,.16.05.31.07.47a19.34,19.34,0,0,1,.12,2.2v4.52l6.72,3.35,5.53-3.08v-4.52c0-.51,0-1,0-1.48,0-.16,0-.32,0-.48,0-.42-.07-.83-.11-1.23,0,0,0,0,0-.05,0-.18,0-.37-.07-.55s-.05-.36-.08-.53a.07.07,0,0,0,0,0c-.07-.45-.16-.89-.26-1.32-.05-.25-.11-.48-.18-.72s-.1-.37-.16-.55-.14-.47-.21-.7l-.15-.38c-.07-.21-.16-.41-.24-.61s-.2-.45-.31-.68l-.17-.36-.25-.44a.05.05,0,0,0,0,0q-.13-.26-.3-.51h0c-.11-.17-.22-.34-.34-.51s-.22-.31-.34-.45a7.83,7.83,0,0,0-.7-.81l-.22-.22a9.11,9.11,0,0,0-2.06-1.53c-1-1-6.83-3.52-8.08-3.94-2.71-.9-6-.5-9.48,1.45C474.9,248.89,467.24,263.39,467.24,276Z"/>
      <path class="cls-4" d="M471.23,322.22a6.42,6.42,0,0,0,9.64,5.55l32.57-18.91a17.65,17.65,0,0,0,8.77-15.24v-24.8a4,4,0,0,0-6-3.43l-39.15,22.73a11.78,11.78,0,0,0-5.86,10.18Z"/>
      <path class="cls-4" d="M467.31,274,460,278.24a11.79,11.79,0,0,0-5.86,10.18v23.92a6.41,6.41,0,0,0,2.34,5c.27.22,17.62,10.31,17.93,10.49a6.42,6.42,0,0,0,6.43,0l32.57-18.91a17.65,17.65,0,0,0,8.77-15.24v-24.8a4,4,0,0,0-2-3.44c-.26-.15-6.93-4-12.09-7"/>
      <line class="cls-4" x1="495.76" y1="257.49" x2="482.4" y2="265.25"/>
      <path class="cls-3" d="M494.85,298.29l-1.2,11.92,7.51-4.13-1.2-10.6a11.1,11.1,0,0,0,3.18-7.05c0-3.27-2.57-4.5-5.74-2.76s-5.74,5.81-5.74,9.07C491.66,297.06,493,298.36,494.85,298.29Z"/>
      <path class="cls-4" d="M494.85,298.29l-1.2,11.92,7.51-4.13-1.2-10.6a11.1,11.1,0,0,0,3.18-7.05c0-3.27-2.57-4.5-5.74-2.76s-5.74,5.81-5.74,9.07C491.66,297.06,493,298.36,494.85,298.29Z"/>
      <path class="cls-4" d="M491.07,247c4.11-2.29,7.88-2.45,10.84-.86a9.11,9.11,0,0,1,2.06,1.53l.22.22a7.83,7.83,0,0,1,.7.81c.12.14.23.3.34.45s.23.34.34.51h0q.17.26.3.51a.05.05,0,0,1,0,0l.25.44.17.36c.11.23.21.45.31.68s.17.4.24.61l.15.38c.07.23.15.46.21.7s.11.37.16.55.13.47.18.72c.1.43.19.87.26,1.32a.07.07,0,0,1,0,0c0,.17.06.35.08.53s.05.37.07.55c0,0,0,0,0,.05,0,.4.08.81.11,1.23,0,.16,0,.32,0,.48,0,.48,0,1,0,1.48v4.52l-5.53,3.08v-4.52c0-7-3.49-11-8.27-10.24a10.18,10.18,0,0,0-3.31,1.2c-6.31,3.52-11.44,13.13-11.57,21.6,0,.11,0,.22,0,.33v4.53L474,283.91v-4.53C474,266.74,481.62,252.23,491.07,247Z"/>
      <path class="cls-4" d="M473.54,283.91l-6.3-4V276c0-12.64,7.66-27.15,17.11-32.42,3.51-2,6.77-2.36,9.48-1.45,1.25.42,7.1,3,8.09,4m-7.54,7a10.89,10.89,0,0,1,.83,1.89c.06.17.11.35.16.54s.1.38.14.57.09.39.13.59.07.4.1.6v0c0,.15.05.31.07.47a19.34,19.34,0,0,1,.12,2.2v4.52l6.72,3.35"/>
    </g>
    <g>
      <path class="cls-1" d="M506.19,474.08a55.77,55.77,0,1,0-55.77,55.77A55.77,55.77,0,0,0,506.19,474.08Z"/>
      <path class="cls-4" d="M506.19,474.08a55.77,55.77,0,1,0-55.77,55.77A55.77,55.77,0,0,0,506.19,474.08Z"/>
      <path class="cls-3" d="M457.2,503.86h-6.28v-7.3h-4v7.31h-6.28v-7.37H427.38v-6.21h.55c.83,0,1.65,0,2.48,0a2,2,0,0,0,2.17-2.23c0-.63.06-1.27.06-1.9q0-11.42,0-22.83c0-1,0-2.06,0-3.09a2.09,2.09,0,0,0-2.18-2.25c-.83-.05-1.67,0-2.52-.05l-.5,0c0-2.1,0-4.13,0-6.23h13.27V444.3H447c0,2.44,0,4.87,0,7.31h4V444.3h6.28c0,.19,0,.38,0,.57,0,2.14,0,4.28,0,6.42,0,.48.1.72.63.74a8.42,8.42,0,0,1,1.21.18,13.26,13.26,0,0,1,6,2.64,9.81,9.81,0,0,1,2.25,13,11.84,11.84,0,0,1-6.13,4.72l-.53.22a1,1,0,0,0,.49.26,16.1,16.1,0,0,1,4.71,2,9.7,9.7,0,0,1,4.3,6.15c1.06,4.87-.57,8.82-4.45,11.86a16.17,16.17,0,0,1-8,3.05c-.46.06-.57.21-.56.64C457.22,499.08,457.21,501.47,457.2,503.86Zm-13.47-27.42c0,.15,0,.24,0,.34,0,3.15,0,6.31,0,9.46q0,1,.12,2a.91.91,0,0,0,.91.92c1.52.07,3,.14,4.56.12a37.06,37.06,0,0,0,3.93-.27,6.23,6.23,0,0,0,3.64-1.67,6.51,6.51,0,0,0,2-4.66,5.49,5.49,0,0,0-3.55-5.52,12.32,12.32,0,0,0-4.28-.74c-2.32-.06-4.63,0-6.94,0Zm0-6.64a3.32,3.32,0,0,0,.41,0c1.53,0,3.07,0,4.61,0a20.1,20.1,0,0,0,5.18-.54,5.37,5.37,0,0,0,3.27-2.2c1.75-2.68.85-7-3.07-7.76a17.92,17.92,0,0,0-2.92-.36c-2.36-.07-4.72-.05-7.08-.07a3,3,0,0,0-.39,0C443.75,462.56,443.75,466.15,443.74,469.8Z"/>
    </g>
    <g>
      <path class="cls-1" d="M441.71,543.88V567.8a6.44,6.44,0,0,0,2.33,5c.26.21,16.56,9.69,17.86,10.44l.08,0a4.54,4.54,0,0,0,.77.37,6.29,6.29,0,0,0,1.61.44,6.83,6.83,0,0,0,1.65,0,4.61,4.61,0,0,0,.72-.15,6.15,6.15,0,0,0,1.67-.67L501,564.32a17.6,17.6,0,0,0,8.77-15.23v-24.8a4,4,0,0,0-2-3.45l-.05,0c-.64-.37-7-4.08-12.05-6.94l-12.47-1.65-28.34,17.25-7.27,4.23A11.74,11.74,0,0,0,441.71,543.88Z"/>
      <path class="cls-1" d="M454.78,531.5v3.88l6.29,4,.42-.57v.57l5.54-3.09v-4.52c0-.11,0-.22,0-.34.13-8.47,5.26-18.08,11.57-21.59a9.74,9.74,0,0,1,3.31-1.2,10.46,10.46,0,0,1,.83,1.88c.06.18.11.36.16.54s.1.38.14.57.09.39.13.6.07.39.1.59v0c0,.16.05.31.07.48a21.59,21.59,0,0,1,.12,2.19v4.53l6.72,3.35,5.53-3.09v-4.52c0-.51,0-1,0-1.48,0-.16,0-.31,0-.47,0-.43-.06-.84-.11-1.24v-.05c0-.18-.05-.36-.07-.54a4.68,4.68,0,0,0-.09-.54v-.05c-.07-.45-.16-.89-.26-1.32-.05-.24-.11-.48-.18-.71s-.1-.38-.16-.56a7,7,0,0,0-.22-.69c-.05-.13-.09-.26-.15-.39a6.44,6.44,0,0,0-.24-.61c-.09-.23-.19-.45-.3-.68s-.11-.24-.17-.35l-.25-.45s0,0,0-.05l-.3-.5s0,0,0,0l-.34-.51c-.11-.15-.22-.3-.34-.44a6.24,6.24,0,0,0-.71-.82l-.21-.22a8.94,8.94,0,0,0-2.07-1.53c-1-1-6.83-3.52-8.07-3.94-2.71-.9-6-.5-9.48,1.46C462.44,504.35,454.78,518.86,454.78,531.5Z"/>
      <path class="cls-4" d="M458.77,577.68a6.41,6.41,0,0,0,9.63,5.55L501,564.32a17.61,17.61,0,0,0,8.77-15.23V524.28a4,4,0,0,0-6-3.43l-39.15,22.73a11.78,11.78,0,0,0-5.86,10.18Z"/>
      <path class="cls-4" d="M454.85,529.48l-7.28,4.22a11.8,11.8,0,0,0-5.86,10.18V567.8a6.44,6.44,0,0,0,2.33,5c.28.23,17.63,10.31,17.94,10.49a6.4,6.4,0,0,0,6.42,0L501,564.32a17.61,17.61,0,0,0,8.77-15.23V524.28a4,4,0,0,0-2-3.44c-.26-.15-6.93-4-12.09-7"/>
      <line class="cls-4" x1="483.3" y1="512.96" x2="469.94" y2="520.72"/>
      <path class="cls-3" d="M482.39,553.75l-1.21,11.92,7.52-4.13-1.21-10.6a11.09,11.09,0,0,0,3.19-7.05c0-3.26-2.57-4.5-5.74-2.75s-5.74,5.8-5.74,9.06C479.2,552.53,480.5,553.82,482.39,553.75Z"/>
      <path class="cls-4" d="M482.39,553.75l-1.21,11.92,7.52-4.13-1.21-10.6a11.09,11.09,0,0,0,3.19-7.05c0-3.26-2.57-4.5-5.74-2.75s-5.74,5.8-5.74,9.06C479.2,552.53,480.5,553.82,482.39,553.75Z"/>
      <path class="cls-4" d="M478.61,502.44c4.11-2.3,7.88-2.46,10.83-.87a8.94,8.94,0,0,1,2.07,1.53l.21.22a6.24,6.24,0,0,1,.71.82c.12.14.23.29.34.44l.34.51s0,0,0,0l.3.5s0,0,0,.05l.25.45c.06.11.11.23.17.35s.21.45.3.68a6.44,6.44,0,0,1,.24.61c.06.13.1.26.15.39a7,7,0,0,1,.22.69c.06.18.11.37.16.56s.13.47.18.71c.1.43.19.87.26,1.32v.05a4.68,4.68,0,0,1,.09.54c0,.18,0,.36.07.54v.05c0,.4.09.81.11,1.24,0,.16,0,.31,0,.47,0,.48,0,1,0,1.48v4.52l-5.53,3.09v-4.53c0-7-3.49-11-8.27-10.23a9.74,9.74,0,0,0-3.31,1.2C472.3,513.35,467.17,523,467,531.43c0,.12,0,.23,0,.34v4.52l-5.54,3.09v-4.53C461.49,522.21,469.16,507.7,478.61,502.44Z"/>
      <path class="cls-4" d="M461.07,539.37l-6.29-4V531.5c0-12.64,7.66-27.15,17.11-32.41,3.51-2,6.76-2.36,9.48-1.46,1.25.42,7.1,3,8.09,3.95m-7.54,7.06a10.46,10.46,0,0,1,.83,1.88c.06.18.11.36.16.54s.1.38.14.57.09.39.13.6.07.39.1.59v0c0,.15.05.31.07.48a21.59,21.59,0,0,1,.12,2.19v4.53l6.72,3.35"/>
    </g>
  </g>
</svg>
