<svg id="work" xmlns="http://www.w3.org/2000/svg" viewBox="0 0 1422 870">
  <defs>
    <style>
      .cls-1 {
        fill: #fff;
      }

      .cls-2, .cls-3 {
        fill: #ebebeb;
      }

      .cls-3, .cls-4, .cls-5 {
        stroke: #4a4a4a;
      }

      .cls-3, .cls-4, .cls-5, .cls-7 {
        stroke-linecap: round;
        stroke-linejoin: round;
      }

      .cls-3, .cls-5, .cls-7 {
        stroke-width: 2.5px;
      }

      .cls-4, .cls-5, .cls-7 {
        fill: none;
      }

      .cls-4 {
        stroke-width: 4px;
      }

      .cls-6 {
        fill: #ff0083;
      }

      .cls-7 {
        stroke: #ff0083;
        stroke-dasharray: 5 7;
      }
    </style>
  </defs>
  <title>20,2</title>
  <g>
    <ellipse class="cls-1" cx="914.24" cy="446.96" rx="291.91" ry="293"/>
    <path class="cls-2" d="M736.77,681.06c5.77-11.8,1.14-25.55,1.14-25.55-.51-4.38-.8-8.83-1.45-13.16-1.65-10.88-5-17.15-9.83-27-4-8.18-8.42-17.57-20-17.07-5.26.23-10.61,3.21-16,4-4.5.67-8.78,0-13,1l-10.11,1.26a287.92,287.92,0,0,1-22.85-45c-62-161.74,18.13-277.59,76.49-331.7l1.47,5.44c-1.8,7.56,9.86,10.08,12,17,1.92,6.16-1.31,18.54-2,25-1.78,16.26-17.79,20.81-31,30-7.72,5.36-13.94,8.3-15,18s-.34,19.25-1.95,29.17c-1.52,9.42-2.65,18.94-6.1,27.78-2.43,6.24-6.62,11.36-8.92,18-5.48,16,7.54,19.43,13.24,33,5.29,12.56,5.41,27.48,7.95,41,3,19,4.78,23.25,12.28,21s9.53-14,0-28.51a12.32,12.32,0,0,1-1.69-6.18c-.63-12.07,8.43-11,13.41-2.77,6.24,10.34,5.09,25.27,10,36.43,6.31,14.36,13,29.17,19.51,43,7.42,15.76,11.63,18.54,26.24,26,9,4.56,19.37,5.24,27.16,12,3.65,3.17,4,6.5,8.53,9,6.36,3.46,15,3.23,21.93,6.07,18.79,7.74,46.34,29.23,26.41,51-10.36,11.29-28.24,18.62-23.22,37.22,3.92,14.53,20.31,19.92,33.22,21.8,17.32,2.54,26.29,5.58,37.78,20.18,2.9,3.68,6.79,10.57,9.22,11.8,0,0,6.06,8.07,6.1,8.07C837.64,737.93,779,713.15,736.77,681.06Z"/>
    <path class="cls-2" d="M1009.68,176.28c-12.47-.17-24.93,6.05-36,12.75-12.5,7.55-23.25,2.93-35.2-3.47-14-7.51-25.49-6.21-40.75-6.26-7.63,0-14.53.09-22,0-10.12-.14-10.52-2.58-15-11,0,0-1.66-6-3.28-7.57-44.78,10.77-71.71,20.89-108,45.21,0,0,2.58,5.36,4.24,4.36,8.55,3.57,14.64,1.13,23,2,10.24,1.1,8.35,5.67,10,16,3.64,22.63,17.2,7.37,34,11,15.6,3.38,21.83,28.5,22,43,.2,15-15.13,31,1,45,16.59,14.41,41.92-31.71,60.25-16.26,6,5.09,13.31,31.42,23.07,14.11,7.93-14.07.37-38.09,25.3-28.89,7.89,2.91,10.55,8.74,11.35,17,1.34,13.78,8.7,35.45,2.8,48.78-2.94,6.65-10.22,8.69-14.52,14.25-5.67,7.32-5,13.26-6.26,22-1.52,10.33-5.62,11.72-12,19.22-6.79,8-5.7,13.06-5.22,22.78.39,7.84,1,16.83-1.8,24-3.11,7.86-7.41,8.33-14.95,12.25-16.56,8.62-19,21.86-19,39.75,0,28.67-10.22,2.67-17-8-11.83-18.65-28.07-5.44-43,3.75-16.8,10.35-23.73,10.57-40.76,2-17.81-9-21.92,10.22-11.52,22.5,5.94,7,10.06,10.07,19.27,11.8,7.56,1.42,16.11-.38,22.25,5.68s4.18,13.36,11.73,18.3c5.49,3.6,13.39,5.25,18.22,8.78,6.74,4.94,8.59,12.92,13.75,19,13.15,15.48,20-18.61,36.1-12.86,5.2,1.86,7.09,7.24,10.92,10.63s7.12,3.78,10.87,6.5c1.86,1.35.89,4.86,3,5.92,5.62,2.81,10.82,1.37,16.49-.3,10.74-3.16,26.5.56,35.69-7.68,2.69-2.41,2.5-5,6.2-7.74,3.94-2.92,12.85-6.09,17.82-6.33,1.31-.06,8.1,1.39,8.95,2,5.51,3.95,1.19,5.09,4.2,9.85s9.19,7.16,12.81,11.4c10.2,11.94.36,26.9-6.2,38.85-3.52,6.41-7.3,11.8-9.8,18.88-3.35,9.51-11.61,15.17-16.41,23.7-5.64,10-6.66,22.39-9.6,33.37l2.57,2.21c62.44-21.21,145.48-54.9,197.29-178.72-1.19-3.49-4.86-8.49-4.86-8.49-3-3.7-3.64-10.76-6.24-15.78-3.29-6.34-5.88-11.29-7.73-18.22-5.61-21.07-2.4-40.47,10.6-58.39,3.88-5.35,11-8.34,9.67-14.88-.39-1.91-3.66-6.21-5-8-3.2-4.21-13-10.56-14-15.94-1.28-6.9,6.92-13.19,5.77-20.78-1.07-7.14-9.36-11.54-8.77-19.78.52-7.21,10.31-19.12,15.77-23.22l4.79-2.58c-26.78-96.08-129.6-155.91-169.69-169.67C1016.41,173.9,1009.68,176.28,1009.68,176.28Z"/>
    <g>
      <g>
        <rect class="cls-3" x="226.53" y="221.01" width="319.02" height="474.05" rx="15.46" ry="15.46"/>
        <polygon class="cls-1" points="536.59 303.61 531.01 308.49 532.52 308.49 532.52 398.01 531.4 399.17 532.52 398.56 532.52 482.38 532.96 599.8 536.59 603.91 536.59 683.66 233.85 683.66 233.85 228.74 536.59 228.74 536.59 303.61"/>
        <polygon class="cls-2" points="532.52 327.21 515.98 341.86 515.98 417.66 533.13 400.51 533.13 420.47 515.98 435.36 515.98 501.76 531.84 485.73 532.52 500.28 515.16 519.66 515.16 588.91 502.69 581.12 503.5 333.87 532.52 304.54 532.52 327.21"/>
        <polygon class="cls-4" points="536.59 683.66 233.85 683.66 233.85 228.74 536.59 228.74 536.59 303.61 504.04 332.09 504.04 581.12 536.59 603.91 536.59 683.66"/>
        <polyline class="cls-5" points="532.52 308.49 532.52 398.01 504.45 426.9"/>
        <polyline class="cls-5" points="532.52 398.56 532.52 482.38 504.45 511.27"/>
        <line class="cls-5" x1="532.52" y1="482.38" x2="532.52" y2="601.06"/>
        <path class="cls-3" d="M262.61,262.1a11.67,11.67,0,1,0-11.67,11.67A11.66,11.66,0,0,0,262.61,262.1Z"/>
        <path class="cls-3" d="M262.61,304.54a11.67,11.67,0,1,0-11.67,11.67A11.66,11.66,0,0,0,262.61,304.54Z"/>
        <path class="cls-3" d="M262.61,347.16a11.67,11.67,0,1,0-11.67,11.67A11.66,11.66,0,0,0,262.61,347.16Z"/>
        <path class="cls-3" d="M262.61,389.69a11.67,11.67,0,1,0-11.67,11.67A11.66,11.66,0,0,0,262.61,389.69Z"/>
        <path class="cls-3" d="M262.61,432.13a11.67,11.67,0,1,0-11.67,11.67A11.66,11.66,0,0,0,262.61,432.13Z"/>
        <path class="cls-3" d="M262.61,474.75a11.67,11.67,0,1,0-11.67,11.67A11.66,11.66,0,0,0,262.61,474.75Z"/>
        <path class="cls-3" d="M262.61,517.1a11.67,11.67,0,1,0-11.67,11.67A11.66,11.66,0,0,0,262.61,517.1Z"/>
        <path class="cls-3" d="M262.61,559.54a11.67,11.67,0,1,0-11.67,11.67A11.66,11.66,0,0,0,262.61,559.54Z"/>
        <path class="cls-3" d="M262.61,602.16a11.67,11.67,0,1,0-11.67,11.67A11.66,11.66,0,0,0,262.61,602.16Z"/>
        <path class="cls-3" d="M262.61,644.69a11.67,11.67,0,1,0-11.67,11.66A11.67,11.67,0,0,0,262.61,644.69Z"/>
        <g>
          <line class="cls-5" x1="219.75" y1="258.85" x2="253.38" y2="258.85"/>
          <line class="cls-5" x1="219.75" y1="265.9" x2="253.38" y2="265.9"/>
          <line class="cls-5" x1="219.75" y1="301.23" x2="253.38" y2="301.23"/>
          <line class="cls-5" x1="219.75" y1="308.28" x2="253.38" y2="308.28"/>
          <line class="cls-5" x1="219.75" y1="343.61" x2="253.38" y2="343.61"/>
          <line class="cls-5" x1="219.75" y1="350.66" x2="253.38" y2="350.66"/>
          <line class="cls-5" x1="219.75" y1="385.99" x2="253.38" y2="385.99"/>
          <line class="cls-5" x1="219.75" y1="393.04" x2="253.38" y2="393.04"/>
          <line class="cls-5" x1="219.75" y1="428.36" x2="253.38" y2="428.36"/>
          <line class="cls-5" x1="219.75" y1="435.42" x2="253.38" y2="435.42"/>
          <line class="cls-5" x1="219.75" y1="470.74" x2="253.38" y2="470.74"/>
          <line class="cls-5" x1="219.75" y1="477.8" x2="253.38" y2="477.8"/>
          <line class="cls-5" x1="219.75" y1="513.12" x2="253.38" y2="513.12"/>
          <line class="cls-5" x1="219.75" y1="520.18" x2="253.38" y2="520.18"/>
          <line class="cls-5" x1="219.75" y1="555.5" x2="253.38" y2="555.5"/>
          <line class="cls-5" x1="219.75" y1="562.55" x2="253.38" y2="562.55"/>
          <line class="cls-5" x1="219.75" y1="597.88" x2="253.38" y2="597.88"/>
          <line class="cls-5" x1="219.75" y1="604.93" x2="253.38" y2="604.93"/>
          <line class="cls-5" x1="219.75" y1="640.26" x2="253.38" y2="640.26"/>
          <line class="cls-5" x1="219.75" y1="647.31" x2="253.38" y2="647.31"/>
        </g>
        <g>
          <g>
            <path class="cls-6" d="M304.46,318H300.8v3.57h-2.71V318h-3.63V315.4h3.63v-3.57h2.71v3.57h3.66Z"/>
            <path class="cls-6" d="M311.79,309.33V324h-3.41v-12h-2.94v-2.73Z"/>
            <path class="cls-6" d="M334,317.72a3.65,3.65,0,0,1,.72,2.3,3.39,3.39,0,0,1-1.5,3,7.74,7.74,0,0,1-4.38,1h-7.6v-14.7h7.18a7,7,0,0,1,4.12,1,3.26,3.26,0,0,1,1.44,2.79,3.59,3.59,0,0,1-.51,1.91,3.77,3.77,0,0,1-1.44,1.33A3.82,3.82,0,0,1,334,317.72Zm-9.38-5.83v3.47H328a3.46,3.46,0,0,0,1.91-.44,1.49,1.49,0,0,0,.65-1.31,1.46,1.46,0,0,0-.65-1.29,3.55,3.55,0,0,0-1.91-.43Zm6,9.14a1.51,1.51,0,0,0,.68-1.37c0-1.22-.9-1.82-2.71-1.82h-4v3.63h4A3.8,3.8,0,0,0,330.59,321Z"/>
            <path class="cls-6" d="M340.12,312.1h-4.71v-2.77h12.81v2.77h-4.7V324h-3.4Z"/>
            <path class="cls-6" d="M352.81,323.31A7.38,7.38,0,0,1,350,320.6a7.91,7.91,0,0,1,0-7.84,7.36,7.36,0,0,1,2.86-2.7,8.37,8.37,0,0,1,4.08-1,8.54,8.54,0,0,1,3.46.67,6.92,6.92,0,0,1,2.59,1.93l-2.18,2a4.7,4.7,0,0,0-3.7-1.72,4.86,4.86,0,0,0-2.43.6,4.17,4.17,0,0,0-1.67,1.66,5.26,5.26,0,0,0,0,4.88,4.26,4.26,0,0,0,1.67,1.67,4.86,4.86,0,0,0,2.43.59,4.69,4.69,0,0,0,3.7-1.74l2.18,2a6.89,6.89,0,0,1-2.6,1.95,8.63,8.63,0,0,1-3.47.67A8.43,8.43,0,0,1,352.81,323.31Z"/>
            <path class="cls-6" d="M370.52,316.81h6v2.62h-6Z"/>
            <path class="cls-6" d="M378.75,316.81h5.95v2.62h-5.95Z"/>
            <path class="cls-6" d="M387,316.81h5.94v2.62H387Z"/>
            <path class="cls-6" d="M395.22,316.81h5.94v2.62h-5.94Z"/>
            <path class="cls-6" d="M403.45,316.81h5.94v2.62h-5.94Z"/>
            <path class="cls-6" d="M411.68,316.81h5.94v2.62h-5.94Z"/>
            <path class="cls-6" d="M419.91,316.81h5.95v2.62h-5.95Z"/>
            <path class="cls-6" d="M428.14,316.81h5.95v2.62h-5.95Z"/>
            <path class="cls-6" d="M436.38,316.81h5.94v2.62h-5.94Z"/>
            <path class="cls-6" d="M304.46,358H300.8v3.57h-2.71V358h-3.63V355.4h3.63v-3.57h2.71v3.57h3.66Z"/>
            <path class="cls-6" d="M311.79,349.33V364h-3.41v-12h-2.94v-2.73Z"/>
            <path class="cls-6" d="M317.39,363.38a6,6,0,0,1-2.23-2.61,10.71,10.71,0,0,1,0-8.17,6.08,6.08,0,0,1,2.23-2.62,6.34,6.34,0,0,1,6.51,0,6.1,6.1,0,0,1,2.24,2.62,10.71,10.71,0,0,1,0,8.17,6.07,6.07,0,0,1-2.24,2.61,6.34,6.34,0,0,1-6.51,0Zm5.37-3.13a8.66,8.66,0,0,0,0-7.14,2.49,2.49,0,0,0-4.2,0,8.66,8.66,0,0,0,0,7.14,2.48,2.48,0,0,0,4.2,0Z"/>
            <path class="cls-6" d="M342.3,357.72A3.71,3.71,0,0,1,343,360a3.39,3.39,0,0,1-1.5,3,7.7,7.7,0,0,1-4.38,1h-7.6v-14.7h7.18a7,7,0,0,1,4.13,1,3.26,3.26,0,0,1,1.44,2.79,3.51,3.51,0,0,1-.52,1.91,3.67,3.67,0,0,1-1.43,1.33A3.86,3.86,0,0,1,342.3,357.72Zm-9.39-5.83v3.47h3.38a3.43,3.43,0,0,0,1.91-.44,1.47,1.47,0,0,0,.65-1.31,1.44,1.44,0,0,0-.65-1.29,3.53,3.53,0,0,0-1.91-.43Zm6,9.14a1.53,1.53,0,0,0,.68-1.37c0-1.22-.9-1.82-2.71-1.82h-4v3.63h4A3.82,3.82,0,0,0,338.91,361Z"/>
            <path class="cls-6" d="M348.43,352.1h-4.7v-2.77h12.81v2.77h-4.71V364h-3.4Z"/>
            <path class="cls-6" d="M361.13,363.31a7.25,7.25,0,0,1-2.86-2.71,7.91,7.91,0,0,1,0-7.84,7.22,7.22,0,0,1,2.86-2.7,8.37,8.37,0,0,1,4.08-1,8.49,8.49,0,0,1,3.45.67,7,7,0,0,1,2.6,1.93l-2.19,2a4.67,4.67,0,0,0-3.69-1.72,4.93,4.93,0,0,0-2.44.6,4.23,4.23,0,0,0-1.67,1.66,5.26,5.26,0,0,0,0,4.88,4.32,4.32,0,0,0,1.67,1.67,4.92,4.92,0,0,0,2.44.59,4.66,4.66,0,0,0,3.69-1.74l2.19,2a6.85,6.85,0,0,1-2.61,1.95,8.58,8.58,0,0,1-3.46.67A8.43,8.43,0,0,1,361.13,363.31Z"/>
            <path class="cls-6" d="M372.77,356.81h5.94v2.62h-5.94Z"/>
            <path class="cls-6" d="M381,356.81h5.94v2.62H381Z"/>
            <path class="cls-6" d="M389.23,356.81h5.95v2.62h-5.95Z"/>
            <path class="cls-6" d="M397.46,356.81h6v2.62h-6Z"/>
            <path class="cls-6" d="M405.7,356.81h5.94v2.62H405.7Z"/>
            <path class="cls-6" d="M413.93,356.81h5.94v2.62h-5.94Z"/>
            <path class="cls-6" d="M422.16,356.81h5.94v2.62h-5.94Z"/>
            <path class="cls-6" d="M430.39,356.81h5.94v2.62h-5.94Z"/>
            <path class="cls-6" d="M438.62,356.81h5.95v2.62h-5.95Z"/>
            <path class="cls-6" d="M294.25,396.81h5.94v2.62h-5.94Z"/>
            <path class="cls-6" d="M311.49,396.75a4,4,0,0,1,1,2.79,4.37,4.37,0,0,1-.67,2.36,4.66,4.66,0,0,1-2.05,1.73,7.76,7.76,0,0,1-3.37.65,11.21,11.21,0,0,1-3.05-.41,7.85,7.85,0,0,1-2.56-1.16l1.33-2.61a6.32,6.32,0,0,0,1.94,1,7.51,7.51,0,0,0,2.26.35,3.56,3.56,0,0,0,2-.5,1.58,1.58,0,0,0,.74-1.39c0-1.21-.92-1.81-2.75-1.81h-1.56v-2.25l3-3.42h-6.26v-2.73h10.29v2.21l-3.32,3.78A5,5,0,0,1,311.49,396.75Z"/>
            <path class="cls-6" d="M327.79,397.72a3.71,3.71,0,0,1,.71,2.3,3.39,3.39,0,0,1-1.5,3,7.7,7.7,0,0,1-4.38,1H315v-14.7h7.18a7,7,0,0,1,4.13,1,3.26,3.26,0,0,1,1.44,2.79,3.51,3.51,0,0,1-.52,1.91,3.63,3.63,0,0,1-1.44,1.33A3.89,3.89,0,0,1,327.79,397.72Zm-9.39-5.83v3.47h3.38a3.43,3.43,0,0,0,1.91-.44,1.47,1.47,0,0,0,.65-1.31,1.44,1.44,0,0,0-.65-1.29,3.53,3.53,0,0,0-1.91-.43Zm6,9.14a1.53,1.53,0,0,0,.68-1.37c0-1.22-.9-1.82-2.71-1.82h-4v3.63h4A3.82,3.82,0,0,0,324.4,401Z"/>
            <path class="cls-6" d="M333.92,392.1h-4.7v-2.77H342v2.77h-4.71V404h-3.4Z"/>
            <path class="cls-6" d="M346.61,403.31a7.29,7.29,0,0,1-2.85-2.71,7.91,7.91,0,0,1,0-7.84,7.26,7.26,0,0,1,2.85-2.7,8.44,8.44,0,0,1,4.09-1,8.53,8.53,0,0,1,3.45.67,7,7,0,0,1,2.6,1.93l-2.19,2a4.67,4.67,0,0,0-3.69-1.72,4.93,4.93,0,0,0-2.44.6,4.23,4.23,0,0,0-1.67,1.66,5.26,5.26,0,0,0,0,4.88,4.32,4.32,0,0,0,1.67,1.67,4.92,4.92,0,0,0,2.44.59,4.66,4.66,0,0,0,3.69-1.74l2.19,2a6.85,6.85,0,0,1-2.61,1.95,9.13,9.13,0,0,1-7.53-.3Z"/>
            <path class="cls-6" d="M358.26,396.81h5.94v2.62h-5.94Z"/>
            <path class="cls-6" d="M366.49,396.81h5.94v2.62h-5.94Z"/>
            <path class="cls-6" d="M374.72,396.81h5.95v2.62h-5.95Z"/>
            <path class="cls-6" d="M383,396.81h5.95v2.62H383Z"/>
            <path class="cls-6" d="M391.19,396.81h5.94v2.62h-5.94Z"/>
            <path class="cls-6" d="M399.42,396.81h5.94v2.62h-5.94Z"/>
            <path class="cls-6" d="M407.65,396.81h5.94v2.62h-5.94Z"/>
            <path class="cls-6" d="M415.88,396.81h5.94v2.62h-5.94Z"/>
            <path class="cls-6" d="M424.11,396.81h5.95v2.62h-5.95Z"/>
            <path class="cls-6" d="M432.34,396.81h6v2.62h-6Z"/>
            <path class="cls-6" d="M440.58,396.81h5.94v2.62h-5.94Z"/>
            <path class="cls-6" d="M304.46,438H300.8v3.57h-2.71V438h-3.63V435.4h3.63v-3.57h2.71v3.57h3.66Z"/>
            <path class="cls-6" d="M317.2,441.26V444H306.1v-2.2l5.67-5.36A6,6,0,0,0,313,435a2.68,2.68,0,0,0,.32-1.23,1.6,1.6,0,0,0-.6-1.35,2.74,2.74,0,0,0-1.75-.48,4.12,4.12,0,0,0-1.75.37,3.52,3.52,0,0,0-1.3,1.1l-2.48-1.59a6,6,0,0,1,2.38-2,7.93,7.93,0,0,1,3.46-.72,7.28,7.28,0,0,1,2.87.53,4.48,4.48,0,0,1,1.91,1.52,3.93,3.93,0,0,1,.68,2.3,5.2,5.2,0,0,1-.5,2.24,8.77,8.77,0,0,1-2,2.4l-3.38,3.19Z"/>
            <path class="cls-6" d="M329.59,441.26V444h-11.1v-2.2l5.67-5.36a6,6,0,0,0,1.21-1.48,2.68,2.68,0,0,0,.32-1.23,1.6,1.6,0,0,0-.6-1.35,2.74,2.74,0,0,0-1.75-.48,4.12,4.12,0,0,0-1.75.37,3.52,3.52,0,0,0-1.3,1.1l-2.48-1.59a6,6,0,0,1,2.38-2,7.93,7.93,0,0,1,3.46-.72,7.28,7.28,0,0,1,2.87.53,4.48,4.48,0,0,1,1.91,1.52,3.93,3.93,0,0,1,.68,2.3,5.2,5.2,0,0,1-.5,2.24,8.77,8.77,0,0,1-2,2.4l-3.38,3.19Z"/>
            <path class="cls-6" d="M344.69,437.72a3.65,3.65,0,0,1,.72,2.3,3.39,3.39,0,0,1-1.5,3,7.74,7.74,0,0,1-4.38,1h-7.6v-14.7h7.18a7,7,0,0,1,4.12,1,3.26,3.26,0,0,1,1.44,2.79,3.59,3.59,0,0,1-.51,1.91,3.77,3.77,0,0,1-1.44,1.33A3.82,3.82,0,0,1,344.69,437.72Zm-9.38-5.83v3.47h3.38a3.46,3.46,0,0,0,1.91-.44,1.49,1.49,0,0,0,.65-1.31,1.46,1.46,0,0,0-.65-1.29,3.55,3.55,0,0,0-1.91-.43Zm6,9.14a1.51,1.51,0,0,0,.68-1.37c0-1.22-.9-1.82-2.71-1.82h-4v3.63h4A3.8,3.8,0,0,0,341.3,441Z"/>
            <path class="cls-6" d="M350.83,432.1h-4.71v-2.77h12.81v2.77h-4.7V444h-3.4Z"/>
            <path class="cls-6" d="M363.52,443.31a7.38,7.38,0,0,1-2.86-2.71,7.91,7.91,0,0,1,0-7.84,7.36,7.36,0,0,1,2.86-2.7,8.37,8.37,0,0,1,4.08-1,8.54,8.54,0,0,1,3.46.67,6.92,6.92,0,0,1,2.59,1.93l-2.18,2a4.7,4.7,0,0,0-3.7-1.72,4.86,4.86,0,0,0-2.43.6,4.17,4.17,0,0,0-1.67,1.66,5.26,5.26,0,0,0,0,4.88,4.26,4.26,0,0,0,1.67,1.67,4.86,4.86,0,0,0,2.43.59,4.69,4.69,0,0,0,3.7-1.74l2.18,2a6.89,6.89,0,0,1-2.6,1.95,8.63,8.63,0,0,1-3.47.67A8.43,8.43,0,0,1,363.52,443.31Z"/>
            <path class="cls-6" d="M375.16,436.81h5.95v2.62h-5.95Z"/>
            <path class="cls-6" d="M383.4,436.81h5.94v2.62H383.4Z"/>
            <path class="cls-6" d="M391.63,436.81h5.94v2.62h-5.94Z"/>
            <path class="cls-6" d="M399.86,436.81h5.94v2.62h-5.94Z"/>
            <path class="cls-6" d="M408.09,436.81H414v2.62h-5.94Z"/>
            <path class="cls-6" d="M416.32,436.81h5.95v2.62h-5.95Z"/>
            <path class="cls-6" d="M424.55,436.81h5.95v2.62h-5.95Z"/>
            <path class="cls-6" d="M432.79,436.81h5.94v2.62h-5.94Z"/>
            <path class="cls-6" d="M441,436.81H447v2.62H441Z"/>
            <path class="cls-6" d="M304.46,478H300.8v3.57h-2.71V478h-3.63V475.4h3.63v-3.57h2.71v3.57h3.66Z"/>
            <path class="cls-6" d="M316.55,471a7.62,7.62,0,0,1,1.75,5.41,9.17,9.17,0,0,1-.94,4.28,6.37,6.37,0,0,1-2.63,2.71,8.09,8.09,0,0,1-3.93.92,9.24,9.24,0,0,1-2.25-.26,5.69,5.69,0,0,1-1.82-.75l1.26-2.49a4.75,4.75,0,0,0,2.75.73,4,4,0,0,0,3-1.1,4.59,4.59,0,0,0,1.17-3.18,4.94,4.94,0,0,1-3.65,1.32,5.69,5.69,0,0,1-2.56-.57,4.52,4.52,0,0,1-1.83-1.6,4.35,4.35,0,0,1-.67-2.41,4.56,4.56,0,0,1,.73-2.58,4.81,4.81,0,0,1,2-1.71,6.54,6.54,0,0,1,2.82-.6A6.27,6.27,0,0,1,316.55,471Zm-2.76,4.43a2,2,0,0,0,.71-1.59,2,2,0,0,0-.69-1.57,2.69,2.69,0,0,0-1.88-.61,2.63,2.63,0,0,0-1.77.59,2,2,0,0,0-.68,1.59,2,2,0,0,0,.68,1.61,3,3,0,0,0,3.63,0Z"/>
            <path class="cls-6" d="M333.63,477.72a3.71,3.71,0,0,1,.71,2.3,3.39,3.39,0,0,1-1.5,3,7.7,7.7,0,0,1-4.38,1h-7.6v-14.7H328a7,7,0,0,1,4.13,1,3.26,3.26,0,0,1,1.44,2.79,3.6,3.6,0,0,1-.52,1.91,3.63,3.63,0,0,1-1.44,1.33A3.89,3.89,0,0,1,333.63,477.72Zm-9.39-5.83v3.47h3.38a3.43,3.43,0,0,0,1.91-.44,1.49,1.49,0,0,0,.65-1.31,1.46,1.46,0,0,0-.65-1.29,3.53,3.53,0,0,0-1.91-.43Zm6,9.14a1.52,1.52,0,0,0,.69-1.37c0-1.22-.91-1.82-2.71-1.82h-4v3.63h4A3.78,3.78,0,0,0,330.23,481Z"/>
            <path class="cls-6" d="M339.76,472.1h-4.71v-2.77h12.81v2.77h-4.7V484h-3.4Z"/>
            <path class="cls-6" d="M352.45,483.31a7.29,7.29,0,0,1-2.85-2.71,7.91,7.91,0,0,1,0-7.84,7.26,7.26,0,0,1,2.85-2.7,8.41,8.41,0,0,1,4.09-1,8.53,8.53,0,0,1,3.45.67,7,7,0,0,1,2.6,1.93l-2.19,2a4.67,4.67,0,0,0-3.69-1.72,4.88,4.88,0,0,0-2.44.6,4.23,4.23,0,0,0-1.67,1.66,5.26,5.26,0,0,0,0,4.88,4.32,4.32,0,0,0,1.67,1.67,4.87,4.87,0,0,0,2.44.59,4.66,4.66,0,0,0,3.69-1.74l2.19,2a6.85,6.85,0,0,1-2.61,1.95,8.61,8.61,0,0,1-3.46.67A8.47,8.47,0,0,1,352.45,483.31Z"/>
            <path class="cls-6" d="M364.1,476.81H370v2.62H364.1Z"/>
            <path class="cls-6" d="M372.33,476.81h5.94v2.62h-5.94Z"/>
            <path class="cls-6" d="M380.56,476.81h5.94v2.62h-5.94Z"/>
            <path class="cls-6" d="M388.79,476.81h5.94v2.62h-5.94Z"/>
            <path class="cls-6" d="M397,476.81h6v2.62h-6Z"/>
            <path class="cls-6" d="M405.25,476.81h5.95v2.62h-5.95Z"/>
            <path class="cls-6" d="M413.49,476.81h5.94v2.62h-5.94Z"/>
            <path class="cls-6" d="M421.72,476.81h5.94v2.62h-5.94Z"/>
            <path class="cls-6" d="M430,476.81h5.94v2.62H430Z"/>
            <path class="cls-6" d="M438.18,476.81h5.94v2.62h-5.94Z"/>
            <path class="cls-6" d="M304.46,518H300.8v3.57h-2.71V518h-3.63V515.4h3.63v-3.57h2.71v3.57h3.66Z"/>
            <path class="cls-6" d="M317.2,521.26V524H306.1v-2.2l5.67-5.36A6,6,0,0,0,313,515a2.68,2.68,0,0,0,.32-1.23,1.6,1.6,0,0,0-.6-1.35,2.74,2.74,0,0,0-1.75-.48,4.12,4.12,0,0,0-1.75.37,3.52,3.52,0,0,0-1.3,1.1l-2.48-1.59a6,6,0,0,1,2.38-2,7.93,7.93,0,0,1,3.46-.72,7.28,7.28,0,0,1,2.87.53,4.48,4.48,0,0,1,1.91,1.52,3.93,3.93,0,0,1,.68,2.3,5.2,5.2,0,0,1-.5,2.24,8.77,8.77,0,0,1-2,2.4l-3.38,3.19Z"/>
            <path class="cls-6" d="M332.3,517.72A3.65,3.65,0,0,1,333,520a3.39,3.39,0,0,1-1.5,3,7.72,7.72,0,0,1-4.38,1h-7.6v-14.7h7.18a7,7,0,0,1,4.12,1,3.26,3.26,0,0,1,1.44,2.79,3.59,3.59,0,0,1-.51,1.91,3.7,3.7,0,0,1-1.44,1.33A3.82,3.82,0,0,1,332.3,517.72Zm-9.38-5.83v3.47h3.38a3.46,3.46,0,0,0,1.91-.44,1.49,1.49,0,0,0,.65-1.31,1.46,1.46,0,0,0-.65-1.29,3.55,3.55,0,0,0-1.91-.43Zm6,9.14a1.51,1.51,0,0,0,.68-1.37c0-1.22-.9-1.82-2.7-1.82h-4v3.63h4A3.78,3.78,0,0,0,328.91,521Z"/>
            <path class="cls-6" d="M338.44,512.1h-4.71v-2.77h12.81v2.77h-4.7V524h-3.4Z"/>
            <path class="cls-6" d="M351.13,523.31a7.38,7.38,0,0,1-2.86-2.71,7.91,7.91,0,0,1,0-7.84,7.36,7.36,0,0,1,2.86-2.7,8.37,8.37,0,0,1,4.08-1,8.54,8.54,0,0,1,3.46.67,6.92,6.92,0,0,1,2.59,1.93l-2.18,2a4.7,4.7,0,0,0-3.7-1.72,4.86,4.86,0,0,0-2.43.6,4.17,4.17,0,0,0-1.67,1.66,5.26,5.26,0,0,0,0,4.88,4.26,4.26,0,0,0,1.67,1.67,4.86,4.86,0,0,0,2.43.59,4.69,4.69,0,0,0,3.7-1.74l2.18,2a6.89,6.89,0,0,1-2.6,2,8.63,8.63,0,0,1-3.47.67A8.46,8.46,0,0,1,351.13,523.31Z"/>
            <path class="cls-6" d="M362.77,516.81h6v2.62h-6Z"/>
            <path class="cls-6" d="M371,516.81H377v2.62H371Z"/>
            <path class="cls-6" d="M379.24,516.81h5.94v2.62h-5.94Z"/>
            <path class="cls-6" d="M387.47,516.81h5.94v2.62h-5.94Z"/>
            <path class="cls-6" d="M395.7,516.81h5.94v2.62H395.7Z"/>
            <path class="cls-6" d="M403.93,516.81h5.95v2.62h-5.95Z"/>
            <path class="cls-6" d="M412.16,516.81h5.95v2.62h-5.95Z"/>
            <path class="cls-6" d="M420.4,516.81h5.94v2.62H420.4Z"/>
            <path class="cls-6" d="M428.63,516.81h5.94v2.62h-5.94Z"/>
            <path class="cls-6" d="M436.86,516.81h5.94v2.62h-5.94Z"/>
            <path class="cls-6" d="M294.25,556.81h5.94v2.62h-5.94Z"/>
            <path class="cls-6" d="M313.38,549.33v2.21L307.92,564h-3.69l5.27-11.93h-4.88v2.4h-3v-5.17Z"/>
            <path class="cls-6" d="M328.59,557.72a3.71,3.71,0,0,1,.71,2.3,3.39,3.39,0,0,1-1.5,3,7.7,7.7,0,0,1-4.38,1h-7.6v-14.7H323a7,7,0,0,1,4.13,1,3.28,3.28,0,0,1,1.43,2.79,3.59,3.59,0,0,1-.51,1.91,3.63,3.63,0,0,1-1.44,1.33A3.89,3.89,0,0,1,328.59,557.72Zm-9.39-5.83v3.47h3.38a3.43,3.43,0,0,0,1.91-.44,1.49,1.49,0,0,0,.65-1.31,1.46,1.46,0,0,0-.65-1.29,3.53,3.53,0,0,0-1.91-.43Zm6,9.14a1.52,1.52,0,0,0,.69-1.37c0-1.22-.91-1.82-2.71-1.82h-4v3.63h4A3.78,3.78,0,0,0,325.19,561Z"/>
            <path class="cls-6" d="M334.72,552.1H330v-2.77h12.81v2.77h-4.7V564h-3.4Z"/>
            <path class="cls-6" d="M347.41,563.31a7.29,7.29,0,0,1-2.85-2.71,7.91,7.91,0,0,1,0-7.84,7.26,7.26,0,0,1,2.85-2.7,8.41,8.41,0,0,1,4.09-1,8.53,8.53,0,0,1,3.45.67,7,7,0,0,1,2.6,1.93l-2.19,2a4.67,4.67,0,0,0-3.69-1.72,4.88,4.88,0,0,0-2.44.6,4.23,4.23,0,0,0-1.67,1.66,5.26,5.26,0,0,0,0,4.88,4.32,4.32,0,0,0,1.67,1.67,4.87,4.87,0,0,0,2.44.59,4.66,4.66,0,0,0,3.69-1.74l2.19,2a6.85,6.85,0,0,1-2.61,2,8.61,8.61,0,0,1-3.46.67A8.47,8.47,0,0,1,347.41,563.31Z"/>
            <path class="cls-6" d="M359.06,556.81H365v2.62h-5.94Z"/>
            <path class="cls-6" d="M367.29,556.81h5.94v2.62h-5.94Z"/>
            <path class="cls-6" d="M375.52,556.81h5.94v2.62h-5.94Z"/>
            <path class="cls-6" d="M383.75,556.81h5.94v2.62h-5.94Z"/>
            <path class="cls-6" d="M392,556.81h5.95v2.62H392Z"/>
            <path class="cls-6" d="M400.21,556.81h6v2.62h-6Z"/>
            <path class="cls-6" d="M408.45,556.81h5.94v2.62h-5.94Z"/>
            <path class="cls-6" d="M416.68,556.81h5.94v2.62h-5.94Z"/>
            <path class="cls-6" d="M424.91,556.81h5.94v2.62h-5.94Z"/>
            <path class="cls-6" d="M433.14,556.81h5.94v2.62h-5.94Z"/>
            <path class="cls-6" d="M304.46,598H300.8v3.57h-2.71V598h-3.63V595.4h3.63v-3.57h2.71v3.57h3.66Z"/>
            <path class="cls-6" d="M311.79,589.33V604h-3.41v-12h-2.94v-2.73Z"/>
            <path class="cls-6" d="M324,596.09a4.13,4.13,0,0,1,1.48,3.32,4.7,4.7,0,0,1-.67,2.45,4.77,4.77,0,0,1-2.05,1.76,7.82,7.82,0,0,1-3.39.66,11.29,11.29,0,0,1-3.06-.41,7.89,7.89,0,0,1-2.55-1.16l1.34-2.61a6.44,6.44,0,0,0,1.94,1,7.34,7.34,0,0,0,2.24.35,3.49,3.49,0,0,0,2-.51,1.72,1.72,0,0,0,0-2.83,5.31,5.31,0,0,0-2.66-.49h-3.76l.76-8.27h9v2.73h-6.13l-.23,2.79h1.2A7.11,7.11,0,0,1,324,596.09Z"/>
            <path class="cls-6" d="M340.54,597.72a3.71,3.71,0,0,1,.71,2.3,3.39,3.39,0,0,1-1.5,3,7.7,7.7,0,0,1-4.38,1h-7.6v-14.7H335a7,7,0,0,1,4.13,1,3.28,3.28,0,0,1,1.43,2.79,3.59,3.59,0,0,1-.51,1.91,3.63,3.63,0,0,1-1.44,1.33A3.89,3.89,0,0,1,340.54,597.72Zm-9.39-5.83v3.47h3.38a3.43,3.43,0,0,0,1.91-.44,1.49,1.49,0,0,0,.65-1.31,1.46,1.46,0,0,0-.65-1.29,3.53,3.53,0,0,0-1.91-.43Zm6,9.14a1.52,1.52,0,0,0,.69-1.37c0-1.22-.91-1.82-2.71-1.82h-4v3.63h4A3.78,3.78,0,0,0,337.14,601Z"/>
            <path class="cls-6" d="M346.67,592.1H342v-2.77h12.81v2.77h-4.7V604h-3.4Z"/>
            <path class="cls-6" d="M359.36,603.31a7.29,7.29,0,0,1-2.85-2.71,7.91,7.91,0,0,1,0-7.84,7.26,7.26,0,0,1,2.85-2.7,8.39,8.39,0,0,1,4.09-1,8.53,8.53,0,0,1,3.45.67,6.92,6.92,0,0,1,2.59,1.93l-2.18,2a4.69,4.69,0,0,0-3.7-1.72,4.86,4.86,0,0,0-2.43.6,4.17,4.17,0,0,0-1.67,1.66,5.26,5.26,0,0,0,0,4.88,4.26,4.26,0,0,0,1.67,1.67,4.86,4.86,0,0,0,2.43.59,4.68,4.68,0,0,0,3.7-1.74l2.18,2a6.82,6.82,0,0,1-2.6,2,8.63,8.63,0,0,1-3.47.67A8.46,8.46,0,0,1,359.36,603.31Z"/>
            <path class="cls-6" d="M377.07,596.81H383v2.62h-5.95Z"/>
            <path class="cls-6" d="M385.31,596.81h5.94v2.62h-5.94Z"/>
            <path class="cls-6" d="M393.54,596.81h5.94v2.62h-5.94Z"/>
            <path class="cls-6" d="M401.77,596.81h5.94v2.62h-5.94Z"/>
            <path class="cls-6" d="M410,596.81h5.94v2.62H410Z"/>
            <path class="cls-6" d="M418.23,596.81h5.95v2.62h-5.95Z"/>
            <path class="cls-6" d="M426.46,596.81h6v2.62h-6Z"/>
            <path class="cls-6" d="M434.7,596.81h5.94v2.62H434.7Z"/>
          </g>
          <g>
            <path class="cls-6" d="M459.26,323.58a2,2,0,0,1-1.39-.56l-7.39-7a2,2,0,0,1,2.79-3l6,5.62,15.61-15.36a2,2,0,1,1,2.85,2.9l-17,16.73A2,2,0,0,1,459.26,323.58Z"/>
            <path class="cls-6" d="M459.26,364.06a2,2,0,0,1-1.39-.56l-7.39-7a2,2,0,0,1,2.79-3l6,5.62,15.61-15.36a2,2,0,1,1,2.85,2.9l-17,16.73A2,2,0,0,1,459.26,364.06Z"/>
            <path class="cls-6" d="M459.26,401.84a2,2,0,0,1-1.39-.56l-7.39-7a2,2,0,0,1,2.79-3l6,5.62,15.61-15.36a2,2,0,1,1,2.85,2.9l-17,16.73A2,2,0,0,1,459.26,401.84Z"/>
            <path class="cls-6" d="M459.26,444.32a2,2,0,0,1-1.39-.55l-7.39-7a2,2,0,0,1,2.79-3l6,5.62,15.61-15.36a2,2,0,1,1,2.85,2.89l-17,16.74A2,2,0,0,1,459.26,444.32Z"/>
            <path class="cls-6" d="M459.26,486.47a2,2,0,0,1-1.39-.55l-7.39-7a2,2,0,0,1,2.79-2.95l6,5.62,15.61-15.37a2,2,0,1,1,2.85,2.9l-17,16.74A2.07,2.07,0,0,1,459.26,486.47Z"/>
            <path class="cls-6" d="M459.26,526.48a2,2,0,0,1-1.39-.55l-7.39-7a2,2,0,0,1,2.79-3l6,5.62,15.61-15.36a2,2,0,1,1,2.85,2.89l-17,16.74A2,2,0,0,1,459.26,526.48Z"/>
            <path class="cls-6" d="M459.26,567.74a2,2,0,0,1-1.39-.55l-7.39-7a2,2,0,0,1,2.79-3l6,5.62,15.61-15.36a2,2,0,1,1,2.85,2.89l-17,16.74A2,2,0,0,1,459.26,567.74Z"/>
            <path class="cls-6" d="M459.26,607a2,2,0,0,1-1.39-.56l-7.39-7a2,2,0,0,1,2.79-2.95l6,5.61,15.61-15.36a2,2,0,1,1,2.85,2.9l-17,16.74A2.07,2.07,0,0,1,459.26,607Z"/>
          </g>
        </g>
      </g>
      <path class="cls-4" d="M710.62,656A291.55,291.55,0,0,1,634.86,532.3m23-225.52a289.81,289.81,0,0,0-27.58,71.13m149.17-190A292.88,292.88,0,0,0,668.43,289.12m139.21-114a290.79,290.79,0,0,1,106-19.89c161,0,291.56,130.53,291.56,291.55S1074.7,738.38,913.68,738.38A290.52,290.52,0,0,1,799.33,715.1l-28.41-14a292.69,292.69,0,0,1-31.66-20.62"/>
      <path class="cls-5" d="M703.2,464.78a17,17,0,0,1-1.69-6.19c-.64-12.07,8.43-11,13.41-2.77,6.23,10.34,5.08,25.27,10,36.43,6.3,14.36,13,29.17,19.5,43,7.43,15.77,11.63,18.54,26.25,26,8.94,4.56,19.36,5.24,27.16,12,3.64,3.17,4,6.5,8.53,9,6.36,3.46,15,3.23,21.92,6.08,18.8,7.73,46.34,29.23,26.41,51-10.35,11.29-28.23,18.63-23.21,37.22,3.92,14.53,20.31,19.92,33.21,21.8,17.33,2.54,26.29,5.58,37.79,20.18,2.89,3.68,6.78,10.57,9.21,11.8"/>
      <path class="cls-5" d="M722.68,233.28c-1.8,7.56,9.87,10.08,12,17,1.92,6.16-1.32,18.54-2,25-1.78,16.26-17.79,20.81-31,30-7.71,5.36-13.94,8.31-15,18s-.34,19.25-1.94,29.17c-1.53,9.42-2.66,18.94-6.11,27.78-2.43,6.24-6.62,11.36-8.92,18-5.47,16,7.54,19.43,13.25,33,5.28,12.56,5.4,27.48,7.95,41"/>
      <path class="cls-5" d="M753.68,210.28c8.55,3.57,14.64,1.13,23,2,10.24,1.1,8.35,5.67,10,16,3.64,22.63,17.2,7.37,34,11,15.6,3.38,21.83,28.5,22,43,.2,15-15.13,31,1,45,16.59,14.41,41.92-31.71,60.25-16.26,6,5.09,13.31,31.42,23.07,14.11,7.93-14.07.37-38.09,25.3-28.89,7.89,2.91,10.55,8.74,11.35,17,1.34,13.78,8.7,35.45,2.8,48.78-2.94,6.65-10.22,8.69-14.52,14.25-5.67,7.32-5,13.26-6.26,22-1.52,10.33-5.62,11.72-12,19.22-6.79,8-5.7,13.06-5.22,22.78.39,7.84,1,16.83-1.8,24-3.11,7.86-7.41,8.33-14.95,12.25-16.56,8.62-19,21.86-19,39.75,0,28.67-10.22,2.67-17-8-11.83-18.65-28.07-5.44-43,3.75-16.8,10.35-23.73,10.57-40.76,2-17.81-9-21.92,10.22-11.52,22.5,5.94,7,10.06,10.07,19.27,11.8,7.56,1.42,16.11-.38,22.25,5.68s4.18,13.36,11.73,18.3c5.49,3.6,13.39,5.25,18.22,8.78,6.74,4.94,8.59,12.92,13.75,19,13.15,15.48,20-18.61,36.1-12.86,5.2,1.86,7.09,7.24,10.92,10.63s7.12,3.78,10.87,6.5c1.86,1.35.89,4.86,3,5.92,5.62,2.81,10.82,1.37,16.49-.3,10.74-3.16,26.5.56,35.69-7.68,2.69-2.41,2.5-5,6.2-7.74,3.94-2.92,12.85-6.09,17.82-6.33,1.31-.06,8.1,1.39,8.95,2,5.51,3.95,1.19,5.09,4.2,9.85s9.19,7.16,12.81,11.4c10.2,11.94.36,26.9-6.2,38.85-3.52,6.41-7.3,11.8-9.8,18.88-3.35,9.51-11.61,15.17-16.41,23.7-5.64,10-6.66,22.39-9.6,33.37"/>
      <path class="cls-5" d="M860.68,168.28c4.48,8.42,4.88,10.86,15,11,7.5.11,14.4,0,22,0,15.26,0,26.73-1.25,40.75,6.26,11.95,6.4,22.7,11,35.2,3.47,11.09-6.7,23.55-12.92,36-12.75"/>
      <path class="cls-5" d="M1181.68,346.28c-5.46,4.1-15.25,16-15.77,23.22-.59,8.24,7.7,12.64,8.77,19.78,1.15,7.59-7,13.88-5.77,20.78,1,5.38,10.85,11.73,14,15.94,1.36,1.8,4.63,6.1,5,8,1.33,6.54-5.79,9.53-9.67,14.88-13,17.92-16.21,37.32-10.6,58.39,1.85,6.93,4.44,11.88,7.73,18.22,2.6,5,3.23,12.08,6.24,15.78"/>
      <path class="cls-5" d="M677.68,603.28c4.22-1,8.5-.32,13-1,5.4-.81,10.75-3.79,16-4,11.53-.5,16,8.89,20,17.07,4.83,9.87,8.18,16.14,9.82,27,.66,4.32.95,8.77,1.46,13.15"/>
      <polyline class="cls-7" points="568.68 316.21 705.29 181.6 854.68 181.6"/>
      <polyline class="cls-7" points="567.35 355.28 624.35 298.28 770.68 298.28"/>
      <line class="cls-7" x1="563.35" y1="398.56" x2="838.69" y2="398.56"/>
      <polyline class="cls-7" points="563.35 439.42 950.69 439.42 1105.09 285.01"/>
      <line class="cls-7" x1="564.35" y1="479.75" x2="770.69" y2="479.75"/>
      <polyline class="cls-7" points="564.02 520.17 1089.35 520.17 1154.69 486.42"/>
      <polyline class="cls-7" points="565.35 559.54 630.33 624.28 665.3 624.28"/>
      <polyline class="cls-7" points="575.35 601.06 640.3 666 886.69 666"/>
      <path class="cls-6" d="M1134.75,320.4h-7.51V308.12h-5.62c-.45,0-.35.35-.35.62,0,3.88,0,7.77,0,11.65h-7.52V307.91h-14.94c0-.14-.06-.18,0-.22.46-2.76.94-5.53,1.39-8.3.06-.41.31-.38.6-.38h4.6c2.11,0,3.11-1,3.11-3.16V263.59a3.73,3.73,0,0,0-3.76-4c-1.23-.07-2.46-.06-3.69-.08h-2.25v-8h15V239.27h7.52c0,3.82,0,7.65,0,11.47,0,.45.14.6.59.58,1.3,0,2.6,0,3.89-.07h1.42a1.44,1.44,0,0,0,.07-.25c0-3.91,0-7.82,0-11.73h7.51c0,.26,0,.51,0,.77v10.37c0,1.19,0,1.18,1.22,1.31a30.37,30.37,0,0,1,9.69,2.4,11.62,11.62,0,0,1,6.36,6.37,15.64,15.64,0,0,1,.9,6.81,10.86,10.86,0,0,1-5.57,9l-.79.45.4.19a36.37,36.37,0,0,1,3.85,1.47,10.79,10.79,0,0,1,6,7.15,20,20,0,0,1-.18,10,13.76,13.76,0,0,1-4.36,7.32,19,19,0,0,1-8.94,4c-2.59.5-5.25.7-7.89,1-.56.06-.73.25-.7.79,0,1,0,2,0,3ZM1121.42,299c2.32,0,4.52.06,6.72,0a27.85,27.85,0,0,0,8.77-1.45,8,8,0,0,0,4.47-3.21,6.79,6.79,0,0,0-2.38-9.45,16.87,16.87,0,0,0-7.91-2.19c-2.95-.13-5.9-.1-8.86-.17-.65,0-.83.17-.83.83,0,5,0,9.92,0,14.89Zm0-31.5q0,3.47,0,6.93c0,.36,0,.61.5.62a40.47,40.47,0,0,0,11.25-.93,8.37,8.37,0,0,0,4.76-3.05,6.58,6.58,0,0,0-1.17-8.42,11.43,11.43,0,0,0-6.6-2.38c-2.7-.21-5.43-.16-8.15-.24-.52,0-.59.23-.59.67Q1121.43,264.11,1121.42,267.52Z"/>
      <path class="cls-6" d="M893.4,217.07h-7.52V204.79h-5.62c-.44,0-.35.36-.35.62,0,3.89,0,7.77,0,11.66H872.4v-12.5H857.45c0-.13-.06-.17-.05-.21.47-2.77.94-5.53,1.39-8.3.07-.42.32-.39.6-.38H864c2.11,0,3.12-1,3.12-3.15V160.26a3.73,3.73,0,0,0-3.76-4c-1.23-.07-2.47-.06-3.7-.08-.74,0-1.49,0-2.24,0v-8h15V135.94h7.52c0,3.82,0,7.64,0,11.46,0,.46.14.61.59.59,1.3-.05,2.59-.05,3.89-.07h1.41a2.2,2.2,0,0,0,.08-.26V135.94h7.52c0,.25,0,.51,0,.77,0,3.46,0,6.91,0,10.37,0,1.18,0,1.17,1.22,1.31a30.3,30.3,0,0,1,9.68,2.39,11.58,11.58,0,0,1,6.36,6.38,15.35,15.35,0,0,1,.9,6.81,10.82,10.82,0,0,1-5.57,9l-.78.45c.21.1.3.15.39.18,1.29.49,2.64.86,3.86,1.47a10.82,10.82,0,0,1,6,7.15,20.12,20.12,0,0,1-.17,10,13.71,13.71,0,0,1-4.37,7.33,18.85,18.85,0,0,1-8.93,4c-2.59.51-5.25.71-7.89,1-.57.06-.73.24-.71.79,0,1,0,2,0,3C893.37,211.24,893.39,214.16,893.4,217.07Zm-13.34-21.38c2.32,0,4.52.05,6.72,0a27.85,27.85,0,0,0,8.77-1.45A8.05,8.05,0,0,0,900,191a6.82,6.82,0,0,0-2.38-9.46,16.92,16.92,0,0,0-7.91-2.18c-3-.14-5.91-.1-8.86-.18-.65,0-.84.17-.83.83,0,5,0,9.93,0,14.89Zm0-31.5c0,2.31,0,4.62,0,6.93,0,.36,0,.61.5.62a40.54,40.54,0,0,0,11.25-.94,8.28,8.28,0,0,0,4.75-3,6.58,6.58,0,0,0-1.16-8.42,11.39,11.39,0,0,0-6.6-2.38c-2.71-.21-5.43-.16-8.15-.24-.53,0-.6.23-.59.66C880.07,159.65,880.06,161.92,880.06,164.19Z"/>
      <path class="cls-6" d="M1183.31,527h-7.51V514.7h-5.62c-.45,0-.35.35-.35.62,0,3.88,0,7.77,0,11.65h-7.52V514.49h-15c0-.14-.06-.18,0-.22.47-2.76.94-5.53,1.39-8.3.07-.41.32-.38.6-.38h4.6c2.11,0,3.12-1,3.12-3.16V470.17a3.74,3.74,0,0,0-3.77-4c-1.22-.07-2.46-.06-3.69-.08h-2.24v-8h15V445.85h7.52c0,3.82,0,7.65,0,11.47,0,.45.13.6.59.58,1.29,0,2.59,0,3.89-.07h1.41a2.42,2.42,0,0,0,.08-.25V445.85h7.51c0,.26,0,.52,0,.77,0,3.46,0,6.91,0,10.37,0,1.19,0,1.18,1.22,1.31a30.37,30.37,0,0,1,9.69,2.4,11.59,11.59,0,0,1,6.36,6.37,15.35,15.35,0,0,1,.9,6.81,10.82,10.82,0,0,1-5.57,9l-.78.45.39.19a37.4,37.4,0,0,1,3.86,1.47,10.78,10.78,0,0,1,6,7.15,20.12,20.12,0,0,1-.17,10,13.72,13.72,0,0,1-4.37,7.32,19,19,0,0,1-8.93,4c-2.6.5-5.26.71-7.89,1-.57.06-.73.25-.71.79,0,1,0,2,0,3C1183.29,521.15,1183.3,524.07,1183.31,527ZM1170,505.6c2.32,0,4.52.06,6.72,0a27.85,27.85,0,0,0,8.77-1.45,8.05,8.05,0,0,0,4.48-3.21,6.81,6.81,0,0,0-2.39-9.45,16.86,16.86,0,0,0-7.9-2.19c-3-.13-5.91-.1-8.86-.17-.66,0-.84.17-.84.83,0,5,0,9.92,0,14.89Zm0-31.5c0,2.31,0,4.62,0,6.93,0,.36,0,.61.5.62a40.53,40.53,0,0,0,11.25-.93,8.35,8.35,0,0,0,4.75-3.05,6.57,6.57,0,0,0-1.17-8.42,11.43,11.43,0,0,0-6.6-2.38c-2.7-.21-5.42-.16-8.14-.24-.53,0-.6.23-.6.67C1170,469.56,1170,471.83,1170,474.1Z"/>
      <path class="cls-6" d="M924.49,703H917V690.7h-5.62c-.45,0-.35.35-.35.62,0,3.88,0,7.77,0,11.65H903.5V690.49h-15c0-.14-.06-.18,0-.22.46-2.76.94-5.53,1.39-8.3.06-.41.31-.38.6-.38h4.6c2.11,0,3.11-1,3.11-3.16V646.17a3.73,3.73,0,0,0-3.76-4c-1.23-.07-2.46-.06-3.69-.08H888.5v-8h15V621.85H911c0,3.82,0,7.65,0,11.47,0,.45.14.6.59.58,1.3,0,2.6,0,3.89-.07h1.42a1.44,1.44,0,0,0,.07-.25c0-3.91,0-7.82,0-11.73h7.51c0,.26,0,.52,0,.77V633c0,1.19,0,1.18,1.22,1.31a30.37,30.37,0,0,1,9.69,2.4,11.62,11.62,0,0,1,6.36,6.37,15.64,15.64,0,0,1,.9,6.81,10.84,10.84,0,0,1-5.57,9l-.79.45.4.19a36.37,36.37,0,0,1,3.85,1.47,10.79,10.79,0,0,1,6,7.15,20,20,0,0,1-.18,10,13.76,13.76,0,0,1-4.36,7.32,19,19,0,0,1-8.94,4c-2.59.5-5.25.71-7.88,1-.57.06-.74.25-.71.79,0,1,0,2,0,3ZM911.16,681.6c2.32,0,4.52,0,6.72,0a27.85,27.85,0,0,0,8.77-1.45,8,8,0,0,0,4.47-3.21,6.79,6.79,0,0,0-2.38-9.45,16.87,16.87,0,0,0-7.91-2.19c-3-.14-5.9-.1-8.86-.17-.65,0-.83.17-.83.82,0,5,0,9.93,0,14.9Zm0-31.5V657c0,.36,0,.61.5.62a40.53,40.53,0,0,0,11.25-.93,8.35,8.35,0,0,0,4.75-3.05,6.59,6.59,0,0,0-1.17-8.42,11.43,11.43,0,0,0-6.6-2.38c-2.7-.21-5.43-.16-8.14-.24-.53,0-.6.23-.6.67Q911.17,646.69,911.16,650.1Z"/>
      <path class="cls-6" d="M707.73,654.39h-7.52V642.11H694.6c-.45,0-.36.35-.36.62,0,3.88,0,7.77,0,11.65h-7.52V641.9H671.79a1.24,1.24,0,0,1-.06-.22c.47-2.76.95-5.53,1.39-8.3.07-.42.32-.38.6-.38h4.6c2.11,0,3.12-1,3.12-3.16V597.58a3.74,3.74,0,0,0-3.76-4c-1.23-.07-2.46-.06-3.69-.08h-2.25v-8h15V573.26h7.52c0,3.82,0,7.64,0,11.47,0,.45.14.6.59.58,1.3,0,2.59,0,3.89-.07h1.41a1.1,1.1,0,0,0,.08-.25V573.26h7.52c0,.26,0,.51,0,.77V584.4c0,1.18,0,1.18,1.22,1.31a30.18,30.18,0,0,1,9.69,2.4,11.57,11.57,0,0,1,6.35,6.37,15.35,15.35,0,0,1,.9,6.81,10.83,10.83,0,0,1-5.56,9l-.79.45a3.27,3.27,0,0,0,.4.18,39.72,39.72,0,0,1,3.85,1.48,10.78,10.78,0,0,1,6,7.14,20.16,20.16,0,0,1-.17,10,13.76,13.76,0,0,1-4.36,7.32,19,19,0,0,1-8.94,4c-2.59.5-5.25.7-7.89,1-.56.06-.73.24-.71.79,0,1,0,2,0,3ZM694.39,633c2.33,0,4.53,0,6.72,0a27.75,27.75,0,0,0,8.77-1.45,8,8,0,0,0,4.48-3.21,6.81,6.81,0,0,0-2.38-9.46,16.89,16.89,0,0,0-7.91-2.18c-3-.14-5.91-.1-8.86-.18-.65,0-.84.17-.83.83,0,5,0,9.93,0,14.9Zm0-31.5q0,3.47,0,6.93c0,.36,0,.61.5.62a40.53,40.53,0,0,0,11.25-.93,8.35,8.35,0,0,0,4.75-3,6.58,6.58,0,0,0-1.16-8.42,11.37,11.37,0,0,0-6.6-2.38c-2.7-.21-5.43-.16-8.15-.24-.52,0-.6.23-.59.67Q694.41,598.1,694.4,601.51Z"/>
      <path class="cls-6" d="M806.68,527h-7.52V514.7h-5.61c-.45,0-.35.35-.35.62,0,3.88,0,7.77,0,11.65h-7.52V514.49H770.74c0-.14-.06-.18,0-.22.46-2.76.94-5.53,1.39-8.3.06-.42.31-.38.6-.38h4.6c2.11,0,3.11-1,3.11-3.16V470.17a3.73,3.73,0,0,0-3.76-4c-1.23-.07-2.46-.06-3.69-.08h-2.25v-8h15V445.85h7.52c0,3.82,0,7.64,0,11.47,0,.45.14.6.59.58,1.3,0,2.6,0,3.89-.07h1.42a1.44,1.44,0,0,0,.07-.25q0-5.86,0-11.73h7.52c0,.26,0,.51,0,.77V457c0,1.19,0,1.18,1.22,1.31a30.37,30.37,0,0,1,9.69,2.4,11.62,11.62,0,0,1,6.36,6.37,15.64,15.64,0,0,1,.9,6.81,10.86,10.86,0,0,1-5.57,9l-.79.45.4.19a36.37,36.37,0,0,1,3.85,1.47,10.79,10.79,0,0,1,6,7.15,20,20,0,0,1-.18,10,13.76,13.76,0,0,1-4.36,7.32,19,19,0,0,1-8.94,4c-2.59.5-5.25.71-7.89,1-.56.06-.73.25-.7.79,0,1,0,2,0,3ZM793.35,505.6c2.32,0,4.52,0,6.72,0a27.85,27.85,0,0,0,8.77-1.45,8,8,0,0,0,4.47-3.21,6.79,6.79,0,0,0-2.38-9.45,16.9,16.9,0,0,0-7.91-2.19c-2.95-.14-5.9-.1-8.86-.17-.65,0-.83.17-.83.82,0,5,0,9.93,0,14.9Zm0-31.5q0,3.47,0,6.93c0,.36,0,.61.5.62a40.47,40.47,0,0,0,11.25-.93,8.37,8.37,0,0,0,4.76-3.05,6.59,6.59,0,0,0-1.17-8.42,11.43,11.43,0,0,0-6.6-2.38c-2.7-.21-5.43-.16-8.15-.24-.52,0-.59.23-.59.67Q793.36,470.69,793.35,474.1Z"/>
      <path class="cls-6" d="M874.68,433.6h-7.51V421.32h-5.62c-.45,0-.35.36-.35.62V433.6h-7.51V421.11h-15c0-.13-.06-.18,0-.22.46-2.76.94-5.53,1.39-8.3.06-.41.31-.38.6-.38h4.6c2.11,0,3.11-1,3.11-3.16V376.79a3.73,3.73,0,0,0-3.76-4c-1.23-.06-2.46-.06-3.69-.08h-2.25v-8h15V352.47h7.51c0,3.82,0,7.65,0,11.47,0,.45.14.6.6.58,1.29,0,2.59,0,3.88-.07h1.42a1.44,1.44,0,0,0,.07-.25c0-3.91,0-7.82,0-11.73h7.51c0,.26,0,.52,0,.78v10.36c0,1.19,0,1.18,1.22,1.31a30.37,30.37,0,0,1,9.69,2.4,11.65,11.65,0,0,1,6.36,6.37,15.66,15.66,0,0,1,.9,6.81,10.82,10.82,0,0,1-5.57,9l-.79.45.4.19a36.37,36.37,0,0,1,3.85,1.47,10.79,10.79,0,0,1,6,7.15,20,20,0,0,1-.18,10,13.83,13.83,0,0,1-4.36,7.33,19.08,19.08,0,0,1-8.94,4c-2.59.5-5.25.71-7.88,1-.57.06-.73.25-.71.79,0,1,0,2,0,3Zm-13.33-21.37c2.32,0,4.52,0,6.72,0a27.57,27.57,0,0,0,8.77-1.45,8,8,0,0,0,4.47-3.21,6.79,6.79,0,0,0-2.38-9.45,16.86,16.86,0,0,0-7.9-2.19c-3-.13-5.91-.1-8.87-.17-.65,0-.83.17-.83.83,0,5,0,9.92,0,14.89Zm0-31.51v6.93c0,.36,0,.61.5.62a40.53,40.53,0,0,0,11.25-.93,8.3,8.3,0,0,0,4.75-3,6.59,6.59,0,0,0-1.17-8.42,11.35,11.35,0,0,0-6.6-2.37c-2.7-.22-5.43-.17-8.14-.25-.53,0-.6.23-.6.67C861.36,376.19,861.35,378.45,861.35,380.72Z"/>
      <path class="cls-6" d="M800,338.85H792.5V326.57h-5.62c-.44,0-.35.36-.35.62,0,3.89,0,7.77,0,11.66H779v-12.5H764.07c0-.13-.06-.17-.05-.21.47-2.77.94-5.53,1.39-8.3.07-.42.32-.39.6-.39h4.6c2.11,0,3.12-1,3.12-3.15V282a3.73,3.73,0,0,0-3.77-4c-1.22-.07-2.46-.07-3.69-.08H764v-8h15V257.72h7.52c0,3.82,0,7.64,0,11.46,0,.45.13.6.59.59,1.29,0,2.59,0,3.89-.07h1.41c.05-.18.08-.22.08-.26,0-3.91,0-7.82,0-11.72H800c0,.25,0,.51,0,.77,0,3.45,0,6.91,0,10.36,0,1.19,0,1.18,1.23,1.32a30.37,30.37,0,0,1,9.68,2.39,11.61,11.61,0,0,1,6.36,6.38,15.3,15.3,0,0,1,.9,6.8,10.82,10.82,0,0,1-5.57,9l-.78.45c.21.1.3.15.39.18a38.87,38.87,0,0,1,3.86,1.47,10.78,10.78,0,0,1,6,7.15,20.12,20.12,0,0,1-.17,10,13.74,13.74,0,0,1-4.37,7.33,19,19,0,0,1-8.93,4c-2.6.51-5.26.71-7.89,1-.57.06-.73.24-.71.79,0,1,0,2,0,3C800,333,800,335.93,800,338.85Zm-13.34-21.38c2.32,0,4.52,0,6.72,0a27.56,27.56,0,0,0,8.77-1.44,8.07,8.07,0,0,0,4.48-3.22,6.81,6.81,0,0,0-2.38-9.45,16.93,16.93,0,0,0-7.91-2.19c-3-.13-5.91-.09-8.86-.17-.65,0-.84.17-.83.83,0,5,0,9.93,0,14.89Zm0-31.51c0,2.32,0,4.63,0,6.94,0,.35,0,.61.5.62a40.54,40.54,0,0,0,11.25-.94,8.28,8.28,0,0,0,4.75-3,6.58,6.58,0,0,0-1.16-8.42,11.42,11.42,0,0,0-6.6-2.38c-2.71-.21-5.43-.16-8.15-.25-.53,0-.6.24-.59.67C786.69,281.43,786.68,283.7,786.68,286Z"/>
    </g>
    <path class="cls-5" d="M703.2,464.78a17,17,0,0,1-1.69-6.19c-.64-12.07,8.43-11,13.41-2.77,6.23,10.34,5.08,25.27,10,36.43,6.3,14.36,13,29.17,19.5,43,7.43,15.77,11.63,18.54,26.25,26,8.94,4.56,19.36,5.24,27.16,12,3.64,3.17,4,6.5,8.53,9,6.36,3.46,15,3.23,21.92,6.08,18.8,7.73,46.34,29.23,26.41,51-10.35,11.29-28.23,18.63-23.21,37.22,3.92,14.53,20.31,19.92,33.21,21.8,17.33,2.54,26.29,5.58,37.79,20.18,2.89,3.68,6.78,10.57,9.21,11.8"/>
    <path class="cls-5" d="M722.68,233.28c-1.8,7.56,9.87,10.08,12,17,1.92,6.16-1.32,18.54-2,25-1.78,16.26-17.79,20.81-31,30-7.71,5.36-13.94,8.31-15,18s-.34,19.25-1.94,29.17c-1.53,9.42-2.66,18.94-6.11,27.78-2.43,6.24-6.62,11.36-8.92,18-5.47,16,7.54,19.43,13.25,33,5.28,12.56,5.4,27.48,7.95,41"/>
  </g>
</svg>
