<svg id="work" xmlns="http://www.w3.org/2000/svg" viewBox="0 0 1422 870">
  <defs>
    <style>
      .cls-1, .cls-12, .cls-7 {
        fill: #fff;
      }

      .cls-2, .cls-9 {
        fill: #ff0083;
      }

      .cls-11, .cls-13, .cls-14, .cls-3, .cls-5, .cls-8 {
        fill: none;
      }

      .cls-10, .cls-11, .cls-12, .cls-13, .cls-3, .cls-5, .cls-6, .cls-7, .cls-9 {
        stroke: #4a4a4a;
      }

      .cls-10, .cls-11, .cls-12, .cls-13, .cls-14, .cls-3, .cls-5, .cls-6, .cls-7, .cls-8, .cls-9 {
        stroke-linecap: round;
        stroke-linejoin: round;
      }

      .cls-10, .cls-12, .cls-14, .cls-3, .cls-8, .cls-9 {
        stroke-width: 2.5px;
      }

      .cls-10, .cls-4, .cls-6 {
        fill: #ebebeb;
      }

      .cls-5, .cls-6, .cls-7 {
        stroke-width: 4px;
      }

      .cls-8 {
        stroke: #ff0083;
      }

      .cls-11 {
        stroke-width: 3px;
      }

      .cls-13 {
        stroke-width: 1.5px;
      }

      .cls-14 {
        stroke: #494949;
      }

      .cls-15 {
        fill: #f2f2f2;
      }
    </style>
  </defs>
  <title>14,1</title>
  <path class="cls-1" d="M1059.2,475a264.79,264.79,0,0,1-32.52-16.59q-5.6,10.62-12,20.87a289.26,289.26,0,0,0,116.75,40.84q2.88-12.61,4.9-25.28a263.33,263.33,0,0,1-40.94-7.43"/>
  <polyline class="cls-1" points="777.1 462.26 738.35 462.26 738.35 488.26 858.35 488.26 858.35 462.26 816.6 462.26"/>
  <path class="cls-1" d="M906.7,447.67a275.74,275.74,0,0,1-35.61-13.07q-5.69,11.76-12,23.3a310.69,310.69,0,0,0,127.35,27.48q1.7-13.17,2.71-26.31a292.21,292.21,0,0,1-43.5-3"/>
  <polyline class="cls-1" points="1262.22 717.38 1223.47 717.38 1223.47 743.38 1343.47 743.38 1343.47 717.38 1258.97 717.38"/>
  <polyline class="cls-1" points="1253.73 691.63 1214.98 691.63 1214.98 717.63 1334.98 717.63 1334.98 691.63 1250.48 691.63"/>
  <polyline class="cls-1" points="1280.23 665.63 1241.48 665.63 1241.48 691.63 1361.48 691.63 1361.48 665.63 1276.98 665.63"/>
  <polyline class="cls-1" points="1235.84 665.63 1233.15 665.63 1233.15 691.63 1241.48 691.63 1241.48 665.63 1235.61 665.63"/>
  <polyline class="cls-1" points="1264.23 640.96 1225.48 640.96 1225.48 666.96 1345.48 666.96 1345.48 640.96 1260.98 640.96"/>
  <polyline class="cls-1" points="631.23 462.26 592.48 462.26 592.48 488.26 712.48 488.26 712.48 462.26 627.98 462.26"/>
  <polyline class="cls-1" points="1111.47 718.25 1094.47 718.25 1094.47 744.25 1111.47 744.25"/>
  <polyline class="cls-1" points="1128.47 692.5 1111.47 692.5 1111.47 718.5 1128.47 718.5"/>
  <polyline class="cls-1" points="1112.98 666.5 1095.98 666.5 1095.98 692.5 1112.98 692.5"/>
  <polyline class="cls-1" points="1112.98 640.5 1095.98 640.5 1095.98 666.5 1112.98 666.5"/>
  <polyline class="cls-1" points="1143.22 614.5 1104.47 614.5 1104.47 640.5 1224.47 640.5 1224.47 614.5 1139.97 614.5"/>
  <polyline class="cls-1" points="1104.97 614.5 1087.97 614.5 1087.97 640.5 1104.97 640.5"/>
  <polyline class="cls-1" points="1151.23 588.5 1112.48 588.5 1112.48 614.5 1232.48 614.5 1232.48 588.5 1147.98 588.5"/>
  <polyline class="cls-1" points="1112.98 588.5 1095.98 588.5 1095.98 614.5 1112.98 614.5"/>
  <polyline class="cls-1" points="1151.23 562.5 1112.48 562.5 1112.48 588.5 1232.48 588.5 1232.48 562.5 1147.98 562.5"/>
  <polyline class="cls-1" points="1112.98 562.5 1095.98 562.5 1095.98 588.5 1112.98 588.5"/>
  <polyline class="cls-1" points="1143.22 536.5 1104.47 536.5 1104.47 562.5 1224.47 562.5 1224.47 536.5 1139.97 536.5"/>
  <polyline class="cls-1" points="1104.97 536.5 1087.97 536.5 1087.97 562.5 1104.97 562.5"/>
  <path class="cls-1" d="M1027.07,458.68q-6.78-4.06-13.26-8.47-6,10.25-12.92,20.09,6.92,4.83,14.18,9.27"/>
  <polyline class="cls-1" points="738.85 462.26 721.85 462.26 721.85 488.26 738.85 488.26"/>
  <path class="cls-1" d="M871.53,434.8q-7.5-3.35-14.71-7.09-6.29,11.43-13.21,22.61,7.82,4.11,15.94,7.79"/>
  <g>
    <g>
      <g>
        <rect class="cls-2" x="1264.22" y="639.25" width="39.5" height="26.75"/>
        <polyline class="cls-3" points="1264.22 640 1225.47 640 1225.47 666 1345.47 666 1345.47 640 1260.97 640"/>
        <polyline class="cls-3" points="1225.97 640 1208.97 640 1208.97 666 1225.97 666"/>
        <line class="cls-3" x1="1225.97" y1="646.75" x2="1260.97" y2="646.75"/>
        <line class="cls-3" x1="1208.97" y1="659" x2="1253.72" y2="659"/>
        <line class="cls-3" x1="1217.47" y1="651.75" x2="1225.47" y2="651.75"/>
        <line class="cls-3" x1="1308.97" y1="659" x2="1321.97" y2="659"/>
        <line class="cls-3" x1="1264.22" y1="640.25" x2="1264.22" y2="666"/>
        <line class="cls-3" x1="1303.72" y1="640.25" x2="1303.72" y2="666"/>
      </g>
      <g>
        <rect class="cls-2" x="1262.22" y="716.63" width="39.5" height="26.75"/>
        <polyline class="cls-3" points="1262.22 717.38 1223.47 717.38 1223.47 743.38 1343.47 743.38 1343.47 717.38 1258.97 717.38"/>
        <polyline class="cls-3" points="1223.97 717.38 1206.97 717.38 1206.97 743.38 1223.97 743.38"/>
        <line class="cls-3" x1="1223.97" y1="724.13" x2="1258.97" y2="724.13"/>
        <line class="cls-3" x1="1215.47" y1="729.13" x2="1223.47" y2="729.13"/>
        <line class="cls-3" x1="1343.47" y1="730.63" x2="1321.72" y2="730.63"/>
        <line class="cls-3" x1="1306.97" y1="736.38" x2="1319.97" y2="736.38"/>
        <line class="cls-3" x1="1262.22" y1="717.63" x2="1262.22" y2="743.38"/>
        <line class="cls-3" x1="1301.72" y1="717.63" x2="1301.72" y2="743.38"/>
      </g>
      <g>
        <rect class="cls-2" x="1253.73" y="690.87" width="39.5" height="26.75"/>
        <polyline class="cls-3" points="1253.73 691.63 1214.98 691.63 1214.98 717.63 1334.98 717.63 1334.98 691.63 1250.48 691.63"/>
        <polyline class="cls-3" points="1215.48 691.63 1198.48 691.63 1198.48 717.63 1215.48 717.63"/>
        <line class="cls-3" x1="1206.98" y1="703.37" x2="1214.98" y2="703.37"/>
        <line class="cls-3" x1="1253.73" y1="691.87" x2="1253.73" y2="717.63"/>
        <line class="cls-3" x1="1293.23" y1="691.87" x2="1293.23" y2="717.63"/>
      </g>
      <g>
        <rect class="cls-2" x="1280.23" y="664.87" width="39.5" height="26.75"/>
        <polyline class="cls-3" points="1280.23 665.63 1241.48 665.63 1241.48 691.63 1361.48 691.63 1361.48 665.63 1276.98 665.63"/>
        <polyline class="cls-3" points="1241.98 665.63 1224.98 665.63 1224.98 691.63 1241.98 691.63"/>
        <line class="cls-3" x1="1280.23" y1="665.87" x2="1280.23" y2="691.63"/>
        <line class="cls-3" x1="1319.73" y1="665.87" x2="1319.73" y2="691.63"/>
      </g>
    </g>
    <polygon class="cls-1" points="1247.97 692.5 1247.97 718.5 1230.97 718.5 1230.97 744.25 1110.97 744.25 1110.97 718.25 1127.97 718.25 1127.97 692.5 1112.48 692.5 1112.48 640.5 1232.48 640.5 1232.48 692.5 1247.97 692.5"/>
    <g>
      <rect class="cls-2" x="631.22" y="461.51" width="39.5" height="26.75"/>
      <polyline class="cls-3" points="631.23 462.26 592.48 462.26 592.48 488.26 712.48 488.26 712.48 462.26 627.98 462.26"/>
      <polyline class="cls-3" points="592.98 462.26 575.98 462.26 575.98 488.26 592.98 488.26"/>
      <line class="cls-3" x1="592.97" y1="469.01" x2="627.97" y2="469.01"/>
      <line class="cls-3" x1="575.97" y1="481.26" x2="620.72" y2="481.26"/>
      <line class="cls-3" x1="584.47" y1="474.01" x2="592.47" y2="474.01"/>
      <line class="cls-3" x1="671.97" y1="469.01" x2="712.47" y2="469.01"/>
      <line class="cls-3" x1="712.47" y1="475.51" x2="690.72" y2="475.51"/>
      <line class="cls-3" x1="675.97" y1="481.26" x2="688.97" y2="481.26"/>
      <line class="cls-3" x1="631.22" y1="462.51" x2="631.22" y2="488.26"/>
      <line class="cls-3" x1="670.72" y1="462.51" x2="670.72" y2="488.26"/>
    </g>
    <g>
      <rect class="cls-2" x="1149.72" y="717.5" width="39.5" height="26.75"/>
      <polyline class="cls-3" points="1149.72 718.25 1110.97 718.25 1110.97 744.25 1230.97 744.25 1230.97 718.25 1146.47 718.25"/>
      <polyline class="cls-3" points="1111.47 718.25 1094.47 718.25 1094.47 744.25 1111.47 744.25"/>
      <line class="cls-3" x1="1111.47" y1="725" x2="1146.47" y2="725"/>
      <line class="cls-3" x1="1094.47" y1="737.25" x2="1139.22" y2="737.25"/>
      <line class="cls-3" x1="1102.97" y1="730" x2="1110.97" y2="730"/>
      <line class="cls-3" x1="1194.47" y1="737.25" x2="1207.47" y2="737.25"/>
      <line class="cls-3" x1="1149.72" y1="718.5" x2="1149.72" y2="744.25"/>
      <line class="cls-3" x1="1189.22" y1="718.5" x2="1189.22" y2="744.25"/>
    </g>
    <g>
      <rect class="cls-2" x="1166.72" y="691.75" width="39.5" height="26.75"/>
      <polyline class="cls-3" points="1166.72 692.5 1127.97 692.5 1127.97 718.5 1247.97 718.5 1247.97 692.5 1163.47 692.5"/>
      <polyline class="cls-3" points="1128.47 692.5 1111.47 692.5 1111.47 718.5 1128.47 718.5"/>
      <line class="cls-3" x1="1128.47" y1="699.25" x2="1163.47" y2="699.25"/>
      <line class="cls-3" x1="1119.97" y1="704.25" x2="1127.97" y2="704.25"/>
      <line class="cls-3" x1="1247.97" y1="705.75" x2="1226.22" y2="705.75"/>
      <line class="cls-3" x1="1211.47" y1="711.5" x2="1224.47" y2="711.5"/>
      <line class="cls-3" x1="1166.72" y1="692.75" x2="1166.72" y2="718.5"/>
      <line class="cls-3" x1="1206.22" y1="692.75" x2="1206.22" y2="718.5"/>
    </g>
    <g>
      <rect class="cls-2" x="1151.23" y="665.75" width="39.5" height="26.75"/>
      <polyline class="cls-3" points="1151.23 666.5 1112.48 666.5 1112.48 692.5 1232.48 692.5 1232.48 666.5 1147.98 666.5"/>
      <polyline class="cls-3" points="1112.98 666.5 1095.98 666.5 1095.98 692.5 1112.98 692.5"/>
      <line class="cls-3" x1="1104.48" y1="678.25" x2="1112.48" y2="678.25"/>
      <line class="cls-3" x1="1191.98" y1="673.25" x2="1232.48" y2="673.25"/>
      <line class="cls-3" x1="1195.98" y1="685.5" x2="1208.98" y2="685.5"/>
      <line class="cls-3" x1="1151.23" y1="666.75" x2="1151.23" y2="692.5"/>
      <line class="cls-3" x1="1190.73" y1="666.75" x2="1190.73" y2="692.5"/>
    </g>
    <g>
      <rect class="cls-2" x="1151.23" y="639.75" width="39.5" height="26.75"/>
      <polyline class="cls-3" points="1151.23 640.5 1112.48 640.5 1112.48 666.5 1232.48 666.5 1232.48 640.5 1147.98 640.5"/>
      <polyline class="cls-3" points="1112.98 640.5 1095.98 640.5 1095.98 666.5 1112.98 666.5"/>
      <line class="cls-3" x1="1104.48" y1="652.25" x2="1112.48" y2="652.25"/>
      <line class="cls-3" x1="1151.23" y1="640.75" x2="1151.23" y2="666.5"/>
      <line class="cls-3" x1="1190.73" y1="640.75" x2="1190.73" y2="666.5"/>
    </g>
    <g>
      <rect class="cls-2" x="1143.22" y="613.75" width="39.5" height="26.75"/>
      <polyline class="cls-3" points="1143.22 614.5 1104.47 614.5 1104.47 640.5 1224.47 640.5 1224.47 614.5 1139.97 614.5"/>
      <polyline class="cls-3" points="1104.97 614.5 1087.97 614.5 1087.97 640.5 1104.97 640.5"/>
      <line class="cls-3" x1="1096.47" y1="626.25" x2="1104.47" y2="626.25"/>
      <line class="cls-3" x1="1143.22" y1="614.75" x2="1143.22" y2="640.5"/>
      <line class="cls-3" x1="1182.72" y1="614.75" x2="1182.72" y2="640.5"/>
    </g>
    <g>
      <rect class="cls-2" x="1151.23" y="587.75" width="39.5" height="26.75"/>
      <polyline class="cls-3" points="1151.23 588.5 1112.48 588.5 1112.48 614.5 1232.48 614.5 1232.48 588.5 1147.98 588.5"/>
      <polyline class="cls-3" points="1112.98 588.5 1095.98 588.5 1095.98 614.5 1112.98 614.5"/>
      <line class="cls-3" x1="1151.23" y1="588.75" x2="1151.23" y2="614.5"/>
      <line class="cls-3" x1="1190.73" y1="588.75" x2="1190.73" y2="614.5"/>
    </g>
    <g>
      <rect class="cls-2" x="1151.23" y="561.75" width="39.5" height="26.75"/>
      <polyline class="cls-3" points="1151.23 562.5 1112.48 562.5 1112.48 588.5 1232.48 588.5 1232.48 562.5 1147.98 562.5"/>
      <polyline class="cls-3" points="1112.98 562.5 1095.98 562.5 1095.98 588.5 1112.98 588.5"/>
      <line class="cls-3" x1="1112.98" y1="569.25" x2="1147.98" y2="569.25"/>
      <line class="cls-3" x1="1151.23" y1="562.75" x2="1151.23" y2="588.5"/>
      <line class="cls-3" x1="1190.73" y1="562.75" x2="1190.73" y2="588.5"/>
    </g>
    <g>
      <rect class="cls-2" x="1143.22" y="535.75" width="39.5" height="26.75"/>
      <polyline class="cls-3" points="1143.22 536.5 1104.47 536.5 1104.47 562.5 1224.47 562.5 1224.47 536.5 1139.97 536.5"/>
      <polyline class="cls-3" points="1104.97 536.5 1087.97 536.5 1087.97 562.5 1104.97 562.5"/>
      <line class="cls-3" x1="1186.98" y1="543.25" x2="1221.98" y2="543.25"/>
      <line class="cls-3" x1="1096.47" y1="548.25" x2="1104.47" y2="548.25"/>
      <line class="cls-3" x1="1183.97" y1="543.25" x2="1224.47" y2="543.25"/>
      <line class="cls-3" x1="1224.47" y1="549.75" x2="1202.72" y2="549.75"/>
      <line class="cls-3" x1="1143.22" y1="536.75" x2="1143.22" y2="562.5"/>
      <line class="cls-3" x1="1182.72" y1="536.75" x2="1182.72" y2="562.5"/>
    </g>
    <path class="cls-1" d="M667.78,351.17a23.88,23.88,0,0,0-23.88-23.88h-222a23.65,23.65,0,0,0-23.65,23.65V555.88H667.78Z"/>
    <g>
      <path class="cls-2" d="M1087.86,511.43a289.35,289.35,0,0,1-38.5-13.87q6.12-12.74,11.12-25.82A262.42,262.42,0,0,0,1096.29,484Q1092.65,497.79,1087.86,511.43Z"/>
      <path class="cls-3" d="M1059.2,475a264.79,264.79,0,0,1-32.52-16.59q-5.6,10.62-12,20.87a289.26,289.26,0,0,0,116.75,40.84q2.88-12.61,4.9-25.28a263.33,263.33,0,0,1-40.94-7.43"/>
      <path class="cls-3" d="M1027.07,458.68q-6.78-4.06-13.26-8.47-6,10.25-12.92,20.09,6.92,4.83,14.18,9.27"/>
      <path class="cls-3" d="M1024.12,464.17a269.78,269.78,0,0,0,29.8,15.49"/>
      <path class="cls-3" d="M1004.53,465a283.9,283.9,0,0,0,38.09,22.18"/>
      <path class="cls-3" d="M1014.94,463.89q3.21,2.07,6.51,4.07"/>
      <path class="cls-3" d="M1094.78,494a269.71,269.71,0,0,0,40.42,7.42"/>
      <path class="cls-3" d="M1134,507.76q-11.32-1.25-22.34-3.4"/>
      <path class="cls-3" d="M1095.29,506.4q6.51,1.67,13.17,3"/>
      <path class="cls-3" d="M1060.48,471.74q-5,13.08-11.12,25.82"/>
      <path class="cls-3" d="M1096.29,484q-3.64,13.83-8.43,27.47"/>
      <path class="cls-3" d="M1137.56,486.35c-7.85,5-41.56-1.82-41.27-2.39a262.42,262.42,0,0,1-35.81-12.22c-22.39-9.74-30.46-19.85-30.55-19.66q-6.45-3.85-12.59-8s2.51,6.11,6.23,8.43"/>
    </g>
    <g>
      <rect class="cls-2" x="777.1" y="458.51" width="39.5" height="29.75"/>
      <polyline class="cls-3" points="777.1 462.26 738.35 462.26 738.35 488.26 858.35 488.26 858.35 462.26 816.6 462.26"/>
      <polyline class="cls-3" points="738.85 462.26 721.85 462.26 721.85 488.26 738.85 488.26"/>
      <line class="cls-3" x1="738.85" y1="469.01" x2="773.85" y2="469.01"/>
      <line class="cls-3" x1="721.85" y1="481.26" x2="766.6" y2="481.26"/>
      <line class="cls-3" x1="730.35" y1="474.01" x2="738.35" y2="474.01"/>
      <line class="cls-3" x1="817.85" y1="469.01" x2="858.35" y2="469.01"/>
      <line class="cls-3" x1="858.35" y1="475.51" x2="836.6" y2="475.51"/>
      <line class="cls-3" x1="821.85" y1="481.26" x2="834.85" y2="481.26"/>
      <line class="cls-3" x1="777.1" y1="458.51" x2="777.1" y2="488.26"/>
      <line class="cls-3" x1="816.6" y1="458.51" x2="816.6" y2="488.26"/>
      <path class="cls-3" d="M858.35,458.51H777.1c-25.75,0-38.75-4-38.75-4h-16.5s5.75,4,10.5,4"/>
    </g>
    <g>
      <path class="cls-2" d="M939.6,481.74a309.65,309.65,0,0,1-42-9.43q5.59-14,10.32-28.22a279.63,279.63,0,0,0,38.51,8.29Q943.44,467.1,939.6,481.74Z"/>
      <path class="cls-3" d="M906.7,447.67a275.74,275.74,0,0,1-35.61-13.07q-5.69,11.76-12,23.3a310.69,310.69,0,0,0,127.35,27.48q1.7-13.17,2.71-26.31a292.21,292.21,0,0,1-43.5-3"/>
      <path class="cls-3" d="M871.53,434.8q-7.5-3.35-14.71-7.09-6.29,11.43-13.21,22.61,7.82,4.11,15.94,7.79"/>
      <path class="cls-3" d="M868.54,440.89a283.33,283.33,0,0,0,32.76,12.25"/>
      <path class="cls-3" d="M847.29,444.28a292.23,292.23,0,0,0,42.37,18.09"/>
      <path class="cls-3" d="M858.56,441.79q3.6,1.74,7.26,3.39"/>
      <path class="cls-3" d="M945.5,463a300.44,300.44,0,0,0,43.07,2.94"/>
      <path class="cls-3" d="M987.93,472.47q-12,0-23.81-.9"/>
      <path class="cls-3" d="M947,475.64q7,.93,14.16,1.53"/>
      <path class="cls-3" d="M907.9,444.09q-4.73,14.19-10.32,28.22"/>
      <path class="cls-3" d="M946.41,452.38q-3,14.72-6.81,29.36"/>
      <path class="cls-3" d="M989.76,450.23c-7.78,5.88-43.61,2.75-43.35,2.15a279.63,279.63,0,0,1-38.51-8.29c-24.29-7.29-33.42-16.71-33.48-16.51q-7.09-3.16-13.91-6.7s2.9,6,7,7.94"/>
    </g>
    <rect class="cls-4" x="325.01" y="556.88" width="416.02" height="83.9"/>
    <rect class="cls-4" x="667.78" y="529.31" width="352.3" height="26.57"/>
    <rect class="cls-4" x="667.78" y="364.06" width="21.12" height="123.95"/>
    <polyline class="cls-5" points="1356.23 744.78 1044.23 744.78 1024.23 640.78 100.95 640.78 85.95 740.25"/>
    <line class="cls-5" x1="1370.23" y1="743.78" x2="1388.23" y2="743.78"/>
    <g>
      <g>
        <path class="cls-2" d="M432.48,369.67H429v5.95h-6.33v-22.4h10.24a12.85,12.85,0,0,1,5.28,1,7.8,7.8,0,0,1,3.45,2.88,7.92,7.92,0,0,1,1.22,4.4,7.77,7.77,0,0,1-1.14,4.24,7.64,7.64,0,0,1-3.25,2.83l4.83,7h-6.78Zm3-10.59a4.34,4.34,0,0,0-2.94-.87H429v6.57h3.52a4.44,4.44,0,0,0,2.94-.85,3,3,0,0,0,1-2.42A3,3,0,0,0,435.48,359.08Z"/>
        <path class="cls-2" d="M464.35,370.73v4.89h-18v-22.4h17.56v4.9H452.64v3.78h9.95v4.73h-9.95v4.1Z"/>
        <path class="cls-2" d="M482.88,371.27H473.4l-1.76,4.35h-6.46l9.89-22.4h6.24l9.92,22.4h-6.59ZM481,366.6l-2.88-7.17-2.88,7.17Z"/>
        <path class="cls-2" d="M493,353.22h6.34V370.6H510v5H493Z"/>
        <path class="cls-2" d="M542.07,375.62,542,363.75l-5.76,9.67h-2.81l-5.73-9.35v11.55h-5.86v-22.4h5.22l7.87,12.93,7.68-12.93h5.21l.07,22.4Z"/>
        <path class="cls-2" d="M557.29,374.57a11.45,11.45,0,0,1,0-20.29,14.34,14.34,0,0,1,12.77,0,11.45,11.45,0,0,1,0,20.29,14.34,14.34,0,0,1-12.77,0Zm9.46-4.55a5.73,5.73,0,0,0,2.17-2.25,7.39,7.39,0,0,0,0-6.69,5.83,5.83,0,0,0-2.17-2.26,6.31,6.31,0,0,0-6.15,0,5.83,5.83,0,0,0-2.17,2.26,7.39,7.39,0,0,0,0,6.69A5.73,5.73,0,0,0,560.6,370a6.31,6.31,0,0,0,6.15,0Z"/>
        <path class="cls-2" d="M600.76,353.22v22.4h-5.21l-9.89-11.93v11.93h-6.21v-22.4h5.22l9.88,11.94V353.22Z"/>
        <path class="cls-2" d="M623.23,370.73v4.89h-18v-22.4h17.57v4.9H611.52v3.78h10v4.73h-10v4.1Z"/>
        <path class="cls-2" d="M638.55,367.59v8h-6.33V367.5l-8.54-14.28h6.68l5.32,8.9,5.31-8.9h6.14Z"/>
        <path class="cls-2" d="M481.34,392.63a7.83,7.83,0,0,1,3.46,2.88,7.92,7.92,0,0,1,1.21,4.4,7.84,7.84,0,0,1-1.21,4.39,7.92,7.92,0,0,1-3.46,2.86,12.79,12.79,0,0,1-5.28,1h-3.9V414h-6.34v-22.4h10.24A12.79,12.79,0,0,1,481.34,392.63Zm-2.72,9.7a3,3,0,0,0,1-2.42,3.06,3.06,0,0,0-1-2.43,4.34,4.34,0,0,0-2.94-.86h-3.52v6.56h3.52A4.44,4.44,0,0,0,478.62,402.33Z"/>
        <path class="cls-2" d="M498.88,408.07h-3.46V414h-6.33v-22.4h10.24a12.85,12.85,0,0,1,5.28,1,7.8,7.8,0,0,1,3.45,2.88,7.92,7.92,0,0,1,1.22,4.4,7.77,7.77,0,0,1-1.14,4.24,7.64,7.64,0,0,1-3.25,2.83l4.83,7h-6.78Zm3-10.59a4.34,4.34,0,0,0-2.94-.86h-3.52v6.56h3.52a4.44,4.44,0,0,0,2.94-.85,3,3,0,0,0,1-2.42A3,3,0,0,0,501.88,397.48Z"/>
        <path class="cls-2" d="M512.77,391.62h6.33V414h-6.33Z"/>
        <path class="cls-2" d="M544.92,391.62V414h-5.21l-9.89-11.93V414h-6.21v-22.4h5.22l9.89,11.94V391.62Z"/>
        <path class="cls-2" d="M554.17,396.65h-6.88v-5h20.07v5h-6.85V414h-6.34Z"/>
        <path class="cls-2" d="M587.71,409.13V414h-18v-22.4h17.57v4.9H576v3.78h10V405H576v4.1Z"/>
        <path class="cls-2" d="M601,408.07h-3.46V414h-6.33v-22.4h10.24a12.85,12.85,0,0,1,5.28,1,7.8,7.8,0,0,1,3.45,2.88,7.92,7.92,0,0,1,1.22,4.4,7.77,7.77,0,0,1-1.14,4.24A7.61,7.61,0,0,1,607,407l4.83,7h-6.79Zm3-10.59a4.37,4.37,0,0,0-2.95-.86h-3.52v6.56h3.52a4.47,4.47,0,0,0,2.95-.85,3,3,0,0,0,1-2.42A3.06,3.06,0,0,0,604,397.48Z"/>
      </g>
      <rect class="cls-6" x="268.57" y="529.31" width="129.66" height="26.57"/>
      <path class="cls-5" d="M271.43,488h125.8v41.3H271.43a20.65,20.65,0,0,1,0-41.3Z"/>
      <path class="cls-7" d="M1040.73,508.66a20.65,20.65,0,0,1-20.65,20.65H667.78V488h352.3A20.65,20.65,0,0,1,1040.73,508.66Z"/>
      <path class="cls-5" d="M667.78,553.88V353.32a26,26,0,0,0-26-26H424.3a26,26,0,0,0-26,26"/>
      <line class="cls-5" x1="398.27" y1="355.33" x2="398.27" y2="552.83"/>
      <g>
        <path class="cls-5" d="M550.22,309.37a27.92,27.92,0,1,1,24.66,0"/>
        <line class="cls-3" x1="536.12" y1="293.3" x2="588.99" y2="293.3"/>
        <line class="cls-3" x1="572.76" y1="274.11" x2="562.55" y2="293.3"/>
      </g>
      <g>
        <path class="cls-5" d="M484.06,309.37a27.93,27.93,0,1,1,24.65,0"/>
        <line class="cls-3" x1="469.95" y1="293.3" x2="522.82" y2="293.3"/>
        <line class="cls-3" x1="496.38" y1="272.17" x2="496.38" y2="293.3"/>
      </g>
      <rect class="cls-3" x="448.29" y="310.44" width="169.47" height="15.84"/>
      <polyline class="cls-5" points="325.01 555.88 325.01 641.39 741.03 641.39 741.03 556.85"/>
      <g>
        <polyline class="cls-3" points="494.72 555.88 494.72 504.68 635.22 504.68 635.22 555.88"/>
        <rect class="cls-4" x="494.72" y="438.16" width="140.5" height="54.41"/>
        <rect class="cls-3" x="494.72" y="438.16" width="140.5" height="54.41"/>
        <line class="cls-3" x1="484.82" y1="438.16" x2="645.12" y2="438.16"/>
        <rect class="cls-2" x="505.94" y="444.58" width="118.06" height="28.94"/>
        <rect class="cls-3" x="505.94" y="444.58" width="118.06" height="28.94"/>
        <line class="cls-3" x1="506.93" y1="483.27" x2="514.85" y2="483.27"/>
        <line class="cls-3" x1="526.47" y1="483.27" x2="534.39" y2="483.27"/>
        <line class="cls-3" x1="546.01" y1="483.27" x2="553.93" y2="483.27"/>
        <line class="cls-3" x1="565.55" y1="483.27" x2="573.47" y2="483.27"/>
        <line class="cls-3" x1="505.94" y1="519.96" x2="624" y2="519.96"/>
        <line class="cls-3" x1="505.94" y1="527.34" x2="624" y2="527.34"/>
        <line class="cls-3" x1="505.94" y1="534.72" x2="624" y2="534.72"/>
        <line class="cls-3" x1="505.94" y1="542.11" x2="624" y2="542.11"/>
      </g>
      <g>
        <path class="cls-1" d="M403.47,521.39a32.5,32.5,0,0,1,32.25,32.5h-65c0-24.25,25.76-32,25.76-32Z"/>
        <path class="cls-1" d="M387.9,523.45,352.82,417a12.88,12.88,0,1,1,6.64-2.23l35,106.08Z"/>
        <path class="cls-3" d="M358.06,413,394.5,522.83a31.11,31.11,0,0,0-5.39,1.95l-36.49-110"/>
        <path class="cls-3" d="M435.8,553.88a32.34,32.34,0,1,0-64.67,0"/>
        <path class="cls-3" d="M340,402.1a12.39,12.39,0,0,0,13.16,14.39"/>
        <path class="cls-3" d="M364.47,402.67a12.37,12.37,0,0,1-5.83,12.05"/>
        <path class="cls-3" d="M363,396.83a13,13,0,0,0-19.61-1.89"/>
        <line class="cls-8" x1="368.67" y1="414.66" x2="388.25" y2="480.58"/>
        <line class="cls-8" x1="384.25" y1="426.08" x2="391.75" y2="463.08"/>
      </g>
      <circle class="cls-3" cx="277.23" cy="508.66" r="9.33"/>
      <circle class="cls-3" cx="695.04" cy="508.66" r="9.33"/>
      <circle class="cls-3" cx="768.76" cy="508.66" r="9.33"/>
      <circle class="cls-3" cx="892.47" cy="508.66" r="9.33"/>
      <circle class="cls-3" cx="1017.91" cy="508.66" r="9.33"/>
      <rect class="cls-3" x="667.78" y="529.31" width="352.3" height="26.57"/>
      <line class="cls-3" x1="987.25" y1="555.88" x2="987.25" y2="642.78"/>
      <line class="cls-3" x1="967.6" y1="642.78" x2="967.6" y2="555.88"/>
    </g>
    <line class="cls-3" x1="667.78" y1="555.88" x2="400.75" y2="555.88"/>
    <polyline class="cls-3" points="667.78 364.06 688.9 364.06 688.9 488.01"/>
    <line class="cls-3" x1="1104.48" y1="555.88" x2="1133.48" y2="555.88"/>
    <line class="cls-3" x1="1087.97" y1="542.59" x2="1098.48" y2="542.59"/>
    <line class="cls-3" x1="1096.47" y1="575.5" x2="1108.48" y2="575.5"/>
    <line class="cls-3" x1="1095.98" y1="582.89" x2="1133.48" y2="582.89"/>
    <line class="cls-3" x1="1198.48" y1="570.39" x2="1232.48" y2="570.39"/>
    <line class="cls-3" x1="1232.48" y1="580.39" x2="1215.48" y2="580.39"/>
    <line class="cls-3" x1="1096.47" y1="599.33" x2="1127.97" y2="599.33"/>
    <line class="cls-3" x1="1112.48" y1="608.14" x2="1134.98" y2="608.14"/>
    <line class="cls-3" x1="1232.48" y1="599.33" x2="1210.48" y2="599.33"/>
    <line class="cls-3" x1="1087.97" y1="633.89" x2="1125.98" y2="633.89"/>
    <line class="cls-3" x1="1223.98" y1="620.39" x2="1198.48" y2="620.39"/>
    <line class="cls-3" x1="1224.47" y1="632.14" x2="1198.48" y2="632.14"/>
    <line class="cls-3" x1="1100.47" y1="644.78" x2="1143.22" y2="644.78"/>
    <line class="cls-3" x1="1095.98" y1="661.39" x2="1108.48" y2="661.39"/>
    <line class="cls-3" x1="1232.48" y1="646.89" x2="1198.48" y2="646.89"/>
    <line class="cls-3" x1="1232.48" y1="653.63" x2="1210.48" y2="653.63"/>
    <line class="cls-3" x1="1232.48" y1="661.39" x2="1213.6" y2="661.39"/>
    <line class="cls-3" x1="1112.22" y1="671.39" x2="1121.85" y2="671.39"/>
    <line class="cls-3" x1="1112.48" y1="685.5" x2="1147.98" y2="685.5"/>
    <line class="cls-3" x1="1127.97" y1="711.5" x2="1145.97" y2="711.5"/>
    <g>
      <line class="cls-5" x1="876.65" y1="780.39" x2="950.48" y2="780.39"/>
      <line class="cls-5" x1="508.88" y1="780.39" x2="855.62" y2="780.39"/>
      <line class="cls-5" x1="403.73" y1="780.39" x2="490.19" y2="780.39"/>
    </g>
    <line class="Graphic-Style" x1="854.4" y1="312.48" x2="946.74" y2="312.48"/>
    <line class="cls-8" x1="713.25" y1="437.31" x2="805.6" y2="437.31"/>
    <line class="cls-8" x1="1042.18" y1="198.33" x2="1204.89" y2="198.33"/>
    <line class="cls-8" x1="696.81" y1="129.75" x2="633.75" y2="129.75"/>
    <path class="cls-9" d="M793.73,393.42,829.26,404s6.46-44.1,63.21-45.6c-1.24,0-34.9-14-34.9-14C825.23,346.89,803.73,363.19,793.73,393.42Z"/>
    <path class="cls-10" d="M1060,368.23l-.47-37.07s-44,6.94-62.33-46.81c.37,1.19-3,37.49-3,37.49C1006.18,352,1028.13,367.66,1060,368.23Z"/>
    <path class="cls-10" d="M698.89,296l-16.41-33.23S645.76,288,606.05,247.39c.85.92,13.49,35.11,13.49,35.11C643.36,304.51,669.94,309.18,698.89,296Z"/>
    <path class="cls-2" d="M714.05,416.64s12.63-2.36,22.05-19.34c5.22-9.42-1.45-12.59,5.72-25.19a79.63,79.63,0,0,1,16.81-20.43L725,341.77s-17.32,10.35-20.85,24.64-.91,25-9.18,32.4-9.94,8.35-9.94,8.35Z"/>
    <path class="cls-11" d="M714.05,416.64s12.63-2.36,22.05-19.34c5.22-9.42-1.45-12.59,5.72-25.19a79.63,79.63,0,0,1,16.81-20.43L725,341.77s-17.32,10.35-20.85,24.64-.91,25-9.18,32.4-9.94,8.35-9.94,8.35Z"/>
    <path class="cls-10" d="M1196.43,502.41s12.63-2.36,22-19.34c5.22-9.41-1.45-12.59,5.71-25.19A79.55,79.55,0,0,1,1241,437.45l-33.6-9.91s-17.32,10.35-20.85,24.64-.91,25-9.19,32.4-9.93,8.35-9.93,8.35Z"/>
    <path class="cls-10" d="M1196.43,502.41s12.63-2.36,22-19.34c5.22-9.41-1.45-12.59,5.71-25.19A79.55,79.55,0,0,1,1241,437.45l-33.6-9.91s-17.32,10.35-20.85,24.64-.91,25-9.19,32.4-9.93,8.35-9.93,8.35Z"/>
    <g>
      <path class="cls-1" d="M304.17,410.49l11,.5,3.67-24.33s-19.34-7.83-20.84-7.83c-10.66-47.17-28.16-66.5-45.38-77.41-38.47-24.35-71.59-10.07-85.05-4.18-64.95,40.92-76.7,148.28-76.7,148.28l57,17.84v18.89l22.39,139.91H140.53v19.23h151.8L292,632.8l-3.19-6.48L279.69,621l-17.44-.57,39.87-138.16,1.76-30-.71-41.38ZM133.37,421.3l13.76-15.47,1.27,26.41Z"/>
      <path class="cls-5" d="M147.88,463.36l-57-17.83S105.6,336.46,164.67,299c36.38-23.08,78-3.14,78-3.14s7.46,2.52,17.64,9.38c40.56,31.11,51.44,130.12,41.82,177.39.35-.35-39.88,137.81-39.88,137.81h12.42c9.76,0,17.67,6.15,17.67,15.91v5.07H140.54v-3.32a17.66,17.66,0,0,1,17.66-17.66h12.07L147.88,482.25v-76.6"/>
      <line class="cls-5" x1="170.27" y1="620.41" x2="262.25" y2="620.41"/>
      <polyline class="cls-3" points="237.25 551.66 218.36 620.4 218.36 641.39"/>
      <line class="cls-3" x1="147.88" y1="482.25" x2="302.13" y2="482.25"/>
      <polyline class="cls-3" points="164.32 386.06 132.49 421.74 148.41 432.23"/>
      <path class="cls-12" d="M318.62,386.28,330,381.34a24.82,24.82,0,0,1,14-1.71l23.75,4a4.58,4.58,0,0,1,3.81,4.43l.1,6.18a4.57,4.57,0,0,1-3.73,4.57l-12.51,2.32a15.3,15.3,0,0,0-8,4.2l-3.93,3.92a15.28,15.28,0,0,1-13.09,4.29L315,411.2Z"/>
      <g>
        <g>
          <g>
            <path class="cls-1" d="M261.83,268.53A29.35,29.35,0,0,1,240.24,304l-38.8,9.41A29.34,29.34,0,0,1,166,291.79l-13.45-55.43a29.33,29.33,0,0,1,21.58-35.43L213,191.51a29.33,29.33,0,0,1,35.42,21.59Z"/>
            <path class="cls-5" d="M261.83,268.53A29.35,29.35,0,0,1,240.24,304l-38.8,9.41A29.34,29.34,0,0,1,166,291.79l-13.45-55.43a29.33,29.33,0,0,1,21.58-35.43L213,191.51a29.33,29.33,0,0,1,35.42,21.59Z"/>
          </g>
          <g>
            <g>
              <path class="cls-4" d="M193.32,283.51c10.76-1.15,9.41-23.63,37.28-11.72,21.71-20,26.13-4.42,38.82-4.61-9.23,11.91-19.8,17.67-29,12.49s-13.71,1.65-16.91,5.18C219.84,288.89,206.2,292.54,193.32,283.51Z"/>
              <path class="cls-3" d="M193.32,283.51c10.76-1.15,9.41-23.63,37.28-11.72,21.71-20,26.13-4.42,38.82-4.61-9.23,11.91-19.8,17.67-29,12.49s-13.71,1.65-16.91,5.18C219.84,288.89,206.2,292.54,193.32,283.51Z"/>
            </g>
            <g>
              <g>
                <path class="cls-3" d="M167.57,295c7.69,0,18.45-5,15.76-45.73"/>
                <g>
                  <path class="cls-4" d="M214.84,241.52a16.24,16.24,0,1,0-16.23,16.24A16.23,16.23,0,0,0,214.84,241.52Z"/>
                  <g>
                    <path class="cls-13" d="M214.84,241.52a16.24,16.24,0,1,0-16.23,16.24A16.23,16.23,0,0,0,214.84,241.52Z"/>
                    <g>
                      <path class="cls-14" d="M214.84,241.52a16.24,16.24,0,1,0-16.23,16.24A16.23,16.23,0,0,0,214.84,241.52Z"/>
                      <path class="cls-14" d="M214.84,241.52a16.24,16.24,0,1,0-16.23,16.24A16.23,16.23,0,0,0,214.84,241.52Z"/>
                    </g>
                  </g>
                </g>
              </g>
              <g>
                <g>
                  <path class="cls-13" d="M208.08,242.6a8.37,8.37,0,0,0-16.44,3.11"/>
                  <path class="cls-13" d="M241.51,236.45a8.37,8.37,0,0,0-16.44,3.11"/>
                </g>
                <g>
                  <g>
                    <path class="cls-14" d="M208.08,242.6a8.37,8.37,0,0,0-16.44,3.11"/>
                    <path class="cls-14" d="M208.08,242.6a8.37,8.37,0,0,0-16.44,3.11"/>
                  </g>
                  <g>
                    <path class="cls-14" d="M241.51,236.45a8.37,8.37,0,0,0-16.44,3.11"/>
                    <path class="cls-14" d="M241.51,236.45a8.37,8.37,0,0,0-16.44,3.11"/>
                  </g>
                </g>
              </g>
            </g>
          </g>
        </g>
        <g>
          <path class="cls-1" d="M147.94,212.73,129.44,135,223,112.61l18.49,77.78Zm93.59-21.82-94.28,22.26-35.8,22.69,172.24-40.69Z"/>
          <polygon class="cls-15" points="177.06 205.7 147.94 212.74 129.44 134.95 158.56 127.91 177.06 205.7"/>
          <polygon class="cls-5" points="283.69 195.16 111.45 235.86 147.25 213.17 241.53 190.91 283.69 195.16"/>
          <polygon class="cls-5" points="241.46 190.39 147.94 212.73 129.44 134.95 222.97 112.61 241.46 190.39"/>
          <g>
            <rect class="cls-2" x="143.36" y="173.66" width="96.15" height="28.31" transform="translate(-38.31 49.46) rotate(-13.4)"/>
            <rect class="cls-5" x="143.36" y="173.66" width="96.15" height="28.31" transform="translate(-38.31 49.46) rotate(-13.4)"/>
          </g>
        </g>
      </g>
      <g>
        <path class="cls-2" d="M266.45,340.76l-19.95-2.28a11.81,11.81,0,0,1-21.6,3.73l-18,9.45-2.65-27.45,19.76,7.27a11.8,11.8,0,0,1,19.43-3.62L259,314.21Z"/>
        <path class="cls-3" d="M224.9,342.21l-18,9.45-2.65-27.45,19.76,7.27h0a11.56,11.56,0,0,0-.91,4.53A11.79,11.79,0,0,0,224.9,342.21Z"/>
        <path class="cls-3" d="M246.5,338.48a12.44,12.44,0,0,0,.26-2.46,11.75,11.75,0,0,0-3.28-8.16L259,314.21l7.5,26.55Z"/>
        <path class="cls-3" d="M246.76,336A11.81,11.81,0,1,0,235,347.83,11.81,11.81,0,0,0,246.76,336Z"/>
      </g>
      <path class="cls-5" d="M318,386.08c-.75,0-19.25-7.25-19.25-7.25"/>
      <line class="cls-5" x1="314.25" y1="411.08" x2="304.25" y2="410.83"/>
    </g>
  </g>
</svg>
