<svg id="work" xmlns="http://www.w3.org/2000/svg" viewBox="0 0 1422 870">
  <defs>
    <style>
      .cls-1, .cls-4 {
        fill: #fff;
      }

      .cls-2 {
        fill: #ebebeb;
      }

      .cls-3, .cls-7 {
        fill: none;
      }

      .cls-3, .cls-4, .cls-7 {
        stroke: #4a4a4a;
        stroke-linecap: round;
        stroke-linejoin: round;
      }

      .cls-3, .cls-4 {
        stroke-width: 2.5px;
      }

      .cls-5 {
        fill: #ff0083;
      }

      .cls-6 {
        fill: #4a4a4a;
      }

      .cls-7 {
        stroke-width: 4px;
      }
    </style>
  </defs>
  <title>28,3</title>
  <g>
    <path class="cls-1" d="M838,211.67H951.67c1-46.67-13.33-70-46-70l-2.34-5-18,.66L880.67,144c-7.34,1.33-14,13.33-14,13.33-9.34,2-28.67,6.34-16.34,38,.67,3.34,4,7,4,7Z"/>
    <polygon class="cls-1" points="1053 337.33 1191 337.33 1240 342.33 1241 712.67 1046.33 712.67 1044.33 344 1053 337.33"/>
    <path class="cls-1" d="M824.34,716.67V711c0-9,7.31-17.33,16.33-17.33h11.67V479H847V345.67s-38.33,46-66.66,61.33c-4.67-4.33-20.67-19.33-20.67-19.33s51-65,65-87C836.34,283,857,276,869.34,276h83s18.66-3.67,57,41.67l1.66.66,42.67-11.66L1068,331.33l1.34.34-60,29.66-39.34-12,2.34,130L967.67,481,967,694v22.33Z"/>
    <g>
      <g>
        <path class="cls-2" d="M1058.93,307c9.57,12,45.91,10.67,59.24,0,.65-2.54,0-2.56,0-2.56-14.67,5.89-38.34,5-57.34-1C1060.5,304.21,1058.93,307,1058.93,307Z"/>
        <polygon class="cls-2" points="971 348.5 971.5 478.18 951.68 478.18 951.68 339.5 971 348.5"/>
        <polygon class="cls-2" points="919.02 691.33 904 691.33 904 504.76 919.02 509.76 919.02 691.33"/>
        <path class="cls-2" d="M847.5,343.33H834.17l-58.8,58.34L780.5,407S840.17,357.33,847.5,343.33Z"/>
        <polygon class="cls-2" points="1045.5 713.48 1007 677.5 1007 361.5 1045.5 343.33 1045.5 713.48"/>
        <polyline class="cls-2" points="1322.5 666.28 1240.17 666.28 1240.17 379 1304 379 1346.84 384.83 1346.84 651.29"/>
      </g>
      <g>
        <g>
          <polygon class="cls-2" points="549.09 715.27 549.09 700.15 543.48 662.95 348.19 662.95 342.62 700.15 342.62 715.71 549.09 715.27"/>
          <polygon class="cls-2" points="293.86 661.79 293.85 677.28 279.65 714.65 74.58 714.58 74.59 699.58 279.66 699.65 279.66 699.16 293.86 661.79"/>
          <polyline class="cls-2" points="74.59 699.58 118.05 663.67 127.66 663.67 127.66 670.59 257.78 670.63 257.78 663.72 294.04 662.95 279.66 699.16"/>
          <polygon class="cls-2" points="342.62 481.41 342.62 470.04 346.22 454.62 542.86 454.62 548.56 467.5 548.56 481.41 342.62 481.41"/>
        </g>
        <g>
          <polygon class="cls-2" points="808.15 475.27 808.15 475.73 806.78 475.27 808.15 475.27"/>
          <polygon class="cls-2" points="808.15 475.73 808.15 481.41 601.67 481.41 601.67 482.36 587.93 467.21 587.93 461.66 624.73 461.66 624.73 467.21 592.97 467.21 601.67 476.81 601.67 475.27 791.58 475.27 764.5 466.26 754.85 466.26 754.85 461.19 764.5 461.19 806.78 475.27 808.15 475.73"/>
        </g>
        <path class="cls-2" d="M587.63,661.79v15.49l14.2,37.37,205.07-.07v-15l-205.07.07v-.49ZM764.5,663l42.4,36.63-205.07-.42L587.93,663Z"/>
        <polygon class="cls-2" points="294.42 454.71 293.92 467.24 280.23 481.37 74.66 481.3 74.46 470.02 74.67 468.65 117.64 454.15 294.42 454.71"/>
        <g>
          <g>
            <rect class="cls-3" x="73.83" y="468.7" width="206.47" height="247"/>
            <polygon class="cls-3" points="280.3 468.7 73.83 468.7 117.48 454.62 294.54 454.62 280.3 468.7"/>
            <line class="cls-3" x1="294.54" y1="454.62" x2="294.54" y2="675.85"/>
            <line class="cls-3" x1="294.54" y1="675.85" x2="280.3" y2="715.71"/>
            <line class="cls-3" x1="73.83" y1="700.15" x2="280.3" y2="700.15"/>
            <line class="cls-3" x1="117.48" y1="662.95" x2="294.04" y2="662.95"/>
            <line class="cls-3" x1="279.8" y1="700.65" x2="294.04" y2="662.95"/>
            <line class="cls-3" x1="73.83" y1="700.65" x2="117.48" y2="662.95"/>
            <line class="cls-3" x1="117.48" y1="475.46" x2="117.48" y2="662.95"/>
            <rect class="cls-4" x="127.12" y="486.85" width="130.7" height="195.94"/>
            <polyline class="cls-3" points="73.83 475.46 280.3 475.46 294.54 461.17"/>
            <polyline class="cls-3" points="73.83 481.41 280.3 481.41 294.04 467.21"/>
            <g>
              <g>
                <path class="cls-5" d="M166.73,543.62h-1.91v1.86h-1.41v-1.86h-1.9v-1.33h1.9v-1.87h1.41v1.87h1.91Z"/>
                <path class="cls-5" d="M170.55,539.12v7.67h-1.78v-6.25h-1.53v-1.42Z"/>
                <path class="cls-5" d="M182.12,543.5a1.88,1.88,0,0,1,.38,1.19,1.77,1.77,0,0,1-.79,1.55,4,4,0,0,1-2.28.55h-4v-7.67h3.75a3.65,3.65,0,0,1,2.15.54,1.68,1.68,0,0,1,.75,1.45,1.85,1.85,0,0,1-.27,1,1.92,1.92,0,0,1-.75.69A2,2,0,0,1,182.12,543.5Zm-4.89-3v1.8H179a1.74,1.74,0,0,0,1-.23.78.78,0,0,0,.34-.68.76.76,0,0,0-.34-.67,1.83,1.83,0,0,0-1-.22Zm3.12,4.76a.78.78,0,0,0,.36-.71q0-1-1.41-1h-2.07v1.9h2.07A2,2,0,0,0,180.35,545.22Z"/>
                <path class="cls-5" d="M185.32,540.57h-2.45v-1.45h6.68v1.45h-2.46v6.22h-1.77Z"/>
                <path class="cls-5" d="M191.94,546.41a3.82,3.82,0,0,1-1.49-1.41,4,4,0,0,1-.54-2,3.89,3.89,0,0,1,.54-2,3.82,3.82,0,0,1,1.49-1.41,4.41,4.41,0,0,1,2.13-.51,4.55,4.55,0,0,1,1.8.35,3.48,3.48,0,0,1,1.35,1l-1.14,1a2.43,2.43,0,0,0-1.92-.9,2.52,2.52,0,0,0-1.27.31,2.14,2.14,0,0,0-.87.87,2.55,2.55,0,0,0-.32,1.27,2.52,2.52,0,0,0,.32,1.27,2.09,2.09,0,0,0,.87.87,2.52,2.52,0,0,0,1.27.32,2.44,2.44,0,0,0,1.92-.91l1.14,1a3.57,3.57,0,0,1-1.36,1,4.51,4.51,0,0,1-1.8.35A4.4,4.4,0,0,1,191.94,546.41Z"/>
                <path class="cls-5" d="M201.17,543h3.1v1.37h-3.1Z"/>
                <path class="cls-5" d="M205.47,543h3.1v1.37h-3.1Z"/>
                <path class="cls-5" d="M209.76,543h3.1v1.37h-3.1Z"/>
                <path class="cls-5" d="M214.05,543h3.1v1.37h-3.1Z"/>
                <path class="cls-5" d="M218.34,543h3.1v1.37h-3.1Z"/>
                <path class="cls-5" d="M166.73,572.26h-1.91v1.86h-1.41v-1.86h-1.9v-1.34h1.9v-1.86h1.41v1.86h1.91Z"/>
                <path class="cls-5" d="M170.55,567.76v7.66h-1.78v-6.24h-1.53v-1.42Z"/>
                <path class="cls-5" d="M173.47,575.08a3.12,3.12,0,0,1-1.16-1.36,4.79,4.79,0,0,1-.43-2.13,4.85,4.85,0,0,1,.43-2.13,3.18,3.18,0,0,1,1.16-1.36,3.31,3.31,0,0,1,3.4,0,3.18,3.18,0,0,1,1.16,1.36,5,5,0,0,1,.42,2.13,4.93,4.93,0,0,1-.42,2.13,3.06,3.06,0,0,1-2.86,1.84A3.07,3.07,0,0,1,173.47,575.08Zm2.8-1.63a4.52,4.52,0,0,0,0-3.72,1.3,1.3,0,0,0-2.19,0,4.52,4.52,0,0,0,0,3.72,1.29,1.29,0,0,0,2.19,0Z"/>
                <path class="cls-5" d="M189.56,572.13a1.93,1.93,0,0,1,.37,1.2,1.77,1.77,0,0,1-.78,1.55,4.06,4.06,0,0,1-2.29.54h-4v-7.66h3.74a3.66,3.66,0,0,1,2.16.54,1.68,1.68,0,0,1,.75,1.45,1.85,1.85,0,0,1-.27,1,1.92,1.92,0,0,1-.75.69A2.05,2.05,0,0,1,189.56,572.13Zm-4.9-3v1.8h1.76a1.72,1.72,0,0,0,1-.23.76.76,0,0,0,.34-.68.74.74,0,0,0-.34-.67,1.81,1.81,0,0,0-1-.22Zm3.13,4.76a.77.77,0,0,0,.35-.71q0-1-1.41-1h-2.07v1.9h2.07A2,2,0,0,0,187.79,573.86Z"/>
                <path class="cls-5" d="M192.75,569.21H190.3v-1.45H197v1.45h-2.45v6.21h-1.78Z"/>
                <path class="cls-5" d="M199.37,575.05a3.84,3.84,0,0,1-1.49-1.42,3.92,3.92,0,0,1,1.49-5.49,4.75,4.75,0,0,1,3.93-.16,3.59,3.59,0,0,1,1.36,1l-1.14,1a2.45,2.45,0,0,0-1.93-.9,2.54,2.54,0,0,0-1.27.31,2.27,2.27,0,0,0-.87.87,2.54,2.54,0,0,0-.31,1.27,2.52,2.52,0,0,0,.31,1.27,2.21,2.21,0,0,0,.87.87,2.54,2.54,0,0,0,1.27.31,2.45,2.45,0,0,0,1.93-.9l1.14,1.05a3.73,3.73,0,0,1-1.36,1,4.56,4.56,0,0,1-1.81.35A4.4,4.4,0,0,1,199.37,575.05Z"/>
                <path class="cls-5" d="M208.61,571.66h3.1V573h-3.1Z"/>
                <path class="cls-5" d="M212.9,571.66H216V573h-3.1Z"/>
                <path class="cls-5" d="M217.19,571.66h3.1V573h-3.1Z"/>
                <path class="cls-5" d="M161.41,600.3h3.09v1.37h-3.09Z"/>
                <path class="cls-5" d="M170.4,600.27a2.11,2.11,0,0,1,.53,1.45,2.2,2.2,0,0,1-.35,1.23,2.43,2.43,0,0,1-1.07.91,4.13,4.13,0,0,1-1.75.34,5.77,5.77,0,0,1-1.6-.22,4.17,4.17,0,0,1-1.33-.6l.69-1.36a3.25,3.25,0,0,0,1,.51,3.86,3.86,0,0,0,1.17.18,1.85,1.85,0,0,0,1-.26.82.82,0,0,0,.39-.73c0-.63-.48-.94-1.44-.94h-.81v-1.17l1.58-1.79h-3.26V596.4h5.36v1.15l-1.73,2A2.61,2.61,0,0,1,170.4,600.27Z"/>
                <path class="cls-5" d="M182,600.78a1.88,1.88,0,0,1,.37,1.19,1.76,1.76,0,0,1-.78,1.55,4,4,0,0,1-2.28.55h-4V596.4h3.75a3.65,3.65,0,0,1,2.15.54,1.68,1.68,0,0,1,.75,1.45,1.85,1.85,0,0,1-.27,1,1.92,1.92,0,0,1-.75.69A2,2,0,0,1,182,600.78Zm-4.89-3v1.8h1.76a1.74,1.74,0,0,0,1-.23.78.78,0,0,0,.34-.68.76.76,0,0,0-.34-.67,1.83,1.83,0,0,0-1-.22Zm3.12,4.76a.78.78,0,0,0,.36-.71q0-1-1.41-1H177.1v1.9h2.07A2,2,0,0,0,180.22,602.5Z"/>
                <path class="cls-5" d="M185.19,597.85h-2.45V596.4h6.68v1.45H187v6.22h-1.77Z"/>
                <path class="cls-5" d="M191.81,603.69a3.82,3.82,0,0,1-1.49-1.41,4,4,0,0,1-.54-2,3.89,3.89,0,0,1,.54-2,3.82,3.82,0,0,1,1.49-1.41,4.41,4.41,0,0,1,2.13-.51,4.55,4.55,0,0,1,1.8.35,3.56,3.56,0,0,1,1.35,1l-1.14,1a2.45,2.45,0,0,0-1.93-.9,2.57,2.57,0,0,0-1.27.31,2.27,2.27,0,0,0-.87.87,2.65,2.65,0,0,0-.31,1.27,2.62,2.62,0,0,0,.31,1.27,2.14,2.14,0,0,0,.87.87,2.58,2.58,0,0,0,1.27.32,2.46,2.46,0,0,0,1.93-.91l1.14,1.05a3.64,3.64,0,0,1-1.36,1,4.55,4.55,0,0,1-1.8.35A4.4,4.4,0,0,1,191.81,603.69Z"/>
                <path class="cls-5" d="M201,600.3h3.1v1.37H201Z"/>
                <path class="cls-5" d="M205.34,600.3h3.09v1.37h-3.09Z"/>
                <path class="cls-5" d="M209.63,600.3h3.1v1.37h-3.1Z"/>
                <path class="cls-5" d="M213.92,600.3H217v1.37h-3.1Z"/>
                <path class="cls-5" d="M218.21,600.3h3.1v1.37h-3.1Z"/>
                <path class="cls-5" d="M166.73,629.54h-1.91v1.86h-1.41v-1.86h-1.9v-1.33h1.9v-1.87h1.41v1.87h1.91Z"/>
                <path class="cls-5" d="M173.37,631.26v1.45h-5.79v-1.15l3-2.8a3.12,3.12,0,0,0,.63-.77,1.39,1.39,0,0,0,.17-.64.86.86,0,0,0-.32-.71,1.45,1.45,0,0,0-.91-.24,2.06,2.06,0,0,0-.91.19,1.86,1.86,0,0,0-.68.57l-1.29-.83a3,3,0,0,1,1.24-1,4,4,0,0,1,1.8-.38,3.68,3.68,0,0,1,1.5.28,2.27,2.27,0,0,1,1,.79,2.08,2.08,0,0,1,.35,1.19,2.79,2.79,0,0,1-.26,1.18,4.81,4.81,0,0,1-1,1.25l-1.76,1.66Z"/>
                <path class="cls-5" d="M179.83,631.26v1.45H174v-1.15l3-2.8a3.12,3.12,0,0,0,.63-.77,1.39,1.39,0,0,0,.17-.64.88.88,0,0,0-.31-.71,1.51,1.51,0,0,0-.92-.24,2.09,2.09,0,0,0-.91.19,1.86,1.86,0,0,0-.68.57l-1.29-.83a3,3,0,0,1,1.24-1,4,4,0,0,1,1.81-.38,3.63,3.63,0,0,1,1.49.28,2.27,2.27,0,0,1,1,.79,2.08,2.08,0,0,1,.35,1.19,2.64,2.64,0,0,1-.26,1.18,4.61,4.61,0,0,1-1,1.25l-1.76,1.66Z"/>
                <path class="cls-5" d="M190.81,629.42a1.94,1.94,0,0,1,.37,1.19,1.76,1.76,0,0,1-.78,1.55,4.05,4.05,0,0,1-2.29.55h-4V625h3.74a3.63,3.63,0,0,1,2.15.54,1.68,1.68,0,0,1,.75,1.45,1.84,1.84,0,0,1-.26,1,1.92,1.92,0,0,1-.75.69A2,2,0,0,1,190.81,629.42Zm-4.9-3v1.8h1.76a1.74,1.74,0,0,0,1-.23.76.76,0,0,0,.34-.68.74.74,0,0,0-.34-.67,1.83,1.83,0,0,0-1-.22Zm3.13,4.76a.79.79,0,0,0,.35-.71q0-1-1.41-1h-2.07v1.9H188A2,2,0,0,0,189,631.14Z"/>
                <path class="cls-5" d="M194,626.49h-2.45V625h6.68v1.45h-2.45v6.22H194Z"/>
                <path class="cls-5" d="M200.62,632.33a3.89,3.89,0,0,1-1.49-1.41,4,4,0,0,1-.54-2,3.8,3.8,0,0,1,2-3.45,4.41,4.41,0,0,1,2.13-.51,4.48,4.48,0,0,1,1.8.35,3.59,3.59,0,0,1,1.36,1l-1.14,1.05a2.45,2.45,0,0,0-1.93-.9,2.54,2.54,0,0,0-1.27.31,2.27,2.27,0,0,0-.87.87,2.54,2.54,0,0,0-.31,1.27,2.52,2.52,0,0,0,.31,1.27,2.21,2.21,0,0,0,.87.87,2.55,2.55,0,0,0,1.27.32,2.46,2.46,0,0,0,1.93-.91l1.14,1.05a3.73,3.73,0,0,1-1.36,1,4.56,4.56,0,0,1-1.81.35A4.4,4.4,0,0,1,200.62,632.33Z"/>
                <path class="cls-5" d="M209.86,628.94H213v1.37h-3.1Z"/>
                <path class="cls-5" d="M214.15,628.94h3.1v1.37h-3.1Z"/>
                <path class="cls-5" d="M218.44,628.94h3.1v1.37h-3.1Z"/>
              </g>
              <path class="cls-5" d="M228.58,576.53a1.1,1.1,0,0,1-.74-.29L224,572.57a1.07,1.07,0,0,1,1.47-1.56l3.14,3,8.23-8.09a1.07,1.07,0,1,1,1.5,1.52l-9,8.82A1.1,1.1,0,0,1,228.58,576.53Z"/>
              <path class="cls-5" d="M228.58,549.43a1.05,1.05,0,0,1-.74-.29L224,545.47a1.07,1.07,0,1,1,1.47-1.55l3.14,3,8.23-8.1a1.07,1.07,0,0,1,1.51,0,1.08,1.08,0,0,1,0,1.52l-9,8.82A1.08,1.08,0,0,1,228.58,549.43Z"/>
              <path class="cls-5" d="M228.58,604.31a1.05,1.05,0,0,1-.74-.29L224,600.35a1.07,1.07,0,1,1,1.47-1.55l3.14,3,8.23-8.1a1.07,1.07,0,0,1,1.5,1.53l-9,8.82A1.08,1.08,0,0,1,228.58,604.31Z"/>
              <path class="cls-5" d="M228.58,632.1a1.1,1.1,0,0,1-.74-.29L224,628.14a1.07,1.07,0,0,1,0-1.52,1.06,1.06,0,0,1,1.51,0l3.14,3,8.23-8.09a1.07,1.07,0,1,1,1.5,1.52l-9,8.82A1.1,1.1,0,0,1,228.58,632.1Z"/>
            </g>
            <g>
              <path class="cls-3" d="M141.55,667.5a3.88,3.88,0,1,0-3.87,3.88A3.87,3.87,0,0,0,141.55,667.5Z"/>
              <path class="cls-3" d="M141.55,643.66a3.88,3.88,0,1,0-3.87,3.88A3.88,3.88,0,0,0,141.55,643.66Z"/>
              <path class="cls-3" d="M141.55,619.81a3.88,3.88,0,1,0-3.87,3.88A3.87,3.87,0,0,0,141.55,619.81Z"/>
              <path class="cls-3" d="M141.55,596a3.88,3.88,0,1,0-3.87,3.88A3.88,3.88,0,0,0,141.55,596Z"/>
              <path class="cls-3" d="M141.55,572.12a3.88,3.88,0,1,0-3.87,3.88A3.87,3.87,0,0,0,141.55,572.12Z"/>
              <path class="cls-3" d="M141.55,548.28a3.88,3.88,0,1,0-3.87,3.88A3.87,3.87,0,0,0,141.55,548.28Z"/>
              <path class="cls-3" d="M141.55,524.43a3.88,3.88,0,1,0-3.87,3.88A3.87,3.87,0,0,0,141.55,524.43Z"/>
              <path class="cls-3" d="M141.55,500.59a3.88,3.88,0,1,0-3.87,3.87A3.88,3.88,0,0,0,141.55,500.59Z"/>
            </g>
          </g>
          <g>
            <polyline class="cls-3" points="601.68 481.41 601.68 715.71 808.15 715.71 808.15 481.41"/>
            <line class="cls-3" x1="587.43" y1="467.86" x2="587.43" y2="675.85"/>
            <line class="cls-3" x1="587.43" y1="675.85" x2="601.68" y2="715.71"/>
            <line class="cls-3" x1="808.15" y1="700.15" x2="601.68" y2="700.15"/>
            <line class="cls-3" x1="764.5" y1="662.95" x2="587.93" y2="662.95"/>
            <line class="cls-3" x1="602.17" y1="700.65" x2="587.93" y2="662.95"/>
            <line class="cls-3" x1="808.15" y1="700.65" x2="764.5" y2="662.95"/>
            <line class="cls-3" x1="764.5" y1="481.41" x2="764.5" y2="662.95"/>
            <g>
              <line class="cls-3" x1="808.15" y1="481.41" x2="808.15" y2="475.27"/>
              <polygon class="cls-3" points="601.68 475.27 808.15 475.27 764.5 461.19 587.43 461.19 601.68 475.27"/>
              <line class="cls-3" x1="587.43" y1="461.2" x2="587.43" y2="467.5"/>
              <polyline class="cls-3" points="606.65 482.03 601.68 482.03 587.43 467.74"/>
              <line class="cls-3" x1="808.15" y1="482.03" x2="606.65" y2="482.03"/>
            </g>
            <line class="cls-3" x1="808.15" y1="481.41" x2="802.13" y2="481.41"/>
            <g>
              <polyline class="cls-4" points="754.85 473.05 754.85 384.84 624.15 384.84 624.15 472.64"/>
              <polyline class="cls-4" points="624.15 484.26 624.15 580.77 733.07 580.77 735.73 562.34 754.85 559.52 754.85 484.26"/>
              <g>
                <g>
                  <path class="cls-5" d="M661.18,437.25h-1.91v1.86h-1.41v-1.86H656v-1.33h1.89v-1.87h1.41v1.87h1.91Z"/>
                  <path class="cls-5" d="M667.83,439v1.45H662v-1.15l3-2.8a3.21,3.21,0,0,0,.64-.77,1.51,1.51,0,0,0,.16-.64.85.85,0,0,0-.31-.71,1.51,1.51,0,0,0-.92-.24,2.09,2.09,0,0,0-.91.19,1.86,1.86,0,0,0-.68.57l-1.29-.83a3,3,0,0,1,1.24-1,4,4,0,0,1,1.81-.38,3.63,3.63,0,0,1,1.49.28,2.27,2.27,0,0,1,1,.79,2,2,0,0,1,.35,1.19,2.64,2.64,0,0,1-.26,1.18,4.43,4.43,0,0,1-1,1.25L664.53,439Z"/>
                  <path class="cls-5" d="M678.8,437.13a1.88,1.88,0,0,1,.37,1.19,1.76,1.76,0,0,1-.78,1.55,4,4,0,0,1-2.29.55h-4v-7.67h3.74a3.66,3.66,0,0,1,2.16.54,1.68,1.68,0,0,1,.75,1.45,1.85,1.85,0,0,1-.27,1,1.92,1.92,0,0,1-.75.69A2,2,0,0,1,678.8,437.13Zm-4.9-3v1.8h1.77a1.71,1.71,0,0,0,1-.23A.76.76,0,0,0,677,435a.74.74,0,0,0-.34-.67,1.79,1.79,0,0,0-1-.22Zm3.13,4.76a.78.78,0,0,0,.36-.71c0-.64-.48-1-1.42-1H673.9v1.9H676A2,2,0,0,0,677,438.85Z"/>
                  <path class="cls-5" d="M682,434.2h-2.46v-1.45h6.68v1.45h-2.45v6.22H682Z"/>
                  <path class="cls-5" d="M688.61,440a3.79,3.79,0,0,1-1.48-1.41,3.86,3.86,0,0,1-.55-2.05,3.85,3.85,0,0,1,2-3.45,4.75,4.75,0,0,1,3.93-.16,3.59,3.59,0,0,1,1.36,1l-1.14,1a2.45,2.45,0,0,0-1.93-.9,2.54,2.54,0,0,0-1.27.31,2.27,2.27,0,0,0-.87.87,2.54,2.54,0,0,0-.31,1.27,2.52,2.52,0,0,0,.31,1.27,2.21,2.21,0,0,0,.87.87,2.55,2.55,0,0,0,1.27.32,2.46,2.46,0,0,0,1.93-.91l1.14,1.05a3.73,3.73,0,0,1-1.36,1,4.56,4.56,0,0,1-1.81.35A4.43,4.43,0,0,1,688.61,440Z"/>
                  <path class="cls-5" d="M697.85,436.65H701V438h-3.1Z"/>
                  <path class="cls-5" d="M702.14,436.65h3.1V438h-3.1Z"/>
                  <path class="cls-5" d="M661.18,465.89h-1.91v1.86h-1.41v-1.86H656v-1.34h1.89v-1.86h1.41v1.86h1.91Z"/>
                  <path class="cls-5" d="M665,461.39v7.66h-1.77v-6.24h-1.54v-1.42Z"/>
                  <path class="cls-5" d="M671.36,464.54a2.44,2.44,0,0,1,1,.84,2.28,2.28,0,0,1,.35,1.25,2.35,2.35,0,0,1-.39,1.35,2.38,2.38,0,0,1-1,.89,3.45,3.45,0,0,1-1.48.32,3.23,3.23,0,0,1-2.51-1,4,4,0,0,1-.91-2.81,4.72,4.72,0,0,1,.49-2.24,3.39,3.39,0,0,1,1.37-1.41,4.22,4.22,0,0,1,2-.48,4.52,4.52,0,0,1,1.17.14,3.26,3.26,0,0,1,1,.38l-.66,1.31a2.46,2.46,0,0,0-1.43-.39,2.08,2.08,0,0,0-1.54.57,2.39,2.39,0,0,0-.62,1.66,2.54,2.54,0,0,1,1.9-.68A3.05,3.05,0,0,1,671.36,464.54Zm-.77,3a1,1,0,0,0,.36-.83,1.06,1.06,0,0,0-.36-.84,1.43,1.43,0,0,0-1-.31,1.39,1.39,0,0,0-.95.33,1.1,1.1,0,0,0,0,1.64,1.41,1.41,0,0,0,1,.32A1.35,1.35,0,0,0,670.59,467.55Z"/>
                  <path class="cls-5" d="M683.55,465.76a1.93,1.93,0,0,1,.37,1.2,1.77,1.77,0,0,1-.78,1.55,4,4,0,0,1-2.28.54h-4v-7.66h3.75a3.65,3.65,0,0,1,2.15.54,1.68,1.68,0,0,1,.75,1.45,1.87,1.87,0,0,1-.27,1,1.92,1.92,0,0,1-.75.69A2.05,2.05,0,0,1,683.55,465.76Zm-4.89-3v1.8h1.76a1.74,1.74,0,0,0,1-.23.77.77,0,0,0,.33-.68.75.75,0,0,0-.33-.67,1.83,1.83,0,0,0-1-.22Zm3.12,4.76a.78.78,0,0,0,.36-.71c0-.64-.47-1-1.42-1h-2.06v1.9h2.06A2,2,0,0,0,681.78,467.49Z"/>
                  <path class="cls-5" d="M686.75,462.83h-2.46v-1.44H691v1.44h-2.45v6.22h-1.77Z"/>
                  <path class="cls-5" d="M693.37,468.68a3.71,3.71,0,0,1-1.49-1.42,4.06,4.06,0,0,1,0-4.08,3.75,3.75,0,0,1,1.49-1.41,4.41,4.41,0,0,1,2.13-.51,4.55,4.55,0,0,1,1.8.35,3.64,3.64,0,0,1,1.35,1l-1.14,1.05a2.45,2.45,0,0,0-1.93-.9,2.54,2.54,0,0,0-1.27.31,2.27,2.27,0,0,0-.87.87,2.54,2.54,0,0,0-.31,1.27,2.52,2.52,0,0,0,.31,1.27,2.21,2.21,0,0,0,.87.87,2.54,2.54,0,0,0,1.27.31,2.45,2.45,0,0,0,1.93-.9l1.14,1.05a3.73,3.73,0,0,1-1.36,1,4.56,4.56,0,0,1-1.81.35A4.36,4.36,0,0,1,693.37,468.68Z"/>
                  <path class="cls-5" d="M702.6,465.29h3.1v1.37h-3.1Z"/>
                  <path class="cls-5" d="M706.89,465.29H710v1.37h-3.1Z"/>
                  <path class="cls-5" d="M711.19,465.29h3.1v1.37h-3.1Z"/>
                  <path class="cls-5" d="M715.48,465.29h3.1v1.37h-3.1Z"/>
                  <path class="cls-5" d="M655.86,493.93H659v1.37h-3.1Z"/>
                  <path class="cls-5" d="M667,496.09h-1.24v1.61H664v-1.61H659.9v-1.2l3.61-4.86h1.86L662,494.64h2.06v-1.43h1.68v1.43H667Z"/>
                  <path class="cls-5" d="M677.77,494.41a1.88,1.88,0,0,1,.37,1.19,1.76,1.76,0,0,1-.78,1.55,4,4,0,0,1-2.28.55h-4V490h3.75a3.65,3.65,0,0,1,2.15.54,1.68,1.68,0,0,1,.75,1.45,1.85,1.85,0,0,1-.27,1,1.92,1.92,0,0,1-.75.69A2,2,0,0,1,677.77,494.41Zm-4.9-3v1.8h1.77a1.69,1.69,0,0,0,1-.23.76.76,0,0,0,.34-.68.74.74,0,0,0-.34-.67,1.77,1.77,0,0,0-1-.22Zm3.13,4.76a.78.78,0,0,0,.36-.71c0-.64-.48-1-1.42-1h-2.07v1.9h2.07A2,2,0,0,0,676,496.13Z"/>
                  <path class="cls-5" d="M681,491.48h-2.46V490h6.68v1.45h-2.45v6.22H681Z"/>
                  <path class="cls-5" d="M687.58,497.32a3.79,3.79,0,0,1-1.48-1.41,3.86,3.86,0,0,1-.55-2.05,3.85,3.85,0,0,1,2-3.45,4.47,4.47,0,0,1,2.13-.51,4.56,4.56,0,0,1,1.81.35,3.64,3.64,0,0,1,1.35,1l-1.14,1.05a2.45,2.45,0,0,0-1.93-.9,2.54,2.54,0,0,0-1.27.31,2.27,2.27,0,0,0-.87.87,2.54,2.54,0,0,0-.31,1.27,2.52,2.52,0,0,0,.31,1.27,2.21,2.21,0,0,0,.87.87,2.55,2.55,0,0,0,1.27.32,2.46,2.46,0,0,0,1.93-.91l1.14,1a3.73,3.73,0,0,1-1.36,1,4.56,4.56,0,0,1-1.81.35A4.43,4.43,0,0,1,687.58,497.32Z"/>
                  <path class="cls-5" d="M696.82,493.93h3.1v1.37h-3.1Z"/>
                  <path class="cls-5" d="M701.11,493.93h3.1v1.37h-3.1Z"/>
                  <path class="cls-5" d="M705.4,493.93h3.1v1.37h-3.1Z"/>
                  <path class="cls-5" d="M709.7,493.93h3.1v1.37h-3.1Z"/>
                  <path class="cls-5" d="M714,493.93h3.1v1.37H714Z"/>
                  <path class="cls-5" d="M661.18,523.17h-1.91V525h-1.41v-1.86H656v-1.34h1.89V520h1.41v1.86h1.91Z"/>
                  <path class="cls-5" d="M667.83,524.89v1.44H662v-1.14l3-2.8a3.21,3.21,0,0,0,.64-.77,1.51,1.51,0,0,0,.16-.64.85.85,0,0,0-.31-.71,1.51,1.51,0,0,0-.92-.24,2.09,2.09,0,0,0-.91.19,1.86,1.86,0,0,0-.68.57l-1.29-.83a3,3,0,0,1,1.24-1,4,4,0,0,1,1.81-.38,3.63,3.63,0,0,1,1.49.28,2.27,2.27,0,0,1,1,.79,2,2,0,0,1,.35,1.19,2.64,2.64,0,0,1-.26,1.18,4.43,4.43,0,0,1-1,1.25l-1.76,1.66Z"/>
                  <path class="cls-5" d="M678.8,523a1.93,1.93,0,0,1,.37,1.2,1.76,1.76,0,0,1-.78,1.55,4,4,0,0,1-2.29.54h-4v-7.66h3.74a3.66,3.66,0,0,1,2.16.54,1.68,1.68,0,0,1,.75,1.45,1.85,1.85,0,0,1-.27,1,1.92,1.92,0,0,1-.75.69A2.05,2.05,0,0,1,678.8,523Zm-4.9-3v1.8h1.77a1.71,1.71,0,0,0,1-.23.76.76,0,0,0,.34-.68.74.74,0,0,0-.34-.67,1.79,1.79,0,0,0-1-.22Zm3.13,4.76a.78.78,0,0,0,.36-.71c0-.64-.48-1-1.42-1H673.9V525H676A2,2,0,0,0,677,524.77Z"/>
                  <path class="cls-5" d="M682,520.12h-2.46v-1.45h6.68v1.45h-2.45v6.21H682Z"/>
                  <path class="cls-5" d="M688.61,526a3.74,3.74,0,0,1-1.48-1.42,3.93,3.93,0,0,1,1.48-5.49,4.75,4.75,0,0,1,3.93-.16,3.59,3.59,0,0,1,1.36,1L692.76,521a2.45,2.45,0,0,0-1.93-.9,2.54,2.54,0,0,0-1.27.31,2.27,2.27,0,0,0-.87.87,2.54,2.54,0,0,0-.31,1.27,2.52,2.52,0,0,0,.31,1.27,2.21,2.21,0,0,0,.87.87,2.55,2.55,0,0,0,1.27.32,2.46,2.46,0,0,0,1.93-.91l1.14,1.05a3.73,3.73,0,0,1-1.36,1,4.56,4.56,0,0,1-1.81.35A4.43,4.43,0,0,1,688.61,526Z"/>
                  <path class="cls-5" d="M697.85,522.57H701v1.37h-3.1Z"/>
                  <path class="cls-5" d="M702.14,522.57h3.1v1.37h-3.1Z"/>
                  <path class="cls-5" d="M706.43,522.57h3.1v1.37h-3.1Z"/>
                  <path class="cls-5" d="M710.73,522.57h3.1v1.37h-3.1Z"/>
                </g>
                <path class="cls-5" d="M723,470.16a1.07,1.07,0,0,1-.73-.29l-3.89-3.67a1.07,1.07,0,0,1,0-1.51,1.08,1.08,0,0,1,1.52-.05l3.14,3,8.22-8.09a1.07,1.07,0,0,1,1.52,0,1.06,1.06,0,0,1,0,1.51l-9,8.82A1,1,0,0,1,723,470.16Z"/>
                <path class="cls-5" d="M723,443.06a1,1,0,0,1-.73-.29l-3.89-3.66a1.07,1.07,0,1,1,1.47-1.56l3.14,3,8.22-8.1a1.07,1.07,0,1,1,1.5,1.53l-9,8.82A1.07,1.07,0,0,1,723,443.06Z"/>
                <path class="cls-5" d="M723,498a1.07,1.07,0,0,1-.73-.29L718.41,494a1.07,1.07,0,1,1,1.47-1.56l3.14,3,8.22-8.1a1.08,1.08,0,0,1,1.52,0,1.06,1.06,0,0,1,0,1.51l-9,8.82A1.08,1.08,0,0,1,723,498Z"/>
                <path class="cls-5" d="M723,525.73a1.07,1.07,0,0,1-.73-.29l-3.89-3.67a1.07,1.07,0,1,1,1.47-1.56l3.14,3,8.22-8.09a1.07,1.07,0,0,1,1.52,0,1.06,1.06,0,0,1,0,1.51l-9,8.82A1,1,0,0,1,723,525.73Z"/>
              </g>
              <g>
                <path class="cls-3" d="M639.38,567.1A3.88,3.88,0,1,0,635.5,571,3.88,3.88,0,0,0,639.38,567.1Z"/>
                <path class="cls-3" d="M639.38,543.25a3.88,3.88,0,1,0-3.88,3.88A3.88,3.88,0,0,0,639.38,543.25Z"/>
                <path class="cls-3" d="M639.38,519.41a3.88,3.88,0,1,0-3.88,3.88A3.88,3.88,0,0,0,639.38,519.41Z"/>
                <path class="cls-3" d="M639.38,495.56a3.88,3.88,0,1,0-3.88,3.88A3.88,3.88,0,0,0,639.38,495.56Z"/>
                <path class="cls-3" d="M639.38,471.72a3.88,3.88,0,1,0-3.88,3.88A3.88,3.88,0,0,0,639.38,471.72Z"/>
                <path class="cls-3" d="M639.38,447.87a3.88,3.88,0,1,0-3.88,3.88A3.88,3.88,0,0,0,639.38,447.87Z"/>
                <path class="cls-3" d="M639.38,424a3.88,3.88,0,1,0-3.88,3.88A3.88,3.88,0,0,0,639.38,424Z"/>
                <path class="cls-3" d="M639.38,400.18a3.88,3.88,0,1,0-3.88,3.88A3.88,3.88,0,0,0,639.38,400.18Z"/>
              </g>
            </g>
            <line class="cls-3" x1="764.5" y1="475.27" x2="764.5" y2="461.2"/>
            <line class="cls-3" x1="601.68" y1="475.27" x2="601.68" y2="482.8"/>
            <line class="cls-3" x1="601.68" y1="475.27" x2="808.15" y2="475.27"/>
            <line class="cls-3" x1="592.56" y1="466.26" x2="624.73" y2="466.26"/>
            <line class="cls-3" x1="763.88" y1="466.26" x2="787.61" y2="474.31"/>
            <polyline class="cls-3" points="802.13 481.41 601.68 481.41 587.93 467.21"/>
            <line class="cls-3" x1="763.88" y1="466.26" x2="754.85" y2="466.26"/>
            <line class="cls-3" x1="733.06" y1="580.77" x2="754.85" y2="559.52"/>
          </g>
          <g>
            <g>
              <rect class="cls-3" x="342.62" y="468.7" width="206.47" height="247"/>
              <polygon class="cls-3" points="342.62 468.7 549.09 468.7 542.86 454.62 346.22 454.62 342.62 468.7"/>
              <line class="cls-3" x1="342.49" y1="675.85" x2="342.62" y2="715.71"/>
              <line class="cls-3" x1="549.09" y1="700.15" x2="342.62" y2="700.15"/>
              <line class="cls-3" x1="543.48" y1="662.95" x2="348.19" y2="662.95"/>
              <line class="cls-3" x1="343.11" y1="700.65" x2="342.99" y2="662.95"/>
              <line class="cls-3" x1="549.09" y1="700.65" x2="549.09" y2="662.95"/>
              <polyline class="cls-3" points="549.09 475.46 342.62 475.46 342.49 468.7"/>
              <polyline class="cls-3" points="549.09 481.41 342.62 481.41 342.99 467.21"/>
              <g>
                <rect class="cls-4" x="380.66" y="487.85" width="130.69" height="195.94"/>
                <g>
                  <g>
                    <path class="cls-5" d="M417.68,549.56h-1.9v1.87h-1.42v-1.87h-1.89v-1.33h1.89v-1.86h1.42v1.86h1.9Z"/>
                    <path class="cls-5" d="M423.8,548.59a2.16,2.16,0,0,1,.77,1.73,2.34,2.34,0,0,1-1.42,2.2,4.08,4.08,0,0,1-1.77.34,6.09,6.09,0,0,1-1.59-.21,4.3,4.3,0,0,1-1.33-.61l.7-1.36a3.31,3.31,0,0,0,1,.51,3.86,3.86,0,0,0,1.17.18,1.9,1.9,0,0,0,1.05-.26.9.9,0,0,0,0-1.48,2.69,2.69,0,0,0-1.38-.25h-2l.39-4.32h4.68v1.43h-3.2l-.12,1.45h.63A3.69,3.69,0,0,1,423.8,548.59Z"/>
                    <path class="cls-5" d="M426.88,552.39a3.13,3.13,0,0,1-1.17-1.36,5,5,0,0,1-.42-2.13,4.93,4.93,0,0,1,.42-2.13,3,3,0,0,1,2.87-1.84,3.11,3.11,0,0,1,1.69.47,3.16,3.16,0,0,1,1.17,1.37,4.93,4.93,0,0,1,.42,2.13,5,5,0,0,1-.42,2.13,3.2,3.2,0,0,1-4.56,1.36Zm2.8-1.63a4.52,4.52,0,0,0,0-3.72,1.25,1.25,0,0,0-1.1-.61,1.23,1.23,0,0,0-1.09.61,4.52,4.52,0,0,0,0,3.72,1.24,1.24,0,0,0,1.09.6A1.27,1.27,0,0,0,429.68,550.76Z"/>
                    <path class="cls-5" d="M443,549.44a1.89,1.89,0,0,1,.38,1.2,1.76,1.76,0,0,1-.79,1.55,4,4,0,0,1-2.28.54h-4v-7.67h3.74a3.63,3.63,0,0,1,2.15.54,1.7,1.7,0,0,1,.75,1.46,1.84,1.84,0,0,1-.27,1,1.68,1.68,0,0,1-.75.69A2,2,0,0,1,443,549.44Zm-4.89-3v1.81h1.76a1.83,1.83,0,0,0,1-.23.77.77,0,0,0,.34-.68.73.73,0,0,0-.34-.67,1.83,1.83,0,0,0-1-.23Zm3.13,4.76a.79.79,0,0,0,.35-.71c0-.63-.47-1-1.41-1h-2.07v1.89h2.07A1.92,1.92,0,0,0,441.2,551.16Z"/>
                    <path class="cls-5" d="M446.16,546.51h-2.45v-1.45h6.68v1.45h-2.45v6.22h-1.78Z"/>
                    <path class="cls-5" d="M452.78,552.35a3.82,3.82,0,0,1-1.49-1.41,3.89,3.89,0,0,1-.54-2,4,4,0,0,1,.54-2,3.82,3.82,0,0,1,1.49-1.41,4.41,4.41,0,0,1,2.13-.51,4.48,4.48,0,0,1,1.8.35,3.59,3.59,0,0,1,1.35,1l-1.13,1.05a2.46,2.46,0,0,0-1.93-.9,2.52,2.52,0,0,0-1.27.32,2.14,2.14,0,0,0-.87.87,2.52,2.52,0,0,0-.31,1.27,2.57,2.57,0,0,0,.31,1.27,2.27,2.27,0,0,0,.87.87,2.52,2.52,0,0,0,1.27.31,2.44,2.44,0,0,0,1.93-.91l1.13,1a3.41,3.41,0,0,1-1.35,1,4.6,4.6,0,0,1-1.81.35A4.4,4.4,0,0,1,452.78,552.35Z"/>
                    <path class="cls-5" d="M462,549h3.1v1.37H462Z"/>
                    <path class="cls-5" d="M466.31,549h3.1v1.37h-3.1Z"/>
                    <path class="cls-5" d="M417.68,578.2h-1.9v1.87h-1.42V578.2h-1.89v-1.33h1.89V575h1.42v1.86h1.9Z"/>
                    <path class="cls-5" d="M424.67,573.7v1.15l-2.85,6.52h-1.93l2.75-6.22H420.1v1.25h-1.58v-2.7Z"/>
                    <path class="cls-5" d="M435.69,578.08a1.89,1.89,0,0,1,.38,1.2,1.76,1.76,0,0,1-.79,1.55,4,4,0,0,1-2.28.54h-4V573.7h3.74a3.63,3.63,0,0,1,2.15.54,1.7,1.7,0,0,1,.75,1.46,1.92,1.92,0,0,1-.26,1,1.79,1.79,0,0,1-.75.69A2,2,0,0,1,435.69,578.08Zm-4.89-3v1.81h1.76a1.83,1.83,0,0,0,1-.23.79.79,0,0,0,.34-.68.78.78,0,0,0-.34-.68,1.93,1.93,0,0,0-1-.22Zm3.12,4.76a.78.78,0,0,0,.36-.71c0-.63-.47-1-1.41-1H430.8V580h2.07A1.86,1.86,0,0,0,433.92,579.8Z"/>
                    <path class="cls-5" d="M438.89,575.15h-2.45V573.7h6.68v1.45h-2.45v6.22h-1.78Z"/>
                    <path class="cls-5" d="M445.51,581a3.82,3.82,0,0,1-1.49-1.41,3.89,3.89,0,0,1-.54-2,4,4,0,0,1,.54-2,3.82,3.82,0,0,1,1.49-1.41,4.41,4.41,0,0,1,2.13-.51,4.51,4.51,0,0,1,1.8.35,3.59,3.59,0,0,1,1.35,1L449.66,576a2.45,2.45,0,0,0-1.93-.9,2.52,2.52,0,0,0-1.27.32,2.09,2.09,0,0,0-.87.87,2.52,2.52,0,0,0-.32,1.27,2.58,2.58,0,0,0,.32,1.27,2.21,2.21,0,0,0,.87.87,2.52,2.52,0,0,0,1.27.31,2.43,2.43,0,0,0,1.93-.91l1.13,1a3.41,3.41,0,0,1-1.35,1,4.6,4.6,0,0,1-1.81.35A4.4,4.4,0,0,1,445.51,581Z"/>
                    <path class="cls-5" d="M454.75,577.6h3.1V579h-3.1Z"/>
                    <path class="cls-5" d="M459,577.6h3.1V579H459Z"/>
                    <path class="cls-5" d="M463.33,577.6h3.1V579h-3.1Z"/>
                    <path class="cls-5" d="M467.62,577.6h3.1V579h-3.1Z"/>
                    <path class="cls-5" d="M412.36,606.24h3.1v1.37h-3.1Z"/>
                    <path class="cls-5" d="M421.66,603.19a4.05,4.05,0,0,1,.91,2.82,4.84,4.84,0,0,1-.49,2.24,3.35,3.35,0,0,1-1.38,1.41,4.21,4.21,0,0,1-2,.48,4.6,4.6,0,0,1-1.18-.14,3.31,3.31,0,0,1-1-.38l.66-1.31a2.44,2.44,0,0,0,1.43.39,2.11,2.11,0,0,0,1.55-.58,2.41,2.41,0,0,0,.61-1.66,2.56,2.56,0,0,1-1.9.69,3.1,3.1,0,0,1-1.34-.29,2.35,2.35,0,0,1-1-.84,2.21,2.21,0,0,1-.35-1.26,2.32,2.32,0,0,1,.38-1.34,2.41,2.41,0,0,1,1.05-.89,3.37,3.37,0,0,1,1.47-.32A3.29,3.29,0,0,1,421.66,603.19Zm-1.44,2.31a1.12,1.12,0,0,0,0-1.64,1.63,1.63,0,0,0-1.91,0,1.05,1.05,0,0,0-.35.84,1,1,0,0,0,.35.83,1.4,1.4,0,0,0,.95.32A1.37,1.37,0,0,0,420.22,605.5Z"/>
                    <path class="cls-5" d="M433.66,606.72a1.89,1.89,0,0,1,.37,1.2,1.77,1.77,0,0,1-.78,1.55A4.06,4.06,0,0,1,431,610h-4v-7.67h3.74a3.66,3.66,0,0,1,2.16.54,1.7,1.7,0,0,1,.75,1.46,1.84,1.84,0,0,1-.27,1,1.79,1.79,0,0,1-.75.69A2,2,0,0,1,433.66,606.72Zm-4.9-3v1.81h1.76a1.8,1.8,0,0,0,1-.23.77.77,0,0,0,.34-.68.73.73,0,0,0-.34-.67,1.8,1.8,0,0,0-1-.23Zm3.13,4.76a.77.77,0,0,0,.35-.71c0-.63-.47-1-1.41-1h-2.07v1.89h2.07A1.92,1.92,0,0,0,431.89,608.44Z"/>
                    <path class="cls-5" d="M436.85,603.79H434.4v-1.45h6.68v1.45h-2.45V610h-1.78Z"/>
                    <path class="cls-5" d="M443.47,609.63a3.85,3.85,0,0,1-2-3.45,3.86,3.86,0,0,1,.55-2,3.79,3.79,0,0,1,1.48-1.41,4.47,4.47,0,0,1,2.13-.51,4.56,4.56,0,0,1,1.81.35,3.75,3.75,0,0,1,1.35,1l-1.14,1a2.45,2.45,0,0,0-1.93-.9,2.55,2.55,0,0,0-1.27.32,2.21,2.21,0,0,0-.87.87,2.52,2.52,0,0,0-.31,1.27,2.54,2.54,0,0,0,.31,1.27,2.27,2.27,0,0,0,.87.87,2.54,2.54,0,0,0,1.27.31,2.43,2.43,0,0,0,1.93-.91l1.14,1a3.52,3.52,0,0,1-1.36,1,4.56,4.56,0,0,1-1.81.35A4.43,4.43,0,0,1,443.47,609.63Z"/>
                    <path class="cls-5" d="M452.71,606.24h3.1v1.37h-3.1Z"/>
                    <path class="cls-5" d="M457,606.24h3.1v1.37H457Z"/>
                    <path class="cls-5" d="M461.29,606.24h3.1v1.37h-3.1Z"/>
                    <path class="cls-5" d="M465.59,606.24h3.1v1.37h-3.1Z"/>
                    <path class="cls-5" d="M469.88,606.24H473v1.37h-3.1Z"/>
                    <path class="cls-5" d="M417.68,635.48h-1.9v1.87h-1.42v-1.87h-1.89v-1.33h1.89v-1.86h1.42v1.86h1.9Z"/>
                    <path class="cls-5" d="M423.85,634.14a2.21,2.21,0,0,1,.95.84,2.26,2.26,0,0,1,.35,1.25,2.45,2.45,0,0,1-.38,1.35,2.61,2.61,0,0,1-1,.89,3.37,3.37,0,0,1-1.47.31,3.23,3.23,0,0,1-2.52-1,4,4,0,0,1-.91-2.81,4.8,4.8,0,0,1,.49-2.23,3.44,3.44,0,0,1,1.38-1.42,4.18,4.18,0,0,1,2-.48,5.08,5.08,0,0,1,1.18.14,3,3,0,0,1,.95.39l-.65,1.3a2.57,2.57,0,0,0-1.44-.38,2.08,2.08,0,0,0-1.54.57,2.38,2.38,0,0,0-.61,1.65,2.56,2.56,0,0,1,1.89-.68A3,3,0,0,1,423.85,634.14Zm-.77,3a1.05,1.05,0,0,0,.35-.83,1.09,1.09,0,0,0-.35-.84,1.39,1.39,0,0,0-.95-.31,1.44,1.44,0,0,0-1,.32,1.08,1.08,0,0,0-.37.83,1,1,0,0,0,.36.82,1.47,1.47,0,0,0,1,.32A1.41,1.41,0,0,0,423.08,637.15Z"/>
                    <path class="cls-5" d="M436,635.36a1.89,1.89,0,0,1,.38,1.2,1.78,1.78,0,0,1-.79,1.55,4,4,0,0,1-2.28.54h-4V631h3.74a3.65,3.65,0,0,1,2.15.54A1.7,1.7,0,0,1,436,633a1.84,1.84,0,0,1-.27,1,1.68,1.68,0,0,1-.75.69A2,2,0,0,1,436,635.36Zm-4.89-3v1.81h1.76a1.83,1.83,0,0,0,1-.23.79.79,0,0,0,.34-.68.78.78,0,0,0-.34-.68,1.93,1.93,0,0,0-1-.22Zm3.12,4.76a.78.78,0,0,0,.36-.71c0-.63-.47-1-1.41-1h-2.07v1.89h2.07A1.88,1.88,0,0,0,434.26,637.08Z"/>
                    <path class="cls-5" d="M439.23,632.43h-2.45V631h6.68v1.45H441v6.22h-1.77Z"/>
                    <path class="cls-5" d="M445.85,638.27a3.82,3.82,0,0,1-1.49-1.41,3.89,3.89,0,0,1-.54-2,4,4,0,0,1,.54-2.05,3.82,3.82,0,0,1,1.49-1.41,4.41,4.41,0,0,1,2.13-.51,4.51,4.51,0,0,1,1.8.35,3.59,3.59,0,0,1,1.35,1l-1.13,1a2.46,2.46,0,0,0-1.93-.9,2.52,2.52,0,0,0-1.27.32,2,2,0,0,0-.87.87,2.52,2.52,0,0,0-.32,1.27,2.58,2.58,0,0,0,.32,1.27,2.14,2.14,0,0,0,.87.87,2.52,2.52,0,0,0,1.27.31,2.44,2.44,0,0,0,1.93-.91l1.13,1a3.41,3.41,0,0,1-1.35,1,4.6,4.6,0,0,1-1.81.35A4.4,4.4,0,0,1,445.85,638.27Z"/>
                    <path class="cls-5" d="M455.09,634.88h3.09v1.37h-3.09Z"/>
                    <path class="cls-5" d="M459.38,634.88h3.1v1.37h-3.1Z"/>
                    <path class="cls-5" d="M463.67,634.88h3.1v1.37h-3.1Z"/>
                    <path class="cls-5" d="M468,634.88h3.1v1.37H468Z"/>
                  </g>
                  <path class="cls-5" d="M479.53,582.47a1,1,0,0,1-.73-.29l-3.89-3.67a1.07,1.07,0,1,1,1.47-1.55l3.14,2.95,8.22-8.09a1.07,1.07,0,1,1,1.5,1.53l-9,8.82A1.07,1.07,0,0,1,479.53,582.47Z"/>
                  <path class="cls-5" d="M479.53,555.38a1.07,1.07,0,0,1-.73-.29l-3.89-3.67a1.07,1.07,0,0,1-.05-1.51,1.08,1.08,0,0,1,1.52,0l3.14,3,8.22-8.09a1.07,1.07,0,0,1,1.52,0,1.06,1.06,0,0,1,0,1.51l-9,8.82A1,1,0,0,1,479.53,555.38Z"/>
                  <path class="cls-5" d="M479.53,610.26a1.07,1.07,0,0,1-.73-.29l-3.89-3.67a1.07,1.07,0,0,1-.05-1.51,1.08,1.08,0,0,1,1.52,0l3.14,3,8.22-8.09a1.07,1.07,0,1,1,1.5,1.53l-9,8.81A1,1,0,0,1,479.53,610.26Z"/>
                  <path class="cls-5" d="M479.53,638a1,1,0,0,1-.73-.29l-3.89-3.67a1.07,1.07,0,0,1-.05-1.51,1.08,1.08,0,0,1,1.52-.05l3.14,3,8.22-8.09a1.07,1.07,0,1,1,1.5,1.53l-9,8.82A1.07,1.07,0,0,1,479.53,638Z"/>
                </g>
                <g>
                  <path class="cls-3" d="M395.88,670.11A3.88,3.88,0,1,0,392,674,3.88,3.88,0,0,0,395.88,670.11Z"/>
                  <path class="cls-3" d="M395.88,646.26a3.88,3.88,0,1,0-3.88,3.88A3.88,3.88,0,0,0,395.88,646.26Z"/>
                  <path class="cls-3" d="M395.88,622.42A3.88,3.88,0,1,0,392,626.3,3.88,3.88,0,0,0,395.88,622.42Z"/>
                  <path class="cls-3" d="M395.88,598.57a3.88,3.88,0,1,0-3.88,3.88A3.88,3.88,0,0,0,395.88,598.57Z"/>
                  <path class="cls-3" d="M395.88,574.73a3.88,3.88,0,1,0-3.88,3.88A3.88,3.88,0,0,0,395.88,574.73Z"/>
                  <path class="cls-3" d="M395.88,550.88a3.88,3.88,0,1,0-3.88,3.88A3.88,3.88,0,0,0,395.88,550.88Z"/>
                  <path class="cls-3" d="M395.88,527a3.88,3.88,0,1,0-3.88,3.88A3.88,3.88,0,0,0,395.88,527Z"/>
                  <path class="cls-3" d="M395.88,503.19a3.88,3.88,0,1,0-3.88,3.88A3.88,3.88,0,0,0,395.88,503.19Z"/>
                </g>
              </g>
            </g>
            <line class="cls-3" x1="348.16" y1="481.41" x2="348.16" y2="662.95"/>
            <line class="cls-3" x1="348.19" y1="662.95" x2="342.49" y2="698.52"/>
            <line class="cls-3" x1="543.48" y1="662.95" x2="543.48" y2="482.8"/>
            <line class="cls-3" x1="543.48" y1="662.95" x2="549.09" y2="700.15"/>
          </g>
          <g>
            <path class="cls-5" d="M110.93,738.52v16.69h-4.72v-13h-3.1v-3.65Z"/>
            <path class="cls-5" d="M117,754.52a6.86,6.86,0,0,1-2.62-3,12,12,0,0,1,0-9.32,7,7,0,0,1,2.62-3,7.59,7.59,0,0,1,7.6,0,7,7,0,0,1,2.61,3,12,12,0,0,1,0,9.32,6.91,6.91,0,0,1-2.61,3,7.52,7.52,0,0,1-7.6,0Zm5.71-4a9.92,9.92,0,0,0,0-7.32,2.15,2.15,0,0,0-3.82,0,9.92,9.92,0,0,0,0,7.32,2.16,2.16,0,0,0,3.82,0Z"/>
            <path class="cls-5" d="M152.63,755.21l0-8.84-4.29,7.2h-2.1l-4.27-7v8.6h-4.36V738.52h3.89l5.86,9.64,5.72-9.64h3.89l.05,16.69Z"/>
            <path class="cls-5" d="M160.31,738.52H165v16.69h-4.72Z"/>
            <path class="cls-5" d="M184.27,738.52v16.69h-3.89L173,746.32v8.89h-4.62V738.52h3.88l7.37,8.9v-8.9Z"/>
            <path class="cls-5" d="M189.52,753.52a7.72,7.72,0,0,1-2.06-5.75v-9.25h4.72v9.11q0,4,3.17,4t3.15-4v-9.11h4.65v9.25a7.72,7.72,0,0,1-2.06,5.75,9.26,9.26,0,0,1-11.57,0Z"/>
            <path class="cls-5" d="M209.64,742.27h-5.13v-3.75h15v3.75h-5.1v12.94h-4.72Z"/>
            <path class="cls-5" d="M234.62,751.56v3.65h-13.4V738.52h13.09v3.65H225.9V745h7.41v3.53H225.9v3Z"/>
            <path class="cls-5" d="M239.18,755.05a9.7,9.7,0,0,1-3.1-1.34l1.55-3.48a10.69,10.69,0,0,0,5.5,1.65c1.82,0,2.72-.46,2.72-1.36a1.12,1.12,0,0,0-.77-1.06,13.24,13.24,0,0,0-2.49-.73,23.51,23.51,0,0,1-3.15-.87,5.32,5.32,0,0,1-2.17-1.49,4.07,4.07,0,0,1-.91-2.77,4.75,4.75,0,0,1,.84-2.75,5.54,5.54,0,0,1,2.49-2,10.36,10.36,0,0,1,4.06-.71,14.21,14.21,0,0,1,3.25.37,10.28,10.28,0,0,1,2.81,1.08l-1.45,3.51a9.73,9.73,0,0,0-4.63-1.29,3.85,3.85,0,0,0-2,.42,1.25,1.25,0,0,0-.64,1.08,1.06,1.06,0,0,0,.76,1,13.32,13.32,0,0,0,2.45.7,22.48,22.48,0,0,1,3.16.87,5.44,5.44,0,0,1,2.17,1.47,3.94,3.94,0,0,1,.92,2.76,4.74,4.74,0,0,1-.83,2.72,5.72,5.72,0,0,1-2.51,1.94,10.18,10.18,0,0,1-4,.73A15.57,15.57,0,0,1,239.18,755.05Z"/>
          </g>
          <g>
            <path class="cls-5" d="M379.87,738.52v16.69h-4.72v-13h-3.1v-3.65Z"/>
            <path class="cls-5" d="M385.92,754.52a6.91,6.91,0,0,1-2.61-3,12,12,0,0,1,0-9.32,7,7,0,0,1,2.61-3,7.21,7.21,0,0,1,3.82-1,7.12,7.12,0,0,1,3.79,1,7,7,0,0,1,2.61,3,12,12,0,0,1,0,9.32,6.91,6.91,0,0,1-2.61,3,7,7,0,0,1-3.79,1A7.12,7.12,0,0,1,385.92,754.52Zm5.71-4a9.79,9.79,0,0,0,0-7.32,2.13,2.13,0,0,0-1.89-1.16,2.16,2.16,0,0,0-1.92,1.16,9.92,9.92,0,0,0,0,7.32,2.15,2.15,0,0,0,1.92,1.15A2.12,2.12,0,0,0,391.63,750.53Z"/>
            <path class="cls-5" d="M421.57,755.21l-.05-8.84-4.29,7.2h-2.1l-4.27-7v8.6H406.5V738.52h3.89l5.86,9.64,5.72-9.64h3.89l.05,16.69Z"/>
            <path class="cls-5" d="M429.25,738.52H434v16.69h-4.72Z"/>
            <path class="cls-5" d="M453.21,738.52v16.69h-3.89L442,746.32v8.89h-4.62V738.52h3.88l7.37,8.9v-8.9Z"/>
            <path class="cls-5" d="M458.46,753.52a7.72,7.72,0,0,1-2.06-5.75v-9.25h4.72v9.11q0,4,3.17,4t3.15-4v-9.11h4.65v9.25a7.72,7.72,0,0,1-2.06,5.75,9.26,9.26,0,0,1-11.57,0Z"/>
            <path class="cls-5" d="M478.58,742.27h-5.13v-3.75H488.4v3.75h-5.1v12.94h-4.72Z"/>
            <path class="cls-5" d="M503.56,751.56v3.65h-13.4V738.52h13.09v3.65h-8.41V745h7.41v3.53h-7.41v3Z"/>
            <path class="cls-5" d="M508.12,755.05a9.61,9.61,0,0,1-3.1-1.34l1.55-3.48a10.69,10.69,0,0,0,5.5,1.65c1.82,0,2.72-.46,2.72-1.36a1.12,1.12,0,0,0-.77-1.06,13.24,13.24,0,0,0-2.49-.73,23.51,23.51,0,0,1-3.15-.87,5.32,5.32,0,0,1-2.17-1.49,4,4,0,0,1-.91-2.77,4.75,4.75,0,0,1,.84-2.75,5.54,5.54,0,0,1,2.49-2,10.36,10.36,0,0,1,4.06-.71,14.21,14.21,0,0,1,3.25.37,10.28,10.28,0,0,1,2.81,1.08l-1.45,3.51a9.73,9.73,0,0,0-4.63-1.29,3.85,3.85,0,0,0-2,.42,1.25,1.25,0,0,0-.64,1.08,1.06,1.06,0,0,0,.76,1,13.32,13.32,0,0,0,2.45.7,22.48,22.48,0,0,1,3.16.87,5.44,5.44,0,0,1,2.17,1.47,4,4,0,0,1,.92,2.76,4.74,4.74,0,0,1-.83,2.72,5.72,5.72,0,0,1-2.51,1.94,10.18,10.18,0,0,1-4.05.73A15.57,15.57,0,0,1,508.12,755.05Z"/>
          </g>
          <g>
            <path class="cls-5" d="M644.83,738.52v16.69h-4.72v-13H637v-3.65Z"/>
            <path class="cls-5" d="M650.88,754.52a6.91,6.91,0,0,1-2.61-3,12,12,0,0,1,0-9.32,7,7,0,0,1,2.61-3,7.21,7.21,0,0,1,3.82-1,7.12,7.12,0,0,1,3.79,1,7,7,0,0,1,2.61,3,12,12,0,0,1,0,9.32,6.91,6.91,0,0,1-2.61,3,7,7,0,0,1-3.79,1A7.12,7.12,0,0,1,650.88,754.52Zm5.71-4a9.79,9.79,0,0,0,0-7.32,2.13,2.13,0,0,0-1.89-1.16,2.16,2.16,0,0,0-1.92,1.16,9.92,9.92,0,0,0,0,7.32,2.15,2.15,0,0,0,1.92,1.15A2.12,2.12,0,0,0,656.59,750.53Z"/>
            <path class="cls-5" d="M686.53,755.21l0-8.84-4.29,7.2h-2.1l-4.27-7v8.6h-4.36V738.52h3.89l5.86,9.64,5.72-9.64h3.89l0,16.69Z"/>
            <path class="cls-5" d="M694.21,738.52h4.72v16.69h-4.72Z"/>
            <path class="cls-5" d="M718.17,738.52v16.69h-3.89l-7.37-8.89v8.89h-4.62V738.52h3.88l7.37,8.9v-8.9Z"/>
            <path class="cls-5" d="M723.42,753.52a7.72,7.72,0,0,1-2.06-5.75v-9.25h4.72v9.11q0,4,3.17,4t3.15-4v-9.11h4.65v9.25a7.72,7.72,0,0,1-2.06,5.75,9.26,9.26,0,0,1-11.57,0Z"/>
            <path class="cls-5" d="M743.54,742.27h-5.13v-3.75h15v3.75h-5.1v12.94h-4.72Z"/>
            <path class="cls-5" d="M768.52,751.56v3.65h-13.4V738.52h13.09v3.65H759.8V745h7.41v3.53H759.8v3Z"/>
            <path class="cls-5" d="M773.08,755.05a9.61,9.61,0,0,1-3.1-1.34l1.55-3.48a10.69,10.69,0,0,0,5.51,1.65c1.81,0,2.71-.46,2.71-1.36a1.12,1.12,0,0,0-.77-1.06,13.24,13.24,0,0,0-2.49-.73,23.51,23.51,0,0,1-3.15-.87,5.32,5.32,0,0,1-2.17-1.49,4.07,4.07,0,0,1-.91-2.77,4.75,4.75,0,0,1,.84-2.75,5.54,5.54,0,0,1,2.49-2,10.36,10.36,0,0,1,4.06-.71,14.21,14.21,0,0,1,3.25.37,10.28,10.28,0,0,1,2.81,1.08l-1.45,3.51a9.7,9.7,0,0,0-4.63-1.29,3.85,3.85,0,0,0-2,.42,1.25,1.25,0,0,0-.64,1.08,1.06,1.06,0,0,0,.76,1,13.23,13.23,0,0,0,2.46.7,22.69,22.69,0,0,1,3.15.87,5.44,5.44,0,0,1,2.17,1.47,3.94,3.94,0,0,1,.92,2.76,4.74,4.74,0,0,1-.83,2.72,5.72,5.72,0,0,1-2.51,1.94,10.18,10.18,0,0,1-4,.73A15.57,15.57,0,0,1,773.08,755.05Z"/>
          </g>
        </g>
        <g>
          <g>
            <path class="cls-6" d="M90.45,463.33a1.66,1.66,0,0,0-2.07,1.12l-6.55,22a1.67,1.67,0,0,0,3.2,1l6.55-22A1.66,1.66,0,0,0,90.45,463.33Zm-8.27,15.13-1,3.2c-1.4-.41-2.18,1.07-2.34,1.62l-4.41,14.83c-.28.93-.06,2.38,1,2.71l-1,3.2c-3-.9-4.08-4.26-3.3-6.86l4.41-14.83A5.31,5.31,0,0,1,82.18,478.46Zm10.25,8.85L88,502.14c-.77,2.6-3.48,4.84-6.51,3.94l.95-3.2c1.12.33,2.09-.77,2.36-1.69l4.41-14.83c.17-.55.32-2.22-1.07-2.64l1-3.2A5.32,5.32,0,0,1,92.43,487.31Z"/>
            <path class="cls-6" d="M80.93,497.56a1.66,1.66,0,0,0-2.17.91l-8.7,21.25A1.67,1.67,0,0,0,73.15,521l8.7-21.24A1.67,1.67,0,0,0,80.93,497.56ZM71.2,511.8l-1.27,3.09c-1.35-.55-2.27.84-2.49,1.38l-5.86,14.31c-.37.89-.3,2.36.77,2.8l-1.26,3.09c-2.93-1.19-3.63-4.64-2.6-7.15L64.35,515A5.31,5.31,0,0,1,71.2,511.8Zm9.32,9.83-5.86,14.31c-1,2.51-4,4.47-6.88,3.28l1.27-3.09c1.07.44,2.15-.56,2.52-1.45l5.86-14.32c.22-.53.54-2.18-.81-2.73l1.27-3.09A5.32,5.32,0,0,1,80.52,521.63Z"/>
            <path class="cls-6" d="M68.37,531a1.68,1.68,0,0,0-2.31.49L53.61,550.76a1.67,1.67,0,1,0,2.81,1.81l12.45-19.29A1.66,1.66,0,0,0,68.37,531ZM56.18,543.19,54.37,546c-1.22-.79-2.39.41-2.7.9l-8.39,13c-.52.81-.73,2.27.25,2.9l-1.81,2.81c-2.66-1.72-2.72-5.24-1.25-7.52l8.4-13A5.29,5.29,0,0,1,56.18,543.19Zm7.37,11.37-8.4,13c-1.47,2.28-4.7,3.67-7.36,2l1.82-2.8c1,.63,2.22-.16,2.74-1l8.39-13c.31-.49.93-2-.29-2.84l1.81-2.8A5.32,5.32,0,0,1,63.55,554.56Z"/>
            <path class="cls-6" d="M49.9,561.41a1.67,1.67,0,0,0-2.35.21L32.86,579.26a1.67,1.67,0,1,0,2.57,2.14l14.69-17.64A1.67,1.67,0,0,0,49.9,561.41ZM36.33,572.06l-2.14,2.56c-1.11-.93-2.42.12-2.79.57l-9.9,11.89c-.61.74-1,2.16-.1,2.9l-2.13,2.57c-2.43-2-2.07-5.53-.33-7.61l9.9-11.89A5.3,5.3,0,0,1,36.33,572.06Zm5.93,12.17-9.89,11.89c-1.74,2.08-5.11,3.08-7.54,1.06L27,594.61c.9.75,2.22.11,2.84-.63l9.9-11.88c.37-.45,1.17-1.92,0-2.85l2.14-2.57A5.32,5.32,0,0,1,42.26,584.23Z"/>
            <path class="cls-6" d="M27.72,589.34a1.66,1.66,0,0,0-2.35-.18L7.91,604.06a1.67,1.67,0,1,0,2.17,2.54l17.46-14.9A1.68,1.68,0,0,0,27.72,589.34Z"/>
          </g>
          <g>
            <path class="cls-1" d="M107.69,484.53l0-.07A23.11,23.11,0,0,0,62.77,473.7l0,.06-5.65-1.35-6,24.91c-7.92,33.08,48.15,47.28,56.25,13.47l6-24.91Zm-38.2-9.15v-.07A16.18,16.18,0,1,1,101,482.85v.07Z"/>
            <rect class="cls-2" x="65.16" y="469.89" width="2.7" height="6.77" transform="translate(-409.24 427.69) rotate(-76.53)"/>
            <rect class="cls-2" x="103.36" y="479.04" width="2.7" height="6.77" transform="translate(-388.83 471.86) rotate(-76.53)"/>
            <path class="cls-3" d="M90.62,456.61A23.1,23.1,0,0,0,62.77,473.7l0,.06,6.74,1.62v-.07A16.18,16.18,0,1,1,101,482.85v.07l6.73,1.61,0-.07A23.11,23.11,0,0,0,90.62,456.61Z"/>
            <path class="cls-3" d="M107.38,510.79c-8.1,33.81-64.17,19.61-56.24-13.47l6-24.91,56.24,13.47Z"/>
            <path class="cls-2" d="M86.14,498.54A5.43,5.43,0,0,1,81,502.69l-2.74,11.46a1.35,1.35,0,0,1-1.63,1,1.34,1.34,0,0,1-1-1.62l2.74-11.47a5.41,5.41,0,1,1,7.8-3.52Z"/>
            <path class="cls-3" d="M86.14,498.54A5.43,5.43,0,0,1,81,502.69l-2.74,11.46a1.35,1.35,0,0,1-1.63,1,1.34,1.34,0,0,1-1-1.62l2.74-11.47a5.41,5.41,0,1,1,7.8-3.52Z"/>
          </g>
          <g>
            <path class="cls-6" d="M80.85,467a1.67,1.67,0,0,1,2.29-.6L103,478a1.67,1.67,0,0,1-1.68,2.89L81.45,469.32A1.68,1.68,0,0,1,80.85,467Zm16.39,5.39,2.88,1.68c.73-1.25,2.32-.71,2.82-.42l13.35,7.81c.83.49,1.67,1.7,1.09,2.7l2.88,1.68c1.6-2.73.06-5.89-2.28-7.26l-13.36-7.81A5.31,5.31,0,0,0,97.24,472.43ZM95.8,485.9l13.36,7.81c2.34,1.36,5.85,1.15,7.45-1.58l-2.88-1.69c-.59,1-2,.87-2.89.38L97.49,483c-.5-.3-1.75-1.41-1-2.66l-2.88-1.69A5.31,5.31,0,0,0,95.8,485.9Z"/>
            <path class="cls-6" d="M111.45,485.4a1.67,1.67,0,0,1,2.11-1l21.77,7.31a1.67,1.67,0,1,1-1.07,3.17l-21.76-7.31A1.68,1.68,0,0,1,111.45,485.4Zm17.14,2,3.16,1.06c.47-1.38,2.13-1.17,2.68-1l14.66,4.93c.92.31,2,1.32,1.61,2.42l3.17,1.06c1-3-1.14-5.78-3.71-6.64l-14.67-4.93A5.31,5.31,0,0,0,128.59,487.35Zm1.34,13.48,14.66,4.92c2.57.86,6-.06,7-3.06l-3.17-1.06c-.37,1.1-1.83,1.26-2.74,1L131,497.66c-.55-.18-2-1-1.54-2.4l-3.16-1.06A5.32,5.32,0,0,0,129.93,500.83Z"/>
            <path class="cls-6" d="M144.92,497.32a1.67,1.67,0,0,1,2-1.26l22.39,5.11a1.67,1.67,0,1,1-.75,3.25l-22.38-5.11A1.66,1.66,0,0,1,144.92,497.32Zm17.25.22,3.26.75c.32-1.42,2-1.38,2.56-1.25l15.08,3.44c.94.22,2.11,1.12,1.85,2.25l3.25.74c.71-3.08-1.71-5.64-4.35-6.24l-15.09-3.44A5.32,5.32,0,0,0,162.17,497.54Zm2.68,13.28,15.08,3.45c2.64.6,5.93-.66,6.63-3.74l-3.25-.75c-.26,1.14-1.7,1.44-2.64,1.23l-15.08-3.44c-.56-.13-2.09-.82-1.77-2.23l-3.25-.75A5.3,5.3,0,0,0,164.85,510.82Z"/>
            <path class="cls-6" d="M179.49,506.27a1.66,1.66,0,0,1,1.73-1.6l22.94.91a1.67,1.67,0,1,1-.13,3.33L181.09,508A1.67,1.67,0,0,1,179.49,506.27Zm17-2.95,3.34.14c.06-1.46,1.71-1.72,2.29-1.7l15.46.62c1,0,2.27.71,2.22,1.87l3.34.13c.12-3.16-2.72-5.23-5.43-5.34l-15.46-.61A5.31,5.31,0,0,0,196.48,503.32Zm5.07,12.57,15.45.61c2.71.11,5.71-1.73,5.84-4.89l-3.34-.13c0,1.16-1.4,1.73-2.36,1.69l-15.46-.62c-.57,0-2.21-.41-2.15-1.87l-3.34-.13A5.33,5.33,0,0,0,201.55,515.89Z"/>
            <path class="cls-6" d="M215,508.67a1.68,1.68,0,0,1,1.53-1.8L239.41,505a1.67,1.67,0,1,1,.27,3.33L216.8,510.2A1.67,1.67,0,0,1,215,508.67Zm16.52-5,3.33-.27c-.12-1.45,1.49-1.91,2.07-2l15.42-1.26c1-.07,2.33.44,2.43,1.59l3.33-.27c-.26-3.15-3.33-4.86-6-4.64l-15.41,1.25A5.32,5.32,0,0,0,231.52,503.7Zm6.54,11.86,15.42-1.26c2.7-.22,5.46-2.41,5.2-5.56l-3.32.27c.09,1.16-1.19,1.89-2.15,2l-15.42,1.26c-.57,0-2.24-.15-2.36-1.6l-3.32.28A5.31,5.31,0,0,0,238.06,515.56Z"/>
            <path class="cls-6" d="M250.61,506.61a1.66,1.66,0,0,1,1.2-2l22.24-5.71a1.67,1.67,0,1,1,.83,3.23l-22.24,5.71A1.67,1.67,0,0,1,250.61,506.61Zm15.44-7.7,3.23-.83c-.36-1.41,1.15-2.13,1.71-2.28L286,492c.93-.24,2.38,0,2.66,1.15l3.24-.82c-.79-3.07-4.11-4.24-6.73-3.57l-15,3.85A5.31,5.31,0,0,0,266.05,498.91Zm8.45,10.58,15-3.84c2.62-.67,5-3.3,4.19-6.36l-3.24.83c.29,1.13-.85,2.06-1.78,2.3l-15,3.84c-.55.14-2.23.24-2.59-1.17l-3.23.83A5.3,5.3,0,0,0,274.5,509.49Z"/>
            <path class="cls-6" d="M285.6,499.2a1.67,1.67,0,0,1,.8-2.22l20.75-9.81a1.67,1.67,0,0,1,1.43,3L287.82,500A1.67,1.67,0,0,1,285.6,499.2Zm32.46-15.35a1.67,1.67,0,0,1,.8-2.22l20.75-9.81a1.67,1.67,0,1,1,1.43,3l-20.75,9.81A1.68,1.68,0,0,1,318.06,483.85Zm-18.76,4.88,3-1.43c-.62-1.31.73-2.31,1.25-2.56l14-6.61c.87-.41,2.34-.42,2.84.63l3-1.43c-1.36-2.85-4.84-3.37-7.29-2.22l-14,6.61A5.32,5.32,0,0,0,299.3,488.73Zm10.31,8.79,14-6.61c2.45-1.16,4.26-4.18,2.9-7l-3,1.42c.49,1.05-.45,2.18-1.32,2.59l-14,6.61c-.52.25-2.15.66-2.77-.66l-3,1.43A5.3,5.3,0,0,0,309.61,497.52Z"/>
          </g>
          <g>
            <path class="cls-1" d="M361.2,484.6v-.06a23.11,23.11,0,1,0-46.08-3.47v.07l-5.79-.44-1.92,25.54c-2.55,33.92,55.06,39,57.67,4.34L367,485ZM322,481.66v-.07A16.18,16.18,0,1,1,354.29,484v.07Z"/>
            <rect class="cls-2" x="317.39" y="476.67" width="2.7" height="6.77" transform="translate(-183.94 761.77) rotate(-85.68)"/>
            <rect class="cls-2" x="356.57" y="479.62" width="2.7" height="6.77" transform="translate(-150.6 803.63) rotate(-85.69)"/>
            <path class="cls-3" d="M339.89,459.76a23.1,23.1,0,0,0-24.77,21.31v.07l6.91.52v-.07A16.18,16.18,0,1,1,354.29,484v.07l6.91.52v-.06A23.1,23.1,0,0,0,339.89,459.76Z"/>
            <path class="cls-3" d="M365.07,510.58c-2.61,34.66-60.22,29.58-57.67-4.34l1.92-25.54L367,485Z"/>
            <path class="cls-2" d="M342.14,501.87a5.4,5.4,0,0,1-4.43,4.92l-.88,11.76a1.35,1.35,0,0,1-2.7-.21l.88-11.76a5.41,5.41,0,1,1,7.13-4.71Z"/>
            <path class="cls-3" d="M342.14,501.87a5.4,5.4,0,0,1-4.43,4.92l-.88,11.76a1.35,1.35,0,0,1-2.7-.21l.88-11.76a5.41,5.41,0,1,1,7.13-4.71Z"/>
          </g>
          <g>
            <path class="cls-6" d="M327.42,470.8a1.67,1.67,0,0,1,2.32-.47L348.87,483A1.67,1.67,0,0,1,347,485.8l-19.14-12.68A1.69,1.69,0,0,1,327.42,470.8Zm16.06,6.31,2.78,1.84c.81-1.21,2.36-.58,2.84-.26l12.9,8.55c.8.53,1.57,1.79.92,2.76l2.79,1.84c1.75-2.63.39-5.88-1.87-7.38L351,475.91A5.32,5.32,0,0,0,343.48,477.11Zm-2.19,13.37L354.18,499c2.26,1.5,5.78,1.49,7.53-1.15L358.93,496c-.64,1-2.1.74-2.9.21l-12.89-8.55c-.48-.31-1.68-1.5-.87-2.71l-2.78-1.85A5.31,5.31,0,0,0,341.29,490.48Z"/>
            <path class="cls-6" d="M356.94,490.87a1.67,1.67,0,0,1,2.17-.94l21.31,8.53a1.67,1.67,0,1,1-1.23,3.1L357.87,493A1.66,1.66,0,0,1,356.94,490.87Zm17,2.9L377,495c.54-1.35,2.19-1.05,2.73-.83l14.36,5.74c.9.36,1.9,1.43,1.47,2.51l3.1,1.24c1.18-2.94-.81-5.84-3.33-6.85L381,491.08A5.31,5.31,0,0,0,373.94,493.77Zm.58,13.53,14.36,5.75c2.52,1,6,.27,7.14-2.67l-3.1-1.24c-.43,1.08-1.9,1.16-2.8.8l-14.36-5.74c-.54-.21-1.94-1.13-1.4-2.48l-3.1-1.24A5.31,5.31,0,0,0,374.52,507.3Z"/>
            <path class="cls-6" d="M389.69,504.64a1.68,1.68,0,0,1,2.07-1.14l22.06,6.36a1.67,1.67,0,1,1-.93,3.21l-22.06-6.36A1.67,1.67,0,0,1,389.69,504.64Zm17.21,1.2,3.21.92c.4-1.39,2.07-1.25,2.62-1.09L427.6,510c.93.27,2,1.24,1.71,2.35l3.21.93c.88-3-1.39-5.73-4-6.48l-14.86-4.29A5.31,5.31,0,0,0,406.9,505.84Zm1.92,13.41,14.86,4.29c2.61.75,6-.32,6.84-3.36l-3.21-.93c-.32,1.12-1.78,1.34-2.7,1.08L409.74,516c-.55-.16-2-.93-1.64-2.33l-3.21-.92A5.32,5.32,0,0,0,408.82,519.25Z"/>
            <path class="cls-6" d="M423.69,515.53a1.68,1.68,0,0,1,1.82-1.51l22.85,2.21a1.67,1.67,0,1,1-.31,3.32l-22.86-2.2A1.67,1.67,0,0,1,423.69,515.53Zm17.14-2,3.32.33c.14-1.45,1.81-1.62,2.38-1.57l15.4,1.49c1,.09,2.23.84,2.12,2l3.32.32c.3-3.14-2.42-5.38-5.12-5.63L446.85,509A5.3,5.3,0,0,0,440.83,513.54Zm4.35,12.84,15.4,1.48c2.69.26,5.79-1.41,6.1-4.56l-3.33-.32c-.11,1.16-1.5,1.65-2.45,1.56l-15.4-1.49c-.58,0-2.18-.54-2-2l-3.33-.32A5.34,5.34,0,0,0,445.18,526.38Z"/>
            <path class="cls-6" d="M459,519.93a1.65,1.65,0,0,1,1.62-1.71l22.95-.57a1.67,1.67,0,0,1,.09,3.33l-22.95.57A1.65,1.65,0,0,1,459,519.93Zm16.77-4,3.33-.08c0-1.45,1.61-1.82,2.18-1.84l15.47-.38c1,0,2.31.56,2.34,1.72l3.34-.08c-.08-3.17-3.06-5.05-5.77-5l-15.46.39A5.3,5.3,0,0,0,475.79,515.89Zm5.86,12.21,15.47-.38c2.71-.07,5.58-2.1,5.51-5.26l-3.34.08c0,1.17-1.29,1.82-2.26,1.84l-15.46.38c-.58,0-2.23-.27-2.26-1.72l-3.34.08A5.3,5.3,0,0,0,481.65,528.1Z"/>
            <path class="cls-6" d="M494.69,519.87a1.66,1.66,0,0,1,1.31-2l22.52-4.45a1.67,1.67,0,0,1,.65,3.28l-22.52,4.45A1.67,1.67,0,0,1,494.69,519.87Zm15.84-6.81,3.28-.65c-.28-1.43,1.27-2.06,1.83-2.18l15.18-3c.94-.19,2.37.16,2.6,1.3l3.27-.64c-.61-3.11-3.86-4.46-6.52-3.94L515,507A5.31,5.31,0,0,0,510.53,513.06Zm7.85,11,15.17-3c2.66-.53,5.16-3,4.54-6.12l-3.27.65c.22,1.14-1,2-1.91,2.19l-15.18,3c-.56.11-2.24.11-2.52-1.32l-3.28.64A5.31,5.31,0,0,0,518.38,524.1Z"/>
            <path class="cls-6" d="M530,514.45a1.66,1.66,0,0,1,.91-2.17l21.28-8.63a1.67,1.67,0,0,1,1.26,3.1l-21.28,8.62A1.66,1.66,0,0,1,530,514.45ZM563.31,501a1.67,1.67,0,0,1,.92-2.17l21.27-8.62a1.67,1.67,0,1,1,1.26,3.09l-21.27,8.62A1.67,1.67,0,0,1,563.31,501Zm-19,3.82,3.09-1.26c-.54-1.35.86-2.27,1.39-2.49l14.34-5.81c.89-.36,2.36-.28,2.8.79l3.09-1.25c-1.19-2.93-4.63-3.65-7.14-2.63l-14.34,5.81A5.31,5.31,0,0,0,544.31,504.77Zm9.79,9.36,14.34-5.82c2.51-1,4.49-3.93,3.3-6.86l-3.09,1.26c.43,1.07-.57,2.15-1.47,2.51L552.85,511c-.54.22-2.18.53-2.73-.82l-3.1,1.26A5.33,5.33,0,0,0,554.1,514.13Z"/>
            <path class="cls-6" d="M578.05,491l3.05-1.37c-.59-1.32.78-2.29,1.3-2.53l14.12-6.32c.88-.39,2.35-.37,2.82.69l3-1.37c-1.29-2.88-4.76-3.48-7.23-2.37L581,484.05A5.32,5.32,0,0,0,578.05,491Z"/>
            <path class="cls-6" d="M588.17,500l14.13-6.32c2.47-1.1,4.34-4.09,3.05-7l-3.05,1.36c.48,1.06-.49,2.17-1.37,2.56L586.81,497c-.53.24-2.16.61-2.75-.72l-3,1.37A5.31,5.31,0,0,0,588.17,500Z"/>
            <path class="cls-6" d="M597,487.38a1.68,1.68,0,0,1,.46-2.32l19.07-12.78a1.67,1.67,0,0,1,1.86,2.77l-19.07,12.79A1.67,1.67,0,0,1,597,487.38Z"/>
            <path class="cls-6" d="M612.71,479.74l-1.27,8.83c-.49,2.7.94,6,4.11,6.71l.61-3.32c-1.17-.25-1.55-1.71-1.37-2.67l1.27-8.86Z"/>
          </g>
          <g>
            <polygon class="cls-4" points="619.05 474.79 620.83 474.79 627.18 480.91 608.03 480.91 608.03 485.89 601.67 479.5 601.79 474.9 607.41 474.9 610.76 478.19 619.26 478.19 617.22 476.18 619.05 474.79"/>
            <rect class="cls-4" x="608.03" y="480.91" width="19.16" height="4.98"/>
            <line class="cls-3" x1="601.79" y1="474.9" x2="608.03" y2="480.91"/>
          </g>
          <g>
            <path class="cls-6" d="M613.14,479.29m1.11-6.09.29-1M618,473c.88-1.4,2.11-2.22,5.5-1.49s5.46,2,4.93,4.78l-2.8,15.37c-.18,1-1,2.15-2.2,1.9l-.61,3.32c3.17.68,5.66-1.81,6.15-4.5L631.76,477c.58-3.15-1.4-7.47-8-8.88-3.78-.81-8,.85-9.27,4.09L618,473m0,0-1.49,7"/>
            <path class="cls-6" d="M620.18,488.17a1.76,1.76,0,0,1,1.75,1.71l.61,23.33a1.63,1.63,0,0,1-1.66,1.68,1.76,1.76,0,0,1-1.74-1.71l-.61-23.33A1.62,1.62,0,0,1,620.18,488.17Zm4.13,17.17.09,3.39c1.48,0,1.86,1.69,1.87,2.28l.41,15.72c0,1-.56,2.33-1.75,2.32l.09,3.4c3.22,0,5.14-2.94,5.06-5.69L629.67,511A5.62,5.62,0,0,0,624.31,505.34Zm-12.42,5.55.4,15.73c.08,2.75,2.15,5.74,5.37,5.77l-.09-3.4c-1.19,0-1.85-1.37-1.88-2.35l-.41-15.72c0-.59.28-2.26,1.76-2.25l-.09-3.39C613.69,505.26,611.81,508.11,611.89,510.89Z"/>
            <path class="cls-6" d="M620.48,524.27a1.77,1.77,0,0,1,1.9,1.53L625.31,549a1.63,1.63,0,0,1-1.47,1.85,1.77,1.77,0,0,1-1.9-1.53L619,526.12A1.63,1.63,0,0,1,620.48,524.27Zm5.8,16.74.43,3.38c1.47-.14,2,1.5,2.09,2.08l2,15.66c.12,1-.33,2.39-1.51,2.49l.43,3.38c3.2-.29,4.8-3.43,4.45-6.18l-2-15.66C631.82,543.39,629.52,540.71,626.28,541Zm-11.77,6.78,2,15.66c.34,2.74,2.69,5.52,5.89,5.23L622,565.3c-1.18.11-2-1.19-2.1-2.16l-2-15.66c-.07-.59,0-2.28,1.52-2.42l-.43-3.38C615.74,542,614.17,545,614.51,547.79Z"/>
            <path class="cls-6" d="M624,560.49a1.76,1.76,0,0,1,2.13,1.17l7.14,22.45a1.64,1.64,0,0,1-1.1,2.1A1.76,1.76,0,0,1,630,585l-7.13-22.45A1.64,1.64,0,0,1,624,560.49Zm8.75,15.5,1,3.26c1.41-.4,2.24,1.12,2.42,1.68L641,596.06c.3.94.11,2.42-1,2.74l1,3.26c3.06-.87,4.05-4.28,3.21-6.93L639.43,580C638.58,577.33,635.84,575.1,632.74,576Zm-10.25,8.86,4.8,15.13c.85,2.65,3.66,5,6.72,4.09l-1-3.26c-1.13.32-2.15-.81-2.45-1.76l-4.81-15.13c-.18-.56-.37-2.26,1-2.66l-1-3.27C622.62,578.88,621.64,582.18,622.49,584.85Z"/>
            <path class="cls-6" d="M634.09,595.57a1.74,1.74,0,0,1,2.25.91L646.11,618a1.64,1.64,0,0,1-.83,2.22,1.75,1.75,0,0,1-2.25-.91l-9.78-21.52A1.66,1.66,0,0,1,634.09,595.57ZM644.61,610l1.42,3.13c1.35-.58,2.35.84,2.6,1.38l6.58,14.5c.41.9.41,2.4-.67,2.85L656,635c2.93-1.24,3.5-4.75,2.34-7.3l-6.59-14.49C650.55,610.59,647.58,608.69,644.61,610ZM635.55,620l6.59,14.5c1.15,2.54,4.21,4.51,7.13,3.26l-1.42-3.12c-1.08.46-2.22-.55-2.62-1.46l-6.59-14.5c-.24-.54-.64-2.21.7-2.78l-1.42-3.13C635,614.06,634.39,617.46,635.55,620Z"/>
            <path class="cls-6" d="M648.5,629.32a1.73,1.73,0,0,1,2.36.52l13.22,19.68a1.67,1.67,0,0,1-.44,2.35,1.72,1.72,0,0,1-2.36-.53l-13.22-19.67A1.66,1.66,0,0,1,648.5,629.32Zm12.75,12.49,1.92,2.86c1.22-.79,2.44.44,2.78.93l8.91,13.26c.55.83.8,2.31-.18,2.95l1.93,2.86c2.65-1.73,2.61-5.3,1-7.63l-8.91-13.26C667.18,641.43,663.94,640.05,661.25,641.81Zm-7.17,11.51L663,666.58c1.56,2.33,4.89,3.77,7.54,2l-1.92-2.86c-1,.63-2.26-.17-2.82-1l-8.91-13.26c-.33-.5-1-2.09.22-2.88l-1.93-2.86C652.48,647.51,652.5,651,654.08,653.32Z"/>
            <path class="cls-6" d="M667.8,660.79a1.7,1.7,0,0,1,2.4.07l16.63,16.95a1.67,1.67,0,1,1-2.39,2.33l-16.63-16.95A1.68,1.68,0,0,1,667.8,660.79Zm26,26.51a1.7,1.7,0,0,1,2.4.07l16.63,17a1.68,1.68,0,0,1,0,2.39,1.71,1.71,0,0,1-2.41-.06l-16.63-17A1.68,1.68,0,0,1,693.82,687.3ZM682.6,670.72l2.42,2.47c1-1,2.47,0,2.89.39L699.11,685c.7.71,1.22,2.13.39,2.94l2.42,2.47c2.26-2.21,1.54-5.74-.42-7.74l-11.21-11.43C688.31,669.23,684.89,668.48,682.6,670.72Zm-4.81,12.74L689,694.88c2,2,5.49,2.8,7.75.59L694.32,693c-.83.81-2.24.26-2.94-.45l-11.2-11.43c-.42-.42-1.38-1.86-.34-2.88l-2.42-2.47C675.13,678,675.81,681.44,677.79,683.46Z"/>
            <path class="cls-6" d="M709.06,697.58l2.51,2.38c1-1.05,2.45-.11,2.89.3l11.59,11c.73.69,1.3,2.09.5,2.93l2.5,2.38c2.18-2.29,1.34-5.8-.7-7.73l-11.59-11C714.71,695.89,711.27,695.26,709.06,697.58Z"/>
            <path class="cls-6" d="M704.71,710.5l11.6,11c2,1.93,5.57,2.6,7.75.31l-2.5-2.38c-.8.84-2.23.34-2.95-.35l-11.6-11c-.43-.42-1.43-1.83-.43-2.88l-2.5-2.38C701.87,705.14,702.67,708.54,704.71,710.5Z"/>
            <path class="cls-6" d="M720.08,714.21a1.68,1.68,0,0,1,2.35-.43l19.64,13.33a1.72,1.72,0,0,1,.5,2.36,1.67,1.67,0,0,1-2.35.42l-19.63-13.32A1.72,1.72,0,0,1,720.08,714.21Z"/>
          </g>
        </g>
      </g>
      <rect class="cls-3" x="1045.5" y="343.33" width="194.67" height="370.15"/>
      <line class="cls-3" x1="1240.17" y1="384.84" x2="1346.84" y2="384.84"/>
      <polyline class="cls-3" points="1346.84 651.28 1346.84 384.84 1306 379 1240.17 379"/>
      <line class="cls-3" x1="1240.17" y1="666.28" x2="1316.89" y2="666.28"/>
      <g>
        <rect class="cls-3" x="1055" y="361.5" width="174.5" height="48.5"/>
        <line class="cls-3" x1="1065" y1="372" x2="1065" y2="402"/>
        <rect class="cls-3" x="1142.25" y="372" width="67.75" height="24.5"/>
        <line class="cls-3" x1="1218.5" y1="372" x2="1218.5" y2="378.67"/>
        <line class="cls-3" x1="1218.5" y1="383.67" x2="1218.5" y2="390.33"/>
        <line class="cls-3" x1="1218.5" y1="395.33" x2="1218.5" y2="402"/>
        <line class="cls-3" x1="1192.84" y1="403.13" x2="1184" y2="403.13"/>
        <line class="cls-3" x1="1170.5" y1="403.13" x2="1166.5" y2="403.13"/>
        <line class="cls-3" x1="1160.34" y1="403.13" x2="1155" y2="403.13"/>
        <line class="cls-3" x1="1149.84" y1="403.13" x2="1144.84" y2="403.13"/>
        <line class="cls-3" x1="1078" y1="372" x2="1078" y2="377.17"/>
        <line class="cls-3" x1="1088.56" y1="372" x2="1088.56" y2="377.17"/>
        <line class="cls-3" x1="1099.11" y1="372" x2="1099.11" y2="377.17"/>
        <line class="cls-3" x1="1109.67" y1="372" x2="1109.67" y2="377.17"/>
        <line class="cls-3" x1="1129.25" y1="372" x2="1129.25" y2="377.17"/>
        <line class="cls-3" x1="1078" y1="384.42" x2="1078" y2="389.58"/>
        <line class="cls-3" x1="1088.56" y1="384.42" x2="1088.56" y2="389.58"/>
        <line class="cls-3" x1="1099.11" y1="384.42" x2="1099.11" y2="389.58"/>
        <line class="cls-3" x1="1109.67" y1="384.42" x2="1109.67" y2="389.58"/>
        <line class="cls-3" x1="1078" y1="396.5" x2="1078" y2="401.67"/>
        <line class="cls-3" x1="1088.56" y1="396.5" x2="1088.56" y2="401.67"/>
        <line class="cls-3" x1="1099.11" y1="396.5" x2="1099.11" y2="401.67"/>
        <line class="cls-3" x1="1109.67" y1="396.5" x2="1109.67" y2="401.67"/>
      </g>
      <g>
        <polyline class="cls-3" points="1243 401.67 1334.84 401.67 1334.84 446.07 1243.5 446.07"/>
        <rect class="cls-3" x="1254.95" y="411.28" width="62.04" height="22.43"/>
        <line class="cls-3" x1="1324.76" y1="411.28" x2="1324.76" y2="417.38"/>
        <line class="cls-3" x1="1324.76" y1="421.96" x2="1324.76" y2="428.07"/>
        <line class="cls-3" x1="1324.76" y1="432.64" x2="1324.76" y2="438.75"/>
        <line class="cls-3" x1="1301.26" y1="439.78" x2="1293.17" y2="439.78"/>
        <line class="cls-3" x1="1280.81" y1="439.78" x2="1277.15" y2="439.78"/>
        <line class="cls-3" x1="1271.5" y1="439.78" x2="1266.62" y2="439.78"/>
        <line class="cls-3" x1="1261.89" y1="439.78" x2="1257.31" y2="439.78"/>
        <line class="cls-3" x1="1243.04" y1="411.28" x2="1243.04" y2="416.01"/>
      </g>
      <g>
        <polyline class="cls-3" points="1243 470.28 1334.84 470.28 1334.84 514.69 1243.5 514.69"/>
        <rect class="cls-3" x="1254.95" y="479.9" width="62.04" height="22.43"/>
        <line class="cls-3" x1="1324.76" y1="479.9" x2="1324.76" y2="486"/>
        <line class="cls-3" x1="1324.76" y1="490.58" x2="1324.76" y2="496.69"/>
        <line class="cls-3" x1="1324.76" y1="501.26" x2="1324.76" y2="507.37"/>
        <line class="cls-3" x1="1301.26" y1="508.4" x2="1293.17" y2="508.4"/>
        <line class="cls-3" x1="1280.81" y1="508.4" x2="1277.15" y2="508.4"/>
        <line class="cls-3" x1="1271.5" y1="508.4" x2="1266.62" y2="508.4"/>
        <line class="cls-3" x1="1261.89" y1="508.4" x2="1257.31" y2="508.4"/>
        <line class="cls-3" x1="1243.04" y1="479.9" x2="1243.04" y2="484.63"/>
      </g>
      <g>
        <polyline class="cls-3" points="1243 527.12 1334.84 527.12 1334.84 571.53 1243.5 571.53"/>
        <rect class="cls-3" x="1254.95" y="536.73" width="62.04" height="22.43"/>
        <line class="cls-3" x1="1324.76" y1="536.73" x2="1324.76" y2="542.84"/>
        <line class="cls-3" x1="1324.76" y1="547.42" x2="1324.76" y2="553.52"/>
        <line class="cls-3" x1="1324.76" y1="558.1" x2="1324.76" y2="564.2"/>
        <line class="cls-3" x1="1301.26" y1="565.23" x2="1293.17" y2="565.23"/>
        <line class="cls-3" x1="1280.81" y1="565.23" x2="1277.15" y2="565.23"/>
        <line class="cls-3" x1="1271.5" y1="565.23" x2="1266.62" y2="565.23"/>
        <line class="cls-3" x1="1261.89" y1="565.23" x2="1257.31" y2="565.23"/>
        <line class="cls-3" x1="1243.04" y1="536.73" x2="1243.04" y2="541.46"/>
      </g>
      <g>
        <polyline class="cls-3" points="1243 587.83 1334.84 587.83 1334.84 632.24 1243.5 632.24"/>
        <rect class="cls-3" x="1254.95" y="597.45" width="62.04" height="22.43"/>
        <line class="cls-3" x1="1324.76" y1="597.45" x2="1324.76" y2="603.55"/>
        <line class="cls-3" x1="1324.76" y1="608.13" x2="1324.76" y2="614.23"/>
        <line class="cls-3" x1="1324.76" y1="618.81" x2="1324.76" y2="624.92"/>
        <line class="cls-3" x1="1301.26" y1="625.94" x2="1293.17" y2="625.94"/>
        <line class="cls-3" x1="1280.81" y1="625.94" x2="1277.15" y2="625.94"/>
        <line class="cls-3" x1="1271.5" y1="625.94" x2="1266.62" y2="625.94"/>
        <line class="cls-3" x1="1261.89" y1="625.94" x2="1257.31" y2="625.94"/>
        <line class="cls-3" x1="1243.04" y1="597.45" x2="1243.04" y2="602.18"/>
      </g>
      <g>
        <rect class="cls-3" x="1055" y="427.75" width="174.5" height="48.5"/>
        <line class="cls-3" x1="1065" y1="438.25" x2="1065" y2="468.25"/>
        <rect class="cls-3" x="1142.25" y="438.25" width="67.75" height="24.5"/>
        <line class="cls-3" x1="1218.5" y1="438.25" x2="1218.5" y2="444.92"/>
        <line class="cls-3" x1="1218.5" y1="449.92" x2="1218.5" y2="456.58"/>
        <line class="cls-3" x1="1218.5" y1="461.58" x2="1218.5" y2="468.25"/>
        <line class="cls-3" x1="1192.84" y1="469.38" x2="1184" y2="469.38"/>
        <line class="cls-3" x1="1170.5" y1="469.38" x2="1166.5" y2="469.38"/>
        <line class="cls-3" x1="1160.34" y1="469.38" x2="1155" y2="469.38"/>
        <line class="cls-3" x1="1149.84" y1="469.38" x2="1144.84" y2="469.38"/>
        <line class="cls-3" x1="1078" y1="438.25" x2="1078" y2="443.42"/>
        <line class="cls-3" x1="1088.56" y1="438.25" x2="1088.56" y2="443.42"/>
        <line class="cls-3" x1="1099.11" y1="438.25" x2="1099.11" y2="443.42"/>
        <line class="cls-3" x1="1109.67" y1="438.25" x2="1109.67" y2="443.42"/>
        <line class="cls-3" x1="1129.25" y1="438.25" x2="1129.25" y2="443.42"/>
        <line class="cls-3" x1="1078" y1="450.67" x2="1078" y2="455.83"/>
        <line class="cls-3" x1="1088.56" y1="450.67" x2="1088.56" y2="455.83"/>
        <line class="cls-3" x1="1099.11" y1="450.67" x2="1099.11" y2="455.83"/>
        <line class="cls-3" x1="1109.67" y1="450.67" x2="1109.67" y2="455.83"/>
        <line class="cls-3" x1="1078" y1="462.75" x2="1078" y2="467.92"/>
        <line class="cls-3" x1="1088.56" y1="462.75" x2="1088.56" y2="467.92"/>
        <line class="cls-3" x1="1099.11" y1="462.75" x2="1099.11" y2="467.92"/>
        <line class="cls-3" x1="1109.67" y1="462.75" x2="1109.67" y2="467.92"/>
      </g>
      <g>
        <rect class="cls-3" x="1055" y="498.29" width="174.5" height="48.5"/>
        <line class="cls-3" x1="1065" y1="508.79" x2="1065" y2="538.79"/>
        <rect class="cls-3" x="1142.25" y="508.79" width="67.75" height="24.5"/>
        <line class="cls-3" x1="1218.5" y1="508.79" x2="1218.5" y2="515.45"/>
        <line class="cls-3" x1="1218.5" y1="520.45" x2="1218.5" y2="527.12"/>
        <line class="cls-3" x1="1218.5" y1="532.12" x2="1218.5" y2="538.79"/>
        <line class="cls-3" x1="1192.84" y1="539.91" x2="1184" y2="539.91"/>
        <line class="cls-3" x1="1170.5" y1="539.91" x2="1166.5" y2="539.91"/>
        <line class="cls-3" x1="1160.34" y1="539.91" x2="1155" y2="539.91"/>
        <line class="cls-3" x1="1149.84" y1="539.91" x2="1144.84" y2="539.91"/>
        <line class="cls-3" x1="1078" y1="508.79" x2="1078" y2="513.95"/>
        <line class="cls-3" x1="1088.56" y1="508.79" x2="1088.56" y2="513.95"/>
        <line class="cls-3" x1="1099.11" y1="508.79" x2="1099.11" y2="513.95"/>
        <line class="cls-3" x1="1109.67" y1="508.79" x2="1109.67" y2="513.95"/>
        <line class="cls-3" x1="1129.25" y1="508.79" x2="1129.25" y2="513.95"/>
        <line class="cls-3" x1="1078" y1="521.2" x2="1078" y2="526.37"/>
        <line class="cls-3" x1="1088.56" y1="521.2" x2="1088.56" y2="526.37"/>
        <line class="cls-3" x1="1099.11" y1="521.2" x2="1099.11" y2="526.37"/>
        <line class="cls-3" x1="1109.67" y1="521.2" x2="1109.67" y2="526.37"/>
        <line class="cls-3" x1="1078" y1="533.29" x2="1078" y2="538.45"/>
        <line class="cls-3" x1="1088.56" y1="533.29" x2="1088.56" y2="538.45"/>
        <line class="cls-3" x1="1099.11" y1="533.29" x2="1099.11" y2="538.45"/>
        <line class="cls-3" x1="1109.67" y1="533.29" x2="1109.67" y2="538.45"/>
      </g>
      <g>
        <rect class="cls-3" x="1055" y="561.54" width="174.5" height="48.5"/>
        <line class="cls-3" x1="1065" y1="572.04" x2="1065" y2="602.04"/>
        <rect class="cls-3" x="1142.25" y="572.04" width="67.75" height="24.5"/>
        <line class="cls-3" x1="1218.5" y1="572.04" x2="1218.5" y2="578.7"/>
        <line class="cls-3" x1="1218.5" y1="583.7" x2="1218.5" y2="590.37"/>
        <line class="cls-3" x1="1218.5" y1="595.37" x2="1218.5" y2="602.04"/>
        <line class="cls-3" x1="1192.84" y1="603.16" x2="1184" y2="603.16"/>
        <line class="cls-3" x1="1170.5" y1="603.16" x2="1166.5" y2="603.16"/>
        <line class="cls-3" x1="1160.34" y1="603.16" x2="1155" y2="603.16"/>
        <line class="cls-3" x1="1149.84" y1="603.16" x2="1144.84" y2="603.16"/>
        <line class="cls-3" x1="1078" y1="572.04" x2="1078" y2="577.2"/>
        <line class="cls-3" x1="1088.56" y1="572.04" x2="1088.56" y2="577.2"/>
        <line class="cls-3" x1="1099.11" y1="572.04" x2="1099.11" y2="577.2"/>
        <line class="cls-3" x1="1109.67" y1="572.04" x2="1109.67" y2="577.2"/>
        <line class="cls-3" x1="1129.25" y1="572.04" x2="1129.25" y2="577.2"/>
        <line class="cls-3" x1="1078" y1="584.45" x2="1078" y2="589.62"/>
        <line class="cls-3" x1="1088.56" y1="584.45" x2="1088.56" y2="589.62"/>
        <line class="cls-3" x1="1099.11" y1="584.45" x2="1099.11" y2="589.62"/>
        <line class="cls-3" x1="1109.67" y1="584.45" x2="1109.67" y2="589.62"/>
        <line class="cls-3" x1="1078" y1="596.54" x2="1078" y2="601.7"/>
        <line class="cls-3" x1="1088.56" y1="596.54" x2="1088.56" y2="601.7"/>
        <line class="cls-3" x1="1099.11" y1="596.54" x2="1099.11" y2="601.7"/>
        <line class="cls-3" x1="1109.67" y1="596.54" x2="1109.67" y2="601.7"/>
      </g>
      <g>
        <rect class="cls-3" x="1055" y="627.04" width="174.5" height="48.5"/>
        <line class="cls-3" x1="1065" y1="637.54" x2="1065" y2="667.54"/>
        <rect class="cls-3" x="1142.25" y="637.54" width="67.75" height="24.5"/>
        <line class="cls-3" x1="1218.5" y1="637.54" x2="1218.5" y2="644.2"/>
        <line class="cls-3" x1="1218.5" y1="649.2" x2="1218.5" y2="655.87"/>
        <line class="cls-3" x1="1218.5" y1="660.87" x2="1218.5" y2="667.54"/>
        <line class="cls-3" x1="1192.84" y1="668.66" x2="1184" y2="668.66"/>
        <line class="cls-3" x1="1170.5" y1="668.66" x2="1166.5" y2="668.66"/>
        <line class="cls-3" x1="1160.34" y1="668.66" x2="1155" y2="668.66"/>
        <line class="cls-3" x1="1149.84" y1="668.66" x2="1144.84" y2="668.66"/>
        <line class="cls-3" x1="1078" y1="637.54" x2="1078" y2="642.7"/>
        <line class="cls-3" x1="1088.56" y1="637.54" x2="1088.56" y2="642.7"/>
        <line class="cls-3" x1="1099.11" y1="637.54" x2="1099.11" y2="642.7"/>
        <line class="cls-3" x1="1109.67" y1="637.54" x2="1109.67" y2="642.7"/>
        <line class="cls-3" x1="1129.25" y1="637.54" x2="1129.25" y2="642.7"/>
        <line class="cls-3" x1="1078" y1="649.95" x2="1078" y2="655.12"/>
        <line class="cls-3" x1="1088.56" y1="649.95" x2="1088.56" y2="655.12"/>
        <line class="cls-3" x1="1099.11" y1="649.95" x2="1099.11" y2="655.12"/>
        <line class="cls-3" x1="1109.67" y1="649.95" x2="1109.67" y2="655.12"/>
        <line class="cls-3" x1="1078" y1="662.04" x2="1078" y2="667.2"/>
        <line class="cls-3" x1="1088.56" y1="662.04" x2="1088.56" y2="667.2"/>
        <line class="cls-3" x1="1099.11" y1="662.04" x2="1099.11" y2="667.2"/>
        <line class="cls-3" x1="1109.67" y1="662.04" x2="1109.67" y2="667.2"/>
      </g>
      <line class="cls-3" x1="1055" y1="685.5" x2="1230.75" y2="685.5"/>
      <line class="cls-3" x1="1055" y1="694.75" x2="1230.75" y2="694.75"/>
      <line class="cls-3" x1="1055" y1="703.25" x2="1216" y2="703.25"/>
      <line class="cls-3" x1="1225.25" y1="703.25" x2="1230.75" y2="703.25"/>
      <line class="cls-3" x1="1308" y1="642.7" x2="1243.04" y2="642.7"/>
      <line class="cls-3" x1="1315.11" y1="651.29" x2="1243.04" y2="651.29"/>
      <line class="cls-3" x1="1293.5" y1="660.87" x2="1254.95" y2="660.87"/>
      <g>
        <g>
          <polygon class="cls-1" points="1242.25 499.19 1243.1 461.41 1342.05 654.48 1324.12 661.71 1242.25 499.19"/>
          <polygon class="cls-2" points="1242.65 481.23 1332.55 658.31 1325.66 661.71 1242.79 500.12 1242.65 481.23"/>
          <line class="cls-3" x1="1324.12" y1="660.17" x2="1243.1" y2="499.61"/>
          <line class="cls-3" x1="1243.1" y1="459.2" x2="1342.05" y2="654.18"/>
        </g>
        <g>
          <path class="cls-3" d="M1260.42,688.47s99.57-28.62,129.25-73.53c11.75,7,14.23,10.16,14.23,10.16C1357.51,662.17,1317.32,678.89,1260.42,688.47Z"/>
          <path class="cls-3" d="M1332.55,676.58a325.73,325.73,0,0,1-70,20.22l-2.16-8.33"/>
          <path class="cls-3" d="M1403.9,625.1v10.37c-13,8.82-29.68,20.89-52.5,32.41"/>
          <path class="cls-3" d="M1351.93,668.71c.88,1.95-2.81,5.53-8.25,8s-10.57,2.91-11.45,1,2.81-5.53,8.24-8S1351,666.77,1351.93,668.71Z"/>
        </g>
      </g>
      <polyline class="cls-3" points="1240.17 343.33 1193 338.5 1066 338.5"/>
      <polyline class="cls-3" points="1007 361.5 1007 677.5 1045.5 713.48"/>
      <path class="cls-7" d="M971.5,348.5V479.74H968V693.53H852.83V479H847.5V343.33s-24,34.67-67,63.67c-1.5-2.5-21.14-20-21.14-20,18.44-19.86,48.18-56.36,65.65-86.3a49.49,49.49,0,0,1,42.74-24.53c24.44,0,58-.25,79.36-.46a49.44,49.44,0,0,1,35.6,14.67l27.79,28.12L1055,306l15,24.5-60,31Z"/>
      <line class="cls-3" x1="852.83" y1="479.04" x2="968" y2="479.04"/>
      <path class="cls-4" d="M780.5,407l-21.93,18.76a2.26,2.26,0,0,1-3.72-1.72v-8.53a5.78,5.78,0,0,0-4.37-5.61l-7.25-1.83a5.6,5.6,0,0,1-4.23-5.43,10.1,10.1,0,0,1,8-9.88l12.8-2.81Z"/>
      <path class="cls-4" d="M1070,330.5l21.28-12.16a44.32,44.32,0,0,1,22-5.84,6.21,6.21,0,0,0,1.6-12.21,77.17,77.17,0,0,0-40.19.26L1055,306Z"/>
      <line class="cls-3" x1="971.5" y1="348.5" x2="951.5" y2="338.5"/>
      <line class="cls-3" x1="904" y1="502.76" x2="904" y2="691.5"/>
      <path class="cls-3" d="M968,693.53H842.24a17.73,17.73,0,0,0-17.74,17.73v5.34H968Z"/>
      <path class="cls-3" d="M968,693.53H904a16,16,0,0,0-16,16v7.09h80Z"/>
      <g>
        <g>
          <path class="cls-1" d="M936.66,261.5c0,14.66-12.83,27.29-27.5,27.29H891.32c-14.67,0-25.77-12.63-25.77-27.29V222.72a21,21,0,0,1,21-21h29.09a21,21,0,0,1,21,21Z"/>
          <path class="cls-7" d="M936.66,234.35V261.5c0,14.66-12.83,27.29-27.5,27.29H891.32c-14.67,0-25.77-12.63-25.77-27.29V229.91"/>
        </g>
        <g>
          <g>
            <path class="cls-3" d="M875.32,240.64a7.41,7.41,0,0,1,14.81,0"/>
            <path class="cls-3" d="M904.2,240.64a7.41,7.41,0,0,1,14.82,0"/>
          </g>
          <path class="cls-3" d="M884,260.45c15.07,14.1,28,0,28,0"/>
        </g>
        <g>
          <path class="cls-2" d="M859.83,211h9.53a25.68,25.68,0,0,0-3.81,13.08v10.39C863.37,231.63,861,222.06,859.83,211Z"/>
          <path class="cls-2" d="M935.85,238.16l0-.83s-3.64-6.73-4.27-10.41c-.92-5.39-1.92-11.57-4.12-15.92H940.8C940.85,221.29,939.11,233.33,935.85,238.16Z"/>
          <path class="cls-7" d="M928.61,213.63a81.32,81.32,0,0,1,3,13.29c.63,3.68,4.27,10.41,4.27,10.41l0,.83c3.25-4.83,5-16.87,4.94-27.16"/>
          <path class="cls-7" d="M859.77,211.5c1.11,11.27,3.56,20.08,5.78,23V224.08a26.54,26.54,0,0,1,2.79-11.34"/>
        </g>
      </g>
      <g>
        <path class="cls-7" d="M854.84,199.67l-18,11.33H950.5s12.41-67.67-43.3-69.33c-2,1-3.09-5-3.09-5H885.72l-4.88,6.66C871.17,147,866.17,156,866.17,156"/>
        <path class="cls-7" d="M878.32,180c0-11.6-7.23-21-16.15-21S846,168.4,846,180s7.23,21,16.16,21S878.32,191.6,878.32,180Z"/>
        <path class="cls-7" d="M866.4,201c12.69,0,23-9.4,23-21s-10.29-21-23-21"/>
        <polyline class="cls-3" points="885.72 196 891.83 196 896.83 196 937.71 196"/>
        <path class="cls-3" d="M904.11,142.67c-11.94,21.66-5.61,49-5.61,53.33-10.3,5.76-20.18,15-20.18,15"/>
        <path class="cls-3" d="M904.11,136.67c-13.94,11.66-12.9,28.66-12.9,28.66"/>
        <path class="cls-3" d="M881.84,143.33s-4.85,6.24-5,13.34"/>
        <line class="cls-3" x1="869.34" y1="211" x2="885.72" y2="198.33"/>
      </g>
      <g>
        <g>
          <ellipse class="cls-4" cx="1085.45" cy="292.67" rx="36.06" ry="6.5"/>
          <path class="cls-4" d="M1121.51,292.67v11.16c0,3.59-16.14,6.5-36.06,6.5s-36.06-2.91-36.06-6.5V292.67c0,3.59,16.15,6.5,36.06,6.5S1121.51,296.26,1121.51,292.67Z"/>
        </g>
        <g>
          <path class="cls-4" d="M1114.81,279.36c0,3.59-16.15,6.5-36.06,6.5s-36.06-2.91-36.06-6.5,16.15-6.5,36.06-6.5S1114.81,275.77,1114.81,279.36Z"/>
          <path class="cls-4" d="M1114.81,279.36v11.16c0,3.59-16.14,6.5-36.06,6.5s-36.06-2.91-36.06-6.5V279.36c0,3.59,16.15,6.5,36.06,6.5S1114.81,283,1114.81,279.36Z"/>
        </g>
        <g>
          <path class="cls-4" d="M1131.34,268.51c0,3.59-16.15,6.5-36.06,6.5s-36.06-2.91-36.06-6.5,16.15-6.5,36.06-6.5S1131.34,264.92,1131.34,268.51Z"/>
          <path class="cls-4" d="M1131.34,268.51v11.16c0,3.59-16.14,6.5-36.06,6.5s-36.06-2.91-36.06-6.5V268.51c0,3.59,16.15,6.5,36.06,6.5S1131.34,272.1,1131.34,268.51Z"/>
        </g>
        <g>
          <path class="cls-4" d="M1105.86,257.54c0,3.59-16.14,6.5-36,6.5s-36.06-2.91-36.06-6.5,16.14-6.5,36.06-6.5S1105.86,254,1105.86,257.54Z"/>
          <path class="cls-4" d="M1105.86,257.54V268.7c0,3.59-16.14,6.5-36,6.5s-36.06-2.91-36.06-6.5V257.54c0,3.59,16.15,6.5,36.06,6.5S1105.86,261.13,1105.86,257.54Z"/>
        </g>
        <g>
          <path class="cls-4" d="M1120,246.92c0,3.59-16.15,6.5-36.06,6.5s-36.06-2.91-36.06-6.5,16.15-6.5,36.06-6.5S1120,243.33,1120,246.92Z"/>
          <path class="cls-4" d="M1120,246.92v11.16c0,3.59-16.14,6.5-36.06,6.5s-36.06-2.91-36.06-6.5V246.92c0,3.59,16.15,6.5,36.06,6.5S1120,250.51,1120,246.92Z"/>
        </g>
      </g>
      <g>
        <g>
          <path class="cls-4" d="M1084.89,204.31c-20.14,0-36.48-16.78-36.47-37.49s16.33-37.5,36.48-37.5,36.48,16.79,36.48,37.5S1105,204.31,1084.89,204.31Z"/>
          <path class="cls-4" d="M1084.89,204.31h-5.68c-20.14,0-36.48-16.78-36.47-37.49s16.33-37.5,36.48-37.5h5.68c-20.15,0-36.48,16.8-36.48,37.5S1064.75,204.31,1084.89,204.31Z"/>
        </g>
        <path class="cls-4" d="M1084.89,197.37c-16.41,0-29.72-13.68-29.72-30.55a30.93,30.93,0,0,1,6.43-19"/>
        <path class="cls-4" d="M1098.57,194a29.69,29.69,0,0,1-3.68,1.65"/>
        <path class="cls-4" d="M1071,139.83a29,29,0,0,1,13.94-3.56c16.41,0,29.72,13.68,29.72,30.55a31,31,0,0,1-5.49,17.7"/>
        <line class="cls-3" x1="1042.74" y1="139.35" x2="1042.74" y2="124.21"/>
        <line class="cls-3" x1="1048.42" y1="124.21" x2="1048.42" y2="81.79"/>
        <line class="cls-3" x1="1118.65" y1="133.9" x2="1118.65" y2="103"/>
        <path class="cls-3" d="M1066,121a35.56,35.56,0,0,1,31.26-1.42"/>
        <path class="cls-3" d="M1076.54,109.67a35.78,35.78,0,0,1,13.21,0"/>
        <path class="cls-5" d="M1100.41,183.81l-4.12,1.95L1094,181l-2.61,1.24,2.26,4.8-4.12,1.95-2.28-4.84-8.7,4.13-1.92-4.09.36-.17c.53-.26,1.08-.51,1.6-.8a1.49,1.49,0,0,0,.74-2.14c-.18-.42-.36-.85-.55-1.26q-3.52-7.5-7.07-15c-.32-.68-.65-1.35-1-2a1.5,1.5,0,0,0-2.12-.8c-.57.23-1.12.5-1.67.75l-.34.14-1.92-4.09,8.7-4.13-2.27-4.82,4.11-1.95,2.27,4.8,2.62-1.24-2.27-4.8,4.12-2c.06.12.13.24.19.37.66,1.4,1.33,2.8,2,4.22.14.32.29.45.64.29a7.63,7.63,0,0,1,.85-.26,9.64,9.64,0,0,1,4.77-.14,7.1,7.1,0,0,1,5.5,7.81,8.66,8.66,0,0,1-2.56,5l-.28.32a1,1,0,0,0,.41,0,11.43,11.43,0,0,1,3.69-.18,7,7,0,0,1,4.72,2.7,8.1,8.1,0,0,1,.76,9.18,11.71,11.71,0,0,1-4.29,4.49c-.28.18-.3.31-.17.6C1098.93,180.65,1099.67,182.23,1100.41,183.81ZM1083.07,170c0,.1.07.16.1.23l2.93,6.21c.22.45.46.88.71,1.31a.66.66,0,0,0,.88.32c1-.43,2-.85,3-1.34a26.44,26.44,0,0,0,2.49-1.4,4.53,4.53,0,0,0,1.87-2.24,4.69,4.69,0,0,0-.11-3.69,4,4,0,0,0-4-2.52,8.83,8.83,0,0,0-3,.85c-1.54.67-3.05,1.41-4.57,2.12Zm-2-4.37c.1,0,.19-.06.27-.1l3-1.43a14.69,14.69,0,0,0,3.24-2,3.94,3.94,0,0,0,1.46-2.47,3.63,3.63,0,0,0-4.42-4.14,13,13,0,0,0-2,.68c-1.57.69-3.11,1.43-4.66,2.15a1.65,1.65,0,0,0-.25.15Z"/>
      </g>
      <line class="cls-3" x1="472.63" y1="359.89" x2="255.44" y2="359.89"/>
      <line class="cls-3" x1="609.38" y1="264.58" x2="393.68" y2="264.58"/>
      <line class="cls-3" x1="415.54" y1="153.75" x2="486.42" y2="153.75"/>
    </g>
  </g>
</svg>
