<svg id="work" xmlns="http://www.w3.org/2000/svg" viewBox="0 0 1422 870">
  <defs>
    <style>
      .cls-1, .cls-11, .cls-3, .cls-4 {
        fill: #fff;
      }

      .Graphic-Style-8, .cls-1 {
        stroke: #ff0083;
      }

      .Graphic-Style-8, .cls-1, .cls-10, .cls-11, .cls-12, .cls-3, .cls-6, .cls-7, .cls-9 {
        stroke-linecap: round;
        stroke-linejoin: round;
      }

      .Graphic-Style-8, .cls-1, .cls-10, .cls-3, .cls-6 {
        stroke-width: 2.5px;
      }

      .cls-10, .cls-2 {
        fill: #ff0083;
      }

      .cls-10, .cls-11, .cls-3, .cls-6, .cls-7, .cls-8, .cls-9 {
        stroke: #4a4a4a;
      }

      .cls-5 {
        fill: #ebebeb;
      }

      .Graphic-Style-8, .cls-12, .cls-6, .cls-7, .cls-8, .cls-9 {
        fill: none;
      }

      .cls-7 {
        stroke-width: 1.2px;
      }

      .cls-8 {
        stroke-miterlimit: 10;
      }

      .cls-12, .cls-8, .cls-9 {
        stroke-width: 4px;
      }

      .cls-11 {
        stroke-width: 1.5px;
      }

      .cls-12 {
        stroke: #494949;
      }
    </style>
  </defs>
  <title>27,1</title>
  <g>
    <g>
      <path class="cls-1" d="M608.18,439.41a36.14,36.14,0,0,1-14,28.57l-99.63,77.14A12.76,12.76,0,0,1,474,535l-.25-34.13a8.87,8.87,0,0,0-8.87-8.87h-247L218,386.89H464.81a8.87,8.87,0,0,0,8.87-8.87l.22-34.15a12.75,12.75,0,0,1,20.55-10.08l99.7,77.06A36.1,36.1,0,0,1,608.18,439.41Z"/>
      <path class="cls-2" d="M448.17,472.2a7.36,7.36,0,0,1-5-2L416.42,445a7.35,7.35,0,0,1,10.09-10.7l21.55,20.32,56.46-55.55a7.35,7.35,0,1,1,10.31,10.47l-61.5,60.53A7.36,7.36,0,0,1,448.17,472.2Z"/>
    </g>
    <g>
      <g>
        <rect class="cls-3" x="600.33" y="475.78" width="113.81" height="169.13" rx="5.52" ry="5.52"/>
        <polygon class="cls-4" points="698.85 515.02 709.57 506.4 709.57 612.05 698.85 604.18 698.85 515.02"/>
        <polygon class="cls-5" points="709.49 513.67 703.59 518.9 703.59 545.94 709.71 539.82 709.71 546.94 703.59 552.25 703.59 575.94 709.25 570.23 709.49 575.42 703.3 582.33 703.3 607.04 698.85 604.26 699.14 516.05 709.49 505.58 709.49 513.67"/>
        <polyline class="cls-6" points="714.14 502.82 699.33 515.41 699.33 604.26 713.75 615.19"/>
        <polyline class="cls-6" points="709.49 506.99 709.49 538.93 699.48 549.24"/>
        <polyline class="cls-6" points="709.49 539.12 709.49 569.03 699.48 579.34"/>
        <line class="cls-6" x1="709.49" y1="569.03" x2="709.49" y2="611.37"/>
        <g>
          <path class="cls-5" d="M613.2,490.44A4.16,4.16,0,1,0,609,494.6,4.16,4.16,0,0,0,613.2,490.44Z"/>
          <path class="cls-5" d="M613.2,505.59a4.16,4.16,0,1,0-4.16,4.16A4.17,4.17,0,0,0,613.2,505.59Z"/>
          <path class="cls-5" d="M613.2,520.79A4.16,4.16,0,1,0,609,525,4.16,4.16,0,0,0,613.2,520.79Z"/>
          <path class="cls-5" d="M613.2,536a4.16,4.16,0,1,0-4.16,4.16A4.16,4.16,0,0,0,613.2,536Z"/>
          <path class="cls-5" d="M613.2,551.1a4.16,4.16,0,1,0-4.16,4.16A4.17,4.17,0,0,0,613.2,551.1Z"/>
          <path class="cls-5" d="M613.2,566.31a4.16,4.16,0,1,0-4.16,4.16A4.16,4.16,0,0,0,613.2,566.31Z"/>
          <path class="cls-5" d="M613.2,581.42a4.16,4.16,0,1,0-4.16,4.16A4.16,4.16,0,0,0,613.2,581.42Z"/>
          <path class="cls-5" d="M613.2,596.56a4.16,4.16,0,1,0-4.16,4.16A4.16,4.16,0,0,0,613.2,596.56Z"/>
          <path class="cls-5" d="M613.2,611.76a4.16,4.16,0,1,0-4.16,4.17A4.17,4.17,0,0,0,613.2,611.76Z"/>
          <path class="cls-5" d="M613.2,626.94A4.16,4.16,0,1,0,609,631.1,4.16,4.16,0,0,0,613.2,626.94Z"/>
        </g>
        <g>
          <line class="cls-6" x1="596.91" y1="490.28" x2="608.91" y2="490.28"/>
          <line class="cls-6" x1="596.91" y1="505.4" x2="608.91" y2="505.4"/>
          <line class="cls-6" x1="596.91" y1="520.52" x2="608.91" y2="520.52"/>
          <line class="cls-6" x1="596.91" y1="535.64" x2="608.91" y2="535.64"/>
          <line class="cls-6" x1="596.91" y1="550.76" x2="608.91" y2="550.76"/>
          <line class="cls-6" x1="596.91" y1="565.88" x2="608.91" y2="565.88"/>
          <line class="cls-6" x1="596.91" y1="581" x2="608.91" y2="581"/>
          <line class="cls-6" x1="596.91" y1="596.12" x2="608.91" y2="596.12"/>
          <line class="cls-6" x1="596.91" y1="611.24" x2="608.91" y2="611.24"/>
          <line class="cls-6" x1="596.91" y1="626.36" x2="608.91" y2="626.36"/>
        </g>
        <path class="cls-2" d="M664.28,601.6h-7.9V588.7h-5.9c-.47,0-.37.38-.37.65q0,6.12,0,12.25h-7.9V588.47h-15.7a1.53,1.53,0,0,1-.06-.22c.49-2.91,1-5.82,1.46-8.73.07-.43.34-.4.63-.4h4.84c2.21,0,3.27-1.08,3.27-3.32V541.91a3.92,3.92,0,0,0-3.95-4.2c-1.29-.07-2.59-.07-3.88-.09h-2.36v-8.38h15.75V516.36h7.9q0,6,0,12c0,.48.14.64.62.62,1.36,0,2.73-.06,4.09-.07h1.48a1.45,1.45,0,0,0,.08-.27q0-6.16,0-12.32h7.9c0,.27,0,.54,0,.81v10.89c0,1.25,0,1.24,1.28,1.38A31.77,31.77,0,0,1,675.71,532a12.21,12.21,0,0,1,6.68,6.69,16.17,16.17,0,0,1,.94,7.16,11.34,11.34,0,0,1-5.84,9.46l-.83.48.42.19a41.21,41.21,0,0,1,4,1.55,11.32,11.32,0,0,1,6.29,7.51,21.1,21.1,0,0,1-.18,10.5,14.5,14.5,0,0,1-4.58,7.69,20,20,0,0,1-9.39,4.22c-2.73.53-5.52.74-8.29,1-.6.07-.77.26-.75.83,0,1.05,0,2.09,0,3.14Zm-14-22.46c2.44,0,4.75.05,7.06,0a28.93,28.93,0,0,0,9.22-1.52,8.45,8.45,0,0,0,4.7-3.37,7.16,7.16,0,0,0-2.5-9.94,17.72,17.72,0,0,0-8.31-2.29c-3.1-.15-6.21-.1-9.31-.19-.69,0-.88.18-.87.87,0,5.22,0,10.43,0,15.65Zm0-33.1q0,3.63,0,7.28c0,.37,0,.64.52.65a42.76,42.76,0,0,0,11.83-1,8.76,8.76,0,0,0,5-3.2,6.92,6.92,0,0,0-1.23-8.85,12,12,0,0,0-6.93-2.5c-2.84-.22-5.71-.16-8.56-.25-.55,0-.63.24-.62.7C650.28,541.27,650.28,543.66,650.28,546Z"/>
      </g>
      <g>
        <rect class="cls-3" x="907.53" y="181.51" width="113.82" height="169.13" rx="5.52" ry="5.52"/>
        <polygon class="cls-4" points="1006.05 220.75 1016.77 212.13 1016.77 317.78 1006.05 309.91 1006.05 220.75"/>
        <polygon class="cls-5" points="1016.7 219.4 1010.79 224.63 1010.79 251.67 1016.91 245.55 1016.91 252.67 1010.79 257.98 1010.79 281.67 1016.45 275.95 1016.7 281.15 1010.5 288.06 1010.5 312.76 1006.05 309.99 1006.34 221.78 1016.7 211.31 1016.7 219.4"/>
        <polyline class="cls-6" points="1021.34 208.55 1006.54 221.14 1006.54 309.99 1020.95 320.92"/>
        <polyline class="cls-6" points="1016.7 212.72 1016.7 244.66 1006.68 254.97"/>
        <polyline class="cls-6" points="1016.7 244.85 1016.7 274.76 1006.68 285.06"/>
        <line class="cls-6" x1="1016.7" y1="274.76" x2="1016.7" y2="317.1"/>
        <g>
          <path class="cls-5" d="M920.4,196.17a4.16,4.16,0,1,0-4.16,4.16A4.16,4.16,0,0,0,920.4,196.17Z"/>
          <path class="cls-5" d="M920.4,211.31a4.16,4.16,0,1,0-4.16,4.16A4.16,4.16,0,0,0,920.4,211.31Z"/>
          <path class="cls-5" d="M920.4,226.52a4.16,4.16,0,1,0-4.16,4.16A4.16,4.16,0,0,0,920.4,226.52Z"/>
          <path class="cls-5" d="M920.4,241.69a4.16,4.16,0,1,0-4.16,4.16A4.16,4.16,0,0,0,920.4,241.69Z"/>
          <path class="cls-5" d="M920.4,256.83a4.16,4.16,0,1,0-4.16,4.16A4.16,4.16,0,0,0,920.4,256.83Z"/>
          <path class="cls-5" d="M920.4,272a4.16,4.16,0,1,0-4.16,4.16A4.16,4.16,0,0,0,920.4,272Z"/>
          <path class="cls-5" d="M920.4,287.15a4.16,4.16,0,1,0-4.16,4.16A4.16,4.16,0,0,0,920.4,287.15Z"/>
          <path class="cls-5" d="M920.4,302.29a4.16,4.16,0,1,0-4.16,4.16A4.16,4.16,0,0,0,920.4,302.29Z"/>
          <path class="cls-5" d="M920.4,317.49a4.16,4.16,0,1,0-4.16,4.16A4.16,4.16,0,0,0,920.4,317.49Z"/>
          <path class="cls-5" d="M920.4,332.67a4.16,4.16,0,1,0-4.16,4.16A4.17,4.17,0,0,0,920.4,332.67Z"/>
        </g>
        <g>
          <line class="cls-6" x1="904.11" y1="196.01" x2="916.11" y2="196.01"/>
          <line class="cls-6" x1="904.11" y1="211.13" x2="916.11" y2="211.13"/>
          <line class="cls-6" x1="904.11" y1="226.25" x2="916.11" y2="226.25"/>
          <line class="cls-6" x1="904.11" y1="241.37" x2="916.11" y2="241.37"/>
          <line class="cls-6" x1="904.11" y1="256.49" x2="916.11" y2="256.49"/>
          <line class="cls-6" x1="904.11" y1="271.61" x2="916.11" y2="271.61"/>
          <line class="cls-6" x1="904.11" y1="286.73" x2="916.11" y2="286.73"/>
          <line class="cls-6" x1="904.11" y1="301.85" x2="916.11" y2="301.85"/>
          <line class="cls-6" x1="904.11" y1="316.97" x2="916.11" y2="316.97"/>
          <line class="cls-6" x1="904.11" y1="332.09" x2="916.11" y2="332.09"/>
        </g>
        <path class="cls-2" d="M971.48,307.33h-7.89v-12.9h-5.9c-.48,0-.37.38-.37.65,0,4.08,0,8.17,0,12.25h-7.9V294.2h-15.7c0-.14-.06-.19-.05-.23.48-2.9,1-5.81,1.46-8.72.06-.44.33-.4.63-.4h4.83c2.21,0,3.27-1.08,3.27-3.32V247.64a3.91,3.91,0,0,0-4-4.2c-1.29-.08-2.59-.07-3.88-.09h-2.36V235h15.75V222.08h7.9q0,6,0,12c0,.48.14.63.62.62,1.36-.05,2.73-.06,4.09-.08h1.48a1.26,1.26,0,0,0,.08-.26l0-12.33h7.89c0,.27,0,.55,0,.82v10.89c0,1.25,0,1.24,1.28,1.38a32,32,0,0,1,10.18,2.51,12.23,12.23,0,0,1,6.68,6.7,16.29,16.29,0,0,1,.95,7.15,11.37,11.37,0,0,1-5.85,9.47l-.83.48.42.19a41.21,41.21,0,0,1,4.05,1.55,11.34,11.34,0,0,1,6.3,7.51,21.06,21.06,0,0,1-.19,10.49,14.46,14.46,0,0,1-4.58,7.7,20,20,0,0,1-9.39,4.22c-2.73.53-5.52.74-8.29,1-.59.07-.77.26-.74.83,0,1,0,2.09,0,3.13Zm-14-22.46c2.44,0,4.75.05,7.06,0a29.17,29.17,0,0,0,9.22-1.52,8.42,8.42,0,0,0,4.7-3.38A7.14,7.14,0,0,0,976,270a17.81,17.81,0,0,0-8.31-2.3c-3.1-.14-6.21-.1-9.31-.18-.68,0-.88.18-.87.87,0,5.22,0,10.43,0,15.65Zm0-33.11q0,3.65,0,7.29c0,.37,0,.64.53.65a42.72,42.72,0,0,0,11.82-1,8.76,8.76,0,0,0,5-3.2,6.92,6.92,0,0,0-1.23-8.85,12,12,0,0,0-6.93-2.5c-2.84-.22-5.7-.17-8.56-.25-.55,0-.63.24-.62.7Q957.49,248.19,957.48,251.76Z"/>
      </g>
      <g>
        <rect class="cls-3" x="1102.77" y="224.14" width="113.82" height="169.13" rx="5.52" ry="5.52"/>
        <polygon class="cls-4" points="1201.3 263.38 1212.02 254.76 1212.02 360.41 1201.3 352.54 1201.3 263.38"/>
        <polygon class="cls-5" points="1211.94 262.02 1206.04 267.25 1206.04 294.3 1212.16 288.18 1212.16 295.3 1206.04 300.61 1206.04 324.3 1211.7 318.58 1211.94 323.77 1205.75 330.69 1205.75 355.39 1201.3 352.61 1201.59 264.4 1211.94 253.94 1211.94 262.02"/>
        <polyline class="cls-6" points="1216.59 251.18 1201.78 263.77 1201.78 352.61 1216.2 363.55"/>
        <polyline class="cls-6" points="1211.94 255.35 1211.94 287.29 1201.92 297.59"/>
        <polyline class="cls-6" points="1211.94 287.48 1211.94 317.39 1201.92 327.69"/>
        <line class="cls-6" x1="1211.94" y1="317.39" x2="1211.94" y2="359.73"/>
        <g>
          <path class="cls-5" d="M1115.65,238.8a4.17,4.17,0,1,0-4.17,4.16A4.17,4.17,0,0,0,1115.65,238.8Z"/>
          <path class="cls-5" d="M1115.65,253.94a4.17,4.17,0,1,0-4.17,4.16A4.17,4.17,0,0,0,1115.65,253.94Z"/>
          <path class="cls-5" d="M1115.65,269.15a4.17,4.17,0,1,0-4.17,4.16A4.17,4.17,0,0,0,1115.65,269.15Z"/>
          <path class="cls-5" d="M1115.65,284.32a4.17,4.17,0,1,0-4.17,4.16A4.17,4.17,0,0,0,1115.65,284.32Z"/>
          <circle class="cls-5" cx="1111.48" cy="299.46" r="4.16"/>
          <path class="cls-5" d="M1115.65,314.66a4.17,4.17,0,1,0-4.17,4.17A4.17,4.17,0,0,0,1115.65,314.66Z"/>
          <path class="cls-5" d="M1115.65,329.77a4.17,4.17,0,1,0-4.17,4.16A4.17,4.17,0,0,0,1115.65,329.77Z"/>
          <path class="cls-5" d="M1115.65,344.92a4.17,4.17,0,1,0-4.17,4.16A4.17,4.17,0,0,0,1115.65,344.92Z"/>
          <path class="cls-5" d="M1115.65,360.12a4.17,4.17,0,1,0-4.17,4.16A4.17,4.17,0,0,0,1115.65,360.12Z"/>
          <path class="cls-5" d="M1115.65,375.29a4.17,4.17,0,1,0-4.17,4.16A4.17,4.17,0,0,0,1115.65,375.29Z"/>
        </g>
        <g>
          <line class="cls-6" x1="1099.35" y1="238.64" x2="1111.35" y2="238.64"/>
          <line class="cls-6" x1="1099.35" y1="253.76" x2="1111.35" y2="253.76"/>
          <line class="cls-6" x1="1099.35" y1="268.88" x2="1111.35" y2="268.88"/>
          <line class="cls-6" x1="1099.35" y1="284" x2="1111.35" y2="284"/>
          <line class="cls-6" x1="1099.35" y1="299.11" x2="1111.35" y2="299.11"/>
          <line class="cls-6" x1="1099.35" y1="314.23" x2="1111.35" y2="314.23"/>
          <line class="cls-6" x1="1099.35" y1="329.35" x2="1111.35" y2="329.35"/>
          <line class="cls-6" x1="1099.35" y1="344.47" x2="1111.35" y2="344.47"/>
          <line class="cls-6" x1="1099.35" y1="359.59" x2="1111.35" y2="359.59"/>
          <line class="cls-6" x1="1099.35" y1="374.71" x2="1111.35" y2="374.71"/>
        </g>
        <path class="cls-2" d="M1166.73,350h-7.9V337.05h-5.9c-.47,0-.37.37-.37.65q0,6.12,0,12.25h-7.9V336.83H1129c0-.14-.06-.19,0-.23.49-2.9,1-5.81,1.46-8.72.07-.44.33-.4.63-.4h4.83c2.22,0,3.28-1.09,3.28-3.32v-33.9a3.92,3.92,0,0,0-3.95-4.2c-1.3-.07-2.59-.06-3.88-.08h-2.36V277.6h15.75V264.71h7.9c0,4,0,8,0,12.05,0,.48.14.63.62.61,1.36,0,2.72-.05,4.08-.07h1.49a2.08,2.08,0,0,0,.08-.27q0-6.15,0-12.32h7.9c0,.27,0,.54,0,.81,0,3.64,0,7.26,0,10.89,0,1.25,0,1.24,1.28,1.38a32.1,32.1,0,0,1,10.18,2.52,12.23,12.23,0,0,1,6.68,6.7,16.14,16.14,0,0,1,.94,7.15,11.36,11.36,0,0,1-5.85,9.47l-.82.47.41.2a39.32,39.32,0,0,1,4,1.54,11.33,11.33,0,0,1,6.3,7.51,21.21,21.21,0,0,1-.18,10.5,14.51,14.51,0,0,1-4.59,7.7,20,20,0,0,1-9.39,4.21c-2.72.54-5.52.75-8.28,1.05-.6.06-.77.26-.75.83,0,1,0,2.09,0,3.13C1166.7,343.83,1166.72,346.89,1166.73,350Zm-14-22.47c2.44,0,4.75.06,7.06,0A29.15,29.15,0,0,0,1169,326a8.49,8.49,0,0,0,4.71-3.38,7.15,7.15,0,0,0-2.51-9.93,17.69,17.69,0,0,0-8.3-2.3c-3.1-.14-6.21-.1-9.31-.18-.69,0-.88.18-.88.87,0,5.22,0,10.43,0,15.65Zm0-33.1c0,2.43,0,4.86,0,7.28,0,.38,0,.65.52.66a43.08,43.08,0,0,0,11.82-1,8.7,8.7,0,0,0,5-3.2,6.92,6.92,0,0,0-1.22-8.85,11.94,11.94,0,0,0-6.93-2.5c-2.84-.22-5.71-.17-8.56-.26-.56,0-.63.25-.63.71C1152.73,289.63,1152.72,292,1152.72,294.39Z"/>
      </g>
      <g>
        <rect class="cls-3" x="1197.57" y="485.02" width="113.82" height="169.13" rx="5.52" ry="5.52"/>
        <polygon class="cls-4" points="1296.1 524.26 1306.82 515.65 1306.82 621.29 1296.1 613.42 1296.1 524.26"/>
        <polygon class="cls-5" points="1306.74 522.91 1300.84 528.14 1300.84 555.18 1306.96 549.07 1306.96 556.19 1300.84 561.5 1300.84 585.19 1306.5 579.47 1306.74 584.66 1300.55 591.58 1300.55 616.28 1296.1 613.5 1296.39 525.29 1306.74 514.83 1306.74 522.91"/>
        <polyline class="cls-6" points="1311.39 512.07 1296.58 524.66 1296.58 613.5 1311 624.43"/>
        <polyline class="cls-6" points="1306.74 516.24 1306.74 548.17 1296.72 558.48"/>
        <polyline class="cls-6" points="1306.74 548.37 1306.74 578.27 1296.72 588.58"/>
        <line class="cls-6" x1="1306.74" y1="578.27" x2="1306.74" y2="620.62"/>
        <g>
          <path class="cls-5" d="M1210.45,499.69a4.17,4.17,0,1,0-4.17,4.16A4.17,4.17,0,0,0,1210.45,499.69Z"/>
          <path class="cls-5" d="M1210.45,514.83a4.17,4.17,0,1,0-4.17,4.16A4.17,4.17,0,0,0,1210.45,514.83Z"/>
          <path class="cls-5" d="M1210.45,530a4.17,4.17,0,1,0-4.17,4.16A4.17,4.17,0,0,0,1210.45,530Z"/>
          <path class="cls-5" d="M1210.45,545.21a4.17,4.17,0,1,0-4.17,4.16A4.17,4.17,0,0,0,1210.45,545.21Z"/>
          <circle class="cls-5" cx="1206.28" cy="560.35" r="4.16"/>
          <path class="cls-5" d="M1210.45,575.55a4.17,4.17,0,1,0-4.17,4.16A4.17,4.17,0,0,0,1210.45,575.55Z"/>
          <path class="cls-5" d="M1210.45,590.66a4.17,4.17,0,1,0-4.17,4.16A4.17,4.17,0,0,0,1210.45,590.66Z"/>
          <path class="cls-5" d="M1210.45,605.8a4.17,4.17,0,1,0-4.17,4.16A4.17,4.17,0,0,0,1210.45,605.8Z"/>
          <circle class="cls-5" cx="1206.28" cy="621.01" r="4.16"/>
          <path class="cls-5" d="M1210.45,636.18a4.17,4.17,0,1,0-4.17,4.16A4.17,4.17,0,0,0,1210.45,636.18Z"/>
        </g>
        <g>
          <line class="cls-6" x1="1194.15" y1="499.52" x2="1206.15" y2="499.52"/>
          <line class="cls-6" x1="1194.15" y1="514.64" x2="1206.15" y2="514.64"/>
          <line class="cls-6" x1="1194.15" y1="529.76" x2="1206.15" y2="529.76"/>
          <line class="cls-6" x1="1194.15" y1="544.88" x2="1206.15" y2="544.88"/>
          <line class="cls-6" x1="1194.15" y1="560" x2="1206.15" y2="560"/>
          <line class="cls-6" x1="1194.15" y1="575.12" x2="1206.15" y2="575.12"/>
          <line class="cls-6" x1="1194.15" y1="590.24" x2="1206.15" y2="590.24"/>
          <line class="cls-6" x1="1194.15" y1="605.36" x2="1206.15" y2="605.36"/>
          <line class="cls-6" x1="1194.15" y1="620.48" x2="1206.15" y2="620.48"/>
          <line class="cls-6" x1="1194.15" y1="635.6" x2="1206.15" y2="635.6"/>
        </g>
        <path class="cls-2" d="M1261.53,610.84h-7.9v-12.9h-5.9c-.47,0-.37.38-.37.66q0,6.12,0,12.24h-7.9V597.71h-15.71c0-.14-.06-.18,0-.22.49-2.91,1-5.81,1.46-8.72.07-.44.33-.41.63-.41h4.83c2.22,0,3.28-1.08,3.28-3.31v-33.9a3.92,3.92,0,0,0-4-4.2c-1.3-.07-2.59-.07-3.88-.08h-2.36v-8.37h15.75V525.6h7.9c0,4,0,8,0,12,0,.47.14.63.62.61,1.36,0,2.72,0,4.08-.07.51,0,1,0,1.49,0a2.73,2.73,0,0,0,.08-.27q0-6.17,0-12.32h7.9c0,.27,0,.54,0,.81,0,3.63,0,7.26,0,10.89,0,1.25,0,1.24,1.28,1.38A31.84,31.84,0,0,1,1273,541.2a12.2,12.2,0,0,1,6.68,6.7,16.14,16.14,0,0,1,.94,7.15,11.36,11.36,0,0,1-5.85,9.47l-.82.47c.22.1.31.16.41.19a39.37,39.37,0,0,1,4,1.55,11.31,11.31,0,0,1,6.3,7.51,21.21,21.21,0,0,1-.18,10.5,14.51,14.51,0,0,1-4.59,7.7,20,20,0,0,1-9.39,4.21c-2.72.53-5.52.75-8.28,1.05-.6.06-.77.25-.75.83,0,1,0,2.09,0,3.13C1261.5,604.72,1261.52,607.78,1261.53,610.84Zm-14-22.46c2.44,0,4.75,0,7.06,0a29.16,29.16,0,0,0,9.21-1.53,8.43,8.43,0,0,0,4.71-3.37,7.15,7.15,0,0,0-2.51-9.93,17.69,17.69,0,0,0-8.3-2.3c-3.1-.14-6.21-.1-9.31-.18-.69,0-.88.18-.88.87,0,5.21,0,10.43,0,15.64Zm0-33.1c0,2.43,0,4.86,0,7.28,0,.38,0,.64.52.65a42.31,42.31,0,0,0,11.82-1,8.7,8.7,0,0,0,5-3.2,6.92,6.92,0,0,0-1.23-8.84,11.94,11.94,0,0,0-6.93-2.5c-2.84-.23-5.71-.17-8.56-.26-.56,0-.63.25-.63.7C1247.53,550.51,1247.52,552.9,1247.52,555.28Z"/>
      </g>
      <g>
        <rect class="cls-3" x="1008.98" y="566.45" width="113.81" height="169.13" rx="5.52" ry="5.52"/>
        <polygon class="cls-4" points="1107.5 605.69 1118.22 597.07 1118.22 702.72 1107.5 694.85 1107.5 605.69"/>
        <polygon class="cls-5" points="1118.15 604.34 1112.25 609.57 1112.25 636.61 1118.37 630.49 1118.37 637.61 1112.25 642.92 1112.25 666.61 1117.9 660.89 1118.15 666.09 1111.95 673 1111.95 697.71 1107.5 694.93 1107.79 606.72 1118.15 596.25 1118.15 604.34"/>
        <polyline class="cls-6" points="1122.8 593.49 1107.99 606.08 1107.99 694.93 1122.4 705.86"/>
        <polyline class="cls-6" points="1118.15 597.66 1118.15 629.6 1108.13 639.91"/>
        <polyline class="cls-6" points="1118.15 629.79 1118.15 659.7 1108.13 670.01"/>
        <line class="cls-6" x1="1118.15" y1="659.7" x2="1118.15" y2="702.04"/>
        <g>
          <path class="cls-5" d="M1021.85,581.11a4.16,4.16,0,1,0-4.16,4.16A4.16,4.16,0,0,0,1021.85,581.11Z"/>
          <path class="cls-5" d="M1021.85,596.25a4.16,4.16,0,1,0-4.16,4.17A4.16,4.16,0,0,0,1021.85,596.25Z"/>
          <path class="cls-5" d="M1021.85,611.46a4.16,4.16,0,1,0-4.16,4.16A4.16,4.16,0,0,0,1021.85,611.46Z"/>
          <path class="cls-5" d="M1021.85,626.63a4.16,4.16,0,1,0-4.16,4.16A4.16,4.16,0,0,0,1021.85,626.63Z"/>
          <path class="cls-5" d="M1021.85,641.77a4.16,4.16,0,1,0-4.16,4.16A4.16,4.16,0,0,0,1021.85,641.77Z"/>
          <path class="cls-5" d="M1021.85,657a4.16,4.16,0,1,0-4.16,4.16A4.16,4.16,0,0,0,1021.85,657Z"/>
          <path class="cls-5" d="M1021.85,672.09a4.16,4.16,0,1,0-4.16,4.16A4.16,4.16,0,0,0,1021.85,672.09Z"/>
          <path class="cls-5" d="M1021.85,687.23a4.16,4.16,0,1,0-4.16,4.16A4.16,4.16,0,0,0,1021.85,687.23Z"/>
          <path class="cls-5" d="M1021.85,702.43a4.16,4.16,0,1,0-4.16,4.16A4.16,4.16,0,0,0,1021.85,702.43Z"/>
          <path class="cls-5" d="M1021.85,717.61a4.16,4.16,0,1,0-4.16,4.16A4.16,4.16,0,0,0,1021.85,717.61Z"/>
        </g>
        <g>
          <line class="cls-6" x1="1005.56" y1="580.95" x2="1017.56" y2="580.95"/>
          <line class="cls-6" x1="1005.56" y1="596.07" x2="1017.56" y2="596.07"/>
          <line class="cls-6" x1="1005.56" y1="611.19" x2="1017.56" y2="611.19"/>
          <line class="cls-6" x1="1005.56" y1="626.31" x2="1017.56" y2="626.31"/>
          <line class="cls-6" x1="1005.56" y1="641.43" x2="1017.56" y2="641.43"/>
          <line class="cls-6" x1="1005.56" y1="656.55" x2="1017.56" y2="656.55"/>
          <line class="cls-6" x1="1005.56" y1="671.67" x2="1017.56" y2="671.67"/>
          <line class="cls-6" x1="1005.56" y1="686.79" x2="1017.56" y2="686.79"/>
          <line class="cls-6" x1="1005.56" y1="701.91" x2="1017.56" y2="701.91"/>
          <line class="cls-6" x1="1005.56" y1="717.03" x2="1017.56" y2="717.03"/>
        </g>
        <path class="cls-2" d="M1072.94,692.27H1065v-12.9h-5.9c-.47,0-.37.38-.37.65v12.25h-7.89V679.14h-15.71c0-.14-.06-.19-.05-.23.49-2.9,1-5.81,1.46-8.72.07-.43.33-.4.63-.4H1042c2.22,0,3.28-1.08,3.28-3.32V632.58a3.92,3.92,0,0,0-4-4.2c-1.29-.08-2.58-.07-3.88-.09h-2.35v-8.38h15.75V607h7.89q0,6,0,12.05c0,.48.15.64.63.62,1.36-.05,2.72-.06,4.08-.07H1065c0-.19.08-.23.08-.27q0-6.17,0-12.33h7.9c0,.27,0,.55,0,.82v10.89c0,1.25,0,1.24,1.29,1.38a32,32,0,0,1,10.17,2.51,12.17,12.17,0,0,1,6.68,6.7,16,16,0,0,1,1,7.15,11.37,11.37,0,0,1-5.85,9.47c-.24.15-.49.28-.83.48l.42.19a40.27,40.27,0,0,1,4,1.55,11.31,11.31,0,0,1,6.3,7.51,21.17,21.17,0,0,1-.18,10.49,14.48,14.48,0,0,1-4.59,7.7,20,20,0,0,1-9.39,4.22c-2.72.53-5.52.74-8.29,1-.59.07-.76.26-.74.83,0,1,0,2.09,0,3.13C1072.91,686.14,1072.93,689.21,1072.94,692.27Zm-14-22.46c2.44,0,4.75.05,7.06,0a29.15,29.15,0,0,0,9.21-1.52,8.42,8.42,0,0,0,4.7-3.38,7.14,7.14,0,0,0-2.5-9.93,17.81,17.81,0,0,0-8.31-2.3c-3.1-.14-6.2-.1-9.31-.18-.68,0-.87.18-.87.87,0,5.22,0,10.43,0,15.65Zm0-33.1q0,3.63,0,7.28c0,.37,0,.64.53.65a42.72,42.72,0,0,0,11.82-1,8.73,8.73,0,0,0,5-3.2,6.92,6.92,0,0,0-1.22-8.85,12,12,0,0,0-6.94-2.5c-2.84-.22-5.7-.16-8.56-.25-.55,0-.62.24-.62.7Q1058.94,633.13,1058.93,636.71Z"/>
      </g>
      <g>
        <rect class="cls-3" x="793.56" y="559" width="113.82" height="169.13" rx="5.52" ry="5.52"/>
        <polygon class="cls-4" points="892.08 598.24 902.8 589.63 902.8 695.27 892.08 687.4 892.08 598.24"/>
        <polygon class="cls-5" points="902.73 596.89 896.82 602.12 896.82 629.16 902.94 623.04 902.94 630.16 896.82 635.48 896.82 659.17 902.48 653.45 902.73 658.64 896.53 665.55 896.53 690.26 892.08 687.48 892.37 599.27 902.73 588.81 902.73 596.89"/>
        <polyline class="cls-6" points="907.37 586.05 892.57 598.63 892.57 687.48 906.98 698.41"/>
        <polyline class="cls-6" points="902.73 590.22 902.73 622.15 892.71 632.46"/>
        <polyline class="cls-6" points="902.73 622.35 902.73 652.25 892.71 662.56"/>
        <line class="cls-6" x1="902.73" y1="652.25" x2="902.73" y2="694.59"/>
        <g>
          <path class="cls-5" d="M806.43,573.67a4.16,4.16,0,1,0-4.16,4.16A4.17,4.17,0,0,0,806.43,573.67Z"/>
          <path class="cls-5" d="M806.43,588.81a4.16,4.16,0,1,0-4.16,4.16A4.17,4.17,0,0,0,806.43,588.81Z"/>
          <circle class="cls-5" cx="802.27" cy="604.01" r="4.16"/>
          <path class="cls-5" d="M806.43,619.18a4.16,4.16,0,1,0-4.16,4.17A4.16,4.16,0,0,0,806.43,619.18Z"/>
          <circle class="cls-5" cx="802.27" cy="634.33" r="4.16"/>
          <path class="cls-5" d="M806.43,649.53a4.16,4.16,0,1,0-4.16,4.16A4.16,4.16,0,0,0,806.43,649.53Z"/>
          <path class="cls-5" d="M806.43,664.64a4.16,4.16,0,1,0-4.16,4.16A4.16,4.16,0,0,0,806.43,664.64Z"/>
          <path class="cls-5" d="M806.43,679.78a4.16,4.16,0,1,0-4.16,4.16A4.16,4.16,0,0,0,806.43,679.78Z"/>
          <path class="cls-5" d="M806.43,695a4.16,4.16,0,1,0-4.16,4.16A4.17,4.17,0,0,0,806.43,695Z"/>
          <path class="cls-5" d="M806.43,710.16a4.16,4.16,0,1,0-4.16,4.16A4.16,4.16,0,0,0,806.43,710.16Z"/>
        </g>
        <g>
          <line class="cls-6" x1="790.14" y1="573.5" x2="802.14" y2="573.5"/>
          <line class="cls-6" x1="790.14" y1="588.62" x2="802.14" y2="588.62"/>
          <line class="cls-6" x1="790.14" y1="603.74" x2="802.14" y2="603.74"/>
          <line class="cls-6" x1="790.14" y1="618.86" x2="802.14" y2="618.86"/>
          <line class="cls-6" x1="790.14" y1="633.98" x2="802.14" y2="633.98"/>
          <line class="cls-6" x1="790.14" y1="649.1" x2="802.14" y2="649.1"/>
          <line class="cls-6" x1="790.14" y1="664.22" x2="802.14" y2="664.22"/>
          <line class="cls-6" x1="790.14" y1="679.34" x2="802.14" y2="679.34"/>
          <line class="cls-6" x1="790.14" y1="694.46" x2="802.14" y2="694.46"/>
          <line class="cls-6" x1="790.14" y1="709.58" x2="802.14" y2="709.58"/>
        </g>
        <path class="cls-2" d="M857.51,684.82h-7.89v-12.9h-5.91c-.47,0-.36.38-.36.65,0,4.09,0,8.17,0,12.25h-7.9V671.69h-15.7c0-.14-.06-.18,0-.22.48-2.91,1-5.81,1.45-8.72.07-.44.34-.41.64-.41h4.83c2.21,0,3.27-1.08,3.27-3.32V625.13a3.92,3.92,0,0,0-3.95-4.2c-1.29-.07-2.59-.07-3.88-.09H819.7v-8.38h15.75V599.58h7.9q0,6,0,12c0,.47.14.63.62.61,1.36,0,2.73,0,4.09-.07h1.48a1.45,1.45,0,0,0,.08-.27q0-6.17,0-12.32h7.89c0,.27,0,.54,0,.81v10.89c0,1.25,0,1.24,1.28,1.38a31.71,31.71,0,0,1,10.18,2.52,12.18,12.18,0,0,1,6.68,6.69,16.32,16.32,0,0,1,1,7.16,11.39,11.39,0,0,1-5.85,9.47l-.83.47c.22.1.32.16.42.19a41.21,41.21,0,0,1,4.05,1.55,11.32,11.32,0,0,1,6.29,7.51,21,21,0,0,1-.18,10.5,14.5,14.5,0,0,1-4.58,7.7,20,20,0,0,1-9.39,4.21c-2.73.53-5.52.75-8.29,1-.59.06-.77.25-.75.83,0,1,0,2.08,0,3.13Zm-14-22.46c2.44,0,4.75,0,7.06,0a28.89,28.89,0,0,0,9.22-1.52,8.45,8.45,0,0,0,4.7-3.37,7.15,7.15,0,0,0-2.5-9.94,17.8,17.8,0,0,0-8.31-2.29c-3.1-.14-6.21-.1-9.31-.18-.68,0-.88.17-.87.87,0,5.21,0,10.43,0,15.64Zm0-33.1c0,2.43,0,4.85,0,7.28,0,.38,0,.64.53.65a42.35,42.35,0,0,0,11.82-1,8.76,8.76,0,0,0,5-3.2,6.91,6.91,0,0,0-1.23-8.84,11.85,11.85,0,0,0-6.93-2.5c-2.84-.23-5.71-.17-8.56-.26-.55,0-.63.25-.62.7C843.51,624.49,843.51,626.88,843.51,629.26Z"/>
      </g>
      <g>
        <path class="cls-3" d="M704.22,224.14H807a5.51,5.51,0,0,1,5.51,5.51V387.75a5.52,5.52,0,0,1-5.52,5.52H704.22a5.52,5.52,0,0,1-5.52-5.52V229.65A5.52,5.52,0,0,1,704.22,224.14Z"/>
        <polygon class="cls-4" points="797.22 263.38 807.94 254.76 807.94 360.41 797.22 352.54 797.22 263.38"/>
        <polygon class="cls-5" points="807.87 262.02 801.96 267.25 801.96 294.3 808.08 288.18 808.08 295.3 801.96 300.61 801.96 324.3 807.62 318.58 807.87 323.77 801.67 330.69 801.67 355.39 797.22 352.61 797.51 264.4 807.87 253.94 807.87 262.02"/>
        <polyline class="cls-6" points="812.51 251.18 797.71 263.77 797.71 352.61 812.12 363.55"/>
        <polyline class="cls-6" points="807.87 255.35 807.87 287.29 797.85 297.59"/>
        <polyline class="cls-6" points="807.87 287.48 807.87 317.39 797.85 327.69"/>
        <line class="cls-6" x1="807.87" y1="317.39" x2="807.87" y2="359.73"/>
        <g>
          <path class="cls-5" d="M711.57,238.8a4.16,4.16,0,1,0-4.16,4.16A4.16,4.16,0,0,0,711.57,238.8Z"/>
          <path class="cls-5" d="M711.57,253.94a4.16,4.16,0,1,0-4.16,4.16A4.16,4.16,0,0,0,711.57,253.94Z"/>
          <path class="cls-5" d="M711.57,269.15a4.16,4.16,0,1,0-4.16,4.16A4.17,4.17,0,0,0,711.57,269.15Z"/>
          <path class="cls-5" d="M711.57,284.32a4.16,4.16,0,1,0-4.16,4.16A4.16,4.16,0,0,0,711.57,284.32Z"/>
          <path class="cls-5" d="M711.57,299.46a4.16,4.16,0,1,0-4.16,4.16A4.16,4.16,0,0,0,711.57,299.46Z"/>
          <path class="cls-5" d="M711.57,314.66a4.16,4.16,0,1,0-4.16,4.17A4.16,4.16,0,0,0,711.57,314.66Z"/>
          <path class="cls-5" d="M711.57,329.77a4.16,4.16,0,1,0-4.16,4.16A4.16,4.16,0,0,0,711.57,329.77Z"/>
          <path class="cls-5" d="M711.57,344.92a4.16,4.16,0,1,0-4.16,4.16A4.17,4.17,0,0,0,711.57,344.92Z"/>
          <path class="cls-5" d="M711.57,360.12a4.16,4.16,0,1,0-4.16,4.16A4.16,4.16,0,0,0,711.57,360.12Z"/>
          <path class="cls-5" d="M711.57,375.29a4.16,4.16,0,1,0-4.16,4.16A4.16,4.16,0,0,0,711.57,375.29Z"/>
        </g>
        <g>
          <line class="cls-6" x1="695.28" y1="238.64" x2="707.28" y2="238.64"/>
          <line class="cls-6" x1="695.28" y1="253.76" x2="707.28" y2="253.76"/>
          <line class="cls-6" x1="695.28" y1="268.88" x2="707.28" y2="268.88"/>
          <line class="cls-6" x1="695.28" y1="284" x2="707.28" y2="284"/>
          <line class="cls-6" x1="695.28" y1="299.11" x2="707.28" y2="299.11"/>
          <line class="cls-6" x1="695.28" y1="314.23" x2="707.28" y2="314.23"/>
          <line class="cls-6" x1="695.28" y1="329.35" x2="707.28" y2="329.35"/>
          <line class="cls-6" x1="695.28" y1="344.47" x2="707.28" y2="344.47"/>
          <line class="cls-6" x1="695.28" y1="359.59" x2="707.28" y2="359.59"/>
          <line class="cls-6" x1="695.28" y1="374.71" x2="707.28" y2="374.71"/>
        </g>
        <path class="cls-2" d="M762.65,350h-7.89V337.05h-5.9c-.47,0-.37.37-.37.65,0,4.08,0,8.16,0,12.25H740.6V336.83H724.89c0-.14-.06-.19,0-.23.48-2.9,1-5.81,1.46-8.72.07-.44.33-.4.63-.4h4.83c2.22,0,3.28-1.09,3.28-3.32v-33.9a3.92,3.92,0,0,0-4-4.2c-1.29-.07-2.58-.06-3.88-.08h-2.36V277.6H740.6V264.71h7.89q0,6,0,12.05c0,.48.15.63.63.61,1.36,0,2.72-.05,4.08-.07h1.48a1.47,1.47,0,0,0,.09-.27V264.71h7.89c0,.27,0,.54,0,.81v10.89c0,1.25,0,1.24,1.28,1.38a32,32,0,0,1,10.18,2.52,12.17,12.17,0,0,1,6.68,6.7,16.29,16.29,0,0,1,1,7.15,11.39,11.39,0,0,1-5.85,9.47l-.83.47.42.2a40.21,40.21,0,0,1,4,1.54,11.38,11.38,0,0,1,6.3,7.51,21.1,21.1,0,0,1-.19,10.5,14.44,14.44,0,0,1-4.58,7.7,20,20,0,0,1-9.39,4.21c-2.72.54-5.52.75-8.29,1.05-.59.06-.77.26-.74.83,0,1,0,2.09,0,3.13Zm-14-22.47c2.43,0,4.75.06,7.06,0a29.15,29.15,0,0,0,9.21-1.52,8.47,8.47,0,0,0,4.7-3.38,7.14,7.14,0,0,0-2.5-9.93,17.7,17.7,0,0,0-8.31-2.3c-3.1-.14-6.2-.1-9.31-.18-.68,0-.87.18-.87.87,0,5.22,0,10.43,0,15.65Zm0-33.1q0,3.64,0,7.28c0,.38,0,.65.53.66a43.11,43.11,0,0,0,11.82-1,8.73,8.73,0,0,0,5-3.2,6.92,6.92,0,0,0-1.22-8.85,12,12,0,0,0-6.94-2.5c-2.84-.22-5.7-.17-8.56-.26-.55,0-.63.25-.62.71Q748.66,290.82,748.65,294.39Z"/>
      </g>
      <g>
        <polyline class="Graphic-Style-8" points="826.85 327.93 857.62 327.93 864.6 334.9 890.52 334.9"/>
        <line class="Graphic-Style-8" x1="830.74" y1="338.09" x2="842.41" y2="338.09"/>
        <polyline class="Graphic-Style-8" points="830.74 365.7 864.37 365.7 884.78 386.11"/>
        <polyline class="Graphic-Style-8" points="826.85 374.02 858.69 374.02 879.22 394.56 1057.75 394.56 1071.3 381.01 1086.24 381.01"/>
        <line class="Graphic-Style-8" x1="1030.19" y1="320.95" x2="1086.24" y2="320.95"/>
        <polyline class="Graphic-Style-8" points="1026.45 312.54 1052.61 312.54 1061.43 303.71 1090.45 303.71"/>
        <line class="Graphic-Style-8" x1="1064.18" y1="312.79" x2="1084.38" y2="312.79"/>
        <line class="Graphic-Style-8" x1="918.69" y1="365.7" x2="918.69" y2="383.73"/>
        <line class="Graphic-Style-8" x1="914.53" y1="401" x2="900.89" y2="414.64"/>
        <line class="Graphic-Style-8" x1="884.78" y1="429.96" x2="838.72" y2="476.02"/>
        <polyline class="Graphic-Style-8" points="810.44 501.61 777.62 534.43 777.62 542.97 760.94 542.97 741.41 562.5 733.11 562.5"/>
        <polyline class="Graphic-Style-8" points="882.59 410.35 907.32 435.08 923.22 435.08 1043.94 555.8"/>
        <line class="Graphic-Style-8" x1="956.55" y1="368.33" x2="956.55" y2="385.03"/>
        <line class="Graphic-Style-8" x1="956.55" y1="401" x2="956.55" y2="459.34"/>
        <polyline class="Graphic-Style-8" points="956.55 476.02 956.55 483.07 1030.89 557.41"/>
        <polyline class="Graphic-Style-8" points="968.07 368.75 968.07 465.46 1031.27 528.66 1125.48 528.66 1146.15 549.34 1187.14 549.34"/>
        <line class="Graphic-Style-8" x1="928.83" y1="549.34" x2="967.31" y2="510.86"/>
        <polyline class="Graphic-Style-8" points="997.96 479.94 1016.15 461.76 1084.38 461.76 1120.96 425.17 1120.96 410.35"/>
        <polyline class="Graphic-Style-8" points="1132.02 410.35 1132.02 432.77 1093.4 471.39 1093.4 518.12"/>
        <line class="Graphic-Style-8" x1="1093.4" y1="535.12" x2="1093.4" y2="553.95"/>
        <polyline class="Graphic-Style-8" points="1143.23 410.35 1143.23 459.34 1157.97 474.08"/>
        <polyline class="Graphic-Style-8" points="1153.3 410.35 1153.3 452.99 1172.02 471.71 1172.02 487.66 1185.02 500.67"/>
        <polyline class="Graphic-Style-8" points="928.83 365.7 928.83 403 909.84 421.99"/>
        <line class="Graphic-Style-8" x1="894.26" y1="439.77" x2="837.65" y2="496.38"/>
        <polyline class="Graphic-Style-8" points="788.7 407.82 788.7 459.05 819.79 490.14 819.79 508.43 832.87 521.51 832.87 544.53"/>
        <polyline class="Graphic-Style-8" points="774.68 407.82 774.68 456.12 759.36 471.44"/>
        <polyline class="Graphic-Style-8" points="760.94 406.14 760.94 446.78 745.02 462.7 745.02 490.69 725.67 510.04"/>
        <line class="Graphic-Style-8" x1="1132.02" y1="613.77" x2="1185.02" y2="613.77"/>
        <polyline class="Graphic-Style-8" points="1128.28 625.92 1158.52 625.92 1170.42 637.82 1190.88 637.82"/>
        <polyline class="Graphic-Style-8" points="991.89 626.92 956.55 626.92 941.84 641.63 923.22 641.63"/>
        <line class="Graphic-Style-8" x1="923.22" y1="619.06" x2="940.97" y2="619.06"/>
        <line class="Graphic-Style-8" x1="957.55" y1="639.08" x2="991.89" y2="639.08"/>
        <polyline class="Graphic-Style-8" points="720.97 621.79 748.99 621.79 754.77 627.57 784.73 627.57"/>
        <line class="Graphic-Style-8" x1="723.07" y1="611.98" x2="784.72" y2="611.98"/>
        <line class="Graphic-Style-8" x1="728.67" y1="630.9" x2="744.44" y2="630.9"/>
      </g>
    </g>
    <g>
      <g>
        <g>
          <path class="cls-7" d="M585.6,248.28s-9.45-14.17-22.83-14.17H521.05l13.38,13.38h35.43"/>
          <polyline class="cls-7" points="557.26 255.36 551.75 260.09 521.84 260.09 502.56 240.8"/>
          <path class="cls-7" d="M499.8,231H485.63s-5.51,8.66,1.58,15H499.8"/>
          <path class="cls-7" d="M553.33,240.41Z"/>
          <path class="cls-7" d="M547.42,240.41Z"/>
          <path class="cls-7" d="M540.73,240.41Z"/>
          <line class="cls-7" x1="462.8" y1="238.57" x2="404.03" y2="238.57"/>
          <line class="cls-7" x1="475.4" y1="245.92" x2="450.21" y2="245.92"/>
        </g>
        <g>
          <g>
            <path class="Graphic-Style-8" d="M585.6,248.28s-9.45-14.17-22.83-14.17H521.05l13.38,13.38h35.43"/>
            <path class="Graphic-Style-8" d="M585.6,248.28s-9.45-14.17-22.83-14.17H521.05l13.38,13.38h35.43"/>
          </g>
          <g>
            <polyline class="Graphic-Style-8" points="557.26 255.36 551.75 260.09 521.84 260.09 502.56 240.8"/>
            <polyline class="Graphic-Style-8" points="557.26 255.36 551.75 260.09 521.84 260.09 502.56 240.8"/>
          </g>
          <g>
            <path class="Graphic-Style-8" d="M499.8,231H485.63s-5.51,8.66,1.58,15H499.8"/>
            <path class="Graphic-Style-8" d="M499.8,231H485.63s-5.51,8.66,1.58,15H499.8"/>
          </g>
          <g>
            <path class="Graphic-Style-8" d="M553.33,240.41Z"/>
            <path class="Graphic-Style-8" d="M553.33,240.41Z"/>
          </g>
          <g>
            <path class="Graphic-Style-8" d="M547.42,240.41Z"/>
            <path class="Graphic-Style-8" d="M547.42,240.41Z"/>
          </g>
          <g>
            <path class="Graphic-Style-8" d="M540.73,240.41Z"/>
            <path class="Graphic-Style-8" d="M540.73,240.41Z"/>
          </g>
          <g>
            <line class="Graphic-Style-8" x1="462.8" y1="238.57" x2="404.03" y2="238.57"/>
            <line class="Graphic-Style-8" x1="462.8" y1="238.57" x2="404.03" y2="238.57"/>
          </g>
          <g>
            <line class="Graphic-Style-8" x1="475.4" y1="245.92" x2="450.21" y2="245.92"/>
            <line class="Graphic-Style-8" x1="475.4" y1="245.92" x2="450.21" y2="245.92"/>
          </g>
        </g>
      </g>
      <g>
        <g>
          <path class="cls-7" d="M1030.88,108.46s9.44-14.17,22.82-14.17h41.72L1082,107.67h-35.42"/>
          <polyline class="cls-7" points="1059.21 115.55 1064.72 120.27 1094.64 120.27 1113.92 100.98"/>
          <path class="cls-7" d="M1116.68,91.14h14.17s5.51,8.66-1.58,15h-12.59"/>
          <path class="cls-7" d="M1063.15,100.59Z"/>
          <path class="cls-7" d="M1069.05,100.59Z"/>
          <path class="cls-7" d="M1075.74,100.59Z"/>
          <line class="cls-7" x1="1153.67" y1="98.75" x2="1212.45" y2="98.75"/>
          <line class="cls-7" x1="1141.08" y1="106.1" x2="1166.27" y2="106.1"/>
        </g>
        <g>
          <g>
            <path class="Graphic-Style-8" d="M1030.88,108.46s9.44-14.17,22.82-14.17h41.72L1082,107.67h-35.42"/>
            <path class="Graphic-Style-8" d="M1030.88,108.46s9.44-14.17,22.82-14.17h41.72L1082,107.67h-35.42"/>
          </g>
          <g>
            <polyline class="Graphic-Style-8" points="1059.21 115.55 1064.72 120.27 1094.64 120.27 1113.92 100.98"/>
            <polyline class="Graphic-Style-8" points="1059.21 115.55 1064.72 120.27 1094.64 120.27 1113.92 100.98"/>
          </g>
          <g>
            <path class="Graphic-Style-8" d="M1116.68,91.14h14.17s5.51,8.66-1.58,15h-12.59"/>
            <path class="Graphic-Style-8" d="M1116.68,91.14h14.17s5.51,8.66-1.58,15h-12.59"/>
          </g>
          <g>
            <path class="Graphic-Style-8" d="M1063.15,100.59Z"/>
            <path class="Graphic-Style-8" d="M1063.15,100.59Z"/>
          </g>
          <g>
            <path class="Graphic-Style-8" d="M1069.05,100.59Z"/>
            <path class="Graphic-Style-8" d="M1069.05,100.59Z"/>
          </g>
          <g>
            <path class="Graphic-Style-8" d="M1075.74,100.59Z"/>
            <path class="Graphic-Style-8" d="M1075.74,100.59Z"/>
          </g>
          <g>
            <line class="Graphic-Style-8" x1="1153.67" y1="98.75" x2="1212.45" y2="98.75"/>
            <line class="Graphic-Style-8" x1="1153.67" y1="98.75" x2="1212.45" y2="98.75"/>
          </g>
          <g>
            <line class="Graphic-Style-8" x1="1141.08" y1="106.1" x2="1166.27" y2="106.1"/>
            <line class="Graphic-Style-8" x1="1141.08" y1="106.1" x2="1166.27" y2="106.1"/>
          </g>
        </g>
      </g>
    </g>
    <g>
      <g>
        <path class="cls-5" d="M206.48,517.13a4.62,4.62,0,0,1-4.48,5.74H142.9a4.08,4.08,0,0,1-4-5.2l11.19-38.79H197Z"/>
        <path class="cls-8" d="M206.48,517.13a4.62,4.62,0,0,1-4.48,5.74H142.9a4.08,4.08,0,0,1-4-5.2l11.19-38.79H197Z"/>
        <path class="cls-5" d="M183.37,489.79H163.53c-20.74,0-28.45-16.81-28.45-37.54V311.78a37.55,37.55,0,0,1,37.54-37.55h0a37.55,37.55,0,0,1,37.54,37.55V452.25C210.16,473,204.1,489.79,183.37,489.79Z"/>
        <path class="cls-8" d="M183.37,489.79H163.53c-20.74,0-28.45-16.81-28.45-37.54V311.78a37.55,37.55,0,0,1,37.54-37.55h0a37.55,37.55,0,0,1,37.54,37.55V452.25C210.16,473,204.1,489.79,183.37,489.79Z"/>
      </g>
      <g>
        <path class="cls-4" d="M317.68,579.7V791h10.39a21,21,0,0,1,21,21v9.85H171.87V791h0V521.69l-1.9-4.55a10,10,0,0,1-.76-3.81V451.44l-4-7.24a36.4,36.4,0,0,1-4.52-17.55V333.56a50.3,50.3,0,0,1,50.3-50.3h93.66a50.29,50.29,0,0,1,50.3,50.3V517.44H348v36.72a25.55,25.55,0,0,1-25.55,25.54Z"/>
        <path class="cls-9" d="M251.69,283.26H211a50.3,50.3,0,0,0-50.3,50.3v93.09a36.4,36.4,0,0,0,4.52,17.55l4,7.24v61.89a9.88,9.88,0,0,0,.76,3.8l1.9,4.57V791H317.68V517.44h37.25V333.56a50.29,50.29,0,0,0-50.29-50.3Z"/>
        <path class="cls-6" d="M317.68,579.71h4.79A25.55,25.55,0,0,0,348,554.16V517.44H317.68Z"/>
        <polyline class="cls-6" points="324.6 356.71 324.6 515.81 169.19 515.81"/>
        <path class="cls-10" d="M311.34,469a8,8,0,0,1-9.94,5.4l-43.92-13a8,8,0,0,1-5.4-9.95L279.75,358a8,8,0,0,1,9.94-5.4l43.91,13a8,8,0,0,1,5.4,9.94Z"/>
        <path class="cls-4" d="M297.2,426.14l-4.32-1.28,2.09-7.07-3.23-1c-.25-.07-.26.15-.31.3l-2,6.7-4.32-1.28c.71-2.38,1.41-4.75,2.13-7.18l-8.59-2.55a.35.35,0,0,1,0-.13q1.11-2.26,2.21-4.54c.11-.23.25-.17.41-.12l2.64.79a1.65,1.65,0,0,0,2.33-1.29L291.76,389a2.23,2.23,0,0,0-1.48-2.94c-.7-.25-1.4-.46-2.11-.68l-1.29-.38,1.36-4.59,8.61,2.55,2.09-7.05,4.32,1.28q-1,3.3-2,6.59c-.08.26,0,.37.24.44.75.19,1.5.41,2.25.62l.81.24c.06-.09.08-.11.08-.13l2-6.75,4.32,1.28c-.05.15-.11.29-.15.44l-1.77,6c-.2.68-.2.67.48,1a17.88,17.88,0,0,1,5.16,3,6.92,6.92,0,0,1,2.57,4.75,9.25,9.25,0,0,1-.64,4.06,6.48,6.48,0,0,1-4.73,4.24l-.53.12a1.81,1.81,0,0,0,.19.17,24.43,24.43,0,0,1,2,1.51,6.47,6.47,0,0,1,2.23,5.13,12,12,0,0,1-1.81,5.71,8.26,8.26,0,0,1-3.75,3.48,11.37,11.37,0,0,1-5.82.78c-1.57-.15-3.14-.48-4.7-.77-.33-.06-.46,0-.54.34-.15.57-.33,1.14-.5,1.71Zm-4-14.57c1.34.4,2.59.8,3.87,1.14a16.89,16.89,0,0,0,5.29.66,4.86,4.86,0,0,0,3.12-1.09,4.08,4.08,0,0,0,.23-5.84,10.05,10.05,0,0,0-4.17-2.6c-1.67-.59-3.38-1.07-5.06-1.61-.37-.12-.51-.05-.62.33-.83,2.86-1.68,5.72-2.52,8.57C293.27,411.26,293.23,411.4,293.17,411.57Zm5.37-18.12c-.39,1.33-.79,2.66-1.18,4-.07.2-.1.35.18.44a24.17,24.17,0,0,0,6.62,1.37,4.92,4.92,0,0,0,3.25-.94,3.92,3.92,0,0,0,.76-5,6.79,6.79,0,0,0-3.38-2.5c-1.52-.58-3.1-1-4.64-1.53-.3-.09-.39,0-.46.29C299.31,390.85,298.92,392.15,298.54,393.45Z"/>
        <path class="cls-3" d="M248.7,430.69l30-15.84a11.49,11.49,0,0,1,16.38,6.84l5.2,17.16a11.5,11.5,0,0,1-9.54,14.74l-42,5.44"/>
        <line class="cls-6" x1="252.75" y1="556.82" x2="252.75" y2="791"/>
        <path class="cls-6" d="M209.19,375.2v34.33A14.77,14.77,0,0,0,224,424.3H248.7V463H188c-8.05,0-15.94-6.82-18.68-12.34"/>
        <path class="cls-11" d="M283.35,268.36c-13,8-22.89,8.52-36.45,0"/>
        <path class="cls-11" d="M273.77,243.08a11.71,11.71,0,1,1,23.42,0"/>
        <path class="cls-11" d="M235.18,243.08a11.72,11.72,0,0,1,23.43,0"/>
        <path class="cls-9" d="M349.09,812v9.85H267.14V812a21,21,0,0,0-13.31-19.56V791h74.24A21,21,0,0,1,349.09,812Z"/>
        <path class="cls-9" d="M171.87,791h74.24a21,21,0,0,1,21,21v9.85H171.87Z"/>
      </g>
      <polygon class="cls-5" points="277.31 788.99 254.75 788.99 254.75 554.82 277.31 567.82 277.31 788.99"/>
      <g>
        <path class="cls-9" d="M173,194.71c0-42.11,29.85-71.74,72-71.74h15.78c42.11,0,80.54,29.63,80.54,71.74v80h0c0,24.9-38.33,46.58-84.8,46.58S173,299.61,173,274.71h0Z"/>
        <g>
          <g>
            <g>
              <path class="cls-4" d="M206,266.35c0,19.83,17.36,36.91,37.19,36.91h24.13c19.84,0,34.84-17.08,34.84-36.91V213.91a28.4,28.4,0,0,0-28.41-28.4H234.42A28.41,28.41,0,0,0,206,213.91Z"/>
              <path class="cls-9" d="M206,229.64v36.71c0,19.83,17.36,36.91,37.19,36.91h24.13c19.84,0,34.84-17.08,34.84-36.91V223.63"/>
            </g>
            <g>
              <path class="cls-12" d="M206,266.35c0,19.83,17.36,36.91,37.19,36.91h24.13c19.84,0,34.84-17.08,34.84-36.91V213.91a28.4,28.4,0,0,0-28.41-28.4H234.42A28.41,28.41,0,0,0,206,213.91Z"/>
              <path class="cls-12" d="M206,229.64v36.71c0,19.83,17.36,36.91,37.19,36.91h24.13c19.84,0,34.84-17.08,34.84-36.91V223.63"/>
            </g>
          </g>
          <g>
            <g>
              <path class="cls-6" d="M289,239.25a10,10,0,1,0-20,0"/>
              <path class="cls-6" d="M251,239.25a10,10,0,0,0-20,0"/>
            </g>
            <path class="cls-6" d="M277.19,268.21c-20.39,19.08-37.81,0-37.81,0"/>
          </g>
          <g>
            <g>
              <path class="cls-5" d="M240.88,148.66c17-2.5,28.36,1.47,43.57,10.52,11.79,7,22.46-6,22.46-6,8.52,23.54,1.26,68.78-4.75,76.6v-14c0-9.88-5.94-24.8-14.7-23-29.66,6-33.61-15.17-62.91-1.36-7.69,3.62-9.82,17.14-11.72,28.23-.84,5-5.77,14.07-5.77,14.07l0,1.13c-6.07-9-8.23-36.5-5.54-50.85C204.36,168.92,215.16,152.45,240.88,148.66Z"/>
              <path class="cls-9" d="M240.88,148.66c17-2.5,28.36,1.47,43.57,10.52,11.79,7,22.46-6,22.46-6,8.52,23.54,1.26,68.78-4.75,76.6v-14c0-9.88-5.94-24.8-14.7-23-29.66,6-33.61-15.17-62.91-1.36-7.69,3.62-9.82,17.14-11.72,28.23-.84,5-5.77,14.07-5.77,14.07l0,1.13c-6.07-9-8.23-36.5-5.54-50.85C204.36,168.92,215.16,152.45,240.88,148.66Z"/>
            </g>
            <g>
              <path class="cls-12" d="M240.88,148.66c17-2.5,28.36,1.47,43.57,10.52,11.79,7,22.46-6,22.46-6,8.52,23.54,1.26,68.78-4.75,76.6v-14c0-9.88-5.94-24.8-14.7-23-29.66,6-33.61-15.17-62.91-1.36-7.69,3.62-9.82,17.14-11.72,28.23-.84,5-5.77,14.07-5.77,14.07l0,1.13c-6.07-9-8.23-36.5-5.54-50.85C204.36,168.92,215.16,152.45,240.88,148.66Z"/>
              <path class="cls-12" d="M240.88,148.66c17-2.5,28.36,1.47,43.57,10.52,11.79,7,22.46-6,22.46-6,8.52,23.54,1.26,68.78-4.75,76.6v-14c0-9.88-5.94-24.8-14.7-23-29.66,6-33.61-15.17-62.91-1.36-7.69,3.62-9.82,17.14-11.72,28.23-.84,5-5.77,14.07-5.77,14.07l0,1.13c-6.07-9-8.23-36.5-5.54-50.85C204.36,168.92,215.16,152.45,240.88,148.66Z"/>
            </g>
          </g>
        </g>
      </g>
    </g>
    <g>
      <g>
        <path class="cls-5" d="M818.61,700.9a4.19,4.19,0,1,0-4.19,4.19A4.2,4.2,0,0,0,818.61,700.9Z"/>
        <path class="cls-5" d="M818.61,716.17a4.19,4.19,0,1,0-4.19,4.19A4.2,4.2,0,0,0,818.61,716.17Z"/>
        <g>
          <line class="cls-6" x1="802.21" y1="700.36" x2="814.29" y2="700.36"/>
          <line class="cls-6" x1="802.21" y1="715.58" x2="814.29" y2="715.58"/>
        </g>
      </g>
      <g>
        <path class="cls-5" d="M1034.65,705a4.19,4.19,0,1,0-4.19,4.19A4.19,4.19,0,0,0,1034.65,705Z"/>
        <path class="cls-5" d="M1034.65,720.23a4.19,4.19,0,1,0-4.19,4.19A4.19,4.19,0,0,0,1034.65,720.23Z"/>
        <g>
          <line class="cls-6" x1="1018.26" y1="704.42" x2="1030.34" y2="704.42"/>
          <line class="cls-6" x1="1018.26" y1="719.64" x2="1030.34" y2="719.64"/>
        </g>
      </g>
    </g>
    <line class="cls-9" x1="65.77" y1="717.58" x2="172.95" y2="717.58"/>
    <line class="cls-9" x1="317.68" y1="717.58" x2="786.5" y2="717.58"/>
    <line class="cls-9" x1="902.79" y1="717.58" x2="1013.9" y2="717.58"/>
    <line class="cls-9" x1="1127.13" y1="717.58" x2="1355.71" y2="717.58"/>
  </g>
</svg>
