<svg id="work" xmlns="http://www.w3.org/2000/svg" viewBox="0 0 1422 870">
  <defs>
    <style>
      .cls-1, .cls-11, .cls-12, .cls-4 {
        fill: #fff;
      }

      .cls-2 {
        fill: #ebebeb;
      }

      .cls-13, .cls-14, .cls-3, .cls-5, .cls-6, .cls-7, .cls-8, .cls-9 {
        fill: none;
      }

      .cls-10, .cls-11, .cls-12, .cls-3, .cls-4, .cls-5, .cls-6, .cls-8, .cls-9 {
        stroke: #4a4a4a;
      }

      .cls-3, .cls-4 {
        stroke-linecap: square;
      }

      .cls-10, .cls-11, .cls-12, .cls-13, .cls-14, .cls-3, .cls-4, .cls-5, .cls-6, .cls-7, .cls-9 {
        stroke-linejoin: round;
      }

      .cls-10, .cls-11, .cls-3, .cls-4, .cls-5, .cls-7 {
        stroke-width: 2.5px;
      }

      .cls-10, .cls-11, .cls-12, .cls-13, .cls-14, .cls-5, .cls-6, .cls-7, .cls-9 {
        stroke-linecap: round;
      }

      .cls-6 {
        stroke-width: 1.2px;
      }

      .cls-14, .cls-7 {
        stroke: #ff0083;
      }

      .cls-8 {
        stroke-miterlimit: 10;
      }

      .cls-13, .cls-8, .cls-9 {
        stroke-width: 4px;
      }

      .cls-10 {
        fill: #ff0083;
      }

      .cls-12 {
        stroke-width: 1.5px;
      }

      .cls-13 {
        stroke: #494949;
      }

      .cls-14 {
        stroke-width: 20px;
      }
    </style>
  </defs>
  <title>26,1</title>
  <g>
    <polygon class="cls-1" points="1128.15 553.18 1196.15 610.02 1196.15 684.02 1103.15 615.18 1128.15 553.18"/>
    <polygon class="cls-2" points="1181.15 597.35 1197.15 611.02 1197.15 685.02 1181.15 673.35 1181.15 597.35"/>
    <polygon class="cls-2" points="1163.15 351.68 1163.15 581.68 1146.15 566.68 1146.15 360.81 1163.15 351.68"/>
    <polygon class="cls-1" points="1163.15 577.68 1163.15 738.68 1096.15 738.68 1096.15 387.68 1146.15 360.81 1146.15 577.68 1163.15 577.68"/>
    <g>
      <polyline class="cls-1" points="391.37 290.78 207.67 442.43 207.67 737.67 391.13 737.67"/>
      <polyline class="cls-1" points="888.05 743.15 888.05 308.6 1058.51 147.19 1058.51 737.67"/>
      <path class="cls-1" d="M758.07,233.21h0c-121.27,0-219.62,93.28-219.62,208.36v296.1H756.15"/>
      <rect class="cls-2" x="485.03" y="479.95" width="53.45" height="257.71"/>
      <polyline class="cls-2" points="1094.62 737.67 1094.62 308.6 1058.51 147.19 1058.51 737.67"/>
      <path class="cls-2" d="M758,739V233.21h.31c16,0,30,61.33,35.81,141.42V736.3"/>
      <polygon class="cls-2" points="450.36 737.67 391.13 737.67 391.13 290.78 450.36 442.43 450.36 737.67"/>
      <polyline class="cls-3" points="1094.62 737.67 1094.62 308.6 1058.51 147.19 1058.51 737.67"/>
      <path class="cls-3" d="M758.07,233.21h0c-121.27,0-219.62,93.28-219.62,208.36v296.1H759"/>
      <path class="cls-3" d="M758,336V233.21h.31c16,0,30,61.33,35.81,141.42V736.3"/>
      <line class="cls-3" x1="758.04" y1="733.58" x2="758.04" y2="393.59"/>
      <polyline class="cls-4" points="391.37 290.78 207.67 442.43 207.67 737.67 391.13 737.67"/>
      <polyline class="cls-3" points="391.13 647.19 391.13 290.78 450.36 442.43 450.36 737.67 391.13 737.67"/>
      <line class="cls-3" x1="450.36" y1="478.58" x2="538.47" y2="478.58"/>
      <line class="cls-3" x1="389.69" y1="662.27" x2="389.69" y2="699.29"/>
      <path class="cls-4" d="M657.67,737.67S633,610.18,679.81,489C713,402.94,805,356.84,888.14,356.84l.72,378.77"/>
      <path class="cls-2" d="M764.85,737.67S751.6,610.18,776.73,489c17.82-86,67.17-132.11,111.75-132.11l.38,378.77"/>
      <path class="cls-5" d="M800.2,422.67c23.44-43.18,57-65.83,88.28-65.83l.38,378.77"/>
      <path class="cls-5" d="M792.15,439.26q1.77-4.1,3.65-8"/>
      <path class="cls-3" d="M764.85,737.67s-3.26-31.39-3.48-77.84"/>
      <rect class="cls-2" x="915.5" y="325.05" width="13" height="31.53"/>
      <rect class="cls-2" x="950.17" y="325.05" width="13" height="31.53"/>
      <rect class="cls-2" x="984.84" y="325.05" width="13" height="31.53"/>
      <rect class="cls-2" x="1019.51" y="325.05" width="13" height="31.53"/>
      <rect class="cls-2" x="915.5" y="374.4" width="13" height="32.9"/>
      <rect class="cls-2" x="950.17" y="374.4" width="13" height="32.9"/>
      <rect class="cls-2" x="984.84" y="374.4" width="13" height="32.9"/>
      <rect class="cls-2" x="1019.51" y="374.4" width="13" height="32.9"/>
      <rect class="cls-2" x="915.5" y="431.97" width="13" height="31.53"/>
      <rect class="cls-2" x="950.17" y="431.97" width="13" height="31.53"/>
      <rect class="cls-2" x="984.84" y="431.97" width="13" height="31.53"/>
      <rect class="cls-2" x="1019.51" y="431.97" width="13" height="31.53"/>
      <rect class="cls-2" x="915.5" y="485.44" width="13" height="32.9"/>
      <rect class="cls-2" x="950.17" y="485.44" width="13" height="32.9"/>
      <rect class="cls-2" x="984.84" y="485.44" width="13" height="32.9"/>
      <rect class="cls-2" x="1019.51" y="485.44" width="13" height="32.9"/>
      <rect class="cls-2" x="915.5" y="543.01" width="13" height="32.9"/>
      <rect class="cls-2" x="950.17" y="543.01" width="13" height="32.9"/>
      <rect class="cls-2" x="984.84" y="543.01" width="13" height="32.9"/>
      <rect class="cls-2" x="1019.51" y="543.01" width="13" height="32.9"/>
      <rect class="cls-2" x="915.5" y="599.21" width="13" height="32.9"/>
      <rect class="cls-2" x="950.17" y="599.21" width="13" height="32.9"/>
      <rect class="cls-2" x="984.84" y="599.21" width="13" height="32.9"/>
      <rect class="cls-2" x="1019.51" y="599.21" width="13" height="32.9"/>
      <rect class="cls-2" x="915.5" y="652.68" width="13" height="32.9"/>
      <rect class="cls-2" x="950.17" y="652.68" width="13" height="32.9"/>
      <rect class="cls-2" x="984.84" y="652.68" width="13" height="32.9"/>
      <rect class="cls-2" x="1019.51" y="652.68" width="13" height="32.9"/>
      <rect class="cls-2" x="244.63" y="502.15" width="17.33" height="32.9"/>
      <rect class="cls-2" x="290.85" y="502.15" width="17.33" height="32.9"/>
      <rect class="cls-2" x="338.52" y="502.15" width="15.89" height="32.9"/>
      <rect class="cls-2" x="244.63" y="559.72" width="17.33" height="32.9"/>
      <rect class="cls-2" x="290.85" y="559.72" width="17.33" height="32.9"/>
      <rect class="cls-2" x="338.52" y="559.72" width="15.89" height="32.9"/>
      <rect class="cls-2" x="244.63" y="615.92" width="17.33" height="32.9"/>
      <rect class="cls-2" x="290.85" y="615.92" width="17.33" height="32.9"/>
      <rect class="cls-2" x="338.52" y="615.92" width="15.89" height="32.9"/>
      <rect class="cls-2" x="244.63" y="669.39" width="17.33" height="32.9"/>
      <rect class="cls-2" x="290.85" y="669.39" width="17.33" height="32.9"/>
      <rect class="cls-2" x="338.52" y="669.39" width="15.89" height="32.9"/>
      <polyline class="cls-3" points="888.05 735.61 888.05 308.6 1058.51 147.19 1058.51 737.67"/>
      <g>
        <g>
          <path class="cls-6" d="M307.4,269.27S298,255.1,284.57,255.1H242.85l13.38,13.38h35.42"/>
          <polyline class="cls-6" points="279.06 276.35 273.55 281.08 243.64 281.08 224.35 261.79"/>
          <path class="cls-6" d="M221.6,252H207.43s-5.51,8.66,1.57,15h12.6"/>
          <path class="cls-6" d="M275.12,261.4Z"/>
          <path class="cls-6" d="M269.22,261.4Z"/>
          <path class="cls-6" d="M262.53,261.4Z"/>
          <line class="cls-6" x1="184.6" y1="259.56" x2="125.83" y2="259.56"/>
          <line class="cls-6" x1="197.19" y1="266.91" x2="172.01" y2="266.91"/>
        </g>
        <g>
          <g>
            <path class="cls-7" d="M307.4,269.27S298,255.1,284.57,255.1H242.85l13.38,13.38h35.42"/>
            <path class="cls-7" d="M307.4,269.27S298,255.1,284.57,255.1H242.85l13.38,13.38h35.42"/>
          </g>
          <g>
            <polyline class="cls-7" points="279.06 276.35 273.55 281.08 243.64 281.08 224.35 261.79"/>
            <polyline class="cls-7" points="279.06 276.35 273.55 281.08 243.64 281.08 224.35 261.79"/>
          </g>
          <g>
            <path class="cls-7" d="M221.6,252H207.43s-5.51,8.66,1.57,15h12.6"/>
            <path class="cls-7" d="M221.6,252H207.43s-5.51,8.66,1.57,15h12.6"/>
          </g>
          <g>
            <path class="cls-7" d="M275.12,261.4Z"/>
            <path class="cls-7" d="M275.12,261.4Z"/>
          </g>
          <g>
            <path class="cls-7" d="M269.22,261.4Z"/>
            <path class="cls-7" d="M269.22,261.4Z"/>
          </g>
          <g>
            <path class="cls-7" d="M262.53,261.4Z"/>
            <path class="cls-7" d="M262.53,261.4Z"/>
          </g>
          <g>
            <line class="cls-7" x1="184.6" y1="259.56" x2="125.83" y2="259.56"/>
            <line class="cls-7" x1="184.6" y1="259.56" x2="125.83" y2="259.56"/>
          </g>
          <g>
            <line class="cls-7" x1="197.19" y1="266.91" x2="172.01" y2="266.91"/>
            <line class="cls-7" x1="197.19" y1="266.91" x2="172.01" y2="266.91"/>
          </g>
        </g>
      </g>
      <g>
        <g>
          <path class="cls-6" d="M840.16,109.45S849.61,95.28,863,95.28h41.72l-13.38,13.38H855.91"/>
          <polyline class="cls-6" points="868.5 116.53 874.01 121.26 903.92 121.26 923.21 101.97"/>
          <path class="cls-6" d="M926,92.13h14.17s5.5,8.66-1.58,15H926"/>
          <path class="cls-6" d="M872.44,101.58Z"/>
          <path class="cls-6" d="M878.34,101.58Z"/>
          <path class="cls-6" d="M885,101.58Z"/>
          <line class="cls-6" x1="962.96" y1="99.74" x2="1021.74" y2="99.74"/>
          <line class="cls-6" x1="950.37" y1="107.09" x2="975.56" y2="107.09"/>
        </g>
        <g>
          <g>
            <path class="cls-7" d="M840.16,109.45S849.61,95.28,863,95.28h41.72l-13.38,13.38H855.91"/>
            <path class="cls-7" d="M840.16,109.45S849.61,95.28,863,95.28h41.72l-13.38,13.38H855.91"/>
          </g>
          <g>
            <polyline class="cls-7" points="868.5 116.53 874.01 121.26 903.92 121.26 923.21 101.97"/>
            <polyline class="cls-7" points="868.5 116.53 874.01 121.26 903.92 121.26 923.21 101.97"/>
          </g>
          <g>
            <path class="cls-7" d="M926,92.13h14.17s5.5,8.66-1.58,15H926"/>
            <path class="cls-7" d="M926,92.13h14.17s5.5,8.66-1.58,15H926"/>
          </g>
          <g>
            <path class="cls-7" d="M872.44,101.58Z"/>
            <path class="cls-7" d="M872.44,101.58Z"/>
          </g>
          <g>
            <path class="cls-7" d="M878.34,101.58Z"/>
            <path class="cls-7" d="M878.34,101.58Z"/>
          </g>
          <g>
            <path class="cls-7" d="M885,101.58Z"/>
            <path class="cls-7" d="M885,101.58Z"/>
          </g>
          <g>
            <line class="cls-7" x1="962.96" y1="99.74" x2="1021.74" y2="99.74"/>
            <line class="cls-7" x1="962.96" y1="99.74" x2="1021.74" y2="99.74"/>
          </g>
          <g>
            <line class="cls-7" x1="950.37" y1="107.09" x2="975.56" y2="107.09"/>
            <line class="cls-7" x1="950.37" y1="107.09" x2="975.56" y2="107.09"/>
          </g>
        </g>
      </g>
    </g>
    <g>
      <g>
        <path class="cls-2" d="M529.79,530.11a4.61,4.61,0,0,1-4.48,5.73h-59.1a4.08,4.08,0,0,1-4-5.2l11.19-38.78h46.86Z"/>
        <path class="cls-8" d="M529.79,530.11a4.61,4.61,0,0,1-4.48,5.73h-59.1a4.08,4.08,0,0,1-4-5.2l11.19-38.78h46.86Z"/>
        <path class="cls-2" d="M506.68,502.77H486.84c-20.74,0-28.45-16.81-28.45-37.55V324.75a37.54,37.54,0,0,1,37.54-37.54h0a37.54,37.54,0,0,1,37.54,37.54V465.22C533.47,486,527.41,502.77,506.68,502.77Z"/>
        <path class="cls-8" d="M506.68,502.77H486.84c-20.74,0-28.45-16.81-28.45-37.55V324.75a37.54,37.54,0,0,1,37.54-37.54h0a37.54,37.54,0,0,1,37.54,37.54V465.22C533.47,486,527.41,502.77,506.68,502.77Z"/>
      </g>
      <g>
        <path class="cls-1" d="M641,592.68V804h10.39a21,21,0,0,1,21,21v9.85H495.18V804h0V534.67l-1.9-4.56a9.91,9.91,0,0,1-.76-3.8V464.42l-4-7.24A36.43,36.43,0,0,1,484,439.63V346.54a50.3,50.3,0,0,1,50.3-50.3h93.66a50.29,50.29,0,0,1,50.3,50.3V530.41h-6.9v36.72a25.55,25.55,0,0,1-25.55,25.55Z"/>
        <path class="cls-9" d="M575,296.24H534.28A50.3,50.3,0,0,0,484,346.53v93.1a36.43,36.43,0,0,0,4.52,17.55l4,7.24v61.89a9.88,9.88,0,0,0,.76,3.8l1.9,4.56V804H641V530.41h37.26V346.53A50.3,50.3,0,0,0,628,296.24Z"/>
        <path class="cls-5" d="M641,592.68h4.79a25.54,25.54,0,0,0,25.55-25.54V530.42H641Z"/>
        <polyline class="cls-5" points="647.91 369.68 647.91 528.78 492.5 528.78"/>
        <g>
          <path class="cls-10" d="M634.65,482a8,8,0,0,1-9.94,5.4l-43.92-13a8,8,0,0,1-5.4-9.94L603.06,371a8,8,0,0,1,9.94-5.4l43.91,13a8,8,0,0,1,5.4,9.94Z"/>
          <path class="cls-1" d="M620.51,439.11l-4.32-1.28,2.09-7.06-3.23-.95c-.25-.08-.26.14-.31.3l-2,6.7-4.32-1.28c.71-2.38,1.41-4.76,2.13-7.19L602,425.81a.35.35,0,0,1,0-.13c.74-1.52,1.48-3,2.21-4.54.11-.23.25-.17.41-.12l2.64.78a1.65,1.65,0,0,0,2.33-1.28L615.07,402a2.24,2.24,0,0,0-1.48-2.94c-.69-.24-1.4-.45-2.11-.67-.42-.14-.86-.26-1.29-.39l1.36-4.58,8.61,2.55,2.09-7.05,4.32,1.28q-1,3.29-2,6.59c-.08.26,0,.37.24.44.75.19,1.5.41,2.25.61l.81.25a.85.85,0,0,0,.09-.14q1-3.36,2-6.74l4.32,1.28c-.05.15-.11.29-.15.44l-1.77,6c-.2.69-.2.68.48,1a18.11,18.11,0,0,1,5.16,3,7,7,0,0,1,2.57,4.75,9.27,9.27,0,0,1-.64,4.07,6.47,6.47,0,0,1-4.73,4.23l-.53.13.19.17a24.32,24.32,0,0,1,2,1.5,6.48,6.48,0,0,1,2.23,5.13,12.18,12.18,0,0,1-1.8,5.72,8.26,8.26,0,0,1-3.76,3.47,11.27,11.27,0,0,1-5.82.79c-1.57-.15-3.14-.49-4.7-.77-.33-.06-.46,0-.54.34-.15.57-.33,1.14-.5,1.71Zm-4-14.57c1.33.4,2.58.81,3.86,1.14a16.33,16.33,0,0,0,5.29.66,4.85,4.85,0,0,0,3.12-1.08,4.1,4.1,0,0,0,.24-5.85,10.26,10.26,0,0,0-4.18-2.6c-1.67-.58-3.38-1.06-5.06-1.6-.37-.13-.51,0-.62.33-.83,2.86-1.68,5.71-2.52,8.57Zm5.36-18.11c-.39,1.33-.79,2.66-1.18,4-.06.21-.1.36.18.45a24.17,24.17,0,0,0,6.62,1.37,5,5,0,0,0,3.25-.94,3.94,3.94,0,0,0,.76-5,6.77,6.77,0,0,0-3.38-2.49c-1.52-.58-3.1-1-4.64-1.53-.3-.1-.39,0-.46.29C622.62,403.82,622.24,405.13,621.85,406.43Z"/>
        </g>
        <path class="cls-11" d="M572,443.66l30-15.83a11.5,11.5,0,0,1,16.38,6.83l5.2,17.16A11.5,11.5,0,0,1,614,466.56L572,472"/>
        <line class="cls-5" x1="576.06" y1="569.8" x2="576.06" y2="803.97"/>
        <path class="cls-5" d="M532.5,388.18v34.33a14.77,14.77,0,0,0,14.77,14.77H572V476H511.34c-8,0-15.94-6.82-18.68-12.35"/>
        <path class="cls-12" d="M606.66,281.34c-13,8-22.89,8.52-36.45,0"/>
        <path class="cls-12" d="M597.08,256.06a11.71,11.71,0,0,1,23.42,0"/>
        <path class="cls-12" d="M558.49,256.06a11.72,11.72,0,0,1,23.43,0"/>
        <path class="cls-9" d="M672.4,825v9.85H590.45V825a21,21,0,0,0-13.31-19.55V804h74.24A21,21,0,0,1,672.4,825Z"/>
        <path class="cls-9" d="M495.18,804h74.24a21,21,0,0,1,21,21v9.85H495.18Z"/>
      </g>
      <g>
        <path class="cls-9" d="M496.26,207.69c0-42.11,29.85-71.74,72-71.74H584c42.11,0,80.54,29.63,80.54,71.74v80h0c0,24.9-38.33,46.57-84.8,46.57s-83.48-21.67-83.48-46.57h0Z"/>
        <g>
          <g>
            <g>
              <path class="cls-1" d="M529.32,279.33c0,19.83,17.35,36.91,37.18,36.91h24.13c19.84,0,34.84-17.08,34.84-36.91V226.89a28.41,28.41,0,0,0-28.41-28.41H557.73a28.41,28.41,0,0,0-28.41,28.41Z"/>
              <path class="cls-9" d="M529.32,242.62v36.71c0,19.83,17.35,36.91,37.18,36.91h24.13c19.84,0,34.84-17.08,34.84-36.91V236.61"/>
            </g>
            <g>
              <path class="cls-13" d="M529.32,279.33c0,19.83,17.35,36.91,37.18,36.91h24.13c19.84,0,34.84-17.08,34.84-36.91V226.89a28.41,28.41,0,0,0-28.41-28.41H557.73a28.41,28.41,0,0,0-28.41,28.41Z"/>
              <path class="cls-13" d="M529.32,242.62v36.71c0,19.83,17.35,36.91,37.18,36.91h24.13c19.84,0,34.84-17.08,34.84-36.91V236.61"/>
            </g>
          </g>
          <g>
            <g>
              <path class="cls-5" d="M612.27,252.22a10,10,0,0,0-20,0"/>
              <path class="cls-5" d="M574.3,252.22a10,10,0,0,0-20,0"/>
            </g>
            <path class="cls-5" d="M600.5,281.19c-20.38,19.07-37.81,0-37.81,0"/>
          </g>
          <g>
            <g>
              <path class="cls-2" d="M564.19,161.64c17-2.51,28.36,1.47,43.57,10.52,11.79,7,22.46-6,22.46-6,8.52,23.53,1.26,68.78-4.75,76.6v-14c0-9.89-5.94-24.81-14.7-23-29.66,6-33.61-15.17-62.91-1.37-7.69,3.62-9.82,17.14-11.72,28.23-.84,5-5.77,14.08-5.77,14.08l0,1.13c-6.07-9-8.23-36.5-5.54-50.86C527.67,181.9,538.47,165.42,564.19,161.64Z"/>
              <path class="cls-9" d="M564.19,161.64c17-2.51,28.36,1.47,43.57,10.52,11.79,7,22.46-6,22.46-6,8.52,23.53,1.26,68.78-4.75,76.6v-14c0-9.89-5.94-24.81-14.7-23-29.66,6-33.61-15.17-62.91-1.37-7.69,3.62-9.82,17.14-11.72,28.23-.84,5-5.77,14.08-5.77,14.08l0,1.13c-6.07-9-8.23-36.5-5.54-50.86C527.67,181.9,538.47,165.42,564.19,161.64Z"/>
            </g>
            <g>
              <path class="cls-13" d="M564.19,161.64c17-2.51,28.36,1.47,43.57,10.52,11.79,7,22.46-6,22.46-6,8.52,23.53,1.26,68.78-4.75,76.6v-14c0-9.89-5.94-24.81-14.7-23-29.66,6-33.61-15.17-62.91-1.37-7.69,3.62-9.82,17.14-11.72,28.23-.84,5-5.77,14.08-5.77,14.08l0,1.13c-6.07-9-8.23-36.5-5.54-50.86C527.67,181.9,538.47,165.42,564.19,161.64Z"/>
              <path class="cls-13" d="M564.19,161.64c17-2.51,28.36,1.47,43.57,10.52,11.79,7,22.46-6,22.46-6,8.52,23.53,1.26,68.78-4.75,76.6v-14c0-9.89-5.94-24.81-14.7-23-29.66,6-33.61-15.17-62.91-1.37-7.69,3.62-9.82,17.14-11.72,28.23-.84,5-5.77,14.08-5.77,14.08l0,1.13c-6.07-9-8.23-36.5-5.54-50.86C527.67,181.9,538.47,165.42,564.19,161.64Z"/>
            </g>
          </g>
        </g>
      </g>
    </g>
    <line class="cls-9" x1="72.11" y1="738.95" x2="492.5" y2="738.95"/>
    <line class="cls-9" x1="641.64" y1="738.95" x2="1354.54" y2="738.95"/>
    <polyline class="cls-14" points="849 417.5 765.34 499.83 729 465.58"/>
    <polyline class="cls-5" points="1094.62 388.59 1163.33 351.84 1163.33 579.33"/>
    <polyline class="cls-5" points="1142.67 565.54 1198 610.66 1198 686.89 1142.67 644.67"/>
    <polyline class="cls-11" points="1112.24 622.13 1267.33 738.15 1151.15 738.15"/>
  </g>
</svg>
