<svg id="work" xmlns="http://www.w3.org/2000/svg" viewBox="0 0 1422 870">
  <defs>
    <style>
      .cls-1, .cls-11, .cls-18, .cls-6 {
        fill: #fff;
      }

      .cls-2, .cls-9 {
        fill: #ebebeb;
      }

      .Graphic-Style, .cls-10, .cls-16, .cls-17, .cls-20, .cls-3, .cls-4, .cls-5, .cls-8 {
        fill: none;
      }

      .cls-10, .cls-11, .cls-13, .cls-14, .cls-16, .cls-19, .cls-3, .cls-4, .cls-5, .cls-6, .cls-9 {
        stroke: #4a4a4a;
      }

      .cls-10, .cls-13, .cls-16, .cls-18, .cls-19, .cls-3, .cls-9 {
        stroke-miterlimit: 10;
      }

      .cls-14, .cls-19, .cls-3, .cls-4, .cls-8 {
        stroke-width: 4px;
      }

      .Graphic-Style, .cls-11, .cls-14, .cls-16, .cls-17, .cls-20, .cls-4, .cls-5, .cls-6, .cls-8 {
        stroke-linecap: round;
      }

      .Graphic-Style, .cls-11, .cls-14, .cls-17, .cls-20, .cls-4, .cls-5, .cls-6, .cls-8 {
        stroke-linejoin: round;
      }

      .Graphic-Style, .cls-10, .cls-11, .cls-13, .cls-16, .cls-17, .cls-20, .cls-5, .cls-9 {
        stroke-width: 2.5px;
      }

      .cls-6 {
        stroke-width: 1.5px;
      }

      .cls-7 {
        fill: #ff0083;
      }

      .cls-20, .cls-8 {
        stroke: #494949;
      }

      .cls-12 {
        fill: #ec1e81;
      }

      .cls-13, .cls-14, .cls-15, .cls-19 {
        fill: #ebeaea;
      }

      .cls-17, .cls-18 {
        stroke: #4a5999;
      }

      .Graphic-Style {
        stroke: #ff0083;
      }
    </style>
  </defs>
  <title>16,2</title>
  <g>
    <path class="cls-1" d="M1013.15,796.14l-7-217.5H993.54c-12.47,0-22.68-7.91-23.06-20.38l-1.33-44.12-5.5-2.5V331.8a56.17,56.17,0,0,1,56.17-56.16h132.33a55,55,0,0,1,55,55v89.5l-39,18-6.5,359,2.5,33-181.5.5v-7.27a27.27,27.27,0,0,1,27.73-27.27Z"/>
    <g>
      <g>
        <g>
          <path class="cls-2" d="M263.87,518.1a4.75,4.75,0,0,1-4.6,5.89H198.66a4.18,4.18,0,0,1-4.08-5.34L206,478.88H254.1Z"/>
          <path class="cls-3" d="M263.87,518.1a4.75,4.75,0,0,1-4.6,5.89H198.66a4.18,4.18,0,0,1-4.08-5.34L206,478.88H254.1Z"/>
          <path class="cls-2" d="M240.16,490.06H219.82c-21.27,0-29.18-17.23-29.18-38.5v-144a38.5,38.5,0,0,1,38.5-38.5h0a38.5,38.5,0,0,1,38.5,38.5V451.56C267.64,472.83,261.43,490.06,240.16,490.06Z"/>
          <path class="cls-3" d="M240.16,490.06H219.82c-21.27,0-29.18-17.23-29.18-38.5v-144a38.5,38.5,0,0,1,38.5-38.5h0a38.5,38.5,0,0,1,38.5,38.5V451.56C267.64,472.83,261.43,490.06,240.16,490.06Z"/>
        </g>
        <g>
          <path class="cls-1" d="M377.91,582.27V799h10.65a21.57,21.57,0,0,1,21.56,21.57v10.1H228.37V799h0V522.78l-1.94-4.67a10.1,10.1,0,0,1-.79-3.9V450.74l-4.1-7.43a37.28,37.28,0,0,1-4.63-18V329.85a51.58,51.58,0,0,1,51.58-51.58h96a51.57,51.57,0,0,1,51.58,51.58V518.42H409v37.65a26.19,26.19,0,0,1-26.2,26.2Z"/>
          <path class="cls-4" d="M310.23,278.27H268.47a51.58,51.58,0,0,0-51.58,51.57v95.47a37.26,37.26,0,0,0,4.64,18l4.1,7.43v63.47a10.15,10.15,0,0,0,.77,3.89l2,4.69V799H377.91V518.42h38.2V329.84a51.57,51.57,0,0,0-51.58-51.57Z"/>
          <path class="cls-5" d="M377.91,582.27h4.91A26.19,26.19,0,0,0,409,556.08V518.42H377.91Z"/>
          <polyline class="cls-5" points="385 366.14 385 516.75 225.63 516.75"/>
          <line class="cls-5" x1="311.32" y1="558.81" x2="311.32" y2="798.96"/>
          <path class="cls-5" d="M266.64,372.55v35.21a15.14,15.14,0,0,0,15.15,15.14h25.38v39.71H245c-8.26,0-16.35-7-19.16-12.66"/>
          <path class="cls-5" d="M307.17,429.45l30.74-16.24a11.81,11.81,0,0,1,16.8,7l5.33,17.6a11.81,11.81,0,0,1-9.78,15.12l-43.09,5.58"/>
          <path class="cls-6" d="M342.7,263c-13.37,8.19-23.47,8.73-37.39,0"/>
          <path class="cls-6" d="M332.88,237.06a12,12,0,1,1,24,0"/>
          <path class="cls-6" d="M293.3,237.06a12,12,0,0,1,24,0"/>
          <path class="cls-4" d="M410.12,820.52v10.1H326.07v-10.1a21.55,21.55,0,0,0-13.64-20.06V799h76.13A21.57,21.57,0,0,1,410.12,820.52Z"/>
          <path class="cls-4" d="M228.37,799h76.14a21.56,21.56,0,0,1,21.56,21.56v10.09h-97.7Z"/>
          <path class="cls-5" d="M346,453.6l5.16-.66a11.8,11.8,0,0,0,9.78-15.12l-5.33-17.6a11.77,11.77,0,0,0-16.8-7l-13,6.89L308,429.45"/>
          <g>
            <path class="cls-7" d="M372.35,379.18l-4.81,69.43a6.52,6.52,0,0,1-7,6.07L345.1,453.6l5.16-.66A11.82,11.82,0,0,0,360,437.82l-5.33-17.6a11.78,11.78,0,0,0-16.8-7l-13.05,6.89,3-44a6.56,6.56,0,0,1,7-6.08l31.38,2.19A6.54,6.54,0,0,1,372.35,379.18Z"/>
            <path class="cls-5" d="M372.35,379.18l-4.81,69.43a6.52,6.52,0,0,1-7,6.07L345.1,453.6l5.16-.66A11.82,11.82,0,0,0,360,437.82l-5.33-17.6a11.78,11.78,0,0,0-16.8-7l-13.05,6.89,3-44a6.56,6.56,0,0,1,7-6.08l31.38,2.19A6.54,6.54,0,0,1,372.35,379.18Z"/>
          </g>
        </g>
        <g>
          <path class="cls-4" d="M229.49,187.46c0-43.18,30.6-73.57,73.79-73.57h16.18c43.18,0,82.59,30.39,82.59,73.57v82h0c0,25.53-39.3,47.77-87,47.77s-85.6-22.24-85.6-47.77h0Z"/>
          <g>
            <g>
              <g>
                <path class="cls-1" d="M263.38,260.93c0,20.33,17.8,37.85,38.14,37.85h24.74c20.34,0,35.73-17.52,35.73-37.85V207.15A29.13,29.13,0,0,0,332.86,178H292.51a29.13,29.13,0,0,0-29.13,29.13Z"/>
                <path class="cls-4" d="M263.38,223.28v37.65c0,20.33,17.8,37.85,38.14,37.85h24.74c20.34,0,35.73-17.52,35.73-37.85V217.12"/>
              </g>
              <g>
                <path class="cls-8" d="M263.38,260.93c0,20.33,17.8,37.85,38.14,37.85h24.74c20.34,0,35.73-17.52,35.73-37.85V207.15A29.13,29.13,0,0,0,332.86,178H292.51a29.13,29.13,0,0,0-29.13,29.13Z"/>
                <path class="cls-8" d="M263.38,223.28v37.65c0,20.33,17.8,37.85,38.14,37.85h24.74c20.34,0,35.73-17.52,35.73-37.85V217.12"/>
              </g>
            </g>
            <g>
              <g>
                <path class="cls-5" d="M348.45,233.13a10.27,10.27,0,1,0-20.54,0"/>
                <path class="cls-5" d="M309.51,233.13a10.28,10.28,0,0,0-20.55,0"/>
              </g>
              <path class="cls-5" d="M336.38,262.84c-20.9,19.55-38.78,0-38.78,0"/>
            </g>
            <g>
              <g>
                <path class="cls-2" d="M299.15,140.24c17.46-2.57,29.07,1.51,44.68,10.78,12.08,7.19,23-6.13,23-6.13,8.73,24.14,1.29,70.54-4.87,78.56V209c0-10.13-6.09-25.43-15.08-23.61-30.41,6.16-34.47-15.56-64.51-1.4-7.89,3.71-10.08,17.58-12,28.95-.87,5.1-5.92,14.44-5.92,14.44l0,1.15c-6.23-9.24-8.45-37.43-5.69-52.15C261.7,161,272.76,144.12,299.15,140.24Z"/>
                <path class="cls-4" d="M299.15,140.24c17.46-2.57,29.07,1.51,44.68,10.78,12.08,7.19,23-6.13,23-6.13,8.73,24.14,1.29,70.54-4.87,78.56V209c0-10.13-6.09-25.43-15.08-23.61-30.41,6.16-34.47-15.56-64.51-1.4-7.89,3.71-10.08,17.58-12,28.95-.87,5.1-5.92,14.44-5.92,14.44l0,1.15c-6.23-9.24-8.45-37.43-5.69-52.15C261.7,161,272.76,144.12,299.15,140.24Z"/>
              </g>
              <g>
                <path class="cls-8" d="M299.15,140.24c17.46-2.57,29.07,1.51,44.68,10.78,12.08,7.19,23-6.13,23-6.13,8.73,24.14,1.29,70.54-4.87,78.56V209c0-10.13-6.09-25.43-15.08-23.61-30.41,6.16-34.47-15.56-64.51-1.4-7.89,3.71-10.08,17.58-12,28.95-.87,5.1-5.92,14.44-5.92,14.44l0,1.15c-6.23-9.24-8.45-37.43-5.69-52.15C261.7,161,272.76,144.12,299.15,140.24Z"/>
                <path class="cls-8" d="M299.15,140.24c17.46-2.57,29.07,1.51,44.68,10.78,12.08,7.19,23-6.13,23-6.13,8.73,24.14,1.29,70.54-4.87,78.56V209c0-10.13-6.09-25.43-15.08-23.61-30.41,6.16-34.47-15.56-64.51-1.4-7.89,3.71-10.08,17.58-12,28.95-.87,5.1-5.92,14.44-5.92,14.44l0,1.15c-6.23-9.24-8.45-37.43-5.69-52.15C261.7,161,272.76,144.12,299.15,140.24Z"/>
              </g>
            </g>
          </g>
        </g>
      </g>
      <g>
        <g>
          <path class="cls-9" d="M1024.87,333h41.8a8.15,8.15,0,0,1,8.15,8.15v69.33a8.15,8.15,0,0,1-8.15,8.15h-41.8a8.16,8.16,0,0,1-8.16-8.16V341.15A8.16,8.16,0,0,1,1024.87,333Z"/>
          <path class="cls-10" d="M1024.87,333h41.8a8.15,8.15,0,0,1,8.15,8.15v69.33a8.15,8.15,0,0,1-8.15,8.15h-41.8a8.16,8.16,0,0,1-8.16-8.16V341.15A8.16,8.16,0,0,1,1024.87,333Z"/>
          <rect class="cls-11" x="1032.01" y="351.34" width="24.46" height="33.64"/>
        </g>
        <g>
          <polygon class="cls-12" points="1212.98 210.08 1179.45 280.18 1189.85 287.36 1216.52 211.73 1212.98 210.08"/>
          <path class="cls-12" d="M1208.76,203.11a9.54,9.54,0,1,0,9.54-9.53A9.54,9.54,0,0,0,1208.76,203.11Z"/>
        </g>
        <g>
          <path class="cls-1" d="M1083.49,421.86l-34.16-8.5a11.94,11.94,0,0,0-14.81,11l-1,18.59a12,12,0,0,0,13.28,12.48l43.71-5"/>
          <g>
            <path class="cls-5" d="M1083.49,421.86l-34.16-8.5a11.94,11.94,0,0,0-14.81,11l-1,18.59a12,12,0,0,0,13.28,12.48l43.71-5"/>
            <path class="cls-5" d="M1051.21,455l-5.24.6a12,12,0,0,1-13.28-12.48l1-18.59a11.94,11.94,0,0,1,14.82-11l14.5,3.61,19.66,4.88"/>
            <g>
              <path class="cls-7" d="M1007.22,388.28l21.58,67.07a6.62,6.62,0,0,0,8.34,4.28l14.93-4.82-5.24.6a12,12,0,0,1-13.28-12.48l1-18.6a11.93,11.93,0,0,1,14.82-11l14.5,3.6-13.67-42.53a6.65,6.65,0,0,0-8.35-4.27l-30.32,9.77A6.62,6.62,0,0,0,1007.22,388.28Z"/>
              <path class="cls-5" d="M1007.22,388.28l21.58,67.07a6.62,6.62,0,0,0,8.34,4.28l14.93-4.82-5.24.6a12,12,0,0,1-13.28-12.48l1-18.6a11.93,11.93,0,0,1,14.82-11l14.5,3.6-13.67-42.53a6.65,6.65,0,0,0-8.35-4.27l-30.32,9.77A6.62,6.62,0,0,0,1007.22,388.28Z"/>
            </g>
          </g>
        </g>
        <path class="cls-4" d="M1127.87,273.55h25.2c30.91,0,55.26,25.29,55.26,56.19v55.77a53.85,53.85,0,0,1-43.84,52.91l-74.79,14.13-6.58-36.42,45.51-17.43a33.74,33.74,0,0,0,21.68-31.51v-19"/>
        <g>
          <path class="cls-5" d="M999.79,515.18h-30v41.27c0,13.11,9.94,23.14,27.15,23.14h7.66"/>
          <path class="cls-4" d="M963.65,400.48V329.74c0-30.9,25.45-56.19,56.35-56.19h23.59"/>
          <path class="cls-13" d="M969.6,399h.72a7.09,7.09,0,0,1,7.09,7.09v40.57A6.37,6.37,0,0,1,971,453H969.6a13.6,13.6,0,0,1-13.6-13.6V412.55A13.6,13.6,0,0,1,969.6,399Z"/>
          <path class="cls-4" d="M1000.53,515.18H969.75c-3.28,0-6.1-1.5-6.1-4.79V452.55"/>
        </g>
        <g>
          <path class="cls-14" d="M982.42,830.21h105.11l-2.33-33.65h-80.07a23.14,23.14,0,0,0-23.31,25Z"/>
          <polyline class="cls-4" points="1002.73 515.18 1013.42 796.56 1084.37 796.56"/>
          <path class="cls-13" d="M1047.19,715.3l-33.59-.42a16.43,16.43,0,0,1-15.89-16l-1.13-41.56a14.92,14.92,0,0,1,15-15.63l21.3.27c18.85.24,34.57,16.08,35.09,35.38l.44,15.89C1068.77,705.56,1059.26,715.45,1047.19,715.3Z"/>
        </g>
        <g>
          <path class="cls-14" d="M1061.62,830.21h102.16l-2.32-33.65h-77.12a23.13,23.13,0,0,0-23.31,25Z"/>
          <polyline class="cls-4" points="1168.18 438.42 1161.48 796.56 1087.71 796.56 1079.37 603.21"/>
          <path class="cls-13" d="M1126.4,715.3l-33.59-.42a16.42,16.42,0,0,1-15.89-16l-1.14-41.56a14.93,14.93,0,0,1,15-15.63l21.3.27c18.86.24,34.57,16.08,35.1,35.38l.43,15.89C1148,705.56,1138.47,715.45,1126.4,715.3Z"/>
        </g>
        <polygon class="cls-15" points="1164.29 510.23 1002.68 510.23 1002.68 484.37 1165.16 483.13 1164.29 510.23"/>
        <line class="cls-16" x1="1001.88" y1="512.54" x2="1001.88" y2="372.96"/>
        <line class="cls-10" x1="1001.88" y1="483.06" x2="1026.35" y2="483.06"/>
        <line class="cls-10" x1="1026.35" y1="510.59" x2="1001.88" y2="510.59"/>
        <line class="cls-10" x1="1110.64" y1="510.59" x2="1040.81" y2="510.59"/>
        <line class="cls-5" x1="1165.98" y1="510.59" x2="1110.64" y2="510.59"/>
        <line class="cls-5" x1="1110.64" y1="483.06" x2="1165.98" y2="483.06"/>
        <line class="cls-10" x1="1040.81" y1="483.06" x2="1110.64" y2="483.06"/>
        <g>
          <path class="cls-13" d="M1024.12,461.65h9.18a6.12,6.12,0,0,1,6.12,6.12v70.35a6.12,6.12,0,0,1-6.12,6.12h-9.17a6.12,6.12,0,0,1-6.12-6.12V467.77A6.11,6.11,0,0,1,1024.12,461.65Z"/>
          <path class="cls-13" d="M1093.87,461.65H1103a6.12,6.12,0,0,1,6.12,6.12v70.35a6.12,6.12,0,0,1-6.12,6.12h-9.18a6.11,6.11,0,0,1-6.11-6.11V467.77A6.12,6.12,0,0,1,1093.87,461.65Z"/>
        </g>
        <g>
          <path class="cls-4" d="M1171.63,184.47c0-42.86-30.38-73-73.24-73h-16.06c-42.86,0-82,30.16-82,73v81.44h0c0,25.34,39,47.4,86.31,47.4s85-22.06,85-47.4h0Z"/>
          <path class="cls-17" d="M1062.73,228.69a10.2,10.2,0,0,1,20.39,0"/>
          <path class="cls-17" d="M1102.49,228.69a10.2,10.2,0,0,1,20.39,0"/>
          <path class="cls-17" d="M1078.28,263.36c13,3.57,36.45,2.55,43.33-7.65"/>
          <g>
            <path class="cls-18" d="M1033.59,223.09c1.34-3.31,1.24-16.84,1.46-24.86s2.38-9.43,5-14.12,8.56-9.47,14.7-9.05,15.94,6.74,18.17,9.65,5.91,2.43,16.82-.86,9.94-6,20.39-5.88,14.48,3.65,19.79,11.22,2.76,45.19,2.76,45.19V255.2c0,20.19-17.86,37.54-38,37.54H1070c-20.19,0-35.37-17.35-35.37-37.54V232l-1.16,0S1032.24,226.39,1033.59,223.09Z"/>
            <path class="cls-4" d="M1034.83,217V255.2c0,20.19,15,36.7,35.21,36.7h24.56c20.18,0,38.11-16.51,38.11-36.7V210.85"/>
            <path class="cls-19" d="M1074.56,132.86H1095c26.35,0,43.88,19.27,43.88,45.62v10.71c0,10.27,0,20.85-6.12,28.81V203.7c0-10.06-3-18.36-10.22-23.92s-19.4-5.72-26.17.38c-3.34,3-9,5-13.83,5s-10.08-1.45-13.45-4.59c-6.64-6.2-13.68-7.27-21.72-3-7.65,4-12.49,13.37-12.49,24.81v19.63l-1.24,1.15c-6.18-9.18-7.93-22-7.93-33.14v-10.7C1025.66,152.78,1048.1,132.86,1074.56,132.86Z"/>
            <path class="cls-5" d="M1105.93,228.69a10.2,10.2,0,0,0-20.4,0"/>
            <path class="cls-5" d="M1066.16,228.69a10.2,10.2,0,0,0-20.39,0"/>
            <path class="cls-5" d="M1055.38,263.36c13,3.57,36.45,2.55,43.33-7.65"/>
          </g>
        </g>
      </g>
      <g>
        <path class="cls-15" d="M1206.36,393.05l1.39.35c7.36,1.41,11.53,11.27,6.36,20.39A68.19,68.19,0,0,1,1189.23,439c-9.06,5.27-19,1.22-20.46-6.12l-.18-.69a7.94,7.94,0,0,1,4.47-9,46.67,46.67,0,0,0,25.31-26A7,7,0,0,1,1206.36,393.05Z"/>
        <path class="cls-10" d="M1206.36,393.05l1.39.35c7.36,1.41,11.53,11.27,6.36,20.39A68.19,68.19,0,0,1,1189.23,439c-9.06,5.27-19,1.22-20.46-6.12l-.18-.69a7.94,7.94,0,0,1,4.47-9,46.67,46.67,0,0,0,25.31-26A7,7,0,0,1,1206.36,393.05Z"/>
      </g>
      <line class="cls-4" x1="1285.52" y1="830.61" x2="864.35" y2="830.61"/>
      <line class="cls-4" x1="868.9" y1="830.61" x2="50.54" y2="830.61"/>
      <line class="cls-4" x1="1369.89" y1="830.61" x2="1339.69" y2="830.61"/>
    </g>
    <g>
      <rect class="cls-1" x="384" y="302.43" width="187.02" height="104.77" rx="17" ry="17"/>
      <path class="cls-5" d="M537.61,407.2H398.43a13.68,13.68,0,0,1-13.69-13.68m160.4,13.69H557a13.69,13.69,0,0,0,13.69-13.69v-77.4A13.69,13.69,0,0,0,557,302.43H398.43a13.69,13.69,0,0,0-13.69,13.68v6.39"/>
      <path class="cls-5" d="M384.78,390.21V367a2.54,2.54,0,0,0-2.54-2.54H353.08a.78.78,0,0,1-.52-1.36L384,334.51a2.53,2.53,0,0,0,.83-1.88v-9.42"/>
      <g>
        <g>
          <path class="cls-7" d="M403.36,344.52h6.33v22.4h-6.33Z"/>
          <path class="cls-7" d="M467,345.53a7.83,7.83,0,0,1,3.46,2.88,7.92,7.92,0,0,1,1.21,4.4,7.84,7.84,0,0,1-1.21,4.39,7.92,7.92,0,0,1-3.46,2.86,12.79,12.79,0,0,1-5.28,1h-3.9v5.85h-6.34v-22.4h10.24A12.79,12.79,0,0,1,467,345.53Zm-2.72,9.7a3,3,0,0,0,1-2.42,3.06,3.06,0,0,0-1-2.43,4.34,4.34,0,0,0-2.94-.86h-3.52v6.56h3.52A4.44,4.44,0,0,0,464.25,355.23Z"/>
          <path class="cls-7" d="M474.72,344.52h6.33v22.4h-6.33Z"/>
          <path class="cls-7" d="M504.51,361.9v5H484.44v-4l11.3-13.41h-11v-5H504v4l-11.3,13.41Z"/>
          <path class="cls-7" d="M526.24,361.9v5H506.17v-4l11.3-13.41h-11v-5h19.3v4l-11.3,13.41Z"/>
          <path class="cls-7" d="M544,362.57h-9.48l-1.76,4.35h-6.46l9.89-22.4h6.24l9.92,22.4h-6.59Zm-1.86-4.67-2.88-7.17-2.88,7.17Z"/>
        </g>
        <path class="cls-7" d="M430.93,366.78a.91.91,0,0,1-.66-.28l-9.48-9.14a5.66,5.66,0,0,1-.42-.39c-.17-.19-.46-.52-.84-1a13.1,13.1,0,0,1-1-1.48,9,9,0,0,1-.82-1.84,6.88,6.88,0,0,1-.35-2.09,7,7,0,0,1,1.93-5.23,7.31,7.31,0,0,1,5.33-1.88,6.06,6.06,0,0,1,1.92.33,7.47,7.47,0,0,1,1.82.88c.56.37,1,.71,1.45,1a11.27,11.27,0,0,1,1.15,1,12.56,12.56,0,0,1,1.16-1,17.41,17.41,0,0,1,1.45-1,7.47,7.47,0,0,1,1.82-.88,6,6,0,0,1,1.92-.33,7.31,7.31,0,0,1,5.33,1.88,7,7,0,0,1,1.93,5.23q0,3.35-3.48,6.83l-9.46,9.11A.91.91,0,0,1,430.93,366.78Z"/>
        <g>
          <path class="cls-7" d="M430.93,366.78a.91.91,0,0,1-.66-.28l-9.48-9.14a5.66,5.66,0,0,1-.42-.39c-.17-.19-.46-.52-.84-1a13.1,13.1,0,0,1-1-1.48,9,9,0,0,1-.82-1.84,6.88,6.88,0,0,1-.35-2.09,7,7,0,0,1,1.93-5.23,7.31,7.31,0,0,1,5.33-1.88,6.06,6.06,0,0,1,1.92.33,7.47,7.47,0,0,1,1.82.88c.56.37,1,.71,1.45,1a11.27,11.27,0,0,1,1.15,1,12.56,12.56,0,0,1,1.16-1,17.41,17.41,0,0,1,1.45-1,7.47,7.47,0,0,1,1.82-.88,6,6,0,0,1,1.92-.33,7.31,7.31,0,0,1,5.33,1.88,7,7,0,0,1,1.93,5.23q0,3.35-3.48,6.83l-9.46,9.11A.91.91,0,0,1,430.93,366.78Z"/>
          <path class="cls-20" d="M430.93,366.78a.91.91,0,0,1-.66-.28l-9.48-9.14a5.66,5.66,0,0,1-.42-.39c-.17-.19-.46-.52-.84-1a13.1,13.1,0,0,1-1-1.48,9,9,0,0,1-.82-1.84,6.88,6.88,0,0,1-.35-2.09,7,7,0,0,1,1.93-5.23,7.31,7.31,0,0,1,5.33-1.88,6.06,6.06,0,0,1,1.92.33,7.47,7.47,0,0,1,1.82.88c.56.37,1,.71,1.45,1a11.27,11.27,0,0,1,1.15,1,12.56,12.56,0,0,1,1.16-1,17.41,17.41,0,0,1,1.45-1,7.47,7.47,0,0,1,1.82-.88,6,6,0,0,1,1.92-.33,7.31,7.31,0,0,1,5.33,1.88,7,7,0,0,1,1.93,5.23q0,3.35-3.48,6.83l-9.46,9.11A.91.91,0,0,1,430.93,366.78Z"/>
        </g>
      </g>
    </g>
    <g>
      <rect class="cls-1" x="803.58" y="302.43" width="187.02" height="104.77" rx="17" ry="17"/>
      <path class="cls-5" d="M907,407.2h69.18a13.68,13.68,0,0,0,13.69-13.68m-90.4,13.69H817.62a13.69,13.69,0,0,1-13.69-13.69v-77.4a13.69,13.69,0,0,1,13.69-13.68H976.17a13.69,13.69,0,0,1,13.69,13.68v6.39"/>
      <path class="cls-5" d="M989.82,390.21V367a2.54,2.54,0,0,1,2.54-2.54h29.16a.78.78,0,0,0,.52-1.36l-31.39-28.62a2.53,2.53,0,0,1-.83-1.88v-9.42"/>
      <g>
        <g>
          <path class="cls-7" d="M824.43,344.52h6.33v22.4h-6.33Z"/>
          <path class="cls-7" d="M888,345.53a7.78,7.78,0,0,1,3.46,2.88,7.92,7.92,0,0,1,1.21,4.4,7.52,7.52,0,0,1-4.67,7.25,12.79,12.79,0,0,1-5.28,1h-3.9v5.85h-6.34v-22.4h10.24A12.79,12.79,0,0,1,888,345.53Zm-2.72,9.7a3,3,0,0,0,1-2.42,3.06,3.06,0,0,0-1-2.43,4.34,4.34,0,0,0-2.94-.86h-3.52v6.56h3.52A4.44,4.44,0,0,0,885.32,355.23Z"/>
          <path class="cls-7" d="M895.79,344.52h6.33v22.4h-6.33Z"/>
          <path class="cls-7" d="M925.58,361.9v5H905.51v-4l11.3-13.41h-11v-5h19.3v4L913.8,361.9Z"/>
          <path class="cls-7" d="M947.31,361.9v5H927.24v-4l11.3-13.41h-11v-5h19.3v4l-11.3,13.41Z"/>
          <path class="cls-7" d="M965.1,362.57h-9.48l-1.76,4.35H947.4l9.89-22.4h6.24l9.92,22.4h-6.59Zm-1.86-4.67-2.88-7.17-2.88,7.17Z"/>
        </g>
        <path class="cls-7" d="M852,366.78a.91.91,0,0,1-.66-.28l-9.48-9.14a5.66,5.66,0,0,1-.42-.39c-.17-.19-.45-.52-.84-1a13.1,13.1,0,0,1-1-1.48,9,9,0,0,1-.82-1.84,6.88,6.88,0,0,1-.35-2.09,7,7,0,0,1,1.93-5.23,7.31,7.31,0,0,1,5.33-1.88,6,6,0,0,1,1.92.33,7.47,7.47,0,0,1,1.82.88,17.41,17.41,0,0,1,1.45,1,11.27,11.27,0,0,1,1.15,1,12.56,12.56,0,0,1,1.16-1,17.41,17.41,0,0,1,1.45-1,7.47,7.47,0,0,1,1.82-.88,6,6,0,0,1,1.92-.33,7.31,7.31,0,0,1,5.33,1.88,7,7,0,0,1,1.93,5.23q0,3.35-3.48,6.83l-9.46,9.11A.91.91,0,0,1,852,366.78Z"/>
        <g>
          <path class="cls-7" d="M852,366.78a.91.91,0,0,1-.66-.28l-9.48-9.14a5.66,5.66,0,0,1-.42-.39c-.17-.19-.45-.52-.84-1a13.1,13.1,0,0,1-1-1.48,9,9,0,0,1-.82-1.84,6.88,6.88,0,0,1-.35-2.09,7,7,0,0,1,1.93-5.23,7.31,7.31,0,0,1,5.33-1.88,6,6,0,0,1,1.92.33,7.47,7.47,0,0,1,1.82.88,17.41,17.41,0,0,1,1.45,1,11.27,11.27,0,0,1,1.15,1,12.56,12.56,0,0,1,1.16-1,17.41,17.41,0,0,1,1.45-1,7.47,7.47,0,0,1,1.82-.88,6,6,0,0,1,1.92-.33,7.31,7.31,0,0,1,5.33,1.88,7,7,0,0,1,1.93,5.23q0,3.35-3.48,6.83l-9.46,9.11A.91.91,0,0,1,852,366.78Z"/>
          <path class="cls-20" d="M852,366.78a.91.91,0,0,1-.66-.28l-9.48-9.14a5.66,5.66,0,0,1-.42-.39c-.17-.19-.45-.52-.84-1a13.1,13.1,0,0,1-1-1.48,9,9,0,0,1-.82-1.84,6.88,6.88,0,0,1-.35-2.09,7,7,0,0,1,1.93-5.23,7.31,7.31,0,0,1,5.33-1.88,6,6,0,0,1,1.92.33,7.47,7.47,0,0,1,1.82.88,17.41,17.41,0,0,1,1.45,1,11.27,11.27,0,0,1,1.15,1,12.56,12.56,0,0,1,1.16-1,17.41,17.41,0,0,1,1.45-1,7.47,7.47,0,0,1,1.82-.88,6,6,0,0,1,1.92-.33,7.31,7.31,0,0,1,5.33,1.88,7,7,0,0,1,1.93,5.23q0,3.35-3.48,6.83l-9.46,9.11A.91.91,0,0,1,852,366.78Z"/>
        </g>
      </g>
    </g>
    <g>
      <g>
        <line class="Graphic-Style" x1="585.74" y1="336.43" x2="594.68" y2="336.43"/>
        <polyline class="Graphic-Style" points="609.85 336.43 681.85 336.43 690.92 345.49 751.18 345.49"/>
        <line class="Graphic-Style" x1="710.02" y1="336.43" x2="755.35" y2="336.43"/>
        <polyline class="Graphic-Style" points="679.02 347.56 617.68 347.56 611.02 358.56 586.35 358.56"/>
        <line class="Graphic-Style" x1="628.35" y1="358.56" x2="699.35" y2="358.56"/>
        <line class="Graphic-Style" x1="585.74" y1="370.23" x2="626.02" y2="370.23"/>
        <line class="Graphic-Style" x1="644.18" y1="370.23" x2="686.85" y2="370.23"/>
        <polyline class="Graphic-Style" points="699.35 370.23 718.02 370.23 726.02 358.56 785.02 358.56"/>
        <line class="Graphic-Style" x1="594.68" y1="382.23" x2="609.68" y2="382.23"/>
        <polyline class="Graphic-Style" points="585.74 394.89 628.35 394.89 635.02 382.23 666.68 382.23"/>
        <line class="Graphic-Style" x1="666.68" y1="382.23" x2="717.93" y2="382.23"/>
        <line class="Graphic-Style" x1="731.68" y1="370.23" x2="769.35" y2="370.23"/>
        <line class="Graphic-Style" x1="640.35" y1="394.89" x2="666.68" y2="394.89"/>
        <line class="Graphic-Style" x1="697.02" y1="394.89" x2="775.27" y2="394.89"/>
        <line class="Graphic-Style" x1="773.02" y1="394.89" x2="786.85" y2="394.89"/>
        <line class="Graphic-Style" x1="779.69" y1="336.43" x2="786.85" y2="336.43"/>
        <line class="Graphic-Style" x1="763.68" y1="382.23" x2="786.85" y2="382.23"/>
        <polyline class="Graphic-Style" points="779.73 350.51 787.68 358.47 780.54 366.62"/>
        <polyline class="Graphic-Style" points="620.39 362.17 628.35 370.13 621.2 378.28"/>
      </g>
      <g>
        <path d="M587.59,318.19a4.86,4.86,0,0,1-1.76-2.15,8.85,8.85,0,0,1,0-6.66,4.88,4.88,0,0,1,1.76-2.14,4.52,4.52,0,0,1,2.55-.74,4.56,4.56,0,0,1,2.55.74,5,5,0,0,1,1.76,2.14,9,9,0,0,1,0,6.66,5,5,0,0,1-1.76,2.15,4.55,4.55,0,0,1-2.55.73A4.51,4.51,0,0,1,587.59,318.19Zm4.89-2a7.34,7.34,0,0,0,0-6.93,2.89,2.89,0,0,0-4.69,0,7.34,7.34,0,0,0,0,6.93,2.89,2.89,0,0,0,4.69,0Z"/>
        <path d="M604.47,312.84a3.18,3.18,0,0,1,.94,2.37,3.45,3.45,0,0,1-.52,1.88,3.59,3.59,0,0,1-1.55,1.34,5.82,5.82,0,0,1-2.53.49,8.07,8.07,0,0,1-2.5-.39,5.42,5.42,0,0,1-2-1.08l.8-1.37a4.72,4.72,0,0,0,1.6.95,6.1,6.1,0,0,0,2.06.35,3.44,3.44,0,0,0,2.11-.57,1.88,1.88,0,0,0,.75-1.58,1.82,1.82,0,0,0-.74-1.56,3.78,3.78,0,0,0-2.26-.56h-1V311.9l3-3.75h-5.84v-1.51h8v1.18l-3.17,3.92A4.39,4.39,0,0,1,604.47,312.84Z"/>
        <path d="M618.11,315.8H615.8v3h-1.68v-3h-6.75v-1.21l6.21-7.95h1.87l-6,7.67h4.67v-2.64h1.63v2.64h2.31Z"/>
        <path d="M628.39,315.75h-6.45l-1.34,3h-1.78l5.5-12.15H626l5.52,12.15h-1.82Zm-.61-1.39-2.61-5.95-2.62,5.95Z"/>
        <path d="M643.71,313.56a3.07,3.07,0,0,1,.61,1.95,2.82,2.82,0,0,1-1.19,2.43,6,6,0,0,1-3.46.85h-5.8V306.64h5.45a5.34,5.34,0,0,1,3.22.84,2.7,2.7,0,0,1,1.13,2.3,3,3,0,0,1-.44,1.65,2.84,2.84,0,0,1-1.19,1.06A3.12,3.12,0,0,1,643.71,313.56Zm-8.1-5.51v3.88h3.55a3.63,3.63,0,0,0,2.06-.49,1.82,1.82,0,0,0,0-2.9,3.63,3.63,0,0,0-2.06-.49Zm6.21,8.85a1.72,1.72,0,0,0,.74-1.53c0-1.35-1-2-3-2h-4v4h4A4.16,4.16,0,0,0,641.82,316.9Z"/>
        <path d="M655.07,317.28v1.51h-8.73v-1.18l4.95-4.77a6,6,0,0,0,1.21-1.5,2.87,2.87,0,0,0,.31-1.28,1.78,1.78,0,0,0-.66-1.48,3,3,0,0,0-1.92-.53,3.82,3.82,0,0,0-3.11,1.32l-1.17-1a4.72,4.72,0,0,1,1.86-1.35,6.66,6.66,0,0,1,2.58-.49,4.66,4.66,0,0,1,3,.92,3,3,0,0,1,1.13,2.47,4.17,4.17,0,0,1-.42,1.84,7.42,7.42,0,0,1-1.58,2l-3.71,3.58Z"/>
        <path d="M666,313.56a2.94,2.94,0,0,1,.56,1.79,3.16,3.16,0,0,1-.59,1.9,3.76,3.76,0,0,1-1.69,1.24,6.9,6.9,0,0,1-2.56.43,6.79,6.79,0,0,1-2.54-.43,3.67,3.67,0,0,1-1.68-1.24,3.16,3.16,0,0,1-.59-1.9,2.93,2.93,0,0,1,.55-1.79,3.45,3.45,0,0,1,1.59-1.14,3.06,3.06,0,0,1-1.27-1.06,2.77,2.77,0,0,1-.43-1.56,2.91,2.91,0,0,1,.54-1.75,3.5,3.5,0,0,1,1.54-1.15,6.2,6.2,0,0,1,2.29-.4,6.31,6.31,0,0,1,2.31.4,3.48,3.48,0,0,1,1.55,1.15,2.91,2.91,0,0,1,.54,1.75,2.76,2.76,0,0,1-.44,1.55,3.07,3.07,0,0,1-1.27,1.07A3.55,3.55,0,0,1,666,313.56Zm-2,3.36a1.91,1.91,0,0,0,.83-1.62,1.85,1.85,0,0,0-.83-1.59,3.89,3.89,0,0,0-2.27-.58,3.84,3.84,0,0,0-2.26.58,1.86,1.86,0,0,0-.81,1.59,1.91,1.91,0,0,0,.81,1.62,3.77,3.77,0,0,0,2.26.6A3.82,3.82,0,0,0,664,316.92Zm-4.22-8.48a1.79,1.79,0,0,0,0,2.85,3.22,3.22,0,0,0,2,.52,3.3,3.3,0,0,0,2-.52,1.76,1.76,0,0,0,0-2.85,3.35,3.35,0,0,0-2-.53A3.24,3.24,0,0,0,659.8,308.44Z"/>
        <path d="M679.27,315.8H677v3h-1.68v-3h-6.75v-1.21l6.21-7.95h1.87l-6,7.67h4.67v-2.64H677v2.64h2.31Z"/>
        <path d="M688.21,311.86a3.6,3.6,0,0,1,1.48,1.3,3.48,3.48,0,0,1,.54,1.93,3.66,3.66,0,0,1-.56,2,3.84,3.84,0,0,1-1.55,1.35,4.89,4.89,0,0,1-2.19.47,4.68,4.68,0,0,1-3.78-1.57,6.82,6.82,0,0,1-1.32-4.48,7.62,7.62,0,0,1,.72-3.46,5,5,0,0,1,2-2.17,6,6,0,0,1,3-.74,7.34,7.34,0,0,1,1.66.19,4.39,4.39,0,0,1,1.36.53l-.66,1.35a4.18,4.18,0,0,0-2.33-.57,3.81,3.81,0,0,0-3,1.17,4.85,4.85,0,0,0-1.08,3.41c0,.18,0,.33,0,.43a3.28,3.28,0,0,1,1.43-1.19,5,5,0,0,1,2.06-.41A4.94,4.94,0,0,1,688.21,311.86Zm-.41,5a2.15,2.15,0,0,0,.75-1.72,2.12,2.12,0,0,0-.76-1.71,3,3,0,0,0-2-.63,3.25,3.25,0,0,0-1.45.31,2.5,2.5,0,0,0-1,.85,2.19,2.19,0,0,0-.35,1.2,2.08,2.08,0,0,0,.34,1.17,2.39,2.39,0,0,0,1,.85,3.51,3.51,0,0,0,1.55.32A2.86,2.86,0,0,0,687.8,316.88Z"/>
        <path d="M695.18,318.12a6,6,0,0,1-2.3-2.22,6.53,6.53,0,0,1,0-6.37,6,6,0,0,1,2.31-2.22,6.72,6.72,0,0,1,3.3-.81,6.87,6.87,0,0,1,2.6.48,5.38,5.38,0,0,1,2,1.42L702,309.49a4.52,4.52,0,0,0-3.42-1.44,4.88,4.88,0,0,0-2.44.61,4.36,4.36,0,0,0-1.71,1.67,5,5,0,0,0,0,4.77,4.36,4.36,0,0,0,1.71,1.67,4.88,4.88,0,0,0,2.44.61,4.49,4.49,0,0,0,3.42-1.46l1.13,1.1a5.45,5.45,0,0,1-2,1.42,6.89,6.89,0,0,1-2.61.48A6.68,6.68,0,0,1,695.18,318.12Z"/>
        <path d="M710.54,314.59v4.2h-1.72v-4.24L704,306.64h1.86l3.88,6.4,3.91-6.4h1.71Z"/>
        <path d="M724.64,315.75h-6.45l-1.34,3h-1.78l5.5-12.15h1.71l5.52,12.15H726Zm-.6-1.39-2.62-5.95-2.62,5.95Z"/>
        <path d="M736.38,311.86a3.6,3.6,0,0,1,1.48,1.3,3.48,3.48,0,0,1,.54,1.93,3.58,3.58,0,0,1-.57,2,3.75,3.75,0,0,1-1.54,1.35,4.89,4.89,0,0,1-2.19.47,4.68,4.68,0,0,1-3.78-1.57,6.82,6.82,0,0,1-1.32-4.48,7.62,7.62,0,0,1,.72-3.46,5,5,0,0,1,2-2.17,6,6,0,0,1,3-.74,7.34,7.34,0,0,1,1.66.19,4.49,4.49,0,0,1,1.36.53l-.66,1.35a4.21,4.21,0,0,0-2.33-.57,3.81,3.81,0,0,0-3,1.17,4.85,4.85,0,0,0-1.08,3.41c0,.18,0,.33,0,.43a3.28,3.28,0,0,1,1.43-1.19,5,5,0,0,1,2.06-.41A4.94,4.94,0,0,1,736.38,311.86Zm-.41,5a2.15,2.15,0,0,0,.75-1.72,2.12,2.12,0,0,0-.76-1.71,3.05,3.05,0,0,0-2-.63,3.22,3.22,0,0,0-1.45.31,2.5,2.5,0,0,0-1,.85,2.19,2.19,0,0,0-.35,1.2,2.08,2.08,0,0,0,.34,1.17,2.42,2.42,0,0,0,1,.85,3.59,3.59,0,0,0,1.56.32A2.86,2.86,0,0,0,736,316.88Z"/>
        <path d="M744,306.64v12.15h-1.71V308.15h-2.74v-1.51Z"/>
        <path d="M754.53,312.84a3.22,3.22,0,0,1,.94,2.37,3.44,3.44,0,0,1-2.08,3.22,5.78,5.78,0,0,1-2.52.49,8,8,0,0,1-2.5-.39,5.34,5.34,0,0,1-2-1.08l.8-1.37a4.72,4.72,0,0,0,1.6.95,6.06,6.06,0,0,0,2.06.35,3.46,3.46,0,0,0,2.11-.57,1.88,1.88,0,0,0,.75-1.58,1.85,1.85,0,0,0-.74-1.56,3.78,3.78,0,0,0-2.26-.56h-1V311.9l3-3.75H747v-1.51h8v1.18l-3.17,3.92A4.39,4.39,0,0,1,754.53,312.84Z"/>
        <path d="M768.42,313.56a3,3,0,0,1,.61,1.95,2.82,2.82,0,0,1-1.19,2.43,6,6,0,0,1-3.46.85h-5.79V306.64H764a5.32,5.32,0,0,1,3.22.84,2.68,2.68,0,0,1,1.14,2.3,3,3,0,0,1-.44,1.65,3,3,0,0,1-1.19,1.06A3.09,3.09,0,0,1,768.42,313.56Zm-8.1-5.51v3.88h3.56a3.59,3.59,0,0,0,2-.49,1.82,1.82,0,0,0,0-2.9,3.59,3.59,0,0,0-2-.49Zm6.21,8.85a1.7,1.7,0,0,0,.75-1.53c0-1.35-1-2-3-2h-4v4h4A4.14,4.14,0,0,0,766.53,316.9Z"/>
        <path d="M774.48,308.15h-4.17v-1.51h10.05v1.51h-4.17v10.64h-1.71Z"/>
        <path d="M789.33,312.84a3.21,3.21,0,0,1,.93,2.37,3.45,3.45,0,0,1-.52,1.88,3.54,3.54,0,0,1-1.55,1.34,5.81,5.81,0,0,1-2.52.49,8,8,0,0,1-2.5-.39,5.34,5.34,0,0,1-2-1.08l.79-1.37a4.72,4.72,0,0,0,1.6.95,6.16,6.16,0,0,0,2.07.35,3.4,3.4,0,0,0,2.1-.57,1.86,1.86,0,0,0,.76-1.58,1.83,1.83,0,0,0-.75-1.56,3.77,3.77,0,0,0-2.25-.56h-1V311.9l3.06-3.75h-5.85v-1.51h8v1.18l-3.18,3.92A4.44,4.44,0,0,1,789.33,312.84Z"/>
      </g>
      <line class="Graphic-Style" x1="599.68" y1="347.56" x2="603.54" y2="347.56"/>
    </g>
    <g>
      <path class="cls-1" d="M653.71,375.75v23.91a6.42,6.42,0,0,0,2.33,5c.26.2,16.56,9.68,17.85,10.44.05,0,.07.05.09.05a7.6,7.6,0,0,0,.76.37,6.5,6.5,0,0,0,1.61.43,5.78,5.78,0,0,0,.83,0,5.69,5.69,0,0,0,.83,0,3.66,3.66,0,0,0,.72-.14,6.12,6.12,0,0,0,1.66-.68L713,396.18A17.57,17.57,0,0,0,721.73,381v-24.8a3.93,3.93,0,0,0-2-3.44l0,0c-.64-.37-7.05-4.08-12.05-6.93l-12.48-1.66-28.34,17.26-7.27,4.22A11.76,11.76,0,0,0,653.71,375.75Z"/>
      <path class="cls-1" d="M666.77,363.37v3.88l6.3,4,.42-.57v.57l5.53-3.09v-4.52c0-.11,0-.22,0-.33.13-8.47,5.26-18.09,11.57-21.6a10,10,0,0,1,3.31-1.2,10.26,10.26,0,0,1,.83,1.89c.06.17.11.35.16.54s.1.38.15.57.08.39.12.59.07.39.11.6v0l.06.48a19.29,19.29,0,0,1,.12,2.19v4.53l6.72,3.35,5.53-3.09v-4.52c0-.5,0-1,0-1.48l0-.47c0-.42-.06-.83-.11-1.23,0,0,0,0,0-.05,0-.19,0-.37-.07-.55s-.05-.36-.08-.54a.11.11,0,0,0,0-.05c-.07-.44-.15-.88-.25-1.31l-.18-.72c-.05-.19-.1-.37-.16-.55s-.15-.47-.22-.7l-.15-.38a6.44,6.44,0,0,0-.24-.61c-.1-.23-.19-.46-.3-.68l-.18-.36c-.08-.15-.16-.3-.25-.45l0,0-.3-.5s0,0,0,0a5.39,5.39,0,0,0-.33-.5,5.3,5.3,0,0,0-.34-.45,9.28,9.28,0,0,0-.71-.82,2.18,2.18,0,0,0-.22-.21,8.86,8.86,0,0,0-2.06-1.54c-1-1-6.83-3.52-8.08-3.93-2.71-.91-6-.5-9.47,1.45C674.44,336.21,666.77,350.72,666.77,363.37Z"/>
      <path class="cls-5" d="M670.76,409.55a6.42,6.42,0,0,0,9.64,5.55L713,396.18A17.6,17.6,0,0,0,721.74,381v-24.8a4,4,0,0,0-6-3.44l-39.16,22.74a11.75,11.75,0,0,0-5.86,10.18Z"/>
      <path class="cls-5" d="M666.84,361.34l-7.27,4.23a11.75,11.75,0,0,0-5.86,10.17v23.93a6.4,6.4,0,0,0,2.33,4.94c.27.23,17.62,10.32,17.94,10.5a6.43,6.43,0,0,0,6.42,0L713,396.18A17.6,17.6,0,0,0,721.74,381v-24.8a4,4,0,0,0-2-3.44c-.27-.16-6.94-4-12.1-7"/>
      <line class="cls-5" x1="695.29" y1="344.82" x2="681.93" y2="352.58"/>
      <path class="cls-7" d="M694.38,385.62l-1.2,11.91,7.51-4.13-1.2-10.59a11.12,11.12,0,0,0,3.19-7.06c0-3.26-2.57-4.49-5.75-2.75s-5.74,5.8-5.74,9.07C691.19,384.39,692.49,385.69,694.38,385.62Z"/>
      <path class="cls-5" d="M694.38,385.62l-1.2,11.91,7.51-4.13-1.2-10.59a11.12,11.12,0,0,0,3.19-7.06c0-3.26-2.57-4.49-5.75-2.75s-5.74,5.8-5.74,9.07C691.19,384.39,692.49,385.69,694.38,385.62Z"/>
      <path class="cls-5" d="M690.6,334.3c4.11-2.29,7.88-2.46,10.84-.87A8.86,8.86,0,0,1,703.5,335a2.18,2.18,0,0,1,.22.21,9.28,9.28,0,0,1,.71.82,5.3,5.3,0,0,1,.34.45,5.39,5.39,0,0,1,.33.5s0,0,0,0l.3.5,0,0c.09.15.17.3.25.45l.18.36c.11.22.2.45.3.68a6.44,6.44,0,0,1,.24.61l.15.38c.07.23.15.46.22.7s.11.36.16.55l.18.72c.1.43.18.87.25,1.31a.11.11,0,0,1,0,.05c0,.18.06.36.08.54s0,.36.07.55c0,0,0,0,0,.05.05.4.08.81.11,1.23l0,.47c0,.48,0,1,0,1.48v4.52l-5.53,3.09v-4.53c0-7-3.48-11-8.27-10.23a10,10,0,0,0-3.31,1.2c-6.31,3.51-11.44,13.13-11.57,21.6,0,.11,0,.22,0,.33v4.52l-5.53,3.09v-4.53C673.49,354.07,681.15,339.56,690.6,334.3Z"/>
      <path class="cls-5" d="M673.07,371.24l-6.3-4v-3.88c0-12.65,7.66-27.16,17.12-32.42,3.5-1.95,6.76-2.36,9.47-1.45,1.26.42,7.1,3,8.09,3.94m-7.54,7.06a10.26,10.26,0,0,1,.83,1.89c.06.17.11.35.16.54s.1.38.15.57.08.39.12.59.07.39.11.6v0l.06.48a19.29,19.29,0,0,1,.12,2.19v4.53l6.72,3.35"/>
    </g>
  </g>
</svg>
