<svg id="work" xmlns="http://www.w3.org/2000/svg" viewBox="0 0 1422 870">
  <defs>
    <style>
      .cls-1, .cls-3 {
        fill: #ebebeb;
      }

      .cls-1, .cls-4 {
        stroke: #4a4a4a;
      }

      .Graphic-Style-56, .cls-1, .cls-4 {
        stroke-linecap: round;
        stroke-linejoin: round;
        stroke-width: 2.5px;
      }

      .cls-2 {
        fill: #fff;
      }

      .Graphic-Style-56, .cls-4 {
        fill: none;
      }

      .Graphic-Style-56 {
        stroke: #ff0083;
      }

      .cls-5 {
        fill: #ff0083;
      }
    </style>
  </defs>
  <title>21,3</title>
  <g>
    <g>
      <rect class="cls-1" x="181.91" y="453.1" width="163.59" height="243.08" rx="7.93" ry="7.93"/>
      <polygon class="cls-2" points="340.9 495.45 338.04 497.96 338.81 497.96 338.81 543.86 338.24 544.45 338.81 544.14 338.81 587.12 339.04 647.34 340.9 649.44 340.9 690.34 185.66 690.34 185.66 457.06 340.9 457.06 340.9 495.45"/>
      <polygon class="cls-3" points="338.81 507.56 330.33 515.07 330.33 553.94 339.12 545.14 339.12 555.38 330.33 563.01 330.33 597.06 338.46 588.84 338.81 596.3 329.91 606.24 329.91 641.75 323.51 637.76 323.93 510.97 338.81 495.93 338.81 507.56"/>
      <polygon class="cls-4" points="340.9 690.34 185.66 690.34 185.66 457.06 340.9 457.06 340.9 495.45 324.21 510.06 324.21 637.76 340.9 649.44 340.9 690.34"/>
      <polyline class="cls-4" points="338.81 497.96 338.81 543.86 324.42 558.68"/>
      <polyline class="cls-4" points="338.81 544.14 338.81 587.12 324.42 601.94"/>
      <line class="cls-4" x1="338.82" y1="587.12" x2="338.82" y2="647.98"/>
      <path class="cls-1" d="M200.41,474.17a6,6,0,1,0-6,6A6,6,0,0,0,200.41,474.17Z"/>
      <path class="cls-1" d="M200.41,495.93a6,6,0,1,0-6,6A6,6,0,0,0,200.41,495.93Z"/>
      <path class="cls-1" d="M200.41,517.79a6,6,0,1,0-6,6A6,6,0,0,0,200.41,517.79Z"/>
      <path class="cls-1" d="M200.41,539.59a6,6,0,1,0-6,6A6,6,0,0,0,200.41,539.59Z"/>
      <path class="cls-1" d="M200.41,561.36a6,6,0,1,0-6,6A6,6,0,0,0,200.41,561.36Z"/>
      <path class="cls-1" d="M200.41,583.21a6,6,0,1,0-6,6A6,6,0,0,0,200.41,583.21Z"/>
      <path class="cls-1" d="M200.41,604.93a6,6,0,1,0-6,6A6,6,0,0,0,200.41,604.93Z"/>
      <path class="cls-1" d="M200.41,626.69a6,6,0,1,0-6,6A6,6,0,0,0,200.41,626.69Z"/>
      <path class="cls-1" d="M200.41,648.54a6,6,0,1,0-6,6A6,6,0,0,0,200.41,648.54Z"/>
      <path class="cls-1" d="M200.41,670.35a6,6,0,1,0-6,6A6,6,0,0,0,200.41,670.35Z"/>
      <g>
        <line class="cls-4" x1="178.43" y1="472.5" x2="195.68" y2="472.5"/>
        <line class="cls-4" x1="178.43" y1="476.12" x2="195.68" y2="476.12"/>
        <line class="cls-4" x1="178.43" y1="494.23" x2="195.68" y2="494.23"/>
        <line class="cls-4" x1="178.43" y1="497.85" x2="195.68" y2="497.85"/>
        <line class="cls-4" x1="178.43" y1="515.96" x2="195.68" y2="515.96"/>
        <line class="cls-4" x1="178.43" y1="519.58" x2="195.68" y2="519.58"/>
        <line class="cls-4" x1="178.43" y1="537.7" x2="195.68" y2="537.7"/>
        <line class="cls-4" x1="178.43" y1="541.31" x2="195.68" y2="541.31"/>
        <line class="cls-4" x1="178.43" y1="559.42" x2="195.68" y2="559.42"/>
        <line class="cls-4" x1="178.43" y1="563.04" x2="195.68" y2="563.04"/>
        <line class="cls-4" x1="178.43" y1="581.16" x2="195.68" y2="581.16"/>
        <line class="cls-4" x1="178.43" y1="584.77" x2="195.68" y2="584.77"/>
        <line class="cls-4" x1="178.43" y1="602.89" x2="195.68" y2="602.89"/>
        <line class="cls-4" x1="178.43" y1="606.5" x2="195.68" y2="606.5"/>
        <line class="cls-4" x1="178.43" y1="624.62" x2="195.68" y2="624.62"/>
        <line class="cls-4" x1="178.43" y1="628.24" x2="195.68" y2="628.24"/>
        <line class="cls-4" x1="178.43" y1="646.35" x2="195.68" y2="646.35"/>
        <line class="cls-4" x1="178.43" y1="649.96" x2="195.68" y2="649.96"/>
        <line class="cls-4" x1="178.43" y1="668.08" x2="195.68" y2="668.08"/>
        <line class="cls-4" x1="178.43" y1="671.7" x2="195.68" y2="671.7"/>
      </g>
    </g>
    <g>
      <rect class="cls-1" x="319.34" y="88.01" width="163.58" height="243.08" rx="7.93" ry="7.93"/>
      <polygon class="cls-2" points="478.33 130.37 475.47 132.87 476.25 132.87 476.25 178.77 475.67 179.37 476.25 179.05 476.25 222.03 476.47 282.25 478.33 284.35 478.33 325.25 323.1 325.25 323.1 91.97 478.33 91.97 478.33 130.37"/>
      <polygon class="cls-3" points="476.25 142.47 467.76 149.98 467.76 188.85 476.56 180.06 476.56 190.29 467.76 197.92 467.76 231.97 475.9 223.76 476.25 231.22 467.35 241.15 467.35 276.66 460.95 272.67 461.37 145.88 476.25 130.84 476.25 142.47"/>
      <polygon class="cls-4" points="478.33 325.25 323.1 325.25 323.1 91.97 478.33 91.97 478.33 130.37 461.64 144.97 461.64 272.67 478.33 284.35 478.33 325.25"/>
      <polyline class="cls-4" points="476.25 132.87 476.25 178.77 461.85 193.59"/>
      <polyline class="cls-4" points="476.25 179.05 476.25 222.03 461.85 236.85"/>
      <line class="cls-4" x1="476.25" y1="222.04" x2="476.25" y2="282.89"/>
      <path class="cls-1" d="M337.84,109.08a6,6,0,1,0-6,6A6,6,0,0,0,337.84,109.08Z"/>
      <path class="cls-1" d="M337.84,130.84a6,6,0,1,0-6,6A6,6,0,0,0,337.84,130.84Z"/>
      <path class="cls-1" d="M337.84,152.7a6,6,0,1,0-6,6A6,6,0,0,0,337.84,152.7Z"/>
      <path class="cls-1" d="M337.84,174.51a6,6,0,1,0-6,6A6,6,0,0,0,337.84,174.51Z"/>
      <path class="cls-1" d="M337.84,196.27a6,6,0,1,0-6,6A6,6,0,0,0,337.84,196.27Z"/>
      <path class="cls-1" d="M337.84,218.13a6,6,0,1,0-6,6A6,6,0,0,0,337.84,218.13Z"/>
      <path class="cls-1" d="M337.84,239.84a6,6,0,1,0-6,6A6,6,0,0,0,337.84,239.84Z"/>
      <path class="cls-1" d="M337.84,261.6a6,6,0,1,0-6,6A6,6,0,0,0,337.84,261.6Z"/>
      <path class="cls-1" d="M337.84,283.46a6,6,0,1,0-6,6A6,6,0,0,0,337.84,283.46Z"/>
      <path class="cls-1" d="M337.84,305.26a6,6,0,1,0-6,6A6,6,0,0,0,337.84,305.26Z"/>
      <g>
        <line class="cls-4" x1="315.86" y1="107.41" x2="333.11" y2="107.41"/>
        <line class="cls-4" x1="315.86" y1="111.03" x2="333.11" y2="111.03"/>
        <line class="cls-4" x1="315.86" y1="129.14" x2="333.11" y2="129.14"/>
        <line class="cls-4" x1="315.86" y1="132.76" x2="333.11" y2="132.76"/>
        <line class="cls-4" x1="315.86" y1="150.88" x2="333.11" y2="150.88"/>
        <line class="cls-4" x1="315.86" y1="154.49" x2="333.11" y2="154.49"/>
        <line class="cls-4" x1="315.86" y1="172.61" x2="333.11" y2="172.61"/>
        <line class="cls-4" x1="315.86" y1="176.22" x2="333.11" y2="176.22"/>
        <line class="cls-4" x1="315.86" y1="194.34" x2="333.11" y2="194.34"/>
        <line class="cls-4" x1="315.86" y1="197.95" x2="333.11" y2="197.95"/>
        <line class="cls-4" x1="315.86" y1="216.07" x2="333.11" y2="216.07"/>
        <line class="cls-4" x1="315.86" y1="219.68" x2="333.11" y2="219.68"/>
        <line class="cls-4" x1="315.86" y1="237.8" x2="333.11" y2="237.8"/>
        <line class="cls-4" x1="315.86" y1="241.42" x2="333.11" y2="241.42"/>
        <line class="cls-4" x1="315.86" y1="259.53" x2="333.11" y2="259.53"/>
        <line class="cls-4" x1="315.86" y1="263.15" x2="333.11" y2="263.15"/>
        <line class="cls-4" x1="315.86" y1="281.26" x2="333.11" y2="281.26"/>
        <line class="cls-4" x1="315.86" y1="284.88" x2="333.11" y2="284.88"/>
        <line class="cls-4" x1="315.86" y1="302.99" x2="333.11" y2="302.99"/>
        <line class="cls-4" x1="315.86" y1="306.61" x2="333.11" y2="306.61"/>
      </g>
    </g>
    <g>
      <rect class="cls-1" x="903.98" y="96.58" width="163.59" height="243.08" rx="7.93" ry="7.93"/>
      <polygon class="cls-2" points="1062.97 138.94 1060.11 141.44 1060.89 141.44 1060.89 187.35 1060.31 187.94 1060.89 187.63 1060.89 230.61 1061.11 290.82 1062.97 292.93 1062.97 333.82 907.74 333.82 907.74 100.55 1062.97 100.55 1062.97 138.94"/>
      <polygon class="cls-3" points="1060.89 151.04 1052.4 158.56 1052.4 197.43 1061.2 188.63 1061.2 198.86 1052.4 206.5 1052.4 240.55 1060.54 232.33 1060.89 239.79 1051.99 249.73 1051.99 285.24 1045.59 281.24 1046 154.46 1060.89 139.42 1060.89 151.04"/>
      <polygon class="cls-4" points="1062.97 333.82 907.74 333.82 907.74 100.55 1062.97 100.55 1062.97 138.94 1046.28 153.55 1046.28 281.24 1062.97 292.93 1062.97 333.82"/>
      <polyline class="cls-4" points="1060.89 141.44 1060.89 187.35 1046.49 202.16"/>
      <polyline class="cls-4" points="1060.89 187.63 1060.89 230.61 1046.49 245.42"/>
      <line class="cls-4" x1="1060.89" y1="230.61" x2="1060.89" y2="291.47"/>
      <path class="cls-1" d="M922.48,117.66a6,6,0,1,0-6,6A6,6,0,0,0,922.48,117.66Z"/>
      <path class="cls-1" d="M922.48,139.42a6,6,0,1,0-6,6A6,6,0,0,0,922.48,139.42Z"/>
      <circle class="cls-1" cx="916.5" cy="161.27" r="5.98"/>
      <path class="cls-1" d="M922.48,183.08a6,6,0,1,0-6,6A6,6,0,0,0,922.48,183.08Z"/>
      <path class="cls-1" d="M922.48,204.84a6,6,0,1,0-6,6A6,6,0,0,0,922.48,204.84Z"/>
      <circle class="cls-1" cx="916.5" cy="226.7" r="5.98"/>
      <path class="cls-1" d="M922.48,248.42a6,6,0,1,0-6,6A6,6,0,0,0,922.48,248.42Z"/>
      <path class="cls-1" d="M922.48,270.18a6,6,0,1,0-6,6A6,6,0,0,0,922.48,270.18Z"/>
      <path class="cls-1" d="M922.48,292a6,6,0,1,0-6,6A6,6,0,0,0,922.48,292Z"/>
      <path class="cls-1" d="M922.48,313.84a6,6,0,1,0-6,6A6,6,0,0,0,922.48,313.84Z"/>
      <g>
        <line class="cls-4" x1="900.5" y1="115.99" x2="917.75" y2="115.99"/>
        <line class="cls-4" x1="900.5" y1="119.6" x2="917.75" y2="119.6"/>
        <line class="cls-4" x1="900.5" y1="137.72" x2="917.75" y2="137.72"/>
        <line class="cls-4" x1="900.5" y1="141.33" x2="917.75" y2="141.33"/>
        <line class="cls-4" x1="900.5" y1="159.45" x2="917.75" y2="159.45"/>
        <line class="cls-4" x1="900.5" y1="163.07" x2="917.75" y2="163.07"/>
        <line class="cls-4" x1="900.5" y1="181.18" x2="917.75" y2="181.18"/>
        <line class="cls-4" x1="900.5" y1="184.8" x2="917.75" y2="184.8"/>
        <line class="cls-4" x1="900.5" y1="202.91" x2="917.75" y2="202.91"/>
        <line class="cls-4" x1="900.5" y1="206.53" x2="917.75" y2="206.53"/>
        <line class="cls-4" x1="900.5" y1="224.64" x2="917.75" y2="224.64"/>
        <line class="cls-4" x1="900.5" y1="228.26" x2="917.75" y2="228.26"/>
        <line class="cls-4" x1="900.5" y1="246.38" x2="917.75" y2="246.38"/>
        <line class="cls-4" x1="900.5" y1="249.99" x2="917.75" y2="249.99"/>
        <line class="cls-4" x1="900.5" y1="268.1" x2="917.75" y2="268.1"/>
        <line class="cls-4" x1="900.5" y1="271.72" x2="917.75" y2="271.72"/>
        <line class="cls-4" x1="900.5" y1="289.84" x2="917.75" y2="289.84"/>
        <line class="cls-4" x1="900.5" y1="293.45" x2="917.75" y2="293.45"/>
        <line class="cls-4" x1="900.5" y1="311.57" x2="917.75" y2="311.57"/>
        <line class="cls-4" x1="900.5" y1="315.18" x2="917.75" y2="315.18"/>
      </g>
    </g>
    <g>
      <rect class="cls-1" x="1044.99" y="465.7" width="163.58" height="243.08" rx="7.93" ry="7.93"/>
      <polygon class="cls-2" points="1203.98 508.06 1201.12 510.56 1201.9 510.56 1201.9 556.46 1201.32 557.06 1201.9 556.74 1201.9 599.73 1202.12 659.94 1203.98 662.04 1203.98 702.94 1048.74 702.94 1048.74 469.67 1203.98 469.67 1203.98 508.06"/>
      <polygon class="cls-3" points="1201.9 520.16 1193.41 527.67 1193.41 566.54 1202.21 557.75 1202.21 567.98 1193.41 575.61 1193.41 609.66 1201.55 601.45 1201.9 608.91 1193 618.85 1193 654.35 1186.6 650.36 1187.02 523.58 1201.9 508.54 1201.9 520.16"/>
      <polygon class="cls-4" points="1203.98 702.94 1048.74 702.94 1048.74 469.67 1203.98 469.67 1203.98 508.06 1187.29 522.66 1187.29 650.36 1203.98 662.05 1203.98 702.94"/>
      <polyline class="cls-4" points="1201.9 510.56 1201.9 556.46 1187.5 571.28"/>
      <polyline class="cls-4" points="1201.9 556.74 1201.9 599.73 1187.5 614.54"/>
      <line class="cls-4" x1="1201.9" y1="599.73" x2="1201.9" y2="660.58"/>
      <path class="cls-1" d="M1063.49,486.77a6,6,0,1,0-6,6A6,6,0,0,0,1063.49,486.77Z"/>
      <path class="cls-1" d="M1063.49,508.54a6,6,0,1,0-6,6A6,6,0,0,0,1063.49,508.54Z"/>
      <path class="cls-1" d="M1063.49,530.39a6,6,0,1,0-6,6A6,6,0,0,0,1063.49,530.39Z"/>
      <path class="cls-1" d="M1063.49,552.2a6,6,0,1,0-6,6A6,6,0,0,0,1063.49,552.2Z"/>
      <path class="cls-1" d="M1063.49,574a6,6,0,1,0-6,6A6,6,0,0,0,1063.49,574Z"/>
      <path class="cls-1" d="M1063.49,595.82a6,6,0,1,0-6,6A6,6,0,0,0,1063.49,595.82Z"/>
      <path class="cls-1" d="M1063.49,617.53a6,6,0,1,0-6,6A6,6,0,0,0,1063.49,617.53Z"/>
      <path class="cls-1" d="M1063.49,639.29a6,6,0,1,0-6,6A6,6,0,0,0,1063.49,639.29Z"/>
      <path class="cls-1" d="M1063.49,661.15a6,6,0,1,0-6,6A6,6,0,0,0,1063.49,661.15Z"/>
      <path class="cls-1" d="M1063.49,683a6,6,0,1,0-6,6A6,6,0,0,0,1063.49,683Z"/>
      <g>
        <line class="cls-4" x1="1041.51" y1="485.1" x2="1058.76" y2="485.1"/>
        <line class="cls-4" x1="1041.51" y1="488.72" x2="1058.76" y2="488.72"/>
        <line class="cls-4" x1="1041.51" y1="506.84" x2="1058.76" y2="506.84"/>
        <line class="cls-4" x1="1041.51" y1="510.45" x2="1058.76" y2="510.45"/>
        <line class="cls-4" x1="1041.51" y1="528.57" x2="1058.76" y2="528.57"/>
        <line class="cls-4" x1="1041.51" y1="532.18" x2="1058.76" y2="532.18"/>
        <line class="cls-4" x1="1041.51" y1="550.3" x2="1058.76" y2="550.3"/>
        <line class="cls-4" x1="1041.51" y1="553.92" x2="1058.76" y2="553.92"/>
        <line class="cls-4" x1="1041.51" y1="572.03" x2="1058.76" y2="572.03"/>
        <line class="cls-4" x1="1041.51" y1="575.64" x2="1058.76" y2="575.64"/>
        <line class="cls-4" x1="1041.51" y1="593.76" x2="1058.76" y2="593.76"/>
        <line class="cls-4" x1="1041.51" y1="597.38" x2="1058.76" y2="597.38"/>
        <line class="cls-4" x1="1041.51" y1="615.49" x2="1058.76" y2="615.49"/>
        <line class="cls-4" x1="1041.51" y1="619.11" x2="1058.76" y2="619.11"/>
        <line class="cls-4" x1="1041.51" y1="637.22" x2="1058.76" y2="637.22"/>
        <line class="cls-4" x1="1041.51" y1="640.84" x2="1058.76" y2="640.84"/>
        <line class="cls-4" x1="1041.51" y1="658.95" x2="1058.76" y2="658.95"/>
        <line class="cls-4" x1="1041.51" y1="662.57" x2="1058.76" y2="662.57"/>
        <line class="cls-4" x1="1041.51" y1="680.69" x2="1058.76" y2="680.69"/>
        <line class="cls-4" x1="1041.51" y1="684.3" x2="1058.76" y2="684.3"/>
      </g>
    </g>
    <g>
      <rect class="cls-1" x="766.85" y="587.06" width="163.59" height="243.08" rx="7.93" ry="7.93"/>
      <polygon class="cls-2" points="925.85 629.42 922.98 631.92 923.76 631.92 923.76 677.83 923.18 678.42 923.76 678.1 923.76 721.09 923.98 781.3 925.85 783.4 925.85 824.3 770.61 824.3 770.61 591.02 925.85 591.02 925.85 629.42"/>
      <polygon class="cls-3" points="923.76 641.52 915.27 649.03 915.27 687.9 924.07 679.11 924.07 689.34 915.27 696.97 915.27 731.02 923.41 722.8 923.76 730.27 914.86 740.21 914.86 775.71 908.46 771.72 908.88 644.93 923.76 629.9 923.76 641.52"/>
      <polygon class="cls-4" points="925.85 824.3 770.61 824.3 770.61 591.02 925.85 591.02 925.85 629.42 909.15 644.02 909.15 771.72 925.85 783.4 925.85 824.3"/>
      <polyline class="cls-4" points="923.76 631.92 923.76 677.83 909.36 692.64"/>
      <polyline class="cls-4" points="923.76 678.1 923.76 721.09 909.36 735.9"/>
      <line class="cls-4" x1="923.76" y1="721.09" x2="923.76" y2="781.95"/>
      <path class="cls-1" d="M785.35,608.13a6,6,0,1,0-6,6A6,6,0,0,0,785.35,608.13Z"/>
      <path class="cls-1" d="M785.35,629.9a6,6,0,1,0-6,6A6,6,0,0,0,785.35,629.9Z"/>
      <path class="cls-1" d="M785.35,651.75a6,6,0,1,0-6,6A6,6,0,0,0,785.35,651.75Z"/>
      <path class="cls-1" d="M785.35,673.56a6,6,0,1,0-6,6A6,6,0,0,0,785.35,673.56Z"/>
      <path class="cls-1" d="M785.35,695.32a6,6,0,1,0-6,6A6,6,0,0,0,785.35,695.32Z"/>
      <path class="cls-1" d="M785.35,717.18a6,6,0,1,0-6,6A6,6,0,0,0,785.35,717.18Z"/>
      <path class="cls-1" d="M785.35,738.89a6,6,0,1,0-6,6A6,6,0,0,0,785.35,738.89Z"/>
      <path class="cls-1" d="M785.35,760.65a6,6,0,1,0-6,6A6,6,0,0,0,785.35,760.65Z"/>
      <path class="cls-1" d="M785.35,782.51a6,6,0,1,0-6,6A6,6,0,0,0,785.35,782.51Z"/>
      <path class="cls-1" d="M785.35,804.32a6,6,0,1,0-6,6A6,6,0,0,0,785.35,804.32Z"/>
      <g>
        <line class="cls-4" x1="763.37" y1="606.46" x2="780.62" y2="606.46"/>
        <line class="cls-4" x1="763.37" y1="610.08" x2="780.62" y2="610.08"/>
        <line class="cls-4" x1="763.37" y1="628.19" x2="780.62" y2="628.19"/>
        <line class="cls-4" x1="763.37" y1="631.81" x2="780.62" y2="631.81"/>
        <line class="cls-4" x1="763.37" y1="649.93" x2="780.62" y2="649.93"/>
        <line class="cls-4" x1="763.37" y1="653.54" x2="780.62" y2="653.54"/>
        <line class="cls-4" x1="763.37" y1="671.66" x2="780.62" y2="671.66"/>
        <line class="cls-4" x1="763.37" y1="675.27" x2="780.62" y2="675.27"/>
        <line class="cls-4" x1="763.37" y1="693.39" x2="780.62" y2="693.39"/>
        <line class="cls-4" x1="763.37" y1="697" x2="780.62" y2="697"/>
        <line class="cls-4" x1="763.37" y1="715.12" x2="780.62" y2="715.12"/>
        <line class="cls-4" x1="763.37" y1="718.74" x2="780.62" y2="718.74"/>
        <line class="cls-4" x1="763.37" y1="736.85" x2="780.62" y2="736.85"/>
        <line class="cls-4" x1="763.37" y1="740.47" x2="780.62" y2="740.47"/>
        <line class="cls-4" x1="763.37" y1="758.58" x2="780.62" y2="758.58"/>
        <line class="cls-4" x1="763.37" y1="762.2" x2="780.62" y2="762.2"/>
        <line class="cls-4" x1="763.37" y1="780.31" x2="780.62" y2="780.31"/>
        <line class="cls-4" x1="763.37" y1="783.93" x2="780.62" y2="783.93"/>
        <line class="cls-4" x1="763.37" y1="802.04" x2="780.62" y2="802.04"/>
        <line class="cls-4" x1="763.37" y1="805.66" x2="780.62" y2="805.66"/>
      </g>
    </g>
    <g>
      <rect class="cls-1" x="459.87" y="575.65" width="163.58" height="243.08" rx="7.93" ry="7.93"/>
      <polygon class="cls-2" points="618.87 618.01 616.01 620.52 616.78 620.52 616.78 666.42 616.21 667.01 616.78 666.7 616.78 709.68 617 769.89 618.87 772 618.87 812.9 463.63 812.9 463.63 579.62 618.87 579.62 618.87 618.01"/>
      <polygon class="cls-3" points="616.78 630.11 608.3 637.63 608.3 676.5 617.09 667.7 617.09 677.93 608.3 685.57 608.3 719.62 616.43 711.4 616.78 718.86 607.88 728.8 607.88 764.31 601.48 760.31 601.9 633.53 616.78 618.49 616.78 630.11"/>
      <polygon class="cls-4" points="618.87 812.9 463.63 812.9 463.63 579.62 618.87 579.62 618.87 618.01 602.17 632.62 602.17 760.31 618.87 772 618.87 812.9"/>
      <polyline class="cls-4" points="616.78 620.52 616.78 666.42 602.38 681.23"/>
      <polyline class="cls-4" points="616.78 666.7 616.78 709.68 602.38 724.5"/>
      <line class="cls-4" x1="616.78" y1="709.68" x2="616.78" y2="770.54"/>
      <path class="cls-1" d="M478.38,596.73a6,6,0,1,0-6,6A6,6,0,0,0,478.38,596.73Z"/>
      <path class="cls-1" d="M478.38,618.49a6,6,0,1,0-6,6A6,6,0,0,0,478.38,618.49Z"/>
      <path class="cls-1" d="M478.38,640.34a6,6,0,1,0-6,6A6,6,0,0,0,478.38,640.34Z"/>
      <path class="cls-1" d="M478.38,662.15a6,6,0,1,0-6,6A6,6,0,0,0,478.38,662.15Z"/>
      <path class="cls-1" d="M478.38,683.92a6,6,0,1,0-6,6A6,6,0,0,0,478.38,683.92Z"/>
      <path class="cls-1" d="M478.38,705.77a6,6,0,1,0-6,6A6,6,0,0,0,478.38,705.77Z"/>
      <path class="cls-1" d="M478.38,727.49a6,6,0,1,0-6,6A6,6,0,0,0,478.38,727.49Z"/>
      <path class="cls-1" d="M478.38,749.25a6,6,0,1,0-6,6A6,6,0,0,0,478.38,749.25Z"/>
      <path class="cls-1" d="M478.38,771.1a6,6,0,1,0-6,6A6,6,0,0,0,478.38,771.1Z"/>
      <path class="cls-1" d="M478.38,792.91a6,6,0,1,0-6,6A6,6,0,0,0,478.38,792.91Z"/>
      <g>
        <line class="cls-4" x1="456.4" y1="595.06" x2="473.64" y2="595.06"/>
        <line class="cls-4" x1="456.4" y1="598.67" x2="473.64" y2="598.67"/>
        <line class="cls-4" x1="456.4" y1="616.79" x2="473.64" y2="616.79"/>
        <line class="cls-4" x1="456.4" y1="620.41" x2="473.64" y2="620.41"/>
        <line class="cls-4" x1="456.4" y1="638.52" x2="473.64" y2="638.52"/>
        <line class="cls-4" x1="456.4" y1="642.14" x2="473.64" y2="642.14"/>
        <line class="cls-4" x1="456.4" y1="660.25" x2="473.64" y2="660.25"/>
        <line class="cls-4" x1="456.4" y1="663.87" x2="473.64" y2="663.87"/>
        <line class="cls-4" x1="456.4" y1="681.98" x2="473.64" y2="681.98"/>
        <line class="cls-4" x1="456.4" y1="685.6" x2="473.64" y2="685.6"/>
        <line class="cls-4" x1="456.4" y1="703.72" x2="473.64" y2="703.72"/>
        <line class="cls-4" x1="456.4" y1="707.33" x2="473.64" y2="707.33"/>
        <line class="cls-4" x1="456.4" y1="725.44" x2="473.64" y2="725.44"/>
        <line class="cls-4" x1="456.4" y1="729.06" x2="473.64" y2="729.06"/>
        <line class="cls-4" x1="456.4" y1="747.18" x2="473.64" y2="747.18"/>
        <line class="cls-4" x1="456.4" y1="750.79" x2="473.64" y2="750.79"/>
        <line class="cls-4" x1="456.4" y1="768.91" x2="473.64" y2="768.91"/>
        <line class="cls-4" x1="456.4" y1="772.52" x2="473.64" y2="772.52"/>
        <line class="cls-4" x1="456.4" y1="790.64" x2="473.64" y2="790.64"/>
        <line class="cls-4" x1="456.4" y1="794.26" x2="473.64" y2="794.26"/>
      </g>
    </g>
    <g>
      <rect class="cls-1" x="614.6" y="30.94" width="163.59" height="243.08" rx="7.93" ry="7.93"/>
      <polygon class="cls-2" points="773.59 73.29 770.73 75.8 771.51 75.8 771.51 121.7 770.93 122.29 771.51 121.98 771.51 164.96 771.73 225.17 773.59 227.28 773.59 268.18 618.35 268.18 618.35 34.9 773.59 34.9 773.59 73.29"/>
      <polygon class="cls-3" points="771.51 85.39 763.02 92.91 763.02 131.78 771.82 122.98 771.82 133.22 763.02 140.85 763.02 174.9 771.15 166.68 771.51 174.14 762.6 184.08 762.6 219.59 756.21 215.6 756.62 88.81 771.51 73.77 771.51 85.39"/>
      <polygon class="cls-4" points="773.59 268.18 618.35 268.18 618.35 34.9 773.59 34.9 773.59 73.29 756.9 87.9 756.9 215.6 773.59 227.28 773.59 268.18"/>
      <polyline class="cls-4" points="771.51 75.8 771.51 121.7 757.11 136.51"/>
      <polyline class="cls-4" points="771.51 121.98 771.51 164.96 757.11 179.78"/>
      <line class="cls-4" x1="771.51" y1="164.96" x2="771.51" y2="225.82"/>
      <path class="cls-1" d="M633.1,52a6,6,0,1,0-6,6A6,6,0,0,0,633.1,52Z"/>
      <path class="cls-1" d="M633.1,73.77a6,6,0,1,0-6,6A6,6,0,0,0,633.1,73.77Z"/>
      <path class="cls-1" d="M633.1,95.63a6,6,0,1,0-6,6A6,6,0,0,0,633.1,95.63Z"/>
      <path class="cls-1" d="M633.1,117.44a6,6,0,1,0-6,6A6,6,0,0,0,633.1,117.44Z"/>
      <path class="cls-1" d="M633.1,139.2a6,6,0,1,0-6,6A6,6,0,0,0,633.1,139.2Z"/>
      <path class="cls-1" d="M633.1,161.05a6,6,0,1,0-6,6A6,6,0,0,0,633.1,161.05Z"/>
      <path class="cls-1" d="M633.1,182.77a6,6,0,1,0-6,6A6,6,0,0,0,633.1,182.77Z"/>
      <path class="cls-1" d="M633.1,204.53a6,6,0,1,0-6,6A6,6,0,0,0,633.1,204.53Z"/>
      <path class="cls-1" d="M633.1,226.39a6,6,0,1,0-6,6A6,6,0,0,0,633.1,226.39Z"/>
      <path class="cls-1" d="M633.1,248.19a6,6,0,1,0-6,6A6,6,0,0,0,633.1,248.19Z"/>
      <g>
        <line class="cls-4" x1="611.12" y1="50.34" x2="628.37" y2="50.34"/>
        <line class="cls-4" x1="611.12" y1="53.96" x2="628.37" y2="53.96"/>
        <line class="cls-4" x1="611.12" y1="72.07" x2="628.37" y2="72.07"/>
        <line class="cls-4" x1="611.12" y1="75.69" x2="628.37" y2="75.69"/>
        <line class="cls-4" x1="611.12" y1="93.8" x2="628.37" y2="93.8"/>
        <line class="cls-4" x1="611.12" y1="97.42" x2="628.37" y2="97.42"/>
        <line class="cls-4" x1="611.12" y1="115.53" x2="628.37" y2="115.53"/>
        <line class="cls-4" x1="611.12" y1="119.15" x2="628.37" y2="119.15"/>
        <line class="cls-4" x1="611.12" y1="137.26" x2="628.37" y2="137.26"/>
        <line class="cls-4" x1="611.12" y1="140.88" x2="628.37" y2="140.88"/>
        <line class="cls-4" x1="611.12" y1="159" x2="628.37" y2="159"/>
        <line class="cls-4" x1="611.12" y1="162.61" x2="628.37" y2="162.61"/>
        <line class="cls-4" x1="611.12" y1="180.73" x2="628.37" y2="180.73"/>
        <line class="cls-4" x1="611.12" y1="184.34" x2="628.37" y2="184.34"/>
        <line class="cls-4" x1="611.12" y1="202.46" x2="628.37" y2="202.46"/>
        <line class="cls-4" x1="611.12" y1="206.07" x2="628.37" y2="206.07"/>
        <line class="cls-4" x1="611.12" y1="224.19" x2="628.37" y2="224.19"/>
        <line class="cls-4" x1="611.12" y1="227.8" x2="628.37" y2="227.8"/>
        <line class="cls-4" x1="611.12" y1="245.92" x2="628.37" y2="245.92"/>
        <line class="cls-4" x1="611.12" y1="249.54" x2="628.37" y2="249.54"/>
      </g>
    </g>
    <g>
      <polyline class="Graphic-Style-56" points="505.77 240.56 550 240.56 560.03 250.59 597.29 250.59"/>
      <line class="Graphic-Style-56" x1="511.35" y1="255.17" x2="528.14" y2="255.17"/>
      <polyline class="Graphic-Style-56" points="511.35 294.85 559.7 294.85 589.04 324.19"/>
      <polyline class="Graphic-Style-56" points="505.77 306.81 551.53 306.81 581.05 336.33 837.66 336.33 857.14 316.86 878.62 316.86"/>
      <line class="Graphic-Style-56" x1="798.05" y1="230.54" x2="878.62" y2="230.54"/>
      <polyline class="Graphic-Style-56" points="792.68 218.44 830.28 218.44 842.96 205.76 884.66 205.76"/>
      <line class="Graphic-Style-56" x1="846.91" y1="218.8" x2="875.93" y2="218.8"/>
      <line class="Graphic-Style-56" x1="637.78" y1="294.85" x2="637.78" y2="320.78"/>
      <line class="Graphic-Style-56" x1="631.8" y1="345.6" x2="612.2" y2="365.21"/>
      <line class="Graphic-Style-56" x1="589.04" y1="387.23" x2="522.83" y2="453.43"/>
      <polyline class="Graphic-Style-56" points="482.18 490.22 435.01 537.39 435.01 549.66 411.02 549.66 382.95 577.73 371.03 577.73"/>
      <polyline class="Graphic-Style-56" points="585.88 359.03 621.43 394.58 644.29 394.58 817.82 568.11"/>
      <line class="Graphic-Style-56" x1="692.19" y1="298.64" x2="692.19" y2="322.64"/>
      <line class="Graphic-Style-56" x1="692.19" y1="345.6" x2="692.19" y2="429.46"/>
      <polyline class="Graphic-Style-56" points="692.19 453.43 692.19 463.57 799.05 570.43"/>
      <polyline class="Graphic-Style-56" points="708.75 299.24 708.75 438.26 799.6 529.11 935.02 529.11 964.74 558.82 1023.65 558.82"/>
      <line class="Graphic-Style-56" x1="652.35" y1="558.83" x2="707.67" y2="503.51"/>
      <polyline class="Graphic-Style-56" points="751.72 459.07 777.87 432.93 875.93 432.94 928.53 380.34 928.53 359.03"/>
      <polyline class="Graphic-Style-56" points="944.42 359.03 944.42 391.26 888.91 446.77 888.91 513.94"/>
      <line class="Graphic-Style-56" x1="888.91" y1="538.39" x2="888.91" y2="565.45"/>
      <polyline class="Graphic-Style-56" points="960.53 359.03 960.53 429.46 981.72 450.64"/>
      <polyline class="Graphic-Style-56" points="975.01 359.03 975.01 420.33 1001.92 447.23 1001.92 470.17 1020.6 488.86"/>
      <polyline class="Graphic-Style-56" points="652.35 294.85 652.35 348.47 625.05 375.78"/>
      <line class="Graphic-Style-56" x1="602.67" y1="401.33" x2="521.3" y2="482.7"/>
      <polyline class="Graphic-Style-56" points="450.93 355.4 450.93 429.03 495.62 473.72 495.62 500.02 514.42 518.82 514.42 551.92"/>
      <polyline class="Graphic-Style-56" points="430.78 355.4 430.78 424.83 408.76 446.85"/>
      <polyline class="Graphic-Style-56" points="411.02 352.99 411.02 411.4 388.15 434.28 388.15 474.52 360.33 502.33"/>
      <line class="Graphic-Style-56" x1="944.42" y1="651.43" x2="1020.6" y2="651.43"/>
      <polyline class="Graphic-Style-56" points="939.05 668.9 982.51 668.9 999.61 686 1029.02 686"/>
      <polyline class="Graphic-Style-56" points="742.99 670.34 692.19 670.34 671.05 691.48 644.29 691.48"/>
      <line class="Graphic-Style-56" x1="644.29" y1="659.04" x2="669.81" y2="659.04"/>
      <line class="Graphic-Style-56" x1="693.64" y1="687.81" x2="742.99" y2="687.81"/>
      <polyline class="Graphic-Style-56" points="353.57 662.96 393.86 662.96 402.16 671.27 445.22 671.27"/>
      <line class="Graphic-Style-56" x1="356.59" y1="648.86" x2="445.22" y2="648.86"/>
      <line class="Graphic-Style-56" x1="364.65" y1="676.05" x2="387.31" y2="676.05"/>
    </g>
    <path class="cls-5" d="M526.68,716.76a6.23,6.23,0,0,1-4.28-1.7l-22.7-21.39a6.25,6.25,0,0,1,8.57-9.09l18.32,17.26,48-47.2a6.24,6.24,0,0,1,8.76,8.9L531.06,715A6.21,6.21,0,0,1,526.68,716.76Z"/>
    <path class="cls-5" d="M832.86,737.45a6.19,6.19,0,0,1-4.28-1.7l-22.69-21.39a6.25,6.25,0,0,1,8.57-9.09l18.31,17.26,48-47.2a6.25,6.25,0,0,1,8.77,8.91l-52.26,51.42A6.22,6.22,0,0,1,832.86,737.45Z"/>
    <path class="cls-5" d="M1112.19,617.88a6.19,6.19,0,0,1-4.28-1.7l-22.69-21.39a6.25,6.25,0,0,1,8.57-9.09L1112.1,603l48-47.2a6.24,6.24,0,0,1,8.76,8.9l-52.26,51.42A6.22,6.22,0,0,1,1112.19,617.88Z"/>
    <path class="cls-5" d="M971.37,249.58a6.23,6.23,0,0,1-4.28-1.7L944.4,226.49A6.25,6.25,0,0,1,953,217.4l18.31,17.26,48-47.2a6.24,6.24,0,0,1,8.76,8.9l-52.26,51.43A6.22,6.22,0,0,1,971.37,249.58Z"/>
    <path class="cls-5" d="M680.61,183.44a6.19,6.19,0,0,1-4.28-1.7l-22.7-21.39a6.25,6.25,0,0,1,8.57-9.09l18.32,17.27,48-47.2a6.24,6.24,0,1,1,8.76,8.9L685,181.65A6.24,6.24,0,0,1,680.61,183.44Z"/>
    <path class="cls-5" d="M385.35,236.61a6.19,6.19,0,0,1-4.28-1.7l-22.69-21.39a6.25,6.25,0,0,1,8.57-9.09l18.31,17.27,48-47.2a6.25,6.25,0,1,1,8.77,8.9l-52.26,51.42A6.22,6.22,0,0,1,385.35,236.61Z"/>
    <path class="cls-5" d="M252.6,596.17a6.23,6.23,0,0,1-4.28-1.7l-22.7-21.39a6.25,6.25,0,0,1,8.57-9.09l18.32,17.26,48-47.2a6.24,6.24,0,0,1,8.76,8.9L257,594.38A6.24,6.24,0,0,1,252.6,596.17Z"/>
  </g>
</svg>
