<svg id="work" xmlns="http://www.w3.org/2000/svg" viewBox="0 0 1422 870">
  <defs>
    <style>
      .cls-1, .cls-15, .cls-6, .cls-8 {
        fill: #fff;
      }

      .cls-10, .cls-19, .cls-2 {
        fill: #ebebeb;
      }

      .cls-11, .cls-14, .cls-17, .cls-18, .cls-3, .cls-4, .cls-5, .cls-9 {
        fill: none;
      }

      .cls-10, .cls-11, .cls-12, .cls-14, .cls-16, .cls-19, .cls-3, .cls-4, .cls-5, .cls-6, .cls-7, .cls-8 {
        stroke: #4a4a4a;
      }

      .cls-10, .cls-11, .cls-12, .cls-14, .cls-15, .cls-16, .cls-3 {
        stroke-miterlimit: 10;
      }

      .cls-16, .cls-3, .cls-4, .cls-9 {
        stroke-width: 4px;
      }

      .cls-14, .cls-17, .cls-18, .cls-19, .cls-4, .cls-5, .cls-6, .cls-7, .cls-8, .cls-9 {
        stroke-linecap: round;
      }

      .cls-17, .cls-18, .cls-19, .cls-4, .cls-5, .cls-6, .cls-7, .cls-8, .cls-9 {
        stroke-linejoin: round;
      }

      .cls-10, .cls-11, .cls-12, .cls-14, .cls-17, .cls-18, .cls-19, .cls-5, .cls-7, .cls-8 {
        stroke-width: 2.5px;
      }

      .cls-6 {
        stroke-width: 1.5px;
      }

      .cls-20, .cls-7 {
        fill: #ff0083;
      }

      .cls-9 {
        stroke: #494949;
      }

      .cls-12, .cls-13, .cls-16 {
        fill: #ebeaea;
      }

      .cls-15 {
        stroke: #4a5999;
      }

      .cls-17, .cls-18 {
        stroke: #ff0083;
      }

      .cls-18 {
        stroke-dasharray: 20 15 2;
      }
    </style>
  </defs>
  <title>23,2</title>
  <g>
    <path class="cls-1" d="M317.33,716.11v74.67c0,17.66,94.34,22,94.34-12.34,0,21.67,77.33,18.34,77.33,5,0-4.33.06-74.87.06-74.87Z"/>
    <path class="cls-1" d="M921.33,604.78v190c0,17.66,94.34,17.5,94.34-12.34,0,21.67,90.33,23.84,90.33-15.66,0-4.34.06-169.55.06-169.55Z"/>
    <g>
      <g>
        <path class="cls-2" d="M351.29,710.11a5.38,5.38,0,0,1-5.22,6.69H277.13a4.76,4.76,0,0,1-4.65-6.06l13-45.25h54.66Z"/>
        <path class="cls-3" d="M351.29,710.11a5.38,5.38,0,0,1-5.22,6.69H277.13a4.76,4.76,0,0,1-4.65-6.06l13-45.25h54.66Z"/>
        <path class="cls-2" d="M324.34,678.22H301.19C277,678.22,268,658.61,268,634.43V470.58a43.8,43.8,0,0,1,43.79-43.79h0a43.79,43.79,0,0,1,43.78,43.79V634.43C355.58,658.61,348.52,678.22,324.34,678.22Z"/>
        <path class="cls-3" d="M324.34,678.22H301.19C277,678.22,268,658.61,268,634.43V470.58a43.8,43.8,0,0,1,43.79-43.79h0a43.79,43.79,0,0,1,43.78,43.79V634.43C355.58,658.61,348.52,678.22,324.34,678.22Z"/>
      </g>
      <path class="cls-1" d="M310.9,715.43l-2.21-5.31a11.51,11.51,0,0,1-.9-4.44V633.49L303.13,625a42.46,42.46,0,0,1-5.26-20.47V496a58.66,58.66,0,0,1,58.66-58.66H465.78A58.65,58.65,0,0,1,524.45,496V710.47h-4.06v30.11s-.86,22-31.32,22V707.92c-13.13,19.33-81.8,40-171,10.18Z"/>
      <path class="cls-4" d="M489,710.46h35.45V496a58.66,58.66,0,0,0-58.66-58.67H356.53A58.66,58.66,0,0,0,297.87,496V604.57A42.36,42.36,0,0,0,303.14,625l4.66,8.45v72.19a11.59,11.59,0,0,0,.88,4.43l2.22,5.32"/>
      <path class="cls-5" d="M489.06,523V708.57c-19.12,38.21-171.79,26.68-181.26,0"/>
      <path class="cls-6" d="M441,420c-15.21,9.31-26.7,9.93-42.52,0"/>
      <path class="cls-6" d="M429.79,390.46a13.66,13.66,0,1,1,27.31,0"/>
      <path class="cls-6" d="M384.78,390.46a13.66,13.66,0,1,1,27.31,0"/>
      <g>
        <path class="cls-7" d="M485.65,631.68a8,8,0,0,1-9.33,6.4l-63-11.75A8,8,0,0,1,407,617l21.93-117.55a8,8,0,0,1,9.34-6.4l63,11.75a8,8,0,0,1,6.39,9.33Z"/>
        <path class="cls-8" d="M400.54,609.28l35-18.47a13.41,13.41,0,0,1,19.1,8l6.07,20A13.42,13.42,0,0,1,449.56,636l-49,6.35"/>
      </g>
      <g>
        <path class="cls-4" d="M312.19,334c0-49.12,34.81-83.68,83.93-83.68h18.4c49.12,0,93.94,34.56,93.94,83.68v93.31h0c0,29-44.7,54.33-98.9,54.33s-97.37-25.29-97.37-54.33h0Z"/>
        <g>
          <g>
            <g>
              <path class="cls-1" d="M350.74,417.6c0,23.13,20.24,43,43.38,43h28.14c23.14,0,40.64-19.92,40.64-43V356.43a33.13,33.13,0,0,0-33.14-33.13H383.88a33.13,33.13,0,0,0-33.14,33.13Z"/>
              <path class="cls-4" d="M350.74,374.78V417.6c0,23.13,20.24,43,43.38,43h28.14c23.14,0,40.64-19.92,40.64-43V367.77"/>
            </g>
            <g>
              <path class="cls-9" d="M350.74,417.6c0,23.13,20.24,43,43.38,43h28.14c23.14,0,40.64-19.92,40.64-43V356.43a33.13,33.13,0,0,0-33.14-33.13H383.88a33.13,33.13,0,0,0-33.14,33.13Z"/>
              <path class="cls-9" d="M350.74,374.78V417.6c0,23.13,20.24,43,43.38,43h28.14c23.14,0,40.64-19.92,40.64-43V367.77"/>
            </g>
          </g>
          <g>
            <g>
              <path class="cls-5" d="M447.5,386a11.69,11.69,0,0,0-23.37,0"/>
              <path class="cls-5" d="M403.21,386a11.69,11.69,0,0,0-23.37,0"/>
            </g>
            <path class="cls-5" d="M433.77,419.77c-23.78,22.25-44.1,0-44.1,0"/>
          </g>
          <g>
            <g>
              <path class="cls-2" d="M391.42,280.33c19.86-2.93,33.07,1.71,50.82,12.27,13.75,8.17,26.2-7,26.2-7,9.93,27.45,1.47,80.23-5.54,89.35V358.59c0-11.53-6.93-28.93-17.15-26.86-34.59,7-39.21-17.7-73.38-1.6-9,4.23-11.46,20-13.66,32.93-1,5.81-6.74,16.42-6.74,16.42l0,1.32c-7.08-10.51-9.61-42.58-6.47-59.32C348.83,304,361.41,284.74,391.42,280.33Z"/>
              <path class="cls-4" d="M391.42,280.33c19.86-2.93,33.07,1.71,50.82,12.27,13.75,8.17,26.2-7,26.2-7,9.93,27.45,1.47,80.23-5.54,89.35V358.59c0-11.53-6.93-28.93-17.15-26.86-34.59,7-39.21-17.7-73.38-1.6-9,4.23-11.46,20-13.66,32.93-1,5.81-6.74,16.42-6.74,16.42l0,1.32c-7.08-10.51-9.61-42.58-6.47-59.32C348.83,304,361.41,284.74,391.42,280.33Z"/>
            </g>
            <g>
              <path class="cls-9" d="M391.42,280.33c19.86-2.93,33.07,1.71,50.82,12.27,13.75,8.17,26.2-7,26.2-7,9.93,27.45,1.47,80.23-5.54,89.35V358.59c0-11.53-6.93-28.93-17.15-26.86-34.59,7-39.21-17.7-73.38-1.6-9,4.23-11.46,20-13.66,32.93-1,5.81-6.74,16.42-6.74,16.42l0,1.32c-7.08-10.51-9.61-42.58-6.47-59.32C348.83,304,361.41,284.74,391.42,280.33Z"/>
              <path class="cls-9" d="M391.42,280.33c19.86-2.93,33.07,1.71,50.82,12.27,13.75,8.17,26.2-7,26.2-7,9.93,27.45,1.47,80.23-5.54,89.35V358.59c0-11.53-6.93-28.93-17.15-26.86-34.59,7-39.21-17.7-73.38-1.6-9,4.23-11.46,20-13.66,32.93-1,5.81-6.74,16.42-6.74,16.42l0,1.32c-7.08-10.51-9.61-42.58-6.47-59.32C348.83,304,361.41,284.74,391.42,280.33Z"/>
            </g>
          </g>
        </g>
      </g>
      <path class="cls-5" d="M354.45,544.56v40a17.22,17.22,0,0,0,17.23,17.23h28.86V647H329.78c-9.4,0-18.6-8-21.79-14.39"/>
      <path class="cls-1" d="M464.22,581.23l-6.19-1c.39-2.4.79-4.8,1.18-7.21l-3.94-.65c-.4,2.43-.79,4.82-1.18,7.21l-6.2-1c.4-2.4.79-4.8,1.2-7.26L436,569.12l1-6.13.54.09c.82.12,1.63.26,2.45.35a2,2,0,0,0,2.51-1.84c.13-.62.26-1.24.36-1.87q1.86-11.26,3.71-22.52c.16-1,.31-2,.44-3.06a2.07,2.07,0,0,0-1.78-2.57c-.81-.19-1.64-.31-2.47-.46l-.49-.11,1-6.14L456.37,527c.4-2.45.8-4.84,1.19-7.23l6.2,1c-.4,2.41-.79,4.81-1.19,7.22l3.94.65c.4-2.44.8-4.83,1.19-7.22l6.19,1c0,.19,0,.38-.07.56-.35,2.12-.68,4.23-1.06,6.34-.08.48,0,.73.5.83a8,8,0,0,1,1.17.38,13.29,13.29,0,0,1,5.53,3.57,9.67,9.67,0,0,1,2.54,7.74,9.57,9.57,0,0,1-2.41,5.42,11.84,11.84,0,0,1-6.82,3.67l-.56.13a1.05,1.05,0,0,0,.45.34,16.09,16.09,0,0,1,4.33,2.69,9.7,9.7,0,0,1,3.24,6.77c.26,5-2,8.61-6.31,11a16.16,16.16,0,0,1-8.37,1.72c-.46,0-.59.11-.66.54C465,576.51,464.62,578.87,464.22,581.23ZM455.37,552c0,.15-.06.24-.07.33-.51,3.12-1,6.23-1.53,9.34a20.15,20.15,0,0,0-.21,2,.89.89,0,0,0,.74,1c1.49.32,3,.63,4.48.85a34.44,34.44,0,0,0,3.92.38,6.22,6.22,0,0,0,3.87-1.07,6.45,6.45,0,0,0,2.76-4.26,5.46,5.46,0,0,0-2.61-6,12.07,12.07,0,0,0-4.1-1.43c-2.27-.43-4.56-.79-6.84-1.17Zm1.09-6.54c.15,0,.27.08.39.1l4.55.74a20.15,20.15,0,0,0,5.2.32,5.45,5.45,0,0,0,3.59-1.65c2.15-2.36,2-6.76-1.78-8.16a17.19,17.19,0,0,0-2.82-.82c-2.32-.45-4.65-.82-7-1.22-.13,0-.25,0-.4,0C457.63,538.29,457.05,541.83,456.46,545.44Z"/>
      <path class="cls-5" d="M519.28,710.46v30.12a22,22,0,0,1-22,22h-2a21.59,21.59,0,0,1-6.21-.9V710.46Z"/>
      <line class="cls-5" x1="489" y1="710.46" x2="489" y2="784.58"/>
      <line class="cls-5" x1="318.11" y1="718.8" x2="318.11" y2="795.58"/>
      <line class="cls-5" x1="412.16" y1="784.08" x2="412.16" y2="766.58"/>
      <line class="cls-5" x1="405.26" y1="766.58" x2="418.61" y2="766.58"/>
    </g>
    <g>
      <g>
        <path class="cls-1" d="M921.28,780.51c-46.78,0-39.59-19.23-39.59-73.26-6.8-4.1-7-9.71-7-9.71V551.35L874,500.09a68.42,68.42,0,0,1,69-69.35l150,1.21a59.76,59.76,0,0,1,59.28,59.13l.82,77.31c-.4,24.32-21.49,46.86-45.38,51.42-.2,0-.57-.8-.29.13"/>
        <g>
          <path class="cls-10" d="M944.37,500h47.54a9.27,9.27,0,0,1,9.27,9.27v78.86a9.28,9.28,0,0,1-9.28,9.28H944.37a9.28,9.28,0,0,1-9.28-9.28V509.31A9.28,9.28,0,0,1,944.37,500Z"/>
          <path class="cls-11" d="M944.37,500h47.54a9.27,9.27,0,0,1,9.27,9.27v78.86a9.28,9.28,0,0,1-9.28,9.28H944.37a9.28,9.28,0,0,1-9.28-9.28V509.31A9.28,9.28,0,0,1,944.37,500Z"/>
          <rect class="cls-8" x="952.49" y="520.9" width="27.83" height="38.26"/>
        </g>
        <g>
          <path class="cls-7" d="M933.24,641.71a8,8,0,0,0,10.61,3.93l58.2-26.73A8,8,0,0,0,1006,608.3l-49.9-108.66a8,8,0,0,0-10.61-3.93l-58.2,26.72A8,8,0,0,0,883.34,533Z"/>
          <path class="cls-8" d="M1010.33,599.25l-38.41-9.4a13.41,13.41,0,0,0-16.59,12.39l-1,20.89a13.41,13.41,0,0,0,15,14l49.08-5.79"/>
        </g>
        <path class="cls-7" d="M1175.23,352.3a10.85,10.85,0,0,1-10.85,10.85,10.26,10.26,0,0,1-2.3-.25L1132,448.12,1120.2,440,1157.94,361a10.85,10.85,0,1,1,17.29-8.74Z"/>
        <path class="cls-4" d="M1061.52,432.43h28.67c35.15,0,62.85,28.75,62.85,63.91v63.42a61.25,61.25,0,0,1-49.87,60.18L1018.11,636l-7.49-41.43,51.77-19.82a38.39,38.39,0,0,0,24.66-35.84v-21.6"/>
        <g>
          <path class="cls-5" d="M915.85,707.25H881.69v47c0,14.9,11.3,26.31,30.88,26.31h4.71"/>
          <path class="cls-4" d="M874.74,576.79V496.34c0-35.16,28.94-63.91,64.09-63.91h26.83"/>
          <path class="cls-12" d="M1145.11,595.81l.61,1.52a15.48,15.48,0,0,1-8.57,20.13l-28.31,11.39a15.47,15.47,0,0,1-20.13-8.58l-.3-.76a8.08,8.08,0,0,1,4.47-10.49l42.81-17.23A7.24,7.24,0,0,1,1145.11,595.81Z"/>
          <path class="cls-12" d="M878.12,628.7l-1.63,0a15.47,15.47,0,0,1-15.62-15.32l-.3-30.51a15.48,15.48,0,0,1,15.32-15.62h.81a8.1,8.1,0,0,1,8.15,8l.44,46.14A7.24,7.24,0,0,1,878.12,628.7Z"/>
          <path class="cls-4" d="M916.69,707.25h-35c-3.73,0-6.94-1.71-6.94-5.44v-72.6"/>
        </g>
        <polygon class="cls-13" points="1102.94 701.58 919.39 701.58 919.39 672.21 1104.06 670.78 1102.94 701.58"/>
        <line class="cls-14" x1="918.22" y1="704.25" x2="918.22" y2="609"/>
        <line class="cls-11" x1="918.22" y1="670.72" x2="946.05" y2="670.72"/>
        <line class="cls-11" x1="946.05" y1="702.03" x2="918.22" y2="702.03"/>
        <line class="cls-11" x1="1041.92" y1="702.03" x2="962.5" y2="702.03"/>
        <line class="cls-5" x1="1104.86" y1="702.03" x2="1041.92" y2="702.03"/>
        <line class="cls-5" x1="1041.92" y1="670.72" x2="1104.86" y2="670.72"/>
        <line class="cls-11" x1="962.5" y1="670.72" x2="1041.92" y2="670.72"/>
        <g>
          <rect class="cls-12" x="936.56" y="646.37" width="24.35" height="93.93" rx="6.96" ry="6.96"/>
          <rect class="cls-12" x="1015.89" y="646.37" width="24.35" height="93.93" rx="6.96" ry="6.96"/>
        </g>
        <g>
          <path class="cls-4" d="M1111.3,331.11c0-48.76-34.56-83.06-83.31-83.06h-18.26c-48.76,0-93.25,34.3-93.25,83.06v92.62h0c0,28.82,44.37,53.92,98.17,53.92s96.65-25.1,96.65-53.92h0Z"/>
          <g>
            <path class="cls-15" d="M954.28,375c1.53-3.76,1.42-19.16,1.67-28.28s2.71-10.72,5.64-16.06,9.73-10.77,16.72-10.29,18.13,7.66,20.67,11,6.72,2.76,19.13-1,11.3-6.8,23.19-6.69,16.47,4.15,22.51,12.76,3.13,51.41,3.13,51.41v23.67c0,23-20.31,42.7-43.27,42.7H995.74c-23,0-40.22-19.74-40.22-42.7V385.14l-1.33,0S952.76,378.79,954.28,375Z"/>
            <path class="cls-4" d="M955.7,368.07v43.48c0,23,17.08,41.75,40,41.75h27.93c23,0,43.36-18.79,43.36-41.75V361.11"/>
            <path class="cls-16" d="M1000.89,272.4h23.19c30,0,49.91,21.92,49.91,51.89v12.18c0,11.68,0,23.72-7,32.77V353c0-11.44-3.43-20.89-11.63-27.21s-22.06-6.5-29.76.44c-3.81,3.42-10.21,5.62-15.74,5.62s-11.47-1.64-15.29-5.22c-7.56-7.05-15.56-8.27-24.71-3.44-8.69,4.6-14.2,15.21-14.2,28.23v22.32L954.28,375c-7-10.44-9-25.07-9-37.69V325.16C945.27,295.06,970.79,272.4,1000.89,272.4Z"/>
            <path class="cls-5" d="M1036.56,381.4a11.6,11.6,0,0,0-23.19,0"/>
            <path class="cls-5" d="M991.34,381.4a11.6,11.6,0,0,0-23.2,0"/>
            <path class="cls-5" d="M979.07,420.83c14.79,4.06,41.46,2.9,49.29-8.7"/>
          </g>
        </g>
      </g>
      <path class="cls-1" d="M960.84,586.21l-5.68,2.68c-1-2.21-2.07-4.41-3.12-6.62L948.43,584c1.05,2.23,2.08,4.42,3.12,6.61l-5.68,2.68-3.14-6.67c-4.05,1.91-8,3.79-12,5.66l-2.65-5.62.5-.23c.74-.37,1.49-.71,2.22-1.1a2.05,2.05,0,0,0,1-2.94c-.25-.58-.5-1.17-.77-1.74q-4.86-10.33-9.73-20.66c-.44-.93-.9-1.85-1.37-2.77a2.07,2.07,0,0,0-2.92-1.11c-.78.32-1.54.69-2.3,1l-.47.19c-.89-1.89-1.75-3.73-2.65-5.63l12-5.66c-1.06-2.25-2.09-4.44-3.13-6.63l5.68-2.68,3.12,6.61,3.61-1.7c-1-2.23-2.08-4.42-3.12-6.61l5.68-2.68c.09.17.18.34.26.51.91,1.93,1.84,3.86,2.73,5.81.2.45.4.61.88.41a6.72,6.72,0,0,1,1.18-.36,13.22,13.22,0,0,1,6.58-.19,9.65,9.65,0,0,1,6.48,4.93,9.53,9.53,0,0,1,1.09,5.83,11.81,11.81,0,0,1-3.53,6.89l-.39.43a1.2,1.2,0,0,0,.56,0,15.88,15.88,0,0,1,5.1-.24,9.68,9.68,0,0,1,6.51,3.73c3,3.95,3.25,8.22,1,12.62a16.09,16.09,0,0,1-5.92,6.17c-.39.25-.42.43-.23.82C958.81,581.87,959.82,584,960.84,586.21ZM937,567.15l.13.32q2,4.28,4,8.56c.29.61.63,1.2,1,1.79a.91.91,0,0,0,1.21.45c1.41-.59,2.81-1.18,4.17-1.84a37.27,37.27,0,0,0,3.44-1.92,6.29,6.29,0,0,0,2.58-3.08,6.43,6.43,0,0,0-.15-5.07,5.46,5.46,0,0,0-5.56-3.48A12.38,12.38,0,0,0,943.6,564c-2.12.93-4.2,1.94-6.3,2.92C937.19,567,937.09,567.07,937,567.15Zm-2.82-6a2.35,2.35,0,0,0,.38-.14c1.39-.65,2.78-1.3,4.17-2a19.69,19.69,0,0,0,4.46-2.69,5.39,5.39,0,0,0,2-3.39c.44-3.16-2.21-6.68-6.09-5.71a18.59,18.59,0,0,0-2.79.92c-2.16,1-4.29,2-6.43,3-.11,0-.21.13-.34.2Z"/>
      <line class="cls-5" x1="920.22" y1="704.25" x2="920.22" y2="794.58"/>
      <line class="cls-4" x1="1106.37" y1="630.97" x2="1106.37" y2="767.58"/>
      <line class="cls-5" x1="1015.95" y1="784.83" x2="1015.95" y2="773.33"/>
      <line class="cls-5" x1="1010.06" y1="773.33" x2="1023.4" y2="773.33"/>
    </g>
    <g>
      <line class="cls-17" x1="594.4" y1="418.44" x2="594.4" y2="420.48"/>
      <line class="cls-18" x1="594.4" y1="440.46" x2="594.4" y2="531.68"/>
      <polyline class="cls-17" points="550.4 598.73 621.92 527.21 621.92 418.44"/>
      <polyline class="cls-17" points="649.4 510.65 649.4 542.92 554.23 638.09"/>
      <line class="cls-17" x1="554.23" y1="680.97" x2="623.98" y2="611.22"/>
      <line class="cls-17" x1="649.4" y1="498.13" x2="649.4" y2="418.58"/>
      <line class="cls-18" x1="758.4" y1="418.44" x2="758.4" y2="464.21"/>
      <polyline class="cls-17" points="785.4 418.44 785.4 467.55 762.01 490.94 762.01 586.23 830.22 654.45"/>
      <line class="cls-17" x1="805.4" y1="418.44" x2="805.4" y2="447.58"/>
      <polyline class="cls-17" points="805.39 474.71 805.39 558.58 842.88 596.07"/>
      <polyline class="cls-17" points="784.4 498.13 784.4 572.99 840.33 628.93"/>
    </g>
    <g>
      <rect class="cls-19" x="586.89" y="66.04" width="225.22" height="334.67" rx="10.92" ry="10.92"/>
      <polygon class="cls-1" points="805.78 124.36 801.84 127.81 802.91 127.81 802.91 191.01 802.12 191.82 802.91 191.39 802.91 250.57 803.22 333.46 805.78 336.36 805.78 392.67 592.06 392.67 592.06 71.5 805.78 71.5 805.78 124.36"/>
      <polygon class="cls-2" points="802.91 141.02 791.23 151.36 791.23 204.88 803.34 192.77 803.34 206.86 791.23 217.37 791.23 264.25 802.43 252.93 802.91 263.2 790.66 276.89 790.66 325.77 781.85 320.27 782.42 145.72 802.91 125.02 802.91 141.02"/>
      <g>
        <path class="cls-20" d="M644.16,133.39h-2.61v2.55h-1.94v-2.55H637v-1.83h2.59V129h1.94v2.55h2.61Z"/>
        <path class="cls-20" d="M649.39,127.23v10.5H647v-8.55h-2.1v-2Z"/>
        <path class="cls-20" d="M665.25,133.22a2.63,2.63,0,0,1,.51,1.64,2.43,2.43,0,0,1-1.08,2.13,5.49,5.49,0,0,1-3.12.74h-5.43v-10.5h5.13a5,5,0,0,1,2.94.73,2.34,2.34,0,0,1,1,2,2.5,2.5,0,0,1-.37,1.36,2.53,2.53,0,0,1-1,1A2.8,2.8,0,0,1,665.25,133.22Zm-6.71-4.16v2.48H661a2.42,2.42,0,0,0,1.36-.32,1.05,1.05,0,0,0,.47-.93,1,1,0,0,0-.47-.92,2.42,2.42,0,0,0-1.36-.31Zm4.28,6.52a1.05,1.05,0,0,0,.49-1c0-.87-.64-1.31-1.93-1.31h-2.84v2.6h2.84A2.65,2.65,0,0,0,662.82,135.58Z"/>
        <path class="cls-20" d="M669.63,129.21h-3.36v-2h9.15v2h-3.36v8.52h-2.43Z"/>
        <path class="cls-20" d="M678.69,137.21a5.26,5.26,0,0,1-2-1.93,5.67,5.67,0,0,1,0-5.6,5.26,5.26,0,0,1,2-1.93,6,6,0,0,1,2.92-.7,6.15,6.15,0,0,1,2.47.48,5,5,0,0,1,1.85,1.38l-1.56,1.44a3.35,3.35,0,0,0-2.64-1.23,3.45,3.45,0,0,0-1.74.43,3,3,0,0,0-1.19,1.19,3.74,3.74,0,0,0,0,3.48,3,3,0,0,0,1.19,1.19,3.45,3.45,0,0,0,1.74.43,3.34,3.34,0,0,0,2.64-1.25l1.56,1.45a5,5,0,0,1-1.86,1.39,6.18,6.18,0,0,1-2.47.48A6,6,0,0,1,678.69,137.21Z"/>
        <path class="cls-20" d="M691.34,132.57h4.25v1.87h-4.25Z"/>
        <path class="cls-20" d="M697.22,132.57h4.25v1.87h-4.25Z"/>
        <path class="cls-20" d="M703.1,132.57h4.25v1.87H703.1Z"/>
        <path class="cls-20" d="M709,132.57h4.25v1.87H709Z"/>
        <path class="cls-20" d="M714.86,132.57h4.25v1.87h-4.25Z"/>
        <path class="cls-20" d="M720.74,132.57H725v1.87h-4.25Z"/>
        <path class="cls-20" d="M726.62,132.57h4.25v1.87h-4.25Z"/>
        <path class="cls-20" d="M732.5,132.57h4.25v1.87H732.5Z"/>
        <path class="cls-20" d="M738.38,132.57h4.25v1.87h-4.25Z"/>
        <path class="cls-20" d="M644.16,162.39h-2.61v2.55h-1.94v-2.55H637v-1.83h2.59V158h1.94v2.55h2.61Z"/>
        <path class="cls-20" d="M649.39,156.23v10.5H647v-8.55h-2.1v-2Z"/>
        <path class="cls-20" d="M653.4,166.26a4.31,4.31,0,0,1-1.6-1.86,7.64,7.64,0,0,1,0-5.84,4.39,4.39,0,0,1,1.6-1.87,4.54,4.54,0,0,1,4.65,0,4.37,4.37,0,0,1,1.59,1.87,7.64,7.64,0,0,1,0,5.84,4.17,4.17,0,0,1-3.92,2.51A4.24,4.24,0,0,1,653.4,166.26Zm3.83-2.23a6.19,6.19,0,0,0,0-5.1,1.73,1.73,0,0,0-1.51-.83,1.7,1.7,0,0,0-1.49.83,6.19,6.19,0,0,0,0,5.1,1.69,1.69,0,0,0,1.49.82A1.72,1.72,0,0,0,657.23,164Z"/>
        <path class="cls-20" d="M671.19,162.22a2.63,2.63,0,0,1,.51,1.64,2.44,2.44,0,0,1-1.08,2.13,5.49,5.49,0,0,1-3.12.74h-5.43v-10.5h5.13a5,5,0,0,1,2.94.73,2.34,2.34,0,0,1,1,2,2.5,2.5,0,0,1-.37,1.36,2.53,2.53,0,0,1-1,1A2.8,2.8,0,0,1,671.19,162.22Zm-6.71-4.16v2.48h2.42a2.42,2.42,0,0,0,1.36-.32,1.05,1.05,0,0,0,.47-.93,1,1,0,0,0-.47-.92,2.42,2.42,0,0,0-1.36-.31Zm4.28,6.52a1.06,1.06,0,0,0,.49-1c0-.87-.64-1.31-1.93-1.31h-2.84v2.6h2.84A2.65,2.65,0,0,0,668.76,164.58Z"/>
        <path class="cls-20" d="M675.57,158.21h-3.36v-2h9.15v2H678v8.52h-2.43Z"/>
        <path class="cls-20" d="M684.63,166.21a5.26,5.26,0,0,1-2-1.93,5.67,5.67,0,0,1,0-5.6,5.26,5.26,0,0,1,2-1.93,6,6,0,0,1,2.92-.7,6.15,6.15,0,0,1,2.47.48,5,5,0,0,1,1.85,1.38l-1.56,1.44a3.35,3.35,0,0,0-2.64-1.23,3.45,3.45,0,0,0-1.74.43,3,3,0,0,0-1.19,1.19,3.74,3.74,0,0,0,0,3.48,3,3,0,0,0,1.19,1.19,3.45,3.45,0,0,0,1.74.43,3.34,3.34,0,0,0,2.64-1.25l1.56,1.44a4.87,4.87,0,0,1-1.86,1.4,6.18,6.18,0,0,1-2.47.48A6,6,0,0,1,684.63,166.21Z"/>
        <path class="cls-20" d="M693,161.57h4.25v1.87H693Z"/>
        <path class="cls-20" d="M698.83,161.57h4.24v1.87h-4.24Z"/>
        <path class="cls-20" d="M704.71,161.57H709v1.87h-4.24Z"/>
        <path class="cls-20" d="M710.59,161.57h4.24v1.87h-4.24Z"/>
        <path class="cls-20" d="M716.47,161.57h4.24v1.87h-4.24Z"/>
        <path class="cls-20" d="M722.35,161.57h4.24v1.87h-4.24Z"/>
        <path class="cls-20" d="M728.23,161.57h4.24v1.87h-4.24Z"/>
        <path class="cls-20" d="M734.11,161.57h4.24v1.87h-4.24Z"/>
        <path class="cls-20" d="M636.87,190.57h4.24v1.87h-4.24Z"/>
        <path class="cls-20" d="M649.18,190.53a2.85,2.85,0,0,1,.74,2,3.25,3.25,0,0,1-.48,1.69,3.36,3.36,0,0,1-1.47,1.23,5.55,5.55,0,0,1-2.4.47,8.55,8.55,0,0,1-2.19-.29,5.77,5.77,0,0,1-1.82-.84l1-1.86a4.49,4.49,0,0,0,1.38.7,5.27,5.27,0,0,0,1.62.25,2.6,2.6,0,0,0,1.44-.35,1.16,1.16,0,0,0,.52-1c0-.86-.66-1.29-2-1.29H644.4v-1.61l2.16-2.44h-4.48v-2h7.36v1.57l-2.37,2.7A3.55,3.55,0,0,1,649.18,190.53Z"/>
        <path class="cls-20" d="M660.82,191.22a2.63,2.63,0,0,1,.51,1.64,2.45,2.45,0,0,1-1.07,2.13,5.54,5.54,0,0,1-3.13.74H651.7v-10.5h5.13a5,5,0,0,1,2.95.73,2.35,2.35,0,0,1,1,2,2.59,2.59,0,0,1-.37,1.36,2.63,2.63,0,0,1-1,1A2.8,2.8,0,0,1,660.82,191.22Zm-6.7-4.16v2.47h2.41a2.46,2.46,0,0,0,1.37-.31,1,1,0,0,0,.46-.93,1,1,0,0,0-.46-.92,2.46,2.46,0,0,0-1.37-.31Zm4.28,6.52a1.08,1.08,0,0,0,.49-1c0-.87-.65-1.31-1.94-1.31h-2.83v2.6H657A2.71,2.71,0,0,0,658.4,193.58Z"/>
        <path class="cls-20" d="M665.2,187.21h-3.36v-2H671v2h-3.36v8.52H665.2Z"/>
        <path class="cls-20" d="M674.27,195.21a5.13,5.13,0,0,1-2-1.93,5.67,5.67,0,0,1,0-5.6,5.13,5.13,0,0,1,2-1.93,6,6,0,0,1,2.92-.7,6.07,6.07,0,0,1,2.46.48,4.93,4.93,0,0,1,1.86,1.38L680,188.35a3.35,3.35,0,0,0-2.64-1.23,3.45,3.45,0,0,0-1.74.43,3.05,3.05,0,0,0-1.2,1.19,3.81,3.81,0,0,0,0,3.48,3.05,3.05,0,0,0,1.2,1.19,3.45,3.45,0,0,0,1.74.43,3.34,3.34,0,0,0,2.64-1.25l1.56,1.44a4.87,4.87,0,0,1-1.86,1.4,6.2,6.2,0,0,1-2.48.48A6,6,0,0,1,674.27,195.21Z"/>
        <path class="cls-20" d="M682.58,190.57h4.25v1.87h-4.25Z"/>
        <path class="cls-20" d="M688.46,190.57h4.25v1.87h-4.25Z"/>
        <path class="cls-20" d="M694.34,190.57h4.25v1.87h-4.25Z"/>
        <path class="cls-20" d="M700.22,190.57h4.25v1.87h-4.25Z"/>
        <path class="cls-20" d="M706.1,190.57h4.25v1.87H706.1Z"/>
        <path class="cls-20" d="M712,190.57h4.25v1.87H712Z"/>
        <path class="cls-20" d="M717.86,190.57h4.25v1.87h-4.25Z"/>
        <path class="cls-20" d="M723.74,190.57H728v1.87h-4.25Z"/>
        <path class="cls-20" d="M729.62,190.57h4.25v1.87h-4.25Z"/>
        <path class="cls-20" d="M735.5,190.57h4.25v1.87H735.5Z"/>
        <path class="cls-20" d="M644.16,220.39h-2.61v2.55h-1.94v-2.55H637v-1.83h2.59V216h1.94v2.55h2.61Z"/>
        <path class="cls-20" d="M653.26,222.75v2h-7.93v-1.58l4-3.82a4.21,4.21,0,0,0,.87-1.06,1.91,1.91,0,0,0,.22-.88,1.13,1.13,0,0,0-.43-1,1.94,1.94,0,0,0-1.25-.34,2.93,2.93,0,0,0-1.24.26,2.43,2.43,0,0,0-.93.79L644.85,216a4.09,4.09,0,0,1,1.69-1.43,5.61,5.61,0,0,1,2.48-.52,5.12,5.12,0,0,1,2,.38,3.25,3.25,0,0,1,1.37,1.08,2.84,2.84,0,0,1,.49,1.64,3.68,3.68,0,0,1-.36,1.61,6.21,6.21,0,0,1-1.4,1.71l-2.41,2.28Z"/>
        <path class="cls-20" d="M662.11,222.75v2h-7.93v-1.58l4.05-3.82a4.21,4.21,0,0,0,.87-1.06,1.91,1.91,0,0,0,.22-.88,1.13,1.13,0,0,0-.43-1,1.94,1.94,0,0,0-1.25-.34,2.93,2.93,0,0,0-1.24.26,2.43,2.43,0,0,0-.93.79L653.7,216a4.09,4.09,0,0,1,1.69-1.43,5.61,5.61,0,0,1,2.48-.52,5.12,5.12,0,0,1,2,.38,3.25,3.25,0,0,1,1.37,1.08,2.84,2.84,0,0,1,.49,1.64,3.68,3.68,0,0,1-.36,1.61,6.21,6.21,0,0,1-1.4,1.71l-2.41,2.28Z"/>
        <path class="cls-20" d="M672.9,220.22a2.63,2.63,0,0,1,.51,1.64,2.44,2.44,0,0,1-1.08,2.13,5.49,5.49,0,0,1-3.12.74h-5.43v-10.5h5.13a5,5,0,0,1,2.94.73,2.33,2.33,0,0,1,1,2,2.5,2.5,0,0,1-.37,1.36,2.53,2.53,0,0,1-1,1A2.8,2.8,0,0,1,672.9,220.22Zm-6.71-4.16v2.47h2.42a2.42,2.42,0,0,0,1.36-.31,1.05,1.05,0,0,0,.47-.93,1,1,0,0,0-.47-.92,2.42,2.42,0,0,0-1.36-.31Zm4.28,6.52a1.06,1.06,0,0,0,.49-1c0-.87-.64-1.31-1.93-1.31h-2.84v2.6H669A2.65,2.65,0,0,0,670.47,222.58Z"/>
        <path class="cls-20" d="M677.28,216.21h-3.36v-2h9.15v2h-3.36v8.52h-2.43Z"/>
        <path class="cls-20" d="M686.34,224.21a5.26,5.26,0,0,1-2-1.93,5.67,5.67,0,0,1,0-5.6,5.26,5.26,0,0,1,2-1.93,6,6,0,0,1,2.92-.7,6.15,6.15,0,0,1,2.47.48,5,5,0,0,1,1.85,1.38L692,217.35a3.35,3.35,0,0,0-2.64-1.23,3.45,3.45,0,0,0-1.74.43,3,3,0,0,0-1.19,1.19,3.74,3.74,0,0,0,0,3.48,3,3,0,0,0,1.19,1.19,3.45,3.45,0,0,0,1.74.43,3.34,3.34,0,0,0,2.64-1.25l1.56,1.44a4.87,4.87,0,0,1-1.86,1.4,6.15,6.15,0,0,1-2.47.48A6,6,0,0,1,686.34,224.21Z"/>
        <path class="cls-20" d="M694.66,219.57h4.25v1.87h-4.25Z"/>
        <path class="cls-20" d="M700.54,219.57h4.25v1.87h-4.25Z"/>
        <path class="cls-20" d="M706.42,219.57h4.25v1.87h-4.25Z"/>
        <path class="cls-20" d="M712.3,219.57h4.24v1.87H712.3Z"/>
        <path class="cls-20" d="M718.18,219.57h4.24v1.87h-4.24Z"/>
        <path class="cls-20" d="M724.06,219.57h4.24v1.87h-4.24Z"/>
        <path class="cls-20" d="M729.94,219.57h4.24v1.87h-4.24Z"/>
        <path class="cls-20" d="M735.82,219.57h4.24v1.87h-4.24Z"/>
        <path class="cls-20" d="M644.16,249.39h-2.61v2.55h-1.94v-2.55H637v-1.83h2.59V245h1.94v2.55h2.61Z"/>
        <path class="cls-20" d="M652.8,244.39a5.48,5.48,0,0,1,1.24,3.86,6.46,6.46,0,0,1-.67,3.06,4.52,4.52,0,0,1-1.88,1.94,5.76,5.76,0,0,1-2.8.66,6.51,6.51,0,0,1-1.61-.19,4.16,4.16,0,0,1-1.3-.53l.9-1.79a3.38,3.38,0,0,0,2,.53,2.84,2.84,0,0,0,2.12-.79,3.28,3.28,0,0,0,.84-2.27,3.52,3.52,0,0,1-2.61.94,4.09,4.09,0,0,1-1.83-.4,3.18,3.18,0,0,1-1.31-1.15,3.09,3.09,0,0,1-.48-1.72,3.18,3.18,0,0,1,.53-1.84,3.35,3.35,0,0,1,1.43-1.22,4.57,4.57,0,0,1,2-.43A4.49,4.49,0,0,1,652.8,244.39Zm-2,3.17a1.53,1.53,0,0,0,0-2.26,2,2,0,0,0-1.34-.44,1.87,1.87,0,0,0-1.27.42,1.41,1.41,0,0,0-.49,1.14,1.43,1.43,0,0,0,.49,1.15,2.15,2.15,0,0,0,2.59,0Z"/>
        <path class="cls-20" d="M665,249.22a2.63,2.63,0,0,1,.51,1.64,2.45,2.45,0,0,1-1.07,2.13,5.54,5.54,0,0,1-3.13.74h-5.43v-10.5H661a5,5,0,0,1,3,.73,2.35,2.35,0,0,1,1,2,2.59,2.59,0,0,1-.37,1.36,2.63,2.63,0,0,1-1,1A2.8,2.8,0,0,1,665,249.22Zm-6.7-4.16v2.47h2.41a2.46,2.46,0,0,0,1.37-.31,1,1,0,0,0,.46-.93,1,1,0,0,0-.46-.92,2.46,2.46,0,0,0-1.37-.31Zm4.28,6.52a1.08,1.08,0,0,0,.49-1c0-.87-.65-1.31-1.94-1.31h-2.83v2.6h2.83A2.71,2.71,0,0,0,662.57,251.58Z"/>
        <path class="cls-20" d="M669.37,245.21H666v-2h9.15v2H671.8v8.52h-2.43Z"/>
        <path class="cls-20" d="M678.44,253.21a5.13,5.13,0,0,1-2-1.93,5.67,5.67,0,0,1,0-5.6,5.13,5.13,0,0,1,2-1.93,6,6,0,0,1,2.92-.7,6.07,6.07,0,0,1,2.46.48,4.93,4.93,0,0,1,1.86,1.38l-1.56,1.44a3.35,3.35,0,0,0-2.64-1.23,3.45,3.45,0,0,0-1.74.43,3.05,3.05,0,0,0-1.2,1.19,3.81,3.81,0,0,0,0,3.48,3.05,3.05,0,0,0,1.2,1.19,3.45,3.45,0,0,0,1.74.43,3.34,3.34,0,0,0,2.64-1.25l1.56,1.44a4.87,4.87,0,0,1-1.86,1.4,6.2,6.2,0,0,1-2.48.48A6,6,0,0,1,678.44,253.21Z"/>
        <path class="cls-20" d="M686.75,248.57H691v1.87h-4.25Z"/>
        <path class="cls-20" d="M692.63,248.57h4.25v1.87h-4.25Z"/>
        <path class="cls-20" d="M698.51,248.57h4.25v1.87h-4.25Z"/>
        <path class="cls-20" d="M704.39,248.57h4.25v1.87h-4.25Z"/>
        <path class="cls-20" d="M710.27,248.57h4.25v1.87h-4.25Z"/>
        <path class="cls-20" d="M716.15,248.57h4.25v1.87h-4.25Z"/>
        <path class="cls-20" d="M722,248.57h4.25v1.87H722Z"/>
        <path class="cls-20" d="M727.91,248.57h4.25v1.87h-4.25Z"/>
        <path class="cls-20" d="M733.79,248.57H738v1.87h-4.25Z"/>
        <path class="cls-20" d="M739.67,248.57h4.25v1.87h-4.25Z"/>
        <path class="cls-20" d="M644.16,278.39h-2.61v2.55h-1.94v-2.55H637v-1.83h2.59V274h1.94v2.55h2.61Z"/>
        <path class="cls-20" d="M653.26,280.75v2h-7.93v-1.58l4-3.82a4.21,4.21,0,0,0,.87-1.06,1.91,1.91,0,0,0,.22-.88,1.13,1.13,0,0,0-.43-1,1.94,1.94,0,0,0-1.25-.34,2.93,2.93,0,0,0-1.24.26,2.43,2.43,0,0,0-.93.79L644.85,274a4.09,4.09,0,0,1,1.69-1.43,5.61,5.61,0,0,1,2.48-.52,5.12,5.12,0,0,1,2,.38,3.17,3.17,0,0,1,1.37,1.08,2.84,2.84,0,0,1,.49,1.64,3.68,3.68,0,0,1-.36,1.61,6.21,6.21,0,0,1-1.4,1.71l-2.41,2.28Z"/>
        <path class="cls-20" d="M664.05,278.22a2.63,2.63,0,0,1,.51,1.64,2.44,2.44,0,0,1-1.08,2.13,5.49,5.49,0,0,1-3.12.74h-5.43v-10.5h5.13A5,5,0,0,1,663,273a2.33,2.33,0,0,1,1,2,2.5,2.5,0,0,1-.37,1.36,2.53,2.53,0,0,1-1,.95A2.8,2.8,0,0,1,664.05,278.22Zm-6.71-4.16v2.47h2.42a2.42,2.42,0,0,0,1.36-.31,1.05,1.05,0,0,0,.47-.93,1,1,0,0,0-.47-.92,2.42,2.42,0,0,0-1.36-.31Zm4.28,6.52a1.06,1.06,0,0,0,.49-1c0-.87-.64-1.31-1.93-1.31h-2.84v2.6h2.84A2.65,2.65,0,0,0,661.62,280.58Z"/>
        <path class="cls-20" d="M668.43,274.21h-3.36v-2h9.15v2h-3.36v8.52h-2.43Z"/>
        <path class="cls-20" d="M677.49,282.21a5.26,5.26,0,0,1-2-1.93,5.67,5.67,0,0,1,0-5.6,5.26,5.26,0,0,1,2-1.93,6,6,0,0,1,2.92-.7,6.15,6.15,0,0,1,2.47.48,5,5,0,0,1,1.85,1.38l-1.56,1.44a3.35,3.35,0,0,0-2.64-1.23,3.56,3.56,0,0,0-1.74.42,3.05,3.05,0,0,0-1.19,1.2,3.74,3.74,0,0,0,0,3.48,3,3,0,0,0,1.19,1.19,3.45,3.45,0,0,0,1.74.43,3.34,3.34,0,0,0,2.64-1.25l1.56,1.44a4.87,4.87,0,0,1-1.86,1.4,6.15,6.15,0,0,1-2.47.48A6,6,0,0,1,677.49,282.21Z"/>
        <path class="cls-20" d="M685.81,277.57h4.25v1.87h-4.25Z"/>
        <path class="cls-20" d="M691.69,277.57h4.25v1.87h-4.25Z"/>
        <path class="cls-20" d="M697.57,277.57h4.24v1.87h-4.24Z"/>
        <path class="cls-20" d="M703.45,277.57h4.24v1.87h-4.24Z"/>
        <path class="cls-20" d="M709.33,277.57h4.24v1.87h-4.24Z"/>
        <path class="cls-20" d="M715.21,277.57h4.24v1.87h-4.24Z"/>
        <path class="cls-20" d="M721.09,277.57h4.24v1.87h-4.24Z"/>
        <path class="cls-20" d="M727,277.57h4.24v1.87H727Z"/>
        <path class="cls-20" d="M732.85,277.57h4.24v1.87h-4.24Z"/>
        <path class="cls-20" d="M738.73,277.57H743v1.87h-4.24Z"/>
        <path class="cls-20" d="M636.87,306.57h4.24v1.87h-4.24Z"/>
        <path class="cls-20" d="M650.53,301.23v1.57l-3.9,8.93H644l3.76-8.52h-3.48v1.71h-2.15v-3.69Z"/>
        <path class="cls-20" d="M661.39,307.22a2.63,2.63,0,0,1,.51,1.64,2.43,2.43,0,0,1-1.07,2.12,5.46,5.46,0,0,1-3.13.75h-5.43v-10.5h5.13a5,5,0,0,1,3,.73,2.35,2.35,0,0,1,1,2,2.59,2.59,0,0,1-.37,1.36,2.63,2.63,0,0,1-1,.95A2.8,2.8,0,0,1,661.39,307.22Zm-6.7-4.16v2.47h2.41a2.46,2.46,0,0,0,1.37-.31,1,1,0,0,0,.46-.93,1,1,0,0,0-.46-.92,2.46,2.46,0,0,0-1.37-.31Zm4.28,6.52a1.08,1.08,0,0,0,.49-1c0-.87-.65-1.31-1.94-1.31h-2.83v2.6h2.83A2.71,2.71,0,0,0,659,309.58Z"/>
        <path class="cls-20" d="M665.77,303.21h-3.36v-2h9.15v2H668.2v8.52h-2.43Z"/>
        <path class="cls-20" d="M674.84,311.21a5.13,5.13,0,0,1-2-1.93,5.67,5.67,0,0,1,0-5.6,5.13,5.13,0,0,1,2-1.93,6,6,0,0,1,2.92-.7,6.07,6.07,0,0,1,2.46.48,4.93,4.93,0,0,1,1.86,1.38l-1.56,1.44a3.35,3.35,0,0,0-2.64-1.23,3.56,3.56,0,0,0-1.74.42,3.14,3.14,0,0,0-1.2,1.2,3.81,3.81,0,0,0,0,3.48,3.05,3.05,0,0,0,1.2,1.19,3.45,3.45,0,0,0,1.74.43,3.34,3.34,0,0,0,2.64-1.25l1.56,1.44a4.87,4.87,0,0,1-1.86,1.4,6.2,6.2,0,0,1-2.48.48A6.07,6.07,0,0,1,674.84,311.21Z"/>
        <path class="cls-20" d="M683.15,306.57h4.25v1.87h-4.25Z"/>
        <path class="cls-20" d="M689,306.57h4.25v1.87H689Z"/>
        <path class="cls-20" d="M694.91,306.57h4.25v1.87h-4.25Z"/>
        <path class="cls-20" d="M700.79,306.57H705v1.87h-4.25Z"/>
        <path class="cls-20" d="M706.67,306.57h4.25v1.87h-4.25Z"/>
        <path class="cls-20" d="M712.55,306.57h4.25v1.87h-4.25Z"/>
        <path class="cls-20" d="M718.43,306.57h4.25v1.87h-4.25Z"/>
        <path class="cls-20" d="M724.31,306.57h4.25v1.87h-4.25Z"/>
        <path class="cls-20" d="M730.19,306.57h4.25v1.87h-4.25Z"/>
        <path class="cls-20" d="M736.07,306.57h4.25v1.87h-4.25Z"/>
        <path class="cls-20" d="M644.16,336.39h-2.61v2.55h-1.94v-2.55H637v-1.83h2.59V332h1.94v2.55h2.61Z"/>
        <path class="cls-20" d="M649.39,330.23v10.5H647v-8.55h-2.1v-1.95Z"/>
        <path class="cls-20" d="M658.1,335.06a3,3,0,0,1,1.06,2.37,3.25,3.25,0,0,1-.48,1.74,3.42,3.42,0,0,1-1.47,1.27,5.61,5.61,0,0,1-2.42.47,8.42,8.42,0,0,1-2.18-.29,5.67,5.67,0,0,1-1.82-.84l1-1.86a4.38,4.38,0,0,0,1.38.7,5.1,5.1,0,0,0,1.6.25,2.51,2.51,0,0,0,1.44-.36,1.16,1.16,0,0,0,.53-1,1.14,1.14,0,0,0-.55-1,3.81,3.81,0,0,0-1.9-.34h-2.68l.54-5.91h6.4v1.95h-4.38l-.16,2h.85A5.06,5.06,0,0,1,658.1,335.06Z"/>
        <path class="cls-20" d="M669.93,336.22a2.63,2.63,0,0,1,.51,1.64,2.41,2.41,0,0,1-1.08,2.12,5.44,5.44,0,0,1-3.13.75h-5.42v-10.5h5.13a5,5,0,0,1,2.94.73,2.33,2.33,0,0,1,1,2,2.5,2.5,0,0,1-.37,1.36,2.53,2.53,0,0,1-1,.95A2.84,2.84,0,0,1,669.93,336.22Zm-6.71-4.16v2.47h2.42a2.44,2.44,0,0,0,1.36-.31,1,1,0,0,0,.46-.93,1,1,0,0,0-.46-.92,2.44,2.44,0,0,0-1.36-.31Zm4.28,6.52a1.06,1.06,0,0,0,.49-1c0-.87-.64-1.31-1.93-1.31h-2.84v2.6h2.84A2.67,2.67,0,0,0,667.5,338.58Z"/>
        <path class="cls-20" d="M674.31,332.21H671v-2h9.15v2h-3.36v8.52h-2.43Z"/>
        <path class="cls-20" d="M683.37,340.21a5.26,5.26,0,0,1-2-1.93,5.67,5.67,0,0,1,0-5.6,5.26,5.26,0,0,1,2-1.93,6,6,0,0,1,2.92-.7,6.15,6.15,0,0,1,2.47.48,5,5,0,0,1,1.85,1.38l-1.56,1.44a3.35,3.35,0,0,0-2.64-1.23,3.56,3.56,0,0,0-1.74.42,3.05,3.05,0,0,0-1.19,1.2,3.74,3.74,0,0,0,0,3.48,3,3,0,0,0,1.19,1.19,3.45,3.45,0,0,0,1.74.43,3.34,3.34,0,0,0,2.64-1.25l1.56,1.44a4.87,4.87,0,0,1-1.86,1.4,6.49,6.49,0,0,1-5.38-.22Z"/>
        <path class="cls-20" d="M696,335.57h4.25v1.87H696Z"/>
        <path class="cls-20" d="M701.9,335.57h4.25v1.87H701.9Z"/>
        <path class="cls-20" d="M707.78,335.57H712v1.87h-4.25Z"/>
        <path class="cls-20" d="M713.66,335.57h4.25v1.87h-4.25Z"/>
        <path class="cls-20" d="M719.54,335.57h4.25v1.87h-4.25Z"/>
        <path class="cls-20" d="M725.42,335.57h4.25v1.87h-4.25Z"/>
        <path class="cls-20" d="M731.3,335.57h4.25v1.87H731.3Z"/>
        <path class="cls-20" d="M737.18,335.57h4.25v1.87h-4.25Z"/>
      </g>
      <polygon class="cls-5" points="805.78 392.67 592.06 392.67 592.06 71.5 805.78 71.5 805.78 124.36 782.8 144.47 782.8 320.27 805.78 336.36 805.78 392.67"/>
      <polyline class="cls-5" points="802.91 127.81 802.91 191.01 783.09 211.4"/>
      <polyline class="cls-5" points="802.91 191.39 802.91 250.57 783.09 270.96"/>
      <line class="cls-5" x1="802.91" y1="250.57" x2="802.91" y2="334.35"/>
      <path class="cls-19" d="M612.36,95.06a8.24,8.24,0,1,0-8.24,8.23A8.24,8.24,0,0,0,612.36,95.06Z"/>
      <circle class="cls-19" cx="604.12" cy="125.02" r="8.24" transform="translate(473.81 728.02) rotate(-89.5)"/>
      <circle class="cls-19" cx="604.12" cy="155.11" r="8.23" transform="translate(431.34 754.42) rotate(-88.32)"/>
      <path class="cls-19" d="M612.36,185.13a8.24,8.24,0,1,0-8.24,8.24A8.23,8.23,0,0,0,612.36,185.13Z"/>
      <circle class="cls-19" cx="604.12" cy="215.09" r="8.23" transform="translate(-1.8 5.13) rotate(-0.49)"/>
      <circle class="cls-19" cx="604.12" cy="245.18" r="8.23" transform="matrix(1, -0.03, 0.03, 1, -6.24, 15.97)"/>
      <path class="cls-19" d="M612.36,275.08a8.24,8.24,0,1,0-8.24,8.23A8.24,8.24,0,0,0,612.36,275.08Z"/>
      <path class="cls-19" d="M612.36,305a8.24,8.24,0,1,0-8.24,8.24A8.24,8.24,0,0,0,612.36,305Z"/>
      <circle class="cls-19" cx="604.12" cy="335.13" r="8.23"/>
      <circle class="cls-19" cx="604.12" cy="365.15" r="8.23" transform="matrix(1, -0.03, 0.03, 1, -9.39, 16.01)"/>
      <g>
        <line class="cls-5" x1="582.1" y1="92.76" x2="605.85" y2="92.76"/>
        <line class="cls-5" x1="582.1" y1="97.74" x2="605.85" y2="97.74"/>
        <line class="cls-5" x1="582.1" y1="122.68" x2="605.85" y2="122.68"/>
        <line class="cls-5" x1="582.1" y1="127.66" x2="605.85" y2="127.66"/>
        <line class="cls-5" x1="582.1" y1="152.6" x2="605.85" y2="152.6"/>
        <line class="cls-5" x1="582.1" y1="157.57" x2="605.85" y2="157.57"/>
        <line class="cls-5" x1="582.1" y1="182.52" x2="605.85" y2="182.52"/>
        <line class="cls-5" x1="582.1" y1="187.49" x2="605.85" y2="187.49"/>
        <line class="cls-5" x1="582.1" y1="212.43" x2="605.85" y2="212.43"/>
        <line class="cls-5" x1="582.1" y1="217.41" x2="605.85" y2="217.41"/>
        <line class="cls-5" x1="582.1" y1="242.35" x2="605.85" y2="242.35"/>
        <line class="cls-5" x1="582.1" y1="247.33" x2="605.85" y2="247.33"/>
        <line class="cls-5" x1="582.1" y1="272.27" x2="605.85" y2="272.27"/>
        <line class="cls-5" x1="582.1" y1="277.25" x2="605.85" y2="277.25"/>
        <line class="cls-5" x1="582.1" y1="302.19" x2="605.85" y2="302.19"/>
        <line class="cls-5" x1="582.1" y1="307.17" x2="605.85" y2="307.17"/>
        <line class="cls-5" x1="582.1" y1="332.11" x2="605.85" y2="332.11"/>
        <line class="cls-5" x1="582.1" y1="337.09" x2="605.85" y2="337.09"/>
        <line class="cls-5" x1="582.1" y1="362.03" x2="605.85" y2="362.03"/>
        <line class="cls-5" x1="582.1" y1="367" x2="605.85" y2="367"/>
      </g>
      <g>
        <path class="cls-20" d="M753.25,141.15a1.42,1.42,0,0,1-1-.39l-5.19-4.89a1.43,1.43,0,0,1,2-2.08l4.19,4,11-10.8a1.43,1.43,0,1,1,2,2l-12,11.76A1.44,1.44,0,0,1,753.25,141.15Z"/>
        <path class="cls-20" d="M753.25,169.6a1.41,1.41,0,0,1-1-.38l-5.19-4.9a1.43,1.43,0,0,1,2-2.08l4.19,3.95,11-10.8a1.43,1.43,0,1,1,2,2l-12,11.76A1.4,1.4,0,0,1,753.25,169.6Z"/>
        <path class="cls-20" d="M753.25,196.16a1.42,1.42,0,0,1-1-.39l-5.19-4.89a1.43,1.43,0,0,1,2-2.08l4.19,3.95,11-10.8a1.43,1.43,0,1,1,2,2l-12,11.76A1.44,1.44,0,0,1,753.25,196.16Z"/>
        <path class="cls-20" d="M753.25,226a1.42,1.42,0,0,1-1-.39l-5.19-4.89a1.43,1.43,0,0,1,2-2.08l4.19,4,11-10.8a1.43,1.43,0,1,1,2,2l-12,11.76A1.44,1.44,0,0,1,753.25,226Z"/>
        <path class="cls-20" d="M753.25,255.65a1.42,1.42,0,0,1-1-.39l-5.19-4.9a1.43,1.43,0,1,1,2-2.07l4.19,3.94,11-10.79a1.42,1.42,0,1,1,2,2l-12,11.77A1.44,1.44,0,0,1,753.25,255.65Z"/>
        <path class="cls-20" d="M753.25,283.77a1.42,1.42,0,0,1-1-.39l-5.19-4.89a1.43,1.43,0,0,1,2-2.08l4.19,3.95,11-10.8a1.43,1.43,0,1,1,2,2l-12,11.76A1.44,1.44,0,0,1,753.25,283.77Z"/>
        <path class="cls-20" d="M753.25,312.77a1.42,1.42,0,0,1-1-.39l-5.19-4.89a1.43,1.43,0,0,1,2-2.08l4.19,3.95,11-10.8a1.43,1.43,0,1,1,2,2l-12,11.76A1.44,1.44,0,0,1,753.25,312.77Z"/>
        <path class="cls-20" d="M753.25,340.39a1.42,1.42,0,0,1-1-.39l-5.19-4.89a1.43,1.43,0,0,1,2-2.08l4.19,4,11-10.8a1.43,1.43,0,1,1,2,2l-12,11.76A1.4,1.4,0,0,1,753.25,340.39Z"/>
      </g>
    </g>
  </g>
</svg>
