<svg id="work" xmlns="http://www.w3.org/2000/svg" viewBox="0 0 1422 870">
  <defs>
    <style>
      .cls-1, .cls-3 {
        fill: #ebebeb;
      }

      .cls-1, .cls-4, .cls-5 {
        stroke: #4a4a4a;
      }

      .Graphic-Style-5, .cls-1, .cls-4, .cls-5 {
        stroke-linecap: round;
        stroke-linejoin: round;
      }

      .Graphic-Style-5, .cls-1, .cls-5 {
        stroke-width: 2.5px;
      }

      .cls-2 {
        fill: #fff;
      }

      .Graphic-Style-5, .cls-4, .cls-5 {
        fill: none;
      }

      .cls-4 {
        stroke-width: 4px;
      }

      .cls-6 {
        fill: #ff0083;
      }

      .Graphic-Style-5 {
        stroke: #ff0083;
      }
    </style>
  </defs>
  <title>20,1</title>
  <g>
    <g>
      <rect class="cls-1" x="196.81" y="156.78" width="392" height="582.5" rx="19" ry="19"/>
      <polygon class="cls-2" points="577.81 258.28 570.95 264.28 572.81 264.28 572.81 374.28 571.43 375.7 572.81 374.95 572.81 477.95 573.34 622.23 577.81 627.28 577.81 725.28 205.81 725.28 205.81 166.28 577.81 166.28 577.81 258.28"/>
      <polygon class="cls-3" points="572.81 287.28 552.48 305.28 552.48 398.43 573.55 377.36 573.55 401.87 552.48 420.17 552.48 501.76 571.97 482.07 572.81 499.95 551.48 523.76 551.48 608.85 536.15 599.28 537.15 295.47 572.81 259.43 572.81 287.28"/>
      <polygon class="cls-4" points="577.81 725.28 205.81 725.28 205.81 166.28 577.81 166.28 577.81 258.28 537.81 293.28 537.81 599.28 577.81 627.28 577.81 725.28"/>
      <polyline class="cls-5" points="572.81 264.28 572.81 374.28 538.31 409.78"/>
      <polyline class="cls-5" points="572.81 374.95 572.81 477.95 538.31 513.45"/>
      <line class="cls-5" x1="572.81" y1="477.95" x2="572.81" y2="623.78"/>
      <path class="cls-1" d="M241.15,207.28a14.34,14.34,0,1,0-14.34,14.33A14.34,14.34,0,0,0,241.15,207.28Z"/>
      <path class="cls-1" d="M241.15,259.43a14.34,14.34,0,1,0-14.34,14.33A14.33,14.33,0,0,0,241.15,259.43Z"/>
      <path class="cls-1" d="M241.15,311.8a14.34,14.34,0,1,0-14.34,14.33A14.33,14.33,0,0,0,241.15,311.8Z"/>
      <circle class="cls-1" cx="226.81" cy="364.06" r="14.33"/>
      <circle class="cls-1" cx="226.81" cy="416.21" r="14.33"/>
      <circle class="cls-1" cx="226.81" cy="468.58" r="14.33" transform="translate(-72.13 42.38) rotate(-9.22)"/>
      <circle class="cls-1" cx="226.81" cy="520.61" r="14.33" transform="translate(-80.46 43.05) rotate(-9.22)"/>
      <circle class="cls-1" cx="226.81" cy="572.76" r="14.33"/>
      <path class="cls-1" d="M241.15,625.13a14.34,14.34,0,1,0-14.34,14.34A14.34,14.34,0,0,0,241.15,625.13Z"/>
      <circle class="cls-1" cx="226.81" cy="677.39" r="14.33"/>
      <g>
        <line class="cls-5" x1="188.48" y1="203.28" x2="229.81" y2="203.28"/>
        <line class="cls-5" x1="188.48" y1="211.95" x2="229.81" y2="211.95"/>
        <line class="cls-5" x1="188.48" y1="255.35" x2="229.81" y2="255.35"/>
        <line class="cls-5" x1="188.48" y1="264.02" x2="229.81" y2="264.02"/>
        <line class="cls-5" x1="188.48" y1="307.43" x2="229.81" y2="307.43"/>
        <line class="cls-5" x1="188.48" y1="316.1" x2="229.81" y2="316.1"/>
        <line class="cls-5" x1="188.48" y1="359.5" x2="229.81" y2="359.5"/>
        <line class="cls-5" x1="188.48" y1="368.17" x2="229.81" y2="368.17"/>
        <line class="cls-5" x1="188.48" y1="411.58" x2="229.81" y2="411.58"/>
        <line class="cls-5" x1="188.48" y1="420.24" x2="229.81" y2="420.24"/>
        <line class="cls-5" x1="188.48" y1="463.65" x2="229.81" y2="463.65"/>
        <line class="cls-5" x1="188.48" y1="472.32" x2="229.81" y2="472.32"/>
        <line class="cls-5" x1="188.48" y1="515.73" x2="229.81" y2="515.73"/>
        <line class="cls-5" x1="188.48" y1="524.39" x2="229.81" y2="524.39"/>
        <line class="cls-5" x1="188.48" y1="567.8" x2="229.81" y2="567.8"/>
        <line class="cls-5" x1="188.48" y1="576.47" x2="229.81" y2="576.47"/>
        <line class="cls-5" x1="188.48" y1="619.87" x2="229.81" y2="619.87"/>
        <line class="cls-5" x1="188.48" y1="628.54" x2="229.81" y2="628.54"/>
        <line class="cls-5" x1="188.48" y1="671.95" x2="229.81" y2="671.95"/>
        <line class="cls-5" x1="188.48" y1="680.61" x2="229.81" y2="680.61"/>
      </g>
      <g>
        <g>
          <path class="cls-6" d="M286.45,277.39h-4.53v4.42h-3.35v-4.42h-4.5v-3.17h4.5V269.8h3.35v4.42h4.53Z"/>
          <path class="cls-6" d="M295.52,266.71v18.2h-4.21V270.09h-3.64v-3.38Z"/>
          <path class="cls-6" d="M323,277.1a4.54,4.54,0,0,1,.89,2.84,4.2,4.2,0,0,1-1.86,3.68,9.51,9.51,0,0,1-5.43,1.29h-9.41v-18.2h8.89a8.69,8.69,0,0,1,5.11,1.27,4,4,0,0,1,1.79,3.46,4.52,4.52,0,0,1-.64,2.37,4.45,4.45,0,0,1-1.78,1.63A4.76,4.76,0,0,1,323,277.1Zm-11.62-7.22v4.29h4.18a4.19,4.19,0,0,0,2.37-.55,2,2,0,0,0,0-3.21,4.38,4.38,0,0,0-2.37-.53Zm7.42,11.31a1.86,1.86,0,0,0,.85-1.69c0-1.51-1.12-2.26-3.36-2.26h-4.91v4.5h4.91A4.7,4.7,0,0,0,318.8,281.19Z"/>
          <path class="cls-6" d="M330.59,270.14h-5.82v-3.43h15.86v3.43h-5.82v14.77h-4.22Z"/>
          <path class="cls-6" d="M346.31,284a9,9,0,0,1-3.54-3.35,9.83,9.83,0,0,1,0-9.7,9,9,0,0,1,3.54-3.35,11.28,11.28,0,0,1,9.33-.38,8.52,8.52,0,0,1,3.22,2.39l-2.71,2.5a5.81,5.81,0,0,0-4.57-2.14,6,6,0,0,0-3,.75,5.32,5.32,0,0,0-2.07,2.06,6.14,6.14,0,0,0-.74,3,6.08,6.08,0,0,0,.74,3,5.28,5.28,0,0,0,2.07,2.07,6,6,0,0,0,3,.74,5.77,5.77,0,0,0,4.57-2.16l2.71,2.5a8.53,8.53,0,0,1-3.23,2.42,10.76,10.76,0,0,1-4.29.83A10.42,10.42,0,0,1,346.31,284Z"/>
          <path class="cls-6" d="M368.24,276h7.36v3.25h-7.36Z"/>
          <path class="cls-6" d="M378.43,276h7.36v3.25h-7.36Z"/>
          <path class="cls-6" d="M388.62,276H396v3.25h-7.36Z"/>
          <path class="cls-6" d="M398.82,276h7.35v3.25h-7.35Z"/>
          <path class="cls-6" d="M409,276h7.36v3.25H409Z"/>
          <path class="cls-6" d="M419.2,276h7.36v3.25H419.2Z"/>
          <path class="cls-6" d="M429.39,276h7.36v3.25h-7.36Z"/>
          <path class="cls-6" d="M439.58,276h7.36v3.25h-7.36Z"/>
          <path class="cls-6" d="M449.77,276h7.36v3.25h-7.36Z"/>
          <path class="cls-6" d="M286.45,327.39h-4.53v4.42h-3.35v-4.42h-4.5v-3.17h4.5V319.8h3.35v4.42h4.53Z"/>
          <path class="cls-6" d="M295.52,316.71v18.2h-4.21V320.09h-3.64v-3.38Z"/>
          <path class="cls-6" d="M302.46,334.1a7.48,7.48,0,0,1-2.77-3.23,13.3,13.3,0,0,1,0-10.12,7.56,7.56,0,0,1,2.77-3.24,7.87,7.87,0,0,1,8.06,0,7.56,7.56,0,0,1,2.77,3.24,13.3,13.3,0,0,1,0,10.12,7.48,7.48,0,0,1-2.77,3.23,7.81,7.81,0,0,1-8.06,0Zm6.64-3.87a10.76,10.76,0,0,0,0-8.84,3.08,3.08,0,0,0-5.2,0,10.86,10.86,0,0,0,0,8.84,3.08,3.08,0,0,0,5.2,0Z"/>
          <path class="cls-6" d="M333.3,327.1a4.54,4.54,0,0,1,.88,2.84,4.2,4.2,0,0,1-1.86,3.68,9.47,9.47,0,0,1-5.42,1.29h-9.41v-18.2h8.89a8.71,8.71,0,0,1,5.11,1.27,4,4,0,0,1,1.78,3.46,4.43,4.43,0,0,1-.64,2.37,4.33,4.33,0,0,1-1.78,1.63A4.78,4.78,0,0,1,333.3,327.1Zm-11.62-7.22v4.29h4.18a4.19,4.19,0,0,0,2.37-.55,2,2,0,0,0,0-3.21,4.38,4.38,0,0,0-2.37-.53Zm7.42,11.31a1.87,1.87,0,0,0,.84-1.69c0-1.51-1.11-2.26-3.35-2.26h-4.91v4.5h4.91A4.72,4.72,0,0,0,329.1,331.19Z"/>
          <path class="cls-6" d="M340.89,320.14h-5.82v-3.43h15.86v3.43H345.1v14.77h-4.21Z"/>
          <path class="cls-6" d="M356.61,334a9,9,0,0,1-3.54-3.35,9.76,9.76,0,0,1,0-9.7,9,9,0,0,1,3.54-3.35,11.28,11.28,0,0,1,9.33-.38,8.57,8.57,0,0,1,3.21,2.39l-2.7,2.5a5.83,5.83,0,0,0-4.58-2.14,6,6,0,0,0-3,.75,5.19,5.19,0,0,0-2.07,2.06,6,6,0,0,0-.74,3,6,6,0,0,0,.74,3,5.16,5.16,0,0,0,2.07,2.07,6,6,0,0,0,3,.74,5.79,5.79,0,0,0,4.58-2.16l2.7,2.5a8.49,8.49,0,0,1-3.22,2.42,10.83,10.83,0,0,1-4.29.83A10.39,10.39,0,0,1,356.61,334Z"/>
          <path class="cls-6" d="M371,326h7.36v3.25H371Z"/>
          <path class="cls-6" d="M381.21,326h7.36v3.25h-7.36Z"/>
          <path class="cls-6" d="M391.41,326h7.35v3.25h-7.35Z"/>
          <path class="cls-6" d="M401.6,326H409v3.25H401.6Z"/>
          <path class="cls-6" d="M411.79,326h7.36v3.25h-7.36Z"/>
          <path class="cls-6" d="M422,326h7.36v3.25H422Z"/>
          <path class="cls-6" d="M432.17,326h7.36v3.25h-7.36Z"/>
          <path class="cls-6" d="M442.36,326h7.36v3.25h-7.36Z"/>
          <path class="cls-6" d="M452.56,326h7.35v3.25h-7.35Z"/>
          <path class="cls-6" d="M273.81,376h7.36v3.25h-7.36Z"/>
          <path class="cls-6" d="M295.16,375.9a5,5,0,0,1,1.27,3.44,5.48,5.48,0,0,1-.83,2.93,5.77,5.77,0,0,1-2.54,2.14,9.63,9.63,0,0,1-4.17.81,14.23,14.23,0,0,1-3.78-.51,9.59,9.59,0,0,1-3.16-1.44l1.64-3.22a8,8,0,0,0,2.4,1.21,9.45,9.45,0,0,0,2.8.42,4.41,4.41,0,0,0,2.49-.61,1.94,1.94,0,0,0,.91-1.73c0-1.49-1.13-2.23-3.4-2.23h-1.93v-2.78l3.75-4.24h-7.75v-3.38H295.6v2.73l-4.11,4.68A6.14,6.14,0,0,1,295.16,375.9Z"/>
          <path class="cls-6" d="M315.33,377.1a4.54,4.54,0,0,1,.89,2.84,4.2,4.2,0,0,1-1.86,3.68,9.49,9.49,0,0,1-5.42,1.29h-9.42v-18.2h8.9a8.67,8.67,0,0,1,5.1,1.27,4,4,0,0,1,1.79,3.46,4.52,4.52,0,0,1-.64,2.37,4.45,4.45,0,0,1-1.78,1.63A4.76,4.76,0,0,1,315.33,377.1Zm-11.62-7.22v4.29h4.19a4.16,4.16,0,0,0,2.36-.55,2,2,0,0,0,0-3.21,4.34,4.34,0,0,0-2.36-.53Zm7.42,11.31a1.86,1.86,0,0,0,.85-1.69c0-1.51-1.12-2.26-3.36-2.26h-4.91v4.5h4.91A4.7,4.7,0,0,0,311.13,381.19Z"/>
          <path class="cls-6" d="M322.92,370.14H317.1v-3.43H333v3.43h-5.82v14.77h-4.22Z"/>
          <path class="cls-6" d="M338.64,384a9,9,0,0,1-3.54-3.35,9.83,9.83,0,0,1,0-9.7,9,9,0,0,1,3.54-3.35,11.28,11.28,0,0,1,9.33-.38,8.52,8.52,0,0,1,3.22,2.39l-2.71,2.5a5.81,5.81,0,0,0-4.57-2.14,6,6,0,0,0-3,.75,5.32,5.32,0,0,0-2.07,2.06,6.14,6.14,0,0,0-.74,3,6.08,6.08,0,0,0,.74,3,5.28,5.28,0,0,0,2.07,2.07,6,6,0,0,0,3,.74,5.77,5.77,0,0,0,4.57-2.16l2.71,2.5a8.53,8.53,0,0,1-3.23,2.42,10.76,10.76,0,0,1-4.29.83A10.42,10.42,0,0,1,338.64,384Z"/>
          <path class="cls-6" d="M353.06,376h7.36v3.25h-7.36Z"/>
          <path class="cls-6" d="M363.25,376h7.36v3.25h-7.36Z"/>
          <path class="cls-6" d="M373.44,376h7.36v3.25h-7.36Z"/>
          <path class="cls-6" d="M383.63,376H391v3.25h-7.36Z"/>
          <path class="cls-6" d="M393.82,376h7.36v3.25h-7.36Z"/>
          <path class="cls-6" d="M404,376h7.35v3.25H404Z"/>
          <path class="cls-6" d="M414.21,376h7.35v3.25h-7.35Z"/>
          <path class="cls-6" d="M424.4,376h7.36v3.25H424.4Z"/>
          <path class="cls-6" d="M434.59,376H442v3.25h-7.36Z"/>
          <path class="cls-6" d="M444.78,376h7.36v3.25h-7.36Z"/>
          <path class="cls-6" d="M455,376h7.36v3.25H455Z"/>
          <path class="cls-6" d="M286.45,427.39h-4.53v4.42h-3.35v-4.42h-4.5v-3.17h4.5V419.8h3.35v4.42h4.53Z"/>
          <path class="cls-6" d="M302.23,431.48v3.43H288.47v-2.73l7-6.63a7.37,7.37,0,0,0,1.51-1.83,3.37,3.37,0,0,0,.39-1.53,2,2,0,0,0-.74-1.67,3.44,3.44,0,0,0-2.17-.59,4.89,4.89,0,0,0-2.16.46,4.13,4.13,0,0,0-1.61,1.36l-3.07-2a7.2,7.2,0,0,1,2.94-2.49,9.94,9.94,0,0,1,4.29-.89,8.89,8.89,0,0,1,3.55.66,5.48,5.48,0,0,1,2.36,1.87,4.82,4.82,0,0,1,.85,2.85,6.42,6.42,0,0,1-.62,2.78,10.72,10.72,0,0,1-2.42,3l-4.19,4Z"/>
          <path class="cls-6" d="M317.57,431.48v3.43H303.81v-2.73l7-6.63a7.37,7.37,0,0,0,1.51-1.83,3.37,3.37,0,0,0,.39-1.53,2,2,0,0,0-.74-1.67,3.44,3.44,0,0,0-2.17-.59,4.89,4.89,0,0,0-2.16.46,4.13,4.13,0,0,0-1.61,1.36l-3.07-2a7.2,7.2,0,0,1,2.94-2.49,9.94,9.94,0,0,1,4.29-.89,8.89,8.89,0,0,1,3.55.66,5.48,5.48,0,0,1,2.36,1.87,4.82,4.82,0,0,1,.85,2.85,6.42,6.42,0,0,1-.62,2.78,10.72,10.72,0,0,1-2.42,3l-4.19,4Z"/>
          <path class="cls-6" d="M336.26,427.1a4.54,4.54,0,0,1,.89,2.84,4.2,4.2,0,0,1-1.86,3.68,9.49,9.49,0,0,1-5.42,1.29h-9.42v-18.2h8.9a8.67,8.67,0,0,1,5.1,1.27,4,4,0,0,1,1.79,3.46,4.52,4.52,0,0,1-.64,2.37,4.45,4.45,0,0,1-1.78,1.63A4.76,4.76,0,0,1,336.26,427.1Zm-11.62-7.22v4.29h4.19a4.16,4.16,0,0,0,2.36-.55,2,2,0,0,0,0-3.21,4.34,4.34,0,0,0-2.36-.53Zm7.42,11.31a1.86,1.86,0,0,0,.85-1.69c0-1.51-1.12-2.26-3.36-2.26h-4.91v4.5h4.91A4.7,4.7,0,0,0,332.06,431.19Z"/>
          <path class="cls-6" d="M343.85,420.14H338v-3.43h15.86v3.43h-5.82v14.77h-4.22Z"/>
          <path class="cls-6" d="M359.57,434a9,9,0,0,1-3.54-3.35,9.83,9.83,0,0,1,0-9.7,9,9,0,0,1,3.54-3.35,11.28,11.28,0,0,1,9.33-.38,8.52,8.52,0,0,1,3.22,2.39l-2.71,2.5a5.81,5.81,0,0,0-4.57-2.14,6,6,0,0,0-3,.75,5.32,5.32,0,0,0-2.07,2.06,6.14,6.14,0,0,0-.74,3,6.08,6.08,0,0,0,.74,3,5.28,5.28,0,0,0,2.07,2.07,6,6,0,0,0,3,.74,5.77,5.77,0,0,0,4.57-2.16l2.71,2.5a8.53,8.53,0,0,1-3.23,2.42,10.76,10.76,0,0,1-4.29.83A10.42,10.42,0,0,1,359.57,434Z"/>
          <path class="cls-6" d="M374,426h7.36v3.25H374Z"/>
          <path class="cls-6" d="M384.18,426h7.36v3.25h-7.36Z"/>
          <path class="cls-6" d="M394.37,426h7.36v3.25h-7.36Z"/>
          <path class="cls-6" d="M404.56,426h7.36v3.25h-7.36Z"/>
          <path class="cls-6" d="M414.75,426h7.36v3.25h-7.36Z"/>
          <path class="cls-6" d="M425,426h7.35v3.25H425Z"/>
          <path class="cls-6" d="M435.14,426h7.35v3.25h-7.35Z"/>
          <path class="cls-6" d="M445.33,426h7.36v3.25h-7.36Z"/>
          <path class="cls-6" d="M455.52,426h7.36v3.25h-7.36Z"/>
          <path class="cls-6" d="M286.45,477.39h-4.53v4.42h-3.35v-4.42h-4.5v-3.17h4.5V469.8h3.35v4.42h4.53Z"/>
          <path class="cls-6" d="M301.42,468.72q2.16,2.34,2.16,6.7a11.3,11.3,0,0,1-1.16,5.3,7.89,7.89,0,0,1-3.26,3.36,10.05,10.05,0,0,1-4.86,1.14,12,12,0,0,1-2.78-.32,7.59,7.59,0,0,1-2.27-.93l1.56-3.09a5.89,5.89,0,0,0,3.41.91,5,5,0,0,0,3.67-1.37,5.71,5.71,0,0,0,1.45-3.94,6.08,6.08,0,0,1-4.52,1.64,7.06,7.06,0,0,1-3.17-.7,5.56,5.56,0,0,1-2.27-2,5.41,5.41,0,0,1-.83-3,5.63,5.63,0,0,1,.91-3.19,6,6,0,0,1,2.48-2.12,8,8,0,0,1,3.5-.74A7.75,7.75,0,0,1,301.42,468.72ZM298,474.21a2.66,2.66,0,0,0,0-3.91,3.34,3.34,0,0,0-2.33-.76,3.3,3.3,0,0,0-2.2.73,2.48,2.48,0,0,0-.84,2,2.53,2.53,0,0,0,.84,2,3.33,3.33,0,0,0,2.25.74A3.28,3.28,0,0,0,298,474.21Z"/>
          <path class="cls-6" d="M322.56,477.1a4.54,4.54,0,0,1,.88,2.84,4.2,4.2,0,0,1-1.86,3.68,9.47,9.47,0,0,1-5.42,1.29h-9.41v-18.2h8.89a8.71,8.71,0,0,1,5.11,1.27,4,4,0,0,1,1.78,3.46,4.52,4.52,0,0,1-.63,2.37,4.45,4.45,0,0,1-1.78,1.63A4.76,4.76,0,0,1,322.56,477.1Zm-11.62-7.22v4.29h4.18a4.19,4.19,0,0,0,2.37-.55,2,2,0,0,0,0-3.21,4.38,4.38,0,0,0-2.37-.53Zm7.42,11.31a1.88,1.88,0,0,0,.85-1.69c0-1.51-1.12-2.26-3.36-2.26h-4.91v4.5h4.91A4.7,4.7,0,0,0,318.36,481.19Z"/>
          <path class="cls-6" d="M330.15,470.14h-5.82v-3.43h15.86v3.43h-5.83v14.77h-4.21Z"/>
          <path class="cls-6" d="M345.87,484a9,9,0,0,1-3.54-3.35,9.83,9.83,0,0,1,0-9.7,9,9,0,0,1,3.54-3.35,11.28,11.28,0,0,1,9.33-.38,8.41,8.41,0,0,1,3.21,2.39l-2.7,2.5a5.83,5.83,0,0,0-4.58-2.14,6,6,0,0,0-3,.75,5.19,5.19,0,0,0-2.07,2.06,6.14,6.14,0,0,0-.74,3,6.08,6.08,0,0,0,.74,3,5.16,5.16,0,0,0,2.07,2.07,6,6,0,0,0,3,.74,5.79,5.79,0,0,0,4.58-2.16l2.7,2.5a8.42,8.42,0,0,1-3.22,2.42,10.76,10.76,0,0,1-4.29.83A10.39,10.39,0,0,1,345.87,484Z"/>
          <path class="cls-6" d="M360.29,476h7.35v3.25h-7.35Z"/>
          <path class="cls-6" d="M370.48,476h7.35v3.25h-7.35Z"/>
          <path class="cls-6" d="M380.67,476H388v3.25h-7.36Z"/>
          <path class="cls-6" d="M390.86,476h7.36v3.25h-7.36Z"/>
          <path class="cls-6" d="M401.05,476h7.36v3.25h-7.36Z"/>
          <path class="cls-6" d="M411.24,476h7.36v3.25h-7.36Z"/>
          <path class="cls-6" d="M421.43,476h7.36v3.25h-7.36Z"/>
          <path class="cls-6" d="M431.63,476H439v3.25h-7.35Z"/>
          <path class="cls-6" d="M441.82,476h7.36v3.25h-7.36Z"/>
          <path class="cls-6" d="M452,476h7.36v3.25H452Z"/>
          <path class="cls-6" d="M286.45,527.39h-4.53v4.42h-3.35v-4.42h-4.5v-3.17h4.5V519.8h3.35v4.42h4.53Z"/>
          <path class="cls-6" d="M302.23,531.48v3.43H288.47v-2.73l7-6.63a7.37,7.37,0,0,0,1.51-1.83,3.37,3.37,0,0,0,.39-1.53,2,2,0,0,0-.74-1.67,3.44,3.44,0,0,0-2.17-.59,4.89,4.89,0,0,0-2.16.46,4.13,4.13,0,0,0-1.61,1.36l-3.07-2a7.2,7.2,0,0,1,2.94-2.49,9.94,9.94,0,0,1,4.29-.89,8.89,8.89,0,0,1,3.55.66,5.48,5.48,0,0,1,2.36,1.87,4.82,4.82,0,0,1,.85,2.85,6.42,6.42,0,0,1-.62,2.78,10.72,10.72,0,0,1-2.42,3l-4.19,4Z"/>
          <path class="cls-6" d="M320.92,527.1a4.54,4.54,0,0,1,.89,2.84,4.2,4.2,0,0,1-1.86,3.68,9.49,9.49,0,0,1-5.42,1.29h-9.42v-18.2H314a8.67,8.67,0,0,1,5.1,1.27,4,4,0,0,1,1.79,3.46,4.52,4.52,0,0,1-.64,2.37,4.45,4.45,0,0,1-1.78,1.63A4.76,4.76,0,0,1,320.92,527.1Zm-11.62-7.22v4.29h4.19a4.16,4.16,0,0,0,2.36-.55,2,2,0,0,0,0-3.21,4.34,4.34,0,0,0-2.36-.53Zm7.42,11.31a1.86,1.86,0,0,0,.85-1.69c0-1.51-1.12-2.26-3.36-2.26H309.3v4.5h4.91A4.7,4.7,0,0,0,316.72,531.19Z"/>
          <path class="cls-6" d="M328.51,520.14h-5.82v-3.43h15.86v3.43h-5.82v14.77h-4.22Z"/>
          <path class="cls-6" d="M344.23,534a9,9,0,0,1-3.54-3.35,9.83,9.83,0,0,1,0-9.7,9,9,0,0,1,3.54-3.35,11.28,11.28,0,0,1,9.33-.38,8.52,8.52,0,0,1,3.22,2.39l-2.71,2.5A5.81,5.81,0,0,0,349.5,520a6,6,0,0,0-3,.75,5.32,5.32,0,0,0-2.07,2.06,6.14,6.14,0,0,0-.74,3,6.08,6.08,0,0,0,.74,3,5.28,5.28,0,0,0,2.07,2.07,6,6,0,0,0,3,.74,5.77,5.77,0,0,0,4.57-2.16l2.71,2.5a8.53,8.53,0,0,1-3.23,2.42,10.76,10.76,0,0,1-4.29.83A10.42,10.42,0,0,1,344.23,534Z"/>
          <path class="cls-6" d="M358.65,526H366v3.25h-7.36Z"/>
          <path class="cls-6" d="M368.84,526h7.36v3.25h-7.36Z"/>
          <path class="cls-6" d="M379,526h7.36v3.25H379Z"/>
          <path class="cls-6" d="M389.22,526h7.36v3.25h-7.36Z"/>
          <path class="cls-6" d="M399.41,526h7.36v3.25h-7.36Z"/>
          <path class="cls-6" d="M409.61,526H417v3.25h-7.35Z"/>
          <path class="cls-6" d="M419.8,526h7.35v3.25H419.8Z"/>
          <path class="cls-6" d="M430,526h7.36v3.25H430Z"/>
          <path class="cls-6" d="M440.18,526h7.36v3.25h-7.36Z"/>
          <path class="cls-6" d="M450.37,526h7.36v3.25h-7.36Z"/>
          <path class="cls-6" d="M273.81,576h7.36v3.25h-7.36Z"/>
          <path class="cls-6" d="M297.5,566.71v2.73l-6.76,15.47h-4.58l6.53-14.77h-6v3h-3.74v-6.39Z"/>
          <path class="cls-6" d="M316.32,577.1a4.54,4.54,0,0,1,.88,2.84,4.2,4.2,0,0,1-1.86,3.68,9.47,9.47,0,0,1-5.42,1.29h-9.41v-18.2h8.89a8.71,8.71,0,0,1,5.11,1.27,4,4,0,0,1,1.78,3.46,4.52,4.52,0,0,1-.63,2.37,4.42,4.42,0,0,1-1.79,1.63A4.74,4.74,0,0,1,316.32,577.1Zm-11.62-7.22v4.29h4.18a4.19,4.19,0,0,0,2.37-.55,2,2,0,0,0,0-3.21,4.38,4.38,0,0,0-2.37-.53Zm7.42,11.31a1.87,1.87,0,0,0,.84-1.69c0-1.51-1.11-2.26-3.35-2.26H304.7v4.5h4.91A4.7,4.7,0,0,0,312.12,581.19Z"/>
          <path class="cls-6" d="M323.91,570.14h-5.82v-3.43H334v3.43h-5.83v14.77h-4.21Z"/>
          <path class="cls-6" d="M339.63,584a9,9,0,0,1-3.54-3.35,9.83,9.83,0,0,1,0-9.7,9,9,0,0,1,3.54-3.35,11.28,11.28,0,0,1,9.33-.38,8.41,8.41,0,0,1,3.21,2.39l-2.7,2.5a5.83,5.83,0,0,0-4.58-2.14,6,6,0,0,0-3,.75,5.19,5.19,0,0,0-2.07,2.06,6.14,6.14,0,0,0-.74,3,6.08,6.08,0,0,0,.74,3,5.16,5.16,0,0,0,2.07,2.07,6,6,0,0,0,3,.74,5.79,5.79,0,0,0,4.58-2.16l2.7,2.5a8.42,8.42,0,0,1-3.22,2.42,10.76,10.76,0,0,1-4.29.83A10.39,10.39,0,0,1,339.63,584Z"/>
          <path class="cls-6" d="M354,576h7.36v3.25H354Z"/>
          <path class="cls-6" d="M364.24,576h7.35v3.25h-7.35Z"/>
          <path class="cls-6" d="M374.43,576h7.36v3.25h-7.36Z"/>
          <path class="cls-6" d="M384.62,576H392v3.25h-7.36Z"/>
          <path class="cls-6" d="M394.81,576h7.36v3.25h-7.36Z"/>
          <path class="cls-6" d="M405,576h7.36v3.25H405Z"/>
          <path class="cls-6" d="M415.19,576h7.36v3.25h-7.36Z"/>
          <path class="cls-6" d="M425.39,576h7.35v3.25h-7.35Z"/>
          <path class="cls-6" d="M435.58,576h7.36v3.25h-7.36Z"/>
          <path class="cls-6" d="M445.77,576h7.36v3.25h-7.36Z"/>
          <path class="cls-6" d="M286.45,627.39h-4.53v4.42h-3.35v-4.42h-4.5v-3.17h4.5V619.8h3.35v4.42h4.53Z"/>
          <path class="cls-6" d="M295.52,616.71v18.2h-4.21V620.09h-3.64v-3.38Z"/>
          <path class="cls-6" d="M310.61,625.08a5.09,5.09,0,0,1,1.84,4.11,5.67,5.67,0,0,1-.84,3,5.76,5.76,0,0,1-2.53,2.18,9.62,9.62,0,0,1-4.2.82,14.23,14.23,0,0,1-3.78-.51,9.59,9.59,0,0,1-3.16-1.44l1.66-3.22a8,8,0,0,0,2.39,1.21,9.39,9.39,0,0,0,2.79.42,4.31,4.31,0,0,0,2.49-.62,2,2,0,0,0,.91-1.74,2,2,0,0,0-.95-1.77,6.53,6.53,0,0,0-3.29-.6h-4.65l.94-10.24h11.1v3.38h-7.59l-.29,3.46h1.48Q308.78,623.55,310.61,625.08Z"/>
          <path class="cls-6" d="M331.11,627.1a4.54,4.54,0,0,1,.89,2.84,4.2,4.2,0,0,1-1.86,3.68,9.49,9.49,0,0,1-5.42,1.29h-9.41v-18.2h8.89a8.71,8.71,0,0,1,5.11,1.27,4,4,0,0,1,1.78,3.46,4.52,4.52,0,0,1-.64,2.37,4.45,4.45,0,0,1-1.78,1.63A4.76,4.76,0,0,1,331.11,627.1Zm-11.62-7.22v4.29h4.19a4.14,4.14,0,0,0,2.36-.55,2,2,0,0,0,0-3.21,4.32,4.32,0,0,0-2.36-.53Zm7.42,11.31a1.86,1.86,0,0,0,.85-1.69c0-1.51-1.12-2.26-3.36-2.26h-4.91v4.5h4.91A4.7,4.7,0,0,0,326.91,631.19Z"/>
          <path class="cls-6" d="M338.71,620.14h-5.83v-3.43h15.86v3.43h-5.82v14.77h-4.21Z"/>
          <path class="cls-6" d="M354.42,634a8.9,8.9,0,0,1-3.53-3.35,9.76,9.76,0,0,1,0-9.7,8.9,8.9,0,0,1,3.53-3.35,11.3,11.3,0,0,1,9.34-.38,8.57,8.57,0,0,1,3.21,2.39l-2.71,2.5a5.81,5.81,0,0,0-4.57-2.14,6,6,0,0,0-3,.75,5.32,5.32,0,0,0-2.07,2.06,6.14,6.14,0,0,0-.74,3,6.08,6.08,0,0,0,.74,3,5.28,5.28,0,0,0,2.07,2.07,6,6,0,0,0,3,.74,5.77,5.77,0,0,0,4.57-2.16L367,632a8.45,8.45,0,0,1-3.23,2.42,10.76,10.76,0,0,1-4.29.83A10.42,10.42,0,0,1,354.42,634Z"/>
          <path class="cls-6" d="M376.35,626h7.36v3.25h-7.36Z"/>
          <path class="cls-6" d="M386.54,626h7.36v3.25h-7.36Z"/>
          <path class="cls-6" d="M396.74,626h7.35v3.25h-7.35Z"/>
          <path class="cls-6" d="M406.93,626h7.36v3.25h-7.36Z"/>
          <path class="cls-6" d="M417.12,626h7.36v3.25h-7.36Z"/>
          <path class="cls-6" d="M427.31,626h7.36v3.25h-7.36Z"/>
          <path class="cls-6" d="M437.5,626h7.36v3.25H437.5Z"/>
          <path class="cls-6" d="M447.69,626h7.36v3.25h-7.36Z"/>
        </g>
        <g>
          <path class="cls-6" d="M480.39,284.34a2.52,2.52,0,0,1-1.75-.7l-9.24-8.71a2.54,2.54,0,1,1,3.49-3.7l7.46,7L499.89,259a2.55,2.55,0,1,1,3.57,3.63l-21.29,20.95A2.56,2.56,0,0,1,480.39,284.34Z"/>
          <path class="cls-6" d="M480.39,335a2.55,2.55,0,0,1-1.75-.69l-9.24-8.71a2.55,2.55,0,1,1,3.49-3.71l7.46,7,19.54-19.23a2.54,2.54,0,1,1,3.57,3.62l-21.29,20.95A2.51,2.51,0,0,1,480.39,335Z"/>
          <path class="cls-6" d="M480.39,382.31a2.55,2.55,0,0,1-1.75-.69l-9.24-8.72a2.54,2.54,0,1,1,3.49-3.7l7.46,7L499.89,357a2.55,2.55,0,1,1,3.57,3.63l-21.29,20.95A2.56,2.56,0,0,1,480.39,382.31Z"/>
          <path class="cls-6" d="M480.39,435.49a2.55,2.55,0,0,1-1.75-.69l-9.24-8.72a2.54,2.54,0,1,1,3.49-3.7l7.46,7,19.54-19.23a2.55,2.55,0,1,1,3.57,3.63l-21.29,20.95A2.51,2.51,0,0,1,480.39,435.49Z"/>
          <path class="cls-6" d="M480.39,488.25a2.55,2.55,0,0,1-1.75-.69l-9.24-8.72a2.54,2.54,0,1,1,3.49-3.7l7.46,7L499.89,463a2.54,2.54,0,1,1,3.57,3.62l-21.29,20.95A2.51,2.51,0,0,1,480.39,488.25Z"/>
          <path class="cls-6" d="M480.39,538.34a2.55,2.55,0,0,1-1.75-.69l-9.24-8.71a2.55,2.55,0,1,1,3.49-3.71l7.46,7L499.89,513a2.54,2.54,0,1,1,3.57,3.62l-21.29,21A2.51,2.51,0,0,1,480.39,538.34Z"/>
          <path class="cls-6" d="M480.39,590a2.55,2.55,0,0,1-1.75-.69l-9.24-8.72a2.54,2.54,0,1,1,3.49-3.7l7.46,7,19.54-19.24a2.55,2.55,0,0,1,3.57,3.63l-21.29,21A2.51,2.51,0,0,1,480.39,590Z"/>
          <path class="cls-6" d="M480.39,639.18a2.51,2.51,0,0,1-1.75-.69l-9.24-8.71a2.54,2.54,0,1,1,3.49-3.7l7.46,7,19.54-19.23a2.54,2.54,0,1,1,3.57,3.62l-21.29,21A2.51,2.51,0,0,1,480.39,639.18Z"/>
        </g>
      </g>
    </g>
    <g>
      <rect class="cls-1" x="848.78" y="156.78" width="392" height="582.5" rx="19" ry="19"/>
      <polygon class="cls-2" points="1229.78 258.28 1222.92 264.28 1224.78 264.28 1224.78 374.28 1223.4 375.7 1224.78 374.95 1224.78 477.95 1225.31 622.23 1229.78 627.28 1229.78 725.28 857.78 725.28 857.78 166.28 1229.78 166.28 1229.78 258.28"/>
      <polygon class="cls-3" points="1224.78 287.28 1204.44 305.28 1204.44 398.43 1225.52 377.36 1225.52 401.87 1204.44 420.17 1204.44 501.76 1223.93 482.07 1224.78 499.95 1203.44 523.76 1203.44 608.85 1188.11 599.28 1189.11 295.47 1224.78 259.43 1224.78 287.28"/>
      <polygon class="cls-4" points="1229.78 725.28 857.78 725.28 857.78 166.28 1229.78 166.28 1229.78 258.28 1189.78 293.28 1189.78 599.28 1229.78 627.28 1229.78 725.28"/>
      <polyline class="cls-5" points="1224.78 264.28 1224.78 374.28 1190.28 409.78"/>
      <polyline class="cls-5" points="1224.78 374.95 1224.78 477.95 1190.28 513.45"/>
      <line class="cls-5" x1="1224.78" y1="477.95" x2="1224.78" y2="623.78"/>
      <path class="cls-1" d="M893.11,207.28a14.33,14.33,0,1,0-14.33,14.33A14.34,14.34,0,0,0,893.11,207.28Z"/>
      <path class="cls-1" d="M893.11,259.43a14.33,14.33,0,1,0-14.33,14.33A14.33,14.33,0,0,0,893.11,259.43Z"/>
      <path class="cls-1" d="M893.11,311.8a14.33,14.33,0,1,0-14.33,14.33A14.33,14.33,0,0,0,893.11,311.8Z"/>
      <circle class="cls-1" cx="878.78" cy="364.06" r="14.33"/>
      <circle class="cls-1" cx="878.78" cy="416.21" r="14.33"/>
      <circle class="cls-1" cx="878.78" cy="468.58" r="14.33" transform="translate(-63.71 146.81) rotate(-9.22)"/>
      <circle class="cls-1" cx="878.78" cy="520.61" r="14.33" transform="translate(-72.05 147.49) rotate(-9.22)"/>
      <circle class="cls-1" cx="878.78" cy="572.76" r="14.33"/>
      <path class="cls-1" d="M893.11,625.13a14.33,14.33,0,1,0-14.33,14.34A14.34,14.34,0,0,0,893.11,625.13Z"/>
      <circle class="cls-1" cx="878.78" cy="677.39" r="14.33"/>
      <g>
        <line class="cls-5" x1="840.44" y1="203.28" x2="881.78" y2="203.28"/>
        <line class="cls-5" x1="840.44" y1="211.95" x2="881.78" y2="211.95"/>
        <line class="cls-5" x1="840.44" y1="255.35" x2="881.78" y2="255.35"/>
        <line class="cls-5" x1="840.44" y1="264.02" x2="881.78" y2="264.02"/>
        <line class="cls-5" x1="840.44" y1="307.43" x2="881.78" y2="307.43"/>
        <line class="cls-5" x1="840.44" y1="316.1" x2="881.78" y2="316.1"/>
        <line class="cls-5" x1="840.44" y1="359.5" x2="881.78" y2="359.5"/>
        <line class="cls-5" x1="840.44" y1="368.17" x2="881.78" y2="368.17"/>
        <line class="cls-5" x1="840.44" y1="411.58" x2="881.78" y2="411.58"/>
        <line class="cls-5" x1="840.44" y1="420.24" x2="881.78" y2="420.24"/>
        <line class="cls-5" x1="840.44" y1="463.65" x2="881.78" y2="463.65"/>
        <line class="cls-5" x1="840.44" y1="472.32" x2="881.78" y2="472.32"/>
        <line class="cls-5" x1="840.44" y1="515.73" x2="881.78" y2="515.73"/>
        <line class="cls-5" x1="840.44" y1="524.39" x2="881.78" y2="524.39"/>
        <line class="cls-5" x1="840.44" y1="567.8" x2="881.78" y2="567.8"/>
        <line class="cls-5" x1="840.44" y1="576.47" x2="881.78" y2="576.47"/>
        <line class="cls-5" x1="840.44" y1="619.87" x2="881.78" y2="619.87"/>
        <line class="cls-5" x1="840.44" y1="628.54" x2="881.78" y2="628.54"/>
        <line class="cls-5" x1="840.44" y1="671.95" x2="881.78" y2="671.95"/>
        <line class="cls-5" x1="840.44" y1="680.61" x2="881.78" y2="680.61"/>
      </g>
      <g>
        <g>
          <path class="cls-6" d="M943.54,275.45H939v4.42h-3.36v-4.42h-4.5v-3.17h4.5v-4.42H939v4.42h4.52Z"/>
          <path class="cls-6" d="M952.61,264.76V283H948.4V268.14h-3.64v-3.38Z"/>
          <path class="cls-6" d="M980.09,275.15A4.55,4.55,0,0,1,981,278a4.21,4.21,0,0,1-1.86,3.68A9.58,9.58,0,0,1,973.7,283h-9.41v-18.2h8.89a8.7,8.7,0,0,1,5.11,1.28,4,4,0,0,1,1.78,3.46,4.37,4.37,0,0,1-.64,2.36,4.48,4.48,0,0,1-1.78,1.64A4.76,4.76,0,0,1,980.09,275.15Zm-11.62-7.21v4.29h4.19a4.22,4.22,0,0,0,2.36-.55,1.82,1.82,0,0,0,.81-1.61,1.78,1.78,0,0,0-.81-1.6,4.23,4.23,0,0,0-2.36-.53Zm7.43,11.31a1.89,1.89,0,0,0,.84-1.7c0-1.5-1.12-2.26-3.35-2.26h-4.92v4.5h4.92A4.73,4.73,0,0,0,975.9,279.25Z"/>
          <path class="cls-6" d="M987.69,268.19h-5.83v-3.43h15.86v3.43H991.9V283h-4.21Z"/>
          <path class="cls-6" d="M1003.4,282.07a9.06,9.06,0,0,1-3.53-3.36,9.76,9.76,0,0,1,0-9.7,9,9,0,0,1,3.53-3.35,10.48,10.48,0,0,1,5.06-1.21,10.71,10.71,0,0,1,4.28.83,8.67,8.67,0,0,1,3.21,2.39l-2.7,2.5a5.84,5.84,0,0,0-4.58-2.13,6.14,6.14,0,0,0-3,.74,5.19,5.19,0,0,0-2.06,2.07,6.51,6.51,0,0,0,0,6,5.32,5.32,0,0,0,2.06,2.07,6.14,6.14,0,0,0,3,.74,5.8,5.8,0,0,0,4.58-2.16L1016,280a8.39,8.39,0,0,1-3.22,2.42,10.66,10.66,0,0,1-4.29.83A10.54,10.54,0,0,1,1003.4,282.07Z"/>
          <path class="cls-6" d="M1025.33,274h7.36v3.25h-7.36Z"/>
          <path class="cls-6" d="M1035.53,274h7.35v3.25h-7.35Z"/>
          <path class="cls-6" d="M1045.72,274h7.36v3.25h-7.36Z"/>
          <path class="cls-6" d="M1055.91,274h7.36v3.25h-7.36Z"/>
          <path class="cls-6" d="M1066.1,274h7.36v3.25h-7.36Z"/>
          <path class="cls-6" d="M1076.29,274h7.36v3.25h-7.36Z"/>
          <path class="cls-6" d="M1086.48,274h7.36v3.25h-7.36Z"/>
          <path class="cls-6" d="M1096.68,274H1104v3.25h-7.35Z"/>
          <path class="cls-6" d="M1106.87,274h7.36v3.25h-7.36Z"/>
          <path class="cls-6" d="M943.54,325.45H939v4.42h-3.36v-4.42h-4.5v-3.17h4.5v-4.42H939v4.42h4.52Z"/>
          <path class="cls-6" d="M952.61,314.76V333H948.4V318.14h-3.64v-3.38Z"/>
          <path class="cls-6" d="M959.56,332.16a7.5,7.5,0,0,1-2.77-3.24,13.28,13.28,0,0,1,0-10.11,7.42,7.42,0,0,1,13.59,0,13.16,13.16,0,0,1,0,10.11,7.54,7.54,0,0,1-2.76,3.24,7.87,7.87,0,0,1-8.06,0Zm6.64-3.88a10.76,10.76,0,0,0,0-8.84,3,3,0,0,0-2.61-1.43,3,3,0,0,0-2.59,1.43,10.76,10.76,0,0,0,0,8.84,2.93,2.93,0,0,0,2.59,1.43A3,3,0,0,0,966.2,328.28Z"/>
          <path class="cls-6" d="M990.39,325.15a4.54,4.54,0,0,1,.88,2.85,4.23,4.23,0,0,1-1.85,3.68A9.59,9.59,0,0,1,984,333h-9.41v-18.2h8.89a8.68,8.68,0,0,1,5.11,1.28,4,4,0,0,1,1.78,3.46,4.46,4.46,0,0,1-.63,2.36A4.55,4.55,0,0,1,988,323.5,4.8,4.8,0,0,1,990.39,325.15Zm-11.62-7.21v4.29H983a4.28,4.28,0,0,0,2.37-.55,1.82,1.82,0,0,0,.81-1.61,1.78,1.78,0,0,0-.81-1.6,4.29,4.29,0,0,0-2.37-.53Zm7.42,11.31a1.9,1.9,0,0,0,.85-1.7c0-1.5-1.12-2.26-3.36-2.26h-4.91v4.5h4.91A4.7,4.7,0,0,0,986.19,329.25Z"/>
          <path class="cls-6" d="M998,318.19h-5.82v-3.43H1008v3.43h-5.82V333H998Z"/>
          <path class="cls-6" d="M1013.7,332.07a9.09,9.09,0,0,1-3.54-3.36,9.83,9.83,0,0,1,0-9.7,9.06,9.06,0,0,1,3.54-3.35,10.48,10.48,0,0,1,5.06-1.21,10.66,10.66,0,0,1,4.27.83,8.63,8.63,0,0,1,3.22,2.39l-2.71,2.5A5.8,5.8,0,0,0,1019,318a6.11,6.11,0,0,0-3,.74,5.28,5.28,0,0,0-2.07,2.07,6.51,6.51,0,0,0,0,6A5.42,5.42,0,0,0,1016,329a6.11,6.11,0,0,0,3,.74,5.77,5.77,0,0,0,4.57-2.16l2.71,2.49a8.43,8.43,0,0,1-3.23,2.42,11.3,11.3,0,0,1-9.32-.37Z"/>
          <path class="cls-6" d="M1028.12,324h7.35v3.25h-7.35Z"/>
          <path class="cls-6" d="M1038.31,324h7.36v3.25h-7.36Z"/>
          <path class="cls-6" d="M1048.5,324h7.36v3.25h-7.36Z"/>
          <path class="cls-6" d="M1058.69,324h7.36v3.25h-7.36Z"/>
          <path class="cls-6" d="M1068.88,324h7.36v3.25h-7.36Z"/>
          <path class="cls-6" d="M1079.07,324h7.36v3.25h-7.36Z"/>
          <path class="cls-6" d="M1089.27,324h7.35v3.25h-7.35Z"/>
          <path class="cls-6" d="M1099.46,324h7.36v3.25h-7.36Z"/>
          <path class="cls-6" d="M1109.65,324H1117v3.25h-7.36Z"/>
          <path class="cls-6" d="M930.9,374h7.36v3.25H930.9Z"/>
          <path class="cls-6" d="M952.25,374a4.92,4.92,0,0,1,1.27,3.45,5.36,5.36,0,0,1-.83,2.92,5.76,5.76,0,0,1-2.53,2.15,9.71,9.71,0,0,1-4.18.8,14.22,14.22,0,0,1-3.78-.5,9.7,9.7,0,0,1-3.16-1.45l1.64-3.22a8,8,0,0,0,2.4,1.21,9.19,9.19,0,0,0,2.8.43,4.42,4.42,0,0,0,2.5-.61,2,2,0,0,0,.91-1.73c0-1.49-1.14-2.24-3.41-2.24H944v-2.78l3.74-4.24H940v-3.38h12.74v2.73l-4.11,4.68A6.16,6.16,0,0,1,952.25,374Z"/>
          <path class="cls-6" d="M972.42,375.15a4.55,4.55,0,0,1,.89,2.85,4.21,4.21,0,0,1-1.86,3.68A9.58,9.58,0,0,1,966,383h-9.41v-18.2h8.89a8.7,8.7,0,0,1,5.11,1.28,4,4,0,0,1,1.78,3.46,4.37,4.37,0,0,1-.64,2.36A4.48,4.48,0,0,1,970,373.5,4.76,4.76,0,0,1,972.42,375.15Zm-11.62-7.21v4.29H965a4.22,4.22,0,0,0,2.36-.55,1.82,1.82,0,0,0,.81-1.61,1.78,1.78,0,0,0-.81-1.6,4.23,4.23,0,0,0-2.36-.53Zm7.43,11.31a1.89,1.89,0,0,0,.84-1.7c0-1.5-1.12-2.26-3.35-2.26H960.8v4.5h4.92A4.73,4.73,0,0,0,968.23,379.25Z"/>
          <path class="cls-6" d="M980,368.19h-5.83v-3.43h15.86v3.43h-5.82V383H980Z"/>
          <path class="cls-6" d="M995.73,382.07a9.06,9.06,0,0,1-3.53-3.36,9.76,9.76,0,0,1,0-9.7,9,9,0,0,1,3.53-3.35,10.48,10.48,0,0,1,5.06-1.21,10.71,10.71,0,0,1,4.28.83,8.67,8.67,0,0,1,3.21,2.39l-2.7,2.5A5.84,5.84,0,0,0,1001,368a6.14,6.14,0,0,0-3,.74,5.19,5.19,0,0,0-2.06,2.07,6.51,6.51,0,0,0,0,6A5.32,5.32,0,0,0,998,379a6.14,6.14,0,0,0,3,.74,5.8,5.8,0,0,0,4.58-2.16l2.7,2.49a8.39,8.39,0,0,1-3.22,2.42,10.66,10.66,0,0,1-4.29.83A10.54,10.54,0,0,1,995.73,382.07Z"/>
          <path class="cls-6" d="M1010.15,374h7.36v3.25h-7.36Z"/>
          <path class="cls-6" d="M1020.34,374h7.36v3.25h-7.36Z"/>
          <path class="cls-6" d="M1030.53,374h7.36v3.25h-7.36Z"/>
          <path class="cls-6" d="M1040.73,374h7.35v3.25h-7.35Z"/>
          <path class="cls-6" d="M1050.92,374h7.36v3.25h-7.36Z"/>
          <path class="cls-6" d="M1061.11,374h7.36v3.25h-7.36Z"/>
          <path class="cls-6" d="M1071.3,374h7.36v3.25h-7.36Z"/>
          <path class="cls-6" d="M1081.49,374h7.36v3.25h-7.36Z"/>
          <path class="cls-6" d="M1091.68,374H1099v3.25h-7.36Z"/>
          <path class="cls-6" d="M1101.87,374h7.36v3.25h-7.36Z"/>
          <path class="cls-6" d="M1112.07,374h7.35v3.25h-7.35Z"/>
          <path class="cls-6" d="M943.54,425.45H939v4.42h-3.36v-4.42h-4.5v-3.17h4.5v-4.42H939v4.42h4.52Z"/>
          <path class="cls-6" d="M959.32,429.53V433H945.57v-2.73l7-6.63a7.61,7.61,0,0,0,1.51-1.83,3.33,3.33,0,0,0,.39-1.52,2,2,0,0,0-.75-1.68,3.43,3.43,0,0,0-2.17-.58,5,5,0,0,0-2.15.45,4.18,4.18,0,0,0-1.62,1.37l-3.06-2a7.21,7.21,0,0,1,2.93-2.48,9.8,9.8,0,0,1,4.29-.9,8.82,8.82,0,0,1,3.55.66,5.53,5.53,0,0,1,2.37,1.88,4.83,4.83,0,0,1,.84,2.84,6.25,6.25,0,0,1-.62,2.78,10.7,10.7,0,0,1-2.42,3l-4.18,3.95Z"/>
          <path class="cls-6" d="M974.66,429.53V433H960.91v-2.73l7-6.63a7.61,7.61,0,0,0,1.51-1.83,3.33,3.33,0,0,0,.39-1.52,2,2,0,0,0-.75-1.68,3.43,3.43,0,0,0-2.17-.58,5,5,0,0,0-2.15.45,4.18,4.18,0,0,0-1.62,1.37l-3.06-2a7.21,7.21,0,0,1,2.93-2.48,9.8,9.8,0,0,1,4.29-.9,8.82,8.82,0,0,1,3.55.66,5.53,5.53,0,0,1,2.37,1.88,4.83,4.83,0,0,1,.84,2.84,6.25,6.25,0,0,1-.62,2.78,10.7,10.7,0,0,1-2.42,3l-4.18,3.95Z"/>
          <path class="cls-6" d="M993.35,425.15a4.55,4.55,0,0,1,.89,2.85,4.21,4.21,0,0,1-1.86,3.68A9.58,9.58,0,0,1,987,433h-9.41v-18.2h8.89a8.7,8.7,0,0,1,5.11,1.28,4,4,0,0,1,1.78,3.46,4.37,4.37,0,0,1-.64,2.36,4.48,4.48,0,0,1-1.78,1.64A4.76,4.76,0,0,1,993.35,425.15Zm-11.62-7.21v4.29h4.19a4.28,4.28,0,0,0,2.37-.55,1.84,1.84,0,0,0,.8-1.61,1.8,1.8,0,0,0-.8-1.6,4.29,4.29,0,0,0-2.37-.53Zm7.43,11.31a1.89,1.89,0,0,0,.84-1.7c0-1.5-1.12-2.26-3.35-2.26h-4.92v4.5h4.92A4.73,4.73,0,0,0,989.16,429.25Z"/>
          <path class="cls-6" d="M1001,418.19h-5.83v-3.43H1011v3.43h-5.82V433H1001Z"/>
          <path class="cls-6" d="M1016.66,432.07a9.11,9.11,0,0,1-4.82-8.21,9.23,9.23,0,0,1,1.29-4.85,9.1,9.1,0,0,1,3.53-3.35,10.48,10.48,0,0,1,5.06-1.21,10.71,10.71,0,0,1,4.28.83,8.67,8.67,0,0,1,3.21,2.39l-2.7,2.5a5.84,5.84,0,0,0-4.58-2.13,6.14,6.14,0,0,0-3,.74,5.19,5.19,0,0,0-2.06,2.07,6.51,6.51,0,0,0,0,6,5.32,5.32,0,0,0,2.06,2.07,6.14,6.14,0,0,0,3,.74,5.8,5.8,0,0,0,4.58-2.16l2.7,2.49a8.39,8.39,0,0,1-3.22,2.42,10.66,10.66,0,0,1-4.29.83A10.54,10.54,0,0,1,1016.66,432.07Z"/>
          <path class="cls-6" d="M1031.08,424h7.36v3.25h-7.36Z"/>
          <path class="cls-6" d="M1041.27,424h7.36v3.25h-7.36Z"/>
          <path class="cls-6" d="M1051.46,424h7.36v3.25h-7.36Z"/>
          <path class="cls-6" d="M1061.66,424H1069v3.25h-7.35Z"/>
          <path class="cls-6" d="M1071.85,424h7.36v3.25h-7.36Z"/>
          <path class="cls-6" d="M1082,424h7.36v3.25H1082Z"/>
          <path class="cls-6" d="M1092.23,424h7.36v3.25h-7.36Z"/>
          <path class="cls-6" d="M1102.42,424h7.36v3.25h-7.36Z"/>
          <path class="cls-6" d="M1112.61,424H1120v3.25h-7.36Z"/>
          <path class="cls-6" d="M943.54,475.45H939v4.42h-3.36v-4.42h-4.5v-3.17h4.5v-4.42H939v4.42h4.52Z"/>
          <path class="cls-6" d="M958.52,466.78q2.15,2.33,2.15,6.69a11.34,11.34,0,0,1-1.15,5.31,7.84,7.84,0,0,1-3.27,3.35,10,10,0,0,1-4.86,1.14,11.45,11.45,0,0,1-2.78-.32,7.53,7.53,0,0,1-2.26-.92l1.56-3.1a5.86,5.86,0,0,0,3.4.91,4.92,4.92,0,0,0,3.67-1.36,5.73,5.73,0,0,0,1.46-3.94,6.14,6.14,0,0,1-4.53,1.64,7.19,7.19,0,0,1-3.17-.7,5.6,5.6,0,0,1-2.26-2,5.32,5.32,0,0,1-.83-3,5.66,5.66,0,0,1,.91-3.2,5.91,5.91,0,0,1,2.48-2.12,8.16,8.16,0,0,1,3.5-.74A7.77,7.77,0,0,1,958.52,466.78Zm-3.42,5.48a2.65,2.65,0,0,0,0-3.91,3.37,3.37,0,0,0-2.32-.75,3.26,3.26,0,0,0-2.2.72,2.74,2.74,0,0,0,0,4,3.3,3.3,0,0,0,2.25.74A3.24,3.24,0,0,0,955.1,472.26Z"/>
          <path class="cls-6" d="M979.65,475.15a4.55,4.55,0,0,1,.89,2.85,4.21,4.21,0,0,1-1.86,3.68,9.58,9.58,0,0,1-5.42,1.28h-9.41v-18.2h8.89a8.7,8.7,0,0,1,5.11,1.28,4,4,0,0,1,1.78,3.46,4.46,4.46,0,0,1-.64,2.36,4.55,4.55,0,0,1-1.78,1.64A4.8,4.8,0,0,1,979.65,475.15ZM968,467.94v4.29h4.19a4.22,4.22,0,0,0,2.36-.55,1.82,1.82,0,0,0,.81-1.61,1.78,1.78,0,0,0-.81-1.6,4.23,4.23,0,0,0-2.36-.53Zm7.42,11.31a1.88,1.88,0,0,0,.85-1.7c0-1.5-1.12-2.26-3.36-2.26H968v4.5h4.91A4.7,4.7,0,0,0,975.45,479.25Z"/>
          <path class="cls-6" d="M987.25,468.19h-5.83v-3.43h15.86v3.43h-5.82V483h-4.21Z"/>
          <path class="cls-6" d="M1003,482.07a9,9,0,0,1-3.53-3.36,9.76,9.76,0,0,1,0-9.7,9,9,0,0,1,3.53-3.35,10.48,10.48,0,0,1,5.06-1.21,10.71,10.71,0,0,1,4.28.83,8.67,8.67,0,0,1,3.21,2.39l-2.71,2.5a5.8,5.8,0,0,0-4.57-2.13,6.14,6.14,0,0,0-3,.74,5.28,5.28,0,0,0-2.07,2.07,6.51,6.51,0,0,0,0,6,5.42,5.42,0,0,0,2.07,2.07,6.14,6.14,0,0,0,3,.74,5.77,5.77,0,0,0,4.57-2.16l2.71,2.49a8.35,8.35,0,0,1-3.23,2.42,11.3,11.3,0,0,1-9.32-.37Z"/>
          <path class="cls-6" d="M1017.38,474h7.36v3.25h-7.36Z"/>
          <path class="cls-6" d="M1027.57,474h7.36v3.25h-7.36Z"/>
          <path class="cls-6" d="M1037.76,474h7.36v3.25h-7.36Z"/>
          <path class="cls-6" d="M1048,474h7.36v3.25H1048Z"/>
          <path class="cls-6" d="M1058.15,474h7.35v3.25h-7.35Z"/>
          <path class="cls-6" d="M1068.34,474h7.35v3.25h-7.35Z"/>
          <path class="cls-6" d="M1078.53,474h7.36v3.25h-7.36Z"/>
          <path class="cls-6" d="M1088.72,474h7.36v3.25h-7.36Z"/>
          <path class="cls-6" d="M1098.91,474h7.36v3.25h-7.36Z"/>
          <path class="cls-6" d="M1109.1,474h7.36v3.25h-7.36Z"/>
          <path class="cls-6" d="M943.54,525.45H939v4.42h-3.36v-4.42h-4.5v-3.17h4.5v-4.42H939v4.42h4.52Z"/>
          <path class="cls-6" d="M959.32,529.53V533H945.57v-2.73l7-6.63a7.61,7.61,0,0,0,1.51-1.83,3.33,3.33,0,0,0,.39-1.52,2,2,0,0,0-.75-1.68,3.43,3.43,0,0,0-2.17-.58,5,5,0,0,0-2.15.45,4.18,4.18,0,0,0-1.62,1.37l-3.06-2a7.21,7.21,0,0,1,2.93-2.48,9.8,9.8,0,0,1,4.29-.9,8.82,8.82,0,0,1,3.55.66,5.53,5.53,0,0,1,2.37,1.88,4.83,4.83,0,0,1,.84,2.84,6.25,6.25,0,0,1-.62,2.78,10.7,10.7,0,0,1-2.42,3l-4.18,3.95Z"/>
          <path class="cls-6" d="M978,525.15a4.61,4.61,0,0,1,.88,2.85,4.21,4.21,0,0,1-1.86,3.68,9.58,9.58,0,0,1-5.42,1.28h-9.41v-18.2h8.89a8.7,8.7,0,0,1,5.11,1.28A4,4,0,0,1,978,519.5a4.37,4.37,0,0,1-.64,2.36,4.48,4.48,0,0,1-1.78,1.64A4.83,4.83,0,0,1,978,525.15Zm-11.63-7.21v4.29h4.19a4.28,4.28,0,0,0,2.37-.55,1.84,1.84,0,0,0,.8-1.61,1.8,1.8,0,0,0-.8-1.6,4.29,4.29,0,0,0-2.37-.53Zm7.43,11.31a1.89,1.89,0,0,0,.84-1.7c0-1.5-1.12-2.26-3.35-2.26h-4.92v4.5h4.92A4.73,4.73,0,0,0,973.82,529.25Z"/>
          <path class="cls-6" d="M985.61,518.19h-5.83v-3.43h15.86v3.43h-5.82V533h-4.21Z"/>
          <path class="cls-6" d="M1001.32,532.07a9.11,9.11,0,0,1-4.82-8.21,9.23,9.23,0,0,1,1.29-4.85,9.1,9.1,0,0,1,3.53-3.35,10.48,10.48,0,0,1,5.06-1.21,10.71,10.71,0,0,1,4.28.83,8.67,8.67,0,0,1,3.21,2.39l-2.7,2.5a5.82,5.82,0,0,0-4.58-2.13,6.14,6.14,0,0,0-3,.74,5.19,5.19,0,0,0-2.06,2.07,6.51,6.51,0,0,0,0,6,5.32,5.32,0,0,0,2.06,2.07,6.14,6.14,0,0,0,3,.74,5.79,5.79,0,0,0,4.58-2.16l2.7,2.49a8.39,8.39,0,0,1-3.22,2.42,10.66,10.66,0,0,1-4.29.83A10.54,10.54,0,0,1,1001.32,532.07Z"/>
          <path class="cls-6" d="M1015.74,524h7.36v3.25h-7.36Z"/>
          <path class="cls-6" d="M1025.93,524h7.36v3.25h-7.36Z"/>
          <path class="cls-6" d="M1036.12,524h7.36v3.25h-7.36Z"/>
          <path class="cls-6" d="M1046.32,524h7.35v3.25h-7.35Z"/>
          <path class="cls-6" d="M1056.51,524h7.36v3.25h-7.36Z"/>
          <path class="cls-6" d="M1066.7,524h7.36v3.25h-7.36Z"/>
          <path class="cls-6" d="M1076.89,524h7.36v3.25h-7.36Z"/>
          <path class="cls-6" d="M1087.08,524h7.36v3.25h-7.36Z"/>
          <path class="cls-6" d="M1097.27,524h7.36v3.25h-7.36Z"/>
          <path class="cls-6" d="M1107.47,524h7.35v3.25h-7.35Z"/>
          <path class="cls-6" d="M930.9,574h7.36v3.25H930.9Z"/>
          <path class="cls-6" d="M954.59,564.76v2.73L947.83,583h-4.58l6.53-14.77h-6v3H940v-6.4Z"/>
          <path class="cls-6" d="M973.41,575.15a4.55,4.55,0,0,1,.89,2.85,4.21,4.21,0,0,1-1.86,3.68A9.58,9.58,0,0,1,967,583H957.6v-18.2h8.9a8.7,8.7,0,0,1,5.11,1.28,4,4,0,0,1,1.78,3.46,4.46,4.46,0,0,1-.64,2.36A4.55,4.55,0,0,1,971,573.5,4.8,4.8,0,0,1,973.41,575.15Zm-11.62-7.21v4.29H966a4.22,4.22,0,0,0,2.36-.55,1.82,1.82,0,0,0,.81-1.61,1.78,1.78,0,0,0-.81-1.6,4.23,4.23,0,0,0-2.36-.53Zm7.42,11.31a1.88,1.88,0,0,0,.85-1.7c0-1.5-1.12-2.26-3.36-2.26h-4.91v4.5h4.91A4.7,4.7,0,0,0,969.21,579.25Z"/>
          <path class="cls-6" d="M981,568.19h-5.83v-3.43H991v3.43h-5.82V583H981Z"/>
          <path class="cls-6" d="M996.72,582.07a9,9,0,0,1-3.53-3.36,9.76,9.76,0,0,1,0-9.7,9,9,0,0,1,3.53-3.35,10.48,10.48,0,0,1,5.06-1.21,10.71,10.71,0,0,1,4.28.83,8.67,8.67,0,0,1,3.21,2.39l-2.71,2.5A5.8,5.8,0,0,0,1002,568a6.14,6.14,0,0,0-3,.74,5.28,5.28,0,0,0-2.07,2.07,6.51,6.51,0,0,0,0,6A5.42,5.42,0,0,0,999,579a6.14,6.14,0,0,0,3,.74,5.77,5.77,0,0,0,4.57-2.16l2.71,2.49a8.35,8.35,0,0,1-3.23,2.42,11.3,11.3,0,0,1-9.32-.37Z"/>
          <path class="cls-6" d="M1011.14,574h7.36v3.25h-7.36Z"/>
          <path class="cls-6" d="M1021.33,574h7.36v3.25h-7.36Z"/>
          <path class="cls-6" d="M1031.52,574h7.36v3.25h-7.36Z"/>
          <path class="cls-6" d="M1041.71,574h7.36v3.25h-7.36Z"/>
          <path class="cls-6" d="M1051.91,574h7.35v3.25h-7.35Z"/>
          <path class="cls-6" d="M1062.1,574h7.35v3.25h-7.35Z"/>
          <path class="cls-6" d="M1072.29,574h7.36v3.25h-7.36Z"/>
          <path class="cls-6" d="M1082.48,574h7.36v3.25h-7.36Z"/>
          <path class="cls-6" d="M1092.67,574H1100v3.25h-7.36Z"/>
          <path class="cls-6" d="M1102.86,574h7.36v3.25h-7.36Z"/>
          <path class="cls-6" d="M943.54,625.45H939v4.42h-3.36v-4.42h-4.5v-3.17h4.5v-4.42H939v4.42h4.52Z"/>
          <path class="cls-6" d="M952.61,614.76V633H948.4V618.14h-3.64v-3.38Z"/>
          <path class="cls-6" d="M967.71,623.13a5.11,5.11,0,0,1,1.83,4.11,5.75,5.75,0,0,1-.83,3,5.87,5.87,0,0,1-2.54,2.19,9.71,9.71,0,0,1-4.2.81,14.22,14.22,0,0,1-3.78-.5,9.7,9.7,0,0,1-3.16-1.45l1.67-3.22a8,8,0,0,0,2.39,1.21,9,9,0,0,0,2.78.43,4.34,4.34,0,0,0,2.5-.63,2,2,0,0,0,.91-1.74,2,2,0,0,0-.95-1.77A6.69,6.69,0,0,0,961,625h-4.66l.94-10.25h11.1v3.38h-7.59l-.29,3.46H962Q965.87,621.6,967.71,623.13Z"/>
          <path class="cls-6" d="M988.21,625.15a4.54,4.54,0,0,1,.88,2.85,4.21,4.21,0,0,1-1.86,3.68,9.56,9.56,0,0,1-5.42,1.28H972.4v-18.2h8.89A8.7,8.7,0,0,1,986.4,616a4,4,0,0,1,1.78,3.46,4.37,4.37,0,0,1-.64,2.36,4.42,4.42,0,0,1-1.78,1.64A4.83,4.83,0,0,1,988.21,625.15Zm-11.63-7.21v4.29h4.19a4.28,4.28,0,0,0,2.37-.55,1.84,1.84,0,0,0,.8-1.61,1.8,1.8,0,0,0-.8-1.6,4.29,4.29,0,0,0-2.37-.53ZM984,629.25a1.89,1.89,0,0,0,.84-1.7c0-1.5-1.12-2.26-3.35-2.26h-4.92v4.5h4.92A4.73,4.73,0,0,0,984,629.25Z"/>
          <path class="cls-6" d="M995.8,618.19H990v-3.43h15.85v3.43H1000V633H995.8Z"/>
          <path class="cls-6" d="M1011.52,632.07a9.09,9.09,0,0,1-3.54-3.36,9.76,9.76,0,0,1,0-9.7,9.06,9.06,0,0,1,3.54-3.35,10.44,10.44,0,0,1,5.05-1.21,10.68,10.68,0,0,1,4.28.83,8.67,8.67,0,0,1,3.21,2.39l-2.7,2.5a5.82,5.82,0,0,0-4.58-2.13,6.08,6.08,0,0,0-3,.74,5.16,5.16,0,0,0-2.07,2.07,6.51,6.51,0,0,0,0,6,5.28,5.28,0,0,0,2.07,2.07,6.08,6.08,0,0,0,3,.74,5.79,5.79,0,0,0,4.58-2.16l2.7,2.49a8.39,8.39,0,0,1-3.22,2.42,10.66,10.66,0,0,1-4.29.83A10.5,10.5,0,0,1,1011.52,632.07Z"/>
          <path class="cls-6" d="M1033.45,624h7.35v3.25h-7.35Z"/>
          <path class="cls-6" d="M1043.64,624H1051v3.25h-7.36Z"/>
          <path class="cls-6" d="M1053.83,624h7.36v3.25h-7.36Z"/>
          <path class="cls-6" d="M1064,624h7.36v3.25H1064Z"/>
          <path class="cls-6" d="M1074.21,624h7.36v3.25h-7.36Z"/>
          <path class="cls-6" d="M1084.4,624h7.36v3.25h-7.36Z"/>
          <path class="cls-6" d="M1094.6,624H1102v3.25h-7.35Z"/>
          <path class="cls-6" d="M1104.79,624h7.36v3.25h-7.36Z"/>
        </g>
        <g>
          <path class="cls-6" d="M1137.48,282.39a2.54,2.54,0,0,1-1.74-.69l-9.25-8.72a2.54,2.54,0,0,1,3.49-3.7l7.46,7L1157,257.08a2.55,2.55,0,0,1,3.57,3.63l-21.29,21A2.54,2.54,0,0,1,1137.48,282.39Z"/>
          <path class="cls-6" d="M1137.48,333.07a2.51,2.51,0,0,1-1.74-.7l-9.25-8.71A2.54,2.54,0,0,1,1130,320l7.46,7L1157,307.76a2.55,2.55,0,0,1,3.57,3.63l-21.29,20.95A2.58,2.58,0,0,1,1137.48,333.07Z"/>
          <path class="cls-6" d="M1137.48,380.36a2.54,2.54,0,0,1-1.74-.69l-9.25-8.72a2.54,2.54,0,0,1,3.49-3.7l7.46,7L1157,355.06a2.54,2.54,0,1,1,3.57,3.62l-21.29,20.95A2.54,2.54,0,0,1,1137.48,380.36Z"/>
          <path class="cls-6" d="M1137.48,433.55a2.51,2.51,0,0,1-1.74-.7l-9.25-8.71a2.54,2.54,0,0,1,3.49-3.7l7.46,7L1157,408.24a2.54,2.54,0,1,1,3.57,3.62l-21.29,21A2.58,2.58,0,0,1,1137.48,433.55Z"/>
          <path class="cls-6" d="M1137.48,486.31a2.51,2.51,0,0,1-1.74-.7l-9.25-8.71a2.54,2.54,0,0,1,3.49-3.7l7.46,7L1157,461a2.55,2.55,0,0,1,3.57,3.63l-21.29,20.95A2.58,2.58,0,0,1,1137.48,486.31Z"/>
          <path class="cls-6" d="M1137.48,536.4a2.51,2.51,0,0,1-1.74-.7l-9.25-8.71a2.54,2.54,0,0,1,3.49-3.7l7.46,7L1157,511.09a2.55,2.55,0,0,1,3.57,3.63l-21.29,20.95A2.58,2.58,0,0,1,1137.48,536.4Z"/>
          <path class="cls-6" d="M1137.48,588.05a2.51,2.51,0,0,1-1.74-.7l-9.25-8.71a2.54,2.54,0,0,1,3.49-3.7l7.46,7L1157,562.74a2.55,2.55,0,0,1,3.57,3.63l-21.29,21A2.58,2.58,0,0,1,1137.48,588.05Z"/>
          <path class="cls-6" d="M1137.48,637.24a2.54,2.54,0,0,1-1.74-.69l-9.25-8.72a2.54,2.54,0,0,1,3.49-3.7l7.46,7L1157,611.93a2.55,2.55,0,1,1,3.57,3.63l-21.29,21A2.58,2.58,0,0,1,1137.48,637.24Z"/>
        </g>
      </g>
    </g>
    <g>
      <g>
        <line class="Graphic-Style-5" x1="614.15" y1="353.95" x2="676.82" y2="353.95"/>
        <line class="Graphic-Style-5" x1="703.48" y1="371.74" x2="818.15" y2="371.74"/>
        <polyline class="Graphic-Style-5" points="614.15 389.53 638.15 389.53 653.15 407.32 758.48 407.32"/>
        <g>
          <line class="Graphic-Style-5" x1="616.55" y1="407.33" x2="638.15" y2="407.33"/>
          <path class="cls-6" d="M629.38,417.39a1,1,0,0,0,.53-1.85L617,407.33l12.9-8.22a1,1,0,1,0-1.07-1.69l-14.23,9.06a1,1,0,0,0,0,1.69l14.23,9.06a1,1,0,0,0,.54.16Z"/>
        </g>
        <line class="Graphic-Style-5" x1="614.15" y1="425.12" x2="650.82" y2="425.12"/>
        <line class="Graphic-Style-5" x1="682.15" y1="442.91" x2="818.15" y2="442.91"/>
        <g>
          <polyline class="Graphic-Style-5" points="614.15 371.74 686.15 371.74 702.38 355.51 815.74 355.51"/>
          <path class="cls-6" d="M802.92,365.57a1,1,0,0,1-.84-.46,1,1,0,0,1,.3-1.38l12.91-8.22-12.91-8.22a1,1,0,0,1-.3-1.38,1,1,0,0,1,1.38-.31l14.23,9.07a1,1,0,0,1,0,1.68l-14.23,9.07a1.08,1.08,0,0,1-.54.15Z"/>
        </g>
        <g>
          <polyline class="Graphic-Style-5" points="612.48 442.91 660.15 442.91 676.71 425.35 815.74 425.35"/>
          <path class="cls-6" d="M802.92,435.41a1,1,0,0,1-.84-.46,1,1,0,0,1,.3-1.38l12.91-8.22-12.91-8.22a1,1,0,0,1,1.08-1.69l14.23,9.06a1,1,0,0,1,.46.85,1,1,0,0,1-.46.84l-14.23,9.06a1,1,0,0,1-.54.16Z"/>
        </g>
        <polyline class="Graphic-Style-5" points="746.15 389.95 765.81 389.95 773.81 407.32 818.15 407.32"/>
        <line class="Graphic-Style-5" x1="783.48" y1="389.95" x2="818.15" y2="389.95"/>
        <g>
          <line class="Graphic-Style-5" x1="660.88" y1="389.53" x2="729.81" y2="389.53"/>
          <path class="cls-6" d="M673.71,399.6a1,1,0,0,0,.54-1.85l-12.91-8.22,12.91-8.22a1,1,0,0,0-1.08-1.68l-14.23,9.06a1,1,0,0,0-.46.84,1,1,0,0,0,.46.85l14.23,9.06a1.06,1.06,0,0,0,.54.16Z"/>
        </g>
      </g>
      <g>
        <line class="Graphic-Style-5" x1="816.48" y1="460.38" x2="753.81" y2="460.38"/>
        <line class="Graphic-Style-5" x1="727.15" y1="478.18" x2="612.48" y2="478.18"/>
        <polyline class="Graphic-Style-5" points="816.48 495.97 792.48 495.97 777.48 513.76 672.15 513.76"/>
        <g>
          <line class="Graphic-Style-5" x1="814.07" y1="513.76" x2="792.48" y2="513.76"/>
          <path class="cls-6" d="M801.25,503.7a1,1,0,0,0-.84.46,1,1,0,0,0,.3,1.38l12.91,8.22L800.71,522a1,1,0,0,0,1.08,1.69L816,514.6a1,1,0,0,0,0-1.68l-14.23-9.07a1.08,1.08,0,0,0-.54-.15Z"/>
        </g>
        <line class="Graphic-Style-5" x1="816.48" y1="531.55" x2="779.81" y2="531.55"/>
        <line class="Graphic-Style-5" x1="658.48" y1="531.55" x2="613.81" y2="531.55"/>
        <line class="Graphic-Style-5" x1="748.48" y1="549.35" x2="612.48" y2="549.35"/>
        <g>
          <polyline class="Graphic-Style-5" points="816.48 478.18 744.48 478.18 728.25 461.95 614.88 461.95"/>
          <path class="cls-6" d="M627.71,451.88a1,1,0,0,1,.54,1.85L615.34,462l12.91,8.22a1,1,0,1,1-1.08,1.68l-14.23-9.06a1,1,0,0,1-.46-.84,1,1,0,0,1,.46-.85L627.17,452a1.06,1.06,0,0,1,.54-.16Z"/>
        </g>
        <g>
          <polyline class="Graphic-Style-5" points="818.15 549.35 770.48 549.35 753.92 531.78 674.55 531.78"/>
          <path class="cls-6" d="M687.38,521.72a1,1,0,0,1,.53,1.84L675,531.78l12.9,8.22a1,1,0,0,1-1.07,1.69l-14.23-9.06a1,1,0,0,1-.46-.85,1,1,0,0,1,.46-.84l14.23-9.06a1,1,0,0,1,.54-.16Z"/>
        </g>
        <polyline class="Graphic-Style-5" points="684.48 496.38 664.81 496.38 656.81 513.76 612.48 513.76"/>
        <line class="Graphic-Style-5" x1="647.15" y1="496.38" x2="612.48" y2="496.38"/>
        <g>
          <line class="Graphic-Style-5" x1="769.74" y1="495.97" x2="700.81" y2="495.97"/>
          <path class="cls-6" d="M756.92,485.91a1,1,0,0,0-.84.46,1,1,0,0,0,.3,1.38L769.29,496l-12.91,8.22a1,1,0,0,0-.3,1.38,1,1,0,0,0,1.38.31l14.23-9.07a1,1,0,0,0,0-1.68l-14.23-9.07a1.08,1.08,0,0,0-.54-.15Z"/>
        </g>
      </g>
    </g>
  </g>
</svg>
