<svg id="work" xmlns="http://www.w3.org/2000/svg" viewBox="0 0 1422 870">
  <defs>
    <style>
      .cls-1 {
        fill: #ebebeb;
      }

      .cls-2, .cls-3 {
        fill: none;
      }

      .cls-2, .cls-3, .cls-4, .cls-6 {
        stroke: #4a4a4a;
        stroke-linecap: round;
        stroke-linejoin: round;
      }

      .cls-2, .cls-6 {
        stroke-width: 2.5px;
      }

      .cls-3, .cls-4 {
        stroke-width: 4px;
      }

      .cls-4, .cls-6, .cls-7 {
        fill: #fff;
      }

      .cls-5 {
        fill: #ff0083;
      }
    </style>
  </defs>
  <title>28,2</title>
  <g>
    <g>
      <polygon class="cls-1" points="886.27 690.41 886.27 666.13 877.27 606.37 563.57 606.37 554.61 666.13 554.61 691.11 886.27 690.41"/>
      <polygon class="cls-1" points="476.29 604.52 476.28 629.39 453.47 689.41 124.06 689.3 124.07 665.22 193.02 606.67 476.29 604.52"/>
      <polygon class="cls-1" points="462.77 625.67 449.47 658.72 159.27 658.62 193.89 625.58 209.32 625.58 209.32 636.69 418.34 636.76 418.34 625.65 462.77 625.67"/>
      <polygon class="cls-1" points="554.61 314.76 554.61 296.5 560.4 271.73 876.27 271.73 885.42 292.43 885.42 314.76 554.61 314.76"/>
    </g>
    <polygon class="cls-1" points="1301.2 124.24 1302.03 116.79 973.86 74.65 946.77 81.76 945.57 88.21 1235.57 124.5 1301.2 124.24"/>
    <g>
      <polygon class="cls-1" points="1302.4 304.9 1302.4 305.63 1300.21 304.9 1302.4 304.9"/>
      <polygon class="cls-1" points="1302.4 305.63 1302.4 314.76 970.74 314.76 970.74 316.29 948.66 291.96 948.66 283.04 1007.77 283.04 1007.77 291.96 956.75 291.96 970.74 307.38 970.74 304.9 1275.79 304.9 1232.29 290.42 1216.79 290.42 1216.79 282.29 1232.29 282.29 1300.21 304.9 1302.4 305.63"/>
    </g>
    <path class="cls-1" d="M948.19,604.52v24.87l22.81,60,329.41-.12V665.22L1232,607.33Z"/>
    <polygon class="cls-1" points="477.19 271.87 476.39 292 454.39 314.7 124.19 314.58 123.87 296.46 124.2 294.26 193.22 270.98 477.19 271.87"/>
    <g>
      <g>
        <polygon class="cls-2" points="139.47 660.28 192.97 610.88 470.66 610.88 449.68 660.28 139.47 660.28"/>
        <rect class="cls-3" x="122.85" y="294.35" width="331.66" height="396.77"/>
        <polygon class="cls-2" points="454.51 294.35 122.85 294.35 192.97 271.73 477.38 271.73 454.51 294.35"/>
        <line class="cls-2" x1="477.38" y1="271.73" x2="477.38" y2="627.09"/>
        <line class="cls-2" x1="477.38" y1="627.09" x2="454.51" y2="691.11"/>
        <line class="cls-3" x1="122.85" y1="666.13" x2="454.51" y2="666.13"/>
        <line class="cls-2" x1="192.96" y1="606.37" x2="476.59" y2="606.37"/>
        <line class="cls-2" x1="453.71" y1="666.92" x2="476.59" y2="606.37"/>
        <line class="cls-2" x1="122.85" y1="666.92" x2="192.96" y2="606.37"/>
        <line class="cls-2" x1="192.96" y1="305.2" x2="192.96" y2="606.37"/>
        <line class="cls-2" x1="463.02" y1="627.09" x2="192.96" y2="627.09"/>
        <rect class="cls-4" x="208.46" y="323.51" width="209.93" height="314.73"/>
        <line class="cls-2" x1="158.2" y1="660.28" x2="192.96" y2="627.09"/>
        <polyline class="cls-2" points="122.85 305.2 454.51 305.2 477.38 282.24"/>
        <polyline class="cls-2" points="122.85 314.76 454.51 314.76 476.59 291.95"/>
        <g>
          <g>
            <path class="cls-5" d="M271.88,414.85h-2.95v2.89h-2.2v-2.89h-2.94v-2.07h2.94v-2.89h2.2v2.89h2.95Z"/>
            <path class="cls-5" d="M277.82,407.87v11.9h-2.76v-9.69h-2.38v-2.21Z"/>
            <path class="cls-5" d="M295.79,414.66a3,3,0,0,1,.57,1.86,2.74,2.74,0,0,1-1.21,2.4,6.14,6.14,0,0,1-3.55.85h-6.15v-11.9h5.81a5.64,5.64,0,0,1,3.34.83,2.63,2.63,0,0,1,1.17,2.26,2.87,2.87,0,0,1-1.58,2.62A3.1,3.1,0,0,1,295.79,414.66Zm-7.6-4.72v2.81h2.73a2.75,2.75,0,0,0,1.55-.36,1.2,1.2,0,0,0,.53-1.06,1.17,1.17,0,0,0-.53-1,2.84,2.84,0,0,0-1.55-.35Zm4.85,7.4a1.23,1.23,0,0,0,.55-1.11c0-1-.73-1.48-2.19-1.48h-3.21v2.94h3.21A3.15,3.15,0,0,0,293,417.34Z"/>
            <path class="cls-5" d="M300.75,410.11h-3.81v-2.24h10.37v2.24H303.5v9.66h-2.75Z"/>
            <path class="cls-5" d="M311,419.18a6.09,6.09,0,0,1,0-10.73,6.94,6.94,0,0,1,3.3-.79,6.83,6.83,0,0,1,2.8.55,5.62,5.62,0,0,1,2.1,1.56l-1.77,1.63a3.78,3.78,0,0,0-3-1.39,4,4,0,0,0-2,.48,3.5,3.5,0,0,0-1.35,1.35,4.23,4.23,0,0,0,0,4,3.37,3.37,0,0,0,1.35,1.35,4,4,0,0,0,2,.49,3.78,3.78,0,0,0,3-1.42l1.77,1.64a5.62,5.62,0,0,1-2.11,1.58,7,7,0,0,1-2.8.54A6.78,6.78,0,0,1,311,419.18Z"/>
            <path class="cls-5" d="M325.37,413.92h4.81V416h-4.81Z"/>
            <path class="cls-5" d="M332,413.92h4.81V416H332Z"/>
            <path class="cls-5" d="M338.69,413.92h4.81V416h-4.81Z"/>
            <path class="cls-5" d="M345.36,413.92h4.81V416h-4.81Z"/>
            <path class="cls-5" d="M352,413.92h4.81V416H352Z"/>
            <path class="cls-5" d="M271.88,460.86h-2.95v2.89h-2.2v-2.89h-2.94v-2.08h2.94v-2.89h2.2v2.89h2.95Z"/>
            <path class="cls-5" d="M277.82,453.87v11.9h-2.76v-9.69h-2.38v-2.21Z"/>
            <path class="cls-5" d="M282.36,465.24a4.85,4.85,0,0,1-1.82-2.11,8.75,8.75,0,0,1,0-6.62,4.91,4.91,0,0,1,1.82-2.11,5.12,5.12,0,0,1,5.27,0,5,5,0,0,1,1.81,2.11,8.75,8.75,0,0,1,0,6.62,4.89,4.89,0,0,1-1.81,2.11,5.06,5.06,0,0,1-5.27,0Zm4.34-2.53a7,7,0,0,0,0-5.78,2,2,0,0,0-3.4,0,7,7,0,0,0,0,5.78,2,2,0,0,0,3.4,0Z"/>
            <path class="cls-5" d="M307.33,460.66a3,3,0,0,1,.58,1.86,2.75,2.75,0,0,1-1.22,2.41,6.21,6.21,0,0,1-3.54.84H297v-11.9h5.82a5.74,5.74,0,0,1,3.34.83,2.66,2.66,0,0,1,1.16,2.27,2.87,2.87,0,0,1-.42,1.54,2.8,2.8,0,0,1-1.16,1.07A3.22,3.22,0,0,1,307.33,460.66Zm-7.6-4.71v2.8h2.74a2.72,2.72,0,0,0,1.54-.36,1.31,1.31,0,0,0,0-2.1,2.81,2.81,0,0,0-1.54-.34Zm4.85,7.39a1.23,1.23,0,0,0,.56-1.1c0-1-.74-1.48-2.2-1.48h-3.21v2.94h3.21A3,3,0,0,0,304.58,463.34Z"/>
            <path class="cls-5" d="M312.29,456.12h-3.81v-2.25h10.37v2.25h-3.8v9.65h-2.76Z"/>
            <path class="cls-5" d="M322.57,465.18a5.8,5.8,0,0,1-2.31-2.19,6.4,6.4,0,0,1,0-6.34,5.94,5.94,0,0,1,2.31-2.19,6.82,6.82,0,0,1,3.3-.79,7,7,0,0,1,2.8.54,5.56,5.56,0,0,1,2.1,1.57L329,457.41a3.79,3.79,0,0,0-3-1.4,3.89,3.89,0,0,0-2,.49,3.37,3.37,0,0,0-1.35,1.35,4.21,4.21,0,0,0,0,3.94,3.37,3.37,0,0,0,1.35,1.35,3.89,3.89,0,0,0,2,.49,3.77,3.77,0,0,0,3-1.41l1.77,1.63a5.44,5.44,0,0,1-2.11,1.58,7,7,0,0,1-2.8.55A6.82,6.82,0,0,1,322.57,465.18Z"/>
            <path class="cls-5" d="M336.91,459.92h4.81v2.13h-4.81Z"/>
            <path class="cls-5" d="M343.57,459.92h4.81v2.13h-4.81Z"/>
            <path class="cls-5" d="M350.24,459.92h4.81v2.13h-4.81Z"/>
            <path class="cls-5" d="M263.62,505.93h4.81v2.12h-4.81Z"/>
            <path class="cls-5" d="M277.58,505.89a3.21,3.21,0,0,1,.83,2.25,3.56,3.56,0,0,1-.54,1.91,3.86,3.86,0,0,1-1.66,1.4,6.36,6.36,0,0,1-2.73.53,9.36,9.36,0,0,1-2.47-.33,6.58,6.58,0,0,1-2.07-.94L270,508.6a5.32,5.32,0,0,0,1.58.79,5.91,5.91,0,0,0,1.82.28,2.88,2.88,0,0,0,1.64-.4,1.29,1.29,0,0,0,.59-1.13c0-1-.74-1.46-2.23-1.46h-1.25v-1.82l2.44-2.77h-5.06v-2.21h8.33v1.78l-2.69,3.06A4,4,0,0,1,277.58,505.89Z"/>
            <path class="cls-5" d="M295.58,506.67a2.93,2.93,0,0,1,.58,1.86,2.75,2.75,0,0,1-1.22,2.4,6.13,6.13,0,0,1-3.54.85h-6.15v-11.9h5.81a5.66,5.66,0,0,1,3.34.83,2.62,2.62,0,0,1,1.16,2.26,2.9,2.9,0,0,1-.41,1.55,3,3,0,0,1-1.17,1.07A3.06,3.06,0,0,1,295.58,506.67ZM288,502v2.8h2.74a2.76,2.76,0,0,0,1.55-.35,1.2,1.2,0,0,0,.52-1.06,1.16,1.16,0,0,0-.52-1,2.84,2.84,0,0,0-1.55-.35Zm4.86,7.4a1.25,1.25,0,0,0,.55-1.11c0-1-.73-1.48-2.19-1.48H288v2.94h3.22A3.15,3.15,0,0,0,292.84,509.35Z"/>
            <path class="cls-5" d="M300.54,502.12h-3.8v-2.24h10.37v2.24H303.3v9.66h-2.76Z"/>
            <path class="cls-5" d="M310.82,511.19a5.94,5.94,0,0,1-2.31-2.19,6.4,6.4,0,0,1,0-6.34,5.89,5.89,0,0,1,2.31-2.2,7,7,0,0,1,3.31-.79,6.78,6.78,0,0,1,2.79.55,5.46,5.46,0,0,1,2.1,1.56l-1.76,1.63a3.8,3.8,0,0,0-3-1.39,4,4,0,0,0-2,.48,3.5,3.5,0,0,0-1.35,1.35,4.3,4.3,0,0,0,0,3.95,3.37,3.37,0,0,0,1.35,1.35,4,4,0,0,0,2,.48,3.79,3.79,0,0,0,3-1.41l1.76,1.64a5.59,5.59,0,0,1-2.1,1.58,7.08,7.08,0,0,1-2.81.54A6.81,6.81,0,0,1,310.82,511.19Z"/>
            <path class="cls-5" d="M325.16,505.93H330v2.12h-4.81Z"/>
            <path class="cls-5" d="M331.82,505.93h4.82v2.12h-4.82Z"/>
            <path class="cls-5" d="M338.49,505.93h4.81v2.12h-4.81Z"/>
            <path class="cls-5" d="M345.15,505.93H350v2.12h-4.81Z"/>
            <path class="cls-5" d="M351.82,505.93h4.81v2.12h-4.81Z"/>
            <path class="cls-5" d="M271.88,552.87h-2.95v2.89h-2.2v-2.89h-2.94v-2.08h2.94V547.9h2.2v2.89h2.95Z"/>
            <path class="cls-5" d="M282.2,555.54v2.24h-9V556l4.59-4.34a4.67,4.67,0,0,0,1-1.2,2.14,2.14,0,0,0,.25-1,1.33,1.33,0,0,0-.48-1.1,2.31,2.31,0,0,0-1.42-.38,3.21,3.21,0,0,0-1.41.3,2.74,2.74,0,0,0-1.06.89l-2-1.29a4.66,4.66,0,0,1,1.92-1.63,6.4,6.4,0,0,1,2.8-.58,5.72,5.72,0,0,1,2.32.43,3.67,3.67,0,0,1,1.55,1.22,3.17,3.17,0,0,1,.55,1.87,4.07,4.07,0,0,1-.41,1.82,6.82,6.82,0,0,1-1.58,1.93l-2.73,2.59Z"/>
            <path class="cls-5" d="M292.23,555.54v2.24h-9V556l4.59-4.34a4.67,4.67,0,0,0,1-1.2,2.14,2.14,0,0,0,.25-1,1.33,1.33,0,0,0-.48-1.1,2.31,2.31,0,0,0-1.42-.38,3.21,3.21,0,0,0-1.41.3,2.67,2.67,0,0,0-1.06.89l-2-1.29a4.66,4.66,0,0,1,1.92-1.63,6.4,6.4,0,0,1,2.8-.58,5.72,5.72,0,0,1,2.32.43,3.61,3.61,0,0,1,1.55,1.22,3.17,3.17,0,0,1,.55,1.87,4.07,4.07,0,0,1-.41,1.82,7,7,0,0,1-1.58,1.93l-2.73,2.59Z"/>
            <path class="cls-5" d="M309.27,552.67a3,3,0,0,1,.57,1.86,2.74,2.74,0,0,1-1.21,2.41,6.23,6.23,0,0,1-3.55.84h-6.15v-11.9h5.81a5.7,5.7,0,0,1,3.34.83,2.64,2.64,0,0,1,1.17,2.27,2.87,2.87,0,0,1-1.58,2.61A3.22,3.22,0,0,1,309.27,552.67Zm-7.6-4.71v2.8h2.73a2.75,2.75,0,0,0,1.55-.36,1.31,1.31,0,0,0,0-2.1,2.85,2.85,0,0,0-1.55-.34Zm4.85,7.39a1.22,1.22,0,0,0,.55-1.1c0-1-.73-1.48-2.19-1.48h-3.21v2.94h3.21A3,3,0,0,0,306.52,555.35Z"/>
            <path class="cls-5" d="M314.23,548.13h-3.81v-2.25h10.37v2.25H317v9.65h-2.75Z"/>
            <path class="cls-5" d="M324.51,557.19A5.8,5.8,0,0,1,322.2,555a6.09,6.09,0,0,1,2.31-8.53,6.82,6.82,0,0,1,3.3-.79,7,7,0,0,1,2.8.54,5.64,5.64,0,0,1,2.1,1.57l-1.77,1.63a3.79,3.79,0,0,0-3-1.4,3.89,3.89,0,0,0-2,.49,3.37,3.37,0,0,0-1.35,1.35,4.21,4.21,0,0,0,0,3.94,3.37,3.37,0,0,0,1.35,1.35,3.89,3.89,0,0,0,2,.49,3.77,3.77,0,0,0,3-1.41l1.77,1.63a5.52,5.52,0,0,1-2.11,1.58,7,7,0,0,1-2.8.55A6.79,6.79,0,0,1,324.51,557.19Z"/>
            <path class="cls-5" d="M338.85,551.93h4.81v2.13h-4.81Z"/>
            <path class="cls-5" d="M345.51,551.93h4.81v2.13h-4.81Z"/>
            <path class="cls-5" d="M352.17,551.93H357v2.13h-4.81Z"/>
          </g>
          <path class="cls-5" d="M371.43,467.55a1.72,1.72,0,0,1-1.18-.47L364,461.19a1.71,1.71,0,0,1-.08-2.43,1.73,1.73,0,0,1,2.44-.07l5,4.75,13.21-13a1.72,1.72,0,1,1,2.42,2.45l-14.4,14.17A1.74,1.74,0,0,1,371.43,467.55Z"/>
          <path class="cls-5" d="M371.43,424a1.72,1.72,0,0,1-1.18-.47L364,417.67a1.72,1.72,0,1,1,2.36-2.5l5,4.75,13.21-13a1.72,1.72,0,1,1,2.42,2.45l-14.4,14.17A1.74,1.74,0,0,1,371.43,424Z"/>
          <path class="cls-5" d="M371.43,512.18a1.71,1.71,0,0,1-1.18-.46l-6.25-5.9a1.71,1.71,0,0,1-.08-2.43,1.73,1.73,0,0,1,2.44-.07l5,4.76,13.21-13a1.72,1.72,0,1,1,2.42,2.45l-14.4,14.16A1.7,1.7,0,0,1,371.43,512.18Z"/>
          <path class="cls-5" d="M371.43,556.81a1.67,1.67,0,0,1-1.18-.47L364,550.45a1.71,1.71,0,0,1-.08-2.43,1.73,1.73,0,0,1,2.44-.07l5,4.75,13.21-13a1.72,1.72,0,1,1,2.42,2.45l-14.4,14.17A1.7,1.7,0,0,1,371.43,556.81Z"/>
        </g>
        <g>
          <path class="cls-2" d="M231.64,613.69a6.23,6.23,0,1,0-6.23,6.23A6.23,6.23,0,0,0,231.64,613.69Z"/>
          <path class="cls-2" d="M231.64,575.38a6.23,6.23,0,1,0-6.23,6.23A6.23,6.23,0,0,0,231.64,575.38Z"/>
          <path class="cls-2" d="M231.64,537.08a6.23,6.23,0,1,0-6.23,6.23A6.23,6.23,0,0,0,231.64,537.08Z"/>
          <path class="cls-2" d="M231.64,498.78a6.23,6.23,0,1,0-6.23,6.23A6.23,6.23,0,0,0,231.64,498.78Z"/>
          <path class="cls-2" d="M231.64,460.47a6.23,6.23,0,1,0-6.23,6.23A6.23,6.23,0,0,0,231.64,460.47Z"/>
          <path class="cls-2" d="M231.64,422.17a6.23,6.23,0,1,0-6.23,6.23A6.23,6.23,0,0,0,231.64,422.17Z"/>
          <path class="cls-2" d="M231.64,383.87a6.23,6.23,0,1,0-6.23,6.23A6.23,6.23,0,0,0,231.64,383.87Z"/>
          <path class="cls-2" d="M231.64,345.57a6.23,6.23,0,1,0-6.23,6.22A6.23,6.23,0,0,0,231.64,345.57Z"/>
        </g>
      </g>
      <g>
        <polygon class="cls-2" points="1285.78 660.28 1232.29 610.88 954.6 610.88 975.58 660.28 1285.78 660.28"/>
        <polyline class="cls-3" points="970.74 314.76 970.74 691.11 1302.4 691.11 1302.4 314.76"/>
        <line class="cls-2" x1="947.87" y1="293" x2="947.87" y2="627.09"/>
        <line class="cls-2" x1="947.87" y1="627.09" x2="970.74" y2="691.11"/>
        <line class="cls-3" x1="1302.4" y1="666.13" x2="970.74" y2="666.13"/>
        <line class="cls-2" x1="1232.29" y1="606.37" x2="948.66" y2="606.37"/>
        <line class="cls-2" x1="971.54" y1="666.92" x2="948.66" y2="606.37"/>
        <line class="cls-2" x1="1302.4" y1="666.92" x2="1232.29" y2="606.37"/>
        <line class="cls-2" x1="1232.29" y1="314.76" x2="1232.29" y2="627.09"/>
        <line class="cls-2" x1="962.23" y1="627.09" x2="1232.29" y2="627.09"/>
        <line class="cls-2" x1="1267.05" y1="660.28" x2="1232.29" y2="627.09"/>
        <g>
          <line class="cls-3" x1="1302.4" y1="314.76" x2="1302.4" y2="304.9"/>
          <polygon class="cls-2" points="970.74 304.9 1302.4 304.9 1232.29 282.29 947.87 282.29 970.74 304.9"/>
          <line class="cls-2" x1="947.87" y1="282.29" x2="947.87" y2="292.42"/>
          <polyline class="cls-2" points="978.74 315.76 970.74 315.76 947.87 292.8"/>
          <line class="cls-2" x1="1302.4" y1="315.76" x2="978.74" y2="315.76"/>
        </g>
        <line class="cls-3" x1="1302.4" y1="314.76" x2="1292.74" y2="314.76"/>
        <g>
          <polyline class="cls-4" points="1216.79 301.32 1216.79 159.63 1006.85 159.63 1006.85 300.67"/>
          <polyline class="cls-4" points="1006.85 319.33 1006.85 474.37 1181.79 474.37 1186.07 444.77 1216.79 440.23 1216.79 319.33"/>
          <g>
            <g>
              <path class="cls-5" d="M1066.14,244h-3v2.89H1061V244h-3v-2.07h3V239h2.19v2.89h3Z"/>
              <path class="cls-5" d="M1076.46,246.66v2.25h-9v-1.79l4.59-4.33a5,5,0,0,0,1-1.2,2.21,2.21,0,0,0,.25-1,1.31,1.31,0,0,0-.48-1.09,2.23,2.23,0,0,0-1.42-.39,3.24,3.24,0,0,0-1.41.3,2.83,2.83,0,0,0-1.06.89l-2-1.29a4.64,4.64,0,0,1,1.92-1.62,6.43,6.43,0,0,1,2.8-.59,5.89,5.89,0,0,1,2.32.43,3.55,3.55,0,0,1,1.55,1.23,3.16,3.16,0,0,1,.55,1.86,4.17,4.17,0,0,1-.4,1.82,7.21,7.21,0,0,1-1.58,1.94l-2.74,2.58Z"/>
              <path class="cls-5" d="M1093.49,243.8a3,3,0,0,1,.58,1.86,2.75,2.75,0,0,1-1.22,2.4,6.13,6.13,0,0,1-3.54.85h-6.16V237H1089a5.66,5.66,0,0,1,3.34.84,2.64,2.64,0,0,1,1.16,2.26,3,3,0,0,1-.41,1.55,3,3,0,0,1-1.17,1.07A3.1,3.1,0,0,1,1093.49,243.8Zm-7.6-4.72v2.8h2.74a2.72,2.72,0,0,0,1.54-.35,1.18,1.18,0,0,0,.53-1.06,1.15,1.15,0,0,0-.53-1,2.81,2.81,0,0,0-1.54-.35Zm4.85,7.39a1.21,1.21,0,0,0,.56-1.1c0-1-.73-1.48-2.2-1.48h-3.21v2.94h3.21A3,3,0,0,0,1090.74,246.47Z"/>
              <path class="cls-5" d="M1098.45,239.25h-3.8V237H1105v2.25h-3.81v9.66h-2.76Z"/>
              <path class="cls-5" d="M1108.73,248.32a5.94,5.94,0,0,1-2.31-2.19,6.4,6.4,0,0,1,0-6.34,5.89,5.89,0,0,1,2.31-2.2,7.34,7.34,0,0,1,6.1-.24,5.46,5.46,0,0,1,2.1,1.56l-1.77,1.63a3.78,3.78,0,0,0-3-1.39,4,4,0,0,0-2,.48,3.5,3.5,0,0,0-1.35,1.35,4.3,4.3,0,0,0,0,4,3.44,3.44,0,0,0,1.35,1.35,4,4,0,0,0,2,.48,3.77,3.77,0,0,0,3-1.41l1.77,1.63a5.47,5.47,0,0,1-2.11,1.59,7,7,0,0,1-2.8.54A6.81,6.81,0,0,1,1108.73,248.32Z"/>
              <path class="cls-5" d="M1123.07,243.06h4.81v2.12h-4.81Z"/>
              <path class="cls-5" d="M1129.73,243.06h4.81v2.12h-4.81Z"/>
              <path class="cls-5" d="M1066.14,290h-3v2.89H1061V290h-3v-2.08h3V285h2.19v2.89h3Z"/>
              <path class="cls-5" d="M1072.07,283v11.9h-2.75v-9.69h-2.38V283Z"/>
              <path class="cls-5" d="M1082,287.91a3.66,3.66,0,0,1,1.48,1.3,3.52,3.52,0,0,1,.54,1.94,3.66,3.66,0,0,1-.6,2.09,3.8,3.8,0,0,1-1.62,1.39,5.33,5.33,0,0,1-2.29.48,5.08,5.08,0,0,1-3.91-1.53,6.21,6.21,0,0,1-1.41-4.37,7.3,7.3,0,0,1,.77-3.46,5.2,5.2,0,0,1,2.13-2.2,6.62,6.62,0,0,1,3.17-.74,7.78,7.78,0,0,1,1.83.21,4.94,4.94,0,0,1,1.49.6l-1,2a3.88,3.88,0,0,0-2.23-.6,3.24,3.24,0,0,0-2.4.88,3.73,3.73,0,0,0-1,2.57,4,4,0,0,1,2.94-1.05A4.63,4.63,0,0,1,1082,287.91Zm-1.2,4.67a1.62,1.62,0,0,0,.55-1.29,1.64,1.64,0,0,0-.55-1.3,2.17,2.17,0,0,0-1.47-.49,2.15,2.15,0,0,0-1.48.51,1.71,1.71,0,0,0,0,2.55,2.25,2.25,0,0,0,1.53.5A2.12,2.12,0,0,0,1080.75,292.58Z"/>
              <path class="cls-5" d="M1100.87,289.8a3,3,0,0,1,.58,1.86,2.75,2.75,0,0,1-1.22,2.41,6.21,6.21,0,0,1-3.54.84h-6.16V283h5.82a5.74,5.74,0,0,1,3.34.83,2.65,2.65,0,0,1,1.16,2.26,2.87,2.87,0,0,1-1.58,2.62A3.22,3.22,0,0,1,1100.87,289.8Zm-7.6-4.72v2.81H1096a2.72,2.72,0,0,0,1.54-.36,1.31,1.31,0,0,0,0-2.1,2.81,2.81,0,0,0-1.54-.35Zm4.85,7.4a1.23,1.23,0,0,0,.55-1.11q0-1.47-2.19-1.47h-3.21v2.94h3.21A3,3,0,0,0,1098.12,292.48Z"/>
              <path class="cls-5" d="M1105.83,285.25H1102V283h10.37v2.24h-3.8v9.66h-2.76Z"/>
              <path class="cls-5" d="M1116.11,294.32a5.8,5.8,0,0,1-2.31-2.19,6.4,6.4,0,0,1,0-6.34,5.8,5.8,0,0,1,2.31-2.19,6.82,6.82,0,0,1,3.3-.79,7,7,0,0,1,2.8.54,5.62,5.62,0,0,1,2.1,1.56l-1.77,1.64a3.79,3.79,0,0,0-3-1.4,3.89,3.89,0,0,0-2,.49,3.37,3.37,0,0,0-1.35,1.35,4.21,4.21,0,0,0,0,3.94,3.37,3.37,0,0,0,1.35,1.35,3.89,3.89,0,0,0,2,.49,3.77,3.77,0,0,0,3-1.41l1.77,1.63a5.52,5.52,0,0,1-2.11,1.58,7,7,0,0,1-2.8.54A6.78,6.78,0,0,1,1116.11,294.32Z"/>
              <path class="cls-5" d="M1130.45,289.06h4.81v2.13h-4.81Z"/>
              <path class="cls-5" d="M1137.11,289.06h4.81v2.13h-4.81Z"/>
              <path class="cls-5" d="M1143.77,289.06h4.82v2.13h-4.82Z"/>
              <path class="cls-5" d="M1150.44,289.06h4.81v2.13h-4.81Z"/>
              <path class="cls-5" d="M1057.87,335.07h4.82v2.12h-4.82Z"/>
              <path class="cls-5" d="M1075.18,338.42h-1.94v2.5h-2.68v-2.5h-6.41v-1.86l5.61-7.55h2.89l-5.2,7.16h3.19V334h2.6v2.22h1.94Z"/>
              <path class="cls-5" d="M1091.89,335.81a2.93,2.93,0,0,1,.58,1.86,2.75,2.75,0,0,1-1.22,2.4,6.21,6.21,0,0,1-3.54.85h-6.16V329h5.82a5.66,5.66,0,0,1,3.34.84,2.62,2.62,0,0,1,1.16,2.26,2.9,2.9,0,0,1-.41,1.55,3,3,0,0,1-1.17,1.07A3.06,3.06,0,0,1,1091.89,335.81Zm-7.6-4.72v2.8H1087a2.78,2.78,0,0,0,1.55-.35,1.2,1.2,0,0,0,.52-1.06,1.16,1.16,0,0,0-.52-1,2.87,2.87,0,0,0-1.55-.35Zm4.86,7.39a1.22,1.22,0,0,0,.55-1.1c0-1-.73-1.48-2.2-1.48h-3.21v2.94h3.21A3.06,3.06,0,0,0,1089.15,338.48Z"/>
              <path class="cls-5" d="M1096.86,331.26h-3.81V329h10.37v2.25h-3.81v9.66h-2.75Z"/>
              <path class="cls-5" d="M1107.13,340.33a5.94,5.94,0,0,1-2.31-2.19,6.42,6.42,0,0,1,0-6.35,5.94,5.94,0,0,1,2.31-2.19,7.34,7.34,0,0,1,6.1-.24,5.46,5.46,0,0,1,2.1,1.56l-1.76,1.63a3.82,3.82,0,0,0-3-1.39,4,4,0,0,0-2,.48,3.44,3.44,0,0,0-1.35,1.35,4.3,4.3,0,0,0,0,3.95,3.44,3.44,0,0,0,1.35,1.35,4,4,0,0,0,2,.48,3.81,3.81,0,0,0,3-1.41l1.76,1.63a5.51,5.51,0,0,1-2.1,1.59,7.08,7.08,0,0,1-2.81.54A6.81,6.81,0,0,1,1107.13,340.33Z"/>
              <path class="cls-5" d="M1121.47,335.07h4.81v2.12h-4.81Z"/>
              <path class="cls-5" d="M1128.13,335.07H1133v2.12h-4.82Z"/>
              <path class="cls-5" d="M1134.8,335.07h4.81v2.12h-4.81Z"/>
              <path class="cls-5" d="M1141.46,335.07h4.81v2.12h-4.81Z"/>
              <path class="cls-5" d="M1148.12,335.07h4.82v2.12h-4.82Z"/>
              <path class="cls-5" d="M1066.14,382h-3v2.89H1061V382h-3v-2.08h3V377h2.19v2.89h3Z"/>
              <path class="cls-5" d="M1076.46,384.68v2.24h-9v-1.79l4.59-4.33a4.84,4.84,0,0,0,1-1.2,2.14,2.14,0,0,0,.25-1,1.33,1.33,0,0,0-.48-1.1,2.29,2.29,0,0,0-1.42-.38,3.24,3.24,0,0,0-1.41.3,2.66,2.66,0,0,0-1.06.89l-2-1.29a4.59,4.59,0,0,1,1.92-1.63,6.43,6.43,0,0,1,2.8-.58,5.72,5.72,0,0,1,2.32.43,3.61,3.61,0,0,1,1.55,1.22,3.16,3.16,0,0,1,.55,1.86,4.14,4.14,0,0,1-.4,1.82,7.06,7.06,0,0,1-1.58,1.94l-2.74,2.59Z"/>
              <path class="cls-5" d="M1093.49,381.81a3,3,0,0,1,.58,1.86,2.75,2.75,0,0,1-1.22,2.41,6.21,6.21,0,0,1-3.54.84h-6.16V375H1089a5.74,5.74,0,0,1,3.34.83,2.65,2.65,0,0,1,1.16,2.26,2.83,2.83,0,0,1-1.58,2.62A3.22,3.22,0,0,1,1093.49,381.81Zm-7.6-4.72v2.81h2.74a2.72,2.72,0,0,0,1.54-.36,1.17,1.17,0,0,0,.53-1.05,1.15,1.15,0,0,0-.53-1.05,2.81,2.81,0,0,0-1.54-.35Zm4.85,7.4a1.23,1.23,0,0,0,.56-1.11c0-1-.73-1.47-2.2-1.47h-3.21v2.94h3.21A3,3,0,0,0,1090.74,384.49Z"/>
              <path class="cls-5" d="M1098.45,377.26h-3.8V375H1105v2.24h-3.81v9.66h-2.76Z"/>
              <path class="cls-5" d="M1108.73,386.33a5.8,5.8,0,0,1-2.31-2.19,6.4,6.4,0,0,1,0-6.34,5.8,5.8,0,0,1,2.31-2.19,6.83,6.83,0,0,1,3.31-.79,6.94,6.94,0,0,1,2.79.54,5.46,5.46,0,0,1,2.1,1.56l-1.77,1.64a3.79,3.79,0,0,0-3-1.4,3.92,3.92,0,0,0-2,.49,3.37,3.37,0,0,0-1.35,1.35,4.28,4.28,0,0,0,0,3.94,3.37,3.37,0,0,0,1.35,1.35,3.92,3.92,0,0,0,2,.49,3.77,3.77,0,0,0,3-1.41l1.77,1.63a5.44,5.44,0,0,1-2.11,1.58,7,7,0,0,1-2.8.54A6.81,6.81,0,0,1,1108.73,386.33Z"/>
              <path class="cls-5" d="M1123.07,381.07h4.81v2.13h-4.81Z"/>
              <path class="cls-5" d="M1129.73,381.07h4.81v2.13h-4.81Z"/>
              <path class="cls-5" d="M1136.4,381.07h4.81v2.13h-4.81Z"/>
              <path class="cls-5" d="M1143.06,381.07h4.81v2.13h-4.81Z"/>
            </g>
            <path class="cls-5" d="M1165.68,296.69a1.72,1.72,0,0,1-1.18-.47l-6.25-5.89a1.72,1.72,0,1,1,2.36-2.5l5,4.75,13.22-13a1.72,1.72,0,1,1,2.41,2.45l-14.4,14.16A1.69,1.69,0,0,1,1165.68,296.69Z"/>
            <path class="cls-5" d="M1165.68,253.17a1.72,1.72,0,0,1-1.18-.47l-6.25-5.89a1.72,1.72,0,0,1,2.36-2.51l5,4.76,13.22-13a1.72,1.72,0,0,1,2.41,2.45l-14.4,14.16A1.69,1.69,0,0,1,1165.68,253.17Z"/>
            <path class="cls-5" d="M1165.68,341.32a1.71,1.71,0,0,1-1.18-.46l-6.25-5.9a1.72,1.72,0,1,1,2.36-2.5l5,4.76,13.22-13a1.72,1.72,0,0,1,2.41,2.46l-14.4,14.16A1.68,1.68,0,0,1,1165.68,341.32Z"/>
            <path class="cls-5" d="M1165.68,386a1.72,1.72,0,0,1-1.18-.47l-6.25-5.89a1.72,1.72,0,1,1,2.36-2.5l5,4.75,13.22-13a1.72,1.72,0,1,1,2.41,2.45l-14.4,14.17A1.72,1.72,0,0,1,1165.68,386Z"/>
          </g>
          <g>
            <circle class="cls-2" cx="1025.07" cy="452.41" r="6.23"/>
            <path class="cls-2" d="M1031.3,414.1a6.23,6.23,0,1,0-6.23,6.23A6.23,6.23,0,0,0,1031.3,414.1Z"/>
            <path class="cls-2" d="M1031.3,375.8a6.23,6.23,0,1,0-6.23,6.23A6.23,6.23,0,0,0,1031.3,375.8Z"/>
            <path class="cls-2" d="M1031.3,337.5a6.23,6.23,0,1,0-6.23,6.23A6.23,6.23,0,0,0,1031.3,337.5Z"/>
            <path class="cls-2" d="M1031.3,299.19a6.23,6.23,0,1,0-6.23,6.23A6.23,6.23,0,0,0,1031.3,299.19Z"/>
            <circle class="cls-2" cx="1025.07" cy="260.89" r="6.23"/>
            <path class="cls-2" d="M1031.3,222.59a6.23,6.23,0,1,0-6.23,6.23A6.23,6.23,0,0,0,1031.3,222.59Z"/>
            <path class="cls-2" d="M1031.3,184.28a6.23,6.23,0,1,0-6.23,6.23A6.22,6.22,0,0,0,1031.3,184.28Z"/>
          </g>
        </g>
        <g>
          <rect class="cls-2" x="1134.28" y="-66.48" width="6.5" height="330.86" transform="translate(894.52 1214.62) rotate(-82.68)"/>
          <polygon class="cls-2" points="945.94 88.21 973.04 81.1 973.86 74.65 946.77 81.76 945.94 88.21"/>
          <polyline class="cls-2" points="1300.95 125.22 1230.32 124.72 945.94 88.21"/>
        </g>
        <line class="cls-2" x1="1232.29" y1="304.9" x2="1232.29" y2="282.29"/>
        <line class="cls-3" x1="970.74" y1="304.9" x2="970.74" y2="317"/>
        <line class="cls-3" x1="970.74" y1="304.9" x2="1302.4" y2="304.9"/>
        <line class="cls-2" x1="956.09" y1="290.42" x2="1007.77" y2="290.42"/>
        <line class="cls-2" x1="1231.29" y1="290.42" x2="1269.4" y2="303.36"/>
        <polyline class="cls-3" points="1292.74 314.76 970.74 314.76 948.66 291.96"/>
        <line class="cls-2" x1="1231.29" y1="290.42" x2="1216.79" y2="290.42"/>
        <line class="cls-3" x1="1181.79" y1="474.37" x2="1216.79" y2="440.23"/>
      </g>
      <line class="cls-2" x1="192.96" y1="627.09" x2="192.96" y2="610.88"/>
      <g>
        <g>
          <polygon class="cls-2" points="869.65 660.28 559.44 660.28 567.63 610.88 873.27 610.88 881.27 660.28 869.65 660.28"/>
          <rect class="cls-3" x="554.61" y="294.35" width="331.66" height="396.77"/>
          <polygon class="cls-2" points="554.61 294.35 886.27 294.35 876.27 271.73 560.4 271.73 554.61 294.35"/>
          <line class="cls-2" x1="554.41" y1="627.09" x2="554.61" y2="691.11"/>
          <line class="cls-3" x1="886.27" y1="666.13" x2="554.61" y2="666.13"/>
          <line class="cls-2" x1="877.27" y1="606.37" x2="563.57" y2="606.37"/>
          <line class="cls-2" x1="555.41" y1="666.92" x2="555.2" y2="606.37"/>
          <line class="cls-2" x1="886.27" y1="666.92" x2="886.27" y2="606.37"/>
          <line class="cls-2" x1="568.07" y1="627.09" x2="872.27" y2="627.09"/>
          <polyline class="cls-2" points="886.27 305.2 554.61 305.2 554.4 294.35"/>
          <polyline class="cls-2" points="886.27 314.76 554.61 314.76 555.2 291.96"/>
          <g>
            <rect class="cls-4" x="615.71" y="325.1" width="209.94" height="314.73"/>
            <g>
              <g>
                <path class="cls-5" d="M675,424.4h-3v2.89h-2.19V424.4h-2.94v-2.07h2.94v-2.89H672v2.89h3Z"/>
                <path class="cls-5" d="M684.49,422.89a3.32,3.32,0,0,1,1.2,2.69,3.78,3.78,0,0,1-.54,2,3.86,3.86,0,0,1-1.66,1.43,6.4,6.4,0,0,1-2.74.53,9.44,9.44,0,0,1-2.48-.33,6.42,6.42,0,0,1-2.06-.94l1.08-2.11a5.38,5.38,0,0,0,1.57.79,5.87,5.87,0,0,0,1.82.28,2.87,2.87,0,0,0,1.63-.41,1.29,1.29,0,0,0,.59-1.14,1.26,1.26,0,0,0-.62-1.15,4.26,4.26,0,0,0-2.15-.4h-3l.61-6.69H685v2.21h-5l-.19,2.26h1A5.67,5.67,0,0,1,684.49,422.89Z"/>
                <path class="cls-5" d="M689.28,428.79a4.86,4.86,0,0,1-1.81-2.12,8.61,8.61,0,0,1,0-6.61,5,5,0,0,1,7.08-2.12,5,5,0,0,1,1.81,2.12,8.73,8.73,0,0,1,0,6.61,4.92,4.92,0,0,1-1.81,2.12,5.12,5.12,0,0,1-5.27,0Zm4.34-2.53a7,7,0,0,0,0-5.78,2,2,0,0,0-3.4,0,7,7,0,0,0,0,5.78,2,2,0,0,0,3.4,0Z"/>
                <path class="cls-5" d="M714.25,424.21a2.93,2.93,0,0,1,.58,1.86,2.75,2.75,0,0,1-1.22,2.4,6.13,6.13,0,0,1-3.54.85h-6.15v-11.9h5.81a5.66,5.66,0,0,1,3.34.83,2.62,2.62,0,0,1,1.16,2.26,2.9,2.9,0,0,1-.41,1.55,3,3,0,0,1-1.17,1.07A3.06,3.06,0,0,1,714.25,424.21Zm-7.6-4.72v2.8h2.74a2.76,2.76,0,0,0,1.55-.35,1.2,1.2,0,0,0,.52-1.06,1.16,1.16,0,0,0-.52-1,2.84,2.84,0,0,0-1.55-.35Zm4.86,7.4a1.25,1.25,0,0,0,.55-1.11c0-1-.73-1.48-2.19-1.48h-3.22v2.94h3.22A3.15,3.15,0,0,0,711.51,426.89Z"/>
                <path class="cls-5" d="M719.22,419.66h-3.81v-2.24h10.37v2.24H722v9.66h-2.75Z"/>
                <path class="cls-5" d="M729.49,428.73a5.94,5.94,0,0,1-2.31-2.19,6.4,6.4,0,0,1,0-6.34,5.89,5.89,0,0,1,2.31-2.2,7,7,0,0,1,3.31-.79,6.86,6.86,0,0,1,2.8.55,5.62,5.62,0,0,1,2.1,1.56L735.93,421a3.82,3.82,0,0,0-3-1.39,4,4,0,0,0-2,.48,3.5,3.5,0,0,0-1.35,1.35,4.3,4.3,0,0,0,0,3.95,3.37,3.37,0,0,0,1.35,1.35,4,4,0,0,0,2,.48,3.81,3.81,0,0,0,3-1.41l1.77,1.64a5.62,5.62,0,0,1-2.11,1.58,7.08,7.08,0,0,1-2.81.54A6.81,6.81,0,0,1,729.49,428.73Z"/>
                <path class="cls-5" d="M743.83,423.47h4.81v2.12h-4.81Z"/>
                <path class="cls-5" d="M750.5,423.47h4.81v2.12H750.5Z"/>
                <path class="cls-5" d="M675,470.41h-3v2.89h-2.19v-2.89h-2.94v-2.08h2.94v-2.89H672v2.89h3Z"/>
                <path class="cls-5" d="M685.85,463.42v1.79l-4.42,10.11h-3l4.27-9.65h-3.94v1.93h-2.45v-4.18Z"/>
                <path class="cls-5" d="M703,470.21a3,3,0,0,1,.58,1.86,2.74,2.74,0,0,1-1.21,2.41,6.25,6.25,0,0,1-3.55.84h-6.15v-11.9h5.81a5.72,5.72,0,0,1,3.34.83,2.64,2.64,0,0,1,1.17,2.27,2.87,2.87,0,0,1-1.58,2.61A3.15,3.15,0,0,1,703,470.21Zm-7.59-4.71v2.8h2.73a2.75,2.75,0,0,0,1.55-.36,1.31,1.31,0,0,0,0-2.1,2.85,2.85,0,0,0-1.55-.34Zm4.85,7.39a1.22,1.22,0,0,0,.55-1.1c0-1-.73-1.48-2.19-1.48h-3.21v2.94h3.21A3,3,0,0,0,700.22,472.89Z"/>
                <path class="cls-5" d="M707.93,465.67h-3.81v-2.25h10.37v2.25h-3.81v9.65h-2.75Z"/>
                <path class="cls-5" d="M718.21,474.73a5.76,5.76,0,0,1-2.32-2.19,6.4,6.4,0,0,1,0-6.34,5.9,5.9,0,0,1,2.32-2.19,6.82,6.82,0,0,1,3.3-.79,7,7,0,0,1,2.8.54,5.64,5.64,0,0,1,2.1,1.57L724.64,467a3.81,3.81,0,0,0-3-1.4,3.87,3.87,0,0,0-2,.49,3.46,3.46,0,0,0-1.36,1.35,4.28,4.28,0,0,0,0,3.94,3.46,3.46,0,0,0,1.36,1.35,3.87,3.87,0,0,0,2,.49,3.79,3.79,0,0,0,3-1.41l1.77,1.63A5.52,5.52,0,0,1,724.3,475a7,7,0,0,1-2.81.55A6.78,6.78,0,0,1,718.21,474.73Z"/>
                <path class="cls-5" d="M732.54,469.47h4.82v2.13h-4.82Z"/>
                <path class="cls-5" d="M739.21,469.47H744v2.13h-4.81Z"/>
                <path class="cls-5" d="M745.87,469.47h4.81v2.13h-4.81Z"/>
                <path class="cls-5" d="M752.54,469.47h4.81v2.13h-4.81Z"/>
                <path class="cls-5" d="M666.74,515.48h4.81v2.12h-4.81Z"/>
                <path class="cls-5" d="M681.17,510.74a6.23,6.23,0,0,1,1.41,4.38,7.32,7.32,0,0,1-.76,3.47,5.12,5.12,0,0,1-2.13,2.19,6.55,6.55,0,0,1-3.18.75,7.75,7.75,0,0,1-1.82-.21,5,5,0,0,1-1.48-.61l1-2a3.84,3.84,0,0,0,2.23.6,3.21,3.21,0,0,0,2.4-.9,3.73,3.73,0,0,0,.95-2.57,4,4,0,0,1-3,1.07,4.56,4.56,0,0,1-2.07-.46,3.6,3.6,0,0,1-1.48-1.3,3.53,3.53,0,0,1-.55-2,3.69,3.69,0,0,1,.6-2.09,3.9,3.9,0,0,1,1.62-1.38,5.23,5.23,0,0,1,2.29-.49A5.08,5.08,0,0,1,681.17,510.74Zm-2.24,3.59a1.74,1.74,0,0,0,0-2.56,2.52,2.52,0,0,0-3,0,1.62,1.62,0,0,0-.55,1.3,1.65,1.65,0,0,0,.55,1.3,2.17,2.17,0,0,0,1.47.48A2.12,2.12,0,0,0,678.93,514.33Z"/>
                <path class="cls-5" d="M699.8,516.22a2.93,2.93,0,0,1,.58,1.86,2.75,2.75,0,0,1-1.22,2.4,6.13,6.13,0,0,1-3.54.85h-6.15v-11.9h5.81a5.66,5.66,0,0,1,3.34.83,2.63,2.63,0,0,1,1.17,2.26,2.91,2.91,0,0,1-.42,1.55,3,3,0,0,1-1.17,1.07A3.06,3.06,0,0,1,699.8,516.22Zm-7.6-4.72v2.8h2.74a2.76,2.76,0,0,0,1.55-.35,1.2,1.2,0,0,0,.52-1.06,1.16,1.16,0,0,0-.52-1,2.84,2.84,0,0,0-1.55-.35Zm4.86,7.4a1.25,1.25,0,0,0,.55-1.11c0-1-.73-1.48-2.19-1.48H692.2v2.94h3.22A3.15,3.15,0,0,0,697.06,518.9Z"/>
                <path class="cls-5" d="M704.77,511.67H701v-2.24h10.37v2.24h-3.81v9.66h-2.75Z"/>
                <path class="cls-5" d="M715,520.74a5.94,5.94,0,0,1-2.31-2.19,6.4,6.4,0,0,1,0-6.34A5.89,5.89,0,0,1,715,510a7,7,0,0,1,3.31-.79,6.86,6.86,0,0,1,2.8.55,5.62,5.62,0,0,1,2.1,1.56L721.48,513a3.8,3.8,0,0,0-3-1.39,4,4,0,0,0-2,.48,3.57,3.57,0,0,0-1.35,1.35,4.3,4.3,0,0,0,0,4,3.44,3.44,0,0,0,1.35,1.35,4,4,0,0,0,2,.48,3.79,3.79,0,0,0,3-1.41l1.77,1.64a5.62,5.62,0,0,1-2.11,1.58,7.08,7.08,0,0,1-2.81.54A6.81,6.81,0,0,1,715,520.74Z"/>
                <path class="cls-5" d="M729.38,515.48h4.81v2.12h-4.81Z"/>
                <path class="cls-5" d="M736,515.48h4.82v2.12H736Z"/>
                <path class="cls-5" d="M742.71,515.48h4.81v2.12h-4.81Z"/>
                <path class="cls-5" d="M749.37,515.48h4.81v2.12h-4.81Z"/>
                <path class="cls-5" d="M756,515.48h4.81v2.12H756Z"/>
                <path class="cls-5" d="M675,562.42h-3v2.89h-2.19v-2.89h-2.94v-2.08h2.94v-2.89H672v2.89h3Z"/>
                <path class="cls-5" d="M684.57,560.33a3.59,3.59,0,0,1,1.48,1.3,3.52,3.52,0,0,1,.54,1.94,3.79,3.79,0,0,1-.59,2.1,3.87,3.87,0,0,1-1.63,1.38,5.29,5.29,0,0,1-2.28.49,5,5,0,0,1-3.91-1.54,6.18,6.18,0,0,1-1.41-4.36,7.32,7.32,0,0,1,.76-3.47,5.22,5.22,0,0,1,2.14-2.2,6.57,6.57,0,0,1,3.17-.74,7.75,7.75,0,0,1,1.82.21,4.83,4.83,0,0,1,1.49.6l-1,2a3.88,3.88,0,0,0-2.23-.6,3.24,3.24,0,0,0-2.39.89,3.64,3.64,0,0,0-1,2.56,4,4,0,0,1,2.94-1A4.56,4.56,0,0,1,684.57,560.33Zm-1.2,4.67a1.62,1.62,0,0,0,.55-1.29,1.64,1.64,0,0,0-.55-1.3,2.43,2.43,0,0,0-3,0,1.71,1.71,0,0,0,0,2.56,2.27,2.27,0,0,0,1.53.49A2.11,2.11,0,0,0,683.37,565Z"/>
                <path class="cls-5" d="M703.49,562.22a3,3,0,0,1,.58,1.86,2.75,2.75,0,0,1-1.22,2.41,6.21,6.21,0,0,1-3.54.84h-6.15v-11.9H699a5.74,5.74,0,0,1,3.34.83,2.64,2.64,0,0,1,1.16,2.27,2.83,2.83,0,0,1-1.58,2.61A3.18,3.18,0,0,1,703.49,562.22Zm-7.6-4.72v2.81h2.74a2.78,2.78,0,0,0,1.55-.36,1.32,1.32,0,0,0,0-2.1,2.87,2.87,0,0,0-1.55-.35Zm4.86,7.4a1.25,1.25,0,0,0,.55-1.11q0-1.47-2.19-1.47h-3.22v2.94h3.22A3,3,0,0,0,700.75,564.9Z"/>
                <path class="cls-5" d="M708.46,557.67h-3.81v-2.24H715v2.24h-3.81v9.66h-2.75Z"/>
                <path class="cls-5" d="M718.73,566.74a5.8,5.8,0,0,1-2.31-2.19,6.4,6.4,0,0,1,0-6.34,5.87,5.87,0,0,1,2.31-2.19,6.83,6.83,0,0,1,3.31-.79,6.94,6.94,0,0,1,2.79.54,5.56,5.56,0,0,1,2.1,1.56L725.17,559a3.83,3.83,0,0,0-3-1.4,3.92,3.92,0,0,0-2,.49,3.37,3.37,0,0,0-1.35,1.35,4.28,4.28,0,0,0,0,3.94,3.37,3.37,0,0,0,1.35,1.35,3.92,3.92,0,0,0,2,.49,3.81,3.81,0,0,0,3-1.41l1.76,1.63a5.48,5.48,0,0,1-2.1,1.58,7.08,7.08,0,0,1-2.81.55A6.82,6.82,0,0,1,718.73,566.74Z"/>
                <path class="cls-5" d="M733.07,561.48h4.81v2.13h-4.81Z"/>
                <path class="cls-5" d="M739.73,561.48h4.81v2.13h-4.81Z"/>
                <path class="cls-5" d="M746.4,561.48h4.81v2.13H746.4Z"/>
                <path class="cls-5" d="M753.06,561.48h4.81v2.13h-4.81Z"/>
              </g>
              <path class="cls-5" d="M774.54,477.1a1.69,1.69,0,0,1-1.18-.47l-6.25-5.89a1.72,1.72,0,0,1,2.36-2.5l5,4.75,13.21-13a1.72,1.72,0,1,1,2.41,2.45l-14.39,14.17A1.72,1.72,0,0,1,774.54,477.1Z"/>
              <path class="cls-5" d="M774.54,433.58a1.73,1.73,0,0,1-1.18-.47l-6.25-5.89a1.72,1.72,0,0,1,2.36-2.51l5,4.76,13.21-13a1.72,1.72,0,1,1,2.41,2.45l-14.39,14.16A1.73,1.73,0,0,1,774.54,433.58Z"/>
              <path class="cls-5" d="M774.54,521.73a1.72,1.72,0,0,1-1.18-.46l-6.25-5.89a1.72,1.72,0,0,1,2.36-2.51l5,4.76,13.21-13a1.72,1.72,0,1,1,2.41,2.45l-14.39,14.16A1.72,1.72,0,0,1,774.54,521.73Z"/>
              <path class="cls-5" d="M774.54,566.36a1.69,1.69,0,0,1-1.18-.47L767.11,560a1.72,1.72,0,1,1,2.36-2.5l5,4.75,13.21-13a1.72,1.72,0,1,1,2.41,2.45l-14.39,14.17A1.72,1.72,0,0,1,774.54,566.36Z"/>
            </g>
            <g>
              <path class="cls-2" d="M640.17,617.87a6.23,6.23,0,1,0-6.23,6.23A6.23,6.23,0,0,0,640.17,617.87Z"/>
              <path class="cls-2" d="M640.17,579.57a6.23,6.23,0,1,0-6.23,6.23A6.23,6.23,0,0,0,640.17,579.57Z"/>
              <path class="cls-2" d="M640.17,541.27a6.23,6.23,0,1,0-6.23,6.23A6.23,6.23,0,0,0,640.17,541.27Z"/>
              <path class="cls-2" d="M640.17,503a6.23,6.23,0,1,0-6.23,6.23A6.23,6.23,0,0,0,640.17,503Z"/>
              <path class="cls-2" d="M640.17,464.66a6.23,6.23,0,1,0-6.23,6.23A6.23,6.23,0,0,0,640.17,464.66Z"/>
              <path class="cls-2" d="M640.17,426.36a6.23,6.23,0,1,0-6.23,6.23A6.23,6.23,0,0,0,640.17,426.36Z"/>
              <path class="cls-2" d="M640.17,388.05a6.23,6.23,0,1,0-6.23,6.23A6.23,6.23,0,0,0,640.17,388.05Z"/>
              <path class="cls-2" d="M640.17,349.75a6.23,6.23,0,1,0-6.23,6.23A6.23,6.23,0,0,0,640.17,349.75Z"/>
            </g>
          </g>
        </g>
        <line class="cls-2" x1="563.52" y1="314.76" x2="563.52" y2="606.37"/>
        <line class="cls-2" x1="563.57" y1="606.37" x2="554.41" y2="663.5"/>
        <line class="cls-2" x1="877.27" y1="606.37" x2="877.27" y2="317"/>
        <line class="cls-2" x1="877.27" y1="606.37" x2="886.27" y2="666.13"/>
        <line class="cls-2" x1="872.27" y1="625.09" x2="872.27" y2="611.72"/>
        <line class="cls-2" x1="568.07" y1="627.09" x2="568.07" y2="610.88"/>
        <line class="cls-2" x1="568.07" y1="627.09" x2="563.57" y2="660.28"/>
        <line class="cls-2" x1="872.07" y1="625.09" x2="876.57" y2="659.1"/>
      </g>
      <g>
        <path class="cls-5" d="M183.4,728v26.6h-7.52V733.78h-4.94V728Z"/>
        <path class="cls-5" d="M193.05,753.47a11,11,0,0,1-4.16-4.77,19.15,19.15,0,0,1,0-14.86,11,11,0,0,1,4.16-4.77,12.1,12.1,0,0,1,12.13,0,11,11,0,0,1,4.16,4.77,19.15,19.15,0,0,1,0,14.86,11,11,0,0,1-4.16,4.77,12.1,12.1,0,0,1-12.13,0Zm9.1-6.37a15.63,15.63,0,0,0,0-11.67,3.41,3.41,0,0,0-3-1.84,3.46,3.46,0,0,0-3.06,1.84,15.76,15.76,0,0,0,0,11.67,3.44,3.44,0,0,0,3.06,1.84A3.39,3.39,0,0,0,202.15,747.1Z"/>
        <path class="cls-5" d="M249.86,754.57l-.07-14.1L243,752H239.6l-6.8-11.1v13.72h-7V728H232l9.35,15.35L250.51,728h6.19l.08,26.6Z"/>
        <path class="cls-5" d="M262.1,728h7.52v26.6H262.1Z"/>
        <path class="cls-5" d="M300.29,728v26.6h-6.2l-11.74-14.18v14.18H275V728h6.19l11.75,14.17V728Z"/>
        <path class="cls-5" d="M308.67,751.87q-3.3-3.23-3.29-9.16V728h7.52v14.51q0,6.39,5.06,6.39t5-6.39V728h7.41v14.74q0,5.92-3.28,9.16t-9.22,3.23Q312,755.1,308.67,751.87Z"/>
        <path class="cls-5" d="M340.72,733.93h-8.17v-6h23.82v6h-8.13v20.64h-7.52Z"/>
        <path class="cls-5" d="M380.54,748.75v5.82H359.19V728h20.86v5.81H366.63v4.49h11.82v5.62H366.63v4.86Z"/>
        <path class="cls-5" d="M387.8,754.3a15.3,15.3,0,0,1-4.94-2.13l2.47-5.54a16.44,16.44,0,0,0,4.14,1.9,15.83,15.83,0,0,0,4.64.72q4.33,0,4.33-2.17a1.79,1.79,0,0,0-1.23-1.69,23,23,0,0,0-4-1.16,36.7,36.7,0,0,1-5-1.39,8.33,8.33,0,0,1-3.46-2.37,6.43,6.43,0,0,1-1.44-4.41,7.62,7.62,0,0,1,1.33-4.39,8.82,8.82,0,0,1,4-3.09,16.34,16.34,0,0,1,6.48-1.14,22.93,22.93,0,0,1,5.16.58,16,16,0,0,1,4.49,1.73l-2.32,5.59a15.45,15.45,0,0,0-7.37-2.05,6.2,6.2,0,0,0-3.27.66,2,2,0,0,0-1,1.73,1.73,1.73,0,0,0,1.22,1.6,22.58,22.58,0,0,0,3.91,1.1,35.66,35.66,0,0,1,5,1.39,8.75,8.75,0,0,1,3.46,2.35,6.32,6.32,0,0,1,1.46,4.39,7.44,7.44,0,0,1-1.33,4.33,9,9,0,0,1-4,3.1,16.18,16.18,0,0,1-6.46,1.16A24.72,24.72,0,0,1,387.8,754.3Z"/>
      </g>
      <g>
        <path class="cls-5" d="M615.41,728v26.6h-7.53V733.78h-4.94V728Z"/>
        <path class="cls-5" d="M625.06,753.47a11,11,0,0,1-4.16-4.77,19.15,19.15,0,0,1,0-14.86,11,11,0,0,1,4.16-4.77,12.08,12.08,0,0,1,12.12,0,11,11,0,0,1,4.16,4.77,19.15,19.15,0,0,1,0,14.86,11,11,0,0,1-4.16,4.77,12.08,12.08,0,0,1-12.12,0Zm9.1-6.37q1.13-1.85,1.12-5.83t-1.12-5.84a3.43,3.43,0,0,0-6.08,0q-1.12,1.85-1.12,5.84t1.12,5.83a3.43,3.43,0,0,0,6.08,0Z"/>
        <path class="cls-5" d="M681.87,754.57l-.08-14.1L675,752h-3.34l-6.81-11.1v13.72h-6.95V728H664l9.35,15.35L682.51,728h6.2l.07,26.6Z"/>
        <path class="cls-5" d="M694.1,728h7.53v26.6H694.1Z"/>
        <path class="cls-5" d="M732.29,728v26.6H726.1l-11.74-14.18v14.18H707V728h6.2l11.74,14.17V728Z"/>
        <path class="cls-5" d="M740.67,751.87q-3.28-3.23-3.29-9.16V728h7.53v14.51q0,6.39,5.05,6.39c3.34,0,5-2.13,5-6.39V728h7.41v14.74q0,5.92-3.29,9.16t-9.22,3.23Q744,755.1,740.67,751.87Z"/>
        <path class="cls-5" d="M772.72,733.93h-8.17v-6h23.83v6h-8.13v20.64h-7.53Z"/>
        <path class="cls-5" d="M812.55,748.75v5.82H791.19V728h20.86v5.81H798.64v4.49h11.82v5.62H798.64v4.86Z"/>
        <path class="cls-5" d="M819.8,754.3a15.4,15.4,0,0,1-4.94-2.13l2.47-5.54a16.68,16.68,0,0,0,4.15,1.9,15.77,15.77,0,0,0,4.63.72q4.33,0,4.33-2.17a1.79,1.79,0,0,0-1.23-1.69,22.87,22.87,0,0,0-4-1.16,36.88,36.88,0,0,1-5-1.39,8.46,8.46,0,0,1-3.46-2.37,6.43,6.43,0,0,1-1.44-4.41,7.62,7.62,0,0,1,1.33-4.39,8.87,8.87,0,0,1,4-3.09,16.34,16.34,0,0,1,6.48-1.14,23,23,0,0,1,5.17.58,16.09,16.09,0,0,1,4.48,1.73l-2.32,5.59a15.45,15.45,0,0,0-7.37-2.05,6.25,6.25,0,0,0-3.27.66,2,2,0,0,0-1,1.73,1.72,1.72,0,0,0,1.21,1.6,22.48,22.48,0,0,0,3.92,1.1,35.86,35.86,0,0,1,5,1.39,8.68,8.68,0,0,1,3.46,2.35,6.28,6.28,0,0,1,1.46,4.39,7.44,7.44,0,0,1-1.33,4.33,8.92,8.92,0,0,1-4,3.1,16.15,16.15,0,0,1-6.46,1.16A24.72,24.72,0,0,1,819.8,754.3Z"/>
      </g>
      <g>
        <path class="cls-5" d="M1041,728v26.6h-7.52V733.78h-4.94V728Z"/>
        <path class="cls-5" d="M1050.67,753.47a11,11,0,0,1-4.16-4.77,19.15,19.15,0,0,1,0-14.86,11,11,0,0,1,4.16-4.77,11.39,11.39,0,0,1,6.08-1.63,11.27,11.27,0,0,1,6,1.63,11,11,0,0,1,4.17,4.77,19.15,19.15,0,0,1,0,14.86,11,11,0,0,1-4.17,4.77,11.36,11.36,0,0,1-6,1.63A11.48,11.48,0,0,1,1050.67,753.47Zm9.1-6.37q1.13-1.85,1.12-5.83t-1.12-5.84a3.41,3.41,0,0,0-3-1.84,3.46,3.46,0,0,0-3.06,1.84,15.76,15.76,0,0,0,0,11.67,3.44,3.44,0,0,0,3.06,1.84A3.39,3.39,0,0,0,1059.77,747.1Z"/>
        <path class="cls-5" d="M1107.48,754.57l-.08-14.1L1100.56,752h-3.34l-6.8-11.1v13.72h-7V728h6.2l9.35,15.35,9.12-15.35h6.19l.08,26.6Z"/>
        <path class="cls-5" d="M1119.72,728h7.52v26.6h-7.52Z"/>
        <path class="cls-5" d="M1157.91,728v26.6h-6.2L1140,740.39v14.18h-7.37V728h6.19l11.74,14.17V728Z"/>
        <path class="cls-5" d="M1166.29,751.87q-3.3-3.23-3.29-9.16V728h7.52v14.51q0,6.39,5.06,6.39t5-6.39V728H1188v14.74q0,5.92-3.29,9.16t-9.21,3.23Q1169.57,755.1,1166.29,751.87Z"/>
        <path class="cls-5" d="M1198.34,733.93h-8.17v-6H1214v6h-8.13v20.64h-7.52Z"/>
        <path class="cls-5" d="M1238.16,748.75v5.82h-21.35V728h20.86v5.81h-13.42v4.49h11.82v5.62h-11.82v4.86Z"/>
        <path class="cls-5" d="M1245.42,754.3a15.3,15.3,0,0,1-4.94-2.13l2.47-5.54a16.44,16.44,0,0,0,4.14,1.9,15.83,15.83,0,0,0,4.64.72q4.33,0,4.33-2.17a1.79,1.79,0,0,0-1.24-1.69,22.6,22.6,0,0,0-4-1.16,36.7,36.7,0,0,1-5-1.39,8.33,8.33,0,0,1-3.46-2.37,6.43,6.43,0,0,1-1.44-4.41,7.62,7.62,0,0,1,1.33-4.39,8.76,8.76,0,0,1,4-3.09,16.33,16.33,0,0,1,6.47-1.14,23,23,0,0,1,5.17.58,16.15,16.15,0,0,1,4.49,1.73l-2.32,5.59a15.45,15.45,0,0,0-7.37-2.05,6.2,6.2,0,0,0-3.27.66,2,2,0,0,0-1,1.73,1.73,1.73,0,0,0,1.22,1.6,22.31,22.31,0,0,0,3.91,1.1,35.66,35.66,0,0,1,5,1.39,8.75,8.75,0,0,1,3.46,2.35,6.32,6.32,0,0,1,1.46,4.39,7.44,7.44,0,0,1-1.33,4.33,9,9,0,0,1-4,3.1,16.22,16.22,0,0,1-6.46,1.16A24.72,24.72,0,0,1,1245.42,754.3Z"/>
      </g>
    </g>
    <g>
      <g>
        <path class="cls-6" d="M149.56,285.71a2.69,2.69,0,0,0-3.34,1.81l-10.51,35.34a2.68,2.68,0,1,0,5.14,1.53l10.51-35.34A2.68,2.68,0,0,0,149.56,285.71ZM136.27,310l-1.53,5.14c-2.24-.66-3.5,1.72-3.76,2.61l-7.09,23.82c-.44,1.48-.1,3.82,1.69,4.35l-1.53,5.14c-4.86-1.45-6.54-6.85-5.3-11l7.09-23.82C127.09,312,131.33,308.56,136.27,310Zm16.47,14.22-7.08,23.82c-1.25,4.17-5.6,7.78-10.47,6.33l1.53-5.14c1.79.54,3.35-1.23,3.79-2.72l7.09-23.82c.26-.88.51-3.57-1.73-4.23l1.53-5.14C152.34,314.81,154,320,152.74,324.24Z"/>
        <path class="cls-6" d="M134.27,340.7a2.69,2.69,0,0,0-3.5,1.47l-14,34.12a2.68,2.68,0,0,0,5,2l14-34.12A2.68,2.68,0,0,0,134.27,340.7Zm-15.65,22.87-2,5c-2.16-.89-3.65,1.35-4,2.21l-9.42,23c-.58,1.43-.47,3.79,1.25,4.5l-2,5c-4.7-1.92-5.83-7.46-4.18-11.5l9.42-23C109.29,364.66,113.86,361.62,118.62,363.57Zm15,15.79-9.42,23c-1.65,4-6.34,7.19-11,5.27l2-5c1.73.71,3.46-.9,4-2.33l9.42-23c.35-.85.87-3.5-1.3-4.38l2-5C134.14,369.92,135.27,375.29,133.6,379.36Z"/>
        <path class="cls-6" d="M114.09,394.38a2.69,2.69,0,0,0-3.71.8l-20,31a2.68,2.68,0,1,0,4.5,2.91l20-31A2.68,2.68,0,0,0,114.09,394.38ZM94.51,414,91.6,418.5c-2-1.27-3.84.66-4.34,1.44L73.78,440.81c-.84,1.31-1.17,3.65.4,4.66l-2.9,4.5c-4.27-2.75-4.37-8.41-2-12.06L82.75,417C85.14,413.34,90.19,411.19,94.51,414Zm11.83,18.27L92.86,453.13c-2.37,3.66-7.56,5.9-11.82,3.15l2.9-4.51c1.57,1,3.57-.25,4.41-1.55l13.48-20.87c.5-.78,1.49-3.29-.47-4.55l2.91-4.51C108.59,423.08,108.72,428.57,106.34,432.26Z"/>
        <path class="cls-6" d="M84.42,443.26a2.68,2.68,0,0,0-3.78.35L57.05,472a2.68,2.68,0,0,0,4.12,3.43L84.76,447A2.68,2.68,0,0,0,84.42,443.26Zm-21.8,17.11-3.43,4.12c-1.8-1.5-3.89.2-4.48.91L38.8,484.49c-1,1.19-1.59,3.48-.16,4.67l-3.43,4.13c-3.9-3.26-3.31-8.88-.53-12.23L50.58,462C53.39,458.59,58.66,457.07,62.62,460.37Zm9.53,19.55L56.25,499c-2.78,3.35-8.21,5-12.11,1.7l3.43-4.12c1.44,1.19,3.57.18,4.56-1L68,476.49c.6-.71,1.88-3.08.09-4.57l3.43-4.12C75.5,471.09,75,476.55,72.15,479.92Z"/>
        <path class="cls-6" d="M48.79,488.14a2.68,2.68,0,0,0-3.78-.3L17,511.78a2.68,2.68,0,0,0,3.48,4.08L48.5,491.92A2.68,2.68,0,0,0,48.79,488.14Z"/>
      </g>
      <g>
        <path class="cls-7" d="M177.25,319.77l0-.11a37.12,37.12,0,0,0-72.19-17.29l0,.11L96,300.3l-9.58,40c-12.73,53.14,77.34,75.95,90.34,21.65l9.59-40Zm-61.37-14.7,0-.11a26,26,0,0,1,50.56,12.11l0,.11Z"/>
        <rect class="cls-1" x="108.92" y="296.25" width="4.34" height="10.88" transform="translate(-208.17 339.47) rotate(-76.53)"/>
        <rect class="cls-1" x="170.3" y="310.95" width="4.34" height="10.88" transform="translate(-175.4 410.42) rotate(-76.53)"/>
        <path class="cls-2" d="M149.83,274.92a37.1,37.1,0,0,0-44.74,27.45l0,.11,10.82,2.59,0-.11a26,26,0,0,1,50.56,12.11l0,.11,10.82,2.59,0-.11A37.13,37.13,0,0,0,149.83,274.92Z"/>
        <path class="cls-2" d="M176.74,362c-13,54.31-103.06,31.5-90.34-21.64l9.59-40,90.34,21.64Z"/>
        <path class="cls-1" d="M142.62,342.28a8.69,8.69,0,0,1-8.29,6.66l-4.41,18.42a2.18,2.18,0,0,1-2.62,1.6,2.17,2.17,0,0,1-1.6-2.61l4.41-18.42a8.68,8.68,0,1,1,12.51-5.65Z"/>
        <path class="cls-2" d="M142.62,342.28a8.69,8.69,0,0,1-8.29,6.66l-4.41,18.42a2.18,2.18,0,0,1-2.62,1.6,2.17,2.17,0,0,1-1.6-2.61l4.41-18.42a8.68,8.68,0,1,1,12.51-5.65Z"/>
      </g>
      <g>
        <path class="cls-6" d="M134.13,291.67a2.69,2.69,0,0,1,3.67-1l31.84,18.61a2.68,2.68,0,0,1-2.71,4.63L135.1,295.34A2.69,2.69,0,0,1,134.13,291.67Zm26.33,8.66,4.63,2.71c1.17-2,3.72-1.14,4.52-.67l21.46,12.54c1.33.78,2.68,2.72,1.74,4.34l4.63,2.7c2.56-4.39.09-9.47-3.67-11.67l-21.45-12.54C168.53,295.52,163.05,295.89,160.46,300.33ZM158.15,322l21.46,12.54c3.75,2.2,9.4,1.86,12-2.53l-4.63-2.71c-.94,1.62-3.29,1.39-4.63.61l-21.45-12.54c-.8-.47-2.82-2.25-1.64-4.27l-4.63-2.71C152,314.81,154.36,319.75,158.15,322Z"/>
        <path class="cls-6" d="M183.29,321.18a2.67,2.67,0,0,1,3.39-1.69l35,11.74a2.68,2.68,0,1,1-1.71,5.08l-35-11.74A2.67,2.67,0,0,1,183.29,321.18Zm27.53,3.11L215.9,326c.74-2.21,3.42-1.87,4.3-1.58l23.55,7.92c1.47.49,3.18,2.11,2.59,3.88l5.08,1.71c1.62-4.82-1.83-9.29-6-10.68l-23.56-7.91C217.74,317.94,212.46,319.41,210.82,324.29ZM213,346l23.56,7.91c4.12,1.39,9.58-.1,11.2-4.91l-5.09-1.71c-.59,1.77-2.94,2-4.41,1.54l-23.56-7.91c-.87-.3-3.21-1.64-2.47-3.85l-5.08-1.71C205.48,340.19,208.8,344.55,213,346Z"/>
        <path class="cls-6" d="M237.06,340.31a2.68,2.68,0,0,1,3.21-2l36,8.21a2.68,2.68,0,1,1-1.19,5.22l-36-8.2A2.68,2.68,0,0,1,237.06,340.31Zm27.7.36,5.23,1.2c.52-2.28,3.22-2.2,4.12-2l24.22,5.53c1.51.35,3.38,1.79,3,3.61l5.22,1.2c1.13-5-2.75-9.07-7-10l-24.23-5.53C271,333.67,265.91,335.66,264.76,340.67Zm4.3,21.34,24.22,5.53c4.25,1,9.53-1.06,10.66-6l-5.23-1.19c-.41,1.82-2.72,2.31-4.23,2l-24.23-5.53c-.9-.21-3.36-1.31-2.84-3.59L262.18,352C261,357,264.78,361,269.06,362Z"/>
        <path class="cls-6" d="M292.57,354.69a2.68,2.68,0,0,1,2.79-2.57l36.84,1.46a2.68,2.68,0,1,1-.21,5.36l-36.85-1.46A2.68,2.68,0,0,1,292.57,354.69Zm27.3-4.73,5.36.22c.09-2.34,2.76-2.76,3.68-2.72l24.83,1c1.55.07,3.65,1.15,3.58,3l5.36.21c.2-5.07-4.38-8.4-8.73-8.58l-24.82-1C324.74,341.92,320.08,344.82,319.87,350ZM328,370.14l24.83,1c4.35.17,9.17-2.78,9.37-7.86l-5.36-.21c-.07,1.86-2.25,2.78-3.8,2.71l-24.83-1c-.92,0-3.54-.67-3.45-3l-5.36-.21C319.21,366.71,323.62,370,328,370.14Z"/>
        <path class="cls-6" d="M349.62,358.55a2.68,2.68,0,0,1,2.46-2.89l36.75-3a2.68,2.68,0,1,1,.43,5.34l-36.75,3A2.67,2.67,0,0,1,349.62,358.55Zm26.53-8,5.35-.43c-.19-2.33,2.4-3.07,3.32-3.14l24.77-2c1.54-.13,3.76.69,3.91,2.55l5.35-.43c-.42-5.07-5.35-7.82-9.7-7.47l-24.76,2C380,342,375.73,345.43,376.15,350.56Zm10.51,19.06,24.77-2c4.34-.36,8.77-3.87,8.36-8.93l-5.35.43c.16,1.86-1.9,3-3.44,3.15l-24.77,2c-.92.07-3.6-.24-3.79-2.56l-5.35.43C377.51,367.27,382.29,370,386.66,369.62Z"/>
        <path class="cls-6" d="M406.82,355.24a2.69,2.69,0,0,1,1.93-3.27l35.72-9.17a2.68,2.68,0,0,1,1.33,5.2l-35.71,9.17A2.7,2.7,0,0,1,406.82,355.24Zm24.8-12.37,5.19-1.33c-.58-2.26,1.85-3.43,2.75-3.66l24.07-6.17c1.5-.39,3.82,0,4.28,1.85l5.2-1.33c-1.26-4.92-6.6-6.8-10.81-5.72l-24.07,6.18C434,333.78,430.34,337.89,431.62,342.87Zm13.58,17,24.07-6.18c4.22-1.08,8-5.3,6.73-10.22l-5.2,1.33c.47,1.81-1.36,3.31-2.86,3.69l-24.07,6.18c-.9.23-3.59.38-4.17-1.89l-5.19,1.34C435.79,359.11,441,361,445.2,359.88Z"/>
        <path class="cls-6" d="M463,343.34a2.66,2.66,0,0,1,1.27-3.56L497.64,324a2.68,2.68,0,0,1,2.3,4.85L466.6,344.63A2.69,2.69,0,0,1,463,343.34Zm52.14-24.65a2.7,2.7,0,0,1,1.28-3.58l33.34-15.75a2.68,2.68,0,1,1,2.29,4.85L518.74,320A2.68,2.68,0,0,1,515.17,318.69ZM485,326.52l4.85-2.29c-1-2.11,1.16-3.72,2-4.12l22.47-10.61c1.4-.66,3.76-.68,4.56,1l4.85-2.29c-2.17-4.6-7.77-5.43-11.7-3.57L489.6,315.26C485.63,317.14,482.84,321.86,485,326.52Zm16.55,14.12L524.06,330c3.94-1.87,6.84-6.72,4.67-11.31L523.88,321c.8,1.69-.71,3.5-2.11,4.17L499.3,335.79c-.84.4-3.45,1-4.45-1.06L490,337C492.2,341.68,497.62,342.52,501.59,340.64Z"/>
      </g>
      <g>
        <path class="cls-7" d="M584.45,319.89v-.11a37.11,37.11,0,1,0-74-5.57v.11l-9.31-.7-3.08,41c-4.1,54.48,88.45,62.65,92.63,7l3.09-41Zm-62.93-4.73V315a26,26,0,0,1,51.84,3.9v.12Z"/>
        <rect class="cls-1" x="514.09" y="307.14" width="4.34" height="10.88" transform="translate(165.78 803.9) rotate(-85.69)"/>
        <rect class="cls-1" x="577.02" y="311.88" width="4.34" height="10.88" transform="translate(219.25 871.03) rotate(-85.69)"/>
        <path class="cls-2" d="M550.23,280a37.11,37.11,0,0,0-39.79,34.23v.11l11.09.84V315a26,26,0,0,1,51.84,3.9v.12l11.09.83v-.11A37.12,37.12,0,0,0,550.23,280Z"/>
        <path class="cls-2" d="M590.67,361.62c-4.18,55.68-96.73,47.51-92.63-7l3.09-41,92.63,7Z"/>
        <path class="cls-1" d="M553.85,347.63a8.67,8.67,0,0,1-7.12,7.89l-1.42,18.89a2.17,2.17,0,0,1-.75,1.48,2.11,2.11,0,0,1-1.58.52,2.17,2.17,0,0,1-2-2.32l1.42-18.89a8.69,8.69,0,1,1,11.45-7.57Z"/>
        <path class="cls-2" d="M553.85,347.63a8.67,8.67,0,0,1-7.12,7.89l-1.42,18.89a2.17,2.17,0,0,1-.75,1.48,2.11,2.11,0,0,1-1.58.52,2.17,2.17,0,0,1-2-2.32l1.42-18.89a8.69,8.69,0,1,1,11.45-7.57Z"/>
      </g>
      <g>
        <path class="cls-6" d="M530.21,297.72a2.68,2.68,0,0,1,3.71-.75l30.74,20.37a2.68,2.68,0,1,1-3,4.47L531,301.44A2.69,2.69,0,0,1,530.21,297.72ZM556,307.85l4.47,3c1.29-1.95,3.78-.93,4.56-.41l20.71,13.73c1.29.85,2.52,2.87,1.49,4.42l4.47,3c2.81-4.24.63-9.46-3-11.86L568,305.93C564.33,303.5,558.85,303.56,556,307.85Zm-3.52,21.47,20.71,13.73c3.63,2.41,9.29,2.39,12.1-1.85l-4.48-3c-1,1.55-3.36,1.2-4.65.34l-20.72-13.73c-.77-.51-2.68-2.41-1.39-4.36l-4.47-3C546.74,321.82,548.82,326.9,552.48,329.32Z"/>
        <path class="cls-6" d="M577.62,330a2.68,2.68,0,0,1,3.48-1.5l34.24,13.69a2.68,2.68,0,1,1-2,5l-34.24-13.69A2.68,2.68,0,0,1,577.62,330Zm27.31,4.66,5,2c.87-2.17,3.52-1.68,4.38-1.33l23.07,9.22c1.44.58,3.06,2.3,2.36,4l5,2c1.89-4.71-1.31-9.38-5.35-11l-23.07-9.22C612.2,328.66,606.84,329.83,604.93,334.61Zm.93,21.74,23.07,9.23c4,1.61,9.58.44,11.46-4.28l-5-2c-.69,1.73-3,1.86-4.49,1.29l-23.07-9.23c-.86-.34-3.12-1.81-2.25-4l-5-2C598.71,350.18,601.78,354.72,605.86,356.35Z"/>
        <path class="cls-6" d="M630.23,352.08a2.69,2.69,0,0,1,3.31-1.84L669,360.46a2.68,2.68,0,0,1-1.49,5.15L632.06,355.4A2.68,2.68,0,0,1,630.23,352.08ZM657.87,354l5.15,1.49c.65-2.24,3.33-2,4.22-1.76l23.88,6.88c1.49.43,3.27,2,2.75,3.77l5.16,1.49c1.4-4.88-2.24-9.2-6.42-10.41l-23.88-6.88C664.51,347.36,659.29,349.06,657.87,354ZM661,375.54l23.88,6.89c4.18,1.2,9.57-.51,11-5.39l-5.16-1.49c-.51,1.79-2.85,2.15-4.33,1.73l-23.88-6.89c-.89-.26-3.29-1.49-2.64-3.74l-5.15-1.48C653.22,370.11,656.73,374.33,661,375.54Z"/>
        <path class="cls-6" d="M684.84,369.56a2.69,2.69,0,0,1,2.93-2.41l36.71,3.54A2.68,2.68,0,0,1,724,376l-36.71-3.54A2.68,2.68,0,0,1,684.84,369.56Zm27.53-3.18,5.34.51c.22-2.32,2.9-2.59,3.82-2.5l24.74,2.38c1.54.15,3.58,1.35,3.4,3.21l5.33.51c.49-5.06-3.88-8.64-8.22-9.06l-24.73-2.38C717.68,358.63,712.86,361.25,712.37,366.38Zm7,20.61,24.73,2.38c4.33.42,9.31-2.26,9.8-7.32l-5.34-.51c-.18,1.86-2.41,2.64-3.95,2.49l-24.73-2.38c-.92-.09-3.5-.87-3.28-3.19l-5.34-.52C710.76,383.07,715,386.57,719.36,387Z"/>
        <path class="cls-6" d="M741.58,376.63a2.7,2.7,0,0,1,2.62-2.75l36.86-.91a2.68,2.68,0,0,1,.14,5.36l-36.87.91A2.68,2.68,0,0,1,741.58,376.63Zm26.94-6.48,5.36-.13c0-2.34,2.58-2.93,3.5-2.95l24.84-.62c1.55,0,3.72.9,3.76,2.77l5.37-.13c-.13-5.09-4.91-8.11-9.26-8l-24.84.62C772.86,361.82,768.4,365,768.52,370.15ZM778,389.76l24.84-.61c4.35-.11,9-3.37,8.84-8.45l-5.36.13c.05,1.87-2.07,2.92-3.61,2.95l-24.85.62c-.92,0-3.58-.43-3.63-2.77l-5.37.13C768.94,386.91,773.56,389.88,778,389.76Z"/>
        <path class="cls-6" d="M798.88,376.54a2.68,2.68,0,0,1,2.11-3.15l36.18-7.14a2.68,2.68,0,0,1,1,5.26L802,378.66A2.69,2.69,0,0,1,798.88,376.54Zm25.45-10.94,5.27-1c-.46-2.29,2-3.32,2.94-3.5l24.38-4.81c1.52-.3,3.82.26,4.18,2.09l5.26-1c-1-5-6.2-7.16-10.48-6.32l-24.37,4.81C827.2,356.65,823.34,360.55,824.33,365.6Zm12.61,17.74,24.38-4.81c4.27-.85,8.27-4.84,7.29-9.83l-5.26,1c.36,1.83-1.55,3.22-3.07,3.53l-24.38,4.8c-.91.18-3.6.18-4-2.11l-5.27,1C827.58,382,832.63,384.19,836.94,383.34Z"/>
        <path class="cls-6" d="M855.66,367.84a2.7,2.7,0,0,1,1.48-3.5l34.18-13.85a2.68,2.68,0,1,1,2,5l-34.17,13.86A2.7,2.7,0,0,1,855.66,367.84Zm53.45-21.69a2.69,2.69,0,0,1,1.48-3.49l34.18-13.85a2.68,2.68,0,1,1,2,5l-34.17,13.85A2.68,2.68,0,0,1,909.11,346.15Zm-30.52,6.13,5-2c-.88-2.16,1.37-3.64,2.23-4l23-9.34c1.44-.58,3.8-.46,4.5,1.27l5-2c-1.91-4.71-7.44-5.86-11.48-4.23l-23,9.34C879.71,343,876.66,347.51,878.59,352.28Zm15.73,15,23-9.33c4-1.64,7.21-6.32,5.3-11l-5,2c.7,1.73-.91,3.46-2.34,4l-23,9.33c-.86.35-3.51.85-4.38-1.31l-5,2C884.89,367.81,890.25,369,894.32,367.31Z"/>
        <path class="cls-6" d="M932.8,330.16l4.89-2.19c-1-2.13,1.25-3.69,2.09-4.07l22.68-10.15c1.41-.63,3.78-.6,4.54,1.1l4.89-2.19c-2.07-4.63-7.64-5.58-11.62-3.81L937.59,319C933.58,320.8,930.69,325.46,932.8,330.16Z"/>
        <path class="cls-6" d="M949.05,344.63l22.69-10.16c4-1.77,7-6.56,4.9-11.2l-4.89,2.19c.76,1.71-.79,3.49-2.21,4.12l-22.68,10.15c-.84.38-3.47,1-4.42-1.16l-4.9,2.2C939.64,345.46,945,346.42,949.05,344.63Z"/>
        <path class="cls-6" d="M963.27,324.35a2.68,2.68,0,0,1,.73-3.72l30.63-20.54a2.68,2.68,0,0,1,3,4.46L967,325.09A2.69,2.69,0,0,1,963.27,324.35Z"/>
        <path class="cls-6" d="M988.52,315l8.29,11.68c2.41,3.68,7.76,6,12.2,3.26l-3-4.53c-1.63,1-3.69-.29-4.54-1.59l-8.33-11.74Z"/>
      </g>
      <g>
        <polygon class="cls-6" points="998.65 304.12 1001.51 304.12 1011.72 313.95 980.95 313.95 980.95 321.95 970.74 311.7 970.93 304.3 979.95 304.3 985.33 309.59 998.99 309.59 995.71 306.36 998.65 304.12"/>
        <rect class="cls-6" x="980.95" y="313.96" width="30.77" height="7.99"/>
        <line class="cls-2" x1="970.93" y1="304.3" x2="980.95" y2="313.96"/>
      </g>
      <g>
        <path class="cls-6" d="M988.52,314m-5.44-8.32-.81-1.53,4.88-2.89c-.54-2.61,0-4.92,4.74-7.82s8.52-3.77,11,.1l13.74,21c.85,1.31,1.17,3.65-.46,4.65l3,4.53c4.44-2.71,4.6-8.37,2.19-12l-13.74-21c-2.81-4.3-9.9-7.15-19.08-1.54-5.29,3.23-8.42,9.89-6.27,15l4.88-2.89m0,0,6,9.82"/>
        <path class="cls-6" d="M1006.54,316.55a2.83,2.83,0,0,1,3.92.06l26.53,26.5a2.62,2.62,0,0,1-.06,3.79,2.86,2.86,0,0,1-3.93-.06l-26.53-26.51A2.61,2.61,0,0,1,1006.54,316.55ZM1030.35,332l3.86,3.85c1.73-1.62,4-.09,4.69.58l17.88,17.86c1.11,1.11,1.91,3.34.52,4.64l3.86,3.85c3.78-3.53,2.74-9.09-.39-12.22l-17.88-17.86C1039.73,329.52,1034.18,328.4,1030.35,332ZM1022,352.19l17.87,17.87c3.14,3.12,8.86,4.32,12.63.78l-3.85-3.85c-1.39,1.3-3.68.45-4.79-.66L1026,348.46c-.67-.66-2.18-2.92-.44-4.55l-3.86-3.85C1017.88,343.64,1018.86,349,1022,352.19Z"/>
        <path class="cls-6" d="M1046.83,358.27a2.85,2.85,0,0,1,3.91-.32l29.12,23.83a2.62,2.62,0,0,1,.33,3.78,2.84,2.84,0,0,1-3.91.31l-29.12-23.82A2.62,2.62,0,0,1,1046.83,358.27Zm25.28,13.07,4.23,3.46c1.57-1.78,4-.48,4.74.12L1100.7,391c1.22,1,2.25,3.15,1,4.57l4.24,3.47c3.39-3.88,1.78-9.31-1.65-12.13l-19.63-16.05C1081.19,368,1075.55,367.41,1072.11,371.34Zm-6.21,20.91,19.63,16.06c3.43,2.81,9.25,3.45,12.64-.43l-4.23-3.47c-1.25,1.43-3.61.8-4.83-.2l-19.63-16c-.73-.6-2.46-2.71-.9-4.49l-4.24-3.46C1060.9,384.13,1062.43,389.42,1065.9,392.25Z"/>
        <path class="cls-6" d="M1091,396.57a2.84,2.84,0,0,1,3.79-1l33.15,18.25a2.64,2.64,0,0,1,1,3.66,2.82,2.82,0,0,1-3.78,1L1092,400.23A2.64,2.64,0,0,1,1091,396.57Zm27.34,8.37,4.82,2.65c1.19-2,3.84-1.18,4.67-.72l22.34,12.3c1.39.76,2.81,2.69,1.85,4.31l4.82,2.65c2.61-4.41,0-9.47-3.92-11.62l-22.34-12.3C1126.61,400,1121,400.46,1118.32,404.94Zm-2.13,21.66,22.33,12.3c3.92,2.15,9.75,1.74,12.36-2.67l-4.83-2.66c-1,1.63-3.39,1.43-4.78.67l-22.34-12.3c-.83-.46-2.94-2.23-1.74-4.26l-4.82-2.65C1109.73,419.5,1112.24,424.42,1116.19,426.6Z"/>
        <path class="cls-6" d="M1141.56,426.24a2.8,2.8,0,0,1,3.63-1.43l35.18,14.25a2.65,2.65,0,0,1,1.49,3.51,2.8,2.8,0,0,1-3.63,1.43L1143,429.75A2.64,2.64,0,0,1,1141.56,426.24Zm28.17,5.12,5.12,2.07c.93-2.15,3.66-1.62,4.55-1.26l23.71,9.6c1.47.6,3.12,2.35,2.38,4.07l5.11,2.07c2-4.69-1.19-9.4-5.35-11.09l-23.71-9.6C1177.35,425.53,1171.79,426.61,1169.73,431.36Zm.59,21.75,23.71,9.6c4.16,1.68,9.9.6,11.93-4.08l-5.12-2.08c-.75,1.73-3.19,1.82-4.66,1.22l-23.72-9.61c-.88-.35-3.19-1.86-2.26-4l-5.12-2.08C1163,446.82,1166.13,451.42,1170.32,453.11Z"/>
        <path class="cls-6" d="M1195.68,449.61a2.78,2.78,0,0,1,3.32-2l37.18,8.3a2.68,2.68,0,0,1,2.08,3.21,2.77,2.77,0,0,1-3.33,2l-37.17-8.29A2.67,2.67,0,0,1,1195.68,449.61Zm28.66.44,5.41,1.2c.54-2.28,3.33-2.19,4.26-2l25,5.58c1.56.35,3.49,1.8,3.06,3.62l5.4,1.21c1.18-4.95-2.82-9.07-7.21-10.05l-25-5.59C1230.83,443.05,1225.54,445,1224.34,450.05Zm4.39,21.34,25,5.59c4.39,1,9.86-1,11-6l-5.41-1.21c-.43,1.82-2.82,2.31-4.38,2l-25-5.59c-.94-.2-3.48-1.31-2.94-3.59l-5.4-1.2C1220.44,466.38,1224.3,470.4,1228.73,471.39Z"/>
        <path class="cls-6" d="M1253,464.91a2.73,2.73,0,0,1,2.87-2.58l38.13,1.35a2.68,2.68,0,1,1-.2,5.36l-38.13-1.35A2.72,2.72,0,0,1,1253,464.91ZM1312.6,467a2.75,2.75,0,0,1,2.88-2.58l38.12,1.35a2.68,2.68,0,1,1-.2,5.36l-38.12-1.35A2.73,2.73,0,0,1,1312.6,467Zm-31.4-6.9,5.54.19c.09-2.33,2.84-2.76,3.8-2.73l25.69.91c1.6.06,3.78,1.13,3.71,3l5.54.19c.2-5.08-4.54-8.39-9-8.55l-25.7-.9C1286.2,452,1281.39,455,1281.2,460.1Zm8.48,20.15,25.69.91c4.51.16,9.48-2.81,9.68-7.89l-5.55-.19c-.07,1.86-2.32,2.78-3.92,2.72l-25.7-.91c-1,0-3.67-.65-3.58-3l-5.54-.19C1280.56,476.85,1285.14,480.09,1289.68,480.25Z"/>
        <path class="cls-6" d="M1341.73,462.1h5.55c0-2.34,2.74-2.86,3.69-2.86l25.71,0c1.6,0,3.82,1,3.82,2.86h5.55c0-5.08-4.86-8.23-9.36-8.23l-25.71,0C1346.44,453.88,1341.73,457,1341.73,462.1Z"/>
        <path class="cls-6" d="M1351,482l25.71,0c4.51,0,9.37-3.13,9.38-8.21h-5.55c0,1.87-2.22,2.86-3.82,2.86l-25.71,0c-1,0-3.7-.53-3.69-2.87h-5.55C1341.71,478.87,1346.41,482,1351,482Z"/>
        <path class="cls-6" d="M1373,469.27a2.68,2.68,0,0,1,2.26-3.09l37.61-6.21a2.76,2.76,0,0,1,3.2,2.2,2.69,2.69,0,0,1-2.26,3.09l-37.61,6.21A2.77,2.77,0,0,1,1373,469.27Z"/>
      </g>
    </g>
  </g>
</svg>
