<svg id="work" xmlns="http://www.w3.org/2000/svg" viewBox="0 0 1422 870">
  <defs>
    <style>
      .cls-1, .cls-8 {
        fill: #ff0083;
      }

      .cls-1, .cls-10, .cls-4, .cls-6, .cls-7 {
        stroke: #4a4a4a;
      }

      .cls-1, .cls-10, .cls-11, .cls-4, .cls-5, .cls-6, .cls-7 {
        stroke-linecap: round;
        stroke-linejoin: round;
      }

      .cls-1, .cls-11, .cls-4, .cls-7 {
        stroke-width: 2.5px;
      }

      .cls-2, .cls-7 {
        fill: #fff;
      }

      .cls-3 {
        fill: #ebebeb;
      }

      .cls-10, .cls-11, .cls-4, .cls-5, .cls-6, .cls-9 {
        fill: none;
      }

      .cls-11, .cls-5 {
        stroke: #494949;
      }

      .cls-5 {
        stroke-width: 2px;
      }

      .cls-6 {
        stroke-width: 4px;
      }

      .cls-10 {
        stroke-width: 1.5px;
      }

      .cls-12 {
        fill: #f2f2f2;
      }
    </style>
  </defs>
  <title>4,1</title>
  <g>
    <g>
      <path class="cls-1" d="M546.5,774.35l52.42,26.83s8.79-5.39,11.67-7.27a47.91,47.91,0,0,0,12.6-12.5s-5.69,1.25-13.36-2.34c-9.73-4.56-38.66-18.72-38.66-18.72Z"/>
      <path class="cls-2" d="M578.17,785.84l-3-1.62c.39-.28.77-.57,1.17-.84.13-.09.1-.14,0-.23a6.67,6.67,0,0,1-2-2.07,2.37,2.37,0,0,1-.34-1.69,2.89,2.89,0,0,1,1.24-1.76c.11-.09.17-.08.31,0l2.86,1.54c.15.09.17.14.07.24a1.29,1.29,0,0,0-.32,1.63,2.33,2.33,0,0,0,.58.66l.15-.11,1.66-1.19,1.47-1.06c.09-.06.1-.11,0-.18s-.33-.27-.48-.41a8.08,8.08,0,0,1-1.74-1.84,1.75,1.75,0,0,1-.14-1.68,3,3,0,0,1,1-1.16,6.36,6.36,0,0,1,3.59-1.25,10.49,10.49,0,0,1,4.36.64c.35.12.69.26,1,.39l1.69-1.22,3,1.63-1.65,1.18c-.1.07-.1.12,0,.19a6.64,6.64,0,0,1,1.2,1.16,3.3,3.3,0,0,1,.79,1.78,2.54,2.54,0,0,1-.92,2l-.39.33-.07,0-3.11-1.67c-.1-.06-.07-.09,0-.14a1.12,1.12,0,0,0,.35-1.45,2.83,2.83,0,0,0-.26-.42l-3.16,2.28.13.11a11.21,11.21,0,0,1,2.26,2.18,1.77,1.77,0,0,1,.28,1.93c-.65,1.21-2,2-4,2.3a10,10,0,0,1-3.35-.14,16.06,16.06,0,0,1-2.73-.85.25.25,0,0,0-.29,0Zm3.48-2.49.24.09a4.18,4.18,0,0,0,2.63.16c.64-.21,1.05-.54,1-1a1.48,1.48,0,0,0-.41-.75l-.55-.56Zm5.7-7.92a7.1,7.1,0,0,0-1.57-.34c-1.16-.12-2.09.48-2.12,1s.47.91.92,1.33Z"/>
    </g>
    <g>
      <path class="cls-2" d="M691.93,461.42,498.67,328.59l-32.47,27a2.13,2.13,0,0,1-3.5-1.64V330.16a11,11,0,0,0-2.91-7.48H289.6a2.09,2.09,0,0,0-1.18.37L88.92,461.42a2.13,2.13,0,0,0-.93,1.7l1,17a2.14,2.14,0,0,0,2.16,2.06h22.77l.52,208.49c0,.55-2.63,1.08-2.24,1.47s3.76.61,4.31.61H310.3v-.52h4.14v.52h78.71v-.52h4.14v.52H447v-.52h4.14v.52h77.33v-.52h4.14v.52H583.7v-.52h4.14v.52h77.33v-.52h4.14v-1.55l1-21.49a2,2,0,0,0-2-2.06h-7.68l0-163.41H668l1-22.24H691.3c1.15,0,1.15,1.14,1.15,0l.33-18.35A2,2,0,0,0,691.93,461.42Zm-23,42.29h-1l-.05,1.25C667.93,506.1,670.1,503.71,669,503.71Z"/>
      <g>
        <path class="cls-3" d="M291.38,482.21c-.38,0-1.15-.31-1.15-.69l-175.72-.7a.66.66,0,0,1,.66.7V503l-1.39,165.25v22.22H291.62Z"/>
        <path class="cls-3" d="M347.08,482.21H315.14V503h7.72a.63.63,0,0,1,.61.7V667.6a.63.63,0,0,1-.61.69h-9.11v22.22h33.33Z"/>
        <path class="cls-3" d="M484.56,482.21H452.62V503h7.72a.63.63,0,0,1,.61.7V667.6a.63.63,0,0,1-.61.69h-9.11v22.22h33.33Z"/>
        <path class="cls-3" d="M622,482.21H590.1V503h7.72a.63.63,0,0,1,.61.7V667.6a.62.62,0,0,1-.61.69h-9.11v22.22H622Z"/>
        <polygon class="cls-3" points="466.23 375.2 360.13 448.88 578.99 448.88 466.23 375.2"/>
        <rect class="cls-3" x="589.14" y="480.13" width="1.39" height="0.69"/>
        <rect class="cls-3" x="531.86" y="480.13" width="1.39" height="0.69"/>
        <rect class="cls-3" x="451.31" y="480.13" width="1.39" height="0.69"/>
        <rect class="cls-3" x="367.99" y="480.13" width="1.39" height="0.69"/>
        <rect class="cls-3" x="313.83" y="480.13" width="1.39" height="0.69"/>
      </g>
      <g>
        <g>
          <g>
            <polyline class="cls-4" points="484.56 691.9 669.25 691.9 669.25 668.29 659.53 668.29 659.53 504.43 667.87 504.43 667.87 482.21 692.86 482.21 692.86 461.5 500.67 328.93"/>
            <polyline class="cls-4" points="531.77 691.9 531.77 668.29 522.05 668.29 522.05 504.43 531.77 504.43 531.77 482.21"/>
            <polyline class="cls-4" points="449.84 691.9 449.84 668.29 459.56 668.29 459.56 504.43 451.23 504.43 451.23 482.21"/>
            <polyline class="cls-4" points="589.84 691.9 589.84 668.29 599.56 668.29 599.56 504.43 591.23 504.43 591.23 482.21"/>
            <polyline class="cls-4" points="270.44 336.12 88.78 461.5 88.78 482.21 113.78 482.21 113.78 675.24"/>
            <line class="cls-4" x1="312.36" y1="691.9" x2="113.78" y2="691.9"/>
            <polyline class="cls-4" points="423.71 404.3 491.21 357.57 632.73 450.27 531.86 450.27"/>
            <line class="cls-4" x1="445.4" y1="482.21" x2="667.87" y2="482.21"/>
          </g>
          <line class="cls-4" x1="92.95" y1="482.21" x2="205.43" y2="482.21"/>
          <line class="cls-4" x1="756.07" y1="691.89" x2="55.07" y2="691.89"/>
        </g>
        <g>
          <g>
            <g>
              <polyline class="cls-5" points="484.56 691.9 669.25 691.9 669.25 668.29 659.53 668.29 659.53 504.43 667.87 504.43 667.87 482.21 692.86 482.21 692.86 461.5 500.67 328.93"/>
              <polyline class="cls-5" points="484.56 691.9 669.25 691.9 669.25 668.29 659.53 668.29 659.53 504.43 667.87 504.43 667.87 482.21 692.86 482.21 692.86 461.5 500.67 328.93"/>
            </g>
            <g>
              <polyline class="cls-5" points="531.77 691.9 531.77 668.29 522.05 668.29 522.05 504.43 531.77 504.43 531.77 482.21"/>
              <polyline class="cls-5" points="531.77 691.9 531.77 668.29 522.05 668.29 522.05 504.43 531.77 504.43 531.77 482.21"/>
            </g>
            <g>
              <polyline class="cls-5" points="449.84 691.9 449.84 668.29 459.56 668.29 459.56 504.43 451.23 504.43 451.23 482.21"/>
              <polyline class="cls-5" points="449.84 691.9 449.84 668.29 459.56 668.29 459.56 504.43 451.23 504.43 451.23 482.21"/>
            </g>
            <g>
              <polyline class="cls-5" points="589.84 691.9 589.84 668.29 599.56 668.29 599.56 504.43 591.23 504.43 591.23 482.21"/>
              <polyline class="cls-5" points="589.84 691.9 589.84 668.29 599.56 668.29 599.56 504.43 591.23 504.43 591.23 482.21"/>
            </g>
            <g>
              <polyline class="cls-5" points="270.44 336.12 88.78 461.5 88.78 482.21 113.78 482.21 113.78 675.24"/>
              <polyline class="cls-5" points="270.44 336.12 88.78 461.5 88.78 482.21 113.78 482.21 113.78 675.24"/>
            </g>
            <g>
              <line class="cls-5" x1="312.36" y1="691.9" x2="113.78" y2="691.9"/>
              <line class="cls-5" x1="312.36" y1="691.9" x2="113.78" y2="691.9"/>
            </g>
            <g>
              <polyline class="cls-5" points="423.71 404.3 491.21 357.57 632.73 450.27 531.86 450.27"/>
              <polyline class="cls-5" points="423.71 404.3 491.21 357.57 632.73 450.27 531.86 450.27"/>
            </g>
            <g>
              <line class="cls-5" x1="445.4" y1="482.21" x2="667.87" y2="482.21"/>
              <line class="cls-5" x1="445.4" y1="482.21" x2="667.87" y2="482.21"/>
            </g>
          </g>
          <g>
            <line class="cls-5" x1="92.95" y1="482.21" x2="205.43" y2="482.21"/>
            <line class="cls-5" x1="92.95" y1="482.21" x2="205.43" y2="482.21"/>
          </g>
          <g>
            <line class="cls-5" x1="756.07" y1="691.89" x2="55.07" y2="691.89"/>
            <line class="cls-5" x1="756.07" y1="691.89" x2="55.07" y2="691.89"/>
          </g>
        </g>
      </g>
    </g>
    <line class="cls-6" x1="130.57" y1="749.23" x2="1318.07" y2="749.23"/>
    <line class="cls-6" x1="1327.74" y1="749.23" x2="1366.74" y2="749.23"/>
    <line class="cls-6" x1="120.9" y1="749.23" x2="108.07" y2="749.23"/>
    <g>
      <path class="cls-2" d="M534.56,783.83c1.08-.22,1.37-1,.64-1.74l-17.67-17.81a4,4,0,0,0-3.28-.94l-34.81,9.5c-1.08.22-1.37,1-.64,1.73l16.67,17.82a4,4,0,0,0,3.28.94Z"/>
      <path class="cls-4" d="M534.56,783.83c1.08-.22,1.37-1,.64-1.74l-17.67-17.81a4,4,0,0,0-3.28-.94l-34.81,9.5c-1.08.22-1.37,1-.64,1.73l16.67,17.82a4,4,0,0,0,3.28.94Z"/>
    </g>
    <g>
      <path class="cls-2" d="M520.06,778.14c1-.47,1.09-1.3.2-1.83l-21.45-13a4,4,0,0,0-3.41-.12l-30.52,14.36c-1,.47-1.08,1.3-.2,1.84l21.45,13a4,4,0,0,0,3.42.12Z"/>
      <path class="cls-4" d="M520.06,778.14c1-.47,1.09-1.3.2-1.83l-21.45-13a4,4,0,0,0-3.41-.12l-30.52,14.36c-1,.47-1.08,1.3-.2,1.84l21.45,13a4,4,0,0,0,3.42.12Z"/>
    </g>
    <g>
      <path class="cls-2" d="M509.13,776.11c.17-.08.18-.23,0-.32l-3.76-2.3a.71.71,0,0,0-.59,0L499.47,776c-.17.08-.18.23,0,.32l3.76,2.3a.71.71,0,0,0,.59,0Z"/>
      <path class="cls-4" d="M509.13,776.11c.17-.08.18-.23,0-.32l-3.76-2.3a.71.71,0,0,0-.59,0L499.47,776c-.17.08-.18.23,0,.32l3.76,2.3a.71.71,0,0,0,.59,0Z"/>
    </g>
    <g>
      <path class="cls-4" d="M1100.6,103.7h-283a21.82,21.82,0,0,0-21.83,21.82V248.88A21.82,21.82,0,0,0,817.6,270.7h87.25a58,58,0,0,1,29.89-8.23h10.34a48.9,48.9,0,0,1,28,8.23h38.79a4.05,4.05,0,0,1,4,4.06v46.48a1.25,1.25,0,0,0,2.17.84L1063.71,272a4,4,0,0,1,3-1.33h33.89a21.82,21.82,0,0,0,21.82-21.82V125.52A21.82,21.82,0,0,0,1100.6,103.7Z"/>
      <g>
        <path class="cls-2" d="M1026.62,658.52,924,579.1l23.68-35.45,142,20.2c-1.48,15.32,2.85,39.68,40.33,62.58a5.73,5.73,0,0,1,2.25,7.2c-5.37,12.08-8.42,32.4-8.42,42.72a5,5,0,0,1-5,5h-38.16"/>
        <polygon class="cls-3" points="947.5 542.1 1011 553.1 1011 645.6 923.95 579.1 947.5 542.1"/>
        <path class="cls-4" d="M1026.62,658.52,924,579.1l23.68-35.45,142,20.2c-1.48,15.32,2.85,39.68,40.33,62.58a5.73,5.73,0,0,1,2.25,7.2c-5.37,12.08-8.42,32.4-8.42,42.72a5,5,0,0,1-5,5h-38.16"/>
        <circle class="cls-7" cx="1050.69" cy="676.35" r="29.5"/>
        <line class="cls-4" x1="1045.45" y1="686.6" x2="1029.2" y2="723.85"/>
        <line class="cls-4" x1="1018.2" y1="723.85" x2="1039.7" y2="723.85"/>
        <line class="cls-4" x1="1089.62" y1="563.85" x2="1101.45" y2="530.6"/>
        <path class="cls-7" d="M1077.12,530.6h41.5l3-1.24a2.34,2.34,0,0,0-.89-4.51,67.05,67.05,0,0,0-9.91.74Z"/>
        <path class="cls-4" d="M1129.93,612.17a82.39,82.39,0,0,0-6.94,9.36"/>
        <path class="cls-4" d="M1161.13,589.34a83.51,83.51,0,1,1-51,82"/>
        <path class="cls-4" d="M944.75,628.77a83.49,83.49,0,1,1-35.18-37.56"/>
        <polyline class="cls-4" points="962.62 515.6 956.86 515.6 939.2 543.65 905.25 607.5 962.62 519.69"/>
        <path class="cls-7" d="M1121.29,599s0,7.54,17.33,20.54c18.63-28.43,60-74,60-74l-10.33-1.87C1153.29,557.85,1128.29,590.44,1121.29,599Z"/>
        <polyline class="cls-4" points="1027.28 620.25 1038.45 595.34 1045.49 612.98 1062.1 574.78"/>
        <g>
          <g>
            <g>
              <path class="cls-3" d="M1191.9,661.4a2.18,2.18,0,0,1,2.7,2.11v27.85a1.92,1.92,0,0,1-2.45,1.87L1173.88,688V665.89Z"/>
              <path class="cls-2" d="M1173.88,672.29v9.35c0,9.77-7.92,13.4-17.69,13.4H1090a17.68,17.68,0,0,1-17.68-17.69h0A17.68,17.68,0,0,1,1090,659.67h66.18C1166,659.67,1173.88,662.52,1173.88,672.29Z"/>
            </g>
            <path class="cls-7" d="M1191.9,661.4a2.18,2.18,0,0,1,2.7,2.11v27.85a1.92,1.92,0,0,1-2.45,1.87L1173.88,688V665.89Z"/>
            <path class="cls-4" d="M1173.88,672.29v9.35c0,9.77-7.92,13.4-17.69,13.4H1090a17.68,17.68,0,0,1-17.68-17.69h0A17.68,17.68,0,0,1,1090,659.67h66.18C1166,659.67,1173.88,662.52,1173.88,672.29Z"/>
          </g>
          <g>
            <g>
              <path class="cls-5" d="M1191.9,661.4a2.18,2.18,0,0,1,2.7,2.11v27.85a1.92,1.92,0,0,1-2.45,1.87L1173.88,688V665.89Z"/>
              <path class="cls-5" d="M1173.88,672.29v9.35c0,9.77-7.92,13.4-17.69,13.4H1090a17.68,17.68,0,0,1-17.68-17.69h0A17.68,17.68,0,0,1,1090,659.67h66.18C1166,659.67,1173.88,662.52,1173.88,672.29Z"/>
            </g>
            <path class="cls-5" d="M1191.9,661.4a2.18,2.18,0,0,1,2.7,2.11v27.85a1.92,1.92,0,0,1-2.45,1.87L1173.88,688V665.89Z"/>
            <g>
              <path class="cls-5" d="M1173.88,672.29v9.35c0,9.77-7.92,13.4-17.69,13.4H1090a17.68,17.68,0,0,1-17.68-17.69h0A17.68,17.68,0,0,1,1090,659.67h66.18C1166,659.67,1173.88,662.52,1173.88,672.29Z"/>
              <path class="cls-5" d="M1173.88,672.29v9.35c0,9.77-7.92,13.4-17.69,13.4H1090a17.68,17.68,0,0,1-17.68-17.69h0A17.68,17.68,0,0,1,1090,659.67h66.18C1166,659.67,1173.88,662.52,1173.88,672.29Z"/>
            </g>
          </g>
        </g>
      </g>
      <g>
        <g>
          <g>
            <path class="cls-3" d="M944.79,548.23h44.35a3.08,3.08,0,0,0,2.94-3.94l-8.74-28.84s7.73-12.39,7.73-21.43V386.08c0-15.32-10.28-27.85-25.59-27.85h-3.12c-3.31,0-14.89,2.61-19.05,12.54l-1.63,4.4Z"/>
            <path class="cls-6" d="M981.93,515.84c6.32-5.25,9.14-13.16,9.14-21.82V386.08c0-15.32-10.28-26.85-25.59-26.85h-3.12c-3.31,0-14.89,2.1-19.05,12l-2.26,3.81"/>
            <path class="cls-6" d="M944.8,548.38h44.34a3,3,0,0,0,2.94-3.85l-8.27-28.69H949.14"/>
          </g>
          <g>
            <path class="cls-3" d="M982.79,548.23h44.35a3.08,3.08,0,0,0,2.94-3.94l-8.74-28.84s7.73-12.39,7.73-21.43V386.08c0-15.32-10.28-27.85-25.59-27.85h-3.12c-3.31,0-14.89,2.61-19.05,12.54l-1.63,4.4Z"/>
            <path class="cls-6" d="M1019.93,515.84c6.32-5.25,9.14-13.16,9.14-21.82V386.08c0-15.32-10.28-26.85-25.59-26.85h-3.12c-3.31,0-14.89,2.1-19.05,12l-2.26,3.81"/>
            <path class="cls-6" d="M982.8,548.38h44.34a3,3,0,0,0,2.94-3.85l-8.27-28.69H987.14"/>
          </g>
        </g>
        <g>
          <g>
            <path class="cls-8" d="M826.32,489.29a3.75,3.75,0,0,1-1,5.18l-21.15,12.14a3.75,3.75,0,0,1-5-1.75l-29.39-51.17a3.75,3.75,0,0,1,1-5.18L792,436.37a3.76,3.76,0,0,1,5,1.75Z"/>
            <path class="cls-6" d="M826.32,489.29a3.75,3.75,0,0,1-1,5.18l-21.15,12.14a3.75,3.75,0,0,1-5-1.75l-29.39-51.17a3.75,3.75,0,0,1,1-5.18L792,436.37a3.76,3.76,0,0,1,5,1.75Z"/>
            <path class="cls-2" d="M806.36,477.12,804,478.49l-1.61-2.77-1.51.88c.55.93,1.08,1.84,1.61,2.76l-2.37,1.37c-.54-.92-1.08-1.84-1.62-2.79l-5,2.9c-.46-.79-.91-1.56-1.36-2.35l.2-.12c.31-.18.63-.36.93-.56a.88.88,0,0,0,.33-1.31c-.13-.25-.26-.49-.4-.73q-2.5-4.32-5-8.63c-.22-.39-.46-.77-.7-1.15a.92.92,0,0,0-1.32-.38l-1,.53-.19.1c-.46-.79-.91-1.56-1.38-2.35l5-2.9L787,458.22l2.37-1.36c.54.91,1.08,1.83,1.61,2.76l1.51-.87c-.54-.94-1.07-1.85-1.61-2.77.8-.45,1.59-.91,2.38-1.37,0,.07.09.14.13.22.47.8,1,1.61,1.41,2.42.1.19.2.26.4.15a3.07,3.07,0,0,1,.5-.2,5.82,5.82,0,0,1,2.86-.32,4.24,4.24,0,0,1,3,1.91,4.16,4.16,0,0,1,.69,2.49,5.13,5.13,0,0,1-1.27,3.13,1.56,1.56,0,0,0-.16.2.66.66,0,0,0,.25,0,6.86,6.86,0,0,1,2.21-.29,4.25,4.25,0,0,1,3,1.38,4.84,4.84,0,0,1,.93,5.45,7,7,0,0,1-2.34,2.9c-.16.12-.17.2-.07.36C805.31,475.3,805.83,476.21,806.36,477.12Zm-11.14-7.42a.76.76,0,0,0,.07.13c.69,1.19,1.38,2.38,2.08,3.57a7.52,7.52,0,0,0,.5.75.39.39,0,0,0,.54.15c.59-.31,1.18-.61,1.75-.95s1-.62,1.43-1a2.72,2.72,0,0,0,1-1.43,2.78,2.78,0,0,0-.26-2.2,2.4,2.4,0,0,0-2.56-1.31,5.37,5.37,0,0,0-1.78.65c-.89.48-1.76,1-2.64,1.5Zm-1.46-2.51.16-.08,1.74-1a8.74,8.74,0,0,0,1.85-1.34,2.36,2.36,0,0,0,.75-1.54,2.2,2.2,0,0,0-2.88-2.26,6.74,6.74,0,0,0-1.18.5c-.91.49-1.8,1-2.69,1.52a.61.61,0,0,0-.14.1Z"/>
          </g>
          <path class="cls-2" d="M873.57,750.48v-9.13a13.13,13.13,0,0,1,13.13-13.12h8.37v-191h-4.5v-45.5l-63.05-5a3.2,3.2,0,0,1-2.95-3.19v-2.46l-17.7-9.49a4.57,4.57,0,0,1-2.32-4.89l.49-2.54a3.34,3.34,0,0,1,3.33-2.7l16.2.29h31A11.75,11.75,0,0,0,867.32,450V402a31.75,31.75,0,0,1,31.75-31.75h74A31.74,31.74,0,0,1,1004.82,402V525.23h-2.5l1.5,8.5A16.09,16.09,0,0,1,994.57,547V749.23Z"/>
          <rect class="cls-3" x="895.07" y="537.23" width="9.57" height="191"/>
          <rect class="cls-3" x="944.8" y="560.35" width="9.57" height="167.87"/>
          <polygon class="cls-3" points="880.93 490.73 889.57 491.73 889.57 416.73 880.93 423.56 880.93 490.73"/>
          <g>
            <path class="cls-6" d="M992.27,309.51c0-27.61-19.57-47-47.19-47H934.74c-27.61,0-52.81,19.43-52.81,47V362h0c0,16.32,25.13,30.54,55.6,30.54S992.27,378.3,992.27,362h0Z"/>
            <g>
              <path class="cls-2" d="M970.6,356.49c0,13-11.39,24.21-24.39,24.21H930.39c-13,0-22.85-11.2-22.85-24.21V322.11a18.63,18.63,0,0,1,18.63-18.63H952a18.63,18.63,0,0,1,18.63,18.63Z"/>
              <path class="cls-6" d="M970.6,332.42v24.07c0,13-11.39,24.2-24.39,24.2H930.39c-13,0-22.85-11.19-22.85-24.2v-28"/>
            </g>
            <g>
              <g>
                <g>
                  <path class="cls-4" d="M916.2,338a6.57,6.57,0,0,1,13.14,0"/>
                  <path class="cls-4" d="M941.82,338A6.57,6.57,0,0,1,955,338"/>
                </g>
                <path class="cls-4" d="M923.92,355.57c13.36,12.5,24.79,0,24.79,0"/>
              </g>
              <g>
                <g>
                  <path class="cls-5" d="M916.2,338a6.57,6.57,0,0,1,13.14,0"/>
                  <path class="cls-5" d="M941.82,338A6.57,6.57,0,0,1,955,338"/>
                </g>
                <path class="cls-5" d="M923.92,355.57c13.36,12.5,24.79,0,24.79,0"/>
              </g>
            </g>
            <g>
              <path class="cls-3" d="M947.73,279.32c-11.17-1.64-18.6,1-28.57,6.9-7.73,4.59-14.73-3.93-14.73-3.93-5.58,15.44-.83,45.11,3.11,50.24v-9.21c0-6.48,3.9-16.27,9.65-15.1,19.44,3.94,22-10,41.25-.9,5,2.37,6.44,11.24,7.68,18.51.55,3.27,3.79,9.23,3.79,9.23l0,.74c4-5.91,5.4-23.93,3.64-33.34C971.67,292.6,964.6,281.8,947.73,279.32Z"/>
              <path class="cls-6" d="M947.73,279.32c-11.17-1.64-18.6,1-28.57,6.9-7.73,4.59-14.73-3.93-14.73-3.93-5.58,15.44-.83,45.11,3.11,50.24v-9.21c0-6.48,3.9-16.27,9.65-15.1,19.44,3.94,22-10,41.25-.9,5,2.37,6.44,11.24,7.68,18.51.55,3.27,3.79,9.23,3.79,9.23l0,.74c4-5.91,5.4-23.93,3.64-33.34C971.67,292.6,964.6,281.8,947.73,279.32Z"/>
            </g>
          </g>
          <path class="cls-6" d="M910.07,370.23H899.32a32.25,32.25,0,0,0-32.25,32.25v48.1A10.39,10.39,0,0,1,856.93,461l-32.36.76v21.33a4,4,0,0,0,3.66,3.95l61.34,4.72"/>
          <polygon class="cls-3" points="966.04 536.48 977.57 536.48 977.57 525.23 974.27 525.23 974.27 417.73 966.04 423.56 966.04 536.48"/>
          <path class="cls-6" d="M966,370.23h7.78a32.25,32.25,0,0,1,32.25,32.25V525.23h-31.8V417.73"/>
          <polyline class="cls-4" points="890.57 416.73 890.57 537.23 977.57 537.23"/>
          <path class="cls-4" d="M977.57,525.23v9.52a13,13,0,0,0,13,13,12.53,12.53,0,0,0,12.52-12.53v-10"/>
          <path class="cls-4" d="M824.57,481.06,806,471.19a3.94,3.94,0,0,1-2.06-4l.32-2.35a4,4,0,0,1,3.92-3.41h16.38"/>
          <g>
            <path class="cls-2" d="M792.84,503.63a3.48,3.48,0,0,0,4.85.72l1.2-.89a3.48,3.48,0,0,0,1.05-4.35l-6.43-13a3.48,3.48,0,0,0-4.79-1.5l-3.64,2a3.48,3.48,0,0,0-1.11,5.13Z"/>
            <path class="cls-4" d="M784,491.77a3.48,3.48,0,0,1,1.11-5.13l3.64-2a3.48,3.48,0,0,1,4.79,1.5l6.43,13a3.48,3.48,0,0,1-1.05,4.35l-1.2.89a3.48,3.48,0,0,1-4.85-.72Z"/>
          </g>
          <line class="cls-6" x1="895.07" y1="538.23" x2="895.07" y2="728.23"/>
          <line class="cls-4" x1="944.07" y1="558.73" x2="944.07" y2="728.23"/>
          <line class="cls-6" x1="994.57" y1="728.23" x2="994.57" y2="547.73"/>
          <path class="cls-6" d="M873.57,749.23V742a13.75,13.75,0,0,1,13.75-13.75H994.57v21Z"/>
          <path class="cls-4" d="M932.07,749.23V741.8a13.57,13.57,0,0,1,13.57-13.57h48.93"/>
        </g>
      </g>
      <g>
        <path class="cls-8" d="M887.93,154v22.4h-5.22l-9.89-11.94V176.4h-6.2V154h5.21l9.89,11.93V154Z"/>
        <path class="cls-8" d="M907.42,172h-9.48l-1.76,4.36h-6.46l9.89-22.4h6.24l9.92,22.4h-6.59Zm-1.86-4.67-2.88-7.17-2.88,7.17Z"/>
        <path class="cls-8" d="M938.87,154v22.4h-6.33v-8.74H923.9v8.74h-6.34V154h6.34v8.41h8.64V154Z"/>
        <path class="cls-8" d="M948.25,170.48a3.44,3.44,0,0,1,1,2.59,5.7,5.7,0,0,1-.19,1.47,16.33,16.33,0,0,1-.86,2.21l-2,4.67h-3.81l1.51-5.22a3.05,3.05,0,0,1-1.4-1.23,3.59,3.59,0,0,1-.49-1.9,3.44,3.44,0,0,1,1-2.59,3.59,3.59,0,0,1,2.63-1A3.54,3.54,0,0,1,948.25,170.48Z"/>
        <path class="cls-8" d="M961.72,154h6.34v22.4h-6.34Z"/>
        <path class="cls-8" d="M986.73,175.36a11.14,11.14,0,0,1-4.4-4.15,12.11,12.11,0,0,1,0-12,11,11,0,0,1,4.4-4.14,13.14,13.14,0,0,1,6.32-1.49,13.48,13.48,0,0,1,5.53,1.09,10.61,10.61,0,0,1,4.1,3.13l-4,3.65a6.62,6.62,0,0,0-5.28-2.62,6.45,6.45,0,0,0-3.25.8,5.51,5.51,0,0,0-2.21,2.25,7.56,7.56,0,0,0,0,6.69,5.59,5.59,0,0,0,2.21,2.26,6.55,6.55,0,0,0,3.25.8,6.63,6.63,0,0,0,5.28-2.63l4,3.65a10.63,10.63,0,0,1-4.1,3.14,13.64,13.64,0,0,1-5.53,1.08A13.25,13.25,0,0,1,986.73,175.36Z"/>
        <path class="cls-8" d="M1020.12,172h-9.47l-1.76,4.36h-6.47l9.89-22.4h6.24l9.92,22.4h-6.59Zm-1.86-4.67-2.88-7.17-2.88,7.17Z"/>
        <path class="cls-8" d="M1051.57,154v22.4h-5.21l-9.89-11.94V176.4h-6.21V154h5.22l9.89,11.93V154Z"/>
        <path class="cls-8" d="M837.35,192.4h10.59a14.78,14.78,0,0,1,6.53,1.37,10.39,10.39,0,0,1,4.42,3.91,11.95,11.95,0,0,1,0,11.84,10.44,10.44,0,0,1-4.42,3.9,14.78,14.78,0,0,1-6.53,1.38H837.35Zm10.34,17.34a6.47,6.47,0,0,0,4.62-1.63,6.7,6.7,0,0,0,0-9,6.51,6.51,0,0,0-4.62-1.63h-4v12.29Z"/>
        <path class="cls-8" d="M868.7,213.74a11.45,11.45,0,0,1,0-20.29,14.32,14.32,0,0,1,12.76,0,11.45,11.45,0,0,1,0,20.29,14.32,14.32,0,0,1-12.76,0Zm9.45-4.54a5.85,5.85,0,0,0,2.18-2.26,7.39,7.39,0,0,0,0-6.69,5.76,5.76,0,0,0-2.18-2.25,6.29,6.29,0,0,0-6.14,0,5.76,5.76,0,0,0-2.18,2.25,7.39,7.39,0,0,0,0,6.69A5.85,5.85,0,0,0,872,209.2a6.29,6.29,0,0,0,6.14,0Z"/>
        <path class="cls-8" d="M900.17,192.4h6.33v22.4h-6.33Z"/>
        <path class="cls-8" d="M915.78,197.42H908.9v-5H929v5h-6.85V214.8h-6.34Z"/>
        <path class="cls-8" d="M960.87,214.8l-.06-11.88-5.76,9.67h-2.82l-5.73-9.35V214.8h-5.85V192.4h5.21l7.87,12.92,7.68-12.92h5.22l.06,22.4Z"/>
        <path class="cls-8" d="M983.17,206.76v8h-6.33v-8.13l-8.55-14.27H975l5.31,8.89,5.32-8.89h6.14Z"/>
        <path class="cls-8" d="M995.46,214.57a13.06,13.06,0,0,1-4.16-1.79l2.08-4.67a13.67,13.67,0,0,0,3.49,1.6,13.42,13.42,0,0,0,3.9.61c2.44,0,3.65-.61,3.65-1.83a1.5,1.5,0,0,0-1-1.42,18.89,18.89,0,0,0-3.34-1,30.79,30.79,0,0,1-4.23-1.17,7,7,0,0,1-2.91-2,5.38,5.38,0,0,1-1.21-3.71,6.38,6.38,0,0,1,1.12-3.69,7.45,7.45,0,0,1,3.34-2.61,13.76,13.76,0,0,1,5.46-1,19.28,19.28,0,0,1,4.35.49,13.17,13.17,0,0,1,3.77,1.46l-2,4.7a13,13,0,0,0-6.21-1.72,5.16,5.16,0,0,0-2.75.56,1.67,1.67,0,0,0-.86,1.45,1.45,1.45,0,0,0,1,1.35,19.57,19.57,0,0,0,3.3.92,33.19,33.19,0,0,1,4.24,1.17,7.33,7.33,0,0,1,2.91,2,5.27,5.27,0,0,1,1.23,3.69,6.27,6.27,0,0,1-1.12,3.65,7.54,7.54,0,0,1-3.36,2.61,13.57,13.57,0,0,1-5.44,1A20.66,20.66,0,0,1,995.46,214.57Z"/>
        <path class="cls-8" d="M1031.56,209.9v4.9h-18V192.4h17.57v4.89h-11.29v3.78h9.95v4.73h-9.95v4.1Z"/>
        <path class="cls-8" d="M1035.08,192.4h6.33v17.37h10.69v5h-17Z"/>
        <path class="cls-8" d="M1060.93,197.29v4.93h9.89v4.9h-9.89v7.68h-6.33V192.4h17.57v4.89Z"/>
        <path class="cls-8" d="M1075.65,214.11a3.18,3.18,0,0,1-1-2.39,3,3,0,0,1,1-2.36,3.77,3.77,0,0,1,2.63-.93,3.72,3.72,0,0,1,2.61.93,3,3,0,0,1,1,2.36,3.18,3.18,0,0,1-1,2.39,3.6,3.6,0,0,1-2.59,1A3.67,3.67,0,0,1,1075.65,214.11Zm-1-21.71h7.23l-1.21,14.24h-4.83Z"/>
      </g>
    </g>
    <g>
      <path class="cls-4" d="M327,281.35c-14.25-5.5-22.25-12-26.92-18.71a53.11,53.11,0,0,1-9.78-31.16c0-61.64,94.67-91.61,211.45-91.61s211.45,30,211.45,91.61c0,60.17-90.21,88.66-203.14,90.54a10.12,10.12,0,0,0-6.29,2.33L466.2,355.58a2.13,2.13,0,0,1-3.5-1.64V330.16a11,11,0,0,0-9.85-11c-12-1.33-23.69-2.9-34.84-4.74"/>
      <g>
        <path class="cls-8" d="M372.24,201.64,365,224H358.2l-4.29-13.63L349.43,224h-6.79l-7.26-22.4h6.53l4.51,14.3,4.74-14.3H357l4.51,14.43,4.71-14.43Z"/>
        <path class="cls-8" d="M388.76,219.69h-9.48L377.52,224h-6.46l9.89-22.4h6.24l9.92,22.4h-6.59ZM386.9,215,384,207.85,381.14,215Z"/>
        <path class="cls-8" d="M420.21,201.64V224H415l-9.89-11.94V224H398.9v-22.4h5.22L414,213.57V201.64Z"/>
        <path class="cls-8" d="M429.46,206.66h-6.88v-5h20.06v5H435.8V224h-6.34Z"/>
        <path class="cls-8" d="M474.55,224l-.07-11.87-5.76,9.66h-2.81l-5.73-9.34V224h-5.86v-22.4h5.22l7.87,12.93,7.68-12.93h5.22l.06,22.4Z"/>
        <path class="cls-8" d="M502.84,219.14V224h-18v-22.4h17.57v4.89h-11.3v3.78h10v4.74h-10v4.09Z"/>
        <path class="cls-8" d="M520.43,206.66h-6.88v-5h20.07v5h-6.85V224h-6.34Z"/>
        <path class="cls-8" d="M540.58,223a11.45,11.45,0,0,1,0-20.29,14.34,14.34,0,0,1,12.77,0,11.46,11.46,0,0,1,0,20.29,14.25,14.25,0,0,1-12.77,0Zm9.45-4.54a5.72,5.72,0,0,0,2.18-2.26,7.39,7.39,0,0,0,0-6.69,5.69,5.69,0,0,0-2.18-2.25,6.29,6.29,0,0,0-6.14,0,5.76,5.76,0,0,0-2.18,2.25,7.39,7.39,0,0,0,0,6.69,5.78,5.78,0,0,0,2.18,2.26,6.29,6.29,0,0,0,6.14,0Z"/>
        <path class="cls-8" d="M593.36,201.64V224H587V215.3h-8.64V224h-6.34v-22.4h6.34v8.41H587v-8.41Z"/>
        <path class="cls-8" d="M602.75,223a11.46,11.46,0,0,1,0-20.29,14.34,14.34,0,0,1,12.77,0,11.22,11.22,0,0,1,6.07,10.15A11.22,11.22,0,0,1,615.52,223a14.25,14.25,0,0,1-12.77,0Zm9.46-4.54a5.78,5.78,0,0,0,2.18-2.26,7.39,7.39,0,0,0,0-6.69,5.76,5.76,0,0,0-2.18-2.25,6.29,6.29,0,0,0-6.14,0,5.69,5.69,0,0,0-2.18,2.25,7.39,7.39,0,0,0,0,6.69,5.72,5.72,0,0,0,2.18,2.26,6.29,6.29,0,0,0,6.14,0Z"/>
        <path class="cls-8" d="M624.91,201.64h6.34V219h10.69v5h-17Z"/>
        <path class="cls-8" d="M644.43,201.64H655a14.91,14.91,0,0,1,6.52,1.37,10.39,10.39,0,0,1,4.42,3.91,11.95,11.95,0,0,1,0,11.84,10.37,10.37,0,0,1-4.42,3.9A14.77,14.77,0,0,1,655,224h-10.6ZM654.77,219a6.47,6.47,0,0,0,4.62-1.63,6.69,6.69,0,0,0,0-9,6.48,6.48,0,0,0-4.62-1.64h-4V219Z"/>
        <path class="cls-8" d="M372.39,245.06h-6.88v-5h20.06v5h-6.85v17.38h-6.33Z"/>
        <path class="cls-8" d="M409.25,240v22.4h-6.33V253.7h-8.64v8.74h-6.34V240h6.34v8.41h8.64V240Z"/>
        <path class="cls-8" d="M428.74,258.09h-9.47l-1.76,4.35H411l9.89-22.4h6.24l9.92,22.4H430.5Zm-1.86-4.68L424,246.25l-2.88,7.16Z"/>
        <path class="cls-8" d="M442.53,245.06h-6.88v-5h20.07v5h-6.85v17.38h-6.34Z"/>
        <path class="cls-8" d="M473.73,244.93v4.93h9.89v4.9h-9.89v7.68H467.4V240H485v4.89Z"/>
        <path class="cls-8" d="M492.66,261.38a11.45,11.45,0,0,1,0-20.29,14.34,14.34,0,0,1,12.77,0,11.45,11.45,0,0,1,0,20.29,14.25,14.25,0,0,1-12.77,0Zm9.46-4.54a5.83,5.83,0,0,0,2.17-2.26,7.39,7.39,0,0,0,0-6.69,5.73,5.73,0,0,0-2.17-2.25,6.31,6.31,0,0,0-6.15,0,5.67,5.67,0,0,0-2.17,2.25,7.39,7.39,0,0,0,0,6.69,5.76,5.76,0,0,0,2.17,2.26,6.31,6.31,0,0,0,6.15,0Z"/>
        <path class="cls-8" d="M524.61,256.49h-3.45v5.95h-6.34V240h10.24a12.63,12.63,0,0,1,5.28,1,8.14,8.14,0,0,1,3.53,11.52,7.62,7.62,0,0,1-3.24,2.83l4.83,7h-6.78Zm3-10.6a4.39,4.39,0,0,0-2.94-.86h-3.52v6.56h3.52a4.39,4.39,0,0,0,2.94-.85,3,3,0,0,0,1-2.41A3.07,3.07,0,0,0,527.62,245.89Z"/>
        <path class="cls-8" d="M559.81,254.41v8h-6.34v-8.13L544.93,240h6.69l5.31,8.89,5.31-8.89h6.15Z"/>
        <path class="cls-8" d="M573.94,261.38a11.45,11.45,0,0,1,0-20.29,14.34,14.34,0,0,1,12.77,0,11.46,11.46,0,0,1,0,20.29,14.25,14.25,0,0,1-12.77,0Zm9.45-4.54a5.78,5.78,0,0,0,2.18-2.26,7.39,7.39,0,0,0,0-6.69,5.69,5.69,0,0,0-2.18-2.25,6.29,6.29,0,0,0-6.14,0,5.76,5.76,0,0,0-2.18,2.25,7.39,7.39,0,0,0,0,6.69,5.85,5.85,0,0,0,2.18,2.26,6.29,6.29,0,0,0,6.14,0Z"/>
        <path class="cls-8" d="M598.67,260.17q-2.76-2.73-2.76-7.72V240h6.33v12.22q0,5.38,4.26,5.38t4.22-5.38V240H617v12.41q0,5-2.77,7.72t-7.76,2.72Q601.45,262.89,598.67,260.17Z"/>
        <path class="cls-8" d="M626.5,251.64a13.79,13.79,0,0,1,2-2.29,12.79,12.79,0,0,0,1.37-1.46,2,2,0,0,0,.45-1.26,1.76,1.76,0,0,0-.78-1.49,3.46,3.46,0,0,0-2-.56,4.49,4.49,0,0,0-2.32.61,4.72,4.72,0,0,0-1.68,1.7l-4.76-2.56a8.94,8.94,0,0,1,3.71-3.49,12.44,12.44,0,0,1,5.79-1.25,10.74,10.74,0,0,1,6.13,1.58,5.1,5.1,0,0,1,2.32,4.44,5.68,5.68,0,0,1-.45,2.32,6.52,6.52,0,0,1-1.07,1.69,19.27,19.27,0,0,1-1.62,1.55,11.92,11.92,0,0,0-1.6,1.59,2.4,2.4,0,0,0-.51,1.52h-5.7A4.59,4.59,0,0,1,626.5,251.64Zm-.45,10.11a3.18,3.18,0,0,1-1-2.38,3.08,3.08,0,0,1,1-2.37,3.71,3.71,0,0,1,2.61-.93,3.77,3.77,0,0,1,2.63.93,3.07,3.07,0,0,1,1,2.37,3.18,3.18,0,0,1-1,2.38,3.68,3.68,0,0,1-2.63,1A3.61,3.61,0,0,1,626.05,261.75Z"/>
      </g>
    </g>
    <g>
      <g>
        <path class="cls-2" d="M474.29,435.42a2,2,0,0,0,2.45,1.42l25.76-6.79a2,2,0,0,0,1.42-2.44l-10-38.17a2,2,0,0,0-2.44-1.42l-25.77,6.79a2,2,0,0,0-1.41,2.44Z"/>
        <path class="cls-4" d="M474.29,435.42a2,2,0,0,0,2.45,1.42l25.76-6.79a2,2,0,0,0,1.42-2.44l-10-38.17a2,2,0,0,0-2.44-1.42l-25.77,6.79a2,2,0,0,0-1.41,2.44Z"/>
      </g>
      <path class="cls-2" d="M512.24,448.73l-5,1.83-2.9-14.37c-.07,5.33,1,11.53,3.06,19.37-.16-.16-9.64,1-9.64,1,.12,2.52.31,4.49.48,5.67l-23.62-2.5a43.64,43.64,0,0,1-.65-10.92L410.1,501.38c11.27,34.28,13,77.44,10.95,110.85-.65.4-1.31.79-2,1.17l-25,109.33,3.75.5a18.9,18.9,0,0,1,19.25,19.25v6.75h-137v-6.75c0-10.91,9.34-19.25,20.25-19.25h7.43l-40-109.82c-.73-.39-1.43-.78-2.1-1.18-7.6-51.84-4.19-87.78,4.65-112.68l-65.77-37.82L191.41,456l-42.59,74.71-4.75-2.5L199,419.39l-.08,0A12.8,12.8,0,1,1,209.52,425l-.33-.17L205,432.26l-.43.75,3.79.72,4.75,10h0c1.39.43,52.27,16.35,76.19,23.57,20-21.39,45.43-23.58,56.78-23.58,18.24,0,32.37,7.3,43.21,19.26l86.26-34.65,0-.38c-.5-14.4,10.61-26.93,10.61-26.93l2.76,2.05L500.79,412l-3.48-10.57-.07-.35,5.33-4.47,17.5,17.34S500.07,428.23,512.24,448.73Z"/>
      <path class="cls-8" d="M519.58,414.28S501.8,424.89,512,448.81c-1.47.54-5.59,2.91-5.59,2.91l1,3.84-10.16,1,1,5.67-23.62-2.5V442.56s7.18-9,6-10.93-5.05-4.15-5.05-4.15.56-16.65,10.61-26.45l2.76,2.05L500.79,412l-3-9.63-.46-.94,5.26-4.82Z"/>
      <path class="cls-2" d="M488.34,446.55l-3.81-.51c.08-.64.15-1.28.23-1.92,0-.2,0-.26-.21-.31a9.44,9.44,0,0,1-3.41-1.74,6.22,6.22,0,0,1-1.72-2.22,6.52,6.52,0,0,1-.5-3.29c0-.18.07-.22.25-.2,1.2.17,2.41.33,3.62.48.19,0,.25.1.26.29a3.26,3.26,0,0,0,2.16,3.14c0-.1,0-.17,0-.25.1-.91.21-1.82.32-2.72s.18-1.61.28-2.41c0-.15,0-.21-.16-.26s-.49-.19-.73-.3a11.4,11.4,0,0,1-3-1.59,4.67,4.67,0,0,1-1.54-2.32,6.06,6.06,0,0,1-.19-2.28,5.91,5.91,0,0,1,1.83-4,6.47,6.47,0,0,1,4.06-1.73c.39,0,.77-.05,1.17-.07.11-.94.22-1.86.32-2.78l3.81.51c-.1.9-.21,1.8-.32,2.7,0,.16,0,.23.17.28a8.7,8.7,0,0,1,2,.92,7.18,7.18,0,0,1,2.16,2.09,6.3,6.3,0,0,1,1,3.41c0,.24,0,.49,0,.72h-.08l-3.93-.52c-.13,0-.14-.08-.13-.19a2.86,2.86,0,0,0-.95-2.29,7.12,7.12,0,0,0-.57-.46c-.2,1.77-.4,3.48-.6,5.2l.2.09a14.42,14.42,0,0,1,3.67,1.76,4.39,4.39,0,0,1,1.88,2.61,6.25,6.25,0,0,1-1.29,5.75A6,6,0,0,1,491.7,444a9.89,9.89,0,0,1-2.92.45c-.16,0-.2.05-.22.2C488.49,445.28,488.42,445.91,488.34,446.55Zm.68-5.71h.27a2.59,2.59,0,0,0,2.26-1.36,2,2,0,0,0-.08-2.1,2.77,2.77,0,0,0-1-.83c-.29-.17-.6-.31-.92-.47C489.39,437.68,489.21,439.25,489,440.84ZM486.86,426a4.43,4.43,0,0,0-1.55.46,2.15,2.15,0,0,0-.86,2.73,3.68,3.68,0,0,0,1.88,1.36C486.51,429,486.69,427.52,486.86,426Z"/>
      <polygon class="cls-3" points="366.4 672.9 358.57 672.9 349.07 722.84 357.74 722.84 366.4 672.9"/>
      <polygon class="cls-3" points="267.79 613.4 291.03 622.38 322.57 722.73 307.07 722.73 267.79 613.4"/>
      <path class="cls-6" d="M346.07,443.73c-23,0-103.75,9-80.37,168.5,28.87,17,107,29.5,155.35,0C425.07,546.73,414.57,443.73,346.07,443.73Z"/>
      <path class="cls-2" d="M313.07,493.23s-.37-18.92-12-22.5c-6.5-1.5-88-27-88-27l-8.5,18,92.17,53"/>
      <line class="cls-6" x1="204.57" y1="461.73" x2="296.74" y2="514.73"/>
      <path class="cls-6" d="M313.07,493.23s-.37-18.92-12-22.5c-6.5-1.5-88-27-88-27"/>
      <path class="cls-4" d="M389.28,463l87.29-35.06s5,1.8,4,5.3-4.5,4.5-7.5,10.5"/>
      <line class="cls-6" x1="410.1" y1="501.38" x2="474.07" y2="448.73"/>
      <path class="cls-4" d="M380.8,627s12.5-67.27-9.61-121.77"/>
      <line class="cls-6" x1="267.79" y1="613.4" x2="307.07" y2="722.73"/>
      <line class="cls-6" x1="419.08" y1="613.4" x2="394.07" y2="722.73"/>
      <path class="cls-6" d="M417.07,742.48a18.9,18.9,0,0,0-19.25-19.25h-97.5c-10.91,0-20.25,8.34-20.25,19.25v6.75h137Z"/>
      <polyline class="cls-4" points="348.07 749.23 348.07 723.23 358.57 670.23"/>
      <g>
        <path class="cls-8" d="M398.93,499.83l-21.46-2.45a12.7,12.7,0,0,1-23.23,4l-19.32,10.17L332.07,482l21.25,7.82A12.7,12.7,0,0,1,374.23,486l16.64-14.69Z"/>
        <path class="cls-4" d="M354.24,501.39l-19.32,10.17L332.07,482l21.25,7.82h0a12.69,12.69,0,0,0,.92,11.53Z"/>
        <path class="cls-4" d="M377.47,497.38a12.81,12.81,0,0,0,.28-2.65,12.63,12.63,0,0,0-3.52-8.77l16.64-14.69,8.06,28.56Z"/>
        <path class="cls-4" d="M377.75,494.73a12.7,12.7,0,1,0-12.7,12.7A12.69,12.69,0,0,0,377.75,494.73Z"/>
      </g>
      <path class="cls-6" d="M202.34,445.33l-6.31-6a2.83,2.83,0,0,1-.54-3.15l1.41-2.7a2.89,2.89,0,0,1,2.89-1.4l6.57,1.26a4.4,4.4,0,0,1,2.82,2.18l3,6.38a29.55,29.55,0,0,1,1.43,3.73l-8.21,14.27a2.09,2.09,0,0,1-2.69,1l-9.58-4.15a1.7,1.7,0,0,1-.79-2.51l6.45-10.54"/>
      <path class="cls-6" d="M199.2,442.36l-50.38,88.37-4.75-2.5,56-111c2.27-3.75,13.3,2,9.75,6.5L205,432.26"/>
      <path class="cls-6" d="M209.52,425a12.78,12.78,0,1,0-10.62-5.64"/>
      <path class="cls-4" d="M474.62,441.08s-1.61,11.82,0,18.65l23.62,2.5c-.83-6-2.34-32.67,8-46,0-.33-20.06-15.2-20.06-15.2S475.07,413.56,475.57,428"/>
      <path class="cls-4" d="M498.4,402.32l14.34,12.52c-9.17,11.39-10.67,20.72-5.33,40.72-.17-.16-9.64,1-9.64,1"/>
      <path class="cls-4" d="M497.24,401l5.33-4.47,17.5,17.34s-20,14.33-7.83,34.83l-5,1.83"/>
      <line class="cls-9" x1="474.07" y1="448.73" x2="473.97" y2="448.81"/>
      <line class="cls-9" x1="410.1" y1="501.38" x2="410.09" y2="501.39"/>
      <path class="cls-2" d="M184,448.46c-.51,1-1.19.91-1.52-.14l-.82-2.68A5.65,5.65,0,0,1,182,442l2.92-5.69a3.59,3.59,0,0,1,2.91-1.78h1.5a1.11,1.11,0,0,1,1.07,1.77Z"/>
      <path class="cls-6" d="M184,448.46c-.51,1-1.19.91-1.52-.14l-.82-2.68A5.65,5.65,0,0,1,182,442l2.92-5.69a3.59,3.59,0,0,1,2.91-1.78h1.5a1.11,1.11,0,0,1,1.07,1.77Z"/>
      <g>
        <g>
          <g>
            <path class="cls-2" d="M400.21,421.45a28,28,0,0,1-20.57,33.77l-37,9a28,28,0,0,1-33.76-20.57l-12.83-52.83A28,28,0,0,1,316.65,357l37-9a28,28,0,0,1,33.76,20.58Z"/>
            <path class="cls-6" d="M400.21,421.45a28,28,0,0,1-20.57,33.77l-37,9a28,28,0,0,1-33.76-20.57l-12.83-52.83A28,28,0,0,1,316.65,357l37-9a28,28,0,0,1,33.76,20.58Z"/>
          </g>
          <g>
            <g>
              <path class="cls-3" d="M334.93,435.73c10.25-1.1,9-22.52,35.52-11.17,20.7-19,24.91-4.21,37-4.39-8.79,11.35-18.87,16.84-27.66,11.9s-13.06,1.57-16.11,4.94C360.2,440.86,347.19,444.34,334.93,435.73Z"/>
              <path class="cls-4" d="M334.93,435.73c10.25-1.1,9-22.52,35.52-11.17,20.7-19,24.91-4.21,37-4.39-8.79,11.35-18.87,16.84-27.66,11.9s-13.06,1.57-16.11,4.94C360.2,440.86,347.19,444.34,334.93,435.73Z"/>
            </g>
            <g>
              <g>
                <path class="cls-4" d="M310.38,446.72c7.33,0,17.58-4.76,15-43.58"/>
                <g>
                  <path class="cls-3" d="M355.43,395.72A15.47,15.47,0,1,0,340,411.19,15.47,15.47,0,0,0,355.43,395.72Z"/>
                  <g>
                    <path class="cls-10" d="M355.43,395.72A15.47,15.47,0,1,0,340,411.19,15.47,15.47,0,0,0,355.43,395.72Z"/>
                    <g>
                      <path class="cls-11" d="M355.43,395.72A15.47,15.47,0,1,0,340,411.19,15.47,15.47,0,0,0,355.43,395.72Z"/>
                      <path class="cls-11" d="M355.43,395.72A15.47,15.47,0,1,0,340,411.19,15.47,15.47,0,0,0,355.43,395.72Z"/>
                    </g>
                  </g>
                </g>
              </g>
              <g>
                <g>
                  <path class="cls-10" d="M349,396.75a8,8,0,0,0-15.67,3"/>
                  <path class="cls-10" d="M380.85,390.89a8,8,0,0,0-15.66,3"/>
                </g>
                <g>
                  <g>
                    <path class="cls-11" d="M349,396.75a8,8,0,0,0-15.67,3"/>
                    <path class="cls-11" d="M349,396.75a8,8,0,0,0-15.67,3"/>
                  </g>
                  <g>
                    <path class="cls-11" d="M380.85,390.89a8,8,0,0,0-15.66,3"/>
                    <path class="cls-11" d="M380.85,390.89a8,8,0,0,0-15.66,3"/>
                  </g>
                </g>
              </g>
            </g>
          </g>
        </g>
        <g>
          <path class="cls-2" d="M291.67,368.28,274,294.15l89.14-21.29L380.8,347Zm89.2-20.8L291,368.7,256.9,390.32l164.15-38.78Z"/>
          <polygon class="cls-12" points="319.43 361.57 291.68 368.29 274.05 294.15 301.8 287.44 319.43 361.57"/>
          <polygon class="cls-6" points="421.05 351.54 256.9 390.32 291.02 368.7 380.87 347.48 421.05 351.54"/>
          <polygon class="cls-6" points="380.81 346.99 291.68 368.28 274.05 294.15 363.18 272.86 380.81 346.99"/>
          <g>
            <rect class="cls-8" x="287.31" y="331.05" width="91.64" height="26.98" transform="translate(-70.76 86.55) rotate(-13.4)"/>
            <rect class="cls-6" x="287.31" y="331.05" width="91.64" height="26.98" transform="translate(-70.76 86.55) rotate(-13.4)"/>
          </g>
        </g>
      </g>
      <line class="cls-4" x1="469.87" y1="394.1" x2="476.37" y2="419.6"/>
      <line class="cls-4" x1="474.31" y1="393.66" x2="478.87" y2="411.41"/>
    </g>
    <line class="cls-4" x1="468.62" y1="780.66" x2="500.25" y2="765.54"/>
    <line class="cls-4" x1="471.87" y1="782.85" x2="503.5" y2="767.73"/>
    <line class="cls-4" x1="482.19" y1="785.1" x2="491.37" y2="780.6"/>
    <line class="cls-4" x1="485.44" y1="787.29" x2="494.62" y2="782.79"/>
  </g>
  <path class="cls-4" d="M418,314.43c11.14,1.84,22.79,3.41,34.83,4.74a11,11,0,0,1,9.85,11v23.78a2.13,2.13,0,0,0,3.5,1.64l32.47-27,5.1-4.24a10.12,10.12,0,0,1,6.29-2.33C623,320.14,713.2,291.65,713.2,231.48c0-61.64-94.67-91.61-211.45-91.61s-211.45,30-211.45,91.61a53.11,53.11,0,0,0,9.78,31.16c4.67,6.71,12.67,13.21,26.92,18.71"/>
</svg>
