<svg id="work" xmlns="http://www.w3.org/2000/svg" viewBox="0 0 1422 870">
  <defs>
    <style>
      .cls-1, .cls-4 {
        fill: #ebebeb;
      }

      .cls-2, .cls-5 {
        fill: #fff;
      }

      .Graphic-Style-5, .cls-10, .cls-3, .cls-6, .cls-9 {
        fill: none;
      }

      .cls-3, .cls-4, .cls-5, .cls-6, .cls-9 {
        stroke: #4a4a4a;
      }

      .Graphic-Style-5, .cls-10, .cls-3, .cls-4, .cls-5, .cls-6, .cls-9 {
        stroke-linecap: round;
        stroke-linejoin: round;
      }

      .cls-3, .cls-5 {
        stroke-width: 4px;
      }

      .Graphic-Style-5, .cls-10, .cls-4, .cls-6, .cls-9 {
        stroke-width: 2.5px;
      }

      .cls-7 {
        fill: #ff0083;
      }

      .cls-8 {
        fill: #f90080;
      }

      .cls-9 {
        stroke-dasharray: 10.03 10.03;
      }

      .Graphic-Style-5, .cls-10 {
        stroke: #ff0083;
      }

      .cls-10 {
        stroke-dasharray: 20 15 2;
      }
    </style>
  </defs>
  <title>24,1</title>
  <g>
    <path class="cls-1" d="M623.54,308.59s1.45-14.66,22.87-18.8l263.62-51s30.66-4.41,35.51,36.31c-.86,1.24-3.35,1.43-3.35,1.43L649.9,299.24s-24.82,1.63-26,20.11Z"/>
    <path class="cls-2" d="M1043.35,565.61v60.54a35,35,0,0,1-35,35H658.57a35,35,0,0,1-35-35V314.32c0,21.17,15.68,28.35,35,28.35h349.76a34.76,34.76,0,0,1,20,6.26h0a35,35,0,0,1,15,28.77v69"/>
    <path class="cls-1" d="M1043.35,377.7V626.15a35,35,0,0,1-15,28.78v-306h0A35,35,0,0,1,1043.35,377.7Z"/>
    <path class="cls-2" d="M123,474.81c0-101.43,60.76-183.66,135.71-183.66s135.72,82.23,135.72,183.66S333.68,658.46,258.72,658.46,123,576.23,123,474.81Z"/>
    <path class="cls-1" d="M123,474.81c0,93,51.09,169.87,117.37,182a101.36,101.36,0,0,1-18.33,1.67c-74.93,0-135.7-82.23-135.7-183.64s60.77-183.67,135.7-183.67a101.47,101.47,0,0,1,18.34,1.67h0C174.12,304.93,123,381.79,123,474.81Z"/>
    <path class="cls-2" d="M993.65,340.28V312c0-10-2.16-19.59-9.48-26.43A36.18,36.18,0,0,0,957,276L643.07,297.67a21.57,21.57,0,0,0-19.52,16.65l5.1,25Z"/>
    <path class="cls-1" d="M624.29,323.25l3.11-13.57,12.91-8.44,15.85,9.47A68.25,68.25,0,0,0,694,320.29l300.1-12.74,1.23,34.54-341.28,1.15C638.73,343.24,624.29,323.25,624.29,323.25Z"/>
    <g>
      <path class="cls-3" d="M123,474.81c0-101.43,60.76-183.66,135.71-183.66s135.72,82.23,135.72,183.66S333.68,658.46,258.72,658.46,123,576.23,123,474.81Z"/>
      <path class="cls-3" d="M240.39,292.82a100.47,100.47,0,0,0-18.33-1.67c-74.94,0-135.7,82.23-135.7,183.66s60.76,183.65,135.7,183.65a101.36,101.36,0,0,0,18.33-1.67"/>
      <path class="cls-4" d="M136.4,474.81c0,89.53,51.94,162.56,117,166.31,1.76.12,3.52.17,5.29.17,67.56,0,122.31-74.54,122.31-166.48S326.29,308.32,258.73,308.32c-1.77,0-3.53,0-5.29.17C188.34,312.23,136.4,385.26,136.4,474.81Z"/>
      <path class="cls-5" d="M136.4,474.81c0,89.53,51.94,162.56,117,166.31,65.1-3.75,117-76.78,117-166.31s-51.93-162.58-117-166.32C188.34,312.23,136.4,385.26,136.4,474.81Z"/>
      <line class="cls-6" x1="177.3" y1="324.29" x2="144.87" y2="324.29"/>
      <line class="cls-6" x1="161.79" y1="341.91" x2="129.36" y2="341.91"/>
      <line class="cls-6" x1="149.1" y1="360.95" x2="116.67" y2="360.95"/>
      <line class="cls-6" x1="135.35" y1="555.18" x2="102.92" y2="555.18"/>
      <line class="cls-6" x1="143.46" y1="575.62" x2="111.03" y2="575.62"/>
      <line class="cls-6" x1="151.92" y1="592.19" x2="119.49" y2="592.19"/>
      <line class="cls-6" x1="162.84" y1="608.05" x2="130.42" y2="608.05"/>
      <line class="cls-6" x1="174.13" y1="621.45" x2="141.7" y2="621.45"/>
      <line class="cls-6" x1="137.81" y1="384.21" x2="105.38" y2="384.21"/>
      <line class="cls-6" x1="129.36" y1="413.12" x2="96.93" y2="413.12"/>
      <line class="cls-6" x1="122.31" y1="442.02" x2="89.88" y2="442.02"/>
      <line class="cls-6" x1="121.25" y1="470.93" x2="88.82" y2="470.93"/>
      <line class="cls-6" x1="120.19" y1="499.83" x2="87.76" y2="499.83"/>
      <line class="cls-6" x1="126.18" y1="528.74" x2="93.75" y2="528.74"/>
      <path class="cls-7" d="M259.41,591.36l-16-8.4q2.39-12.78,4.76-25.58l-10-5.07c-1.59,8.57-3.16,17-4.72,25.39L218,569.6c1.56-8.36,3.11-16.73,4.7-25.31l-31.61-16c1.31-7.05,2.57-13.88,3.87-20.88.48.23.88.44,1.28.62,1.94.9,3.87,1.88,5.84,2.68,3.41,1.39,5.53-.27,6.55-5,.46-2.12.93-4.23,1.33-6.38q7.2-38.73,14.37-77.54c.65-3.5,1.24-7,1.82-10.56.78-4.82-.49-8.1-3.82-9.75-2-1-4-1.74-6-2.6-.39-.17-.78-.37-1.17-.56,1.3-7,2.57-13.9,3.89-21l32.33,12.44c1.59-8.59,3.15-17,4.7-25.33l15.9,5.81q-2.38,12.76-4.75,25.53l10.27,4c1.61-8.68,3.19-17.2,4.78-25.72l16.49,6c-.11.68-.21,1.37-.33,2-1.42,7.62-2.8,15.25-4.29,22.83-.34,1.73-.22,2.69,1.16,3.29a21.25,21.25,0,0,1,3.13,1.9,43.93,43.93,0,0,1,14.48,15.77,47.67,47.67,0,0,1,5.41,30.28,37.34,37.34,0,0,1-8,19.06c-5.53,6.72-12.31,9.35-19.68,9.83-.52,0-1,.11-1.56.17a4.3,4.3,0,0,0,1.15,1.51,56,56,0,0,1,11.31,12.63,49.19,49.19,0,0,1,7.54,27.56c-.41,19.06-7.52,31.29-20,37.12-7.43,3.46-15.24,2.75-23.05.36-1.22-.37-1.6,0-1.88,1.56C262.62,574.45,261,582.9,259.41,591.36Zm-16.3-112.64c-.12.51-.2.82-.26,1.15-2,10.92-4.08,21.83-6.07,32.76-.43,2.36-.75,4.77-1,7.2-.22,2,.32,3.54,1.65,4.28,3.74,2.07,7.5,4.15,11.34,5.93A80.25,80.25,0,0,0,258.92,534a12,12,0,0,0,10.51-1.39c4.31-2.83,7-7.59,8.37-14,1.93-8.88-.14-17.75-5.61-23.82a33.42,33.42,0,0,0-10.56-7.61c-5.84-2.87-11.7-5.42-17.49-8.07A10.37,10.37,0,0,0,243.11,478.72Zm4.3-23c.38.22.68.42,1,.56,3.86,1.67,7.73,3.38,11.64,5,4.46,1.87,9,3.63,13.66,3.88a11.46,11.46,0,0,0,10-4.16c6.36-7.57,6.85-23.89-2.93-30.82a43.41,43.41,0,0,0-7.33-4.32c-6-2.68-12.05-5.07-18-7.53a10,10,0,0,0-1-.27C252.08,430.64,249.76,443.09,247.41,455.74Z"/>
    </g>
    <g>
      <path class="cls-1" d="M1043.35,543.44v24.77H998.11a52.57,52.57,0,0,1-51.92-60.62Z"/>
      <g>
        <path class="cls-8" d="M701.64,523a17.1,17.1,0,0,1-5.69-.91,12.19,12.19,0,0,1-4.48-2.71,12.06,12.06,0,0,1-2.9-4.49,18.93,18.93,0,0,1-.05-12.17,12.75,12.75,0,0,1,2.86-4.58,12,12,0,0,1,4.46-2.84,16.39,16.39,0,0,1,5.82-1,22.82,22.82,0,0,1,3.14.2,21.6,21.6,0,0,1,2.59.51,18,18,0,0,1,2.26.79q1,.44,1.77.81v6.69h-.82c-.35-.29-.78-.64-1.31-1a16.85,16.85,0,0,0-1.79-1.2,12.38,12.38,0,0,0-2.21-1,7.77,7.77,0,0,0-2.54-.4,8.69,8.69,0,0,0-2.85.47,7,7,0,0,0-2.51,1.57,7.61,7.61,0,0,0-1.77,2.79,11.7,11.7,0,0,0-.68,4.22,11.4,11.4,0,0,0,.73,4.34,7.63,7.63,0,0,0,1.85,2.74A6.88,6.88,0,0,0,700,517.2a9.21,9.21,0,0,0,2.75.43,8.7,8.7,0,0,0,2.57-.38,10.2,10.2,0,0,0,2.35-1,16.14,16.14,0,0,0,1.69-1.15c.52-.41.94-.76,1.28-1h.74v6.6l-2,.88a17.11,17.11,0,0,1-2,.7,22.76,22.76,0,0,1-2.54.59A19.92,19.92,0,0,1,701.64,523Z"/>
        <path class="cls-8" d="M736.5,522.44H718.06v-4.82h5.83V503h-5.83V498.5a21.1,21.1,0,0,0,2.56-.15,6.83,6.83,0,0,0,2-.55,3.45,3.45,0,0,0,1.45-1.21,3.81,3.81,0,0,0,.56-1.85h6.14v22.88h5.69Z"/>
        <path class="cls-8" d="M770.53,508.64q0,6.6-3.78,10.49c-2.53,2.59-6,3.89-10.47,3.89s-7.92-1.3-10.44-3.89-3.79-6.09-3.79-10.49,1.26-7.95,3.79-10.53,6-3.87,10.44-3.87,7.91,1.29,10.45,3.87S770.53,504.2,770.53,508.64Zm-9.44,7a8.35,8.35,0,0,0,1.54-3,14.6,14.6,0,0,0,.5-4,13.38,13.38,0,0,0-.58-4.23,8,8,0,0,0-1.5-2.82,5.64,5.64,0,0,0-2.18-1.62,6.93,6.93,0,0,0-5.12,0,6.11,6.11,0,0,0-2.2,1.6A7.82,7.82,0,0,0,750,504.4a13.92,13.92,0,0,0-.59,4.24,13.58,13.58,0,0,0,.57,4.2,8.48,8.48,0,0,0,1.49,2.83,5.66,5.66,0,0,0,2.18,1.61,6.61,6.61,0,0,0,2.61.52,6.49,6.49,0,0,0,2.62-.53A5.71,5.71,0,0,0,761.09,515.63Z"/>
        <path class="cls-8" d="M797,513.09a10,10,0,0,1-.8,4,8.81,8.81,0,0,1-2.35,3.16,11.26,11.26,0,0,1-3.93,2.09,17.29,17.29,0,0,1-5,.68,27.39,27.39,0,0,1-5.61-.53,20.83,20.83,0,0,1-3.74-1.14v-6.11h.78a18.78,18.78,0,0,0,3.63,1.67,11.78,11.78,0,0,0,3.88.67,13.07,13.07,0,0,0,2.53-.27,4.5,4.5,0,0,0,2.16-1,4.71,4.71,0,0,0,1-1.17,4,4,0,0,0,.32-1.84,3.06,3.06,0,0,0-.43-1.66,3.52,3.52,0,0,0-1.12-1.12,6.23,6.23,0,0,0-2.42-.81,18.86,18.86,0,0,0-2.56-.2,17.47,17.47,0,0,0-3.2.29c-1,.19-1.91.38-2.68.57h-.81V494.81h19.64v5.29H783.22v4.51c.39,0,.87-.05,1.46-.07l1.55,0a17.29,17.29,0,0,1,4.07.43,10.89,10.89,0,0,1,3.09,1.22,7.27,7.27,0,0,1,2.64,2.7A8.5,8.5,0,0,1,797,513.09Z"/>
        <path class="cls-8" d="M817.92,522.44H801.74v-4.9h4.53V499.71h-4.53v-4.9h16.18v4.9h-4.53v17.83h4.53Z"/>
        <path class="cls-8" d="M844.73,507.07a22.32,22.32,0,0,1-.89,6.46,13,13,0,0,1-2.71,5,12.18,12.18,0,0,1-4.88,3.31,19,19,0,0,1-6.79,1.11,29.27,29.27,0,0,1-3-.17,16.55,16.55,0,0,1-2.09-.3v-5.43h.74a11.05,11.05,0,0,0,1.58.55,10.53,10.53,0,0,0,2.82.3,11.2,11.2,0,0,0,2.83-.36,6.52,6.52,0,0,0,2.4-1.14,6.75,6.75,0,0,0,1.8-2.09,8.38,8.38,0,0,0,.94-3,18.57,18.57,0,0,1-3,1.43,10.58,10.58,0,0,1-3.44.49,11.59,11.59,0,0,1-3-.38,8.6,8.6,0,0,1-2.59-1.18,7.88,7.88,0,0,1-2.46-2.89,9.91,9.91,0,0,1-.92-4.52,9.33,9.33,0,0,1,3.09-7.24,11.62,11.62,0,0,1,8.1-2.79,14,14,0,0,1,4.57.68,9.15,9.15,0,0,1,3.45,2.07,10,10,0,0,1,2.54,4.06A18.54,18.54,0,0,1,844.73,507.07Zm-7.1-1a13.24,13.24,0,0,0-.44-3.72,5.42,5.42,0,0,0-1.2-2.26,3.16,3.16,0,0,0-1.24-.86,4.35,4.35,0,0,0-1.48-.26,4,4,0,0,0-1.39.25,3.7,3.7,0,0,0-1.27.87,4.53,4.53,0,0,0-.94,1.56,6.57,6.57,0,0,0-.36,2.3,5.43,5.43,0,0,0,.39,2.19,3.41,3.41,0,0,0,1.08,1.4,3.86,3.86,0,0,0,1.53.71,8.91,8.91,0,0,0,1.92.2,8.77,8.77,0,0,0,1.82-.21,9.11,9.11,0,0,0,1.52-.44c0-.13,0-.33,0-.58S837.63,506.54,837.63,506Z"/>
        <path class="cls-8" d="M875.87,522.44H869l-11.73-19v19h-6.53V494.81h8.52l10.08,15.83V494.81h6.53Z"/>
        <path class="cls-8" d="M901.81,509.49a6.17,6.17,0,0,1,1.44,1.82,6,6,0,0,1,.54,2.76,8.74,8.74,0,0,1-.77,3.64,7.5,7.5,0,0,1-2.36,2.89,11.42,11.42,0,0,1-3.67,1.79,18,18,0,0,1-5.11.63,27.82,27.82,0,0,1-5.89-.54,22,22,0,0,1-4-1.21V515.2h.72a17.61,17.61,0,0,0,3.82,1.67,13.46,13.46,0,0,0,4.05.71,16.62,16.62,0,0,0,2.34-.18,4.79,4.79,0,0,0,2.13-.77,3.78,3.78,0,0,0,1.1-1.12,3.66,3.66,0,0,0,.4-1.9,2.82,2.82,0,0,0-.55-1.87,3,3,0,0,0-1.47-.93,7.54,7.54,0,0,0-2.19-.33l-2.37,0h-1.52v-4.93H890c1,0,1.82,0,2.56-.09a6.42,6.42,0,0,0,1.9-.43,2.83,2.83,0,0,0,1.22-.94,3,3,0,0,0,.41-1.71,2,2,0,0,0-.43-1.35,3,3,0,0,0-1.07-.81,5.63,5.63,0,0,0-1.71-.44,14.07,14.07,0,0,0-1.69-.11,13.46,13.46,0,0,0-3.78.6,17.51,17.51,0,0,0-4,1.73h-.68v-6a26.46,26.46,0,0,1,4.13-1.18,25.61,25.61,0,0,1,5.31-.56,20.64,20.64,0,0,1,4.58.45,11.39,11.39,0,0,1,3.25,1.22,5.7,5.7,0,0,1,3,5.25,6.49,6.49,0,0,1-1.43,4.11,6.39,6.39,0,0,1-3.77,2.31v.26a9.33,9.33,0,0,1,2,.52A6.4,6.4,0,0,1,901.81,509.49Z"/>
      </g>
      <path class="cls-2" d="M1043.35,454H998.11a52.54,52.54,0,0,0-52.54,52.54h0A52.54,52.54,0,0,0,998.11,559h68.54V454h-23.3"/>
      <rect class="cls-1" x="1052.73" y="453.96" width="13.92" height="105.08"/>
      <path class="cls-3" d="M1043.35,565.61v60.54a35,35,0,0,1-35,35H658.57a35,35,0,0,1-35-35V314.32c0,21.17,15.68,28.35,35,28.35h349.76a34.76,34.76,0,0,1,20,6.26h0a35,35,0,0,1,15,28.77v69"/>
      <path class="cls-3" d="M1043.35,454H998.11a52.54,52.54,0,0,0-52.54,52.54h0A52.54,52.54,0,0,0,998.11,559h68.54V454h-23.3"/>
      <path class="cls-1" d="M1018.54,512.5a18.25,18.25,0,1,0-18.24,18.25A18.24,18.24,0,0,0,1018.54,512.5Z"/>
      <path class="cls-7" d="M1018.54,506.5a18.25,18.25,0,1,0-18.24,18.25A18.24,18.24,0,0,0,1018.54,506.5Z"/>
      <path class="cls-6" d="M624.29,323.25c0-19.43,15.22-23.64,29.11-24.76l306.43-23.3c17.34-1.4,32.68,13.09,34.28,32.36l1.23,34.54"/>
      <path class="cls-6" d="M623.54,321.4c0-15.41,2.86-27.41,19.39-30.94L910,238.79c15.08-3.14,30.53,9.66,34.51,28.59l1.16,9"/>
      <rect class="cls-9" x="667.4" y="454.49" width="255" height="109.55" rx="39" ry="39"/>
    </g>
    <g>
      <line class="Graphic-Style-5" x1="401.4" y1="420.82" x2="472.73" y2="420.82"/>
      <polyline class="Graphic-Style-5" points="408.39 445.3 472.73 445.3 497.97 420.06 564.06 420.06 583.31 400.81 607 400.81"/>
      <line class="Graphic-Style-5" x1="411.4" y1="469.78" x2="527.4" y2="469.78"/>
      <polyline class="Graphic-Style-5" points="472.73 494.26 538.06 494.26 560.24 469.08 607 469.08"/>
      <polyline class="Graphic-Style-5" points="403.39 518.74 484.73 518.74 510.95 544.96"/>
      <line class="cls-10" x1="510.73" y1="445.3" x2="618" y2="445.3"/>
      <line class="Graphic-Style-5" x1="519.4" y1="544.96" x2="607" y2="544.96"/>
      <line class="cls-10" x1="514.06" y1="518.74" x2="607" y2="518.74"/>
    </g>
    <g>
      <polyline class="Graphic-Style-5" points="1091.8 405.21 1134.4 405.21 1176.55 363.06 1203.4 363.06 1318.71 247.75"/>
      <polyline class="Graphic-Style-5" points="1091.8 427.69 1148.4 427.69 1194.27 381.82"/>
      <line class="cls-10" x1="1194.27" y1="343.24" x2="1343.23" y2="194.28"/>
      <polyline class="Graphic-Style-5" points="1141.8 451.82 1160.4 451.82 1232.89 375.33 1232.89 368.4"/>
      <polyline class="Graphic-Style-5" points="1226.4 300.49 1226.4 276.49 1251.93 250.95"/>
      <polyline class="Graphic-Style-5" points="1091.8 476.3 1168.4 476.3 1236.48 408.21 1259.4 408.21 1349.95 317.66"/>
      <polyline class="Graphic-Style-5" points="1105.4 496.9 1125.86 515.37 1204.85 515.37 1257.13 461.08"/>
      <polyline class="cls-10" points="1138.4 492.9 1190.29 492.9 1237.43 445.76 1284.13 399.06"/>
      <line class="Graphic-Style-5" x1="1252.55" y1="362.91" x2="1280.53" y2="334.94"/>
      <polyline class="Graphic-Style-5" points="1243.17 514.97 1219.98 540.16 1091.8 540.16"/>
    </g>
  </g>
</svg>
