<svg id="work" xmlns="http://www.w3.org/2000/svg" viewBox="0 0 1422 870">
  <defs>
    <style>
      .cls-1 {
        fill: #4a4a4a;
      }

      .cls-12, .cls-2, .cls-6 {
        fill: #fff;
      }

      .cls-13, .cls-3 {
        fill: #ebebeb;
      }

      .cls-4, .cls-5 {
        fill: none;
      }

      .cls-10, .cls-11, .cls-12, .cls-13, .cls-4, .cls-5, .cls-6, .cls-7, .cls-8 {
        stroke: #4a4a4a;
        stroke-linejoin: round;
      }

      .cls-10, .cls-11, .cls-12, .cls-13, .cls-4, .cls-5, .cls-6, .cls-7 {
        stroke-linecap: round;
      }

      .cls-10, .cls-4, .cls-8 {
        stroke-width: 4px;
      }

      .cls-11, .cls-12, .cls-13, .cls-5 {
        stroke-width: 2.5px;
      }

      .cls-6, .cls-7 {
        stroke-width: 3px;
      }

      .cls-11, .cls-7 {
        fill: #ff0083;
      }

      .cls-10, .cls-8, .cls-9 {
        fill: #ebeaea;
      }
    </style>
  </defs>
  <title>25,2</title>
  <g>
    <path class="cls-1" d="M1139.4,807.89a1.5,1.5,0,0,0,0-3,1.5,1.5,0,0,0,0,3Z"/>
    <g>
      <path class="cls-2" d="M342.5,807.18v-18.5l12.5-247-6.5.5-5-140.5s5-47.5,35-70c-38.5-81.5-23-107-8.5-118.5s56-17.5,86.5-15c46,6.5,46.5,84.5,47.5,123.5-4.5,7.5-24.5,27-24.5,27,23,40.5,22.5,81.5,23,93.5,14.5,2.5,25.5,4.5,25.5,4.5l18.74-3.12a8,8,0,0,1,9.11,5.92,8.14,8.14,0,0,0,6.44,5.95l16.56,3a7,7,0,0,1,5.71,7.51,8.88,8.88,0,0,1-8.37,8L524,476.68l-18.83,1.17-2.67,63-6.67.67,6.81,243.69a1,1,0,0,0,1,1h8.18a13.34,13.34,0,0,1,13.34,13.34v7.16h-79.5v-20L426.5,620.35,403.33,784.87a1,1,0,0,0,.23.8,1,1,0,0,0,.76.35h4.51A15.17,15.17,0,0,1,424,801.18v6Z"/>
      <g>
        <polygon class="cls-3" points="354.33 540.83 496.07 540.83 502.39 786.37 445.4 786.37 427.04 616.18 403.33 785.84 343.27 785.84 354.33 540.83"/>
        <path class="cls-4" d="M403.33,391.56l50.59,45.2,72,8.38c9.22,10.54,10.56,25.05-1,31.9,0,.53-79.41,2.4-79.41,2.4L378,446"/>
        <path class="cls-4" d="M343.27,785.84l11.06-245h-6.26l-4.8-134.89c0-22.36,11.91-58.72,35.22-75"/>
        <path class="cls-4" d="M504.56,479.68l-2.17,61.15h-6.32l6.32,245.54h7.77a15.42,15.42,0,0,1,15.42,15.41v4.61H445.49v-21.6L427,615.91,403.33,785.05"/>
        <line class="cls-4" x1="343.27" y1="785.84" x2="403.33" y2="785.84"/>
        <line class="cls-4" x1="445.4" y1="785.84" x2="505.47" y2="785.84"/>
        <line class="cls-4" x1="354.33" y1="540.83" x2="496.07" y2="540.83"/>
        <line class="cls-5" x1="427.04" y1="615.91" x2="432.22" y2="580.87"/>
        <path class="cls-4" d="M424.22,806.39h-81V785.84h64a16.91,16.91,0,0,1,16.91,16.91Z"/>
      </g>
      <path class="cls-3" d="M443.66,333.8l11.43-1a30,30,0,0,0,27.37-30.16l-.2-21.07,1.7.07a1.47,1.47,0,0,0,1.07-.41,1.44,1.44,0,0,0,.43-1.05l-.37-33.36a3.13,3.13,0,0,0-3.6-3l-1.42.22-.8-6.81a31,31,0,0,0-30.93-27.38c-4.35,0-9.31,0-14.95.1,6.37-4.33,14.78-7.9,24.21-11.07,56.65,11,46.84,123.72,46.84,123.72L461.62,366,437.28,334.2"/>
      <path class="cls-5" d="M457.6,198.82c-60.41,16.87-76.74,83.47-44.19,147.67L461.62,366"/>
      <line class="cls-5" x1="433.82" y1="355.21" x2="440.3" y2="401.43"/>
      <line class="cls-5" x1="478.37" y1="349.35" x2="484.74" y2="391.56"/>
      <path class="cls-4" d="M478.37,349.35l26.07-26.8c4.27-110.7-34.55-122.14-46.84-123.73-35.17-4.62-89.2,3.51-98.93,28.31-15.29,39.57,25.86,116.08,25.86,116.08"/>
      <path class="cls-6" d="M479.89,240.81l.18,3.18,2.19,37.58,1,16.74a33.13,33.13,0,0,1-31.16,35L424,335a33,33,0,0,1-17.35-3.75A137,137,0,0,1,397,285a98.66,98.66,0,0,1,6.33-38.07,77.23,77.23,0,0,1,28.88-36.5l12.66-.74A33.15,33.15,0,0,1,479.89,240.81Z"/>
      <path class="cls-7" d="M484.66,249.06l.52,13.69.23,5.88h0l.3,7.68a5.15,5.15,0,0,1-3.43,5.25,4,4,0,0,1-1.08.19L397,285a98.45,98.45,0,0,1,6.33-38.07L479.75,244h.33A5,5,0,0,1,484.66,249.06Z"/>
      <g>
        <path class="cls-1" d="M481.9,292a.9.9,0,0,1-.5,1.18.89.89,0,0,1-1.18-.49.91.91,0,1,1,1.68-.69Z"/>
        <path class="cls-1" d="M481.9,292a.9.9,0,0,1-.5,1.18.89.89,0,0,1-1.18-.49.91.91,0,1,1,1.68-.69Z"/>
        <path class="cls-1" d="M475.89,287.92a.91.91,0,1,1-1.19-.49A.91.91,0,0,1,475.89,287.92Z"/>
        <path class="cls-1" d="M481.9,292a.9.9,0,0,1-.5,1.18.89.89,0,0,1-1.18-.49.91.91,0,1,1,1.68-.69Z"/>
        <path class="cls-1" d="M478.18,293.5a.91.91,0,0,1-1.68.69A.91.91,0,0,1,477,293,.9.9,0,0,1,478.18,293.5Z"/>
        <path class="cls-1" d="M478.89,289.94a.91.91,0,1,1-1.18-.49A.9.9,0,0,1,478.89,289.94Z"/>
        <path class="cls-1" d="M475.89,287.92a.91.91,0,1,1-1.19-.49A.91.91,0,0,1,475.89,287.92Z"/>
        <path class="cls-1" d="M480.48,299.07a.91.91,0,1,1-1.19-.5A.92.92,0,0,1,480.48,299.07Z"/>
        <path class="cls-1" d="M481.19,295.52A.91.91,0,1,1,480,295,.91.91,0,0,1,481.19,295.52Z"/>
        <path class="cls-1" d="M481.9,292a.9.9,0,0,1-.5,1.18.89.89,0,0,1-1.18-.49.91.91,0,1,1,1.68-.69Z"/>
        <path class="cls-1" d="M478.18,293.5a.91.91,0,0,1-1.68.69A.91.91,0,0,1,477,293,.9.9,0,0,1,478.18,293.5Z"/>
        <path class="cls-1" d="M480.48,299.07a.91.91,0,1,1-1.19-.5A.92.92,0,0,1,480.48,299.07Z"/>
        <path class="cls-1" d="M475.89,287.92a.91.91,0,1,1-1.19-.49A.91.91,0,0,1,475.89,287.92Z"/>
        <path class="cls-1" d="M472.17,289.46a.91.91,0,1,1-1.68.69.91.91,0,1,1,1.68-.69Z"/>
        <path class="cls-1" d="M478.18,293.5a.91.91,0,0,1-1.68.69A.91.91,0,0,1,477,293,.9.9,0,0,1,478.18,293.5Z"/>
        <path class="cls-1" d="M474.47,295a.91.91,0,1,1-1.19-.5A.92.92,0,0,1,474.47,295Z"/>
        <path class="cls-1" d="M475.18,291.47a.93.93,0,0,1-.49,1.2.91.91,0,1,1,.49-1.2Z"/>
        <path class="cls-1" d="M475.89,287.92a.91.91,0,1,1-1.19-.49A.91.91,0,0,1,475.89,287.92Z"/>
        <path class="cls-1" d="M472.17,289.46a.91.91,0,1,1-1.68.69.91.91,0,1,1,1.68-.69Z"/>
        <path class="cls-1" d="M480.48,299.07a.91.91,0,1,1-1.19-.5A.92.92,0,0,1,480.48,299.07Z"/>
        <path class="cls-1" d="M476.77,300.6a.91.91,0,1,1-1.68.69.89.89,0,0,1,.49-1.18A.9.9,0,0,1,476.77,300.6Z"/>
        <path class="cls-1" d="M477.48,297.05a.91.91,0,1,1-1.19-.5A.92.92,0,0,1,477.48,297.05Z"/>
        <path class="cls-1" d="M478.18,293.5a.91.91,0,0,1-1.68.69A.91.91,0,0,1,477,293,.9.9,0,0,1,478.18,293.5Z"/>
        <path class="cls-1" d="M474.47,295a.91.91,0,1,1-1.19-.5A.92.92,0,0,1,474.47,295Z"/>
        <path class="cls-1" d="M479.06,306.17a.9.9,0,0,1-.49,1.19.91.91,0,1,1-.69-1.68A.9.9,0,0,1,479.06,306.17Z"/>
        <path class="cls-1" d="M479.77,302.62a.91.91,0,1,1-1.68.69.91.91,0,0,1,1.68-.69Z"/>
        <path class="cls-1" d="M480.48,299.07a.91.91,0,1,1-1.19-.5A.92.92,0,0,1,480.48,299.07Z"/>
        <path class="cls-1" d="M476.77,300.6a.91.91,0,1,1-1.68.69.89.89,0,0,1,.49-1.18A.9.9,0,0,1,476.77,300.6Z"/>
        <path class="cls-1" d="M479.06,306.17a.9.9,0,0,1-.49,1.19.91.91,0,1,1-.69-1.68A.9.9,0,0,1,479.06,306.17Z"/>
        <path class="cls-1" d="M472.17,289.46a.91.91,0,1,1-1.68.69.91.91,0,1,1,1.68-.69Z"/>
        <path class="cls-1" d="M468.46,291a.92.92,0,0,1-.49,1.19.91.91,0,1,1,.49-1.19Z"/>
        <path class="cls-1" d="M474.47,295a.91.91,0,1,1-1.19-.5A.92.92,0,0,1,474.47,295Z"/>
        <path class="cls-1" d="M470.76,296.56a.91.91,0,1,1-1.19-.5A.92.92,0,0,1,470.76,296.56Z"/>
        <path class="cls-1" d="M471.46,293a.9.9,0,0,1-.49,1.19.91.91,0,1,1-.69-1.69A.9.9,0,0,1,471.46,293Z"/>
        <path class="cls-1" d="M472.17,289.46a.91.91,0,1,1-1.68.69.91.91,0,1,1,1.68-.69Z"/>
        <path class="cls-1" d="M468.46,291a.92.92,0,0,1-.49,1.19.91.91,0,1,1,.49-1.19Z"/>
        <path class="cls-1" d="M476.77,300.6a.91.91,0,1,1-1.68.69.89.89,0,0,1,.49-1.18A.9.9,0,0,1,476.77,300.6Z"/>
        <path class="cls-1" d="M473.05,302.13a.91.91,0,1,1-1.18-.49A.9.9,0,0,1,473.05,302.13Z"/>
        <path class="cls-1" d="M473.76,298.58a.91.91,0,1,1-1.19-.5A.92.92,0,0,1,473.76,298.58Z"/>
        <path class="cls-1" d="M474.47,295a.91.91,0,1,1-1.19-.5A.92.92,0,0,1,474.47,295Z"/>
        <path class="cls-1" d="M470.76,296.56a.91.91,0,1,1-1.19-.5A.92.92,0,0,1,470.76,296.56Z"/>
        <path class="cls-1" d="M479.06,306.17a.9.9,0,0,1-.49,1.19.91.91,0,1,1-.69-1.68A.9.9,0,0,1,479.06,306.17Z"/>
        <path class="cls-1" d="M475.35,307.7a.91.91,0,1,1-1.19-.49A.91.91,0,0,1,475.35,307.7Z"/>
        <path class="cls-1" d="M476.06,304.15a.91.91,0,1,1-1.19-.49A.91.91,0,0,1,476.06,304.15Z"/>
        <path class="cls-1" d="M476.77,300.6a.91.91,0,1,1-1.68.69.89.89,0,0,1,.49-1.18A.9.9,0,0,1,476.77,300.6Z"/>
        <path class="cls-1" d="M473.05,302.13a.91.91,0,1,1-1.18-.49A.9.9,0,0,1,473.05,302.13Z"/>
        <path class="cls-1" d="M477.65,313.28A.91.91,0,0,1,476,314a.91.91,0,0,1,1.69-.69Z"/>
        <path class="cls-1" d="M478.36,309.72a.91.91,0,0,1-.5,1.19.92.92,0,0,1-1.19-.49.91.91,0,0,1,1.69-.7Z"/>
        <path class="cls-1" d="M479.06,306.17a.9.9,0,0,1-.49,1.19.91.91,0,1,1-.69-1.68A.9.9,0,0,1,479.06,306.17Z"/>
        <path class="cls-1" d="M475.35,307.7a.91.91,0,1,1-1.19-.49A.91.91,0,0,1,475.35,307.7Z"/>
        <path class="cls-1" d="M477.65,313.28A.91.91,0,0,1,476,314a.91.91,0,0,1,1.69-.69Z"/>
        <path class="cls-1" d="M468.46,291a.92.92,0,0,1-.49,1.19.91.91,0,1,1,.49-1.19Z"/>
        <path class="cls-1" d="M464.74,292.52a.91.91,0,1,1-1.18-.5A.91.91,0,0,1,464.74,292.52Z"/>
        <path class="cls-1" d="M470.76,296.56a.91.91,0,1,1-1.19-.5A.92.92,0,0,1,470.76,296.56Z"/>
        <path class="cls-1" d="M467,298.09a.91.91,0,1,1-1.19-.49A.91.91,0,0,1,467,298.09Z"/>
        <path class="cls-1" d="M467.75,294.54a.91.91,0,1,1-1.19-.5A.91.91,0,0,1,467.75,294.54Z"/>
        <path class="cls-1" d="M468.46,291a.92.92,0,0,1-.49,1.19.91.91,0,1,1,.49-1.19Z"/>
        <path class="cls-1" d="M464.74,292.52a.91.91,0,1,1-1.18-.5A.91.91,0,0,1,464.74,292.52Z"/>
        <path class="cls-1" d="M473.05,302.13a.91.91,0,1,1-1.18-.49A.9.9,0,0,1,473.05,302.13Z"/>
        <path class="cls-1" d="M469.34,303.66a.91.91,0,0,1-.49,1.19.93.93,0,0,1-1.2-.49.91.91,0,0,1,1.69-.7Z"/>
        <path class="cls-1" d="M470,300.11a.9.9,0,0,1-.49,1.19.92.92,0,0,1-1.19-.5.91.91,0,0,1,1.68-.69Z"/>
        <path class="cls-1" d="M470.76,296.56a.91.91,0,1,1-1.19-.5A.92.92,0,0,1,470.76,296.56Z"/>
        <path class="cls-1" d="M467,298.09a.91.91,0,1,1-1.19-.49A.91.91,0,0,1,467,298.09Z"/>
        <path class="cls-1" d="M475.35,307.7a.91.91,0,1,1-1.19-.49A.91.91,0,0,1,475.35,307.7Z"/>
        <path class="cls-1" d="M471.63,309.23a.91.91,0,1,1-1.68.7.91.91,0,0,1,1.68-.7Z"/>
        <path class="cls-1" d="M472.34,305.68a.9.9,0,0,1-.49,1.19.91.91,0,1,1-.69-1.68A.91.91,0,0,1,472.34,305.68Z"/>
        <path class="cls-1" d="M473.05,302.13a.91.91,0,1,1-1.18-.49A.9.9,0,0,1,473.05,302.13Z"/>
        <path class="cls-1" d="M469.34,303.66a.91.91,0,0,1-.49,1.19.93.93,0,0,1-1.2-.49.91.91,0,0,1,1.69-.7Z"/>
        <path class="cls-1" d="M477.65,313.28A.91.91,0,0,1,476,314a.91.91,0,0,1,1.69-.69Z"/>
        <path class="cls-1" d="M473.93,314.8a.92.92,0,0,1-.49,1.2.91.91,0,1,1,.49-1.2Z"/>
        <path class="cls-1" d="M474.64,311.26a.91.91,0,1,1-1.19-.5A.91.91,0,0,1,474.64,311.26Z"/>
        <path class="cls-1" d="M475.35,307.7a.91.91,0,1,1-1.19-.49A.91.91,0,0,1,475.35,307.7Z"/>
        <path class="cls-1" d="M471.63,309.23a.91.91,0,1,1-1.68.7.91.91,0,0,1,1.68-.7Z"/>
        <path class="cls-1" d="M476.94,316.83a.91.91,0,1,1-1.19-.5A.92.92,0,0,1,476.94,316.83Z"/>
        <path class="cls-1" d="M477.65,313.28A.91.91,0,0,1,476,314a.91.91,0,0,1,1.69-.69Z"/>
        <path class="cls-1" d="M473.93,314.8a.92.92,0,0,1-.49,1.2.91.91,0,1,1,.49-1.2Z"/>
        <path class="cls-1" d="M464.74,292.52a.91.91,0,1,1-1.18-.5A.91.91,0,0,1,464.74,292.52Z"/>
        <path class="cls-1" d="M461,294.05a.91.91,0,1,1-1.19-.5A.92.92,0,0,1,461,294.05Z"/>
        <path class="cls-1" d="M467,298.09a.91.91,0,1,1-1.19-.49A.91.91,0,0,1,467,298.09Z"/>
        <path class="cls-1" d="M463.33,299.63a.91.91,0,1,1-1.19-.5A.9.9,0,0,1,463.33,299.63Z"/>
        <path class="cls-1" d="M464,296.07a.91.91,0,1,1-1.19-.5A.92.92,0,0,1,464,296.07Z"/>
        <path class="cls-1" d="M464.74,292.52a.91.91,0,1,1-1.18-.5A.91.91,0,0,1,464.74,292.52Z"/>
        <path class="cls-1" d="M461,294.05a.91.91,0,1,1-1.19-.5A.92.92,0,0,1,461,294.05Z"/>
        <path class="cls-1" d="M469.34,303.66a.91.91,0,0,1-.49,1.19.93.93,0,0,1-1.2-.49.91.91,0,0,1,1.69-.7Z"/>
        <path class="cls-1" d="M465.62,305.2a.9.9,0,0,1-.49,1.18.91.91,0,1,1-.69-1.68A.9.9,0,0,1,465.62,305.2Z"/>
        <path class="cls-1" d="M466.33,301.64a.91.91,0,1,1-1.18-.49A.91.91,0,0,1,466.33,301.64Z"/>
        <path class="cls-1" d="M467,298.09a.91.91,0,1,1-1.19-.49A.91.91,0,0,1,467,298.09Z"/>
        <path class="cls-1" d="M463.33,299.63a.91.91,0,1,1-1.19-.5A.9.9,0,0,1,463.33,299.63Z"/>
        <path class="cls-1" d="M471.63,309.23a.91.91,0,1,1-1.68.7.91.91,0,0,1,1.68-.7Z"/>
        <path class="cls-1" d="M467.92,310.77a.91.91,0,1,1-1.19-.5A.91.91,0,0,1,467.92,310.77Z"/>
        <path class="cls-1" d="M469.34,303.66a.91.91,0,0,1-.49,1.19.93.93,0,0,1-1.2-.49.91.91,0,0,1,1.69-.7Z"/>
        <path class="cls-1" d="M465.62,305.2a.9.9,0,0,1-.49,1.18.91.91,0,1,1-.69-1.68A.9.9,0,0,1,465.62,305.2Z"/>
        <path class="cls-1" d="M473.93,314.8a.92.92,0,0,1-.49,1.2.91.91,0,1,1,.49-1.2Z"/>
        <path class="cls-1" d="M470.22,316.34a.91.91,0,0,1-.5,1.19.9.9,0,0,1-1.18-.5.92.92,0,0,1,.49-1.19A.91.91,0,0,1,470.22,316.34Z"/>
        <path class="cls-1" d="M470.93,312.79a.9.9,0,0,1-.5,1.18.91.91,0,1,1,.5-1.18Z"/>
        <path class="cls-1" d="M471.63,309.23a.91.91,0,1,1-1.68.7.91.91,0,0,1,1.68-.7Z"/>
        <path class="cls-1" d="M467.92,310.77a.91.91,0,1,1-1.19-.5A.91.91,0,0,1,467.92,310.77Z"/>
        <path class="cls-1" d="M472.51,321.91a.91.91,0,1,1-1.18-.49A.89.89,0,0,1,472.51,321.91Z"/>
        <path class="cls-1" d="M473.22,318.36a.92.92,0,0,1-.49,1.19.91.91,0,1,1,.49-1.19Z"/>
        <path class="cls-1" d="M473.93,314.8a.92.92,0,0,1-.49,1.2.91.91,0,1,1,.49-1.2Z"/>
        <path class="cls-1" d="M470.22,316.34a.91.91,0,0,1-.5,1.19.9.9,0,0,1-1.18-.5.92.92,0,0,1,.49-1.19A.91.91,0,0,1,470.22,316.34Z"/>
        <path class="cls-1" d="M472.51,321.91a.91.91,0,1,1-1.18-.49A.89.89,0,0,1,472.51,321.91Z"/>
        <path class="cls-1" d="M455,290a.91.91,0,0,1-.49,1.19.92.92,0,0,1-1.2-.5.91.91,0,0,1,.5-1.18A.9.9,0,0,1,455,290Z"/>
        <path class="cls-1" d="M461,294.05a.91.91,0,1,1-1.19-.5A.92.92,0,0,1,461,294.05Z"/>
        <path class="cls-1" d="M457.32,295.58a.91.91,0,0,1-1.69.7.91.91,0,1,1,1.69-.7Z"/>
        <path class="cls-1" d="M458,292a.9.9,0,0,1-.49,1.19.91.91,0,0,1-1.19-.49.92.92,0,0,1,.5-1.2A.91.91,0,0,1,458,292Z"/>
        <path class="cls-1" d="M455,290a.91.91,0,0,1-.49,1.19.92.92,0,0,1-1.2-.5.91.91,0,0,1,.5-1.18A.9.9,0,0,1,455,290Z"/>
        <path class="cls-1" d="M463.33,299.63a.91.91,0,1,1-1.19-.5A.9.9,0,0,1,463.33,299.63Z"/>
        <path class="cls-1" d="M459.61,301.15a.91.91,0,1,1-1.18-.49A.91.91,0,0,1,459.61,301.15Z"/>
        <path class="cls-1" d="M460.32,297.6a.91.91,0,1,1-1.19-.49A.91.91,0,0,1,460.32,297.6Z"/>
        <path class="cls-1" d="M461,294.05a.91.91,0,1,1-1.19-.5A.92.92,0,0,1,461,294.05Z"/>
        <path class="cls-1" d="M457.32,295.58a.91.91,0,0,1-1.69.7.91.91,0,1,1,1.69-.7Z"/>
        <path class="cls-1" d="M465.62,305.2a.9.9,0,0,1-.49,1.18.91.91,0,1,1-.69-1.68A.9.9,0,0,1,465.62,305.2Z"/>
        <path class="cls-1" d="M461.91,306.73a.91.91,0,1,1-1.19-.5A.91.91,0,0,1,461.91,306.73Z"/>
        <path class="cls-1" d="M462.62,303.17a.91.91,0,1,1-1.19-.49A.91.91,0,0,1,462.62,303.17Z"/>
        <path class="cls-1" d="M463.33,299.63a.91.91,0,1,1-1.19-.5A.9.9,0,0,1,463.33,299.63Z"/>
        <path class="cls-1" d="M459.61,301.15a.91.91,0,1,1-1.18-.49A.91.91,0,0,1,459.61,301.15Z"/>
        <path class="cls-1" d="M467.92,310.77a.91.91,0,1,1-1.19-.5A.91.91,0,0,1,467.92,310.77Z"/>
        <path class="cls-1" d="M464.21,312.3a.91.91,0,1,1-1.19-.5A.91.91,0,0,1,464.21,312.3Z"/>
        <path class="cls-1" d="M465.62,305.2a.9.9,0,0,1-.49,1.18.91.91,0,1,1-.69-1.68A.9.9,0,0,1,465.62,305.2Z"/>
        <path class="cls-1" d="M461.91,306.73a.91.91,0,1,1-1.19-.5A.91.91,0,0,1,461.91,306.73Z"/>
        <path class="cls-1" d="M470.22,316.34a.91.91,0,0,1-.5,1.19.9.9,0,0,1-1.18-.5.92.92,0,0,1,.49-1.19A.91.91,0,0,1,470.22,316.34Z"/>
        <path class="cls-1" d="M466.5,317.87a.91.91,0,1,1-1.18-.5A.9.9,0,0,1,466.5,317.87Z"/>
        <path class="cls-1" d="M467.21,314.32a.91.91,0,0,1-1.68.69.91.91,0,1,1,1.68-.69Z"/>
        <path class="cls-1" d="M467.92,310.77a.91.91,0,1,1-1.19-.5A.91.91,0,0,1,467.92,310.77Z"/>
        <path class="cls-1" d="M464.21,312.3a.91.91,0,1,1-1.19-.5A.91.91,0,0,1,464.21,312.3Z"/>
        <path class="cls-1" d="M472.51,321.91a.91.91,0,1,1-1.18-.49A.89.89,0,0,1,472.51,321.91Z"/>
        <path class="cls-1" d="M468.8,323.44a.91.91,0,1,1-1.68.69.91.91,0,0,1,1.68-.69Z"/>
        <path class="cls-1" d="M469.51,319.89a.91.91,0,1,1-1.69.69.92.92,0,0,1,.5-1.19A.91.91,0,0,1,469.51,319.89Z"/>
        <path class="cls-1" d="M470.22,316.34a.91.91,0,0,1-.5,1.19.9.9,0,0,1-1.18-.5.92.92,0,0,1,.49-1.19A.91.91,0,0,1,470.22,316.34Z"/>
        <path class="cls-1" d="M466.5,317.87a.91.91,0,1,1-1.18-.5A.9.9,0,0,1,466.5,317.87Z"/>
        <path class="cls-1" d="M472.51,321.91a.91.91,0,1,1-1.18-.49A.89.89,0,0,1,472.51,321.91Z"/>
        <path class="cls-1" d="M468.8,323.44a.91.91,0,1,1-1.68.69.91.91,0,0,1,1.68-.69Z"/>
        <path class="cls-1" d="M455,290a.91.91,0,0,1-.49,1.19.92.92,0,0,1-1.2-.5.91.91,0,0,1,.5-1.18A.9.9,0,0,1,455,290Z"/>
        <path class="cls-1" d="M451.31,291.54a.91.91,0,1,1-1.19-.49A.91.91,0,0,1,451.31,291.54Z"/>
        <path class="cls-1" d="M457.32,295.58a.91.91,0,0,1-1.69.7.91.91,0,1,1,1.69-.7Z"/>
        <path class="cls-1" d="M453.6,297.11a.91.91,0,1,1-1.19-.49A.91.91,0,0,1,453.6,297.11Z"/>
        <path class="cls-1" d="M454.31,293.56a.91.91,0,1,1-1.19-.49A.91.91,0,0,1,454.31,293.56Z"/>
        <path class="cls-1" d="M455,290a.91.91,0,0,1-.49,1.19.92.92,0,0,1-1.2-.5.91.91,0,0,1,.5-1.18A.9.9,0,0,1,455,290Z"/>
        <path class="cls-1" d="M451.31,291.54a.91.91,0,1,1-1.19-.49A.91.91,0,0,1,451.31,291.54Z"/>
        <path class="cls-1" d="M459.61,301.15a.91.91,0,1,1-1.18-.49A.91.91,0,0,1,459.61,301.15Z"/>
        <path class="cls-1" d="M455.9,302.69a.91.91,0,0,1-1.68.69.91.91,0,1,1,1.68-.69Z"/>
        <path class="cls-1" d="M456.61,299.13a.91.91,0,0,1-.5,1.19.92.92,0,0,1-1.19-.49.91.91,0,0,1,1.69-.7Z"/>
        <path class="cls-1" d="M457.32,295.58a.91.91,0,0,1-1.69.7.91.91,0,1,1,1.69-.7Z"/>
        <path class="cls-1" d="M453.6,297.11a.91.91,0,1,1-1.19-.49A.91.91,0,0,1,453.6,297.11Z"/>
        <path class="cls-1" d="M461.91,306.73a.91.91,0,1,1-1.19-.5A.91.91,0,0,1,461.91,306.73Z"/>
        <path class="cls-1" d="M458.9,304.7a.9.9,0,0,1-.49,1.19.91.91,0,1,1-.69-1.68A.91.91,0,0,1,458.9,304.7Z"/>
        <path class="cls-1" d="M459.61,301.15a.91.91,0,1,1-1.18-.49A.91.91,0,0,1,459.61,301.15Z"/>
        <path class="cls-1" d="M455.9,302.69a.91.91,0,0,1-1.68.69.91.91,0,1,1,1.68-.69Z"/>
        <path class="cls-1" d="M464.21,312.3a.91.91,0,1,1-1.19-.5A.91.91,0,0,1,464.21,312.3Z"/>
        <path class="cls-1" d="M460.49,313.83a.91.91,0,0,1-1.68.69.91.91,0,1,1,1.68-.69Z"/>
        <path class="cls-1" d="M461.91,306.73a.91.91,0,1,1-1.19-.5A.91.91,0,0,1,461.91,306.73Z"/>
        <path class="cls-1" d="M466.5,317.87a.91.91,0,1,1-1.18-.5A.9.9,0,0,1,466.5,317.87Z"/>
        <path class="cls-1" d="M462.79,319.4a.91.91,0,1,1-1.68.69.91.91,0,0,1,1.68-.69Z"/>
        <path class="cls-1" d="M463.5,315.85a.91.91,0,0,1-1.69.69.91.91,0,1,1,1.69-.69Z"/>
        <path class="cls-1" d="M464.21,312.3a.91.91,0,1,1-1.19-.5A.91.91,0,0,1,464.21,312.3Z"/>
        <path class="cls-1" d="M460.49,313.83a.91.91,0,0,1-1.68.69.91.91,0,1,1,1.68-.69Z"/>
        <path class="cls-1" d="M468.8,323.44a.91.91,0,1,1-1.68.69.91.91,0,0,1,1.68-.69Z"/>
        <path class="cls-1" d="M465.09,325a.91.91,0,1,1-1.69.69.9.9,0,0,1,.5-1.18A.92.92,0,0,1,465.09,325Z"/>
        <path class="cls-1" d="M465.8,321.42a.91.91,0,0,1-1.69.69.9.9,0,0,1,.5-1.18A.91.91,0,0,1,465.8,321.42Z"/>
        <path class="cls-1" d="M466.5,317.87a.91.91,0,1,1-1.18-.5A.9.9,0,0,1,466.5,317.87Z"/>
        <path class="cls-1" d="M462.79,319.4a.91.91,0,1,1-1.68.69.91.91,0,0,1,1.68-.69Z"/>
        <path class="cls-1" d="M468.8,323.44a.91.91,0,1,1-1.68.69.91.91,0,0,1,1.68-.69Z"/>
        <path class="cls-1" d="M465.09,325a.91.91,0,1,1-1.69.69.9.9,0,0,1,.5-1.18A.92.92,0,0,1,465.09,325Z"/>
        <path class="cls-1" d="M451.31,291.54a.91.91,0,1,1-1.19-.49A.91.91,0,0,1,451.31,291.54Z"/>
        <path class="cls-1" d="M447.59,293.07a.91.91,0,1,1-1.68.69.9.9,0,0,1,.49-1.18A.91.91,0,0,1,447.59,293.07Z"/>
        <path class="cls-1" d="M448.3,289.52a.91.91,0,0,1-.5,1.19.92.92,0,0,1-1.19-.49.91.91,0,0,1,.5-1.19A.9.9,0,0,1,448.3,289.52Z"/>
        <path class="cls-1" d="M453.6,297.11a.91.91,0,1,1-1.19-.49A.91.91,0,0,1,453.6,297.11Z"/>
        <path class="cls-1" d="M449.89,298.64a.91.91,0,0,1-1.69.7.91.91,0,0,1,1.69-.7Z"/>
        <path class="cls-1" d="M450.6,295.09a.91.91,0,1,1-1.19-.49A.91.91,0,0,1,450.6,295.09Z"/>
        <path class="cls-1" d="M451.31,291.54a.91.91,0,1,1-1.19-.49A.91.91,0,0,1,451.31,291.54Z"/>
        <path class="cls-1" d="M447.59,293.07a.91.91,0,1,1-1.68.69.9.9,0,0,1,.49-1.18A.91.91,0,0,1,447.59,293.07Z"/>
        <path class="cls-1" d="M455.9,302.69a.91.91,0,0,1-1.68.69.91.91,0,1,1,1.68-.69Z"/>
        <path class="cls-1" d="M452.19,304.22a.91.91,0,1,1-1.2-.5A.92.92,0,0,1,452.19,304.22Z"/>
        <path class="cls-1" d="M452.89,300.66a.91.91,0,1,1-1.19-.49A.9.9,0,0,1,452.89,300.66Z"/>
        <path class="cls-1" d="M453.6,297.11a.91.91,0,1,1-1.19-.49A.91.91,0,0,1,453.6,297.11Z"/>
        <path class="cls-1" d="M449.89,298.64a.91.91,0,0,1-1.69.7.91.91,0,0,1,1.69-.7Z"/>
        <path class="cls-1" d="M455.9,302.69a.91.91,0,0,1-1.68.69.91.91,0,1,1,1.68-.69Z"/>
        <path class="cls-1" d="M452.19,304.22a.91.91,0,1,1-1.2-.5A.92.92,0,0,1,452.19,304.22Z"/>
        <path class="cls-1" d="M460.49,313.83a.91.91,0,0,1-1.68.69.91.91,0,1,1,1.68-.69Z"/>
        <path class="cls-1" d="M456.78,315.36a.91.91,0,0,1-1.69.69.91.91,0,1,1,1.69-.69Z"/>
        <path class="cls-1" d="M462.79,319.4a.91.91,0,1,1-1.68.69.91.91,0,0,1,1.68-.69Z"/>
        <path class="cls-1" d="M459.07,320.93a.9.9,0,0,1-.49,1.19.91.91,0,1,1-.69-1.68A.9.9,0,0,1,459.07,320.93Z"/>
        <path class="cls-1" d="M459.78,317.38a.91.91,0,1,1-1.68.69.91.91,0,1,1,1.68-.69Z"/>
        <path class="cls-1" d="M460.49,313.83a.91.91,0,0,1-1.68.69.91.91,0,1,1,1.68-.69Z"/>
        <path class="cls-1" d="M456.78,315.36a.91.91,0,0,1-1.69.69.91.91,0,1,1,1.69-.69Z"/>
        <path class="cls-1" d="M465.09,325a.91.91,0,1,1-1.69.69.9.9,0,0,1,.5-1.18A.92.92,0,0,1,465.09,325Z"/>
        <path class="cls-1" d="M461.37,326.5a.91.91,0,1,1-1.19-.49A.91.91,0,0,1,461.37,326.5Z"/>
        <path class="cls-1" d="M462.08,323a.91.91,0,1,1-1.19-.49A.91.91,0,0,1,462.08,323Z"/>
        <path class="cls-1" d="M462.79,319.4a.91.91,0,1,1-1.68.69.91.91,0,0,1,1.68-.69Z"/>
        <path class="cls-1" d="M459.07,320.93a.9.9,0,0,1-.49,1.19.91.91,0,1,1-.69-1.68A.9.9,0,0,1,459.07,320.93Z"/>
        <path class="cls-1" d="M465.09,325a.91.91,0,1,1-1.69.69.9.9,0,0,1,.5-1.18A.92.92,0,0,1,465.09,325Z"/>
        <path class="cls-1" d="M461.37,326.5a.91.91,0,1,1-1.19-.49A.91.91,0,0,1,461.37,326.5Z"/>
        <path class="cls-1" d="M441.58,289a.91.91,0,1,1-1.68.69.9.9,0,0,1,.49-1.18A.91.91,0,0,1,441.58,289Z"/>
        <path class="cls-1" d="M447.59,293.07a.91.91,0,1,1-1.68.69.9.9,0,0,1,.49-1.18A.91.91,0,0,1,447.59,293.07Z"/>
        <path class="cls-1" d="M443.87,294.6a.9.9,0,0,1-.49,1.19.92.92,0,0,1-1.19-.5.91.91,0,0,1,1.68-.69Z"/>
        <path class="cls-1" d="M444.59,291.05a.91.91,0,0,1-1.69.7.91.91,0,1,1,1.69-.7Z"/>
        <path class="cls-1" d="M441.58,289a.91.91,0,1,1-1.68.69.9.9,0,0,1,.49-1.18A.91.91,0,0,1,441.58,289Z"/>
        <path class="cls-1" d="M449.89,298.64a.91.91,0,0,1-1.69.7.91.91,0,0,1,1.69-.7Z"/>
        <path class="cls-1" d="M446.17,300.17a.91.91,0,1,1-1.19-.49A.91.91,0,0,1,446.17,300.17Z"/>
        <path class="cls-1" d="M446.88,296.63a.91.91,0,1,1-1.19-.5A.91.91,0,0,1,446.88,296.63Z"/>
        <path class="cls-1" d="M447.59,293.07a.91.91,0,1,1-1.68.69.9.9,0,0,1,.49-1.18A.91.91,0,0,1,447.59,293.07Z"/>
        <path class="cls-1" d="M443.87,294.6a.9.9,0,0,1-.49,1.19.92.92,0,0,1-1.19-.5.91.91,0,0,1,1.68-.69Z"/>
        <path class="cls-1" d="M452.19,304.22a.91.91,0,1,1-1.2-.5A.92.92,0,0,1,452.19,304.22Z"/>
        <path class="cls-1" d="M449.18,302.19a.91.91,0,1,1-1.19-.49A.91.91,0,0,1,449.18,302.19Z"/>
        <path class="cls-1" d="M449.89,298.64a.91.91,0,0,1-1.69.7.91.91,0,0,1,1.69-.7Z"/>
        <path class="cls-1" d="M446.17,300.17a.91.91,0,1,1-1.19-.49A.91.91,0,0,1,446.17,300.17Z"/>
        <path class="cls-1" d="M452.19,304.22a.91.91,0,1,1-1.2-.5A.92.92,0,0,1,452.19,304.22Z"/>
        <path class="cls-1" d="M456.78,315.36a.91.91,0,0,1-1.69.69.91.91,0,1,1,1.69-.69Z"/>
        <path class="cls-1" d="M453.06,316.89a.91.91,0,0,1-.5,1.19.9.9,0,0,1-1.18-.5.92.92,0,0,1,.49-1.19A.91.91,0,0,1,453.06,316.89Z"/>
        <path class="cls-1" d="M459.07,320.93a.9.9,0,0,1-.49,1.19.91.91,0,1,1-.69-1.68A.9.9,0,0,1,459.07,320.93Z"/>
        <path class="cls-1" d="M455.36,322.46a.91.91,0,1,1-1.19-.49A.91.91,0,0,1,455.36,322.46Z"/>
        <path class="cls-1" d="M456.07,318.91a.91.91,0,0,1-1.69.7.91.91,0,1,1,1.69-.7Z"/>
        <path class="cls-1" d="M456.78,315.36a.91.91,0,0,1-1.69.69.91.91,0,1,1,1.69-.69Z"/>
        <path class="cls-1" d="M453.06,316.89a.91.91,0,0,1-.5,1.19.9.9,0,0,1-1.18-.5.92.92,0,0,1,.49-1.19A.91.91,0,0,1,453.06,316.89Z"/>
        <path class="cls-1" d="M461.37,326.5a.91.91,0,1,1-1.19-.49A.91.91,0,0,1,461.37,326.5Z"/>
        <path class="cls-1" d="M457.66,328a.91.91,0,1,1-1.19-.49A.92.92,0,0,1,457.66,328Z"/>
        <path class="cls-1" d="M458.37,324.48a.91.91,0,1,1-1.19-.49A.92.92,0,0,1,458.37,324.48Z"/>
        <path class="cls-1" d="M459.07,320.93a.9.9,0,0,1-.49,1.19.91.91,0,1,1-.69-1.68A.9.9,0,0,1,459.07,320.93Z"/>
        <path class="cls-1" d="M455.36,322.46a.91.91,0,1,1-1.19-.49A.91.91,0,0,1,455.36,322.46Z"/>
        <path class="cls-1" d="M461.37,326.5a.91.91,0,1,1-1.19-.49A.91.91,0,0,1,461.37,326.5Z"/>
        <path class="cls-1" d="M457.66,328a.91.91,0,1,1-1.19-.49A.92.92,0,0,1,457.66,328Z"/>
        <path class="cls-1" d="M441.58,289a.91.91,0,1,1-1.68.69.9.9,0,0,1,.49-1.18A.91.91,0,0,1,441.58,289Z"/>
        <path class="cls-1" d="M437.87,290.56a.91.91,0,1,1-1.19-.49A.92.92,0,0,1,437.87,290.56Z"/>
        <path class="cls-1" d="M443.87,294.6a.9.9,0,0,1-.49,1.19.92.92,0,0,1-1.19-.5.91.91,0,0,1,1.68-.69Z"/>
        <path class="cls-1" d="M440.16,296.13a.91.91,0,1,1-1.19-.49A.91.91,0,0,1,440.16,296.13Z"/>
        <path class="cls-1" d="M440.87,292.58a.91.91,0,1,1-1.68.7.91.91,0,0,1,1.68-.7Z"/>
        <path class="cls-1" d="M441.58,289a.91.91,0,1,1-1.68.69.9.9,0,0,1,.49-1.18A.91.91,0,0,1,441.58,289Z"/>
        <path class="cls-1" d="M437.87,290.56a.91.91,0,1,1-1.19-.49A.92.92,0,0,1,437.87,290.56Z"/>
        <path class="cls-1" d="M446.17,300.17a.91.91,0,1,1-1.19-.49A.91.91,0,0,1,446.17,300.17Z"/>
        <path class="cls-1" d="M443.17,298.15a.91.91,0,1,1-1.19-.49A.91.91,0,0,1,443.17,298.15Z"/>
        <path class="cls-1" d="M443.87,294.6a.9.9,0,0,1-.49,1.19.92.92,0,0,1-1.19-.5.91.91,0,0,1,1.68-.69Z"/>
        <path class="cls-1" d="M440.16,296.13a.91.91,0,1,1-1.19-.49A.91.91,0,0,1,440.16,296.13Z"/>
        <path class="cls-1" d="M446.17,300.17a.91.91,0,1,1-1.19-.49A.91.91,0,0,1,446.17,300.17Z"/>
        <path class="cls-1" d="M445.46,303.72a.92.92,0,0,1-.49,1.2.91.91,0,1,1,.49-1.2Z"/>
        <path class="cls-1" d="M448.47,305.75a.9.9,0,0,1-.5,1.18.89.89,0,0,1-1.18-.49.91.91,0,1,1,1.68-.69Z"/>
        <path class="cls-1" d="M441.75,305.26a.91.91,0,1,1-1.19-.5A.91.91,0,0,1,441.75,305.26Z"/>
        <path class="cls-1" d="M442.46,301.71a.91.91,0,0,1-1.69.69.91.91,0,0,1,1.69-.69Z"/>
        <path class="cls-1" d="M444.76,307.28a.91.91,0,1,1-1.2-.5A.92.92,0,0,1,444.76,307.28Z"/>
        <path class="cls-1" d="M438.12,306.75a.91.91,0,1,1-1.19-.49A.91.91,0,0,1,438.12,306.75Z"/>
        <path class="cls-1" d="M441.13,308.78a.9.9,0,0,1-.5,1.18.91.91,0,1,1,.5-1.18Z"/>
        <path class="cls-1" d="M438.74,303.24a.92.92,0,0,1-.49,1.19.91.91,0,1,1,.49-1.19Z"/>
        <path class="cls-1" d="M458.2,308.26a.91.91,0,1,1-1.19-.5A.91.91,0,0,1,458.2,308.26Z"/>
        <path class="cls-1" d="M461.2,310.28a.91.91,0,1,1-1.68.69.91.91,0,0,1,1.68-.69Z"/>
        <path class="cls-1" d="M464.92,308.75a.92.92,0,0,1-.5,1.19.91.91,0,1,1-.69-1.69A.92.92,0,0,1,464.92,308.75Z"/>
        <path class="cls-1" d="M468.63,307.22a.91.91,0,0,1-1.68.69.91.91,0,1,1,1.68-.69Z"/>
        <path class="cls-1" d="M455.19,306.24a.92.92,0,0,1-.5,1.19.91.91,0,0,1-.69-1.69A.92.92,0,0,1,455.19,306.24Z"/>
        <path class="cls-1" d="M454.48,309.79a.91.91,0,1,1-1.19-.5A.91.91,0,0,1,454.48,309.79Z"/>
        <path class="cls-1" d="M457.49,311.81a.91.91,0,0,1-1.69.7.91.91,0,1,1,1.69-.7Z"/>
        <path class="cls-1" d="M450.77,311.32a.91.91,0,1,1-1.19-.5A.92.92,0,0,1,450.77,311.32Z"/>
        <path class="cls-1" d="M451.48,307.77a.91.91,0,1,1-1.2-.5A.92.92,0,0,1,451.48,307.77Z"/>
        <path class="cls-1" d="M453.77,313.34a.91.91,0,1,1-1.19-.49A.9.9,0,0,1,453.77,313.34Z"/>
        <path class="cls-1" d="M447.76,309.3a.91.91,0,1,1-1.68.69.91.91,0,1,1,1.68-.69Z"/>
        <path class="cls-1" d="M447.05,312.85a.91.91,0,1,1-1.68.69.91.91,0,0,1,1.68-.69Z"/>
        <path class="cls-1" d="M453.06,316.89a.91.91,0,0,1-.5,1.19.9.9,0,0,1-1.18-.5.92.92,0,0,1,.49-1.19A.91.91,0,0,1,453.06,316.89Z"/>
        <path class="cls-1" d="M449.35,318.42a.91.91,0,0,1-.5,1.19.91.91,0,1,1,.5-1.19Z"/>
        <path class="cls-1" d="M450.06,314.87a.91.91,0,1,1-1.19-.49A.91.91,0,0,1,450.06,314.87Z"/>
        <path class="cls-1" d="M447.05,312.85a.91.91,0,1,1-1.68.69.91.91,0,0,1,1.68-.69Z"/>
        <path class="cls-1" d="M455.36,322.46a.91.91,0,1,1-1.19-.49A.91.91,0,0,1,455.36,322.46Z"/>
        <path class="cls-1" d="M451.65,324a.91.91,0,1,1-1.19-.49A.92.92,0,0,1,451.65,324Z"/>
        <path class="cls-1" d="M452.36,320.44a.91.91,0,0,1-1.69.69.91.91,0,0,1,.49-1.18A.92.92,0,0,1,452.36,320.44Z"/>
        <path class="cls-1" d="M453.06,316.89a.91.91,0,0,1-.5,1.19.9.9,0,0,1-1.18-.5.92.92,0,0,1,.49-1.19A.91.91,0,0,1,453.06,316.89Z"/>
        <path class="cls-1" d="M449.35,318.42a.91.91,0,0,1-.5,1.19.91.91,0,1,1,.5-1.19Z"/>
        <path class="cls-1" d="M457.66,328a.91.91,0,1,1-1.19-.49A.92.92,0,0,1,457.66,328Z"/>
        <path class="cls-1" d="M453.94,329.56a.91.91,0,1,1-1.19-.49A.91.91,0,0,1,453.94,329.56Z"/>
        <path class="cls-1" d="M454.65,326a.91.91,0,0,1-.49,1.19.91.91,0,0,1-.7-1.68A.91.91,0,0,1,454.65,326Z"/>
        <path class="cls-1" d="M455.36,322.46a.91.91,0,1,1-1.19-.49A.91.91,0,0,1,455.36,322.46Z"/>
        <path class="cls-1" d="M451.65,324a.91.91,0,1,1-1.19-.49A.92.92,0,0,1,451.65,324Z"/>
        <path class="cls-1" d="M457.66,328a.91.91,0,1,1-1.19-.49A.92.92,0,0,1,457.66,328Z"/>
        <path class="cls-1" d="M453.94,329.56a.91.91,0,1,1-1.19-.49A.91.91,0,0,1,453.94,329.56Z"/>
        <path class="cls-1" d="M437.87,290.56a.91.91,0,1,1-1.19-.49A.92.92,0,0,1,437.87,290.56Z"/>
        <path class="cls-1" d="M434.15,292.09a.91.91,0,1,1-1.19-.49A.91.91,0,0,1,434.15,292.09Z"/>
        <path class="cls-1" d="M440.16,296.13a.91.91,0,1,1-1.19-.49A.91.91,0,0,1,440.16,296.13Z"/>
        <path class="cls-1" d="M436.45,297.67a.91.91,0,1,1-1.19-.5A.92.92,0,0,1,436.45,297.67Z"/>
        <path class="cls-1" d="M437.16,294.12a.91.91,0,1,1-1.19-.5A.91.91,0,0,1,437.16,294.12Z"/>
        <path class="cls-1" d="M437.87,290.56a.91.91,0,1,1-1.19-.49A.92.92,0,0,1,437.87,290.56Z"/>
        <path class="cls-1" d="M434.15,292.09a.91.91,0,1,1-1.19-.49A.91.91,0,0,1,434.15,292.09Z"/>
        <path class="cls-1" d="M439.45,299.69a.91.91,0,1,1-1.18-.5A.91.91,0,0,1,439.45,299.69Z"/>
        <path class="cls-1" d="M440.16,296.13a.91.91,0,1,1-1.19-.49A.91.91,0,0,1,440.16,296.13Z"/>
        <path class="cls-1" d="M436.45,297.67a.91.91,0,1,1-1.19-.5A.92.92,0,0,1,436.45,297.67Z"/>
        <path class="cls-1" d="M447.05,312.85a.91.91,0,1,1-1.68.69.91.91,0,0,1,1.68-.69Z"/>
        <path class="cls-1" d="M443.34,314.38a.91.91,0,0,1-.5,1.19.92.92,0,0,1-1.19-.49.91.91,0,0,1,1.69-.7Z"/>
        <path class="cls-1" d="M449.35,318.42a.91.91,0,0,1-.5,1.19.91.91,0,1,1,.5-1.19Z"/>
        <path class="cls-1" d="M445.63,320a.91.91,0,0,1-1.68.69.91.91,0,0,1,.49-1.19A.9.9,0,0,1,445.63,320Z"/>
        <path class="cls-1" d="M446.34,316.4a.91.91,0,1,1-1.18-.49A.9.9,0,0,1,446.34,316.4Z"/>
        <path class="cls-1" d="M447.05,312.85a.91.91,0,1,1-1.68.69.91.91,0,0,1,1.68-.69Z"/>
        <path class="cls-1" d="M443.34,314.38a.91.91,0,0,1-.5,1.19.92.92,0,0,1-1.19-.49.91.91,0,0,1,1.69-.7Z"/>
        <path class="cls-1" d="M451.65,324a.91.91,0,1,1-1.19-.49A.92.92,0,0,1,451.65,324Z"/>
        <path class="cls-1" d="M447.93,325.53a.91.91,0,1,1-1.19-.5A.92.92,0,0,1,447.93,325.53Z"/>
        <path class="cls-1" d="M448.64,322a.91.91,0,1,1-1.19-.5A.93.93,0,0,1,448.64,322Z"/>
        <path class="cls-1" d="M449.35,318.42a.91.91,0,0,1-.5,1.19.91.91,0,1,1,.5-1.19Z"/>
        <path class="cls-1" d="M445.63,320a.91.91,0,0,1-1.68.69.91.91,0,0,1,.49-1.19A.9.9,0,0,1,445.63,320Z"/>
        <path class="cls-1" d="M453.94,329.56a.91.91,0,1,1-1.19-.49A.91.91,0,0,1,453.94,329.56Z"/>
        <path class="cls-1" d="M450.94,327.54a.91.91,0,1,1-1.19-.49A.92.92,0,0,1,450.94,327.54Z"/>
        <path class="cls-1" d="M451.65,324a.91.91,0,1,1-1.19-.49A.92.92,0,0,1,451.65,324Z"/>
        <path class="cls-1" d="M447.93,325.53a.91.91,0,1,1-1.19-.5A.92.92,0,0,1,447.93,325.53Z"/>
        <path class="cls-1" d="M453.94,329.56a.91.91,0,1,1-1.19-.49A.91.91,0,0,1,453.94,329.56Z"/>
        <path class="cls-1" d="M434.15,292.09a.91.91,0,1,1-1.19-.49A.91.91,0,0,1,434.15,292.09Z"/>
        <path class="cls-1" d="M430.44,293.62a.92.92,0,0,1-.5,1.19.9.9,0,0,1-1.19-.49.91.91,0,0,1,1.69-.7Z"/>
        <path class="cls-1" d="M436.45,297.67a.91.91,0,1,1-1.19-.5A.92.92,0,0,1,436.45,297.67Z"/>
        <path class="cls-1" d="M432.73,299.2a.91.91,0,1,1-1.19-.5A.91.91,0,0,1,432.73,299.2Z"/>
        <path class="cls-1" d="M433.44,295.65a.91.91,0,0,1-1.68.69.91.91,0,1,1,1.68-.69Z"/>
        <path class="cls-1" d="M434.15,292.09a.91.91,0,1,1-1.19-.49A.91.91,0,0,1,434.15,292.09Z"/>
        <path class="cls-1" d="M430.44,293.62a.92.92,0,0,1-.5,1.19.9.9,0,0,1-1.19-.49.91.91,0,0,1,1.69-.7Z"/>
        <path class="cls-1" d="M435,304.77a.91.91,0,1,1-1.19-.5A.92.92,0,0,1,435,304.77Z"/>
        <path class="cls-1" d="M435.74,301.22a.9.9,0,0,1-.5,1.18.89.89,0,0,1-1.18-.49.9.9,0,0,1,.49-1.19A.91.91,0,0,1,435.74,301.22Z"/>
        <path class="cls-1" d="M436.45,297.67a.91.91,0,1,1-1.19-.5A.92.92,0,0,1,436.45,297.67Z"/>
        <path class="cls-1" d="M432.73,299.2a.91.91,0,1,1-1.19-.5A.91.91,0,0,1,432.73,299.2Z"/>
        <path class="cls-1" d="M437.33,310.34a.91.91,0,1,1-1.19-.49A.91.91,0,0,1,437.33,310.34Z"/>
        <path class="cls-1" d="M435,304.77a.91.91,0,1,1-1.19-.5A.92.92,0,0,1,435,304.77Z"/>
        <path class="cls-1" d="M443.34,314.38a.91.91,0,0,1-.5,1.19.92.92,0,0,1-1.19-.49.91.91,0,0,1,1.69-.7Z"/>
        <path class="cls-1" d="M439.62,315.91a.91.91,0,1,1-1.19-.49A.91.91,0,0,1,439.62,315.91Z"/>
        <path class="cls-1" d="M440.33,312.36a.91.91,0,1,1-1.68.69.91.91,0,0,1,1.68-.69Z"/>
        <path class="cls-1" d="M444.05,310.83a.91.91,0,0,1-1.69.69.9.9,0,0,1,.5-1.18A.91.91,0,0,1,444.05,310.83Z"/>
        <path class="cls-1" d="M437.33,310.34a.91.91,0,1,1-1.19-.49A.91.91,0,0,1,437.33,310.34Z"/>
        <path class="cls-1" d="M445.63,320a.91.91,0,0,1-1.68.69.91.91,0,0,1,.49-1.19A.9.9,0,0,1,445.63,320Z"/>
        <path class="cls-1" d="M441.92,321.48a.91.91,0,0,1-1.68.7.91.91,0,0,1,1.68-.7Z"/>
        <path class="cls-1" d="M442.63,317.93a.91.91,0,0,1-.5,1.19.91.91,0,1,1,.5-1.19Z"/>
        <path class="cls-1" d="M443.34,314.38a.91.91,0,0,1-.5,1.19.92.92,0,0,1-1.19-.49.91.91,0,0,1,1.69-.7Z"/>
        <path class="cls-1" d="M439.62,315.91a.91.91,0,1,1-1.19-.49A.91.91,0,0,1,439.62,315.91Z"/>
        <path class="cls-1" d="M447.93,325.53a.91.91,0,1,1-1.19-.5A.92.92,0,0,1,447.93,325.53Z"/>
        <path class="cls-1" d="M444.22,327.06a.91.91,0,1,1-1.19-.5A.92.92,0,0,1,444.22,327.06Z"/>
        <path class="cls-1" d="M444.92,323.5a.9.9,0,0,1-.49,1.19.91.91,0,1,1-.69-1.68A.91.91,0,0,1,444.92,323.5Z"/>
        <path class="cls-1" d="M445.63,320a.91.91,0,0,1-1.68.69.91.91,0,0,1,.49-1.19A.9.9,0,0,1,445.63,320Z"/>
        <path class="cls-1" d="M441.92,321.48a.91.91,0,0,1-1.68.7.91.91,0,0,1,1.68-.7Z"/>
        <path class="cls-1" d="M447.22,329.08a.92.92,0,0,1-.49,1.19.91.91,0,1,1,.49-1.19Z"/>
        <path class="cls-1" d="M447.93,325.53a.91.91,0,1,1-1.19-.5A.92.92,0,0,1,447.93,325.53Z"/>
        <path class="cls-1" d="M444.22,327.06a.91.91,0,1,1-1.19-.5A.92.92,0,0,1,444.22,327.06Z"/>
        <path class="cls-1" d="M430.44,293.62a.92.92,0,0,1-.5,1.19.9.9,0,0,1-1.19-.49.91.91,0,0,1,1.69-.7Z"/>
        <path class="cls-1" d="M426.72,295.15a.91.91,0,1,1-1.19-.49A.91.91,0,0,1,426.72,295.15Z"/>
        <path class="cls-1" d="M432.73,299.2a.91.91,0,1,1-1.19-.5A.91.91,0,0,1,432.73,299.2Z"/>
        <path class="cls-1" d="M429,300.73a.91.91,0,1,1-1.19-.5A.92.92,0,0,1,429,300.73Z"/>
        <path class="cls-1" d="M429.73,297.18a.91.91,0,1,1-1.19-.5A.91.91,0,0,1,429.73,297.18Z"/>
        <path class="cls-1" d="M430.44,293.62a.92.92,0,0,1-.5,1.19.9.9,0,0,1-1.19-.49.91.91,0,0,1,1.69-.7Z"/>
        <path class="cls-1" d="M426.72,295.15a.91.91,0,1,1-1.19-.49A.91.91,0,0,1,426.72,295.15Z"/>
        <path class="cls-1" d="M435,304.77a.91.91,0,1,1-1.19-.5A.92.92,0,0,1,435,304.77Z"/>
        <path class="cls-1" d="M431.31,306.3a.9.9,0,0,1-.49,1.19.91.91,0,1,1,.49-1.19Z"/>
        <path class="cls-1" d="M432,302.75a.91.91,0,1,1-1.18-.5A.91.91,0,0,1,432,302.75Z"/>
        <path class="cls-1" d="M432.73,299.2a.91.91,0,1,1-1.19-.5A.91.91,0,0,1,432.73,299.2Z"/>
        <path class="cls-1" d="M429,300.73a.91.91,0,1,1-1.19-.5A.92.92,0,0,1,429,300.73Z"/>
        <path class="cls-1" d="M437.33,310.34a.91.91,0,1,1-1.19-.49A.91.91,0,0,1,437.33,310.34Z"/>
        <path class="cls-1" d="M433.61,311.87a.91.91,0,1,1-1.19-.49A.91.91,0,0,1,433.61,311.87Z"/>
        <path class="cls-1" d="M434.32,308.32a.91.91,0,1,1-1.19-.5A.91.91,0,0,1,434.32,308.32Z"/>
        <path class="cls-1" d="M435,304.77a.91.91,0,1,1-1.19-.5A.92.92,0,0,1,435,304.77Z"/>
        <path class="cls-1" d="M431.31,306.3a.9.9,0,0,1-.49,1.19.91.91,0,1,1,.49-1.19Z"/>
        <path class="cls-1" d="M439.62,315.91a.91.91,0,1,1-1.19-.49A.91.91,0,0,1,439.62,315.91Z"/>
        <path class="cls-1" d="M435.91,317.44a.91.91,0,1,1-1.19-.49A.91.91,0,0,1,435.91,317.44Z"/>
        <path class="cls-1" d="M436.62,313.89a.91.91,0,1,1-1.19-.49A.92.92,0,0,1,436.62,313.89Z"/>
        <path class="cls-1" d="M437.33,310.34a.91.91,0,1,1-1.19-.49A.91.91,0,0,1,437.33,310.34Z"/>
        <path class="cls-1" d="M433.61,311.87a.91.91,0,1,1-1.19-.49A.91.91,0,0,1,433.61,311.87Z"/>
        <path class="cls-1" d="M441.92,321.48a.91.91,0,0,1-1.68.7.91.91,0,0,1,1.68-.7Z"/>
        <path class="cls-1" d="M438.21,323a.92.92,0,0,1-.5,1.19.91.91,0,1,1-.69-1.68A.92.92,0,0,1,438.21,323Z"/>
        <path class="cls-1" d="M438.91,319.46a.91.91,0,1,1-1.18-.49A.91.91,0,0,1,438.91,319.46Z"/>
        <path class="cls-1" d="M439.62,315.91a.91.91,0,1,1-1.19-.49A.91.91,0,0,1,439.62,315.91Z"/>
        <path class="cls-1" d="M435.91,317.44a.91.91,0,1,1-1.19-.49A.91.91,0,0,1,435.91,317.44Z"/>
        <path class="cls-1" d="M444.22,327.06a.91.91,0,1,1-1.19-.5A.92.92,0,0,1,444.22,327.06Z"/>
        <path class="cls-1" d="M440.5,328.59a.91.91,0,1,1-1.19-.5A.92.92,0,0,1,440.5,328.59Z"/>
        <path class="cls-1" d="M441.21,325a.91.91,0,1,1-1.19-.5A.91.91,0,0,1,441.21,325Z"/>
        <path class="cls-1" d="M441.92,321.48a.91.91,0,0,1-1.68.7.91.91,0,0,1,1.68-.7Z"/>
        <path class="cls-1" d="M438.21,323a.92.92,0,0,1-.5,1.19.91.91,0,1,1-.69-1.68A.92.92,0,0,1,438.21,323Z"/>
        <path class="cls-1" d="M443.51,330.61a.91.91,0,1,1-1.19-.5A.91.91,0,0,1,443.51,330.61Z"/>
        <path class="cls-1" d="M444.22,327.06a.91.91,0,1,1-1.19-.5A.92.92,0,0,1,444.22,327.06Z"/>
        <path class="cls-1" d="M440.5,328.59a.91.91,0,1,1-1.19-.5A.92.92,0,0,1,440.5,328.59Z"/>
        <path class="cls-1" d="M426.72,295.15a.91.91,0,1,1-1.19-.49A.91.91,0,0,1,426.72,295.15Z"/>
        <path class="cls-1" d="M429,300.73a.91.91,0,1,1-1.19-.5A.92.92,0,0,1,429,300.73Z"/>
        <path class="cls-1" d="M425.3,302.26a.91.91,0,1,1-1.19-.49A.9.9,0,0,1,425.3,302.26Z"/>
        <path class="cls-1" d="M426,298.71a.91.91,0,1,1-1.19-.5A.91.91,0,0,1,426,298.71Z"/>
        <path class="cls-1" d="M426.72,295.15a.91.91,0,1,1-1.19-.49A.91.91,0,0,1,426.72,295.15Z"/>
        <path class="cls-1" d="M431.31,306.3a.9.9,0,0,1-.49,1.19.91.91,0,1,1,.49-1.19Z"/>
        <path class="cls-1" d="M427.6,307.83a.91.91,0,1,1-1.19-.5A.91.91,0,0,1,427.6,307.83Z"/>
        <path class="cls-1" d="M428.31,304.28a.91.91,0,1,1-1.68.69.89.89,0,0,1,.49-1.18A.9.9,0,0,1,428.31,304.28Z"/>
        <path class="cls-1" d="M429,300.73a.91.91,0,1,1-1.19-.5A.92.92,0,0,1,429,300.73Z"/>
        <path class="cls-1" d="M425.3,302.26a.91.91,0,1,1-1.19-.49A.9.9,0,0,1,425.3,302.26Z"/>
        <path class="cls-1" d="M433.61,311.87a.91.91,0,1,1-1.19-.49A.91.91,0,0,1,433.61,311.87Z"/>
        <path class="cls-1" d="M429.9,313.4a.91.91,0,0,1-1.68.7.9.9,0,0,1,.49-1.19A.92.92,0,0,1,429.9,313.4Z"/>
        <path class="cls-1" d="M430.61,309.85a.91.91,0,1,1-1.19-.49A.91.91,0,0,1,430.61,309.85Z"/>
        <path class="cls-1" d="M431.31,306.3a.9.9,0,0,1-.49,1.19.91.91,0,1,1,.49-1.19Z"/>
        <path class="cls-1" d="M427.6,307.83a.91.91,0,1,1-1.19-.5A.91.91,0,0,1,427.6,307.83Z"/>
        <path class="cls-1" d="M435.91,317.44a.91.91,0,1,1-1.19-.49A.91.91,0,0,1,435.91,317.44Z"/>
        <path class="cls-1" d="M432.2,319a.92.92,0,0,1-.5,1.19.91.91,0,0,1-.7-1.68A.93.93,0,0,1,432.2,319Z"/>
        <path class="cls-1" d="M432.9,315.42a.91.91,0,1,1-1.19-.49A.9.9,0,0,1,432.9,315.42Z"/>
        <path class="cls-1" d="M433.61,311.87a.91.91,0,1,1-1.19-.49A.91.91,0,0,1,433.61,311.87Z"/>
        <path class="cls-1" d="M429.9,313.4a.91.91,0,0,1-1.68.7.9.9,0,0,1,.49-1.19A.92.92,0,0,1,429.9,313.4Z"/>
        <path class="cls-1" d="M438.21,323a.92.92,0,0,1-.5,1.19.91.91,0,1,1-.69-1.68A.92.92,0,0,1,438.21,323Z"/>
        <path class="cls-1" d="M434.49,324.54a.91.91,0,0,1-.5,1.19.9.9,0,0,1-1.18-.49.91.91,0,0,1,1.68-.7Z"/>
        <path class="cls-1" d="M435.2,321a.91.91,0,0,1-.5,1.19.9.9,0,0,1-1.18-.49.91.91,0,0,1,1.68-.7Z"/>
        <path class="cls-1" d="M435.91,317.44a.91.91,0,1,1-1.19-.49A.91.91,0,0,1,435.91,317.44Z"/>
        <path class="cls-1" d="M432.2,319a.92.92,0,0,1-.5,1.19.91.91,0,0,1-.7-1.68A.93.93,0,0,1,432.2,319Z"/>
        <path class="cls-1" d="M440.5,328.59a.91.91,0,1,1-1.19-.5A.92.92,0,0,1,440.5,328.59Z"/>
        <path class="cls-1" d="M436.79,330.12a.91.91,0,0,1-.5,1.19.9.9,0,0,1-1.18-.5.89.89,0,0,1,.49-1.18A.9.9,0,0,1,436.79,330.12Z"/>
        <path class="cls-1" d="M437.5,326.57a.91.91,0,1,1-1.19-.5A.91.91,0,0,1,437.5,326.57Z"/>
        <path class="cls-1" d="M438.21,323a.92.92,0,0,1-.5,1.19.91.91,0,1,1-.69-1.68A.92.92,0,0,1,438.21,323Z"/>
        <path class="cls-1" d="M434.49,324.54a.91.91,0,0,1-.5,1.19.9.9,0,0,1-1.18-.49.91.91,0,0,1,1.68-.7Z"/>
        <path class="cls-1" d="M440.5,328.59a.91.91,0,1,1-1.19-.5A.92.92,0,0,1,440.5,328.59Z"/>
        <path class="cls-1" d="M436.79,330.12a.91.91,0,0,1-.5,1.19.9.9,0,0,1-1.18-.5.89.89,0,0,1,.49-1.18A.9.9,0,0,1,436.79,330.12Z"/>
        <path class="cls-1" d="M425.3,302.26a.91.91,0,1,1-1.19-.49A.9.9,0,0,1,425.3,302.26Z"/>
        <path class="cls-1" d="M421.59,303.79a.91.91,0,1,1-1.19-.49A.91.91,0,0,1,421.59,303.79Z"/>
        <path class="cls-1" d="M422.3,300.24a.91.91,0,1,1-1.68.69.9.9,0,0,1,.49-1.19A.92.92,0,0,1,422.3,300.24Z"/>
        <path class="cls-1" d="M427.6,307.83a.91.91,0,1,1-1.19-.5A.91.91,0,0,1,427.6,307.83Z"/>
        <path class="cls-1" d="M423.89,309.36a.91.91,0,0,1-1.69.69.9.9,0,0,1,.5-1.18A.91.91,0,0,1,423.89,309.36Z"/>
        <path class="cls-1" d="M424.59,305.81a.91.91,0,1,1-1.68.7.91.91,0,1,1,1.68-.7Z"/>
        <path class="cls-1" d="M425.3,302.26a.91.91,0,1,1-1.19-.49A.9.9,0,0,1,425.3,302.26Z"/>
        <path class="cls-1" d="M421.59,303.79a.91.91,0,1,1-1.19-.49A.91.91,0,0,1,421.59,303.79Z"/>
        <path class="cls-1" d="M429.9,313.4a.91.91,0,0,1-1.68.7.9.9,0,0,1,.49-1.19A.92.92,0,0,1,429.9,313.4Z"/>
        <path class="cls-1" d="M426.18,314.94a.91.91,0,1,1-1.19-.5A.91.91,0,0,1,426.18,314.94Z"/>
        <path class="cls-1" d="M426.89,311.38a.91.91,0,1,1-1.19-.49A.91.91,0,0,1,426.89,311.38Z"/>
        <path class="cls-1" d="M427.6,307.83a.91.91,0,1,1-1.19-.5A.91.91,0,0,1,427.6,307.83Z"/>
        <path class="cls-1" d="M423.89,309.36a.91.91,0,0,1-1.69.69.9.9,0,0,1,.5-1.18A.91.91,0,0,1,423.89,309.36Z"/>
        <path class="cls-1" d="M432.2,319a.92.92,0,0,1-.5,1.19.91.91,0,0,1-.7-1.68A.93.93,0,0,1,432.2,319Z"/>
        <path class="cls-1" d="M428.48,320.51a.91.91,0,1,1-1.19-.5A.91.91,0,0,1,428.48,320.51Z"/>
        <path class="cls-1" d="M429.19,317a.91.91,0,1,1-1.19-.5A.91.91,0,0,1,429.19,317Z"/>
        <path class="cls-1" d="M429.9,313.4a.91.91,0,0,1-1.68.7.9.9,0,0,1,.49-1.19A.92.92,0,0,1,429.9,313.4Z"/>
        <path class="cls-1" d="M426.18,314.94a.91.91,0,1,1-1.19-.5A.91.91,0,0,1,426.18,314.94Z"/>
        <path class="cls-1" d="M434.49,324.54a.91.91,0,0,1-.5,1.19.9.9,0,0,1-1.18-.49.91.91,0,0,1,1.68-.7Z"/>
        <path class="cls-1" d="M430.78,326.08a.91.91,0,0,1-.5,1.18.9.9,0,0,1-1.19-.49.91.91,0,1,1,1.69-.69Z"/>
        <path class="cls-1" d="M431.48,322.53a.91.91,0,0,1-.49,1.19.91.91,0,0,1-.7-1.69A.91.91,0,0,1,431.48,322.53Z"/>
        <path class="cls-1" d="M432.2,319a.92.92,0,0,1-.5,1.19.91.91,0,0,1-.7-1.68A.93.93,0,0,1,432.2,319Z"/>
        <path class="cls-1" d="M428.48,320.51a.91.91,0,1,1-1.19-.5A.91.91,0,0,1,428.48,320.51Z"/>
        <path class="cls-1" d="M436.79,330.12a.91.91,0,0,1-.5,1.19.9.9,0,0,1-1.18-.5.89.89,0,0,1,.49-1.18A.9.9,0,0,1,436.79,330.12Z"/>
        <path class="cls-1" d="M433.78,328.1a.92.92,0,0,1-.49,1.19.91.91,0,1,1,.49-1.19Z"/>
        <path class="cls-1" d="M434.49,324.54a.91.91,0,0,1-.5,1.19.9.9,0,0,1-1.18-.49.91.91,0,0,1,1.68-.7Z"/>
        <path class="cls-1" d="M430.78,326.08a.91.91,0,0,1-.5,1.18.9.9,0,0,1-1.19-.49.91.91,0,1,1,1.69-.69Z"/>
        <path class="cls-1" d="M436.79,330.12a.91.91,0,0,1-.5,1.19.9.9,0,0,1-1.18-.5.89.89,0,0,1,.49-1.18A.9.9,0,0,1,436.79,330.12Z"/>
        <path class="cls-1" d="M421.59,303.79a.91.91,0,1,1-1.19-.49A.91.91,0,0,1,421.59,303.79Z"/>
        <path class="cls-1" d="M423.89,309.36a.91.91,0,0,1-1.69.69.9.9,0,0,1,.5-1.18A.91.91,0,0,1,423.89,309.36Z"/>
        <path class="cls-1" d="M421.59,303.79a.91.91,0,1,1-1.19-.49A.91.91,0,0,1,421.59,303.79Z"/>
        <path class="cls-1" d="M420.88,307.34a.91.91,0,1,1-1.19-.49A.91.91,0,0,1,420.88,307.34Z"/>
        <path class="cls-1" d="M426.18,314.94a.91.91,0,1,1-1.19-.5A.91.91,0,0,1,426.18,314.94Z"/>
        <path class="cls-1" d="M422.47,316.47a.91.91,0,1,1-1.19-.5A.9.9,0,0,1,422.47,316.47Z"/>
        <path class="cls-1" d="M423.18,312.91a.91.91,0,0,1-.5,1.19.92.92,0,0,1-1.19-.49.91.91,0,0,1,1.69-.7Z"/>
        <path class="cls-1" d="M423.89,309.36a.91.91,0,0,1-1.69.69.9.9,0,0,1,.5-1.18A.91.91,0,0,1,423.89,309.36Z"/>
        <path class="cls-1" d="M428.48,320.51a.91.91,0,1,1-1.19-.5A.91.91,0,0,1,428.48,320.51Z"/>
        <path class="cls-1" d="M424.77,322a.91.91,0,1,1-1.19-.5A.92.92,0,0,1,424.77,322Z"/>
        <path class="cls-1" d="M425.47,318.48a.91.91,0,1,1-1.18-.49A.9.9,0,0,1,425.47,318.48Z"/>
        <path class="cls-1" d="M426.18,314.94a.91.91,0,1,1-1.19-.5A.91.91,0,0,1,426.18,314.94Z"/>
        <path class="cls-1" d="M422.47,316.47a.91.91,0,1,1-1.19-.5A.9.9,0,0,1,422.47,316.47Z"/>
        <path class="cls-1" d="M430.78,326.08a.91.91,0,0,1-.5,1.18.9.9,0,0,1-1.19-.49.91.91,0,1,1,1.69-.69Z"/>
        <path class="cls-1" d="M427.77,324.06a.92.92,0,0,1-.49,1.19.91.91,0,1,1,.49-1.19Z"/>
        <path class="cls-1" d="M428.48,320.51a.91.91,0,1,1-1.19-.5A.91.91,0,0,1,428.48,320.51Z"/>
        <path class="cls-1" d="M424.77,322a.91.91,0,1,1-1.19-.5A.92.92,0,0,1,424.77,322Z"/>
        <path class="cls-1" d="M430.78,326.08a.91.91,0,0,1-.5,1.18.9.9,0,0,1-1.19-.49.91.91,0,1,1,1.69-.69Z"/>
        <path class="cls-1" d="M422.47,316.47a.91.91,0,1,1-1.19-.5A.9.9,0,0,1,422.47,316.47Z"/>
        <path class="cls-1" d="M424.77,322a.91.91,0,1,1-1.19-.5A.92.92,0,0,1,424.77,322Z"/>
        <path class="cls-1" d="M422.47,316.47a.91.91,0,1,1-1.19-.5A.9.9,0,0,1,422.47,316.47Z"/>
        <path class="cls-1" d="M424.77,322a.91.91,0,1,1-1.19-.5A.92.92,0,0,1,424.77,322Z"/>
      </g>
      <g>
        <g>
          <path class="cls-6" d="M431.49,259.29l27.68-7.13s7.4,17.69-9.21,22S431.49,259.29,431.49,259.29Z"/>
          <path class="cls-1" d="M456.09,260.48A4.21,4.21,0,1,0,453.8,266,4.22,4.22,0,0,0,456.09,260.48Z"/>
        </g>
        <g>
          <path class="cls-6" d="M485.18,262.75l.23,5.88h0c-2.51,3.2-6.89,6.42-13.08,2.44-9.79-6.31-3.53-18.23-3.53-18.23Z"/>
          <path class="cls-1" d="M481.09,260a4.21,4.21,0,1,0-2.28,5.5A4.19,4.19,0,0,0,481.09,260Z"/>
        </g>
      </g>
      <path class="cls-6" d="M443.81,308.66s33.65-18.38,28.78-1.1c-1.77,6.26-6.17-2-13.81,3.42s-15.88,8.83-14.25-.64"/>
      <polyline class="cls-5" points="437.28 334.2 461.62 366.02 478.37 349.35"/>
      <path class="cls-4" d="M479.64,348.05c20.18,37.21,22.75,93.61,22.75,93.61"/>
      <path class="cls-5" d="M527.42,476.46l49-2.11a8.17,8.17,0,0,0,1.15-16.18l-12.11-2.31a14,14,0,0,1-8.49-5.23l-1.9-2.49a11.44,11.44,0,0,0-10.65-4.36l-18.49,2.56"/>
    </g>
    <g>
      <g>
        <path class="cls-8" d="M1057.33,511.78l36.61-.36L1104.58,547a3.75,3.75,0,0,1-3.62,4.82l-55.08.55a53.83,53.83,0,0,0,11.45-40.55"/>
        <path class="cls-9" d="M1054.29,331.87c5-12.41,19.43-15.58,23.52-15.62l3.88,0c19-.19,33.77,14.86,34,33.9l1.33,134.1c.18,19-14.26,34-33.29,34.17l-3.87,0a39,39,0,0,1-9.7-1.07"/>
        <path class="cls-4" d="M1053.87,331.2c5.05-12.41,19.42-16.26,23.52-16.3l3.88,0c19-.19,35.12,16.2,35.31,35.23l1.32,134.11c.19,19-15.59,35.34-34.62,35.52l-3.88,0a28.35,28.35,0,0,1-8.18-1.19"/>
      </g>
      <path class="cls-2" d="M898.4,806.39s-1.27-20.54,22-24.32c9.66,0,9.66.78,9.66.78l16.67-245.08h-8.19l1-83.13-17.84,20.13L829.11,466l-7.67-1.82-6.8.67-17.42-19.73.36-8.92,5.19-3.76-2.1-28s1.89-10,9.15-4.59,22.11,38.31,22.11,38.31l2.37-5.26,56.22-4.78s24.5-80.23,37.77-91.67a47.32,47.32,0,0,1,27.84-11.56h95.26s7.35-1.12,14.94,4.69,24,9.75,25.31,45,0,63.89,0,63.89-3.16,32.16-12,35.48c1.36,3.93,1.68,54.51,1.68,54.51s-.82,8.65-11,8.92c4,16.23,20.66,244.69,20.66,244.69l-1.34,24.32h-80.29s.21-24.78,29.05-24.78L1011.88,597.8,982.32,781.61l.28,24.78Z"/>
      <polygon class="cls-9" points="1012.79 591.16 1000.26 591.16 970.81 782.07 983.33 782.07 1012.79 591.16"/>
      <path class="cls-2" d="M1071.49,328.16m-35.32-4.25,2.82-10.17-.84-30.89c0-.12.3-.25.4-.39.18-.3.36-.65.54-1,5.17-9.6,6.34-33.26,3.55-46.14-1.86-8.57-9.25-28.71-37.46-31.54-15.66-1.56-26,2.91-38.52,11.14-7.3,4.81-14.91-3.38-15.23-3.72a3,3,0,0,0-2.91-.9,3.21,3.21,0,0,0-2.29,2.14c-6.68,20.2-1.31,57.3,4.39,66.86.22.37.19.72.41,1,0,0,0,.05,0,.07l.52,29.31c.07,3.71,3.46,11.83,4.58,15.17"/>
      <polygon class="cls-9" points="1087.93 781.39 1075.24 781.39 1056.36 537.1 1069.05 536.3 1087.93 781.39"/>
      <path class="cls-4" d="M1010.92,806.39h79.71l.39-24.32h-58.09c-11.89-.16-21.74,6.19-21.9,18.08Z"/>
      <path class="cls-4" d="M899.32,806.39H982.6l.73-24.32H921.67c-11.89-.3-21.85,6.91-22.15,18.8Z"/>
      <line class="cls-5" x1="945.36" y1="537.78" x2="1070.36" y2="537.78"/>
      <line class="cls-5" x1="938.52" y1="453.34" x2="938.52" y2="390.93"/>
      <g>
        <g>
          <path class="cls-4" d="M1038.5,276.72l.32,32.93c.18,17.79-15.24,33.26-33,33.44l-21.64.21c-17.8.17-31.41-15-31.59-32.8l-.38-38.33"/>
          <path class="cls-10" d="M1006.5,204.38c-15.3-2.1-25.43,1.57-39,9.82C957,220.59,947.3,209,947.3,209c-7.43,21.19-.52,61.72,4.94,68.68l-.13-12.6c-.09-8.87,5.11-22.3,13-20.79,26.65,5.13,30-13.91,56.41-1.78,6.93,3.18,9,15.29,10.76,25.22.81,4.46,5.31,12.58,5.31,12.58l0,1c5.36-8.14,7.06-32.82,4.52-45.67C1039.44,222.23,1029.6,207.54,1006.5,204.38Z"/>
          <g>
            <path class="cls-5" d="M964.15,285.08a9,9,0,0,1,18-.17"/>
            <path class="cls-5" d="M999.2,284.74a9,9,0,0,1,18-.18"/>
          </g>
          <path class="cls-5" d="M975,309c18.45,16.93,33.91-.33,33.91-.33"/>
        </g>
        <path class="cls-4" d="M1067.84,245.09c-.37-37.78-27.41-64.09-65.18-63.72l-14.16.14c-37.78.37-72,27.29-71.62,65.06l.71,71.77h0c.22,22.33,34.8,41.45,76.48,41s74.7-20.19,74.48-42.52h0Z"/>
      </g>
      <g>
        <path class="cls-11" d="M1006.69,452.48a10.73,10.73,0,0,1-7.82,13l-35.13,8.76a10.72,10.72,0,0,1-13-7.81l-20-80a10.74,10.74,0,0,1,7.82-13l35.13-8.76a10.74,10.74,0,0,1,13,7.82Z"/>
        <path class="cls-12" d="M1014,446.13l-26.74-14.3a10.29,10.29,0,0,0-14.69,6.05l-4.73,15.33a10.29,10.29,0,0,0,8.47,13.22l37.56,5.06"/>
        <path class="cls-5" d="M1049.58,396.68l-.15,30.7a13.2,13.2,0,0,1-13.27,13.15l-22.14-.11-.18,34.64,58.34-.65c7.21,0,14.29-6,16.77-11"/>
        <path class="cls-2" d="M974.73,425.53l-3.66.83c-.45-2-.9-3.95-1.36-6L967,421c-.21.05-.13.22-.1.35l1.29,5.68-3.66.83c-.46-2-.92-4-1.38-6.09l-7.29,1.65c0-.06-.05-.08-.05-.1-.08-1.4-.15-2.8-.24-4.2,0-.21.11-.22.25-.25l2.24-.51a1.38,1.38,0,0,0,1.17-1.89q-1.79-7.86-3.56-15.72a1.86,1.86,0,0,0-2.28-1.53c-.6.1-1.21.24-1.81.36l-1.09.25c-.3-1.31-.59-2.58-.88-3.88l7.3-1.66c-.46-2-.9-4-1.35-6l3.66-.83c.42,1.86.85,3.73,1.26,5.59,0,.22.13.28.35.22l1.89-.47.69-.15a1,1,0,0,0,0-.13l-1.29-5.72,3.66-.83c0,.13,0,.25.07.38.38,1.68.77,3.37,1.15,5.05.13.58.13.58.74.51a14.93,14.93,0,0,1,5,.09,5.83,5.83,0,0,1,3.8,2.41,7.57,7.57,0,0,1,1.19,3.22,5.38,5.38,0,0,1-1.72,5l-.33.31.21.05a20.22,20.22,0,0,1,2,.29,5.4,5.4,0,0,1,3.71,2.82,10.09,10.09,0,0,1,1,4.89,7,7,0,0,1-1.32,4.05,9.57,9.57,0,0,1-3.91,2.95c-1.21.53-2.49.92-3.74,1.35-.27.1-.33.2-.26.47.13.47.23,1,.34,1.45C974.08,422.69,974.4,424.11,974.73,425.53Zm-8.86-8.95c1.13-.26,2.21-.47,3.27-.75a13.71,13.71,0,0,0,4.12-1.68,4.05,4.05,0,0,0,1.83-2.06,3.4,3.4,0,0,0-2.21-4.34,8.38,8.38,0,0,0-4.1-.19c-1.45.26-2.89.6-4.34.89-.32.07-.39.18-.31.5.56,2.41,1.1,4.84,1.65,7.26C965.81,416.32,965.83,416.43,965.87,416.58Zm-3.48-15.36c.25,1.13.51,2.25.76,3.38,0,.18.08.3.31.25a20.31,20.31,0,0,0,5.38-1.7,4.16,4.16,0,0,0,2-2,3.28,3.28,0,0,0-1.49-4,5.69,5.69,0,0,0-3.49-.44c-1.34.2-2.66.53-4,.79-.26.05-.27.17-.22.39C961.89,399,962.14,400.12,962.39,401.22Z"/>
      </g>
      <path class="cls-4" d="M954.05,324.89h0c-24,.24-33.93,19.65-42.81,45-6.06,17.3-20.72,58.23-20.72,58.23l-57.88,5.4-5,32.56,94,8.72,16.88-21.44"/>
      <path class="cls-5" d="M825.93,464.84l-5.57.94c-3.64.61-4.88-.27-7.85-2.45a13.66,13.66,0,0,1-5.44-9.14l-6.28-45.51c-.63-4.62,0-8.91,4.59-9.71a8.2,8.2,0,0,1,8.84,4.57l15.93,33.69"/>
      <path class="cls-12" d="M812.94,436.14l-9-3a5.08,5.08,0,0,0-6.35,3h0c-2.18,5.75-1,9.74,3.13,14.32l12.22,13.66"/>
      <path class="cls-4" d="M938.52,453.54v84.24h8.19L930,782.07h52.21l29.85-191.7,27.45,191.7h51.52l-19.31-244.85c3.76,0,10.46-4,10.39-10.75l-1.27-53.56c10.16-3.63,10.84-18.81,10.76-37s-1.15-70.9-1.15-70.9c-.22-22.66-20-41-42.61-40.78l-11.71-.34"/>
    </g>
    <g>
      <path class="cls-12" d="M845.69,181.46a41,41,0,0,1-26.45,38.32v96.08l-9,4.27-20.06-10.67V219.78a41,41,0,1,1,55.47-38.32Z"/>
      <polyline class="cls-5" points="798.33 232.66 807.08 241.41 807.08 313.31"/>
      <path class="cls-3" d="M819.66,181.68A14.93,14.93,0,1,1,790,179.44a14.93,14.93,0,0,0,29.53,0A15,15,0,0,1,819.66,181.68Z"/>
      <path class="cls-13" d="M819.67,177.2a14.94,14.94,0,1,0-14.94,14.93A14.94,14.94,0,0,0,819.67,177.2Z"/>
      <polygon class="cls-13" points="793.63 272.73 798.33 275.45 798.33 297.03 790.22 301.71 790.22 253.42 790.44 252.99 801.9 264.45 793.63 272.73"/>
    </g>
    <g>
      <path class="cls-12" d="M1196.83,98.48a41,41,0,0,1-26.45,38.31v96.09l-9,4.26-20.06-10.66V136.79a41,41,0,1,1,55.47-38.31Z"/>
      <polyline class="cls-5" points="1149.47 149.68 1158.22 158.43 1158.22 230.32"/>
      <path class="cls-3" d="M1170.8,98.69a14.93,14.93,0,1,1-29.69-2.24,14.93,14.93,0,0,0,29.53,0A15,15,0,0,1,1170.8,98.69Z"/>
      <circle class="cls-13" cx="1155.87" cy="94.21" r="14.93" transform="translate(1027.75 1246.82) rotate(-88.32)"/>
      <polygon class="cls-13" points="1144.77 189.74 1149.47 192.46 1149.47 214.04 1141.37 218.73 1141.37 170.44 1141.58 170 1153.05 181.47 1144.77 189.74"/>
    </g>
    <line class="cls-4" x1="173.4" y1="806.39" x2="1230.07" y2="806.39"/>
  </g>
</svg>
