<svg id="work" xmlns="http://www.w3.org/2000/svg" viewBox="0 0 1422 870">
  <defs>
    <style>
      .cls-1, .cls-14, .cls-15, .cls-19, .cls-9 {
        fill: #ebebeb;
      }

      .cls-12, .cls-16, .cls-18, .cls-2, .cls-5, .cls-6 {
        fill: #fff;
      }

      .cls-10, .cls-11, .cls-3 {
        fill: #ff0083;
      }

      .cls-13, .cls-17, .cls-20, .cls-22, .cls-4, .cls-7, .cls-8 {
        fill: none;
      }

      .cls-10, .cls-11, .cls-12, .cls-13, .cls-14, .cls-15, .cls-16, .cls-17, .cls-18, .cls-19, .cls-20, .cls-4, .cls-5, .cls-6, .cls-7, .cls-9 {
        stroke: #4a4a4a;
      }

      .cls-10, .cls-14, .cls-17, .cls-18, .cls-22, .cls-4, .cls-5, .cls-6, .cls-7, .cls-8, .cls-9 {
        stroke-linecap: round;
      }

      .cls-10, .cls-13, .cls-14, .cls-18, .cls-22, .cls-4, .cls-5, .cls-6, .cls-7, .cls-8, .cls-9 {
        stroke-linejoin: round;
      }

      .cls-12, .cls-14, .cls-20, .cls-4, .cls-5 {
        stroke-width: 4px;
      }

      .cls-10, .cls-11, .cls-15, .cls-16, .cls-6, .cls-7, .cls-8 {
        stroke-width: 2.5px;
      }

      .cls-8 {
        stroke: #494949;
      }

      .cls-13, .cls-17, .cls-18, .cls-19, .cls-9 {
        stroke-width: 3px;
      }

      .cls-11, .cls-12, .cls-15, .cls-16, .cls-17, .cls-19, .cls-20 {
        stroke-miterlimit: 10;
      }

      .cls-13 {
        stroke-linecap: square;
      }

      .cls-21 {
        fill: #4a4a4a;
      }

      .cls-22 {
        stroke: #ff0083;
        stroke-width: 7px;
      }
    </style>
  </defs>
  <title>18,1</title>
  <g>
    <ellipse class="cls-1" cx="769.28" cy="560.55" rx="432.29" ry="136.5"/>
    <polygon class="cls-2" points="449.35 502.67 523.93 514.64 511.35 542.8 506.18 535.41 502.69 535.13 491.15 553.39 483.69 560.8 481.69 568.8 484.35 580.13 472.94 604.6 443.48 600.59 419.69 562.13 449.35 502.67"/>
    <g>
      <g>
        <path class="cls-3" d="M89.47,98.27a9.44,9.44,0,0,1,2.45,6.62,10.43,10.43,0,0,1-1.6,5.63,11.06,11.06,0,0,1-4.87,4.12,18.61,18.61,0,0,1-8,1.55,27.5,27.5,0,0,1-7.27-1,18.74,18.74,0,0,1-6.08-2.78l3.15-6.2a15.38,15.38,0,0,0,4.63,2.33,17.8,17.8,0,0,0,5.37.82,8.54,8.54,0,0,0,4.8-1.17,3.76,3.76,0,0,0,1.75-3.33c0-2.86-2.18-4.3-6.55-4.3h-3.7V95.24l7.2-8.15H65.82v-6.5h24.5v5.25l-7.9,9A11.78,11.78,0,0,1,89.47,98.27Z"/>
        <path class="cls-3" d="M128.27,100.57A8.77,8.77,0,0,1,130,106a8.1,8.1,0,0,1-3.57,7.08q-3.59,2.47-10.43,2.47H97.87v-35H115q6.41,0,9.83,2.45a7.77,7.77,0,0,1,3.42,6.65,8.39,8.39,0,0,1-4.65,7.7A9.28,9.28,0,0,1,128.27,100.57ZM105.92,86.69v8.25h8a8.12,8.12,0,0,0,4.55-1,3.48,3.48,0,0,0,1.55-3.1,3.42,3.42,0,0,0-1.55-3.07,8.3,8.3,0,0,0-4.55-1Zm14.28,21.75a3.6,3.6,0,0,0,1.62-3.25q0-4.35-6.45-4.35h-9.45v8.65h9.45A9,9,0,0,0,120.2,108.44Z"/>
        <path class="cls-3" d="M142.87,87.19h-11.2v-6.6h30.5v6.6H151v28.4h-8.1Z"/>
        <path class="cls-3" d="M173.1,113.87a17.31,17.31,0,0,1-6.8-6.45,18.77,18.77,0,0,1,0-18.65,17.31,17.31,0,0,1,6.8-6.45A20.18,20.18,0,0,1,182.82,80a20.55,20.55,0,0,1,8.23,1.6,16.52,16.52,0,0,1,6.17,4.6L192,91a11.2,11.2,0,0,0-8.8-4.1,11.68,11.68,0,0,0-5.8,1.43,10.11,10.11,0,0,0-4,4,12.48,12.48,0,0,0,0,11.6,10.13,10.13,0,0,0,4,4,11.67,11.67,0,0,0,5.8,1.42,11.12,11.12,0,0,0,8.8-4.15l5.2,4.8a16.08,16.08,0,0,1-6.2,4.65,20.54,20.54,0,0,1-8.25,1.6A20.06,20.06,0,0,1,173.1,113.87Z"/>
        <path class="cls-3" d="M215.27,98.39h14.15v6.25H215.27Z"/>
        <path class="cls-3" d="M261.57,80.59v35h-8.1V87.09h-7v-6.5Z"/>
        <path class="cls-3" d="M300.27,100.57A8.77,8.77,0,0,1,302,106a8.08,8.08,0,0,1-3.58,7.08q-3.57,2.47-10.42,2.47h-18.1v-35H287q6.39,0,9.82,2.45a7.75,7.75,0,0,1,3.43,6.65,8.43,8.43,0,0,1-4.65,7.7A9.33,9.33,0,0,1,300.27,100.57ZM277.92,86.69v8.25H286a8.14,8.14,0,0,0,4.55-1,3.51,3.51,0,0,0,1.55-3.1,3.44,3.44,0,0,0-1.55-3.07,8.33,8.33,0,0,0-4.55-1Zm14.27,21.75a3.58,3.58,0,0,0,1.63-3.25q0-4.35-6.45-4.35h-9.45v8.65h9.45A9,9,0,0,0,292.19,108.44Z"/>
        <path class="cls-3" d="M314.87,87.19h-11.2v-6.6h30.5v6.6H323v28.4h-8.1Z"/>
        <path class="cls-3" d="M345.09,113.87a17.37,17.37,0,0,1-6.8-6.45,18.84,18.84,0,0,1,0-18.65,17.37,17.37,0,0,1,6.8-6.45A20.25,20.25,0,0,1,354.82,80a20.5,20.5,0,0,1,8.22,1.6,16.55,16.55,0,0,1,6.18,4.6L364,91a11.2,11.2,0,0,0-8.8-4.1,11.68,11.68,0,0,0-5.8,1.43,10.13,10.13,0,0,0-4,4,12.56,12.56,0,0,0,0,11.6,10.16,10.16,0,0,0,4,4,11.67,11.67,0,0,0,5.8,1.42,11.12,11.12,0,0,0,8.8-4.15l5.2,4.8a16.15,16.15,0,0,1-6.2,4.65,20.54,20.54,0,0,1-8.25,1.6A20.13,20.13,0,0,1,345.09,113.87Z"/>
        <path class="cls-3" d="M387.77,88.84h23.79v6.1H387.77Zm0,12.4h23.79v6.1H387.77Z"/>
        <path class="cls-3" d="M456.86,109v6.6H430.42v-5.25l13.49-12.75a14.12,14.12,0,0,0,2.9-3.52,6.41,6.41,0,0,0,.75-2.93,3.85,3.85,0,0,0-1.42-3.22A6.62,6.62,0,0,0,442,86.79a9.68,9.68,0,0,0-4.16.88,7.93,7.93,0,0,0-3.09,2.62l-5.91-3.8a13.84,13.84,0,0,1,5.66-4.77A18.81,18.81,0,0,1,442.72,80a17,17,0,0,1,6.82,1.28,10.5,10.5,0,0,1,4.55,3.6,9.33,9.33,0,0,1,1.63,5.47,12.32,12.32,0,0,1-1.2,5.35,20.57,20.57,0,0,1-4.66,5.7l-8.05,7.6Z"/>
        <path class="cls-3" d="M492.81,100.57a8.7,8.7,0,0,1,1.7,5.47,8.1,8.1,0,0,1-3.57,7.08q-3.57,2.47-10.43,2.47h-18.1v-35h17.1q6.4,0,9.83,2.45a7.77,7.77,0,0,1,3.42,6.65,8.39,8.39,0,0,1-4.65,7.7A9.28,9.28,0,0,1,492.81,100.57ZM470.46,86.69v8.25h8.05a8.12,8.12,0,0,0,4.55-1,3.48,3.48,0,0,0,1.55-3.1,3.42,3.42,0,0,0-1.55-3.07,8.3,8.3,0,0,0-4.55-1Zm14.28,21.75a3.6,3.6,0,0,0,1.62-3.25q0-4.35-6.45-4.35h-9.45v8.65h9.45A9,9,0,0,0,484.74,108.44Z"/>
        <path class="cls-3" d="M507.41,87.19h-11.2v-6.6h30.5v6.6h-11.2v28.4h-8.1Z"/>
        <path class="cls-3" d="M537.64,113.87a17.37,17.37,0,0,1-6.8-6.45,18.77,18.77,0,0,1,0-18.65,17.37,17.37,0,0,1,6.8-6.45A20.18,20.18,0,0,1,547.36,80a20.51,20.51,0,0,1,8.23,1.6,16.44,16.44,0,0,1,6.17,4.6l-5.2,4.8a11.18,11.18,0,0,0-8.8-4.1,11.71,11.71,0,0,0-5.8,1.43,10.11,10.11,0,0,0-4,4,12.48,12.48,0,0,0,0,11.6,10.13,10.13,0,0,0,4,4,11.7,11.7,0,0,0,5.8,1.42,11.11,11.11,0,0,0,8.8-4.15l5.2,4.8a16,16,0,0,1-6.2,4.65,20.48,20.48,0,0,1-8.25,1.6A20.09,20.09,0,0,1,537.64,113.87Z"/>
      </g>
      <path class="cls-2" d="M891.25,342.8s33.25,30.75,33.25,30,44-55,44-55,16.25-16.75,31.75-18c12.25-3,91-3.25,107.75,6.5,17.5,8.5,43.5,28.25,47.5,63.25s1,97.25,1,97.25L1146,512.3l-37.25,8.25L1039.5,532.3,1025,507.8l1.25-4.5-8.5,3.25-12.25,1.75-8.75,3-1.25,7L952,500.8l-8.25-25.75s1.5-45-9.25-63.25c-6.25-8.75-7.25-12.5-6.5-12.25s-26-25.5-54.5-23c-6.5-10.5-6.75-15-6.75-15S892.5,355.05,891.25,342.8Z"/>
      <path class="cls-2" d="M800,800.05c-15-7.33-28.33-28-30-51.67s.67-69,.67-69c-4,2.14-8.52,4.52-13,6.85a29,29,0,0,1-38.19-10.52l-17.84-29s-17-30,2.33-47.67c-3.33-19.67-14.67-65-14.67-65l69.34-20,9.66,51,3,12,5.67-10s11.67-19.33,30-23c8,6.67,84,11.33,110-8,11.33,4.33,28.33,15.33,31.33,54.67S951,652.38,951,652.38c8.67,8.67,23.33,47.34,7,69.67s-128.33,80-128.33,80Z"/>
      <path class="cls-2" d="M886.67,227.72c0,25-14,45.33-31.34,45.33a22.54,22.54,0,0,1-8.56-1.71,22.34,22.34,0,0,1-4.1.38c-17.31,0-31.34-20.3-31.34-45.34s14-45.33,31.34-45.33a22.54,22.54,0,0,1,8.56,1.71,22.34,22.34,0,0,1,4.1-.38C872.64,182.38,886.67,202.68,886.67,227.72Z"/>
      <path class="cls-2" d="M552.3,261.59a6,6,0,0,1-3.27,3.34c-21.56,9-33.7,36.1-33.7,54.45,0,19-.33,72.67-.33,72.67s2,33.33,37.33,57.33l30.34,23.67,25,6,7.66,8-.33,7.33,71.33-10,8.34-57.33,17-1.33-12-129.67,37.21,10.05a44.17,44.17,0,0,0,32.68-3.89l38.92-21.27a5.23,5.23,0,0,0,2.72-4.81l-1.35-32.66a3.2,3.2,0,0,0-1.43-2.53,3.16,3.16,0,0,0-2.89-.32l-40.27,15.23a13.37,13.37,0,0,1-9.8-.12l-51.46-21-9.3-1.23a3.22,3.22,0,0,1-2.75-3.78l5.21-28.05a51.79,51.79,0,0,0-.2-19.85l-4-19.28a7.14,7.14,0,0,0-3.43-4.75L646.1,132.73a31.06,31.06,0,0,0-35.74,3.33c-15.36,13.19-35.82,30.61-36,30s-2,24.63-3,39.14a63.92,63.92,0,0,1-4.27,19Z"/>
      <path class="cls-2" d="M233,569.05s-4.07-42.84,2.95-54.31a4.89,4.89,0,0,1,.72-1c16.33-15,38-27,59.66,1,22.67-11.67,40-14,60,17.33a101,101,0,0,0,27.34-13.33c27.33,18,31,27.66,40,46.33,12.33,22.67,20,36.33,20,36.33l28.66,4.67c5-8.33,12-24.67,12-24.67s22.34-7,28.34,21.67c-1.67,5.67-22.34,62-22.34,62-8.33,18.33-20,33.33-55.33,11.67-12.67-12-30.33-33-30.33-33L406,720.38c-.33,10.34-4.67,34.34-43,37C342.33,715.72,233,569.05,233,569.05Z"/>
      <g>
        <path class="cls-3" d="M457.8,573.12a5.23,5.23,0,0,1-3-2.3L440.4,548.17c-1.6-2.51-1.25-5.88.77-7.53s4.95-1,6.55,1.54l11.64,18.29,40.58-30.41c2.08-1.56,5-.74,6.52,1.82s1.06,5.91-1,7.47l-44.21,33.13A3.9,3.9,0,0,1,457.8,573.12Z"/>
        <polygon class="cls-1" points="933.68 413.63 986.35 432.55 1010.18 524.63 951.35 499.55 933.68 413.63"/>
        <polygon class="cls-2" points="689.93 533.13 703.68 598.13 707.93 608.38 721.68 612.88 722.68 625.63 729.68 629.63 747.68 624.88 770.43 576.38 756.93 514.13 689.93 533.13"/>
        <g>
          <polyline class="cls-4" points="702.83 595.74 689.1 533.76 758.74 513.2 771.61 575.77"/>
          <line class="cls-4" x1="746.7" y1="624.08" x2="729.92" y2="629.78"/>
          <path class="cls-4" d="M697.82,551.17a7.91,7.91,0,0,1-11.36,4.94,11.43,11.43,0,0,1-5.67-13.27"/>
          <path class="cls-4" d="M700.09,562.11A7.91,7.91,0,0,1,688.73,567a11.42,11.42,0,0,1-5.67-13.26"/>
          <path class="cls-4" d="M702.93,572.21a7.91,7.91,0,0,1-11.36,4.94,11.43,11.43,0,0,1-5.67-13.27"/>
          <path class="cls-4" d="M705.09,582.38a7.91,7.91,0,0,1-11.36,4.94,11.43,11.43,0,0,1-5.67-13.27"/>
          <path class="cls-4" d="M707.36,593.32A7.91,7.91,0,0,1,696,598.26,11.43,11.43,0,0,1,690.33,585"/>
          <path class="cls-4" d="M696.3,605.5a11.49,11.49,0,0,1-1.87-10.07"/>
          <line class="cls-4" x1="683.7" y1="533.98" x2="684.78" y2="542.76"/>
        </g>
        <line class="cls-5" x1="699.18" y1="288.63" x2="711.85" y2="425.13"/>
        <path class="cls-3" d="M741.41,606.55a3.42,3.42,0,0,1-3-1.13L718.64,587a10.33,10.33,0,0,1-2.8-8.86c.64-2.84,2.93-3.49,5.12-1.45l15.93,14.9,14.09-54c.72-2.77,3.06-3.27,5.22-1.12a10.29,10.29,0,0,1,2.59,8.9l-15.34,58.85A3,3,0,0,1,741.41,606.55Z"/>
        <path class="cls-6" d="M889.69,340.13,887,336a25.16,25.16,0,0,0-23.51-11.37l-40.66,3.89a6,6,0,0,0-5.32,7.32l.37,1.67a7.1,7.1,0,0,0,4.3,5c9.31,3.7,34.38,13.76,39.18,16.61C871.11,364.94,898,351.8,889.69,340.13Z"/>
        <g>
          <path class="cls-3" d="M847.65,257.8l-5-1.55c.17-2.37.35-4.75.52-7.13l-3.21-1c-.18,2.41-.35,4.77-.53,7.13l-5-1.55c.17-2.38.35-4.75.53-7.19l-10.66-3.28c.15-2.05.29-4,.44-6.07l.45.14c.66.19,1.32.4,2,.56,1.15.28,1.77-.26,1.91-1.63.07-.61.14-1.22.18-1.84l1.65-22.27c.07-1,.12-2,.17-3a2.46,2.46,0,0,0-1.58-2.73c-.67-.26-1.35-.46-2-.68l-.4-.15c.15-2,.29-4,.45-6.07l10.66,3.28c.18-2.43.35-4.79.53-7.15l5,1.55q-.25,3.56-.53,7.13l3.22,1c.17-2.4.35-4.77.52-7.13l5.05,1.55c0,.19,0,.38,0,.56-.16,2.09-.3,4.18-.47,6.26,0,.48,0,.74.45.88a8.59,8.59,0,0,1,1,.48,13.66,13.66,0,0,1,4.66,4.06,12.74,12.74,0,0,1,2.5,8,9.27,9.27,0,0,1-1.62,5.23,7.36,7.36,0,0,1-5.26,3.09l-.45.09a1.2,1.2,0,0,0,.39.37,16.38,16.38,0,0,1,3.64,3.08,12.67,12.67,0,0,1,3,7.06c.5,5-1.09,8.47-4.42,10.48a9.89,9.89,0,0,1-6.64,1c-.37-.05-.46.07-.49.5C848,253.14,847.83,255.47,847.65,257.8Zm-8.86-30.09c0,.15,0,.24,0,.33q-.35,4.61-.68,9.23c0,.67-.05,1.34-.05,2a1.11,1.11,0,0,0,.67,1.13c1.21.44,2.43.88,3.65,1.23a26,26,0,0,0,3.18.72,3.84,3.84,0,0,0,3.05-.74,5.6,5.6,0,0,0,2-4,7,7,0,0,0-2.45-6.26,10.26,10.26,0,0,0-3.39-1.78c-1.85-.64-3.71-1.19-5.58-1.77C839,227.75,838.92,227.74,838.79,227.71Zm.48-6.47.32.13c1.24.38,2.47.77,3.71,1.14a13.5,13.5,0,0,0,4.2.76,3.35,3.35,0,0,0,2.79-1.34c1.59-2.18,1.18-6.61-1.91-8.33a13.4,13.4,0,0,0-2.32-1.07c-1.89-.65-3.79-1.22-5.69-1.82a2.14,2.14,0,0,0-.31-.06C839.8,214.17,839.54,217.68,839.27,221.24Z"/>
          <g>
            <ellipse class="cls-4" cx="843.18" cy="226.63" rx="32" ry="46"/>
            <path class="cls-4" d="M843.18,180.63h13c17.68,0,32,20.6,32,46s-14.32,46-32,46h-13"/>
          </g>
          <path class="cls-4" d="M803.31,241.68l-34.68,13.71a19.19,19.19,0,0,1-13.91.06l-30.31-11.69c-11-4.26-19.56-9.83-31.22-10.7"/>
          <path class="cls-6" d="M811.34,279.21,825,271.38a5.4,5.4,0,0,0,1.41-8.21,4.25,4.25,0,0,1-.65-4.49l3.57-8a11.19,11.19,0,0,0,.33-8.32l-.36-1a9,9,0,0,0-11.79-5.34l-14.22,5.62"/>
          <path class="cls-4" d="M702.68,297.63l32.56,7a61.14,61.14,0,0,0,43.32-6.7l32.78-18.76"/>
          <path class="cls-7" d="M804.18,241.63c-12,4.5-15,34.5,7.5,37"/>
        </g>
        <polyline class="cls-6" points="773.07 572.56 756.23 584.35 748.48 585.1 751.35 576.47 776.19 558.57"/>
        <g>
          <g>
            <line class="cls-7" x1="465.61" y1="605.07" x2="443.18" y2="601.13"/>
            <polyline class="cls-7" points="422.53 557.82 449.35 502.67 523.93 514.64 505.15 559.12"/>
            <g>
              <path class="cls-7" d="M427.62,558.22c-1.94-3.7-5.84-5.09-9.1-3.42"/>
              <path class="cls-7" d="M432.54,548.89c-2.11-4-6.57-5.29-10-2.83s-4.5,7.75-2.39,11.81"/>
              <path class="cls-7" d="M437.82,539c-2.11-4-6.54-5.24-9.92-2.82s-4.47,7.65-2.38,11.67"/>
              <path class="cls-7" d="M442.05,529.54c-2.09-3.93-6.49-5.19-9.85-2.8s-4.44,7.56-2.36,11.54"/>
              <path class="cls-7" d="M446.67,520.29c-2.08-3.9-6.46-5.15-9.8-2.79s-4.42,7.46-2.34,11.4"/>
              <path class="cls-7" d="M450.82,511c-2.07-3.86-6.43-5.1-9.76-2.78s-4.38,7.38-2.32,11.28"/>
            </g>
            <line class="cls-7" x1="507.78" y1="566.75" x2="525.27" y2="525.57"/>
            <line class="cls-7" x1="448.18" y1="610.13" x2="463.16" y2="612.79"/>
          </g>
          <g>
            <g>
              <line class="cls-8" x1="465.61" y1="605.07" x2="443.18" y2="601.13"/>
              <line class="cls-8" x1="465.61" y1="605.07" x2="443.18" y2="601.13"/>
            </g>
            <g>
              <polyline class="cls-8" points="422.53 557.82 449.35 502.67 523.93 514.64 505.15 559.12"/>
              <polyline class="cls-8" points="422.53 557.82 449.35 502.67 523.93 514.64 505.15 559.12"/>
            </g>
            <g>
              <g>
                <path class="cls-8" d="M427.62,558.22c-1.94-3.7-5.84-5.09-9.1-3.42"/>
                <path class="cls-8" d="M427.62,558.22c-1.94-3.7-5.84-5.09-9.1-3.42"/>
              </g>
              <g>
                <path class="cls-8" d="M432.54,548.89c-2.11-4-6.57-5.29-10-2.83s-4.5,7.75-2.39,11.81"/>
                <path class="cls-8" d="M432.54,548.89c-2.11-4-6.57-5.29-10-2.83s-4.5,7.75-2.39,11.81"/>
              </g>
              <g>
                <path class="cls-8" d="M437.82,539c-2.11-4-6.54-5.24-9.92-2.82s-4.47,7.65-2.38,11.67"/>
                <path class="cls-8" d="M437.82,539c-2.11-4-6.54-5.24-9.92-2.82s-4.47,7.65-2.38,11.67"/>
              </g>
              <g>
                <path class="cls-8" d="M442.05,529.54c-2.09-3.93-6.49-5.19-9.85-2.8s-4.44,7.56-2.36,11.54"/>
                <path class="cls-8" d="M442.05,529.54c-2.09-3.93-6.49-5.19-9.85-2.8s-4.44,7.56-2.36,11.54"/>
              </g>
              <g>
                <path class="cls-8" d="M446.67,520.29c-2.08-3.9-6.46-5.15-9.8-2.79s-4.42,7.46-2.34,11.4"/>
                <path class="cls-8" d="M446.67,520.29c-2.08-3.9-6.46-5.15-9.8-2.79s-4.42,7.46-2.34,11.4"/>
              </g>
              <g>
                <path class="cls-8" d="M450.82,511c-2.07-3.86-6.43-5.1-9.76-2.78s-4.38,7.38-2.32,11.28"/>
                <path class="cls-8" d="M450.82,511c-2.07-3.86-6.43-5.1-9.76-2.78s-4.38,7.38-2.32,11.28"/>
              </g>
            </g>
            <g>
              <line class="cls-8" x1="507.78" y1="566.75" x2="525.27" y2="525.57"/>
              <line class="cls-8" x1="507.78" y1="566.75" x2="525.27" y2="525.57"/>
            </g>
            <g>
              <line class="cls-8" x1="448.18" y1="610.13" x2="463.16" y2="612.79"/>
              <line class="cls-8" x1="448.18" y1="610.13" x2="463.16" y2="612.79"/>
            </g>
          </g>
        </g>
        <path class="cls-5" d="M555,275.47c-8-34-16-121.4,22.66-174.34,16-22.26,62.14-17.56,97.45,22.76,14.22,16.24,18.22,36.91,18.22,36.91"/>
        <g>
          <path class="cls-9" d="M1179.17,509.62a24.34,24.34,0,0,1-1.56,9.13,107.06,107.06,0,0,0-23.34-20.55,31.25,31.25,0,0,0,2.27-11.73V381a84,84,0,0,0-70.73-83,101.19,101.19,0,0,1,23.79-2.86c61.65-.15,67.85,68.59,68.45,94.86Z"/>
          <g>
            <polygon class="cls-10" points="956.07 255.25 977.35 311.47 966.88 319.04 952.85 256.36 956.07 255.25"/>
            <path class="cls-11" d="M961.21,247.55a10,10,0,1,1-8.87-11A10,10,0,0,1,961.21,247.55Z"/>
          </g>
          <line class="cls-4" x1="1156.54" y1="464.13" x2="1156.54" y2="476.8"/>
          <path class="cls-4" d="M1156.54,464.13V381a84,84,0,0,0-84-84h-55.91a65.28,65.28,0,0,0-53.14,27.28L926,370.8"/>
          <path class="cls-12" d="M1000.33,243.53V291c0,22,16.68,41,38.72,41h26.81c22,0,41.33-19,41.33-41v-40.8l-6.36-58.31-44.54-10.32-49,6.88-12,10.33,5,44.74"/>
          <path class="cls-13" d="M1054.76,358.12h0c-44.18,0-80-22.17-80-48.17V194.89c0-37.06,31.15-67.09,69.58-67.09h20.82c38.43,0,69.58,30,69.58,67.09V320.66C1134.75,332.89,1098.94,358.12,1054.76,358.12Z"/>
          <path class="cls-14" d="M1068.43,160.21c-18.92-2.78-31.51,1.64-48.42,11.69-13.1,7.79-25-6.64-25-6.64-9.46,26.16-1.4,76.44,5.28,85.13V209.11c4.92-18,12.57,3.06,26.72,2.29,19.7-1.06,22.4-7.75,34.4-2.29,21,9.55,12.61,37.83,25,39.8,23.32,3.73,20.79,24.42,20.79,24.42h0c6.75-10,8-57.95,5-73.9C1109,182.73,1097,164.42,1068.43,160.21Z"/>
          <path class="cls-7" d="M1007.49,254.77c.27-4.94,3.83-8.76,7.94-8.53s7.21,4.42,6.93,9.36"/>
          <path class="cls-7" d="M1041.68,256.89c.28-4.93,3.87-8.75,8-8.52s7.3,4.43,7,9.37"/>
          <path class="cls-15" d="M1081.26,457.16l-33.71-5a2.64,2.64,0,0,1-2.25-2.61v-62a2.63,2.63,0,0,1,3-2.61l33.71,5a2.63,2.63,0,0,1,2.25,2.61v62A2.64,2.64,0,0,1,1081.26,457.16Z"/>
          <path class="cls-16" d="M1067.55,431.55l-14.38-2.15a1.13,1.13,0,0,1-1-1.11V401.83a1.13,1.13,0,0,1,1.29-1.12l14.38,2.15a1.14,1.14,0,0,1,1,1.12v26.46A1.13,1.13,0,0,1,1067.55,431.55Z"/>
          <line class="cls-17" x1="990.25" y1="392.14" x2="990.25" y2="423.13"/>
          <path class="cls-4" d="M1057,290.15c-1,1.53-7.7,11-19.9,12.53s-20.49-5.95-21.81-7.19"/>
          <path class="cls-5" d="M1022.46,506.32c7.93-1.06,14.75-1.89,14.75-1.89l8.09,23.05s-15.19,5.67-20.45,6.87c-13.63,3.1-25.34-1.16-27.35-5.64l-2.71-6c-2.42-5.37.48-12,6.26-13.16,4.47-.9,13.49-2.18,21.41-3.24"/>
          <path class="cls-18" d="M1095.76,419.67v36.46a23,23,0,0,1-13.18,20.79l-57.73,27.23s3.77,2,10.7,12.24c6.31,9.36,2.87,16.24,2.87,16.24L1108.83,521"/>
          <path class="cls-19" d="M1142.84,487.47a15.31,15.31,0,0,1-12.9,16.72l-7.7,1.19a13,13,0,0,0-11,12c0,3.18,3,4.91,6.18,4.59,0,0,18.68-2.59,24.93-4.32,13-3.61,15.43-11.43,16-19.07.53-6.94,1.6-27.77,1.6-27.77a3.59,3.59,0,0,0-4.5-3.47l-2.76.9a14.92,14.92,0,0,0-10.24,15.74Z"/>
        </g>
        <path class="cls-4" d="M982.31,442.88c2.28,10.15,13.6,11.45,19.62,6.63,6.2-5,5.89-15.61-3.25-18.63"/>
        <path class="cls-4" d="M984.81,454.51c2.28,10.14,13.6,11.44,19.62,6.62,6.2-4.95,5.89-15.6-3.25-18.62"/>
        <path class="cls-4" d="M988.56,465.76c2.28,10.14,13.6,11.44,19.62,6.62,6.2-4.95,5.89-15.6-3.25-18.62"/>
        <path class="cls-4" d="M991.81,478.13c2.28,10.15,13.6,11.45,19.62,6.63,6.2-5,5.89-15.61-3.25-18.63"/>
        <path class="cls-4" d="M995.31,490.76c2.28,10.14,13.6,11.44,19.62,6.62,6.2-4.95,5.89-15.6-3.25-18.62"/>
        <path class="cls-4" d="M1022.08,505.09a10.26,10.26,0,0,0-7.15-12.46"/>
        <path class="cls-6" d="M478.24,551.68,540,529.35c6.36.17,6.52,8,1.9,10.07l-60.75,22.46-8.77-1.6Z"/>
        <path class="cls-4" d="M998.56,504.63a12.41,12.41,0,0,0,2.14,4.79"/>
        <g>
          <polygon class="cls-14" points="687.08 484.44 613.55 495.23 620.43 407.49 698.65 397.32 687.08 484.44"/>
          <path class="cls-4" d="M625.42,420.35A7.1,7.1,0,1,1,614,412"/>
          <path class="cls-4" d="M624.44,430.08A7.11,7.11,0,1,1,613,421.71"/>
          <path class="cls-4" d="M624.23,439.19a7.11,7.11,0,1,1-11.46-8.37"/>
          <path class="cls-4" d="M623.36,448.25a7.11,7.11,0,1,1-11.46-8.38"/>
          <path class="cls-4" d="M622.37,458a7.11,7.11,0,1,1-11.46-8.37"/>
          <path class="cls-4" d="M622.16,467.08a7.1,7.1,0,1,1-11.45-8.37"/>
          <path class="cls-4" d="M621.52,476.28a7.1,7.1,0,1,1-11.45-8.37"/>
          <path class="cls-4" d="M621.32,485.39A7.11,7.11,0,1,1,609.86,477"/>
          <polyline class="cls-4" points="695.17 390.48 616.03 401.45 614.9 411.01"/>
          <path class="cls-4" d="M604.68,452.46a9.78,9.78,0,0,0-3.94-1.49c-10-1.61-23.15,10.71-17.72,21.33a11.39,11.39,0,0,0,.66,1.16"/>
        </g>
        <g>
          <g>
            <path class="cls-2" d="M330.49,532H343.1c27.39,0,49.59-10.61,49.59-38V437.68a49.59,49.59,0,0,0-49.59-49.6H330.49a49.6,49.6,0,0,0-49.6,49.6V494C280.89,521.41,303.1,532,330.49,532Z"/>
            <path class="cls-4" d="M330.49,532H343.1c27.39,0,49.59-10.61,49.59-38V437.68a49.59,49.59,0,0,0-49.59-49.6H330.49a49.6,49.6,0,0,0-49.6,49.6V494C280.89,521.41,303.1,532,330.49,532Z"/>
          </g>
          <g>
            <path class="cls-1" d="M356,447.35l8.38-17.15a21.94,21.94,0,0,0-2.09.76c-15.81,6.63-30.72,32.33-30.72,32.33s-12.72-13.73-23.91.5c-7.44,9.44,3.57,26.46,3.57,26.46l-12.1,32.21s-2.55,26.14-17.12-8a121.36,121.36,0,0,1-7.15-24.09c-3.36,1-6.82,1.33-10.62,1.95,0,0,8.3-14.72-5.95-26.45s4.58-19.88,0-32.6-21.67-32.55-1.54-60.57C272.12,351.38,295,359,295,359a32.92,32.92,0,0,1,13.17,7.57c18.26-3,41,.88,56.27,2.11,25.67,2,34.39,26.45,39,53.43S356,447.35,356,447.35Z"/>
            <path class="cls-4" d="M356,447.35l8.38-17.15a21.94,21.94,0,0,0-2.09.76c-15.81,6.63-30.72,32.33-30.72,32.33s-12.72-13.73-23.91.5c-7.44,9.44,3.57,26.46,3.57,26.46l-12.1,32.21s-2.55,26.14-17.12-8a121.36,121.36,0,0,1-7.15-24.09c7.78-2.39,15-8.74,24.66-32.15,10.69-26-11.34-30.83,1.51-42.25,20.71-18.34,18.89-38.19,7.08-49.43,18.26-3,41,.88,56.27,2.11,25.67,2,34.39,26.45,39,53.43S356,447.35,356,447.35Z"/>
            <path class="cls-4" d="M295,358.94c21.82,6.64,33.09,33.09,6.11,57-12.87,11.41,9.16,16.29-1.53,42.24-13.82,33.57-22.69,32.07-35.27,34.11,0,0,8.3-14.73-5.95-26.45s4.58-19.87,0-32.6-21.68-32.54-1.53-60.57C272.12,351.38,295,358.94,295,358.94Z"/>
          </g>
          <path class="cls-4" d="M238.66,422.65c0-48.93,30.63-83.35,73.85-83.35H328.7a82.69,82.69,0,0,1,82.67,83.35v93h0c0,28.92-39.33,39.79-87,39.79s-85.68-10.87-85.68-39.79h0Z"/>
        </g>
        <g>
          <g>
            <g>
              <path class="cls-1" d="M300.15,737a4.37,4.37,0,0,1-4.24,5.42H240a3.85,3.85,0,0,1-3.76-4.91l10.57-36.66h44.29Z"/>
              <path class="cls-1" d="M278.3,700.86H259.54c-19.59,0-26.88-15.89-26.88-35.49V532.6a35.47,35.47,0,0,1,35.48-35.48h0a35.48,35.48,0,0,1,35.48,35.48V665.37C303.62,685,297.89,700.86,278.3,700.86Z"/>
            </g>
            <path class="cls-20" d="M300.15,737a4.37,4.37,0,0,1-4.24,5.42H240a3.85,3.85,0,0,1-3.76-4.91l10.57-36.66h44.29Z"/>
            <path class="cls-20" d="M278.3,700.86H259.54c-19.59,0-26.88-15.89-26.88-35.49V532.6a35.47,35.47,0,0,1,35.48-35.48h0a35.48,35.48,0,0,1,35.48,35.48V665.37C303.62,685,297.89,700.86,278.3,700.86Z"/>
          </g>
          <g>
            <g>
              <path class="cls-1" d="M353.67,745a4.37,4.37,0,0,1-4.24,5.42H293.57a3.85,3.85,0,0,1-3.77-4.91l10.57-36.66h44.3Z"/>
              <path class="cls-1" d="M331.82,708.86H313.06c-19.59,0-26.88-15.89-26.88-35.49V540.6a35.47,35.47,0,0,1,35.48-35.48h0a35.48,35.48,0,0,1,35.48,35.48V673.37C357.14,693,351.41,708.86,331.82,708.86Z"/>
            </g>
            <path class="cls-20" d="M353.67,745a4.37,4.37,0,0,1-4.24,5.42H293.57a3.85,3.85,0,0,1-3.77-4.91l10.57-36.66h44.3Z"/>
            <path class="cls-20" d="M331.82,708.86H313.06c-19.59,0-26.88-15.89-26.88-35.49V540.6a35.47,35.47,0,0,1,35.48-35.48h0a35.48,35.48,0,0,1,35.48,35.48V673.37C357.14,693,351.41,708.86,331.82,708.86Z"/>
          </g>
        </g>
        <path class="cls-14" d="M259.89,782.22c-33.85-8-65.77-19.53-65.77-54.26V671.48c0-29.84,4.78-106.24,58.73-103.3C322.59,572,364,646.15,364,690.53v60.79C364,805.93,296.64,790.89,259.89,782.22Z"/>
        <path class="cls-14" d="M903.35,828.17c34.74-7.48,69.51-18.74,68.73-53.13l-1.2-52.82c-.64-28.18-7.1-96.49-70.62-91.05-61.55,5.27-102.48,58.45-101.53,100.36l1.56,68.77C801.19,839.69,853.17,839,903.35,828.17Z"/>
        <path class="cls-4" d="M568.36,387.14A51.61,51.61,0,0,0,578.2,416l26.48,36.48c-10.33-6.76-29,8.69-21,21l-41.93-32.09c-17-13-27-32.33-26.76-53.79l.69-63.46c0-28.53,16.5-56,35-60.66"/>
        <line class="cls-4" x1="690.35" y1="357.13" x2="690.35" y2="390.63"/>
        <path class="cls-1" d="M682.3,254.42c-9.64,8.88-39.87,35.46-39.87,35.46l-69.25-27.25.25-24.75c7.5,8.75,28,31.75,63.75,21.5,19.5-6,30.43-15.17,34.84-56.71,1.91-2.29,4.16-13.54,3.91-34.79a24.47,24.47,0,0,0-3.47-11.18l-1-6c14.73,2.93,22.23,6.18,26.48,26.68,4,25.25-4.5,59-12.75,74.25-.18.26-1.23,1.26-2.88,2.79"/>
        <path class="cls-4" d="M683.91,253.69l2.27-2.06c10.27-22.59,17.79-68.21,7.25-91.25"/>
        <path class="cls-7" d="M571.61,235.44c.09,11.89.78,21.83,1.07,28l70,27.34,41.23-37.11"/>
        <line class="cls-4" x1="612.02" y1="326.63" x2="612.02" y2="279.87"/>
        <line class="cls-4" x1="660.35" y1="307.13" x2="660.35" y2="275.47"/>
        <path class="cls-6" d="M625.58,458.82a8.13,8.13,0,0,1,5,11.06l-8,18a7.68,7.68,0,0,1-4.86,4.27,7.76,7.76,0,0,1-6.41-.9l-27.67-17.79L583,472.3c-5.43-10.62,7.67-22.94,17.72-21.33l3.94,1.49Z"/>
        <path class="cls-7" d="M672.63,158.23a46,46,0,0,0-1.18-7.53"/>
        <path class="cls-7" d="M571.6,233.53h0c0,.92,0,1.82,0,2.71,11.57,15.38,34.43,29.45,55.07,25.88,26-4.5,41-13.5,45.55-60.53"/>
        <path class="cls-10" d="M675.68,182.1c-.59,8.43.3,16.45-2.84,19.75-.26.27-.53.55-.82.82-4.28,4.14-11.53,8.59-23.74,12.62-28.65,9.46-54.85-2.37-68.82-11.7a86.65,86.65,0,0,1,20.72-28.3,62.89,62.89,0,0,0,9.79,3c20.38,4.4,65.43-1.74,62.49-21.54l0,0C677.69,159.91,676.42,171.34,675.68,182.1Z"/>
        <g>
          <path class="cls-21" d="M666.73,216.77a1.28,1.28,0,1,0-1.48-1.05A1.3,1.3,0,0,0,666.73,216.77Z"/>
          <g>
            <path class="cls-21" d="M667.79,223.06a1.27,1.27,0,0,0,1-1.47,1.27,1.27,0,1,0-2.51.43A1.27,1.27,0,0,0,667.79,223.06Z"/>
            <path class="cls-21" d="M666.73,216.77a1.28,1.28,0,1,0-1.48-1.05A1.3,1.3,0,0,0,666.73,216.77Z"/>
            <path class="cls-21" d="M660.43,217.83a1.28,1.28,0,1,0-.43-2.52,1.28,1.28,0,0,0,.43,2.52Z"/>
            <path class="cls-21" d="M664.11,220.45a1.3,1.3,0,0,0,1-1.48,1.28,1.28,0,0,0-1.48-1,1.27,1.27,0,0,0-1,1.47A1.28,1.28,0,0,0,664.11,220.45Z"/>
          </g>
          <path class="cls-21" d="M662.55,230.42a1.28,1.28,0,1,0-1.47-1A1.27,1.27,0,0,0,662.55,230.42Z"/>
          <g>
            <path class="cls-21" d="M666.73,216.77a1.28,1.28,0,1,0-1.48-1.05A1.3,1.3,0,0,0,666.73,216.77Z"/>
            <path class="cls-21" d="M660.43,217.83a1.28,1.28,0,1,0-.43-2.52,1.28,1.28,0,0,0,.43,2.52Z"/>
            <path class="cls-21" d="M654.13,218.89a1.28,1.28,0,1,0-1.47-1A1.27,1.27,0,0,0,654.13,218.89Z"/>
            <path class="cls-21" d="M663.05,214.15a1.28,1.28,0,1,0-1.48-1.05A1.28,1.28,0,0,0,663.05,214.15Z"/>
          </g>
          <g>
            <path class="cls-21" d="M662.55,230.42a1.28,1.28,0,1,0-1.47-1A1.27,1.27,0,0,0,662.55,230.42Z"/>
            <path class="cls-21" d="M656.26,231.48a1.27,1.27,0,1,0-.43-2.51,1.27,1.27,0,1,0,.43,2.51Z"/>
            <path class="cls-21" d="M667.79,223.06a1.27,1.27,0,0,0,1-1.47,1.27,1.27,0,1,0-2.51.43A1.27,1.27,0,0,0,667.79,223.06Z"/>
            <path class="cls-21" d="M661.49,224.13a1.28,1.28,0,1,0-.42-2.52,1.27,1.27,0,0,0-1.05,1.47A1.29,1.29,0,0,0,661.49,224.13Z"/>
            <path class="cls-21" d="M655.2,225.19a1.28,1.28,0,0,0-.43-2.52,1.28,1.28,0,1,0,.43,2.52Z"/>
            <path class="cls-21" d="M666.73,216.77a1.28,1.28,0,1,0-1.48-1.05A1.3,1.3,0,0,0,666.73,216.77Z"/>
            <path class="cls-21" d="M660.43,217.83a1.28,1.28,0,1,0-.43-2.52,1.28,1.28,0,0,0,.43,2.52Z"/>
            <path class="cls-21" d="M654.13,218.89a1.28,1.28,0,1,0-1.47-1A1.27,1.27,0,0,0,654.13,218.89Z"/>
            <path class="cls-21" d="M647.84,220a1.28,1.28,0,0,0,1-1.48,1.28,1.28,0,0,0-2.52.43A1.3,1.3,0,0,0,647.84,220Z"/>
            <path class="cls-21" d="M658.88,227.81a1.28,1.28,0,1,0-1.48-1.05A1.3,1.3,0,0,0,658.88,227.81Z"/>
            <path class="cls-21" d="M665.17,226.74a1.27,1.27,0,0,0,1.05-1.47,1.28,1.28,0,1,0-2.52.43A1.27,1.27,0,0,0,665.17,226.74Z"/>
            <path class="cls-21" d="M657.81,221.51a1.28,1.28,0,1,0-1.47-1A1.28,1.28,0,0,0,657.81,221.51Z"/>
            <path class="cls-21" d="M664.11,220.45a1.3,1.3,0,0,0,1-1.48,1.28,1.28,0,0,0-1.48-1,1.27,1.27,0,0,0-1,1.47A1.28,1.28,0,0,0,664.11,220.45Z"/>
            <path class="cls-21" d="M651.52,222.57a1.28,1.28,0,0,0-.43-2.52,1.3,1.3,0,0,0-1.05,1.48A1.28,1.28,0,0,0,651.52,222.57Z"/>
          </g>
          <g>
            <path class="cls-21" d="M658.39,244.08a1.28,1.28,0,1,0-1.48-1.05A1.28,1.28,0,0,0,658.39,244.08Z"/>
            <path class="cls-21" d="M663.62,236.72a1.28,1.28,0,1,0-1.47-1.05A1.28,1.28,0,0,0,663.62,236.72Z"/>
            <path class="cls-21" d="M657.32,237.78a1.28,1.28,0,1,0-1.47-1.05A1.28,1.28,0,0,0,657.32,237.78Z"/>
            <path class="cls-21" d="M662.55,230.42a1.28,1.28,0,1,0-1.47-1A1.27,1.27,0,0,0,662.55,230.42Z"/>
            <path class="cls-21" d="M656.26,231.48a1.27,1.27,0,1,0-.43-2.51,1.27,1.27,0,1,0,.43,2.51Z"/>
            <path class="cls-21" d="M650,232.55a1.28,1.28,0,1,0-1.47-1.05A1.28,1.28,0,0,0,650,232.55Z"/>
            <path class="cls-21" d="M661,240.4a1.28,1.28,0,1,0-1.47-1.05A1.28,1.28,0,0,0,661,240.4Z"/>
            <path class="cls-21" d="M659.94,234.1a1.28,1.28,0,1,0-1.47-1A1.27,1.27,0,0,0,659.94,234.1Z"/>
            <path class="cls-21" d="M653.64,235.16a1.27,1.27,0,1,0-1.47-1A1.27,1.27,0,0,0,653.64,235.16Z"/>
          </g>
          <g>
            <path class="cls-21" d="M658.39,244.08a1.28,1.28,0,1,0-1.48-1.05A1.28,1.28,0,0,0,658.39,244.08Z"/>
            <path class="cls-21" d="M652.09,245.14a1.28,1.28,0,1,0-.43-2.52,1.28,1.28,0,0,0,.43,2.52Z"/>
          </g>
          <g>
            <path class="cls-21" d="M654.13,218.89a1.28,1.28,0,1,0-1.47-1A1.27,1.27,0,0,0,654.13,218.89Z"/>
            <path class="cls-21" d="M647.84,220a1.28,1.28,0,0,0,1-1.48,1.28,1.28,0,0,0-2.52.43A1.3,1.3,0,0,0,647.84,220Z"/>
          </g>
          <g>
            <path class="cls-21" d="M656.26,231.48a1.27,1.27,0,1,0-.43-2.51,1.27,1.27,0,1,0,.43,2.51Z"/>
            <path class="cls-21" d="M650,232.55a1.28,1.28,0,1,0-1.47-1.05A1.28,1.28,0,0,0,650,232.55Z"/>
            <path class="cls-21" d="M643.67,233.61a1.28,1.28,0,0,0-.43-2.52,1.28,1.28,0,1,0,.43,2.52Z"/>
            <path class="cls-21" d="M655.2,225.19a1.28,1.28,0,0,0-.43-2.52,1.28,1.28,0,1,0,.43,2.52Z"/>
            <path class="cls-21" d="M648.9,226.25a1.28,1.28,0,1,0-1.47-1A1.27,1.27,0,0,0,648.9,226.25Z"/>
            <path class="cls-21" d="M642.6,227.31a1.27,1.27,0,1,0-1.47-1A1.27,1.27,0,0,0,642.6,227.31Z"/>
            <path class="cls-21" d="M654.13,218.89a1.28,1.28,0,1,0-1.47-1A1.27,1.27,0,0,0,654.13,218.89Z"/>
            <path class="cls-21" d="M647.84,220a1.28,1.28,0,0,0,1-1.48,1.28,1.28,0,0,0-2.52.43A1.3,1.3,0,0,0,647.84,220Z"/>
            <path class="cls-21" d="M646.28,229.93a1.28,1.28,0,1,0-1.47-1.05A1.28,1.28,0,0,0,646.28,229.93Z"/>
            <path class="cls-21" d="M652.58,228.87a1.28,1.28,0,1,0-.43-2.52,1.28,1.28,0,0,0,.43,2.52Z"/>
            <path class="cls-21" d="M645.22,223.63a1.27,1.27,0,1,0-.43-2.51,1.27,1.27,0,1,0,.43,2.51Z"/>
            <path class="cls-21" d="M651.52,222.57a1.28,1.28,0,0,0-.43-2.52,1.3,1.3,0,0,0-1.05,1.48A1.28,1.28,0,0,0,651.52,222.57Z"/>
            <path class="cls-21" d="M638.92,224.7a1.28,1.28,0,1,0-1.47-1A1.28,1.28,0,0,0,638.92,224.7Z"/>
          </g>
          <g>
            <path class="cls-21" d="M658.39,244.08a1.28,1.28,0,1,0-1.48-1.05A1.28,1.28,0,0,0,658.39,244.08Z"/>
            <path class="cls-21" d="M652.09,245.14a1.28,1.28,0,1,0-.43-2.52,1.28,1.28,0,0,0,.43,2.52Z"/>
            <path class="cls-21" d="M645.79,246.2a1.27,1.27,0,1,0-1.47-1A1.27,1.27,0,0,0,645.79,246.2Z"/>
            <path class="cls-21" d="M657.32,237.78a1.28,1.28,0,1,0-1.47-1.05A1.28,1.28,0,0,0,657.32,237.78Z"/>
            <path class="cls-21" d="M651,238.84a1.27,1.27,0,1,0-1.48-1A1.28,1.28,0,0,0,651,238.84Z"/>
            <path class="cls-21" d="M644.73,239.91a1.28,1.28,0,1,0-.43-2.52,1.28,1.28,0,0,0,.43,2.52Z"/>
            <path class="cls-21" d="M656.26,231.48a1.27,1.27,0,1,0-.43-2.51,1.27,1.27,0,1,0,.43,2.51Z"/>
            <path class="cls-21" d="M650,232.55a1.28,1.28,0,1,0-1.47-1.05A1.28,1.28,0,0,0,650,232.55Z"/>
            <path class="cls-21" d="M643.67,233.61a1.28,1.28,0,0,0-.43-2.52,1.28,1.28,0,1,0,.43,2.52Z"/>
            <path class="cls-21" d="M637.37,234.67a1.27,1.27,0,1,0-1.47-1A1.27,1.27,0,0,0,637.37,234.67Z"/>
            <path class="cls-21" d="M648.41,242.52A1.27,1.27,0,1,0,648,240a1.27,1.27,0,1,0,.43,2.51Z"/>
            <path class="cls-21" d="M654.71,241.46a1.28,1.28,0,1,0-1.48-1.05A1.28,1.28,0,0,0,654.71,241.46Z"/>
            <path class="cls-21" d="M647.35,236.23a1.28,1.28,0,1,0-1.48-1A1.28,1.28,0,0,0,647.35,236.23Z"/>
            <path class="cls-21" d="M653.64,235.16a1.27,1.27,0,1,0-1.47-1A1.27,1.27,0,0,0,653.64,235.16Z"/>
            <path class="cls-21" d="M641.05,237.29a1.28,1.28,0,1,0-1.47-1A1.28,1.28,0,0,0,641.05,237.29Z"/>
          </g>
          <g>
            <path class="cls-21" d="M646.85,252.5a1.28,1.28,0,0,0-.42-2.52,1.29,1.29,0,0,0-1,1.47A1.28,1.28,0,0,0,646.85,252.5Z"/>
            <path class="cls-21" d="M658.39,244.08a1.28,1.28,0,1,0-1.48-1.05A1.28,1.28,0,0,0,658.39,244.08Z"/>
            <path class="cls-21" d="M652.09,245.14a1.28,1.28,0,1,0-.43-2.52,1.28,1.28,0,0,0,.43,2.52Z"/>
            <path class="cls-21" d="M645.79,246.2a1.27,1.27,0,1,0-1.47-1A1.27,1.27,0,0,0,645.79,246.2Z"/>
            <path class="cls-21" d="M639.5,247.27a1.28,1.28,0,1,0-1.48-1.05A1.28,1.28,0,0,0,639.5,247.27Z"/>
            <path class="cls-21" d="M649.47,248.82a1.28,1.28,0,1,0-1.47-1A1.28,1.28,0,0,0,649.47,248.82Z"/>
            <path class="cls-21" d="M643.17,249.88a1.27,1.27,0,1,0-1.47-1A1.27,1.27,0,0,0,643.17,249.88Z"/>
          </g>
          <g>
            <path class="cls-21" d="M643.67,233.61a1.28,1.28,0,0,0-.43-2.52,1.28,1.28,0,1,0,.43,2.52Z"/>
            <path class="cls-21" d="M637.37,234.67a1.27,1.27,0,1,0-1.47-1A1.27,1.27,0,0,0,637.37,234.67Z"/>
            <path class="cls-21" d="M631.07,235.74a1.28,1.28,0,1,0-1.47-1.05A1.28,1.28,0,0,0,631.07,235.74Z"/>
            <path class="cls-21" d="M642.6,227.31a1.27,1.27,0,1,0-1.47-1A1.27,1.27,0,0,0,642.6,227.31Z"/>
            <path class="cls-21" d="M636.31,228.38a1.28,1.28,0,0,0-.43-2.52,1.28,1.28,0,1,0,.43,2.52Z"/>
            <path class="cls-21" d="M630,229.44a1.28,1.28,0,1,0-1.47-1.05A1.28,1.28,0,0,0,630,229.44Z"/>
            <path class="cls-21" d="M622.65,224.21a1.28,1.28,0,1,0-1.47-1.05A1.28,1.28,0,0,0,622.65,224.21Z"/>
            <path class="cls-21" d="M633.69,232.06a1.29,1.29,0,0,0,1-1.47,1.28,1.28,0,1,0-1,1.47Z"/>
            <path class="cls-21" d="M640,231a1.27,1.27,0,1,0-1.47-1A1.27,1.27,0,0,0,640,231Z"/>
            <path class="cls-21" d="M632.63,225.76a1.28,1.28,0,1,0-1.47-1A1.28,1.28,0,0,0,632.63,225.76Z"/>
            <path class="cls-21" d="M638.92,224.7a1.28,1.28,0,1,0-1.47-1A1.28,1.28,0,0,0,638.92,224.7Z"/>
            <path class="cls-21" d="M626.33,226.82a1.27,1.27,0,1,0-1.47-1A1.27,1.27,0,0,0,626.33,226.82Z"/>
          </g>
          <g>
            <path class="cls-21" d="M645.79,246.2a1.27,1.27,0,1,0-1.47-1A1.27,1.27,0,0,0,645.79,246.2Z"/>
            <path class="cls-21" d="M639.5,247.27a1.28,1.28,0,1,0-1.48-1.05A1.28,1.28,0,0,0,639.5,247.27Z"/>
            <path class="cls-21" d="M633.2,248.33a1.29,1.29,0,0,0,1-1.47,1.28,1.28,0,1,0-1,1.47Z"/>
            <path class="cls-21" d="M644.73,239.91a1.28,1.28,0,1,0-.43-2.52,1.28,1.28,0,0,0,.43,2.52Z"/>
            <path class="cls-21" d="M638.43,241a1.28,1.28,0,1,0-1.47-1.05A1.28,1.28,0,0,0,638.43,241Z"/>
            <path class="cls-21" d="M632.14,242a1.27,1.27,0,0,0,1-1.47,1.28,1.28,0,0,0-1.47-1.05,1.3,1.3,0,0,0-1.05,1.48A1.28,1.28,0,0,0,632.14,242Z"/>
            <path class="cls-21" d="M643.67,233.61a1.28,1.28,0,0,0-.43-2.52,1.28,1.28,0,1,0,.43,2.52Z"/>
            <path class="cls-21" d="M637.37,234.67a1.27,1.27,0,1,0-1.47-1A1.27,1.27,0,0,0,637.37,234.67Z"/>
            <path class="cls-21" d="M631.07,235.74a1.28,1.28,0,1,0-1.47-1.05A1.28,1.28,0,0,0,631.07,235.74Z"/>
            <path class="cls-21" d="M624.78,236.8a1.28,1.28,0,1,0-.43-2.52,1.28,1.28,0,0,0,.43,2.52Z"/>
            <path class="cls-21" d="M635.82,244.65a1.28,1.28,0,0,0-.43-2.52,1.28,1.28,0,1,0,.43,2.52Z"/>
            <path class="cls-21" d="M642.11,243.59a1.28,1.28,0,1,0-1.47-1.05A1.28,1.28,0,0,0,642.11,243.59Z"/>
            <path class="cls-21" d="M634.75,238.35a1.27,1.27,0,1,0-1.47-1A1.27,1.27,0,0,0,634.75,238.35Z"/>
            <path class="cls-21" d="M641.05,237.29a1.28,1.28,0,1,0-1.47-1A1.28,1.28,0,0,0,641.05,237.29Z"/>
            <path class="cls-21" d="M628.46,239.42a1.28,1.28,0,0,0,1-1.48,1.27,1.27,0,1,0-1,1.48Z"/>
          </g>
          <g>
            <path class="cls-21" d="M646.85,252.5a1.28,1.28,0,0,0-.42-2.52,1.29,1.29,0,0,0-1,1.47A1.28,1.28,0,0,0,646.85,252.5Z"/>
            <path class="cls-21" d="M640.56,253.56a1.28,1.28,0,0,0,1.05-1.47,1.3,1.3,0,0,0-1.48-1.05,1.28,1.28,0,0,0-1,1.48A1.27,1.27,0,0,0,640.56,253.56Z"/>
            <path class="cls-21" d="M634.26,254.63a1.28,1.28,0,1,0-.42-2.52,1.27,1.27,0,0,0-1.05,1.47A1.29,1.29,0,0,0,634.26,254.63Z"/>
            <path class="cls-21" d="M645.79,246.2a1.27,1.27,0,1,0-1.47-1A1.27,1.27,0,0,0,645.79,246.2Z"/>
            <path class="cls-21" d="M639.5,247.27a1.28,1.28,0,1,0-1.48-1.05A1.28,1.28,0,0,0,639.5,247.27Z"/>
            <path class="cls-21" d="M633.2,248.33a1.29,1.29,0,0,0,1-1.47,1.28,1.28,0,1,0-1,1.47Z"/>
            <path class="cls-21" d="M626.9,249.39a1.27,1.27,0,0,0,1.05-1.47,1.28,1.28,0,1,0-2.52.43A1.28,1.28,0,0,0,626.9,249.39Z"/>
            <path class="cls-21" d="M637.94,257.24a1.27,1.27,0,0,0,1-1.47,1.28,1.28,0,1,0-2.52.43A1.28,1.28,0,0,0,637.94,257.24Z"/>
            <path class="cls-21" d="M636.88,251a1.3,1.3,0,0,0,1-1.48,1.28,1.28,0,1,0-1,1.48Z"/>
            <path class="cls-21" d="M643.17,249.88a1.27,1.27,0,1,0-1.47-1A1.27,1.27,0,0,0,643.17,249.88Z"/>
            <path class="cls-21" d="M630.58,252a1.28,1.28,0,1,0-1.47-1A1.28,1.28,0,0,0,630.58,252Z"/>
          </g>
          <g>
            <path class="cls-21" d="M622.65,224.21a1.28,1.28,0,1,0-1.47-1.05A1.28,1.28,0,0,0,622.65,224.21Z"/>
            <path class="cls-21" d="M616.35,225.27a1.28,1.28,0,1,0-1.47-1.05A1.28,1.28,0,0,0,616.35,225.27Z"/>
          </g>
          <g>
            <path class="cls-21" d="M631.07,235.74a1.28,1.28,0,1,0-1.47-1.05A1.28,1.28,0,0,0,631.07,235.74Z"/>
            <path class="cls-21" d="M624.78,236.8a1.28,1.28,0,0,0-.43-2.52,1.28,1.28,0,1,0,.43,2.52Z"/>
            <path class="cls-21" d="M618.48,237.86a1.28,1.28,0,1,0-1.47-1A1.28,1.28,0,0,0,618.48,237.86Z"/>
            <path class="cls-21" d="M630,229.44a1.28,1.28,0,1,0-1.47-1.05A1.28,1.28,0,0,0,630,229.44Z"/>
            <path class="cls-21" d="M623.71,230.5a1.27,1.27,0,0,0,1-1.47,1.28,1.28,0,1,0-2.52.43A1.28,1.28,0,0,0,623.71,230.5Z"/>
            <path class="cls-21" d="M617.42,231.57a1.28,1.28,0,0,0,1-1.48,1.27,1.27,0,1,0-2.51.43A1.28,1.28,0,0,0,617.42,231.57Z"/>
            <path class="cls-21" d="M622.65,224.21a1.28,1.28,0,1,0-1.47-1.05A1.28,1.28,0,0,0,622.65,224.21Z"/>
            <path class="cls-21" d="M616.35,225.27a1.28,1.28,0,1,0-1.47-1.05A1.28,1.28,0,0,0,616.35,225.27Z"/>
            <path class="cls-21" d="M610.06,226.33a1.28,1.28,0,0,0,1.05-1.47,1.3,1.3,0,0,0-1.48-1.05,1.28,1.28,0,0,0-1,1.48A1.27,1.27,0,0,0,610.06,226.33Z"/>
            <path class="cls-21" d="M621.1,234.18a1.27,1.27,0,0,0,1-1.47,1.27,1.27,0,1,0-2.51.43A1.27,1.27,0,0,0,621.1,234.18Z"/>
            <path class="cls-21" d="M627.39,233.12a1.28,1.28,0,1,0-1.47-1.05A1.28,1.28,0,0,0,627.39,233.12Z"/>
            <path class="cls-21" d="M620,227.89a1.28,1.28,0,1,0-1.47-1A1.28,1.28,0,0,0,620,227.89Z"/>
            <path class="cls-21" d="M626.33,226.82a1.27,1.27,0,1,0-1.47-1A1.27,1.27,0,0,0,626.33,226.82Z"/>
            <path class="cls-21" d="M613.74,229a1.28,1.28,0,1,0-1.47-1A1.28,1.28,0,0,0,613.74,229Z"/>
          </g>
          <g>
            <path class="cls-21" d="M633.2,248.33a1.28,1.28,0,1,0-.43-2.52,1.28,1.28,0,0,0,.43,2.52Z"/>
            <path class="cls-21" d="M626.9,249.39a1.27,1.27,0,0,0,1.05-1.47,1.28,1.28,0,1,0-2.52.43A1.28,1.28,0,0,0,626.9,249.39Z"/>
            <path class="cls-21" d="M620.61,250.46a1.28,1.28,0,0,0,1-1.48,1.27,1.27,0,0,0-1.47-1,1.28,1.28,0,0,0-1,1.47A1.3,1.3,0,0,0,620.61,250.46Z"/>
            <path class="cls-21" d="M632.14,242a1.27,1.27,0,1,0-.43-2.51,1.27,1.27,0,1,0,.43,2.51Z"/>
            <path class="cls-21" d="M625.84,243.1a1.28,1.28,0,1,0-1.47-1A1.28,1.28,0,0,0,625.84,243.1Z"/>
            <path class="cls-21" d="M619.54,244.16a1.28,1.28,0,1,0-1.47-1A1.28,1.28,0,0,0,619.54,244.16Z"/>
            <path class="cls-21" d="M631.07,235.74a1.28,1.28,0,1,0-1.47-1.05A1.28,1.28,0,0,0,631.07,235.74Z"/>
            <path class="cls-21" d="M624.78,236.8a1.28,1.28,0,0,0-.43-2.52,1.28,1.28,0,1,0,.43,2.52Z"/>
            <path class="cls-21" d="M618.48,237.86a1.28,1.28,0,1,0-1.47-1A1.28,1.28,0,0,0,618.48,237.86Z"/>
            <path class="cls-21" d="M612.18,238.93a1.28,1.28,0,1,0-1.47-1.05A1.28,1.28,0,0,0,612.18,238.93Z"/>
            <path class="cls-21" d="M623.22,246.78a1.28,1.28,0,1,0-1.47-1.05A1.28,1.28,0,0,0,623.22,246.78Z"/>
            <path class="cls-21" d="M629.52,245.71a1.28,1.28,0,0,0,1.05-1.47,1.3,1.3,0,0,0-1.48-1.05,1.28,1.28,0,0,0-1,1.48A1.27,1.27,0,0,0,629.52,245.71Z"/>
            <path class="cls-21" d="M622.16,240.48a1.29,1.29,0,0,0,1.05-1.47,1.28,1.28,0,1,0-1.05,1.47Z"/>
            <path class="cls-21" d="M628.46,239.42a1.28,1.28,0,0,0,1-1.48,1.28,1.28,0,0,0-2.52.43A1.29,1.29,0,0,0,628.46,239.42Z"/>
            <path class="cls-21" d="M615.86,241.54a1.27,1.27,0,0,0,1-1.47,1.28,1.28,0,1,0-2.52.43A1.28,1.28,0,0,0,615.86,241.54Z"/>
          </g>
          <g>
            <path class="cls-21" d="M634.26,254.63a1.28,1.28,0,1,0-1.47-1A1.28,1.28,0,0,0,634.26,254.63Z"/>
            <path class="cls-21" d="M628,255.69a1.28,1.28,0,1,0-1.48-1.05A1.28,1.28,0,0,0,628,255.69Z"/>
            <path class="cls-21" d="M621.67,256.75a1.28,1.28,0,1,0-1.47-1A1.27,1.27,0,0,0,621.67,256.75Z"/>
            <path class="cls-21" d="M633.2,248.33a1.28,1.28,0,1,0-.43-2.52,1.28,1.28,0,0,0,.43,2.52Z"/>
            <path class="cls-21" d="M626.9,249.39a1.27,1.27,0,0,0,1.05-1.47,1.28,1.28,0,1,0-2.52.43A1.28,1.28,0,0,0,626.9,249.39Z"/>
            <path class="cls-21" d="M620.61,250.46a1.28,1.28,0,0,0,1-1.48,1.27,1.27,0,0,0-1.47-1,1.28,1.28,0,0,0-1,1.47A1.3,1.3,0,0,0,620.61,250.46Z"/>
            <path class="cls-21" d="M614.31,251.52a1.29,1.29,0,0,0,1.05-1.47,1.28,1.28,0,1,0-1.05,1.47Z"/>
            <path class="cls-21" d="M625.35,259.37a1.28,1.28,0,1,0-.43-2.52,1.28,1.28,0,0,0,.43,2.52Z"/>
            <path class="cls-21" d="M631.64,258.31a1.28,1.28,0,1,0-1.47-1.05A1.28,1.28,0,0,0,631.64,258.31Z"/>
            <path class="cls-21" d="M624.29,253.07a1.27,1.27,0,0,0,1-1.47,1.28,1.28,0,1,0-1,1.47Z"/>
            <path class="cls-21" d="M630.58,252a1.28,1.28,0,1,0-1.47-1A1.28,1.28,0,0,0,630.58,252Z"/>
            <path class="cls-21" d="M618,254.14a1.3,1.3,0,0,0,1-1.48,1.28,1.28,0,1,0-1,1.48Z"/>
          </g>
          <g>
            <path class="cls-21" d="M616.35,225.27a1.28,1.28,0,1,0-1.47-1.05A1.28,1.28,0,0,0,616.35,225.27Z"/>
            <path class="cls-21" d="M610.06,226.33a1.27,1.27,0,1,0-.43-2.51,1.27,1.27,0,1,0,.43,2.51Z"/>
            <path class="cls-21" d="M603.76,227.4a1.28,1.28,0,1,0-1.47-1.05A1.28,1.28,0,0,0,603.76,227.4Z"/>
          </g>
          <g>
            <path class="cls-21" d="M618.48,237.86a1.28,1.28,0,1,0-1.47-1A1.28,1.28,0,0,0,618.48,237.86Z"/>
            <path class="cls-21" d="M612.18,238.93a1.28,1.28,0,1,0-1.47-1.05A1.28,1.28,0,0,0,612.18,238.93Z"/>
            <path class="cls-21" d="M605.89,240a1.28,1.28,0,1,0-1.47-1.05A1.28,1.28,0,0,0,605.89,240Z"/>
            <path class="cls-21" d="M617.42,231.57a1.28,1.28,0,0,0,1-1.48,1.27,1.27,0,1,0-2.51.43A1.28,1.28,0,0,0,617.42,231.57Z"/>
            <path class="cls-21" d="M611.12,232.63a1.28,1.28,0,1,0-1.47-1A1.28,1.28,0,0,0,611.12,232.63Z"/>
            <path class="cls-21" d="M604.83,233.69a1.27,1.27,0,0,0,1-1.47,1.28,1.28,0,1,0-1,1.47Z"/>
            <path class="cls-21" d="M616.35,225.27a1.28,1.28,0,1,0-1.47-1.05A1.28,1.28,0,0,0,616.35,225.27Z"/>
            <path class="cls-21" d="M610.06,226.33a1.28,1.28,0,0,0,1.05-1.47,1.3,1.3,0,0,0-1.48-1.05,1.28,1.28,0,0,0-1,1.48A1.27,1.27,0,0,0,610.06,226.33Z"/>
            <path class="cls-21" d="M603.76,227.4a1.28,1.28,0,1,0-1.47-1.05A1.28,1.28,0,0,0,603.76,227.4Z"/>
            <path class="cls-21" d="M608.5,236.31a1.28,1.28,0,1,0-1.47-1.05A1.28,1.28,0,0,0,608.5,236.31Z"/>
            <path class="cls-21" d="M614.8,235.25a1.28,1.28,0,1,0-.42-2.52,1.27,1.27,0,0,0-1,1.47A1.29,1.29,0,0,0,614.8,235.25Z"/>
            <path class="cls-21" d="M607.44,230a1.27,1.27,0,0,0,1-1.47A1.28,1.28,0,1,0,606,229,1.28,1.28,0,0,0,607.44,230Z"/>
            <path class="cls-21" d="M613.74,229a1.28,1.28,0,1,0-1.47-1A1.28,1.28,0,0,0,613.74,229Z"/>
            <path class="cls-21" d="M601.15,231.08a1.28,1.28,0,0,0,1-1.48,1.28,1.28,0,0,0-2.52.43A1.3,1.3,0,0,0,601.15,231.08Z"/>
          </g>
          <g>
            <path class="cls-21" d="M620.61,250.46a1.28,1.28,0,0,0,1-1.48,1.27,1.27,0,0,0-1.47-1,1.28,1.28,0,0,0-1,1.47A1.3,1.3,0,0,0,620.61,250.46Z"/>
            <path class="cls-21" d="M614.31,251.52a1.29,1.29,0,0,0,1.05-1.47,1.28,1.28,0,1,0-1.05,1.47Z"/>
            <path class="cls-21" d="M608,252.58a1.28,1.28,0,1,0-1.47-1A1.28,1.28,0,0,0,608,252.58Z"/>
            <path class="cls-21" d="M619.54,244.16a1.28,1.28,0,1,0-1.47-1A1.28,1.28,0,0,0,619.54,244.16Z"/>
            <path class="cls-21" d="M613.25,245.22a1.28,1.28,0,0,0-.43-2.52,1.28,1.28,0,0,0-1,1.48A1.27,1.27,0,0,0,613.25,245.22Z"/>
            <path class="cls-21" d="M607,246.29a1.28,1.28,0,1,0-.42-2.52,1.27,1.27,0,0,0-1,1.47A1.29,1.29,0,0,0,607,246.29Z"/>
            <path class="cls-21" d="M618.48,237.86a1.28,1.28,0,1,0-1.47-1A1.28,1.28,0,0,0,618.48,237.86Z"/>
            <path class="cls-21" d="M612.18,238.93a1.28,1.28,0,1,0-1.47-1.05A1.28,1.28,0,0,0,612.18,238.93Z"/>
            <path class="cls-21" d="M605.89,240a1.28,1.28,0,1,0-1.47-1.05A1.28,1.28,0,0,0,605.89,240Z"/>
            <path class="cls-21" d="M599.59,241.05a1.28,1.28,0,1,0-1.47-1A1.27,1.27,0,0,0,599.59,241.05Z"/>
            <path class="cls-21" d="M610.63,248.9a1.28,1.28,0,1,0-1.47-1A1.27,1.27,0,0,0,610.63,248.9Z"/>
            <path class="cls-21" d="M616.93,247.84a1.28,1.28,0,1,0-1.47-1.05A1.28,1.28,0,0,0,616.93,247.84Z"/>
            <path class="cls-21" d="M609.57,242.61a1.3,1.3,0,0,0,1-1.48,1.28,1.28,0,1,0-1,1.48Z"/>
            <path class="cls-21" d="M615.86,241.54a1.27,1.27,0,0,0,1-1.47,1.28,1.28,0,1,0-2.52.43A1.28,1.28,0,0,0,615.86,241.54Z"/>
            <path class="cls-21" d="M603.27,243.67a1.28,1.28,0,1,0-1.47-1A1.28,1.28,0,0,0,603.27,243.67Z"/>
          </g>
          <g>
            <path class="cls-21" d="M621.67,256.75a1.28,1.28,0,1,0-1.47-1A1.27,1.27,0,0,0,621.67,256.75Z"/>
            <path class="cls-21" d="M615.37,257.82a1.28,1.28,0,1,0-.42-2.52,1.27,1.27,0,0,0-1.05,1.47A1.29,1.29,0,0,0,615.37,257.82Z"/>
            <path class="cls-21" d="M620.61,250.46a1.28,1.28,0,0,0,1-1.48,1.27,1.27,0,0,0-1.47-1,1.28,1.28,0,0,0-1,1.47A1.3,1.3,0,0,0,620.61,250.46Z"/>
            <path class="cls-21" d="M614.31,251.52a1.29,1.29,0,0,0,1.05-1.47,1.28,1.28,0,1,0-1.05,1.47Z"/>
            <path class="cls-21" d="M608,252.58a1.28,1.28,0,1,0-1.47-1A1.28,1.28,0,0,0,608,252.58Z"/>
            <path class="cls-21" d="M611.69,255.2a1.28,1.28,0,1,0-1.47-1A1.28,1.28,0,0,0,611.69,255.2Z"/>
            <path class="cls-21" d="M618,254.14a1.3,1.3,0,0,0,1-1.48,1.28,1.28,0,1,0-1,1.48Z"/>
          </g>
          <path class="cls-21" d="M603.76,227.4a1.28,1.28,0,1,0-1.47-1.05A1.28,1.28,0,0,0,603.76,227.4Z"/>
          <g>
            <path class="cls-21" d="M605.89,240a1.28,1.28,0,1,0-1.47-1.05A1.28,1.28,0,0,0,605.89,240Z"/>
            <path class="cls-21" d="M599.59,241.05a1.28,1.28,0,1,0-1.47-1.05A1.28,1.28,0,0,0,599.59,241.05Z"/>
            <path class="cls-21" d="M604.83,233.69a1.27,1.27,0,0,0,1-1.47,1.28,1.28,0,1,0-1,1.47Z"/>
            <path class="cls-21" d="M598.53,234.76a1.3,1.3,0,0,0,1.05-1.48,1.28,1.28,0,0,0-1.48-1,1.27,1.27,0,0,0-1,1.47A1.28,1.28,0,0,0,598.53,234.76Z"/>
            <path class="cls-21" d="M603.76,227.4a1.28,1.28,0,1,0-1.47-1.05A1.28,1.28,0,0,0,603.76,227.4Z"/>
            <path class="cls-21" d="M602.21,237.37a1.28,1.28,0,1,0-1.47-1A1.27,1.27,0,0,0,602.21,237.37Z"/>
            <path class="cls-21" d="M601.15,231.08a1.28,1.28,0,0,0,1-1.48,1.28,1.28,0,0,0-2.52.43A1.3,1.3,0,0,0,601.15,231.08Z"/>
          </g>
          <g>
            <path class="cls-21" d="M608,252.58a1.28,1.28,0,1,0-1.47-1A1.28,1.28,0,0,0,608,252.58Z"/>
            <path class="cls-21" d="M607,246.29a1.28,1.28,0,1,0-.42-2.52,1.27,1.27,0,0,0-1,1.47A1.29,1.29,0,0,0,607,246.29Z"/>
            <path class="cls-21" d="M600.66,247.35a1.28,1.28,0,1,0-1.48-1A1.28,1.28,0,0,0,600.66,247.35Z"/>
            <path class="cls-21" d="M605.89,240a1.28,1.28,0,1,0-1.47-1.05A1.28,1.28,0,0,0,605.89,240Z"/>
            <path class="cls-21" d="M599.59,241.05a1.28,1.28,0,1,0-1.47-1A1.27,1.27,0,0,0,599.59,241.05Z"/>
            <path class="cls-21" d="M604.33,250a1.27,1.27,0,1,0-1.47-1A1.27,1.27,0,0,0,604.33,250Z"/>
            <path class="cls-21" d="M603.27,243.67a1.28,1.28,0,1,0-1.47-1A1.28,1.28,0,0,0,603.27,243.67Z"/>
          </g>
          <path class="cls-21" d="M608,252.58a1.28,1.28,0,1,0-1.47-1A1.28,1.28,0,0,0,608,252.58Z"/>
        </g>
        <path class="cls-4" d="M660,226c-5.67,13.2-22.48,11.53-33.07,12.75"/>
        <g>
          <path class="cls-6" d="M672.16,180c1.55,19.55-23.16,30.6-22.25,10.64Z"/>
          <g>
            <path class="cls-6" d="M642.46,191.14c-4,23.36-37.51,22.43-33.84-.75Z"/>
            <path class="cls-21" d="M632,201.07c.09-3.45-2.15-5.77-5-5.16s-5.23,3.88-5.31,7.34,2.16,5.74,5,5.14S631.93,204.51,632,201.07Z"/>
          </g>
          <path class="cls-21" d="M663.53,194.79c.47-3.22-1.29-5.51-3.9-5.12s-5.12,3.31-5.57,6.52,1.3,5.5,3.91,5.11S663.07,198,663.53,194.79Z"/>
        </g>
        <path class="cls-4" d="M383.31,519.36a72.15,72.15,0,0,1,39.78,46.21l39.09,69.06"/>
        <path class="cls-4" d="M364.18,758.13c15,1.5,42.5-13.5,42.5-39.5v-37.5"/>
        <path class="cls-6" d="M484.92,580.75c-.61-8.25-6.9-17.16,6.23-27.36l11.5-17.22a4,4,0,0,1,6.24,1.59l2.59,6c7.39,17.25,11.33,26.68,1.45,58.4"/>
        <path class="cls-4" d="M512,604.59a29.65,29.65,0,0,1-2.09,8.7s-15.4,45.43-23.07,59.4c-5.49,10-15,15.43-26.33,14.41C448,686,433,673.39,433,673.39L385.1,627"/>
        <path class="cls-7" d="M466.67,618.9l16.89-36.62c8.87-5.78,29.84,3.37,28.39,22.31"/>
        <path class="cls-4" d="M739.35,640.13l32.5-65a64.23,64.23,0,0,1,35.7-31.72"/>
        <path class="cls-4" d="M741,635.8a247.26,247.26,0,0,0-23.67-11.67c-11.33-4.66-22.86,12.79-11.33,32,3.62,6,8.21,13,12.58,19.51A30,30,0,0,0,756.24,686l14.06-6.64v73.13s-1.61,27.33,27.72,46"/>
        <path class="cls-4" d="M919.07,537.16c12.56,4.82,20.64,16.29,24.12,29.76,10.83,41.88,7.7,81.82,8.16,83.21"/>
        <line class="cls-7" x1="805.35" y1="659.47" x2="769.3" y2="679.34"/>
        <path class="cls-7" d="M700.69,643.8c-6-14.33-11.67-35,4-46.33l3.3,10.25,10.1,3a6.44,6.44,0,0,1,4.59,6.18v9.7"/>
        <polyline class="cls-4" points="944.14 476.65 951.35 499.55 993.18 518.13"/>
        <polyline class="cls-4" points="1007.06 507.1 986.35 432.55 935.93 411.88"/>
        <polyline class="cls-4" points="1017.29 506.42 995.1 426.55 928.77 399.22"/>
        <path class="cls-4" d="M540.69,444.84c-60.89,12-111.66,28.62-147.32,48.36"/>
        <path class="cls-4" d="M796.33,424.81c-10.6-.25-18.31-.37-29.11-.37-13.22,0-26.32-.21-39.22.55-19.32,1.14-33,2.81-33,2.81"/>
        <path class="cls-4" d="M968.06,681.69c136.58-22.88,229.66-68.38,229.66-120.76,0-14.12-6.76-27.73-19.3-40.54"/>
        <path class="cls-4" d="M491,665.63c74.76,19.84,171.09,31.79,276.22,31.79H770"/>
        <path class="cls-7" d="M572.68,263.46a121.26,121.26,0,0,1-1.08-29.92h0a92.52,92.52,0,0,1,7.86-29.94,86.65,86.65,0,0,1,20.72-28.3c21.73-19.81,51.05-27.41,71.27-24.59,10.62,1.47,18.73,5.81,21.9,12.76"/>
        <line class="cls-4" x1="891.35" y1="341.8" x2="927.35" y2="375.47"/>
        <line class="cls-4" x1="887.69" y1="394.13" x2="864.42" y2="362.09"/>
        <g>
          <g>
            <line class="cls-22" x1="710.09" y1="291.07" x2="661.35" y2="392.39"/>
            <path class="cls-3" d="M644.75,384.4a18.42,18.42,0,1,0,24.59-8.61A18.42,18.42,0,0,0,644.75,384.4Z"/>
          </g>
          <g>
            <polyline class="cls-22" points="486.86 502.38 709.13 281.8 706.29 291.2"/>
            <path class="cls-3" d="M499.83,515.46a18.42,18.42,0,1,1,.1-26.05A18.42,18.42,0,0,1,499.83,515.46Z"/>
          </g>
          <g>
            <line class="cls-22" x1="723.34" y1="516.88" x2="709.13" y2="281.8"/>
            <circle class="cls-3" cx="723.34" cy="516.88" r="18.42" transform="translate(-81.07 138.31) rotate(-10.35)"/>
          </g>
          <g>
            <line class="cls-22" x1="712.13" y1="281.8" x2="957.83" y2="401.89"/>
            <path class="cls-3" d="M949.74,418.44a18.42,18.42,0,1,0-8.46-24.64A18.43,18.43,0,0,0,949.74,418.44Z"/>
          </g>
          <path class="cls-3" d="M728.12,287.3a18,18,0,1,0-18,18A18,18,0,0,0,728.12,287.3Z"/>
        </g>
        <g>
          <g>
            <rect class="cls-2" x="801.43" y="403.05" width="118.49" height="164.84" rx="48.99" ry="48.99"/>
            <rect class="cls-4" x="801.43" y="403.05" width="118.49" height="164.84" rx="48.99" ry="48.99"/>
          </g>
          <g>
            <path class="cls-1" d="M801.43,416.63c25.3-33.94,82.61-30.17,103.72-13.58s17.47,47,14.77,115.85-59.25,39.71-59.25,39.71-21.87.37-24.14-18.4,7.54-69.79-2.26-78.21-31.67-3.9-36.19-12.2S793.76,426.92,801.43,416.63Z"/>
            <path class="cls-4" d="M801.43,416.63c25.3-33.94,82.61-30.17,103.72-13.58s17.47,47,14.77,115.85c-3,76.6-81.46,37.32-83.39,21.31-2.26-18.77,7.54-69.79-2.26-78.21s-31.67-3.9-36.19-12.2S793.76,426.92,801.43,416.63Z"/>
          </g>
          <path class="cls-4" d="M944.5,456.42c0-48.32-30.26-82.33-73-82.33h-16a81.69,81.69,0,0,0-81.65,82.33v91.82c0,49.79,170.59,56.12,170.59,0h0Z"/>
        </g>
      </g>
      <g>
        <polygon class="cls-2" points="1129.35 211.13 1093.13 243.39 1130.68 243.39 1129.35 211.13"/>
        <rect class="cls-2" x="1124.56" y="182.68" width="187.02" height="104.77" rx="17" ry="17"/>
        <path class="cls-7" d="M1278.18,287.45H1139a13.69,13.69,0,0,1-13.69-13.69m160.4,13.69h11.84a13.69,13.69,0,0,0,13.69-13.69V196.37a13.69,13.69,0,0,0-13.69-13.69H1139a13.69,13.69,0,0,0-13.69,13.69v6.39"/>
        <path class="cls-7" d="M1125.35,270.47V247.29a2.54,2.54,0,0,0-2.54-2.54h-29.16a.78.78,0,0,1-.52-1.36l31.39-28.62a2.53,2.53,0,0,0,.83-1.88v-9.42"/>
      </g>
      <g>
        <polygon class="cls-2" points="963.68 560.34 927.46 528.08 965.02 528.08 963.68 560.34"/>
        <rect class="cls-2" x="958.9" y="484.02" width="243.02" height="104.77" rx="17" ry="17"/>
        <path class="cls-7" d="M1144.28,484H973.34a13.69,13.69,0,0,0-13.7,13.69M1144.28,484h43.6a13.69,13.69,0,0,1,13.69,13.69V575.1a13.69,13.69,0,0,1-13.69,13.69H973.34a13.69,13.69,0,0,1-13.7-13.69v-6.39"/>
        <path class="cls-7" d="M959.68,501v23.18a2.54,2.54,0,0,1-2.54,2.54H928a.78.78,0,0,0-.53,1.36l31.39,28.62a2.53,2.53,0,0,1,.83,1.88V568"/>
      </g>
      <g>
        <rect class="cls-2" x="263.05" y="201.12" width="187.02" height="104.77" rx="17" ry="17"/>
        <path class="cls-7" d="M431.55,305.89h4.08a13.69,13.69,0,0,0,13.7-13.69M296.46,305.89h57.59m-65.12,0H277.09a13.69,13.69,0,0,1-13.69-13.68v-77.4a13.69,13.69,0,0,1,13.69-13.69H435.63a13.69,13.69,0,0,1,13.7,13.69V281"/>
        <g>
          <polygon class="cls-2" points="368.69 301.73 400.94 337.96 400.94 300.4 368.69 301.73"/>
          <path class="cls-7" d="M426.61,305.73H403.43a2.54,2.54,0,0,0-2.54,2.54v29.16a.79.79,0,0,1-.5.73.81.81,0,0,1-.86-.2l-28.62-31.4a2.53,2.53,0,0,0-1.88-.83h-9.42"/>
        </g>
      </g>
      <g>
        <polygon class="cls-10" points="1167.41 279.26 1136.34 328.95 1144.68 336.13 1170.33 281.02 1167.41 279.26"/>
        <path class="cls-11" d="M1164,270.64a10,10,0,1,0,11-8.87A10,10,0,0,0,1164,270.64Z"/>
      </g>
      <g>
        <path class="cls-3" d="M333.69,258.79v8h-6.33v-8.13l-8.55-14.27h6.69l5.31,8.9,5.31-8.9h6.15Z"/>
        <path class="cls-3" d="M346.12,264.55c-1.84-1.81-2.76-4.39-2.76-7.71V244.42h6.33v12.22q0,5.39,4.26,5.38t4.22-5.38V244.42h6.24v12.42c0,3.32-.92,5.9-2.77,7.71s-4.43,2.72-7.76,2.72S348,266.36,346.12,264.55Z"/>
        <path class="cls-3" d="M384.22,245.43a8.17,8.17,0,0,1,3.46,11.66,7.94,7.94,0,0,1-3.46,2.87,12.79,12.79,0,0,1-5.28,1H375v5.86H368.7v-22.4h10.24A12.79,12.79,0,0,1,384.22,245.43Zm-2.72,9.69a3,3,0,0,0,1-2.41,3,3,0,0,0-1-2.43,4.34,4.34,0,0,0-2.94-.87H375V256h3.52A4.39,4.39,0,0,0,381.5,255.12Z"/>
        <path class="cls-3" d="M392.25,266.13a3.16,3.16,0,0,1-1-2.38,3.07,3.07,0,0,1,1-2.37,3.77,3.77,0,0,1,2.63-.93,3.68,3.68,0,0,1,2.6.93,3.06,3.06,0,0,1,1,2.37,3.16,3.16,0,0,1-1,2.38,3.61,3.61,0,0,1-2.59,1A3.68,3.68,0,0,1,392.25,266.13Zm-1-21.71h7.23l-1.21,14.24h-4.84Z"/>
      </g>
      <g>
        <path class="cls-3" d="M996.89,541.87h-3.45v6H987.1v-22.4h10.24a12.79,12.79,0,0,1,5.28,1,8.16,8.16,0,0,1,3.54,11.52,7.71,7.71,0,0,1-3.25,2.83l4.83,7H1001Zm3-10.59a4.34,4.34,0,0,0-2.94-.87h-3.52V537H997a4.39,4.39,0,0,0,2.94-.85,3,3,0,0,0,1-2.41A3,3,0,0,0,999.9,531.28Z"/>
        <path class="cls-3" d="M1028.76,542.92v4.9h-18v-22.4h17.57v4.9h-11.3v3.77h10v4.74h-10v4.09Z"/>
        <path class="cls-3" d="M1037.1,546.78a11.11,11.11,0,0,1-4.4-4.14,12.13,12.13,0,0,1,0-12,11.11,11.11,0,0,1,4.4-4.14,13.28,13.28,0,0,1,6.32-1.49,13.69,13.69,0,0,1,5.54,1.09,10.6,10.6,0,0,1,4.09,3.14l-4,3.64a6.65,6.65,0,0,0-5.28-2.62,6.55,6.55,0,0,0-3.25.8,5.51,5.51,0,0,0-2.2,2.26,7.46,7.46,0,0,0,0,6.68,5.45,5.45,0,0,0,2.2,2.26,6.55,6.55,0,0,0,3.25.8,6.62,6.62,0,0,0,5.28-2.62l4,3.64a10.51,10.51,0,0,1-4.09,3.14,13.53,13.53,0,0,1-5.54,1.09A13.28,13.28,0,0,1,1037.1,546.78Z"/>
        <path class="cls-3" d="M1060.3,546.76a11.45,11.45,0,0,1,0-20.28,14.25,14.25,0,0,1,12.77,0,11.45,11.45,0,0,1,0,20.28,14.25,14.25,0,0,1-12.77,0Zm9.46-4.54a5.69,5.69,0,0,0,2.17-2.26,7.37,7.37,0,0,0,0-6.68,5.76,5.76,0,0,0-2.17-2.26,6.31,6.31,0,0,0-6.15,0,5.69,5.69,0,0,0-2.17,2.26,7.37,7.37,0,0,0,0,6.68,5.63,5.63,0,0,0,2.17,2.26,6.31,6.31,0,0,0,6.15,0Z"/>
        <path class="cls-3" d="M1092.25,541.87h-3.45v6h-6.34v-22.4h10.24a12.79,12.79,0,0,1,5.28,1,8.16,8.16,0,0,1,3.54,11.52,7.71,7.71,0,0,1-3.25,2.83l4.83,7h-6.78Zm3-10.59a4.34,4.34,0,0,0-2.94-.87h-3.52V537h3.52a4.39,4.39,0,0,0,2.94-.85,3,3,0,0,0,1-2.41A3,3,0,0,0,1095.26,531.28Z"/>
        <path class="cls-3" d="M1106.14,525.42h10.59a14.78,14.78,0,0,1,6.53,1.38,10.37,10.37,0,0,1,4.42,3.9,12,12,0,0,1,0,11.84,10.31,10.31,0,0,1-4.42,3.9,14.78,14.78,0,0,1-6.53,1.38h-10.59Zm10.34,17.34a6.47,6.47,0,0,0,4.62-1.63,6.71,6.71,0,0,0,0-9,6.47,6.47,0,0,0-4.62-1.63h-4v12.28Z"/>
        <path class="cls-3" d="M1150.56,542.92v4.9h-18v-22.4h17.57v4.9h-11.3v3.77h10v4.74h-10v4.09Z"/>
        <path class="cls-3" d="M1154.08,525.42h10.59a14.81,14.81,0,0,1,6.53,1.38,10.35,10.35,0,0,1,4.41,3.9,11.95,11.95,0,0,1,0,11.84,10.28,10.28,0,0,1-4.41,3.9,14.81,14.81,0,0,1-6.53,1.38h-10.59Zm10.33,17.34a6.51,6.51,0,0,0,4.63-1.63,6.71,6.71,0,0,0,0-9,6.51,6.51,0,0,0-4.63-1.63h-4v12.28Z"/>
      </g>
      <g>
        <path class="cls-3" d="M1174.57,236.16h5.6v9.28a14.77,14.77,0,0,1-4.41,2.11,17.63,17.63,0,0,1-5,.73,13.38,13.38,0,0,1-6.34-1.48,11.19,11.19,0,0,1-4.42-4.15,12.11,12.11,0,0,1,0-12,11,11,0,0,1,4.45-4.14,13.58,13.58,0,0,1,6.43-1.49,14.46,14.46,0,0,1,5.64,1,11,11,0,0,1,4.16,3l-4,3.65a7.1,7.1,0,0,0-5.44-2.49,6,6,0,0,0-6.4,6.4,6.81,6.81,0,0,0,.8,3.31,5.75,5.75,0,0,0,2.24,2.27,6.62,6.62,0,0,0,3.3.82,8.05,8.05,0,0,0,3.42-.74Z"/>
        <path class="cls-3" d="M1189.12,246.78a11.45,11.45,0,0,1,0-20.29,14.34,14.34,0,0,1,12.77,0,11.46,11.46,0,0,1,0,20.29,14.34,14.34,0,0,1-12.77,0Zm9.45-4.54a5.78,5.78,0,0,0,2.18-2.26,7.39,7.39,0,0,0,0-6.69,5.69,5.69,0,0,0-2.18-2.25,6.29,6.29,0,0,0-6.14,0,5.76,5.76,0,0,0-2.18,2.25,7.39,7.39,0,0,0,0,6.69,5.85,5.85,0,0,0,2.18,2.26,6.29,6.29,0,0,0,6.14,0Z"/>
        <path class="cls-3" d="M1215.73,230.46h-6.88v-5h20.06v5h-6.85v17.38h-6.33Z"/>
        <path class="cls-3" d="M1240.59,225.44h6.34v22.4h-6.34Z"/>
        <path class="cls-3" d="M1256.2,230.46h-6.88v-5h20.07v5h-6.85v17.38h-6.34Z"/>
        <path class="cls-3" d="M1272.36,247.15a3.18,3.18,0,0,1-1-2.39,3,3,0,0,1,1-2.36,3.77,3.77,0,0,1,2.63-.93,3.72,3.72,0,0,1,2.61.93,3,3,0,0,1,1,2.36,3.18,3.18,0,0,1-1,2.39,3.6,3.6,0,0,1-2.59,1A3.67,3.67,0,0,1,1272.36,247.15Zm-1-21.71h7.23l-1.21,14.24h-4.83Z"/>
      </g>
    </g>
  </g>
</svg>
