<svg id="work" xmlns="http://www.w3.org/2000/svg" viewBox="0 0 1422 870">
  <defs>
    <style>
      .cls-1, .cls-8, .cls-9 {
        fill: #ff0083;
      }

      .cls-13, .cls-14, .cls-18, .cls-2, .cls-5, .cls-7 {
        fill: #ebebeb;
      }

      .cls-11, .cls-15, .cls-16, .cls-17, .cls-19, .cls-3, .cls-6 {
        fill: #fff;
      }

      .cls-10, .cls-12, .cls-21, .cls-22, .cls-4 {
        fill: none;
      }

      .cls-10, .cls-11, .cls-12, .cls-13, .cls-14, .cls-15, .cls-16, .cls-17, .cls-18, .cls-19, .cls-22, .cls-4, .cls-5, .cls-6, .cls-7, .cls-8, .cls-9 {
        stroke: #4a4a4a;
      }

      .cls-10, .cls-13, .cls-16, .cls-17, .cls-19, .cls-21, .cls-4, .cls-5, .cls-6, .cls-7, .cls-8 {
        stroke-linecap: round;
      }

      .cls-10, .cls-12, .cls-13, .cls-17, .cls-19, .cls-21, .cls-4, .cls-5, .cls-6, .cls-7, .cls-8 {
        stroke-linejoin: round;
      }

      .cls-14, .cls-15, .cls-4, .cls-5, .cls-6, .cls-8, .cls-9 {
        stroke-width: 2.5px;
      }

      .cls-12, .cls-16, .cls-17, .cls-18, .cls-7 {
        stroke-width: 3px;
      }

      .cls-11, .cls-14, .cls-15, .cls-16, .cls-18, .cls-22, .cls-9 {
        stroke-miterlimit: 10;
      }

      .cls-10, .cls-11, .cls-13, .cls-19, .cls-22 {
        stroke-width: 4px;
      }

      .cls-12 {
        stroke-linecap: square;
      }

      .cls-20 {
        fill: #4a4a4a;
      }

      .cls-21 {
        stroke: #ff0083;
        stroke-width: 7px;
      }
    </style>
  </defs>
  <title>19,2</title>
  <g>
    <g>
      <path class="cls-1" d="M88.87,102v6.6H62.42v-5.25l13.5-12.75a14.35,14.35,0,0,0,2.9-3.52,6.41,6.41,0,0,0,.75-2.93,3.85,3.85,0,0,0-1.42-3.22A6.65,6.65,0,0,0,74,79.79a9.64,9.64,0,0,0-4.15.88,8,8,0,0,0-3.1,2.62l-5.9-3.8a13.88,13.88,0,0,1,5.65-4.77A18.87,18.87,0,0,1,74.72,73a17,17,0,0,1,6.83,1.28,10.56,10.56,0,0,1,4.55,3.6,9.32,9.32,0,0,1,1.62,5.47,12.18,12.18,0,0,1-1.2,5.35,20.5,20.5,0,0,1-4.65,5.7L73.82,102Z"/>
      <path class="cls-1" d="M139,93.57a8.77,8.77,0,0,1,1.7,5.47,8.1,8.1,0,0,1-3.57,7.08q-3.58,2.47-10.43,2.47h-18.1v-35h17.1q6.4,0,9.83,2.45a7.77,7.77,0,0,1,3.42,6.65,8.39,8.39,0,0,1-4.65,7.7A9.28,9.28,0,0,1,139,93.57ZM116.62,79.69v8.25h8a8.12,8.12,0,0,0,4.55-1,3.51,3.51,0,0,0,1.55-3.1,3.44,3.44,0,0,0-1.55-3.07,8.3,8.3,0,0,0-4.55-1Zm14.27,21.75a3.58,3.58,0,0,0,1.63-3.25q0-4.35-6.45-4.35h-9.45v8.65h9.45A9,9,0,0,0,130.89,101.44Z"/>
      <path class="cls-1" d="M153.57,80.19h-11.2v-6.6h30.5v6.6h-11.2v28.4h-8.1Z"/>
      <path class="cls-1" d="M183.79,106.87a17.35,17.35,0,0,1-6.79-6.45,18.77,18.77,0,0,1,0-18.65,17.35,17.35,0,0,1,6.79-6.45A20.25,20.25,0,0,1,193.52,73a20.58,20.58,0,0,1,8.23,1.6,16.52,16.52,0,0,1,6.17,4.6l-5.2,4.8a11.2,11.2,0,0,0-8.8-4.1,11.68,11.68,0,0,0-5.8,1.43,10.11,10.11,0,0,0-4,4,12.48,12.48,0,0,0,0,11.6,10.13,10.13,0,0,0,4,4,11.67,11.67,0,0,0,5.8,1.42,11.12,11.12,0,0,0,8.8-4.15l5.2,4.8a16.08,16.08,0,0,1-6.2,4.65,20.54,20.54,0,0,1-8.25,1.6A20.13,20.13,0,0,1,183.79,106.87Z"/>
      <path class="cls-1" d="M226,91.39h14.15v6.25H226Z"/>
      <path class="cls-1" d="M282.17,91.27a9.44,9.44,0,0,1,2.45,6.62,10.52,10.52,0,0,1-1.6,5.63,11.09,11.09,0,0,1-4.88,4.12,18.53,18.53,0,0,1-8,1.55,27.58,27.58,0,0,1-7.28-1,18.68,18.68,0,0,1-6.07-2.78l3.15-6.2a15.2,15.2,0,0,0,4.62,2.33,17.82,17.82,0,0,0,5.38.82,8.56,8.56,0,0,0,4.8-1.17,3.79,3.79,0,0,0,1.75-3.33c0-2.86-2.18-4.3-6.55-4.3h-3.7V88.24l7.2-8.15h-14.9v-6.5H283v5.25l-7.9,9A11.81,11.81,0,0,1,282.17,91.27Z"/>
      <path class="cls-1" d="M335.12,93.57a8.77,8.77,0,0,1,1.7,5.47,8.08,8.08,0,0,1-3.58,7.08q-3.57,2.47-10.42,2.47h-18.1v-35h17.1q6.39,0,9.82,2.45a7.75,7.75,0,0,1,3.43,6.65,8.43,8.43,0,0,1-4.65,7.7A9.33,9.33,0,0,1,335.12,93.57ZM312.77,79.69v8.25h8.05a8.14,8.14,0,0,0,4.55-1,3.51,3.51,0,0,0,1.55-3.1,3.44,3.44,0,0,0-1.55-3.07,8.33,8.33,0,0,0-4.55-1ZM327,101.44a3.58,3.58,0,0,0,1.63-3.25q0-4.35-6.45-4.35h-9.45v8.65h9.45A9,9,0,0,0,327,101.44Z"/>
      <path class="cls-1" d="M349.72,80.19h-11.2v-6.6H369v6.6h-11.2v28.4h-8.1Z"/>
      <path class="cls-1" d="M379.94,106.87a17.37,17.37,0,0,1-6.8-6.45,18.84,18.84,0,0,1,0-18.65,17.37,17.37,0,0,1,6.8-6.45A20.22,20.22,0,0,1,389.67,73a20.5,20.5,0,0,1,8.22,1.6,16.55,16.55,0,0,1,6.18,4.6l-5.2,4.8a11.2,11.2,0,0,0-8.8-4.1,11.68,11.68,0,0,0-5.8,1.43,10.13,10.13,0,0,0-4,4,12.56,12.56,0,0,0,0,11.6,10.16,10.16,0,0,0,4,4,11.67,11.67,0,0,0,5.8,1.42,11.12,11.12,0,0,0,8.8-4.15l5.2,4.8a16.15,16.15,0,0,1-6.2,4.65,20.54,20.54,0,0,1-8.25,1.6A20.1,20.1,0,0,1,379.94,106.87Z"/>
      <path class="cls-1" d="M422.62,81.84h23.8v6.1h-23.8Zm0,12.4h23.8v6.1h-23.8Z"/>
      <path class="cls-1" d="M466.21,91.39h14.16v6.25H466.21Z"/>
      <path class="cls-1" d="M497.32,73.59v35h-8.11V80.09h-7v-6.5Z"/>
      <path class="cls-1" d="M550.16,93.57A8.71,8.71,0,0,1,551.87,99a8.11,8.11,0,0,1-3.58,7.08q-3.57,2.47-10.42,2.47h-18.1v-35h17.1q6.39,0,9.82,2.45a7.78,7.78,0,0,1,3.43,6.65,8.42,8.42,0,0,1-4.66,7.7A9.28,9.28,0,0,1,550.16,93.57ZM527.81,79.69v8.25h8.06a8.08,8.08,0,0,0,4.54-1,3.48,3.48,0,0,0,1.55-3.1,3.42,3.42,0,0,0-1.55-3.07,8.27,8.27,0,0,0-4.54-1Zm14.28,21.75a3.6,3.6,0,0,0,1.62-3.25q0-4.35-6.44-4.35h-9.46v8.65h9.46A9,9,0,0,0,542.09,101.44Z"/>
      <path class="cls-1" d="M564.77,80.19H553.56v-6.6h30.5v6.6H572.87v28.4h-8.1Z"/>
      <path class="cls-1" d="M595,106.87a17.37,17.37,0,0,1-6.8-6.45,18.77,18.77,0,0,1,0-18.65,17.37,17.37,0,0,1,6.8-6.45A20.21,20.21,0,0,1,604.71,73a20.51,20.51,0,0,1,8.23,1.6,16.55,16.55,0,0,1,6.18,4.6l-5.2,4.8a11.2,11.2,0,0,0-8.8-4.1,11.74,11.74,0,0,0-5.81,1.43,10.17,10.17,0,0,0-4,4,12.56,12.56,0,0,0,0,11.6,10.2,10.2,0,0,0,4,4,11.74,11.74,0,0,0,5.81,1.42,11.12,11.12,0,0,0,8.8-4.15l5.2,4.8a16.15,16.15,0,0,1-6.2,4.65,20.54,20.54,0,0,1-8.25,1.6A20.1,20.1,0,0,1,595,106.87Z"/>
    </g>
    <g>
      <ellipse class="cls-2" cx="767.56" cy="561.74" rx="429.56" ry="135.69"/>
      <path class="cls-3" d="M790.19,333.05c0-40-19-67-36.5-67.5,0,0-2-62.5-5.5-75.5s-78-98.5-119.5-53S620,252.63,620,252.63l-18.65,8.42-8.35,6a23.14,23.14,0,0,0-7.2,8.45l-6.45,12.88-28.25,61.44a39.85,39.85,0,0,0-2.19,27.26l17.44,63,26.86-1,19.5-2,6.4,48.39,73.53,10.79,1.07-5.68,33.5-19.5s30.5-20,43.5-34,20-34.5,20-34.5S790.19,373.05,790.19,333.05ZM599.5,404.8l-7-1.75-1.25-40.5L611,329.8Z"/>
      <path class="cls-3" d="M1157.75,472.14l-.5-92.75s0-47.15-50.75-72.25c-23.25-11.5-97.75-5.75-112.5-2.25s-37,30.75-39.75,48.25-.75,69.5-3.25,76.5a50.13,50.13,0,0,1-7.75,13.25l-.5,1.75-21.25-8.5h0c3,18.25,2.75,40,1.25,50.75s-.75,18.5-1.25,19.25c14.75,7,41,14.25,41,14.25l29.75-24-13.5-45.59a1.17,1.17,0,0,1,1.25-.5c.75.25,4.5-6.75,4.5-6.75s6.75-1.91,6.5-.91,85,21.41,112,32.91c0,.62-5.83,6.25-13.86,9.57-17.72,7.32-46.14,15-46.14,15s15,17.25,12.5,29c19.75-2.5,95.25-11,95.25-11Z"/>
      <path class="cls-3" d="M783,671.14c-14,7.5-35.75,17.5-51.75-5.25s-18-28-16.5-36.75,4.75-17.5,19.75-11.5,19.25,11,20.5,9.25c21.75-45.5,32-66.25,40.5-75.25s14.75-14,24.5-16.25c29.75,24.75,27.5,25,54.25,23.75s47-2,52-31c15.75.25,33.08,18.32,36.25,59.5,1.25,19.25,1.75,53.25,1.75,53.25,12.25,21.25-22.75,89.25-62.75,114s-79.5,47-96.25,31.25-20.75-26-21.75-47S783,671.14,783,671.14Z"/>
      <path class="cls-3" d="M396.5,510.89c25,9,34.5,26.75,46,67.5s16,58,16,58l23-22c15-1.5,25.75.75,28,29.25-6.25,11.5-20.75,38.25-29.5,48-10,9.5-34.25,17.5-51.5-4.25-4.75-7-9-14-9-14v40.75s-1.75,31-43,35.5c.5-31.75,6.75-82.75-13-119S299,546.14,245,562.89c-.5-42.25,2-53.5,7.25-59.75,12.25-14.5,34.75-24.5,59.5.75,20.75-10.5,40.5-13.5,58.25,17.75A66.06,66.06,0,0,0,396.5,510.89Z"/>
      <g>
        <path class="cls-4" d="M986.35,443l8.65,1.49c30.13,6.21,60,14.87,97,26.94l11,3.57"/>
        <polyline class="cls-5" points="922.02 502.97 973.89 467.17 1078.68 501.87 1017.78 547.46"/>
        <path class="cls-5" d="M911.73,509l-13-86.67,95,34.94a18.33,18.33,0,0,1,11.8,14.47L1017,547.62"/>
        <path class="cls-6" d="M1014.1,554.65,908.88,516l-14-89.66,95.11,35a18.33,18.33,0,0,1,11.78,14.36Z"/>
        <g>
          <path class="cls-7" d="M1181.17,513.62a24.34,24.34,0,0,1-1.56,9.13,107.06,107.06,0,0,0-23.34-20.55,31.25,31.25,0,0,0,2.27-11.73V385a84,84,0,0,0-70.73-83,101.19,101.19,0,0,1,23.79-2.86c61.65-.15,67.85,68.59,68.45,94.86Z"/>
          <g>
            <g>
              <polygon class="cls-8" points="1169.41 283.26 1138.34 332.95 1146.68 340.13 1172.32 285.02 1169.41 283.26"/>
              <path class="cls-9" d="M1166,274.64a10,10,0,1,0,11-8.87A10,10,0,0,0,1166,274.64Z"/>
            </g>
            <g>
              <polygon class="cls-8" points="958.07 259.25 979.35 315.47 968.88 323.04 954.86 260.36 958.07 259.25"/>
              <path class="cls-9" d="M963.21,251.55a10,10,0,1,1-8.87-11A10,10,0,0,1,963.21,251.55Z"/>
            </g>
          </g>
          <path class="cls-10" d="M1158.54,480.8V385a84,84,0,0,0-84-84h-55.91a65.36,65.36,0,0,0-65.37,65.37c0,24.66-1.08,61.11-8.58,72.21"/>
          <path class="cls-11" d="M1002.32,247.53V295c0,22,16.69,41,38.73,41h26.81c22,0,41.33-19,41.33-41v-40.8l-6.36-58.31-44.54-10.32-49,6.88-12,10.33,5,44.74"/>
          <path class="cls-12" d="M1056.76,362.12h0c-44.18,0-80-22.17-80-48.17V198.89c0-37.06,31.15-67.09,69.58-67.09h20.82c38.43,0,69.58,30,69.58,67.09V324.66C1136.75,336.89,1100.94,362.12,1056.76,362.12Z"/>
          <path class="cls-13" d="M1070.43,164.22c-18.92-2.79-31.51,1.63-48.42,11.68-13.1,7.79-25-6.64-25-6.64-9.46,26.16-1.4,76.44,5.27,85.13V213.11c4.93-18,12.58,3.06,26.72,2.29,19.71-1.06,22.41-7.75,34.41-2.29,21,9.55,12.61,37.83,25,39.8,23.32,3.73,20.79,24.42,20.79,24.42h0c6.75-10,8-57.95,5-73.9C1111,186.73,1099,168.42,1070.43,164.22Z"/>
          <path class="cls-4" d="M1009.49,258.77c.27-4.94,3.83-8.76,7.94-8.53s7.21,4.42,6.93,9.36"/>
          <path class="cls-4" d="M1043.68,260.9c.28-4.94,3.87-8.76,8-8.53s7.3,4.43,7,9.37"/>
          <path class="cls-14" d="M1083.26,461.16l-33.71-5a2.64,2.64,0,0,1-2.25-2.61v-62a2.63,2.63,0,0,1,3-2.61l33.71,5a2.63,2.63,0,0,1,2.25,2.61v62A2.64,2.64,0,0,1,1083.26,461.16Z"/>
          <path class="cls-15" d="M1069.54,435.55l-14.37-2.15a1.13,1.13,0,0,1-1-1.11V405.83a1.13,1.13,0,0,1,1.29-1.12l14.38,2.15a1.14,1.14,0,0,1,1,1.12v26.46A1.14,1.14,0,0,1,1069.54,435.55Z"/>
          <path class="cls-16" d="M996.18,407l-6.93,28.51c-1.41,5.78-5.18,10.18-9.09,14.66"/>
          <path class="cls-10" d="M1056.42,312.32c-.77-1.69-5.69-12.14-17.44-15.78s-21.21,2.32-22.73,3.31"/>
          <path class="cls-6" d="M1042.46,502.32c7.93-1.06,14.75-1.89,14.75-1.89l8.09,23.05s-15.19,5.67-20.45,6.87c-13.63,3.1-25.34-1.16-27.36-5.64l-2.7-6c-2.42-5.37.48-12,6.26-13.16,4.47-.9,13.49-2.18,21.41-3.24"/>
          <path class="cls-17" d="M1104.68,417l2,45a23,23,0,0,1-13.17,20.78l-51.66,18.33s3.77,2,10.7,12.24c6.31,9.36,2.87,16.24,2.87,16.24l76.82-8.15a31.43,31.43,0,0,0,26.3-31V423.67"/>
          <path class="cls-18" d="M1146.35,506l-22.11,3.41a13,13,0,0,0-11,12c0,3.18,3,4.91,6.18,4.59,0,0,18.68-2.59,24.93-4.32,13-3.61,15.43-11.43,16-19.07.53-6.93,1.6-27.77,1.6-27.77a3.59,3.59,0,0,0-4.5-3.47l-2.76.9a14.92,14.92,0,0,0-10.24,15.74Z"/>
        </g>
      </g>
      <path class="cls-10" d="M540.69,444.84c-60.89,12-111.66,28.62-147.32,48.36"/>
      <path class="cls-10" d="M650.9,434.54c-10.59.39-18.3.74-29.08,1.39-13.19.8-26.28,1.4-39.11,2.94-19.21,2.31-32.75,4.8-32.75,4.8"/>
      <path class="cls-10" d="M968.06,681.69c136.58-22.88,229.66-68.38,229.66-120.76,0-14.12-6.76-27.73-19.3-40.54"/>
      <path class="cls-10" d="M491,665.63c74.76,19.84,171.09,31.79,276.22,31.79H770"/>
      <g>
        <polyline class="cls-6" points="580.92 460.23 630.97 419.43 753.88 460.14 693.22 512.41 587.43 472.48"/>
        <polyline class="cls-4" points="593.83 435.04 611.68 326.04 591.02 363.04 592.5 402.8"/>
        <path class="cls-6" d="M788.25,408.3c-2.5,11-16,27.25-16,27.25L725,473.35c3.49-11.61-14-26.08-23.46-19.88L728,417a51.61,51.61,0,0,0,9.84-28.85L739,349.05"/>
        <path class="cls-19" d="M751.15,276.47c8-34,16-121.4-22.67-174.34-16-22.26-62.13-17.56-97.44,22.76-14.22,16.24-18.22,36.91-18.22,36.91"/>
        <path class="cls-10" d="M724,471.35a12.39,12.39,0,0,1-1.46,3.12l41.93-32.09c17-13,27-32.33,26.76-53.79l-.69-63.46c0-28.53-16.51-56-35-60.66"/>
        <path class="cls-2" d="M623.87,255.42c9.64,8.88,39.86,35.46,39.86,35.46L733,263.63l-.25-24.75c-7.5,8.75-28,31.75-63.75,21.5-19.5-6-30.43-15.17-34.83-56.71-1.92-2.29-4.17-13.54-3.92-34.79a24.41,24.41,0,0,1,3.48-11.18l1-6c-14.73,2.93-22.23,6.18-26.48,26.68-4,25.25,4.5,59,12.75,74.25.19.26,1.24,1.26,2.89,2.79"/>
        <path class="cls-10" d="M622.26,254.69,620,252.63c-10.27-22.59-17.78-68.21-7.25-91.25"/>
        <path class="cls-4" d="M734.55,236.44c-.09,11.89-.77,21.83-1.07,28l-70,27.34-41.22-37.11"/>
        <line class="cls-6" x1="694.15" y1="327.63" x2="694.15" y2="280.87"/>
        <line class="cls-6" x1="645.82" y1="308.13" x2="645.82" y2="276.47"/>
        <path class="cls-6" d="M680.59,459.82a8.13,8.13,0,0,0-5.05,11.06l8,18a7.76,7.76,0,0,0,11.27,3.37l27.67-17.79.67-1.16c5.42-10.62-7.68-22.94-17.72-21.33l-3.95,1.49Z"/>
        <path class="cls-4" d="M633.54,159.23a44.92,44.92,0,0,1,1.17-7.53"/>
        <path class="cls-4" d="M734.57,234.53h0c0,.92,0,1.82,0,2.71-11.57,15.38-34.42,29.45-55.07,25.88-26-4.5-41-13.5-45.54-60.53"/>
        <path class="cls-8" d="M630.48,183.1c.59,8.43-.29,16.45,2.84,19.75.26.27.54.55.83.82,4.28,4.14,11.53,8.59,23.73,12.62,28.66,9.46,54.85-2.37,68.83-11.7A86.81,86.81,0,0,0,706,176.29a62.75,62.75,0,0,1-9.78,3c-20.38,4.4-65.43-1.74-62.49-21.54l0,0C628.47,160.91,629.74,172.34,630.48,183.1Z"/>
        <g>
          <path class="cls-20" d="M639.44,217.77a1.28,1.28,0,1,1,1.48-1.05A1.3,1.3,0,0,1,639.44,217.77Z"/>
          <g>
            <path class="cls-20" d="M638.38,224.06a1.28,1.28,0,0,1-1-1.47,1.3,1.3,0,0,1,1.48-1.05,1.28,1.28,0,0,1,1,1.48A1.27,1.27,0,0,1,638.38,224.06Z"/>
            <path class="cls-20" d="M639.44,217.77a1.28,1.28,0,1,1,1.48-1.05A1.3,1.3,0,0,1,639.44,217.77Z"/>
            <path class="cls-20" d="M645.74,218.83a1.28,1.28,0,1,1,1.47-1.05A1.27,1.27,0,0,1,645.74,218.83Z"/>
            <path class="cls-20" d="M642.06,221.45a1.3,1.3,0,0,1-1-1.48,1.28,1.28,0,0,1,1.48-1,1.27,1.27,0,0,1,1,1.47A1.28,1.28,0,0,1,642.06,221.45Z"/>
          </g>
          <path class="cls-20" d="M643.62,231.42a1.28,1.28,0,1,1,1.47-1A1.27,1.27,0,0,1,643.62,231.42Z"/>
          <g>
            <path class="cls-20" d="M639.44,217.77a1.28,1.28,0,1,1,1.48-1.05A1.3,1.3,0,0,1,639.44,217.77Z"/>
            <path class="cls-20" d="M645.74,218.83a1.28,1.28,0,1,1,1.47-1.05A1.27,1.27,0,0,1,645.74,218.83Z"/>
            <path class="cls-20" d="M652,219.89a1.28,1.28,0,1,1,1.47-1A1.27,1.27,0,0,1,652,219.89Z"/>
            <path class="cls-20" d="M643.12,215.15a1.28,1.28,0,1,1,1.48-1.05A1.28,1.28,0,0,1,643.12,215.15Z"/>
          </g>
          <g>
            <path class="cls-20" d="M643.62,231.42a1.28,1.28,0,1,1,1.47-1A1.27,1.27,0,0,1,643.62,231.42Z"/>
            <path class="cls-20" d="M649.91,232.48a1.27,1.27,0,1,1,.43-2.51,1.27,1.27,0,1,1-.43,2.51Z"/>
            <path class="cls-20" d="M638.38,224.06a1.28,1.28,0,0,1-1-1.47,1.3,1.3,0,0,1,1.48-1.05,1.28,1.28,0,0,1,1,1.48A1.27,1.27,0,0,1,638.38,224.06Z"/>
            <path class="cls-20" d="M644.68,225.13a1.28,1.28,0,1,1,.42-2.52,1.27,1.27,0,0,1,1,1.47A1.29,1.29,0,0,1,644.68,225.13Z"/>
            <path class="cls-20" d="M651,226.19a1.28,1.28,0,0,1,.43-2.52,1.28,1.28,0,1,1-.43,2.52Z"/>
            <path class="cls-20" d="M639.44,217.77a1.28,1.28,0,1,1,1.48-1.05A1.3,1.3,0,0,1,639.44,217.77Z"/>
            <path class="cls-20" d="M645.74,218.83a1.28,1.28,0,1,1,1.47-1.05A1.27,1.27,0,0,1,645.74,218.83Z"/>
            <path class="cls-20" d="M652,219.89a1.28,1.28,0,1,1,1.47-1A1.27,1.27,0,0,1,652,219.89Z"/>
            <path class="cls-20" d="M658.33,221a1.28,1.28,0,0,1-1-1.48,1.27,1.27,0,0,1,2.51.43A1.28,1.28,0,0,1,658.33,221Z"/>
            <path class="cls-20" d="M647.29,228.81a1.28,1.28,0,1,1,1.48-1.05A1.3,1.3,0,0,1,647.29,228.81Z"/>
            <path class="cls-20" d="M641,227.74a1.27,1.27,0,0,1-1-1.47,1.28,1.28,0,1,1,2.52.43A1.27,1.27,0,0,1,641,227.74Z"/>
            <path class="cls-20" d="M648.36,222.51a1.28,1.28,0,1,1,1.47-1A1.28,1.28,0,0,1,648.36,222.51Z"/>
            <path class="cls-20" d="M642.06,221.45a1.3,1.3,0,0,1-1-1.48,1.28,1.28,0,0,1,1.48-1,1.27,1.27,0,0,1,1,1.47A1.28,1.28,0,0,1,642.06,221.45Z"/>
            <path class="cls-20" d="M654.65,223.57a1.28,1.28,0,0,1,.43-2.52,1.3,1.3,0,0,1,1,1.48A1.28,1.28,0,0,1,654.65,223.57Z"/>
          </g>
          <g>
            <path class="cls-20" d="M647.78,245.08a1.28,1.28,0,0,1,.43-2.52,1.28,1.28,0,1,1-.43,2.52Z"/>
            <path class="cls-20" d="M642.55,237.72a1.28,1.28,0,1,1,.43-2.52,1.28,1.28,0,0,1-.43,2.52Z"/>
            <path class="cls-20" d="M648.85,238.78a1.28,1.28,0,1,1,1.47-1.05A1.28,1.28,0,0,1,648.85,238.78Z"/>
            <path class="cls-20" d="M643.62,231.42a1.28,1.28,0,1,1,1.47-1A1.27,1.27,0,0,1,643.62,231.42Z"/>
            <path class="cls-20" d="M649.91,232.48a1.27,1.27,0,1,1,.43-2.51,1.27,1.27,0,1,1-.43,2.51Z"/>
            <path class="cls-20" d="M656.21,233.55a1.28,1.28,0,1,1,1.47-1.05A1.28,1.28,0,0,1,656.21,233.55Z"/>
            <path class="cls-20" d="M645.17,241.4a1.28,1.28,0,1,1,1.47-1.05A1.28,1.28,0,0,1,645.17,241.4Z"/>
            <path class="cls-20" d="M646.23,235.1a1.28,1.28,0,1,1,1.47-1A1.27,1.27,0,0,1,646.23,235.1Z"/>
            <path class="cls-20" d="M652.53,236.16a1.27,1.27,0,1,1,1.47-1A1.27,1.27,0,0,1,652.53,236.16Z"/>
          </g>
          <g>
            <path class="cls-20" d="M647.78,245.08a1.28,1.28,0,0,1,.43-2.52,1.28,1.28,0,1,1-.43,2.52Z"/>
            <path class="cls-20" d="M654.08,246.14a1.28,1.28,0,1,1,.43-2.52,1.28,1.28,0,0,1-.43,2.52Z"/>
          </g>
          <g>
            <path class="cls-20" d="M652,219.89a1.28,1.28,0,1,1,1.47-1A1.27,1.27,0,0,1,652,219.89Z"/>
            <path class="cls-20" d="M658.33,221a1.28,1.28,0,0,1-1-1.48,1.27,1.27,0,0,1,2.51.43A1.28,1.28,0,0,1,658.33,221Z"/>
          </g>
          <g>
            <path class="cls-20" d="M649.91,232.48a1.27,1.27,0,1,1,.43-2.51,1.27,1.27,0,1,1-.43,2.51Z"/>
            <path class="cls-20" d="M656.21,233.55a1.28,1.28,0,1,1,1.47-1.05A1.28,1.28,0,0,1,656.21,233.55Z"/>
            <path class="cls-20" d="M662.5,234.61a1.28,1.28,0,1,1,1.47-1.05A1.28,1.28,0,0,1,662.5,234.61Z"/>
            <path class="cls-20" d="M651,226.19a1.28,1.28,0,0,1,.43-2.52,1.28,1.28,0,1,1-.43,2.52Z"/>
            <path class="cls-20" d="M657.27,227.25a1.28,1.28,0,1,1,1.47-1A1.27,1.27,0,0,1,657.27,227.25Z"/>
            <path class="cls-20" d="M663.57,228.31a1.27,1.27,0,1,1,1.47-1A1.27,1.27,0,0,1,663.57,228.31Z"/>
            <path class="cls-20" d="M652,219.89a1.28,1.28,0,1,1,1.47-1A1.27,1.27,0,0,1,652,219.89Z"/>
            <path class="cls-20" d="M658.33,221a1.28,1.28,0,0,1-1-1.48,1.27,1.27,0,0,1,2.51.43A1.28,1.28,0,0,1,658.33,221Z"/>
            <path class="cls-20" d="M659.89,230.93a1.28,1.28,0,1,1,1.47-1.05A1.28,1.28,0,0,1,659.89,230.93Z"/>
            <path class="cls-20" d="M653.59,229.87a1.28,1.28,0,1,1,.43-2.52,1.28,1.28,0,0,1-.43,2.52Z"/>
            <path class="cls-20" d="M661,224.63a1.27,1.27,0,1,1,1.47-1A1.27,1.27,0,0,1,661,224.63Z"/>
            <path class="cls-20" d="M654.65,223.57a1.28,1.28,0,0,1,.43-2.52,1.3,1.3,0,0,1,1,1.48A1.28,1.28,0,0,1,654.65,223.57Z"/>
            <path class="cls-20" d="M667.25,225.7a1.28,1.28,0,1,1,1.47-1A1.28,1.28,0,0,1,667.25,225.7Z"/>
          </g>
          <g>
            <path class="cls-20" d="M647.78,245.08a1.28,1.28,0,0,1,.43-2.52,1.28,1.28,0,1,1-.43,2.52Z"/>
            <path class="cls-20" d="M654.08,246.14a1.28,1.28,0,1,1,.43-2.52,1.28,1.28,0,0,1-.43,2.52Z"/>
            <path class="cls-20" d="M660.38,247.2a1.27,1.27,0,1,1,1.47-1A1.27,1.27,0,0,1,660.38,247.2Z"/>
            <path class="cls-20" d="M648.85,238.78a1.28,1.28,0,1,1,1.47-1.05A1.28,1.28,0,0,1,648.85,238.78Z"/>
            <path class="cls-20" d="M655.14,239.84a1.27,1.27,0,1,1,1.48-1A1.28,1.28,0,0,1,655.14,239.84Z"/>
            <path class="cls-20" d="M661.44,240.91a1.28,1.28,0,1,1,1.47-1A1.28,1.28,0,0,1,661.44,240.91Z"/>
            <path class="cls-20" d="M649.91,232.48a1.27,1.27,0,1,1,.43-2.51,1.27,1.27,0,1,1-.43,2.51Z"/>
            <path class="cls-20" d="M656.21,233.55a1.28,1.28,0,1,1,1.47-1.05A1.28,1.28,0,0,1,656.21,233.55Z"/>
            <path class="cls-20" d="M662.5,234.61a1.28,1.28,0,1,1,1.47-1.05A1.28,1.28,0,0,1,662.5,234.61Z"/>
            <path class="cls-20" d="M668.8,235.67a1.27,1.27,0,1,1,1.47-1A1.27,1.27,0,0,1,668.8,235.67Z"/>
            <path class="cls-20" d="M657.76,243.52a1.27,1.27,0,1,1,.43-2.51,1.27,1.27,0,1,1-.43,2.51Z"/>
            <path class="cls-20" d="M651.46,242.46a1.28,1.28,0,0,1,.43-2.52,1.28,1.28,0,1,1-.43,2.52Z"/>
            <path class="cls-20" d="M658.82,237.23a1.28,1.28,0,1,1,1.47-1A1.28,1.28,0,0,1,658.82,237.23Z"/>
            <path class="cls-20" d="M652.53,236.16a1.27,1.27,0,1,1,1.47-1A1.27,1.27,0,0,1,652.53,236.16Z"/>
            <path class="cls-20" d="M665.12,238.29a1.28,1.28,0,1,1,1.47-1A1.28,1.28,0,0,1,665.12,238.29Z"/>
          </g>
          <g>
            <path class="cls-20" d="M659.32,253.5a1.28,1.28,0,0,1,.42-2.52,1.29,1.29,0,0,1,1,1.47A1.28,1.28,0,0,1,659.32,253.5Z"/>
            <path class="cls-20" d="M647.78,245.08a1.28,1.28,0,0,1,.43-2.52,1.28,1.28,0,1,1-.43,2.52Z"/>
            <path class="cls-20" d="M654.08,246.14a1.28,1.28,0,1,1,.43-2.52,1.28,1.28,0,0,1-.43,2.52Z"/>
            <path class="cls-20" d="M660.38,247.2a1.27,1.27,0,1,1,1.47-1A1.27,1.27,0,0,1,660.38,247.2Z"/>
            <path class="cls-20" d="M666.67,248.27a1.28,1.28,0,0,1-1-1.48,1.27,1.27,0,0,1,1.47-1,1.28,1.28,0,1,1-.43,2.52Z"/>
            <path class="cls-20" d="M656.7,249.82a1.28,1.28,0,1,1,1.47-1A1.28,1.28,0,0,1,656.7,249.82Z"/>
            <path class="cls-20" d="M663,250.88a1.27,1.27,0,1,1,1.47-1A1.27,1.27,0,0,1,663,250.88Z"/>
          </g>
          <g>
            <path class="cls-20" d="M662.5,234.61a1.28,1.28,0,1,1,1.47-1.05A1.28,1.28,0,0,1,662.5,234.61Z"/>
            <path class="cls-20" d="M668.8,235.67a1.27,1.27,0,1,1,1.47-1A1.27,1.27,0,0,1,668.8,235.67Z"/>
            <path class="cls-20" d="M675.1,236.74a1.28,1.28,0,1,1,1.47-1.05A1.28,1.28,0,0,1,675.1,236.74Z"/>
            <path class="cls-20" d="M663.57,228.31a1.27,1.27,0,1,1,1.47-1A1.27,1.27,0,0,1,663.57,228.31Z"/>
            <path class="cls-20" d="M669.86,229.38a1.28,1.28,0,1,1,1.47-1A1.28,1.28,0,0,1,669.86,229.38Z"/>
            <path class="cls-20" d="M676.16,230.44a1.28,1.28,0,1,1,1.47-1.05A1.28,1.28,0,0,1,676.16,230.44Z"/>
            <path class="cls-20" d="M683.52,225.21a1.28,1.28,0,1,1,1.47-1.05A1.28,1.28,0,0,1,683.52,225.21Z"/>
            <path class="cls-20" d="M672.48,233.06a1.29,1.29,0,0,1-1.05-1.47,1.28,1.28,0,1,1,1.05,1.47Z"/>
            <path class="cls-20" d="M666.18,232a1.27,1.27,0,1,1,1.47-1A1.27,1.27,0,0,1,666.18,232Z"/>
            <path class="cls-20" d="M673.54,226.76a1.28,1.28,0,1,1,.43-2.52,1.28,1.28,0,0,1-.43,2.52Z"/>
            <path class="cls-20" d="M667.25,225.7a1.28,1.28,0,1,1,1.47-1A1.28,1.28,0,0,1,667.25,225.7Z"/>
            <path class="cls-20" d="M679.84,227.82a1.27,1.27,0,1,1,1.47-1A1.27,1.27,0,0,1,679.84,227.82Z"/>
          </g>
          <g>
            <path class="cls-20" d="M660.38,247.2a1.27,1.27,0,1,1,1.47-1A1.27,1.27,0,0,1,660.38,247.2Z"/>
            <path class="cls-20" d="M666.67,248.27a1.28,1.28,0,0,1-1-1.48,1.27,1.27,0,0,1,1.47-1,1.28,1.28,0,1,1-.43,2.52Z"/>
            <path class="cls-20" d="M673,249.33a1.28,1.28,0,1,1,1.47-1.05A1.28,1.28,0,0,1,673,249.33Z"/>
            <path class="cls-20" d="M661.44,240.91a1.28,1.28,0,1,1,1.47-1A1.28,1.28,0,0,1,661.44,240.91Z"/>
            <path class="cls-20" d="M667.74,242a1.28,1.28,0,1,1,1.47-1.05A1.28,1.28,0,0,1,667.74,242Z"/>
            <path class="cls-20" d="M674,243a1.28,1.28,0,0,1-1-1.47,1.3,1.3,0,0,1,1.48-1.05,1.28,1.28,0,0,1,1,1.48A1.27,1.27,0,0,1,674,243Z"/>
            <path class="cls-20" d="M662.5,234.61a1.28,1.28,0,1,1,1.47-1.05A1.28,1.28,0,0,1,662.5,234.61Z"/>
            <path class="cls-20" d="M668.8,235.67a1.27,1.27,0,1,1,1.47-1A1.27,1.27,0,0,1,668.8,235.67Z"/>
            <path class="cls-20" d="M675.1,236.74a1.28,1.28,0,1,1,1.47-1.05A1.28,1.28,0,0,1,675.1,236.74Z"/>
            <path class="cls-20" d="M681.39,237.8a1.28,1.28,0,1,1,.43-2.52,1.28,1.28,0,0,1-.43,2.52Z"/>
            <path class="cls-20" d="M670.35,245.65a1.28,1.28,0,1,1,1.47-1.05A1.28,1.28,0,0,1,670.35,245.65Z"/>
            <path class="cls-20" d="M664.06,244.59a1.28,1.28,0,1,1,1.47-1.05A1.28,1.28,0,0,1,664.06,244.59Z"/>
            <path class="cls-20" d="M671.42,239.35a1.27,1.27,0,1,1,1.47-1A1.27,1.27,0,0,1,671.42,239.35Z"/>
            <path class="cls-20" d="M665.12,238.29a1.28,1.28,0,1,1,1.47-1A1.28,1.28,0,0,1,665.12,238.29Z"/>
            <path class="cls-20" d="M677.71,240.42a1.28,1.28,0,0,1-1-1.48,1.27,1.27,0,0,1,2.51.43A1.28,1.28,0,0,1,677.71,240.42Z"/>
          </g>
          <g>
            <path class="cls-20" d="M659.32,253.5a1.28,1.28,0,0,1,.42-2.52,1.29,1.29,0,0,1,1,1.47A1.28,1.28,0,0,1,659.32,253.5Z"/>
            <path class="cls-20" d="M665.61,254.56a1.27,1.27,0,0,1-1.05-1.47A1.3,1.3,0,0,1,666,252a1.28,1.28,0,0,1-.43,2.52Z"/>
            <path class="cls-20" d="M671.91,255.63a1.28,1.28,0,1,1,.42-2.52,1.27,1.27,0,0,1,1,1.47A1.29,1.29,0,0,1,671.91,255.63Z"/>
            <path class="cls-20" d="M660.38,247.2a1.27,1.27,0,1,1,1.47-1A1.27,1.27,0,0,1,660.38,247.2Z"/>
            <path class="cls-20" d="M666.67,248.27a1.28,1.28,0,0,1-1-1.48,1.27,1.27,0,0,1,1.47-1,1.28,1.28,0,1,1-.43,2.52Z"/>
            <path class="cls-20" d="M673,249.33a1.28,1.28,0,1,1,1.47-1.05A1.28,1.28,0,0,1,673,249.33Z"/>
            <path class="cls-20" d="M679.27,250.39a1.27,1.27,0,0,1-1-1.47,1.28,1.28,0,1,1,2.52.43A1.28,1.28,0,0,1,679.27,250.39Z"/>
            <path class="cls-20" d="M668.23,258.24a1.27,1.27,0,0,1-1.05-1.47,1.28,1.28,0,1,1,2.52.43A1.28,1.28,0,0,1,668.23,258.24Z"/>
            <path class="cls-20" d="M669.29,252a1.3,1.3,0,0,1-1-1.48,1.28,1.28,0,1,1,1,1.48Z"/>
            <path class="cls-20" d="M663,250.88a1.27,1.27,0,1,1,1.47-1A1.27,1.27,0,0,1,663,250.88Z"/>
            <path class="cls-20" d="M675.59,253a1.28,1.28,0,1,1,1.47-1A1.28,1.28,0,0,1,675.59,253Z"/>
          </g>
          <g>
            <path class="cls-20" d="M683.52,225.21a1.28,1.28,0,1,1,1.47-1.05A1.28,1.28,0,0,1,683.52,225.21Z"/>
            <path class="cls-20" d="M689.82,226.27a1.28,1.28,0,0,1,.42-2.52,1.29,1.29,0,0,1,1,1.47A1.28,1.28,0,0,1,689.82,226.27Z"/>
          </g>
          <g>
            <path class="cls-20" d="M675.1,236.74a1.28,1.28,0,1,1,1.47-1.05A1.28,1.28,0,0,1,675.1,236.74Z"/>
            <path class="cls-20" d="M681.39,237.8a1.28,1.28,0,0,1,.43-2.52,1.28,1.28,0,1,1-.43,2.52Z"/>
            <path class="cls-20" d="M687.69,238.86a1.27,1.27,0,0,1-1.05-1.47,1.28,1.28,0,1,1,2.52.43A1.28,1.28,0,0,1,687.69,238.86Z"/>
            <path class="cls-20" d="M676.16,230.44a1.28,1.28,0,1,1,1.47-1.05A1.28,1.28,0,0,1,676.16,230.44Z"/>
            <path class="cls-20" d="M682.46,231.5a1.27,1.27,0,0,1-1.05-1.47,1.28,1.28,0,1,1,2.52.43A1.28,1.28,0,0,1,682.46,231.5Z"/>
            <path class="cls-20" d="M688.75,232.57a1.28,1.28,0,0,1-1-1.48,1.27,1.27,0,1,1,2.51.43A1.28,1.28,0,0,1,688.75,232.57Z"/>
            <path class="cls-20" d="M683.52,225.21a1.28,1.28,0,1,1,1.47-1.05A1.28,1.28,0,0,1,683.52,225.21Z"/>
            <path class="cls-20" d="M689.82,226.27a1.28,1.28,0,1,1,1.47-1.05A1.28,1.28,0,0,1,689.82,226.27Z"/>
            <path class="cls-20" d="M696.11,227.33a1.28,1.28,0,0,1-1.05-1.47,1.3,1.3,0,0,1,1.48-1.05,1.28,1.28,0,0,1,1,1.48A1.27,1.27,0,0,1,696.11,227.33Z"/>
            <path class="cls-20" d="M685.07,235.18a1.27,1.27,0,0,1-1-1.47,1.27,1.27,0,1,1,2.51.43A1.27,1.27,0,0,1,685.07,235.18Z"/>
            <path class="cls-20" d="M678.78,234.12a1.28,1.28,0,1,1,1.47-1.05A1.28,1.28,0,0,1,678.78,234.12Z"/>
            <path class="cls-20" d="M686.13,228.89a1.28,1.28,0,1,1,1.48-1A1.28,1.28,0,0,1,686.13,228.89Z"/>
            <path class="cls-20" d="M679.84,227.82a1.27,1.27,0,1,1,1.47-1A1.27,1.27,0,0,1,679.84,227.82Z"/>
            <path class="cls-20" d="M692.43,230a1.28,1.28,0,1,1,.43-2.52,1.28,1.28,0,0,1-.43,2.52Z"/>
          </g>
          <g>
            <path class="cls-20" d="M673,249.33a1.28,1.28,0,1,1,.43-2.52,1.28,1.28,0,0,1-.43,2.52Z"/>
            <path class="cls-20" d="M679.27,250.39a1.27,1.27,0,0,1-1-1.47,1.28,1.28,0,1,1,2.52.43A1.28,1.28,0,0,1,679.27,250.39Z"/>
            <path class="cls-20" d="M685.56,251.46a1.28,1.28,0,0,1-1-1.48,1.27,1.27,0,0,1,1.47-1,1.28,1.28,0,0,1,1,1.47A1.3,1.3,0,0,1,685.56,251.46Z"/>
            <path class="cls-20" d="M674,243a1.27,1.27,0,0,1,.43-2.51A1.27,1.27,0,1,1,674,243Z"/>
            <path class="cls-20" d="M680.33,244.1a1.28,1.28,0,1,1,1.47-1A1.28,1.28,0,0,1,680.33,244.1Z"/>
            <path class="cls-20" d="M686.63,245.16a1.28,1.28,0,1,1,1.47-1A1.28,1.28,0,0,1,686.63,245.16Z"/>
            <path class="cls-20" d="M675.1,236.74a1.28,1.28,0,1,1,1.47-1.05A1.28,1.28,0,0,1,675.1,236.74Z"/>
            <path class="cls-20" d="M681.39,237.8a1.28,1.28,0,0,1,.43-2.52,1.28,1.28,0,1,1-.43,2.52Z"/>
            <path class="cls-20" d="M687.69,238.86a1.27,1.27,0,0,1-1.05-1.47,1.28,1.28,0,1,1,2.52.43A1.28,1.28,0,0,1,687.69,238.86Z"/>
            <path class="cls-20" d="M694,239.93a1.28,1.28,0,0,1-1-1.48,1.28,1.28,0,0,1,2.52.43A1.3,1.3,0,0,1,694,239.93Z"/>
            <path class="cls-20" d="M683,247.78a1.28,1.28,0,1,1,1.47-1.05A1.28,1.28,0,0,1,683,247.78Z"/>
            <path class="cls-20" d="M676.65,246.71a1.28,1.28,0,1,1,1.47-1A1.28,1.28,0,0,1,676.65,246.71Z"/>
            <path class="cls-20" d="M684,241.48a1.29,1.29,0,0,1-1-1.47,1.28,1.28,0,1,1,1,1.47Z"/>
            <path class="cls-20" d="M677.71,240.42a1.28,1.28,0,0,1-1-1.48,1.27,1.27,0,0,1,1.47-1,1.28,1.28,0,1,1-.43,2.52Z"/>
            <path class="cls-20" d="M690.3,242.54a1.27,1.27,0,0,1-1-1.47,1.28,1.28,0,1,1,1,1.47Z"/>
          </g>
          <g>
            <path class="cls-20" d="M671.91,255.63a1.28,1.28,0,1,1,1.47-1A1.28,1.28,0,0,1,671.91,255.63Z"/>
            <path class="cls-20" d="M678.2,256.69a1.28,1.28,0,0,1,.43-2.52,1.28,1.28,0,1,1-.43,2.52Z"/>
            <path class="cls-20" d="M684.5,257.75a1.28,1.28,0,1,1,1.47-1A1.28,1.28,0,0,1,684.5,257.75Z"/>
            <path class="cls-20" d="M673,249.33a1.28,1.28,0,1,1,.43-2.52,1.28,1.28,0,0,1-.43,2.52Z"/>
            <path class="cls-20" d="M679.27,250.39a1.27,1.27,0,0,1-1-1.47,1.28,1.28,0,1,1,2.52.43A1.28,1.28,0,0,1,679.27,250.39Z"/>
            <path class="cls-20" d="M685.56,251.46a1.28,1.28,0,0,1-1-1.48,1.27,1.27,0,0,1,1.47-1,1.28,1.28,0,0,1,1,1.47A1.3,1.3,0,0,1,685.56,251.46Z"/>
            <path class="cls-20" d="M691.86,252.52a1.28,1.28,0,1,1,1.47-1.05A1.28,1.28,0,0,1,691.86,252.52Z"/>
            <path class="cls-20" d="M680.82,260.37a1.28,1.28,0,1,1,.43-2.52,1.28,1.28,0,0,1-.43,2.52Z"/>
            <path class="cls-20" d="M674.53,259.31a1.28,1.28,0,1,1,1.47-1.05A1.28,1.28,0,0,1,674.53,259.31Z"/>
            <path class="cls-20" d="M681.88,254.07a1.27,1.27,0,0,1-1-1.47,1.28,1.28,0,0,1,1.47-1,1.3,1.3,0,0,1,1.05,1.48A1.28,1.28,0,0,1,681.88,254.07Z"/>
            <path class="cls-20" d="M675.59,253a1.28,1.28,0,1,1,1.47-1A1.28,1.28,0,0,1,675.59,253Z"/>
            <path class="cls-20" d="M688.18,255.14a1.28,1.28,0,1,1,.42-2.52,1.27,1.27,0,0,1,1,1.47A1.29,1.29,0,0,1,688.18,255.14Z"/>
          </g>
          <g>
            <path class="cls-20" d="M689.82,226.27a1.28,1.28,0,0,1,.42-2.52,1.29,1.29,0,0,1,1,1.47A1.28,1.28,0,0,1,689.82,226.27Z"/>
            <path class="cls-20" d="M696.11,227.33a1.28,1.28,0,0,1-1.05-1.47,1.3,1.3,0,0,1,1.48-1.05,1.28,1.28,0,0,1,1,1.48A1.27,1.27,0,0,1,696.11,227.33Z"/>
            <path class="cls-20" d="M702.41,228.4a1.28,1.28,0,1,1,1.47-1.05A1.28,1.28,0,0,1,702.41,228.4Z"/>
          </g>
          <g>
            <path class="cls-20" d="M687.69,238.86a1.27,1.27,0,0,1-1.05-1.47,1.28,1.28,0,1,1,2.52.43A1.28,1.28,0,0,1,687.69,238.86Z"/>
            <path class="cls-20" d="M694,239.93a1.28,1.28,0,0,1-1-1.48,1.28,1.28,0,0,1,2.52.43A1.3,1.3,0,0,1,694,239.93Z"/>
            <path class="cls-20" d="M700.28,241a1.28,1.28,0,1,1,.43-2.52,1.28,1.28,0,0,1-.43,2.52Z"/>
            <path class="cls-20" d="M688.75,232.57a1.28,1.28,0,0,1-1-1.48,1.27,1.27,0,1,1,2.51.43A1.28,1.28,0,0,1,688.75,232.57Z"/>
            <path class="cls-20" d="M695.05,233.63a1.28,1.28,0,1,1,1.47-1A1.28,1.28,0,0,1,695.05,233.63Z"/>
            <path class="cls-20" d="M701.34,234.69a1.28,1.28,0,0,1,.43-2.52,1.28,1.28,0,1,1-.43,2.52Z"/>
            <path class="cls-20" d="M689.82,226.27a1.28,1.28,0,1,1,1.47-1.05A1.28,1.28,0,0,1,689.82,226.27Z"/>
            <path class="cls-20" d="M696.11,227.33a1.28,1.28,0,0,1-1.05-1.47,1.3,1.3,0,0,1,1.48-1.05,1.28,1.28,0,0,1,1,1.48A1.27,1.27,0,0,1,696.11,227.33Z"/>
            <path class="cls-20" d="M702.41,228.4a1.28,1.28,0,1,1,1.47-1.05A1.28,1.28,0,0,1,702.41,228.4Z"/>
            <path class="cls-20" d="M697.66,237.31a1.28,1.28,0,1,1,1.48-1.05A1.28,1.28,0,0,1,697.66,237.31Z"/>
            <path class="cls-20" d="M691.37,236.25a1.28,1.28,0,1,1,.42-2.52,1.27,1.27,0,0,1,1.05,1.47A1.29,1.29,0,0,1,691.37,236.25Z"/>
            <path class="cls-20" d="M698.73,231a1.27,1.27,0,0,1-1.05-1.47,1.28,1.28,0,1,1,2.52.43A1.28,1.28,0,0,1,698.73,231Z"/>
            <path class="cls-20" d="M692.43,230a1.28,1.28,0,1,1,.43-2.52,1.28,1.28,0,0,1-.43,2.52Z"/>
            <path class="cls-20" d="M705,232.08a1.28,1.28,0,0,1-1-1.48,1.28,1.28,0,0,1,2.52.43A1.3,1.3,0,0,1,705,232.08Z"/>
          </g>
          <g>
            <path class="cls-20" d="M685.56,251.46a1.28,1.28,0,0,1-1-1.48,1.27,1.27,0,0,1,1.47-1,1.28,1.28,0,0,1,1,1.47A1.3,1.3,0,0,1,685.56,251.46Z"/>
            <path class="cls-20" d="M691.86,252.52a1.28,1.28,0,1,1,1.47-1.05A1.28,1.28,0,0,1,691.86,252.52Z"/>
            <path class="cls-20" d="M698.16,253.58a1.28,1.28,0,1,1,1.47-1A1.28,1.28,0,0,1,698.16,253.58Z"/>
            <path class="cls-20" d="M686.63,245.16a1.28,1.28,0,1,1,1.47-1A1.28,1.28,0,0,1,686.63,245.16Z"/>
            <path class="cls-20" d="M692.92,246.22a1.28,1.28,0,0,1,.43-2.52,1.28,1.28,0,0,1,1,1.48A1.27,1.27,0,0,1,692.92,246.22Z"/>
            <path class="cls-20" d="M699.22,247.29a1.28,1.28,0,1,1,.42-2.52,1.27,1.27,0,0,1,1.05,1.47A1.29,1.29,0,0,1,699.22,247.29Z"/>
            <path class="cls-20" d="M687.69,238.86a1.27,1.27,0,0,1-1.05-1.47,1.28,1.28,0,1,1,2.52.43A1.28,1.28,0,0,1,687.69,238.86Z"/>
            <path class="cls-20" d="M694,239.93a1.28,1.28,0,0,1-1-1.48,1.28,1.28,0,0,1,2.52.43A1.3,1.3,0,0,1,694,239.93Z"/>
            <path class="cls-20" d="M700.28,241a1.28,1.28,0,1,1,.43-2.52,1.28,1.28,0,0,1-.43,2.52Z"/>
            <path class="cls-20" d="M706.58,242.05a1.28,1.28,0,1,1,1.47-1A1.27,1.27,0,0,1,706.58,242.05Z"/>
            <path class="cls-20" d="M695.54,249.9a1.28,1.28,0,1,1,1.47-1A1.27,1.27,0,0,1,695.54,249.9Z"/>
            <path class="cls-20" d="M689.24,248.84a1.28,1.28,0,1,1,1.47-1.05A1.28,1.28,0,0,1,689.24,248.84Z"/>
            <path class="cls-20" d="M696.6,243.61a1.3,1.3,0,0,1-1.05-1.48,1.28,1.28,0,1,1,1.05,1.48Z"/>
            <path class="cls-20" d="M690.3,242.54a1.27,1.27,0,0,1-1-1.47,1.28,1.28,0,1,1,1,1.47Z"/>
            <path class="cls-20" d="M702.9,244.67a1.28,1.28,0,1,1,1.47-1A1.28,1.28,0,0,1,702.9,244.67Z"/>
          </g>
          <g>
            <path class="cls-20" d="M684.5,257.75a1.28,1.28,0,1,1,1.47-1A1.28,1.28,0,0,1,684.5,257.75Z"/>
            <path class="cls-20" d="M690.79,258.82a1.28,1.28,0,0,1,.43-2.52,1.27,1.27,0,0,1,1,1.47A1.3,1.3,0,0,1,690.79,258.82Z"/>
            <path class="cls-20" d="M685.56,251.46a1.28,1.28,0,0,1-1-1.48,1.27,1.27,0,0,1,1.47-1,1.28,1.28,0,0,1,1,1.47A1.3,1.3,0,0,1,685.56,251.46Z"/>
            <path class="cls-20" d="M691.86,252.52a1.28,1.28,0,1,1,1.47-1.05A1.28,1.28,0,0,1,691.86,252.52Z"/>
            <path class="cls-20" d="M698.16,253.58a1.28,1.28,0,1,1,1.47-1A1.28,1.28,0,0,1,698.16,253.58Z"/>
            <path class="cls-20" d="M694.47,256.2a1.28,1.28,0,1,1,1.48-1A1.28,1.28,0,0,1,694.47,256.2Z"/>
            <path class="cls-20" d="M688.18,255.14a1.28,1.28,0,1,1,.42-2.52,1.27,1.27,0,0,1,1,1.47A1.29,1.29,0,0,1,688.18,255.14Z"/>
          </g>
          <path class="cls-20" d="M702.41,228.4a1.28,1.28,0,1,1,1.47-1.05A1.28,1.28,0,0,1,702.41,228.4Z"/>
          <g>
            <path class="cls-20" d="M700.28,241a1.28,1.28,0,1,1,.43-2.52,1.28,1.28,0,0,1-.43,2.52Z"/>
            <path class="cls-20" d="M706.58,242.05a1.28,1.28,0,1,1,1.47-1.05A1.28,1.28,0,0,1,706.58,242.05Z"/>
            <path class="cls-20" d="M701.34,234.69a1.28,1.28,0,0,1,.43-2.52,1.28,1.28,0,1,1-.43,2.52Z"/>
            <path class="cls-20" d="M707.64,235.76a1.28,1.28,0,1,1,.43-2.52,1.27,1.27,0,0,1,1,1.47A1.28,1.28,0,0,1,707.64,235.76Z"/>
            <path class="cls-20" d="M702.41,228.4a1.28,1.28,0,1,1,1.47-1.05A1.28,1.28,0,0,1,702.41,228.4Z"/>
            <path class="cls-20" d="M704,238.37a1.28,1.28,0,1,1,1.47-1A1.27,1.27,0,0,1,704,238.37Z"/>
            <path class="cls-20" d="M705,232.08a1.28,1.28,0,0,1-1-1.48,1.28,1.28,0,0,1,2.52.43A1.3,1.3,0,0,1,705,232.08Z"/>
          </g>
          <g>
            <path class="cls-20" d="M698.16,253.58a1.28,1.28,0,1,1,1.47-1A1.28,1.28,0,0,1,698.16,253.58Z"/>
            <path class="cls-20" d="M699.22,247.29a1.28,1.28,0,1,1,.42-2.52,1.27,1.27,0,0,1,1.05,1.47A1.29,1.29,0,0,1,699.22,247.29Z"/>
            <path class="cls-20" d="M705.51,248.35a1.28,1.28,0,0,1,.43-2.52,1.28,1.28,0,1,1-.43,2.52Z"/>
            <path class="cls-20" d="M700.28,241a1.28,1.28,0,1,1,.43-2.52,1.28,1.28,0,0,1-.43,2.52Z"/>
            <path class="cls-20" d="M706.58,242.05a1.28,1.28,0,1,1,1.47-1A1.27,1.27,0,0,1,706.58,242.05Z"/>
            <path class="cls-20" d="M701.83,251a1.27,1.27,0,1,1,1.48-1A1.28,1.28,0,0,1,701.83,251Z"/>
            <path class="cls-20" d="M702.9,244.67a1.28,1.28,0,1,1,1.47-1A1.28,1.28,0,0,1,702.9,244.67Z"/>
          </g>
          <path class="cls-20" d="M698.16,253.58a1.28,1.28,0,1,1,1.47-1A1.28,1.28,0,0,1,698.16,253.58Z"/>
        </g>
        <path class="cls-10" d="M646.18,227c5.67,13.2,22.48,11.53,33.07,12.75"/>
        <g>
          <path class="cls-6" d="M634,181c-1.55,19.55,23.16,30.6,22.25,10.64Z"/>
          <g>
            <path class="cls-6" d="M663.71,192.14c3.95,23.36,37.51,22.43,33.83-.75Z"/>
            <path class="cls-20" d="M674.15,202.07c-.09-3.45,2.15-5.77,5-5.16s5.23,3.88,5.31,7.34-2.16,5.74-5,5.14S674.24,205.51,674.15,202.07Z"/>
          </g>
          <path class="cls-20" d="M642.64,195.79c-.47-3.22,1.29-5.51,3.9-5.12s5.12,3.31,5.57,6.52-1.3,5.5-3.91,5.11S643.1,199,642.64,195.79Z"/>
        </g>
        <path class="cls-4" d="M733.48,264.46a121.29,121.29,0,0,0,1.09-29.92h0a93,93,0,0,0-7.86-29.94A86.81,86.81,0,0,0,706,176.29c-21.73-19.81-51-27.41-71.27-24.59-10.61,1.47-18.73,5.81-21.89,12.76"/>
        <path class="cls-6" d="M574.75,463.82a10.63,10.63,0,0,0,6.78,7.73l113.12,40.86-15.81-71.68a14.07,14.07,0,0,0-9-10.21l-100.7-36.38a6.23,6.23,0,0,0-8.21,7.2Z"/>
        <path class="cls-6" d="M557.1,401.33a6.25,6.25,0,0,0-.88,4.76L570,468.57a10.63,10.63,0,0,0,6.78,7.73L689.9,517.16l-15.81-71.68a14.07,14.07,0,0,0-9-10.21l-100.7-36.38a6.23,6.23,0,0,0-6.23,1.17,6,6,0,0,0-1.1,1.27"/>
        <path class="cls-10" d="M555.53,401.53l-5.82-19.83a57.16,57.16,0,0,1,3.79-41.82L584.16,279a42.68,42.68,0,0,1,31.52-23l6-.94"/>
      </g>
      <g>
        <g>
          <line class="cls-21" x1="720.09" y1="322.07" x2="641.35" y2="423.39"/>
          <circle class="cls-1" cx="641.35" cy="423.39" r="18.42" transform="translate(38.35 899.82) rotate(-71.74)"/>
        </g>
        <g>
          <polyline class="cls-21" points="536.68 446.04 719.13 311.8 716.29 321.2"/>
          <path class="cls-1" d="M547.6,460.88a18.42,18.42,0,1,1,3.92-25.76A18.43,18.43,0,0,1,547.6,460.88Z"/>
        </g>
        <g>
          <line class="cls-21" x1="748.68" y1="461.04" x2="719.13" y2="311.8"/>
          <path class="cls-1" d="M766.76,457.46A18.43,18.43,0,1,1,745.1,443,18.43,18.43,0,0,1,766.76,457.46Z"/>
        </g>
        <g>
          <line class="cls-21" x1="722.13" y1="317.8" x2="958.68" y2="366.04"/>
          <path class="cls-1" d="M955,384.09a18.42,18.42,0,1,0-14.37-21.73A18.42,18.42,0,0,0,955,384.09Z"/>
        </g>
        <path class="cls-1" d="M738.12,317.3a18,18,0,1,0-18,18A18,18,0,0,0,738.12,317.3Z"/>
      </g>
      <g>
        <g>
          <path class="cls-6" d="M481.29,454.76c.09-1.52,1.87-1.92,3.12-2.79a5,5,0,0,1,4.3-.69l106.35,31.31a6.81,6.81,0,0,1,4.85,7.16L592,573.05l-48,42.31A25.14,25.14,0,0,1,518.5,620l-66.57-25.3,24.86-65.8Z"/>
          <path class="cls-8" d="M477,458.09a5,5,0,0,1,6.42-4.47l107.4,32.28a6.79,6.79,0,0,1,4.8,7.15l-7.36,77.52L472.45,532.23Z"/>
          <path class="cls-6" d="M439,559.48l33.43-27.25,115.76,38.34-51.15,44.08A13.29,13.29,0,0,1,523.7,617L458,592.21"/>
          <g>
            <path class="cls-3" d="M488.32,514.06l-2.79-.94-.34,5.94-5.1-1.72L481.37,495l8.25,2.78a11.53,11.53,0,0,1,4.2,2.44,10.22,10.22,0,0,1,2.61,3.81,10.78,10.78,0,0,1,.73,4.72,7.64,7.64,0,0,1-1.16,3.93,4.61,4.61,0,0,1-2.78,1.94l3.49,8.34-5.46-1.84Zm3-9.76a4.3,4.3,0,0,0-2.32-1.66l-2.84-1-.38,6.55,2.84,1a2.73,2.73,0,0,0,2.42-.05A2.63,2.63,0,0,0,492,507,4.29,4.29,0,0,0,491.35,504.3Z"/>
            <path class="cls-3" d="M513.93,523.76l-.28,4.89-14.49-4.88,1.29-22.36,14.15,4.77-.28,4.88-9.1-3.06-.22,3.77,8,2.7-.27,4.73-8-2.71-.24,4.09Z"/>
            <path class="cls-3" d="M516.84,529.32a10.39,10.39,0,0,1-2.51-3.34l3-3.15q1.3,2.82,3,3.38a1.56,1.56,0,0,0,1.74-.26,3.51,3.51,0,0,0,.72-2.23l.55-9.62L517.1,512l.28-4.89,11.29,3.81L527.86,525q-.25,4.35-2.14,5.92t-5.32.42A10.19,10.19,0,0,1,516.84,529.32Z"/>
            <path class="cls-3" d="M545.61,534.44l-.28,4.89-14.49-4.88,1.29-22.37,14.15,4.77-.29,4.89-9.1-3.07-.21,3.77,8,2.71-.28,4.72-8-2.7-.24,4.09Z"/>
            <path class="cls-3" d="M552.1,540.55a15,15,0,0,1-3.31-5.33,15.91,15.91,0,0,1-.94-6.44,11.26,11.26,0,0,1,1.63-5.57,6.84,6.84,0,0,1,3.79-2.94,8.2,8.2,0,0,1,5.17.23,12.17,12.17,0,0,1,4.4,2.59,13.77,13.77,0,0,1,3.12,4.24l-3.46,2.55a7.45,7.45,0,0,0-4.1-4.06,4.07,4.07,0,0,0-2.66-.08,3.48,3.48,0,0,0-1.91,1.65,7.09,7.09,0,0,0-.83,3.13,9.69,9.69,0,0,0,.44,3.55,7.75,7.75,0,0,0,1.65,2.85,6.18,6.18,0,0,0,2.57,1.68,3.93,3.93,0,0,0,4.41-1.18l3,4.73a6.21,6.21,0,0,1-3.47,2,8.64,8.64,0,0,1-4.53-.42A12.22,12.22,0,0,1,552.1,540.55Z"/>
            <path class="cls-3" d="M571.84,530.58l-5.54-1.87.29-5,16.16,5.44-.29,5-5.52-1.86-1,17.35-5.11-1.72Z"/>
          </g>
          <path class="cls-3" d="M535.67,505.34l-4.88-9-5.7,5.74-5.88-1.84,8.86-8.25L521,479.06l5.82,1.81,4.65,8.49,5.42-5.33,5.53,1.72L534,493.61l7.55,13.58Z"/>
          <g>
            <polygon class="cls-2" points="516.37 559.22 500.14 553.86 490.2 561.46 506.42 566.86 516.37 559.22"/>
            <polygon class="cls-2" points="482.79 585.01 491.82 578.07 475.62 572.61 466.6 579.51 482.79 585.01"/>
            <polygon class="cls-2" points="478.43 570.47 494.63 575.92 503.63 569 487.41 563.59 478.43 570.47"/>
            <polygon class="cls-2" points="540.05 578.05 555.36 583.15 565.33 575.38 550.02 570.33 540.05 578.05"/>
            <polygon class="cls-2" points="528.6 577.34 512.17 571.86 503.18 578.79 519.59 584.31 528.6 577.34"/>
            <polygon class="cls-2" points="453.47 562.08 469.99 567.63 478.97 560.78 462.44 555.26 453.47 562.08"/>
            <polygon class="cls-2" points="552.55 585.33 537.25 580.23 528.23 587.22 543.53 592.36 552.55 585.33"/>
            <polygon class="cls-2" points="525.43 589.4 516.37 596.42 531.66 601.61 540.72 594.55 525.43 589.4"/>
            <polygon class="cls-2" points="467.19 569.77 450.68 564.21 441.67 571.05 458.17 576.65 467.19 569.77"/>
            <polygon class="cls-2" points="524.92 562.04 514.97 569.71 531.39 575.17 541.36 567.47 524.92 562.04"/>
            <polygon class="cls-2" points="481.76 558.65 491.69 551.07 475.15 545.61 465.23 553.15 481.76 558.65"/>
            <polygon class="cls-2" points="516.77 586.48 500.37 580.95 491.33 587.91 507.73 593.48 516.77 586.48"/>
          </g>
        </g>
        <path class="cls-6" d="M481,613.37l15-19.81a14.44,14.44,0,0,1,17-4.66l3.72,1.51A17.91,17.91,0,0,1,524.81,617L508.68,641"/>
        <g>
          <g>
            <path class="cls-3" d="M342.49,523H355.1c27.39,0,49.59-10.61,49.59-38V428.68a49.59,49.59,0,0,0-49.59-49.6H342.49a49.6,49.6,0,0,0-49.6,49.6V485C292.89,512.41,315.1,523,342.49,523Z"/>
            <path class="cls-10" d="M342.49,523H355.1c27.39,0,49.59-10.61,49.59-38V428.68a49.59,49.59,0,0,0-49.59-49.6H342.49a49.6,49.6,0,0,0-49.6,49.6V485C292.89,512.41,315.1,523,342.49,523Z"/>
          </g>
          <g>
            <path class="cls-2" d="M368,438.35l8.38-17.15a21.94,21.94,0,0,0-2.09.76c-15.81,6.63-30.72,32.33-30.72,32.33s-12.72-13.73-23.91.5c-7.44,9.44,3.57,26.46,3.57,26.46l-12.1,32.21s-2.55,26.14-17.12-8a121.36,121.36,0,0,1-7.15-24.09c-3.36,1-6.82,1.33-10.62,1.95,0,0,8.3-14.72-5.95-26.45s4.57-19.88,0-32.6-21.67-32.55-1.54-60.57C284.12,342.38,307,350,307,350a32.92,32.92,0,0,1,13.17,7.57c18.26-3,41,.88,56.27,2.11,25.67,2,34.39,26.45,39,53.43S368,438.35,368,438.35Z"/>
            <path class="cls-10" d="M368,438.35l8.38-17.15a21.94,21.94,0,0,0-2.09.76c-15.81,6.63-30.72,32.33-30.72,32.33s-12.72-13.73-23.91.5c-7.44,9.44,3.57,26.46,3.57,26.46l-12.1,32.21s-2.55,26.14-17.12-8a121.36,121.36,0,0,1-7.15-24.09c7.78-2.39,15-8.74,24.66-32.15,10.69-26-11.34-30.83,1.51-42.25,20.71-18.34,18.89-38.19,7.08-49.43,18.26-3,41,.88,56.27,2.11,25.67,2,34.39,26.45,39,53.43S368,438.35,368,438.35Z"/>
            <path class="cls-10" d="M307,349.94c21.82,6.64,33.08,33.09,6.11,57-12.87,11.41,9.16,16.29-1.53,42.24-13.82,33.57-22.69,32.07-35.27,34.11,0,0,8.3-14.73-6-26.45s4.59-19.87,0-32.59-21.67-32.55-1.52-60.58C284.12,342.38,307,349.94,307,349.94Z"/>
          </g>
          <path class="cls-10" d="M250.65,413.65c0-48.93,30.64-83.35,73.86-83.35H340.7a82.69,82.69,0,0,1,82.67,83.35v93h0c0,28.92-39.33,39.79-87,39.79s-85.69-10.87-85.69-39.79h0Z"/>
        </g>
        <g>
          <g>
            <g>
              <path class="cls-2" d="M312.15,728a4.37,4.37,0,0,1-4.24,5.42H252a3.85,3.85,0,0,1-3.76-4.91l10.57-36.66h44.29Z"/>
              <path class="cls-2" d="M290.3,691.86H271.54c-19.59,0-26.89-15.89-26.89-35.49V523.6a35.48,35.48,0,0,1,35.49-35.48h0a35.48,35.48,0,0,1,35.48,35.48V656.37C315.62,676,309.89,691.86,290.3,691.86Z"/>
            </g>
            <path class="cls-22" d="M312.15,728a4.37,4.37,0,0,1-4.24,5.42H252a3.85,3.85,0,0,1-3.76-4.91l10.57-36.66h44.29Z"/>
            <path class="cls-22" d="M290.3,691.86H271.54c-19.59,0-26.89-15.89-26.89-35.49V523.6a35.48,35.48,0,0,1,35.49-35.48h0a35.48,35.48,0,0,1,35.48,35.48V656.37C315.62,676,309.89,691.86,290.3,691.86Z"/>
          </g>
          <g>
            <g>
              <path class="cls-2" d="M365.67,736a4.37,4.37,0,0,1-4.24,5.42H305.57a3.85,3.85,0,0,1-3.77-4.91l10.57-36.66h44.3Z"/>
              <path class="cls-2" d="M343.82,699.86H325.06c-19.59,0-26.88-15.89-26.88-35.49V531.6a35.47,35.47,0,0,1,35.48-35.48h0a35.48,35.48,0,0,1,35.48,35.48V664.37C369.14,684,363.41,699.86,343.82,699.86Z"/>
            </g>
            <path class="cls-22" d="M365.67,736a4.37,4.37,0,0,1-4.24,5.42H305.57a3.85,3.85,0,0,1-3.77-4.91l10.57-36.66h44.3Z"/>
            <path class="cls-22" d="M343.82,699.86H325.06c-19.59,0-26.88-15.89-26.88-35.49V531.6a35.47,35.47,0,0,1,35.48-35.48h0a35.48,35.48,0,0,1,35.48,35.48V664.37C369.14,684,363.41,699.86,343.82,699.86Z"/>
          </g>
        </g>
        <path class="cls-13" d="M271.89,773.22c-33.85-8-65.77-19.53-65.77-54.26V662.48c0-29.84,4.78-106.24,58.73-103.3C334.59,563,376,637.15,376,681.53v60.79C376,796.93,308.64,781.89,271.89,773.22Z"/>
        <path class="cls-6" d="M436.68,565.7,450.27,563c4.19-.82,10.58-.62,13.76,2.36l5.06,4.75a8.15,8.15,0,0,1,2.55,7,9.5,9.5,0,0,1-4.18,6.62L446.35,598"/>
        <path class="cls-10" d="M395.31,510.36a72.15,72.15,0,0,1,39.78,46.21l25.09,89.06"/>
        <path class="cls-10" d="M376.18,749.13c15,1.5,42.5-13.5,42.5-39.5v-37.5"/>
        <path class="cls-10" d="M458.68,634.63l19.5-18.5c9.5-7.5,36.5,3,29,28.5L483.6,686.38a32.57,32.57,0,0,1-27.92,15.74c-11.43,0-23-7-28.87-16.82-16.2-26.94-34.48-54.72-34.63-55.17"/>
      </g>
      <g>
        <path class="cls-6" d="M712.67,634.38,675.35,580.8v-79a9.75,9.75,0,0,1,8.29-9.64L794.7,475.4a7.83,7.83,0,0,1,9,7.72l.09,52.58"/>
        <path class="cls-8" d="M782.66,563.63,679.35,579.8v-75a9.75,9.75,0,0,1,8.29-9.64L798.7,478.4a7.83,7.83,0,0,1,9,7.72l.09,52.58"/>
        <g>
          <path class="cls-3" d="M702.57,552.09l-2.91.42-.12,6-5.33.77.45-22.39,8.62-1.25a8.67,8.67,0,0,1,4.42.37,5.54,5.54,0,0,1,2.85,2.46,8,8,0,0,1,.93,4.25,10,10,0,0,1-1,4.38,8.82,8.82,0,0,1-2.79,3.22l3.93,6.45-5.71.83Zm2.74-11a2.87,2.87,0,0,0-2.46-.51l-3,.43-.13,6.56,3-.43a3.93,3.93,0,0,0,2.5-1.21,3.84,3.84,0,0,0,.88-2.53A2.86,2.86,0,0,0,705.31,541.14Z"/>
          <path class="cls-3" d="M729.36,549.27l-.1,4.9-15.13,2.18.45-22.39,14.78-2.14-.1,4.9-9.5,1.37-.07,3.78,8.37-1.21-.1,4.73-8.37,1.21-.08,4.1Z"/>
          <path class="cls-3" d="M732.58,553.29a5.55,5.55,0,0,1-2.72-2l3-4.51q1.46,2.12,3.21,1.86a2.49,2.49,0,0,0,1.78-1.08,4.68,4.68,0,0,0,.65-2.52l.2-9.63-6.52.94.1-4.9,11.79-1.7-.28,14.14a11.23,11.23,0,0,1-2,6.79,8,8,0,0,1-5.47,3A7.73,7.73,0,0,1,732.58,553.29Z"/>
          <path class="cls-3" d="M762.45,544.49l-.1,4.9-15.13,2.18.45-22.39L762.45,527l-.1,4.9-9.5,1.37-.08,3.78,8.37-1.21-.09,4.73-8.37,1.21-.09,4.1Z"/>
          <path class="cls-3" d="M769.38,547.33a8.08,8.08,0,0,1-3.62-3.6,11.79,11.79,0,0,1-1.22-5.82A14.4,14.4,0,0,1,766,531.7a13,13,0,0,1,3.78-4.68,11.35,11.35,0,0,1,5.34-2.26,9.07,9.07,0,0,1,4.64.42,7.26,7.26,0,0,1,3.38,2.63L779.69,532a4.45,4.45,0,0,0-4.39-2,5.64,5.64,0,0,0-2.75,1.2,6.55,6.55,0,0,0-1.9,2.52,8.88,8.88,0,0,0-.73,3.44,7.26,7.26,0,0,0,.6,3.25,4.08,4.08,0,0,0,1.81,2,4.29,4.29,0,0,0,2.71.41,6.56,6.56,0,0,0,4.5-3.27l3.32,3.16a11.94,11.94,0,0,1-3.51,3.63,11.13,11.13,0,0,1-4.68,1.76A8.78,8.78,0,0,1,769.38,547.33Z"/>
          <path class="cls-3" d="M789.35,528.16l-5.79.84.1-5,16.88-2.44-.1,5-5.76.83-.35,17.38-5.33.77Z"/>
        </g>
        <path class="cls-3" d="M750.4,518.61l-4.07-5.31-4.45,6.55-6,.87,7.55-10.79-6.92-8.55,6.22-.9,3.94,5,4.26-6.23,5.9-.86-7.29,10.47,7.19,8.8Z"/>
        <path class="cls-3" d="M681.35,579.7l34.34,52c0-14,5-23.66,17.33-16.66a82.7,82.7,0,0,0,23,9l31.33-62.34Z"/>
        <polygon class="cls-2" points="701.83 586.98 722.33 614.48 754.17 625.81 779.67 573.64 701.83 586.98"/>
        <polyline class="cls-4" points="705.26 615.66 680.23 580.55 780.89 563.67"/>
        <path class="cls-13" d="M915.35,819.17c34.74-7.47,69.51-18.74,68.73-53.13l-1.2-52.82c-.64-28.18-7.1-96.49-70.62-91.05-61.55,5.27-102.48,58.45-101.53,100.36l1.56,68.77C813.19,830.69,865.17,830,915.35,819.17Z"/>
        <path class="cls-6" d="M712.69,634.8c-6-14.33-15.11-43.36,4-46.33,11.33-1.77,25,4.57,22,30.57"/>
        <path class="cls-10" d="M751.35,631.13l32.5-65a64.23,64.23,0,0,1,35.7-31.72"/>
        <path class="cls-10" d="M753,626.8s-12.33-6-23.67-10.67-22.86,11.79-11.33,31c4.09,6.81,9.4,14.85,14.25,22a26.64,26.64,0,0,0,33.38,9.11l16.65-7.87v73.13s-1.61,27.33,27.72,46"/>
        <path class="cls-10" d="M931.07,528.16c12.56,4.82,20.64,16.29,24.12,29.76,10.83,41.88,7.7,81.82,8.16,83.21"/>
        <line class="cls-4" x1="817.35" y1="650.47" x2="781.3" y2="670.34"/>
        <g>
          <g>
            <rect class="cls-3" x="813.43" y="394.05" width="118.49" height="164.84" rx="48.99" ry="48.99"/>
            <rect class="cls-10" x="813.43" y="394.05" width="118.49" height="164.84" rx="48.99" ry="48.99"/>
          </g>
          <g>
            <path class="cls-2" d="M813.43,407.63c25.3-33.94,82.61-30.17,103.72-13.58s17.47,47,14.77,115.85-59.25,39.71-59.25,39.71-21.88.37-24.14-18.4,7.54-69.79-2.26-78.21-31.67-3.9-36.19-12.19S805.76,417.92,813.43,407.63Z"/>
            <path class="cls-10" d="M813.43,407.63c25.3-33.94,82.61-30.17,103.72-13.58s17.47,47,14.77,115.85c-3,76.6-80.57,43.8-83.39,21.31-2.35-18.76,7.54-69.79-2.26-78.21s-31.67-3.9-36.19-12.19S805.76,417.92,813.43,407.63Z"/>
          </g>
          <path class="cls-10" d="M956.5,447.42c0-48.32-30.26-82.33-73-82.33h-16a81.69,81.69,0,0,0-81.65,82.33v91.82c0,49.79,170.59,56.12,170.59,0h0Z"/>
        </g>
      </g>
      <line class="cls-4" x1="1015.5" y1="554.67" x2="1049.13" y2="529.42"/>
    </g>
    <g>
      <g>
        <path class="cls-2" d="M515.91,190.15c0-12.81-3.15-25.31-9.86-33.61s-17-12.39-27.26-12.39c-23.06,0-36.83,20.43-37.61,46.11-.8,26.23,14.86,47.83,36.19,47.76S515.91,216.3,515.91,190.15Z"/>
        <g>
          <path class="cls-10" d="M452.05,193.35c.13-25.36,14.54-46.78,32.18-47.84s31.84,18.63,31.71,44-14.54,46.78-32.18,47.84S451.92,218.71,452.05,193.35Z"/>
          <path class="cls-10" d="M484.23,237.17l-12.9-.79c-17.53-1.06-30.83-22.48-29.7-47.84s16.27-45,33.81-44l12.9.78"/>
        </g>
      </g>
      <g>
        <path class="cls-2" d="M519.27,215.46c0-12.8-3.15-25.3-9.87-33.6s-17-12.39-27.25-12.39c-23.07,0-36.84,20.43-37.62,46.11-.79,26.22,14.87,47.83,36.2,47.76S519.27,241.61,519.27,215.46Z"/>
        <g>
          <path class="cls-10" d="M455.4,218.67c.13-25.36,14.54-46.78,32.18-47.84s31.84,18.63,31.71,44-14.54,46.78-32.18,47.84S455.27,244,455.4,218.67Z"/>
          <path class="cls-10" d="M487.58,262.48l-12.89-.78c-17.54-1.06-30.84-22.48-29.7-47.84s16.26-45.06,33.8-44l12.9.78"/>
        </g>
      </g>
      <path class="cls-3" d="M527.94,203.8c0-12.81-3.15-25.31-9.87-33.6s-17-12.4-27.26-12.4c-23.06,0-36.83,20.43-37.61,46.12-.79,26.22,14.86,47.82,36.19,47.75S527.94,230,527.94,203.8Z"/>
      <g>
        <path class="cls-1" d="M503.48,231.83l-5.13,1.07c0-2.4.06-4.79.09-7.2-1.1.24-2.18.46-3.26.68,0,2.43-.06,4.81-.1,7.2L490,234.65c0-2.4.06-4.79.09-7.25l-10.84,2.26c0-2.06.05-4.07.08-6.12l.45-.09c.67-.15,1.35-.29,2-.47a2.43,2.43,0,0,0,1.81-2.56c0-.63.06-1.26.07-1.88l.3-22.47c0-1,0-2,0-3,0-1.38-.59-2-1.74-1.84-.69.09-1.37.24-2.06.37l-.41.06c0-2,.06-4.06.08-6.12l10.85-2.27c0-2.44.06-4.83.09-7.21l5.13-1.07-.09,7.19,3.26-.68c0-2.43.06-4.81.1-7.2l5.13-1.07c0,.19,0,.38,0,.56,0,2.11,0,4.21-.09,6.32,0,.49.07.7.5.63a5.46,5.46,0,0,1,1,0,7.6,7.6,0,0,1,7.87,8,12.44,12.44,0,0,1-1.3,5.9,13.92,13.92,0,0,1-5.07,5.7l-.44.31a.76.76,0,0,0,.4.17,9.6,9.6,0,0,1,3.83,1.12,7.34,7.34,0,0,1,3.43,5.32,14.48,14.48,0,0,1-3.79,12.44A15.7,15.7,0,0,1,504,224c-.37.14-.46.31-.47.74C503.55,227.11,503.51,229.47,503.48,231.83Zm-10.66-24.69c0,.14,0,.24,0,.33,0,3.11-.09,6.21-.12,9.32,0,.66,0,1.33.07,2s.29.83.73.76c1.24-.2,2.49-.39,3.73-.67a27.15,27.15,0,0,0,3.21-.93,6.42,6.42,0,0,0,3-2.28,8.55,8.55,0,0,0,1.72-4.92c.12-2.51-.93-4.31-2.82-4.83a8,8,0,0,0-3.5,0c-1.88.33-3.78.75-5.67,1.14C493.05,207.06,493,207.1,492.82,207.14Zm.1-6.54a2.88,2.88,0,0,0,.33,0l3.76-.79a16.08,16.08,0,0,0,4.25-1.41,6.25,6.25,0,0,0,2.7-2.73c1.45-2.93.78-7-2.41-7.11a11.23,11.23,0,0,0-2.38.14c-1.93.34-3.85.76-5.79,1.14-.09,0-.19.07-.32.11C493,193.47,493,197,492.92,200.6Z"/>
        <g>
          <path class="cls-10" d="M464.07,207c.13-25.36,14.54-46.78,32.18-47.84s31.84,18.63,31.71,44S513.42,249.93,495.78,251,463.94,232.36,464.07,207Z"/>
          <path class="cls-10" d="M496.25,250.82,483.36,250c-17.54-1.06-30.84-22.48-29.71-47.84s16.27-45.05,33.81-44l12.9.78"/>
        </g>
      </g>
      <g>
        <polyline class="cls-21" points="600.52 288.21 575.52 247.21 555.52 245.21 540.52 219.21"/>
        <polyline class="cls-21" points="557.85 222.87 538.85 215.87 535.52 237.21"/>
      </g>
      <g>
        <polyline class="cls-21" points="436.52 241.71 427.18 247.71 387.85 322.7"/>
        <polyline class="cls-21" points="424.18 215.04 410.52 223.04 400.85 240.37"/>
        <line class="cls-21" x1="418.52" y1="237.04" x2="405.18" y2="262.37"/>
        <polyline class="cls-21" points="401.85 323.04 384.52 327.04 381.52 306.7"/>
      </g>
      <line class="cls-21" x1="561.35" y1="258.37" x2="592.02" y2="308.37"/>
    </g>
  </g>
  <path class="cls-10" d="M779.67,426.38a258.74,258.74,0,0,1,27.33.34"/>
</svg>
