<svg id="work" xmlns="http://www.w3.org/2000/svg" viewBox="0 0 1422 870">
  <defs>
    <style>
      .cls-1, .cls-11 {
        fill: #ebebeb;
      }

      .cls-14, .cls-2, .cls-6 {
        fill: #fff;
      }

      .cls-3, .cls-4, .cls-7 {
        fill: none;
      }

      .cls-3 {
        stroke: #ff339c;
      }

      .cls-11, .cls-14, .cls-3, .cls-4, .cls-6, .cls-7, .cls-8, .cls-9 {
        stroke-linecap: round;
        stroke-linejoin: round;
      }

      .cls-3, .cls-6, .cls-9 {
        stroke-width: 3px;
      }

      .cls-11, .cls-14, .cls-4, .cls-6, .cls-7, .cls-8, .cls-9 {
        stroke: #4a4a4a;
      }

      .cls-11, .cls-14, .cls-4, .cls-8 {
        stroke-width: 2.5px;
      }

      .cls-5, .cls-8, .cls-9 {
        fill: #ff0083;
      }

      .cls-7 {
        stroke-width: 4px;
      }

      .cls-10 {
        fill: #ededed;
      }

      .cls-12 {
        fill: #f9f9f9;
      }

      .cls-13 {
        fill: #4a4a4a;
      }
    </style>
  </defs>
  <title>29,1</title>
  <path class="cls-1" d="M978.67,207.21l23-23.21,52.5-3.26L1068,198.26l-30.7,33.07-28.59,6.25s-7.06-24.78-30.07-28.18"/>
  <polygon class="cls-1" points="867.02 233.67 903.95 218.32 900 248.25 880.67 235.72 868.99 238.18 867.02 233.67"/>
  <path class="cls-1" d="M775,244.14,793,282s31.67-4.65,38.33,1.35c9.82-2.47,10.17-14.42,10.17-14.42l1.29-10.41-8.57-15.65-13.55,2L778,222Z"/>
  <polygon class="cls-1" points="866.41 392.48 823.33 371.33 772.21 399.41 866.41 392.48"/>
  <path class="cls-1" d="M571.28,576l179.39-56,3.11,8.17L473.45,617.86S558.6,580,571.28,576Z"/>
  <path class="cls-1" d="M494.23,475.34l224.41-55.49,2.73,4.3L394.56,512.64S481.38,478.71,494.23,475.34Z"/>
  <path class="cls-1" d="M1005,389.5s-159.52,80.89-145.26,26.69a28,28,0,0,1,2.35-7.23h-6.74l-47,66.33,218.32-81.51S1010.32,396.59,1005,389.5Z"/>
  <path class="cls-1" d="M1223.33,200v18s-79.59,80.71-110.18,98c-27.38,15.87-28.48,22-28.48,22s-37.53,47.72-58,55.78c-10.73-.47-23.43,2.73-22.92-4.85s14.58-27.52,14.58-27.52L1040,329s48.17-55.35,62.08-61.31S1206.67,222,1223.33,200Z"/>
  <polygon class="cls-1" points="846.16 421.75 1027.29 347.65 1038.23 329.04 862.09 394.07 846.16 421.75"/>
  <polygon class="cls-1" points="770.33 399.41 834.91 394.07 808.78 442.39 607.26 486.65 613.33 455 720 421.75 770.33 399.41"/>
  <g>
    <path class="cls-2" d="M452.67,626.67,751.33,530C792.67,499.33,806,478.67,806,478.67c68-24.67,220.67-84.89,220.67-84.89S1064,371.34,1090,330c74.67-41.33,133.33-112,133.33-112V200c-22.66-19.33-58-25.33-58-25.33-78,4.66-110,6-110,6-35.33-28-136-44-277.33,41.33-51.33-3.33-102.67-2-102.67-2L478.67,306l92-33.25A26.2,26.2,0,0,1,591.43,274l21.24,10.68s-29.12,10.69-55.93,28.72a14,14,0,0,0-6.21,11.3A51.5,51.5,0,0,0,552,337.34c-1,.48-2,1-3,1.47a22.66,22.66,0,0,0-11.43,15.5c-2.26,11.38-3.86,21-5,28.32a36.42,36.42,0,0,0,10.65,31.49A94,94,0,0,0,565.58,430c-19.3,13.71-54.93,33.83-62.25,37.92a22.75,22.75,0,0,1-2.73,1.3L382,516l231.33-61c-1.71,4.94-9.25,49.94-14.39,81.32a56.09,56.09,0,0,1-33.48,42.56Z"/>
    <g>
      <path class="cls-3" d="M227.73,111c-75,45.66-122.51,105.76-111.15,146.84,11,39.83,87,42.22,169.73,5.34,66.18-29.5,112.69-79.25,103.87-111.11-7.05-25.49-55.68-27-108.63-3.42-42.35,18.88-72.11,50.72-66.47,71.11,4.51,16.32,35.64,17.3,69.52,2.19,27.11-12.08,46.15-32.46,42.54-45.51-2.88-10.44-22.81-11.07-44.49-1.4-11.83,5.27-21.26,13-25.33,20"/>
      <path class="cls-3" d="M69,229.28s3.61-16.17,19.77-32.89"/>
      <path class="cls-3" d="M446.45,194.16a78.19,78.19,0,0,1-21,35.12"/>
    </g>
    <g>
      <path class="cls-2" d="M769.29,159c-6.6,14.15-46.14,9.69-88.32-10S610,102,616.55,87.84s46.13-9.69,88.31,10S775.88,144.88,769.29,159Z"/>
      <circle class="cls-2" cx="695.15" cy="119.5" r="57.5"/>
      <path class="cls-4" d="M728.84,165.91a57,57,0,0,1-37.62,10.81,57.78,57.78,0,0,1-9.39-1.45,57.11,57.11,0,0,1-43.63-53.14"/>
      <path class="cls-4" d="M751.66,133.32c2.12,3.88,2.72,7.46,1.48,10.47-1.32,3.26-4.64,5.51-9.42,6.75-12.06,3.16-33.51,0-56.06-9.2-25.77-10.5-45-25.59-48.59-37a10.18,10.18,0,0,1,0-7,9.93,9.93,0,0,1,4.54-4.84,16.7,16.7,0,0,1,2-1"/>
      <path class="cls-4" d="M653.45,80.91c-.55-.1-1.1-.19-1.64-.26-17.86-2.71-30.92-.56-34.48,7-3.84,8.16,4.21,20.82,19.87,33.88,11.28,9.41,26.52,19,44.1,27.29,17.4,8.19,34.36,13.77,48.71,16.5,20.25,3.85,35.32,2,39.19-6.2,3.58-7.63-3.22-19.19-16.9-31.32l-.51-.45"/>
      <path class="cls-4" d="M670.94,132.15a15.9,15.9,0,0,0-25.77-18.63"/>
      <path class="cls-4" d="M696,84.87a6.84,6.84,0,1,0-7.31,6.35A6.85,6.85,0,0,0,696,84.87Z"/>
      <path class="cls-4" d="M728.17,115.88a9.63,9.63,0,1,0-10.28,8.93A9.62,9.62,0,0,0,728.17,115.88Z"/>
      <path class="cls-4" d="M704.18,176.16a56.92,56.92,0,0,1-13,.56,57.78,57.78,0,0,1-9.39-1.45c0-.11,0-.23,0-.35a11.18,11.18,0,0,1,22.33,1.24Z"/>
      <path class="cls-5" d="M579.76,111a4.25,4.25,0,1,0-4.53,3.94A4.24,4.24,0,0,0,579.76,111Z"/>
      <path class="cls-5" d="M195,356.22a4.25,4.25,0,1,0-4.53,3.93A4.24,4.24,0,0,0,195,356.22Z"/>
      <path class="cls-5" d="M1344.68,262.63a4.24,4.24,0,1,0-4.53,3.93A4.23,4.23,0,0,0,1344.68,262.63Z"/>
      <path class="cls-5" d="M1216.87,67.37a4.25,4.25,0,1,0-4.53,3.93A4.24,4.24,0,0,0,1216.87,67.37Z"/>
      <path class="cls-5" d="M992.23,471.35a4.24,4.24,0,1,0-4.53,3.93A4.23,4.23,0,0,0,992.23,471.35Z"/>
      <path class="cls-5" d="M93,432.13a4.25,4.25,0,1,0-4.53,3.94A4.26,4.26,0,0,0,93,432.13Z"/>
      <path class="cls-5" d="M651.66,185.34a2.92,2.92,0,1,0-3.11,2.71A2.91,2.91,0,0,0,651.66,185.34Z"/>
      <path class="cls-5" d="M780.69,65.82a4.25,4.25,0,1,0-4.53,3.93A4.24,4.24,0,0,0,780.69,65.82Z"/>
      <path class="cls-4" d="M743.41,150.4a57.08,57.08,0,1,0-103.15-46"/>
    </g>
    <path class="cls-6" d="M545,322C416,350,191.53,455,88.76,560,220,554,268,538.8,268,538.8c-60,22.2-73,46.76-73,46.76,42,1.44,247.16-21.45,370.58-114.51"/>
    <path class="cls-5" d="M543,329s-34,9.47-66,37.21c18.75-.15,37.15-3.88,51.47-11l12-18.26Z"/>
    <path class="cls-5" d="M525.5,385.37s-58.83,7.11-88.54,46.47c36.88-.32,72.66-11.84,88.59-33.75"/>
    <path class="cls-6" d="M272.45,535.48c104.55-28.35,189.64-71,253.1-115.22"/>
    <path class="cls-6" d="M491,381.87S369,394.07,207,479"/>
    <path class="cls-7" d="M452.67,626.67,751.33,530C792.67,499.33,806,478.67,806,478.67c68-24.67,220.67-84.89,220.67-84.89S1064,371.34,1090,330c74.67-41.33,133.33-112,133.33-112V200c-22.66-19.33-58-25.33-58-25.33-78,4.66-110,6-110,6-35.33-28-136-44-277.33,41.33-51.33-3.33-102.67-2-102.67-2L478.67,306l92-33.25A26.2,26.2,0,0,1,591.43,274l21.24,10.68s-29.12,10.69-55.93,28.72a14,14,0,0,0-6.21,11.3A51.5,51.5,0,0,0,552,337.34c-1,.48-2,1-3,1.47a22.66,22.66,0,0,0-11.43,15.5c-2.26,11.38-3.86,21-5,28.32a36.42,36.42,0,0,0,10.65,31.49A94,94,0,0,0,565.58,430c-19.3,13.71-54.93,33.83-62.25,37.92a22.75,22.75,0,0,1-2.73,1.3L382,516l231.33-61c-1.71,4.94-9.25,49.94-14.39,81.32a56.09,56.09,0,0,1-33.48,42.56Z"/>
    <path class="cls-4" d="M555.33,335.33l114-44s124.67-14,162-8v42L830,325a47.36,47.36,0,0,0-21.35.19l-183.35,44.1C624.67,380,565.58,430,565.58,430"/>
    <path class="cls-4" d="M613.67,283.84S656,271.14,700,268.91"/>
    <path class="cls-4" d="M581.43,416.19s-8.15-7.66-15.55-15.35a32.14,32.14,0,0,1-8.72-26.19c2.1-17,5-41.95,5-41.95"/>
    <path class="cls-4" d="M571.63,329l-1.2-5.55a14.39,14.39,0,0,1,6-14.94l33.84-22.95"/>
    <path class="cls-4" d="M720,420l45.4-30.55a119.64,119.64,0,0,0,26.74-24.66L820.67,329"/>
    <polyline class="cls-4" points="616.67 455 722.67 424.67 823.33 371.33"/>
    <path class="cls-4" d="M835.33,393.78l-33.52,61.37a251.34,251.34,0,0,1-29.37,42.66l-21.77,25.52"/>
    <line class="cls-4" x1="806" y1="478.67" x2="866" y2="392.48"/>
    <line class="cls-4" x1="770.33" y1="399.41" x2="835.33" y2="393.78"/>
    <line class="cls-4" x1="835.33" y1="393.78" x2="866" y2="392.48"/>
    <line class="cls-4" x1="866" y1="392.48" x2="1040" y2="329.04"/>
    <path class="cls-4" d="M1026.67,393.78l-16.54-.72a7.49,7.49,0,0,1-5.86-11.71L1040,329l41.08-46.32a57.76,57.76,0,0,1,21-15c27.41-11.48,94-41,121.25-67.73"/>
    <line class="cls-4" x1="1018.33" y1="361.41" x2="1090" y2="330"/>
    <path class="cls-4" d="M667.61,292S743.67,240.34,775,225"/>
    <path class="cls-4" d="M793,282l-16.22-34.21a14.13,14.13,0,0,1-1.22-7.9L778,222l42.67,24"/>
    <polyline class="cls-4" points="1057.33 184 1069.33 200 1037.33 231.33 831.33 283.33"/>
    <line class="cls-4" x1="883.33" y1="225" x2="905.33" y2="216.67"/>
    <polyline class="cls-4" points="988 200 1002.96 184 1055.33 180.67"/>
    <polyline class="cls-4" points="1002.96 184 1012 196.67 1064.67 200"/>
    <g>
      <g>
        <path class="cls-4" d="M818.7,236.25c-5.91-13.54-.47-27.25,13.07-33.15l5.07-2.22c13.54-5.9,30-1.77,36,11.77L884,238.37c0,.08,0-.08,0,0,3.49,8-5.79,20.35-20.73,26.87S833.41,270,829.92,262c0-.08,0,.08,0,0Z"/>
        <g>
          <path class="cls-2" d="M839.37,254.65a13.28,13.28,0,0,0,17.13,6.65l7.76-3.38c6.38-2.78,8.81-10.38,6-16.76l-7.36-16.86a10,10,0,0,0-13.12-5.15l-12.65,5.52A10,10,0,0,0,832,237.79Z"/>
          <path class="cls-4" d="M834.22,242.85l5.15,11.8a13.28,13.28,0,0,0,17.13,6.65l7.76-3.38c6.38-2.78,8.81-10.38,6-16.76l-6-13.73"/>
        </g>
        <g>
          <g>
            <path class="cls-4" d="M862.09,234a3.51,3.51,0,1,0-6.44,2.81"/>
            <path class="cls-4" d="M849.53,239.43a3.51,3.51,0,1,0-6.44,2.81"/>
          </g>
          <path class="cls-4" d="M862.06,244.21c-3.88,9-12.16,5.31-12.16,5.31"/>
        </g>
        <g>
          <path class="cls-1" d="M834.08,211.92c5.12-3.19,9.32-3.5,15.48-2.73,4.77.6,6.38-5.07,6.38-5.07,6,6.37,10.06,21.94,9.22,25.29l-2-4.51c-1.39-3.18-5.39-7.14-8-5.34-8.69,6.09-12.93-.17-20.41,8.38-2,2.24-.76,6.89.19,10.72a23.55,23.55,0,0,1,.12,5.34l.17.35c-3.22-2-7.77-10.58-8.92-15.57C825.18,223.56,826.34,216.74,834.08,211.92Z"/>
          <path class="cls-4" d="M834.08,211.92c5.12-3.19,9.32-3.5,15.48-2.73,4.77.6,6.38-5.07,6.38-5.07,6,6.37,10.06,21.94,9.22,25.29l-2-4.51c-1.39-3.18-5.39-7.14-8-5.34-8.69,6.09-12.93-.17-20.41,8.38-2,2.24-.76,6.89.19,10.72a23.55,23.55,0,0,1,.12,5.34l.17.35c-3.22-2-7.77-10.58-8.92-15.57C825.18,223.56,826.34,216.74,834.08,211.92Z"/>
        </g>
      </g>
      <g>
        <path class="cls-4" d="M915.28,201.74c-5.54-13.7.27-27.26,14-32.8l5.12-2.07c13.7-5.54,30.09-1,35.63,12.74l10.52,26c0,.08,0-.08,0,0,3.28,8.09-6.33,20.18-21.44,26.3s-30,3.93-33.28-4.17c0-.08,0,.08,0,0Z"/>
        <g>
          <g>
            <path class="cls-1" d="M956.48,226.28h0a19,19,0,0,1-24.78-10.5L926.12,202a19,19,0,0,1,10.5-24.77h0a19,19,0,0,1,24.78,10.5L967,201.5A19,19,0,0,1,956.48,226.28Z"/>
            <path class="cls-4" d="M956.48,226.28h0a19,19,0,0,1-24.78-10.5L926.12,202a19,19,0,0,1,10.5-24.77h0a19,19,0,0,1,24.78,10.5L967,201.5A19,19,0,0,1,956.48,226.28Z"/>
          </g>
          <g>
            <path class="cls-2" d="M951.75,183.39c1.22,13.48-16.41,24.51-16.94,26s4,13.81,2.45,15.89c-.55.73-2.19,1.56-4,2.6s-9.43-19.45-10.72-24.42c-4.61-17.65,2.47-23.33,7.37-26.27,5.21-3.12,10.91-5.39,15.08-5.52s13.66,1.05,18.64,12.35c2.85,6.51,11.92,28.19,11.92,28.19s-2.5.12-4.27,0-2-4.81-4.8-11.76-3-9.15-5-10.85S951.75,183.39,951.75,183.39Z"/>
            <path class="cls-4" d="M951.75,183.39c1.22,13.48-16.41,24.51-16.94,26s4,13.81,2.45,15.89c-.55.73-2.19,1.56-4,2.6s-9.43-19.45-10.72-24.42c-4.61-17.65,2.47-23.33,7.37-26.27,5.21-3.12,10.91-5.39,15.08-5.52s13.66,1.05,18.64,12.35c2.85,6.51,11.92,28.19,11.92,28.19s-2.5.12-4.27,0-2-4.81-4.8-11.76-3-9.15-5-10.85S951.75,183.39,951.75,183.39Z"/>
          </g>
          <g>
            <g>
              <path class="cls-4" d="M941,207.21a3.51,3.51,0,1,1,6.51-2.64"/>
              <path class="cls-4" d="M953.69,202.07a3.51,3.51,0,1,1,6.51-2.63"/>
            </g>
            <path class="cls-4" d="M948.33,214.37c9.14,3.52,12.3-5,12.3-5"/>
          </g>
        </g>
      </g>
      <path class="cls-4" d="M842.79,260.75s-4.49,6.71-1.64,20.11"/>
      <path class="cls-4" d="M869,238.18s8.89-4.41,14.32-1.42S900,248.25,900,248.25"/>
      <path class="cls-4" d="M939.62,256s-7.88-8.57,0-30"/>
      <line class="cls-4" x1="951.75" y1="244.88" x2="954.48" y2="250.26"/>
      <path class="cls-4" d="M983.17,238.24l2.49-4.44A9,9,0,0,0,984.18,223l-1-1"/>
      <path class="cls-4" d="M973.49,207.21s4-5.29,23,13.62"/>
      <g>
        <path class="cls-8" d="M937.84,219.53l-4.17,38.22-35,8.92,5.54-50.81a4.39,4.39,0,0,1,4.83-3.88L934,214.7A4.38,4.38,0,0,1,937.84,219.53Z"/>
        <path class="cls-2" d="M928.68,240.26a3.5,3.5,0,0,0-1.7-2.54,10.46,10.46,0,0,0-1.2-.62l-.12-.07.27-.12a3.54,3.54,0,0,0,2.13-2.75,5,5,0,0,0,0-2.25,3.78,3.78,0,0,0-1.84-2.3,9.77,9.77,0,0,0-3.08-1.13c-.39-.09-.39-.09-.35-.47.13-1.13.25-2.26.37-3.39,0-.08,0-.16,0-.25l-2.45-.27-.42,3.83s0,0,0,.08l-.46,0-1.27-.11c-.15,0-.19-.07-.17-.22.14-1.24.28-2.49.41-3.74l-2.45-.26c-.14,1.32-.29,2.64-.43,4l-4.89-.54c-.1.88-.19,1.73-.29,2.6l.74.08,1.2.16a1.23,1.23,0,0,1,1.08,1.44l-1.14,10.53a.91.91,0,0,1-1.13.92l-1.5-.17c-.1,0-.18,0-.21.11l-.75,2.66s0,0,0,.07l4.87.53c-.15,1.38-.3,2.73-.44,4.08l2.45.27c.13-1.27.27-2.54.41-3.81,0-.08,0-.2.14-.19l1.83.2c-.15,1.36-.3,2.69-.44,4l2.45.26.3-2.85c0-.32.08-.65.1-1s.08-.23.26-.23c.87,0,1.75,0,2.61,0a6.2,6.2,0,0,0,3.06-1,4.5,4.5,0,0,0,1.68-2.23A6.58,6.58,0,0,0,928.68,240.26Zm-11.13-4.88c.08-.76.17-1.51.25-2.26l.24-2.22c0-.15,0-.23.21-.2.88.12,1.78.2,2.65.37a3.75,3.75,0,0,1,2.07,1,2.16,2.16,0,0,1,.08,2.79,2.72,2.72,0,0,1-1.66.82,13.49,13.49,0,0,1-3.7-.09C917.53,235.58,917.54,235.49,917.55,235.38Zm5.8,7.2a2.63,2.63,0,0,1-1.57.89,8.91,8.91,0,0,1-2.91.16c-.72-.06-1.44-.15-2.2-.24l0-.25c.18-1.62.36-3.24.53-4.86,0-.21.08-.26.3-.24,1,.13,1.92.23,2.88.38a5.56,5.56,0,0,1,2.5,1A2.23,2.23,0,0,1,923.35,242.58Z"/>
      </g>
      <g>
        <path class="cls-8" d="M1033.93,215.19l-7.54,19.41-8.57,2.05-4.72,1.12-3.36.81-2.91.69-20.42,4.87,16-41.19a4.4,4.4,0,0,1,5.67-2.5l23.36,9.07A4.38,4.38,0,0,1,1033.93,215.19Z"/>
        <path class="cls-2" d="M1019.05,220.91a9.79,9.79,0,0,0-2.68-1.89c-.36-.19-.36-.19-.22-.55.42-1.05.82-2.12,1.23-3.18a1.58,1.58,0,0,1,.11-.23l-2.3-.89c-.47,1.2-.93,2.4-1.4,3.59,0,0,0,0-.06.07l-.43-.17-1.2-.44c-.14-.05-.16-.11-.1-.25l1.36-3.51-2.3-.88c-.48,1.24-1,2.47-1.45,3.75l-4.58-1.79c-.33.83-.63,1.63-1,2.44l.7.27,1.12.46a1.24,1.24,0,0,1,.67,1.67q-1.92,5-3.83,9.88a.91.91,0,0,1-1.33.6l-1.4-.56c-.1,0-.17-.07-.23.06-.47.78-.94,1.58-1.42,2.37,0,0,0,0,0,.07l4.56,1.77-1.48,3.83,2.3.9c.45-1.2.92-2.39,1.38-3.58,0-.07,0-.19.19-.15.56.23,1.12.44,1.71.67l-1.18,3,2.91-.69c0-.12.09-.25.14-.37.12-.3.24-.61.34-.91s.14-.2.31-.16c.84.23,1.69.47,2.54.63h0l4.72-1.12a5.46,5.46,0,0,0,.66-.77,6.57,6.57,0,0,0,1.24-3,3.49,3.49,0,0,0-1-2.89,9.65,9.65,0,0,0-1-.91s-.05,0-.09-.1a1.67,1.67,0,0,1,.29,0,3.56,3.56,0,0,0,2.77-2.11,5,5,0,0,0,.53-2.19A3.76,3.76,0,0,0,1019.05,220.91Zm-6.08,11.8a2.64,2.64,0,0,1-1.75.45,9,9,0,0,1-2.85-.6c-.68-.24-1.35-.52-2.06-.8,0-.09.06-.16.09-.23.59-1.52,1.19-3,1.77-4.56.07-.2.14-.23.35-.16.9.38,1.8.72,2.69,1.12a5.58,5.58,0,0,1,2.16,1.6A2.25,2.25,0,0,1,1013,232.71Zm1.7-7.53a2.71,2.71,0,0,1-1.81.36,13.29,13.29,0,0,1-3.55-1c-.15-.06-.12-.15-.08-.25.27-.71.55-1.42.82-2.12l.81-2.08c0-.14.1-.21.26-.14.81.34,1.66.65,2.46,1a3.81,3.81,0,0,1,1.74,1.51A2.17,2.17,0,0,1,1014.67,225.18Z"/>
      </g>
    </g>
    <path class="cls-9" d="M491.24,187c-5.57-12.1-3.81-16.86,8.3-22.44-12.11,5.58-16.87,3.82-22.44-8.29,5.57,12.11,3.81,16.87-8.3,22.44C480.91,173.15,485.67,174.91,491.24,187Z"/>
    <path class="cls-9" d="M128.75,102.09c7.57-8.55,11.92-8.81,20.47-1.24-8.55-7.57-8.82-11.92-1.24-20.47-7.58,8.55-11.92,8.82-20.47,1.24C136.06,89.2,136.32,93.54,128.75,102.09Z"/>
    <path class="cls-9" d="M97.44,363.08c-2-18.94-7.63-23.5-26.57-21.5,18.94-2,23.5-7.64,21.5-26.57,2,18.93,7.63,23.49,26.57,21.5C100,338.5,95.44,344.14,97.44,363.08Z"/>
    <path class="cls-9" d="M1025.9,112.74c6.23-18,3.07-24.52-14.92-30.76,18,6.24,24.51,3.08,30.75-14.91-6.24,18-3.07,24.51,14.92,30.75C1038.66,91.58,1032.13,94.75,1025.9,112.74Z"/>
    <path class="cls-9" d="M1180,462.84c0-16.19,4.36-20.55,20.54-20.55-16.18,0-20.54-4.35-20.54-20.54,0,16.19-4.36,20.54-20.55,20.54C1175.64,442.29,1180,446.65,1180,462.84Z"/>
    <path class="cls-9" d="M1327.38,138.7c-2.74-13,0-17.29,13.07-20-13,2.75-17.29,0-20-13.07,2.75,13,0,17.3-13.07,20C1320.38,122.89,1324.64,125.66,1327.38,138.7Z"/>
    <g>
      <g>
        <g>
          <path class="cls-2" d="M586.49,826.17v-1.34a7.5,7.5,0,0,1,7.5-7.5h3.66L582,769l-1.84-.33-10.83-2.34-.33-2L572.82,750s-3.33-28.83,12.33-46.67c9.67-12.33,13.67-14.5,13.67-14.5L589,672.67l-13.5,8.83,9.66-13.5-17.5-28.67,34.84-22.66,17.16,29.5,14.67-2.34-9.5,7L636,669.17a41.72,41.72,0,0,1,4.66,7.33c2.17,4.33,1.5,12-5.5,16.5s-1.5,2-1.5,2l34.5,41h5.34v-5.17s-2.67-3.33-1.34-6.33,7.67-5.33,9.67-3.33,1.83,8.16-1.5,11.16c-1.5,2.17-1.5,3.17-1.5,3.17L665,799.33l-1.84-.66L670.49,748l-6.17-7-13.83-4s5.5,18-.17,30.5a13.15,13.15,0,0,1-2.5,1.83l-11,46.84,6,2.16,3,6.84.17,1Z"/>
          <g>
            <polygon class="cls-10" points="621.17 793.52 625.02 798.7 621.26 816.04 616.2 816.04 621.17 793.52"/>
            <polygon class="cls-10" points="588.39 769.02 583.42 769.02 597.66 816.37 602.63 816.37 588.39 769.02"/>
            <polyline class="cls-4" points="634.91 696.02 668.29 735.6 664.46 740.89 651.96 736.77"/>
            <path class="cls-4" d="M584.2,768.69H651c2.83-16.64,2.52-27.09-2.82-45.49"/>
            <path class="cls-4" d="M573.51,750c3.22-.71,6.94,1,7,1.77.42,3.48,1.32,14.15,1.32,14.15s.22,2.65-1.42,2.76"/>
            <path class="cls-4" d="M597.16,689.73c-10.66,11.5-27.49,28.25-24.26,60.45"/>
            <line class="cls-4" x1="581.87" y1="769.35" x2="597.16" y2="815.87"/>
            <line class="cls-4" x1="648.15" y1="769.35" x2="637.22" y2="815.54"/>
            <line class="cls-4" x1="621" y1="791.7" x2="616.53" y2="815.21"/>
            <path class="cls-4" d="M646.49,826.3a9.84,9.84,0,0,0-9.77-9.93H596.34a9.84,9.84,0,0,0-9.77,9.93Z"/>
            <line class="cls-4" x1="616.04" y1="816.53" x2="616.04" y2="826.3"/>
            <polyline class="cls-4" points="664.46 740.89 670.73 748.99 671.53 743.02"/>
            <polyline class="cls-4" points="668.29 735.59 675.88 737.3 675.19 741.22 671.37 743.02"/>
            <path class="cls-4" d="M671.05,747l-8.27,52.66,2.23-.16,14.47-67c.16-2.87-4.77-3.66-5.57-1.59l-.71,4.93"/>
            <path class="cls-4" d="M680.11,732.28a6.21,6.21,0,1,0-6.68-1.49"/>
            <polyline class="cls-4" points="580.54 751.77 586.9 735.55 601.53 723.46"/>
            <path class="cls-4" d="M580.44,768.69,570.3,767a2.05,2.05,0,0,1-1.68-2.67l4.26-14.19"/>
            <g>
              <path class="cls-4" d="M640,674.93a12.65,12.65,0,0,1-3.78,17.47l-14.46,9.31a12.64,12.64,0,0,1-17.47-3.78L591,677.28a12.64,12.64,0,0,1,3.78-17.47l14.46-9.31a12.63,12.63,0,0,1,17.46,3.78Z"/>
              <polygon class="cls-2" points="638.54 641.99 574.2 682.88 585.57 668.6 620.78 646.22 638.54 641.99"/>
              <g>
                <path class="cls-4" d="M633.09,680.06c1.56,2.72,1.09,5.92-1,7.14s-5.13,0-6.69-2.72-1.08-5.91,1-7.13S631.54,677.34,633.09,680.06Z"/>
                <path class="cls-11" d="M612.29,686.67c4.21-2,.49-10.94,13.51-10,6-11.2,10-5.49,15.14-7.36-2.07,6.15-5.55,10-10,9.18s-5.34,2.61-6.15,4.5C623.84,685.12,618.8,688.53,612.29,686.67Z"/>
                <polygon class="cls-4" points="638.54 641.99 574.2 682.88 585.57 668.6 620.78 646.22 638.54 641.99"/>
                <polygon class="cls-12" points="596.64 661.34 585.78 668.32 567.27 639.28 578.12 632.3 596.64 661.34"/>
                <polygon class="cls-4" points="620.68 646.01 585.78 668.32 567.27 639.28 602.17 616.98 620.68 646.01"/>
                <rect class="cls-8" x="579.25" y="645.94" width="41.42" height="12.2" transform="translate(-256.55 425.11) rotate(-32.54)"/>
              </g>
              <path class="cls-4" d="M605.4,699c3.13-1.09,6.8-4.64,0-20.84"/>
              <path class="cls-11" d="M617.07,670.58a7,7,0,1,0-4.31,8.9A7,7,0,0,0,617.07,670.58Z"/>
              <path class="cls-4" d="M626.4,662.07a2.94,2.94,0,1,1-4.22-1.23A3.11,3.11,0,0,1,626.4,662.07Z"/>
              <path class="cls-4" d="M613.87,670a2.94,2.94,0,1,1-4.24-1.17A3.12,3.12,0,0,1,613.87,670Z"/>
            </g>
            <g>
              <polygon class="cls-8" points="621.87 713.56 610.25 718.05 609.76 708.99 621.78 712.03 621.87 713.56"/>
              <polygon class="cls-8" points="625.15 713.43 636.82 715.08 635.21 706.15 624.88 711.92 625.15 713.43"/>
              <path class="cls-8" d="M626.37,712.53a3.7,3.7,0,1,0-3.21,4.11A3.66,3.66,0,0,0,626.37,712.53Z"/>
            </g>
          </g>
        </g>
        <path class="cls-2" d="M778.4,827V814.5l-5.5-74-3.56,12.29a3.62,3.62,0,0,1-5.61,1.92l-7.35-5.36a3.9,3.9,0,0,1-.8-5.52L763.9,733l6.5-68.75L776.9,654l-20.66-34.68a19.27,19.27,0,0,1,4.92-25.23l13-9.84,17.25-7L820.9,599l3.5,41.5,8.5,15.25,8,32.75,17.5,28.75,10.83,5.49A4.37,4.37,0,0,1,870,730l-8.14,6.75-11-12-16.5-10.5v12l-1.5.5-10.75,87a9.76,9.76,0,0,1,9.72,10.7l-.22,2.3Z"/>
        <g>
          <g>
            <path class="cls-1" d="M812.47,640.26l-3.77-3,4.57-2.53a13.66,13.66,0,0,0,5.81-17.62l-4-8.73.72-.29a.67.67,0,0,0,.36-.89l-6.33-13.81a1.42,1.42,0,0,0-2.06-.6l-.56.35-1.59-2.68a14.12,14.12,0,0,0-17.94-5.67c-1.81.81-3.87,1.74-6.2,2.81a46.31,46.31,0,0,1,8-9.09c16.72-3.85,29.67,15.56,36.66,29.51a31.54,31.54,0,0,1,1.36,25.09l-2.1,5.65c-1.87-3-8.24-3.39-12.33.38a3.27,3.27,0,0,0-.63,1.11l-3.87-3.09"/>
            <path class="cls-4" d="M789.51,578.53c-22,18.2-16.48,48.94,9,69.63l13.92-.91,6.8-1,6.85-8"/>
            <line class="cls-4" x1="808.35" y1="647.51" x2="812.47" y2="670.88"/>
            <line class="cls-4" x1="817.44" y1="647.51" x2="821.56" y2="665.88"/>
            <path class="cls-4" d="M776.88,732.06h0a38.63,38.63,0,0,0,33.6,2.77l19.87-7.68a5.82,5.82,0,0,0,3.72-5.36c.14-11.26.15-43.79-3.8-59.78"/>
            <path class="cls-4" d="M780.37,648.77c-5.63,6.78-10,13.33-10.31,22.87"/>
            <path class="cls-4" d="M826,637.32l1.73-4.71a29.82,29.82,0,0,0-1.19-23.39c-16.75-34.28-32.17-32.15-37.06-30.69-15.49,4.59-36.47,18-35.93,30.1.27,5.29,2.48,11.11,5.55,16.77,6.25,11.51,12.52,23.43,16.7,27.8"/>
            <path class="cls-6" d="M806.56,591.87l.66,1.29,7.87,15.24,3.51,6.78a15.1,15.1,0,0,1-6.48,20.35l-11.39,5.89a15,15,0,0,1-7.92,1.65,62.46,62.46,0,0,1-12.57-17.47,45,45,0,0,1-4.41-17A35.23,35.23,0,0,1,781.08,588l5.14-2.65A15.11,15.11,0,0,1,806.56,591.87Z"/>
            <path class="cls-9" d="M810.07,594.42l2.75,5.6,1.19,2.41h0l1.54,3.14a2.35,2.35,0,0,1-.45,2.83,2,2,0,0,1-.42.27L780.24,625.6a44.85,44.85,0,0,1-4.41-17l31.26-15.36.14-.06A2.29,2.29,0,0,1,810.07,594.42Z"/>
            <g>
              <path class="cls-13" d="M816.87,612.79a.41.41,0,0,1-.57.6.41.41,0,1,1,.57-.6Z"/>
              <path class="cls-13" d="M816.87,612.79a.41.41,0,0,1-.57.6.41.41,0,1,1,.57-.6Z"/>
              <path class="cls-13" d="M813.62,612.22a.41.41,0,0,1-.57.6.41.41,0,1,1,.57-.6Z"/>
              <path class="cls-13" d="M816.87,612.79a.41.41,0,0,1-.57.6.41.41,0,1,1,.57-.6Z"/>
              <path class="cls-13" d="M815.61,614.12a.41.41,0,1,1-.59,0A.41.41,0,0,1,815.61,614.12Z"/>
              <path class="cls-13" d="M815.25,612.51a.42.42,0,0,1-.58.6.42.42,0,0,1,0-.59A.41.41,0,0,1,815.25,612.51Z"/>
              <path class="cls-13" d="M813.62,612.22a.41.41,0,0,1-.57.6.41.41,0,1,1,.57-.6Z"/>
              <path class="cls-13" d="M817.6,616a.42.42,0,0,1-.58.6.42.42,0,1,1,.58-.6Z"/>
              <path class="cls-13" d="M817.23,614.4a.41.41,0,0,1,0,.59.42.42,0,0,1-.59,0,.41.41,0,0,1,.57-.6Z"/>
              <path class="cls-13" d="M816.87,612.79a.41.41,0,0,1-.57.6.41.41,0,1,1,.57-.6Z"/>
              <path class="cls-13" d="M815.61,614.12a.41.41,0,1,1-.59,0A.41.41,0,0,1,815.61,614.12Z"/>
              <path class="cls-13" d="M817.6,616a.42.42,0,0,1-.58.6.42.42,0,1,1,.58-.6Z"/>
              <path class="cls-13" d="M813.62,612.22a.41.41,0,0,1-.57.6.41.41,0,1,1,.57-.6Z"/>
              <path class="cls-13" d="M812.36,613.55a.41.41,0,0,1,0,.58.4.4,0,0,1-.58,0,.41.41,0,1,1,.57-.6Z"/>
              <path class="cls-13" d="M815.61,614.12a.41.41,0,1,1-.59,0A.41.41,0,0,1,815.61,614.12Z"/>
              <path class="cls-13" d="M814.35,615.44a.42.42,0,0,1,0,.59.42.42,0,0,1-.6-.58A.42.42,0,0,1,814.35,615.44Z"/>
              <path class="cls-13" d="M814,613.83a.41.41,0,1,1-.57.6.41.41,0,0,1,.57-.6Z"/>
              <path class="cls-13" d="M813.62,612.22a.41.41,0,0,1-.57.6.41.41,0,1,1,.57-.6Z"/>
              <path class="cls-13" d="M812.36,613.55a.41.41,0,0,1,0,.58.4.4,0,0,1-.58,0,.41.41,0,1,1,.57-.6Z"/>
              <path class="cls-13" d="M817.6,616a.42.42,0,0,1-.58.6.42.42,0,1,1,.58-.6Z"/>
              <path class="cls-13" d="M816.33,617.33a.41.41,0,0,1,0,.59.42.42,0,0,1-.59,0,.41.41,0,0,1,0-.58A.4.4,0,0,1,816.33,617.33Z"/>
              <path class="cls-13" d="M816,615.72a.41.41,0,0,1,0,.59.4.4,0,0,1-.58,0,.41.41,0,0,1,0-.58A.42.42,0,0,1,816,615.72Z"/>
              <path class="cls-13" d="M815.61,614.12a.41.41,0,1,1-.59,0A.41.41,0,0,1,815.61,614.12Z"/>
              <path class="cls-13" d="M814.35,615.44a.42.42,0,0,1,0,.59.42.42,0,0,1-.6-.58A.42.42,0,0,1,814.35,615.44Z"/>
              <path class="cls-13" d="M818.32,619.23a.41.41,0,0,1-.57.6.42.42,0,0,1,0-.59A.41.41,0,0,1,818.32,619.23Z"/>
              <path class="cls-13" d="M818,617.62a.41.41,0,0,1,0,.58.4.4,0,0,1-.58,0,.41.41,0,0,1,0-.59A.42.42,0,0,1,818,617.62Z"/>
              <path class="cls-13" d="M817.6,616a.42.42,0,0,1-.58.6.42.42,0,1,1,.58-.6Z"/>
              <path class="cls-13" d="M816.33,617.33a.41.41,0,0,1,0,.59.42.42,0,0,1-.59,0,.41.41,0,0,1,0-.58A.4.4,0,0,1,816.33,617.33Z"/>
              <path class="cls-13" d="M818.32,619.23a.41.41,0,0,1-.57.6.42.42,0,0,1,0-.59A.41.41,0,0,1,818.32,619.23Z"/>
              <path class="cls-13" d="M812.36,613.55a.41.41,0,0,1,0,.58.4.4,0,0,1-.58,0,.41.41,0,1,1,.57-.6Z"/>
              <path class="cls-13" d="M811.1,614.87a.42.42,0,1,1-.59,0A.42.42,0,0,1,811.1,614.87Z"/>
              <path class="cls-13" d="M814.35,615.44a.42.42,0,0,1,0,.59.42.42,0,0,1-.6-.58A.42.42,0,0,1,814.35,615.44Z"/>
              <path class="cls-13" d="M813.08,616.77a.4.4,0,0,1,0,.58.41.41,0,1,1-.6-.57A.4.4,0,0,1,813.08,616.77Z"/>
              <path class="cls-13" d="M812.72,615.16a.41.41,0,0,1,0,.58.42.42,0,1,1-.61-.57A.41.41,0,0,1,812.72,615.16Z"/>
              <path class="cls-13" d="M812.36,613.55a.41.41,0,0,1,0,.58.4.4,0,0,1-.58,0,.41.41,0,1,1,.57-.6Z"/>
              <path class="cls-13" d="M811.1,614.87a.42.42,0,1,1-.59,0A.42.42,0,0,1,811.1,614.87Z"/>
              <path class="cls-13" d="M816.33,617.33a.41.41,0,0,1,0,.59.42.42,0,0,1-.59,0,.41.41,0,0,1,0-.58A.4.4,0,0,1,816.33,617.33Z"/>
              <path class="cls-13" d="M815.07,618.66a.41.41,0,1,1-.58,0A.41.41,0,0,1,815.07,618.66Z"/>
              <path class="cls-13" d="M814.71,617.05a.41.41,0,0,1,0,.58.4.4,0,0,1-.58,0,.41.41,0,1,1,.57-.6Z"/>
              <path class="cls-13" d="M814.35,615.44a.42.42,0,0,1,0,.59.42.42,0,0,1-.6-.58A.42.42,0,0,1,814.35,615.44Z"/>
              <path class="cls-13" d="M813.08,616.77a.4.4,0,0,1,0,.58.41.41,0,1,1-.6-.57A.4.4,0,0,1,813.08,616.77Z"/>
              <path class="cls-13" d="M818.32,619.23a.41.41,0,0,1-.57.6.42.42,0,0,1,0-.59A.41.41,0,0,1,818.32,619.23Z"/>
              <path class="cls-13" d="M817.06,620.55a.41.41,0,1,1-.59,0A.42.42,0,0,1,817.06,620.55Z"/>
              <path class="cls-13" d="M816.7,618.94a.42.42,0,0,1-.58.6.42.42,0,0,1,.58-.6Z"/>
              <path class="cls-13" d="M816.33,617.33a.41.41,0,0,1,0,.59.42.42,0,0,1-.59,0,.41.41,0,0,1,0-.58A.4.4,0,0,1,816.33,617.33Z"/>
              <path class="cls-13" d="M815.07,618.66a.41.41,0,1,1-.58,0A.41.41,0,0,1,815.07,618.66Z"/>
              <path class="cls-13" d="M819.05,622.44a.42.42,0,1,1-.59,0A.42.42,0,0,1,819.05,622.44Z"/>
              <path class="cls-13" d="M818.68,620.84a.4.4,0,0,1,0,.58.41.41,0,1,1-.6-.57A.4.4,0,0,1,818.68,620.84Z"/>
              <path class="cls-13" d="M818.32,619.23a.41.41,0,0,1-.57.6.42.42,0,0,1,0-.59A.41.41,0,0,1,818.32,619.23Z"/>
              <path class="cls-13" d="M817.06,620.55a.41.41,0,1,1-.59,0A.42.42,0,0,1,817.06,620.55Z"/>
              <path class="cls-13" d="M819.05,622.44a.42.42,0,1,1-.59,0A.42.42,0,0,1,819.05,622.44Z"/>
              <path class="cls-13" d="M811.1,614.87a.42.42,0,1,1-.59,0A.42.42,0,0,1,811.1,614.87Z"/>
              <path class="cls-13" d="M809.83,616.2a.4.4,0,0,1,0,.58.41.41,0,0,1-.59,0,.42.42,0,0,1,0-.59A.4.4,0,0,1,809.83,616.2Z"/>
              <path class="cls-13" d="M813.08,616.77a.4.4,0,0,1,0,.58.41.41,0,1,1-.6-.57A.4.4,0,0,1,813.08,616.77Z"/>
              <path class="cls-13" d="M811.82,618.09a.41.41,0,1,1-.58,0A.41.41,0,0,1,811.82,618.09Z"/>
              <path class="cls-13" d="M811.46,616.48a.42.42,0,0,1,0,.59.41.41,0,0,1-.58,0,.4.4,0,0,1,0-.58A.41.41,0,0,1,811.46,616.48Z"/>
              <path class="cls-13" d="M811.1,614.87a.42.42,0,1,1-.59,0A.42.42,0,0,1,811.1,614.87Z"/>
              <path class="cls-13" d="M809.83,616.2a.4.4,0,0,1,0,.58.41.41,0,0,1-.59,0,.42.42,0,0,1,0-.59A.4.4,0,0,1,809.83,616.2Z"/>
              <path class="cls-13" d="M815.07,618.66a.41.41,0,1,1-.58,0A.41.41,0,0,1,815.07,618.66Z"/>
              <path class="cls-13" d="M813.81,620a.42.42,0,0,1-.57.61.42.42,0,0,1,.57-.61Z"/>
              <path class="cls-13" d="M813.45,618.38a.41.41,0,1,1-.59,0A.41.41,0,0,1,813.45,618.38Z"/>
              <path class="cls-13" d="M813.08,616.77a.4.4,0,0,1,0,.58.41.41,0,1,1-.6-.57A.4.4,0,0,1,813.08,616.77Z"/>
              <path class="cls-13" d="M811.82,618.09a.41.41,0,1,1-.58,0A.41.41,0,0,1,811.82,618.09Z"/>
              <path class="cls-13" d="M817.06,620.55a.41.41,0,1,1-.59,0A.42.42,0,0,1,817.06,620.55Z"/>
              <path class="cls-13" d="M815.8,621.88a.42.42,0,0,1-.58.6.42.42,0,0,1,0-.59A.41.41,0,0,1,815.8,621.88Z"/>
              <path class="cls-13" d="M815.43,620.27a.4.4,0,0,1,0,.58.41.41,0,0,1-.59,0,.42.42,0,0,1,0-.59A.41.41,0,0,1,815.43,620.27Z"/>
              <path class="cls-13" d="M815.07,618.66a.41.41,0,1,1-.58,0A.41.41,0,0,1,815.07,618.66Z"/>
              <path class="cls-13" d="M813.81,620a.42.42,0,0,1-.57.61.42.42,0,0,1,.57-.61Z"/>
              <path class="cls-13" d="M819.05,622.44a.42.42,0,1,1-.59,0A.42.42,0,0,1,819.05,622.44Z"/>
              <path class="cls-13" d="M817.78,623.77a.41.41,0,0,1,0,.59.42.42,0,0,1-.59,0,.41.41,0,0,1,.57-.6Z"/>
              <path class="cls-13" d="M817.42,622.16a.41.41,0,0,1-.57.6.42.42,0,0,1,0-.59A.43.43,0,0,1,817.42,622.16Z"/>
              <path class="cls-13" d="M817.06,620.55a.41.41,0,1,1-.59,0A.42.42,0,0,1,817.06,620.55Z"/>
              <path class="cls-13" d="M815.8,621.88a.42.42,0,0,1-.58.6.42.42,0,0,1,0-.59A.41.41,0,0,1,815.8,621.88Z"/>
              <path class="cls-13" d="M819.41,624.06a.41.41,0,0,1,0,.58.4.4,0,0,1-.58,0,.41.41,0,1,1,.57-.59Z"/>
              <path class="cls-13" d="M819.05,622.44a.42.42,0,1,1-.59,0A.42.42,0,0,1,819.05,622.44Z"/>
              <path class="cls-13" d="M817.78,623.77a.41.41,0,0,1,0,.59.42.42,0,0,1-.59,0,.41.41,0,0,1,.57-.6Z"/>
              <path class="cls-13" d="M809.83,616.2a.4.4,0,0,1,0,.58.41.41,0,0,1-.59,0,.42.42,0,0,1,0-.59A.4.4,0,0,1,809.83,616.2Z"/>
              <path class="cls-13" d="M808.57,617.52a.41.41,0,1,1-.57.6.43.43,0,0,1,0-.59A.42.42,0,0,1,808.57,617.52Z"/>
              <path class="cls-13" d="M811.82,618.09a.41.41,0,1,1-.58,0A.41.41,0,0,1,811.82,618.09Z"/>
              <path class="cls-13" d="M810.56,619.42a.41.41,0,0,1-.57.6.42.42,0,0,1,0-.59A.41.41,0,0,1,810.56,619.42Z"/>
              <path class="cls-13" d="M810.2,617.8a.42.42,0,1,1-.59,0A.42.42,0,0,1,810.2,617.8Z"/>
              <path class="cls-13" d="M809.83,616.2a.4.4,0,0,1,0,.58.41.41,0,0,1-.59,0,.42.42,0,0,1,0-.59A.4.4,0,0,1,809.83,616.2Z"/>
              <path class="cls-13" d="M808.57,617.52a.41.41,0,1,1-.57.6.43.43,0,0,1,0-.59A.42.42,0,0,1,808.57,617.52Z"/>
              <path class="cls-13" d="M813.81,620a.42.42,0,0,1-.57.61.42.42,0,0,1,.57-.61Z"/>
              <path class="cls-13" d="M812.55,621.31a.41.41,0,0,1,0,.58.4.4,0,0,1-.58,0,.41.41,0,0,1,0-.59A.42.42,0,0,1,812.55,621.31Z"/>
              <path class="cls-13" d="M812.18,619.7a.41.41,0,0,1,0,.59.42.42,0,1,1-.6-.58A.41.41,0,0,1,812.18,619.7Z"/>
              <path class="cls-13" d="M811.82,618.09a.41.41,0,1,1-.58,0A.41.41,0,0,1,811.82,618.09Z"/>
              <path class="cls-13" d="M810.56,619.42a.41.41,0,0,1-.57.6.42.42,0,0,1,0-.59A.41.41,0,0,1,810.56,619.42Z"/>
              <path class="cls-13" d="M815.8,621.88a.42.42,0,0,1-.58.6.42.42,0,0,1,0-.59A.41.41,0,0,1,815.8,621.88Z"/>
              <path class="cls-13" d="M814.53,623.2a.41.41,0,0,1,0,.59.42.42,0,0,1-.6-.58A.41.41,0,0,1,814.53,623.2Z"/>
              <path class="cls-13" d="M813.81,620a.42.42,0,0,1-.57.61.42.42,0,0,1,.57-.61Z"/>
              <path class="cls-13" d="M812.55,621.31a.41.41,0,0,1,0,.58.4.4,0,0,1-.58,0,.41.41,0,0,1,0-.59A.42.42,0,0,1,812.55,621.31Z"/>
              <path class="cls-13" d="M817.78,623.77a.41.41,0,0,1,0,.59.42.42,0,0,1-.59,0,.41.41,0,0,1,.57-.6Z"/>
              <path class="cls-13" d="M816.52,625.09a.41.41,0,1,1-.57.6.41.41,0,1,1,.57-.6Z"/>
              <path class="cls-13" d="M816.16,623.49a.41.41,0,1,1-.59,0A.41.41,0,0,1,816.16,623.49Z"/>
              <path class="cls-13" d="M815.8,621.88a.42.42,0,0,1-.58.6.42.42,0,0,1,0-.59A.41.41,0,0,1,815.8,621.88Z"/>
              <path class="cls-13" d="M814.53,623.2a.41.41,0,0,1,0,.59.42.42,0,0,1-.6-.58A.41.41,0,0,1,814.53,623.2Z"/>
              <path class="cls-13" d="M818.51,627a.41.41,0,0,1,0,.58.4.4,0,0,1-.58,0,.41.41,0,0,1,0-.59A.42.42,0,0,1,818.51,627Z"/>
              <path class="cls-13" d="M818.15,625.38a.42.42,0,0,1-.58.6.42.42,0,1,1,.58-.6Z"/>
              <path class="cls-13" d="M817.78,623.77a.41.41,0,0,1,0,.59.42.42,0,0,1-.59,0,.41.41,0,0,1,.57-.6Z"/>
              <path class="cls-13" d="M816.52,625.09a.41.41,0,1,1-.57.6.41.41,0,1,1,.57-.6Z"/>
              <path class="cls-13" d="M818.51,627a.41.41,0,0,1,0,.58.4.4,0,0,1-.58,0,.41.41,0,0,1,0-.59A.42.42,0,0,1,818.51,627Z"/>
              <path class="cls-13" d="M805.32,617a.42.42,0,0,1,0,.59.41.41,0,0,1-.59,0,.41.41,0,0,1,.57-.6Z"/>
              <path class="cls-13" d="M808.57,617.52a.41.41,0,1,1-.57.6.43.43,0,0,1,0-.59A.42.42,0,0,1,808.57,617.52Z"/>
              <path class="cls-13" d="M807.31,618.85a.41.41,0,0,1,0,.58.4.4,0,0,1-.58,0,.41.41,0,0,1,0-.59A.42.42,0,0,1,807.31,618.85Z"/>
              <path class="cls-13" d="M807,617.24a.42.42,0,0,1-.58.6.42.42,0,1,1,.58-.6Z"/>
              <path class="cls-13" d="M805.32,617a.42.42,0,0,1,0,.59.41.41,0,0,1-.59,0,.41.41,0,0,1,.57-.6Z"/>
              <path class="cls-13" d="M810.56,619.42a.41.41,0,0,1-.57.6.42.42,0,0,1,0-.59A.41.41,0,0,1,810.56,619.42Z"/>
              <path class="cls-13" d="M809.3,620.74a.41.41,0,0,1,0,.58.4.4,0,0,1-.58,0,.41.41,0,0,1,0-.59A.42.42,0,0,1,809.3,620.74Z"/>
              <path class="cls-13" d="M808.93,619.13a.41.41,0,0,1,0,.59.42.42,0,1,1-.6-.58A.41.41,0,0,1,808.93,619.13Z"/>
              <path class="cls-13" d="M808.57,617.52a.41.41,0,1,1-.57.6.43.43,0,0,1,0-.59A.42.42,0,0,1,808.57,617.52Z"/>
              <path class="cls-13" d="M807.31,618.85a.41.41,0,0,1,0,.58.4.4,0,0,1-.58,0,.41.41,0,0,1,0-.59A.42.42,0,0,1,807.31,618.85Z"/>
              <path class="cls-13" d="M812.55,621.31a.41.41,0,0,1,0,.58.4.4,0,0,1-.58,0,.41.41,0,0,1,0-.59A.42.42,0,0,1,812.55,621.31Z"/>
              <path class="cls-13" d="M811.29,622.64a.41.41,0,0,1,0,.58.42.42,0,0,1-.59,0,.41.41,0,0,1,0-.58A.41.41,0,0,1,811.29,622.64Z"/>
              <path class="cls-13" d="M810.92,621a.42.42,0,0,1-.57.61.42.42,0,0,1,.57-.61Z"/>
              <path class="cls-13" d="M810.56,619.42a.41.41,0,0,1-.57.6.42.42,0,0,1,0-.59A.41.41,0,0,1,810.56,619.42Z"/>
              <path class="cls-13" d="M809.3,620.74a.41.41,0,0,1,0,.58.4.4,0,0,1-.58,0,.41.41,0,0,1,0-.59A.42.42,0,0,1,809.3,620.74Z"/>
              <path class="cls-13" d="M814.53,623.2a.41.41,0,0,1,0,.59.42.42,0,0,1-.6-.58A.41.41,0,0,1,814.53,623.2Z"/>
              <path class="cls-13" d="M813.27,624.53a.41.41,0,1,1-.58,0A.4.4,0,0,1,813.27,624.53Z"/>
              <path class="cls-13" d="M812.55,621.31a.41.41,0,0,1,0,.58.4.4,0,0,1-.58,0,.41.41,0,0,1,0-.59A.42.42,0,0,1,812.55,621.31Z"/>
              <path class="cls-13" d="M811.29,622.64a.41.41,0,0,1,0,.58.42.42,0,0,1-.59,0,.41.41,0,0,1,0-.58A.41.41,0,0,1,811.29,622.64Z"/>
              <path class="cls-13" d="M816.52,625.09a.41.41,0,1,1-.57.6.41.41,0,1,1,.57-.6Z"/>
              <path class="cls-13" d="M815.26,626.42a.41.41,0,0,1-.57.6.41.41,0,1,1,.57-.6Z"/>
              <path class="cls-13" d="M814.9,624.81a.42.42,0,1,1-.58.6.42.42,0,0,1,.58-.6Z"/>
              <path class="cls-13" d="M814.53,623.2a.41.41,0,0,1,0,.59.42.42,0,0,1-.6-.58A.41.41,0,0,1,814.53,623.2Z"/>
              <path class="cls-13" d="M813.27,624.53a.41.41,0,1,1-.58,0A.4.4,0,0,1,813.27,624.53Z"/>
              <path class="cls-13" d="M818.51,627a.41.41,0,0,1,0,.58.4.4,0,0,1-.58,0,.41.41,0,0,1,0-.59A.42.42,0,0,1,818.51,627Z"/>
              <path class="cls-13" d="M817.25,628.31a.42.42,0,0,1-.58.6.42.42,0,0,1,.58-.6Z"/>
              <path class="cls-13" d="M816.88,626.7a.41.41,0,1,1-.58,0A.41.41,0,0,1,816.88,626.7Z"/>
              <path class="cls-13" d="M816.52,625.09a.41.41,0,1,1-.57.6.41.41,0,1,1,.57-.6Z"/>
              <path class="cls-13" d="M815.26,626.42a.41.41,0,0,1-.57.6.41.41,0,1,1,.57-.6Z"/>
              <path class="cls-13" d="M818.51,627a.41.41,0,0,1,0,.58.4.4,0,0,1-.58,0,.41.41,0,0,1,0-.59A.42.42,0,0,1,818.51,627Z"/>
              <path class="cls-13" d="M817.25,628.31a.42.42,0,0,1-.58.6.42.42,0,0,1,.58-.6Z"/>
              <path class="cls-13" d="M805.32,617a.42.42,0,0,1,0,.59.41.41,0,0,1-.59,0,.41.41,0,0,1,.57-.6Z"/>
              <path class="cls-13" d="M804.06,618.28a.41.41,0,0,1-.57.6.41.41,0,1,1,.57-.6Z"/>
              <path class="cls-13" d="M807.31,618.85a.41.41,0,0,1,0,.58.4.4,0,0,1-.58,0,.41.41,0,0,1,0-.59A.42.42,0,0,1,807.31,618.85Z"/>
              <path class="cls-13" d="M806.05,620.17a.42.42,0,0,1,0,.59.41.41,0,0,1-.58,0,.4.4,0,0,1,0-.58A.41.41,0,0,1,806.05,620.17Z"/>
              <path class="cls-13" d="M805.69,618.56a.42.42,0,0,1-.58.6.42.42,0,0,1,.58-.6Z"/>
              <path class="cls-13" d="M805.32,617a.42.42,0,0,1,0,.59.41.41,0,0,1-.59,0,.41.41,0,0,1,.57-.6Z"/>
              <path class="cls-13" d="M804.06,618.28a.41.41,0,0,1-.57.6.41.41,0,1,1,.57-.6Z"/>
              <path class="cls-13" d="M809.3,620.74a.41.41,0,0,1,0,.58.4.4,0,0,1-.58,0,.41.41,0,0,1,0-.59A.42.42,0,0,1,809.3,620.74Z"/>
              <path class="cls-13" d="M808,622.07a.41.41,0,0,1,0,.58.41.41,0,1,1-.6-.57A.41.41,0,0,1,808,622.07Z"/>
              <path class="cls-13" d="M807.67,620.46a.41.41,0,0,1,0,.58.42.42,0,1,1-.61-.57A.41.41,0,0,1,807.67,620.46Z"/>
              <path class="cls-13" d="M807.31,618.85a.41.41,0,0,1,0,.58.4.4,0,0,1-.58,0,.41.41,0,0,1,0-.59A.42.42,0,0,1,807.31,618.85Z"/>
              <path class="cls-13" d="M806.05,620.17a.42.42,0,0,1,0,.59.41.41,0,0,1-.58,0,.4.4,0,0,1,0-.58A.41.41,0,0,1,806.05,620.17Z"/>
              <path class="cls-13" d="M811.29,622.64a.41.41,0,0,1,0,.58.42.42,0,0,1-.59,0,.41.41,0,0,1,0-.58A.41.41,0,0,1,811.29,622.64Z"/>
              <path class="cls-13" d="M809.66,622.35a.41.41,0,0,1-.57.6.41.41,0,1,1,.57-.6Z"/>
              <path class="cls-13" d="M809.3,620.74a.41.41,0,0,1,0,.58.4.4,0,0,1-.58,0,.41.41,0,0,1,0-.59A.42.42,0,0,1,809.3,620.74Z"/>
              <path class="cls-13" d="M808,622.07a.41.41,0,0,1,0,.58.41.41,0,1,1-.6-.57A.41.41,0,0,1,808,622.07Z"/>
              <path class="cls-13" d="M813.27,624.53a.41.41,0,1,1-.58,0A.4.4,0,0,1,813.27,624.53Z"/>
              <path class="cls-13" d="M812,625.85a.41.41,0,0,1-.57.6.4.4,0,0,1,0-.58A.41.41,0,0,1,812,625.85Z"/>
              <path class="cls-13" d="M811.29,622.64a.41.41,0,0,1,0,.58.42.42,0,0,1-.59,0,.41.41,0,0,1,0-.58A.41.41,0,0,1,811.29,622.64Z"/>
              <path class="cls-13" d="M815.26,626.42a.41.41,0,0,1-.57.6.41.41,0,1,1,.57-.6Z"/>
              <path class="cls-13" d="M814,627.74a.42.42,0,0,1,0,.59.41.41,0,0,1-.6-.57A.42.42,0,0,1,814,627.74Z"/>
              <path class="cls-13" d="M813.63,626.14a.4.4,0,0,1,0,.58.41.41,0,1,1-.6-.57A.4.4,0,0,1,813.63,626.14Z"/>
              <path class="cls-13" d="M813.27,624.53a.41.41,0,1,1-.58,0A.4.4,0,0,1,813.27,624.53Z"/>
              <path class="cls-13" d="M812,625.85a.41.41,0,0,1-.57.6.4.4,0,0,1,0-.58A.41.41,0,0,1,812,625.85Z"/>
              <path class="cls-13" d="M817.25,628.31a.42.42,0,0,1-.58.6.42.42,0,0,1,.58-.6Z"/>
              <path class="cls-13" d="M816,629.64a.42.42,0,0,1-.58.6.42.42,0,1,1,.58-.6Z"/>
              <path class="cls-13" d="M815.62,628a.41.41,0,1,1-.57.6.41.41,0,0,1,.57-.6Z"/>
              <path class="cls-13" d="M815.26,626.42a.41.41,0,0,1-.57.6.41.41,0,1,1,.57-.6Z"/>
              <path class="cls-13" d="M814,627.74a.42.42,0,0,1,0,.59.41.41,0,0,1-.6-.57A.42.42,0,0,1,814,627.74Z"/>
              <path class="cls-13" d="M817.25,628.31a.42.42,0,0,1-.58.6.42.42,0,0,1,.58-.6Z"/>
              <path class="cls-13" d="M816,629.64a.42.42,0,0,1-.58.6.42.42,0,1,1,.58-.6Z"/>
              <path class="cls-13" d="M804.06,618.28a.41.41,0,0,1-.57.6.41.41,0,1,1,.57-.6Z"/>
              <path class="cls-13" d="M802.8,619.6a.42.42,0,0,1,0,.59.41.41,0,0,1-.6-.57A.42.42,0,0,1,802.8,619.6Z"/>
              <path class="cls-13" d="M802.44,618a.42.42,0,1,1-.59,0A.42.42,0,0,1,802.44,618Z"/>
              <path class="cls-13" d="M806.05,620.17a.42.42,0,0,1,0,.59.41.41,0,0,1-.58,0,.4.4,0,0,1,0-.58A.41.41,0,0,1,806.05,620.17Z"/>
              <path class="cls-13" d="M804.79,621.5a.42.42,0,0,1-.58.6.42.42,0,0,1,0-.59A.41.41,0,0,1,804.79,621.5Z"/>
              <path class="cls-13" d="M804.42,619.89a.41.41,0,1,1-.57.6.41.41,0,1,1,.57-.6Z"/>
              <path class="cls-13" d="M804.06,618.28a.41.41,0,0,1-.57.6.41.41,0,1,1,.57-.6Z"/>
              <path class="cls-13" d="M802.8,619.6a.42.42,0,0,1,0,.59.41.41,0,0,1-.6-.57A.42.42,0,0,1,802.8,619.6Z"/>
              <path class="cls-13" d="M808,622.07a.41.41,0,0,1,0,.58.41.41,0,1,1-.6-.57A.41.41,0,0,1,808,622.07Z"/>
              <path class="cls-13" d="M806.77,623.39a.41.41,0,1,1-.58,0A.41.41,0,0,1,806.77,623.39Z"/>
              <path class="cls-13" d="M806.41,621.78a.41.41,0,1,1-.59,0A.41.41,0,0,1,806.41,621.78Z"/>
              <path class="cls-13" d="M806.05,620.17a.42.42,0,0,1,0,.59.41.41,0,0,1-.58,0,.4.4,0,0,1,0-.58A.41.41,0,0,1,806.05,620.17Z"/>
              <path class="cls-13" d="M804.79,621.5a.42.42,0,0,1-.58.6.42.42,0,0,1,0-.59A.41.41,0,0,1,804.79,621.5Z"/>
              <path class="cls-13" d="M808,622.07a.41.41,0,0,1,0,.58.41.41,0,1,1-.6-.57A.41.41,0,0,1,808,622.07Z"/>
              <path class="cls-13" d="M806.77,623.39a.41.41,0,1,1-.58,0A.41.41,0,0,1,806.77,623.39Z"/>
              <path class="cls-13" d="M812,625.85a.41.41,0,0,1-.57.6.4.4,0,0,1,0-.58A.41.41,0,0,1,812,625.85Z"/>
              <path class="cls-13" d="M810.75,627.18a.41.41,0,0,1,0,.58.4.4,0,0,1-.58,0,.41.41,0,0,1,0-.59A.42.42,0,0,1,810.75,627.18Z"/>
              <path class="cls-13" d="M814,627.74a.42.42,0,0,1,0,.59.41.41,0,0,1-.6-.57A.42.42,0,0,1,814,627.74Z"/>
              <path class="cls-13" d="M812.73,629.07a.41.41,0,0,1,0,.59.42.42,0,1,1-.6-.58A.41.41,0,0,1,812.73,629.07Z"/>
              <path class="cls-13" d="M812.37,627.46a.41.41,0,1,1-.57.6.41.41,0,0,1,.57-.6Z"/>
              <path class="cls-13" d="M812,625.85a.41.41,0,0,1-.57.6.4.4,0,0,1,0-.58A.41.41,0,0,1,812,625.85Z"/>
              <path class="cls-13" d="M810.75,627.18a.41.41,0,0,1,0,.58.4.4,0,0,1-.58,0,.41.41,0,0,1,0-.59A.42.42,0,0,1,810.75,627.18Z"/>
              <path class="cls-13" d="M816,629.64a.42.42,0,0,1-.58.6.42.42,0,1,1,.58-.6Z"/>
              <path class="cls-13" d="M814.72,631a.41.41,0,1,1-.57.6.41.41,0,0,1,.57-.6Z"/>
              <path class="cls-13" d="M814.36,629.35a.42.42,0,0,1-.57.61.42.42,0,0,1,.57-.61Z"/>
              <path class="cls-13" d="M814,627.74a.42.42,0,0,1,0,.59.41.41,0,0,1-.6-.57A.42.42,0,0,1,814,627.74Z"/>
              <path class="cls-13" d="M812.73,629.07a.41.41,0,0,1,0,.59.42.42,0,1,1-.6-.58A.41.41,0,0,1,812.73,629.07Z"/>
              <path class="cls-13" d="M816,629.64a.42.42,0,0,1-.58.6.42.42,0,1,1,.58-.6Z"/>
              <path class="cls-13" d="M814.72,631a.41.41,0,1,1-.57.6.41.41,0,0,1,.57-.6Z"/>
              <path class="cls-13" d="M799.55,619a.42.42,0,0,1,0,.59.41.41,0,1,1-.6-.57A.42.42,0,0,1,799.55,619Z"/>
              <path class="cls-13" d="M802.8,619.6a.42.42,0,0,1,0,.59.41.41,0,0,1-.6-.57A.42.42,0,0,1,802.8,619.6Z"/>
              <path class="cls-13" d="M801.53,620.93a.41.41,0,0,1,0,.59.42.42,0,0,1-.6-.58A.41.41,0,0,1,801.53,620.93Z"/>
              <path class="cls-13" d="M801.17,619.32a.41.41,0,1,1-.57.6.41.41,0,0,1,.57-.6Z"/>
              <path class="cls-13" d="M799.55,619a.42.42,0,0,1,0,.59.41.41,0,1,1-.6-.57A.42.42,0,0,1,799.55,619Z"/>
              <path class="cls-13" d="M804.79,621.5a.42.42,0,0,1-.58.6.42.42,0,0,1,0-.59A.41.41,0,0,1,804.79,621.5Z"/>
              <path class="cls-13" d="M803.52,622.82a.42.42,0,0,1,0,.59.42.42,0,1,1,0-.59Z"/>
              <path class="cls-13" d="M803.16,621.21a.41.41,0,0,1-.57.6.39.39,0,0,1,0-.58A.4.4,0,0,1,803.16,621.21Z"/>
              <path class="cls-13" d="M802.8,619.6a.42.42,0,0,1,0,.59.41.41,0,0,1-.6-.57A.42.42,0,0,1,802.8,619.6Z"/>
              <path class="cls-13" d="M801.53,620.93a.41.41,0,0,1,0,.59.42.42,0,0,1-.6-.58A.41.41,0,0,1,801.53,620.93Z"/>
              <path class="cls-13" d="M806.77,623.39a.41.41,0,1,1-.58,0A.41.41,0,0,1,806.77,623.39Z"/>
              <path class="cls-13" d="M805.15,623.1a.42.42,0,1,1-.59,0A.42.42,0,0,1,805.15,623.1Z"/>
              <path class="cls-13" d="M804.79,621.5a.42.42,0,0,1-.58.6.42.42,0,0,1,0-.59A.41.41,0,0,1,804.79,621.5Z"/>
              <path class="cls-13" d="M803.52,622.82a.42.42,0,0,1,0,.59.42.42,0,1,1,0-.59Z"/>
              <path class="cls-13" d="M806.77,623.39a.41.41,0,1,1-.58,0A.41.41,0,0,1,806.77,623.39Z"/>
              <path class="cls-13" d="M810.75,627.18a.41.41,0,0,1,0,.58.4.4,0,0,1-.58,0,.41.41,0,0,1,0-.59A.42.42,0,0,1,810.75,627.18Z"/>
              <path class="cls-13" d="M809.49,628.5a.42.42,0,0,1-.58.6.42.42,0,0,1,.58-.6Z"/>
              <path class="cls-13" d="M812.73,629.07a.41.41,0,0,1,0,.59.42.42,0,1,1-.6-.58A.41.41,0,0,1,812.73,629.07Z"/>
              <path class="cls-13" d="M811.47,630.4a.4.4,0,0,1,0,.58.41.41,0,0,1-.6-.57A.4.4,0,0,1,811.47,630.4Z"/>
              <path class="cls-13" d="M811.11,628.79a.4.4,0,0,1,0,.58.41.41,0,1,1,0-.58Z"/>
              <path class="cls-13" d="M810.75,627.18a.41.41,0,0,1,0,.58.4.4,0,0,1-.58,0,.41.41,0,0,1,0-.59A.42.42,0,0,1,810.75,627.18Z"/>
              <path class="cls-13" d="M809.49,628.5a.42.42,0,0,1-.58.6.42.42,0,0,1,.58-.6Z"/>
              <path class="cls-13" d="M814.72,631a.41.41,0,1,1-.57.6.41.41,0,0,1,.57-.6Z"/>
              <path class="cls-13" d="M813.46,632.29a.41.41,0,0,1,0,.58.4.4,0,0,1-.58,0,.41.41,0,1,1,.57-.6Z"/>
              <path class="cls-13" d="M813.1,630.68a.42.42,0,1,1-.59,0A.42.42,0,0,1,813.1,630.68Z"/>
              <path class="cls-13" d="M812.73,629.07a.41.41,0,0,1,0,.59.42.42,0,1,1-.6-.58A.41.41,0,0,1,812.73,629.07Z"/>
              <path class="cls-13" d="M811.47,630.4a.4.4,0,0,1,0,.58.41.41,0,0,1-.6-.57A.4.4,0,0,1,811.47,630.4Z"/>
              <path class="cls-13" d="M814.72,631a.41.41,0,1,1-.57.6.41.41,0,0,1,.57-.6Z"/>
              <path class="cls-13" d="M813.46,632.29a.41.41,0,0,1,0,.58.4.4,0,0,1-.58,0,.41.41,0,1,1,.57-.6Z"/>
              <path class="cls-13" d="M799.55,619a.42.42,0,0,1,0,.59.41.41,0,1,1-.6-.57A.42.42,0,0,1,799.55,619Z"/>
              <path class="cls-13" d="M798.28,620.36a.41.41,0,0,1,0,.59.42.42,0,0,1-.6-.58A.41.41,0,0,1,798.28,620.36Z"/>
              <path class="cls-13" d="M801.53,620.93a.41.41,0,0,1,0,.59.42.42,0,0,1-.6-.58A.41.41,0,0,1,801.53,620.93Z"/>
              <path class="cls-13" d="M800.27,622.25a.41.41,0,1,1-.57.6.41.41,0,0,1,.57-.6Z"/>
              <path class="cls-13" d="M799.91,620.64a.42.42,0,1,1-.59,0A.42.42,0,0,1,799.91,620.64Z"/>
              <path class="cls-13" d="M799.55,619a.42.42,0,0,1,0,.59.41.41,0,1,1-.6-.57A.42.42,0,0,1,799.55,619Z"/>
              <path class="cls-13" d="M798.28,620.36a.41.41,0,0,1,0,.59.42.42,0,0,1-.6-.58A.41.41,0,0,1,798.28,620.36Z"/>
              <path class="cls-13" d="M803.52,622.82a.42.42,0,0,1,0,.59.42.42,0,1,1,0-.59Z"/>
              <path class="cls-13" d="M801.9,622.54c.16.15-.41.76-.57.6a.41.41,0,1,1,.57-.6Z"/>
              <path class="cls-13" d="M801.53,620.93a.41.41,0,0,1,0,.59.42.42,0,0,1-.6-.58A.41.41,0,0,1,801.53,620.93Z"/>
              <path class="cls-13" d="M800.27,622.25a.41.41,0,1,1-.57.6.41.41,0,0,1,.57-.6Z"/>
              <path class="cls-13" d="M803.52,622.82a.42.42,0,0,1,0,.59.42.42,0,1,1,0-.59Z"/>
              <path class="cls-13" d="M803.88,624.43a.41.41,0,0,1,0,.59.42.42,0,0,1-.59,0,.41.41,0,0,1,0-.58A.4.4,0,0,1,803.88,624.43Z"/>
              <path class="cls-13" d="M805.51,624.72a.41.41,0,1,1-.59,0A.41.41,0,0,1,805.51,624.72Z"/>
              <path class="cls-13" d="M802.62,625.76a.41.41,0,0,1,0,.58.41.41,0,1,1-.6-.57A.4.4,0,0,1,802.62,625.76Z"/>
              <path class="cls-13" d="M802.26,624.15a.41.41,0,0,1-.57.6.42.42,0,0,1,0-.59A.41.41,0,0,1,802.26,624.15Z"/>
              <path class="cls-13" d="M804.25,626a.42.42,0,1,1-.59,0A.42.42,0,0,1,804.25,626Z"/>
              <path class="cls-13" d="M801.39,627.05a.41.41,0,1,1-.57.6.41.41,0,1,1,.57-.6Z"/>
              <path class="cls-13" d="M803,627.33a.42.42,0,1,1-.59,0A.42.42,0,0,1,803,627.33Z"/>
              <path class="cls-13" d="M801,625.47a.42.42,0,0,1,0,.59.41.41,0,0,1-.58,0,.4.4,0,0,1,0-.58A.41.41,0,0,1,801,625.47Z"/>
              <path class="cls-13" d="M810,624a.41.41,0,1,1-.57.6.42.42,0,0,1,0-.59A.41.41,0,0,1,810,624Z"/>
              <path class="cls-13" d="M811.65,624.25a.41.41,0,1,1-.57.59.4.4,0,0,1,0-.58A.41.41,0,0,1,811.65,624.25Z"/>
              <path class="cls-13" d="M812.91,622.92a.41.41,0,0,1-.57.6.41.41,0,1,1,.57-.6Z"/>
              <path class="cls-13" d="M814.17,621.59a.41.41,0,1,1-.57.6.41.41,0,0,1,.57-.6Z"/>
              <path class="cls-13" d="M808.4,623.67a.42.42,0,0,1,0,.59.41.41,0,0,1-.6-.57A.42.42,0,0,1,808.4,623.67Z"/>
              <path class="cls-13" d="M808.76,625.28a.41.41,0,0,1,0,.59.4.4,0,0,1-.58,0,.41.41,0,0,1,0-.58A.42.42,0,0,1,808.76,625.28Z"/>
              <path class="cls-13" d="M810.39,625.57a.42.42,0,1,1-.59,0A.42.42,0,0,1,810.39,625.57Z"/>
              <path class="cls-13" d="M807.5,626.61a.41.41,0,0,1,0,.59.42.42,0,1,1,0-.59Z"/>
              <path class="cls-13" d="M807.13,625a.41.41,0,0,1,0,.59.42.42,0,1,1-.6-.58A.41.41,0,0,1,807.13,625Z"/>
              <path class="cls-13" d="M809.12,626.89a.42.42,0,0,1,0,.59.43.43,0,0,1-.59,0,.42.42,0,0,1,0-.59A.41.41,0,0,1,809.12,626.89Z"/>
              <path class="cls-13" d="M805.87,626.32a.42.42,0,0,1,0,.59.41.41,0,1,1,0-.59Z"/>
              <path class="cls-13" d="M806.24,627.93a.42.42,0,0,1-.58.6.42.42,0,0,1,.58-.6Z"/>
              <path class="cls-13" d="M809.49,628.5a.42.42,0,0,1-.58.6.42.42,0,0,1,.58-.6Z"/>
              <path class="cls-13" d="M808.22,629.83a.41.41,0,1,1-.58,0A.4.4,0,0,1,808.22,629.83Z"/>
              <path class="cls-13" d="M807.86,628.22a.41.41,0,0,1-.57.6.42.42,0,0,1,0-.59A.41.41,0,0,1,807.86,628.22Z"/>
              <path class="cls-13" d="M806.24,627.93a.42.42,0,0,1-.58.6.42.42,0,0,1,.58-.6Z"/>
              <path class="cls-13" d="M811.47,630.4a.4.4,0,0,1,0,.58.41.41,0,0,1-.6-.57A.4.4,0,0,1,811.47,630.4Z"/>
              <path class="cls-13" d="M810.21,631.72a.41.41,0,1,1-.59,0A.42.42,0,0,1,810.21,631.72Z"/>
              <path class="cls-13" d="M809.85,630.11a.42.42,0,0,1,0,.59.42.42,0,0,1-.6-.58A.42.42,0,0,1,809.85,630.11Z"/>
              <path class="cls-13" d="M809.49,628.5a.42.42,0,0,1-.58.6.42.42,0,0,1,.58-.6Z"/>
              <path class="cls-13" d="M808.22,629.83a.41.41,0,1,1-.58,0A.4.4,0,0,1,808.22,629.83Z"/>
              <path class="cls-13" d="M813.46,632.29a.41.41,0,0,1,0,.58.4.4,0,0,1-.58,0,.41.41,0,1,1,.57-.6Z"/>
              <path class="cls-13" d="M812.2,633.61a.42.42,0,0,1,0,.59.41.41,0,0,1-.59,0,.42.42,0,0,1,.58-.6Z"/>
              <path class="cls-13" d="M811.84,632a.42.42,0,0,1,0,.59.41.41,0,0,1-.6-.57A.42.42,0,0,1,811.84,632Z"/>
              <path class="cls-13" d="M811.47,630.4a.4.4,0,0,1,0,.58.41.41,0,0,1-.6-.57A.4.4,0,0,1,811.47,630.4Z"/>
              <path class="cls-13" d="M810.21,631.72a.41.41,0,1,1-.59,0A.42.42,0,0,1,810.21,631.72Z"/>
              <path class="cls-13" d="M813.46,632.29a.41.41,0,0,1,0,.58.4.4,0,0,1-.58,0,.41.41,0,1,1,.57-.6Z"/>
              <path class="cls-13" d="M812.2,633.61a.42.42,0,0,1,0,.59.41.41,0,0,1-.59,0,.42.42,0,0,1,.58-.6Z"/>
              <path class="cls-13" d="M798.28,620.36a.41.41,0,0,1,0,.59.42.42,0,0,1-.6-.58A.41.41,0,0,1,798.28,620.36Z"/>
              <path class="cls-13" d="M797,621.68a.41.41,0,0,1,0,.59.41.41,0,1,1-.6-.57A.41.41,0,0,1,797,621.68Z"/>
              <path class="cls-13" d="M800.27,622.25a.41.41,0,1,1-.57.6.41.41,0,0,1,.57-.6Z"/>
              <path class="cls-13" d="M799,623.58a.41.41,0,0,1-.57.6.41.41,0,1,1,.57-.6Z"/>
              <path class="cls-13" d="M798.65,622a.41.41,0,0,1,0,.58.4.4,0,0,1-.58,0,.41.41,0,0,1,0-.59A.42.42,0,0,1,798.65,622Z"/>
              <path class="cls-13" d="M798.28,620.36a.41.41,0,0,1,0,.59.42.42,0,0,1-.6-.58A.41.41,0,0,1,798.28,620.36Z"/>
              <path class="cls-13" d="M797,621.68a.41.41,0,0,1,0,.59.41.41,0,1,1-.6-.57A.41.41,0,0,1,797,621.68Z"/>
              <path class="cls-13" d="M800.64,623.86a.42.42,0,0,1,0,.59.41.41,0,1,1,0-.59Z"/>
              <path class="cls-13" d="M800.27,622.25a.41.41,0,1,1-.57.6.41.41,0,0,1,.57-.6Z"/>
              <path class="cls-13" d="M799,623.58a.41.41,0,0,1-.57.6.41.41,0,1,1,.57-.6Z"/>
              <path class="cls-13" d="M806.24,627.93a.42.42,0,0,1-.58.6.42.42,0,0,1,.58-.6Z"/>
              <path class="cls-13" d="M805,629.26a.41.41,0,0,1,0,.59.43.43,0,0,1-.59,0,.42.42,0,0,1,0-.59A.41.41,0,0,1,805,629.26Z"/>
              <path class="cls-13" d="M808.22,629.83a.41.41,0,1,1-.58,0A.4.4,0,0,1,808.22,629.83Z"/>
              <path class="cls-13" d="M807,631.15a.41.41,0,0,1-.57.6.4.4,0,0,1,0-.58A.41.41,0,0,1,807,631.15Z"/>
              <path class="cls-13" d="M806.6,629.54a.42.42,0,0,1,0,.59.41.41,0,0,1-.58,0,.4.4,0,0,1,0-.58A.41.41,0,0,1,806.6,629.54Z"/>
              <path class="cls-13" d="M806.24,627.93a.42.42,0,0,1-.58.6.42.42,0,0,1,.58-.6Z"/>
              <path class="cls-13" d="M805,629.26a.41.41,0,0,1,0,.59.43.43,0,0,1-.59,0,.42.42,0,0,1,0-.59A.41.41,0,0,1,805,629.26Z"/>
              <path class="cls-13" d="M810.21,631.72a.41.41,0,1,1-.59,0A.42.42,0,0,1,810.21,631.72Z"/>
              <path class="cls-13" d="M809,633a.42.42,0,0,1,0,.59.41.41,0,1,1-.6-.57A.42.42,0,0,1,809,633Z"/>
              <path class="cls-13" d="M808.58,631.44a.4.4,0,0,1,0,.58.41.41,0,1,1-.6-.57A.4.4,0,0,1,808.58,631.44Z"/>
              <path class="cls-13" d="M808.22,629.83a.41.41,0,1,1-.58,0A.4.4,0,0,1,808.22,629.83Z"/>
              <path class="cls-13" d="M807,631.15a.41.41,0,0,1-.57.6.4.4,0,0,1,0-.58A.41.41,0,0,1,807,631.15Z"/>
              <path class="cls-13" d="M812.2,633.61a.42.42,0,0,1,0,.59.41.41,0,0,1-.59,0,.42.42,0,0,1,.58-.6Z"/>
              <path class="cls-13" d="M810.57,633.33a.4.4,0,0,1,0,.58.41.41,0,1,1,0-.58Z"/>
              <path class="cls-13" d="M810.21,631.72a.41.41,0,1,1-.59,0A.42.42,0,0,1,810.21,631.72Z"/>
              <path class="cls-13" d="M809,633a.42.42,0,0,1,0,.59.41.41,0,1,1-.6-.57A.42.42,0,0,1,809,633Z"/>
              <path class="cls-13" d="M812.2,633.61a.42.42,0,0,1,0,.59.41.41,0,0,1-.59,0,.42.42,0,0,1,.58-.6Z"/>
              <path class="cls-13" d="M797,621.68a.41.41,0,0,1,0,.59.41.41,0,1,1-.6-.57A.41.41,0,0,1,797,621.68Z"/>
              <path class="cls-13" d="M795.76,623a.41.41,0,1,1-.59,0A.42.42,0,0,1,795.76,623Z"/>
              <path class="cls-13" d="M799,623.58a.41.41,0,0,1-.57.6.41.41,0,1,1,.57-.6Z"/>
              <path class="cls-13" d="M797.75,624.9a.42.42,0,0,1,0,.59.41.41,0,0,1-.6-.57A.42.42,0,0,1,797.75,624.9Z"/>
              <path class="cls-13" d="M797.39,623.29a.42.42,0,0,1,0,.59.41.41,0,0,1-.6-.57A.41.41,0,0,1,797.39,623.29Z"/>
              <path class="cls-13" d="M797,621.68a.41.41,0,0,1,0,.59.41.41,0,1,1-.6-.57A.41.41,0,0,1,797,621.68Z"/>
              <path class="cls-13" d="M795.76,623a.41.41,0,1,1-.59,0A.42.42,0,0,1,795.76,623Z"/>
              <path class="cls-13" d="M799.74,626.79a.42.42,0,1,1-.59,0A.42.42,0,0,1,799.74,626.79Z"/>
              <path class="cls-13" d="M799.37,625.19a.4.4,0,0,1,0,.58.41.41,0,0,1-.59,0,.42.42,0,0,1,0-.59A.41.41,0,0,1,799.37,625.19Z"/>
              <path class="cls-13" d="M799,623.58a.41.41,0,0,1-.57.6.41.41,0,1,1,.57-.6Z"/>
              <path class="cls-13" d="M797.75,624.9a.42.42,0,0,1,0,.59.41.41,0,0,1-.6-.57A.42.42,0,0,1,797.75,624.9Z"/>
              <path class="cls-13" d="M801.72,628.69a.41.41,0,1,1-.58,0A.41.41,0,0,1,801.72,628.69Z"/>
              <path class="cls-13" d="M799.74,626.79a.42.42,0,1,1-.59,0A.42.42,0,0,1,799.74,626.79Z"/>
              <path class="cls-13" d="M805,629.26a.41.41,0,0,1,0,.59.43.43,0,0,1-.59,0,.42.42,0,0,1,0-.59A.41.41,0,0,1,805,629.26Z"/>
              <path class="cls-13" d="M803.71,630.58a.41.41,0,0,1,0,.59.4.4,0,0,1-.58,0,.41.41,0,1,1,.57-.6Z"/>
              <path class="cls-13" d="M803.35,629a.42.42,0,0,1,0,.59.41.41,0,0,1-.6-.57A.42.42,0,0,1,803.35,629Z"/>
              <path class="cls-13" d="M804.61,627.65a.41.41,0,0,1-.57.6.41.41,0,1,1,.57-.6Z"/>
              <path class="cls-13" d="M801.72,628.69a.41.41,0,1,1-.58,0A.41.41,0,0,1,801.72,628.69Z"/>
              <path class="cls-13" d="M807,631.15a.41.41,0,0,1-.57.6.4.4,0,0,1,0-.58A.41.41,0,0,1,807,631.15Z"/>
              <path class="cls-13" d="M805.7,632.48a.41.41,0,0,1-.57.6.41.41,0,1,1,.57-.6Z"/>
              <path class="cls-13" d="M805.34,630.87a.41.41,0,0,1,0,.58.41.41,0,1,1,0-.58Z"/>
              <path class="cls-13" d="M805,629.26a.41.41,0,0,1,0,.59.43.43,0,0,1-.59,0,.42.42,0,0,1,0-.59A.41.41,0,0,1,805,629.26Z"/>
              <path class="cls-13" d="M803.71,630.58a.41.41,0,0,1,0,.59.4.4,0,0,1-.58,0,.41.41,0,1,1,.57-.6Z"/>
              <path class="cls-13" d="M809,633a.42.42,0,0,1,0,.59.41.41,0,1,1-.6-.57A.42.42,0,0,1,809,633Z"/>
              <path class="cls-13" d="M807.69,634.37a.42.42,0,1,1-.59,0A.42.42,0,0,1,807.69,634.37Z"/>
              <path class="cls-13" d="M807.32,632.76a.41.41,0,1,1-.57.6.42.42,0,0,1,0-.59A.41.41,0,0,1,807.32,632.76Z"/>
              <path class="cls-13" d="M807,631.15a.41.41,0,0,1-.57.6.4.4,0,0,1,0-.58A.41.41,0,0,1,807,631.15Z"/>
              <path class="cls-13" d="M805.7,632.48a.41.41,0,0,1-.57.6.41.41,0,1,1,.57-.6Z"/>
              <path class="cls-13" d="M809.31,634.65a.42.42,0,0,1,0,.59.42.42,0,0,1-.61-.57A.42.42,0,0,1,809.31,634.65Z"/>
              <path class="cls-13" d="M809,633a.42.42,0,0,1,0,.59.41.41,0,1,1-.6-.57A.42.42,0,0,1,809,633Z"/>
              <path class="cls-13" d="M807.69,634.37a.42.42,0,1,1-.59,0A.42.42,0,0,1,807.69,634.37Z"/>
              <path class="cls-13" d="M795.76,623a.41.41,0,1,1-.59,0A.42.42,0,0,1,795.76,623Z"/>
              <path class="cls-13" d="M794.5,624.33a.42.42,0,0,1,0,.59.41.41,0,1,1-.6-.57A.42.42,0,0,1,794.5,624.33Z"/>
              <path class="cls-13" d="M797.75,624.9a.42.42,0,0,1,0,.59.41.41,0,0,1-.6-.57A.42.42,0,0,1,797.75,624.9Z"/>
              <path class="cls-13" d="M796.49,626.23a.42.42,0,1,1-.59,0A.42.42,0,0,1,796.49,626.23Z"/>
              <path class="cls-13" d="M796.12,624.62a.41.41,0,1,1-.57.6.42.42,0,0,1,0-.59A.41.41,0,0,1,796.12,624.62Z"/>
              <path class="cls-13" d="M795.76,623a.41.41,0,1,1-.59,0A.42.42,0,0,1,795.76,623Z"/>
              <path class="cls-13" d="M794.5,624.33a.42.42,0,0,1,0,.59.41.41,0,1,1-.6-.57A.42.42,0,0,1,794.5,624.33Z"/>
              <path class="cls-13" d="M799.74,626.79a.42.42,0,1,1-.59,0A.42.42,0,0,1,799.74,626.79Z"/>
              <path class="cls-13" d="M798.47,628.12a.41.41,0,0,1,0,.59.42.42,0,1,1-.6-.58A.41.41,0,0,1,798.47,628.12Z"/>
              <path class="cls-13" d="M798.11,626.51a.41.41,0,1,1-.57.6.41.41,0,0,1,.57-.6Z"/>
              <path class="cls-13" d="M797.75,624.9a.42.42,0,0,1,0,.59.41.41,0,0,1-.6-.57A.42.42,0,0,1,797.75,624.9Z"/>
              <path class="cls-13" d="M796.49,626.23a.42.42,0,1,1-.59,0A.42.42,0,0,1,796.49,626.23Z"/>
              <path class="cls-13" d="M801.72,628.69a.41.41,0,1,1-.58,0A.41.41,0,0,1,801.72,628.69Z"/>
              <path class="cls-13" d="M800.46,630a.4.4,0,0,1,0,.58.41.41,0,0,1-.58,0,.42.42,0,0,1,0-.59A.41.41,0,0,1,800.46,630Z"/>
              <path class="cls-13" d="M800.1,628.4a.42.42,0,0,1,0,.59.41.41,0,1,1-.6-.57A.43.43,0,0,1,800.1,628.4Z"/>
              <path class="cls-13" d="M799.74,626.79a.42.42,0,1,1-.59,0A.42.42,0,0,1,799.74,626.79Z"/>
              <path class="cls-13" d="M798.47,628.12a.41.41,0,0,1,0,.59.42.42,0,1,1-.6-.58A.41.41,0,0,1,798.47,628.12Z"/>
              <path class="cls-13" d="M803.71,630.58a.41.41,0,0,1,0,.59.4.4,0,0,1-.58,0,.41.41,0,1,1,.57-.6Z"/>
              <path class="cls-13" d="M802.45,631.91a.41.41,0,0,1,0,.58.4.4,0,0,1-.58,0,.41.41,0,0,1,0-.59A.42.42,0,0,1,802.45,631.91Z"/>
              <path class="cls-13" d="M802.09,630.3a.42.42,0,1,1-.59,0A.42.42,0,0,1,802.09,630.3Z"/>
              <path class="cls-13" d="M801.72,628.69a.41.41,0,1,1-.58,0A.41.41,0,0,1,801.72,628.69Z"/>
              <path class="cls-13" d="M800.46,630a.4.4,0,0,1,0,.58.41.41,0,0,1-.58,0,.42.42,0,0,1,0-.59A.41.41,0,0,1,800.46,630Z"/>
              <path class="cls-13" d="M805.7,632.48a.41.41,0,0,1-.57.6.41.41,0,1,1,.57-.6Z"/>
              <path class="cls-13" d="M804.44,633.8a.42.42,0,0,1,0,.59.41.41,0,0,1-.58,0,.4.4,0,0,1,0-.58A.41.41,0,0,1,804.44,633.8Z"/>
              <path class="cls-13" d="M804.07,632.19a.41.41,0,1,1-.58,0A.4.4,0,0,1,804.07,632.19Z"/>
              <path class="cls-13" d="M803.71,630.58a.41.41,0,0,1,0,.59.4.4,0,0,1-.58,0,.41.41,0,1,1,.57-.6Z"/>
              <path class="cls-13" d="M802.45,631.91a.41.41,0,0,1,0,.58.4.4,0,0,1-.58,0,.41.41,0,0,1,0-.59A.42.42,0,0,1,802.45,631.91Z"/>
              <path class="cls-13" d="M807.69,634.37a.42.42,0,1,1-.59,0A.42.42,0,0,1,807.69,634.37Z"/>
              <path class="cls-13" d="M806.42,635.69a.41.41,0,1,1-.58,0A.41.41,0,0,1,806.42,635.69Z"/>
              <path class="cls-13" d="M806.06,634.09a.41.41,0,0,1,0,.58.42.42,0,0,1-.59,0,.41.41,0,1,1,.57-.6Z"/>
              <path class="cls-13" d="M805.7,632.48a.41.41,0,0,1-.57.6.41.41,0,1,1,.57-.6Z"/>
              <path class="cls-13" d="M804.44,633.8a.42.42,0,0,1,0,.59.41.41,0,0,1-.58,0,.4.4,0,0,1,0-.58A.41.41,0,0,1,804.44,633.8Z"/>
              <path class="cls-13" d="M808.05,636a.42.42,0,1,1-.59,0A.42.42,0,0,1,808.05,636Z"/>
              <path class="cls-13" d="M807.69,634.37a.42.42,0,1,1-.59,0A.42.42,0,0,1,807.69,634.37Z"/>
              <path class="cls-13" d="M806.42,635.69a.41.41,0,1,1-.58,0A.41.41,0,0,1,806.42,635.69Z"/>
              <path class="cls-13" d="M794.5,624.33a.42.42,0,0,1,0,.59.41.41,0,1,1-.6-.57A.42.42,0,0,1,794.5,624.33Z"/>
              <path class="cls-13" d="M796.49,626.23a.42.42,0,1,1-.59,0A.42.42,0,0,1,796.49,626.23Z"/>
              <path class="cls-13" d="M795.22,627.55a.41.41,0,1,1-.58,0A.41.41,0,0,1,795.22,627.55Z"/>
              <path class="cls-13" d="M794.86,625.94a.41.41,0,0,1,0,.59.41.41,0,1,1-.59-.57A.41.41,0,0,1,794.86,625.94Z"/>
              <path class="cls-13" d="M794.5,624.33a.42.42,0,0,1,0,.59.41.41,0,1,1-.6-.57A.42.42,0,0,1,794.5,624.33Z"/>
              <path class="cls-13" d="M798.47,628.12a.41.41,0,0,1,0,.59.42.42,0,1,1-.6-.58A.41.41,0,0,1,798.47,628.12Z"/>
              <path class="cls-13" d="M797.21,629.45a.41.41,0,0,1,0,.58.42.42,0,1,1-.61-.57A.41.41,0,0,1,797.21,629.45Z"/>
              <path class="cls-13" d="M796.85,627.84a.41.41,0,0,1,0,.58.4.4,0,0,1-.58,0,.41.41,0,1,1,.57-.6Z"/>
              <path class="cls-13" d="M796.49,626.23a.42.42,0,1,1-.59,0A.42.42,0,0,1,796.49,626.23Z"/>
              <path class="cls-13" d="M795.22,627.55a.41.41,0,1,1-.58,0A.41.41,0,0,1,795.22,627.55Z"/>
              <path class="cls-13" d="M800.46,630a.4.4,0,0,1,0,.58.41.41,0,0,1-.58,0,.42.42,0,0,1,0-.59A.41.41,0,0,1,800.46,630Z"/>
              <path class="cls-13" d="M799.2,631.34a.41.41,0,1,1-.59,0A.42.42,0,0,1,799.2,631.34Z"/>
              <path class="cls-13" d="M798.84,629.73a.42.42,0,1,1-.59,0A.42.42,0,0,1,798.84,629.73Z"/>
              <path class="cls-13" d="M798.47,628.12a.41.41,0,0,1,0,.59.42.42,0,1,1-.6-.58A.41.41,0,0,1,798.47,628.12Z"/>
              <path class="cls-13" d="M797.21,629.45a.41.41,0,0,1,0,.58.42.42,0,1,1-.61-.57A.41.41,0,0,1,797.21,629.45Z"/>
              <path class="cls-13" d="M802.45,631.91a.41.41,0,0,1,0,.58.4.4,0,0,1-.58,0,.41.41,0,0,1,0-.59A.42.42,0,0,1,802.45,631.91Z"/>
              <path class="cls-13" d="M801.19,633.23a.42.42,0,0,1,0,.59.41.41,0,0,1-.6-.57A.41.41,0,0,1,801.19,633.23Z"/>
              <path class="cls-13" d="M800.82,631.62a.41.41,0,1,1-.58,0A.4.4,0,0,1,800.82,631.62Z"/>
              <path class="cls-13" d="M800.46,630a.4.4,0,0,1,0,.58.41.41,0,0,1-.58,0,.42.42,0,0,1,0-.59A.41.41,0,0,1,800.46,630Z"/>
              <path class="cls-13" d="M799.2,631.34a.41.41,0,1,1-.59,0A.42.42,0,0,1,799.2,631.34Z"/>
              <path class="cls-13" d="M804.44,633.8a.42.42,0,0,1,0,.59.41.41,0,0,1-.58,0,.4.4,0,0,1,0-.58A.41.41,0,0,1,804.44,633.8Z"/>
              <path class="cls-13" d="M803.17,635.13a.41.41,0,1,1-.57.6.42.42,0,0,1,0-.59A.4.4,0,0,1,803.17,635.13Z"/>
              <path class="cls-13" d="M802.81,633.52a.41.41,0,0,1,0,.58.42.42,0,1,1,0-.58Z"/>
              <path class="cls-13" d="M802.45,631.91a.41.41,0,0,1,0,.58.4.4,0,0,1-.58,0,.41.41,0,0,1,0-.59A.42.42,0,0,1,802.45,631.91Z"/>
              <path class="cls-13" d="M801.19,633.23a.42.42,0,0,1,0,.59.41.41,0,0,1-.6-.57A.41.41,0,0,1,801.19,633.23Z"/>
              <path class="cls-13" d="M806.42,635.69a.41.41,0,1,1-.58,0A.41.41,0,0,1,806.42,635.69Z"/>
              <path class="cls-13" d="M805.16,637a.41.41,0,1,1-.57.6.41.41,0,0,1,.57-.6Z"/>
              <path class="cls-13" d="M804.8,635.41a.42.42,0,0,1,0,.59.42.42,0,0,1-.6-.58A.42.42,0,0,1,804.8,635.41Z"/>
              <path class="cls-13" d="M804.44,633.8a.42.42,0,0,1,0,.59.41.41,0,0,1-.58,0,.4.4,0,0,1,0-.58A.41.41,0,0,1,804.44,633.8Z"/>
              <path class="cls-13" d="M803.17,635.13a.41.41,0,1,1-.57.6.42.42,0,0,1,0-.59A.4.4,0,0,1,803.17,635.13Z"/>
              <path class="cls-13" d="M806.42,635.69a.41.41,0,1,1-.58,0A.41.41,0,0,1,806.42,635.69Z"/>
              <path class="cls-13" d="M805.16,637a.41.41,0,1,1-.57.6.41.41,0,0,1,.57-.6Z"/>
              <path class="cls-13" d="M795.22,627.55a.41.41,0,1,1-.58,0A.41.41,0,0,1,795.22,627.55Z"/>
              <path class="cls-13" d="M794,628.88a.41.41,0,1,1-.58,0A.41.41,0,0,1,794,628.88Z"/>
              <path class="cls-13" d="M793.6,627.27a.42.42,0,0,1,0,.59.42.42,0,0,1-.6-.58A.42.42,0,0,1,793.6,627.27Z"/>
              <path class="cls-13" d="M797.21,629.45a.41.41,0,0,1,0,.58.42.42,0,1,1-.61-.57A.41.41,0,0,1,797.21,629.45Z"/>
              <path class="cls-13" d="M796,630.77a.41.41,0,0,1-.57.6.41.41,0,1,1,.57-.6Z"/>
              <path class="cls-13" d="M795.59,629.16a.42.42,0,0,1-.58.6.42.42,0,0,1,.58-.6Z"/>
              <path class="cls-13" d="M795.22,627.55a.41.41,0,1,1-.58,0A.41.41,0,0,1,795.22,627.55Z"/>
              <path class="cls-13" d="M794,628.88a.41.41,0,1,1-.58,0A.41.41,0,0,1,794,628.88Z"/>
              <path class="cls-13" d="M799.2,631.34a.41.41,0,1,1-.59,0A.42.42,0,0,1,799.2,631.34Z"/>
              <path class="cls-13" d="M797.94,632.67a.41.41,0,1,1-.59,0A.41.41,0,0,1,797.94,632.67Z"/>
              <path class="cls-13" d="M797.57,631.06a.4.4,0,0,1,0,.58.41.41,0,1,1-.6-.57A.41.41,0,0,1,797.57,631.06Z"/>
              <path class="cls-13" d="M797.21,629.45a.41.41,0,0,1,0,.58.42.42,0,1,1-.61-.57A.41.41,0,0,1,797.21,629.45Z"/>
              <path class="cls-13" d="M796,630.77a.41.41,0,0,1-.57.6.41.41,0,1,1,.57-.6Z"/>
              <path class="cls-13" d="M801.19,633.23a.42.42,0,0,1,0,.59.41.41,0,0,1-.6-.57A.41.41,0,0,1,801.19,633.23Z"/>
              <path class="cls-13" d="M799.92,634.56a.4.4,0,0,1,0,.58.41.41,0,0,1-.59,0,.42.42,0,0,1,0-.59A.41.41,0,0,1,799.92,634.56Z"/>
              <path class="cls-13" d="M799.56,633a.41.41,0,1,1-.57.6.41.41,0,1,1,.57-.6Z"/>
              <path class="cls-13" d="M799.2,631.34a.41.41,0,1,1-.59,0A.42.42,0,0,1,799.2,631.34Z"/>
              <path class="cls-13" d="M797.94,632.67a.41.41,0,1,1-.59,0A.41.41,0,0,1,797.94,632.67Z"/>
              <path class="cls-13" d="M803.17,635.13a.41.41,0,1,1-.57.6.42.42,0,0,1,0-.59A.4.4,0,0,1,803.17,635.13Z"/>
              <path class="cls-13" d="M801.91,636.45a.41.41,0,1,1-.57.6.41.41,0,0,1,.57-.6Z"/>
              <path class="cls-13" d="M801.55,634.84a.42.42,0,0,1,0,.59.41.41,0,0,1-.58,0,.4.4,0,0,1,0-.58A.41.41,0,0,1,801.55,634.84Z"/>
              <path class="cls-13" d="M801.19,633.23a.42.42,0,0,1,0,.59.41.41,0,0,1-.6-.57A.41.41,0,0,1,801.19,633.23Z"/>
              <path class="cls-13" d="M799.92,634.56a.4.4,0,0,1,0,.58.41.41,0,0,1-.59,0,.42.42,0,0,1,0-.59A.41.41,0,0,1,799.92,634.56Z"/>
              <path class="cls-13" d="M805.16,637a.41.41,0,1,1-.57.6.41.41,0,0,1,.57-.6Z"/>
              <path class="cls-13" d="M803.54,636.74a.41.41,0,0,1,0,.58.41.41,0,1,1-.6-.57A.41.41,0,0,1,803.54,636.74Z"/>
              <path class="cls-13" d="M803.17,635.13a.41.41,0,1,1-.57.6.42.42,0,0,1,0-.59A.4.4,0,0,1,803.17,635.13Z"/>
              <path class="cls-13" d="M801.91,636.45a.41.41,0,1,1-.57.6.41.41,0,0,1,.57-.6Z"/>
              <path class="cls-13" d="M805.16,637a.41.41,0,1,1-.57.6.41.41,0,0,1,.57-.6Z"/>
              <path class="cls-13" d="M794,628.88a.41.41,0,1,1-.58,0A.41.41,0,0,1,794,628.88Z"/>
              <path class="cls-13" d="M796,630.77a.41.41,0,0,1-.57.6.41.41,0,1,1,.57-.6Z"/>
              <path class="cls-13" d="M794,628.88a.41.41,0,1,1-.58,0A.41.41,0,0,1,794,628.88Z"/>
              <path class="cls-13" d="M794.33,630.49a.42.42,0,0,1-.58.6.42.42,0,1,1,.58-.6Z"/>
              <path class="cls-13" d="M797.94,632.67a.41.41,0,1,1-.59,0A.41.41,0,0,1,797.94,632.67Z"/>
              <path class="cls-13" d="M796.67,634a.41.41,0,0,1,0,.59.42.42,0,1,1-.6-.58A.41.41,0,0,1,796.67,634Z"/>
              <path class="cls-13" d="M796.31,632.38a.41.41,0,1,1-.57.6.43.43,0,0,1,0-.59A.42.42,0,0,1,796.31,632.38Z"/>
              <path class="cls-13" d="M796,630.77a.41.41,0,0,1-.57.6.41.41,0,1,1,.57-.6Z"/>
              <path class="cls-13" d="M799.92,634.56a.4.4,0,0,1,0,.58.41.41,0,0,1-.59,0,.42.42,0,0,1,0-.59A.41.41,0,0,1,799.92,634.56Z"/>
              <path class="cls-13" d="M798.66,635.88a.41.41,0,0,1-.57.6.4.4,0,0,1,0-.58A.41.41,0,0,1,798.66,635.88Z"/>
              <path class="cls-13" d="M798.3,634.27a.42.42,0,0,1,0,.59.41.41,0,0,1-.6-.57A.42.42,0,0,1,798.3,634.27Z"/>
              <path class="cls-13" d="M797.94,632.67a.41.41,0,1,1-.59,0A.41.41,0,0,1,797.94,632.67Z"/>
              <path class="cls-13" d="M796.67,634a.41.41,0,0,1,0,.59.42.42,0,1,1-.6-.58A.41.41,0,0,1,796.67,634Z"/>
              <path class="cls-13" d="M801.91,636.45a.41.41,0,1,1-.57.6.41.41,0,0,1,.57-.6Z"/>
              <path class="cls-13" d="M800.29,636.17a.41.41,0,1,1-.59,0A.42.42,0,0,1,800.29,636.17Z"/>
              <path class="cls-13" d="M799.92,634.56a.4.4,0,0,1,0,.58.41.41,0,0,1-.59,0,.42.42,0,0,1,0-.59A.41.41,0,0,1,799.92,634.56Z"/>
              <path class="cls-13" d="M798.66,635.88a.41.41,0,0,1-.57.6.4.4,0,0,1,0-.58A.41.41,0,0,1,798.66,635.88Z"/>
              <path class="cls-13" d="M801.91,636.45a.41.41,0,1,1-.57.6.41.41,0,0,1,.57-.6Z"/>
              <path class="cls-13" d="M796.67,634a.41.41,0,0,1,0,.59.42.42,0,1,1-.6-.58A.41.41,0,0,1,796.67,634Z"/>
              <path class="cls-13" d="M798.66,635.88a.41.41,0,0,1-.57.6.4.4,0,0,1,0-.58A.41.41,0,0,1,798.66,635.88Z"/>
              <path class="cls-13" d="M796.67,634a.41.41,0,0,1,0,.59.42.42,0,1,1-.6-.58A.41.41,0,0,1,796.67,634Z"/>
              <path class="cls-13" d="M798.66,635.88a.41.41,0,0,1-.57.6.4.4,0,0,1,0-.58A.41.41,0,0,1,798.66,635.88Z"/>
            </g>
            <g>
              <g>
                <path class="cls-6" d="M801.92,608.1c1.28-5.62-3.14-8.82-8.16-6.48-2,.92-5.08,4.8-.18,8.67S801.44,610.2,801.92,608.1Z"/>
                <path class="cls-13" d="M800.3,604.46a1.92,1.92,0,1,0,.06,2.72A1.92,1.92,0,0,0,800.3,604.46Z"/>
              </g>
              <g>
                <path class="cls-6" d="M804.86,602.14h0c.9,1.18,1.35,3.16,4,2.75,4.2-.65,4.54-4,3.88-5.54C811.34,596.08,803.65,594.83,804.86,602.14Z"/>
                <path class="cls-13" d="M810.62,599.64a1.92,1.92,0,1,0,.06,2.71A1.92,1.92,0,0,0,810.62,599.64Z"/>
              </g>
            </g>
            <path class="cls-14" d="M808,615.72c2.55-1.37,6,.18,7.63,3.44l.66,1.3c1.66,3.27.94,7-1.62,8.39h0c-2.55,1.36-6-.18-7.63-3.45l-.66-1.3c-1.66-3.27-.93-7,1.62-8.38Z"/>
          </g>
          <polyline class="cls-4" points="832.04 727.04 822.17 814.11 778.44 814.24 774.31 740.26"/>
          <path class="cls-4" d="M832.19,827.41H778.45V814.24h43.44a10.31,10.31,0,0,1,10.3,10.31Z"/>
          <path class="cls-4" d="M809.23,752.16l-8.92,61.89h.86a10.25,10.25,0,0,1,10.25,10.25v3.11"/>
          <line class="cls-4" x1="808.22" y1="637.54" x2="825.43" y2="638.78"/>
          <path class="cls-4" d="M835.12,713.54s16,12.57,16.57,12.93c-3.28-6.74,4-10.93,6.92-8.74,1.82,1.36-5-8.38-10.4-15.92A50.65,50.65,0,0,1,840,683.35l-4.51-20.41a52.51,52.51,0,0,0-4.05-11.62L826,640.27"/>
          <path class="cls-4" d="M851.36,725.72l8.49,9a3.65,3.65,0,0,0,5.29,0l5.79-6a3.66,3.66,0,0,0-1.1-5.86l-11.22-5.16"/>
          <path class="cls-4" d="M763.12,734.82l-7.34,10a3.65,3.65,0,0,0,.91,5.21l6.93,4.63a3.66,3.66,0,0,0,5.57-2.13l3.08-12"/>
          <polyline class="cls-4" points="769.98 672.88 763.67 732.28 774.26 739.31"/>
          <line class="cls-4" x1="792.9" y1="679.87" x2="774.26" y2="737.44"/>
        </g>
      </g>
      <line class="cls-7" x1="156.95" y1="827.35" x2="1266.9" y2="827.35"/>
      <line class="cls-7" x1="1284.9" y1="827.35" x2="1323.9" y2="827.35"/>
      <rect class="cls-11" x="237.95" y="659.53" width="69" height="128.65" rx="19" ry="19"/>
      <circle class="cls-11" cx="1124.5" cy="734.85" r="55.5" transform="translate(4.45 1476.47) rotate(-66.67)"/>
      <line class="cls-4" x1="272.45" y1="827.35" x2="272.45" y2="723.85"/>
      <line class="cls-4" x1="1124.5" y1="827.35" x2="1124.5" y2="723.85"/>
    </g>
  </g>
</svg>
