<svg id="work" xmlns="http://www.w3.org/2000/svg" viewBox="0 0 1422 870">
  <defs>
    <style>
      .Graphic-Style-9, .cls-1, .cls-12, .cls-13, .cls-6, .cls-8 {
        fill: none;
      }

      .cls-1, .cls-10, .cls-11, .cls-13, .cls-3, .cls-6, .cls-8, .cls-9 {
        stroke: #4a4a4a;
      }

      .Graphic-Style-9, .cls-1, .cls-10, .cls-11, .cls-12, .cls-13, .cls-2, .cls-6, .cls-9 {
        stroke-linecap: round;
        stroke-linejoin: round;
      }

      .cls-1, .cls-12, .cls-8 {
        stroke-width: 4px;
      }

      .cls-10, .cls-11, .cls-2, .cls-4 {
        fill: #fff;
      }

      .Graphic-Style-9, .cls-2 {
        stroke: #ff0083;
      }

      .Graphic-Style-9, .cls-10, .cls-2, .cls-3, .cls-6, .cls-9 {
        stroke-width: 2.5px;
      }

      .cls-3, .cls-5 {
        fill: #ebebeb;
      }

      .cls-3, .cls-8 {
        stroke-miterlimit: 10;
      }

      .cls-7, .cls-9 {
        fill: #ff0083;
      }

      .cls-11 {
        stroke-width: 1.5px;
      }

      .cls-12 {
        stroke: #494949;
      }

      .cls-13 {
        stroke-width: 1.2px;
      }
    </style>
  </defs>
  <title>27,2</title>
  <g>
    <line class="cls-1" x1="75.77" y1="717.58" x2="1333" y2="717.58"/>
    <path class="cls-2" d="M692.91,446.31a36.15,36.15,0,0,1-14,28.56L579.28,552a12.76,12.76,0,0,1-20.57-10.09l-.25-34.12a8.87,8.87,0,0,0-8.87-8.87H448.45a8.87,8.87,0,0,0-8.87,8.87l-.25,34.12A12.76,12.76,0,0,1,418.76,552l-99.63-77.14a36.11,36.11,0,0,1,0-57.13l99.7-77.06a12.75,12.75,0,0,1,20.55,10.09l.22,34.15a8.88,8.88,0,0,0,8.87,8.87h101a8.88,8.88,0,0,0,8.87-8.87l.22-34.15a12.75,12.75,0,0,1,20.55-10.09l99.7,77.06A36.12,36.12,0,0,1,692.91,446.31Z"/>
    <g>
      <g>
        <path class="cls-3" d="M822.31,389.37a5.75,5.75,0,0,1-5.72,5.78H710a5.75,5.75,0,0,1-5.72-5.78V223.84a5.75,5.75,0,0,1,5.72-5.78H816.59a5.75,5.75,0,0,1,5.72,5.78Z"/>
        <polygon class="cls-4" points="817.38 251.14 815.37 252.89 815.92 252.89 815.92 285.05 815.51 285.46 815.92 285.24 815.92 315.35 816.07 357.52 817.38 359 817.38 387.65 708.64 387.65 708.64 224.24 817.38 224.24 817.38 251.14"/>
        <polygon class="cls-5" points="815.92 259.61 809.97 264.88 809.97 292.1 816.13 285.94 816.13 293.11 809.97 298.46 809.97 322.31 815.67 316.56 815.92 321.78 809.68 328.74 809.68 353.61 805.2 350.81 805.49 262.01 815.92 251.47 815.92 259.61"/>
        <polygon class="cls-6" points="817.38 387.65 708.64 387.65 708.64 224.24 817.38 224.24 817.38 251.14 805.68 261.37 805.68 350.81 817.38 359 817.38 387.65"/>
        <polyline class="cls-6" points="815.92 252.89 815.92 285.05 805.83 295.42"/>
        <polyline class="cls-6" points="815.92 285.24 815.92 315.35 805.83 325.73"/>
        <line class="cls-6" x1="815.92" y1="315.35" x2="815.92" y2="357.98"/>
        <path class="cls-5" d="M720,235.23a4.19,4.19,0,1,0-4.19,4.19A4.2,4.2,0,0,0,720,235.23Z"/>
        <path class="cls-5" d="M720,250.47a4.19,4.19,0,1,0-4.19,4.19A4.2,4.2,0,0,0,720,250.47Z"/>
        <path class="cls-5" d="M720,265.78a4.19,4.19,0,1,0-4.19,4.19A4.2,4.2,0,0,0,720,265.78Z"/>
        <path class="cls-5" d="M720,281.06a4.19,4.19,0,1,0-4.19,4.19A4.19,4.19,0,0,0,720,281.06Z"/>
        <path class="cls-5" d="M720,296.3a4.19,4.19,0,1,0-4.19,4.19A4.2,4.2,0,0,0,720,296.3Z"/>
        <path class="cls-5" d="M720,311.61a4.19,4.19,0,1,0-4.19,4.19A4.19,4.19,0,0,0,720,311.61Z"/>
        <path class="cls-5" d="M720,326.82a4.19,4.19,0,1,0-4.19,4.19A4.2,4.2,0,0,0,720,326.82Z"/>
        <path class="cls-5" d="M720,342.06a4.19,4.19,0,1,0-4.19,4.19A4.19,4.19,0,0,0,720,342.06Z"/>
        <path class="cls-5" d="M720,357.37a4.19,4.19,0,1,0-4.19,4.19A4.2,4.2,0,0,0,720,357.37Z"/>
        <path class="cls-5" d="M720,372.65a4.19,4.19,0,1,0-4.19,4.19A4.19,4.19,0,0,0,720,372.65Z"/>
        <g>
          <line class="cls-6" x1="703.57" y1="235.06" x2="715.65" y2="235.06"/>
          <line class="cls-6" x1="703.57" y1="250.28" x2="715.65" y2="250.28"/>
          <line class="cls-6" x1="703.57" y1="265.5" x2="715.65" y2="265.5"/>
          <line class="cls-6" x1="703.57" y1="280.72" x2="715.65" y2="280.72"/>
          <line class="cls-6" x1="703.57" y1="295.95" x2="715.65" y2="295.95"/>
          <line class="cls-6" x1="703.57" y1="311.17" x2="715.65" y2="311.17"/>
          <line class="cls-6" x1="703.57" y1="326.39" x2="715.65" y2="326.39"/>
          <line class="cls-6" x1="703.57" y1="341.62" x2="715.65" y2="341.62"/>
          <line class="cls-6" x1="703.57" y1="356.84" x2="715.65" y2="356.84"/>
          <line class="cls-6" x1="703.57" y1="372.06" x2="715.65" y2="372.06"/>
        </g>
      </g>
      <path class="cls-7" d="M753,358.87a4.37,4.37,0,0,1-3-1.19l-15.9-15a4.38,4.38,0,0,1,6-6.37l12.83,12.09,33.6-33.06a4.38,4.38,0,0,1,6.14,6.24l-36.61,36A4.36,4.36,0,0,1,753,358.87Z"/>
    </g>
    <g>
      <g>
        <path class="cls-3" d="M726.08,644a5.75,5.75,0,0,1-5.72,5.78H613.78a5.75,5.75,0,0,1-5.72-5.78V478.45a5.75,5.75,0,0,1,5.72-5.78H720.36a5.75,5.75,0,0,1,5.72,5.78Z"/>
        <polygon class="cls-4" points="721.15 505.75 719.14 507.5 719.69 507.5 719.69 539.66 719.28 540.07 719.69 539.85 719.69 569.96 719.84 612.14 721.15 613.61 721.15 642.26 612.41 642.26 612.41 478.86 721.15 478.86 721.15 505.75"/>
        <polygon class="cls-5" points="719.69 514.23 713.74 519.49 713.74 546.72 719.9 540.55 719.9 547.72 713.74 553.07 713.74 576.92 719.44 571.16 719.69 576.39 713.45 583.35 713.45 608.22 708.97 605.43 709.26 516.62 719.69 506.08 719.69 514.23"/>
        <polygon class="cls-6" points="721.15 642.26 612.41 642.26 612.41 478.86 721.15 478.86 721.15 505.75 709.46 515.98 709.46 605.43 721.15 613.61 721.15 642.26"/>
        <polyline class="cls-6" points="719.69 507.5 719.69 539.66 709.6 550.03"/>
        <polyline class="cls-6" points="719.69 539.85 719.69 569.96 709.6 580.34"/>
        <line class="cls-6" x1="719.69" y1="569.96" x2="719.69" y2="612.59"/>
        <path class="cls-5" d="M623.74,489.84a4.19,4.19,0,1,0-4.19,4.19A4.2,4.2,0,0,0,623.74,489.84Z"/>
        <path class="cls-5" d="M623.74,505.08a4.19,4.19,0,1,0-4.19,4.19A4.2,4.2,0,0,0,623.74,505.08Z"/>
        <path class="cls-5" d="M623.74,520.39a4.19,4.19,0,1,0-4.19,4.19A4.2,4.2,0,0,0,623.74,520.39Z"/>
        <path class="cls-5" d="M623.74,535.67a4.19,4.19,0,1,0-4.19,4.19A4.2,4.2,0,0,0,623.74,535.67Z"/>
        <path class="cls-5" d="M623.74,550.91a4.19,4.19,0,1,0-4.19,4.19A4.2,4.2,0,0,0,623.74,550.91Z"/>
        <path class="cls-5" d="M623.74,566.22a4.19,4.19,0,1,0-4.19,4.19A4.2,4.2,0,0,0,623.74,566.22Z"/>
        <path class="cls-5" d="M623.74,581.43a4.19,4.19,0,1,0-4.19,4.19A4.2,4.2,0,0,0,623.74,581.43Z"/>
        <path class="cls-5" d="M623.74,596.68a4.19,4.19,0,1,0-4.19,4.19A4.19,4.19,0,0,0,623.74,596.68Z"/>
        <path class="cls-5" d="M623.74,612a4.19,4.19,0,1,0-4.19,4.2A4.2,4.2,0,0,0,623.74,612Z"/>
        <path class="cls-5" d="M623.74,627.26a4.19,4.19,0,1,0-4.19,4.19A4.2,4.2,0,0,0,623.74,627.26Z"/>
        <g>
          <line class="cls-6" x1="607.34" y1="489.67" x2="619.42" y2="489.67"/>
          <line class="cls-6" x1="607.34" y1="504.89" x2="619.42" y2="504.89"/>
          <line class="cls-6" x1="607.34" y1="520.12" x2="619.42" y2="520.12"/>
          <line class="cls-6" x1="607.34" y1="535.34" x2="619.42" y2="535.34"/>
          <line class="cls-6" x1="607.34" y1="550.56" x2="619.42" y2="550.56"/>
          <line class="cls-6" x1="607.34" y1="565.78" x2="619.42" y2="565.78"/>
          <line class="cls-6" x1="607.34" y1="581" x2="619.42" y2="581"/>
          <line class="cls-6" x1="607.34" y1="596.23" x2="619.42" y2="596.23"/>
          <line class="cls-6" x1="607.34" y1="611.45" x2="619.42" y2="611.45"/>
          <line class="cls-6" x1="607.34" y1="626.67" x2="619.42" y2="626.67"/>
        </g>
      </g>
      <path class="cls-7" d="M656.72,613.48a4.33,4.33,0,0,1-3-1.19l-15.9-15a4.38,4.38,0,0,1,6-6.37L656.65,603,690.25,570a4.38,4.38,0,0,1,6.14,6.24l-36.6,36A4.39,4.39,0,0,1,656.72,613.48Z"/>
    </g>
    <path class="cls-3" d="M921,732.9a5.75,5.75,0,0,1-5.72,5.77H808.65a5.75,5.75,0,0,1-5.72-5.78V567.36a5.74,5.74,0,0,1,5.72-5.77H915.23a5.74,5.74,0,0,1,5.72,5.77Z"/>
    <polygon class="cls-4" points="916.02 594.66 914.01 596.42 914.56 596.42 914.56 628.57 914.15 628.99 914.56 628.77 914.56 658.88 914.71 701.05 916.02 702.53 916.02 731.17 807.28 731.17 807.28 567.77 916.02 567.77 916.02 594.66"/>
    <polygon class="cls-5" points="914.56 603.14 908.61 608.4 908.61 635.63 914.77 629.47 914.77 636.64 908.61 641.98 908.61 665.84 914.31 660.08 914.56 665.3 908.32 672.27 908.32 697.14 903.84 694.34 904.13 605.53 914.56 595 914.56 603.14"/>
    <polygon class="cls-6" points="916.02 731.17 807.28 731.17 807.28 567.77 916.02 567.77 916.02 594.66 904.33 604.89 904.33 694.34 916.02 702.53 916.02 731.17"/>
    <polyline class="cls-6" points="914.56 596.42 914.56 628.57 904.47 638.95"/>
    <polyline class="cls-6" points="914.56 628.76 914.56 658.88 904.47 669.25"/>
    <line class="cls-6" x1="914.56" y1="658.88" x2="914.56" y2="701.5"/>
    <path class="cls-5" d="M818.61,578.75a4.19,4.19,0,1,0-4.19,4.19A4.2,4.2,0,0,0,818.61,578.75Z"/>
    <path class="cls-5" d="M818.61,594a4.19,4.19,0,1,0-4.19,4.19A4.19,4.19,0,0,0,818.61,594Z"/>
    <path class="cls-5" d="M818.61,609.31a4.19,4.19,0,1,0-4.19,4.19A4.19,4.19,0,0,0,818.61,609.31Z"/>
    <path class="cls-5" d="M818.61,624.58a4.19,4.19,0,1,0-4.19,4.19A4.2,4.2,0,0,0,818.61,624.58Z"/>
    <path class="cls-5" d="M818.61,639.83a4.19,4.19,0,1,0-4.19,4.19A4.2,4.2,0,0,0,818.61,639.83Z"/>
    <path class="cls-5" d="M818.61,655.13a4.19,4.19,0,1,0-4.19,4.19A4.2,4.2,0,0,0,818.61,655.13Z"/>
    <path class="cls-5" d="M818.61,670.35a4.19,4.19,0,1,0-4.19,4.19A4.19,4.19,0,0,0,818.61,670.35Z"/>
    <path class="cls-5" d="M818.61,685.59a4.19,4.19,0,1,0-4.19,4.19A4.2,4.2,0,0,0,818.61,685.59Z"/>
    <line class="cls-6" x1="802.21" y1="578.58" x2="814.29" y2="578.58"/>
    <line class="cls-6" x1="802.21" y1="593.81" x2="814.29" y2="593.81"/>
    <line class="cls-6" x1="802.21" y1="609.03" x2="814.29" y2="609.03"/>
    <line class="cls-6" x1="802.21" y1="624.25" x2="814.29" y2="624.25"/>
    <line class="cls-6" x1="802.21" y1="639.47" x2="814.29" y2="639.47"/>
    <line class="cls-6" x1="802.21" y1="654.7" x2="814.29" y2="654.7"/>
    <line class="cls-6" x1="802.21" y1="669.92" x2="814.29" y2="669.92"/>
    <line class="cls-6" x1="802.21" y1="685.14" x2="814.29" y2="685.14"/>
    <path class="cls-7" d="M851.59,702.39a4.33,4.33,0,0,1-3-1.19l-15.9-15a4.38,4.38,0,0,1,6-6.37L851.52,692l33.6-33.07a4.38,4.38,0,0,1,6.14,6.24l-36.61,36A4.36,4.36,0,0,1,851.59,702.39Z"/>
    <path class="cls-3" d="M1137,737a5.75,5.75,0,0,1-5.72,5.77H1024.69A5.75,5.75,0,0,1,1019,737V571.42a5.75,5.75,0,0,1,5.72-5.77h106.59a5.75,5.75,0,0,1,5.72,5.77Z"/>
    <polygon class="cls-4" points="1132.06 598.72 1130.06 600.48 1130.6 600.48 1130.6 632.63 1130.2 633.05 1130.6 632.83 1130.6 662.93 1130.76 705.11 1132.06 706.59 1132.06 735.23 1023.32 735.23 1023.32 571.83 1132.06 571.83 1132.06 598.72"/>
    <polygon class="cls-5" points="1130.6 607.2 1124.66 612.46 1124.66 639.69 1130.82 633.53 1130.82 640.7 1124.66 646.04 1124.66 669.9 1130.36 664.14 1130.6 669.37 1124.37 676.33 1124.37 701.2 1119.88 698.4 1120.18 609.59 1130.6 599.06 1130.6 607.2"/>
    <polygon class="cls-6" points="1132.06 735.23 1023.32 735.23 1023.32 571.83 1132.06 571.83 1132.06 598.72 1120.37 608.95 1120.37 698.4 1132.06 706.59 1132.06 735.23"/>
    <polyline class="cls-6" points="1130.6 600.48 1130.6 632.63 1120.52 643.01"/>
    <polyline class="cls-6" points="1130.6 632.83 1130.6 662.93 1120.52 673.31"/>
    <line class="cls-6" x1="1130.6" y1="662.94" x2="1130.6" y2="705.56"/>
    <path class="cls-5" d="M1034.65,582.81a4.19,4.19,0,1,0-4.19,4.2A4.18,4.18,0,0,0,1034.65,582.81Z"/>
    <path class="cls-5" d="M1034.65,598.06a4.19,4.19,0,1,0-4.19,4.19A4.18,4.18,0,0,0,1034.65,598.06Z"/>
    <path class="cls-5" d="M1034.65,613.37a4.19,4.19,0,1,0-4.19,4.19A4.18,4.18,0,0,0,1034.65,613.37Z"/>
    <path class="cls-5" d="M1034.65,628.64a4.19,4.19,0,1,0-4.19,4.19A4.19,4.19,0,0,0,1034.65,628.64Z"/>
    <path class="cls-5" d="M1034.65,643.89a4.19,4.19,0,1,0-4.19,4.19A4.18,4.18,0,0,0,1034.65,643.89Z"/>
    <path class="cls-5" d="M1034.65,659.2a4.19,4.19,0,1,0-4.19,4.18A4.19,4.19,0,0,0,1034.65,659.2Z"/>
    <path class="cls-5" d="M1034.65,674.41a4.19,4.19,0,1,0-4.19,4.19A4.18,4.18,0,0,0,1034.65,674.41Z"/>
    <path class="cls-5" d="M1034.65,689.65a4.19,4.19,0,1,0-4.19,4.19A4.19,4.19,0,0,0,1034.65,689.65Z"/>
    <line class="cls-6" x1="1018.26" y1="582.64" x2="1030.34" y2="582.64"/>
    <line class="cls-6" x1="1018.26" y1="597.87" x2="1030.34" y2="597.87"/>
    <line class="cls-6" x1="1018.26" y1="613.09" x2="1030.34" y2="613.09"/>
    <line class="cls-6" x1="1018.26" y1="628.31" x2="1030.34" y2="628.31"/>
    <line class="cls-6" x1="1018.26" y1="643.53" x2="1030.34" y2="643.53"/>
    <line class="cls-6" x1="1018.26" y1="658.76" x2="1030.34" y2="658.76"/>
    <line class="cls-6" x1="1018.26" y1="673.98" x2="1030.34" y2="673.98"/>
    <line class="cls-6" x1="1018.26" y1="689.2" x2="1030.34" y2="689.2"/>
    <path class="cls-7" d="M1067.63,706.46a4.34,4.34,0,0,1-3-1.2l-15.89-15a4.38,4.38,0,1,1,6-6.37l12.83,12.1,33.59-33.07a4.38,4.38,0,0,1,6.14,6.24l-36.6,36A4.35,4.35,0,0,1,1067.63,706.46Z"/>
    <g>
      <g>
        <path class="cls-3" d="M1331.53,653.28a5.75,5.75,0,0,1-5.72,5.77H1219.23a5.75,5.75,0,0,1-5.72-5.78V487.74a5.74,5.74,0,0,1,5.72-5.77h106.58a5.74,5.74,0,0,1,5.72,5.77Z"/>
        <polygon class="cls-4" points="1326.6 515.04 1324.59 516.8 1325.14 516.8 1325.14 548.95 1324.73 549.37 1325.14 549.14 1325.14 579.25 1325.29 621.43 1326.6 622.91 1326.6 651.55 1217.86 651.55 1217.86 488.15 1326.6 488.15 1326.6 515.04"/>
        <polygon class="cls-5" points="1325.14 523.52 1319.19 528.78 1319.19 556.01 1325.35 549.85 1325.35 557.01 1319.19 562.36 1319.19 586.22 1324.89 580.46 1325.14 585.68 1318.9 592.64 1318.9 617.52 1314.42 614.72 1314.71 525.91 1325.14 515.38 1325.14 523.52"/>
        <polygon class="cls-6" points="1326.6 651.55 1217.86 651.55 1217.86 488.15 1326.6 488.15 1326.6 515.04 1314.9 525.27 1314.9 614.72 1326.6 622.91 1326.6 651.55"/>
        <polyline class="cls-6" points="1325.14 516.8 1325.14 548.95 1315.05 559.33"/>
        <polyline class="cls-6" points="1325.14 549.14 1325.14 579.25 1315.05 589.63"/>
        <line class="cls-6" x1="1325.14" y1="579.25" x2="1325.14" y2="621.88"/>
        <path class="cls-5" d="M1229.19,499.13a4.19,4.19,0,1,0-4.19,4.19A4.2,4.2,0,0,0,1229.19,499.13Z"/>
        <path class="cls-5" d="M1229.19,514.38a4.19,4.19,0,1,0-4.19,4.19A4.19,4.19,0,0,0,1229.19,514.38Z"/>
        <path class="cls-5" d="M1229.19,529.69a4.19,4.19,0,1,0-4.19,4.19A4.19,4.19,0,0,0,1229.19,529.69Z"/>
        <path class="cls-5" d="M1229.19,545a4.19,4.19,0,1,0-4.19,4.19A4.2,4.2,0,0,0,1229.19,545Z"/>
        <path class="cls-5" d="M1229.19,560.21a4.19,4.19,0,1,0-4.19,4.19A4.2,4.2,0,0,0,1229.19,560.21Z"/>
        <path class="cls-5" d="M1229.19,575.51a4.19,4.19,0,1,0-4.19,4.19A4.2,4.2,0,0,0,1229.19,575.51Z"/>
        <path class="cls-5" d="M1229.19,590.73a4.19,4.19,0,1,0-4.19,4.18A4.19,4.19,0,0,0,1229.19,590.73Z"/>
        <path class="cls-5" d="M1229.19,606a4.19,4.19,0,1,0-4.19,4.19A4.19,4.19,0,0,0,1229.19,606Z"/>
        <path class="cls-5" d="M1229.19,621.28a4.19,4.19,0,1,0-4.19,4.19A4.19,4.19,0,0,0,1229.19,621.28Z"/>
        <path class="cls-5" d="M1229.19,636.55a4.19,4.19,0,1,0-4.19,4.19A4.2,4.2,0,0,0,1229.19,636.55Z"/>
        <g>
          <line class="cls-6" x1="1212.79" y1="498.96" x2="1224.87" y2="498.96"/>
          <line class="cls-6" x1="1212.79" y1="514.19" x2="1224.87" y2="514.19"/>
          <line class="cls-6" x1="1212.79" y1="529.41" x2="1224.87" y2="529.41"/>
          <line class="cls-6" x1="1212.79" y1="544.63" x2="1224.87" y2="544.63"/>
          <line class="cls-6" x1="1212.79" y1="559.85" x2="1224.87" y2="559.85"/>
          <line class="cls-6" x1="1212.79" y1="575.07" x2="1224.87" y2="575.07"/>
          <line class="cls-6" x1="1212.79" y1="590.29" x2="1224.87" y2="590.29"/>
          <line class="cls-6" x1="1212.79" y1="605.52" x2="1224.87" y2="605.52"/>
          <line class="cls-6" x1="1212.79" y1="620.74" x2="1224.87" y2="620.74"/>
          <line class="cls-6" x1="1212.79" y1="635.96" x2="1224.87" y2="635.96"/>
        </g>
      </g>
      <path class="cls-7" d="M1262.16,622.77a4.36,4.36,0,0,1-3-1.19l-15.89-15a4.38,4.38,0,0,1,6-6.37l12.83,12.1,33.6-33.07a4.37,4.37,0,0,1,6.13,6.24l-36.6,36A4.37,4.37,0,0,1,1262.16,622.77Z"/>
    </g>
    <g>
      <g>
        <path class="cls-3" d="M1234,393.94a5.75,5.75,0,0,1-5.72,5.77H1121.71a5.75,5.75,0,0,1-5.71-5.77V228.4a5.75,5.75,0,0,1,5.71-5.77H1228.3a5.75,5.75,0,0,1,5.72,5.77Z"/>
        <polygon class="cls-4" points="1229.08 255.7 1227.08 257.46 1227.62 257.46 1227.62 289.61 1227.22 290.03 1227.62 289.81 1227.62 319.92 1227.78 362.09 1229.08 363.57 1229.08 392.21 1120.34 392.21 1120.34 228.81 1229.08 228.81 1229.08 255.7"/>
        <polygon class="cls-5" points="1227.62 264.18 1221.68 269.44 1221.68 296.67 1227.84 290.51 1227.84 297.68 1221.68 303.02 1221.68 326.88 1227.38 321.12 1227.62 326.35 1221.39 333.31 1221.39 358.18 1216.9 355.38 1217.2 266.57 1227.62 256.04 1227.62 264.18"/>
        <polygon class="cls-6" points="1229.08 392.21 1120.34 392.21 1120.34 228.81 1229.08 228.81 1229.08 255.7 1217.39 265.93 1217.39 355.38 1229.08 363.57 1229.08 392.21"/>
        <polyline class="cls-6" points="1227.62 257.46 1227.62 289.61 1217.54 299.99"/>
        <polyline class="cls-6" points="1227.62 289.81 1227.62 319.92 1217.54 330.29"/>
        <line class="cls-6" x1="1227.62" y1="319.92" x2="1227.62" y2="362.54"/>
        <path class="cls-5" d="M1131.67,239.79a4.19,4.19,0,1,0-4.19,4.2A4.18,4.18,0,0,0,1131.67,239.79Z"/>
        <path class="cls-5" d="M1131.67,255a4.19,4.19,0,1,0-4.19,4.19A4.18,4.18,0,0,0,1131.67,255Z"/>
        <path class="cls-5" d="M1131.67,270.35a4.19,4.19,0,1,0-4.19,4.19A4.19,4.19,0,0,0,1131.67,270.35Z"/>
        <path class="cls-5" d="M1131.67,285.62a4.19,4.19,0,1,0-4.19,4.19A4.19,4.19,0,0,0,1131.67,285.62Z"/>
        <path class="cls-5" d="M1131.67,300.87a4.19,4.19,0,1,0-4.19,4.19A4.18,4.18,0,0,0,1131.67,300.87Z"/>
        <path class="cls-5" d="M1131.67,316.18a4.19,4.19,0,1,0-4.19,4.19A4.19,4.19,0,0,0,1131.67,316.18Z"/>
        <path class="cls-5" d="M1131.67,331.39a4.19,4.19,0,1,0-4.19,4.19A4.18,4.18,0,0,0,1131.67,331.39Z"/>
        <path class="cls-5" d="M1131.67,346.63a4.19,4.19,0,1,0-4.19,4.19A4.19,4.19,0,0,0,1131.67,346.63Z"/>
        <path class="cls-5" d="M1131.67,361.94a4.19,4.19,0,1,0-4.19,4.19A4.19,4.19,0,0,0,1131.67,361.94Z"/>
        <path class="cls-5" d="M1131.67,377.21a4.19,4.19,0,1,0-4.19,4.19A4.18,4.18,0,0,0,1131.67,377.21Z"/>
        <g>
          <line class="cls-6" x1="1115.28" y1="239.63" x2="1127.36" y2="239.63"/>
          <line class="cls-6" x1="1115.28" y1="254.85" x2="1127.36" y2="254.85"/>
          <line class="cls-6" x1="1115.28" y1="270.07" x2="1127.36" y2="270.07"/>
          <line class="cls-6" x1="1115.28" y1="285.29" x2="1127.36" y2="285.29"/>
          <line class="cls-6" x1="1115.28" y1="300.51" x2="1127.36" y2="300.51"/>
          <line class="cls-6" x1="1115.28" y1="315.74" x2="1127.36" y2="315.74"/>
          <line class="cls-6" x1="1115.28" y1="330.96" x2="1127.36" y2="330.96"/>
          <line class="cls-6" x1="1115.28" y1="346.18" x2="1127.36" y2="346.18"/>
          <line class="cls-6" x1="1115.28" y1="361.4" x2="1127.36" y2="361.4"/>
          <line class="cls-6" x1="1115.28" y1="376.63" x2="1127.36" y2="376.63"/>
        </g>
      </g>
      <path class="cls-7" d="M1164.65,363.44a4.36,4.36,0,0,1-3-1.2l-15.89-15a4.38,4.38,0,0,1,6-6.37l12.83,12.1,33.6-33.06a4.37,4.37,0,0,1,6.13,6.23l-36.6,36A4.35,4.35,0,0,1,1164.65,363.44Z"/>
    </g>
    <g>
      <g>
        <path class="cls-3" d="M1027.41,348.73a5.75,5.75,0,0,1-5.72,5.78H915.11a5.75,5.75,0,0,1-5.72-5.78V183.2a5.74,5.74,0,0,1,5.72-5.77h106.58a5.74,5.74,0,0,1,5.72,5.77Z"/>
        <polygon class="cls-4" points="1022.48 210.5 1020.47 212.26 1021.01 212.26 1021.01 244.41 1020.61 244.83 1021.01 244.6 1021.01 274.71 1021.17 316.89 1022.48 318.37 1022.48 347.01 913.73 347.01 913.73 183.61 1022.48 183.61 1022.48 210.5"/>
        <polygon class="cls-5" points="1021.01 218.98 1015.07 224.24 1015.07 251.47 1021.23 245.31 1021.23 252.47 1015.07 257.82 1015.07 281.67 1020.77 275.92 1021.01 281.14 1014.78 288.11 1014.78 312.98 1010.29 310.18 1010.59 221.37 1021.01 210.84 1021.01 218.98"/>
        <polygon class="cls-6" points="1022.48 347.01 913.73 347.01 913.73 183.61 1022.48 183.61 1022.48 210.5 1010.78 220.73 1010.78 310.18 1022.48 318.37 1022.48 347.01"/>
        <polyline class="cls-6" points="1021.01 212.26 1021.01 244.41 1010.93 254.79"/>
        <polyline class="cls-6" points="1021.01 244.6 1021.01 274.71 1010.93 285.09"/>
        <line class="cls-6" x1="1021.01" y1="274.71" x2="1021.01" y2="317.34"/>
        <path class="cls-5" d="M925.06,194.59a4.19,4.19,0,1,0-4.19,4.19A4.19,4.19,0,0,0,925.06,194.59Z"/>
        <path class="cls-5" d="M925.06,209.84a4.19,4.19,0,1,0-4.19,4.19A4.18,4.18,0,0,0,925.06,209.84Z"/>
        <path class="cls-5" d="M925.06,225.15a4.19,4.19,0,1,0-4.19,4.19A4.18,4.18,0,0,0,925.06,225.15Z"/>
        <path class="cls-5" d="M925.06,240.42a4.19,4.19,0,1,0-4.19,4.19A4.19,4.19,0,0,0,925.06,240.42Z"/>
        <path class="cls-5" d="M925.06,255.66a4.19,4.19,0,1,0-4.19,4.2A4.19,4.19,0,0,0,925.06,255.66Z"/>
        <path class="cls-5" d="M925.06,271a4.19,4.19,0,1,0-4.19,4.19A4.19,4.19,0,0,0,925.06,271Z"/>
        <path class="cls-5" d="M925.06,286.19a4.19,4.19,0,1,0-4.19,4.18A4.18,4.18,0,0,0,925.06,286.19Z"/>
        <path class="cls-5" d="M925.06,301.43a4.19,4.19,0,1,0-4.19,4.19A4.19,4.19,0,0,0,925.06,301.43Z"/>
        <path class="cls-5" d="M925.06,316.74a4.19,4.19,0,1,0-4.19,4.19A4.18,4.18,0,0,0,925.06,316.74Z"/>
        <path class="cls-5" d="M925.06,332a4.19,4.19,0,1,0-4.19,4.19A4.19,4.19,0,0,0,925.06,332Z"/>
        <g>
          <line class="cls-6" x1="908.67" y1="194.42" x2="920.75" y2="194.42"/>
          <line class="cls-6" x1="908.67" y1="209.65" x2="920.75" y2="209.65"/>
          <line class="cls-6" x1="908.67" y1="224.87" x2="920.75" y2="224.87"/>
          <line class="cls-6" x1="908.67" y1="240.09" x2="920.75" y2="240.09"/>
          <line class="cls-6" x1="908.67" y1="255.31" x2="920.75" y2="255.31"/>
          <line class="cls-6" x1="908.67" y1="270.54" x2="920.75" y2="270.54"/>
          <line class="cls-6" x1="908.67" y1="285.76" x2="920.75" y2="285.76"/>
          <line class="cls-6" x1="908.67" y1="300.98" x2="920.75" y2="300.98"/>
          <line class="cls-6" x1="908.67" y1="316.2" x2="920.75" y2="316.2"/>
          <line class="cls-6" x1="908.67" y1="331.42" x2="920.75" y2="331.42"/>
        </g>
      </g>
      <path class="cls-7" d="M958,318.23a4.35,4.35,0,0,1-3-1.19l-15.89-15a4.38,4.38,0,0,1,6-6.37L958,307.79l33.6-33.07a4.37,4.37,0,0,1,6.13,6.24l-36.6,36A4.39,4.39,0,0,1,958,318.23Z"/>
    </g>
    <g>
      <polyline class="Graphic-Style-9" points="836.59 328.33 867.58 328.33 874.6 335.35 900.71 335.35"/>
      <line class="Graphic-Style-9" x1="840.51" y1="338.56" x2="852.26" y2="338.56"/>
      <polyline class="Graphic-Style-9" points="840.51 366.36 874.37 366.36 894.92 386.91"/>
      <polyline class="Graphic-Style-9" points="836.59 374.73 868.65 374.73 889.33 395.41 1069.08 395.41 1082.72 381.77 1097.76 381.77"/>
      <line class="Graphic-Style-9" x1="1041.33" y1="321.3" x2="1097.76" y2="321.3"/>
      <polyline class="Graphic-Style-9" points="1037.57 312.83 1063.9 312.83 1072.78 303.95 1102 303.95"/>
      <line class="Graphic-Style-9" x1="1075.55" y1="313.08" x2="1095.88" y2="313.08"/>
      <line class="Graphic-Style-9" x1="929.06" y1="366.36" x2="929.06" y2="384.51"/>
      <line class="Graphic-Style-9" x1="924.87" y1="401.9" x2="911.14" y2="415.63"/>
      <line class="Graphic-Style-9" x1="894.92" y1="431.06" x2="848.55" y2="477.44"/>
      <polyline class="Graphic-Style-9" points="820.07 503.2 787.03 536.24 787.03 544.84 770.23 544.84 750.57 564.5 734.33 564.5"/>
      <polyline class="Graphic-Style-9" points="892.71 411.31 917.61 436.21 933.63 436.21 1055.18 557.77"/>
      <line class="Graphic-Style-9" x1="967.18" y1="369.01" x2="967.18" y2="385.82"/>
      <line class="Graphic-Style-9" x1="967.18" y1="401.9" x2="967.18" y2="460.64"/>
      <polyline class="Graphic-Style-9" points="967.18 477.44 967.18 484.54 1042.03 559.39"/>
      <polyline class="Graphic-Style-9" points="978.78 369.43 978.78 466.81 1042.41 530.44 1137.27 530.44 1158.09 551.26 1199.35 551.26"/>
      <line class="Graphic-Style-9" x1="939.27" y1="551.26" x2="978.02" y2="512.51"/>
      <polyline class="Graphic-Style-9" points="1008.88 481.39 1027.19 463.08 1095.88 463.08 1132.72 426.24 1132.72 411.31"/>
      <polyline class="Graphic-Style-9" points="1143.86 411.31 1143.86 433.89 1104.97 472.77 1104.97 519.82"/>
      <line class="Graphic-Style-9" x1="1104.97" y1="536.94" x2="1104.97" y2="555.9"/>
      <polyline class="Graphic-Style-9" points="1155.14 411.31 1155.14 460.64 1169.98 475.48"/>
      <polyline class="Graphic-Style-9" points="1165.29 411.31 1165.29 454.25 1184.13 473.09 1184.13 489.16 1197.22 502.25"/>
      <polyline class="Graphic-Style-9" points="939.27 366.36 939.27 403.91 920.15 423.04"/>
      <line class="Graphic-Style-9" x1="904.47" y1="440.94" x2="847.47" y2="497.94"/>
      <polyline class="Graphic-Style-9" points="798.18 408.77 798.18 460.34 829.48 491.65 829.48 510.07 842.65 523.23 842.65 546.42"/>
      <polyline class="Graphic-Style-9" points="784.07 408.77 784.07 457.4 768.64 472.82"/>
      <polyline class="Graphic-Style-9" points="770.23 407.08 770.23 448 754.2 464.02 754.2 492.2 734.72 511.69"/>
      <line class="Graphic-Style-9" x1="1143.86" y1="616.13" x2="1197.22" y2="616.13"/>
      <polyline class="Graphic-Style-9" points="1140.09 628.37 1170.54 628.37 1182.52 640.34 1203.11 640.34"/>
      <polyline class="Graphic-Style-9" points="1002.76 629.37 967.18 629.37 952.37 644.18 933.63 644.18"/>
      <line class="Graphic-Style-9" x1="933.63" y1="621.45" x2="951.5" y2="621.45"/>
      <line class="Graphic-Style-9" x1="968.2" y1="641.61" x2="1002.76" y2="641.61"/>
      <polyline class="Graphic-Style-9" points="729.98 624.2 758.2 624.2 764.02 630.02 794.18 630.02"/>
      <line class="Graphic-Style-9" x1="732.1" y1="614.33" x2="794.18" y2="614.33"/>
      <line class="Graphic-Style-9" x1="737.74" y1="633.37" x2="753.62" y2="633.37"/>
    </g>
    <path class="cls-7" d="M560.72,416.46,499.21,477a7.36,7.36,0,0,1-10.2.11l-26.7-25.18a7.35,7.35,0,1,1,10.09-10.69L494,461.54,550.4,406a7.36,7.36,0,0,1,10.32,10.49Z"/>
    <g>
      <rect class="cls-5" x="335.34" y="481.16" width="17.34" height="32.9"/>
      <rect class="cls-5" x="335.34" y="538.73" width="17.34" height="32.9"/>
    </g>
    <g>
      <g>
        <path class="cls-5" d="M206.48,517.13a4.62,4.62,0,0,1-4.48,5.74H142.9a4.08,4.08,0,0,1-4-5.2l11.19-38.79H197Z"/>
        <path class="cls-8" d="M206.48,517.13a4.62,4.62,0,0,1-4.48,5.74H142.9a4.08,4.08,0,0,1-4-5.2l11.19-38.79H197Z"/>
        <path class="cls-5" d="M183.37,489.79H163.53c-20.74,0-28.45-16.81-28.45-37.54V311.77a37.54,37.54,0,0,1,37.54-37.54h0a37.54,37.54,0,0,1,37.54,37.54V452.25C210.16,473,204.1,489.79,183.37,489.79Z"/>
        <path class="cls-8" d="M183.37,489.79H163.53c-20.74,0-28.45-16.81-28.45-37.54V311.77a37.54,37.54,0,0,1,37.54-37.54h0a37.54,37.54,0,0,1,37.54,37.54V452.25C210.16,473,204.1,489.79,183.37,489.79Z"/>
      </g>
      <g>
        <path class="cls-4" d="M317.68,579.7V791h10.39a21,21,0,0,1,21,21v9.84H171.87V791h0V521.69l-1.9-4.55a10,10,0,0,1-.76-3.81V451.44l-4-7.24a36.4,36.4,0,0,1-4.52-17.55V333.56a50.3,50.3,0,0,1,50.3-50.3h93.66a50.29,50.29,0,0,1,50.3,50.3V517.44H348v36.72a25.55,25.55,0,0,1-25.55,25.54Z"/>
        <path class="cls-1" d="M251.69,283.26H211a50.3,50.3,0,0,0-50.3,50.3v93.09a36.4,36.4,0,0,0,4.52,17.55l4,7.24v61.89a9.88,9.88,0,0,0,.76,3.8l1.9,4.57V791H317.68V517.44h37.25V333.56a50.29,50.29,0,0,0-50.29-50.3Z"/>
        <path class="cls-6" d="M317.68,579.71h4.79A25.55,25.55,0,0,0,348,554.16V517.44H317.68Z"/>
        <polyline class="cls-6" points="324.6 356.71 324.6 515.81 169.19 515.81"/>
        <path class="cls-9" d="M311.34,469a8,8,0,0,1-9.94,5.4l-43.92-13a8,8,0,0,1-5.4-9.94L279.75,358a8,8,0,0,1,9.94-5.4l43.91,13a8,8,0,0,1,5.4,9.94Z"/>
        <path class="cls-4" d="M297.2,426.14l-4.32-1.28,2.09-7.07-3.23-1c-.25-.07-.26.15-.31.3l-2,6.7-4.32-1.28c.71-2.38,1.41-4.75,2.13-7.18l-8.59-2.55a.35.35,0,0,1,0-.13q1.11-2.26,2.21-4.54c.11-.23.25-.17.41-.12l2.64.79a1.65,1.65,0,0,0,2.33-1.29L291.76,389a2.23,2.23,0,0,0-1.48-2.94c-.69-.25-1.4-.46-2.11-.68l-1.29-.38,1.36-4.59,8.61,2.55,2.09-7.05,4.32,1.28q-1,3.3-2,6.59c-.08.26,0,.37.24.44.75.19,1.5.41,2.25.62l.81.24c.06-.09.08-.11.08-.13l2-6.75,4.32,1.28c-.05.15-.11.29-.15.44l-1.77,6c-.2.68-.2.67.48,1a18.08,18.08,0,0,1,5.16,3,7,7,0,0,1,2.57,4.75,9.27,9.27,0,0,1-.64,4.07,6.48,6.48,0,0,1-4.73,4.24l-.53.12.19.17a24.43,24.43,0,0,1,2,1.51,6.47,6.47,0,0,1,2.23,5.13,12.14,12.14,0,0,1-1.8,5.71,8.34,8.34,0,0,1-3.76,3.48,11.37,11.37,0,0,1-5.82.78c-1.57-.15-3.14-.48-4.7-.77-.33-.06-.46,0-.54.34-.15.57-.33,1.14-.5,1.71Zm-4-14.57c1.33.4,2.58.8,3.86,1.13a16.33,16.33,0,0,0,5.29.66,4.8,4.8,0,0,0,3.12-1.08,4.08,4.08,0,0,0,.23-5.84,10,10,0,0,0-4.17-2.6c-1.67-.59-3.38-1.07-5.06-1.61-.37-.12-.51-.05-.62.33-.83,2.86-1.68,5.71-2.52,8.57Zm5.36-18.12c-.39,1.33-.79,2.66-1.18,4-.06.2-.1.35.18.44a24.17,24.17,0,0,0,6.62,1.37,4.92,4.92,0,0,0,3.25-.94,3.92,3.92,0,0,0,.76-5,6.79,6.79,0,0,0-3.38-2.5c-1.52-.58-3.1-1-4.64-1.53-.3-.09-.39,0-.46.29C299.31,390.84,298.93,392.15,298.54,393.45Z"/>
        <path class="cls-10" d="M248.7,430.69l30-15.84a11.49,11.49,0,0,1,16.38,6.84l5.2,17.16a11.51,11.51,0,0,1-9.53,14.74l-42,5.44"/>
        <line class="cls-6" x1="252.75" y1="556.82" x2="252.75" y2="791"/>
        <path class="cls-6" d="M209.19,375.2v34.33A14.77,14.77,0,0,0,224,424.3H248.7V463H188c-8.05,0-15.94-6.82-18.68-12.34"/>
        <path class="cls-11" d="M283.35,268.36c-13,8-22.89,8.52-36.45,0"/>
        <path class="cls-11" d="M273.77,243.08a11.71,11.71,0,1,1,23.42,0"/>
        <path class="cls-11" d="M235.18,243.08a11.72,11.72,0,0,1,23.43,0"/>
        <path class="cls-1" d="M349.09,812v9.84H267.14V812a21,21,0,0,0-13.31-19.56V791h74.24A21,21,0,0,1,349.09,812Z"/>
        <path class="cls-1" d="M171.87,791h74.24a21,21,0,0,1,21,21v9.85H171.87Z"/>
      </g>
      <polygon class="cls-5" points="277.31 788.99 254.75 788.99 254.75 554.82 277.31 567.82 277.31 788.99"/>
      <g>
        <path class="cls-1" d="M173,194.71c0-42.11,29.85-71.74,72-71.74h15.78c42.11,0,80.54,29.63,80.54,71.74v80h0c0,24.9-38.33,46.58-84.8,46.58S173,299.61,173,274.71h0Z"/>
        <g>
          <g>
            <g>
              <path class="cls-4" d="M206,266.35c0,19.83,17.35,36.91,37.18,36.91h24.13c19.84,0,34.84-17.08,34.84-36.91V213.91a28.4,28.4,0,0,0-28.41-28.4H234.42A28.4,28.4,0,0,0,206,213.91Z"/>
              <path class="cls-1" d="M206,229.64v36.71c0,19.83,17.35,36.91,37.18,36.91h24.13c19.84,0,34.84-17.08,34.84-36.91V223.63"/>
            </g>
            <g>
              <path class="cls-12" d="M206,266.35c0,19.83,17.35,36.91,37.18,36.91h24.13c19.84,0,34.84-17.08,34.84-36.91V213.91a28.4,28.4,0,0,0-28.41-28.4H234.42A28.4,28.4,0,0,0,206,213.91Z"/>
              <path class="cls-12" d="M206,229.64v36.71c0,19.83,17.35,36.91,37.18,36.91h24.13c19.84,0,34.84-17.08,34.84-36.91V223.63"/>
            </g>
          </g>
          <g>
            <g>
              <path class="cls-6" d="M289,239.25a10,10,0,1,0-20,0"/>
              <path class="cls-6" d="M251,239.25a10,10,0,0,0-20,0"/>
            </g>
            <path class="cls-6" d="M277.19,268.21c-20.38,19.08-37.81,0-37.81,0"/>
          </g>
          <g>
            <g>
              <path class="cls-5" d="M240.88,148.66c17-2.5,28.36,1.47,43.57,10.52,11.79,7,22.46-6,22.46-6,8.52,23.54,1.26,68.78-4.75,76.6v-14c0-9.88-5.94-24.8-14.7-23-29.66,6-33.61-15.17-62.91-1.37-7.69,3.63-9.82,17.15-11.72,28.24-.84,5-5.77,14.07-5.77,14.07l0,1.13c-6.07-9-8.23-36.5-5.54-50.85C204.36,168.92,215.16,152.45,240.88,148.66Z"/>
              <path class="cls-1" d="M240.88,148.66c17-2.5,28.36,1.47,43.57,10.52,11.79,7,22.46-6,22.46-6,8.52,23.54,1.26,68.78-4.75,76.6v-14c0-9.88-5.94-24.8-14.7-23-29.66,6-33.61-15.17-62.91-1.37-7.69,3.63-9.82,17.15-11.72,28.24-.84,5-5.77,14.07-5.77,14.07l0,1.13c-6.07-9-8.23-36.5-5.54-50.85C204.36,168.92,215.16,152.45,240.88,148.66Z"/>
            </g>
            <g>
              <path class="cls-12" d="M240.88,148.66c17-2.5,28.36,1.47,43.57,10.52,11.79,7,22.46-6,22.46-6,8.52,23.54,1.26,68.78-4.75,76.6v-14c0-9.88-5.94-24.8-14.7-23-29.66,6-33.61-15.17-62.91-1.37-7.69,3.63-9.82,17.15-11.72,28.24-.84,5-5.77,14.07-5.77,14.07l0,1.13c-6.07-9-8.23-36.5-5.54-50.85C204.36,168.92,215.16,152.45,240.88,148.66Z"/>
              <path class="cls-12" d="M240.88,148.66c17-2.5,28.36,1.47,43.57,10.52,11.79,7,22.46-6,22.46-6,8.52,23.54,1.26,68.78-4.75,76.6v-14c0-9.88-5.94-24.8-14.7-23-29.66,6-33.61-15.17-62.91-1.37-7.69,3.63-9.82,17.15-11.72,28.24-.84,5-5.77,14.07-5.77,14.07l0,1.13c-6.07-9-8.23-36.5-5.54-50.85C204.36,168.92,215.16,152.45,240.88,148.66Z"/>
            </g>
          </g>
        </g>
      </g>
    </g>
    <path class="cls-7" d="M668.87,571.08h-6.32V560.75h-4.72c-.37,0-.29.3-.29.52v9.8h-6.32V560.57H638.66c0-.11,0-.15,0-.18.39-2.32.79-4.65,1.17-7,.05-.36.26-.33.5-.33h3.87c1.77,0,2.62-.86,2.62-2.65V523.32a3.14,3.14,0,0,0-3.17-3.36c-1-.06-2.07-.05-3.1-.07h-1.89v-6.7h12.6V502.88h6.32c0,3.21,0,6.43,0,9.64,0,.38.11.5.49.49,1.09,0,2.18,0,3.27-.06h1.19c0-.15.06-.18.06-.21,0-3.29,0-6.57,0-9.86h6.32c0,.22,0,.43,0,.65,0,2.91,0,5.81,0,8.71,0,1,0,1,1,1.11a25.52,25.52,0,0,1,8.15,2,9.78,9.78,0,0,1,5.34,5.36,12.83,12.83,0,0,1,.75,5.72,9.11,9.11,0,0,1-4.67,7.58l-.67.37.34.16a33.29,33.29,0,0,1,3.24,1.24,9.08,9.08,0,0,1,5,6,16.94,16.94,0,0,1-.15,8.4,11.63,11.63,0,0,1-3.67,6.16,15.88,15.88,0,0,1-7.51,3.37c-2.18.43-4.42.6-6.63.84-.48.05-.61.2-.6.66,0,.84,0,1.67,0,2.51Q668.85,567.41,668.87,571.08Zm-11.21-18c2,0,3.8,0,5.65,0a23.33,23.33,0,0,0,7.37-1.21,6.79,6.79,0,0,0,3.77-2.7,5.73,5.73,0,0,0-2-7.95,14.21,14.21,0,0,0-6.64-1.84c-2.48-.11-5-.08-7.45-.14-.55,0-.7.14-.7.69,0,4.18,0,8.35,0,12.52Zm0-26.48c0,1.94,0,3.88,0,5.82,0,.3,0,.51.42.52a34.19,34.19,0,0,0,9.46-.78,7,7,0,0,0,4-2.56,5.53,5.53,0,0,0-1-7.08,9.59,9.59,0,0,0-5.54-2c-2.28-.18-4.57-.13-6.85-.2-.44,0-.5.19-.5.56C657.67,522.81,657.67,524.72,657.67,526.63Z"/>
    <path class="cls-7" d="M973.07,273.8h-6.31V263.48H962c-.38,0-.3.3-.3.52v9.79h-6.31V263.3H942.86c0-.11-.05-.15,0-.18.39-2.32.79-4.65,1.17-7,0-.35.26-.32.5-.32h3.87a2.31,2.31,0,0,0,2.62-2.65V226.05a3.14,3.14,0,0,0-3.17-3.36c-1-.06-2.06-.05-3.1-.07h-1.89v-6.7h12.61V205.61h6.31q0,4.81,0,9.64c0,.38.11.5.5.49,1.08,0,2.17,0,3.26-.06h1.19a1.39,1.39,0,0,0,.07-.21c0-3.29,0-6.57,0-9.86h6.31c0,.22,0,.43,0,.65V215c0,1,0,1,1,1.11a25.26,25.26,0,0,1,8.15,2,9.75,9.75,0,0,1,5.34,5.36,12.94,12.94,0,0,1,.76,5.72,9.11,9.11,0,0,1-4.68,7.57l-.66.38.33.16a33.22,33.22,0,0,1,3.24,1.23,9.1,9.1,0,0,1,5,6,17,17,0,0,1-.15,8.4,11.63,11.63,0,0,1-3.67,6.16,15.94,15.94,0,0,1-7.51,3.37c-2.18.43-4.41.6-6.63.84-.47,0-.61.2-.59.66,0,.83,0,1.67,0,2.51Q973.05,270.12,973.07,273.8Zm-11.2-18c2,0,3.8,0,5.64,0a23.44,23.44,0,0,0,7.38-1.21,6.82,6.82,0,0,0,3.76-2.71,5.72,5.72,0,0,0-2-7.94,14.25,14.25,0,0,0-6.65-1.84c-2.48-.11-5-.08-7.45-.14-.55,0-.7.14-.7.69,0,4.18,0,8.35,0,12.52Zm0-26.48c0,2,0,3.89,0,5.83,0,.3,0,.51.42.52a34.19,34.19,0,0,0,9.46-.78,7,7,0,0,0,4-2.56,5.53,5.53,0,0,0-1-7.08,9.56,9.56,0,0,0-5.54-2c-2.27-.18-4.57-.13-6.85-.21-.44,0-.5.2-.5.57C961.87,225.54,961.87,227.45,961.87,229.35Z"/>
    <path class="cls-7" d="M1179.32,316.43H1173V306.11h-4.72c-.38,0-.3.3-.3.52,0,3.27,0,6.53,0,9.8h-6.32v-10.5h-12.56a1.37,1.37,0,0,1,0-.18c.39-2.33.8-4.65,1.17-7,.06-.35.27-.32.51-.32h3.86c1.78,0,2.62-.87,2.62-2.66V268.68a3.14,3.14,0,0,0-3.16-3.36c-1-.06-2.07-.06-3.1-.07h-1.89v-6.7h12.6V248.24H1168c0,3.21,0,6.42,0,9.64,0,.37.12.5.5.49,1.09,0,2.18-.05,3.27-.06h1.19a1.53,1.53,0,0,0,.06-.22c0-3.28,0-6.57,0-9.85h6.32c0,.21,0,.43,0,.65v8.71c0,1,0,1,1,1.1a25.8,25.8,0,0,1,8.14,2,9.8,9.8,0,0,1,5.35,5.36,13,13,0,0,1,.75,5.73,9.07,9.07,0,0,1-4.68,7.57c-.19.12-.39.22-.66.38l.33.15a31.43,31.43,0,0,1,3.24,1.24,9,9,0,0,1,5,6,16.83,16.83,0,0,1-.14,8.4,11.63,11.63,0,0,1-3.67,6.16,16.08,16.08,0,0,1-7.51,3.37c-2.18.42-4.42.59-6.63.83-.48,0-.62.21-.6.67,0,.83,0,1.67,0,2.5Zm-11.21-18c2,0,3.8,0,5.65,0a23.15,23.15,0,0,0,7.37-1.22,6.69,6.69,0,0,0,3.76-2.7,5.72,5.72,0,0,0-2-7.95,14.24,14.24,0,0,0-6.65-1.83c-2.47-.12-5-.08-7.44-.15-.55,0-.71.15-.7.7,0,4.17,0,8.34,0,12.52Zm0-26.48c0,1.94,0,3.89,0,5.83,0,.3,0,.51.42.52a33.82,33.82,0,0,0,9.46-.79,7,7,0,0,0,4-2.56,5.52,5.52,0,0,0-1-7.07,9.55,9.55,0,0,0-5.55-2c-2.27-.18-4.56-.14-6.84-.21-.45,0-.51.2-.5.56C1168.12,268.17,1168.11,270.08,1168.11,272Z"/>
    <path class="cls-7" d="M1275.12,578.32h-6.32V568h-4.72c-.38,0-.29.3-.29.52,0,3.27,0,6.53,0,9.8h-6.32v-10.5h-12.56c0-.12-.05-.15,0-.19.38-2.32.79-4.64,1.16-7,.06-.35.27-.33.51-.33h3.86c1.78,0,2.62-.86,2.62-2.65V530.56a3.12,3.12,0,0,0-3.16-3.35c-1-.06-2.07-.06-3.1-.07h-1.89v-6.7h12.6V510.12h6.32c0,3.22,0,6.43,0,9.64,0,.38.12.51.5.49,1.09,0,2.18,0,3.27,0h1.19a2,2,0,0,0,.06-.22c0-3.28,0-6.57,0-9.86h6.32c0,.22,0,.44,0,.65v8.72c0,1,0,1,1,1.1a25.8,25.8,0,0,1,8.14,2,9.8,9.8,0,0,1,5.35,5.36,13,13,0,0,1,.75,5.72,9.1,9.1,0,0,1-4.68,7.58l-.66.38.33.15a31.43,31.43,0,0,1,3.24,1.24,9,9,0,0,1,5,6,16.83,16.83,0,0,1-.14,8.4,11.6,11.6,0,0,1-3.67,6.15,16,16,0,0,1-7.51,3.38c-2.18.42-4.42.59-6.63.83-.48.05-.62.21-.6.66,0,.84,0,1.68,0,2.51Zm-11.21-18c1.95,0,3.8,0,5.65,0a23.43,23.43,0,0,0,7.37-1.22,6.73,6.73,0,0,0,3.76-2.7,5.72,5.72,0,0,0-2-7.95,14.25,14.25,0,0,0-6.65-1.84c-2.47-.11-5-.08-7.44-.14-.55,0-.71.14-.7.7,0,4.17,0,8.34,0,12.51Zm0-26.48c0,1.94,0,3.88,0,5.82,0,.3,0,.52.42.52a33.81,33.81,0,0,0,9.46-.78,7,7,0,0,0,4-2.56,5.53,5.53,0,0,0-1-7.08,9.62,9.62,0,0,0-5.55-2c-2.27-.17-4.56-.13-6.84-.2-.45,0-.51.2-.5.56C1263.92,530.06,1263.91,532,1263.91,533.87Z"/>
    <path class="cls-7" d="M1078.53,662.75h-6.32V652.42h-4.72c-.38,0-.3.3-.3.52q0,4.89,0,9.8h-6.32V652.24h-12.56a1.37,1.37,0,0,1,0-.18c.39-2.32.79-4.65,1.17-7,.06-.35.27-.32.5-.32h3.87a2.32,2.32,0,0,0,2.62-2.65V615a3.14,3.14,0,0,0-3.16-3.36c-1-.06-2.07,0-3.11-.07h-1.88v-6.7h12.6V594.55h6.32c0,3.21,0,6.42,0,9.64,0,.38.11.5.5.49,1.09,0,2.18,0,3.27-.06h1.18a1.39,1.39,0,0,0,.07-.21c0-3.29,0-6.57,0-9.86h6.32c0,.22,0,.43,0,.65v8.71c0,1,0,1,1,1.11a25.27,25.27,0,0,1,8.14,2,9.75,9.75,0,0,1,5.34,5.36,12.94,12.94,0,0,1,.76,5.72,9.09,9.09,0,0,1-4.68,7.57l-.66.38.33.16a30.07,30.07,0,0,1,3.24,1.24,9,9,0,0,1,5,6,16.94,16.94,0,0,1-.15,8.4,11.55,11.55,0,0,1-3.66,6.16,15.87,15.87,0,0,1-7.52,3.37c-2.18.43-4.41.6-6.63.84-.47,0-.61.2-.59.66,0,.83,0,1.67,0,2.51Zm-11.21-18c2,0,3.8.05,5.65,0a23.42,23.42,0,0,0,7.37-1.21,6.82,6.82,0,0,0,3.76-2.7,5.72,5.72,0,0,0-2-8,14.25,14.25,0,0,0-6.65-1.84c-2.48-.11-5-.08-7.45-.14-.54,0-.7.14-.69.69,0,4.18,0,8.35,0,12.52Zm0-26.48v5.83c0,.3,0,.51.42.52a34.12,34.12,0,0,0,9.45-.78,7.07,7.07,0,0,0,4-2.56,5.54,5.54,0,0,0-1-7.08,9.62,9.62,0,0,0-5.55-2c-2.27-.18-4.56-.13-6.85-.21-.44,0-.5.2-.5.57C1067.32,614.48,1067.32,616.39,1067.32,618.29Z"/>
    <path class="cls-7" d="M865.1,653.3h-6.31V643h-4.73c-.37,0-.29.3-.29.52v9.8h-6.31V642.79H834.89c0-.11,0-.15,0-.18.39-2.32.79-4.65,1.17-7,.05-.35.26-.33.5-.33q1.93,0,3.87,0c1.77,0,2.62-.86,2.62-2.65V605.54a3.14,3.14,0,0,0-3.17-3.36c-1,0-2.06,0-3.1-.06h-1.89v-6.7h12.61V585.1h6.31c0,3.21,0,6.43,0,9.64,0,.38.11.51.5.49,1.08,0,2.17,0,3.26-.06h1.19c0-.14.07-.18.07-.21,0-3.29,0-6.57,0-9.86h6.31c0,.22,0,.44,0,.65v8.71c0,1,0,1,1,1.11a25.79,25.79,0,0,1,8.15,2,9.78,9.78,0,0,1,5.34,5.36,13,13,0,0,1,.76,5.72,9.12,9.12,0,0,1-4.68,7.58c-.2.11-.4.22-.66.38l.33.15a33.29,33.29,0,0,1,3.24,1.24,9.08,9.08,0,0,1,5,6,16.91,16.91,0,0,1-.15,8.39,11.59,11.59,0,0,1-3.67,6.16,16,16,0,0,1-7.51,3.38c-2.18.42-4.41.59-6.63.83-.47.05-.61.21-.6.67,0,.83,0,1.67,0,2.5Q865.08,649.63,865.1,653.3Zm-11.2-18c2,0,3.8,0,5.64,0a23.45,23.45,0,0,0,7.38-1.22,6.8,6.8,0,0,0,3.76-2.7,5.73,5.73,0,0,0-2-7.95,14.25,14.25,0,0,0-6.65-1.84c-2.48-.11-5-.08-7.45-.14-.55,0-.7.14-.7.7q0,6.26,0,12.51Zm0-26.48c0,1.94,0,3.88,0,5.82,0,.3,0,.52.42.52a34.19,34.19,0,0,0,9.46-.78,7,7,0,0,0,4-2.56,5.53,5.53,0,0,0-1-7.08,9.56,9.56,0,0,0-5.54-2c-2.27-.18-4.57-.13-6.85-.2-.44,0-.5.2-.5.56C853.9,605,853.9,606.94,853.9,608.85Z"/>
    <path class="cls-7" d="M768.25,317.43h-6.32V307.11h-4.72c-.38,0-.3.3-.3.52v9.8H750.6v-10.5H738c0-.11,0-.15,0-.18.39-2.33.79-4.65,1.17-7,.05-.35.27-.32.5-.32h3.87a2.32,2.32,0,0,0,2.62-2.66V269.68a3.14,3.14,0,0,0-3.16-3.36c-1-.06-2.07-.06-3.11-.07H738v-6.7h12.6V249.24h6.31q0,4.81,0,9.64c0,.37.11.5.5.49,1.09,0,2.18-.05,3.27-.06h1.18a1.06,1.06,0,0,0,.07-.22c0-3.28,0-6.57,0-9.85h6.32c0,.21,0,.43,0,.65v8.71c0,1,0,1,1,1.1a25.8,25.8,0,0,1,8.14,2,9.78,9.78,0,0,1,5.34,5.36,13,13,0,0,1,.76,5.73,9.09,9.09,0,0,1-4.68,7.57c-.2.12-.4.22-.66.38l.33.15a33.29,33.29,0,0,1,3.24,1.24,9.1,9.1,0,0,1,5,6,17,17,0,0,1-.15,8.4,11.56,11.56,0,0,1-3.67,6.16,16,16,0,0,1-7.51,3.37c-2.18.42-4.41.59-6.63.83-.47,0-.61.21-.59.67,0,.83,0,1.67,0,2.5Zm-11.21-18c2,0,3.8,0,5.64,0a23.16,23.16,0,0,0,7.38-1.22,6.72,6.72,0,0,0,3.76-2.7,5.72,5.72,0,0,0-2-7.95,14.24,14.24,0,0,0-6.65-1.83c-2.48-.12-5-.08-7.45-.15-.55,0-.7.15-.7.7,0,4.17,0,8.34,0,12.52ZM757,273v5.83c0,.3,0,.51.42.52a33.78,33.78,0,0,0,9.45-.79,7,7,0,0,0,4-2.56,5.54,5.54,0,0,0-1-7.07,9.55,9.55,0,0,0-5.55-2c-2.27-.18-4.57-.14-6.85-.21-.44,0-.5.2-.5.56C757,269.17,757,271.08,757,273Z"/>
    <g>
      <g>
        <g>
          <path class="cls-13" d="M1278.06,115.79s-9.44-14.17-22.82-14.17h-41.72L1226.9,115h35.42"/>
          <polyline class="cls-13" points="1249.73 122.87 1244.22 127.59 1214.3 127.59 1195.02 108.31"/>
          <path class="cls-13" d="M1192.26,98.47h-14.17s-5.51,8.66,1.58,15h12.59"/>
          <path class="cls-13" d="M1245.79,107.91Z"/>
          <path class="cls-13" d="M1239.89,107.91Z"/>
          <path class="cls-13" d="M1233.2,107.91Z"/>
          <line class="cls-13" x1="1155.27" y1="106.08" x2="1096.49" y2="106.08"/>
          <line class="cls-13" x1="1167.86" y1="113.42" x2="1142.67" y2="113.42"/>
        </g>
        <g>
          <g>
            <path class="Graphic-Style-9" d="M1278.06,115.79s-9.44-14.17-22.82-14.17h-41.72L1226.9,115h35.42"/>
            <path class="Graphic-Style-9" d="M1278.06,115.79s-9.44-14.17-22.82-14.17h-41.72L1226.9,115h35.42"/>
          </g>
          <g>
            <polyline class="Graphic-Style-9" points="1249.73 122.87 1244.22 127.59 1214.3 127.59 1195.02 108.31"/>
            <polyline class="Graphic-Style-9" points="1249.73 122.87 1244.22 127.59 1214.3 127.59 1195.02 108.31"/>
          </g>
          <g>
            <path class="Graphic-Style-9" d="M1192.26,98.47h-14.17s-5.51,8.66,1.58,15h12.59"/>
            <path class="Graphic-Style-9" d="M1192.26,98.47h-14.17s-5.51,8.66,1.58,15h12.59"/>
          </g>
          <g>
            <path class="Graphic-Style-9" d="M1245.79,107.91Z"/>
            <path class="Graphic-Style-9" d="M1245.79,107.91Z"/>
          </g>
          <g>
            <path class="Graphic-Style-9" d="M1239.89,107.91Z"/>
            <path class="Graphic-Style-9" d="M1239.89,107.91Z"/>
          </g>
          <g>
            <path class="Graphic-Style-9" d="M1233.2,107.91Z"/>
            <path class="Graphic-Style-9" d="M1233.2,107.91Z"/>
          </g>
          <g>
            <line class="Graphic-Style-9" x1="1155.27" y1="106.08" x2="1096.49" y2="106.08"/>
            <line class="Graphic-Style-9" x1="1155.27" y1="106.08" x2="1096.49" y2="106.08"/>
          </g>
          <g>
            <line class="Graphic-Style-9" x1="1167.86" y1="113.42" x2="1142.67" y2="113.42"/>
            <line class="Graphic-Style-9" x1="1167.86" y1="113.42" x2="1142.67" y2="113.42"/>
          </g>
        </g>
      </g>
      <g>
        <g>
          <path class="cls-13" d="M483.4,198.46s9.45-14.17,22.83-14.17H548l-13.38,13.38H499.15"/>
          <polyline class="cls-13" points="511.74 205.54 517.25 210.26 547.16 210.26 566.45 190.98"/>
          <path class="cls-13" d="M569.2,181.14h14.17s5.51,8.66-1.57,15H569.2"/>
          <path class="cls-13" d="M515.68,190.59Z"/>
          <path class="cls-13" d="M521.58,190.59Z"/>
          <path class="cls-13" d="M528.27,190.59Z"/>
          <line class="cls-13" x1="606.2" y1="188.75" x2="664.97" y2="188.75"/>
          <line class="cls-13" x1="593.61" y1="196.1" x2="618.79" y2="196.1"/>
        </g>
        <g>
          <g>
            <path class="Graphic-Style-9" d="M483.4,198.46s9.45-14.17,22.83-14.17H548l-13.38,13.38H499.15"/>
            <path class="Graphic-Style-9" d="M483.4,198.46s9.45-14.17,22.83-14.17H548l-13.38,13.38H499.15"/>
          </g>
          <g>
            <polyline class="Graphic-Style-9" points="511.74 205.54 517.25 210.26 547.16 210.26 566.45 190.98"/>
            <polyline class="Graphic-Style-9" points="511.74 205.54 517.25 210.26 547.16 210.26 566.45 190.98"/>
          </g>
          <g>
            <path class="Graphic-Style-9" d="M569.2,181.14h14.17s5.51,8.66-1.57,15H569.2"/>
            <path class="Graphic-Style-9" d="M569.2,181.14h14.17s5.51,8.66-1.57,15H569.2"/>
          </g>
          <g>
            <path class="Graphic-Style-9" d="M515.68,190.59Z"/>
            <path class="Graphic-Style-9" d="M515.68,190.59Z"/>
          </g>
          <g>
            <path class="Graphic-Style-9" d="M521.58,190.59Z"/>
            <path class="Graphic-Style-9" d="M521.58,190.59Z"/>
          </g>
          <g>
            <path class="Graphic-Style-9" d="M528.27,190.59Z"/>
            <path class="Graphic-Style-9" d="M528.27,190.59Z"/>
          </g>
          <g>
            <line class="Graphic-Style-9" x1="606.2" y1="188.75" x2="664.97" y2="188.75"/>
            <line class="Graphic-Style-9" x1="606.2" y1="188.75" x2="664.97" y2="188.75"/>
          </g>
          <g>
            <line class="Graphic-Style-9" x1="593.61" y1="196.1" x2="618.79" y2="196.1"/>
            <line class="Graphic-Style-9" x1="593.61" y1="196.1" x2="618.79" y2="196.1"/>
          </g>
        </g>
      </g>
    </g>
  </g>
</svg>
