<svg id="work" xmlns="http://www.w3.org/2000/svg" viewBox="0 0 1422 870">
  <defs>
    <style>
      .cls-1, .cls-3 {
        fill: none;
      }

      .cls-1 {
        stroke: #ff0083;
      }

      .cls-1, .cls-3, .cls-5, .cls-6, .cls-7 {
        stroke-linecap: round;
        stroke-linejoin: round;
      }

      .cls-1, .cls-5, .cls-6 {
        stroke-width: 2.5px;
      }

      .cls-2, .cls-6 {
        fill: #ebebeb;
      }

      .Graphic-Style-4, .cls-5, .cls-7 {
        fill: #fff;
      }

      .cls-3, .cls-5, .cls-6, .cls-7 {
        stroke: #4a4a4a;
      }

      .cls-3, .cls-7 {
        stroke-width: 4px;
      }

      .cls-4 {
        fill: #f90080;
      }
    </style>
  </defs>
  <title>25,1</title>
  <g>
    <g>
      <path class="cls-1" d="M321.84,272.43c28.44-17.22,63.56-40.47,80.77-71,7.33-13,12.12-29.37,3.17-43.05-7.44-11.37-19.62-15.17-29.22-5.23-12.26,12.69-13,27.85-8.11,43.81,15.71,51.42,74.68,84.09,54.31,185.55C396.92,511.21,213.54,472,265,429.85c27.64-22.64,123.58-30.09,194.74-14.59"/>
      <path class="cls-1" d="M477.46,402.06c9.76-6.66,6.07-20.5-5.43-20.19-10.11.27-20.71,9.38-21.19,20.59-.62,14.22,12.54,15.08,21.67,10.26,9.69-5.11,13.34-14.8,16.16-24.93,0,0-.81-1.2-.83-1.26-3.91,3.07-5.57,18.7.12,21.78,7.76,4.21,20.66-15.33,23.56-20.56a258.57,258.57,0,0,0,25.4-66.12,265.63,265.63,0,0,0,6.34-37.11c.49-5.74,2.84-15.8-.79-20.26-6,6-5.47,24.83-6.33,33.19-1.87,18.28-4.89,36.4-7.12,54.6-2.58,21.08-8.17,45.06-7,66.24"/>
      <path class="cls-1" d="M596.51,343c-10.18.17-20.5,1.53-29.6,2.46-39.52,4-81,14.88-117,32.48"/>
      <path class="cls-1" d="M672.91,380.78c-6.47,3.19-14.39,6.91-16.1-2-1.39-7.24.43-17.74,2.47-24.43m7.42-23.55a6.66,6.66,0,0,0-1.16,3.16"/>
      <path class="cls-1" d="M807,421.28c-16.5-5-13.18-39-7.37-56.77C810.92,330,825.28,297.68,840.21,265c24.4-53.52,49.41-136.83.78-103.35C800.1,189.77,737.85,279.83,721.46,439.94c5-99.66,52.69-223.85,58.07-241.13,6.39-20.49,19.74-56.13-9.12-64.67-66-19.51-224,69.19-280.6,109"/>
      <path class="cls-1" d="M844.08,362.9c-.93-18.72-37.93,1.54-25.87,19.78,9.15,13.86,31.54-14.72,27.27-26.82-3.24,3.85-8.27,22.17-5.15,26.95,4.45,6.82,13.75-4,16.91-7.93,15.29-18.82,24.56-46.23,32-69.59.32-1,24.29-76.36,19.25-78.08-3.88-1.31-27.86,93.23-28.54,95.8-5.16,19.7-10.26,40.48-14.89,59.73,2.93-12.2,10.67-24.35,20.33-10.91,3.8,5.3,5.2,10.19,12.52,9.63"/>
      <path class="cls-1" d="M895.79,346.38c-8.53,1.75-16,11.18-20.44,18.62"/>
      <path class="cls-1" d="M929.54,327.9c44.3-10.61,90.8-14,136.24-17.9"/>
      <path class="cls-1" d="M554.88,373.92c-17.66-4.18-27.13,26.95-8,31,15.84,3.36,22.91-19.18,9.92-30,5.21,6.54,31.84-1.41,35.54-13.17,1.88-5.94-6.23-5.5-7.51-.48-1.73,6.72,5.07,12.37,10.31,17.88,9.31,9.82,4.24,16.87-2.92,18.92-11.29,3.23-24.4-7.67-7.05-19.32,57.6-38.69,52.31-130.58,48.22-128.64,0,0-10.93,96.05-11.13,98-1.62,15-4.6,31.46-3.65,46.82,1.23-5.59,12.26-48.25,20.44-39.76,3.09,3.21.36,17.33.88,21.49,1.09,8.8,5.06,11.33,12.56,9.4"/>
    </g>
    <path class="cls-2" d="M1030.12,634.91a55.53,55.53,0,0,1-55.52,55.53H491.67a55.53,55.53,0,0,1-55.52-55.53h0a55.52,55.52,0,0,1,55.52-55.52H974.6a55.52,55.52,0,0,1,55.52,55.52Z"/>
    <path class="Graphic-Style-4" d="M1030.12,614.91a55.53,55.53,0,0,1-55.52,55.53H491.67a55.53,55.53,0,0,1-55.52-55.53h0a55.52,55.52,0,0,1,55.52-55.52H974.6a55.52,55.52,0,0,1,55.52,55.52Z"/>
    <path class="cls-3" d="M1030.12,614.91a55.53,55.53,0,0,1-55.52,55.53H491.67a55.53,55.53,0,0,1-55.52-55.53h0a55.52,55.52,0,0,1,55.52-55.52H974.6a55.52,55.52,0,0,1,55.52,55.52Z"/>
    <g>
      <path class="cls-4" d="M613.74,633.59a21.8,21.8,0,0,1-7.18-1.14,14.93,14.93,0,0,1-9.33-9.1,23.89,23.89,0,0,1-.06-15.37,16.09,16.09,0,0,1,3.61-5.79,15.42,15.42,0,0,1,5.64-3.59,20.78,20.78,0,0,1,7.35-1.26,29.81,29.81,0,0,1,4,.24,27.81,27.81,0,0,1,3.27.65,23.43,23.43,0,0,1,2.84,1c.86.37,1.6.71,2.24,1v8.46h-1q-.66-.56-1.65-1.32a21.12,21.12,0,0,0-2.26-1.52,15.39,15.39,0,0,0-2.79-1.26,9.91,9.91,0,0,0-3.21-.51,11.06,11.06,0,0,0-3.61.59,8.74,8.74,0,0,0-3.16,2,9.65,9.65,0,0,0-2.24,3.53,14.74,14.74,0,0,0-.86,5.33,14.12,14.12,0,0,0,.93,5.48,9.44,9.44,0,0,0,2.33,3.46,8.33,8.33,0,0,0,3.19,1.83,11.42,11.42,0,0,0,3.47.55,11.25,11.25,0,0,0,3.24-.48,12.87,12.87,0,0,0,3-1.33,20.92,20.92,0,0,0,2.13-1.45c.65-.51,1.19-1,1.62-1.33h.93v8.34c-.87.4-1.71.76-2.51,1.11a21,21,0,0,1-2.5.89,29.2,29.2,0,0,1-3.21.75A26.11,26.11,0,0,1,613.74,633.59Z"/>
      <path class="cls-4" d="M657.78,632.92h-23.3v-6.1h7.36V608.38h-7.36v-5.7a25.86,25.86,0,0,0,3.24-.2,8.46,8.46,0,0,0,2.58-.69,4.34,4.34,0,0,0,1.82-1.52,4.9,4.9,0,0,0,.71-2.35h7.75v28.9h7.2Z"/>
      <path class="cls-4" d="M700.76,615.48q0,8.34-4.78,13.25t-13.22,4.91q-8.4,0-13.19-4.91t-4.78-13.25q0-8.41,4.78-13.3t13.19-4.89q8.4,0,13.2,4.89T700.76,615.48Zm-11.93,8.83a10.28,10.28,0,0,0,1.95-3.76,18.32,18.32,0,0,0,.63-5.1,17.33,17.33,0,0,0-.72-5.34,10.41,10.41,0,0,0-1.9-3.56,7.1,7.1,0,0,0-2.76-2,8.54,8.54,0,0,0-3.24-.63,8.43,8.43,0,0,0-3.22.61,7.39,7.39,0,0,0-2.78,2,9.93,9.93,0,0,0-1.91,3.62,17.71,17.71,0,0,0-.74,5.36,17.46,17.46,0,0,0,.71,5.31,10.56,10.56,0,0,0,1.89,3.57,7.3,7.3,0,0,0,2.74,2,8.55,8.55,0,0,0,6.61,0A7.23,7.23,0,0,0,688.83,624.31Z"/>
      <path class="cls-4" d="M734.16,621.1a12.42,12.42,0,0,1-1,5,10.92,10.92,0,0,1-3,4,14.18,14.18,0,0,1-5,2.64,21.88,21.88,0,0,1-6.39.85,33.55,33.55,0,0,1-7.08-.67,26.74,26.74,0,0,1-4.73-1.44v-7.71h1a24,24,0,0,0,4.59,2.11,15.07,15.07,0,0,0,4.9.84,16.39,16.39,0,0,0,3.2-.34,5.57,5.57,0,0,0,2.73-1.23,5.89,5.89,0,0,0,1.21-1.47,5.09,5.09,0,0,0,.41-2.32,3.93,3.93,0,0,0-.55-2.1,4.38,4.38,0,0,0-1.42-1.42,8.07,8.07,0,0,0-3.05-1,24.49,24.49,0,0,0-3.23-.24,22.11,22.11,0,0,0-4,.36c-1.29.24-2.42.48-3.38.71h-1V598h24.83v6.68H716.8v5.69c.48,0,1.09-.06,1.84-.08s1.39,0,2,0a21.72,21.72,0,0,1,5.15.56,13.57,13.57,0,0,1,3.9,1.53,9.3,9.3,0,0,1,3.33,3.41A10.81,10.81,0,0,1,734.16,621.1Z"/>
      <path class="cls-4" d="M760.62,632.92H740.19v-6.19h5.72V604.2h-5.72V598h20.43v6.18h-5.71v22.53h5.71Z"/>
      <path class="cls-4" d="M794.49,613.5a28.49,28.49,0,0,1-1.12,8.16,16.53,16.53,0,0,1-3.43,6.35,15.4,15.4,0,0,1-6.16,4.19,24.12,24.12,0,0,1-8.58,1.39,36.37,36.37,0,0,1-3.75-.21,23.25,23.25,0,0,1-2.65-.37v-6.87h.94a14.38,14.38,0,0,0,2,.7,13.26,13.26,0,0,0,3.55.38,14,14,0,0,0,3.58-.46,8.19,8.19,0,0,0,3-1.44,8.55,8.55,0,0,0,2.27-2.64,10.61,10.61,0,0,0,1.19-3.81,23.51,23.51,0,0,1-3.78,1.8,13.23,13.23,0,0,1-4.35.62,14.46,14.46,0,0,1-3.76-.48,10.58,10.58,0,0,1-3.27-1.49,10,10,0,0,1-3.11-3.65,12.5,12.5,0,0,1-1.16-5.71,11.76,11.76,0,0,1,3.91-9.14,14.67,14.67,0,0,1,10.23-3.53,17.91,17.91,0,0,1,5.77.86,11.56,11.56,0,0,1,4.35,2.61,12.66,12.66,0,0,1,3.21,5.14A23.38,23.38,0,0,1,794.49,613.5Zm-9-1.31a16.71,16.71,0,0,0-.55-4.71,6.85,6.85,0,0,0-1.51-2.85,4,4,0,0,0-1.57-1.08,5.34,5.34,0,0,0-1.87-.33,4.89,4.89,0,0,0-1.75.32,4.52,4.52,0,0,0-1.6,1.09,5.66,5.66,0,0,0-1.19,2,8.46,8.46,0,0,0-.46,2.91,6.78,6.78,0,0,0,.5,2.76,4.31,4.31,0,0,0,1.36,1.78,4.9,4.9,0,0,0,1.93.89,10.63,10.63,0,0,0,4.72,0,12.49,12.49,0,0,0,1.92-.55c0-.18,0-.42,0-.75S785.51,612.83,785.51,612.19Z"/>
      <path class="cls-4" d="M833.82,632.92h-8.67l-14.82-24v24h-8.25V598h10.76l12.73,20V598h8.25Z"/>
      <path class="cls-4" d="M866.58,616.56a7.47,7.47,0,0,1,1.83,2.29,7.68,7.68,0,0,1,.68,3.49,10.9,10.9,0,0,1-1,4.6,9.5,9.5,0,0,1-3,3.65,14.5,14.5,0,0,1-4.63,2.27,23.16,23.16,0,0,1-6.46.78,34.81,34.81,0,0,1-7.44-.68,28.11,28.11,0,0,1-5.05-1.52v-7.67h.92a21.93,21.93,0,0,0,4.81,2.11,16.88,16.88,0,0,0,5.12.89,21.31,21.31,0,0,0,3-.22,6.25,6.25,0,0,0,2.69-1,4.55,4.55,0,0,0,1.38-1.42,4.5,4.5,0,0,0,.52-2.4,3.55,3.55,0,0,0-.7-2.36,3.85,3.85,0,0,0-1.85-1.18,9.58,9.58,0,0,0-2.77-.41c-1.08,0-2.08,0-3,0h-1.92v-6.23h2c1.22,0,2.3,0,3.23-.12a7.59,7.59,0,0,0,2.4-.54,3.49,3.49,0,0,0,1.54-1.18,3.72,3.72,0,0,0,.52-2.17,2.57,2.57,0,0,0-.54-1.7,3.78,3.78,0,0,0-1.36-1,7,7,0,0,0-2.16-.56,20.37,20.37,0,0,0-2.13-.14,16.86,16.86,0,0,0-4.78.76,22.22,22.22,0,0,0-5,2.19h-.87v-7.57a34.29,34.29,0,0,1,5.23-1.49,32,32,0,0,1,6.7-.71,26.15,26.15,0,0,1,5.79.57,14.71,14.71,0,0,1,4.1,1.54,7.83,7.83,0,0,1,2.86,2.79,7.64,7.64,0,0,1,.94,3.84,8.1,8.1,0,0,1-1.81,5.19,8,8,0,0,1-4.76,2.92v.33a12.24,12.24,0,0,1,2.54.66A7.67,7.67,0,0,1,866.58,616.56Z"/>
    </g>
    <g>
      <circle class="cls-2" cx="505.06" cy="618.91" r="10"/>
      <circle class="cls-5" cx="505.06" cy="614.91" r="10"/>
    </g>
    <g>
      <circle class="cls-2" cx="957.06" cy="618.91" r="10"/>
      <circle class="cls-5" cx="957.06" cy="614.91" r="10"/>
    </g>
    <g>
      <path class="cls-6" d="M1225.74,576.77c38.47-18.78,72.6-53.6,81.22-119a160.69,160.69,0,0,1,1.37,20.94c0,116.32-83.44,156.43-198.83,163.42v18.41a6.33,6.33,0,0,1-10.83,4.48l-42.75-42.94a6.34,6.34,0,0,1,.18-9.13l42.76-39.53a6.33,6.33,0,0,1,10.64,4.66V600c14.67-.77,38.45-1.37,64.59-6.47"/>
      <path class="cls-7" d="M1171.81,313.49v41.86A158.75,158.75,0,0,1,1307,491.55a160.69,160.69,0,0,0,1.37-20.94A158.68,158.68,0,0,0,1171.81,313.49Z"/>
    </g>
    <g>
      <path class="cls-6" d="M379.4,603.39v42.5c-72,0-126.75-7.75-126.75-7.75A158.67,158.67,0,0,1,116.14,481a162.47,162.47,0,0,1,1.36-20.94,158.77,158.77,0,0,0,135.15,136.2S298.9,603.39,379.4,603.39Z"/>
      <path class="Graphic-Style-4" d="M140.63,430.08a157.75,157.75,0,0,0-23.13,63.81A162.47,162.47,0,0,1,116.14,473,158.69,158.69,0,0,1,248.65,316.44V298.09a6.34,6.34,0,0,1,10.84-4.48l42.75,42.94a6.33,6.33,0,0,1-.19,9.13L259.3,385.21a6.34,6.34,0,0,1-10.65-4.66V358.3A157.86,157.86,0,0,0,184,384.7"/>
      <path class="cls-3" d="M140.63,430.08a157.75,157.75,0,0,0-23.13,63.81A162.47,162.47,0,0,1,116.14,473,158.69,158.69,0,0,1,248.65,316.44V298.09a6.34,6.34,0,0,1,10.84-4.48l42.75,42.94a6.33,6.33,0,0,1-.19,9.13L259.3,385.21a6.34,6.34,0,0,1-10.65-4.66V358.3A157.86,157.86,0,0,0,184,384.7"/>
    </g>
    <path class="cls-1" d="M119.39,306.75A201.48,201.48,0,0,0,57.06,448.36"/>
    <path class="cls-1" d="M1198.16,697.15a203,203,0,0,0,128.6-85.43"/>
  </g>
  <path class="cls-1" d="M926.44,357.12c.68-8.7-9.67-7.17-17.51-1.27-17.53,13.22-3.8,32.28,7.39,22,7.48-6.85,13.9-22.25,14.65-27-.83,5.19-5,7.79-3.61,14.15,1.1,5.24,4.35,8.73,9.39,9,10.6.51,25.51-16.67,25.47-27.58-5.9,7.62-5.12,21.75-8.43,30.23,3.43-8.94,9.28-30.57,19.1-34.09,13.3-4.78,2.36,24.46,2.11,30,1.46-5.82,9.85-35.15,18.46-32.28,7.94,2.66-5.55,27-1.46,29.53,5.62,3.49,10.48-10.21,13-16,5.89-13.87,9.57-28.9,13.28-43.55,6.43-25.38,10.94-52.51,14.1-78.49-4.31,30.28-11.9,60.38-17.49,90.52-3,16.2-2.51,40,4,42,7.67,2.38,18-19.35,12.25-20.6-3.67-.8-5.21,6.4-4.17,12.88,2.33,14.55,15.81,11.46,20.19,3.58,2.41-4.31,2.87-10.29.82-16.2a11.22,11.22,0,0,0-9.38-7c-4.28-.18-4.27,3.33-.71,4,100.46,19.21,78.46,57.88-83.49,80-180.54,24.62-426.72,35.93-568.27,148"/>
</svg>
