<svg id="work" xmlns="http://www.w3.org/2000/svg" viewBox="0 0 1422 870">
  <defs>
    <style>
      .cls-1, .cls-11, .cls-8 {
        fill: #fff;
      }

      .cls-2, .cls-3, .cls-9 {
        fill: #ebebeb;
      }

      .cls-10, .cls-3, .cls-5, .cls-6, .cls-8, .cls-9 {
        stroke: #4a4a4a;
      }

      .cls-10, .cls-11, .cls-3, .cls-5, .cls-6, .cls-7, .cls-8, .cls-9 {
        stroke-linecap: round;
        stroke-linejoin: round;
      }

      .cls-11, .cls-3, .cls-5, .cls-7 {
        stroke-width: 2.5px;
      }

      .cls-4 {
        fill: #ff0083;
      }

      .cls-10, .cls-5, .cls-6, .cls-7 {
        fill: none;
      }

      .cls-6 {
        stroke-width: 1.2px;
      }

      .cls-7 {
        stroke: #494949;
      }

      .cls-10, .cls-8, .cls-9 {
        stroke-width: 4px;
      }

      .cls-11 {
        stroke: #ff0083;
      }
    </style>
  </defs>
  <title>26,2</title>
  <g>
    <g>
      <path class="cls-1" d="M791.36,604s-4.67-29.34,29.33-29.34H940.54l-98.52-82,7.34-24L926,502c-8-24.67,4.17-35.67,18.42-51.84A331.27,331.27,0,0,1,975.36,420s27-25,51-12.34c0,0,11.62,3.16,15.31,25.42,5.69,5.58,57.69-2.42,57.69-2.42,5.33-18.66,21.33-33.33,50-17.33,13.33,5.33,18.66,24.67,16,36S1100,656,1100,656l-.65,132c0,1.47-1.2,9.66-2.67,9.66h-41l1-7H796.34a3.67,3.67,0,0,1-3.67-3.65l-.82-180.57Z"/>
      <polygon class="cls-1" points="874.69 189.68 834.69 256.68 834.69 572.68 877.69 572.68 874.69 189.68"/>
      <polygon class="cls-1" points="237.48 217.26 462.6 303.01 462.6 797.16 237.48 797.16 237.48 217.26"/>
      <path class="cls-1" d="M411.37,251.76c252.32,38.92,225.42,545.4,225.42,545.4H414.69Z"/>
      <path class="cls-1" d="M532.37,212.76c254.32,30.92,225.42,584.92,225.42,584.92H535.69Z"/>
      <path class="cls-2" d="M929.65,466.82s1.06,28.93,20.59,43.55c-3.1,1.07-20.59-5.6-20.59-5.6C919.39,485.79,924.26,474.9,929.65,466.82Z"/>
      <path class="cls-2" d="M953.7,441.52A58.8,58.8,0,0,0,972,439.6c10.77-2.7,53.47-12.19,53.47-12.19l12.1-7.2,4.06,12.89s-84.77,21.6-97.23,17.08Z"/>
      <polygon class="cls-2" points="237.48 217.26 206.26 283.7 206.26 793.74 237.48 793.74 237.48 217.26"/>
      <path class="cls-2" d="M411.37,251.76c86.22,24.07,140,291.89,153.26,402s12.28,143.4,12.28,143.4H462.3L462.6,303l-51.23-19.52Z"/>
      <path class="cls-2" d="M532.32,214C654.37,302,664.65,669,673.5,797.16H636.79s2.72-309.09-65.44-410.08c-32.7-61.79-40-71.34-40-71.34Z"/>
      <rect class="cls-2" x="206.26" y="92.45" width="325.09" height="104.98"/>
      <rect class="cls-2" x="531.35" y="92.45" width="344.18" height="38.98"/>
      <path class="cls-2" d="M1223.26,92.46V336.31H1059.07l-2.91-21.09a56.91,56.91,0,0,0-65.28-47.1l-22,3.55a56.93,56.93,0,0,0-47.2,64.64H875.53V92.46Z"/>
      <path class="cls-2" d="M1042.07,431.05l5.33-12.62a23.37,23.37,0,0,1,31.56-12l5.13,2.44c10.32,4.91,15.32,20.51,11.61,31.32l-38.5,112.39-20.63,14,1.35,9.35H978.49l-2.37-2.73s6.72-1.24,19.48-21.46,43.56-102.51,43.56-102.51S1047.41,440,1042.07,431.05Z"/>
      <path class="cls-2" d="M766.7,429a14.64,14.64,0,0,0,12.24-4.83c1.1-1.24,26.84-28.62,26.84-28.62l51-25.38,36,93.66L870.32,479.5l-16-3.56-7.25,3.56.3,7.23-1.7,3-22.63,38.52c-5.69-2.64-11.58-.78-13.46,3.74L765.88,428.87"/>
      <path class="cls-2" d="M862.62,499.68l94.1,66.9a101.44,101.44,0,0,0,31.41,0c-7.47,6-27.68,15.76-47.59,4.66-9.83-6.82-82.12-65.38-82.12-65.38Z"/>
      <path class="cls-2" d="M822.55,643.56h236.52l-253.53,62s3.91-33.62,8.27-42.7S822.55,643.56,822.55,643.56Z"/>
      <polygon class="cls-2" points="791.85 606.47 706.16 735.88 744.42 762.33 791.85 707.42 791.85 606.47"/>
      <rect class="cls-2" x="825.45" y="790.32" width="26.13" height="6.84"/>
      <rect class="cls-2" x="1030.74" y="790.32" width="26.13" height="6.84"/>
      <path class="cls-2" d="M869.22,762.33a12.67,12.67,0,0,1-25.34,0,13.14,13.14,0,0,1,.14-1.89,13.42,13.42,0,0,0,25.18,1.19C869.21,761.86,869.22,762.1,869.22,762.33Z"/>
      <path class="cls-2" d="M1061.68,762.33a12.67,12.67,0,0,1-25.34,0,13.14,13.14,0,0,1,.14-1.89,13.42,13.42,0,0,0,25.18,1.19C1061.67,761.86,1061.68,762.1,1061.68,762.33Z"/>
      <path class="cls-2" d="M1061.68,678.24a12.67,12.67,0,0,1-25.34,0,13,13,0,0,1,.14-1.89,13.42,13.42,0,0,0,25.18,1.19C1061.67,677.77,1061.68,678,1061.68,678.24Z"/>
      <rect class="cls-2" x="444.76" y="596.22" width="9.99" height="194.1"/>
      <rect class="cls-2" x="462.6" y="790.32" width="39.35" height="6.84"/>
      <rect class="cls-1" x="369.18" y="573.2" width="213.64" height="23.02"/>
      <rect class="cls-2" x="320.29" y="573.2" width="48.89" height="23.02"/>
      <path class="cls-2" d="M464.06,556.28c1.19,1.58-.95,2.61,1.19,2.61h-2.81a6.53,6.53,0,0,1-6.53-6.53V444.73a6.53,6.53,0,0,1,6.53-6.53h6.85a6.53,6.53,0,0,0-6.53,6.53V552.36a6.52,6.52,0,0,0,1.3,3.92"/>
      <path class="cls-3" d="M390,572.78,393,573l-2.76.19Z"/>
      <path class="cls-2" d="M429.88,498.55c0,46.5-21.1,74.66-21.1,74.66-10.39-.71-7.69-.85-12.67-.44,2.63-3.74,20.78-31.09,20.78-74.22,0-27.8-7.19-48.09-13-59.92a48.84,48.84,0,0,1-4.34-29.31l1.39-8.44h13l-1.38,8.44a48.69,48.69,0,0,0,4.34,29.31C422.68,450.46,429.88,470.75,429.88,498.55Z"/>
      <path class="cls-3" d="M396.11,572.77l-.31.44L393,573Z"/>
      <path class="cls-2" d="M410.84,370.21c-17.29-5.73-8-37.46-8-37.46C414.44,345.35,410.84,370.21,410.84,370.21Z"/>
      <path class="cls-2" d="M1086.11,797.16V650.51a77.12,77.12,0,0,1,4.41-25.71l61.25-173.47a38.71,38.71,0,0,0-.14-26.2l-4.34-11.88,12.33,5.39a21.59,21.59,0,0,1,11.89,26.46L1110.6,632.46a122.66,122.66,0,0,0-6,38V797.16Z"/>
      <path class="cls-4" d="M466.87,558.43a6.52,6.52,0,0,1-4.11-6.07V444.73a6.53,6.53,0,0,1,6.53-6.53h38.57a6.53,6.53,0,0,1,6.53,6.53V548.31"/>
      <path class="cls-1" d="M727.69,789.18l-80.5-43c12-18,21.5-21,43-14s18.5,6,18.5,6l35.73,24.15Z"/>
    </g>
    <g>
      <g>
        <g>
          <polyline class="cls-5" points="237.88 793.74 237.88 217.26 462.76 302.41 462.76 426.48"/>
          <polyline class="cls-5" points="206.26 283.7 237.88 217.26 206.26 283.7"/>
          <path class="cls-5" d="M411.37,283.49V251.76s31.33,4.48,62.71,61.5"/>
          <path class="cls-5" d="M632.1,660.22q4.67,62,4.69,133.52"/>
          <path class="cls-5" d="M545.09,340.63c14.71,21.62,27.77,44.33,39.09,73.76"/>
          <path class="cls-5" d="M411.37,251.76c40.9,5.68,76.86,24.32,107.36,56.12"/>
          <line class="cls-5" x1="532.32" y1="305.21" x2="532.32" y2="214.02"/>
          <path class="cls-5" d="M722.08,431.1q23.35,83.8,31.61,200.19"/>
          <path class="cls-5" d="M532.32,214c70.87,9.85,126.91,58.59,165.38,147.25"/>
          <polyline class="cls-5" points="835.87 368.23 835.87 257.22 877.97 182.03"/>
          <g>
            <g>
              <path class="cls-6" d="M646.27,184.6s8.81-13.22,21.3-13.22H706.5L694,183.87H661"/>
              <polyline class="cls-6" points="672.71 191.22 677.85 195.62 705.77 195.62 723.76 177.63"/>
              <path class="cls-6" d="M726.33,168.44h13.23s5.14,8.08-1.47,14H726.33"/>
              <path class="cls-6" d="M676.38,177.26Z"/>
              <path class="cls-6" d="M681.89,177.26Z"/>
              <path class="cls-6" d="M688.14,177.26Z"/>
              <line class="cls-6" x1="760.86" y1="175.54" x2="815.71" y2="175.54"/>
              <line class="cls-6" x1="749.11" y1="182.4" x2="772.61" y2="182.4"/>
            </g>
            <g>
              <g>
                <path class="cls-7" d="M646.27,184.6s8.81-13.22,21.3-13.22H706.5L694,183.87H661"/>
                <path class="cls-7" d="M646.27,184.6s8.81-13.22,21.3-13.22H706.5L694,183.87H661"/>
              </g>
              <g>
                <polyline class="cls-7" points="672.71 191.22 677.85 195.62 705.77 195.62 723.76 177.63"/>
                <polyline class="cls-7" points="672.71 191.22 677.85 195.62 705.77 195.62 723.76 177.63"/>
              </g>
              <g>
                <path class="cls-7" d="M726.33,168.44h13.23s5.14,8.08-1.47,14H726.33"/>
                <path class="cls-7" d="M726.33,168.44h13.23s5.14,8.08-1.47,14H726.33"/>
              </g>
              <g>
                <path class="cls-7" d="M676.38,177.26Z"/>
                <path class="cls-7" d="M676.38,177.26Z"/>
              </g>
              <g>
                <path class="cls-7" d="M681.89,177.26Z"/>
                <path class="cls-7" d="M681.89,177.26Z"/>
              </g>
              <g>
                <path class="cls-7" d="M688.14,177.26Z"/>
                <path class="cls-7" d="M688.14,177.26Z"/>
              </g>
              <g>
                <line class="cls-7" x1="760.86" y1="175.54" x2="815.71" y2="175.54"/>
                <line class="cls-7" x1="760.86" y1="175.54" x2="815.71" y2="175.54"/>
              </g>
              <g>
                <line class="cls-7" x1="749.11" y1="182.4" x2="772.61" y2="182.4"/>
                <line class="cls-7" x1="749.11" y1="182.4" x2="772.61" y2="182.4"/>
              </g>
            </g>
          </g>
          <g>
            <g>
              <path class="cls-6" d="M374,328.29s-8.81-13.23-21.3-13.23H313.81l12.48,12.49h33.06"/>
              <polyline class="cls-6" points="347.6 334.9 342.45 339.31 314.54 339.31 296.55 321.31"/>
              <path class="cls-6" d="M294,312.13H280.75s-5.14,8.08,1.47,13.95H294"/>
              <path class="cls-6" d="M343.92,320.94Z"/>
              <path class="cls-6" d="M338.41,320.94Z"/>
              <path class="cls-6" d="M332.17,320.94Z"/>
              <line class="cls-6" x1="259.45" y1="319.23" x2="223.27" y2="319.23"/>
              <line class="cls-6" x1="271.2" y1="326.08" x2="247.7" y2="326.08"/>
            </g>
            <g>
              <g>
                <path class="cls-7" d="M374,328.29s-8.81-13.23-21.3-13.23H313.81l12.48,12.49h33.06"/>
                <path class="cls-7" d="M374,328.29s-8.81-13.23-21.3-13.23H313.81l12.48,12.49h33.06"/>
              </g>
              <g>
                <polyline class="cls-7" points="347.6 334.9 342.45 339.31 314.54 339.31 296.55 321.31"/>
                <polyline class="cls-7" points="347.6 334.9 342.45 339.31 314.54 339.31 296.55 321.31"/>
              </g>
              <g>
                <path class="cls-7" d="M294,312.13H280.75s-5.14,8.08,1.47,13.95H294"/>
                <path class="cls-7" d="M294,312.13H280.75s-5.14,8.08,1.47,13.95H294"/>
              </g>
              <g>
                <path class="cls-7" d="M343.92,320.94Z"/>
                <path class="cls-7" d="M343.92,320.94Z"/>
              </g>
              <g>
                <path class="cls-7" d="M338.41,320.94Z"/>
                <path class="cls-7" d="M338.41,320.94Z"/>
              </g>
              <g>
                <path class="cls-7" d="M332.17,320.94Z"/>
                <path class="cls-7" d="M332.17,320.94Z"/>
              </g>
              <g>
                <line class="cls-7" x1="259.45" y1="319.23" x2="223.27" y2="319.23"/>
                <line class="cls-7" x1="259.45" y1="319.23" x2="223.27" y2="319.23"/>
              </g>
              <g>
                <line class="cls-7" x1="271.2" y1="326.08" x2="247.7" y2="326.08"/>
                <line class="cls-7" x1="271.2" y1="326.08" x2="247.7" y2="326.08"/>
              </g>
            </g>
          </g>
          <rect class="cls-2" x="282.05" y="372.38" width="12.13" height="29.42"/>
          <rect class="cls-2" x="314.4" y="372.38" width="12.13" height="29.42"/>
          <rect class="cls-2" x="346.76" y="372.38" width="12.13" height="29.42"/>
          <rect class="cls-2" x="282.05" y="418.43" width="12.13" height="30.7"/>
          <rect class="cls-2" x="850.49" y="258.12" width="12.13" height="29.42"/>
          <rect class="cls-2" x="850.49" y="304.17" width="12.13" height="30.7"/>
          <rect class="cls-2" x="314.4" y="418.43" width="12.13" height="30.7"/>
          <rect class="cls-2" x="346.76" y="418.43" width="12.13" height="30.7"/>
          <rect class="cls-2" x="282.05" y="472.15" width="12.13" height="29.42"/>
          <rect class="cls-2" x="314.4" y="472.15" width="12.13" height="29.42"/>
          <rect class="cls-2" x="346.76" y="472.15" width="12.13" height="29.42"/>
          <rect class="cls-2" x="282.05" y="522.04" width="12.13" height="30.7"/>
          <rect class="cls-2" x="314.4" y="522.04" width="12.13" height="30.7"/>
          <rect class="cls-2" x="346.76" y="522.04" width="12.13" height="30.7"/>
          <rect class="cls-2" x="282.05" y="575.77" width="12.13" height="30.7"/>
          <rect class="cls-2" x="314.4" y="575.77" width="12.13" height="30.7"/>
          <rect class="cls-2" x="346.76" y="596.22" width="12.13" height="10.25"/>
          <rect class="cls-2" x="282.05" y="628.21" width="12.13" height="30.7"/>
          <rect class="cls-2" x="314.4" y="628.21" width="12.13" height="30.7"/>
          <rect class="cls-2" x="346.76" y="628.21" width="12.13" height="30.7"/>
          <rect class="cls-2" x="282.05" y="678.11" width="12.13" height="30.7"/>
          <rect class="cls-2" x="314.4" y="678.11" width="12.13" height="30.7"/>
          <rect class="cls-2" x="346.76" y="678.11" width="12.13" height="30.7"/>
          <rect class="cls-2" x="378.77" y="372.38" width="12.13" height="29.42"/>
          <rect class="cls-2" x="411.12" y="372.38" width="12.13" height="29.42"/>
          <rect class="cls-2" x="378.77" y="596.22" width="12.13" height="10.25"/>
          <rect class="cls-2" x="411.12" y="596.22" width="12.13" height="10.25"/>
          <rect class="cls-2" x="378.77" y="628.21" width="12.13" height="30.7"/>
          <rect class="cls-2" x="411.12" y="628.21" width="12.13" height="30.7"/>
          <rect class="cls-2" x="378.77" y="678.1" width="12.13" height="30.7"/>
          <rect class="cls-2" x="411.12" y="678.1" width="12.13" height="30.7"/>
        </g>
        <g>
          <path class="cls-8" d="M976.25,420.35a26.61,26.61,0,0,1-24.61-20.61L941.22,354.4a26.58,26.58,0,0,1,20-31.86l21.37-4.91a26.58,26.58,0,0,1,31.86,19.95l10.42,45.34a26.51,26.51,0,0,1-4.58,21.83"/>
          <path class="cls-9" d="M934,342.13c-4.94-6.69-2.45-15.69-2-17.45,5.55-20.05,46.39-37.1,73.47-23,8.77,4.55,15.53,10.19,16.88,15.56,14.83,59.07,11.08,83.83,3.28,85.51-1.26.27-7.9,3.95-10.16-4.15-11.65-41.81-5.77-5.83-35.45-58.34-4.31-7.61-11.46-3.13-20.6,1.66-7.24,3.81-9.68,6.28-16.49,5.84C937.87,347.41,934.51,342.86,934,342.13Z"/>
          <path class="cls-9" d="M996.08,317.65c-4.8-7-4.7-19.15,2.53-27.87a28.28,28.28,0,0,1,25.22-9.65c15.52,2.48,23.62,20.81,25.31,33.74,2.66,20.38-4.38,25.26-4.81,41.61-.35,13.15,5.2,23.49,13.32,27.14,1.07.48-1.06,3.58-3.33,5.35-8.85,6.89-33.61-2.51-43.14-19.41a35.49,35.49,0,0,1-5-19.81c.6-9.78,5.45-13.81,3-19.91S1000.52,324.12,996.08,317.65Z"/>
          <path class="cls-5" d="M957.46,373.89a6.71,6.71,0,1,1,13.08-3"/>
          <path class="cls-5" d="M952.24,402.37c6.78,2,27.22-1.91,28.92-8.18"/>
        </g>
        <line class="cls-10" x1="825.45" y1="573.2" x2="934.94" y2="573.2"/>
        <path class="cls-10" d="M981,576.31h102.76a5.71,5.71,0,0,1,5.7,5.71V785.65a4.67,4.67,0,0,1-4.66,4.67H796.52a4.67,4.67,0,0,1-4.67-4.67V597.15A24,24,0,0,1,815.8,573.2a9.65,9.65,0,0,1,9.65,9.64v42.3a60.07,60.07,0,0,1-7.27,28.65,104.45,104.45,0,0,0-12.64,49.81v86.72"/>
        <rect class="cls-5" x="825.45" y="790.32" width="26.13" height="6.84"/>
        <rect class="cls-5" x="1030.74" y="790.32" width="26.13" height="6.84"/>
        <path class="cls-5" d="M869,672.74a12.44,12.44,0,1,0-12.44,12.44A12.44,12.44,0,0,0,869,672.74Z"/>
        <path class="cls-5" d="M869,758.29a12.44,12.44,0,1,0-12.44,12.44A12.44,12.44,0,0,0,869,758.29Z"/>
        <path class="cls-5" d="M1061.45,672.74A12.44,12.44,0,1,0,1049,685.18,12.44,12.44,0,0,0,1061.45,672.74Z"/>
        <path class="cls-5" d="M1061.45,758.29A12.44,12.44,0,1,0,1049,770.73,12.44,12.44,0,0,0,1061.45,758.29Z"/>
        <path class="cls-5" d="M1049,576.31l52.86-153.26a25.35,25.35,0,0,1,32.92-15.45l21.4,8.07a25.36,25.36,0,0,1,15.17,31.53L1115,621.4a184.46,184.46,0,0,0-9,56.81V797.16h-69.45"/>
        <rect class="cls-5" x="320.29" y="573.2" width="262.53" height="23.02"/>
        <line class="cls-5" x1="369.18" y1="573.2" x2="369.18" y2="596.22"/>
        <rect class="cls-5" x="444.09" y="596.22" width="18.66" height="194.1"/>
        <rect class="cls-5" x="403.03" y="790.32" width="98.91" height="6.84"/>
        <path class="cls-10" d="M466.87,558.43a6.52,6.52,0,0,1-4.11-6.07V444.73a6.53,6.53,0,0,1,6.53-6.53h38.57a6.53,6.53,0,0,1,6.53,6.53V548.31"/>
        <path class="cls-10" d="M464.06,556.28c1.19,1.58-.95,2.61,1.19,2.61h-2.81a6.53,6.53,0,0,1-6.53-6.53V444.73a6.53,6.53,0,0,1,6.53-6.53h6.85a6.53,6.53,0,0,0-6.53,6.53V552.36a6.52,6.52,0,0,0,1.3,3.92"/>
        <polyline class="cls-5" points="462.76 573.2 485.85 550.11 520.92 550.11 541.8 570.98"/>
        <line class="cls-5" x1="466.41" y1="558.89" x2="452.76" y2="572.54"/>
        <polyline class="cls-5" points="485.85 550.11 475.2 550.11 466.41 558.89"/>
        <line class="cls-5" x1="455.87" y1="550.11" x2="433.43" y2="572.54"/>
        <path class="cls-5" d="M408.79,573.2s21.09-28.15,21.09-74.65c0-27.8-7.2-48.09-13-59.92a48.77,48.77,0,0,1-4.35-29.31l1.38-8.44H385.15l1.38,8.44a48.55,48.55,0,0,1-4.35,29.31c-5.79,11.83-13,32.12-13,59.92,0,46.5,21.1,74.65,21.1,74.65C403.39,572.32,395.67,572.32,408.79,573.2Z"/>
        <path class="cls-5" d="M405.21,400.88c3.27-40.6,28.22-90.52,28.22-90.52"/>
        <line class="cls-5" x1="386.55" y1="365.42" x2="395.41" y2="400.88"/>
        <path class="cls-5" d="M410.84,370.21c-17.29-5.73-8-37.46-8-37.46C414.44,345.35,410.84,370.21,410.84,370.21Z"/>
        <polyline class="cls-10" points="789.68 608.51 706.16 739.15 744.42 762.01 791.85 707.42"/>
        <path class="cls-10" d="M744.42,762l-16.8,28.31L646.9,745.85l2.25-3.6a29.92,29.92,0,0,1,37.19-11.62l19.82,8.52"/>
        <path class="cls-10" d="M858.42,505.86l74.86,60.64a42.27,42.27,0,0,0,31.27,9.17c31.59-3.49,32.36-21.35,74.63-122.49A39.38,39.38,0,0,0,1038,421c-9.58-20.13-32-24.15-55.47-5.32-17.73,14.24-30.3,28.11-53.82,48.64-7,10.73-6.07,33.44.46,39.12"/>
        <path class="cls-5" d="M858.42,505.86l17.11-25.2,73.82,31.73c7.83,5.6,7.36,19.6,7.36,19.6"/>
        <g>
          <path class="cls-10" d="M1037.61,566.58c8.1-2.81,15.29-8.91,18.47-17.36l39.71-105.37c5.63-15-2.63-32.67-17.59-38.31l-3-1.14c-3.24-1.22-15.61-2.67-23.32,5.5-5,6-5.69,11.25-9.7,22.7"/>
          <polyline class="cls-10" points="1037.31 574.4 1037.92 566.69 1004.08 553.94"/>
        </g>
        <path class="cls-5" d="M1063,364.56a56.91,56.91,0,0,1-47.09,65.28l-18.69,4.05c-31,5-51.71,19.89-56.73-11.14L921.8,337a56.93,56.93,0,0,1,47.09-65.29l22-3.55a56.92,56.92,0,0,1,65.29,47.1Z"/>
        <path class="cls-5" d="M858.42,504.46,840.55,506a2.24,2.24,0,0,1-2.14-3.33l9-15.91-.73-2.91a6.47,6.47,0,0,1,7.68-7.88l21.2,4.72"/>
        <polyline class="cls-5" points="838.41 502.64 823.05 528.25 778.94 424.2 805.54 394.19 856.82 370.21 892.79 463.87 867.96 478.77"/>
        <line class="cls-5" x1="807.87" y1="398.55" x2="845.68" y2="489.73"/>
        <path class="cls-5" d="M823.05,528.25s-9.4-3.26-13.46,3.74L765.88,428.87,795.74,397c4.67-5.91,20.06-11.51,20.06-11.51L845.68,372"/>
        <path class="cls-5" d="M766.7,428.58s7.23,2.62,12.24-4.67"/>
        <line class="cls-10" x1="162.3" y1="797.16" x2="1259.65" y2="797.16"/>
        <line class="cls-10" x1="162.3" y1="85.45" x2="1259.65" y2="85.45"/>
        <polyline class="cls-5" points="206.26 793.74 206.26 85.45 1223.26 85.45 1223.26 793.74"/>
        <line class="cls-5" x1="531.35" y1="85.45" x2="531.35" y2="546.03"/>
        <line class="cls-5" x1="875.53" y1="85.45" x2="875.53" y2="415.68"/>
        <line class="cls-5" x1="531.35" y1="608.51" x2="531.35" y2="793.74"/>
        <line class="cls-5" x1="206.26" y1="197.43" x2="531.35" y2="197.43"/>
        <line class="cls-5" x1="531.35" y1="131.43" x2="875.53" y2="131.43"/>
        <line class="cls-5" x1="875.53" y1="336.31" x2="913.81" y2="336.31"/>
        <line class="cls-5" x1="1059.07" y1="336.31" x2="1223.26" y2="336.31"/>
        <line class="cls-5" x1="206.26" y1="92.45" x2="1222.03" y2="92.45"/>
        <line class="cls-5" x1="272.81" y1="694.05" x2="341.09" y2="762.33"/>
        <line class="cls-5" x1="318.27" y1="705.56" x2="356.93" y2="744.22"/>
        <line class="cls-5" x1="1119.31" y1="347.61" x2="1195.21" y2="423.52"/>
        <line class="cls-5" x1="1166.74" y1="363.01" x2="1201.97" y2="398.24"/>
        <g>
          <path class="cls-11" d="M556.26,527.72a5.12,5.12,0,0,1-.87-.08,4.67,4.67,0,0,1-3.73-5.45,111.06,111.06,0,0,0-37.57-105.37,4.67,4.67,0,0,1,6-7.14,120.45,120.45,0,0,1,40.73,114.24A4.67,4.67,0,0,1,556.26,527.72Z"/>
          <path class="cls-11" d="M557.86,403.49a5.08,5.08,0,0,1-.7.52,4.68,4.68,0,0,1-6.41-1.58A111.08,111.08,0,0,0,452.49,349a4.67,4.67,0,0,1-.28-9.33,120.45,120.45,0,0,1,106.53,58A4.68,4.68,0,0,1,557.86,403.49Z"/>
          <path class="cls-11" d="M659,586.58a4.57,4.57,0,0,1-1.21-.16,4.67,4.67,0,0,1-3.31-5.71,288.72,288.72,0,0,0,9.65-74.39,294,294,0,0,0-2.26-36.4,4.67,4.67,0,1,1,9.26-1.16,303,303,0,0,1,2.33,37.56,298.4,298.4,0,0,1-10,76.79A4.67,4.67,0,0,1,659,586.58Z"/>
          <path class="cls-11" d="M605.61,595.39a4.67,4.67,0,0,1-5.72-5.88,366.17,366.17,0,0,0,15.76-88.6,4.67,4.67,0,1,1,9.32.5,375.73,375.73,0,0,1-16.16,90.86A4.7,4.7,0,0,1,605.61,595.39Z"/>
        </g>
      </g>
      <g>
        <path class="cls-4" d="M593.25,468.76a18.81,18.81,0,0,1-6.13,1.7,13.45,13.45,0,0,1-5.75-.66,13.29,13.29,0,0,1-5-3.18,20.72,20.72,0,0,1-5.64-12.21,14,14,0,0,1,.76-5.92,13.29,13.29,0,0,1,3.18-4.91,18.1,18.1,0,0,1,5.39-3.68,26.26,26.26,0,0,1,3.25-1.25,25.18,25.18,0,0,1,2.84-.68,21.42,21.42,0,0,1,2.62-.24c.82,0,1.53,0,2.16,0l3.08,6.73-.82.37c-.49-.13-1.09-.29-1.8-.45a17.14,17.14,0,0,0-2.36-.38,13.25,13.25,0,0,0-2.67,0,8.52,8.52,0,0,0-2.75.76,9.37,9.37,0,0,0-2.65,1.79,7.79,7.79,0,0,0-1.8,2.72,8.5,8.5,0,0,0-.49,3.63,12.69,12.69,0,0,0,1.26,4.55,12.33,12.33,0,0,0,2.72,4,8.31,8.31,0,0,0,3.12,1.9,7.47,7.47,0,0,0,3.2.31,10.13,10.13,0,0,0,3-.83,9.89,9.89,0,0,0,2.41-1.57,10.76,10.76,0,0,0,1.87-2.14,15,15,0,0,0,1.17-1.92q.51-1,.81-1.65l.74-.34,3,6.64c-.55.63-1.09,1.23-1.59,1.79a18.5,18.5,0,0,1-1.68,1.62,24.69,24.69,0,0,1-2.28,1.76A20.86,20.86,0,0,1,593.25,468.76Z"/>
        <path class="cls-4" d="M633,449.94l-7.16,3.27L620.24,441l-10.58,4.84,5.6,12.23-7.17,3.28L595.4,433.55l7.16-3.27,4.65,10.16,10.57-4.84-4.65-10.16,7.16-3.28Z"/>
        <path class="cls-4" d="M665.74,435l-7.39,3.38-4.5-4.73-10.28,4.7.63,6.5-7.22,3.3-2.44-32.46,8.25-3.77Zm-15.94-5.65-8-8.39L643,432.43Z"/>
        <path class="cls-4" d="M678.05,417.65l-14.23,6.5-2.45-5.37,14.23-6.5Z"/>
        <path class="cls-4" d="M700.87,419.55a19.12,19.12,0,0,1-6.14,1.7A13,13,0,0,1,684,417.41a19.19,19.19,0,0,1-3.89-5.78,18.83,18.83,0,0,1-1.75-6.43,14.2,14.2,0,0,1,.76-5.92,13.45,13.45,0,0,1,3.19-4.91,18.05,18.05,0,0,1,5.38-3.68,26.88,26.88,0,0,1,3.25-1.25,25.7,25.7,0,0,1,2.84-.68,21.57,21.57,0,0,1,2.63-.24c.81,0,1.53,0,2.15,0l3.08,6.73-.82.37c-.49-.13-1.08-.28-1.8-.45a17.23,17.23,0,0,0-2.35-.38,13.35,13.35,0,0,0-2.68,0,8.46,8.46,0,0,0-2.74.76,9.42,9.42,0,0,0-2.66,1.79,7.79,7.79,0,0,0-1.8,2.72,8.5,8.5,0,0,0-.49,3.63,12.9,12.9,0,0,0,1.26,4.55,12.19,12.19,0,0,0,2.73,4,8.2,8.2,0,0,0,3.11,1.9,7.34,7.34,0,0,0,3.21.3,10.2,10.2,0,0,0,3-.82,9.64,9.64,0,0,0,2.4-1.57,10.82,10.82,0,0,0,1.88-2.14A18.61,18.61,0,0,0,705,408c.33-.65.6-1.2.8-1.65l.75-.34,3,6.64c-.55.63-1.08,1.22-1.59,1.79a19.76,19.76,0,0,1-1.67,1.62,24.76,24.76,0,0,1-2.29,1.76A21.59,21.59,0,0,1,700.87,419.55Z"/>
        <path class="cls-4" d="M740.61,400.72,733.44,404l-5.59-12.24-10.57,4.84,5.59,12.23-7.16,3.28L703,384.34l7.16-3.28,4.65,10.17,10.57-4.84-4.64-10.16,7.16-3.28Z"/>
        <path class="cls-4" d="M762.71,390.62l-16.27,7.43-2.25-4.92,4.55-2.08-8.19-17.92L736,375.21l-2.25-4.93L750,362.85l2.25,4.92-4.55,2.08,8.2,17.93,4.55-2.09Z"/>
        <path class="cls-4" d="M793.8,376.4l-6.9,3.16-20.51-13.68L775.11,385l-6.57,3-12.69-27.77,8.56-3.92,17.4,11.28-7.27-15.91,6.56-3Z"/>
        <path class="cls-4" d="M824.72,360.34a42.12,42.12,0,0,1-4.28,3.71,29.71,29.71,0,0,1-5.81,3.52q-7.08,3.24-12.85,1.22T792.9,360q-3-6.48-.72-12.29t9.47-9.12a29.24,29.24,0,0,1,5.45-1.9,25.77,25.77,0,0,1,6.42-.55l3,6.51-.8.36-2-.41a20.37,20.37,0,0,0-2.49-.33,13.55,13.55,0,0,0-3,.13,11.85,11.85,0,0,0-3.27,1,11.07,11.07,0,0,0-3.19,2.14,8.71,8.71,0,0,0-2,3,8.49,8.49,0,0,0-.56,3.69,11.74,11.74,0,0,0,1.14,4.29c1.41,3.07,3.29,5,5.67,5.94s5.15.59,8.33-.86l.9-.43.88-.47-2.49-5.45L808,357.73l-2.4-5.24,12.82-5.86Z"/>
      </g>
    </g>
    <path class="cls-2" d="M1052.52,763.82a1.5,1.5,0,0,0,0-3,1.5,1.5,0,0,0,0,3Z"/>
    <g>
      <line class="cls-5" x1="206.26" y1="354.63" x2="131.79" y2="354.63"/>
      <line class="cls-5" x1="169.03" y1="355" x2="169.03" y2="312.33"/>
    </g>
    <g>
      <line class="cls-5" x1="1296.89" y1="629.47" x2="1222.42" y2="629.47"/>
      <line class="cls-5" x1="1259.65" y1="629.84" x2="1259.65" y2="587.17"/>
    </g>
  </g>
</svg>
