<svg id="work" xmlns="http://www.w3.org/2000/svg" viewBox="0 0 1422 870">
  <defs>
    <style>
      .cls-1 {
        fill: #fff;
      }

      .cls-12, .cls-2, .cls-4 {
        fill: none;
      }

      .cls-11, .cls-2, .cls-4, .cls-5, .cls-6 {
        stroke: #4a4a4a;
      }

      .cls-11, .cls-12, .cls-2, .cls-4, .cls-5, .cls-6 {
        stroke-linecap: round;
        stroke-linejoin: round;
      }

      .cls-2, .cls-5, .cls-6 {
        stroke-width: 2.5px;
      }

      .cls-3 {
        fill: #ededed;
      }

      .cls-11, .cls-4 {
        stroke-width: 4px;
      }

      .cls-5, .cls-9 {
        fill: #ff0083;
      }

      .cls-6, .cls-8 {
        fill: #ebebeb;
      }

      .cls-7 {
        fill: #f9f9f9;
      }

      .cls-10, .cls-11 {
        fill: #ebeaea;
      }

      .cls-12 {
        stroke: #ff339c;
        stroke-width: 3px;
      }
    </style>
  </defs>
  <title>11,1</title>
  <g>
    <path class="cls-1" d="M355.94,794.17c1-17.5,12-31.25,33.5-30.25-10.75-33.5-39.5-125.75-39.5-125.75l-19-3.25-25,19.25-3-10.75-9.25,4.5-4-2.5-6-51.75,28.75-14.5,3-15s-5.75-62.25,16.25-103.75,49.75-72.25,58.25-79c-7.25-30.75-18.25-69.5-16.5-74.5.25-.75,119.5-29.25,120.75-29.25,7.25,14,7.25,20,7.25,20l10.5,44.5,11.75,4.25-8.5,9,1.75,23-12.75,21.5,99.75,119.75,12.5,4.75,3.75-19c-10-8-6.5-20.5-1-26.75s26-8.76,31.5,10c4.75,16.25-13.25,21.75-13.25,21.75-3.25,19-44,202.5-44,202.5h-7l24.25-153.5-17.25-23.5-41-12.75c5,24,5,68-1,95.75a23.6,23.6,0,0,1-9,1.5l-33.25,143c13.5,1,27,10.5,29,30C516.94,793.17,355.94,794.17,355.94,794.17Z"/>
    <g>
      <path class="cls-2" d="M491.92,368.69c1.74,9.28-2.76,17.92-10.05,19.28s-14.61-5-16.35-14.33,2.75-17.92,10-19.29S490.17,359.4,491.92,368.69Z"/>
      <g>
        <polygon class="cls-3" points="461.65 694.32 473.28 709.93 461.92 762.19 446.67 762.19 461.65 694.32"/>
        <polygon class="cls-3" points="362.83 620.45 347.85 620.45 390.77 763.19 405.75 763.19 362.83 620.45"/>
        <polyline class="cls-4" points="503.07 400.34 603.74 519.68 592.18 535.62 554.5 523.2"/>
        <path class="cls-4" d="M395.9,619.45H551.48c8.54-50.19,7.59-81.7-8.49-137.18"/>
        <path class="cls-2" d="M318,563.14c9.71-2.16,20.93,3.15,21.19,5.3,1.27,10.52,4,42.69,4,42.69s.64,8-4.28,8.32"/>
        <path class="cls-4" d="M389.28,381.37c-32.15,34.69-82.89,85.2-73.15,182.28"/>
        <path class="cls-4" d="M516.68,360.91a38.11,38.11,0,0,1-28,46l-50.39,12.23a38.1,38.1,0,0,1-46-28l-17.48-72a38.1,38.1,0,0,1,28-46l50.39-12.23a38.08,38.08,0,0,1,46,28Z"/>
        <polygon class="cls-1" points="545.07 265.64 321.38 318.49 367.88 289.03 490.31 260.11 545.07 265.64"/>
        <g>
          <rect class="cls-1" x="355.05" y="171.53" width="124.88" height="103.83" transform="translate(-40.49 103.12) rotate(-13.44)"/>
          <g>
            <polygon class="cls-5" points="463.76 453.22 428.73 466.78 427.27 439.45 463.51 448.61 463.76 453.22"/>
            <polygon class="cls-5" points="473.66 452.84 508.84 457.82 504 430.89 472.84 448.28 473.66 452.84"/>
            <path class="cls-5" d="M477.35,450.12a11.17,11.17,0,1,0-9.7,12.41A11.2,11.2,0,0,0,477.35,450.12Z"/>
          </g>
          <path class="cls-6" d="M426.11,367c14-1.5,12.22-30.69,48.41-15.22,28.2-26,33.94-5.74,50.41-6-12,15.47-25.7,22.95-37.68,16.22s-17.8,2.14-22,6.73C460.55,373.93,442.83,378.68,426.11,367Z"/>
          <polygon class="cls-4" points="545.07 265.64 321.38 318.49 367.88 289.03 490.31 260.11 545.07 265.64"/>
          <polygon class="cls-7" points="406.59 279.32 368.77 288.47 344.75 187.44 382.56 178.3 406.59 279.32"/>
          <rect class="cls-4" x="355.05" y="171.53" width="124.88" height="103.83" transform="translate(-40.49 103.12) rotate(-13.44)"/>
          <rect class="cls-5" x="362.82" y="237.72" width="124.88" height="36.77" transform="translate(-47.76 105.49) rotate(-13.4)"/>
        </g>
        <path class="cls-8" d="M378.64,571.48l-2.24,55.31H329.72L289.43,646l-5.12-52.12,26.38-14.42-7.92,25.39a7.11,7.11,0,0,0,5.71,9.14l29.65,6.57c6.24.66,7.24-6,7-10.61l-3.48-38.45Z"/>
        <line class="cls-4" x1="350.18" y1="638.31" x2="389.28" y2="761.69"/>
        <line class="cls-4" x1="543" y1="621.44" x2="510.06" y2="760.69"/>
        <line class="cls-2" x1="461.15" y1="688.82" x2="447.67" y2="759.7"/>
        <path class="cls-4" d="M538,793.14a29.71,29.71,0,0,0-29.46-29.95H386.79a29.71,29.71,0,0,0-29.46,29.95Z"/>
        <line class="cls-2" x1="446.17" y1="763.69" x2="446.17" y2="793.14"/>
        <path class="cls-2" d="M394.27,395.35c10,0,24-6.49,20.46-59.39"/>
        <path class="cls-6" d="M455.65,325.85a21.09,21.09,0,1,0-21.08,21.09A21.09,21.09,0,0,0,455.65,325.85Z"/>
        <polyline class="cls-4" points="592.18 535.62 611.09 560.05 613.49 542.06"/>
        <polyline class="cls-4" points="603.73 519.63 626.6 524.8 624.52 536.63 613.01 542.07"/>
        <path class="cls-2" d="M612.05,554.05,587.11,712.81l6.71-.48,43.65-201.92c.48-8.63-14.39-11-16.79-4.8l-2.16,14.87"/>
        <path class="cls-2" d="M639.36,509.66a18.71,18.71,0,1,0-20.15-4.49"/>
        <polyline class="cls-2" points="339.15 568.44 358.34 519.52 402.46 483.07"/>
        <path class="cls-2" d="M338.87,619.45l-30.58-5a6.24,6.24,0,0,1-5.07-8.07l12.85-42.76"/>
        <polyline class="cls-2" points="310.85 578.84 284.31 593.86 289.43 645.98 329.72 626.8 376.4 626.8 379.6 571.8 339.31 571.16"/>
        <polyline class="cls-2" points="378.96 579.79 393.99 580.75 384.07 634.15 330.68 630.63 293.27 647.58"/>
        <polyline class="cls-2" points="393.03 588.11 399.74 589.39 389.83 643.1 330.68 634.47 305.42 653.34 303.82 646.3"/>
        <path class="cls-2" d="M357.22,576.6s0,12.15,13.74,17.58"/>
        <path class="cls-2" d="M292,624.24s11.51-4.16,18.54,6.71"/>
      </g>
      <path class="cls-2" d="M490.64,310.81c1.24,5.33-1.58,10.55-6.31,11.65s-9.57-2.32-10.82-7.65,1.58-10.55,6.31-11.65S489.39,305.48,490.64,310.81Z"/>
      <path class="cls-2" d="M447.13,320.94c1.31,5.32-1.46,10.57-6.17,11.73s-9.6-2.21-10.91-7.53,1.46-10.56,6.18-11.72S445.82,315.63,447.13,320.94Z"/>
    </g>
    <g>
      <g>
        <g>
          <path class="cls-9" d="M1206.88,148.89a6,6,0,0,1-2,8.24l-33.76,20.52a6,6,0,0,1-8.24-2l-43.37-71.36a6,6,0,0,1,2-8.24l33.76-20.52a6,6,0,0,1,8.24,2Z"/>
          <path class="cls-2" d="M1206.88,148.89a6,6,0,0,1-2,8.24l-33.76,20.52a6,6,0,0,1-8.24-2l-43.37-71.36a6,6,0,0,1,2-8.24l33.76-20.52a6,6,0,0,1,8.24,2Z"/>
          <path class="cls-2" d="M1208.88,151.89a6,6,0,0,1-2,8.24l-33.76,20.52a6,6,0,0,1-8.24-2"/>
          <line class="cls-2" x1="1163.38" y1="162.39" x2="1194.38" y2="143.89"/>
        </g>
        <path class="cls-1" d="M1173.34,134l-3.47,2.14-2.49-4-2.2,1.36c.84,1.36,1.66,2.7,2.49,4l-3.47,2.14-2.51-4.06-7.32,4.53-2.12-3.43.3-.19c.45-.29.91-.56,1.35-.87a1.32,1.32,0,0,0,.44-2c-.2-.35-.4-.72-.62-1.07q-3.88-6.3-7.79-12.59c-.35-.57-.71-1.13-1.08-1.69a1.35,1.35,0,0,0-2-.49c-.48.25-.94.55-1.41.82l-.28.16c-.71-1.15-1.41-2.27-2.12-3.43l7.32-4.53-2.5-4,3.46-2.14,2.5,4,2.2-1.36-2.49-4,3.46-2.14.2.31c.74,1.18,1.47,2.36,2.19,3.55.16.27.3.36.6.2a5.22,5.22,0,0,1,.73-.32,8.64,8.64,0,0,1,4.23-.61,6.29,6.29,0,0,1,4.54,2.7,6.16,6.16,0,0,1,1.13,3.68,7.69,7.69,0,0,1-1.77,4.7l-.22.3a.7.7,0,0,0,.36,0,10.09,10.09,0,0,1,3.27-.53,6.27,6.27,0,0,1,4.47,1.92,7.24,7.24,0,0,1,1.6,8.07,10.57,10.57,0,0,1-3.37,4.4c-.23.19-.24.31-.09.55C1171.72,131.39,1172.52,132.72,1173.34,134Zm-16.8-10.53.11.19c1.07,1.74,2.15,3.49,3.23,5.22a11.79,11.79,0,0,0,.76,1.09.59.59,0,0,0,.82.2c.86-.49,1.72-1,2.55-1.5a21.75,21.75,0,0,0,2.08-1.48,4.14,4.14,0,0,0,1.44-2.17,4.19,4.19,0,0,0-.47-3.26,3.56,3.56,0,0,0-3.84-1.84,8.19,8.19,0,0,0-2.62,1.05c-1.29.76-2.56,1.56-3.84,2.35Zm-2.26-3.66.24-.12,2.54-1.58a12.5,12.5,0,0,0,2.68-2.06,3.52,3.52,0,0,0,1-2.33,3.24,3.24,0,0,0-4.34-3.23,11.31,11.31,0,0,0-1.73.79c-1.33.77-2.63,1.59-3.93,2.38a2.35,2.35,0,0,0-.21.16C1151.81,115.85,1153,117.83,1154.28,119.85Z"/>
      </g>
      <g>
        <path class="cls-8" d="M1020.26,491.39h56.66a4.15,4.15,0,0,0,3.76-5.29l-10.17-37s10.87-16,10.87-27.51V283.71c0-19.58-15.13-36.32-34.7-36.32h-4c-4.23,0-19,3.7-24.34,16.39l-2.08,6.06Z"/>
        <path class="cls-4" d="M1069.71,449.48c8.06-6.71,13.67-16.81,13.67-27.87V283.71c0-19.58-17.13-36.32-36.7-36.32h-4c-4.23,0-19,3.68-24.34,16.38l-1.9,5.36"/>
        <path class="cls-4" d="M1020.27,491.06h56.64a3.85,3.85,0,0,0,3.77-4.92l-10.57-36.66h-44.29"/>
      </g>
      <g>
        <path class="cls-1" d="M1029.43,263.41m4,81,71-76,50-82.5-1.5-5.5,8-11-9.5-37-14.5,1-9,31.5-33,55.5-64,37.5-28.25.47-99.28-.14-29.14,6.84L868,269.91c-.14.13-.34.25-.46.38-8.67,9.17-14.85,21.6-14.87,35.3l-.25,181.73c0,4.43,8.67,3.91,8.67,3.91l-.06,39c0,15.08,11.53,22.2,28.88,22.92l-.29,208.08c-18,0-28.92,8.31-28.94,21.66l0,10.95,174,.24.39-285.36Zm-42.44-86.05,3.2-11.06-.54-33.72c0-.14.33-.27.44-.43.2-.32.4-.7.6-1,5.77-10.42,7.34-36.23,4.44-50.32-1.92-9.37-9.73-31.44-40.49-34.87-17.07-1.9-28.41,2.86-42.17,11.69-8,5.16-16.23-3.87-16.57-4.25a3.24,3.24,0,0,0-3.17-1,3.51,3.51,0,0,0-2.53,2.31c-7.53,22-2.13,62.51,4,73,.23.4.2.78.43,1.1,0,0,0,0,0,.07l.21,32c0,4,3.64,12.95,4.81,16.6"/>
        <path class="cls-2" d="M887.29,552.57c-16.54,0-26.09-9.69-26.07-22.29l0-39.7,30.89,0"/>
        <path class="cls-4" d="M956.5,761.37l-72-.1c-12.8,0-23.61,8.87-23.63,21.67V793.6l78,.11"/>
        <rect class="cls-10" x="834.42" y="637.24" width="229.75" height="15.84" transform="translate(302.67 1593.46) rotate(-89.91)"/>
        <polygon class="cls-10" points="1034.3 760.16 1020.44 760.14 1020.76 360.38 1034.62 344.4 1034.3 760.16"/>
        <path class="cls-4" d="M937.34,793.71l97.09.13,0-32.36-73.49-.1a23.66,23.66,0,0,0-23.63,23.56Z"/>
        <path class="cls-4" d="M1034.85,492.3l-.38,269.18-144.15-.2.37-270.66-33-.05c-2.41,0-5.27-.84-5.27-3.25l.25-181.73c0-26.2,22.41-47.22,48.61-47.19h0"/>
        <line class="cls-2" x1="887.05" y1="490.62" x2="1035.05" y2="490.77"/>
        <path class="cls-4" d="M990.94,258.35h40.94l62.5-36.47,31-54c5.5-6.5,35.5,7,29,19s-48.5,79.5-48.5,79.5l-70.5,76.5-.54,149s-.37,269.55-.37,269.55l-78-.11"/>
        <line class="cls-2" x1="956.83" y1="530.43" x2="956.51" y2="759.9"/>
        <line class="cls-2" x1="883.33" y1="490.61" x2="883.56" y2="330.27"/>
        <g>
          <g>
            <path class="cls-4" d="M994.05,206.87l0,35.94c0,19.42-17,36.11-36.45,36.08l-23.63,0c-19.42,0-34.09-16.77-34.06-36.18l.06-41.83"/>
            <path class="cls-11" d="M960,127.54c-16.67-2.48-27.77,1.4-42.67,10.24-11.55,6.84-22-5.89-22-5.89-8.37,23-1.33,67.34,4.54,75l0-13.75c0-9.67,5.85-24.27,14.43-22.52,29,5.92,32.93-14.81,61.6-1.26,7.52,3.56,9.59,16.8,11.42,27.66.83,4.87,5.64,13.79,5.64,13.79l0,1.11c6-8.82,8.1-35.73,5.49-49.79C995.75,147.42,985.2,131.28,960,127.54Z"/>
            <g>
              <path class="cls-2" d="M912.83,215.09a9.81,9.81,0,0,1,19.61,0"/>
              <path class="cls-2" d="M951.08,215.14a9.81,9.81,0,0,1,19.61,0"/>
            </g>
            <path class="cls-2" d="M924.32,241.33c19.93,18.7,37,0,37,0"/>
          </g>
          <path class="cls-4" d="M1026.47,172.71c0-41.22-29.13-70.28-70.36-70.33l-15.44,0c-41.24,0-78.9,28.91-78.95,70.13l-.12,78.33c0,.24,0-.25,0,0,0,24.37,37.46,45.66,83,45.72s81.77-21.12,81.8-45.49c0-.25,0,.24,0,0Z"/>
        </g>
      </g>
      <path class="cls-2" d="M1128.71,166.06l7.51-30.64a4.5,4.5,0,0,1,4.28-3.43l6.5-.13a8,8,0,0,1,8.08,6.84l4.47,30.26a3.49,3.49,0,0,1-.35,2.08l-4.49,8.68S1144.38,164.39,1128.71,166.06Z"/>
    </g>
    <line class="cls-4" x1="1244.38" y1="793.39" x2="1262.38" y2="793.39"/>
    <line class="cls-4" x1="258.38" y1="793.39" x2="1226.38" y2="793.39"/>
    <line class="cls-4" x1="168.38" y1="793.39" x2="242.38" y2="793.39"/>
    <line class="cls-12" x1="127.14" y1="432.39" x2="260.38" y2="432.39"/>
    <line class="cls-12" x1="722.38" y1="700.39" x2="762.38" y2="700.39"/>
    <line class="cls-12" x1="722.38" y1="300.39" x2="746.38" y2="300.39"/>
    <line class="cls-12" x1="1178.38" y1="578.39" x2="1248.38" y2="578.39"/>
    <line class="cls-12" x1="726.38" y1="314.39" x2="680.38" y2="314.39"/>
    <g>
      <path class="cls-2" d="M680.38,78.92H825.73a21.82,21.82,0,0,1,21.83,21.82v64.18s-.37,21-16.87,21H809.47a4.05,4.05,0,0,0-4.06,4.05v28.48a1.24,1.24,0,0,1-2.16.84l-35.63-32a4.07,4.07,0,0,0-3-1.32H640.73a21.82,21.82,0,0,1-21.82-21.82V100.74a21.82,21.82,0,0,1,21.82-21.82h23.65m5,0h5"/>
      <g>
        <path class="cls-9" d="M670.14,136.23a6.53,6.53,0,0,1,1.3,4.08,6.14,6.14,0,0,1-2.82,5.4c-1.87,1.26-4.58,1.9-8.13,1.9H646.13V121h13.6q5.1,0,7.75,1.88a5.88,5.88,0,0,1,2.66,5.07,6.31,6.31,0,0,1-.93,3.4,6.5,6.5,0,0,1-2.64,2.38A7.42,7.42,0,0,1,670.14,136.23Zm-16.56-9.79v5.13h5.16c2.54,0,3.8-.86,3.8-2.58s-1.26-2.55-3.8-2.55Zm10.26,13q0-2.7-4-2.7h-6.3v5.39h6.3Q663.84,142.17,663.84,139.48Z"/>
        <path class="cls-9" d="M696.71,141.79v5.82H675.35V121h20.86v5.81H682.8v4.49h11.82v5.62H682.8v4.86Z"/>
        <path class="cls-9" d="M726.19,121v26.6h-7.52V137.23H708.41v10.38h-7.52V121h7.52v10h10.26V121Z"/>
        <path class="cls-9" d="M737.35,146.35a13.24,13.24,0,0,1-5.28-4.94,13.6,13.6,0,0,1,5.28-19.15,17,17,0,0,1,15.16,0,13.6,13.6,0,0,1,0,24.09,16.94,16.94,0,0,1-15.16,0ZM748.58,141a6.86,6.86,0,0,0,2.58-2.68,8.77,8.77,0,0,0,0-7.94,6.73,6.73,0,0,0-2.58-2.68,7.49,7.49,0,0,0-7.3,0,6.73,6.73,0,0,0-2.58,2.68,8.77,8.77,0,0,0,0,7.94,6.86,6.86,0,0,0,2.58,2.68,7.49,7.49,0,0,0,7.3,0Z"/>
        <path class="cls-9" d="M763.66,121h7.53v20.63h12.69v6H763.66Z"/>
        <path class="cls-9" d="M786.84,121h12.58a17.58,17.58,0,0,1,7.75,1.63,12.37,12.37,0,0,1,5.25,4.64,14.22,14.22,0,0,1,0,14.06,12.28,12.28,0,0,1-5.25,4.63,17.59,17.59,0,0,1-7.75,1.64H786.84Zm12.28,20.59a7.71,7.71,0,0,0,5.49-1.93,8,8,0,0,0,0-10.72,7.72,7.72,0,0,0-5.49-1.94h-4.75V141.6Z"/>
        <path class="cls-9" d="M818.19,146.79A3.77,3.77,0,0,1,817,144a3.62,3.62,0,0,1,1.22-2.81,4.44,4.44,0,0,1,3.12-1.1,4.35,4.35,0,0,1,3.09,1.1,3.64,3.64,0,0,1,1.2,2.81,3.73,3.73,0,0,1-1.22,2.83,4.28,4.28,0,0,1-3.07,1.16A4.35,4.35,0,0,1,818.19,146.79ZM817,121h8.59l-1.44,16.91h-5.74Z"/>
      </g>
    </g>
  </g>
</svg>
