<svg id="work" xmlns="http://www.w3.org/2000/svg" viewBox="0 0 1422 870">
  <defs>
    <style>
      .cls-1 {
        fill: #ebebeb;
      }

      .cls-2, .cls-5, .cls-9 {
        fill: none;
      }

      .cls-2, .cls-5, .cls-6 {
        stroke: #4a4a4a;
      }

      .cls-2, .cls-5, .cls-6, .cls-9 {
        stroke-linecap: round;
        stroke-linejoin: round;
      }

      .cls-2, .cls-6 {
        stroke-width: 4px;
      }

      .cls-3, .cls-6 {
        fill: #fff;
      }

      .cls-4 {
        fill: #ff0083;
      }

      .cls-5 {
        stroke-width: 2.5px;
      }

      .cls-7 {
        fill: #ff339c;
      }

      .cls-8 {
        fill: #efefef;
      }

      .cls-9 {
        stroke: #ff339c;
        stroke-width: 3px;
      }
    </style>
  </defs>
  <title>9,1</title>
  <g>
    <path class="cls-1" d="M533.37,636.34V622.65h223.2v100.8H742.49V640.26a3.92,3.92,0,0,0-3.92-3.92Z"/>
    <g>
      <line class="cls-2" x1="704.2" y1="396.96" x2="858.19" y2="396.96"/>
      <line class="cls-2" x1="668.53" y1="407.15" x2="725.14" y2="407.15"/>
      <line class="cls-2" x1="732.42" y1="407.15" x2="749.49" y2="407.15"/>
      <line class="cls-2" x1="704.2" y1="493.2" x2="839.69" y2="493.2"/>
      <path class="cls-2" d="M820.07,384.13V364.79a6.61,6.61,0,0,1,10.42-5.41l114.94,80.93,0,10.79L830.53,533.28a6.62,6.62,0,0,1-10.46-5.38V507.54"/>
    </g>
    <g>
      <path class="cls-1" d="M1024.65,186.35c2.38-2.95,9-13.63,25.89-6.66L1247.29,254a13.22,13.22,0,0,1,8.41,14.25L1191.58,712.7a9.91,9.91,0,0,1-5.41,7.47l-8.11,4"/>
      <path class="cls-3" d="M1240.14,261.46a10.55,10.55,0,0,1,7.68,11.68L1184.71,715a12.18,12.18,0,0,1-6.65,9.18l-6.1,3a17.79,17.79,0,0,1-14.41.63L997.47,665a21.84,21.84,0,0,1-10.71-9l-7.71-12.72a17,17,0,0,1-2.37-10.6l46.77-442.84a8,8,0,0,1,11.49-6.33c36,17.79,28.92,14.71,43.41,20.16a6.72,6.72,0,0,1,4.34,5.75l.65,8.18a6.72,6.72,0,0,0,4.31,5.74l89.16,34a6.72,6.72,0,0,0,8.2-2.89l2-3.39a6.72,6.72,0,0,1,8.23-2.87C1208,253.12,1202.32,251.18,1240.14,261.46Z"/>
      <path class="cls-4" d="M1120.75,570.08l-18.67-7.79q1.26-12.72,2.54-25.48l-11.89-5c-.85,8.59-1.69,17-2.54,25.48l-18.67-7.79c.85-8.49,1.69-17,2.56-25.68l-39.48-16.48c.73-7.3,1.44-14.4,2.16-21.67.62.26,1.12.49,1.63.69,2.46,1,4.91,2,7.37,2.9,4.26,1.5,6.59-.17,7.25-5.06.29-2.18.6-4.35.83-6.56q4-39.8,7.93-79.6c.35-3.59.64-7.21.91-10.84.36-4.95-1.53-8.49-5.69-10.54-2.47-1.22-5-2.21-7.47-3.32-.5-.22-1-.47-1.48-.7.72-7.29,1.43-14.38,2.16-21.7l39.47,16.47c.87-8.68,1.71-17.12,2.55-25.57l18.67,7.79q-1.26,12.72-2.54,25.49l11.89,5c.85-8.6,1.69-17.05,2.54-25.49l18.67,7.79c0,.66-.08,1.34-.15,2-.74,7.47-1.44,14.95-2.26,22.38-.19,1.69,0,2.66,1.6,3.37a29.56,29.56,0,0,1,3.57,2.14,57.84,57.84,0,0,1,17,16.67c6.18,9.26,9.21,19.25,8.69,29.85-.37,7.41-2.59,13.4-6.46,18.15-5.15,6.32-12.06,8.64-19.88,8.87-.56,0-1.11.07-1.66.11a5.1,5.1,0,0,0,1.39,1.52,68.78,68.78,0,0,1,13.33,12.67,49.89,49.89,0,0,1,10.66,26.77c1.45,18.29-4.75,30.08-17.34,35.86-7.59,3.48-16.07,2.91-24.81.71-1.37-.35-1.75,0-1.89,1.56C1122.47,553.42,1121.6,561.74,1120.75,570.08Zm-30.59-112.34c-.07.51-.12.83-.16,1.16-1.09,11-2.21,22-3.27,33-.23,2.38-.32,4.82-.35,7.26a4.39,4.39,0,0,0,2.38,4.35c4.49,2.11,9,4.24,13.52,6.05a109.35,109.35,0,0,0,11.78,3.95c4.15,1.12,8,.79,11.43-1.34,4.41-2.76,6.81-7.42,7.66-13.71a27.31,27.31,0,0,0-8.64-23.64,44.65,44.65,0,0,0-12.49-7.91c-6.86-3.08-13.75-5.87-20.63-8.78C1091,458,1090.65,457.89,1090.16,457.74Zm2.35-23.13c.46.24.82.47,1.18.62,4.58,1.92,9.14,3.85,13.72,5.71,5.19,2.11,10.4,4.1,15.61,4.58,4.1.37,7.79-.48,10.49-3.65,6.11-7.16,5-23.3-6.45-30.87a62.22,62.22,0,0,0-8.55-4.86c-7-3.15-14-6-21-9-.37-.15-.74-.23-1.18-.36C1095,409.35,1093.78,421.87,1092.51,434.61Z"/>
      <path class="cls-2" d="M1240.14,261.46a10.55,10.55,0,0,1,7.68,11.68L1184.71,715a12.18,12.18,0,0,1-6.65,9.18l-6.1,3a17.79,17.79,0,0,1-14.41.63L997.47,665a21.84,21.84,0,0,1-10.71-9l-7.71-12.72a17,17,0,0,1-2.37-10.6l46.77-442.84a8,8,0,0,1,11.49-6.33c36,17.79,28.92,14.71,43.41,20.16a6.72,6.72,0,0,1,4.34,5.75l.65,8.18a6.72,6.72,0,0,0,4.31,5.74l89.16,34a6.72,6.72,0,0,0,8.2-2.89l2-3.39a6.72,6.72,0,0,1,8.23-2.87C1208,253.12,1202.32,251.18,1240.14,261.46Z"/>
      <path class="cls-2" d="M1024.65,186.35c2.38-2.95,9-13.63,25.89-6.66L1247.29,254a13.22,13.22,0,0,1,8.41,14.25L1191.58,712.7a9.91,9.91,0,0,1-5.41,7.47l-8.11,4"/>
      <path class="cls-1" d="M1083.87,672.07c6.19-2.53,10.55-9.13,10.75-17.58.27-11.94-7.88-23-18.2-24.78s-18.93,6.52-19.2,18.46,7.88,23,18.2,24.78a15.43,15.43,0,0,0,8.45-.88"/>
      <path class="cls-5" d="M1083.1,672.34a3.35,3.35,0,0,0,.77-.27"/>
      <path class="cls-5" d="M1090.75,666.6a21.25,21.25,0,0,0,3.87-12.11c.27-11.94-7.88-23-18.2-24.78s-18.93,6.52-19.2,18.46,7.88,23,18.2,24.78a16.05,16.05,0,0,0,4.68.11"/>
    </g>
    <line class="cls-5" x1="569.29" y1="309.96" x2="662.29" y2="309.96"/>
    <line class="cls-5" x1="536.63" y1="317.32" x2="629.63" y2="317.32"/>
    <line class="cls-5" x1="558.81" y1="590.08" x2="621.81" y2="590.08"/>
    <line class="cls-5" x1="512.32" y1="590.08" x2="535.32" y2="590.08"/>
    <line class="cls-5" x1="193.88" y1="298.42" x2="216.88" y2="298.42"/>
    <line class="cls-5" x1="382.87" y1="688.06" x2="405.87" y2="688.06"/>
    <g>
      <g>
        <rect class="cls-6" x="262.74" y="160.76" width="223.2" height="100.8"/>
        <path class="cls-5" d="M340.77,261.56a60,60,0,0,1,0-100.8"/>
        <path class="cls-5" d="M405.88,160.76a60,60,0,0,1,0,100.8"/>
        <circle class="cls-5" cx="289.21" cy="211.16" r="8.37" transform="translate(-30.09 49.05) rotate(-9.22)"/>
        <circle class="cls-5" cx="458.64" cy="211.16" r="8.37" transform="translate(-27.9 76.19) rotate(-9.22)"/>
      </g>
      <path class="cls-7" d="M393.55,234.67q-4.95,4.83-14.29,6v9.26H371v-9a45,45,0,0,1-11.65-2.15,29.22,29.22,0,0,1-8.92-4.46L355,224.21a29.78,29.78,0,0,0,7.36,3.89,33.17,33.17,0,0,0,8.67,2v-13.8a62,62,0,0,1-9.91-3.14,17.47,17.47,0,0,1-6.78-5.08,13.62,13.62,0,0,1-2.73-8.89,15.94,15.94,0,0,1,5-11.77q5-4.92,14.42-6v-9.18h8.27v9q10.15.82,16.77,5l-4.13,10.17a32.94,32.94,0,0,0-12.64-4.3v14a60.43,60.43,0,0,1,9.79,3,17.27,17.27,0,0,1,6.74,5,13.53,13.53,0,0,1,2.72,8.8A15.61,15.61,0,0,1,393.55,234.67Zm-27.1-32.77a12.79,12.79,0,0,0,4.54,2.23V192.4a8.92,8.92,0,0,0-4.62,2.35,5.35,5.35,0,0,0-1.49,3.76A4.22,4.22,0,0,0,366.45,201.9Zm17.27,25.7a4.84,4.84,0,0,0,1.49-3.55,4.27,4.27,0,0,0-1.53-3.39,13.52,13.52,0,0,0-4.42-2.31v11.4A8.92,8.92,0,0,0,383.72,227.6Z"/>
    </g>
    <g>
      <g>
        <rect class="cls-6" x="74.11" y="335.98" width="223.2" height="100.8"/>
        <path class="cls-5" d="M152.14,436.78a60,60,0,0,1,0-100.8"/>
        <path class="cls-5" d="M217.25,336a60,60,0,0,1,0,100.8"/>
        <path class="cls-5" d="M109,386.38a8.37,8.37,0,1,0-8.37,8.36A8.36,8.36,0,0,0,109,386.38Z"/>
        <path class="cls-5" d="M278.37,386.38a8.37,8.37,0,1,0-8.36,8.36A8.36,8.36,0,0,0,278.37,386.38Z"/>
      </g>
      <path class="cls-7" d="M195.58,390.72H208v6.86H192.53v4.54H208V409H192.53v7.44H179.14V409H163.69v-6.86h15.45v-4.54H163.69v-6.86h12.47l-21.9-32.15h14.3l17.69,25.87,17.85-25.87h13.38Z"/>
    </g>
    <g>
      <g>
        <g>
          <rect class="cls-6" x="394.24" y="399.94" width="223.2" height="100.8"/>
          <path class="cls-5" d="M472.26,500.74a60,60,0,0,1,0-100.8"/>
          <path class="cls-5" d="M537.38,399.94a60,60,0,0,1,0,100.8"/>
          <path class="cls-5" d="M429.07,450.34a8.37,8.37,0,1,0-8.36,8.37A8.36,8.36,0,0,0,429.07,450.34Z"/>
          <path class="cls-5" d="M598.5,450.34a8.37,8.37,0,1,0-8.37,8.37A8.36,8.36,0,0,0,598.5,450.34Z"/>
        </g>
        <path class="cls-7" d="M500.17,467.24h28.35V478H478.44V467.24h8.26V453h-8.26v-8h8.26v-2.15q0-11.07,7.07-17.4t19.79-6.32q9.91,0,16.61,3.8l-4,10.58a23.79,23.79,0,0,0-12.4-3c-4.41,0-7.76,1-10.08,3.05s-3.47,5-3.47,9V445H520v8H500.17Z"/>
      </g>
      <path class="cls-8" d="M596.57,393.67V370H373.37v100.8h14.07V397.6a3.93,3.93,0,0,1,3.92-3.93Z"/>
      <polyline class="cls-5" points="387.44 470.78 373.37 470.78 373.37 369.98 596.57 369.98 596.57 393.58"/>
    </g>
    <g>
      <g>
        <rect class="cls-6" x="217.39" y="539.67" width="223.2" height="100.8"/>
        <path class="cls-5" d="M295.41,640.47a60,60,0,0,1,0-100.8"/>
        <path class="cls-5" d="M360.52,539.67a60,60,0,0,1,0,100.8"/>
        <path class="cls-5" d="M252.22,590.07a8.37,8.37,0,1,0-8.36,8.37A8.36,8.36,0,0,0,252.22,590.07Z"/>
        <path class="cls-5" d="M421.64,590.07a8.37,8.37,0,1,0-8.36,8.37A8.36,8.36,0,0,0,421.64,590.07Z"/>
      </g>
      <path class="cls-7" d="M347,614.78q-5,4.83-14.3,6V630h-8.26v-9a45.06,45.06,0,0,1-11.66-2.15,29.34,29.34,0,0,1-8.92-4.46l4.54-10.08a30.28,30.28,0,0,0,7.36,3.88,33.25,33.25,0,0,0,8.68,2v-13.8a61.16,61.16,0,0,1-9.92-3.14,17.55,17.55,0,0,1-6.78-5.08,13.61,13.61,0,0,1-2.73-8.88,16,16,0,0,1,5-11.78q5-4.92,14.43-6v-9.18h8.26v9q10.17.82,16.77,5l-4.13,10.17a32.88,32.88,0,0,0-12.64-4.3v14a59.39,59.39,0,0,1,9.79,3,17.25,17.25,0,0,1,6.74,5,13.53,13.53,0,0,1,2.73,8.8A15.65,15.65,0,0,1,347,614.78ZM319.89,582a12.85,12.85,0,0,0,4.55,2.23V572.51a8.91,8.91,0,0,0-4.63,2.35,5.4,5.4,0,0,0-1.49,3.77A4.21,4.21,0,0,0,319.89,582Zm17.27,25.7a4.84,4.84,0,0,0,1.49-3.55,4.27,4.27,0,0,0-1.53-3.39,13.42,13.42,0,0,0-4.42-2.31v11.4A8.84,8.84,0,0,0,337.16,607.71Z"/>
    </g>
    <g>
      <g>
        <g>
          <rect class="cls-6" x="513.07" y="640.97" width="223.2" height="100.8"/>
          <path class="cls-5" d="M591.09,741.77a60,60,0,0,1,0-100.8"/>
          <path class="cls-5" d="M656.2,641a60,60,0,0,1,0,100.8"/>
          <path class="cls-5" d="M547.9,691.37a8.37,8.37,0,1,0-8.36,8.37A8.36,8.36,0,0,0,547.9,691.37Z"/>
          <path class="cls-5" d="M717.33,691.37a8.37,8.37,0,1,0-8.37,8.37A8.36,8.36,0,0,0,717.33,691.37Z"/>
        </g>
        <path class="cls-7" d="M642,702.94l8.51,7.93a26.92,26.92,0,0,1-10.21,7.69,33.72,33.72,0,0,1-13.59,2.64,34.4,34.4,0,0,1-13.35-2.56,29.05,29.05,0,0,1-10.45-7.27,28.27,28.27,0,0,1-6.2-10.91h-9.34v-6.94h8.1c-.05-.5-.08-1.24-.08-2.23s0-1.74.08-2.24h-8.1v-6.94h9.34a28.27,28.27,0,0,1,6.2-10.91,29.05,29.05,0,0,1,10.45-7.27,34.4,34.4,0,0,1,13.35-2.56A33.72,33.72,0,0,1,640.31,664a27.25,27.25,0,0,1,10.21,7.61L642,679.55a18.88,18.88,0,0,0-14.63-6.78,19.18,19.18,0,0,0-9.75,2.48,16.86,16.86,0,0,0-6.61,6.86h20.91v6.94H609c-.05.5-.08,1.24-.08,2.24s0,1.73.08,2.23h23v6.94H611a16.79,16.79,0,0,0,6.61,6.86,19.18,19.18,0,0,0,9.75,2.48A18.64,18.64,0,0,0,642,702.94Z"/>
      </g>
      <polyline class="cls-5" points="742.33 724.21 756.41 724.21 756.41 623.41 533.21 623.41 533.21 637.01"/>
    </g>
    <g>
      <path class="cls-4" d="M917.85,337.31a6,6,0,1,0-6,6A6,6,0,0,0,917.85,337.31Z"/>
      <path class="cls-4" d="M1296.07,208.89a4.5,4.5,0,1,0-4.5,4.5A4.5,4.5,0,0,0,1296.07,208.89Z"/>
      <path class="cls-4" d="M1300.56,510.39a4.5,4.5,0,1,0-4.49,4.5A4.49,4.49,0,0,0,1300.56,510.39Z"/>
      <path class="cls-4" d="M1055.2,115a3.93,3.93,0,1,0-3.93,3.93A3.93,3.93,0,0,0,1055.2,115Z"/>
      <path class="cls-4" d="M1055.76,777.39a4.5,4.5,0,1,0-4.49,4.5A4.49,4.49,0,0,0,1055.76,777.39Z"/>
      <path class="cls-4" d="M951.8,519.36a4.5,4.5,0,1,0-4.5,4.5A4.49,4.49,0,0,0,951.8,519.36Z"/>
      <path class="cls-9" d="M897.84,184.1l0,17.06m-8.52-8.54,17.06,0"/>
      <path class="cls-9" d="M1203.87,118.91l0,17.06m-8.52-8.54,17.06,0"/>
      <path class="cls-9" d="M1328.51,693.06l0,17.06m-8.52-8.54,17.06,0"/>
      <path class="cls-9" d="M1340.58,337.33l-12.08,12m0-12.06,12,12.08"/>
      <path class="cls-9" d="M903.87,615.08l-12.08,12m0-12.06,12,12.08"/>
    </g>
  </g>
</svg>
