<svg id="work" xmlns="http://www.w3.org/2000/svg" viewBox="0 0 1422 870">
  <defs>
    <style>
      .cls-1, .cls-13, .cls-14, .cls-18, .cls-8 {
        fill: #ebebeb;
      }

      .cls-11, .cls-15, .cls-17, .cls-2, .cls-20, .cls-5 {
        fill: #fff;
      }

      .cls-10, .cls-3, .cls-9 {
        fill: #ff0083;
      }

      .cls-12, .cls-16, .cls-19, .cls-22, .cls-4, .cls-6, .cls-7 {
        fill: none;
      }

      .cls-10, .cls-11, .cls-12, .cls-13, .cls-14, .cls-15, .cls-16, .cls-17, .cls-18, .cls-19, .cls-20, .cls-4, .cls-5, .cls-6, .cls-8, .cls-9 {
        stroke: #4a4a4a;
      }

      .cls-13, .cls-16, .cls-17, .cls-20, .cls-22, .cls-4, .cls-5, .cls-6, .cls-7, .cls-8, .cls-9 {
        stroke-linecap: round;
      }

      .cls-12, .cls-13, .cls-17, .cls-20, .cls-22, .cls-4, .cls-5, .cls-6, .cls-7, .cls-8, .cls-9 {
        stroke-linejoin: round;
      }

      .cls-11, .cls-13, .cls-19, .cls-4, .cls-5 {
        stroke-width: 4px;
      }

      .cls-10, .cls-14, .cls-15, .cls-20, .cls-6, .cls-7, .cls-9 {
        stroke-width: 2.5px;
      }

      .cls-7 {
        stroke: #494949;
      }

      .cls-12, .cls-16, .cls-17, .cls-18, .cls-8 {
        stroke-width: 3px;
      }

      .cls-10, .cls-11, .cls-14, .cls-15, .cls-16, .cls-18, .cls-19 {
        stroke-miterlimit: 10;
      }

      .cls-12 {
        stroke-linecap: square;
      }

      .cls-21 {
        fill: #4a4a4a;
      }

      .cls-22 {
        stroke: #ff0083;
        stroke-width: 7px;
      }
    </style>
  </defs>
  <title>19,1</title>
  <polygon class="cls-1" points="449.35 502.67 523.93 514.64 511.35 542.8 506.17 535.41 502.69 535.13 491.15 553.39 483.69 560.8 481.69 568.8 484.35 580.13 472.94 604.6 443.48 600.59 419.69 562.13 449.35 502.67"/>
  <g>
    <path class="cls-2" d="M760.74,513.2,691.1,533.76l15.59,63.71c-16.5,14.17-12,27.67-4,47.17,8,22,14.32,27.5,17.91,31s17.59,25.5,53.09,2a24.19,24.19,0,0,0-1.5,15s-2,77.5,6.5,86.5c0,0,14,15.5,23,21,0-53.5-1.5-77.5-1.5-77.5,3-52,59-82.5,86.5-89s49-2.5,64.5,17c3-41,.5-110-32.5-113-50-6.5-94-5.5-118,11.5s-26.5,26-26.5,26Z"/>
    <path class="cls-2" d="M500.44,582.8l-13.76-2.65,39-65-74.5-10.5-27,55c-14-24-25-33-38.5-38.5s-26.5,8.5-26.5,8.5a40.29,40.29,0,0,0-.5,14c1,8.5-.5,107-.5,107,9.5,24.5,8.5,47,8.5,53s-1.5,54.5-1.5,54.5c25,0,42-24.34,42-47.84,0-22.77-.13-62.45-.24-62.74,19.49,25.49,50.74,46.24,66.74,38.24s22-33.25,22-33.25l12.5-32.75s4.37-8.49,3.75-18C511.39,593.43,506.29,584,500.44,582.8Z"/>
    <path class="cls-2" d="M1158,368.81v95.67l-7.33,47.66-109.33,20.67-1-1.67c-10.34,4.34-29.67,6-37.34,2.67s-9-15.67-9-15.67l-40.67-18.59-8.66-25.07A86.58,86.58,0,0,0,947,454.14c0-11.67-7.33-31-10-37-1.19-2.69-3.12-7-4.89-10.9l-19.44-19.69,59.5-72.5,2.4,1.25A76.9,76.9,0,0,1,1003,299.48c18-5.34,95.67,3,103,4s24.67,16.33,30.34,20.66c0,0,1,4,8.33,11.34S1158,368.81,1158,368.81Z"/>
    <path class="cls-3" d="M471.34,549.44a4.35,4.35,0,0,0-1.53,4.59l4.78,14.83a3,3,0,0,1-1.94,3.76l-2.62.84a3,3,0,0,1-3.78-1.94l-3.94-12.21a2.08,2.08,0,0,0-3.37-1.13l-15.61,11a4,4,0,0,1-4.71-.24l-.58-.5a2.25,2.25,0,0,1,.19-3.7l18.6-13.11a4.33,4.33,0,0,0,1.53-4.58l-4.79-14.83a3,3,0,0,1,1.94-3.77l2.62-.84a3,3,0,0,1,3.78,1.95l3.94,12.21a2.08,2.08,0,0,0,3.37,1.13l15.61-11a4,4,0,0,1,4.72.24l.58.5a2.25,2.25,0,0,1-.19,3.7Z"/>
    <g>
      <path class="cls-3" d="M97.87,102v6.6H71.42v-5.25l13.5-12.75a14.12,14.12,0,0,0,2.9-3.52,6.41,6.41,0,0,0,.75-2.93,3.85,3.85,0,0,0-1.42-3.22A6.65,6.65,0,0,0,83,79.79a9.64,9.64,0,0,0-4.15.88,8,8,0,0,0-3.1,2.62l-5.9-3.8a13.88,13.88,0,0,1,5.65-4.77A18.87,18.87,0,0,1,83.72,73a17,17,0,0,1,6.83,1.28,10.56,10.56,0,0,1,4.55,3.6,9.32,9.32,0,0,1,1.62,5.47,12.18,12.18,0,0,1-1.2,5.35,20.5,20.5,0,0,1-4.65,5.7L82.82,102Z"/>
      <path class="cls-3" d="M148,93.57a8.77,8.77,0,0,1,1.7,5.47,8.1,8.1,0,0,1-3.57,7.08q-3.58,2.47-10.43,2.47h-18.1v-35h17.1q6.41,0,9.83,2.45a7.77,7.77,0,0,1,3.42,6.65,8.39,8.39,0,0,1-4.65,7.7A9.28,9.28,0,0,1,148,93.57ZM125.62,79.69v8.25h8a8.12,8.12,0,0,0,4.55-1,3.51,3.51,0,0,0,1.55-3.1,3.44,3.44,0,0,0-1.55-3.07,8.3,8.3,0,0,0-4.55-1Zm14.28,21.75a3.6,3.6,0,0,0,1.62-3.25q0-4.35-6.45-4.35h-9.45v8.65h9.45A9,9,0,0,0,139.9,101.44Z"/>
      <path class="cls-3" d="M162.57,80.19h-11.2v-6.6h30.5v6.6h-11.2v28.4h-8.1Z"/>
      <path class="cls-3" d="M192.8,106.87a17.31,17.31,0,0,1-6.8-6.45,18.77,18.77,0,0,1,0-18.65,17.31,17.31,0,0,1,6.8-6.45A20.18,20.18,0,0,1,202.52,73a20.55,20.55,0,0,1,8.23,1.6,16.52,16.52,0,0,1,6.17,4.6l-5.2,4.8a11.2,11.2,0,0,0-8.8-4.1,11.68,11.68,0,0,0-5.8,1.43,10.11,10.11,0,0,0-4,4,12.48,12.48,0,0,0,0,11.6,10.13,10.13,0,0,0,4,4,11.67,11.67,0,0,0,5.8,1.42,11.12,11.12,0,0,0,8.8-4.15l5.2,4.8a16.08,16.08,0,0,1-6.2,4.65,20.54,20.54,0,0,1-8.25,1.6A20.06,20.06,0,0,1,192.8,106.87Z"/>
      <path class="cls-3" d="M235,91.39h14.15v6.25H235Z"/>
      <path class="cls-3" d="M291.17,91.27a9.44,9.44,0,0,1,2.45,6.62,10.52,10.52,0,0,1-1.6,5.63,11.09,11.09,0,0,1-4.88,4.12,18.56,18.56,0,0,1-8,1.55,27.58,27.58,0,0,1-7.28-1,18.68,18.68,0,0,1-6.07-2.78l3.15-6.2a15.2,15.2,0,0,0,4.62,2.33,17.82,17.82,0,0,0,5.38.82,8.56,8.56,0,0,0,4.8-1.17,3.79,3.79,0,0,0,1.75-3.33c0-2.86-2.19-4.3-6.55-4.3h-3.7V88.24l7.2-8.15h-14.9v-6.5H292v5.25l-7.9,9A11.84,11.84,0,0,1,291.17,91.27Z"/>
      <path class="cls-3" d="M344.12,93.57a8.77,8.77,0,0,1,1.7,5.47,8.11,8.11,0,0,1-3.58,7.08q-3.57,2.47-10.42,2.47h-18.1v-35h17.1q6.39,0,9.82,2.45a7.78,7.78,0,0,1,3.43,6.65,8.43,8.43,0,0,1-4.65,7.7A9.33,9.33,0,0,1,344.12,93.57ZM321.77,79.69v8.25h8.05a8.14,8.14,0,0,0,4.55-1,3.51,3.51,0,0,0,1.55-3.1,3.44,3.44,0,0,0-1.55-3.07,8.33,8.33,0,0,0-4.55-1ZM336,101.44a3.6,3.6,0,0,0,1.63-3.25q0-4.35-6.45-4.35h-9.45v8.65h9.45A9,9,0,0,0,336,101.44Z"/>
      <path class="cls-3" d="M358.72,80.19h-11.2v-6.6H378v6.6h-11.2v28.4h-8.1Z"/>
      <path class="cls-3" d="M388.94,106.87a17.37,17.37,0,0,1-6.8-6.45,18.84,18.84,0,0,1,0-18.65,17.37,17.37,0,0,1,6.8-6.45A20.22,20.22,0,0,1,398.67,73a20.5,20.5,0,0,1,8.22,1.6,16.55,16.55,0,0,1,6.18,4.6l-5.2,4.8a11.2,11.2,0,0,0-8.8-4.1,11.68,11.68,0,0,0-5.8,1.43,10.13,10.13,0,0,0-4,4,12.56,12.56,0,0,0,0,11.6,10.16,10.16,0,0,0,4,4,11.67,11.67,0,0,0,5.8,1.42,11.12,11.12,0,0,0,8.8-4.15l5.2,4.8a16.15,16.15,0,0,1-6.2,4.65,20.54,20.54,0,0,1-8.25,1.6A20.1,20.1,0,0,1,388.94,106.87Z"/>
      <path class="cls-3" d="M431.61,81.84h23.8v6.1h-23.8Zm0,12.4h23.8v6.1h-23.8Z"/>
      <path class="cls-3" d="M475.21,91.39h14.15v6.25H475.21Z"/>
      <path class="cls-3" d="M506.31,73.59v35h-8.1V80.09h-7v-6.5Z"/>
      <path class="cls-3" d="M559.16,93.57a8.77,8.77,0,0,1,1.7,5.47,8.1,8.1,0,0,1-3.57,7.08q-3.59,2.47-10.43,2.47h-18.1v-35h17.1q6.4,0,9.83,2.45a7.77,7.77,0,0,1,3.42,6.65,8.39,8.39,0,0,1-4.65,7.7A9.28,9.28,0,0,1,559.16,93.57ZM536.81,79.69v8.25h8.05a8.12,8.12,0,0,0,4.55-1,3.51,3.51,0,0,0,1.55-3.1,3.44,3.44,0,0,0-1.55-3.07,8.3,8.3,0,0,0-4.55-1Zm14.28,21.75a3.6,3.6,0,0,0,1.62-3.25q0-4.35-6.45-4.35h-9.45v8.65h9.45A9,9,0,0,0,551.09,101.44Z"/>
      <path class="cls-3" d="M573.76,80.19h-11.2v-6.6h30.5v6.6h-11.2v28.4h-8.1Z"/>
      <path class="cls-3" d="M604,106.87a17.31,17.31,0,0,1-6.8-6.45,18.77,18.77,0,0,1,0-18.65,17.31,17.31,0,0,1,6.8-6.45A20.18,20.18,0,0,1,613.71,73a20.55,20.55,0,0,1,8.23,1.6,16.52,16.52,0,0,1,6.17,4.6l-5.2,4.8a11.2,11.2,0,0,0-8.8-4.1,11.68,11.68,0,0,0-5.8,1.43,10.11,10.11,0,0,0-4,4,12.48,12.48,0,0,0,0,11.6,10.13,10.13,0,0,0,4,4,11.67,11.67,0,0,0,5.8,1.42,11.12,11.12,0,0,0,8.8-4.15l5.2,4.8a16.08,16.08,0,0,1-6.2,4.65,20.54,20.54,0,0,1-8.25,1.6A20.06,20.06,0,0,1,604,106.87Z"/>
    </g>
    <g>
      <g>
        <path class="cls-4" d="M416.19,358.34c-12-22.37-9.18-47.29,6.38-55.67s37.94,3,50,25.35,9.19,47.29-6.38,55.67S428.23,380.72,416.19,358.34Z"/>
        <path class="cls-4" d="M424.57,301.67l-10.45,5.16c-15.56,8.38-18.42,33.3-6.38,55.68s34.41,33.71,50,25.34l11.44-6.16"/>
      </g>
      <g>
        <path class="cls-2" d="M469,366.12a23.24,23.24,0,0,1-9.11,5.68c-17.39,5.91-40.35-7.94-51.29-30.94-10.31-21.69-6.26-43.76,8.81-51.16a23.15,23.15,0,0,1,9.12-5.69C444,278.1,466.91,292,477.85,315,488.16,336.63,484.11,358.71,469,366.12Z"/>
        <path class="cls-4" d="M418.19,340.68c-12-22.37-9.18-47.3,6.38-55.67s37.94,3,50,25.34,9.19,47.3-6.38,55.67S430.23,363.05,418.19,340.68Z"/>
        <path class="cls-4" d="M426.57,284l-10.45,5.16c-15.56,8.37-18.42,33.3-6.38,55.67s34.41,33.72,50,25.34L471.16,364"/>
      </g>
      <path class="cls-2" d="M593.19,439.05l11-106.5c-17,15-38,29-38,29l-72.5-4-2.23-1.31c-8.77,14.81-22.27,16.31-22.27,16.31l-9.5,4.5s-29-1-42.5-40,19.5-52,19.5-52,34.5-8.5,54,38c16.5-1,53-7,53-7l6.23-5.09,35.77-43.41L620,252.63h0s-32.79-70.08,8.71-115.58,116,40,119.5,53,5.5,75.5,5.5,75.5h0c17.5.5,36.5,27.5,36.5,67.5s.5,69.5.5,69.5-7,20.5-20,34.5-43.5,34-43.5,34l-33.5,19.5-1.07,5.68-73.53-10.79-6.4-48.39Z"/>
      <polygon class="cls-1" points="933.68 413.63 986.35 432.55 1010.18 524.63 951.35 499.55 933.68 413.63"/>
      <g>
        <polyline class="cls-4" points="702.82 595.74 689.1 533.76 758.74 513.2 771.61 575.77"/>
        <line class="cls-4" x1="746.7" y1="624.08" x2="729.92" y2="629.78"/>
        <path class="cls-4" d="M697.82,551.17a7.91,7.91,0,0,1-11.36,4.94,11.42,11.42,0,0,1-5.67-13.27"/>
        <path class="cls-4" d="M700.09,562.11A7.91,7.91,0,0,1,688.73,567a11.42,11.42,0,0,1-5.67-13.26"/>
        <path class="cls-4" d="M702.93,572.21a7.91,7.91,0,0,1-11.36,4.94,11.43,11.43,0,0,1-5.67-13.27"/>
        <path class="cls-4" d="M705.09,582.38a7.91,7.91,0,0,1-11.36,4.94,11.43,11.43,0,0,1-5.67-13.27"/>
        <path class="cls-4" d="M707.36,593.32A7.91,7.91,0,0,1,696,598.26,11.43,11.43,0,0,1,690.33,585"/>
        <path class="cls-4" d="M696.3,605.5a11.49,11.49,0,0,1-1.87-10.07"/>
        <line class="cls-4" x1="683.7" y1="533.98" x2="684.78" y2="542.76"/>
      </g>
      <path class="cls-3" d="M728.8,570.82a4.14,4.14,0,0,1,1.13,4.62L722,593.37a2.4,2.4,0,0,0,1.71,3.43l1.25.29a3.75,3.75,0,0,0,4.13-2.06l6.61-14.94a2.19,2.19,0,0,1,3.55-.87l11.14,8.95a3.41,3.41,0,0,0,4.45-.24l1.37-1.37a2.63,2.63,0,0,0-.22-4l-13.43-10.8a4.13,4.13,0,0,1-1.13-4.63l7.93-17.92a2.4,2.4,0,0,0-1.71-3.43l-1.25-.3a3.77,3.77,0,0,0-4.13,2.06l-6.61,15a2.19,2.19,0,0,1-3.55.87l-11.14-9a3.42,3.42,0,0,0-4.46.24L715.15,556a2.64,2.64,0,0,0,.21,4Z"/>
      <polyline class="cls-5" points="773.07 572.56 756.23 584.35 748.48 585.1 751.35 576.47 776.19 558.57"/>
      <g>
        <g>
          <line class="cls-6" x1="465.61" y1="605.07" x2="443.18" y2="601.13"/>
          <polyline class="cls-6" points="422.53 557.82 449.35 502.67 523.93 514.64 505.15 559.12"/>
          <g>
            <path class="cls-6" d="M427.62,558.22c-1.94-3.7-5.84-5.09-9.1-3.42"/>
            <path class="cls-6" d="M432.54,548.89c-2.11-4-6.57-5.29-10-2.83s-4.5,7.75-2.39,11.81"/>
            <path class="cls-6" d="M437.82,539c-2.11-4-6.54-5.24-9.92-2.82s-4.47,7.65-2.38,11.67"/>
            <path class="cls-6" d="M442.05,529.54c-2.09-3.93-6.5-5.19-9.85-2.8s-4.44,7.56-2.36,11.54"/>
            <path class="cls-6" d="M446.67,520.29c-2.08-3.9-6.46-5.15-9.8-2.79s-4.42,7.46-2.34,11.4"/>
            <path class="cls-6" d="M450.82,511c-2.07-3.86-6.43-5.1-9.76-2.78s-4.38,7.38-2.32,11.28"/>
          </g>
          <line class="cls-6" x1="507.78" y1="566.75" x2="525.27" y2="525.57"/>
          <line class="cls-6" x1="448.18" y1="610.13" x2="463.15" y2="612.79"/>
        </g>
        <g>
          <g>
            <line class="cls-7" x1="465.61" y1="605.07" x2="443.18" y2="601.13"/>
            <line class="cls-7" x1="465.61" y1="605.07" x2="443.18" y2="601.13"/>
          </g>
          <g>
            <polyline class="cls-7" points="422.53 557.82 449.35 502.67 523.93 514.64 505.15 559.12"/>
            <polyline class="cls-7" points="422.53 557.82 449.35 502.67 523.93 514.64 505.15 559.12"/>
          </g>
          <g>
            <g>
              <path class="cls-7" d="M427.62,558.22c-1.94-3.7-5.84-5.09-9.1-3.42"/>
              <path class="cls-7" d="M427.62,558.22c-1.94-3.7-5.84-5.09-9.1-3.42"/>
            </g>
            <g>
              <path class="cls-7" d="M432.54,548.89c-2.11-4-6.57-5.29-10-2.83s-4.5,7.75-2.39,11.81"/>
              <path class="cls-7" d="M432.54,548.89c-2.11-4-6.57-5.29-10-2.83s-4.5,7.75-2.39,11.81"/>
            </g>
            <g>
              <path class="cls-7" d="M437.82,539c-2.11-4-6.54-5.24-9.92-2.82s-4.47,7.65-2.38,11.67"/>
              <path class="cls-7" d="M437.82,539c-2.11-4-6.54-5.24-9.92-2.82s-4.47,7.65-2.38,11.67"/>
            </g>
            <g>
              <path class="cls-7" d="M442.05,529.54c-2.09-3.93-6.5-5.19-9.85-2.8s-4.44,7.56-2.36,11.54"/>
              <path class="cls-7" d="M442.05,529.54c-2.09-3.93-6.5-5.19-9.85-2.8s-4.44,7.56-2.36,11.54"/>
            </g>
            <g>
              <path class="cls-7" d="M446.67,520.29c-2.08-3.9-6.46-5.15-9.8-2.79s-4.42,7.46-2.34,11.4"/>
              <path class="cls-7" d="M446.67,520.29c-2.08-3.9-6.46-5.15-9.8-2.79s-4.42,7.46-2.34,11.4"/>
            </g>
            <g>
              <path class="cls-7" d="M450.82,511c-2.07-3.86-6.43-5.1-9.76-2.78s-4.38,7.38-2.32,11.28"/>
              <path class="cls-7" d="M450.82,511c-2.07-3.86-6.43-5.1-9.76-2.78s-4.38,7.38-2.32,11.28"/>
            </g>
          </g>
          <g>
            <line class="cls-7" x1="507.78" y1="566.75" x2="525.27" y2="525.57"/>
            <line class="cls-7" x1="507.78" y1="566.75" x2="525.27" y2="525.57"/>
          </g>
          <g>
            <line class="cls-7" x1="448.18" y1="610.13" x2="463.15" y2="612.79"/>
            <line class="cls-7" x1="448.18" y1="610.13" x2="463.15" y2="612.79"/>
          </g>
        </g>
      </g>
      <g>
        <path class="cls-8" d="M1179.17,509.62a24.34,24.34,0,0,1-1.56,9.13,107.06,107.06,0,0,0-23.34-20.55,31.25,31.25,0,0,0,2.27-11.73V381a84,84,0,0,0-70.73-83,101.19,101.19,0,0,1,23.79-2.86c61.65-.15,67.85,68.59,68.45,94.86Z"/>
        <g>
          <polygon class="cls-9" points="956.07 255.25 977.35 311.47 966.88 319.04 952.85 256.36 956.07 255.25"/>
          <path class="cls-10" d="M961.21,247.55a10,10,0,1,1-8.87-11A10,10,0,0,1,961.21,247.55Z"/>
        </g>
        <line class="cls-4" x1="1156.54" y1="464.13" x2="1156.54" y2="476.8"/>
        <path class="cls-4" d="M1156.54,464.13V381a84,84,0,0,0-84-84h-55.91a65.28,65.28,0,0,0-53.14,27.28L926,370.8"/>
        <path class="cls-11" d="M1000.32,243.53V291c0,22,16.69,41,38.73,41h26.81c22,0,41.33-19,41.33-41v-40.8l-6.36-58.31-44.54-10.32-49,6.88-12,10.33,5,44.74"/>
        <path class="cls-12" d="M1054.76,358.12h0c-44.18,0-80-22.17-80-48.17V194.89c0-37.06,31.15-67.09,69.58-67.09h20.82c38.43,0,69.58,30,69.58,67.09V320.66C1134.75,332.89,1098.94,358.12,1054.76,358.12Z"/>
        <path class="cls-13" d="M1068.43,160.21c-18.92-2.78-31.51,1.64-48.42,11.69-13.1,7.79-25-6.64-25-6.64-9.46,26.16-1.4,76.44,5.27,85.13V209.11c4.93-18,12.58,3.06,26.72,2.29,19.71-1.06,22.41-7.75,34.41-2.29,21,9.55,12.61,37.83,25,39.8,23.32,3.73,20.79,24.42,20.79,24.42h0c6.75-10,8-57.95,5-73.9C1109,182.73,1097,164.42,1068.43,160.21Z"/>
        <path class="cls-6" d="M1007.49,254.77c.27-4.94,3.83-8.76,7.94-8.53s7.21,4.42,6.93,9.36"/>
        <path class="cls-6" d="M1041.68,256.89c.28-4.93,3.87-8.75,8-8.52s7.3,4.43,7,9.37"/>
        <path class="cls-14" d="M1081.26,457.16l-33.71-5a2.64,2.64,0,0,1-2.25-2.61v-62a2.63,2.63,0,0,1,3-2.61l33.71,5a2.63,2.63,0,0,1,2.25,2.61v62A2.64,2.64,0,0,1,1081.26,457.16Z"/>
        <path class="cls-15" d="M1067.54,431.55l-14.37-2.15a1.13,1.13,0,0,1-1-1.11V401.83a1.13,1.13,0,0,1,1.29-1.12l14.38,2.15a1.14,1.14,0,0,1,1,1.12v26.46A1.14,1.14,0,0,1,1067.54,431.55Z"/>
        <line class="cls-16" x1="990.25" y1="392.14" x2="990.25" y2="423.13"/>
        <path class="cls-4" d="M1052.93,304.86c-.42-1.81-4.18-6-15-11.91s-21.23-1.9-22.91-1.23"/>
        <path class="cls-5" d="M1022.46,506.32c7.93-1.06,14.75-1.89,14.75-1.89l8.09,23.05s-15.19,5.67-20.45,6.87c-13.63,3.1-25.34-1.16-27.36-5.64l-2.7-6c-2.42-5.37.48-12,6.26-13.16,4.47-.9,13.49-2.18,21.41-3.24"/>
        <path class="cls-17" d="M1095.76,419.67v36.46a23,23,0,0,1-13.18,20.79l-57.73,27.23s3.77,2,10.7,12.24c6.31,9.36,2.87,16.24,2.87,16.24L1108.83,521"/>
        <path class="cls-18" d="M1142.84,487.47a15.32,15.32,0,0,1-12.9,16.72l-7.7,1.19a13,13,0,0,0-11,12c0,3.18,3,4.91,6.18,4.59,0,0,18.68-2.59,24.93-4.32,13-3.61,15.42-11.43,16-19.07.53-6.94,1.6-27.77,1.6-27.77a3.59,3.59,0,0,0-4.5-3.47l-2.76.9a14.92,14.92,0,0,0-10.24,15.74Z"/>
      </g>
      <path class="cls-4" d="M982.31,442.88c2.28,10.15,13.6,11.45,19.62,6.63,6.2-5,5.89-15.61-3.25-18.63"/>
      <path class="cls-4" d="M984.81,454.51c2.28,10.14,13.6,11.44,19.62,6.62,6.2-4.95,5.89-15.6-3.25-18.62"/>
      <path class="cls-4" d="M988.56,465.76c2.28,10.14,13.6,11.44,19.62,6.62,6.2-4.95,5.89-15.6-3.25-18.62"/>
      <path class="cls-4" d="M991.81,478.13c2.28,10.15,13.6,11.45,19.62,6.63,6.2-5,5.89-15.61-3.25-18.63"/>
      <path class="cls-4" d="M995.31,490.76c2.28,10.14,13.6,11.44,19.62,6.62,6.2-4.95,5.89-15.6-3.25-18.62"/>
      <path class="cls-4" d="M1022.08,505.09a10.26,10.26,0,0,0-7.15-12.46"/>
      <path class="cls-5" d="M478.24,551.68,540,529.35c6.36.17,6.52,8,1.9,10.07l-60.75,22.46-8.77-1.6Z"/>
      <path class="cls-4" d="M998.56,504.63a12.41,12.41,0,0,0,2.14,4.79"/>
      <g>
        <g>
          <path class="cls-2" d="M330.49,532H343.1c27.39,0,49.59-10.61,49.59-38V437.68a49.59,49.59,0,0,0-49.59-49.6H330.49a49.6,49.6,0,0,0-49.6,49.6V494C280.89,521.41,303.1,532,330.49,532Z"/>
          <path class="cls-4" d="M330.49,532H343.1c27.39,0,49.59-10.61,49.59-38V437.68a49.59,49.59,0,0,0-49.59-49.6H330.49a49.6,49.6,0,0,0-49.6,49.6V494C280.89,521.41,303.1,532,330.49,532Z"/>
        </g>
        <g>
          <path class="cls-1" d="M356,447.35l8.38-17.15a21.94,21.94,0,0,0-2.09.76c-15.81,6.63-30.72,32.33-30.72,32.33s-12.72-13.73-23.91.5c-7.44,9.44,3.57,26.46,3.57,26.46l-12.1,32.21s-2.55,26.14-17.12-8a121.36,121.36,0,0,1-7.15-24.09c-3.36,1-6.82,1.33-10.62,1.95,0,0,8.3-14.72-5.95-26.45s4.57-19.88,0-32.6-21.67-32.55-1.54-60.57C272.12,351.38,295,359,295,359a32.92,32.92,0,0,1,13.17,7.57c18.26-3,41,.88,56.27,2.11,25.67,2,34.39,26.45,39,53.43S356,447.35,356,447.35Z"/>
          <path class="cls-4" d="M356,447.35l8.38-17.15a21.94,21.94,0,0,0-2.09.76c-15.81,6.63-30.72,32.33-30.72,32.33s-12.72-13.73-23.91.5c-7.44,9.44,3.57,26.46,3.57,26.46l-12.1,32.21s-2.55,26.14-17.12-8a121.36,121.36,0,0,1-7.15-24.09c7.78-2.39,15-8.74,24.66-32.15,10.69-26-11.34-30.83,1.51-42.25,20.71-18.34,18.89-38.19,7.08-49.43,18.26-3,41,.88,56.27,2.11,25.67,2,34.39,26.45,39,53.43S356,447.35,356,447.35Z"/>
          <path class="cls-4" d="M295,358.94c21.82,6.64,33.08,33.09,6.11,57-12.87,11.41,9.16,16.29-1.53,42.24-13.82,33.57-22.69,32.07-35.27,34.11,0,0,8.3-14.73-6-26.45s4.59-19.87,0-32.6-21.67-32.54-1.52-60.57C272.12,351.38,295,358.94,295,358.94Z"/>
        </g>
        <path class="cls-4" d="M238.65,422.65c0-48.93,30.64-83.35,73.86-83.35H328.7a82.69,82.69,0,0,1,82.67,83.35v93h0c0,28.92-39.34,39.79-87,39.79s-85.69-10.87-85.69-39.79h0Z"/>
      </g>
      <g>
        <g>
          <g>
            <path class="cls-1" d="M300.14,737a4.36,4.36,0,0,1-4.23,5.42H240a3.85,3.85,0,0,1-3.76-4.91l10.57-36.66h44.29Z"/>
            <path class="cls-1" d="M278.3,700.86H259.54c-19.59,0-26.89-15.89-26.89-35.49V532.6a35.48,35.48,0,0,1,35.49-35.48h0a35.48,35.48,0,0,1,35.48,35.48V665.37C303.62,685,297.89,700.86,278.3,700.86Z"/>
          </g>
          <path class="cls-19" d="M300.14,737a4.36,4.36,0,0,1-4.23,5.42H240a3.85,3.85,0,0,1-3.76-4.91l10.57-36.66h44.29Z"/>
          <path class="cls-19" d="M278.3,700.86H259.54c-19.59,0-26.89-15.89-26.89-35.49V532.6a35.48,35.48,0,0,1,35.49-35.48h0a35.48,35.48,0,0,1,35.48,35.48V665.37C303.62,685,297.89,700.86,278.3,700.86Z"/>
        </g>
        <g>
          <g>
            <path class="cls-1" d="M353.67,745a4.37,4.37,0,0,1-4.24,5.42H293.57a3.85,3.85,0,0,1-3.77-4.91l10.57-36.66h44.3Z"/>
            <path class="cls-1" d="M331.82,708.86H313.06c-19.59,0-26.88-15.89-26.88-35.49V540.6a35.47,35.47,0,0,1,35.48-35.48h0a35.48,35.48,0,0,1,35.48,35.48V673.37C357.14,693,351.41,708.86,331.82,708.86Z"/>
          </g>
          <path class="cls-19" d="M353.67,745a4.37,4.37,0,0,1-4.24,5.42H293.57a3.85,3.85,0,0,1-3.77-4.91l10.57-36.66h44.3Z"/>
          <path class="cls-19" d="M331.82,708.86H313.06c-19.59,0-26.88-15.89-26.88-35.49V540.6a35.47,35.47,0,0,1,35.48-35.48h0a35.48,35.48,0,0,1,35.48,35.48V673.37C357.14,693,351.41,708.86,331.82,708.86Z"/>
        </g>
      </g>
      <path class="cls-13" d="M259.89,782.22c-33.85-8-65.77-19.53-65.77-54.26V671.48c0-29.84,4.78-106.24,58.73-103.3C322.59,572,364,646.15,364,690.53v60.79C364,805.93,296.64,790.89,259.89,782.22Z"/>
      <path class="cls-13" d="M903.35,828.17c34.74-7.48,69.51-18.74,68.73-53.13l-1.2-52.82c-.64-28.18-7.1-96.49-70.62-91.05-61.55,5.27-102.48,58.45-101.53,100.36l1.56,68.77C801.19,839.69,853.16,839,903.35,828.17Z"/>
      <path class="cls-4" d="M383.31,519.36a72.15,72.15,0,0,1,39.78,46.21l39.09,69.06"/>
      <path class="cls-4" d="M364.18,758.13c15,1.5,42.5-13.5,42.5-39.5v-37.5"/>
      <path class="cls-20" d="M484.92,580.75c-.62-8.25-6.9-17.16,6.23-27.36l11.49-17.22a4.11,4.11,0,0,1,3.53-.76,4.05,4.05,0,0,1,2.72,2.35l2.59,6c7.38,17.25,11.33,26.68,1.45,58.4"/>
      <path class="cls-4" d="M512,604.59a30,30,0,0,1-2.09,8.7s-15.4,45.43-23.07,59.4c-5.49,10-15,15.43-26.33,14.41C448,686,433,673.39,433,673.39L385.1,627"/>
      <path class="cls-6" d="M466.67,618.9l16.89-36.62c8.87-5.78,29.84,3.37,28.39,22.31"/>
      <path class="cls-4" d="M739.35,640.13l32.5-65a64.23,64.23,0,0,1,35.7-31.72"/>
      <path class="cls-4" d="M741,635.8a248.64,248.64,0,0,0-23.67-11.67c-11.33-4.66-22.86,12.79-11.33,32,3.62,6,8.2,13,12.58,19.51A30,30,0,0,0,756.24,686l14.06-6.64v73.13s-1.61,27.33,27.72,46"/>
      <path class="cls-4" d="M919.07,537.16c12.56,4.82,20.64,16.29,24.12,29.76,10.83,41.88,7.7,81.82,8.16,83.21"/>
      <line class="cls-6" x1="805.35" y1="659.47" x2="769.3" y2="679.34"/>
      <path class="cls-6" d="M700.68,643.8c-6-14.33-11.66-35,4-46.33L708,607.72l10.1,3a6.44,6.44,0,0,1,4.59,6.18v9.7"/>
      <polyline class="cls-4" points="944.14 476.65 951.35 499.55 993.18 518.13"/>
      <polyline class="cls-4" points="1007.06 507.1 986.35 432.55 935.93 411.88"/>
      <polyline class="cls-4" points="1017.29 506.42 995.1 426.55 928.77 399.22"/>
      <path class="cls-4" d="M540.69,444.84c-60.89,12-111.66,28.62-147.32,48.36"/>
      <path class="cls-4" d="M650.9,434.54c-10.59.39-18.3.74-29.08,1.39-13.19.8-26.28,1.4-39.11,2.94-19.21,2.31-32.75,4.8-32.75,4.8"/>
      <path class="cls-4" d="M968.06,681.69c136.58-22.88,229.66-68.38,229.66-120.76,0-14.12-6.76-27.73-19.3-40.54"/>
      <path class="cls-4" d="M491,665.63c74.76,19.84,171.09,31.79,276.22,31.79H770"/>
      <g>
        <line class="cls-5" x1="606.83" y1="319.04" x2="593.83" y2="435.04"/>
        <g>
          <path class="cls-3" d="M479,351.83l-5.18,1-2.91-6.53-3.3.65c1,2.2,1.95,4.36,2.91,6.53l-5.17,1c-1-2.18-1.95-4.35-2.94-6.58l-10.95,2.16c-.83-1.87-1.65-3.69-2.48-5.55l.45-.09c.68-.15,1.36-.27,2-.45,1.15-.29,1.43-1.06.91-2.34-.23-.57-.46-1.14-.71-1.71q-4.56-10.19-9.11-20.39c-.41-.92-.85-1.83-1.28-2.75a2.47,2.47,0,0,0-2.69-1.65c-.71.09-1.4.24-2.1.36l-.42.06L433.51,310l10.95-2.16-2.93-6.55,5.18-1c1,2.18,1.94,4.35,2.92,6.53l3.3-.65c-1-2.2-2-4.36-2.92-6.53l5.18-1c.07.17.16.34.23.51.86,1.91,1.73,3.82,2.56,5.73.19.44.37.64.81.57a6.38,6.38,0,0,1,1.08,0,13.6,13.6,0,0,1,6,1.37,12.73,12.73,0,0,1,6,5.84,9.25,9.25,0,0,1,1.05,5.37,7.4,7.4,0,0,1-3.17,5.22l-.35.29a1.16,1.16,0,0,0,.51.14,16.45,16.45,0,0,1,4.67,1,12.71,12.71,0,0,1,6,4.8c2.82,4.17,3.06,8,1.07,11.32a9.89,9.89,0,0,1-5.37,4c-.35.13-.38.28-.2.67Q477.53,348.62,479,351.83Zm-22.07-22.29c.06.13.09.22.13.3q1.88,4.23,3.78,8.45c.27.61.59,1.21.91,1.8a1.08,1.08,0,0,0,1.12.68c1.28-.19,2.56-.37,3.8-.64a24.63,24.63,0,0,0,3.14-.88,3.77,3.77,0,0,0,2.33-2.09,5.57,5.57,0,0,0-.18-4.49,7,7,0,0,0-5.13-4.35,10.46,10.46,0,0,0-3.83,0c-1.93.32-3.83.72-5.74,1.09A3,3,0,0,0,456.88,329.54Zm-2.63-5.94a3.07,3.07,0,0,0,.34,0c1.27-.25,2.54-.49,3.8-.76a13.68,13.68,0,0,0,4.07-1.31,3.35,3.35,0,0,0,1.81-2.51c.37-2.67-2.09-6.38-5.63-6.43a14.26,14.26,0,0,0-2.55.16c-2,.32-3.91.72-5.87,1.09l-.31.1C451.36,317.13,452.79,320.34,454.25,323.6Z"/>
          <g>
            <path class="cls-4" d="M430.19,342.68c-12-22.37-9.18-47.3,6.38-55.67s37.94,3,50,25.34,9.19,47.3-6.38,55.67S442.23,365.05,430.19,342.68Z"/>
            <path class="cls-4" d="M439.57,285l-11.45,6.16c-15.56,8.37-18.42,33.3-6.38,55.67s34.41,33.72,50,25.34L483.16,366"/>
          </g>
          <path class="cls-4" d="M500.61,321.86l37-4.36A19.1,19.1,0,0,0,549.92,311l21.15-24.66c1.86-2.16,3.56-4.39,5.2-6.61A66,66,0,0,1,609.34,256l10.64-3.4"/>
          <path class="cls-20" d="M511.33,358.72l-15.76-.41a5.41,5.41,0,0,1-5.14-6.56,4.23,4.23,0,0,0-1.55-4.26L482,342.18a11.14,11.14,0,0,1-4.23-7.18l-.16-1.05a9,9,0,0,1,7.85-10.3l15.18-1.79"/>
          <path class="cls-4" d="M605.83,331l-15.43,14a61.2,61.2,0,0,1-41.32,14.63l-37.75-1"/>
          <path class="cls-6" d="M499.82,322.24c12.7-1.72,29.56,23.27,10.93,36.14"/>
        </g>
        <path class="cls-5" d="M751.15,276.47c8-34,16-121.4-22.67-174.34-16-22.26-62.13-17.56-97.44,22.76-14.22,16.24-18.22,36.91-18.22,36.91"/>
        <g>
          <polygon class="cls-13" points="619.09 485.44 692.62 496.23 685.74 408.49 607.52 398.32 619.09 485.44"/>
          <path class="cls-4" d="M680.74,421.35A7.11,7.11,0,1,0,692.2,413"/>
          <path class="cls-4" d="M681.73,431.08a7.11,7.11,0,1,0,11.46-8.37"/>
          <path class="cls-4" d="M681.94,440.19a7.11,7.11,0,1,0,11.46-8.37"/>
          <path class="cls-4" d="M682.81,449.25a7.11,7.11,0,1,0,11.46-8.38"/>
          <path class="cls-4" d="M683.8,459a7.11,7.11,0,1,0,11.46-8.37"/>
          <path class="cls-4" d="M684,468.08a7.11,7.11,0,1,0,11.46-8.37"/>
          <path class="cls-4" d="M684.64,477.28a7.11,7.11,0,1,0,11.46-8.37"/>
          <path class="cls-4" d="M684.85,486.39A7.11,7.11,0,1,0,696.31,478"/>
          <polyline class="cls-4" points="611 391.48 690.14 402.45 691.27 412.01"/>
          <path class="cls-4" d="M701.48,453.46a9.82,9.82,0,0,1,3.95-1.49c10-1.61,23.14,10.71,17.71,21.33a9.77,9.77,0,0,1-.66,1.16"/>
        </g>
        <path class="cls-4" d="M737.81,388.14A51.61,51.61,0,0,1,728,417l-26.48,36.48c10.33-6.76,29,8.69,21,21l41.93-32.09c17-13,27-32.33,26.76-53.79l-.69-63.46c0-28.53-16.51-56-35-60.66"/>
        <path class="cls-1" d="M623.87,255.42c9.64,8.88,39.86,35.46,39.86,35.46L733,263.63l-.25-24.75c-7.5,8.75-28,31.75-63.75,21.5-19.5-6-30.43-15.17-34.84-56.71-1.91-2.29-4.16-13.54-3.91-34.79a24.41,24.41,0,0,1,3.48-11.18l1-6c-14.73,2.93-22.23,6.18-26.48,26.68-4,25.25,4.5,59,12.75,74.25.19.26,1.24,1.26,2.89,2.79"/>
        <path class="cls-4" d="M622.26,254.69,620,252.63c-10.27-22.59-17.78-68.21-7.25-91.25"/>
        <path class="cls-6" d="M734.55,236.44c-.09,11.89-.77,21.83-1.07,28l-70,27.34-41.22-37.11"/>
        <line class="cls-4" x1="694.15" y1="327.63" x2="694.15" y2="280.87"/>
        <line class="cls-4" x1="645.81" y1="308.13" x2="645.81" y2="276.47"/>
        <path class="cls-20" d="M680.59,459.82a8.13,8.13,0,0,0-5.05,11.06l8,18a7.75,7.75,0,0,0,11.26,3.37l27.67-17.79.66-1.16c5.43-10.62-7.67-22.94-17.71-21.33l-3.95,1.49Z"/>
        <path class="cls-6" d="M633.53,159.23a46,46,0,0,1,1.18-7.53"/>
        <path class="cls-6" d="M734.56,234.53h0c0,.92,0,1.82,0,2.71-11.57,15.38-34.42,29.45-55.07,25.88-26-4.5-41-13.5-45.55-60.53"/>
        <path class="cls-9" d="M630.48,183.1c.59,8.43-.3,16.45,2.84,19.75.26.27.54.55.82.82,4.29,4.14,11.54,8.59,23.74,12.62,28.65,9.46,54.85-2.37,68.83-11.7A86.81,86.81,0,0,0,706,176.29a62.89,62.89,0,0,1-9.79,3c-20.38,4.4-65.43-1.74-62.48-21.54,0,0,0,0,0,0C628.47,160.91,629.74,172.34,630.48,183.1Z"/>
        <g>
          <path class="cls-21" d="M639.44,217.77a1.28,1.28,0,1,1,1.48-1.05A1.3,1.3,0,0,1,639.44,217.77Z"/>
          <g>
            <path class="cls-21" d="M638.38,224.06a1.28,1.28,0,0,1-1-1.47,1.3,1.3,0,0,1,1.48-1.05,1.28,1.28,0,0,1,1,1.48A1.27,1.27,0,0,1,638.38,224.06Z"/>
            <path class="cls-21" d="M639.44,217.77a1.28,1.28,0,1,1,1.48-1.05A1.3,1.3,0,0,1,639.44,217.77Z"/>
            <path class="cls-21" d="M645.74,218.83a1.29,1.29,0,0,1-1-1.47,1.28,1.28,0,1,1,1,1.47Z"/>
            <path class="cls-21" d="M642.06,221.45a1.3,1.3,0,0,1-1-1.48,1.28,1.28,0,0,1,1.48-1,1.27,1.27,0,0,1,1,1.47A1.29,1.29,0,0,1,642.06,221.45Z"/>
          </g>
          <path class="cls-21" d="M643.61,231.42a1.28,1.28,0,1,1,1.48-1A1.27,1.27,0,0,1,643.61,231.42Z"/>
          <g>
            <path class="cls-21" d="M639.44,217.77a1.28,1.28,0,1,1,1.48-1.05A1.3,1.3,0,0,1,639.44,217.77Z"/>
            <path class="cls-21" d="M645.74,218.83a1.29,1.29,0,0,1-1-1.47,1.28,1.28,0,1,1,1,1.47Z"/>
            <path class="cls-21" d="M652,219.89a1.28,1.28,0,1,1,1.47-1A1.27,1.27,0,0,1,652,219.89Z"/>
            <path class="cls-21" d="M643.12,215.15a1.28,1.28,0,1,1,1.48-1.05A1.28,1.28,0,0,1,643.12,215.15Z"/>
          </g>
          <g>
            <path class="cls-21" d="M643.61,231.42a1.28,1.28,0,1,1,1.48-1A1.27,1.27,0,0,1,643.61,231.42Z"/>
            <path class="cls-21" d="M649.91,232.48a1.27,1.27,0,1,1,.43-2.51,1.27,1.27,0,1,1-.43,2.51Z"/>
            <path class="cls-21" d="M638.38,224.06a1.28,1.28,0,0,1-1-1.47,1.3,1.3,0,0,1,1.48-1.05,1.28,1.28,0,0,1,1,1.48A1.27,1.27,0,0,1,638.38,224.06Z"/>
            <path class="cls-21" d="M644.68,225.13a1.28,1.28,0,1,1,.42-2.52,1.27,1.27,0,0,1,1,1.47A1.29,1.29,0,0,1,644.68,225.13Z"/>
            <path class="cls-21" d="M651,226.19a1.28,1.28,0,0,1,.43-2.52,1.28,1.28,0,1,1-.43,2.52Z"/>
            <path class="cls-21" d="M639.44,217.77a1.28,1.28,0,1,1,1.48-1.05A1.3,1.3,0,0,1,639.44,217.77Z"/>
            <path class="cls-21" d="M645.74,218.83a1.29,1.29,0,0,1-1-1.47,1.28,1.28,0,1,1,1,1.47Z"/>
            <path class="cls-21" d="M652,219.89a1.28,1.28,0,1,1,1.47-1A1.27,1.27,0,0,1,652,219.89Z"/>
            <path class="cls-21" d="M658.33,221a1.28,1.28,0,0,1-1-1.48,1.27,1.27,0,0,1,2.51.43A1.28,1.28,0,0,1,658.33,221Z"/>
            <path class="cls-21" d="M647.29,228.81a1.28,1.28,0,1,1,1.48-1.05A1.3,1.3,0,0,1,647.29,228.81Z"/>
            <path class="cls-21" d="M641,227.74a1.27,1.27,0,0,1-1-1.47,1.28,1.28,0,1,1,2.52.43A1.28,1.28,0,0,1,641,227.74Z"/>
            <path class="cls-21" d="M648.36,222.51a1.28,1.28,0,1,1,1.47-1A1.28,1.28,0,0,1,648.36,222.51Z"/>
            <path class="cls-21" d="M642.06,221.45a1.3,1.3,0,0,1-1-1.48,1.28,1.28,0,0,1,1.48-1,1.27,1.27,0,0,1,1,1.47A1.29,1.29,0,0,1,642.06,221.45Z"/>
            <path class="cls-21" d="M654.65,223.57a1.28,1.28,0,0,1,.43-2.52,1.3,1.3,0,0,1,1,1.48A1.28,1.28,0,0,1,654.65,223.57Z"/>
          </g>
          <g>
            <path class="cls-21" d="M647.78,245.08a1.28,1.28,0,0,1,.43-2.52,1.28,1.28,0,1,1-.43,2.52Z"/>
            <path class="cls-21" d="M642.55,237.72a1.28,1.28,0,1,1,.43-2.52,1.28,1.28,0,0,1-.43,2.52Z"/>
            <path class="cls-21" d="M648.85,238.78a1.28,1.28,0,1,1,1.47-1.05A1.28,1.28,0,0,1,648.85,238.78Z"/>
            <path class="cls-21" d="M643.61,231.42a1.28,1.28,0,1,1,1.48-1A1.27,1.27,0,0,1,643.61,231.42Z"/>
            <path class="cls-21" d="M649.91,232.48a1.27,1.27,0,1,1,.43-2.51,1.27,1.27,0,1,1-.43,2.51Z"/>
            <path class="cls-21" d="M656.21,233.55a1.28,1.28,0,1,1,1.47-1.05A1.28,1.28,0,0,1,656.21,233.55Z"/>
            <path class="cls-21" d="M645.17,241.4a1.28,1.28,0,1,1,1.47-1.05A1.28,1.28,0,0,1,645.17,241.4Z"/>
            <path class="cls-21" d="M646.23,235.1a1.28,1.28,0,1,1,1.47-1A1.27,1.27,0,0,1,646.23,235.1Z"/>
            <path class="cls-21" d="M652.53,236.16a1.27,1.27,0,1,1,1.47-1A1.27,1.27,0,0,1,652.53,236.16Z"/>
          </g>
          <g>
            <path class="cls-21" d="M647.78,245.08a1.28,1.28,0,0,1,.43-2.52,1.28,1.28,0,1,1-.43,2.52Z"/>
            <path class="cls-21" d="M654.08,246.14a1.28,1.28,0,1,1,.43-2.52,1.28,1.28,0,0,1-.43,2.52Z"/>
          </g>
          <g>
            <path class="cls-21" d="M652,219.89a1.28,1.28,0,1,1,1.47-1A1.27,1.27,0,0,1,652,219.89Z"/>
            <path class="cls-21" d="M658.33,221a1.28,1.28,0,0,1-1-1.48,1.27,1.27,0,0,1,2.51.43A1.28,1.28,0,0,1,658.33,221Z"/>
          </g>
          <g>
            <path class="cls-21" d="M649.91,232.48a1.27,1.27,0,1,1,.43-2.51,1.27,1.27,0,1,1-.43,2.51Z"/>
            <path class="cls-21" d="M656.21,233.55a1.28,1.28,0,1,1,1.47-1.05A1.28,1.28,0,0,1,656.21,233.55Z"/>
            <path class="cls-21" d="M662.5,234.61a1.28,1.28,0,1,1,1.47-1.05A1.28,1.28,0,0,1,662.5,234.61Z"/>
            <path class="cls-21" d="M651,226.19a1.28,1.28,0,0,1,.43-2.52,1.28,1.28,0,1,1-.43,2.52Z"/>
            <path class="cls-21" d="M657.27,227.25a1.28,1.28,0,1,1,1.47-1A1.27,1.27,0,0,1,657.27,227.25Z"/>
            <path class="cls-21" d="M663.57,228.31a1.27,1.27,0,1,1,1.47-1A1.27,1.27,0,0,1,663.57,228.31Z"/>
            <path class="cls-21" d="M652,219.89a1.28,1.28,0,1,1,1.47-1A1.27,1.27,0,0,1,652,219.89Z"/>
            <path class="cls-21" d="M658.33,221a1.28,1.28,0,0,1-1-1.48,1.27,1.27,0,0,1,2.51.43A1.28,1.28,0,0,1,658.33,221Z"/>
            <path class="cls-21" d="M659.89,230.93a1.28,1.28,0,1,1,1.47-1.05A1.28,1.28,0,0,1,659.89,230.93Z"/>
            <path class="cls-21" d="M653.59,229.87a1.28,1.28,0,1,1,.43-2.52,1.28,1.28,0,0,1-.43,2.52Z"/>
            <path class="cls-21" d="M661,224.63a1.27,1.27,0,1,1,1.47-1A1.27,1.27,0,0,1,661,224.63Z"/>
            <path class="cls-21" d="M654.65,223.57a1.28,1.28,0,0,1,.43-2.52,1.3,1.3,0,0,1,1,1.48A1.28,1.28,0,0,1,654.65,223.57Z"/>
            <path class="cls-21" d="M667.25,225.7a1.28,1.28,0,1,1,1.47-1A1.28,1.28,0,0,1,667.25,225.7Z"/>
          </g>
          <g>
            <path class="cls-21" d="M647.78,245.08a1.28,1.28,0,0,1,.43-2.52,1.28,1.28,0,1,1-.43,2.52Z"/>
            <path class="cls-21" d="M654.08,246.14a1.28,1.28,0,1,1,.43-2.52,1.28,1.28,0,0,1-.43,2.52Z"/>
            <path class="cls-21" d="M660.38,247.2a1.27,1.27,0,1,1,1.47-1A1.27,1.27,0,0,1,660.38,247.2Z"/>
            <path class="cls-21" d="M648.85,238.78a1.28,1.28,0,1,1,1.47-1.05A1.28,1.28,0,0,1,648.85,238.78Z"/>
            <path class="cls-21" d="M655.14,239.84a1.27,1.27,0,0,1,.43-2.51,1.27,1.27,0,1,1-.43,2.51Z"/>
            <path class="cls-21" d="M661.44,240.91a1.28,1.28,0,1,1,1.47-1A1.28,1.28,0,0,1,661.44,240.91Z"/>
            <path class="cls-21" d="M649.91,232.48a1.27,1.27,0,1,1,.43-2.51,1.27,1.27,0,1,1-.43,2.51Z"/>
            <path class="cls-21" d="M656.21,233.55a1.28,1.28,0,1,1,1.47-1.05A1.28,1.28,0,0,1,656.21,233.55Z"/>
            <path class="cls-21" d="M662.5,234.61a1.28,1.28,0,1,1,1.47-1.05A1.28,1.28,0,0,1,662.5,234.61Z"/>
            <path class="cls-21" d="M668.8,235.67a1.27,1.27,0,1,1,1.47-1A1.27,1.27,0,0,1,668.8,235.67Z"/>
            <path class="cls-21" d="M657.76,243.52a1.27,1.27,0,1,1,.42-2.51,1.27,1.27,0,1,1-.42,2.51Z"/>
            <path class="cls-21" d="M651.46,242.46a1.28,1.28,0,0,1,.43-2.52,1.28,1.28,0,1,1-.43,2.52Z"/>
            <path class="cls-21" d="M658.82,237.23a1.28,1.28,0,0,1,.43-2.52,1.28,1.28,0,1,1-.43,2.52Z"/>
            <path class="cls-21" d="M652.53,236.16a1.27,1.27,0,1,1,1.47-1A1.27,1.27,0,0,1,652.53,236.16Z"/>
            <path class="cls-21" d="M665.12,238.29a1.28,1.28,0,1,1,1.47-1A1.28,1.28,0,0,1,665.12,238.29Z"/>
          </g>
          <g>
            <path class="cls-21" d="M659.31,253.5a1.28,1.28,0,0,1,.43-2.52,1.28,1.28,0,1,1-.43,2.52Z"/>
            <path class="cls-21" d="M647.78,245.08a1.28,1.28,0,0,1,.43-2.52,1.28,1.28,0,1,1-.43,2.52Z"/>
            <path class="cls-21" d="M654.08,246.14a1.28,1.28,0,1,1,.43-2.52,1.28,1.28,0,0,1-.43,2.52Z"/>
            <path class="cls-21" d="M660.38,247.2a1.27,1.27,0,1,1,1.47-1A1.27,1.27,0,0,1,660.38,247.2Z"/>
            <path class="cls-21" d="M666.67,248.27a1.28,1.28,0,0,1-1-1.48,1.27,1.27,0,1,1,1,1.48Z"/>
            <path class="cls-21" d="M656.7,249.82a1.28,1.28,0,1,1,1.47-1A1.28,1.28,0,0,1,656.7,249.82Z"/>
            <path class="cls-21" d="M663,250.88a1.27,1.27,0,1,1,1.47-1A1.27,1.27,0,0,1,663,250.88Z"/>
          </g>
          <g>
            <path class="cls-21" d="M662.5,234.61a1.28,1.28,0,1,1,1.47-1.05A1.28,1.28,0,0,1,662.5,234.61Z"/>
            <path class="cls-21" d="M668.8,235.67a1.27,1.27,0,1,1,1.47-1A1.27,1.27,0,0,1,668.8,235.67Z"/>
            <path class="cls-21" d="M675.1,236.74a1.28,1.28,0,1,1,1.47-1.05A1.28,1.28,0,0,1,675.1,236.74Z"/>
            <path class="cls-21" d="M663.57,228.31a1.27,1.27,0,1,1,1.47-1A1.27,1.27,0,0,1,663.57,228.31Z"/>
            <path class="cls-21" d="M669.86,229.38a1.28,1.28,0,1,1,1.47-1A1.28,1.28,0,0,1,669.86,229.38Z"/>
            <path class="cls-21" d="M676.16,230.44a1.28,1.28,0,1,1,1.47-1.05A1.28,1.28,0,0,1,676.16,230.44Z"/>
            <path class="cls-21" d="M683.52,225.21a1.28,1.28,0,1,1,1.47-1.05A1.28,1.28,0,0,1,683.52,225.21Z"/>
            <path class="cls-21" d="M672.48,233.06A1.28,1.28,0,1,1,674,232,1.28,1.28,0,0,1,672.48,233.06Z"/>
            <path class="cls-21" d="M666.18,232a1.27,1.27,0,1,1,1.47-1A1.27,1.27,0,0,1,666.18,232Z"/>
            <path class="cls-21" d="M673.54,226.76a1.28,1.28,0,1,1,.43-2.52,1.28,1.28,0,0,1-.43,2.52Z"/>
            <path class="cls-21" d="M667.25,225.7a1.28,1.28,0,1,1,1.47-1A1.28,1.28,0,0,1,667.25,225.7Z"/>
            <path class="cls-21" d="M679.84,227.82a1.27,1.27,0,1,1,1.47-1A1.27,1.27,0,0,1,679.84,227.82Z"/>
          </g>
          <g>
            <path class="cls-21" d="M660.38,247.2a1.27,1.27,0,1,1,1.47-1A1.27,1.27,0,0,1,660.38,247.2Z"/>
            <path class="cls-21" d="M666.67,248.27a1.28,1.28,0,0,1-1-1.48,1.27,1.27,0,1,1,1,1.48Z"/>
            <path class="cls-21" d="M673,249.33a1.28,1.28,0,1,1,1.47-1.05A1.28,1.28,0,0,1,673,249.33Z"/>
            <path class="cls-21" d="M661.44,240.91a1.28,1.28,0,1,1,1.47-1A1.28,1.28,0,0,1,661.44,240.91Z"/>
            <path class="cls-21" d="M667.74,242a1.28,1.28,0,1,1,1.47-1.05A1.28,1.28,0,0,1,667.74,242Z"/>
            <path class="cls-21" d="M674,243a1.28,1.28,0,0,1-1-1.47,1.3,1.3,0,0,1,1.48-1.05,1.28,1.28,0,0,1,1,1.48A1.27,1.27,0,0,1,674,243Z"/>
            <path class="cls-21" d="M662.5,234.61a1.28,1.28,0,1,1,1.47-1.05A1.28,1.28,0,0,1,662.5,234.61Z"/>
            <path class="cls-21" d="M668.8,235.67a1.27,1.27,0,1,1,1.47-1A1.27,1.27,0,0,1,668.8,235.67Z"/>
            <path class="cls-21" d="M675.1,236.74a1.28,1.28,0,1,1,1.47-1.05A1.28,1.28,0,0,1,675.1,236.74Z"/>
            <path class="cls-21" d="M681.39,237.8a1.28,1.28,0,1,1,.43-2.52,1.28,1.28,0,0,1-.43,2.52Z"/>
            <path class="cls-21" d="M670.35,245.65a1.28,1.28,0,1,1,1.47-1.05A1.28,1.28,0,0,1,670.35,245.65Z"/>
            <path class="cls-21" d="M664.06,244.59a1.28,1.28,0,1,1,1.47-1.05A1.28,1.28,0,0,1,664.06,244.59Z"/>
            <path class="cls-21" d="M671.41,239.35a1.27,1.27,0,1,1,1.48-1A1.28,1.28,0,0,1,671.41,239.35Z"/>
            <path class="cls-21" d="M665.12,238.29a1.28,1.28,0,1,1,1.47-1A1.28,1.28,0,0,1,665.12,238.29Z"/>
            <path class="cls-21" d="M677.71,240.42a1.3,1.3,0,0,1-1.05-1.48,1.28,1.28,0,1,1,1.05,1.48Z"/>
          </g>
          <g>
            <path class="cls-21" d="M659.31,253.5a1.28,1.28,0,0,1,.43-2.52,1.28,1.28,0,1,1-.43,2.52Z"/>
            <path class="cls-21" d="M665.61,254.56a1.27,1.27,0,0,1-1.05-1.47A1.3,1.3,0,0,1,666,252a1.28,1.28,0,0,1-.43,2.52Z"/>
            <path class="cls-21" d="M671.91,255.63a1.28,1.28,0,1,1,.42-2.52,1.27,1.27,0,0,1,1,1.47A1.29,1.29,0,0,1,671.91,255.63Z"/>
            <path class="cls-21" d="M660.38,247.2a1.27,1.27,0,1,1,1.47-1A1.27,1.27,0,0,1,660.38,247.2Z"/>
            <path class="cls-21" d="M666.67,248.27a1.28,1.28,0,0,1-1-1.48,1.27,1.27,0,1,1,1,1.48Z"/>
            <path class="cls-21" d="M673,249.33a1.28,1.28,0,1,1,1.47-1.05A1.28,1.28,0,0,1,673,249.33Z"/>
            <path class="cls-21" d="M679.27,250.39a1.27,1.27,0,0,1-1-1.47,1.28,1.28,0,1,1,2.52.43A1.28,1.28,0,0,1,679.27,250.39Z"/>
            <path class="cls-21" d="M668.23,258.24a1.27,1.27,0,0,1-1.05-1.47,1.28,1.28,0,1,1,2.52.43A1.28,1.28,0,0,1,668.23,258.24Z"/>
            <path class="cls-21" d="M669.29,252a1.3,1.3,0,0,1-1-1.48,1.28,1.28,0,1,1,1,1.48Z"/>
            <path class="cls-21" d="M663,250.88a1.27,1.27,0,1,1,1.47-1A1.27,1.27,0,0,1,663,250.88Z"/>
            <path class="cls-21" d="M675.59,253a1.28,1.28,0,1,1,1.47-1A1.28,1.28,0,0,1,675.59,253Z"/>
          </g>
          <g>
            <path class="cls-21" d="M683.52,225.21a1.28,1.28,0,1,1,1.47-1.05A1.28,1.28,0,0,1,683.52,225.21Z"/>
            <path class="cls-21" d="M689.81,226.27a1.28,1.28,0,0,1,.43-2.52,1.28,1.28,0,1,1-.43,2.52Z"/>
          </g>
          <g>
            <path class="cls-21" d="M675.1,236.74a1.28,1.28,0,1,1,1.47-1.05A1.28,1.28,0,0,1,675.1,236.74Z"/>
            <path class="cls-21" d="M681.39,237.8a1.28,1.28,0,1,1,1.47-1.05A1.28,1.28,0,0,1,681.39,237.8Z"/>
            <path class="cls-21" d="M687.69,238.86a1.27,1.27,0,0,1-1.05-1.47,1.28,1.28,0,1,1,2.52.43A1.28,1.28,0,0,1,687.69,238.86Z"/>
            <path class="cls-21" d="M676.16,230.44a1.28,1.28,0,1,1,1.47-1.05A1.28,1.28,0,0,1,676.16,230.44Z"/>
            <path class="cls-21" d="M682.46,231.5a1.27,1.27,0,0,1-1.05-1.47,1.28,1.28,0,1,1,1.05,1.47Z"/>
            <path class="cls-21" d="M688.75,232.57a1.28,1.28,0,0,1-1-1.48,1.27,1.27,0,1,1,2.51.43A1.28,1.28,0,0,1,688.75,232.57Z"/>
            <path class="cls-21" d="M683.52,225.21a1.28,1.28,0,1,1,1.47-1.05A1.28,1.28,0,0,1,683.52,225.21Z"/>
            <path class="cls-21" d="M689.81,226.27a1.28,1.28,0,0,1,.43-2.52,1.28,1.28,0,1,1-.43,2.52Z"/>
            <path class="cls-21" d="M696.11,227.33a1.28,1.28,0,0,1-1.05-1.47,1.3,1.3,0,0,1,1.48-1.05,1.28,1.28,0,0,1,1,1.48A1.27,1.27,0,0,1,696.11,227.33Z"/>
            <path class="cls-21" d="M685.07,235.18a1.27,1.27,0,0,1-1-1.47,1.27,1.27,0,1,1,2.51.43A1.27,1.27,0,0,1,685.07,235.18Z"/>
            <path class="cls-21" d="M678.78,234.12a1.28,1.28,0,1,1,1.47-1.05A1.28,1.28,0,0,1,678.78,234.12Z"/>
            <path class="cls-21" d="M686.13,228.89a1.28,1.28,0,1,1,1.48-1A1.28,1.28,0,0,1,686.13,228.89Z"/>
            <path class="cls-21" d="M679.84,227.82a1.27,1.27,0,1,1,1.47-1A1.27,1.27,0,0,1,679.84,227.82Z"/>
            <path class="cls-21" d="M692.43,230a1.28,1.28,0,1,1,.43-2.52,1.28,1.28,0,0,1-.43,2.52Z"/>
          </g>
          <g>
            <path class="cls-21" d="M673,249.33a1.28,1.28,0,1,1,.43-2.52,1.28,1.28,0,0,1-.43,2.52Z"/>
            <path class="cls-21" d="M679.27,250.39a1.27,1.27,0,0,1-1-1.47,1.28,1.28,0,1,1,2.52.43A1.28,1.28,0,0,1,679.27,250.39Z"/>
            <path class="cls-21" d="M685.56,251.46a1.28,1.28,0,0,1-1-1.48,1.27,1.27,0,0,1,1.47-1,1.28,1.28,0,0,1,1,1.47A1.3,1.3,0,0,1,685.56,251.46Z"/>
            <path class="cls-21" d="M674,243a1.27,1.27,0,0,1,.43-2.51A1.27,1.27,0,1,1,674,243Z"/>
            <path class="cls-21" d="M680.33,244.1a1.28,1.28,0,1,1,1.47-1A1.28,1.28,0,0,1,680.33,244.1Z"/>
            <path class="cls-21" d="M686.63,245.16a1.28,1.28,0,1,1,1.47-1A1.28,1.28,0,0,1,686.63,245.16Z"/>
            <path class="cls-21" d="M675.1,236.74a1.28,1.28,0,1,1,1.47-1.05A1.28,1.28,0,0,1,675.1,236.74Z"/>
            <path class="cls-21" d="M681.39,237.8a1.28,1.28,0,1,1,1.47-1.05A1.28,1.28,0,0,1,681.39,237.8Z"/>
            <path class="cls-21" d="M687.69,238.86a1.27,1.27,0,0,1-1.05-1.47,1.28,1.28,0,1,1,2.52.43A1.28,1.28,0,0,1,687.69,238.86Z"/>
            <path class="cls-21" d="M694,239.93a1.28,1.28,0,0,1-1-1.48,1.28,1.28,0,0,1,2.52.43A1.3,1.3,0,0,1,694,239.93Z"/>
            <path class="cls-21" d="M683,247.78a1.28,1.28,0,1,1,1.47-1.05A1.28,1.28,0,0,1,683,247.78Z"/>
            <path class="cls-21" d="M676.65,246.71a1.28,1.28,0,1,1,1.47-1A1.28,1.28,0,0,1,676.65,246.71Z"/>
            <path class="cls-21" d="M684,241.48a1.28,1.28,0,1,1,1.47-1A1.28,1.28,0,0,1,684,241.48Z"/>
            <path class="cls-21" d="M677.71,240.42a1.28,1.28,0,0,1-1-1.48,1.27,1.27,0,1,1,1,1.48Z"/>
            <path class="cls-21" d="M690.3,242.54a1.27,1.27,0,0,1-1-1.47,1.28,1.28,0,1,1,1,1.47Z"/>
          </g>
          <g>
            <path class="cls-21" d="M671.91,255.63a1.28,1.28,0,1,1,1.47-1A1.28,1.28,0,0,1,671.91,255.63Z"/>
            <path class="cls-21" d="M678.2,256.69a1.28,1.28,0,0,1,.43-2.52,1.28,1.28,0,1,1-.43,2.52Z"/>
            <path class="cls-21" d="M684.5,257.75a1.28,1.28,0,1,1,1.47-1A1.28,1.28,0,0,1,684.5,257.75Z"/>
            <path class="cls-21" d="M673,249.33a1.28,1.28,0,1,1,.43-2.52,1.28,1.28,0,0,1-.43,2.52Z"/>
            <path class="cls-21" d="M679.27,250.39a1.27,1.27,0,0,1-1-1.47,1.28,1.28,0,1,1,2.52.43A1.28,1.28,0,0,1,679.27,250.39Z"/>
            <path class="cls-21" d="M685.56,251.46a1.28,1.28,0,0,1-1-1.48,1.27,1.27,0,0,1,1.47-1,1.28,1.28,0,0,1,1,1.47A1.3,1.3,0,0,1,685.56,251.46Z"/>
            <path class="cls-21" d="M691.86,252.52a1.28,1.28,0,1,1,1.47-1.05A1.28,1.28,0,0,1,691.86,252.52Z"/>
            <path class="cls-21" d="M680.82,260.37a1.28,1.28,0,1,1,.43-2.52,1.28,1.28,0,0,1-.43,2.52Z"/>
            <path class="cls-21" d="M674.53,259.31a1.28,1.28,0,1,1,1.47-1.05A1.28,1.28,0,0,1,674.53,259.31Z"/>
            <path class="cls-21" d="M681.88,254.07a1.27,1.27,0,0,1-1-1.47,1.28,1.28,0,0,1,1.47-1,1.3,1.3,0,0,1,1.05,1.48A1.28,1.28,0,0,1,681.88,254.07Z"/>
            <path class="cls-21" d="M675.59,253a1.28,1.28,0,1,1,1.47-1A1.28,1.28,0,0,1,675.59,253Z"/>
            <path class="cls-21" d="M688.18,255.14a1.28,1.28,0,1,1,.42-2.52,1.27,1.27,0,0,1,1,1.47A1.29,1.29,0,0,1,688.18,255.14Z"/>
          </g>
          <g>
            <path class="cls-21" d="M689.81,226.27a1.28,1.28,0,0,1,.43-2.52,1.28,1.28,0,1,1-.43,2.52Z"/>
            <path class="cls-21" d="M696.11,227.33a1.28,1.28,0,0,1-1.05-1.47,1.3,1.3,0,0,1,1.48-1.05,1.28,1.28,0,0,1,1,1.48A1.27,1.27,0,0,1,696.11,227.33Z"/>
            <path class="cls-21" d="M702.41,228.4a1.28,1.28,0,1,1,1.47-1.05A1.28,1.28,0,0,1,702.41,228.4Z"/>
          </g>
          <g>
            <path class="cls-21" d="M687.69,238.86a1.27,1.27,0,0,1-1.05-1.47,1.28,1.28,0,1,1,2.52.43A1.28,1.28,0,0,1,687.69,238.86Z"/>
            <path class="cls-21" d="M694,239.93a1.28,1.28,0,0,1-1-1.48,1.28,1.28,0,0,1,2.52.43A1.3,1.3,0,0,1,694,239.93Z"/>
            <path class="cls-21" d="M700.28,241a1.28,1.28,0,1,1,.43-2.52,1.28,1.28,0,0,1-.43,2.52Z"/>
            <path class="cls-21" d="M688.75,232.57a1.28,1.28,0,0,1-1-1.48,1.27,1.27,0,1,1,2.51.43A1.28,1.28,0,0,1,688.75,232.57Z"/>
            <path class="cls-21" d="M695.05,233.63a1.28,1.28,0,1,1,1.47-1A1.28,1.28,0,0,1,695.05,233.63Z"/>
            <path class="cls-21" d="M701.34,234.69a1.28,1.28,0,0,1,.43-2.52,1.3,1.3,0,0,1,1.05,1.48A1.28,1.28,0,0,1,701.34,234.69Z"/>
            <path class="cls-21" d="M689.81,226.27a1.28,1.28,0,0,1,.43-2.52,1.28,1.28,0,1,1-.43,2.52Z"/>
            <path class="cls-21" d="M696.11,227.33a1.28,1.28,0,0,1-1.05-1.47,1.3,1.3,0,0,1,1.48-1.05,1.28,1.28,0,0,1,1,1.48A1.27,1.27,0,0,1,696.11,227.33Z"/>
            <path class="cls-21" d="M702.41,228.4a1.28,1.28,0,1,1,1.47-1.05A1.28,1.28,0,0,1,702.41,228.4Z"/>
            <path class="cls-21" d="M697.66,237.31a1.28,1.28,0,1,1,1.48-1.05A1.28,1.28,0,0,1,697.66,237.31Z"/>
            <path class="cls-21" d="M691.37,236.25a1.28,1.28,0,1,1,.42-2.52,1.27,1.27,0,0,1,1.05,1.47A1.29,1.29,0,0,1,691.37,236.25Z"/>
            <path class="cls-21" d="M698.73,231a1.27,1.27,0,0,1-1.05-1.47,1.28,1.28,0,1,1,2.52.43A1.28,1.28,0,0,1,698.73,231Z"/>
            <path class="cls-21" d="M692.43,230a1.28,1.28,0,1,1,.43-2.52,1.28,1.28,0,0,1-.43,2.52Z"/>
            <path class="cls-21" d="M705,232.08a1.28,1.28,0,0,1-1-1.48,1.27,1.27,0,0,1,1.47-1,1.28,1.28,0,0,1,1,1.47A1.3,1.3,0,0,1,705,232.08Z"/>
          </g>
          <g>
            <path class="cls-21" d="M685.56,251.46a1.28,1.28,0,0,1-1-1.48,1.27,1.27,0,0,1,1.47-1,1.28,1.28,0,0,1,1,1.47A1.3,1.3,0,0,1,685.56,251.46Z"/>
            <path class="cls-21" d="M691.86,252.52a1.28,1.28,0,1,1,1.47-1.05A1.28,1.28,0,0,1,691.86,252.52Z"/>
            <path class="cls-21" d="M698.16,253.58a1.28,1.28,0,1,1,1.47-1A1.28,1.28,0,0,1,698.16,253.58Z"/>
            <path class="cls-21" d="M686.63,245.16a1.28,1.28,0,1,1,1.47-1A1.28,1.28,0,0,1,686.63,245.16Z"/>
            <path class="cls-21" d="M692.92,246.22a1.28,1.28,0,0,1,.43-2.52,1.28,1.28,0,0,1,1,1.48A1.27,1.27,0,0,1,692.92,246.22Z"/>
            <path class="cls-21" d="M699.22,247.29a1.28,1.28,0,1,1,.42-2.52,1.27,1.27,0,0,1,1.05,1.47A1.29,1.29,0,0,1,699.22,247.29Z"/>
            <path class="cls-21" d="M687.69,238.86a1.27,1.27,0,0,1-1.05-1.47,1.28,1.28,0,1,1,2.52.43A1.28,1.28,0,0,1,687.69,238.86Z"/>
            <path class="cls-21" d="M694,239.93a1.28,1.28,0,0,1-1-1.48,1.28,1.28,0,0,1,2.52.43A1.3,1.3,0,0,1,694,239.93Z"/>
            <path class="cls-21" d="M700.28,241a1.28,1.28,0,1,1,.43-2.52,1.28,1.28,0,0,1-.43,2.52Z"/>
            <path class="cls-21" d="M706.58,242.05a1.28,1.28,0,1,1,1.47-1A1.27,1.27,0,0,1,706.58,242.05Z"/>
            <path class="cls-21" d="M695.54,249.9a1.28,1.28,0,1,1,1.47-1A1.27,1.27,0,0,1,695.54,249.9Z"/>
            <path class="cls-21" d="M689.24,248.84a1.28,1.28,0,1,1,1.47-1.05A1.28,1.28,0,0,1,689.24,248.84Z"/>
            <path class="cls-21" d="M696.6,243.61a1.3,1.3,0,0,1-1.05-1.48,1.28,1.28,0,1,1,1.05,1.48Z"/>
            <path class="cls-21" d="M690.3,242.54a1.27,1.27,0,0,1-1-1.47,1.28,1.28,0,1,1,1,1.47Z"/>
            <path class="cls-21" d="M702.9,244.67a1.28,1.28,0,1,1,1.47-1A1.28,1.28,0,0,1,702.9,244.67Z"/>
          </g>
          <g>
            <path class="cls-21" d="M684.5,257.75a1.28,1.28,0,1,1,1.47-1A1.28,1.28,0,0,1,684.5,257.75Z"/>
            <path class="cls-21" d="M690.8,258.82a1.28,1.28,0,1,1,.42-2.52,1.27,1.27,0,0,1,1,1.47A1.29,1.29,0,0,1,690.8,258.82Z"/>
            <path class="cls-21" d="M685.56,251.46a1.28,1.28,0,0,1-1-1.48,1.27,1.27,0,0,1,1.47-1,1.28,1.28,0,0,1,1,1.47A1.3,1.3,0,0,1,685.56,251.46Z"/>
            <path class="cls-21" d="M691.86,252.52a1.28,1.28,0,1,1,1.47-1.05A1.28,1.28,0,0,1,691.86,252.52Z"/>
            <path class="cls-21" d="M698.16,253.58a1.28,1.28,0,1,1,1.47-1A1.28,1.28,0,0,1,698.16,253.58Z"/>
            <path class="cls-21" d="M694.47,256.2a1.28,1.28,0,1,1,1.48-1A1.28,1.28,0,0,1,694.47,256.2Z"/>
            <path class="cls-21" d="M688.18,255.14a1.28,1.28,0,1,1,.42-2.52,1.27,1.27,0,0,1,1,1.47A1.29,1.29,0,0,1,688.18,255.14Z"/>
          </g>
          <path class="cls-21" d="M702.41,228.4a1.28,1.28,0,1,1,1.47-1.05A1.28,1.28,0,0,1,702.41,228.4Z"/>
          <g>
            <path class="cls-21" d="M700.28,241a1.28,1.28,0,1,1,.43-2.52,1.28,1.28,0,0,1-.43,2.52Z"/>
            <path class="cls-21" d="M706.58,242.05a1.28,1.28,0,1,1,1.47-1.05A1.28,1.28,0,0,1,706.58,242.05Z"/>
            <path class="cls-21" d="M701.34,234.69a1.28,1.28,0,0,1,.43-2.52,1.3,1.3,0,0,1,1.05,1.48A1.28,1.28,0,0,1,701.34,234.69Z"/>
            <path class="cls-21" d="M707.64,235.76a1.28,1.28,0,1,1,.43-2.52,1.27,1.27,0,0,1,1,1.47A1.28,1.28,0,0,1,707.64,235.76Z"/>
            <path class="cls-21" d="M702.41,228.4a1.28,1.28,0,1,1,1.47-1.05A1.28,1.28,0,0,1,702.41,228.4Z"/>
            <path class="cls-21" d="M704,238.37a1.28,1.28,0,1,1,1.47-1A1.27,1.27,0,0,1,704,238.37Z"/>
            <path class="cls-21" d="M705,232.08a1.28,1.28,0,0,1-1-1.48,1.27,1.27,0,0,1,1.47-1,1.28,1.28,0,0,1,1,1.47A1.3,1.3,0,0,1,705,232.08Z"/>
          </g>
          <g>
            <path class="cls-21" d="M698.16,253.58a1.28,1.28,0,1,1,1.47-1A1.28,1.28,0,0,1,698.16,253.58Z"/>
            <path class="cls-21" d="M699.22,247.29a1.28,1.28,0,1,1,.42-2.52,1.27,1.27,0,0,1,1.05,1.47A1.29,1.29,0,0,1,699.22,247.29Z"/>
            <path class="cls-21" d="M705.51,248.35a1.28,1.28,0,0,1,.43-2.52,1.28,1.28,0,1,1-.43,2.52Z"/>
            <path class="cls-21" d="M700.28,241a1.28,1.28,0,1,1,.43-2.52,1.28,1.28,0,0,1-.43,2.52Z"/>
            <path class="cls-21" d="M706.58,242.05a1.28,1.28,0,1,1,1.47-1A1.27,1.27,0,0,1,706.58,242.05Z"/>
            <path class="cls-21" d="M701.83,251a1.27,1.27,0,1,1,1.48-1A1.28,1.28,0,0,1,701.83,251Z"/>
            <path class="cls-21" d="M702.9,244.67a1.28,1.28,0,1,1,1.47-1A1.28,1.28,0,0,1,702.9,244.67Z"/>
          </g>
          <path class="cls-21" d="M698.16,253.58a1.28,1.28,0,1,1,1.47-1A1.28,1.28,0,0,1,698.16,253.58Z"/>
        </g>
        <path class="cls-4" d="M646.18,227c5.67,13.2,22.48,11.53,33.07,12.75"/>
        <g>
          <path class="cls-20" d="M634,181c-1.55,19.55,23.16,30.6,22.25,10.64Z"/>
          <g>
            <path class="cls-20" d="M663.71,192.14c3.95,23.36,37.51,22.43,33.84-.75Z"/>
            <path class="cls-21" d="M674.15,202.07c-.09-3.45,2.15-5.77,5-5.16s5.23,3.88,5.31,7.34-2.16,5.74-5,5.14S674.24,205.51,674.15,202.07Z"/>
          </g>
          <path class="cls-21" d="M642.64,195.79c-.47-3.22,1.29-5.51,3.9-5.12s5.12,3.31,5.57,6.52-1.3,5.5-3.91,5.11S643.1,199,642.64,195.79Z"/>
        </g>
        <path class="cls-6" d="M733.48,264.46a120.77,120.77,0,0,0,1.08-29.92h0a92.77,92.77,0,0,0-7.85-29.94A86.81,86.81,0,0,0,706,176.29c-21.73-19.81-51.05-27.41-71.27-24.59-10.61,1.47-18.73,5.81-21.9,12.76"/>
      </g>
      <g>
        <g>
          <line class="cls-22" x1="710.09" y1="291.07" x2="661.35" y2="392.39"/>
          <circle class="cls-3" cx="661.35" cy="392.39" r="18.42" transform="translate(-78.33 182.1) rotate(-14.81)"/>
        </g>
        <g>
          <polyline class="cls-22" points="486.86 502.38 709.13 281.8 706.29 291.2"/>
          <path class="cls-3" d="M499.83,515.46a18.42,18.42,0,1,1,.1-26.05A18.42,18.42,0,0,1,499.83,515.46Z"/>
        </g>
        <g>
          <line class="cls-22" x1="723.34" y1="516.88" x2="709.13" y2="281.8"/>
          <path class="cls-3" d="M741.73,515.77a18.42,18.42,0,1,1-19.5-17.28A18.42,18.42,0,0,1,741.73,515.77Z"/>
        </g>
        <g>
          <line class="cls-22" x1="712.13" y1="281.8" x2="957.83" y2="401.89"/>
          <path class="cls-3" d="M949.74,418.44a18.42,18.42,0,1,0-8.46-24.64A18.43,18.43,0,0,0,949.74,418.44Z"/>
        </g>
        <circle class="cls-3" cx="710.12" cy="287.3" r="18" transform="translate(4.84 586.28) rotate(-45)"/>
      </g>
      <g>
        <g>
          <rect class="cls-2" x="801.43" y="403.05" width="118.49" height="164.84" rx="48.99" ry="48.99"/>
          <rect class="cls-4" x="801.43" y="403.05" width="118.49" height="164.84" rx="48.99" ry="48.99"/>
        </g>
        <g>
          <path class="cls-1" d="M801.43,416.63c25.3-33.94,82.61-30.17,103.72-13.58s17.47,47,14.77,115.85-59.25,39.71-59.25,39.71-21.87.37-24.14-18.4,7.54-69.79-2.26-78.21-31.67-3.9-36.19-12.2S793.76,426.92,801.43,416.63Z"/>
          <path class="cls-4" d="M801.43,416.63c25.3-33.94,82.61-30.17,103.72-13.58s17.47,47,14.77,115.85c-3,76.6-81.46,37.32-83.39,21.31-2.26-18.77,7.54-69.79-2.26-78.21s-31.67-3.9-36.19-12.2S793.76,426.92,801.43,416.63Z"/>
        </g>
        <path class="cls-4" d="M944.5,456.42c0-48.32-30.26-82.33-73-82.33h-16a81.69,81.69,0,0,0-81.65,82.33v91.82c0,49.79,170.59,56.12,170.59,0h0Z"/>
      </g>
    </g>
    <g>
      <polygon class="cls-9" points="1160.41 271.26 1129.34 320.95 1137.68 328.13 1163.32 273.02 1160.41 271.26"/>
      <path class="cls-10" d="M1157,262.64a10,10,0,1,0,11-8.87A10,10,0,0,0,1157,262.64Z"/>
    </g>
    <g>
      <polygon class="cls-2" points="1129.35 211.13 1093.13 243.39 1130.68 243.39 1129.35 211.13"/>
      <rect class="cls-2" x="1124.56" y="182.68" width="187.02" height="104.77" rx="17" ry="17"/>
      <path class="cls-6" d="M1278.18,287.45H1139a13.69,13.69,0,0,1-13.69-13.69m160.4,13.69h11.84a13.69,13.69,0,0,0,13.69-13.69V196.37a13.69,13.69,0,0,0-13.69-13.69H1139a13.69,13.69,0,0,0-13.69,13.69v6.39"/>
      <path class="cls-6" d="M1125.35,270.47V247.29a2.54,2.54,0,0,0-2.54-2.54h-29.16a.78.78,0,0,1-.52-1.36l31.39-28.62a2.53,2.53,0,0,0,.83-1.88v-9.42"/>
    </g>
    <g>
      <polygon class="cls-2" points="963.68 560.34 927.46 528.08 965.02 528.08 963.68 560.34"/>
      <rect class="cls-2" x="958.9" y="484.02" width="283.02" height="104.77" rx="17" ry="17"/>
      <path class="cls-6" d="M1192.51,484H973.34a13.69,13.69,0,0,0-13.7,13.69M1216,484h11.84a13.69,13.69,0,0,1,13.69,13.69V575.1a13.69,13.69,0,0,1-13.69,13.69H973.34a13.69,13.69,0,0,1-13.7-13.69v-6.39"/>
      <path class="cls-6" d="M959.68,501v23.18a2.54,2.54,0,0,1-2.54,2.54H928a.78.78,0,0,0-.52,1.36l31.39,28.62a2.53,2.53,0,0,1,.83,1.88V568"/>
    </g>
    <g>
      <rect class="cls-2" x="93.05" y="231.12" width="187.02" height="104.77" rx="17" ry="17"/>
      <path class="cls-6" d="M261.55,335.89h4.08a13.69,13.69,0,0,0,13.7-13.69M126.46,335.89h57.59m-65.12,0H107.09A13.69,13.69,0,0,1,93.4,322.21v-77.4a13.69,13.69,0,0,1,13.69-13.69H265.63a13.69,13.69,0,0,1,13.7,13.69V311"/>
      <g>
        <polygon class="cls-2" points="198.69 331.73 230.94 367.96 230.94 330.4 198.69 331.73"/>
        <path class="cls-6" d="M256.61,335.73H233.43a2.54,2.54,0,0,0-2.54,2.54v29.16a.79.79,0,0,1-.5.73.81.81,0,0,1-.86-.2l-28.62-31.4a2.53,2.53,0,0,0-1.88-.83h-9.42"/>
      </g>
    </g>
    <g>
      <path class="cls-3" d="M159.48,274.42v22.4h-5.21l-9.89-11.94v11.94h-6.21v-22.4h5.22l9.89,11.94V274.42Z"/>
      <path class="cls-3" d="M168.87,295.76a11.46,11.46,0,0,1,0-20.28,14.25,14.25,0,0,1,12.77,0,11.45,11.45,0,0,1,0,20.28,14.25,14.25,0,0,1-12.77,0Zm9.46-4.54a5.72,5.72,0,0,0,2.18-2.26,7.37,7.37,0,0,0,0-6.68,5.78,5.78,0,0,0-2.18-2.26,6.29,6.29,0,0,0-6.14,0,5.72,5.72,0,0,0-2.18,2.26,7.37,7.37,0,0,0,0,6.68,5.65,5.65,0,0,0,2.18,2.26,6.29,6.29,0,0,0,6.14,0Z"/>
      <path class="cls-3" d="M206.55,275.43a7.78,7.78,0,0,1,3.46,2.88,7.9,7.9,0,0,1,1.22,4.4,7.81,7.81,0,0,1-1.22,4.38,7.89,7.89,0,0,1-3.46,2.87,12.77,12.77,0,0,1-5.27,1h-3.91v5.86H191v-22.4h10.24A12.77,12.77,0,0,1,206.55,275.43Zm-2.71,9.69a3,3,0,0,0,1-2.41,3,3,0,0,0-1-2.43,4.38,4.38,0,0,0-3-.87h-3.52V286h3.52A4.44,4.44,0,0,0,203.84,285.12Z"/>
      <path class="cls-3" d="M232.28,291.92v4.9h-18v-22.4h17.57v4.9h-11.3v3.77h10v4.74h-10v4.09Z"/>
      <path class="cls-3" d="M235.77,296.13a3.16,3.16,0,0,1-1-2.38,3.07,3.07,0,0,1,1-2.37,3.75,3.75,0,0,1,2.62-.93,3.69,3.69,0,0,1,2.61.93,3.06,3.06,0,0,1,1,2.37,3.16,3.16,0,0,1-1,2.38,4,4,0,0,1-5.22,0Zm-1-21.71H242l-1.22,14.24H236Z"/>
    </g>
    <g>
      <path class="cls-3" d="M1005.24,527.42v22.4H1000l-9.89-11.94v11.94h-6.21v-22.4h5.22L999,539.36V527.42Z"/>
      <path class="cls-3" d="M1014.63,548.76a11.45,11.45,0,0,1,0-20.28,14.25,14.25,0,0,1,12.77,0,11.46,11.46,0,0,1,0,20.28,14.25,14.25,0,0,1-12.77,0Zm9.45-4.54a5.65,5.65,0,0,0,2.18-2.26,7.37,7.37,0,0,0,0-6.68,5.72,5.72,0,0,0-2.18-2.26,6.29,6.29,0,0,0-6.14,0,5.78,5.78,0,0,0-2.18,2.26,7.37,7.37,0,0,0,0,6.68,5.72,5.72,0,0,0,2.18,2.26,6.29,6.29,0,0,0,6.14,0Z"/>
      <path class="cls-3" d="M1041.24,532.44h-6.88v-5h20.06v5h-6.85v17.38h-6.33Z"/>
      <path class="cls-3" d="M1084.08,544.92v4.9h-18v-22.4h17.57v4.9h-11.3v3.77h10v4.74h-10v4.09Z"/>
      <path class="cls-3" d="M1108.92,527.42v22.4h-5.22l-9.89-11.94v11.94h-6.21v-22.4h5.22l9.89,11.94V527.42Z"/>
      <path class="cls-3" d="M1118.31,548.76a11.45,11.45,0,0,1,0-20.28,14.23,14.23,0,0,1,12.76,0,11.45,11.45,0,0,1,0,20.28,14.23,14.23,0,0,1-12.76,0Zm9.45-4.54a5.65,5.65,0,0,0,2.18-2.26,7.37,7.37,0,0,0,0-6.68,5.72,5.72,0,0,0-2.18-2.26,6.29,6.29,0,0,0-6.14,0,5.78,5.78,0,0,0-2.18,2.26,7.37,7.37,0,0,0,0,6.68,5.72,5.72,0,0,0,2.18,2.26,6.29,6.29,0,0,0,6.14,0Z"/>
      <path class="cls-3" d="M1143,547.55q-2.76-2.71-2.76-7.71V527.42h6.33v12.22q0,5.39,4.26,5.38t4.22-5.38V527.42h6.24v12.42q0,5-2.77,7.71t-7.76,2.72C1147.47,550.27,1144.89,549.36,1143,547.55Z"/>
      <path class="cls-3" d="M1180.63,538.14h5.6v9.28a14.59,14.59,0,0,1-4.42,2.11,17.59,17.59,0,0,1-5,.74,13.39,13.39,0,0,1-6.34-1.49,11.07,11.07,0,0,1-4.41-4.14,12.13,12.13,0,0,1,0-12,11,11,0,0,1,4.45-4.14A13.67,13.67,0,0,1,1177,527a14.2,14.2,0,0,1,5.63,1.06,10.88,10.88,0,0,1,4.16,3l-4,3.65a7.1,7.1,0,0,0-5.44-2.5,6,6,0,0,0-6.4,6.4,6.67,6.67,0,0,0,.8,3.31,5.78,5.78,0,0,0,2.24,2.28,6.6,6.6,0,0,0,3.29.81,8.13,8.13,0,0,0,3.43-.73Z"/>
      <path class="cls-3" d="M1211.57,527.42v22.4h-6.34v-8.74h-8.64v8.74h-6.33v-22.4h6.33v8.42h8.64v-8.42Z"/>
      <path class="cls-3" d="M1216,549.13a3.17,3.17,0,0,1-1-2.38,3.07,3.07,0,0,1,1-2.37,3.75,3.75,0,0,1,2.62-.93,3.69,3.69,0,0,1,2.61.93,3.09,3.09,0,0,1,1,2.37,3.14,3.14,0,0,1-1,2.38,3.59,3.59,0,0,1-2.59,1A3.65,3.65,0,0,1,1216,549.13Zm-1-21.71h7.23L1221,541.66h-4.83Z"/>
    </g>
    <g>
      <path class="cls-3" d="M1155.45,245.56c-1.84-1.81-2.77-4.38-2.77-7.71V225.44H1159v12.22c0,3.58,1.42,5.38,4.26,5.38s4.22-1.8,4.22-5.38V225.44h6.24v12.41q0,5-2.77,7.71c-1.85,1.82-4.43,2.72-7.76,2.72S1157.3,247.38,1155.45,245.56Z"/>
      <path class="cls-3" d="M1198.25,247.84l-.06-11.88-5.76,9.67h-2.82l-5.73-9.35v11.56H1178v-22.4h5.21l7.88,12.92,7.67-12.92H1204l.07,22.4Z"/>
      <path class="cls-3" d="M1228.78,247.84l-.07-11.88-5.75,9.67h-2.82l-5.73-9.35v11.56h-5.86v-22.4h5.22l7.87,12.92,7.68-12.92h5.22l.06,22.4Z"/>
      <path class="cls-3" d="M1259.31,247.84l-.07-11.88-5.76,9.67h-2.81l-5.73-9.35v11.56h-5.86v-22.4h5.22l7.87,12.92,7.68-12.92h5.22l.06,22.4Z"/>
      <path class="cls-3" d="M1274.86,237a13.4,13.4,0,0,1,2.05-2.29,11.94,11.94,0,0,0,1.37-1.46,2,2,0,0,0,.45-1.26,1.74,1.74,0,0,0-.78-1.49,3.46,3.46,0,0,0-2-.56,4.49,4.49,0,0,0-2.32.61,4.69,4.69,0,0,0-1.68,1.69l-4.76-2.56a9,9,0,0,1,3.71-3.48,12.32,12.32,0,0,1,5.79-1.25,10.74,10.74,0,0,1,6.13,1.58,5.09,5.09,0,0,1,2.32,4.43,5.62,5.62,0,0,1-.45,2.32,6.42,6.42,0,0,1-1.07,1.7,19.27,19.27,0,0,1-1.62,1.55,11.92,11.92,0,0,0-1.6,1.59,2.38,2.38,0,0,0-.51,1.52h-5.7A4.59,4.59,0,0,1,1274.86,237Zm-.45,10.11a3.18,3.18,0,0,1-1-2.39,3,3,0,0,1,1-2.36,3.72,3.72,0,0,1,2.61-.93,3.77,3.77,0,0,1,2.63.93,3,3,0,0,1,1,2.36,3.18,3.18,0,0,1-1,2.39,3.67,3.67,0,0,1-2.63,1A3.6,3.6,0,0,1,1274.41,247.15Z"/>
    </g>
  </g>
</svg>
