<svg id="work" xmlns="http://www.w3.org/2000/svg" viewBox="0 0 1422 870">
  <defs>
    <style>
      .cls-1, .cls-11, .cls-4 {
        fill: #fff;
      }

      .cls-2, .cls-5 {
        fill: #ebebeb;
      }

      .cls-13, .cls-3, .cls-8 {
        fill: #ff0083;
      }

      .cls-10, .cls-11, .cls-13, .cls-4, .cls-5, .cls-6, .cls-7, .cls-8, .cls-9 {
        stroke: #4a4a4a;
      }

      .Graphic-Style, .cls-10, .cls-11, .cls-12, .cls-4, .cls-5, .cls-6, .cls-7, .cls-8, .cls-9 {
        stroke-linecap: round;
        stroke-linejoin: round;
      }

      .Graphic-Style, .cls-12, .cls-13, .cls-4, .cls-5, .cls-6, .cls-8 {
        stroke-width: 2.5px;
      }

      .Graphic-Style, .cls-10, .cls-12, .cls-6, .cls-7, .cls-9 {
        fill: none;
      }

      .Graphic-Style {
        stroke: #ff0083;
      }

      .cls-11, .cls-7 {
        stroke-width: 4px;
      }

      .cls-9 {
        stroke-width: 1.2px;
      }

      .cls-10 {
        stroke-width: 1.5px;
      }

      .cls-12 {
        stroke: #494949;
      }

      .cls-13 {
        stroke-miterlimit: 10;
      }
    </style>
  </defs>
  <title>14,2</title>
  <polygon class="cls-1" points="1163 690.23 754 690.23 666.68 813.96 1243.15 814.46 1163 690.23"/>
  <path class="cls-1" d="M1029.4,503.3c0,47.95-28.73,86.83-64.16,86.83a48,48,0,0,1-8.67-.79,47.85,47.85,0,0,1-8.66.79c-35.44,0-64.17-38.88-64.17-86.83s28.73-86.83,64.17-86.84a47.85,47.85,0,0,1,8.66.79,48,48,0,0,1,8.67-.79C1000.67,416.46,1029.4,455.34,1029.4,503.3Z"/>
  <polyline class="cls-1" points="890.07 295.13 890.07 244.13 1017.07 244.13 1017.07 295.13"/>
  <rect class="cls-1" x="848.07" y="295.13" width="222" height="80"/>
  <rect class="cls-1" x="848.07" y="611.47" width="222" height="80"/>
  <g>
    <g>
      <rect class="cls-2" x="1049.65" y="295.13" width="20.42" height="78.52"/>
      <rect class="cls-2" x="1049.65" y="612.69" width="20.42" height="78.52"/>
      <rect class="cls-2" x="910.07" y="156.13" width="85" height="88"/>
      <rect class="cls-2" x="862.99" y="375.13" width="192.16" height="41.33"/>
      <rect class="cls-2" x="862.99" y="590.13" width="192.16" height="20.67"/>
      <polygon class="cls-3" points="902.57 350.13 874.57 350.13 858.57 321.13 886.57 321.13 902.57 350.13"/>
      <polygon class="cls-3" points="978.57 350.13 950.57 350.13 934.57 321.13 962.57 321.13 978.57 350.13"/>
      <polygon class="cls-3" points="1057.9 350.13 1029.9 350.13 1013.9 321.13 1041.9 321.13 1057.9 350.13"/>
      <polygon class="cls-3" points="902.57 636.47 874.57 636.47 858.57 665.47 886.57 665.47 902.57 636.47"/>
      <polygon class="cls-3" points="978.57 636.47 950.57 636.47 934.57 665.47 962.57 665.47 978.57 636.47"/>
      <polygon class="cls-3" points="1057.9 636.47 1029.9 636.47 1013.9 665.47 1041.9 665.47 1057.9 636.47"/>
      <circle class="cls-3" cx="894.32" cy="748.63" r="15.75"/>
      <rect class="cls-2" x="777.07" y="721.13" width="40" height="55"/>
      <rect class="cls-2" x="1006.07" y="244.13" width="11" height="51"/>
      <polygon class="cls-2" points="1241.33 814.46 1232.15 814.46 1153.4 691.47 1162.58 691.47 1241.33 814.46"/>
      <polygon class="cls-2" points="617.11 470.63 608.46 470.63 573.91 506.98 584.57 511.57 617.11 470.63"/>
    </g>
    <g>
      <path class="cls-1" d="M755.84,755.35l-11.27-22.23-50.76-73.07-9.35-42.73-12.75,48L674,731.53l11.58,12.1L618,773.07l-1.23-5.21c-1.18-5,.12-8.23,2.82-12.55s1.9-12.38,6.88-13.5l5-2.14L613,652.25l4.13-139.85V440.63l-32.54,40.94-55.5-29.34,9.76-24.46,36.33,12.36c26-54.31,22.34-74.3,56.07-74.3h89.48a39.34,39.34,0,0,1,39.35,39.34V536.31L758.79,562a20.55,20.55,0,0,1-16.36,19.1L749,654.9l35.95,55.15Z"/>
      <polyline class="cls-4" points="605.07 469.13 605.07 554.13 173.07 554.13 173.07 230.79 605.07 230.79 605.07 374.63"/>
      <path class="Graphic-Style" d="M1093.31,553.72a145.49,145.49,0,0,0-3.7-111.1"/>
      <path class="Graphic-Style" d="M839.77,418.07a145.17,145.17,0,0,0-12.42,148.42"/>
      <path class="Graphic-Style" d="M1026.4,570.4A109,109,0,0,0,1048.9,519"/>
      <path class="Graphic-Style" d="M870.69,467.17a116.43,116.43,0,0,0,1.79,72.32"/>
      <path class="Graphic-Style" d="M1161.43,526.12a208.15,208.15,0,0,0-1.26-53.49"/>
      <path class="cls-5" d="M776.42,383.4l9,140.38c1.06,22-17.44,28.45-26.35,31.1V536.31h.19s.78-62.68.78-105.85-6.48-46.93-25.27-62.51V351.46h6.14C759.71,351.46,775.22,364.67,776.42,383.4Z"/>
      <g>
        <polyline class="cls-6" points="890.07 84.13 890.07 156.13 1017.07 156.13 1017.07 35.13"/>
        <line class="cls-6" x1="910.07" y1="156.13" x2="910.07" y2="244.13"/>
        <line class="cls-6" x1="995.07" y1="156.13" x2="995.07" y2="244.13"/>
        <polyline class="cls-6" points="890.07 295.13 890.07 244.13 1017.07 244.13 1017.07 295.13"/>
        <polyline class="cls-6" points="862.99 375.13 862.99 416.47 1055.15 416.47 1055.15 375.14"/>
        <rect class="cls-7" x="848.07" y="295.13" width="222" height="80"/>
        <line class="cls-6" x1="848.07" y1="321.13" x2="1070.07" y2="321.13"/>
        <line class="cls-6" x1="848.07" y1="350.13" x2="1070.07" y2="350.13"/>
        <g>
          <line class="cls-6" x1="858.57" y1="321.13" x2="874.07" y2="350.13"/>
          <line class="cls-6" x1="886.57" y1="321.13" x2="902.07" y2="350.13"/>
        </g>
        <g>
          <line class="cls-6" x1="1013.9" y1="321.13" x2="1029.4" y2="350.13"/>
          <line class="cls-6" x1="1041.9" y1="321.13" x2="1057.4" y2="350.13"/>
        </g>
        <g>
          <line class="cls-6" x1="935.68" y1="321.13" x2="951.18" y2="350.13"/>
          <line class="cls-6" x1="963.68" y1="321.13" x2="979.18" y2="350.13"/>
        </g>
        <line class="cls-6" x1="1049.65" y1="119.8" x2="1049.65" y2="205.13"/>
        <line class="cls-6" x1="1079.41" y1="156.13" x2="1079.41" y2="170.47"/>
        <line class="cls-6" x1="848.07" y1="84.47" x2="848.07" y2="159.61"/>
        <line class="cls-6" x1="806.07" y1="111.8" x2="806.07" y2="129.8"/>
      </g>
      <g>
        <g>
          <polyline class="cls-6" points="862.99 611.47 862.99 590.13 1055.15 590.13 1055.15 611.47"/>
          <rect class="cls-7" x="848.07" y="611.47" width="222" height="80"/>
          <line class="cls-6" x1="848.07" y1="665.47" x2="1070.07" y2="665.47"/>
          <line class="cls-6" x1="848.07" y1="636.47" x2="1070.07" y2="636.47"/>
          <g>
            <line class="cls-6" x1="858.57" y1="665.47" x2="874.07" y2="636.47"/>
            <line class="cls-6" x1="886.57" y1="665.47" x2="902.07" y2="636.47"/>
          </g>
          <g>
            <line class="cls-6" x1="1013.9" y1="665.47" x2="1029.4" y2="636.47"/>
            <line class="cls-6" x1="1041.9" y1="665.47" x2="1057.4" y2="636.47"/>
          </g>
          <g>
            <line class="cls-6" x1="935.68" y1="665.47" x2="951.18" y2="636.47"/>
            <line class="cls-6" x1="963.68" y1="665.47" x2="979.18" y2="636.47"/>
          </g>
        </g>
        <polyline class="cls-7" points="772 691.47 1165.07 691.47 1243.57 814.63"/>
        <line class="cls-7" x1="669.68" y1="814.46" x2="731" y2="715.9"/>
        <rect class="cls-6" x="777.07" y="721.13" width="40" height="55"/>
        <rect class="cls-6" x="1035.15" y="721.13" width="79.92" height="55"/>
        <rect class="cls-6" x="1124.15" y="721.13" width="16.92" height="55"/>
        <circle class="cls-6" cx="894.32" cy="748.63" r="15.75"/>
        <circle class="cls-6" cx="941.75" cy="748.63" r="15.75"/>
        <circle class="cls-6" cx="989.18" cy="748.63" r="15.75"/>
      </g>
      <rect class="cls-8" x="173.07" y="119.13" width="432" height="81.35"/>
      <line class="cls-6" x1="274.07" y1="92.04" x2="436.07" y2="92.04"/>
      <line class="cls-6" x1="266.07" y1="576.13" x2="504.07" y2="576.13"/>
      <line class="cls-6" x1="421.07" y1="604.67" x2="472.07" y2="604.67"/>
      <line class="cls-6" x1="976.07" y1="424.47" x2="991.4" y2="424.47"/>
      <line class="cls-6" x1="981.24" y1="578.8" x2="996.57" y2="578.8"/>
      <line class="cls-6" x1="973.24" y1="584.47" x2="988.57" y2="584.47"/>
      <g>
        <path class="cls-3" d="M947.51,557.94,940,554l2.25-12.09-4.74-2.4c-.76,4-1.5,8-2.24,12l-7.29-3.83c.74-4,1.47-7.91,2.23-12l-14.95-7.55c.62-3.33,1.22-6.56,1.83-9.87l.61.29c.91.43,1.83.89,2.76,1.27,1.61.65,2.61-.13,3.09-2.38.22-1,.44-2,.63-3q3.4-18.31,6.8-36.66c.3-1.66.58-3.33.86-5,.37-2.27-.23-3.83-1.81-4.61-.93-.46-1.89-.82-2.83-1.23l-.55-.26c.62-3.33,1.22-6.57,1.84-9.92l15.28,5.88c.76-4.06,1.49-8,2.23-12l7.51,2.74q-1.11,6-2.24,12.08l4.85,1.86c.76-4.1,1.51-8.12,2.26-12.15l7.8,2.85c0,.32-.1.64-.16,1-.67,3.6-1.32,7.21-2,10.8-.16.81-.11,1.27.55,1.55a9.06,9.06,0,0,1,1.47.9,20.73,20.73,0,0,1,6.85,7.45A22.54,22.54,0,0,1,975.38,494a17.69,17.69,0,0,1-3.78,9,12.48,12.48,0,0,1-9.3,4.64l-.74.08a2,2,0,0,0,.54.72,26.3,26.3,0,0,1,5.35,6,23.22,23.22,0,0,1,3.57,13c-.2,9-3.56,14.79-9.48,17.55-3.51,1.63-7.21,1.3-10.9.17-.57-.18-.75,0-.88.73C949,549.94,948.26,553.94,947.51,557.94Zm-7.71-53.26c0,.24-.09.39-.12.54q-1.44,7.74-2.87,15.49c-.2,1.12-.35,2.26-.48,3.4a1.91,1.91,0,0,0,.79,2c1.76,1,3.54,2,5.36,2.8a36.51,36.51,0,0,0,4.8,1.85,5.67,5.67,0,0,0,5-.65c2-1.34,3.29-3.59,4-6.62a12.73,12.73,0,0,0-2.66-11.27,15.65,15.65,0,0,0-5-3.59c-2.76-1.36-5.53-2.57-8.27-3.82A4.73,4.73,0,0,0,939.8,504.68Zm2-10.87c.18.11.32.2.46.27,1.83.79,3.66,1.6,5.5,2.37a19.66,19.66,0,0,0,6.46,1.84,5.46,5.46,0,0,0,4.73-2c3-3.59,3.24-11.3-1.39-14.58a21.18,21.18,0,0,0-3.46-2c-2.85-1.27-5.7-2.4-8.52-3.56a3.9,3.9,0,0,0-.47-.13C944.05,481.94,943,487.83,941.84,493.81Z"/>
        <path class="cls-7" d="M1012.07,503.3c0-48-28.73-86.83-64.16-86.83s-64.17,38.87-64.17,86.83,28.73,86.83,64.17,86.83S1012.07,551.26,1012.07,503.3Z"/>
        <path class="cls-7" d="M956.57,417.25a48,48,0,0,1,8.67-.79c35.43,0,64.16,38.88,64.16,86.84s-28.73,86.83-64.16,86.83a48,48,0,0,1-8.67-.79"/>
        <path class="cls-6" d="M1005.74,503.3c0,42.33-24.56,76.86-55.34,78.63-.83.06-1.66.08-2.5.08-31.94,0-57.83-35.24-57.83-78.71S916,424.58,947.9,424.58c.84,0,1.67,0,2.5.08C981.18,426.43,1005.74,461,1005.74,503.3Z"/>
        <path class="cls-7" d="M1005.74,503.3c0,42.33-24.56,76.86-55.34,78.63-30.78-1.77-55.33-36.3-55.33-78.63s24.55-76.87,55.33-78.64C981.18,426.43,1005.74,461,1005.74,503.3Z"/>
        <line class="cls-6" x1="986.4" y1="432.13" x2="1001.74" y2="432.13"/>
        <line class="cls-6" x1="993.74" y1="440.47" x2="1009.07" y2="440.47"/>
        <line class="cls-6" x1="999.74" y1="449.47" x2="1015.07" y2="449.47"/>
        <line class="cls-6" x1="1006.24" y1="541.3" x2="1021.57" y2="541.3"/>
        <line class="cls-6" x1="1002.4" y1="550.97" x2="1017.74" y2="550.97"/>
        <line class="cls-6" x1="998.4" y1="558.8" x2="1013.74" y2="558.8"/>
        <line class="cls-6" x1="993.24" y1="566.3" x2="1008.57" y2="566.3"/>
        <line class="cls-6" x1="987.9" y1="572.63" x2="1003.24" y2="572.63"/>
        <line class="cls-6" x1="1005.07" y1="460.47" x2="1020.41" y2="460.47"/>
        <line class="cls-6" x1="1009.07" y1="474.13" x2="1024.4" y2="474.13"/>
        <line class="cls-6" x1="1012.4" y1="487.8" x2="1027.74" y2="487.8"/>
        <line class="cls-6" x1="1012.9" y1="501.47" x2="1028.24" y2="501.47"/>
        <line class="cls-6" x1="1013.4" y1="515.13" x2="1028.74" y2="515.13"/>
        <line class="cls-6" x1="1010.57" y1="528.8" x2="1025.9" y2="528.8"/>
      </g>
      <line class="cls-7" x1="1180.57" y1="814.63" x2="1283.57" y2="814.63"/>
      <line class="cls-7" x1="568.68" y1="814.63" x2="802.67" y2="814.63"/>
      <g>
        <circle class="Graphic-Style" cx="238.07" cy="334.3" r="17.17"/>
        <path class="cls-3" d="M238.07,345.75a3.18,3.18,0,0,1-2.18-.86L224.35,334a3.18,3.18,0,1,1,4.36-4.62l9.31,8.78,24.38-24a3.18,3.18,0,0,1,4.46,4.53l-26.57,26.14A3.13,3.13,0,0,1,238.07,345.75Z"/>
      </g>
      <g>
        <circle class="Graphic-Style" cx="429.57" cy="404.8" r="17.17"/>
        <path class="cls-3" d="M429.57,416.25a3.18,3.18,0,0,1-2.18-.86l-11.54-10.88a3.18,3.18,0,1,1,4.36-4.62l9.31,8.78,24.38-24a3.18,3.18,0,0,1,4.46,4.53l-26.57,26.14A3.13,3.13,0,0,1,429.57,416.25Z"/>
      </g>
      <g>
        <circle class="Graphic-Style" cx="365.57" cy="406.3" r="17.17"/>
        <path class="cls-3" d="M365.57,417.75a3.18,3.18,0,0,1-2.18-.86L351.85,406a3.18,3.18,0,1,1,4.36-4.62l9.31,8.78,24.38-24a3.18,3.18,0,0,1,4.46,4.53l-26.57,26.14A3.13,3.13,0,0,1,365.57,417.75Z"/>
      </g>
      <g>
        <circle class="Graphic-Style" cx="302.07" cy="406.3" r="17.17"/>
        <path class="cls-3" d="M302.07,417.75a3.18,3.18,0,0,1-2.18-.86L288.35,406a3.18,3.18,0,1,1,4.36-4.62l9.31,8.78,24.38-24a3.18,3.18,0,0,1,4.46,4.53l-26.57,26.14A3.13,3.13,0,0,1,302.07,417.75Z"/>
      </g>
      <g>
        <circle class="Graphic-Style" cx="238.07" cy="405.8" r="17.17"/>
        <path class="cls-3" d="M238.07,417.25a3.18,3.18,0,0,1-2.18-.86l-11.54-10.88a3.18,3.18,0,1,1,4.36-4.62l9.31,8.78,24.38-24a3.18,3.18,0,0,1,4.46,4.53l-26.57,26.14A3.13,3.13,0,0,1,238.07,417.25Z"/>
      </g>
      <g>
        <circle class="Graphic-Style" cx="557.05" cy="334.3" r="17.17"/>
        <path class="cls-3" d="M557.05,345.75a3.18,3.18,0,0,1-2.18-.86L543.33,334a3.18,3.18,0,1,1,4.36-4.62l9.31,8.78,24.38-24a3.18,3.18,0,0,1,4.46,4.53l-26.57,26.14A3.13,3.13,0,0,1,557.05,345.75Z"/>
      </g>
      <g>
        <circle class="Graphic-Style" cx="493.05" cy="334.3" r="17.17"/>
        <path class="cls-3" d="M493.05,345.75a3.18,3.18,0,0,1-2.18-.86L479.33,334a3.18,3.18,0,1,1,4.36-4.62l9.31,8.78,24.38-24a3.18,3.18,0,0,1,4.46,4.53l-26.57,26.14A3.13,3.13,0,0,1,493.05,345.75Z"/>
      </g>
      <g>
        <circle class="Graphic-Style" cx="431.5" cy="334.3" r="17.17"/>
        <path class="cls-3" d="M431.49,345.75a3.18,3.18,0,0,1-2.17-.86L417.78,334a3.18,3.18,0,1,1,4.36-4.62l9.31,8.78,24.38-24a3.18,3.18,0,0,1,4.45,4.53l-26.56,26.14A3.16,3.16,0,0,1,431.49,345.75Z"/>
      </g>
      <g>
        <circle class="Graphic-Style" cx="366.07" cy="334.3" r="17.17"/>
        <path class="cls-3" d="M366.07,345.75a3.18,3.18,0,0,1-2.18-.86L352.35,334a3.18,3.18,0,1,1,4.36-4.62l9.31,8.78,24.38-24a3.18,3.18,0,0,1,4.46,4.53l-26.57,26.14A3.13,3.13,0,0,1,366.07,345.75Z"/>
      </g>
      <g>
        <circle class="Graphic-Style" cx="301.07" cy="334.3" r="17.17"/>
        <path class="cls-3" d="M301.07,345.75a3.18,3.18,0,0,1-2.18-.86L287.35,334a3.18,3.18,0,1,1,4.36-4.62l9.31,8.78,24.38-24a3.18,3.18,0,0,1,4.46,4.53l-26.57,26.14A3.13,3.13,0,0,1,301.07,345.75Z"/>
      </g>
      <path class="Graphic-Style" d="M510.07,402.9a17.18,17.18,0,1,0-5,16.49"/>
      <path class="Graphic-Style" d="M574.16,406.85A17.17,17.17,0,1,0,557,424,17.16,17.16,0,0,0,574.16,406.85Z"/>
      <path class="Graphic-Style" d="M255.24,480a17.17,17.17,0,1,0-17.17,17.17A17.16,17.16,0,0,0,255.24,480Z"/>
      <path class="Graphic-Style" d="M318.92,480a17.17,17.17,0,1,0-17.17,17.17A17.16,17.16,0,0,0,318.92,480Z"/>
      <path class="Graphic-Style" d="M382.57,480a17.17,17.17,0,1,0-17.17,17.17A17.16,17.16,0,0,0,382.57,480Z"/>
      <path class="Graphic-Style" d="M448.42,480a17.17,17.17,0,1,0-17.17,17.17A17.16,17.16,0,0,0,448.42,480Z"/>
      <path class="Graphic-Style" d="M510.53,480a17.17,17.17,0,1,0-17.17,17.17A17.16,17.16,0,0,0,510.53,480Z"/>
      <path class="Graphic-Style" d="M551.05,463.85A17.13,17.13,0,1,0,573.91,477"/>
      <g>
        <path class="cls-3" d="M306.74,277.34v6H286v-4.71l10-9.31a9.5,9.5,0,0,0,1.94-2.34,4.33,4.33,0,0,0,.49-1.95,2.49,2.49,0,0,0-.87-2,4,4,0,0,0-2.55-.72,5.7,5.7,0,0,0-2.72.66,5.56,5.56,0,0,0-2,1.92l-5.59-3.11a11,11,0,0,1,4.37-4.07,14.06,14.06,0,0,1,6.65-1.48,13.69,13.69,0,0,1,5.38,1,8.36,8.36,0,0,1,3.65,2.83,7.2,7.2,0,0,1,1.31,4.27,9.25,9.25,0,0,1-.93,4.09,15.67,15.67,0,0,1-3.59,4.35l-5,4.64Z"/>
        <path class="cls-3" d="M320.35,256.7v26.6h-7.53V262.52h-4.94V256.7Z"/>
        <path class="cls-3" d="M360.78,283.3l-.08-14.1-6.84,11.48h-3.34l-6.81-11.1V283.3h-6.95V256.7H343l9.34,15.35,9.12-15.35h6.2l.07,26.6Z"/>
        <path class="cls-3" d="M373,256.7h7.53v26.6H373Z"/>
        <path class="cls-3" d="M385.89,256.7h7.53v20.64h12.69v6H385.89Z"/>
        <path class="cls-3" d="M409.07,256.7h7.53v20.64h12.69v6H409.07Z"/>
        <path class="cls-3" d="M432.25,256.7h7.53v26.6h-7.53Z"/>
        <path class="cls-3" d="M451,282.05A13.6,13.6,0,0,1,451,258a16.94,16.94,0,0,1,15.16,0,13.6,13.6,0,0,1,0,24.09,17,17,0,0,1-15.16,0Zm11.23-5.4a6.73,6.73,0,0,0,2.58-2.68,8.77,8.77,0,0,0,0-7.94,6.86,6.86,0,0,0-2.58-2.68,7.49,7.49,0,0,0-7.3,0,6.86,6.86,0,0,0-2.58,2.68,8.77,8.77,0,0,0,0,7.94,6.73,6.73,0,0,0,2.58,2.68,7.49,7.49,0,0,0,7.3,0Z"/>
        <path class="cls-3" d="M502.59,256.7v26.6H496.4l-11.75-14.17V283.3h-7.37V256.7h6.2l11.74,14.18V256.7Z"/>
      </g>
      <g>
        <path class="cls-1" d="M266.29,168h-4v5.09H255V168H240.94v-4.9l11.94-16.61h7.79l-10.83,15.55h5.39v-4.53h7.11v4.53h4Z"/>
        <path class="cls-1" d="M275.75,166.1a4.12,4.12,0,0,1,1.22,3.08,7,7,0,0,1-.23,1.75,17,17,0,0,1-1,2.62l-2.39,5.55H268.8l1.78-6.19a3.69,3.69,0,0,1-1.65-1.47,4.28,4.28,0,0,1-.59-2.26,4.12,4.12,0,0,1,1.22-3.08,4.3,4.3,0,0,1,3.11-1.17A4.25,4.25,0,0,1,275.75,166.1Z"/>
        <path class="cls-1" d="M298.42,159.89a7.25,7.25,0,0,1,1.77,4.92,8,8,0,0,1-1.28,4.37,9,9,0,0,1-3.87,3.25,15.06,15.06,0,0,1-6.44,1.24A22.84,22.84,0,0,1,283,173a16.15,16.15,0,0,1-4.77-1.94l2.74-5.66a12.18,12.18,0,0,0,3.51,1.64,13.72,13.72,0,0,0,3.86.57,5.64,5.64,0,0,0,3.08-.73,2.29,2.29,0,0,0,1.14-2.05q0-2.58-4.07-2.58h-3.15v-4.75l4.75-5.13H279.63v-5.82h19.23v4.72l-5.51,5.92A8.92,8.92,0,0,1,298.42,159.89Z"/>
        <path class="cls-1" d="M314,146.53v26.6h-7.53V152.35h-4.94v-5.82Z"/>
        <path class="cls-1" d="M336.72,159.89a7.25,7.25,0,0,1,1.77,4.92,8,8,0,0,1-1.27,4.37,9,9,0,0,1-3.88,3.25,15,15,0,0,1-6.44,1.24,22.84,22.84,0,0,1-5.57-.69,16.38,16.38,0,0,1-4.77-1.94l2.74-5.66a12.3,12.3,0,0,0,3.51,1.64,13.78,13.78,0,0,0,3.86.57,5.64,5.64,0,0,0,3.08-.73,2.29,2.29,0,0,0,1.14-2.05q0-2.58-4.07-2.58h-3.15v-4.75l4.75-5.13H317.93v-5.82h19.23v4.72l-5.51,5.92A8.92,8.92,0,0,1,336.72,159.89Z"/>
        <path class="cls-1" d="M348.1,166.1a4.12,4.12,0,0,1,1.22,3.08,7,7,0,0,1-.23,1.75,17.77,17.77,0,0,1-1,2.62l-2.4,5.55h-4.52l1.79-6.19a3.71,3.71,0,0,1-1.66-1.47,4.28,4.28,0,0,1-.59-2.26,4.12,4.12,0,0,1,1.22-3.08,4.31,4.31,0,0,1,3.12-1.17A4.24,4.24,0,0,1,348.1,166.1Z"/>
        <path class="cls-1" d="M376.94,168H373v5.09h-7.33V168H351.6v-4.9l11.93-16.61h7.79l-10.83,15.55h5.4v-4.53H373v4.53h3.95Z"/>
        <path class="cls-1" d="M388.91,146.53v26.6h-7.52V152.35h-4.94v-5.82Z"/>
        <path class="cls-1" d="M411.13,158.5a7.6,7.6,0,0,1,2.67,6.08,8.54,8.54,0,0,1-1.27,4.55,8.82,8.82,0,0,1-3.87,3.3,15.08,15.08,0,0,1-6.45,1.24,22.76,22.76,0,0,1-5.56-.69,15.57,15.57,0,0,1-4.73-1.94l2.69-5.66a13,13,0,0,0,3.52,1.64,13.47,13.47,0,0,0,3.86.57,5.61,5.61,0,0,0,3.09-.75,2.31,2.31,0,0,0,1.16-2.07,2.21,2.21,0,0,0-1.14-2,8.38,8.38,0,0,0-4-.68h-7.22l1.33-15.55h16.95v5.82H401.42l-.35,3.87h1.79Q408.44,156.22,411.13,158.5Z"/>
        <path class="cls-1" d="M439.45,146.53H447v20.64h12.69v6H439.45Z"/>
        <path class="cls-1" d="M484,167.32v5.81H462.63v-26.6h20.86v5.82H470.08v4.48H481.9v5.63H470.08v4.86Z"/>
        <path class="cls-1" d="M495.69,152.35v5.85h11.74V164H495.69v9.12h-7.52v-26.6H509v5.82Z"/>
        <path class="cls-1" d="M518.42,152.5h-8.17v-6h23.82v6h-8.13v20.63h-7.52Z"/>
      </g>
      <g>
        <g>
          <path class="cls-3" d="M592.46,315.69a7.33,7.33,0,0,0,7.33,7.32,7.11,7.11,0,0,0,2.57-.47l15,44.38,7.12-3.06L603.52,322a7.33,7.33,0,1,0-11.06-6.3Z"/>
          <path class="cls-9" d="M624.46,363.86,603.52,322a7.33,7.33,0,1,0-3.73,1,7.11,7.11,0,0,0,2.57-.47l15,44.38"/>
          <line class="cls-9" x1="617.34" y1="366.92" x2="624.46" y2="363.86"/>
        </g>
        <g>
          <path class="cls-3" d="M777,315.68a7.32,7.32,0,0,1-9.9,6.86l-19,56.4-6.94-7.32L766,322A7.33,7.33,0,1,1,777,315.68Z"/>
          <path class="cls-9" d="M777,315.68a7.32,7.32,0,0,1-9.9,6.86l-19,56.4-6.94-7.32L766,322A7.33,7.33,0,1,1,777,315.68Z"/>
        </g>
        <polyline class="cls-7" points="617.11 512.4 617.34 536.32 613.24 651.77 631.36 740.64 675.02 730.88 671.88 663.44 682.67 619.57"/>
        <path class="cls-7" d="M674.67,580.9l19.23,83.32,51.28,69.54,39.75-23.71-35.58-50.94L738.46,536.32h21.6V405.17a39.34,39.34,0,0,0-39.35-39.34H631.23c-33.73,0-30,20-56.07,74.3l-36.33-12.36-9.76,24.46,55.5,29.34,32.54-40.94V512.4"/>
        <rect class="cls-5" x="618.11" y="512.4" width="119.58" height="22.37"/>
        <line class="cls-10" x1="737.69" y1="534.78" x2="737.69" y2="432.94"/>
        <path class="cls-6" d="M759.28,536.32v25.06a19.66,19.66,0,0,1-17.15,19.51l-3.68-44.57Z"/>
        <g>
          <path class="cls-2" d="M720.69,415.2H692.14a5.39,5.39,0,0,0-5.39,5.4v48.61a5.39,5.39,0,0,0,5.39,5.39h28.55a5.39,5.39,0,0,0,5.39-5.4V420.6A5.39,5.39,0,0,0,720.69,415.2Zm-5.4,37H697.54V426.77h17.75Z"/>
          <rect class="cls-6" x="686.74" y="415.2" width="39.34" height="59.4" rx="5.4" ry="5.4"/>
          <rect class="cls-6" x="697.54" y="426.77" width="17.74" height="25.46"/>
        </g>
        <rect class="cls-5" x="634.31" y="498.52" width="14.66" height="57.86" rx="4.63" ry="4.63"/>
        <rect class="cls-5" x="702.2" y="498.52" width="14.66" height="57.86" rx="4.63" ry="4.63"/>
        <path class="cls-5" d="M754.27,487a4.62,4.62,0,0,0,4.63,4.62h.77a11.18,11.18,0,0,0,11.19-11.18V466.5a11.19,11.19,0,0,0-11.19-11.18h-.77a4.63,4.63,0,0,0-4.63,4.63Z"/>
        <path class="cls-5" d="M653.78,659.35a14,14,0,0,1-14.67,13.42l-24.62-1.09a10.65,10.65,0,0,1-10.17-11.11l1.37-30.75a10.65,10.65,0,0,1,11.11-10.16l13.13.58a25.55,25.55,0,0,1,24.4,26.68Z"/>
        <path class="cls-5" d="M738.53,662.94a14.06,14.06,0,0,1-9.85,17.27l-23.78,6.5a10.64,10.64,0,0,1-13.08-7.46l-8.12-29.68a10.66,10.66,0,0,1,7.47-13.08L703.84,633a25.56,25.56,0,0,1,31.41,17.92Z"/>
        <path class="cls-11" d="M675.11,728.42l-47,12.44a22,22,0,0,0-15.62,26.89l.69,2.61,68.23-18.08Z"/>
        <path class="cls-11" d="M780.67,703.23l-37.83,30.52a22,22,0,0,0-3.3,30.92l1.69,2.1,54.94-44.33Z"/>
        <g>
          <path class="cls-7" d="M734.79,302.86A48.89,48.89,0,0,0,685.9,254H666.23a48.89,48.89,0,0,0-48.89,48.89V368c17.94,34.14,103,30.67,117.45,0Z"/>
          <g>
            <g>
              <rect class="cls-1" x="643.96" y="287.14" width="69.43" height="92.19" rx="25.46" ry="25.46"/>
              <rect class="cls-7" x="643.96" y="287.14" width="69.43" height="92.19" rx="25.46" ry="25.46"/>
            </g>
            <g>
              <path class="cls-2" d="M719.17,294.47v18.12a25.29,25.29,0,0,1-5.79,16.2v-9.26c0-20.51-14.78-27.12-23.49-19a16.06,16.06,0,0,1-21.77.11C658.68,292,644,300.24,644,319.53v6.58a25.28,25.28,0,0,1-3.87-13.52V294.47c0-14.07,11.36-27.77,25.34-27.77h28.4C707.83,266.7,719.17,280.4,719.17,294.47Z"/>
              <path class="cls-7" d="M719.17,294.47v18.12a25.29,25.29,0,0,1-5.79,16.2v-9.26c0-20.51-14.78-27.12-23.49-19a16.06,16.06,0,0,1-21.77.11C658.68,292,644,300.24,644,319.53v6.58a25.28,25.28,0,0,1-3.87-13.52V294.47c0-14.07,11.36-27.77,25.34-27.77h28.4C707.83,266.7,719.17,280.4,719.17,294.47Z"/>
            </g>
            <g>
              <g>
                <path class="cls-10" d="M667,334.32a8.29,8.29,0,1,0-16.58,0"/>
                <path class="cls-10" d="M693.93,334.32a8.29,8.29,0,1,0-16.58,0"/>
                <path class="cls-10" d="M658.86,359.62s19.48,7.72,31.44-6"/>
              </g>
              <g>
                <g>
                  <path class="cls-12" d="M667,334.32a8.29,8.29,0,1,0-16.58,0"/>
                  <path class="cls-12" d="M667,334.32a8.29,8.29,0,1,0-16.58,0"/>
                </g>
                <g>
                  <path class="cls-12" d="M693.93,334.32a8.29,8.29,0,1,0-16.58,0"/>
                  <path class="cls-12" d="M693.93,334.32a8.29,8.29,0,1,0-16.58,0"/>
                </g>
                <g>
                  <path class="cls-12" d="M658.86,359.62s19.48,7.72,31.44-6"/>
                  <path class="cls-12" d="M658.86,359.62s19.48,7.72,31.44-6"/>
                </g>
              </g>
            </g>
          </g>
        </g>
      </g>
      <path class="cls-6" d="M528.07,451.13l-11.46-5.38A16.78,16.78,0,0,1,507,432l-2.24-26.49a3.14,3.14,0,0,1,5.26-2.57l28.25,26.26"/>
      <g>
        <polyline class="cls-6" points="505.45 413.66 495.09 414.58 494.11 403.72 504.83 402.77"/>
        <polyline class="cls-6" points="504.83 402.77 533.32 400.13 534.3 411 520.19 412.36"/>
        <polyline class="cls-6" points="493.36 403.77 487.32 410.07 495.09 414.58"/>
      </g>
      <path class="cls-13" d="M766.05,575.6c-3.42-14.43,1-19.9,7.63-21.47s13,1.36,16.44,15.78S786,606.37,786,606.37,769.46,590,766.05,575.6Z"/>
    </g>
  </g>
</svg>
