<svg id="work" xmlns="http://www.w3.org/2000/svg" viewBox="0 0 1422 870">
  <defs>
    <style>
      .cls-1, .cls-7 {
        fill: #fff;
      }

      .cls-2, .cls-8 {
        fill: #ff0083;
      }

      .cls-3, .cls-5 {
        fill: none;
      }

      .cls-3, .cls-5, .cls-6, .cls-7, .cls-8, .cls-9 {
        stroke: #4a4a4a;
        stroke-linecap: round;
        stroke-linejoin: round;
      }

      .cls-3, .cls-6 {
        stroke-width: 2.5px;
      }

      .cls-4, .cls-6 {
        fill: #ebebeb;
      }

      .cls-5 {
        stroke-width: 4px;
      }

      .cls-7, .cls-8, .cls-9 {
        stroke-width: 3px;
      }

      .cls-10, .cls-9 {
        fill: #4a4a4a;
      }
    </style>
  </defs>
  <title>7,2</title>
  <g>
    <path class="cls-1" d="M478.73,543.7A55.77,55.77,0,1,0,423,599.47,55.77,55.77,0,0,0,478.73,543.7Z"/>
    <path class="cls-1" d="M534.75,841.76v-6.92a17.91,17.91,0,0,1,17.92-17.91h7.58l15.5-310.67h-14v-178s9.5-76.5,59-95c-5.5-116,9.66-139.35,32.83-158.93s89.17-.07,125.17,20.93c16.5,8,52.5,40.5-5,172C762,272.31,749,278.52,749,278.52c25.3,32.23,26.27,77.74,34.77,98.74,15.14,16.32,32,33,32,33,15.79,4.3,45.71,9.32,37.67,36.67,29.33.59,44.36,12,36.59,22.66s-21,12.84-60.4-1.5c-9.36-2.33-21.53-13-21.53-13l-29.33-12.54-12.47,0,4.8,63.7-16-.5,8,311.17h12.25a17.91,17.91,0,0,1,17.92,17.91v7.42h-101l-1.35-26-24.65-206.5-28.5,206.5v26Z"/>
    <g>
      <path class="cls-1" d="M1145.42,436a55.77,55.77,0,1,0-55.77,55.77A55.77,55.77,0,0,0,1145.42,436Z"/>
      <path class="cls-2" d="M1106.73,457.08q-4.44,4.32-12.79,5.36v8.28h-7.4v-8.06a40.61,40.61,0,0,1-10.43-1.92,26.29,26.29,0,0,1-8-4l4.06-9a27,27,0,0,0,6.59,3.48,29.63,29.63,0,0,0,7.76,1.77V440.62a54.28,54.28,0,0,1-8.87-2.81,15.65,15.65,0,0,1-6.07-4.54,12.19,12.19,0,0,1-2.44-7.95,14.22,14.22,0,0,1,4.48-10.54q4.47-4.41,12.9-5.36v-8.21h7.4v8.06q9.09.74,15,4.51l-3.7,9.1a29.38,29.38,0,0,0-11.31-3.85V431.6a53.39,53.39,0,0,1,8.76,2.7,15.47,15.47,0,0,1,6,4.51,12.12,12.12,0,0,1,2.44,7.88A14,14,0,0,1,1106.73,457.08Zm-24.26-29.32a11.6,11.6,0,0,0,4.07,2v-10.5a8.09,8.09,0,0,0-4.14,2.11,4.78,4.78,0,0,0-1.33,3.36A3.81,3.81,0,0,0,1082.47,427.76Zm15.46,23a4.34,4.34,0,0,0,1.33-3.18,3.84,3.84,0,0,0-1.37-3,12.15,12.15,0,0,0-4-2.07v10.21A8.1,8.1,0,0,0,1097.93,450.76Z"/>
      <path class="cls-3" d="M1145.42,436.68a55.77,55.77,0,1,0-55.77,55.77A55.77,55.77,0,0,0,1145.42,436.68Z"/>
    </g>
    <g>
      <path class="cls-1" d="M1264.07,184.65a55.77,55.77,0,1,0-55.77,55.77A55.77,55.77,0,0,0,1264.07,184.65Z"/>
      <path class="cls-2" d="M1225.38,205.05q-4.44,4.32-12.79,5.36v8.28h-7.4v-8.06a40.45,40.45,0,0,1-10.42-1.92,26.46,26.46,0,0,1-8-4l4.07-9a26.75,26.75,0,0,0,6.58,3.48,29.63,29.63,0,0,0,7.76,1.77V188.59a54.28,54.28,0,0,1-8.87-2.81,15.48,15.48,0,0,1-6.06-4.55,12.15,12.15,0,0,1-2.45-7.94,14.26,14.26,0,0,1,4.48-10.54q4.47-4.41,12.9-5.36v-8.21h7.4v8.06q9.09.73,15,4.51l-3.7,9.09a29.47,29.47,0,0,0-11.31-3.84v12.57a53.39,53.39,0,0,1,8.76,2.7,15.38,15.38,0,0,1,6,4.51,12.07,12.07,0,0,1,2.44,7.88A14,14,0,0,1,1225.38,205.05Zm-24.25-29.32a11.62,11.62,0,0,0,4.06,2v-10.5a8,8,0,0,0-4.14,2.11,4.83,4.83,0,0,0-1.33,3.36A3.79,3.79,0,0,0,1201.13,175.73Zm15.45,23a4.31,4.31,0,0,0,1.33-3.18,3.81,3.81,0,0,0-1.37-3,12,12,0,0,0-4-2.07v10.21A8,8,0,0,0,1216.58,198.72Z"/>
      <path class="cls-3" d="M1264.07,183.93a55.77,55.77,0,1,0-55.77,55.77A55.77,55.77,0,0,0,1264.07,183.93Z"/>
    </g>
    <g>
      <circle class="cls-1" cx="805.42" cy="93.07" r="55.77"/>
      <path class="cls-2" d="M822.63,113.47q-4.44,4.34-12.8,5.36v8.29h-7.39v-8.06A40.12,40.12,0,0,1,792,117.13a26.12,26.12,0,0,1-8-4l4.07-9a26.58,26.58,0,0,0,6.58,3.47,30.22,30.22,0,0,0,7.77,1.78V97a56.78,56.78,0,0,1-8.88-2.81,15.72,15.72,0,0,1-6.06-4.55,12.19,12.19,0,0,1-2.44-8,14.28,14.28,0,0,1,4.47-10.54q4.49-4.4,12.91-5.36V57.6h7.39v8.06q9.1.75,15,4.51l-3.69,9.1a29.54,29.54,0,0,0-11.32-3.85V88a52.87,52.87,0,0,1,8.77,2.7,15.28,15.28,0,0,1,6,4.51,12,12,0,0,1,2.44,7.87A14,14,0,0,1,822.63,113.47ZM798.37,84.15a11.51,11.51,0,0,0,4.07,2V75.65a8,8,0,0,0-4.15,2.1A4.85,4.85,0,0,0,797,81.12,3.78,3.78,0,0,0,798.37,84.15Zm15.46,23a4.38,4.38,0,0,0,1.33-3.18,3.84,3.84,0,0,0-1.37-3,11.92,11.92,0,0,0-4-2.07v10.2A7.93,7.93,0,0,0,813.83,107.15Z"/>
      <path class="cls-3" d="M861.31,92.36a55.77,55.77,0,1,0-55.77,55.77A55.77,55.77,0,0,0,861.31,92.36Z"/>
    </g>
    <g>
      <path class="cls-1" d="M506.19,250.5a55.77,55.77,0,1,0-55.77,55.77A55.77,55.77,0,0,0,506.19,250.5Z"/>
      <path class="cls-2" d="M467.5,270.9q-4.44,4.32-12.79,5.36v8.28h-7.4v-8.06a39.77,39.77,0,0,1-10.43-1.92,26.06,26.06,0,0,1-8-4l4.06-9a26.67,26.67,0,0,0,6.59,3.48,29.63,29.63,0,0,0,7.76,1.77V254.44a54.28,54.28,0,0,1-8.87-2.81,15.65,15.65,0,0,1-6.07-4.54,12.25,12.25,0,0,1-2.44-8,14.22,14.22,0,0,1,4.48-10.54q4.47-4.4,12.9-5.36V215h7.4v8.06q9.09.74,15,4.51l-3.7,9.1a29.38,29.38,0,0,0-11.31-3.85v12.57a53.39,53.39,0,0,1,8.76,2.7,15.47,15.47,0,0,1,6,4.51,12.09,12.09,0,0,1,2.44,7.88A14,14,0,0,1,467.5,270.9Zm-24.26-29.32a11.6,11.6,0,0,0,4.07,2v-10.5a8.09,8.09,0,0,0-4.14,2.11,4.78,4.78,0,0,0-1.33,3.36A3.81,3.81,0,0,0,443.24,241.58Zm15.46,23A4.34,4.34,0,0,0,460,261.4a3.81,3.81,0,0,0-1.37-3,12.34,12.34,0,0,0-4-2.07V266.5A8,8,0,0,0,458.7,264.58Z"/>
      <path class="cls-3" d="M506.19,249.78a55.77,55.77,0,1,0-55.77,55.78A55.77,55.77,0,0,0,506.19,249.78Z"/>
    </g>
    <g>
      <path class="cls-1" d="M255.65,165.27A55.77,55.77,0,1,0,199.88,221,55.77,55.77,0,0,0,255.65,165.27Z"/>
      <path class="cls-2" d="M217,185.67Q212.52,190,204.17,191v8.29h-7.4v-8.07a39.77,39.77,0,0,1-10.43-1.92,26.06,26.06,0,0,1-8-4l4.06-9a26.65,26.65,0,0,0,6.59,3.47,30.06,30.06,0,0,0,7.76,1.78V169.22a56.29,56.29,0,0,1-8.87-2.81,15.68,15.68,0,0,1-6.07-4.55,12.25,12.25,0,0,1-2.44-8,14.24,14.24,0,0,1,4.48-10.54q4.47-4.4,12.9-5.36V129.8h7.4v8.06q9.09.73,15,4.51l-3.7,9.1a29.55,29.55,0,0,0-11.31-3.85v12.57a53.39,53.39,0,0,1,8.76,2.7,15.47,15.47,0,0,1,6,4.51,12.14,12.14,0,0,1,2.44,7.88A14,14,0,0,1,217,185.67ZM192.7,156.35a11.77,11.77,0,0,0,4.07,2V147.84a8.09,8.09,0,0,0-4.14,2.11,4.81,4.81,0,0,0-1.33,3.37A3.8,3.8,0,0,0,192.7,156.35Zm15.46,23a4.34,4.34,0,0,0,1.33-3.18,3.84,3.84,0,0,0-1.37-3,12,12,0,0,0-4-2.07v10.2A7.94,7.94,0,0,0,208.16,179.35Z"/>
      <path class="cls-3" d="M255.65,164.56a55.77,55.77,0,1,0-55.77,55.77A55.77,55.77,0,0,0,255.65,164.56Z"/>
    </g>
    <g>
      <path class="cls-1" d="M367.19,402.27A55.77,55.77,0,1,0,311.42,458,55.77,55.77,0,0,0,367.19,402.27Z"/>
      <path class="cls-2" d="M328.5,422.67Q324.06,427,315.71,428v8.29h-7.4v-8.07a39.77,39.77,0,0,1-10.43-1.92,26.06,26.06,0,0,1-8-4l4.06-9a26.65,26.65,0,0,0,6.59,3.47,30.06,30.06,0,0,0,7.76,1.78V406.22a56.29,56.29,0,0,1-8.87-2.81,15.68,15.68,0,0,1-6.07-4.55,12.25,12.25,0,0,1-2.44-7.95,14.24,14.24,0,0,1,4.48-10.54q4.47-4.39,12.9-5.36V366.8h7.4v8.06q9.09.74,15,4.51l-3.7,9.1a29.55,29.55,0,0,0-11.31-3.85v12.57a53.39,53.39,0,0,1,8.76,2.7,15.47,15.47,0,0,1,6,4.51,12.09,12.09,0,0,1,2.44,7.88A14,14,0,0,1,328.5,422.67Zm-24.26-29.32a11.77,11.77,0,0,0,4.07,2V384.84a8.09,8.09,0,0,0-4.14,2.11,4.81,4.81,0,0,0-1.33,3.37A3.8,3.8,0,0,0,304.24,393.35Zm15.46,23a4.34,4.34,0,0,0,1.33-3.18,3.81,3.81,0,0,0-1.37-3,12,12,0,0,0-4-2.07v10.2A7.94,7.94,0,0,0,319.7,416.35Z"/>
      <path class="cls-3" d="M367.19,401.56a55.77,55.77,0,1,0-55.77,55.77A55.77,55.77,0,0,0,367.19,401.56Z"/>
    </g>
    <g>
      <path class="cls-2" d="M440,567q-4.44,4.34-12.79,5.36v8.29h-7.4v-8.06a40,40,0,0,1-10.42-1.93,26,26,0,0,1-8-4l4.07-9a26.4,26.4,0,0,0,6.58,3.47,30.06,30.06,0,0,0,7.76,1.78V550.5a56.29,56.29,0,0,1-8.87-2.81,15.68,15.68,0,0,1-6.07-4.55,12.25,12.25,0,0,1-2.44-7.95A14.26,14.26,0,0,1,407,524.65q4.47-4.39,12.9-5.36v-8.21h7.4v8.06q9.09.75,15,4.51l-3.7,9.1a29.49,29.49,0,0,0-11.31-3.85v12.58a52.5,52.5,0,0,1,8.76,2.69,15.5,15.5,0,0,1,6,4.52,12,12,0,0,1,2.44,7.87A14,14,0,0,1,440,567Zm-24.25-29.32a11.62,11.62,0,0,0,4.06,2v-10.5a8,8,0,0,0-4.14,2.1,4.81,4.81,0,0,0-1.33,3.37A3.78,3.78,0,0,0,415.79,537.63Zm15.45,23a4.34,4.34,0,0,0,1.33-3.18,3.83,3.83,0,0,0-1.36-3,12.12,12.12,0,0,0-4-2.07v10.2A7.94,7.94,0,0,0,431.24,560.63Z"/>
      <path class="cls-3" d="M478.73,545.13A55.77,55.77,0,1,0,423,600.9,55.77,55.77,0,0,0,478.73,545.13Z"/>
    </g>
    <g>
      <polygon class="cls-4" points="575.75 506.26 755.08 506.26 763.08 816.93 690.98 816.93 667.75 601.59 637.75 816.26 561.75 816.26 575.75 506.26"/>
      <path class="cls-4" d="M695.08,250.67l4,43.08,4,3.84,70.67-30.33s67.67-130.67,5-172c-12.91-.85-24.79-.73-34.61,1.32,6.82,2.73,12.8,5.15,18,7.29a40.36,40.36,0,0,1,23.62,48.26l-2.41,8.58,1.82.44a4.08,4.08,0,0,1,2.81,5.46L771.93,206.9a1.87,1.87,0,0,1-2.53,1l-2-.92-10.2,25.44a39,39,0,0,1-47.86,22.7Z"/>
      <path class="cls-3" d="M778.75,95.26c-81-9.66-133.67,62.33-126.33,155.67l50.66,46.66,45.67-19.33"/>
      <line class="cls-3" x1="673.23" y1="270.1" x2="673.23" y2="322.93"/>
      <line class="cls-3" x1="729.11" y1="286.57" x2="729.11" y2="334.93"/>
      <path class="cls-5" d="M651.74,337.59l50,50.67,95.67,16.67c11.66,13.33,10.33,28.66-4.34,37.33,0,.67-102,0-102,0l-85.33-56"/>
      <line class="cls-3" x1="755.08" y1="364.26" x2="758.68" y2="397.87"/>
      <path class="cls-5" d="M767,458.93l4.1,47.33h-16l8,310.67h9.84a19.5,19.5,0,0,1,19.5,19.5v5.83H691.08V814.93L667.75,601.26l-30,214v27h-103v-6.5a19.5,19.5,0,0,1,19.5-19.5h7.5l14-310h-14V335.59c0-32.58,20-88.66,59-102.33,0,0-13-113,25-153,24-25,93-8,133,15,14,8,55,41-5,172l-25,11c15,16,28,60,35,99,13,15,32,33,32,33"/>
      <line class="cls-5" x1="561.75" y1="816.26" x2="637.75" y2="816.26"/>
      <line class="cls-5" x1="690.98" y1="816.26" x2="766.98" y2="816.26"/>
      <line class="cls-5" x1="575.75" y1="506.26" x2="755.08" y2="506.26"/>
      <path class="cls-3" d="M800.71,409.27c28.71,4,61.37,6.66,52.71,37.66-9,1.33-14.67,0-14.67,0s-17.08-9.83-38-10.25"/>
      <polyline class="cls-5" points="808.08 457.93 827.77 469.59 842.08 457.93"/>
      <path class="cls-3" d="M830.75,469.59s21,8.67,43.33,8.67,16-20.33,16-20.33"/>
      <polygon class="cls-6" points="745.42 457.93 905.42 457.93 959.75 328.26 945.75 328.26 895.75 447.52 755.08 447.52 745.42 457.93"/>
      <line class="cls-3" x1="695.08" y1="250.26" x2="698.91" y2="293.75"/>
      <path class="cls-7" d="M784.74,156.8l-1.35,3.91-16,46.28-7.12,20.62a43.1,43.1,0,0,1-54.83,26.67l-34.63-12a42.91,42.91,0,0,1-19-13.11c.48-22,4.43-42.45,11.39-60.41,6.4-16.54,15.35-31,26.48-42.64a100.49,100.49,0,0,1,52.82-29.58L758.07,102A43.12,43.12,0,0,1,784.74,156.8Z"/>
      <path class="cls-8" d="M786.4,169.08l-12.27,33.3a6.72,6.72,0,0,1-6.74,4.61,5.19,5.19,0,0,1-1.38-.31L663.18,168.8c6.4-16.54,15.35-31,26.48-42.64L783,160.55l.38.16C786.31,162,787.65,165.68,786.4,169.08Z"/>
      <path class="cls-7" d="M725.36,146.75l27.49,27.49s-14.37,15.68-28.74,6.86-8.17-24.5-5.88-27.44A57.92,57.92,0,0,1,725.36,146.75Z"/>
      <path class="cls-7" d="M784.22,167l-26.15,9.62s1.72,15.84,12.73,12.82,13.64-16.71,13.53-19.58Z"/>
      <path class="cls-9" d="M744.14,176.06a5.12,5.12,0,1,1-5.12-5.12A5.12,5.12,0,0,1,744.14,176.06Z"/>
      <path class="cls-9" d="M774.28,183.29a4.52,4.52,0,1,1-4.51-4.51A4.51,4.51,0,0,1,774.28,183.29Z"/>
      <path class="cls-7" d="M703.09,209.52c6.82-1.82,9.58,5.44,13.5,8.49s12.85,10.45,18.51,11.1,3.92,4.58,1.53,5.45-16.12,4.13-24.39-3.7-10.89-9.37-13.5-10.89S696.56,211.26,703.09,209.52Z"/>
      <g>
        <path class="cls-10" d="M761.8,219.31a1.18,1.18,0,1,1-1.18-1.18A1.18,1.18,0,0,1,761.8,219.31Z"/>
        <path class="cls-10" d="M761.8,219.31a1.18,1.18,0,1,1-1.18-1.18A1.18,1.18,0,0,1,761.8,219.31Z"/>
        <path class="cls-10" d="M756.58,211.48a1.19,1.19,0,1,1-1.19-1.19A1.18,1.18,0,0,1,756.58,211.48Z"/>
        <path class="cls-10" d="M761.8,219.31a1.18,1.18,0,1,1-1.18-1.18A1.18,1.18,0,0,1,761.8,219.31Z"/>
        <path class="cls-10" d="M756.58,219.31a1.19,1.19,0,1,1-1.19-1.18A1.19,1.19,0,0,1,756.58,219.31Z"/>
        <path class="cls-10" d="M759.19,215.39a1.19,1.19,0,1,1-1.18-1.18A1.18,1.18,0,0,1,759.19,215.39Z"/>
        <path class="cls-10" d="M756.58,211.48a1.19,1.19,0,1,1-1.19-1.19A1.18,1.18,0,0,1,756.58,211.48Z"/>
        <path class="cls-10" d="M756.58,227.15a1.19,1.19,0,1,1-1.19-1.18A1.19,1.19,0,0,1,756.58,227.15Z"/>
        <path class="cls-10" d="M759.19,223.23a1.19,1.19,0,1,1-1.18-1.18A1.18,1.18,0,0,1,759.19,223.23Z"/>
        <path class="cls-10" d="M761.8,219.31a1.18,1.18,0,1,1-1.18-1.18A1.18,1.18,0,0,1,761.8,219.31Z"/>
        <path class="cls-10" d="M756.58,219.31a1.19,1.19,0,1,1-1.19-1.18A1.19,1.19,0,0,1,756.58,219.31Z"/>
        <path class="cls-10" d="M756.58,227.15a1.19,1.19,0,1,1-1.19-1.18A1.19,1.19,0,0,1,756.58,227.15Z"/>
        <path class="cls-10" d="M756.58,211.48a1.19,1.19,0,1,1-1.19-1.19A1.18,1.18,0,0,1,756.58,211.48Z"/>
        <path class="cls-10" d="M751.35,211.48a1.19,1.19,0,1,1-1.18-1.19A1.18,1.18,0,0,1,751.35,211.48Z"/>
        <path class="cls-10" d="M756.58,219.31a1.19,1.19,0,1,1-1.19-1.18A1.19,1.19,0,0,1,756.58,219.31Z"/>
        <path class="cls-10" d="M751.35,219.31a1.19,1.19,0,1,1-1.18-1.18A1.18,1.18,0,0,1,751.35,219.31Z"/>
        <path class="cls-10" d="M754,215.39a1.19,1.19,0,1,1-1.18-1.18A1.18,1.18,0,0,1,754,215.39Z"/>
        <path class="cls-10" d="M756.58,211.48a1.19,1.19,0,1,1-1.19-1.19A1.18,1.18,0,0,1,756.58,211.48Z"/>
        <path class="cls-10" d="M751.35,211.48a1.19,1.19,0,1,1-1.18-1.19A1.18,1.18,0,0,1,751.35,211.48Z"/>
        <path class="cls-10" d="M756.58,227.15a1.19,1.19,0,1,1-1.19-1.18A1.19,1.19,0,0,1,756.58,227.15Z"/>
        <path class="cls-10" d="M751.35,227.15a1.19,1.19,0,1,1-1.18-1.18A1.18,1.18,0,0,1,751.35,227.15Z"/>
        <path class="cls-10" d="M754,223.23a1.19,1.19,0,1,1-1.18-1.18A1.18,1.18,0,0,1,754,223.23Z"/>
        <path class="cls-10" d="M756.58,219.31a1.19,1.19,0,1,1-1.19-1.18A1.19,1.19,0,0,1,756.58,219.31Z"/>
        <path class="cls-10" d="M751.35,219.31a1.19,1.19,0,1,1-1.18-1.18A1.18,1.18,0,0,1,751.35,219.31Z"/>
        <circle class="cls-10" cx="750.17" cy="234.99" r="1.18"/>
        <path class="cls-10" d="M754,231.07a1.19,1.19,0,1,1-1.18-1.18A1.18,1.18,0,0,1,754,231.07Z"/>
        <path class="cls-10" d="M756.58,227.15a1.19,1.19,0,1,1-1.19-1.18A1.19,1.19,0,0,1,756.58,227.15Z"/>
        <path class="cls-10" d="M751.35,227.15a1.19,1.19,0,1,1-1.18-1.18A1.18,1.18,0,0,1,751.35,227.15Z"/>
        <circle class="cls-10" cx="750.17" cy="234.99" r="1.18"/>
        <path class="cls-10" d="M751.35,211.48a1.19,1.19,0,1,1-1.18-1.19A1.18,1.18,0,0,1,751.35,211.48Z"/>
        <path class="cls-10" d="M746.12,211.48a1.18,1.18,0,1,1-1.18-1.19A1.18,1.18,0,0,1,746.12,211.48Z"/>
        <path class="cls-10" d="M751.35,219.31a1.19,1.19,0,1,1-1.18-1.18A1.18,1.18,0,0,1,751.35,219.31Z"/>
        <path class="cls-10" d="M746.12,219.31a1.18,1.18,0,1,1-1.18-1.18A1.18,1.18,0,0,1,746.12,219.31Z"/>
        <path class="cls-10" d="M748.74,215.39a1.19,1.19,0,1,1-1.19-1.18A1.19,1.19,0,0,1,748.74,215.39Z"/>
        <path class="cls-10" d="M751.35,211.48a1.19,1.19,0,1,1-1.18-1.19A1.18,1.18,0,0,1,751.35,211.48Z"/>
        <path class="cls-10" d="M746.12,211.48a1.18,1.18,0,1,1-1.18-1.19A1.18,1.18,0,0,1,746.12,211.48Z"/>
        <path class="cls-10" d="M751.35,227.15a1.19,1.19,0,1,1-1.18-1.18A1.18,1.18,0,0,1,751.35,227.15Z"/>
        <path class="cls-10" d="M746.12,227.15a1.18,1.18,0,1,1-1.18-1.18A1.18,1.18,0,0,1,746.12,227.15Z"/>
        <path class="cls-10" d="M748.74,223.23a1.19,1.19,0,1,1-1.19-1.18A1.19,1.19,0,0,1,748.74,223.23Z"/>
        <path class="cls-10" d="M751.35,219.31a1.19,1.19,0,1,1-1.18-1.18A1.18,1.18,0,0,1,751.35,219.31Z"/>
        <path class="cls-10" d="M746.12,219.31a1.18,1.18,0,1,1-1.18-1.18A1.18,1.18,0,0,1,746.12,219.31Z"/>
        <circle class="cls-10" cx="750.17" cy="234.99" r="1.18"/>
        <path class="cls-10" d="M746.12,235a1.18,1.18,0,1,1-1.18-1.18A1.18,1.18,0,0,1,746.12,235Z"/>
        <path class="cls-10" d="M748.74,231.07a1.19,1.19,0,1,1-1.19-1.18A1.19,1.19,0,0,1,748.74,231.07Z"/>
        <path class="cls-10" d="M751.35,227.15a1.19,1.19,0,1,1-1.18-1.18A1.18,1.18,0,0,1,751.35,227.15Z"/>
        <path class="cls-10" d="M746.12,227.15a1.18,1.18,0,1,1-1.18-1.18A1.18,1.18,0,0,1,746.12,227.15Z"/>
        <path class="cls-10" d="M746.12,242.83a1.18,1.18,0,1,1-1.18-1.18A1.18,1.18,0,0,1,746.12,242.83Z"/>
        <path class="cls-10" d="M748.74,238.91a1.19,1.19,0,1,1-1.19-1.18A1.18,1.18,0,0,1,748.74,238.91Z"/>
        <circle class="cls-10" cx="750.17" cy="234.99" r="1.18"/>
        <path class="cls-10" d="M746.12,235a1.18,1.18,0,1,1-1.18-1.18A1.18,1.18,0,0,1,746.12,235Z"/>
        <path class="cls-10" d="M746.12,242.83a1.18,1.18,0,1,1-1.18-1.18A1.18,1.18,0,0,1,746.12,242.83Z"/>
        <path class="cls-10" d="M746.12,211.48a1.18,1.18,0,1,1-1.18-1.19A1.18,1.18,0,0,1,746.12,211.48Z"/>
        <path class="cls-10" d="M740.9,211.48a1.19,1.19,0,1,1-1.19-1.19A1.18,1.18,0,0,1,740.9,211.48Z"/>
        <path class="cls-10" d="M746.12,219.31a1.18,1.18,0,1,1-1.18-1.18A1.18,1.18,0,0,1,746.12,219.31Z"/>
        <path class="cls-10" d="M740.9,219.31a1.19,1.19,0,1,1-1.19-1.18A1.19,1.19,0,0,1,740.9,219.31Z"/>
        <path class="cls-10" d="M743.51,215.39a1.19,1.19,0,1,1-1.18-1.18A1.18,1.18,0,0,1,743.51,215.39Z"/>
        <path class="cls-10" d="M746.12,211.48a1.18,1.18,0,1,1-1.18-1.19A1.18,1.18,0,0,1,746.12,211.48Z"/>
        <path class="cls-10" d="M740.9,211.48a1.19,1.19,0,1,1-1.19-1.19A1.18,1.18,0,0,1,740.9,211.48Z"/>
        <path class="cls-10" d="M746.12,227.15a1.18,1.18,0,1,1-1.18-1.18A1.18,1.18,0,0,1,746.12,227.15Z"/>
        <path class="cls-10" d="M740.9,227.15a1.19,1.19,0,1,1-1.19-1.18A1.19,1.19,0,0,1,740.9,227.15Z"/>
        <path class="cls-10" d="M743.51,223.23a1.19,1.19,0,1,1-1.18-1.18A1.18,1.18,0,0,1,743.51,223.23Z"/>
        <path class="cls-10" d="M746.12,219.31a1.18,1.18,0,1,1-1.18-1.18A1.18,1.18,0,0,1,746.12,219.31Z"/>
        <path class="cls-10" d="M740.9,219.31a1.19,1.19,0,1,1-1.19-1.18A1.19,1.19,0,0,1,740.9,219.31Z"/>
        <path class="cls-10" d="M746.12,235a1.18,1.18,0,1,1-1.18-1.18A1.18,1.18,0,0,1,746.12,235Z"/>
        <circle class="cls-10" cx="739.71" cy="234.99" r="1.18"/>
        <path class="cls-10" d="M743.51,231.07a1.19,1.19,0,1,1-1.18-1.18A1.18,1.18,0,0,1,743.51,231.07Z"/>
        <path class="cls-10" d="M746.12,227.15a1.18,1.18,0,1,1-1.18-1.18A1.18,1.18,0,0,1,746.12,227.15Z"/>
        <path class="cls-10" d="M740.9,227.15a1.19,1.19,0,1,1-1.19-1.18A1.19,1.19,0,0,1,740.9,227.15Z"/>
        <path class="cls-10" d="M746.12,242.83a1.18,1.18,0,1,1-1.18-1.18A1.18,1.18,0,0,1,746.12,242.83Z"/>
        <path class="cls-10" d="M740.9,242.83a1.19,1.19,0,1,1-1.19-1.18A1.19,1.19,0,0,1,740.9,242.83Z"/>
        <path class="cls-10" d="M743.51,238.91a1.19,1.19,0,1,1-1.18-1.18A1.18,1.18,0,0,1,743.51,238.91Z"/>
        <path class="cls-10" d="M746.12,235a1.18,1.18,0,1,1-1.18-1.18A1.18,1.18,0,0,1,746.12,235Z"/>
        <circle class="cls-10" cx="739.71" cy="234.99" r="1.18"/>
        <path class="cls-10" d="M743.51,246.75a1.19,1.19,0,1,1-1.18-1.18A1.18,1.18,0,0,1,743.51,246.75Z"/>
        <path class="cls-10" d="M746.12,242.83a1.18,1.18,0,1,1-1.18-1.18A1.18,1.18,0,0,1,746.12,242.83Z"/>
        <path class="cls-10" d="M740.9,242.83a1.19,1.19,0,1,1-1.19-1.18A1.19,1.19,0,0,1,740.9,242.83Z"/>
        <path class="cls-10" d="M740.9,211.48a1.19,1.19,0,1,1-1.19-1.19A1.18,1.18,0,0,1,740.9,211.48Z"/>
        <path class="cls-10" d="M735.67,211.48a1.19,1.19,0,1,1-1.18-1.19A1.18,1.18,0,0,1,735.67,211.48Z"/>
        <path class="cls-10" d="M740.9,219.31a1.19,1.19,0,1,1-1.19-1.18A1.19,1.19,0,0,1,740.9,219.31Z"/>
        <path class="cls-10" d="M735.67,219.31a1.19,1.19,0,1,1-1.18-1.18A1.18,1.18,0,0,1,735.67,219.31Z"/>
        <path class="cls-10" d="M738.29,215.39a1.19,1.19,0,1,1-1.19-1.18A1.19,1.19,0,0,1,738.29,215.39Z"/>
        <path class="cls-10" d="M740.9,211.48a1.19,1.19,0,1,1-1.19-1.19A1.18,1.18,0,0,1,740.9,211.48Z"/>
        <path class="cls-10" d="M735.67,211.48a1.19,1.19,0,1,1-1.18-1.19A1.18,1.18,0,0,1,735.67,211.48Z"/>
        <path class="cls-10" d="M740.9,227.15a1.19,1.19,0,1,1-1.19-1.18A1.19,1.19,0,0,1,740.9,227.15Z"/>
        <path class="cls-10" d="M735.67,227.15a1.19,1.19,0,1,1-1.18-1.18A1.18,1.18,0,0,1,735.67,227.15Z"/>
        <path class="cls-10" d="M738.29,223.23a1.19,1.19,0,1,1-1.19-1.18A1.19,1.19,0,0,1,738.29,223.23Z"/>
        <path class="cls-10" d="M740.9,219.31a1.19,1.19,0,1,1-1.19-1.18A1.19,1.19,0,0,1,740.9,219.31Z"/>
        <path class="cls-10" d="M735.67,219.31a1.19,1.19,0,1,1-1.18-1.18A1.18,1.18,0,0,1,735.67,219.31Z"/>
        <circle class="cls-10" cx="739.71" cy="234.99" r="1.18"/>
        <path class="cls-10" d="M735.67,235a1.19,1.19,0,1,1-1.18-1.18A1.18,1.18,0,0,1,735.67,235Z"/>
        <path class="cls-10" d="M740.9,227.15a1.19,1.19,0,1,1-1.19-1.18A1.19,1.19,0,0,1,740.9,227.15Z"/>
        <path class="cls-10" d="M735.67,227.15a1.19,1.19,0,1,1-1.18-1.18A1.18,1.18,0,0,1,735.67,227.15Z"/>
        <path class="cls-10" d="M740.9,242.83a1.19,1.19,0,1,1-1.19-1.18A1.19,1.19,0,0,1,740.9,242.83Z"/>
        <path class="cls-10" d="M735.67,242.83a1.19,1.19,0,1,1-1.18-1.18A1.18,1.18,0,0,1,735.67,242.83Z"/>
        <path class="cls-10" d="M738.29,238.91a1.19,1.19,0,1,1-1.19-1.18A1.18,1.18,0,0,1,738.29,238.91Z"/>
        <circle class="cls-10" cx="739.71" cy="234.99" r="1.18"/>
        <path class="cls-10" d="M735.67,235a1.19,1.19,0,1,1-1.18-1.18A1.18,1.18,0,0,1,735.67,235Z"/>
        <path class="cls-10" d="M735.67,250.67a1.19,1.19,0,1,1-1.18-1.18A1.18,1.18,0,0,1,735.67,250.67Z"/>
        <path class="cls-10" d="M738.29,246.75a1.19,1.19,0,1,1-1.19-1.18A1.18,1.18,0,0,1,738.29,246.75Z"/>
        <path class="cls-10" d="M740.9,242.83a1.19,1.19,0,1,1-1.19-1.18A1.19,1.19,0,0,1,740.9,242.83Z"/>
        <path class="cls-10" d="M735.67,242.83a1.19,1.19,0,1,1-1.18-1.18A1.18,1.18,0,0,1,735.67,242.83Z"/>
        <path class="cls-10" d="M735.67,250.67a1.19,1.19,0,1,1-1.18-1.18A1.18,1.18,0,0,1,735.67,250.67Z"/>
        <circle class="cls-10" cx="729.26" cy="203.64" r="1.18"/>
        <path class="cls-10" d="M735.67,211.48a1.19,1.19,0,1,1-1.18-1.19A1.18,1.18,0,0,1,735.67,211.48Z"/>
        <path class="cls-10" d="M730.45,211.48a1.19,1.19,0,1,1-1.19-1.19A1.18,1.18,0,0,1,730.45,211.48Z"/>
        <path class="cls-10" d="M733.06,207.56a1.19,1.19,0,1,1-1.18-1.19A1.18,1.18,0,0,1,733.06,207.56Z"/>
        <circle class="cls-10" cx="729.26" cy="203.64" r="1.18"/>
        <path class="cls-10" d="M735.67,219.31a1.19,1.19,0,1,1-1.18-1.18A1.18,1.18,0,0,1,735.67,219.31Z"/>
        <path class="cls-10" d="M730.45,219.31a1.19,1.19,0,1,1-1.19-1.18A1.19,1.19,0,0,1,730.45,219.31Z"/>
        <path class="cls-10" d="M733.06,215.39a1.19,1.19,0,1,1-1.18-1.18A1.18,1.18,0,0,1,733.06,215.39Z"/>
        <path class="cls-10" d="M735.67,211.48a1.19,1.19,0,1,1-1.18-1.19A1.18,1.18,0,0,1,735.67,211.48Z"/>
        <path class="cls-10" d="M730.45,211.48a1.19,1.19,0,1,1-1.19-1.19A1.18,1.18,0,0,1,730.45,211.48Z"/>
        <path class="cls-10" d="M735.67,227.15a1.19,1.19,0,1,1-1.18-1.18A1.18,1.18,0,0,1,735.67,227.15Z"/>
        <path class="cls-10" d="M730.45,227.15a1.19,1.19,0,1,1-1.19-1.18A1.19,1.19,0,0,1,730.45,227.15Z"/>
        <path class="cls-10" d="M733.06,223.23a1.19,1.19,0,1,1-1.18-1.18A1.18,1.18,0,0,1,733.06,223.23Z"/>
        <path class="cls-10" d="M735.67,219.31a1.19,1.19,0,1,1-1.18-1.18A1.18,1.18,0,0,1,735.67,219.31Z"/>
        <path class="cls-10" d="M730.45,219.31a1.19,1.19,0,1,1-1.19-1.18A1.19,1.19,0,0,1,730.45,219.31Z"/>
        <path class="cls-10" d="M735.67,235a1.19,1.19,0,1,1-1.18-1.18A1.18,1.18,0,0,1,735.67,235Z"/>
        <circle class="cls-10" cx="729.26" cy="234.99" r="1.18"/>
        <path class="cls-10" d="M735.67,227.15a1.19,1.19,0,1,1-1.18-1.18A1.18,1.18,0,0,1,735.67,227.15Z"/>
        <path class="cls-10" d="M730.45,227.15a1.19,1.19,0,1,1-1.19-1.18A1.19,1.19,0,0,1,730.45,227.15Z"/>
        <path class="cls-10" d="M735.67,242.83a1.19,1.19,0,1,1-1.18-1.18A1.18,1.18,0,0,1,735.67,242.83Z"/>
        <path class="cls-10" d="M730.45,242.83a1.19,1.19,0,1,1-1.19-1.18A1.19,1.19,0,0,1,730.45,242.83Z"/>
        <path class="cls-10" d="M733.06,238.91a1.19,1.19,0,1,1-1.18-1.18A1.18,1.18,0,0,1,733.06,238.91Z"/>
        <path class="cls-10" d="M735.67,235a1.19,1.19,0,1,1-1.18-1.18A1.18,1.18,0,0,1,735.67,235Z"/>
        <circle class="cls-10" cx="729.26" cy="234.99" r="1.18"/>
        <path class="cls-10" d="M735.67,250.67a1.19,1.19,0,1,1-1.18-1.18A1.18,1.18,0,0,1,735.67,250.67Z"/>
        <path class="cls-10" d="M730.45,250.67a1.19,1.19,0,1,1-1.19-1.18A1.18,1.18,0,0,1,730.45,250.67Z"/>
        <path class="cls-10" d="M733.06,246.75a1.19,1.19,0,1,1-1.18-1.18A1.18,1.18,0,0,1,733.06,246.75Z"/>
        <path class="cls-10" d="M735.67,242.83a1.19,1.19,0,1,1-1.18-1.18A1.18,1.18,0,0,1,735.67,242.83Z"/>
        <path class="cls-10" d="M730.45,242.83a1.19,1.19,0,1,1-1.19-1.18A1.19,1.19,0,0,1,730.45,242.83Z"/>
        <path class="cls-10" d="M735.67,250.67a1.19,1.19,0,1,1-1.18-1.18A1.18,1.18,0,0,1,735.67,250.67Z"/>
        <path class="cls-10" d="M730.45,250.67a1.19,1.19,0,1,1-1.19-1.18A1.18,1.18,0,0,1,730.45,250.67Z"/>
        <circle class="cls-10" cx="729.26" cy="203.64" r="1.18"/>
        <path class="cls-10" d="M725.22,203.64a1.19,1.19,0,1,1-1.18-1.19A1.18,1.18,0,0,1,725.22,203.64Z"/>
        <path class="cls-10" d="M730.45,211.48a1.19,1.19,0,1,1-1.19-1.19A1.18,1.18,0,0,1,730.45,211.48Z"/>
        <path class="cls-10" d="M725.22,211.48a1.19,1.19,0,1,1-1.18-1.19A1.18,1.18,0,0,1,725.22,211.48Z"/>
        <path class="cls-10" d="M727.83,207.56a1.18,1.18,0,1,1-1.18-1.19A1.18,1.18,0,0,1,727.83,207.56Z"/>
        <circle class="cls-10" cx="729.26" cy="203.64" r="1.18"/>
        <path class="cls-10" d="M725.22,203.64a1.19,1.19,0,1,1-1.18-1.19A1.18,1.18,0,0,1,725.22,203.64Z"/>
        <path class="cls-10" d="M730.45,219.31a1.19,1.19,0,1,1-1.19-1.18A1.19,1.19,0,0,1,730.45,219.31Z"/>
        <path class="cls-10" d="M725.22,219.31a1.19,1.19,0,1,1-1.18-1.18A1.18,1.18,0,0,1,725.22,219.31Z"/>
        <path class="cls-10" d="M727.83,215.39a1.18,1.18,0,1,1-1.18-1.18A1.18,1.18,0,0,1,727.83,215.39Z"/>
        <path class="cls-10" d="M730.45,211.48a1.19,1.19,0,1,1-1.19-1.19A1.18,1.18,0,0,1,730.45,211.48Z"/>
        <path class="cls-10" d="M725.22,211.48a1.19,1.19,0,1,1-1.18-1.19A1.18,1.18,0,0,1,725.22,211.48Z"/>
        <path class="cls-10" d="M730.45,227.15a1.19,1.19,0,1,1-1.19-1.18A1.19,1.19,0,0,1,730.45,227.15Z"/>
        <path class="cls-10" d="M727.83,223.23a1.18,1.18,0,1,1-1.18-1.18A1.18,1.18,0,0,1,727.83,223.23Z"/>
        <path class="cls-10" d="M730.45,219.31a1.19,1.19,0,1,1-1.19-1.18A1.19,1.19,0,0,1,730.45,219.31Z"/>
        <path class="cls-10" d="M725.22,219.31a1.19,1.19,0,1,1-1.18-1.18A1.18,1.18,0,0,1,725.22,219.31Z"/>
        <circle class="cls-10" cx="729.26" cy="234.99" r="1.18"/>
        <path class="cls-10" d="M725.22,235a1.19,1.19,0,1,1-1.18-1.18A1.18,1.18,0,0,1,725.22,235Z"/>
        <path class="cls-10" d="M730.45,227.15a1.19,1.19,0,1,1-1.19-1.18A1.19,1.19,0,0,1,730.45,227.15Z"/>
        <path class="cls-10" d="M730.45,242.83a1.19,1.19,0,1,1-1.19-1.18A1.19,1.19,0,0,1,730.45,242.83Z"/>
        <path class="cls-10" d="M725.22,242.83a1.19,1.19,0,1,1-1.18-1.18A1.18,1.18,0,0,1,725.22,242.83Z"/>
        <path class="cls-10" d="M727.83,238.91a1.18,1.18,0,1,1-1.18-1.18A1.18,1.18,0,0,1,727.83,238.91Z"/>
        <circle class="cls-10" cx="729.26" cy="234.99" r="1.18"/>
        <path class="cls-10" d="M725.22,235a1.19,1.19,0,1,1-1.18-1.18A1.18,1.18,0,0,1,725.22,235Z"/>
        <path class="cls-10" d="M730.45,250.67a1.19,1.19,0,1,1-1.19-1.18A1.18,1.18,0,0,1,730.45,250.67Z"/>
        <path class="cls-10" d="M725.22,250.67a1.19,1.19,0,1,1-1.18-1.18A1.18,1.18,0,0,1,725.22,250.67Z"/>
        <path class="cls-10" d="M727.83,246.75a1.18,1.18,0,1,1-1.18-1.18A1.18,1.18,0,0,1,727.83,246.75Z"/>
        <path class="cls-10" d="M730.45,242.83a1.19,1.19,0,1,1-1.19-1.18A1.19,1.19,0,0,1,730.45,242.83Z"/>
        <path class="cls-10" d="M725.22,242.83a1.19,1.19,0,1,1-1.18-1.18A1.18,1.18,0,0,1,725.22,242.83Z"/>
        <path class="cls-10" d="M730.45,250.67a1.19,1.19,0,1,1-1.19-1.18A1.18,1.18,0,0,1,730.45,250.67Z"/>
        <path class="cls-10" d="M725.22,250.67a1.19,1.19,0,1,1-1.18-1.18A1.18,1.18,0,0,1,725.22,250.67Z"/>
        <path class="cls-10" d="M725.22,203.64a1.19,1.19,0,1,1-1.18-1.19A1.18,1.18,0,0,1,725.22,203.64Z"/>
        <circle class="cls-10" cx="718.81" cy="203.64" r="1.18"/>
        <path class="cls-10" d="M722.61,199.72a1.19,1.19,0,1,1-1.19-1.19A1.18,1.18,0,0,1,722.61,199.72Z"/>
        <path class="cls-10" d="M725.22,211.48a1.19,1.19,0,1,1-1.18-1.19A1.18,1.18,0,0,1,725.22,211.48Z"/>
        <path class="cls-10" d="M720,211.48a1.18,1.18,0,1,1-1.18-1.19A1.18,1.18,0,0,1,720,211.48Z"/>
        <path class="cls-10" d="M722.61,207.56a1.19,1.19,0,1,1-1.19-1.19A1.18,1.18,0,0,1,722.61,207.56Z"/>
        <path class="cls-10" d="M725.22,203.64a1.19,1.19,0,1,1-1.18-1.19A1.18,1.18,0,0,1,725.22,203.64Z"/>
        <circle class="cls-10" cx="718.81" cy="203.64" r="1.18"/>
        <path class="cls-10" d="M725.22,219.31a1.19,1.19,0,1,1-1.18-1.18A1.18,1.18,0,0,1,725.22,219.31Z"/>
        <path class="cls-10" d="M720,219.31a1.18,1.18,0,1,1-1.18-1.18A1.18,1.18,0,0,1,720,219.31Z"/>
        <path class="cls-10" d="M722.61,215.39a1.19,1.19,0,1,1-1.19-1.18A1.19,1.19,0,0,1,722.61,215.39Z"/>
        <path class="cls-10" d="M725.22,211.48a1.19,1.19,0,1,1-1.18-1.19A1.18,1.18,0,0,1,725.22,211.48Z"/>
        <path class="cls-10" d="M720,211.48a1.18,1.18,0,1,1-1.18-1.19A1.18,1.18,0,0,1,720,211.48Z"/>
        <path class="cls-10" d="M725.22,219.31a1.19,1.19,0,1,1-1.18-1.18A1.18,1.18,0,0,1,725.22,219.31Z"/>
        <path class="cls-10" d="M720,219.31a1.18,1.18,0,1,1-1.18-1.18A1.18,1.18,0,0,1,720,219.31Z"/>
        <path class="cls-10" d="M725.22,235a1.19,1.19,0,1,1-1.18-1.18A1.18,1.18,0,0,1,725.22,235Z"/>
        <circle class="cls-10" cx="718.81" cy="234.99" r="1.18"/>
        <path class="cls-10" d="M725.22,242.83a1.19,1.19,0,1,1-1.18-1.18A1.18,1.18,0,0,1,725.22,242.83Z"/>
        <path class="cls-10" d="M720,242.83a1.18,1.18,0,1,1-1.18-1.18A1.18,1.18,0,0,1,720,242.83Z"/>
        <path class="cls-10" d="M722.61,238.91a1.19,1.19,0,1,1-1.19-1.18A1.18,1.18,0,0,1,722.61,238.91Z"/>
        <path class="cls-10" d="M725.22,235a1.19,1.19,0,1,1-1.18-1.18A1.18,1.18,0,0,1,725.22,235Z"/>
        <circle class="cls-10" cx="718.81" cy="234.99" r="1.18"/>
        <path class="cls-10" d="M725.22,250.67a1.19,1.19,0,1,1-1.18-1.18A1.18,1.18,0,0,1,725.22,250.67Z"/>
        <path class="cls-10" d="M720,250.67a1.18,1.18,0,1,1-1.18-1.18A1.18,1.18,0,0,1,720,250.67Z"/>
        <path class="cls-10" d="M722.61,246.75a1.19,1.19,0,1,1-1.19-1.18A1.18,1.18,0,0,1,722.61,246.75Z"/>
        <path class="cls-10" d="M725.22,242.83a1.19,1.19,0,1,1-1.18-1.18A1.18,1.18,0,0,1,725.22,242.83Z"/>
        <path class="cls-10" d="M720,242.83a1.18,1.18,0,1,1-1.18-1.18A1.18,1.18,0,0,1,720,242.83Z"/>
        <path class="cls-10" d="M725.22,250.67a1.19,1.19,0,1,1-1.18-1.18A1.18,1.18,0,0,1,725.22,250.67Z"/>
        <path class="cls-10" d="M720,250.67a1.18,1.18,0,1,1-1.18-1.18A1.18,1.18,0,0,1,720,250.67Z"/>
        <path class="cls-10" d="M714.77,195.8a1.19,1.19,0,1,1-1.18-1.19A1.18,1.18,0,0,1,714.77,195.8Z"/>
        <circle class="cls-10" cx="718.81" cy="203.64" r="1.18"/>
        <path class="cls-10" d="M714.77,203.64a1.19,1.19,0,1,1-1.18-1.19A1.18,1.18,0,0,1,714.77,203.64Z"/>
        <path class="cls-10" d="M717.38,199.72a1.19,1.19,0,1,1-1.18-1.19A1.18,1.18,0,0,1,717.38,199.72Z"/>
        <path class="cls-10" d="M714.77,195.8a1.19,1.19,0,1,1-1.18-1.19A1.18,1.18,0,0,1,714.77,195.8Z"/>
        <path class="cls-10" d="M720,211.48a1.18,1.18,0,1,1-1.18-1.19A1.18,1.18,0,0,1,720,211.48Z"/>
        <path class="cls-10" d="M714.77,211.48a1.19,1.19,0,1,1-1.18-1.19A1.18,1.18,0,0,1,714.77,211.48Z"/>
        <path class="cls-10" d="M717.38,207.56a1.19,1.19,0,1,1-1.18-1.19A1.18,1.18,0,0,1,717.38,207.56Z"/>
        <circle class="cls-10" cx="718.81" cy="203.64" r="1.18"/>
        <path class="cls-10" d="M714.77,203.64a1.19,1.19,0,1,1-1.18-1.19A1.18,1.18,0,0,1,714.77,203.64Z"/>
        <path class="cls-10" d="M720,219.31a1.18,1.18,0,1,1-1.18-1.18A1.18,1.18,0,0,1,720,219.31Z"/>
        <path class="cls-10" d="M717.38,215.39a1.19,1.19,0,1,1-1.18-1.18A1.18,1.18,0,0,1,717.38,215.39Z"/>
        <path class="cls-10" d="M720,211.48a1.18,1.18,0,1,1-1.18-1.19A1.18,1.18,0,0,1,720,211.48Z"/>
        <path class="cls-10" d="M714.77,211.48a1.19,1.19,0,1,1-1.18-1.19A1.18,1.18,0,0,1,714.77,211.48Z"/>
        <path class="cls-10" d="M720,219.31a1.18,1.18,0,1,1-1.18-1.18A1.18,1.18,0,0,1,720,219.31Z"/>
        <circle class="cls-10" cx="718.81" cy="234.99" r="1.18"/>
        <path class="cls-10" d="M714.77,235a1.19,1.19,0,1,1-1.18-1.18A1.18,1.18,0,0,1,714.77,235Z"/>
        <path class="cls-10" d="M720,242.83a1.18,1.18,0,1,1-1.18-1.18A1.18,1.18,0,0,1,720,242.83Z"/>
        <path class="cls-10" d="M714.77,242.83a1.19,1.19,0,1,1-1.18-1.18A1.18,1.18,0,0,1,714.77,242.83Z"/>
        <path class="cls-10" d="M717.38,238.91a1.19,1.19,0,1,1-1.18-1.18A1.18,1.18,0,0,1,717.38,238.91Z"/>
        <circle class="cls-10" cx="718.81" cy="234.99" r="1.18"/>
        <path class="cls-10" d="M714.77,235a1.19,1.19,0,1,1-1.18-1.18A1.18,1.18,0,0,1,714.77,235Z"/>
        <path class="cls-10" d="M720,250.67a1.18,1.18,0,1,1-1.18-1.18A1.18,1.18,0,0,1,720,250.67Z"/>
        <path class="cls-10" d="M714.77,250.67a1.19,1.19,0,1,1-1.18-1.18A1.18,1.18,0,0,1,714.77,250.67Z"/>
        <path class="cls-10" d="M717.38,246.75a1.19,1.19,0,1,1-1.18-1.18A1.18,1.18,0,0,1,717.38,246.75Z"/>
        <path class="cls-10" d="M720,242.83a1.18,1.18,0,1,1-1.18-1.18A1.18,1.18,0,0,1,720,242.83Z"/>
        <path class="cls-10" d="M714.77,242.83a1.19,1.19,0,1,1-1.18-1.18A1.18,1.18,0,0,1,714.77,242.83Z"/>
        <path class="cls-10" d="M720,250.67a1.18,1.18,0,1,1-1.18-1.18A1.18,1.18,0,0,1,720,250.67Z"/>
        <path class="cls-10" d="M714.77,250.67a1.19,1.19,0,1,1-1.18-1.18A1.18,1.18,0,0,1,714.77,250.67Z"/>
        <path class="cls-10" d="M714.77,195.8a1.19,1.19,0,1,1-1.18-1.19A1.18,1.18,0,0,1,714.77,195.8Z"/>
        <path class="cls-10" d="M709.54,195.8a1.18,1.18,0,1,1-1.18-1.19A1.18,1.18,0,0,1,709.54,195.8Z"/>
        <path class="cls-10" d="M714.77,203.64a1.19,1.19,0,1,1-1.18-1.19A1.18,1.18,0,0,1,714.77,203.64Z"/>
        <path class="cls-10" d="M709.54,203.64a1.18,1.18,0,1,1-1.18-1.19A1.18,1.18,0,0,1,709.54,203.64Z"/>
        <path class="cls-10" d="M712.16,199.72a1.19,1.19,0,1,1-1.19-1.19A1.18,1.18,0,0,1,712.16,199.72Z"/>
        <path class="cls-10" d="M714.77,195.8a1.19,1.19,0,1,1-1.18-1.19A1.18,1.18,0,0,1,714.77,195.8Z"/>
        <path class="cls-10" d="M709.54,195.8a1.18,1.18,0,1,1-1.18-1.19A1.18,1.18,0,0,1,709.54,195.8Z"/>
        <path class="cls-10" d="M714.77,211.48a1.19,1.19,0,1,1-1.18-1.19A1.18,1.18,0,0,1,714.77,211.48Z"/>
        <path class="cls-10" d="M712.16,207.56a1.19,1.19,0,1,1-1.19-1.19A1.18,1.18,0,0,1,712.16,207.56Z"/>
        <path class="cls-10" d="M714.77,203.64a1.19,1.19,0,1,1-1.18-1.19A1.18,1.18,0,0,1,714.77,203.64Z"/>
        <path class="cls-10" d="M709.54,203.64a1.18,1.18,0,1,1-1.18-1.19A1.18,1.18,0,0,1,709.54,203.64Z"/>
        <path class="cls-10" d="M714.77,211.48a1.19,1.19,0,1,1-1.18-1.19A1.18,1.18,0,0,1,714.77,211.48Z"/>
        <path class="cls-10" d="M709.54,227.15a1.18,1.18,0,1,1-1.18-1.18A1.18,1.18,0,0,1,709.54,227.15Z"/>
        <path class="cls-10" d="M714.77,235a1.19,1.19,0,1,1-1.18-1.18A1.18,1.18,0,0,1,714.77,235Z"/>
        <path class="cls-10" d="M709.54,235a1.18,1.18,0,1,1-1.18-1.18A1.18,1.18,0,0,1,709.54,235Z"/>
        <path class="cls-10" d="M712.16,231.07a1.19,1.19,0,1,1-1.19-1.18A1.19,1.19,0,0,1,712.16,231.07Z"/>
        <path class="cls-10" d="M709.54,227.15a1.18,1.18,0,1,1-1.18-1.18A1.18,1.18,0,0,1,709.54,227.15Z"/>
        <path class="cls-10" d="M714.77,242.83a1.19,1.19,0,1,1-1.18-1.18A1.18,1.18,0,0,1,714.77,242.83Z"/>
        <path class="cls-10" d="M709.54,242.83a1.18,1.18,0,1,1-1.18-1.18A1.18,1.18,0,0,1,709.54,242.83Z"/>
        <path class="cls-10" d="M712.16,238.91a1.19,1.19,0,1,1-1.19-1.18A1.18,1.18,0,0,1,712.16,238.91Z"/>
        <path class="cls-10" d="M714.77,235a1.19,1.19,0,1,1-1.18-1.18A1.18,1.18,0,0,1,714.77,235Z"/>
        <path class="cls-10" d="M709.54,235a1.18,1.18,0,1,1-1.18-1.18A1.18,1.18,0,0,1,709.54,235Z"/>
        <path class="cls-10" d="M714.77,250.67a1.19,1.19,0,1,1-1.18-1.18A1.18,1.18,0,0,1,714.77,250.67Z"/>
        <path class="cls-10" d="M709.54,250.67a1.18,1.18,0,1,1-1.18-1.18A1.18,1.18,0,0,1,709.54,250.67Z"/>
        <path class="cls-10" d="M712.16,246.75a1.19,1.19,0,1,1-1.19-1.18A1.18,1.18,0,0,1,712.16,246.75Z"/>
        <path class="cls-10" d="M714.77,242.83a1.19,1.19,0,1,1-1.18-1.18A1.18,1.18,0,0,1,714.77,242.83Z"/>
        <path class="cls-10" d="M709.54,242.83a1.18,1.18,0,1,1-1.18-1.18A1.18,1.18,0,0,1,709.54,242.83Z"/>
        <path class="cls-10" d="M714.77,250.67a1.19,1.19,0,1,1-1.18-1.18A1.18,1.18,0,0,1,714.77,250.67Z"/>
        <path class="cls-10" d="M709.54,250.67a1.18,1.18,0,1,1-1.18-1.18A1.18,1.18,0,0,1,709.54,250.67Z"/>
        <path class="cls-10" d="M709.54,195.8a1.18,1.18,0,1,1-1.18-1.19A1.18,1.18,0,0,1,709.54,195.8Z"/>
        <path class="cls-10" d="M704.32,195.8a1.19,1.19,0,1,1-1.19-1.19A1.18,1.18,0,0,1,704.32,195.8Z"/>
        <path class="cls-10" d="M709.54,203.64a1.18,1.18,0,1,1-1.18-1.19A1.18,1.18,0,0,1,709.54,203.64Z"/>
        <path class="cls-10" d="M704.32,203.64a1.19,1.19,0,1,1-1.19-1.19A1.18,1.18,0,0,1,704.32,203.64Z"/>
        <path class="cls-10" d="M706.93,199.72a1.19,1.19,0,1,1-1.18-1.19A1.18,1.18,0,0,1,706.93,199.72Z"/>
        <path class="cls-10" d="M709.54,195.8a1.18,1.18,0,1,1-1.18-1.19A1.18,1.18,0,0,1,709.54,195.8Z"/>
        <path class="cls-10" d="M704.32,195.8a1.19,1.19,0,1,1-1.19-1.19A1.18,1.18,0,0,1,704.32,195.8Z"/>
        <path class="cls-10" d="M706.93,207.56a1.19,1.19,0,1,1-1.18-1.19A1.18,1.18,0,0,1,706.93,207.56Z"/>
        <path class="cls-10" d="M709.54,203.64a1.18,1.18,0,1,1-1.18-1.19A1.18,1.18,0,0,1,709.54,203.64Z"/>
        <path class="cls-10" d="M704.32,203.64a1.19,1.19,0,1,1-1.19-1.19A1.18,1.18,0,0,1,704.32,203.64Z"/>
        <path class="cls-10" d="M709.54,227.15a1.18,1.18,0,1,1-1.18-1.18A1.18,1.18,0,0,1,709.54,227.15Z"/>
        <path class="cls-10" d="M704.32,227.15a1.19,1.19,0,1,1-1.19-1.18A1.19,1.19,0,0,1,704.32,227.15Z"/>
        <path class="cls-10" d="M709.54,235a1.18,1.18,0,1,1-1.18-1.18A1.18,1.18,0,0,1,709.54,235Z"/>
        <path class="cls-10" d="M704.32,235a1.19,1.19,0,1,1-1.19-1.18A1.19,1.19,0,0,1,704.32,235Z"/>
        <path class="cls-10" d="M706.93,231.07a1.19,1.19,0,1,1-1.18-1.18A1.18,1.18,0,0,1,706.93,231.07Z"/>
        <path class="cls-10" d="M709.54,227.15a1.18,1.18,0,1,1-1.18-1.18A1.18,1.18,0,0,1,709.54,227.15Z"/>
        <path class="cls-10" d="M704.32,227.15a1.19,1.19,0,1,1-1.19-1.18A1.19,1.19,0,0,1,704.32,227.15Z"/>
        <path class="cls-10" d="M709.54,242.83a1.18,1.18,0,1,1-1.18-1.18A1.18,1.18,0,0,1,709.54,242.83Z"/>
        <path class="cls-10" d="M704.32,242.83a1.19,1.19,0,1,1-1.19-1.18A1.19,1.19,0,0,1,704.32,242.83Z"/>
        <path class="cls-10" d="M706.93,238.91a1.19,1.19,0,1,1-1.18-1.18A1.18,1.18,0,0,1,706.93,238.91Z"/>
        <path class="cls-10" d="M709.54,235a1.18,1.18,0,1,1-1.18-1.18A1.18,1.18,0,0,1,709.54,235Z"/>
        <path class="cls-10" d="M704.32,235a1.19,1.19,0,1,1-1.19-1.18A1.19,1.19,0,0,1,704.32,235Z"/>
        <path class="cls-10" d="M709.54,250.67a1.18,1.18,0,1,1-1.18-1.18A1.18,1.18,0,0,1,709.54,250.67Z"/>
        <path class="cls-10" d="M706.93,246.75a1.19,1.19,0,1,1-1.18-1.18A1.18,1.18,0,0,1,706.93,246.75Z"/>
        <path class="cls-10" d="M709.54,242.83a1.18,1.18,0,1,1-1.18-1.18A1.18,1.18,0,0,1,709.54,242.83Z"/>
        <path class="cls-10" d="M704.32,242.83a1.19,1.19,0,1,1-1.19-1.18A1.19,1.19,0,0,1,704.32,242.83Z"/>
        <path class="cls-10" d="M709.54,250.67a1.18,1.18,0,1,1-1.18-1.18A1.18,1.18,0,0,1,709.54,250.67Z"/>
        <path class="cls-10" d="M704.32,195.8a1.19,1.19,0,1,1-1.19-1.19A1.18,1.18,0,0,1,704.32,195.8Z"/>
        <path class="cls-10" d="M699.09,195.8a1.19,1.19,0,1,1-1.18-1.19A1.18,1.18,0,0,1,699.09,195.8Z"/>
        <path class="cls-10" d="M704.32,203.64a1.19,1.19,0,1,1-1.19-1.19A1.18,1.18,0,0,1,704.32,203.64Z"/>
        <path class="cls-10" d="M699.09,203.64a1.19,1.19,0,1,1-1.18-1.19A1.18,1.18,0,0,1,699.09,203.64Z"/>
        <path class="cls-10" d="M701.71,199.72a1.19,1.19,0,1,1-1.19-1.19A1.19,1.19,0,0,1,701.71,199.72Z"/>
        <path class="cls-10" d="M704.32,195.8a1.19,1.19,0,1,1-1.19-1.19A1.18,1.18,0,0,1,704.32,195.8Z"/>
        <path class="cls-10" d="M699.09,195.8a1.19,1.19,0,1,1-1.18-1.19A1.18,1.18,0,0,1,699.09,195.8Z"/>
        <path class="cls-10" d="M699.09,211.48a1.19,1.19,0,1,1-1.18-1.19A1.18,1.18,0,0,1,699.09,211.48Z"/>
        <path class="cls-10" d="M701.71,207.56a1.19,1.19,0,1,1-1.19-1.19A1.19,1.19,0,0,1,701.71,207.56Z"/>
        <path class="cls-10" d="M704.32,203.64a1.19,1.19,0,1,1-1.19-1.19A1.18,1.18,0,0,1,704.32,203.64Z"/>
        <path class="cls-10" d="M699.09,203.64a1.19,1.19,0,1,1-1.18-1.19A1.18,1.18,0,0,1,699.09,203.64Z"/>
        <path class="cls-10" d="M699.09,219.31a1.19,1.19,0,1,1-1.18-1.18A1.18,1.18,0,0,1,699.09,219.31Z"/>
        <path class="cls-10" d="M699.09,211.48a1.19,1.19,0,1,1-1.18-1.19A1.18,1.18,0,0,1,699.09,211.48Z"/>
        <path class="cls-10" d="M704.32,227.15a1.19,1.19,0,1,1-1.19-1.18A1.19,1.19,0,0,1,704.32,227.15Z"/>
        <path class="cls-10" d="M699.09,227.15a1.19,1.19,0,1,1-1.18-1.18A1.18,1.18,0,0,1,699.09,227.15Z"/>
        <path class="cls-10" d="M701.71,223.23a1.19,1.19,0,1,1-1.19-1.18A1.19,1.19,0,0,1,701.71,223.23Z"/>
        <path class="cls-10" d="M699.09,219.31a1.19,1.19,0,1,1-1.18-1.18A1.18,1.18,0,0,1,699.09,219.31Z"/>
        <path class="cls-10" d="M704.32,235a1.19,1.19,0,1,1-1.19-1.18A1.19,1.19,0,0,1,704.32,235Z"/>
        <path class="cls-10" d="M699.09,235a1.19,1.19,0,1,1-1.18-1.18A1.18,1.18,0,0,1,699.09,235Z"/>
        <path class="cls-10" d="M701.71,231.07a1.19,1.19,0,1,1-1.19-1.18A1.19,1.19,0,0,1,701.71,231.07Z"/>
        <path class="cls-10" d="M704.32,227.15a1.19,1.19,0,1,1-1.19-1.18A1.19,1.19,0,0,1,704.32,227.15Z"/>
        <path class="cls-10" d="M699.09,227.15a1.19,1.19,0,1,1-1.18-1.18A1.18,1.18,0,0,1,699.09,227.15Z"/>
        <path class="cls-10" d="M704.32,242.83a1.19,1.19,0,1,1-1.19-1.18A1.19,1.19,0,0,1,704.32,242.83Z"/>
        <path class="cls-10" d="M699.09,242.83a1.19,1.19,0,1,1-1.18-1.18A1.18,1.18,0,0,1,699.09,242.83Z"/>
        <path class="cls-10" d="M701.71,238.91a1.19,1.19,0,1,1-1.19-1.18A1.18,1.18,0,0,1,701.71,238.91Z"/>
        <path class="cls-10" d="M704.32,235a1.19,1.19,0,1,1-1.19-1.18A1.19,1.19,0,0,1,704.32,235Z"/>
        <path class="cls-10" d="M699.09,235a1.19,1.19,0,1,1-1.18-1.18A1.18,1.18,0,0,1,699.09,235Z"/>
        <path class="cls-10" d="M701.71,246.75a1.19,1.19,0,1,1-1.19-1.18A1.18,1.18,0,0,1,701.71,246.75Z"/>
        <path class="cls-10" d="M704.32,242.83a1.19,1.19,0,1,1-1.19-1.18A1.19,1.19,0,0,1,704.32,242.83Z"/>
        <path class="cls-10" d="M699.09,242.83a1.19,1.19,0,1,1-1.18-1.18A1.18,1.18,0,0,1,699.09,242.83Z"/>
        <path class="cls-10" d="M699.09,195.8a1.19,1.19,0,1,1-1.18-1.19A1.18,1.18,0,0,1,699.09,195.8Z"/>
        <path class="cls-10" d="M693.87,195.8a1.19,1.19,0,1,1-1.19-1.19A1.18,1.18,0,0,1,693.87,195.8Z"/>
        <path class="cls-10" d="M699.09,203.64a1.19,1.19,0,1,1-1.18-1.19A1.18,1.18,0,0,1,699.09,203.64Z"/>
        <circle class="cls-10" cx="692.68" cy="203.64" r="1.18"/>
        <path class="cls-10" d="M696.48,199.72a1.19,1.19,0,1,1-1.19-1.19A1.18,1.18,0,0,1,696.48,199.72Z"/>
        <path class="cls-10" d="M699.09,195.8a1.19,1.19,0,1,1-1.18-1.19A1.18,1.18,0,0,1,699.09,195.8Z"/>
        <path class="cls-10" d="M693.87,195.8a1.19,1.19,0,1,1-1.19-1.19A1.18,1.18,0,0,1,693.87,195.8Z"/>
        <path class="cls-10" d="M699.09,211.48a1.19,1.19,0,1,1-1.18-1.19A1.18,1.18,0,0,1,699.09,211.48Z"/>
        <path class="cls-10" d="M693.87,211.48a1.19,1.19,0,1,1-1.19-1.19A1.18,1.18,0,0,1,693.87,211.48Z"/>
        <path class="cls-10" d="M696.48,207.56a1.19,1.19,0,1,1-1.19-1.19A1.18,1.18,0,0,1,696.48,207.56Z"/>
        <path class="cls-10" d="M699.09,203.64a1.19,1.19,0,1,1-1.18-1.19A1.18,1.18,0,0,1,699.09,203.64Z"/>
        <circle class="cls-10" cx="692.68" cy="203.64" r="1.18"/>
        <path class="cls-10" d="M699.09,219.31a1.19,1.19,0,1,1-1.18-1.18A1.18,1.18,0,0,1,699.09,219.31Z"/>
        <path class="cls-10" d="M693.87,219.31a1.19,1.19,0,1,1-1.19-1.18A1.19,1.19,0,0,1,693.87,219.31Z"/>
        <path class="cls-10" d="M696.48,215.39a1.19,1.19,0,1,1-1.19-1.18A1.19,1.19,0,0,1,696.48,215.39Z"/>
        <path class="cls-10" d="M699.09,211.48a1.19,1.19,0,1,1-1.18-1.19A1.18,1.18,0,0,1,699.09,211.48Z"/>
        <path class="cls-10" d="M693.87,211.48a1.19,1.19,0,1,1-1.19-1.19A1.18,1.18,0,0,1,693.87,211.48Z"/>
        <path class="cls-10" d="M699.09,227.15a1.19,1.19,0,1,1-1.18-1.18A1.18,1.18,0,0,1,699.09,227.15Z"/>
        <path class="cls-10" d="M693.87,227.15a1.19,1.19,0,1,1-1.19-1.18A1.19,1.19,0,0,1,693.87,227.15Z"/>
        <path class="cls-10" d="M696.48,223.23a1.19,1.19,0,1,1-1.19-1.18A1.19,1.19,0,0,1,696.48,223.23Z"/>
        <path class="cls-10" d="M699.09,219.31a1.19,1.19,0,1,1-1.18-1.18A1.18,1.18,0,0,1,699.09,219.31Z"/>
        <path class="cls-10" d="M693.87,219.31a1.19,1.19,0,1,1-1.19-1.18A1.19,1.19,0,0,1,693.87,219.31Z"/>
        <path class="cls-10" d="M699.09,235a1.19,1.19,0,1,1-1.18-1.18A1.18,1.18,0,0,1,699.09,235Z"/>
        <circle class="cls-10" cx="692.68" cy="234.99" r="1.18"/>
        <path class="cls-10" d="M696.48,231.07a1.19,1.19,0,1,1-1.19-1.18A1.19,1.19,0,0,1,696.48,231.07Z"/>
        <path class="cls-10" d="M699.09,227.15a1.19,1.19,0,1,1-1.18-1.18A1.18,1.18,0,0,1,699.09,227.15Z"/>
        <path class="cls-10" d="M693.87,227.15a1.19,1.19,0,1,1-1.19-1.18A1.19,1.19,0,0,1,693.87,227.15Z"/>
        <path class="cls-10" d="M699.09,242.83a1.19,1.19,0,1,1-1.18-1.18A1.18,1.18,0,0,1,699.09,242.83Z"/>
        <path class="cls-10" d="M693.87,242.83a1.19,1.19,0,1,1-1.19-1.18A1.19,1.19,0,0,1,693.87,242.83Z"/>
        <path class="cls-10" d="M696.48,238.91a1.19,1.19,0,1,1-1.19-1.18A1.18,1.18,0,0,1,696.48,238.91Z"/>
        <path class="cls-10" d="M699.09,235a1.19,1.19,0,1,1-1.18-1.18A1.18,1.18,0,0,1,699.09,235Z"/>
        <circle class="cls-10" cx="692.68" cy="234.99" r="1.18"/>
        <path class="cls-10" d="M696.48,246.75a1.19,1.19,0,1,1-1.19-1.18A1.18,1.18,0,0,1,696.48,246.75Z"/>
        <path class="cls-10" d="M699.09,242.83a1.19,1.19,0,1,1-1.18-1.18A1.18,1.18,0,0,1,699.09,242.83Z"/>
        <path class="cls-10" d="M693.87,242.83a1.19,1.19,0,1,1-1.19-1.18A1.19,1.19,0,0,1,693.87,242.83Z"/>
        <path class="cls-10" d="M693.87,195.8a1.19,1.19,0,1,1-1.19-1.19A1.18,1.18,0,0,1,693.87,195.8Z"/>
        <circle class="cls-10" cx="692.68" cy="203.64" r="1.18"/>
        <path class="cls-10" d="M688.64,203.64a1.19,1.19,0,1,1-1.18-1.19A1.18,1.18,0,0,1,688.64,203.64Z"/>
        <path class="cls-10" d="M691.25,199.72a1.18,1.18,0,1,1-1.18-1.19A1.18,1.18,0,0,1,691.25,199.72Z"/>
        <path class="cls-10" d="M693.87,195.8a1.19,1.19,0,1,1-1.19-1.19A1.18,1.18,0,0,1,693.87,195.8Z"/>
        <path class="cls-10" d="M693.87,211.48a1.19,1.19,0,1,1-1.19-1.19A1.18,1.18,0,0,1,693.87,211.48Z"/>
        <path class="cls-10" d="M688.64,211.48a1.19,1.19,0,1,1-1.18-1.19A1.18,1.18,0,0,1,688.64,211.48Z"/>
        <path class="cls-10" d="M691.25,207.56a1.18,1.18,0,1,1-1.18-1.19A1.18,1.18,0,0,1,691.25,207.56Z"/>
        <circle class="cls-10" cx="692.68" cy="203.64" r="1.18"/>
        <path class="cls-10" d="M688.64,203.64a1.19,1.19,0,1,1-1.18-1.19A1.18,1.18,0,0,1,688.64,203.64Z"/>
        <path class="cls-10" d="M693.87,219.31a1.19,1.19,0,1,1-1.19-1.18A1.19,1.19,0,0,1,693.87,219.31Z"/>
        <path class="cls-10" d="M688.64,219.31a1.19,1.19,0,1,1-1.18-1.18A1.18,1.18,0,0,1,688.64,219.31Z"/>
        <path class="cls-10" d="M691.25,215.39a1.18,1.18,0,1,1-1.18-1.18A1.18,1.18,0,0,1,691.25,215.39Z"/>
        <path class="cls-10" d="M693.87,211.48a1.19,1.19,0,1,1-1.19-1.19A1.18,1.18,0,0,1,693.87,211.48Z"/>
        <path class="cls-10" d="M688.64,211.48a1.19,1.19,0,1,1-1.18-1.19A1.18,1.18,0,0,1,688.64,211.48Z"/>
        <path class="cls-10" d="M693.87,227.15a1.19,1.19,0,1,1-1.19-1.18A1.19,1.19,0,0,1,693.87,227.15Z"/>
        <path class="cls-10" d="M688.64,227.15a1.19,1.19,0,1,1-1.18-1.18A1.18,1.18,0,0,1,688.64,227.15Z"/>
        <path class="cls-10" d="M691.25,223.23a1.18,1.18,0,1,1-1.18-1.18A1.18,1.18,0,0,1,691.25,223.23Z"/>
        <path class="cls-10" d="M693.87,219.31a1.19,1.19,0,1,1-1.19-1.18A1.19,1.19,0,0,1,693.87,219.31Z"/>
        <path class="cls-10" d="M688.64,219.31a1.19,1.19,0,1,1-1.18-1.18A1.18,1.18,0,0,1,688.64,219.31Z"/>
        <circle class="cls-10" cx="692.68" cy="234.99" r="1.18"/>
        <path class="cls-10" d="M688.64,235a1.19,1.19,0,1,1-1.18-1.18A1.18,1.18,0,0,1,688.64,235Z"/>
        <path class="cls-10" d="M691.25,231.07a1.18,1.18,0,1,1-1.18-1.18A1.18,1.18,0,0,1,691.25,231.07Z"/>
        <path class="cls-10" d="M693.87,227.15a1.19,1.19,0,1,1-1.19-1.18A1.19,1.19,0,0,1,693.87,227.15Z"/>
        <path class="cls-10" d="M688.64,227.15a1.19,1.19,0,1,1-1.18-1.18A1.18,1.18,0,0,1,688.64,227.15Z"/>
        <path class="cls-10" d="M693.87,242.83a1.19,1.19,0,1,1-1.19-1.18A1.19,1.19,0,0,1,693.87,242.83Z"/>
        <path class="cls-10" d="M688.64,242.83a1.19,1.19,0,1,1-1.18-1.18A1.18,1.18,0,0,1,688.64,242.83Z"/>
        <path class="cls-10" d="M691.25,238.91a1.18,1.18,0,1,1-1.18-1.18A1.18,1.18,0,0,1,691.25,238.91Z"/>
        <circle class="cls-10" cx="692.68" cy="234.99" r="1.18"/>
        <path class="cls-10" d="M688.64,235a1.19,1.19,0,1,1-1.18-1.18A1.18,1.18,0,0,1,688.64,235Z"/>
        <path class="cls-10" d="M693.87,242.83a1.19,1.19,0,1,1-1.19-1.18A1.19,1.19,0,0,1,693.87,242.83Z"/>
        <path class="cls-10" d="M688.64,242.83a1.19,1.19,0,1,1-1.18-1.18A1.18,1.18,0,0,1,688.64,242.83Z"/>
        <path class="cls-10" d="M688.64,203.64a1.19,1.19,0,1,1-1.18-1.19A1.18,1.18,0,0,1,688.64,203.64Z"/>
        <circle class="cls-10" cx="682.23" cy="203.64" r="1.18"/>
        <path class="cls-10" d="M686,199.72a1.19,1.19,0,1,1-1.19-1.19A1.18,1.18,0,0,1,686,199.72Z"/>
        <path class="cls-10" d="M688.64,211.48a1.19,1.19,0,1,1-1.18-1.19A1.18,1.18,0,0,1,688.64,211.48Z"/>
        <path class="cls-10" d="M683.41,211.48a1.18,1.18,0,1,1-1.18-1.19A1.18,1.18,0,0,1,683.41,211.48Z"/>
        <path class="cls-10" d="M686,207.56a1.19,1.19,0,1,1-1.19-1.19A1.18,1.18,0,0,1,686,207.56Z"/>
        <path class="cls-10" d="M688.64,203.64a1.19,1.19,0,1,1-1.18-1.19A1.18,1.18,0,0,1,688.64,203.64Z"/>
        <circle class="cls-10" cx="682.23" cy="203.64" r="1.18"/>
        <path class="cls-10" d="M688.64,219.31a1.19,1.19,0,1,1-1.18-1.18A1.18,1.18,0,0,1,688.64,219.31Z"/>
        <path class="cls-10" d="M683.41,219.31a1.18,1.18,0,1,1-1.18-1.18A1.18,1.18,0,0,1,683.41,219.31Z"/>
        <path class="cls-10" d="M686,215.39a1.19,1.19,0,1,1-1.19-1.18A1.19,1.19,0,0,1,686,215.39Z"/>
        <path class="cls-10" d="M688.64,211.48a1.19,1.19,0,1,1-1.18-1.19A1.18,1.18,0,0,1,688.64,211.48Z"/>
        <path class="cls-10" d="M683.41,211.48a1.18,1.18,0,1,1-1.18-1.19A1.18,1.18,0,0,1,683.41,211.48Z"/>
        <path class="cls-10" d="M688.64,227.15a1.19,1.19,0,1,1-1.18-1.18A1.18,1.18,0,0,1,688.64,227.15Z"/>
        <path class="cls-10" d="M683.41,227.15a1.18,1.18,0,1,1-1.18-1.18A1.18,1.18,0,0,1,683.41,227.15Z"/>
        <path class="cls-10" d="M686,223.23a1.19,1.19,0,1,1-1.19-1.18A1.19,1.19,0,0,1,686,223.23Z"/>
        <path class="cls-10" d="M688.64,219.31a1.19,1.19,0,1,1-1.18-1.18A1.18,1.18,0,0,1,688.64,219.31Z"/>
        <path class="cls-10" d="M683.41,219.31a1.18,1.18,0,1,1-1.18-1.18A1.18,1.18,0,0,1,683.41,219.31Z"/>
        <path class="cls-10" d="M688.64,235a1.19,1.19,0,1,1-1.18-1.18A1.18,1.18,0,0,1,688.64,235Z"/>
        <circle class="cls-10" cx="682.23" cy="234.99" r="1.18"/>
        <path class="cls-10" d="M686,231.07a1.19,1.19,0,1,1-1.19-1.18A1.19,1.19,0,0,1,686,231.07Z"/>
        <path class="cls-10" d="M688.64,227.15a1.19,1.19,0,1,1-1.18-1.18A1.18,1.18,0,0,1,688.64,227.15Z"/>
        <path class="cls-10" d="M683.41,227.15a1.18,1.18,0,1,1-1.18-1.18A1.18,1.18,0,0,1,683.41,227.15Z"/>
        <path class="cls-10" d="M688.64,242.83a1.19,1.19,0,1,1-1.18-1.18A1.18,1.18,0,0,1,688.64,242.83Z"/>
        <path class="cls-10" d="M686,238.91a1.19,1.19,0,1,1-1.19-1.18A1.18,1.18,0,0,1,686,238.91Z"/>
        <path class="cls-10" d="M688.64,235a1.19,1.19,0,1,1-1.18-1.18A1.18,1.18,0,0,1,688.64,235Z"/>
        <circle class="cls-10" cx="682.23" cy="234.99" r="1.18"/>
        <path class="cls-10" d="M688.64,242.83a1.19,1.19,0,1,1-1.18-1.18A1.18,1.18,0,0,1,688.64,242.83Z"/>
        <circle class="cls-10" cx="682.23" cy="203.64" r="1.18"/>
        <path class="cls-10" d="M683.41,211.48a1.18,1.18,0,1,1-1.18-1.19A1.18,1.18,0,0,1,683.41,211.48Z"/>
        <circle class="cls-10" cx="682.23" cy="203.64" r="1.18"/>
        <path class="cls-10" d="M680.8,207.56a1.19,1.19,0,1,1-1.18-1.19A1.18,1.18,0,0,1,680.8,207.56Z"/>
        <path class="cls-10" d="M683.41,219.31a1.18,1.18,0,1,1-1.18-1.18A1.18,1.18,0,0,1,683.41,219.31Z"/>
        <path class="cls-10" d="M678.19,219.31a1.19,1.19,0,1,1-1.18-1.18A1.18,1.18,0,0,1,678.19,219.31Z"/>
        <path class="cls-10" d="M680.8,215.39a1.19,1.19,0,1,1-1.18-1.18A1.18,1.18,0,0,1,680.8,215.39Z"/>
        <path class="cls-10" d="M683.41,211.48a1.18,1.18,0,1,1-1.18-1.19A1.18,1.18,0,0,1,683.41,211.48Z"/>
        <path class="cls-10" d="M683.41,227.15a1.18,1.18,0,1,1-1.18-1.18A1.18,1.18,0,0,1,683.41,227.15Z"/>
        <path class="cls-10" d="M678.19,227.15A1.19,1.19,0,1,1,677,226,1.18,1.18,0,0,1,678.19,227.15Z"/>
        <path class="cls-10" d="M680.8,223.23a1.19,1.19,0,1,1-1.18-1.18A1.18,1.18,0,0,1,680.8,223.23Z"/>
        <path class="cls-10" d="M683.41,219.31a1.18,1.18,0,1,1-1.18-1.18A1.18,1.18,0,0,1,683.41,219.31Z"/>
        <path class="cls-10" d="M678.19,219.31a1.19,1.19,0,1,1-1.18-1.18A1.18,1.18,0,0,1,678.19,219.31Z"/>
        <circle class="cls-10" cx="682.23" cy="234.99" r="1.18"/>
        <path class="cls-10" d="M680.8,231.07a1.19,1.19,0,1,1-1.18-1.18A1.18,1.18,0,0,1,680.8,231.07Z"/>
        <path class="cls-10" d="M683.41,227.15a1.18,1.18,0,1,1-1.18-1.18A1.18,1.18,0,0,1,683.41,227.15Z"/>
        <path class="cls-10" d="M678.19,227.15A1.19,1.19,0,1,1,677,226,1.18,1.18,0,0,1,678.19,227.15Z"/>
        <circle class="cls-10" cx="682.23" cy="234.99" r="1.18"/>
        <path class="cls-10" d="M678.19,219.31a1.19,1.19,0,1,1-1.18-1.18A1.18,1.18,0,0,1,678.19,219.31Z"/>
        <path class="cls-10" d="M678.19,227.15A1.19,1.19,0,1,1,677,226,1.18,1.18,0,0,1,678.19,227.15Z"/>
        <path class="cls-10" d="M678.19,219.31a1.19,1.19,0,1,1-1.18-1.18A1.18,1.18,0,0,1,678.19,219.31Z"/>
        <path class="cls-10" d="M678.19,227.15A1.19,1.19,0,1,1,677,226,1.18,1.18,0,0,1,678.19,227.15Z"/>
      </g>
      <path class="cls-3" d="M748.75,278.26l-45.67,19.33-50.66-46.66a215.33,215.33,0,0,1-.63-21.72c.48-22,4.43-42.45,11.39-60.41,6.4-16.54,15.35-31,26.48-42.64a100.49,100.49,0,0,1,52.82-29.58,112.83,112.83,0,0,1,36.27-1.32"/>
    </g>
    <g>
      <path class="cls-1" d="M1062.42,392.74a55.77,55.77,0,1,0-55.77,55.77A55.77,55.77,0,0,0,1062.42,392.74Z"/>
      <path class="cls-2" d="M1023.73,413.85q-4.44,4.32-12.8,5.36v8.28h-7.39v-8.06a39.77,39.77,0,0,1-10.43-1.92,26.06,26.06,0,0,1-8-4l4.06-9a26.76,26.76,0,0,0,6.58,3.47,30.22,30.22,0,0,0,7.77,1.78V397.4a56.29,56.29,0,0,1-8.87-2.81A15.78,15.78,0,0,1,988.6,390a12.19,12.19,0,0,1-2.44-8,14.24,14.24,0,0,1,4.48-10.54q4.47-4.4,12.9-5.36V358h7.39V366q9.11.73,15,4.51l-3.7,9.1a29.54,29.54,0,0,0-11.32-3.85v12.57a53.22,53.22,0,0,1,8.77,2.7,15.47,15.47,0,0,1,6,4.51,12.14,12.14,0,0,1,2.44,7.88A14,14,0,0,1,1023.73,413.85Zm-24.26-29.32a11.51,11.51,0,0,0,4.07,2V376a8.09,8.09,0,0,0-4.14,2.11,4.79,4.79,0,0,0-1.33,3.37A3.8,3.8,0,0,0,999.47,384.53Zm15.46,23a4.34,4.34,0,0,0,1.33-3.18,3.84,3.84,0,0,0-1.37-3,12.1,12.1,0,0,0-4-2.08v10.21A8,8,0,0,0,1014.93,407.53Z"/>
      <path class="cls-3" d="M1062.42,392.38a55.77,55.77,0,1,0-55.77,55.77A55.77,55.77,0,0,0,1062.42,392.38Z"/>
    </g>
    <g>
      <path class="cls-1" d="M910.61,633.08a55.77,55.77,0,1,0-55.77,55.77A55.77,55.77,0,0,0,910.61,633.08Z"/>
      <path class="cls-2" d="M871.92,653.48q-4.44,4.34-12.79,5.36v8.29h-7.4v-8.07a39.77,39.77,0,0,1-10.43-1.92,26.06,26.06,0,0,1-8-4l4.06-9A26.65,26.65,0,0,0,844,647.6a30.06,30.06,0,0,0,7.76,1.78V637a56.29,56.29,0,0,1-8.87-2.81,15.78,15.78,0,0,1-6.07-4.55,12.25,12.25,0,0,1-2.44-7.95,14.24,14.24,0,0,1,4.48-10.54q4.47-4.39,12.9-5.36v-8.21h7.4v8.06q9.09.74,15,4.51l-3.7,9.1a29.55,29.55,0,0,0-11.31-3.85V628a53.39,53.39,0,0,1,8.76,2.7,15.47,15.47,0,0,1,6,4.51,12.14,12.14,0,0,1,2.44,7.88A14,14,0,0,1,871.92,653.48Zm-24.26-29.32a11.77,11.77,0,0,0,4.07,2V615.65a8.09,8.09,0,0,0-4.14,2.11,4.81,4.81,0,0,0-1.33,3.37A3.8,3.8,0,0,0,847.66,624.16Zm15.46,23a4.34,4.34,0,0,0,1.33-3.18,3.81,3.81,0,0,0-1.37-3,12,12,0,0,0-4-2.07v10.2A7.94,7.94,0,0,0,863.12,647.16Z"/>
      <path class="cls-3" d="M910.61,632.37a55.77,55.77,0,1,0-55.77,55.77A55.77,55.77,0,0,0,910.61,632.37Z"/>
    </g>
    <g>
      <path class="cls-1" d="M1202.07,235.58a55.77,55.77,0,1,0-55.77,55.77A55.77,55.77,0,0,0,1202.07,235.58Z"/>
      <path class="cls-2" d="M1163.38,256.69q-4.44,4.32-12.79,5.36v8.29h-7.4v-8.07a39.62,39.62,0,0,1-10.42-1.92,26,26,0,0,1-8-4l4.07-9a26.4,26.4,0,0,0,6.58,3.47,30.06,30.06,0,0,0,7.76,1.78V240.24a56.29,56.29,0,0,1-8.87-2.81,15.78,15.78,0,0,1-6.07-4.55,12.25,12.25,0,0,1-2.44-7.95,14.24,14.24,0,0,1,4.48-10.54q4.47-4.39,12.9-5.36v-8.21h7.4v8.06q9.09.74,15,4.51l-3.7,9.1a29.49,29.49,0,0,0-11.31-3.85v12.57a53.39,53.39,0,0,1,8.76,2.7,15.47,15.47,0,0,1,6,4.51,12.09,12.09,0,0,1,2.44,7.88A14,14,0,0,1,1163.38,256.69Zm-24.25-29.32a11.45,11.45,0,0,0,4.06,2v-10.5a8.09,8.09,0,0,0-4.14,2.11,4.79,4.79,0,0,0-1.33,3.37A3.78,3.78,0,0,0,1139.13,227.37Zm15.45,23a4.34,4.34,0,0,0,1.33-3.18,3.79,3.79,0,0,0-1.37-3,12,12,0,0,0-4-2.07v10.2A8,8,0,0,0,1154.58,250.37Z"/>
      <path class="cls-3" d="M1202.07,235.22A55.77,55.77,0,1,0,1146.3,291,55.77,55.77,0,0,0,1202.07,235.22Z"/>
    </g>
    <g>
      <path class="cls-1" d="M936.63,232.26A55.78,55.78,0,1,0,880.85,288,55.77,55.77,0,0,0,936.63,232.26Z"/>
      <path class="cls-2" d="M897.94,252.66Q893.5,257,885.14,258v8.28h-7.39v-8.06a40.53,40.53,0,0,1-10.43-1.92,26.47,26.47,0,0,1-8-4l4.07-9a27.12,27.12,0,0,0,6.58,3.48,29.8,29.8,0,0,0,7.77,1.77V236.2a54.28,54.28,0,0,1-8.87-2.81,15.58,15.58,0,0,1-6.07-4.55,12.16,12.16,0,0,1-2.44-8,14.25,14.25,0,0,1,4.47-10.53q4.49-4.41,12.91-5.37v-8.2h7.39v8.06q9.11.74,15,4.51l-3.7,9.09a29.51,29.51,0,0,0-11.32-3.84v12.57a53.53,53.53,0,0,1,8.77,2.7,15.28,15.28,0,0,1,6,4.51,12.07,12.07,0,0,1,2.45,7.88A14,14,0,0,1,897.94,252.66Zm-24.26-29.32a11.68,11.68,0,0,0,4.07,2v-10.5a8,8,0,0,0-4.14,2.11,4.78,4.78,0,0,0-1.33,3.36A3.78,3.78,0,0,0,873.68,223.34Zm15.46,23a4.31,4.31,0,0,0,1.33-3.18,3.84,3.84,0,0,0-1.37-3,11.92,11.92,0,0,0-4-2.07v10.21A8,8,0,0,0,889.14,246.33Z"/>
      <path class="cls-3" d="M936.63,231.54a55.78,55.78,0,1,0-55.78,55.77A55.77,55.77,0,0,0,936.63,231.54Z"/>
    </g>
    <g>
      <circle class="cls-1" cx="450.42" cy="478.86" r="55.77"/>
      <path class="cls-2" d="M467.5,499.26q-4.44,4.33-12.79,5.37v8.28h-7.4v-8.06a40.19,40.19,0,0,1-10.43-1.93,26.06,26.06,0,0,1-8-4l4.06-9a26.65,26.65,0,0,0,6.59,3.47,30.06,30.06,0,0,0,7.76,1.78V482.81a56.29,56.29,0,0,1-8.87-2.81,15.68,15.68,0,0,1-6.07-4.55,12.25,12.25,0,0,1-2.44-7.95A14.26,14.26,0,0,1,434.41,457q4.47-4.4,12.9-5.36v-8.21h7.4v8.06q9.09.75,15,4.51l-3.7,9.1a29.55,29.55,0,0,0-11.31-3.85v12.58a53.39,53.39,0,0,1,8.76,2.7,15.38,15.38,0,0,1,6,4.51,12,12,0,0,1,2.44,7.87A14,14,0,0,1,467.5,499.26Zm-24.26-29.32a11.6,11.6,0,0,0,4.07,2v-10.5a8,8,0,0,0-4.14,2.1,4.82,4.82,0,0,0-1.33,3.37A3.8,3.8,0,0,0,443.24,469.94Zm15.46,23a4.34,4.34,0,0,0,1.33-3.18,3.81,3.81,0,0,0-1.37-3,12,12,0,0,0-4-2.07v10.2A7.94,7.94,0,0,0,458.7,492.94Z"/>
      <circle class="cls-3" cx="450.42" cy="478.15" r="55.77"/>
    </g>
    <path class="cls-5" d="M1081.9,842.26h138m-904.46,0h744m-765,0H233"/>
  </g>
</svg>
