<svg id="work" xmlns="http://www.w3.org/2000/svg" viewBox="0 0 1422 870">
  <defs>
    <style>
      .cls-1, .cls-13, .cls-14, .cls-18, .cls-8 {
        fill: #ebebeb;
      }

      .cls-11, .cls-15, .cls-17, .cls-2, .cls-4, .cls-5 {
        fill: #fff;
      }

      .cls-10, .cls-3, .cls-9 {
        fill: #ff0083;
      }

      .cls-4 {
        opacity: 0.8;
      }

      .cls-10, .cls-11, .cls-12, .cls-13, .cls-14, .cls-15, .cls-16, .cls-17, .cls-18, .cls-19, .cls-5, .cls-6, .cls-7, .cls-8, .cls-9 {
        stroke: #4a4a4a;
      }

      .cls-13, .cls-16, .cls-17, .cls-21, .cls-5, .cls-6, .cls-7, .cls-8, .cls-9 {
        stroke-linecap: round;
      }

      .cls-12, .cls-13, .cls-17, .cls-21, .cls-5, .cls-6, .cls-7, .cls-8, .cls-9 {
        stroke-linejoin: round;
      }

      .cls-10, .cls-14, .cls-15, .cls-5, .cls-6, .cls-9 {
        stroke-width: 2.5px;
      }

      .cls-12, .cls-16, .cls-19, .cls-21, .cls-6, .cls-7 {
        fill: none;
      }

      .cls-11, .cls-13, .cls-19, .cls-7 {
        stroke-width: 4px;
      }

      .cls-12, .cls-16, .cls-17, .cls-18, .cls-8 {
        stroke-width: 3px;
      }

      .cls-10, .cls-11, .cls-14, .cls-15, .cls-16, .cls-18, .cls-19 {
        stroke-miterlimit: 10;
      }

      .cls-12 {
        stroke-linecap: square;
      }

      .cls-20 {
        fill: #4a4a4a;
      }

      .cls-21 {
        stroke: #ff0083;
        stroke-width: 7px;
      }
    </style>
  </defs>
  <title>18,2</title>
  <g>
    <g>
      <path class="cls-1" d="M1232.15,554.05c0-50.11-84.87-95.89-212.72-119.48-22.81-4.21-46.08-9.52-71.48-12-45.63-4.52-95.89-4.48-146.8-4.48-238,0-431,60.89-431,136s193,136,431,136S1232.15,629.16,1232.15,554.05Z"/>
      <path class="cls-2" d="M1190.4,461.05l-.5-92.75s0-47.15-50.75-72.25c-23.25-11.5-97.75-5.75-112.5-2.25s-37,30.75-39.75,48.25-.75,69.5-3.25,76.5a50.13,50.13,0,0,1-7.75,13.25l-.5,1.75-21.25-8.5h0c3,18.25,2.75,40,1.25,50.75s-.75,18.5-1.25,19.25c14.75,7,41,14.25,41,14.25l29.75-24-18-44.5s1.75-3.75,2.5-3.5,12.75,1.25,12.75,1.25,1.75-8,1.5-7,78,20,105,31.5c0,2-53,26-53,26s15,17.25,12.5,29c19.75-2.5,95.25-11,95.25-11Z"/>
      <path class="cls-2" d="M804.15,673.05c-14,7.5-35.75,17.5-51.75-5.25s-18-28-16.5-36.75,4.75-17.5,19.75-11.5,19.25,11,20.5,9.25c21.75-45.5,32-66.25,40.5-75.25s14.75-14,24.5-16.25c29.75,24.75,27.5,25,54.25,23.75s47-2,52-31c15.75.25,33.09,18.32,36.25,59.5,1.25,19.25,1.75,53.25,1.75,53.25,12.25,21.25-22.75,89.25-62.75,114s-79.5,47-96.25,31.25-20.75-26-21.75-47S804.15,673.05,804.15,673.05Z"/>
      <path class="cls-2" d="M417.65,512.8c25,9,34.5,26.75,46,67.5s16,58,16,58l23-22c15-1.5,25.75.75,28,29.25-6.25,11.5-20.75,38.25-29.5,48-10,9.5-34.25,17.5-51.5-4.25-4.75-7-9-14-9-14v40.75s-1.75,31-43,35.5c.5-31.75,6.75-82.75-13-119s-64.5-84.5-118.5-67.75c-.5-42.25,2-53.5,7.25-59.75,12.25-14.5,34.75-24.5,59.5.75,20.75-10.5,40.5-13.5,58.25,17.75A66.06,66.06,0,0,0,417.65,512.8Z"/>
      <path class="cls-2" d="M605.9,462.8s-56.5-47.25-56.5-70,0-80.5,3-92.5,10.75-39.25,32.75-44.75c.5-22.75-5.25-69,.5-93.75S605.4,92.55,622.9,84.05s62.59-.18,90,37.75c24.75,34.25,21,83.25,14.25,102.25a201.88,201.88,0,0,1-6.75,20.25c32.5,13.75,42.17,28.5,43.75,81.25,1,33.25,5.75,45.75,3.75,63.75,11.5-4.25,58.5-20.75,58.5-20.75l-15.75,66-97,34.75-34.5-28.25-16.5-13.75c-4.75-2-24.5.75-40,3l7.75,14.75s-15,1-19.75,9-2,10.75-2,10.75Z"/>
      <g>
        <polygon class="cls-2" points="692.49 576.05 823.15 556.05 823.15 540.72 692.49 560.72 692.49 576.05"/>
        <polygon class="cls-2" points="615.9 561.3 499.9 524.8 499.9 540.8 614.15 579.3 615.9 561.3"/>
        <path class="cls-3" d="M693.29,560.26l-1.16-57.1a7.2,7.2,0,0,1,6.29-7.3L818.2,480.47a5.69,5.69,0,0,1,6.41,5.72l-.83,55.35L696.07,560.08"/>
        <g>
          <path class="cls-3" d="M502.9,465.61a4.91,4.91,0,0,1,6.32-4.52l108.56,32.63a7.21,7.21,0,0,1,5.09,7.6l-5.94,61.1L500.79,524.71Z"/>
          <g>
            <path class="cls-2" d="M518,511.24l-2.32-6.17-.17-.05-3-.9-.51,5.32-3.39-1,1.82-19.08,6.35,1.92a8.24,8.24,0,0,1,3.31,1.87,7.68,7.68,0,0,1,2,3.07,9,9,0,0,1,.42,3.91,6.9,6.9,0,0,1-1.13,3.43,4.15,4.15,0,0,1-2.46,1.68l2.71,7.13Zm.53-14.88a3.85,3.85,0,0,0-2.24-1.57l-2.77-.83-.63,6.65,2.76.83a2.64,2.64,0,0,0,2.41-.17,2.86,2.86,0,0,0,1-2.21A4.09,4.09,0,0,0,518.54,496.36Z"/>
            <path class="cls-2" d="M535.41,510.2l-8.53-2.59a4.56,4.56,0,0,0,.88,2.49,3.86,3.86,0,0,0,2.06,1.43,3.35,3.35,0,0,0,1.6.14,3,3,0,0,0,1.37-.7l1.51,3q-1.83,1.89-4.89,1a7.65,7.65,0,0,1-3.28-2,8.48,8.48,0,0,1-2-3.37,10.21,10.21,0,0,1-.42-4.14,8.11,8.11,0,0,1,1.15-3.65,4.89,4.89,0,0,1,2.42-2,4.83,4.83,0,0,1,3.17,0,6.54,6.54,0,0,1,2.91,1.83,8.32,8.32,0,0,1,1.85,3.3,10.79,10.79,0,0,1,.38,4.25C535.58,509.12,535.52,509.5,535.41,510.2Zm-7.2-7a3.1,3.1,0,0,0-1.14,2l5.56,1.68a4.85,4.85,0,0,0-.71-2.5,3.13,3.13,0,0,0-1.77-1.39A2.14,2.14,0,0,0,528.21,503.16Z"/>
            <path class="cls-2" d="M539.35,516.93a8.72,8.72,0,0,1-2-3.37,10,10,0,0,1-.43-4.14,7.88,7.88,0,0,1,1.18-3.65,4.89,4.89,0,0,1,2.5-2,5.33,5.33,0,0,1,3.33,0,6.54,6.54,0,0,1,3,1.92,7.13,7.13,0,0,1,1.67,3.35l-2.7,1a3.7,3.7,0,0,0-2.35-2.78,2.18,2.18,0,0,0-2.22.45,4,4,0,0,0-1.12,2.71,5.51,5.51,0,0,0,.56,3.23,3.36,3.36,0,0,0,2,1.73,2.23,2.23,0,0,0,2.73-1.25l2.36,2.57a4.2,4.2,0,0,1-2.2,2.14,4.72,4.72,0,0,1-3.2,0A7.28,7.28,0,0,1,539.35,516.93Z"/>
            <path class="cls-2" d="M551.55,520.62a8.69,8.69,0,0,1-1.95-3.35,10.21,10.21,0,0,1-.43-4.14,8,8,0,0,1,1.17-3.66,4.86,4.86,0,0,1,2.47-2,5.14,5.14,0,0,1,3.29,0,6.81,6.81,0,0,1,3.09,1.93,8.61,8.61,0,0,1,1.95,3.35,10.17,10.17,0,0,1,.42,4.14,8,8,0,0,1-1.17,3.66,4.9,4.9,0,0,1-2.45,2,5,5,0,0,1-3.28,0A7,7,0,0,1,551.55,520.62Zm5.61-2a4.14,4.14,0,0,0,1.09-2.71,5.72,5.72,0,0,0-.52-3.21,3.3,3.3,0,0,0-2-1.73,2.11,2.11,0,0,0-2.18.48,4.1,4.1,0,0,0-1.11,2.71,5.72,5.72,0,0,0,.54,3.21,3.32,3.32,0,0,0,2,1.73A2.1,2.1,0,0,0,557.16,518.59Z"/>
            <path class="cls-2" d="M569.12,512a4.48,4.48,0,0,1,2.35.15l-.38,3.92c-.36-.14-.6-.24-.73-.27a2.27,2.27,0,0,0-2.3.35,4.17,4.17,0,0,0-1.08,2.83l-.67,6.92-3.27-1,1.4-14.66,3.13.94-.19,1.94A3,3,0,0,1,569.12,512Z"/>
            <path class="cls-2" d="M585.31,510.8,583.38,531l-3.12-.95.16-1.69a3.31,3.31,0,0,1-3.71.84,6.12,6.12,0,0,1-2.79-1.8,8.11,8.11,0,0,1-1.77-3.25,11.16,11.16,0,0,1-.36-4.2,8.92,8.92,0,0,1,1.12-3.76,4.59,4.59,0,0,1,2.27-2,4.46,4.46,0,0,1,3-.06,5.15,5.15,0,0,1,3.2,2.8l.68-7.12Zm-5.54,14.63a4.07,4.07,0,0,0,1.1-2.71,5.62,5.62,0,0,0-.53-3.2,3.31,3.31,0,0,0-2-1.73,2.11,2.11,0,0,0-2.18.48,4,4,0,0,0-1.1,2.71,5.62,5.62,0,0,0,.53,3.2,3.34,3.34,0,0,0,2,1.74A2.11,2.11,0,0,0,579.77,525.43Z"/>
            <path class="cls-2" d="M598,529.13l-8.53-2.58a4.61,4.61,0,0,0,.88,2.48,4,4,0,0,0,2.07,1.44,3.29,3.29,0,0,0,1.59.13,3,3,0,0,0,1.37-.69l1.51,3c-1.22,1.26-2.84,1.58-4.88,1a7.53,7.53,0,0,1-3.29-2,8.64,8.64,0,0,1-2-3.37,10.17,10.17,0,0,1-.42-4.14,8.07,8.07,0,0,1,1.16-3.64,4.89,4.89,0,0,1,2.41-2.05,4.83,4.83,0,0,1,3.17,0,6.66,6.66,0,0,1,2.91,1.84,8.35,8.35,0,0,1,1.85,3.29,10.84,10.84,0,0,1,.38,4.26S598.08,528.44,598,529.13Zm-7.2-7a3.08,3.08,0,0,0-1.14,2l5.56,1.68a4.82,4.82,0,0,0-.71-2.5,3.13,3.13,0,0,0-1.77-1.39A2.11,2.11,0,0,0,590.77,522.1Z"/>
            <path class="cls-2" d="M613.05,519.2l-1.93,20.22-3.13-.94.17-1.69a3.35,3.35,0,0,1-3.71.84,6.12,6.12,0,0,1-2.79-1.8,8.15,8.15,0,0,1-1.77-3.26,11.12,11.12,0,0,1-.36-4.2,9,9,0,0,1,1.12-3.76,4.6,4.6,0,0,1,2.27-2,4.43,4.43,0,0,1,3-.05,5.12,5.12,0,0,1,3.21,2.79l.68-7.11Zm-5.54,14.63a4.07,4.07,0,0,0,1.1-2.71,5.64,5.64,0,0,0-.53-3.21,3.29,3.29,0,0,0-2-1.72,2.11,2.11,0,0,0-2.19.47,4.09,4.09,0,0,0-1.09,2.71,5.56,5.56,0,0,0,.53,3.21,3.26,3.26,0,0,0,2,1.73A2.09,2.09,0,0,0,607.51,533.83Z"/>
          </g>
        </g>
        <polygon class="cls-4" points="731.8 626.58 694.77 576.94 811.55 557.67 775.22 629.96 734.18 637.37 731.8 626.58"/>
        <polygon class="cls-1" points="718.13 585.66 740.93 616.24 776.33 628.84 804.69 570.83 718.13 585.66"/>
        <path class="cls-5" d="M734.84,636.71c-6-14.33-11.67-35,4-46.33,5.06-3.08,16.81,5.92,14.56,27.17"/>
        <path class="cls-6" d="M1027.15,433.44c30.13,6.21,60,14.86,97,26.94"/>
        <path class="cls-6" d="M954.17,423c9.79.85,19.13,1.84,28.16,3"/>
        <polyline class="cls-5" points="942.69 493.12 984.5 459.04 1087.17 493.04 1036.51 536.71 948.13 503.35"/>
        <path class="cls-5" d="M1036.69,536.87,933.61,499l-9.78-72.9,96.66,35.54a11.33,11.33,0,0,1,7.33,9.13Z"/>
        <path class="cls-6" d="M685.5,421s20.66-.95,36-1.54"/>
        <path class="cls-6" d="M830.48,417.72c-10.6-.25-18.31-.38-29.11-.38q-19.83,0-39.21.56"/>
        <path class="cls-7" d="M721.5,244.38l.52.19c18.89,7.24,37.06,23.52,39,43.64l6.65,68.64A125.83,125.83,0,0,1,759,416.78l-11.19,27.93c2.67-7.94-6.9-15.23-15.61-16.36"/>
        <polyline class="cls-6" points="721.94 616.07 694.11 577.03 806.05 558.26"/>
        <path class="cls-6" d="M808,558.21l-114.9,18V503.38A7.5,7.5,0,0,1,699.6,496L816,480.11a6.76,6.76,0,0,1,7.67,6.68l.1,50.85"/>
        <path class="cls-5" d="M460.15,573.05l39.5-32.6,115.61,38.29L564,622.93a12.79,12.79,0,0,1-12.9,2.27l-84.26-32.15"/>
        <path class="cls-5" d="M714.64,409.51l-44.31,14.67a4.56,4.56,0,0,0-1.55,7.78l44.58,38.42L801.73,437"/>
        <path class="cls-6" d="M504.23,465.1a3.94,3.94,0,0,1,5.07-3.54L615.52,493.5a9.7,9.7,0,0,1,6.87,10.21l-7.13,75L499.65,540.45Z"/>
        <path class="cls-1" d="M714.49,459.72l-34.67-29.67,32.08-11c-4,10-6.41,20,5.25,28.33C716.49,450.38,714.49,459.72,714.49,459.72Z"/>
        <g>
          <polygon class="cls-1" points="545.81 566.47 529.82 560.53 518.52 569.52 534.51 575.45 545.81 566.47"/>
          <polygon class="cls-1" points="507.83 596.66 518 588.57 502.01 582.64 491.84 590.73 507.83 596.66"/>
          <polygon class="cls-1" points="505.18 580.12 521.17 586.06 531.34 577.97 515.35 572.04 505.18 580.12"/>
          <polygon class="cls-1" points="567.25 587.6 581.97 593.06 593.27 584.08 578.55 578.61 567.25 587.6"/>
          <polygon class="cls-1" points="555.71 587.01 539.72 581.08 529.55 589.16 545.54 595.1 555.71 587.01"/>
          <polygon class="cls-1" points="480.3 570.89 496.8 577.02 506.98 568.93 490.48 562.81 480.3 570.89"/>
          <polygon class="cls-1" points="578.8 595.58 564.08 590.12 553.91 598.2 568.63 603.66 578.8 595.58"/>
          <polygon class="cls-1" points="550.75 600.72 540.57 608.81 555.29 614.27 565.46 606.18 550.75 600.72"/>
          <polygon class="cls-1" points="493.64 579.53 477.13 573.41 466.96 581.5 483.46 587.62 493.64 579.53"/>
          <polygon class="cls-1" points="554.19 569.58 542.89 578.56 558.88 584.49 570.18 575.51 554.19 569.58"/>
          <polygon class="cls-1" points="510.14 566.41 521.45 557.43 504.95 551.31 493.64 560.29 510.14 566.41"/>
          <polygon class="cls-1" points="542.37 597.61 526.38 591.68 516.21 599.77 532.2 605.7 542.37 597.61"/>
        </g>
        <path class="cls-1" d="M705.61,143.61c14.73,2.93,22.23,6.18,26.48,26.68,4,25.25-4.5,59-12.75,74.25-1.25,1.75-42.75,38.25-42.75,38.25l-69.25-27.25.25-24.75c7.5,8.75,28,31.75,63.75,21.5,19.5-6,30.43-15.17,34.84-56.71,1.91-2.29,4.16-13.54,3.91-34.79a24.47,24.47,0,0,0-3.47-11.18Z"/>
        <path class="cls-5" d="M712.17,470.38l13.22-60a11.62,11.62,0,0,1,7.4-8.43l87.48-31.6a3.27,3.27,0,0,1,4.31,3.78l-13.31,60.41-93.73,33.86"/>
        <g>
          <path class="cls-8" d="M1213.33,502.53a24.34,24.34,0,0,1-1.56,9.13,107.06,107.06,0,0,0-23.34-20.55,31.25,31.25,0,0,0,2.27-11.73V373.87a84,84,0,0,0-70.73-83,101.19,101.19,0,0,1,23.79-2.86c61.65-.15,67.85,68.59,68.45,94.86Z"/>
          <g>
            <g>
              <polygon class="cls-9" points="1201.56 272.17 1170.49 321.86 1178.84 329.04 1204.48 273.93 1201.56 272.17"/>
              <path class="cls-10" d="M1198.16,263.55a10,10,0,1,0,11-8.87A10,10,0,0,0,1198.16,263.55Z"/>
            </g>
            <g>
              <polygon class="cls-9" points="990.23 248.16 1011.5 304.38 1001.03 311.95 987.01 249.26 990.23 248.16"/>
              <path class="cls-10" d="M995.37,240.46a10,10,0,1,1-8.87-11A10,10,0,0,1,995.37,240.46Z"/>
            </g>
          </g>
          <path class="cls-7" d="M1190.69,469.71V373.87a84,84,0,0,0-84-84h-55.91a65.37,65.37,0,0,0-65.37,65.37V375s2.43,49-8.07,55"/>
          <path class="cls-11" d="M1034.48,236.44v47.47c0,22,16.68,41,38.72,41H1100c22,0,41.33-19,41.33-41V243.12L1135,184.81l-44.54-10.32-49,6.88-12,10.32,5,44.75"/>
          <path class="cls-12" d="M1088.91,351h0c-44.18,0-80-22.17-80-48.17V187.8c0-37.06,31.16-67.09,69.59-67.09h20.81c38.43,0,69.58,30,69.58,67.09V313.57C1168.9,325.8,1133.09,351,1088.91,351Z"/>
          <path class="cls-13" d="M1102.59,153.12c-18.93-2.78-31.52,1.64-48.43,11.69-13.1,7.79-25-6.64-25-6.64-9.46,26.16-1.4,76.44,5.28,85.13V202c4.93-18,12.57,3.06,26.72,2.29,19.7-1.07,22.4-7.75,34.4-2.29,21,9.55,12.61,37.83,25,39.8,23.31,3.73,20.78,24.42,20.78,24.42h0c6.75-10,8-58,5-73.9C1143.17,175.64,1131.17,157.33,1102.59,153.12Z"/>
          <path class="cls-6" d="M1043.64,249.68c.28-4.94,3.83-8.76,7.94-8.53s7.21,4.42,6.94,9.36"/>
          <path class="cls-6" d="M1071.83,251.8c.28-4.93,3.87-8.75,8-8.52s7.3,4.43,7,9.37"/>
          <path class="cls-14" d="M1115.42,450.06l-33.72-5a2.65,2.65,0,0,1-2.25-2.61V380.37a2.65,2.65,0,0,1,3-2.61l33.72,5.05a2.63,2.63,0,0,1,2.24,2.6v62A2.63,2.63,0,0,1,1115.42,450.06Z"/>
          <path class="cls-15" d="M1101.7,424.46l-14.38-2.15a1.13,1.13,0,0,1-1-1.11V394.74a1.13,1.13,0,0,1,1.29-1.12l14.38,2.15a1.14,1.14,0,0,1,1,1.12v26.45A1.13,1.13,0,0,1,1101.7,424.46Z"/>
          <line class="cls-16" x1="1024.4" y1="385.05" x2="1024.4" y2="416.04"/>
          <path class="cls-7" d="M1088.11,281.06c-1,1.53-7.7,11-19.9,12.53s-20.49-6-21.81-7.19"/>
          <path class="cls-5" d="M1071.61,492.23c7.94-1.06,14.75-1.89,14.75-1.89l8.09,23.05s-15.19,5.67-20.45,6.87c-13.63,3.1-25.33-1.17-27.35-5.64l-2.7-6c-2.43-5.37.47-12,6.25-13.16,4.47-.91,13.5-2.19,21.41-3.24"/>
          <path class="cls-17" d="M1129.91,412.58V449a23,23,0,0,1-13.17,20.79L1074,490.06s3.78,1.95,10.7,12.23c6.31,9.37,2.87,16.25,2.87,16.25l76.82-8.15a31.42,31.42,0,0,0,26.3-31v-66.8"/>
          <path class="cls-18" d="M1177,480.38a15.33,15.33,0,0,1-12.9,16.72l-7.71,1.19a13,13,0,0,0-11,11.95c0,3.19,3,4.92,6.19,4.6,0,0,18.67-2.59,24.92-4.32,13-3.61,15.43-11.43,16-19.08.54-6.93,1.61-27.76,1.61-27.76a3.59,3.59,0,0,0-4.51-3.47l-2.76.9a14.92,14.92,0,0,0-10.24,15.74Z"/>
        </g>
        <g>
          <g>
            <path class="cls-2" d="M364.64,524.93h12.61c27.39,0,49.6-10.61,49.6-38V430.58A49.6,49.6,0,0,0,377.25,381H364.64A49.6,49.6,0,0,0,315,430.58v56.35C315,514.32,337.25,524.93,364.64,524.93Z"/>
            <path class="cls-7" d="M364.64,524.93h12.61c27.39,0,49.6-10.61,49.6-38V430.58A49.6,49.6,0,0,0,377.25,381H364.64A49.6,49.6,0,0,0,315,430.58v56.35C315,514.32,337.25,524.93,364.64,524.93Z"/>
          </g>
          <g>
            <path class="cls-1" d="M390.19,440.26l8.38-17.15a21.77,21.77,0,0,0-2.08.76c-15.82,6.63-30.73,32.33-30.73,32.33s-12.72-13.73-23.91.5c-7.43,9.44,3.57,26.46,3.57,26.46l-12.09,32.2s-2.56,26.15-17.12-8a120.9,120.9,0,0,1-7.16-24.09c-3.35,1-6.81,1.33-10.61,1.95,0,0,8.3-14.72-6-26.46s4.58-19.87,0-32.59-21.67-32.55-1.53-60.57c15.32-21.3,38.19-13.73,38.19-13.73a32.89,32.89,0,0,1,13.16,7.57c18.26-3,41,.88,56.27,2.11,25.68,2,34.39,26.45,39,53.43S390.19,440.26,390.19,440.26Z"/>
            <path class="cls-7" d="M390.19,440.26l8.38-17.15a21.77,21.77,0,0,0-2.08.76c-15.82,6.63-30.73,32.33-30.73,32.33s-12.72-13.73-23.91.5c-7.43,9.44,3.57,26.46,3.57,26.46l-12.09,32.2s-2.56,26.15-17.12-8a120.9,120.9,0,0,1-7.16-24.09c7.78-2.39,15-8.74,24.66-32.16,10.7-26-11.34-30.82,1.51-42.24,20.71-18.34,18.89-38.2,7.08-49.43,18.26-3,41,.88,56.27,2.11,25.68,2,34.39,26.45,39,53.43S390.19,440.26,390.19,440.26Z"/>
            <path class="cls-7" d="M329.13,351.85c21.81,6.64,33.08,33.09,6.1,57-12.87,11.41,9.17,16.28-1.52,42.24-13.83,33.57-22.7,32.07-35.27,34.11,0,0,8.29-14.73-6-26.45s4.58-19.88,0-32.6-21.67-32.54-1.53-60.57C306.27,344.29,329.13,351.85,329.13,351.85Z"/>
          </g>
          <path class="cls-7" d="M272.81,415.56c0-48.93,30.63-83.36,73.86-83.36h16.19a82.71,82.71,0,0,1,82.67,83.36v93h0c0,28.92-39.34,39.79-87,39.79s-85.68-10.87-85.68-39.79h0Z"/>
        </g>
        <g>
          <g>
            <g>
              <path class="cls-1" d="M334.3,729.92a4.37,4.37,0,0,1-4.24,5.42H274.2a3.85,3.85,0,0,1-3.77-4.91L281,693.77h44.3Z"/>
              <path class="cls-1" d="M312.45,693.77H293.7c-19.6,0-26.89-15.89-26.89-35.49V525.51A35.47,35.47,0,0,1,302.29,490h0a35.47,35.47,0,0,1,35.48,35.48V658.28C337.77,677.88,332.05,693.77,312.45,693.77Z"/>
            </g>
            <path class="cls-19" d="M334.3,729.92a4.37,4.37,0,0,1-4.24,5.42H274.2a3.85,3.85,0,0,1-3.77-4.91L281,693.77h44.3Z"/>
            <path class="cls-19" d="M312.45,693.77H293.7c-19.6,0-26.89-15.89-26.89-35.49V525.51A35.47,35.47,0,0,1,302.29,490h0a35.47,35.47,0,0,1,35.48,35.48V658.28C337.77,677.88,332.05,693.77,312.45,693.77Z"/>
          </g>
          <g>
            <g>
              <path class="cls-1" d="M387.82,737.92a4.37,4.37,0,0,1-4.24,5.42H327.72a3.85,3.85,0,0,1-3.77-4.91l10.57-36.66h44.3Z"/>
              <path class="cls-1" d="M366,701.77H347.22c-19.6,0-26.89-15.89-26.89-35.49V533.51A35.48,35.48,0,0,1,355.81,498h0a35.47,35.47,0,0,1,35.48,35.48V666.28C391.29,685.88,385.57,701.77,366,701.77Z"/>
            </g>
            <path class="cls-19" d="M387.82,737.92a4.37,4.37,0,0,1-4.24,5.42H327.72a3.85,3.85,0,0,1-3.77-4.91l10.57-36.66h44.3Z"/>
            <path class="cls-19" d="M366,701.77H347.22c-19.6,0-26.89-15.89-26.89-35.49V533.51A35.48,35.48,0,0,1,355.81,498h0a35.47,35.47,0,0,1,35.48,35.48V666.28C391.29,685.88,385.57,701.77,366,701.77Z"/>
          </g>
        </g>
        <path class="cls-13" d="M294,775.13c-33.85-8-65.77-19.53-65.77-54.26V664.39c0-29.84,4.78-106.24,58.73-103.3,69.74,3.8,111.12,78,111.12,122.35v60.79C398.12,798.84,330.79,783.8,294,775.13Z"/>
        <path class="cls-13" d="M937.5,821.07c34.74-7.47,69.51-18.74,68.73-53.12l-1.2-52.82c-.64-28.18-7.09-96.49-70.62-91-61.54,5.27-102.48,58.45-101.53,100.36l1.56,68.77C835.34,832.6,887.32,831.86,937.5,821.07Z"/>
        <path class="cls-7" d="M606.75,464.47c-41.28-40.1-57.9-51-57.61-84l.69-63.46c0-28.53,16.51-56,35-60.66"/>
        <path class="cls-6" d="M603.24,380.35a51.73,51.73,0,0,0,7.56,29.53l21.58,38.27c-9.78-7.54-29.59,6.41-22.57,19.3l-3.06-3"/>
        <path class="cls-6" d="M724.5,350v33.5l-13,36.17s-8.33,19.33,5.67,26.67l7-30.33"/>
        <path class="cls-7" d="M605.77,228.35c.09,11.89.78,21.83,1.07,28l70,27.34,43.5-39.17c10.27-22.59,17.78-68.21,7.25-91.25"/>
        <path class="cls-7" d="M589.17,268.38c-8-34-16-121.41,22.67-174.34,16-22.26,62.13-17.57,97.44,22.76C723.5,133,727.5,153.71,727.5,153.71"/>
        <line class="cls-7" x1="646.17" y1="319.54" x2="646.17" y2="272.78"/>
        <line class="cls-7" x1="694.51" y1="300.04" x2="694.51" y2="268.38"/>
        <path class="cls-5" d="M652.71,456.11a8.12,8.12,0,0,1,4.18,11.41l-9.38,17.33a7.76,7.76,0,0,1-11.5,2.48l-26.2-19.88-.57-1.21c-4.59-11,9.43-22.27,19.33-19.89l3.81,1.79Z"/>
        <path class="cls-6" d="M706.79,151.14a46,46,0,0,0-1.18-7.53"/>
        <path class="cls-6" d="M605.76,226.44h0c0,.92,0,1.82,0,2.71,11.57,15.38,34.43,29.45,55.07,25.88,26-4.5,41-13.5,45.55-60.53"/>
        <path class="cls-9" d="M709.84,175c-.59,8.43.3,16.45-2.84,19.75-.26.27-.53.55-.82.82-4.28,4.14-11.53,8.59-23.74,12.62-28.65,9.46-54.85-2.37-68.82-11.7a86.65,86.65,0,0,1,20.72-28.3,62.89,62.89,0,0,0,9.79,3c20.38,4.4,65.43-1.74,62.49-21.54l0,0C711.85,152.82,710.58,164.25,709.84,175Z"/>
        <g>
          <path class="cls-20" d="M700.88,209.67a1.27,1.27,0,1,0-1.47-1A1.27,1.27,0,0,0,700.88,209.67Z"/>
          <g>
            <path class="cls-20" d="M701.94,216a1.28,1.28,0,1,0-1.47-1.05A1.28,1.28,0,0,0,701.94,216Z"/>
            <path class="cls-20" d="M700.88,209.67a1.27,1.27,0,1,0-1.47-1A1.27,1.27,0,0,0,700.88,209.67Z"/>
            <path class="cls-20" d="M694.58,210.74a1.28,1.28,0,1,0-1.47-1.05A1.28,1.28,0,0,0,694.58,210.74Z"/>
            <path class="cls-20" d="M698.26,213.35a1.27,1.27,0,1,0-1.47-1A1.27,1.27,0,0,0,698.26,213.35Z"/>
          </g>
          <path class="cls-20" d="M696.71,223.33a1.28,1.28,0,1,0-1.47-1.05A1.28,1.28,0,0,0,696.71,223.33Z"/>
          <g>
            <path class="cls-20" d="M700.88,209.67a1.27,1.27,0,1,0-1.47-1A1.27,1.27,0,0,0,700.88,209.67Z"/>
            <path class="cls-20" d="M694.58,210.74a1.28,1.28,0,1,0-1.47-1.05A1.28,1.28,0,0,0,694.58,210.74Z"/>
            <path class="cls-20" d="M688.29,211.8a1.28,1.28,0,1,0-1.48-1.05A1.28,1.28,0,0,0,688.29,211.8Z"/>
            <path class="cls-20" d="M697.2,207.06a1.28,1.28,0,1,0-.43-2.52,1.28,1.28,0,0,0,.43,2.52Z"/>
          </g>
          <g>
            <path class="cls-20" d="M696.71,223.33a1.28,1.28,0,1,0-1.47-1.05A1.28,1.28,0,0,0,696.71,223.33Z"/>
            <path class="cls-20" d="M690.41,224.39a1.27,1.27,0,0,0,1.05-1.47,1.28,1.28,0,1,0-2.52.43A1.28,1.28,0,0,0,690.41,224.39Z"/>
            <path class="cls-20" d="M701.94,216a1.28,1.28,0,1,0-1.47-1.05A1.28,1.28,0,0,0,701.94,216Z"/>
            <path class="cls-20" d="M695.64,217a1.27,1.27,0,1,0-1.47-1A1.27,1.27,0,0,0,695.64,217Z"/>
            <path class="cls-20" d="M689.35,218.1a1.28,1.28,0,1,0-.43-2.52,1.28,1.28,0,0,0,.43,2.52Z"/>
            <path class="cls-20" d="M700.88,209.67a1.27,1.27,0,1,0-1.47-1A1.27,1.27,0,0,0,700.88,209.67Z"/>
            <path class="cls-20" d="M694.58,210.74a1.28,1.28,0,1,0-1.47-1.05A1.28,1.28,0,0,0,694.58,210.74Z"/>
            <path class="cls-20" d="M688.29,211.8a1.28,1.28,0,1,0-1.48-1.05A1.28,1.28,0,0,0,688.29,211.8Z"/>
            <path class="cls-20" d="M682,212.86a1.27,1.27,0,1,0-.43-2.51,1.27,1.27,0,0,0,.43,2.51Z"/>
            <path class="cls-20" d="M693,220.71a1.28,1.28,0,0,0,1.05-1.47,1.3,1.3,0,0,0-1.48-1.05,1.28,1.28,0,0,0-1,1.48A1.27,1.27,0,0,0,693,220.71Z"/>
            <path class="cls-20" d="M699.33,219.65a1.28,1.28,0,1,0-1.48-1.05A1.28,1.28,0,0,0,699.33,219.65Z"/>
            <path class="cls-20" d="M692,214.42a1.28,1.28,0,1,0-1.48-1A1.28,1.28,0,0,0,692,214.42Z"/>
            <path class="cls-20" d="M698.26,213.35a1.27,1.27,0,1,0-1.47-1A1.27,1.27,0,0,0,698.26,213.35Z"/>
            <path class="cls-20" d="M685.67,215.48a1.28,1.28,0,1,0-.43-2.52,1.28,1.28,0,0,0,.43,2.52Z"/>
          </g>
          <g>
            <path class="cls-20" d="M692.54,237a1.28,1.28,0,0,0,1-1.48,1.27,1.27,0,1,0-2.51.43A1.28,1.28,0,0,0,692.54,237Z"/>
            <path class="cls-20" d="M697.77,229.63a1.28,1.28,0,1,0-.43-2.52,1.28,1.28,0,0,0,.43,2.52Z"/>
            <path class="cls-20" d="M691.48,230.69a1.28,1.28,0,1,0-1.48-1.05A1.28,1.28,0,0,0,691.48,230.69Z"/>
            <path class="cls-20" d="M696.71,223.33a1.28,1.28,0,1,0-1.47-1.05A1.28,1.28,0,0,0,696.71,223.33Z"/>
            <path class="cls-20" d="M690.41,224.39a1.27,1.27,0,0,0,1.05-1.47,1.28,1.28,0,1,0-2.52.43A1.28,1.28,0,0,0,690.41,224.39Z"/>
            <path class="cls-20" d="M684.11,225.46a1.28,1.28,0,1,0-1.47-1.05A1.29,1.29,0,0,0,684.11,225.46Z"/>
            <path class="cls-20" d="M695.15,233.31a1.28,1.28,0,1,0-1.47-1.05A1.28,1.28,0,0,0,695.15,233.31Z"/>
            <path class="cls-20" d="M694.09,227a1.29,1.29,0,0,0,1-1.47,1.28,1.28,0,1,0-1,1.47Z"/>
            <path class="cls-20" d="M687.79,228.07a1.27,1.27,0,0,0,1.05-1.47,1.28,1.28,0,1,0-2.52.43A1.28,1.28,0,0,0,687.79,228.07Z"/>
          </g>
          <g>
            <path class="cls-20" d="M692.54,237a1.28,1.28,0,0,0,1-1.48,1.27,1.27,0,1,0-2.51.43A1.28,1.28,0,0,0,692.54,237Z"/>
            <path class="cls-20" d="M686.24,238.05a1.28,1.28,0,1,0-1.47-1.05A1.28,1.28,0,0,0,686.24,238.05Z"/>
          </g>
          <g>
            <path class="cls-20" d="M688.29,211.8a1.28,1.28,0,1,0-1.48-1.05A1.28,1.28,0,0,0,688.29,211.8Z"/>
            <path class="cls-20" d="M682,212.86a1.27,1.27,0,1,0-.43-2.51,1.27,1.27,0,0,0,.43,2.51Z"/>
          </g>
          <g>
            <path class="cls-20" d="M690.41,224.39a1.27,1.27,0,0,0,1.05-1.47,1.28,1.28,0,1,0-2.52.43A1.28,1.28,0,0,0,690.41,224.39Z"/>
            <path class="cls-20" d="M684.11,225.46a1.28,1.28,0,1,0-1.47-1.05A1.29,1.29,0,0,0,684.11,225.46Z"/>
            <path class="cls-20" d="M677.82,226.52a1.28,1.28,0,1,0-.43-2.52,1.28,1.28,0,0,0,.43,2.52Z"/>
            <path class="cls-20" d="M689.35,218.1a1.28,1.28,0,1,0-.43-2.52,1.28,1.28,0,0,0,.43,2.52Z"/>
            <path class="cls-20" d="M683.05,219.16a1.28,1.28,0,1,0-1.47-1A1.28,1.28,0,0,0,683.05,219.16Z"/>
            <path class="cls-20" d="M676.75,220.22a1.27,1.27,0,0,0,1-1.47,1.28,1.28,0,1,0-1,1.47Z"/>
            <path class="cls-20" d="M688.29,211.8a1.28,1.28,0,1,0-1.48-1.05A1.28,1.28,0,0,0,688.29,211.8Z"/>
            <path class="cls-20" d="M682,212.86a1.27,1.27,0,1,0-.43-2.51,1.27,1.27,0,0,0,.43,2.51Z"/>
            <path class="cls-20" d="M680.44,222.84a1.28,1.28,0,1,0-1.48-1.05A1.28,1.28,0,0,0,680.44,222.84Z"/>
            <path class="cls-20" d="M686.73,221.78a1.28,1.28,0,1,0-1.47-1.05A1.28,1.28,0,0,0,686.73,221.78Z"/>
            <path class="cls-20" d="M679.37,216.54a1.27,1.27,0,0,0,1-1.47,1.28,1.28,0,1,0-2.52.43A1.28,1.28,0,0,0,679.37,216.54Z"/>
            <path class="cls-20" d="M685.67,215.48a1.28,1.28,0,1,0-.43-2.52,1.28,1.28,0,0,0,.43,2.52Z"/>
            <path class="cls-20" d="M673.08,217.61a1.28,1.28,0,1,0-1.48-1.05A1.3,1.3,0,0,0,673.08,217.61Z"/>
          </g>
          <g>
            <path class="cls-20" d="M692.54,237a1.28,1.28,0,0,0,1-1.48,1.27,1.27,0,1,0-2.51.43A1.28,1.28,0,0,0,692.54,237Z"/>
            <path class="cls-20" d="M686.24,238.05a1.28,1.28,0,1,0-1.47-1.05A1.28,1.28,0,0,0,686.24,238.05Z"/>
            <path class="cls-20" d="M679.94,239.11a1.28,1.28,0,0,0-.42-2.52,1.3,1.3,0,0,0-1,1.48A1.28,1.28,0,0,0,679.94,239.11Z"/>
            <path class="cls-20" d="M691.48,230.69a1.28,1.28,0,1,0-1.48-1.05A1.28,1.28,0,0,0,691.48,230.69Z"/>
            <path class="cls-20" d="M685.18,231.75a1.28,1.28,0,0,0,1.05-1.47,1.3,1.3,0,0,0-1.48-1.05,1.28,1.28,0,0,0-1,1.48A1.27,1.27,0,0,0,685.18,231.75Z"/>
            <path class="cls-20" d="M678.88,232.82a1.28,1.28,0,1,0-.42-2.52,1.27,1.27,0,0,0-1.05,1.47A1.29,1.29,0,0,0,678.88,232.82Z"/>
            <path class="cls-20" d="M690.41,224.39a1.27,1.27,0,0,0,1.05-1.47,1.28,1.28,0,1,0-2.52.43A1.28,1.28,0,0,0,690.41,224.39Z"/>
            <path class="cls-20" d="M684.11,225.46a1.28,1.28,0,1,0-1.47-1.05A1.29,1.29,0,0,0,684.11,225.46Z"/>
            <path class="cls-20" d="M677.82,226.52a1.28,1.28,0,1,0-.43-2.52,1.28,1.28,0,0,0,.43,2.52Z"/>
            <path class="cls-20" d="M671.52,227.58a1.27,1.27,0,0,0,1.05-1.47,1.28,1.28,0,1,0-1.05,1.47Z"/>
            <path class="cls-20" d="M682.56,235.43a1.27,1.27,0,0,0,1.05-1.47,1.28,1.28,0,1,0-2.52.43A1.28,1.28,0,0,0,682.56,235.43Z"/>
            <path class="cls-20" d="M688.86,234.37a1.28,1.28,0,1,0-.43-2.52,1.28,1.28,0,0,0,.43,2.52Z"/>
            <path class="cls-20" d="M681.5,229.14a1.3,1.3,0,0,0,1-1.48,1.28,1.28,0,1,0-1,1.48Z"/>
            <path class="cls-20" d="M687.79,228.07a1.27,1.27,0,0,0,1.05-1.47,1.28,1.28,0,1,0-2.52.43A1.28,1.28,0,0,0,687.79,228.07Z"/>
            <path class="cls-20" d="M675.2,230.2a1.28,1.28,0,1,0-1.47-1A1.28,1.28,0,0,0,675.2,230.2Z"/>
          </g>
          <g>
            <path class="cls-20" d="M681,245.41a1.28,1.28,0,1,0-1.47-1A1.28,1.28,0,0,0,681,245.41Z"/>
            <path class="cls-20" d="M692.54,237a1.28,1.28,0,0,0,1-1.48,1.27,1.27,0,1,0-2.51.43A1.28,1.28,0,0,0,692.54,237Z"/>
            <path class="cls-20" d="M686.24,238.05a1.28,1.28,0,1,0-1.47-1.05A1.28,1.28,0,0,0,686.24,238.05Z"/>
            <path class="cls-20" d="M679.94,239.11a1.28,1.28,0,0,0-.42-2.52,1.3,1.3,0,0,0-1,1.48A1.28,1.28,0,0,0,679.94,239.11Z"/>
            <path class="cls-20" d="M673.65,240.18a1.3,1.3,0,0,0,1.05-1.48,1.28,1.28,0,0,0-1.48-1,1.27,1.27,0,0,0-1,1.47A1.28,1.28,0,0,0,673.65,240.18Z"/>
            <path class="cls-20" d="M683.62,241.73a1.28,1.28,0,1,0-1.47-1A1.28,1.28,0,0,0,683.62,241.73Z"/>
            <path class="cls-20" d="M677.33,242.79a1.28,1.28,0,1,0-1.47-1A1.27,1.27,0,0,0,677.33,242.79Z"/>
          </g>
          <g>
            <path class="cls-20" d="M677.82,226.52a1.28,1.28,0,1,0-.43-2.52,1.28,1.28,0,0,0,.43,2.52Z"/>
            <path class="cls-20" d="M671.52,227.58a1.27,1.27,0,0,0,1.05-1.47,1.28,1.28,0,1,0-1.05,1.47Z"/>
            <path class="cls-20" d="M665.23,228.64a1.27,1.27,0,0,0-.43-2.51,1.27,1.27,0,1,0,.43,2.51Z"/>
            <path class="cls-20" d="M676.75,220.22a1.27,1.27,0,0,0,1-1.47,1.28,1.28,0,1,0-1,1.47Z"/>
            <path class="cls-20" d="M670.46,221.29a1.28,1.28,0,1,0-.43-2.52,1.28,1.28,0,0,0,.43,2.52Z"/>
            <path class="cls-20" d="M664.16,222.35a1.28,1.28,0,1,0-1.47-1A1.28,1.28,0,0,0,664.16,222.35Z"/>
            <path class="cls-20" d="M656.8,217.12a1.28,1.28,0,1,0-1.47-1.05A1.28,1.28,0,0,0,656.8,217.12Z"/>
            <path class="cls-20" d="M667.84,225a1.28,1.28,0,1,0-.42-2.52,1.27,1.27,0,0,0-1,1.47A1.29,1.29,0,0,0,667.84,225Z"/>
            <path class="cls-20" d="M674.14,223.9a1.28,1.28,0,0,0,1.05-1.47,1.3,1.3,0,0,0-1.48-1.05,1.28,1.28,0,0,0-1,1.48A1.27,1.27,0,0,0,674.14,223.9Z"/>
            <path class="cls-20" d="M666.78,218.67a1.28,1.28,0,1,0-1.47-1A1.28,1.28,0,0,0,666.78,218.67Z"/>
            <path class="cls-20" d="M673.08,217.61a1.28,1.28,0,1,0-1.48-1.05A1.3,1.3,0,0,0,673.08,217.61Z"/>
            <path class="cls-20" d="M660.48,219.73a1.27,1.27,0,0,0,1-1.47,1.28,1.28,0,1,0-1,1.47Z"/>
          </g>
          <g>
            <path class="cls-20" d="M679.94,239.11a1.28,1.28,0,0,0-.42-2.52,1.3,1.3,0,0,0-1,1.48A1.28,1.28,0,0,0,679.94,239.11Z"/>
            <path class="cls-20" d="M673.65,240.18a1.3,1.3,0,0,0,1.05-1.48,1.28,1.28,0,0,0-1.48-1,1.27,1.27,0,0,0-1,1.47A1.28,1.28,0,0,0,673.65,240.18Z"/>
            <path class="cls-20" d="M667.35,241.24a1.28,1.28,0,1,0-1.47-1.05A1.28,1.28,0,0,0,667.35,241.24Z"/>
            <path class="cls-20" d="M678.88,232.82a1.28,1.28,0,1,0-.42-2.52,1.27,1.27,0,0,0-1.05,1.47A1.29,1.29,0,0,0,678.88,232.82Z"/>
            <path class="cls-20" d="M672.58,233.88a1.28,1.28,0,1,0-1.47-1A1.28,1.28,0,0,0,672.58,233.88Z"/>
            <path class="cls-20" d="M666.29,234.94a1.28,1.28,0,1,0-1.47-1.05A1.28,1.28,0,0,0,666.29,234.94Z"/>
            <path class="cls-20" d="M677.82,226.52a1.28,1.28,0,1,0-.43-2.52,1.28,1.28,0,0,0,.43,2.52Z"/>
            <path class="cls-20" d="M671.52,227.58a1.27,1.27,0,0,0,1.05-1.47,1.28,1.28,0,1,0-1.05,1.47Z"/>
            <path class="cls-20" d="M665.23,228.64a1.27,1.27,0,0,0-.43-2.51,1.27,1.27,0,1,0,.43,2.51Z"/>
            <path class="cls-20" d="M658.93,229.71a1.28,1.28,0,1,0-1.47-1.05A1.28,1.28,0,0,0,658.93,229.71Z"/>
            <path class="cls-20" d="M670,237.56a1.28,1.28,0,1,0-.43-2.52,1.28,1.28,0,0,0,.43,2.52Z"/>
            <path class="cls-20" d="M676.26,236.5a1.28,1.28,0,1,0-1.47-1.05A1.28,1.28,0,0,0,676.26,236.5Z"/>
            <path class="cls-20" d="M668.91,231.26a1.28,1.28,0,0,0-.43-2.52,1.28,1.28,0,1,0,.43,2.52Z"/>
            <path class="cls-20" d="M675.2,230.2a1.28,1.28,0,1,0-1.47-1A1.28,1.28,0,0,0,675.2,230.2Z"/>
            <path class="cls-20" d="M662.61,232.32a1.27,1.27,0,1,0-1.47-1A1.27,1.27,0,0,0,662.61,232.32Z"/>
          </g>
          <g>
            <path class="cls-20" d="M681,245.41a1.28,1.28,0,1,0-1.47-1A1.28,1.28,0,0,0,681,245.41Z"/>
            <path class="cls-20" d="M674.71,246.47a1.28,1.28,0,1,0-1.47-1.05A1.28,1.28,0,0,0,674.71,246.47Z"/>
            <path class="cls-20" d="M668.42,247.54a1.28,1.28,0,1,0-1.48-1A1.3,1.3,0,0,0,668.42,247.54Z"/>
            <path class="cls-20" d="M679.94,239.11a1.28,1.28,0,0,0-.42-2.52,1.3,1.3,0,0,0-1,1.48A1.28,1.28,0,0,0,679.94,239.11Z"/>
            <path class="cls-20" d="M673.65,240.18a1.3,1.3,0,0,0,1.05-1.48,1.28,1.28,0,0,0-1.48-1,1.27,1.27,0,0,0-1,1.47A1.28,1.28,0,0,0,673.65,240.18Z"/>
            <path class="cls-20" d="M667.35,241.24a1.28,1.28,0,1,0-1.47-1.05A1.28,1.28,0,0,0,667.35,241.24Z"/>
            <path class="cls-20" d="M661.06,242.3a1.28,1.28,0,1,0-1.48-1.05A1.28,1.28,0,0,0,661.06,242.3Z"/>
            <path class="cls-20" d="M672.09,250.15a1.28,1.28,0,1,0-1.47-1.05A1.28,1.28,0,0,0,672.09,250.15Z"/>
            <path class="cls-20" d="M671,243.85a1.27,1.27,0,1,0-1.47-1A1.27,1.27,0,0,0,671,243.85Z"/>
            <path class="cls-20" d="M677.33,242.79a1.28,1.28,0,1,0-1.47-1A1.27,1.27,0,0,0,677.33,242.79Z"/>
            <path class="cls-20" d="M664.74,244.92a1.28,1.28,0,1,0-1.48-1A1.28,1.28,0,0,0,664.74,244.92Z"/>
          </g>
          <g>
            <path class="cls-20" d="M656.8,217.12a1.28,1.28,0,1,0-1.47-1.05A1.28,1.28,0,0,0,656.8,217.12Z"/>
            <path class="cls-20" d="M650.51,218.18a1.28,1.28,0,1,0-1.47-1.05A1.28,1.28,0,0,0,650.51,218.18Z"/>
          </g>
          <g>
            <path class="cls-20" d="M665.23,228.65a1.28,1.28,0,0,0,1-1.48,1.28,1.28,0,0,0-2.52.43A1.3,1.3,0,0,0,665.23,228.65Z"/>
            <path class="cls-20" d="M658.93,229.71a1.28,1.28,0,1,0-.43-2.52,1.28,1.28,0,0,0,.43,2.52Z"/>
            <path class="cls-20" d="M652.63,230.77a1.28,1.28,0,1,0-1.47-1.05A1.28,1.28,0,0,0,652.63,230.77Z"/>
            <path class="cls-20" d="M664.16,222.35a1.28,1.28,0,1,0-1.47-1A1.28,1.28,0,0,0,664.16,222.35Z"/>
            <path class="cls-20" d="M657.87,223.41a1.28,1.28,0,0,0-.43-2.52,1.3,1.3,0,0,0-1.05,1.48A1.28,1.28,0,0,0,657.87,223.41Z"/>
            <path class="cls-20" d="M651.57,224.48a1.28,1.28,0,1,0-.42-2.52,1.27,1.27,0,0,0-1,1.47A1.29,1.29,0,0,0,651.57,224.48Z"/>
            <path class="cls-20" d="M656.8,217.12a1.28,1.28,0,1,0-.42-2.52,1.27,1.27,0,0,0-1,1.47A1.29,1.29,0,0,0,656.8,217.12Z"/>
            <path class="cls-20" d="M650.51,218.18a1.28,1.28,0,1,0-1.47-1.05A1.28,1.28,0,0,0,650.51,218.18Z"/>
            <path class="cls-20" d="M644.21,219.24a1.28,1.28,0,1,0-1.47-1.05A1.27,1.27,0,0,0,644.21,219.24Z"/>
            <path class="cls-20" d="M655.25,227.09a1.28,1.28,0,1,0-.42-2.52,1.28,1.28,0,1,0,.42,2.52Z"/>
            <path class="cls-20" d="M661.55,226a1.28,1.28,0,1,0-1.48-1.05A1.28,1.28,0,0,0,661.55,226Z"/>
            <path class="cls-20" d="M654.19,220.8a1.28,1.28,0,0,0,1-1.48,1.27,1.27,0,1,0-2.51.43A1.28,1.28,0,0,0,654.19,220.8Z"/>
            <path class="cls-20" d="M660.48,219.73a1.27,1.27,0,0,0,1-1.47,1.28,1.28,0,1,0-1,1.47Z"/>
            <path class="cls-20" d="M647.89,221.86a1.28,1.28,0,1,0-1.47-1.05A1.28,1.28,0,0,0,647.89,221.86Z"/>
          </g>
          <g>
            <path class="cls-20" d="M667.35,241.24a1.28,1.28,0,1,0-1.47-1.05A1.28,1.28,0,0,0,667.35,241.24Z"/>
            <path class="cls-20" d="M661.06,242.3a1.28,1.28,0,1,0-1.48-1.05A1.28,1.28,0,0,0,661.06,242.3Z"/>
            <path class="cls-20" d="M654.76,243.36a1.27,1.27,0,1,0-.43-2.51,1.27,1.27,0,0,0,.43,2.51Z"/>
            <path class="cls-20" d="M666.29,234.94a1.28,1.28,0,1,0-1.47-1A1.27,1.27,0,0,0,666.29,234.94Z"/>
            <path class="cls-20" d="M660,236a1.28,1.28,0,1,0-.42-2.52,1.27,1.27,0,0,0-1.05,1.47A1.29,1.29,0,0,0,660,236Z"/>
            <path class="cls-20" d="M653.7,237.07a1.28,1.28,0,1,0-1.47-1A1.28,1.28,0,0,0,653.7,237.07Z"/>
            <path class="cls-20" d="M665.23,228.65a1.28,1.28,0,0,0,1-1.48,1.28,1.28,0,0,0-2.52.43A1.3,1.3,0,0,0,665.23,228.65Z"/>
            <path class="cls-20" d="M658.93,229.71a1.28,1.28,0,1,0-.43-2.52,1.28,1.28,0,0,0,.43,2.52Z"/>
            <path class="cls-20" d="M652.63,230.77a1.28,1.28,0,1,0-1.47-1A1.28,1.28,0,0,0,652.63,230.77Z"/>
            <path class="cls-20" d="M646.34,231.83a1.27,1.27,0,1,0-.43-2.51,1.27,1.27,0,1,0,.43,2.51Z"/>
            <path class="cls-20" d="M657.38,239.68a1.27,1.27,0,1,0-1.48-1A1.28,1.28,0,0,0,657.38,239.68Z"/>
            <path class="cls-20" d="M663.67,238.62a1.28,1.28,0,1,0-1.47-1.05A1.27,1.27,0,0,0,663.67,238.62Z"/>
            <path class="cls-20" d="M656.31,233.39a1.28,1.28,0,1,0-1.47-1A1.28,1.28,0,0,0,656.31,233.39Z"/>
            <path class="cls-20" d="M662.61,232.32a1.27,1.27,0,1,0-.43-2.51,1.27,1.27,0,1,0,.43,2.51Z"/>
            <path class="cls-20" d="M650,234.45a1.28,1.28,0,0,0-.43-2.52,1.28,1.28,0,1,0,.43,2.52Z"/>
          </g>
          <g>
            <path class="cls-20" d="M668.41,247.54a1.28,1.28,0,1,0-1.47-1A1.28,1.28,0,0,0,668.41,247.54Z"/>
            <path class="cls-20" d="M662.12,248.6a1.28,1.28,0,1,0-1.47-1A1.28,1.28,0,0,0,662.12,248.6Z"/>
            <path class="cls-20" d="M655.82,249.66a1.28,1.28,0,1,0-1.47-1A1.28,1.28,0,0,0,655.82,249.66Z"/>
            <path class="cls-20" d="M667.35,241.24a1.28,1.28,0,1,0-1.47-1.05A1.28,1.28,0,0,0,667.35,241.24Z"/>
            <path class="cls-20" d="M661.06,242.3a1.28,1.28,0,1,0-1.48-1.05A1.28,1.28,0,0,0,661.06,242.3Z"/>
            <path class="cls-20" d="M654.76,243.36a1.27,1.27,0,1,0-.43-2.51,1.27,1.27,0,0,0,.43,2.51Z"/>
            <path class="cls-20" d="M648.46,244.43a1.28,1.28,0,1,0-1.47-1.05A1.28,1.28,0,0,0,648.46,244.43Z"/>
            <path class="cls-20" d="M659.5,252.28a1.28,1.28,0,1,0-1.47-1.05A1.28,1.28,0,0,0,659.5,252.28Z"/>
            <path class="cls-20" d="M665.8,251.21a1.27,1.27,0,1,0-1.47-1A1.27,1.27,0,0,0,665.8,251.21Z"/>
            <path class="cls-20" d="M658.44,246a1.28,1.28,0,1,0-.43-2.52,1.28,1.28,0,0,0,.43,2.52Z"/>
            <path class="cls-20" d="M664.74,244.92a1.28,1.28,0,1,0-1.48-1A1.28,1.28,0,0,0,664.74,244.92Z"/>
            <path class="cls-20" d="M652.14,247a1.27,1.27,0,1,0-1.47-1A1.27,1.27,0,0,0,652.14,247Z"/>
          </g>
          <g>
            <path class="cls-20" d="M650.51,218.18a1.28,1.28,0,1,0-1.47-1.05A1.28,1.28,0,0,0,650.51,218.18Z"/>
            <path class="cls-20" d="M644.21,219.24a1.28,1.28,0,1,0-1.47-1.05A1.27,1.27,0,0,0,644.21,219.24Z"/>
            <path class="cls-20" d="M637.91,220.3a1.27,1.27,0,1,0-.42-2.51,1.27,1.27,0,1,0,.42,2.51Z"/>
          </g>
          <g>
            <path class="cls-20" d="M652.63,230.77a1.28,1.28,0,1,0-1.47-1.05A1.28,1.28,0,0,0,652.63,230.77Z"/>
            <path class="cls-20" d="M646.34,231.83a1.27,1.27,0,1,0-.43-2.51,1.27,1.27,0,1,0,.43,2.51Z"/>
            <path class="cls-20" d="M640,232.9a1.28,1.28,0,1,0-1.47-1.05A1.28,1.28,0,0,0,640,232.9Z"/>
            <path class="cls-20" d="M651.57,224.48a1.28,1.28,0,1,0-.42-2.52,1.27,1.27,0,0,0-1,1.47A1.29,1.29,0,0,0,651.57,224.48Z"/>
            <path class="cls-20" d="M645.27,225.54a1.28,1.28,0,1,0-1.47-1A1.28,1.28,0,0,0,645.27,225.54Z"/>
            <path class="cls-20" d="M639,226.6a1.28,1.28,0,0,0-.43-2.52,1.28,1.28,0,1,0,.43,2.52Z"/>
            <path class="cls-20" d="M650.51,218.18a1.28,1.28,0,1,0-1.47-1.05A1.28,1.28,0,0,0,650.51,218.18Z"/>
            <path class="cls-20" d="M644.21,219.24a1.28,1.28,0,1,0-1.47-1.05A1.27,1.27,0,0,0,644.21,219.24Z"/>
            <path class="cls-20" d="M637.91,220.3a1.27,1.27,0,1,0-.42-2.51,1.27,1.27,0,1,0,.42,2.51Z"/>
            <path class="cls-20" d="M642.66,229.22a1.28,1.28,0,1,0-1.47-1.05A1.28,1.28,0,0,0,642.66,229.22Z"/>
            <path class="cls-20" d="M649,228.15a1.27,1.27,0,1,0-1.47-1A1.27,1.27,0,0,0,649,228.15Z"/>
            <path class="cls-20" d="M641.59,222.92a1.28,1.28,0,1,0-1.47-1A1.28,1.28,0,0,0,641.59,222.92Z"/>
            <path class="cls-20" d="M647.89,221.86a1.28,1.28,0,1,0-1.47-1.05A1.28,1.28,0,0,0,647.89,221.86Z"/>
            <path class="cls-20" d="M635.3,224a1.27,1.27,0,1,0-1.47-1A1.27,1.27,0,0,0,635.3,224Z"/>
          </g>
          <g>
            <path class="cls-20" d="M654.76,243.36a1.27,1.27,0,1,0-.43-2.51,1.27,1.27,0,0,0,.43,2.51Z"/>
            <path class="cls-20" d="M648.46,244.43a1.28,1.28,0,1,0-1.47-1.05A1.28,1.28,0,0,0,648.46,244.43Z"/>
            <path class="cls-20" d="M642.17,245.49a1.28,1.28,0,0,0-.43-2.52,1.28,1.28,0,1,0,.43,2.52Z"/>
            <path class="cls-20" d="M653.7,237.07a1.28,1.28,0,1,0-1.47-1A1.28,1.28,0,0,0,653.7,237.07Z"/>
            <path class="cls-20" d="M647.4,238.13a1.28,1.28,0,0,0-.42-2.52,1.28,1.28,0,1,0,.42,2.52Z"/>
            <path class="cls-20" d="M641.1,239.19a1.27,1.27,0,1,0-1.47-1A1.27,1.27,0,0,0,641.1,239.19Z"/>
            <path class="cls-20" d="M652.63,230.77a1.28,1.28,0,1,0-1.47-1A1.28,1.28,0,0,0,652.63,230.77Z"/>
            <path class="cls-20" d="M646.34,231.83a1.27,1.27,0,1,0-.43-2.51,1.27,1.27,0,1,0,.43,2.51Z"/>
            <path class="cls-20" d="M640,232.9a1.28,1.28,0,1,0-1.47-1.05A1.28,1.28,0,0,0,640,232.9Z"/>
            <path class="cls-20" d="M633.75,234a1.28,1.28,0,1,0-1.48-1.05A1.28,1.28,0,0,0,633.75,234Z"/>
            <path class="cls-20" d="M644.78,241.81a1.28,1.28,0,1,0-1.47-1.05A1.28,1.28,0,0,0,644.78,241.81Z"/>
            <path class="cls-20" d="M651.08,240.75a1.29,1.29,0,0,0,1-1.47,1.28,1.28,0,1,0-1,1.47Z"/>
            <path class="cls-20" d="M643.72,235.51a1.27,1.27,0,1,0-.42-2.51,1.27,1.27,0,1,0,.42,2.51Z"/>
            <path class="cls-20" d="M650,234.45a1.28,1.28,0,0,0-.43-2.52,1.28,1.28,0,1,0,.43,2.52Z"/>
            <path class="cls-20" d="M637.42,236.58a1.28,1.28,0,1,0-1.47-1.05A1.28,1.28,0,0,0,637.42,236.58Z"/>
          </g>
          <g>
            <path class="cls-20" d="M655.82,249.66a1.28,1.28,0,1,0-1.47-1A1.28,1.28,0,0,0,655.82,249.66Z"/>
            <path class="cls-20" d="M649.53,250.72a1.27,1.27,0,0,0-.43-2.51,1.27,1.27,0,1,0,.43,2.51Z"/>
            <path class="cls-20" d="M654.76,243.36a1.27,1.27,0,1,0-.43-2.51,1.27,1.27,0,0,0,.43,2.51Z"/>
            <path class="cls-20" d="M648.46,244.43a1.28,1.28,0,1,0-1.47-1.05A1.28,1.28,0,0,0,648.46,244.43Z"/>
            <path class="cls-20" d="M642.17,245.49a1.28,1.28,0,0,0-.43-2.52,1.28,1.28,0,1,0,.43,2.52Z"/>
            <path class="cls-20" d="M645.85,248.11a1.28,1.28,0,0,0,1-1.48,1.27,1.27,0,0,0-1.47-1,1.28,1.28,0,1,0,.43,2.52Z"/>
            <path class="cls-20" d="M652.14,247a1.27,1.27,0,1,0-1.47-1A1.27,1.27,0,0,0,652.14,247Z"/>
          </g>
          <path class="cls-20" d="M637.91,220.3a1.27,1.27,0,1,0-.42-2.51,1.27,1.27,0,1,0,.42,2.51Z"/>
          <g>
            <path class="cls-20" d="M640,232.9a1.28,1.28,0,1,0-1.47-1.05A1.28,1.28,0,0,0,640,232.9Z"/>
            <path class="cls-20" d="M633.75,234a1.28,1.28,0,1,0-1.48-1.05A1.28,1.28,0,0,0,633.75,234Z"/>
            <path class="cls-20" d="M639,226.6a1.28,1.28,0,0,0-.43-2.52,1.28,1.28,0,1,0,.43,2.52Z"/>
            <path class="cls-20" d="M632.68,227.66a1.27,1.27,0,1,0-1.47-1A1.27,1.27,0,0,0,632.68,227.66Z"/>
            <path class="cls-20" d="M637.91,220.3a1.27,1.27,0,1,0-.42-2.51,1.27,1.27,0,1,0,.42,2.51Z"/>
            <path class="cls-20" d="M636.36,230.28a1.28,1.28,0,1,0-1.47-1.05A1.28,1.28,0,0,0,636.36,230.28Z"/>
            <path class="cls-20" d="M635.3,224a1.27,1.27,0,1,0-1.47-1A1.27,1.27,0,0,0,635.3,224Z"/>
          </g>
          <g>
            <path class="cls-20" d="M642.17,245.49a1.28,1.28,0,0,0-.43-2.52,1.28,1.28,0,1,0,.43,2.52Z"/>
            <path class="cls-20" d="M641.1,239.19a1.27,1.27,0,1,0-1.47-1A1.27,1.27,0,0,0,641.1,239.19Z"/>
            <path class="cls-20" d="M634.81,240.26a1.28,1.28,0,1,0-1.48-1A1.28,1.28,0,0,0,634.81,240.26Z"/>
            <path class="cls-20" d="M640,232.9a1.28,1.28,0,1,0-1.47-1.05A1.28,1.28,0,0,0,640,232.9Z"/>
            <path class="cls-20" d="M633.75,234a1.28,1.28,0,1,0-1.48-1.05A1.28,1.28,0,0,0,633.75,234Z"/>
            <path class="cls-20" d="M638.49,242.87a1.27,1.27,0,0,0,1-1.47,1.28,1.28,0,0,0-1.47-1.05,1.3,1.3,0,0,0-1,1.48A1.28,1.28,0,0,0,638.49,242.87Z"/>
            <path class="cls-20" d="M637.42,236.58a1.28,1.28,0,1,0-1.47-1.05A1.28,1.28,0,0,0,637.42,236.58Z"/>
          </g>
          <path class="cls-20" d="M642.17,245.49a1.28,1.28,0,0,0-.43-2.52,1.28,1.28,0,1,0,.43,2.52Z"/>
        </g>
        <path class="cls-7" d="M694.14,218.85c-5.67,13.21-22.48,11.54-33.06,12.76"/>
        <g>
          <path class="cls-5" d="M706.31,172.93c1.55,19.55-23.16,30.6-22.24,10.63Z"/>
          <g>
            <path class="cls-5" d="M676.61,184.05c-3.94,23.36-37.51,22.43-33.83-.76Z"/>
            <path class="cls-20" d="M666.17,194c.09-3.45-2.15-5.77-5-5.17s-5.23,3.89-5.31,7.34,2.16,5.75,5,5.15S666.08,197.42,666.17,194Z"/>
          </g>
          <path class="cls-20" d="M697.68,187.7c.47-3.22-1.28-5.51-3.9-5.13s-5.12,3.32-5.57,6.53,1.3,5.5,3.91,5.11S697.23,190.91,697.68,187.7Z"/>
        </g>
        <path class="cls-7" d="M417.47,512.27a72.13,72.13,0,0,1,39.77,46.21l25.1,89.06"/>
        <path class="cls-7" d="M398.34,751c15,1.5,42.5-13.5,42.5-39.5V674"/>
        <path class="cls-5" d="M1024.5,419.38c0,23-6.35,33.17-23.72,35L964,440.67c8.87-5.75,11.37-6,15.12-11.87"/>
        <path class="cls-5" d="M504.54,615.85c.07-41.64,59.11-53.8,26.3,23.53"/>
        <path class="cls-7" d="M480.84,636.54l19.5-18.5c9.5-7.5,36.5,3,29,28.5l-23.59,41.75A32.57,32.57,0,0,1,477.83,704c-11.42,0-23-7-28.87-16.82-16.2-27-34.48-54.73-34.62-55.17"/>
        <path class="cls-7" d="M773.5,633l32.5-65a64.25,64.25,0,0,1,35.71-31.72"/>
        <path class="cls-7" d="M775.17,628.71s-12.33-6-23.66-10.67-22.87,11.79-11.34,31c3.62,6,8.21,13,12.58,19.51a30,30,0,0,0,37.64,10.34l14.06-6.65v73.14s-1.61,27.33,27.72,46"/>
        <path class="cls-7" d="M953.23,530.07c12.56,4.82,20.63,16.29,24.11,29.76,10.83,41.88,7.7,81.81,8.17,83.21"/>
        <line class="cls-6" x1="839.51" y1="652.38" x2="803.45" y2="672.24"/>
        <path class="cls-6" d="M574.84,437.75c-60.89,12-111.66,28.62-147.32,48.36"/>
        <path class="cls-6" d="M622.65,430.55c15-2.83,41.34-3.17,41.34-3.17"/>
        <path class="cls-7" d="M1002.21,674.6c136.58-22.88,229.66-68.38,229.66-120.76,0-14.12-6.76-27.73-19.3-40.54"/>
        <path class="cls-7" d="M525.16,658.54c74.75,19.84,171.08,31.79,276.21,31.79h2.8"/>
        <path class="cls-6" d="M606.84,256.37a121.26,121.26,0,0,1-1.08-29.92h0a92.52,92.52,0,0,1,7.86-29.94,86.65,86.65,0,0,1,20.72-28.3c21.73-19.81,51-27.41,71.27-24.59,10.62,1.47,18.73,5.81,21.9,12.76"/>
        <line class="cls-6" x1="501.5" y1="612.25" x2="468.82" y2="599.05"/>
        <path class="cls-6" d="M507.32,461.17h0a14.91,14.91,0,0,1,10.57-.83l102.86,30.09a9.41,9.41,0,0,1,6.72,9.88L620,581.85l-53.62,46a16.08,16.08,0,0,1-16.58,2.66l-11.45-4.71"/>
        <line class="cls-6" x1="504.04" y1="525.82" x2="612.99" y2="560.45"/>
        <path class="cls-6" d="M665.9,427.55l.16,2.54a13.15,13.15,0,0,0,4.46,9.06l35.48,31a14.19,14.19,0,0,0,14.37,2.61l85.22-32.12a9.4,9.4,0,0,0,5.66-6l0-.06"/>
        <g>
          <path class="cls-2" d="M710.64,539.62l-3.06-5.36-.19,0-3.32.45-.12,5.79-3.81.52.41-20.8,7.14-1a7,7,0,0,1,3.79.4,5,5,0,0,1,2.43,2.28,7.86,7.86,0,0,1,.79,3.89,9.37,9.37,0,0,1-1,4.12,7.66,7.66,0,0,1-2.56,2.91l3.56,6.18ZM710,523.81a3.1,3.1,0,0,0-2.6-.58l-3.11.43-.15,7.25,3.11-.43a4,4,0,0,0,2.64-1.3,4.36,4.36,0,0,0,1-2.8A3.3,3.3,0,0,0,710,523.81Z"/>
          <path class="cls-2" d="M729.67,530.36l-9.59,1.31a3.26,3.26,0,0,0,1.18,2.18,3.06,3.06,0,0,0,2.38.53,4.49,4.49,0,0,0,1.77-.61,5.44,5.44,0,0,0,1.45-1.37l1.9,2.41a7.15,7.15,0,0,1-5.28,3.3,6.28,6.28,0,0,1-3.78-.54,5.5,5.5,0,0,1-2.48-2.58,8.89,8.89,0,0,1-.81-4.13,10.73,10.73,0,0,1,1-4.35,8.82,8.82,0,0,1,2.48-3.27,7,7,0,0,1,3.47-1.53,5.16,5.16,0,0,1,5.66,3.13,9.47,9.47,0,0,1,.77,4.26Q729.76,529.19,729.67,530.36Zm-8.5-4a4.89,4.89,0,0,0-1.08,2.58l6.24-.85a3.6,3.6,0,0,0-1-2.28,2.32,2.32,0,0,0-2.05-.62A3.29,3.29,0,0,0,721.17,526.39Z"/>
          <path class="cls-2" d="M734.56,535.55a5.65,5.65,0,0,1-2.47-2.59,8.75,8.75,0,0,1-.82-4.12,10.53,10.53,0,0,1,1-4.37,8.9,8.9,0,0,1,2.58-3.27,7.57,7.57,0,0,1,3.66-1.56,5.39,5.39,0,0,1,3.48.58,4.84,4.84,0,0,1,2.12,2.72l-2.89,2.32a2.59,2.59,0,0,0-2.81-1.81A3.53,3.53,0,0,0,736,525a5.81,5.81,0,0,0-1,3.37,4.51,4.51,0,0,0,.88,3.11,2.49,2.49,0,0,0,2.36.87,3.8,3.8,0,0,0,2.89-2.59l2.81,1.57a7.44,7.44,0,0,1-2.24,3.27,6.74,6.74,0,0,1-3.51,1.54A5.89,5.89,0,0,1,734.56,535.55Z"/>
          <path class="cls-2" d="M748.27,533.68a5.62,5.62,0,0,1-2.43-2.59A8.92,8.92,0,0,1,745,527a10.72,10.72,0,0,1,1-4.37,8.8,8.8,0,0,1,2.54-3.26,7.33,7.33,0,0,1,3.62-1.55,5.49,5.49,0,0,1,6,3.16,8.92,8.92,0,0,1,.81,4.13,10.72,10.72,0,0,1-1,4.37,8.85,8.85,0,0,1-2.53,3.26,7.25,7.25,0,0,1-3.6,1.54A5.74,5.74,0,0,1,748.27,533.68Zm6-4.76a5.92,5.92,0,0,0,1-3.35,4.62,4.62,0,0,0-.84-3.1,2.37,2.37,0,0,0-2.3-.88,3.37,3.37,0,0,0-2.36,1.52,5.93,5.93,0,0,0-1,3.35,4.52,4.52,0,0,0,.86,3.09,2.38,2.38,0,0,0,2.3.89A3.38,3.38,0,0,0,754.26,528.92Z"/>
          <path class="cls-2" d="M766.84,516.37a6.25,6.25,0,0,1,2.59-.94l-.08,4.28c-.41,0-.68,0-.83,0a3.57,3.57,0,0,0-2.49,1.45,6,6,0,0,0-1,3.47l-.15,7.54-3.68.5.32-16,3.51-.48,0,2.11A5.55,5.55,0,0,1,766.84,516.37Z"/>
          <path class="cls-2" d="M784.53,507.56l-.44,22.05-3.51.48,0-1.84a5.34,5.34,0,0,1-4,2.61,4.94,4.94,0,0,1-3.22-.56,5.35,5.35,0,0,1-2.21-2.58,9.6,9.6,0,0,1-.74-4.22,11.47,11.47,0,0,1,.91-4.45,8.27,8.27,0,0,1,2.33-3.19A6.44,6.44,0,0,1,777,514.4a3.74,3.74,0,0,1,3.75,1.42l.16-7.76Zm-4.87,17.9a5.88,5.88,0,0,0,1-3.35,4.6,4.6,0,0,0-.86-3.1,2.36,2.36,0,0,0-2.28-.89,3.44,3.44,0,0,0-2.36,1.52,5.87,5.87,0,0,0-1,3.35,4.6,4.6,0,0,0,.85,3.1,2.4,2.4,0,0,0,2.31.88A3.33,3.33,0,0,0,779.66,525.46Z"/>
          <path class="cls-2" d="M800,520.78l-9.59,1.31a3.32,3.32,0,0,0,1.18,2.18,3.11,3.11,0,0,0,2.39.53,4.44,4.44,0,0,0,1.76-.61,5.45,5.45,0,0,0,1.45-1.37l1.9,2.41a7.21,7.21,0,0,1-5.28,3.3A6.31,6.31,0,0,1,790,528a5.47,5.47,0,0,1-2.49-2.58,8.92,8.92,0,0,1-.81-4.13,10.73,10.73,0,0,1,1-4.35,8.82,8.82,0,0,1,2.48-3.27,6.87,6.87,0,0,1,3.48-1.53,5.15,5.15,0,0,1,5.65,3.13,9.6,9.6,0,0,1,.78,4.26C800.06,519.58,800,520,800,520.78Zm-8.5-4a5,5,0,0,0-1.08,2.58l6.24-.85a3.48,3.48,0,0,0-1-2.28,2.35,2.35,0,0,0-2-.63A3.37,3.37,0,0,0,791.46,516.81Z"/>
          <path class="cls-2" d="M815.7,503.31l-.44,22.05-3.51.48,0-1.84a5.36,5.36,0,0,1-4,2.62,5,5,0,0,1-3.22-.57,5.34,5.34,0,0,1-2.22-2.57,9.82,9.82,0,0,1-.74-4.23,11.88,11.88,0,0,1,.91-4.45,8.37,8.37,0,0,1,2.33-3.19,6.37,6.37,0,0,1,3.26-1.45,3.76,3.76,0,0,1,3.76,1.41l.15-7.75Zm-4.87,17.9a5.8,5.8,0,0,0,1-3.35,4.6,4.6,0,0,0-.85-3.1,2.4,2.4,0,0,0-2.29-.89,3.42,3.42,0,0,0-2.35,1.52,5.9,5.9,0,0,0-1,3.35,4.6,4.6,0,0,0,.86,3.1,2.42,2.42,0,0,0,2.31.89A3.42,3.42,0,0,0,810.83,521.21Z"/>
        </g>
        <path class="cls-6" d="M715.82,468.88l11.79-54.46a13.17,13.17,0,0,1,8.39-9.6L815.87,376a16.41,16.41,0,0,1,6.13-1l1.9.06"/>
        <g>
          <g>
            <rect class="cls-2" x="835.58" y="395.96" width="118.49" height="164.84" rx="48.99" ry="48.99"/>
            <rect class="cls-7" x="835.58" y="395.96" width="118.49" height="164.84" rx="48.99" ry="48.99"/>
          </g>
          <g>
            <path class="cls-1" d="M835.58,409.54c25.3-33.94,82.61-30.17,103.73-13.58s17.46,47,14.76,115.85-59.24,39.7-59.24,39.7-21.88.38-24.14-18.39,7.54-69.79-2.27-78.22-31.67-3.89-36.19-12.19S827.91,419.82,835.58,409.54Z"/>
            <path class="cls-7" d="M835.58,409.54c25.3-33.94,82.61-30.17,103.73-13.58s17.46,47,14.76,115.85c-3,76.6-81.45,37.32-83.38,21.31-2.27-18.77,7.54-69.79-2.27-78.22s-31.67-3.89-36.19-12.19S827.91,419.82,835.58,409.54Z"/>
          </g>
          <path class="cls-7" d="M978.66,449.33C978.66,401,948.4,367,905.71,367h-16a81.69,81.69,0,0,0-81.66,82.33v91.82c0,49.79,170.6,56.12,170.6,0h0Z"/>
        </g>
        <path class="cls-6" d="M955.49,442.38l60,21.6a13.28,13.28,0,0,1,8.67,10.76l7.94,60.31"/>
        <polyline class="cls-6" points="1036.69 536.87 1041.82 536.72 1059.15 522.05"/>
        <line class="cls-6" x1="691.81" y1="579.91" x2="732.1" y2="636.58"/>
        <line class="cls-6" x1="697.18" y1="559.89" x2="809.14" y2="543.39"/>
        <path class="cls-6" d="M689.15,575.55l.23-73a10,10,0,0,1,8.67-9.93l99-13.69a54.43,54.43,0,0,1,19.5.83l3.57.81"/>
      </g>
    </g>
    <g>
      <path class="cls-2" d="M873.65,208.05a20.61,20.61,0,0,1-3.24-.25,21.46,21.46,0,0,1-10,2.5c-17.26,0-32.15-20.86-33.26-46.59s12-46.58,29.25-46.58a20.61,20.61,0,0,1,3.24.25,21.46,21.46,0,0,1,10-2.5c17.26,0,32.15,20.86,33.25,46.58S890.91,208.05,873.65,208.05Z"/>
      <g>
        <g>
          <line class="cls-21" x1="753.09" y1="304.07" x2="736.68" y2="377.04"/>
          <path class="cls-3" d="M718.71,373a18.42,18.42,0,1,0,22-13.93A18.43,18.43,0,0,0,718.71,373Z"/>
        </g>
        <g>
          <polyline class="cls-21" points="562.68 447.04 752.13 294.8 749.29 304.2"/>
          <path class="cls-3" d="M574.23,461.4A18.43,18.43,0,1,1,577,435.5,18.44,18.44,0,0,1,574.23,461.4Z"/>
        </g>
        <g>
          <line class="cls-21" x1="781.68" y1="460.04" x2="752.12" y2="294.8"/>
          <path class="cls-3" d="M799.82,456.79a18.42,18.42,0,1,1-21.38-14.89A18.43,18.43,0,0,1,799.82,456.79Z"/>
        </g>
        <g>
          <line class="cls-21" x1="755.12" y1="294.8" x2="970.61" y2="402.79"/>
          <path class="cls-3" d="M962.36,419.26a18.42,18.42,0,1,0-8.22-24.72A18.42,18.42,0,0,0,962.36,419.26Z"/>
        </g>
        <circle class="cls-3" cx="753.12" cy="300.3" r="18" transform="translate(-48.85 181.07) rotate(-13.28)"/>
      </g>
      <g>
        <g>
          <path class="cls-3" d="M866.47,193.66l-5.18-1q-.12-3.55-.22-7.14l-3.3-.65c.08,2.41.15,4.78.22,7.15l-5.18-1c-.07-2.38-.14-4.76-.22-7.2l-10.94-2.16c-.07-2.05-.13-4-.19-6.07l.45.08c.68.13,1.36.27,2,.36,1.17.16,1.73-.44,1.73-1.82,0-.62,0-1.23,0-1.85q-.34-11.17-.68-22.33c0-1-.09-2-.14-3A2.49,2.49,0,0,0,843,144.4c-.69-.19-1.39-.31-2.08-.46l-.41-.11c-.07-2-.13-4-.19-6.08l11,2.15c-.08-2.43-.15-4.8-.22-7.17l5.17,1q.12,3.57.22,7.15l3.3.65c-.08-2.41-.15-4.78-.22-7.15l5.18,1,0,.56c.06,2.1.14,4.19.18,6.28,0,.48.11.73.54.83a6.85,6.85,0,0,1,1,.37,13.74,13.74,0,0,1,5.06,3.56,12.76,12.76,0,0,1,3.31,7.67,9.26,9.26,0,0,1-1.06,5.37,7.43,7.43,0,0,1-4.92,3.63l-.43.13a1.19,1.19,0,0,0,.42.33,16.08,16.08,0,0,1,3.94,2.68,12.68,12.68,0,0,1,3.73,6.71c1,4.94-.2,8.54-3.31,10.88a9.79,9.79,0,0,1-6.49,1.68c-.38,0-.46.12-.45.54C866.34,189,866.4,191.32,866.47,193.66Zm-12-29V165c.09,3.09.18,6.17.29,9.26,0,.67.08,1.34.16,2a1.1,1.1,0,0,0,.78,1.06c1.25.31,2.51.62,3.76.85a27.58,27.58,0,0,0,3.23.38,3.85,3.85,0,0,0,3-1.06,5.61,5.61,0,0,0,1.54-4.22,7,7,0,0,0-3.1-6,10.34,10.34,0,0,0-3.56-1.42c-1.9-.44-3.81-.79-5.72-1.18A2.86,2.86,0,0,0,854.52,164.66Zm-.18-6.49c.13,0,.23.08.33.1,1.27.25,2.53.51,3.8.74a13.76,13.76,0,0,0,4.26.33,3.39,3.39,0,0,0,2.64-1.63,6.1,6.1,0,0,0-2.77-8.09,14.39,14.39,0,0,0-2.42-.82c-1.95-.45-3.9-.82-5.85-1.22a2.69,2.69,0,0,0-.32,0C854.12,151.09,854.23,154.6,854.34,158.17Z"/>
          <g>
            <path class="cls-7" d="M890.61,159.8c-2.64-25.27-19-44.26-36.61-42.42s-29.68,23.81-27,49.07,19,44.27,36.61,42.43S893.25,185.07,890.61,159.8Z"/>
            <path class="cls-7" d="M854,117.38,866.93,116c17.58-1.84,34,17.15,36.61,42.42s-9.47,47.24-27,49.08l-12.93,1.35"/>
          </g>
        </g>
        <g>
          <polyline class="cls-21" points="742.68 221.04 772.68 166.04 815.68 166.04"/>
          <polyline class="cls-21" points="757.68 236.04 769.68 214.04 789.68 214.04 804.68 186.04"/>
          <polyline class="cls-21" points="749.02 184.7 766.35 154.7 817.02 154.7"/>
          <polyline class="cls-21" points="786.35 192.7 806.35 182.7 809.68 204.04"/>
        </g>
        <g>
          <polyline class="cls-21" points="914.35 203.04 929.68 203.04 971.02 283.04"/>
          <polyline class="cls-21" points="913.68 178.37 946.35 178.37 955.02 195.7"/>
          <line class="cls-21" x1="938.35" y1="192.37" x2="951.68" y2="217.7"/>
          <polyline class="cls-21" points="954.02 280.37 974.35 287.37 978.35 268.04"/>
        </g>
      </g>
    </g>
    <g>
      <path class="cls-3" d="M115.47,98.17a9.45,9.45,0,0,1,2.45,6.63,10.43,10.43,0,0,1-1.6,5.62,11.2,11.2,0,0,1-4.87,4.13,18.76,18.76,0,0,1-8,1.55,27.46,27.46,0,0,1-7.27-1,18.73,18.73,0,0,1-6.08-2.77l3.15-6.2a15.19,15.19,0,0,0,4.62,2.32,17.88,17.88,0,0,0,5.38.83,8.56,8.56,0,0,0,4.8-1.18,3.76,3.76,0,0,0,1.75-3.32q0-4.3-6.55-4.3h-3.7V95.15l7.2-8.15H91.82V80.5h24.5v5.25l-7.9,9A11.78,11.78,0,0,1,115.47,98.17Z"/>
      <path class="cls-3" d="M154.27,100.47A8.77,8.77,0,0,1,156,106a8.08,8.08,0,0,1-3.58,7.07q-3.57,2.48-10.42,2.48h-18.1v-35H141q6.41,0,9.82,2.45a7.74,7.74,0,0,1,3.43,6.65,8.43,8.43,0,0,1-4.65,7.7A9.21,9.21,0,0,1,154.27,100.47ZM131.92,86.6v8.25H140a8.12,8.12,0,0,0,4.55-1,3.52,3.52,0,0,0,1.55-3.1,3.45,3.45,0,0,0-1.55-3.08,8.31,8.31,0,0,0-4.55-1Zm14.27,21.75a3.59,3.59,0,0,0,1.63-3.25q0-4.35-6.45-4.35h-9.45v8.65h9.45A9,9,0,0,0,146.19,108.35Z"/>
      <path class="cls-3" d="M168.87,87.1h-11.2V80.5h30.5v6.6H177v28.4h-8.1Z"/>
      <path class="cls-3" d="M199.09,113.77a17.37,17.37,0,0,1-6.8-6.45,18.84,18.84,0,0,1,0-18.65,17.37,17.37,0,0,1,6.8-6.45A21.72,21.72,0,0,1,217,81.5a16.45,16.45,0,0,1,6.18,4.6L218,90.9a11.16,11.16,0,0,0-8.8-4.1,11.67,11.67,0,0,0-5.8,1.42,10.16,10.16,0,0,0-4,4,12.56,12.56,0,0,0,0,11.6,10.13,10.13,0,0,0,4,4,11.68,11.68,0,0,0,5.8,1.43,11.15,11.15,0,0,0,8.8-4.15l5.2,4.8a16.28,16.28,0,0,1-6.2,4.65,20.72,20.72,0,0,1-8.25,1.6A20.14,20.14,0,0,1,199.09,113.77Z"/>
      <path class="cls-3" d="M241.27,98.3h14.15v6.25H241.27Z"/>
      <path class="cls-3" d="M287.57,80.5v35h-8.1V87h-7V80.5Z"/>
      <path class="cls-3" d="M326.27,100.47A8.77,8.77,0,0,1,328,106a8.1,8.1,0,0,1-3.58,7.07q-3.57,2.48-10.42,2.48h-18.1v-35H313q6.39,0,9.82,2.45a7.76,7.76,0,0,1,3.43,6.65A8.52,8.52,0,0,1,325,94.15a8.68,8.68,0,0,1-3.42,3.15A9.25,9.25,0,0,1,326.27,100.47ZM303.92,86.6v8.25H312a8.14,8.14,0,0,0,4.55-1,3.52,3.52,0,0,0,1.55-3.1,3.45,3.45,0,0,0-1.55-3.08,8.33,8.33,0,0,0-4.55-1Zm14.27,21.75a3.61,3.61,0,0,0,1.63-3.25q0-4.35-6.45-4.35h-9.45v8.65h9.45A9,9,0,0,0,318.19,108.35Z"/>
      <path class="cls-3" d="M340.87,87.1h-11.2V80.5h30.5v6.6H349v28.4h-8.1Z"/>
      <path class="cls-3" d="M371.09,113.77a17.37,17.37,0,0,1-6.8-6.45,18.84,18.84,0,0,1,0-18.65,17.37,17.37,0,0,1,6.8-6.45,21.72,21.72,0,0,1,18-.72,16.34,16.34,0,0,1,6.17,4.6L390,90.9a11.15,11.15,0,0,0-8.8-4.1,11.66,11.66,0,0,0-5.79,1.42,10.09,10.09,0,0,0-4,4,12.48,12.48,0,0,0,0,11.6,10.07,10.07,0,0,0,4,4,11.67,11.67,0,0,0,5.79,1.43,11.14,11.14,0,0,0,8.8-4.15l5.2,4.8a16.2,16.2,0,0,1-6.2,4.65,20.65,20.65,0,0,1-8.25,1.6A20.1,20.1,0,0,1,371.09,113.77Z"/>
      <path class="cls-3" d="M413.76,88.75h23.8v6.1h-23.8Zm0,12.4h23.8v6.1h-23.8Z"/>
      <path class="cls-3" d="M482.86,108.9v6.6H456.41v-5.25l13.5-12.75a14.31,14.31,0,0,0,2.9-3.53,6.4,6.4,0,0,0,.75-2.92,3.87,3.87,0,0,0-1.42-3.23A6.65,6.65,0,0,0,468,86.7a9.63,9.63,0,0,0-4.15.87,8,8,0,0,0-3.1,2.63l-5.9-3.8a13.82,13.82,0,0,1,5.65-4.78,18.87,18.87,0,0,1,8.25-1.72,17,17,0,0,1,6.83,1.27,10.56,10.56,0,0,1,4.55,3.6,9.35,9.35,0,0,1,1.62,5.48,12.21,12.21,0,0,1-1.2,5.35,20.79,20.79,0,0,1-4.65,5.7l-8.05,7.6Z"/>
      <path class="cls-3" d="M518.81,100.47a8.77,8.77,0,0,1,1.7,5.48,8.09,8.09,0,0,1-3.57,7.07q-3.59,2.48-10.43,2.48h-18.1v-35h17.1q6.4,0,9.83,2.45a7.75,7.75,0,0,1,3.42,6.65,8.39,8.39,0,0,1-4.65,7.7A9.21,9.21,0,0,1,518.81,100.47ZM496.46,86.6v8.25h8.05a8.12,8.12,0,0,0,4.55-1,3.52,3.52,0,0,0,1.55-3.1,3.45,3.45,0,0,0-1.55-3.08,8.31,8.31,0,0,0-4.55-1Zm14.28,21.75a3.61,3.61,0,0,0,1.62-3.25q0-4.35-6.45-4.35h-9.45v8.65h9.45A9,9,0,0,0,510.74,108.35Z"/>
      <path class="cls-3" d="M533.41,87.1h-11.2V80.5h30.5v6.6h-11.2v28.4h-8.1Z"/>
      <path class="cls-3" d="M563.64,113.77a17.31,17.31,0,0,1-6.8-6.45,18.77,18.77,0,0,1,0-18.65,17.31,17.31,0,0,1,6.8-6.45,21.72,21.72,0,0,1,18-.72,16.41,16.41,0,0,1,6.17,4.6l-5.2,4.8a11.16,11.16,0,0,0-8.8-4.1,11.67,11.67,0,0,0-5.8,1.42,10.13,10.13,0,0,0-4,4,12.48,12.48,0,0,0,0,11.6,10.11,10.11,0,0,0,4,4,11.68,11.68,0,0,0,5.8,1.43,11.15,11.15,0,0,0,8.8-4.15l5.2,4.8a16.28,16.28,0,0,1-6.2,4.65,20.72,20.72,0,0,1-8.25,1.6A20.1,20.1,0,0,1,563.64,113.77Z"/>
    </g>
  </g>
</svg>
