<svg xmlns="http://www.w3.org/2000/svg" viewBox="0 0 292.8 111.84"><defs><style>.cls-1{fill:#4a4a4a;}</style></defs><title>LOGO02</title><g id="TM_Image" data-name="TM Image"><path class="cls-1" d="M267.82,47.05a11.84,11.84,0,0,0-7.42,0A22.39,22.39,0,0,0,251,53a33.37,33.37,0,0,0-5.39,7.31A20.92,20.92,0,0,1,244,62.65c-.31.41-.68.78-1,1.17a66.37,66.37,0,0,1-10.71,9.73,11.7,11.7,0,0,1-3.71,1.92,2.22,2.22,0,0,1-3-2.22,8.5,8.5,0,0,1,.31-2,48.46,48.46,0,0,1,3-8.07,66.82,66.82,0,0,1,5.7-10.65,5.91,5.91,0,0,0,1-2.66A2.7,2.7,0,0,0,234.14,47a3.49,3.49,0,0,0-4.78.94,29.07,29.07,0,0,0-3.31,5.26,22.89,22.89,0,0,1-3.7,6.12,11.53,11.53,0,0,0-.84,1,66.2,66.2,0,0,1-12.31,12,20,20,0,0,1-6.53,3.47c-2.43.67-4.61-.08-5.54-2.59a7.65,7.65,0,0,1-.41-3.66,40.11,40.11,0,0,1,.75-4.36A37.26,37.26,0,0,1,200.69,56a4.24,4.24,0,0,1,1-1.16c2.67-2.29,5.43-4.48,8-6.83a117.47,117.47,0,0,0,12.27-13,84.34,84.34,0,0,0,9.85-14.57,32.67,32.67,0,0,0,4.09-13.15,5.85,5.85,0,0,0-4.09-6l-1-.34h-1.68a4.35,4.35,0,0,1-.76.28,15.91,15.91,0,0,0-8.19,4,41.89,41.89,0,0,0-7,7.88,119,119,0,0,0-8.79,14.41c-2,3.86-3.92,7.77-5.73,11.73-1.44,3.15-2.7,6.39-4,9.61-.67,1.66-1.23,3.36-1.82,5a18.79,18.79,0,0,1-8.36,2.14,1.74,1.74,0,0,1-1.95-1.68,7.64,7.64,0,0,1,0-1A6.82,6.82,0,0,0,177.92,47a12.2,12.2,0,0,0-6-.22,16.79,16.79,0,0,0-5,1.93,2.71,2.71,0,0,1-1.23.34c-4.6,0-9.2,0-13.8,0h-1.4c.17-.46.25-.76.38-1,.71-1.57,1.44-3.12,2.15-4.68A175.89,175.89,0,0,1,164.2,21.85a51.31,51.31,0,0,1,7.8-9.69,19.33,19.33,0,0,1,4.9-3.62,7,7,0,0,1,2-.63c.88-.13,1.34.28,1.51,1.14,0,.16,0,.32.06.48a2.44,2.44,0,0,0,2.35,2.31,3,3,0,0,0,2.5-.9,5.66,5.66,0,0,0,1.77-3.46,4.59,4.59,0,0,0-2.46-5.12,8.56,8.56,0,0,0-2.91-1,10.36,10.36,0,0,0-6,.65,26.12,26.12,0,0,0-5.46,3.22,48.53,48.53,0,0,0-7.56,7.33A51.37,51.37,0,0,0,157.35,20c-1.32,2.28-2.66,4.55-3.87,6.89q-2.74,5.33-5.3,10.74c-1.4,3-2.65,6.07-4,9.1-.33.76-.71,1.49-1.07,2.26-1,0-1.92-.06-2.83,0a8,8,0,0,0-2.34.45c-1.53.65-1.94,2-1.9,3.55a2,2,0,0,0,2,2.18l2,.2c-.17.57-.28,1-.45,1.46-1.72,4.34-3.3,8.73-4.65,13.2-.9,3-1.74,6-2.57,9a2.38,2.38,0,0,0,1.33,2.87c1.18.66,2.24.25,3.32-.2a2.62,2.62,0,0,0,1.58-1.84c.36-1.22.75-2.43,1.12-3.65,1.82-6,4.07-11.76,6.43-17.51.51-1.25,1.08-2.48,1.63-3.72l6-.49a29.08,29.08,0,0,1,6.07-.13c-.28.4-.45.66-.63.9a32.91,32.91,0,0,0-4.18,6.83,25.07,25.07,0,0,0-2.16,7.56,16.16,16.16,0,0,0,.2,6.08c1.31,4.82,5.08,7.12,9.88,6.43a16,16,0,0,0,8.64-4.36,34,34,0,0,0,6.76-9.24c1-1.86,1.81-3.81,2.76-5.83a36.93,36.93,0,0,0,9.5-1.57c0,.43-.06.66-.1.89-.33,1.92-.73,3.84-1,5.77a15.85,15.85,0,0,0,.4,7.11,9.75,9.75,0,0,0,6.22,6.5,11.2,11.2,0,0,0,8.63-.4,29,29,0,0,0,6.38-3.77c2.29-1.8,4.49-3.72,6.73-5.59.22-.18.47-.35.88-.66,0,.42-.07.61-.09.79a13.23,13.23,0,0,0-.14,3.82c.45,3.63,3.24,6.93,8,5.82a22,22,0,0,0,6.51-3,59.89,59.89,0,0,0,7.9-6,3.6,3.6,0,0,1,1.41-.94,16.07,16.07,0,0,0,.65,5,8.08,8.08,0,0,0,5.29,5.3,10.62,10.62,0,0,0,6.36-.19,17.76,17.76,0,0,0,8.7-6.09,51.91,51.91,0,0,0,3.06-4.28A41,41,0,0,0,271.56,60a15.74,15.74,0,0,0,.52-8A6.3,6.3,0,0,0,267.82,47.05ZM204,44a60.47,60.47,0,0,1,3.75-9.3c1.79-3.52,3.6-7,5.55-10.47a60.55,60.55,0,0,1,9.73-13.15,20.17,20.17,0,0,1,2.77-2.29,4.33,4.33,0,0,1,1.85-.74c1-.14,1.59.46,1.52,1.49a9.82,9.82,0,0,1-.32,1.77,35.32,35.32,0,0,1-4.53,9.45,115.31,115.31,0,0,1-7.86,11,97.3,97.3,0,0,1-11.62,12.56,8.47,8.47,0,0,1-.76.58s-.14,0-.3,0C203.89,44.63,203.94,44.32,204,44ZM175.64,59.68a36.72,36.72,0,0,1-6.42,12.49,16.13,16.13,0,0,1-3.83,3.59,4.51,4.51,0,0,1-2.46.83,2.77,2.77,0,0,1-2.5-1.37,4.91,4.91,0,0,1-.76-3.18,24.09,24.09,0,0,1,7-14.62,11.89,11.89,0,0,1,5.59-3.51c2.49-.67,3.93.73,3.87,3.52A21.43,21.43,0,0,1,175.64,59.68Zm89.65.35a39.15,39.15,0,0,1-5.62,11.18,17.7,17.7,0,0,1-4.36,4.4l-.41.26a3.42,3.42,0,0,1-3.72.36,3.87,3.87,0,0,1-1.84-3.68,20.52,20.52,0,0,1,1.84-7.49,25.55,25.55,0,0,1,5.56-8A11.63,11.63,0,0,1,262,53.9c2.59-.64,3.92.82,4,3.11C265.76,58,265.61,59.05,265.29,60Z"/><path class="cls-1" d="M85,77.1a4,4,0,0,1-.82-2.68c.1-1.23.17-2.47.37-3.69a64.15,64.15,0,0,1,3.47-12.08Q90.68,51.78,93.61,45A222.86,222.86,0,0,1,104.5,23.39c3.09-5.46,5.94-11,8.86-16.6a3.59,3.59,0,0,0-1.55-4.85,3.54,3.54,0,0,0-4.8,1.6l-1.49,2.74c-2.17,4-4.36,8-6.52,12-1.77,3.27-3.42,6.61-5.3,9.81-3.52,6-7.35,11.72-11.44,17.3A128,128,0,0,1,64.75,65.21a47.25,47.25,0,0,1-11,7.61,20.68,20.68,0,0,1-13.36,2.09A13.69,13.69,0,0,1,29.7,66.43a29,29,0,0,1-2.11-11.11,46.78,46.78,0,0,1,1.76-12.66A91.26,91.26,0,0,1,40.76,17.54c2.22-3.56,4.65-7,7-10.45a3.51,3.51,0,0,0-.72-4.91,3.45,3.45,0,0,0-5,.91q-2.81,4-5.53,8.12a119.4,119.4,0,0,0-9.08,16.33,76.65,76.65,0,0,0-5.8,17.6,49,49,0,0,0-.91,12.27,36,36,0,0,0,2.5,11.28c1.35,3.33,3.09,6.4,6.12,8.56a25.83,25.83,0,0,0,9.12,4.37,24.49,24.49,0,0,0,8.32.45A28.63,28.63,0,0,0,56,79.46a50.46,50.46,0,0,0,12-7.88A119.59,119.59,0,0,0,78.3,61.41l1.82-2,.22.11c-.07.3-.14.61-.22.91-.69,2.54-1.45,5.06-2.05,7.62a25.12,25.12,0,0,0-.74,7.73,8.37,8.37,0,0,0,2.37,5.6A3.43,3.43,0,0,0,83,82.42,3.33,3.33,0,0,0,85,77.1Z"/><path class="cls-1" d="M126.08,46.42a16.18,16.18,0,0,0-3.19,1A33.78,33.78,0,0,0,116,51.66a74.46,74.46,0,0,0-8,7.11,3.32,3.32,0,0,1-.58.4l-.19-.18q1.23-2.12,2.45-4.23c.85-1.5,1.76-3,2.49-4.51a2.38,2.38,0,0,0-1.38-3.42,4.22,4.22,0,0,0-5.64,1.35A33.09,33.09,0,0,0,102.68,52,84.21,84.21,0,0,0,98,62.22c-1.57,3.93-3.14,7.86-4.6,11.82-1.36,3.71-2.6,7.47-3.82,11.23-.67,2-1.23,4.13-1.77,6.21a113.06,113.06,0,0,0-2.59,13.64,21.18,21.18,0,0,0-.27,2.74,3.27,3.27,0,0,0,3.14,3.3,3.4,3.4,0,0,0,3.76-2.93c.08-.64.16-1.27.23-1.9A95.73,95.73,0,0,1,93.85,96a93.36,93.36,0,0,1,3.56-12.18,15.58,15.58,0,0,1,1.84-3.52l.69.4a10.19,10.19,0,0,0,6.29,1.57,21.61,21.61,0,0,0,7.68-2.12,29.7,29.7,0,0,0,8.94-7,41.69,41.69,0,0,0,6.11-9A29.81,29.81,0,0,0,132,55.38a11.45,11.45,0,0,0-.36-5.69A4.85,4.85,0,0,0,126.08,46.42ZM124.57,57.2a27,27,0,0,1-2.83,6.32,34.66,34.66,0,0,1-4.34,6,21.36,21.36,0,0,1-7,5.31A12.1,12.1,0,0,1,105.54,76a4.94,4.94,0,0,1-3.94-1.77,17,17,0,0,1,2.81-4.76A65,65,0,0,1,118,56.51a30.88,30.88,0,0,1,3.83-2.2A3.53,3.53,0,0,1,123.4,54a1.36,1.36,0,0,1,1.36,1.39A6.17,6.17,0,0,1,124.57,57.2Z"/><path class="cls-1" d="M239.5,40a3.55,3.55,0,1,0-3.57-3.58A3.63,3.63,0,0,0,239.5,40Z"/><polygon class="cls-1" points="274.9 74.57 277.43 74.57 277.43 82.08 279.05 82.08 279.05 74.57 281.6 74.57 281.6 73.21 274.9 73.21 274.9 74.57"/><path class="cls-1" d="M291.32,73.21h-2.11L288,76.76c-.34,1-.64,2.13-.88,3.09h0c-.22-1-.5-2-.82-3.07l-1.15-3.57H283l-.6,8.87h1.52l.19-3.57c.07-1.21.12-2.61.16-3.77h0c.23,1.1.55,2.31.89,3.44L286.35,82h1.24l1.29-3.84c.4-1.12.77-2.31,1.06-3.39h0c0,1.19,0,2.58.1,3.72l.17,3.62h1.58Z"/></g></svg>