<svg id="Слой_1" data-name="Слой 1" xmlns="http://www.w3.org/2000/svg" viewBox="0 0 1422 870">
  <defs>
    <style>
      .cls-1, .cls-16, .cls-6, .cls-7 {
        fill: #fff;
      }

      .cls-14, .cls-2, .cls-4, .cls-8 {
        fill: #ebebeb;
      }

      .cls-11, .cls-12, .cls-13, .cls-18, .cls-3 {
        fill: none;
      }

      .cls-11, .cls-12, .cls-14, .cls-15, .cls-16, .cls-3, .cls-4, .cls-6, .cls-7, .cls-8, .cls-9 {
        stroke: #4a4a4a;
      }

      .cls-11, .cls-12, .cls-13, .cls-14, .cls-15, .cls-16, .cls-18, .cls-3, .cls-4, .cls-6, .cls-7, .cls-8, .cls-9 {
        stroke-linecap: round;
        stroke-linejoin: round;
      }

      .cls-13, .cls-15, .cls-16, .cls-3, .cls-4 {
        stroke-width: 2.5px;
      }

      .cls-5 {
        fill: #ededed;
      }

      .cls-11, .cls-14, .cls-18, .cls-6 {
        stroke-width: 4px;
      }

      .cls-12, .cls-7, .cls-8 {
        stroke-width: 1.5px;
      }

      .cls-15, .cls-17, .cls-9 {
        fill: #ff0083;
      }

      .cls-9 {
        stroke-width: 2px;
      }

      .cls-10 {
        fill: #f9f9f9;
      }

      .cls-13, .cls-18 {
        stroke: #ff0083;
      }
    </style>
  </defs>
  <title>Монтажная область 1 копия 4</title>
  <g>
    <g>
      <polygon class="cls-1" points="193.6 780.97 193.6 801.27 190.22 801.26 24.25 800.74 24.25 779.45 -11.68 779.45 -11.68 779.4 24.25 779.4 24.25 550.55 21.45 550.55 21.45 550.5 24.25 550.5 24.25 377.06 137.72 399.56 185.05 408.94 185.05 434.58 172.22 434.58 172.22 469.86 187.18 469.86 187.18 535.08 177.57 535.08 177.57 550.04 164.74 550.04 169.01 755.31 169.22 755.34 173.18 755.83 177.09 756.32 177.57 756.37 177.57 780.97 193.6 780.97"/>
      <rect class="cls-2" x="65.19" y="569.07" width="13.46" height="88.64"/>
      <rect class="cls-2" x="65.18" y="679.04" width="13.46" height="57.78"/>
      <polygon class="cls-2" points="50.62 537.09 50.62 542.14 50.59 766 50.59 779.45 3.46 779.45 3.46 779.4 42.17 779.4 42.17 755.88 32.35 755.88 32.35 755.84 28.18 550.55 28.18 550.5 42.21 550.5 42.21 537.09 50.62 537.09"/>
      <polygon class="cls-2" points="128.04 535.42 128.04 540.47 43.89 540.45 40.17 540.45 40.17 535.4 43.89 535.4 128.04 535.42"/>
      <polygon class="cls-2" points="130.84 766 130.84 781.15 24.25 781.13 24.25 779.45 -11.68 779.45 -11.68 779.4 42.17 779.4 42.17 766 130.84 766"/>
      <polygon class="cls-2" points="193.68 791.24 193.68 799.65 193.6 799.65 24.25 799.63 24.25 791.22 193.6 791.24 193.68 791.24"/>
      <rect class="cls-2" x="24.25" y="434.43" width="147.57" height="15.15"/>
      <rect class="cls-2" x="68.02" y="469.78" width="16.83" height="69.85"/>
      <polygon class="cls-2" points="79.26 410.87 24.25 410.87 24.25 400.54 79.26 410.87"/>
      <rect class="cls-1" x="25.63" y="755.83" width="9.81" height="0.05"/>
      <rect class="cls-1" x="24.25" y="537.04" width="11.22" height="0.05"/>
      <rect class="cls-1" x="-11.68" y="779.4" width="47.13" height="0.05"/>
      <rect class="cls-1" x="21.45" y="550.5" width="14.02" height="0.06"/>
      <g>
        <polyline class="cls-3" points="40.77 779.41 40.77 755.85 32.91 755.85 28.66 550.52 40.73 550.52 40.73 537.06"/>
        <polyline class="cls-3" points="230.59 801.26 193.6 801.26 190.22 801.26 24.25 801.29"/>
        <polyline class="cls-3" points="31.33 781.09 130.84 781.08 193.6 781.06 193.92 781.06 193.94 799.58"/>
        <line class="cls-3" x1="24.25" y1="781.09" x2="24.5" y2="781.09"/>
        <polyline class="cls-3" points="177.1 779.39 177.09 755.83 169.23 755.83 164.99 550.5 177.05 550.5 177.05 537.03"/>
        <polyline class="cls-3" points="129.93 537.04 129.93 550.5 143.95 550.5 139.78 755.83 129.97 755.84 129.97 779.4"/>
        <polyline class="cls-3" points="74.95 535.37 187.15 535.35 187.14 469.71 77.76 469.72"/>
        <line class="cls-3" x1="28" y1="461.33" x2="24.25" y2="461.33"/>
        <polyline class="cls-3" points="29 537.06 35.47 537.06 40.73 537.06 68.02 537.06 69.34 537.06 69.34 535.41 69.32 469.77 69.32 461.32 34 461.32"/>
        <line class="cls-3" x1="24.25" y1="537.06" x2="24.83" y2="537.06"/>
        <rect class="cls-3" x="66" y="678.42" width="45.44" height="57.22"/>
        <line class="cls-3" x1="171.99" y1="469.71" x2="171.99" y2="434.98"/>
        <polyline class="cls-3" points="41.93 380.35 137.72 399.56 185.05 409.05 185.44 409.12 185.46 434.37 185.05 434.37 24.25 434.4"/>
        <line class="cls-3" x1="24.25" y1="376.8" x2="32.03" y2="378.36"/>
        <path class="cls-3" d="M89.56,656.55H66V565.66h45.43l0,64m0,0v26.93l-21.87,0"/>
        <line class="cls-3" x1="73.85" y1="709.84" x2="92.36" y2="728.92"/>
      </g>
    </g>
    <polygon class="cls-2" points="216.1 826.91 24.45 826.85 24.45 818.09 219.02 818.16 216.1 826.91"/>
    <g>
      <path class="cls-4" d="M466.21,725.06c24.23,0,43.89-21.9,43.89-46.13A43.88,43.88,0,0,0,466.22,635c-.68,0-1.36,0-2,.05a53.66,53.66,0,0,0-101.14,3.2,53.66,53.66,0,0,0,41.39,87.78Z"/>
      <line class="cls-3" x1="430.47" y1="688.63" x2="430.44" y2="825.21"/>
    </g>
    <g>
      <polygon class="cls-5" points="271.14 770.66 279.22 770.66 275.18 809.9 262.48 809.9 271.14 770.66"/>
      <polygon class="cls-5" points="214.02 727.97 205.37 727.97 230.17 810.48 238.83 810.48 214.02 727.97"/>
      <polyline class="cls-6" points="295.08 600.74 355.95 713.25 348.17 721.91 321.91 706.04"/>
      <path class="cls-6" d="M229.31,589.78c-21.93,23.65-48.76,58.85-29.14,137.61h122.9l-3.18-43"/>
      <path class="cls-6" d="M303,578a22,22,0,0,1-16.21,26.6l-29.12,7.07A22,22,0,0,1,231,595.41l-10.1-41.6a22,22,0,0,1,16.2-26.6l29.13-7.07a22,22,0,0,1,26.6,16.21Z"/>
      <g>
        <rect class="cls-7" x="223.55" y="690.29" width="71.53" height="32.84" transform="translate(-482.06 576.14) rotate(-59.86)"/>
        <polygon class="cls-7" points="284.84 685.47 248.92 747.32 220.51 730.84 223.46 725.77 247.19 739.53 280.16 682.75 284.84 685.47"/>
        <rect class="cls-8" x="215.18" y="683.94" width="71.53" height="32.84" transform="translate(-480.74 565.77) rotate(-59.86)"/>
        <path class="cls-7" d="M200.31,660.89l4.14,33.88a8.86,8.86,0,0,0,5.32,7.07l32.95,14,5.2-9.09-12.55-19.9.43-19.48"/>
        <path class="cls-7" d="M242.72,715.85l21.6,15.71a2.31,2.31,0,0,0,3.42-.84l7-14.06a2.29,2.29,0,0,0,0-2,2.32,2.32,0,0,0-1.52-1.28l-25.37-6.64Z"/>
        <g>
          <polygon class="cls-9" points="272.36 631.31 252.11 639.14 251.27 623.35 272.22 628.64 272.36 631.31"/>
          <polygon class="cls-9" points="278.08 631.09 298.42 633.97 295.62 618.4 277.61 628.45 278.08 631.09"/>
          <path class="cls-9" d="M280.22,629.52a6.49,6.49,0,0,0-7.21-5.63,6.42,6.42,0,0,0-5.61,7.17,6.49,6.49,0,0,0,7.21,5.63A6.42,6.42,0,0,0,280.22,629.52Z"/>
        </g>
        <path class="cls-8" d="M251.52,589.2c8.08-.86,7.07-17.74,28-8.8,16.3-15,19.62-3.32,29.14-3.46-6.92,8.94-14.85,13.27-21.78,9.38s-10.29,1.23-12.69,3.89C271.43,593.24,261.19,596,251.52,589.2Z"/>
        <polygon class="cls-6" points="319.36 522.88 190.06 553.43 216.94 536.4 287.71 519.68 319.36 522.88"/>
        <polygon class="cls-10" points="239.31 530.79 217.46 536.08 203.57 477.68 225.43 472.4 239.31 530.79"/>
        <polygon class="cls-11" points="287.66 519.3 217.46 536.07 203.57 477.68 273.78 460.91 287.66 519.3"/>
        <rect class="cls-9" x="214.02" y="506.74" width="72.18" height="21.25" transform="translate(-113.06 72.02) rotate(-13.4)"/>
      </g>
      <line class="cls-11" x1="203.34" y1="727.97" x2="229.31" y2="809.61"/>
      <line class="cls-11" x1="318.16" y1="728.54" x2="299.12" y2="809.03"/>
      <line class="cls-7" x1="270.85" y1="767.49" x2="263.06" y2="808.46"/>
      <path class="cls-11" d="M315.28,827.78a17.18,17.18,0,0,0-17-17.31H227.87a17.17,17.17,0,0,0-17,17.31Z"/>
      <line class="cls-11" x1="262.2" y1="810.76" x2="262.2" y2="827.78"/>
      <polyline class="cls-7" points="353.07 727.97 324.8 828.36 331.72 828.36 366.05 734.6"/>
      <path class="cls-7" d="M355.38,714.69c10.67,1.74,22.8,9.41,23.08,14.72.29,5.48-4.33,11-8.95,10.38s-3.46-11-11-9.81c-10.58,1.63-10.09-6.92-10.09-6.92Z"/>
      <path class="cls-12" d="M232.19,597.86c5.77,0,13.85-3.75,11.83-34.33"/>
      <path class="cls-8" d="M267.68,557.68a12.19,12.19,0,1,0-12.19,12.19A12.18,12.18,0,0,0,267.68,557.68Z"/>
      <path class="cls-12" d="M262.6,558.49a6.28,6.28,0,0,0-12.34,2.34"/>
      <path class="cls-12" d="M287.7,553.88a6.28,6.28,0,0,0-12.34,2.33"/>
    </g>
    <g>
      <circle class="cls-4" cx="499.65" cy="691.87" r="46.65" transform="translate(-131.76 117.71) rotate(-11.88)"/>
      <line class="cls-3" x1="499.65" y1="691.87" x2="499.62" y2="828.36"/>
      <path class="cls-3" d="M473,673.64a32.06,32.06,0,0,0,7.39,44.93"/>
    </g>
    <line class="cls-3" x1="464.55" y1="828.36" x2="444.12" y2="828.36"/>
    <path class="cls-1" d="M488.19,826.29,559.56,773V705.33l26.88-20.4V492.13l93.63,53.76c4.17-112.62,42.17-245.17,100.57-245.17,54.69,0,100.11,114,100.11,236.37v289.2Z"/>
    <g>
      <path class="cls-2" d="M781.09,300.49c20.87,3.93,82,79.94,47.75,529.51,41.71-.93,52.84-.93,52.84-.93s15.75-346.67-21.32-434.73S801,302.12,781.09,300.49Z"/>
      <path class="cls-2" d="M647.53,525.89V826h43.29S672.1,682.69,680.29,545.78C668.59,537.59,647.53,525.89,647.53,525.89Z"/>
      <path class="cls-3" d="M783.2,374.61c-21.21,52.56-55.15,105.72-93.83,165"/>
      <path class="cls-3" d="M697.27,456.74S736.09,418.11,763,372"/>
      <path class="cls-3" d="M692,826.63c-46.39-366,27.85-539.68,98.45-524.89,9.11,1.9,18.17,7,26.89,15.12,9,8.41,17.59,20.11,25.58,35.14.7,1.3,1.38,2.63,2.07,4a285.79,285.79,0,0,1,15.55,37.84s15,42.26,17.77,90.44l4.16,64.32"/>
      <path class="cls-3" d="M832.85,367.17c3.39,1.16,6.76,2.47,10.1,4"/>
      <path class="cls-3" d="M719.21,371.13a206.2,206.2,0,0,1,69.9-11.28"/>
      <polyline class="cls-3" points="559.56 772.07 559.18 705.73 618.28 661.04"/>
      <polyline class="cls-3" points="586.45 684.01 586.39 492.24 680.07 545.89"/>
      <line class="cls-3" x1="487.75" y1="828.28" x2="638.17" y2="712.53"/>
    </g>
    <g>
      <path class="cls-3" d="M565.4,395.89s-8.76-13.14-21.16-13.14H505.57L518,395.16h32.84"/>
      <polyline class="cls-3" points="539.13 402.46 534.02 406.83 506.3 406.83 488.42 388.96"/>
      <path class="cls-3" d="M485.87,379.84H472.73s-5.1,8,1.46,13.86h11.68"/>
      <path class="cls-3" d="M535.48,388.59Z"/>
      <path class="cls-3" d="M530,388.59Z"/>
      <path class="cls-3" d="M523.81,388.59Z"/>
      <line class="cls-3" x1="451.57" y1="386.89" x2="397.09" y2="386.89"/>
      <line class="cls-3" x1="463.25" y1="393.7" x2="439.9" y2="393.7"/>
    </g>
    <g>
      <path class="cls-13" d="M779.83,282.93s40.65,1.64,67.66,40"/>
      <path class="cls-13" d="M774.25,245.53s64,2.59,106.54,63.07"/>
      <path class="cls-13" d="M873.73,243a196.55,196.55,0,0,1,36.77,39.6"/>
      <path class="cls-13" d="M772.89,201.11s43.57,1.76,88.47,32.62"/>
    </g>
    <g>
      <path class="cls-1" d="M1021.08,825.83V182.53c39.86-48.2,129.78-114.94,247.5-109.38V184.38h35.22v86.21l43.57,17.61V439.29l16.68,9.27V618.19l25,11.13V829.54h-368Z"/>
      <g>
        <path class="cls-2" d="M1077.17,826.85c-19.66-360,42.35-526.39,42.35-526.39s-54.45,319.16,7.57,526.39Z"/>
        <polygon class="cls-2" points="1302.56 365.5 1302.56 826.85 1317.69 826.85 1317.69 341.3 1302.56 365.5"/>
        <polygon class="cls-2" points="1285.92 183.98 1285.92 380.62 1304.07 356.42 1304.07 183.23 1285.92 183.98"/>
        <path class="cls-2" d="M1021.21,185.5s199.66,0,249.58-111.94C1219.36,60,1059,111.38,1021.21,185.5Z"/>
        <path class="cls-2" d="M1266.13,399.47v-86S1095.05,522.1,1145.74,828.36h59.14s-42.24-233.39,64-418.53"/>
        <g>
          <polyline class="cls-3" points="1389.45 822.03 1389.45 629.2 1334.54 604.5"/>
          <polyline class="cls-3" points="1364.11 616.14 1364.11 448.18 1334.54 435.51"/>
          <polyline class="cls-3" points="1347.21 433.4 1347.21 288.56 1315.53 274.99"/>
        </g>
        <path class="cls-3" d="M1204.88,828.36s-48.58-314.7,114.06-485.79V826.85"/>
        <path class="cls-3" d="M1304.15,357.36V184.16h-52.8v29.57L1124.62,294c-27.46,101.38-48.58,340,2.11,532.25"/>
        <path class="cls-3" d="M1249.23,241.72c-86.59,111.42-152.07,350.09-103.49,586.64"/>
        <line class="cls-3" x1="1318.94" y1="500.98" x2="1258.51" y2="500.98"/>
        <line class="cls-3" x1="1318.94" y1="532.13" x2="1258.51" y2="532.13"/>
        <line class="cls-3" x1="1318.94" y1="563.29" x2="1258.51" y2="563.29"/>
        <line class="cls-3" x1="1299.14" y1="625.6" x2="1238.72" y2="625.6"/>
        <line class="cls-3" x1="1304.15" y1="656.75" x2="1258.51" y2="656.75"/>
        <path class="cls-3" d="M1269.78,159.52V73.06c-164.38-2.45-249.09,109.28-249.09,109.28V826.1"/>
        <path class="cls-3" d="M1020.69,182.34c43.73,0,215-9.33,249.09-109.28"/>
      </g>
    </g>
    <line class="cls-3" x1="558.6" y1="601.93" x2="569.54" y2="601.93"/>
    <line class="cls-3" x1="532.33" y1="601.93" x2="510.44" y2="601.93"/>
    <g>
      <rect class="cls-14" x="1072.02" y="520.61" width="42.46" height="128.29" rx="19.67" ry="19.67"/>
      <polygon class="cls-14" points="1113.14 665.88 1073.36 665.88 1078.73 640.4 1107.78 640.4 1113.14 665.88"/>
      <path class="cls-6" d="M1033.73,524.78h22.8a28.16,28.16,0,0,1,28.16,28.16v52.13a20.34,20.34,0,0,1-2.53,9.82l-2.24,4.06V653.6a5.58,5.58,0,0,1-.42,2.13l-1.07,2.55V809.07H996.78V655.9H975.92v-103a28.16,28.16,0,0,1,28.16-28.16Z"/>
      <path class="cls-11" d="M996.78,690.76H994.1a14.31,14.31,0,0,1-14.31-14.3V655.9h17Z"/>
      <polyline class="cls-3" points="992.91 565.9 992.91 654.99 1079.92 654.99"/>
      <line class="cls-3" x1="1033.13" y1="677.95" x2="1033.13" y2="809.07"/>
      <path class="cls-15" d="M1026.22,616.09a3.57,3.57,0,0,1-3.31,3.82l-17.14,1.2a3.59,3.59,0,0,1-3.81-3.33l-2.62-37.9a3.57,3.57,0,0,1,3.31-3.82l17.14-1.19a3.58,3.58,0,0,1,3.81,3.32Z"/>
      <path class="cls-3" d="M1057.05,576.26v19.22a8.27,8.27,0,0,1-8.27,8.27h-13.86v21.68h34c5.59,0,11-5.86,11-8.94"/>
      <path class="cls-16" d="M1034.92,607.33l-16.78-8.87a6.43,6.43,0,0,0-9.17,3.83l-2.91,9.61a6.43,6.43,0,0,0,5.33,8.25l23.53,3"/>
      <path class="cls-11" d="M1073.15,523.29v.22h0A.86.86,0,0,0,1073.15,523.29Z"/>
      <path class="cls-11" d="M1073.15,472.55v50.74a.86.86,0,0,1,0,.22c-.21,12.47-20.9,22.58-46.36,22.58S980.62,536,980.41,523.51h0v-51a35.76,35.76,0,0,1,35.76-35.76h21.24A35.77,35.77,0,0,1,1073.15,472.55Z"/>
      <rect class="cls-6" x="1001.74" y="463.99" width="53.64" height="71.22" rx="19.67" ry="19.67"/>
      <path class="cls-6" d="M999.33,454.75c-3.74,7.45-2.62,30.55,2.41,40.83,0-24,9-18.45,16.64-19.22,5.34-.54,15.65-7,23.84-2.24s9.69,23.54,13.16,23.54c6.66,0,7.85-59.68-34.76-43.5C1013.06,457,1007.8,461.46,999.33,454.75Z"/>
      <path class="cls-16" d="M1016,516.44c7.3,4.47,12.82,4.77,20.41,0"/>
      <path class="cls-16" d="M1021.36,502.28a6.56,6.56,0,0,0-13.11,0"/>
      <path class="cls-16" d="M1043,502.28a6.56,6.56,0,0,0-13.11,0"/>
      <path class="cls-6" d="M1033.13,809.07H991.57a11.77,11.77,0,0,0-11.78,11.77v5.51h53.34Z"/>
      <path class="cls-6" d="M1079,809.07h-41.57a11.77,11.77,0,0,0-11.78,11.77v5.51H1079Z"/>
    </g>
    <path class="cls-17" d="M984.76,370.68a2.46,2.46,0,1,0,0-4.92h-7v-3.43h7a2.47,2.47,0,0,0,0-4.93h-7v-6a2.47,2.47,0,0,0-2.46-2.46h-6.14V341.8a2.47,2.47,0,0,0-4.93,0v7.13h-3.44V341.8a2.47,2.47,0,0,0-4.93,0v7.13h-3.41V341.8a2.47,2.47,0,0,0-4.93,0v7.13h-5.77a2.48,2.48,0,0,0-2.47,2.47v6h-7.35a2.47,2.47,0,1,0,0,4.93h7.38v3.44h-7.38a2.47,2.47,0,1,0,0,4.93h7.38V374h-7.38a2.47,2.47,0,1,0,0,4.93h7.38v6a2.46,2.46,0,0,0,2.46,2.46h5.78v7.25a2.46,2.46,0,1,0,4.92,0v-7.25h3.45v7.25a2.47,2.47,0,1,0,4.93,0v-7.25h3.39v7.25a2.47,2.47,0,0,0,2.46,2.47,2.66,2.66,0,0,0,2.47-2.47v-7.25h6.14a2.38,2.38,0,0,0,2.46-2.46v-6h7a2.47,2.47,0,0,0,0-4.93h-7v-3.32Zm-16,7.84H948.15v-20.6h20.61Zm4.08,4.08"/>
    <path class="cls-17" d="M605.79,241.1l-7.47,1.32q-.77-4.33-1.53-8.7l-4.76.84,1.54,8.7-7.48,1.32-1.54-8.77-15.8,2.79-1.31-7.39.66-.12c1-.19,2-.35,2.93-.57a2.47,2.47,0,0,0,2.12-3.11c-.1-.76-.2-1.52-.33-2.28q-2.4-13.57-4.8-27.16c-.21-1.22-.46-2.45-.71-3.66a2.5,2.5,0,0,0-3.06-2.22c-1,.11-2,.3-3,.46l-.6.08c-.44-2.49-.87-4.91-1.31-7.41l15.79-2.79c-.52-3-1-5.84-1.54-8.72l7.48-1.32q.77,4.34,1.53,8.7l4.76-.84-1.54-8.7,7.47-1.32c.05.22.1.45.14.67.45,2.55.92,5.09,1.34,7.65.09.58.27.84.9.75a10.56,10.56,0,0,1,1.49,0,16.08,16.08,0,0,1,7.73,1.86,11.84,11.84,0,0,1,5.42,14.95A14.39,14.39,0,0,1,604,203l-.59.37a1.3,1.3,0,0,0,.65.2,19.54,19.54,0,0,1,6,1.34,11.75,11.75,0,0,1,6.41,6.41c2.28,5.58,1.18,10.63-2.8,15.06a19.51,19.51,0,0,1-8.86,5.3c-.53.17-.63.37-.53.89C604.81,235.4,605.3,238.25,605.79,241.1ZM584,211.31c0,.18,0,.29,0,.4.67,3.76,1.32,7.51,2,11.26.15.81.35,1.61.57,2.4a1.1,1.1,0,0,0,1.28.91c1.82-.24,3.64-.48,5.44-.82a43.48,43.48,0,0,0,4.63-1.15,7.56,7.56,0,0,0,4-2.76,7.8,7.8,0,0,0,1.44-6,6.59,6.59,0,0,0-5.38-5.81,14.76,14.76,0,0,0-5.26,0c-2.76.41-5.51.93-8.27,1.4C584.31,211.21,584.17,211.26,584,211.31Zm-1.38-7.91a3.47,3.47,0,0,0,.49,0c1.83-.32,3.66-.63,5.49-1a24,24,0,0,0,6-1.72,6.54,6.54,0,0,0,3.43-3.32c1.51-3.55-.46-8.49-5.29-8.59a22,22,0,0,0-3.54.19c-2.83.42-5.63.93-8.45,1.41l-.46.13C581.08,194.79,581.84,199.06,582.6,203.4Z"/>
    <g>
      <path class="cls-1" d="M776.57,807l6.82-115.84c-10.22-3.41-15.9-1.14-15.9-17v-17h-2.27V554.72a28.52,28.52,0,0,1,28.27-28.52l72.42-.63a28.53,28.53,0,0,1,28.78,28.52V677.5a13.63,13.63,0,0,1-13.63,13.63h0L891.28,807h1.56a17.75,17.75,0,0,1,17.75,17.75v1.56H856.07V807l-20.44-86.31L815.19,807v19.31H760.67l-.15-2.67A15.71,15.71,0,0,1,776.21,807Z"/>
      <g>
        <polygon class="cls-15" points="880.55 529.25 902.9 484.55 885.92 534.91 880.55 529.25"/>
        <path class="cls-15" d="M908.27,486a5.66,5.66,0,1,0-5.66,5.66A5.66,5.66,0,0,0,908.27,486Z"/>
      </g>
      <g>
        <polygon class="cls-15" points="781.02 527.46 758.67 484.55 773.87 533.13 781.02 527.46"/>
        <circle class="cls-15" cx="758.97" cy="486.04" r="5.66"/>
      </g>
      <path class="cls-11" d="M836.75,719.08l18.47,89.4H891l-12.51-152h16.68V555.18a30.39,30.39,0,0,0-30.39-30.4H795.62a30.4,30.4,0,0,0-30.39,30.4V656.5H784.9l-5.37,150.78H814.1L841.52,697"/>
      <rect class="cls-4" x="785.49" y="638.02" width="92.38" height="17.28"/>
      <line class="cls-3" x1="785.49" y1="655.3" x2="785.49" y2="576.63"/>
      <line class="cls-3" x1="877.87" y1="655.3" x2="877.87" y2="576.63"/>
      <path class="cls-11" d="M783.7,691.06h-1.48A15.19,15.19,0,0,1,767,675.87V656.5H783.7Z"/>
      <path class="cls-11" d="M894.55,656.5v19.36a15.17,15.17,0,0,1-13.25,15.07l-2.84-34.43Z"/>
      <rect class="cls-4" x="840.32" y="562.92" width="30.4" height="45.89" rx="4.17" ry="4.17"/>
      <rect class="cls-16" x="848.67" y="571.86" width="13.71" height="19.67"/>
      <rect class="cls-4" x="798.01" y="627.29" width="11.32" height="44.7" rx="3.58" ry="3.58"/>
      <rect class="cls-4" x="850.46" y="627.29" width="11.32" height="44.7" rx="3.58" ry="3.58"/>
      <path class="cls-4" d="M771.49,618.35a3.58,3.58,0,0,1-3.58,3.58h-.6a8.64,8.64,0,0,1-8.64-8.64V602.56a8.64,8.64,0,0,1,8.64-8.64h.6a3.57,3.57,0,0,1,3.58,3.57Z"/>
      <path class="cls-4" d="M890.68,618.35a3.58,3.58,0,0,0,3.58,3.58h.6a8.64,8.64,0,0,0,8.64-8.64V602.56a8.64,8.64,0,0,0-8.64-8.64h-.6a3.57,3.57,0,0,0-3.58,3.57Z"/>
      <path class="cls-4" d="M814.85,754.9a10.85,10.85,0,0,1-11.33,10.36l-19-.84a8.23,8.23,0,0,1-7.85-8.58l1.06-23.76a8.22,8.22,0,0,1,8.58-7.85l10.14.45a19.75,19.75,0,0,1,18.86,20.61Z"/>
      <path class="cls-4" d="M852.77,754.9a10.85,10.85,0,0,0,11.33,10.36l19-.84a8.24,8.24,0,0,0,7.85-8.58l-1.06-23.76a8.22,8.22,0,0,0-8.58-7.85l-10.14.45a19.75,19.75,0,0,0-18.86,20.61Z"/>
      <path class="cls-6" d="M815,807.28H777.44a17,17,0,0,0-17,17v2.08H815Z"/>
      <path class="cls-6" d="M855.52,807.28h37.55a17,17,0,0,1,17,17v2.08H855.52Z"/>
      <path class="cls-11" d="M875.64,476.13a37.78,37.78,0,0,0-37.78-37.77H822.67a37.78,37.78,0,0,0-37.78,37.77v50.29c13.86,26.37,79.57,23.69,90.75,0Z"/>
      <rect class="cls-6" x="805.46" y="463.99" width="53.64" height="71.22" rx="19.67" ry="19.67"/>
      <path class="cls-14" d="M863.57,469.65v14a19.61,19.61,0,0,1-4.47,12.52V489c0-15.85-11.43-21-18.15-14.67a12.41,12.41,0,0,1-16.83.09c-7.29-6.67-18.66-.33-18.66,14.58v5.07a19.51,19.51,0,0,1-3-10.44v-14c0-10.87,8.78-21.45,19.58-21.45H844C854.8,448.2,863.57,458.78,863.57,469.65Z"/>
      <path class="cls-3" d="M829.44,502a6.41,6.41,0,0,0-12.81,0"/>
      <path class="cls-3" d="M851.79,502A6.41,6.41,0,0,0,839,502"/>
      <path class="cls-3" d="M826.17,519.12s15.05,6,24.29-4.62"/>
    </g>
    <g>
      <path class="cls-18" d="M187.92,322.31a29.71,29.71,0,1,0-36,21.59A29.72,29.72,0,0,0,187.92,322.31Z"/>
      <path class="cls-18" d="M173.51,318.7c4-15.91.77-30.43-7.19-32.43s-17.64,9.29-21.62,25.21-.78,30.43,7.18,32.42S169.52,334.61,173.51,318.7Z"/>
      <line class="cls-18" x1="137.15" y1="295.98" x2="188.17" y2="308.77"/>
      <line class="cls-18" x1="131.08" y1="322.1" x2="180.75" y2="334.55"/>
      <line class="cls-18" x1="166.16" y1="286.92" x2="151.98" y2="343.5"/>
    </g>
    <line class="cls-11" x1="12.01" y1="828.39" x2="1410.83" y2="828.42"/>
    <g>
      <path class="cls-3" d="M198,246.52A99.87,99.87,0,0,1,319.46,310"/>
      <path class="cls-3" d="M299.58,349.79a32.71,32.71,0,0,1,61.14-17.54"/>
      <path class="cls-3" d="M197.58,161.49a102.43,102.43,0,0,1,45.68,79.58"/>
      <path class="cls-3" d="M372.79,232s.07,10.77-11.42,18.14-18.72,11.75-18.72,11.75l.71-12.95,9.7-6.41"/>
      <path class="cls-3" d="M376,234s44.28-18.3,46-64.58c-39.05-6.11-62.41,12.55-99.47,61-1.11,5.55,5.47,19.23,16.92,23.76"/>
      <path class="cls-3" d="M407.33,207.89c-3.12-1.74-9.11-6.07-15.87-16"/>
      <path class="cls-3" d="M373.7,222.12a5.37,5.37,0,0,0,7.5,1.07l14-10.48a5.35,5.35,0,0,0,1.07-7.5h0a5.37,5.37,0,0,0-7.5-1.07l-14,10.48a5.36,5.36,0,0,0-1.08,7.5Z"/>
      <path class="cls-3" d="M310.28,239.65a11.28,11.28,0,0,1-2.24-22"/>
      <path class="cls-3" d="M353.92,268.46a9,9,0,0,1-18-1.77"/>
      <path class="cls-3" d="M303.92,249.78A9.77,9.77,0,0,1,298.85,231"/>
      <path class="cls-3" d="M334.89,256.36a111,111,0,0,1-32.36,21.74"/>
      <path class="cls-3" d="M348.3,195.47s-10.7-1.21-19.23,9.44-13.66,17.38-13.66,17.38l8.24.46"/>
    </g>
  </g>
</svg>
