<svg id="work" xmlns="http://www.w3.org/2000/svg" viewBox="0 0 1422 870"><defs><style>.cls-1{fill:#fff;}.cls-10,.cls-2,.cls-3,.cls-5,.cls-6,.cls-7,.cls-8{fill:none;}.cls-2,.cls-3,.cls-5,.cls-6,.cls-7{stroke:#4a4a4a;}.cls-10,.cls-2{stroke-miterlimit:10;}.cls-2,.cls-3{stroke-width:3px;}.cls-3,.cls-5,.cls-6,.cls-7,.cls-8{stroke-linecap:round;stroke-linejoin:round;}.cls-4{fill:#ff0083;}.cls-5{stroke-width:4px;}.cls-6,.cls-8{stroke-width:2.5px;}.cls-7{stroke-width:1.2px;}.cls-8{stroke:#494949;}.cls-9{fill:#ebebeb;}.cls-10{stroke:#ff0083;stroke-width:7px;}</style></defs><title>15,1</title><path class="cls-1" d="M491.81,247c4.25,35.72-1.67,73.43-19.38,98.42-16.12,22.74-42.51,34.26-69.87,37.52C345.14,389.79,292,340,283.87,271.79c-4.5-37.77,1.73-75.28,21.5-100.62,15.95-20.44,42.11-32.27,67.75-35.33,9.54-1.13,18-2.71,27.09-.89C446,144.06,485,190.11,491.81,247Z"/><path class="cls-1" d="M883.77,247c-4.25,35.72,1.67,73.43,19.38,98.42C919.27,368.17,945.66,379.69,973,383c57.42,6.84,110.56-42.93,118.69-111.16,4.5-37.77-1.73-75.28-21.5-100.62-16-20.44-42.11-32.27-67.75-35.33-9.54-1.13-18-2.71-27.09-.89C929.62,144.06,890.55,190.11,883.77,247Z"/><path class="cls-1" d="M142.65,742.4c-10.38-36-16.43-79.32-16.43-125.88,0-125.37,43.87-227,98-227,20.3,0,39.15,14.29,54.79,38.77l29.14-133.06,128,124v31.71h.07s221-3.42,175,290.58"/><polygon class="cls-1" points="739.51 741.52 739.51 518.52 783.51 408.22 783.51 740.23 739.51 741.52"/><polyline class="cls-1" points="925.51 741.52 925.51 518.52 783.51 408.22 888.51 425 926.55 518.52"/><path class="cls-1" d="M479.91,114.77A36.51,36.51,0,0,0,520.23,147l46.89-5.21A26.51,26.51,0,1,0,548.65,94a36.52,36.52,0,0,0-68.74,20.78Z"/><path class="cls-2" d="M479.91,114.77A36.51,36.51,0,0,0,520.23,147l46.89-5.21A26.51,26.51,0,1,0,548.65,94a36.52,36.52,0,0,0-68.74,20.78Z"/><path class="cls-3" d="M549.19,126.38a36.53,36.53,0,0,1-48.63,17.35"/><path class="cls-3" d="M547.79,129a36.5,36.5,0,0,1-49.88,13.3"/><path class="cls-4" d="M978.56,329.43l-11.22-3.61c1.17-5.77,2.34-11.53,3.52-17.32l-7-2.13c-1.18,5.8-2.33,11.5-3.49,17.19l-10.81-3.48L953,302.94l-22.17-6.72c1-4.77,1.91-9.4,2.86-14.14.34.1.62.19.9.26,1.36.36,2.72.77,4.1,1.06,2.39.51,3.89-.83,4.64-4.08.34-1.44.69-2.88,1-4.33q5.33-26.24,10.63-52.52c.48-2.37.91-4.75,1.34-7.13.58-3.25-.29-5.25-2.62-5.93-1.39-.41-2.8-.67-4.2-1l-.82-.23c1-4.77,1.9-9.41,2.87-14.21l22.7,4.32c1.18-5.82,2.33-11.48,3.47-17.15l11.16,1.92q-1.76,8.64-3.51,17.29l7.21,1.37,3.53-17.41,11.59,2c-.09.46-.16.92-.25,1.38-1,5.16-2.07,10.32-3.17,15.47-.25,1.17-.17,1.79.8,2a12,12,0,0,1,2.18.88,22.89,22.89,0,0,1,10.11,8.61c3.47,5.4,4.78,11.81,3.61,19.2a28.66,28.66,0,0,1-5.75,13.44,23.66,23.66,0,0,1-13.92,8.78c-.37.08-.74.19-1.1.29a2.14,2.14,0,0,0,.8.85,29.42,29.42,0,0,1,7.89,6.94,26.6,26.6,0,0,1,5.13,17.17c-.41,12.53-5.5,21.38-14.36,26.69-5.26,3.15-10.76,3.61-16.24,3-.85-.1-1.12.2-1.33,1.24C980.92,318,979.73,323.7,978.56,329.43Zm-10.77-71.88c-.08.35-.14.57-.18.79-1.5,7.4-3,14.79-4.49,22.19-.32,1.59-.56,3.21-.76,4.83-.17,1.34.2,2.29,1.14,2.61,2.62.92,5.25,1.83,7.94,2.54a52.3,52.3,0,0,0,7.14,1.37,9.92,9.92,0,0,0,7.41-2.16c3-2.37,5-5.8,6-10.17,1.42-6.05,0-11.62-3.8-14.94a18.77,18.77,0,0,0-7.39-3.74c-4.1-1.19-8.21-2.16-12.27-3.21C968.3,257.61,968.08,257.6,967.79,257.55ZM971,242a6.72,6.72,0,0,0,.69.25c2.71.64,5.42,1.3,8.17,1.91a28.3,28.3,0,0,0,9.59.93,10.14,10.14,0,0,0,7.07-3.91c4.53-5.72,5-16.47-1.87-19.85a25.43,25.43,0,0,0-5.13-2c-4.23-1-8.46-1.89-12.64-2.8a6.75,6.75,0,0,0-.71-.06Z"/><path class="cls-5" d="M1065.33,275c14.53-67.08-13.88-130.16-63.44-140.9S900.36,169,885.83,236.1,899.7,366.26,949.27,377,1050.8,342.05,1065.33,275Z"/><path class="cls-5" d="M1012,136.41c4.11.13,9.78,3,13.89,3.9,49.56,10.73,78.18,72.84,63.65,139.92s-66.28,111.77-115.84,101c-4.11-.89-14.58-.49-18.38-2.07"/><path class="cls-6" d="M1051.59,272c-12.83,59.21-51.91,99.26-95,92.53-1.17-.17-2.32-.39-3.48-.64-44.14-9.56-69.66-64.64-56.49-125.45s59.41-101.38,103.55-91.82c1.16.25,2.3.53,3.43.86C1045.62,159.17,1064.41,212.78,1051.59,272Z"/><path class="cls-5" d="M1051.59,272c-12.83,59.21-52.33,99.17-95.92,92.33-42.51-11.81-66.82-65.58-54-124.79s57.41-99.11,101-92.26C1045.2,159.08,1064.42,212.78,1051.59,272Z"/><line class="cls-6" x1="1050.99" y1="167.66" x2="1072.44" y2="172.3"/><line class="cls-6" x1="1058.72" y1="181.54" x2="1080.17" y2="186.18"/><line class="cls-6" x1="1064.39" y1="195.94" x2="1085.84" y2="200.59"/><line class="cls-6" x1="1045.66" y1="326.36" x2="1067.11" y2="331.01"/><line class="cls-6" x1="1037.37" y1="338.72" x2="1058.81" y2="343.37"/><line class="cls-6" x1="1029.4" y1="348.47" x2="1050.85" y2="353.11"/><line class="cls-6" x1="1019.9" y1="357.39" x2="1041.35" y2="362.04"/><line class="cls-6" x1="1010.52" y1="364.63" x2="1031.97" y2="369.28"/><line class="cls-6" x1="1068.52" y1="212.95" x2="1089.96" y2="217.59"/><line class="cls-6" x1="1069.97" y1="233.27" x2="1091.42" y2="237.92"/><line class="cls-6" x1="1070.49" y1="253.4" x2="1091.94" y2="258.04"/><line class="cls-6" x1="1067.05" y1="272.67" x2="1088.5" y2="277.31"/><line class="cls-6" x1="1063.61" y1="291.93" x2="1085.06" y2="296.58"/><line class="cls-6" x1="1055.51" y1="310.19" x2="1076.95" y2="314.84"/><path class="cls-5" d="M312,278.22c-16.38-66.66,10.28-130.5,59.53-142.6S474,167.75,490.36,234.4,480.08,364.89,430.83,377,328.37,344.87,312,278.22Z"/><path class="cls-5" d="M361.46,138.23c-4.11.24-9.7,3.28-13.79,4.28-49.24,12.1-76.13,75-59.76,141.63s69.34,109.9,118.58,97.8c4.09-1,14.57-.89,18.32-2.58"/><path class="cls-6" d="M325.65,274.87c14.46,58.83,54.63,97.78,97.5,89.86,1.16-.19,2.31-.45,3.46-.73,43.85-10.77,67.85-66.54,53-127s-62.19-99.7-106-88.93c-1.15.28-2.28.59-3.4,1C328.51,161.91,311.2,216,325.65,274.87Z"/><path class="cls-5" d="M325.65,274.87c14.45,58.83,55.05,97.68,98.43,89.63,42.17-13,65-67.4,50.53-126.23s-60.13-97.48-103.51-89.43C328.92,161.81,311.2,216,325.65,274.87Z"/><line class="cls-6" x1="323.37" y1="170.54" x2="302.06" y2="175.78"/><line class="cls-6" x1="316.02" y1="184.63" x2="294.71" y2="189.86"/><line class="cls-6" x1="310.76" y1="199.19" x2="289.45" y2="204.42"/><line class="cls-6" x1="333.08" y1="329.04" x2="311.77" y2="334.27"/><line class="cls-6" x1="341.71" y1="341.16" x2="320.4" y2="346.4"/><line class="cls-6" x1="349.94" y1="350.69" x2="328.63" y2="355.92"/><line class="cls-6" x1="359.68" y1="359.34" x2="338.37" y2="364.58"/><line class="cls-6" x1="369.26" y1="366.33" x2="347.95" y2="371.56"/><line class="cls-6" x1="307.1" y1="216.29" x2="285.79" y2="221.53"/><line class="cls-6" x1="306.21" y1="236.66" x2="284.9" y2="241.89"/><line class="cls-6" x1="306.24" y1="256.79" x2="284.93" y2="262.02"/><line class="cls-6" x1="310.21" y1="275.95" x2="288.9" y2="281.19"/><line class="cls-6" x1="314.18" y1="295.12" x2="292.87" y2="300.35"/><line class="cls-6" x1="322.79" y1="313.14" x2="301.48" y2="318.38"/><path class="cls-4" d="M441.1,285.47c-2.53,7-7.3,12.82-14.47,17.47l3.83,15.56-15,6.15-3.78-15.39a64,64,0,0,1-17.4,2.68,46.72,46.72,0,0,1-15.8-2.2l3.08-29.45a52.14,52.14,0,0,0,15.22,3,40.79,40.79,0,0,0,14.12-1.58q5.34-1.65,7.24-3.68a4.76,4.76,0,0,0,1.24-4.68,4.86,4.86,0,0,0-4.06-3.79,54.38,54.38,0,0,0-10.78-.64,102.41,102.41,0,0,1-17-1.12,29.55,29.55,0,0,1-14-6.72c-4.54-3.74-7.8-9.55-9.72-17.39-2.23-9.07-1.36-17.32,2.55-24.63,3.82-7.14,10.39-12.14,19.5-15l-3.89-15.83,16.16-1.51,3.69,15c8.86-.09,16.54,1.62,23.15,5L423.45,231c-8.25-3.37-15.78-4.48-22.53-3.24s-9.87,4.05-8.82,8.32a5.28,5.28,0,0,0,4.25,3.94,55.9,55.9,0,0,0,10.76,1.1,82.61,82.61,0,0,1,15.48,1.63,25.49,25.49,0,0,1,11.65,6.33q5.37,4.89,7.83,15A36.15,36.15,0,0,1,441.1,285.47Z"/><path class="cls-7" d="M558.09,436.29s9.45-14.16,22.83-14.16h41.72l-13.38,13.38H573.83"/><polyline class="cls-7" points="586.43 443.38 591.94 448.1 621.85 448.1 641.13 428.82"/><path class="cls-7" d="M643.89,419h14.17s5.51,8.66-1.58,14.95H643.89"/><path class="cls-7" d="M590.36,428.42Z"/><path class="cls-7" d="M596.27,428.42Z"/><path class="cls-7" d="M603,428.42Z"/><line class="cls-7" x1="680.89" y1="426.59" x2="739.66" y2="426.59"/><line class="cls-7" x1="668.29" y1="433.93" x2="693.48" y2="433.93"/><path class="cls-8" d="M558.09,436.29s9.45-14.16,22.83-14.16h41.72l-13.38,13.38H573.83"/><polyline class="cls-8" points="586.43 443.38 591.94 448.1 621.85 448.1 641.13 428.82"/><path class="cls-8" d="M643.89,419h14.17s5.51,8.66-1.58,14.95H643.89"/><path class="cls-8" d="M590.36,428.42Z"/><path class="cls-8" d="M596.27,428.42Z"/><path class="cls-8" d="M603,428.42Z"/><line class="cls-8" x1="680.89" y1="426.59" x2="739.66" y2="426.59"/><line class="cls-8" x1="668.29" y1="433.93" x2="693.48" y2="433.93"/><path class="cls-7" d="M328,98.08s-9.45-14.17-22.83-14.17H263.47l13.38,13.38h35.42"/><polyline class="cls-7" points="299.68 105.16 294.17 109.88 264.26 109.88 244.97 90.6"/><path class="cls-7" d="M242.22,80.76H228.05s-5.51,8.66,1.57,15h12.6"/><path class="cls-7" d="M295.74,90.2Z"/><path class="cls-7" d="M289.84,90.2Z"/><path class="cls-7" d="M283.15,90.2Z"/><line class="cls-7" x1="205.22" y1="88.37" x2="146.44" y2="88.37"/><line class="cls-7" x1="217.81" y1="95.72" x2="192.62" y2="95.72"/><path class="cls-8" d="M328,98.08s-9.45-14.17-22.83-14.17H263.47l13.38,13.38h35.42"/><polyline class="cls-8" points="299.68 105.16 294.17 109.88 264.26 109.88 244.97 90.6"/><path class="cls-8" d="M242.22,80.76H228.05s-5.51,8.66,1.57,15h12.6"/><path class="cls-8" d="M295.74,90.2Z"/><path class="cls-8" d="M289.84,90.2Z"/><path class="cls-8" d="M283.15,90.2Z"/><line class="cls-8" x1="205.22" y1="88.37" x2="146.44" y2="88.37"/><line class="cls-8" x1="217.81" y1="95.72" x2="192.62" y2="95.72"/><path class="cls-1" d="M1048.51,742.4V247.52c0-61,195-123,195-87V741.39Z"/><path class="cls-1" d="M993.51,742.4V580.52c0-62,29-178,55-216-48,16-103,74-122,143V742.4Z"/><path class="cls-9" d="M1146,238.12c49.77-22.27,70.5-30.46,97.5-67.6v74.61c-45.84,36.5-79.88,62.95-79.88,62.95Z"/><polygon class="cls-9" points="1289.68 324.69 1296.39 738.52 1331.76 738.52 1331.76 685.27 1318.51 674.52 1318.01 508.02 1299.18 491.85 1298.51 333.52 1289.68 324.69"/><path class="cls-9" d="M1146,740.52s-55.51-318,125.5-512.69V741.52Z"/><path class="cls-9" d="M994.51,741.52s-14.68-277.67,54-377v377Z"/><polygon class="cls-9" points="783.51 409.19 783.51 738.52 925.51 738.52 925.51 518.52 783.51 409.19"/><polyline class="cls-3" points="739.51 741.52 739.51 518.52 783.51 408.22 783.51 676.52"/><line class="cls-3" x1="783.51" y1="689.52" x2="783.51" y2="722.52"/><polyline class="cls-3" points="925.51 741.52 925.51 518.52 783.51 408.22 888.51 425 926.55 518.52"/><path class="cls-3" d="M926.55,507.52c19-69,74-127,122-143-26,38-55,154-55,216"/><line class="cls-3" x1="994.51" y1="671.52" x2="994.51" y2="738.52"/><path class="cls-3" d="M1048.51,742.4V247.52c0-61,195-123,195-87v77"/><path class="cls-3" d="M1048.51,247.52c0,26,192-21,195-87"/><path class="cls-3" d="M1134.51,738.52s-57-262,0-409c35-24,137-107,137-107v152"/><path class="cls-3" d="M1146,738.52c-3.5-8-45.5-342.39,125.5-510.69"/><line class="cls-3" x1="1271.51" y1="389.52" x2="1271.51" y2="738.52"/><polyline class="cls-3" points="1278.51 313.52 1298.51 333.52 1298.51 488.52 1318.01 508.02 1318.01 671.52 1331.76 685.27 1331.76 738.52"/><path class="cls-9" d="M436.58,450.94s107.64-4.42,94.64,290.58h80C640.89,581.19,572.93,458,436.58,450.94Z"/><polygon class="cls-9" points="308.22 295.52 436.22 418.52 436.22 738.52 308.22 738.52 308.22 295.52"/><path class="cls-9" d="M211.71,391.35c-11.62,5,61.84,4.5,29.47,350.17h36v-313C256.89,385.85,222.43,386.77,211.71,391.35Z"/><path class="cls-3" d="M279,428.29c-15.64-24.48-34.49-38.77-54.79-38.77-54.13,0-98,101.63-98,227,0,46.56,6.05,89.85,16.43,125.88"/><polyline class="cls-3" points="277.22 741.52 277.22 428.52 308.22 295.52 308.22 712.52"/><polyline class="cls-3" points="308.22 295.52 436.22 418.52 436.22 738.52"/><path class="cls-3" d="M146.22,492.23c15.58-30.93,90.57-34.14,131-18.11"/><path class="cls-3" d="M506.14,518.52s-12.92-54.15-69.92-67.58c0,0,221-3.42,175,290.58"/><path class="cls-3" d="M531.22,681.52s2,39,0,60"/><path class="cls-3" d="M122.14,645.16a297.53,297.53,0,0,1-32.26,27.58"/><line class="cls-3" x1="80.22" y1="742.4" x2="173.18" y2="742.4"/><line class="cls-3" x1="711.23" y1="741.52" x2="1352.12" y2="741.52"/><line class="cls-3" x1="221.18" y1="741.52" x2="645.23" y2="741.52"/><path class="cls-4" d="M314.35,818.8q-3.3,3.23-9.53,4V829H299.3v-6a30,30,0,0,1-7.77-1.44,19.65,19.65,0,0,1-5.95-3l3-6.73a20.09,20.09,0,0,0,4.9,2.59,22.75,22.75,0,0,0,5.79,1.33v-9.21a41.19,41.19,0,0,1-6.61-2.09,11.81,11.81,0,0,1-4.52-3.39,9.13,9.13,0,0,1-1.82-5.93,10.65,10.65,0,0,1,3.33-7.86q3.35-3.27,9.62-4v-6.12h5.52v6A24.3,24.3,0,0,1,316,786.53l-2.75,6.78a22,22,0,0,0-8.43-2.87v9.37a39.48,39.48,0,0,1,6.53,2,11.4,11.4,0,0,1,4.49,3.36,9,9,0,0,1,1.82,5.87A10.41,10.41,0,0,1,314.35,818.8ZM296.27,797a8.72,8.72,0,0,0,3,1.49v-7.83a5.94,5.94,0,0,0-3.08,1.57,3.55,3.55,0,0,0-1,2.51A2.82,2.82,0,0,0,296.27,797Zm11.52,17.14a3.23,3.23,0,0,0,1-2.37,2.85,2.85,0,0,0-1-2.26,8.91,8.91,0,0,0-2.94-1.54v7.6A5.91,5.91,0,0,0,307.79,814.09Z"/><path class="cls-4" d="M329.34,820.65a16,16,0,0,1-5.87-6.86,28.16,28.16,0,0,1,0-21.44,15.92,15.92,0,0,1,5.87-6.87,16.59,16.59,0,0,1,17.09,0,15.86,15.86,0,0,1,5.87,6.87,28.16,28.16,0,0,1,0,21.44,15.89,15.89,0,0,1-5.87,6.86,16.59,16.59,0,0,1-17.09,0Zm14.09-8.21c1.34-2,2-5.15,2-9.37s-.67-7.35-2-9.37a6.52,6.52,0,0,0-11,0q-2,3-2,9.37c0,4.22.67,7.35,2,9.37a6.53,6.53,0,0,0,11,0Z"/><path class="cls-4" d="M359.33,821.26a5.24,5.24,0,0,1-1.54-3.86,5,5,0,0,1,1.54-3.83,5.69,5.69,0,0,1,7.61,0,5.05,5.05,0,0,1,1.54,3.83,5.28,5.28,0,0,1-1.54,3.86,5.47,5.47,0,0,1-7.61,0Z"/><path class="cls-4" d="M379.78,820.65a15.89,15.89,0,0,1-5.87-6.86,28.16,28.16,0,0,1,0-21.44,15.86,15.86,0,0,1,5.87-6.87,16.59,16.59,0,0,1,17.09,0,15.92,15.92,0,0,1,5.87,6.87,28.16,28.16,0,0,1,0,21.44,16,16,0,0,1-5.87,6.86,16.59,16.59,0,0,1-17.09,0Zm14.08-8.21c1.35-2,2-5.15,2-9.37s-.67-7.35-2-9.37a6.51,6.51,0,0,0-11,0q-2,3-2,9.37c0,4.22.67,7.35,2,9.37a6.52,6.52,0,0,0,11,0Z"/><path class="cls-4" d="M423.77,783.77v38.59h-8.93V790.94h-7.72v-7.17Z"/><line class="cls-10" x1="863.77" y1="776.52" x2="863.77" y2="786.19"/><path class="cls-4" d="M878.43,805.8a11.33,11.33,0,0,1,1.5,6q0,5.07-3.15,7.8c-2.11,1.82-5.17,2.73-9.2,2.73h-16V783.77H866.7c3.76,0,6.65.91,8.66,2.71a9.31,9.31,0,0,1,3,7.33,11.24,11.24,0,0,1-1.08,5,8.54,8.54,0,0,1-3,3.48A8.26,8.26,0,0,1,878.43,805.8Zm-19.71-15.3v9.09h7.1a6.07,6.07,0,0,0,4-1.15A4.23,4.23,0,0,0,871.2,795a4.14,4.14,0,0,0-1.37-3.39,6.18,6.18,0,0,0-4-1.13Zm12.59,24a4.36,4.36,0,0,0,1.43-3.59q0-4.78-5.69-4.79h-8.33v9.53h8.33A6.7,6.7,0,0,0,871.31,814.48Z"/><path class="cls-4" d="M891.83,820.65a16,16,0,0,1-5.87-6.86,28.16,28.16,0,0,1,0-21.44,15.92,15.92,0,0,1,5.87-6.87,16.59,16.59,0,0,1,17.09,0,15.86,15.86,0,0,1,5.87,6.87,28,28,0,0,1,0,21.44,15.89,15.89,0,0,1-5.87,6.86,16.59,16.59,0,0,1-17.09,0Zm14.09-8.21c1.34-2,2-5.15,2-9.37s-.67-7.35-2-9.37a6.52,6.52,0,0,0-11,0q-2,3-2,9.37c0,4.22.67,7.35,2,9.37a6.53,6.53,0,0,0,11,0Z"/><path class="cls-4" d="M921.82,821.26a5.24,5.24,0,0,1-1.54-3.86,5,5,0,0,1,1.54-3.83,5.69,5.69,0,0,1,7.61,0A5,5,0,0,1,931,817.4a5.24,5.24,0,0,1-1.54,3.86,5.47,5.47,0,0,1-7.61,0Z"/><path class="cls-4" d="M942.27,820.65a16,16,0,0,1-5.87-6.86,28.16,28.16,0,0,1,0-21.44,15.92,15.92,0,0,1,5.87-6.87,16.59,16.59,0,0,1,17.09,0,15.92,15.92,0,0,1,5.87,6.87,28.16,28.16,0,0,1,0,21.44,16,16,0,0,1-5.87,6.86,16.59,16.59,0,0,1-17.09,0Zm14.08-8.21c1.35-2,2-5.15,2-9.37s-.67-7.35-2-9.37a6.51,6.51,0,0,0-11,0q-2,3-2,9.37c0,4.22.67,7.35,2,9.37a6.52,6.52,0,0,0,11,0Z"/><path class="cls-4" d="M979.7,820.65a15.89,15.89,0,0,1-5.87-6.86,28.16,28.16,0,0,1,0-21.44,15.86,15.86,0,0,1,5.87-6.87,16.59,16.59,0,0,1,17.09,0,15.92,15.92,0,0,1,5.87,6.87,28.16,28.16,0,0,1,0,21.44,16,16,0,0,1-5.87,6.86,16.59,16.59,0,0,1-17.09,0Zm14.08-8.21c1.34-2,2-5.15,2-9.37s-.67-7.35-2-9.37a6.51,6.51,0,0,0-11,0q-2,3-2,9.37c0,4.22.67,7.35,2,9.37a6.52,6.52,0,0,0,11,0Z"/><path class="cls-4" d="M1017.13,820.65a16,16,0,0,1-5.88-6.86,28.16,28.16,0,0,1,0-21.44,15.94,15.94,0,0,1,5.88-6.87,16.57,16.57,0,0,1,17.08,0,15.86,15.86,0,0,1,5.87,6.87,28,28,0,0,1,0,21.44,15.89,15.89,0,0,1-5.87,6.86,16.57,16.57,0,0,1-17.08,0Zm14.08-8.21c1.34-2,2-5.15,2-9.37s-.67-7.35-2-9.37a6.52,6.52,0,0,0-11,0q-2,3-2,9.37c0,4.22.67,7.35,2,9.37a6.53,6.53,0,0,0,11,0Z"/><path class="cls-4" d="M1054.55,820.65a16,16,0,0,1-5.87-6.86,28.16,28.16,0,0,1,0-21.44,15.92,15.92,0,0,1,5.87-6.87,16.59,16.59,0,0,1,17.09,0,15.86,15.86,0,0,1,5.87,6.87,28.16,28.16,0,0,1,0,21.44,15.89,15.89,0,0,1-5.87,6.86,16.59,16.59,0,0,1-17.09,0Zm14.09-8.21c1.34-2,2-5.15,2-9.37s-.67-7.35-2-9.37a6.52,6.52,0,0,0-11,0q-2,3-2,9.37c0,4.22.67,7.35,2,9.37a6.53,6.53,0,0,0,11,0Z"/><path class="cls-4" d="M1092,820.65a15.89,15.89,0,0,1-5.87-6.86,28.16,28.16,0,0,1,0-21.44,15.86,15.86,0,0,1,5.87-6.87,16.59,16.59,0,0,1,17.09,0,15.92,15.92,0,0,1,5.87,6.87,28.16,28.16,0,0,1,0,21.44,16,16,0,0,1-5.87,6.86,16.59,16.59,0,0,1-17.09,0Zm14.08-8.21c1.34-2,2-5.15,2-9.37s-.68-7.35-2-9.37a6.51,6.51,0,0,0-11,0q-2,3-2,9.37c0,4.22.67,7.35,2,9.37a6.52,6.52,0,0,0,11,0Z"/><path class="cls-4" d="M1129.41,820.65a15.89,15.89,0,0,1-5.87-6.86,28,28,0,0,1,0-21.44,15.86,15.86,0,0,1,5.87-6.87,16.57,16.57,0,0,1,17.08,0,15.86,15.86,0,0,1,5.87,6.87,28,28,0,0,1,0,21.44,15.89,15.89,0,0,1-5.87,6.86,16.57,16.57,0,0,1-17.08,0Zm14.08-8.21c1.34-2,2-5.15,2-9.37s-.67-7.35-2-9.37a6.52,6.52,0,0,0-11,0q-2,3-2,9.37c0,4.22.67,7.35,2,9.37a6.53,6.53,0,0,0,11,0Z"/><path class="cls-4" d="M1166.83,820.65a16,16,0,0,1-5.87-6.86,28.16,28.16,0,0,1,0-21.44,15.92,15.92,0,0,1,5.87-6.87,16.59,16.59,0,0,1,17.09,0,15.86,15.86,0,0,1,5.87,6.87,28.16,28.16,0,0,1,0,21.44,15.89,15.89,0,0,1-5.87,6.86,16.59,16.59,0,0,1-17.09,0Zm14.09-8.21c1.34-2,2-5.15,2-9.37s-.67-7.35-2-9.37a6.52,6.52,0,0,0-11,0q-2,3-2,9.37c0,4.22.67,7.35,2,9.37a6.53,6.53,0,0,0,11,0Z"/><path class="cls-4" d="M1210.82,783.77v38.59h-8.93V790.94h-7.72v-7.17Z"/><line class="cls-10" x1="863.77" y1="819.19" x2="863.77" y2="828.85"/><path class="cls-1" d="M1123.89,138.76a43.44,43.44,0,0,0,43.44,43.44h94.84a23.43,23.43,0,0,0,0-46.86,23.12,23.12,0,0,0-10,2.25,31.51,31.51,0,0,0-44.25-14.37,43.45,43.45,0,0,0-84,15.54Z"/><path class="cls-3" d="M1123.89,138.76a43.44,43.44,0,0,0,43.44,43.44h94.84a23.43,23.43,0,0,0,0-46.86,23.12,23.12,0,0,0-10,2.25,31.51,31.51,0,0,0-44.25-14.37,43.45,43.45,0,0,0-84,15.54Z"/><path class="cls-3" d="M1202.56,164.18a43.45,43.45,0,0,1-60.64,9.81"/><path class="cls-3" d="M1243.21,175.3a31.51,31.51,0,0,1-19.62,6.92"/></svg>